# Blender v2.92.0 OBJ File: ''
# www.blender.org
mtllib breakable_wall.mtl
o Cube.002
v 0.404250 -0.428000 -0.404250
v 0.404250 -0.428000 0.404250
v -0.404250 -0.428000 0.404250
v -0.404250 -0.428000 -0.404250
v -0.404250 0.436000 0.404250
v 0.404250 0.436000 0.404250
v 0.404250 0.436000 -0.404250
v -0.404250 0.436000 -0.404250
v 0.432000 0.408250 -0.404250
v 0.432000 0.408250 0.404250
v 0.432000 -0.400250 0.404250
v 0.432000 -0.400250 -0.404250
v 0.404250 -0.500000 -0.404250
v -0.404250 -0.500000 -0.404250
v -0.404250 -0.500000 -0.504000
v 0.404250 -0.500000 -0.504000
v -0.404250 -0.500000 0.404250
v 0.404250 -0.500000 0.404250
v 0.404250 -0.500000 0.504000
v -0.404250 -0.500000 0.504000
v -0.404250 0.508000 -0.404250
v 0.404250 0.508000 -0.404250
v 0.404250 0.508000 -0.504000
v -0.404250 0.508000 -0.504000
v 0.404250 0.508000 0.404250
v -0.404250 0.508000 0.404250
v -0.404250 0.508000 0.504000
v 0.404250 0.508000 0.504000
v 0.504000 0.408250 -0.404250
v 0.504000 -0.400250 -0.404250
v 0.504000 -0.400250 -0.504000
v 0.504000 0.408250 -0.504000
v 0.504000 -0.400250 0.404250
v 0.504000 0.408250 0.404250
v 0.504000 0.408250 0.504000
v 0.504000 -0.400250 0.504000
v -0.504000 0.408250 0.404250
v -0.504000 -0.400250 0.404250
v -0.504000 -0.400250 0.504000
v -0.504000 0.408250 0.504000
v -0.504000 -0.400250 -0.404250
v -0.504000 0.408250 -0.404250
v -0.504000 0.408250 -0.504000
v -0.504000 -0.400250 -0.504000
v 0.404250 0.408250 0.504000
v -0.404250 0.408250 0.504000
v -0.404250 -0.400250 0.504000
v 0.404250 -0.400250 0.504000
v 0.504000 0.508000 -0.404250
v 0.504000 0.508000 0.404250
v 0.504000 -0.500000 0.404250
v 0.504000 -0.500000 -0.404250
v 0.404250 0.408250 -0.504000
v -0.404250 0.408250 -0.504000
v -0.404250 -0.400250 -0.504000
v 0.404250 -0.400250 -0.504000
v -0.504000 0.508000 -0.404250
v -0.504000 0.508000 0.404250
v -0.504000 -0.500000 0.404250
v -0.504000 -0.500000 -0.404250
v 0.504000 0.508000 -0.504000
v 0.504000 -0.500000 -0.504000
v 0.504000 -0.500000 0.504000
v 0.504000 0.508000 0.504000
v -0.504000 0.508000 0.504000
v -0.504000 -0.500000 0.504000
v -0.504000 -0.500000 -0.504000
v -0.504000 0.508000 -0.504000
v -0.404250 0.408250 0.432000
v 0.404250 0.408250 0.432000
v -0.404250 -0.400250 0.432000
v 0.404250 -0.400250 0.432000
v 0.404250 0.408250 -0.432000
v -0.404250 0.408250 -0.432000
v 0.404250 -0.400250 -0.432000
v -0.404250 -0.400250 -0.432000
v -0.432000 0.408250 0.404250
v -0.432000 -0.400250 0.404250
v -0.432000 0.408250 -0.404250
v -0.432000 -0.400250 -0.404250
vt 0.287300 0.056300
vt 0.287300 0.282400
vt 0.061200 0.282400
vt 0.061200 0.056300
vt 0.621800 0.620900
vt 0.395400 0.620900
vt 0.395400 0.394400
vt 0.621800 0.394400
vt 0.299200 0.394400
vt 0.299200 0.620900
vt 0.072700 0.620900
vt 0.072700 0.394400
vt 0.287300 0.036100
vt 0.061200 0.036100
vt 0.061200 0.008200
vt 0.287300 0.008200
vt 0.061200 0.302500
vt 0.287300 0.302500
vt 0.287300 0.330400
vt 0.061200 0.330400
vt 0.621800 0.374200
vt 0.395400 0.374200
vt 0.395400 0.346300
vt 0.621800 0.346300
vt 0.395400 0.641000
vt 0.621800 0.641000
vt 0.621800 0.669000
vt 0.395400 0.669000
vt 0.299200 0.374200
vt 0.072700 0.374200
vt 0.072700 0.346300
vt 0.299200 0.346300
vt 0.072700 0.641000
vt 0.299200 0.641000
vt 0.299200 0.669000
vt 0.072700 0.669000
vt 0.718100 0.641000
vt 0.944500 0.641000
vt 0.944500 0.669000
vt 0.718100 0.669000
vt 0.944500 0.374200
vt 0.718100 0.374200
vt 0.718100 0.346300
vt 0.944500 0.346300
vt 0.395400 0.696900
vt 0.621800 0.696900
vt 0.621800 0.963700
vt 0.621800 0.991700
vt 0.395400 0.991700
vt 0.395400 0.963700
vt 0.347300 0.394400
vt 0.347300 0.620900
vt 0.319300 0.620900
vt 0.319300 0.394400
vt 0.052500 0.394400
vt 0.052500 0.620900
vt 0.024600 0.620600
vt 0.024600 0.394300
vt 0.395400 0.318300
vt 0.621800 0.318300
vt 0.621800 0.051500
vt 0.395400 0.051500
vt 0.395400 0.023600
vt 0.621800 0.023600
vt 0.670000 0.394400
vt 0.697900 0.394400
vt 0.697900 0.620900
vt 0.670000 0.620900
vt 0.992600 0.620900
vt 0.964700 0.620900
vt 0.964700 0.394400
vt 0.992600 0.394400
vt 0.319300 0.366500
vt 0.347300 0.366500
vt 0.052500 0.366500
vt 0.024600 0.366500
vt 0.052500 0.648800
vt 0.024600 0.648800
vt 0.319300 0.648800
vt 0.347300 0.648800
vt 0.697900 0.648800
vt 0.670000 0.648800
vt 0.964700 0.648800
vt 0.992600 0.648800
vt 0.964700 0.366500
vt 0.992600 0.366500
vt 0.697900 0.366500
vt 0.670000 0.366500
vt 0.335400 0.282600
vt 0.307500 0.282400
vt 0.307500 0.056300
vt 0.335400 0.056300
vt 0.013200 0.282400
vt 0.013200 0.056300
vt 0.041100 0.056300
vt 0.041100 0.282400
vt 0.642000 0.620900
vt 0.642000 0.394400
vt 0.375200 0.394400
vt 0.375200 0.620900
vt 0.670000 0.717100
vt 0.670000 0.943500
vt 0.642000 0.943500
vt 0.642000 0.717100
vt 0.347300 0.717100
vt 0.375200 0.717100
vt 0.375200 0.943500
vt 0.347300 0.943500
vt 0.347300 0.298200
vt 0.347300 0.071700
vt 0.375200 0.071700
vt 0.375200 0.298200
vt 0.670000 0.071700
vt 0.670000 0.298200
vt 0.642000 0.298200
vt 0.642000 0.071700
vt 0.315200 0.008200
vt 0.315200 0.036100
vt 0.033300 0.008200
vt 0.033300 0.036100
vt 0.033300 0.302500
vt 0.033300 0.330400
vt 0.315200 0.302500
vt 0.315200 0.330400
vt 0.649800 0.374200
vt 0.649800 0.346300
vt 0.367400 0.374200
vt 0.367400 0.346300
vt 0.367400 0.669000
vt 0.367400 0.641000
vt 0.649800 0.669000
vt 0.649800 0.641000
vt 0.649800 0.696900
vt 0.367400 0.696900
vt 0.367400 0.991700
vt 0.367400 0.963700
vt 0.649800 0.963700
vt 0.649800 0.991700
vt 0.367400 0.318300
vt 0.649800 0.318300
vt 0.649800 0.023600
vt 0.649800 0.051500
vt 0.367400 0.051500
vt 0.367400 0.023600
vt 0.621800 0.717100
vt 0.395400 0.717100
vt 0.621800 0.943500
vt 0.395400 0.943500
vt 0.395400 0.298200
vt 0.621800 0.298200
vt 0.395400 0.071700
vt 0.621800 0.071700
vt 0.718100 0.620900
vt 0.944500 0.620900
vt 0.718100 0.394400
vt 0.944500 0.394400
vn 0.0000 -1.0000 -0.0000
vn 0.0000 1.0000 0.0000
vn 1.0000 0.0000 0.0000
vn -1.0000 0.0000 0.0000
vn 0.0000 0.0000 1.0000
vn 0.0000 0.0000 -1.0000
vn -0.7071 0.0000 0.7071
vn 0.7071 0.0000 0.7071
vn -0.7071 0.0000 -0.7071
vn 0.7071 0.0000 -0.7071
vn 0.7071 -0.7071 0.0000
vn -0.7071 -0.7071 0.0000
vn 0.7071 0.7071 0.0000
vn -0.7071 0.7071 0.0000
vn 0.0000 -0.7071 0.7071
vn 0.0000 0.7071 0.7071
vn 0.0000 -0.7071 -0.7071
vn 0.0000 0.7071 -0.7071
usemtl Cube.001
s 1
f 1/1/1 2/2/1 3/3/1 4/4/1
f 5/5/2 6/6/2 7/7/2 8/8/2
f 9/9/3 10/10/3 11/11/3 12/12/3
f 13/13/1 14/14/1 15/15/1 16/16/1
f 17/17/1 18/18/1 19/19/1 20/20/1
f 21/21/2 22/22/2 23/23/2 24/24/2
f 25/25/2 26/26/2 27/27/2 28/28/2
f 29/29/3 30/30/3 31/31/3 32/32/3
f 33/33/3 34/34/3 35/35/3 36/36/3
f 37/37/4 38/38/4 39/39/4 40/40/4
f 41/41/4 42/42/4 43/43/4 44/44/4
f 45/45/5 28/28/5 27/27/5 46/46/5
f 47/47/5 20/48/5 19/49/5 48/50/5
f 49/51/3 50/52/3 34/53/3 29/54/3
f 30/55/3 33/56/3 51/57/3 52/58/3
f 53/59/6 54/60/6 24/24/6 23/23/6
f 55/61/6 56/62/6 16/63/6 15/64/6
f 57/65/4 42/66/4 37/67/4 58/68/4
f 59/69/4 38/70/4 41/71/4 60/72/4
f 29/54/3 32/73/3 61/74/3 49/51/3
f 31/75/3 30/55/3 52/58/3 62/76/3
f 33/56/3 36/77/3 63/78/3 51/57/3
f 35/79/3 34/53/3 50/52/3 64/80/3
f 37/67/4 40/81/4 65/82/4 58/68/4
f 39/83/4 38/70/4 59/69/4 66/84/4
f 41/71/4 44/85/4 67/86/4 60/72/4
f 43/87/4 42/66/4 57/65/4 68/88/4
f 51/89/1 18/90/1 13/91/1 52/92/1
f 59/93/1 60/94/1 14/95/1 17/96/1
f 57/65/2 58/68/2 26/97/2 21/98/2
f 50/52/2 49/51/2 22/99/2 25/100/2
f 40/101/5 39/102/5 47/103/5 46/104/5
f 35/105/5 45/106/5 48/107/5 36/108/5
f 32/109/6 31/110/6 56/111/6 53/112/6
f 44/113/6 43/114/6 54/115/6 55/116/6
f 16/16/1 62/117/1 52/118/1 13/13/1
f 67/119/1 15/15/1 14/14/1 60/120/1
f 59/121/1 17/17/1 20/20/1 66/122/1
f 18/18/1 51/123/1 63/124/1 19/19/1
f 57/125/2 21/21/2 24/24/2 68/126/2
f 22/22/2 49/127/2 61/128/2 23/23/2
f 28/28/2 64/129/2 50/130/2 25/25/2
f 65/131/2 27/27/2 26/26/2 58/132/2
f 65/131/5 40/133/5 46/46/5 27/27/5
f 45/45/5 35/134/5 64/129/5 28/28/5
f 19/49/5 63/135/5 36/136/5 48/50/5
f 39/137/5 66/138/5 20/48/5 47/47/5
f 53/59/6 23/23/6 61/128/6 32/139/6
f 43/140/6 68/126/6 24/24/6 54/60/6
f 67/141/6 44/142/6 55/61/6 15/64/6
f 16/63/6 56/62/6 31/143/6 62/144/6
f 13/13/7 1/1/7 4/4/8 14/14/8
f 18/90/9 2/2/9 1/1/7 13/91/7
f 17/17/10 3/3/10 2/2/9 18/18/9
f 14/95/8 4/4/8 3/3/10 17/96/10
f 21/21/8 8/8/8 7/7/7 22/22/7
f 26/97/10 5/5/10 8/8/8 21/98/8
f 25/25/9 6/6/9 5/5/10 26/26/10
f 22/99/7 7/7/7 6/6/9 25/100/9
f 46/46/11 69/145/11 70/146/12 45/45/12
f 47/103/13 71/147/13 69/145/11 46/104/11
f 48/50/14 72/148/14 71/147/13 47/47/13
f 45/106/12 70/146/12 72/148/14 48/107/14
f 29/29/15 9/9/15 12/12/16 30/30/16
f 34/53/17 10/10/17 9/9/15 29/54/15
f 33/33/18 11/11/18 10/10/17 34/34/17
f 30/55/16 12/12/16 11/11/18 33/56/18
f 53/59/12 73/149/12 74/150/11 54/60/11
f 56/111/14 75/151/14 73/149/12 53/112/12
f 55/61/13 76/152/13 75/151/14 56/62/14
f 54/115/11 74/150/11 76/152/13 55/116/13
f 37/37/17 77/153/17 78/154/18 38/38/18
f 42/66/15 79/155/15 77/153/17 37/67/17
f 41/41/16 80/156/16 79/155/15 42/42/15
f 38/70/18 78/154/18 80/156/16 41/71/16
f 76/152/6 74/150/6 73/149/6 75/151/6
f 78/154/4 77/153/4 79/155/4 80/156/4
f 72/148/5 70/146/5 69/145/5 71/147/5
