# cube.obj
#

mtllib cube.mtl
o cube

v -0.500000 -0.500000 0.500000
v 0.500000 -0.500000 0.500000
v -0.500000 0.500000 0.500000
v 0.500000 0.500000 0.500000
v -0.500000 0.500000 -0.500000
v 0.500000 0.500000 -0.500000
v -0.500000 -0.500000 -0.500000
v 0.500000 -0.500000 -0.500000

vt 0.000000 0.000000
vt 0.333333 0.000000
vt 0.666666 0.000000
vt 1.000000 0.000000
vt 0.000000 0.500000
vt 0.333333 0.500000
vt 0.666666 0.500000
vt 1.000000 0.500000
vt 0.000000 1.000000
vt 0.333333 1.000000
vt 0.666666 1.000000
vt 1.000000 1.000000

vn 0.000000 0.000000 1.000000
vn 0.000000 1.000000 0.000000
vn 0.000000 0.000000 -1.000000
vn 0.000000 -1.000000 0.000000
vn 1.000000 0.000000 0.000000
vn -1.000000 0.000000 0.000000

g cube
usemtl cube
# Back
s 1
f 1/1/1 2/2/1 3/5/1
f 3/5/1 2/2/1 4/6/1
# Top
s 2
f 3/11/2 4/12/2 5/7/2
f 5/7/2 4/12/2 6/8/2
# Front
s 3
f 5/9/3 6/10/3 7/5/3
f 7/5/3 6/10/3 8/6/3
# Bottom
s 4
f 7/3/4 8/4/4 1/7/4
f 1/7/4 8/4/4 2/8/4
# Right
s 5
f 2/7/5 8/6/5 4/11/5
f 4/11/5 8/6/5 6/10/5
# Left
s 6
f 7/2/6 1/3/6 5/6/6
f 5/6/6 1/3/6 3/7/6