<?xml version="1.0" encoding="UTF-8" standalone="no"?>
<!DOCTYPE svg PUBLIC "-//W3C//DTD SVG 1.1//EN"
 "http://www.w3.org/Graphics/SVG/1.1/DTD/svg11.dtd">
<!-- Generated by graphviz version 2.43.0 (0)
 -->
<!-- Title: lib/Ray/sources/Drawables/2D/Circle.cpp Pages: 1 -->
<svg width="1832pt" height="599pt"
 viewBox="0.00 0.00 1832.07 599.00" xmlns="http://www.w3.org/2000/svg" xmlns:xlink="http://www.w3.org/1999/xlink">
<g id="graph0" class="graph" transform="scale(1 1) rotate(0) translate(4 595)">
<title>lib/Ray/sources/Drawables/2D/Circle.cpp</title>
<polygon fill="white" stroke="transparent" points="-4,4 -4,-595 1828.07,-595 1828.07,4 -4,4"/>
<!-- Node1 -->
<g id="node1" class="node">
<title>Node1</title>
<g id="a_node1"><a xlink:title=" ">
<polygon fill="#bfbfbf" stroke="black" points="390.5,-560.5 390.5,-590.5 536.5,-590.5 536.5,-560.5 390.5,-560.5"/>
<text text-anchor="start" x="398.5" y="-578.5" font-family="Helvetica,sans-Serif" font-size="10.00">lib/Ray/sources/Drawables</text>
<text text-anchor="middle" x="463.5" y="-567.5" font-family="Helvetica,sans-Serif" font-size="10.00">/2D/Circle.cpp</text>
</a>
</g>
</g>
<!-- Node2 -->
<g id="node2" class="node">
<title>Node2</title>
<g id="a_node2"><a xlink:href="2D_2Circle_8hpp.html" target="_top" xlink:title=" ">
<polygon fill="white" stroke="black" points="0,-392.5 0,-411.5 137,-411.5 137,-392.5 0,-392.5"/>
<text text-anchor="middle" x="68.5" y="-399.5" font-family="Helvetica,sans-Serif" font-size="10.00">Drawables/2D/Circle.hpp</text>
</a>
</g>
</g>
<!-- Node1&#45;&gt;Node2 -->
<g id="edge1" class="edge">
<title>Node1&#45;&gt;Node2</title>
<path fill="none" stroke="midnightblue" d="M403.55,-560.45C338.86,-543.85 234.03,-512.73 151.5,-468 126.29,-454.34 100.84,-433.05 84.9,-418.59"/>
<polygon fill="midnightblue" stroke="midnightblue" points="87.2,-415.94 77.48,-411.72 82.44,-421.08 87.2,-415.94"/>
</g>
<!-- Node20 -->
<g id="node20" class="node">
<title>Node20</title>
<g id="a_node20"><a xlink:href="Image_8hpp.html" target="_top" xlink:title=" ">
<polygon fill="white" stroke="black" points="1077,-504.5 1077,-523.5 1200,-523.5 1200,-504.5 1077,-504.5"/>
<text text-anchor="middle" x="1138.5" y="-511.5" font-family="Helvetica,sans-Serif" font-size="10.00">Drawables/Image.hpp</text>
</a>
</g>
</g>
<!-- Node1&#45;&gt;Node20 -->
<g id="edge35" class="edge">
<title>Node1&#45;&gt;Node20</title>
<path fill="none" stroke="midnightblue" d="M536.7,-568.05C666.96,-556.57 937.43,-532.72 1066.68,-521.33"/>
<polygon fill="midnightblue" stroke="midnightblue" points="1067.22,-524.8 1076.87,-520.43 1066.6,-517.82 1067.22,-524.8"/>
</g>
<!-- Node3 -->
<g id="node3" class="node">
<title>Node3</title>
<g id="a_node3"><a xlink:title=" ">
<polygon fill="white" stroke="#bfbfbf" points="645,-0.5 645,-19.5 698,-19.5 698,-0.5 645,-0.5"/>
<text text-anchor="middle" x="671.5" y="-7.5" font-family="Helvetica,sans-Serif" font-size="10.00">raylib.h</text>
</a>
</g>
</g>
<!-- Node2&#45;&gt;Node3 -->
<g id="edge2" class="edge">
<title>Node2&#45;&gt;Node3</title>
<path fill="none" stroke="midnightblue" d="M72.41,-392.36C80.33,-374.07 97.5,-329.91 97.5,-291 97.5,-291 97.5,-291 97.5,-121 97.5,-88.99 102.16,-74.18 128.5,-56 170.02,-27.34 519.44,-15.2 634.75,-11.94"/>
<polygon fill="midnightblue" stroke="midnightblue" points="634.95,-15.44 644.85,-11.67 634.75,-8.44 634.95,-15.44"/>
</g>
<!-- Node4 -->
<g id="node4" class="node">
<title>Node4</title>
<g id="a_node4"><a xlink:href="ADrawable2D_8hpp.html" target="_top" xlink:title=" ">
<polygon fill="white" stroke="black" points="390,-336.5 390,-355.5 549,-355.5 549,-336.5 390,-336.5"/>
<text text-anchor="middle" x="469.5" y="-343.5" font-family="Helvetica,sans-Serif" font-size="10.00">Drawables/ADrawable2D.hpp</text>
</a>
</g>
</g>
<!-- Node2&#45;&gt;Node4 -->
<g id="edge3" class="edge">
<title>Node2&#45;&gt;Node4</title>
<path fill="none" stroke="midnightblue" d="M132.04,-392.44C203.9,-382.77 320.72,-367.04 396.33,-356.85"/>
<polygon fill="midnightblue" stroke="midnightblue" points="396.81,-360.32 406.26,-355.52 395.88,-353.38 396.81,-360.32"/>
</g>
<!-- Node4&#45;&gt;Node3 -->
<g id="edge4" class="edge">
<title>Node4&#45;&gt;Node3</title>
<path fill="none" stroke="midnightblue" d="M418.83,-336.46C335.95,-321.04 180.5,-285.4 180.5,-235 180.5,-235 180.5,-235 180.5,-121 180.5,-86.11 194.54,-73.88 224.5,-56 293.43,-14.87 540.45,-10.79 634.65,-10.77"/>
<polygon fill="midnightblue" stroke="midnightblue" points="634.84,-14.27 644.84,-10.78 634.85,-7.27 634.84,-14.27"/>
</g>
<!-- Node5 -->
<g id="node5" class="node">
<title>Node5</title>
<g id="a_node5"><a xlink:href="lib_2Ray_2sources_2Vector_2Vector2_8hpp.html" target="_top" xlink:title=" ">
<polygon fill="white" stroke="black" points="750.5,-112.5 750.5,-131.5 858.5,-131.5 858.5,-112.5 750.5,-112.5"/>
<text text-anchor="middle" x="804.5" y="-119.5" font-family="Helvetica,sans-Serif" font-size="10.00">Vector/Vector2.hpp</text>
</a>
</g>
</g>
<!-- Node4&#45;&gt;Node5 -->
<g id="edge5" class="edge">
<title>Node4&#45;&gt;Node5</title>
<path fill="none" stroke="midnightblue" d="M537.97,-336.45C572.95,-330.01 615.23,-318.91 649.5,-300 712.52,-265.22 721.9,-244.51 766.5,-188 778.12,-173.28 788.64,-154.65 795.66,-141.11"/>
<polygon fill="midnightblue" stroke="midnightblue" points="798.92,-142.41 800.3,-131.9 792.67,-139.26 798.92,-142.41"/>
</g>
<!-- Node6 -->
<g id="node6" class="node">
<title>Node6</title>
<g id="a_node6"><a xlink:href="IDrawable_8hpp.html" target="_top" xlink:title=" ">
<polygon fill="white" stroke="black" points="498.5,-280.5 498.5,-299.5 640.5,-299.5 640.5,-280.5 498.5,-280.5"/>
<text text-anchor="middle" x="569.5" y="-287.5" font-family="Helvetica,sans-Serif" font-size="10.00">Drawables/IDrawable.hpp</text>
</a>
</g>
</g>
<!-- Node4&#45;&gt;Node6 -->
<g id="edge7" class="edge">
<title>Node4&#45;&gt;Node6</title>
<path fill="none" stroke="midnightblue" d="M485.57,-336.32C501.46,-327.74 526.01,-314.49 544.46,-304.52"/>
<polygon fill="midnightblue" stroke="midnightblue" points="546.34,-307.49 553.47,-299.65 543.01,-301.33 546.34,-307.49"/>
</g>
<!-- Node19 -->
<g id="node19" class="node">
<title>Node19</title>
<g id="a_node19"><a xlink:href="Color_8hpp.html" target="_top" xlink:title=" ">
<polygon fill="white" stroke="black" points="258.5,-168.5 258.5,-187.5 320.5,-187.5 320.5,-168.5 258.5,-168.5"/>
<text text-anchor="middle" x="289.5" y="-175.5" font-family="Helvetica,sans-Serif" font-size="10.00">Color.hpp</text>
</a>
</g>
</g>
<!-- Node4&#45;&gt;Node19 -->
<g id="edge34" class="edge">
<title>Node4&#45;&gt;Node19</title>
<path fill="none" stroke="midnightblue" d="M459.82,-336.08C430.63,-309.15 343.19,-228.51 306.26,-194.45"/>
<polygon fill="midnightblue" stroke="midnightblue" points="308.51,-191.77 298.79,-187.57 303.77,-196.92 308.51,-191.77"/>
</g>
<!-- Node5&#45;&gt;Node3 -->
<g id="edge6" class="edge">
<title>Node5&#45;&gt;Node3</title>
<path fill="none" stroke="midnightblue" d="M803.52,-112.25C801.53,-98.55 795.85,-71.94 780.5,-56 761.2,-35.96 731.68,-24.51 708.22,-18.19"/>
<polygon fill="midnightblue" stroke="midnightblue" points="708.81,-14.73 698.26,-15.7 707.12,-21.52 708.81,-14.73"/>
</g>
<!-- Node7 -->
<g id="node7" class="node">
<title>Node7</title>
<g id="a_node7"><a xlink:href="Window_8hpp.html" target="_top" xlink:title=" ">
<polygon fill="white" stroke="black" points="610.5,-224.5 610.5,-243.5 686.5,-243.5 686.5,-224.5 610.5,-224.5"/>
<text text-anchor="middle" x="648.5" y="-231.5" font-family="Helvetica,sans-Serif" font-size="10.00">Window.hpp</text>
</a>
</g>
</g>
<!-- Node6&#45;&gt;Node7 -->
<g id="edge8" class="edge">
<title>Node6&#45;&gt;Node7</title>
<path fill="none" stroke="midnightblue" d="M582.19,-280.32C594.4,-271.98 613.08,-259.21 627.5,-249.35"/>
<polygon fill="midnightblue" stroke="midnightblue" points="629.56,-252.19 635.84,-243.65 625.61,-246.41 629.56,-252.19"/>
</g>
<!-- Node7&#45;&gt;Node3 -->
<g id="edge9" class="edge">
<title>Node7&#45;&gt;Node3</title>
<path fill="none" stroke="midnightblue" d="M686.57,-228.47C738.57,-219.96 829.68,-196.22 867.5,-132 906.7,-65.44 775.15,-30.43 708.21,-17.26"/>
<polygon fill="midnightblue" stroke="midnightblue" points="708.54,-13.76 698.06,-15.33 707.23,-20.64 708.54,-13.76"/>
</g>
<!-- Node7&#45;&gt;Node5 -->
<g id="edge12" class="edge">
<title>Node7&#45;&gt;Node5</title>
<path fill="none" stroke="midnightblue" d="M671.91,-224.35C691.51,-216.5 719.69,-203.76 741.5,-188 760.91,-173.97 779.53,-153.62 791.43,-139.43"/>
<polygon fill="midnightblue" stroke="midnightblue" points="794.29,-141.47 797.91,-131.51 788.87,-137.03 794.29,-141.47"/>
</g>
<!-- Node8 -->
<g id="node8" class="node">
<title>Node8</title>
<g id="a_node8"><a xlink:title=" ">
<polygon fill="white" stroke="#bfbfbf" points="1022.5,-168.5 1022.5,-187.5 1066.5,-187.5 1066.5,-168.5 1022.5,-168.5"/>
<text text-anchor="middle" x="1044.5" y="-175.5" font-family="Helvetica,sans-Serif" font-size="10.00">string</text>
</a>
</g>
</g>
<!-- Node7&#45;&gt;Node8 -->
<g id="edge10" class="edge">
<title>Node7&#45;&gt;Node8</title>
<path fill="none" stroke="midnightblue" d="M686.66,-230.32C751.67,-225.31 888.16,-212.9 1012.21,-187.97"/>
<polygon fill="midnightblue" stroke="midnightblue" points="1013.16,-191.35 1022.26,-185.92 1011.76,-184.49 1013.16,-191.35"/>
</g>
<!-- Node9 -->
<g id="node9" class="node">
<title>Node9</title>
<g id="a_node9"><a xlink:title=" ">
<polygon fill="white" stroke="#bfbfbf" points="676.5,-168.5 676.5,-187.5 732.5,-187.5 732.5,-168.5 676.5,-168.5"/>
<text text-anchor="middle" x="704.5" y="-175.5" font-family="Helvetica,sans-Serif" font-size="10.00">optional</text>
</a>
</g>
</g>
<!-- Node7&#45;&gt;Node9 -->
<g id="edge11" class="edge">
<title>Node7&#45;&gt;Node9</title>
<path fill="none" stroke="midnightblue" d="M657.5,-224.32C665.69,-216.42 678.01,-204.55 687.97,-194.94"/>
<polygon fill="midnightblue" stroke="midnightblue" points="690.57,-197.29 695.34,-187.83 685.71,-192.26 690.57,-197.29"/>
</g>
<!-- Node10 -->
<g id="node10" class="node">
<title>Node10</title>
<g id="a_node10"><a xlink:href="lib_2Ray_2sources_2Vector_2Vector3_8hpp.html" target="_top" xlink:title=" ">
<polygon fill="white" stroke="black" points="448.5,-112.5 448.5,-131.5 556.5,-131.5 556.5,-112.5 448.5,-112.5"/>
<text text-anchor="middle" x="502.5" y="-119.5" font-family="Helvetica,sans-Serif" font-size="10.00">Vector/Vector3.hpp</text>
</a>
</g>
</g>
<!-- Node7&#45;&gt;Node10 -->
<g id="edge13" class="edge">
<title>Node7&#45;&gt;Node10</title>
<path fill="none" stroke="midnightblue" d="M610.44,-229.53C581.24,-224.85 542.08,-213.85 518.5,-188 507.13,-175.53 503.51,-156.3 502.51,-141.99"/>
<polygon fill="midnightblue" stroke="midnightblue" points="506,-141.66 502.17,-131.78 499,-141.9 506,-141.66"/>
</g>
<!-- Node11 -->
<g id="node11" class="node">
<title>Node11</title>
<g id="a_node11"><a xlink:href="Keyboard_8hpp.html" target="_top" xlink:title=" ">
<polygon fill="white" stroke="black" points="864.5,-168.5 864.5,-187.5 1004.5,-187.5 1004.5,-168.5 864.5,-168.5"/>
<text text-anchor="middle" x="934.5" y="-175.5" font-family="Helvetica,sans-Serif" font-size="10.00">Controllers/Keyboard.hpp</text>
</a>
</g>
</g>
<!-- Node7&#45;&gt;Node11 -->
<g id="edge15" class="edge">
<title>Node7&#45;&gt;Node11</title>
<path fill="none" stroke="midnightblue" d="M686.77,-225.77C736.31,-216.42 822.97,-200.06 879.54,-189.38"/>
<polygon fill="midnightblue" stroke="midnightblue" points="880.21,-192.81 889.39,-187.52 878.91,-185.93 880.21,-192.81"/>
</g>
<!-- Node13 -->
<g id="node13" class="node">
<title>Node13</title>
<g id="a_node13"><a xlink:href="Camera2D_8hpp.html" target="_top" xlink:title=" ">
<polygon fill="white" stroke="black" points="527,-168.5 527,-187.5 658,-187.5 658,-168.5 527,-168.5"/>
<text text-anchor="middle" x="592.5" y="-175.5" font-family="Helvetica,sans-Serif" font-size="10.00">Camera/Camera2D.hpp</text>
</a>
</g>
</g>
<!-- Node7&#45;&gt;Node13 -->
<g id="edge18" class="edge">
<title>Node7&#45;&gt;Node13</title>
<path fill="none" stroke="midnightblue" d="M639.5,-224.32C631.31,-216.42 618.99,-204.55 609.03,-194.94"/>
<polygon fill="midnightblue" stroke="midnightblue" points="611.29,-192.26 601.66,-187.83 606.43,-197.29 611.29,-192.26"/>
</g>
<!-- Node16 -->
<g id="node16" class="node">
<title>Node16</title>
<g id="a_node16"><a xlink:href="Camera3D_8hpp.html" target="_top" xlink:title=" ">
<polygon fill="white" stroke="black" points="339,-168.5 339,-187.5 470,-187.5 470,-168.5 339,-168.5"/>
<text text-anchor="middle" x="404.5" y="-175.5" font-family="Helvetica,sans-Serif" font-size="10.00">Camera/Camera3D.hpp</text>
</a>
</g>
</g>
<!-- Node7&#45;&gt;Node16 -->
<g id="edge24" class="edge">
<title>Node7&#45;&gt;Node16</title>
<path fill="none" stroke="midnightblue" d="M610.38,-224.56C567.92,-215.17 499.2,-199.96 452.96,-189.72"/>
<polygon fill="midnightblue" stroke="midnightblue" points="453.68,-186.3 443.16,-187.56 452.17,-193.13 453.68,-186.3"/>
</g>
<!-- Node7&#45;&gt;Node19 -->
<g id="edge32" class="edge">
<title>Node7&#45;&gt;Node19</title>
<path fill="none" stroke="midnightblue" d="M610.04,-228.6C551.75,-221.7 437.38,-207.3 330.85,-188.13"/>
<polygon fill="midnightblue" stroke="midnightblue" points="331.36,-184.66 320.89,-186.32 330.11,-191.55 331.36,-184.66"/>
</g>
<!-- Node10&#45;&gt;Node3 -->
<g id="edge14" class="edge">
<title>Node10&#45;&gt;Node3</title>
<path fill="none" stroke="midnightblue" d="M540.25,-112.48C565.06,-105.57 597.29,-93.96 621.5,-76 638.59,-63.32 652.77,-43.28 661.61,-28.8"/>
<polygon fill="midnightblue" stroke="midnightblue" points="664.83,-30.23 666.85,-19.83 658.79,-26.7 664.83,-30.23"/>
</g>
<!-- Node11&#45;&gt;Node3 -->
<g id="edge16" class="edge">
<title>Node11&#45;&gt;Node3</title>
<path fill="none" stroke="midnightblue" d="M934.9,-168.44C935.42,-146.26 933.53,-86.49 900.5,-56 872.96,-30.58 765.65,-18.4 708.23,-13.6"/>
<polygon fill="midnightblue" stroke="midnightblue" points="708.37,-10.1 698.12,-12.79 707.81,-17.08 708.37,-10.1"/>
</g>
<!-- Node12 -->
<g id="node12" class="node">
<title>Node12</title>
<g id="a_node12"><a xlink:title=" ">
<polygon fill="white" stroke="#bfbfbf" points="1017,-112.5 1017,-131.5 1064,-131.5 1064,-112.5 1017,-112.5"/>
<text text-anchor="middle" x="1040.5" y="-119.5" font-family="Helvetica,sans-Serif" font-size="10.00">vector</text>
</a>
</g>
</g>
<!-- Node11&#45;&gt;Node12 -->
<g id="edge17" class="edge">
<title>Node11&#45;&gt;Node12</title>
<path fill="none" stroke="midnightblue" d="M951.53,-168.32C968.53,-159.66 994.88,-146.24 1014.49,-136.25"/>
<polygon fill="midnightblue" stroke="midnightblue" points="1016.19,-139.31 1023.51,-131.65 1013.01,-133.08 1016.19,-139.31"/>
</g>
<!-- Node13&#45;&gt;Node3 -->
<g id="edge19" class="edge">
<title>Node13&#45;&gt;Node3</title>
<path fill="none" stroke="midnightblue" d="M625.89,-168.44C649.22,-161.32 680.24,-149.5 703.5,-132 728.79,-112.97 737.15,-105.91 747.5,-76 750.41,-67.6 751.9,-63.72 747.5,-56 738.82,-40.78 722.75,-30.18 707.61,-23.11"/>
<polygon fill="midnightblue" stroke="midnightblue" points="708.95,-19.87 698.38,-19.15 706.19,-26.31 708.95,-19.87"/>
</g>
<!-- Node13&#45;&gt;Node5 -->
<g id="edge20" class="edge">
<title>Node13&#45;&gt;Node5</title>
<path fill="none" stroke="midnightblue" d="M626.09,-168.44C662.69,-159.12 721.34,-144.18 761.33,-134"/>
<polygon fill="midnightblue" stroke="midnightblue" points="762.24,-137.38 771.07,-131.52 760.51,-130.59 762.24,-137.38"/>
</g>
<!-- Node14 -->
<g id="node14" class="node">
<title>Node14</title>
<g id="a_node14"><a xlink:href="ICamera_8hpp.html" target="_top" xlink:title=" ">
<polygon fill="white" stroke="black" points="574.5,-112.5 574.5,-131.5 694.5,-131.5 694.5,-112.5 574.5,-112.5"/>
<text text-anchor="middle" x="634.5" y="-119.5" font-family="Helvetica,sans-Serif" font-size="10.00">Camera/ICamera.hpp</text>
</a>
</g>
</g>
<!-- Node13&#45;&gt;Node14 -->
<g id="edge21" class="edge">
<title>Node13&#45;&gt;Node14</title>
<path fill="none" stroke="midnightblue" d="M599.44,-168.08C605.43,-160.38 614.25,-149.03 621.55,-139.65"/>
<polygon fill="midnightblue" stroke="midnightblue" points="624.32,-141.79 627.69,-131.75 618.79,-137.5 624.32,-141.79"/>
</g>
<!-- Node15 -->
<g id="node15" class="node">
<title>Node15</title>
<g id="a_node15"><a xlink:href="Matrix_8hpp.html" target="_top" xlink:title=" ">
<polygon fill="white" stroke="black" points="669,-56.5 669,-75.5 738,-75.5 738,-56.5 669,-56.5"/>
<text text-anchor="middle" x="703.5" y="-63.5" font-family="Helvetica,sans-Serif" font-size="10.00">Matrix.hpp</text>
</a>
</g>
</g>
<!-- Node14&#45;&gt;Node15 -->
<g id="edge22" class="edge">
<title>Node14&#45;&gt;Node15</title>
<path fill="none" stroke="midnightblue" d="M645.59,-112.32C655.99,-104.18 671.76,-91.84 684.22,-82.09"/>
<polygon fill="midnightblue" stroke="midnightblue" points="686.49,-84.75 692.21,-75.83 682.18,-79.24 686.49,-84.75"/>
</g>
<!-- Node15&#45;&gt;Node3 -->
<g id="edge23" class="edge">
<title>Node15&#45;&gt;Node3</title>
<path fill="none" stroke="midnightblue" d="M698.22,-56.08C693.79,-48.61 687.34,-37.72 681.88,-28.52"/>
<polygon fill="midnightblue" stroke="midnightblue" points="684.79,-26.57 676.69,-19.75 678.77,-30.14 684.79,-26.57"/>
</g>
<!-- Node16&#45;&gt;Node3 -->
<g id="edge25" class="edge">
<title>Node16&#45;&gt;Node3</title>
<path fill="none" stroke="midnightblue" d="M404,-168.42C403.21,-146.18 404.41,-86.29 437.5,-56 465.8,-30.1 575.9,-18.11 634.43,-13.47"/>
<polygon fill="midnightblue" stroke="midnightblue" points="635.03,-16.93 644.73,-12.68 634.49,-9.95 635.03,-16.93"/>
</g>
<!-- Node16&#45;&gt;Node10 -->
<g id="edge26" class="edge">
<title>Node16&#45;&gt;Node10</title>
<path fill="none" stroke="midnightblue" d="M420.25,-168.32C435.82,-159.74 459.88,-146.49 477.96,-136.52"/>
<polygon fill="midnightblue" stroke="midnightblue" points="479.72,-139.55 486.79,-131.65 476.35,-133.42 479.72,-139.55"/>
</g>
<!-- Node16&#45;&gt;Node14 -->
<g id="edge27" class="edge">
<title>Node16&#45;&gt;Node14</title>
<path fill="none" stroke="midnightblue" d="M440.94,-168.44C480.9,-159.06 545.09,-143.99 588.48,-133.8"/>
<polygon fill="midnightblue" stroke="midnightblue" points="589.29,-137.21 598.23,-131.52 587.69,-130.39 589.29,-137.21"/>
</g>
<!-- Node17 -->
<g id="node17" class="node">
<title>Node17</title>
<g id="a_node17"><a xlink:href="CameraProjection_8hpp.html" target="_top" xlink:title=" ">
<polygon fill="white" stroke="black" points="446.5,-56.5 446.5,-75.5 612.5,-75.5 612.5,-56.5 446.5,-56.5"/>
<text text-anchor="middle" x="529.5" y="-63.5" font-family="Helvetica,sans-Serif" font-size="10.00">Camera/CameraProjection.hpp</text>
</a>
</g>
</g>
<!-- Node16&#45;&gt;Node17 -->
<g id="edge28" class="edge">
<title>Node16&#45;&gt;Node17</title>
<path fill="none" stroke="midnightblue" d="M407.23,-168.36C411.9,-154.82 422.57,-128.42 439.5,-112 454.52,-97.43 475.2,-86.64 492.94,-79.28"/>
<polygon fill="midnightblue" stroke="midnightblue" points="494.42,-82.46 502.45,-75.55 491.86,-75.95 494.42,-82.46"/>
</g>
<!-- Node18 -->
<g id="node18" class="node">
<title>Node18</title>
<g id="a_node18"><a xlink:href="CameraMode_8hpp.html" target="_top" xlink:title=" ">
<polygon fill="white" stroke="black" points="246.5,-56.5 246.5,-75.5 390.5,-75.5 390.5,-56.5 246.5,-56.5"/>
<text text-anchor="middle" x="318.5" y="-63.5" font-family="Helvetica,sans-Serif" font-size="10.00">Camera/CameraMode.hpp</text>
</a>
</g>
</g>
<!-- Node16&#45;&gt;Node18 -->
<g id="edge30" class="edge">
<title>Node16&#45;&gt;Node18</title>
<path fill="none" stroke="midnightblue" d="M397.55,-168.41C390.26,-159.39 378.5,-144.75 368.5,-132 355.79,-115.8 341.48,-97.16 331.44,-84"/>
<polygon fill="midnightblue" stroke="midnightblue" points="334.09,-81.7 325.24,-75.87 328.52,-85.95 334.09,-81.7"/>
</g>
<!-- Node17&#45;&gt;Node3 -->
<g id="edge29" class="edge">
<title>Node17&#45;&gt;Node3</title>
<path fill="none" stroke="midnightblue" d="M552,-56.44C575.58,-47.48 612.82,-33.31 639.46,-23.18"/>
<polygon fill="midnightblue" stroke="midnightblue" points="641,-26.34 649.1,-19.52 638.51,-19.8 641,-26.34"/>
</g>
<!-- Node18&#45;&gt;Node3 -->
<g id="edge31" class="edge">
<title>Node18&#45;&gt;Node3</title>
<path fill="none" stroke="midnightblue" d="M374.43,-56.44C447.39,-45.28 573,-26.07 634.88,-16.6"/>
<polygon fill="midnightblue" stroke="midnightblue" points="635.6,-20.03 644.95,-15.06 634.54,-13.11 635.6,-20.03"/>
</g>
<!-- Node19&#45;&gt;Node3 -->
<g id="edge33" class="edge">
<title>Node19&#45;&gt;Node3</title>
<path fill="none" stroke="midnightblue" d="M280.07,-168.34C257.83,-146.91 206.26,-90.64 237.5,-56 263.9,-26.72 534.33,-15.3 634.47,-12.06"/>
<polygon fill="midnightblue" stroke="midnightblue" points="634.83,-15.55 644.72,-11.74 634.61,-8.55 634.83,-15.55"/>
</g>
<!-- Node20&#45;&gt;Node3 -->
<g id="edge36" class="edge">
<title>Node20&#45;&gt;Node3</title>
<path fill="none" stroke="midnightblue" d="M1076.95,-509.22C859.8,-494.25 142.5,-430.01 142.5,-235 142.5,-235 142.5,-235 142.5,-121 142.5,-84.28 161.27,-73.59 193.5,-56 269.38,-14.58 536.15,-10.74 634.62,-10.77"/>
<polygon fill="midnightblue" stroke="midnightblue" points="634.69,-14.27 644.7,-10.79 634.7,-7.27 634.69,-14.27"/>
</g>
<!-- Node20&#45;&gt;Node8 -->
<g id="edge37" class="edge">
<title>Node20&#45;&gt;Node8</title>
<path fill="none" stroke="midnightblue" d="M1076.9,-507.77C1012.74,-498.55 921.5,-473.11 921.5,-403 921.5,-403 921.5,-403 921.5,-289 921.5,-239.95 976.51,-207.31 1012.95,-191.07"/>
<polygon fill="midnightblue" stroke="midnightblue" points="1014.4,-194.25 1022.23,-187.11 1011.65,-187.82 1014.4,-194.25"/>
</g>
<!-- Node21 -->
<g id="node21" class="node">
<title>Node21</title>
<g id="a_node21"><a xlink:href="Texture_8hpp.html" target="_top" xlink:title=" ">
<polygon fill="white" stroke="black" points="1318.5,-448.5 1318.5,-467.5 1392.5,-467.5 1392.5,-448.5 1318.5,-448.5"/>
<text text-anchor="middle" x="1355.5" y="-455.5" font-family="Helvetica,sans-Serif" font-size="10.00">Texture.hpp</text>
</a>
</g>
</g>
<!-- Node20&#45;&gt;Node21 -->
<g id="edge38" class="edge">
<title>Node20&#45;&gt;Node21</title>
<path fill="none" stroke="midnightblue" d="M1172.88,-504.44C1210.42,-495.1 1270.63,-480.12 1311.57,-469.93"/>
<polygon fill="midnightblue" stroke="midnightblue" points="1312.42,-473.33 1321.28,-467.52 1310.73,-466.53 1312.42,-473.33"/>
</g>
<!-- Node22 -->
<g id="node22" class="node">
<title>Node22</title>
<g id="a_node22"><a xlink:href="Cache_8hpp.html" target="_top" xlink:title=" ">
<polygon fill="white" stroke="black" points="1309,-280.5 1309,-299.5 1402,-299.5 1402,-280.5 1309,-280.5"/>
<text text-anchor="middle" x="1355.5" y="-287.5" font-family="Helvetica,sans-Serif" font-size="10.00">Utils/Cache.hpp</text>
</a>
</g>
</g>
<!-- Node20&#45;&gt;Node22 -->
<g id="edge57" class="edge">
<title>Node20&#45;&gt;Node22</title>
<path fill="none" stroke="midnightblue" d="M1200.27,-513.63C1352.37,-513.74 1738.37,-504.67 1817.5,-412 1872.33,-347.78 1547.41,-309.15 1412.35,-296.05"/>
<polygon fill="midnightblue" stroke="midnightblue" points="1412.48,-292.54 1402.19,-295.07 1411.81,-299.51 1412.48,-292.54"/>
</g>
<!-- Node31 -->
<g id="node31" class="node">
<title>Node31</title>
<g id="a_node31"><a xlink:href="Rectangle_8hpp.html" target="_top" xlink:title=" ">
<polygon fill="white" stroke="black" points="1650.5,-392.5 1650.5,-411.5 1808.5,-411.5 1808.5,-392.5 1650.5,-392.5"/>
<text text-anchor="middle" x="1729.5" y="-399.5" font-family="Helvetica,sans-Serif" font-size="10.00">Drawables/2D/Rectangle.hpp</text>
</a>
</g>
</g>
<!-- Node20&#45;&gt;Node31 -->
<g id="edge58" class="edge">
<title>Node20&#45;&gt;Node31</title>
<path fill="none" stroke="midnightblue" d="M1190.97,-504.44C1244.1,-495.67 1328.61,-481.45 1401.5,-468 1499.72,-449.87 1614.06,-426.75 1678.5,-413.54"/>
<polygon fill="midnightblue" stroke="midnightblue" points="1679.31,-416.94 1688.4,-411.5 1677.9,-410.09 1679.31,-416.94"/>
</g>
<!-- Node21&#45;&gt;Node3 -->
<g id="edge39" class="edge">
<title>Node21&#45;&gt;Node3</title>
<path fill="none" stroke="midnightblue" d="M1379.55,-448.41C1443.01,-424.73 1617.45,-352.96 1724.5,-244 1747.64,-220.44 1760.5,-212.02 1760.5,-179 1760.5,-179 1760.5,-179 1760.5,-121 1760.5,-53.61 1688.88,-72.35 1623.5,-56 1445.58,-11.49 861.94,-10.32 708.65,-10.81"/>
<polygon fill="midnightblue" stroke="midnightblue" points="708.36,-7.31 698.37,-10.85 708.38,-14.31 708.36,-7.31"/>
</g>
<!-- Node21&#45;&gt;Node8 -->
<g id="edge40" class="edge">
<title>Node21&#45;&gt;Node8</title>
<path fill="none" stroke="midnightblue" d="M1318.25,-454.62C1219.67,-447.32 959.5,-421.03 959.5,-347 959.5,-347 959.5,-347 959.5,-289 959.5,-247.76 997.36,-212.57 1022.55,-193.73"/>
<polygon fill="midnightblue" stroke="midnightblue" points="1024.77,-196.44 1030.84,-187.76 1020.68,-190.76 1024.77,-196.44"/>
</g>
<!-- Node21&#45;&gt;Node22 -->
<g id="edge41" class="edge">
<title>Node21&#45;&gt;Node22</title>
<path fill="none" stroke="midnightblue" d="M1355.5,-448.08C1355.5,-421.95 1355.5,-345.21 1355.5,-309.58"/>
<polygon fill="midnightblue" stroke="midnightblue" points="1359,-309.57 1355.5,-299.57 1352,-309.57 1359,-309.57"/>
</g>
<!-- Node21&#45;&gt;Node31 -->
<g id="edge54" class="edge">
<title>Node21&#45;&gt;Node31</title>
<path fill="none" stroke="midnightblue" d="M1392.73,-451.62C1454.97,-442.64 1581.1,-424.43 1660.1,-413.02"/>
<polygon fill="midnightblue" stroke="midnightblue" points="1661.05,-416.42 1670.44,-411.53 1660.05,-409.49 1661.05,-416.42"/>
</g>
<!-- Node22&#45;&gt;Node3 -->
<g id="edge46" class="edge">
<title>Node22&#45;&gt;Node3</title>
<path fill="none" stroke="midnightblue" d="M1402.2,-289.09C1486.43,-288.28 1659.17,-281.91 1703.5,-244 1726.37,-224.44 1722.5,-209.1 1722.5,-179 1722.5,-179 1722.5,-179 1722.5,-121 1722.5,-16.73 893.68,-10.9 708.08,-10.91"/>
<polygon fill="midnightblue" stroke="midnightblue" points="708,-7.41 698.01,-10.91 708.01,-14.41 708,-7.41"/>
</g>
<!-- Node22&#45;&gt;Node8 -->
<g id="edge52" class="edge">
<title>Node22&#45;&gt;Node8</title>
<path fill="none" stroke="midnightblue" d="M1308.95,-289.91C1226.1,-290.41 1058.28,-286.07 1021.5,-244 1009.49,-230.27 1019.93,-209.86 1030.34,-195.58"/>
<polygon fill="midnightblue" stroke="midnightblue" points="1033.19,-197.62 1036.63,-187.6 1027.69,-193.29 1033.19,-197.62"/>
</g>
<!-- Node22&#45;&gt;Node12 -->
<g id="edge50" class="edge">
<title>Node22&#45;&gt;Node12</title>
<path fill="none" stroke="midnightblue" d="M1308.87,-289.09C1232.9,-288.13 1087.63,-281.31 1055.5,-244 1049.7,-237.26 1053.27,-232.6 1055.5,-224 1062.13,-198.42 1084.08,-193 1075.5,-168 1071.78,-157.16 1064.27,-146.92 1057.15,-138.96"/>
<polygon fill="midnightblue" stroke="midnightblue" points="1059.5,-136.35 1050.06,-131.55 1054.45,-141.19 1059.5,-136.35"/>
</g>
<!-- Node23 -->
<g id="node23" class="node">
<title>Node23</title>
<g id="a_node23"><a xlink:title=" ">
<polygon fill="white" stroke="#bfbfbf" points="1441.5,-224.5 1441.5,-243.5 1499.5,-243.5 1499.5,-224.5 1441.5,-224.5"/>
<text text-anchor="middle" x="1470.5" y="-231.5" font-family="Helvetica,sans-Serif" font-size="10.00">memory</text>
</a>
</g>
</g>
<!-- Node22&#45;&gt;Node23 -->
<g id="edge42" class="edge">
<title>Node22&#45;&gt;Node23</title>
<path fill="none" stroke="midnightblue" d="M1373.72,-280.44C1392.4,-271.68 1421.66,-257.94 1443.12,-247.86"/>
<polygon fill="midnightblue" stroke="midnightblue" points="1444.8,-250.93 1452.36,-243.52 1441.82,-244.6 1444.8,-250.93"/>
</g>
<!-- Node24 -->
<g id="node24" class="node">
<title>Node24</title>
<g id="a_node24"><a xlink:title=" ">
<polygon fill="white" stroke="#bfbfbf" points="1518,-224.5 1518,-243.5 1611,-243.5 1611,-224.5 1518,-224.5"/>
<text text-anchor="middle" x="1564.5" y="-231.5" font-family="Helvetica,sans-Serif" font-size="10.00">unordered_map</text>
</a>
</g>
</g>
<!-- Node22&#45;&gt;Node24 -->
<g id="edge43" class="edge">
<title>Node22&#45;&gt;Node24</title>
<path fill="none" stroke="midnightblue" d="M1388.62,-280.44C1424.62,-271.14 1482.27,-256.25 1521.69,-246.06"/>
<polygon fill="midnightblue" stroke="midnightblue" points="1522.73,-249.41 1531.54,-243.52 1520.98,-242.63 1522.73,-249.41"/>
</g>
<!-- Node25 -->
<g id="node25" class="node">
<title>Node25</title>
<g id="a_node25"><a xlink:title=" ">
<polygon fill="white" stroke="#bfbfbf" points="1629,-224.5 1629,-243.5 1694,-243.5 1694,-224.5 1629,-224.5"/>
<text text-anchor="middle" x="1661.5" y="-231.5" font-family="Helvetica,sans-Serif" font-size="10.00">functional</text>
</a>
</g>
</g>
<!-- Node22&#45;&gt;Node25 -->
<g id="edge44" class="edge">
<title>Node22&#45;&gt;Node25</title>
<path fill="none" stroke="midnightblue" d="M1402.06,-281.79C1453,-273.74 1537.32,-259.97 1618.92,-244.24"/>
<polygon fill="midnightblue" stroke="midnightblue" points="1619.71,-247.65 1628.86,-242.31 1618.37,-240.78 1619.71,-247.65"/>
</g>
<!-- Node26 -->
<g id="node26" class="node">
<title>Node26</title>
<g id="a_node26"><a xlink:title=" ">
<polygon fill="white" stroke="#bfbfbf" points="1064,-224.5 1064,-243.5 1109,-243.5 1109,-224.5 1064,-224.5"/>
<text text-anchor="middle" x="1086.5" y="-231.5" font-family="Helvetica,sans-Serif" font-size="10.00">utility</text>
</a>
</g>
</g>
<!-- Node22&#45;&gt;Node26 -->
<g id="edge45" class="edge">
<title>Node22&#45;&gt;Node26</title>
<path fill="none" stroke="midnightblue" d="M1308.93,-281.38C1263.11,-273.62 1190.98,-260.66 1119.28,-244.01"/>
<polygon fill="midnightblue" stroke="midnightblue" points="1119.7,-240.51 1109.16,-241.64 1118.1,-247.33 1119.7,-240.51"/>
</g>
<!-- Node27 -->
<g id="node27" class="node">
<title>Node27</title>
<g id="a_node27"><a xlink:href="RayError_8hpp.html" target="_top" xlink:title=" ">
<polygon fill="white" stroke="black" points="1288,-224.5 1288,-243.5 1423,-243.5 1423,-224.5 1288,-224.5"/>
<text text-anchor="middle" x="1355.5" y="-231.5" font-family="Helvetica,sans-Serif" font-size="10.00">Exceptions/RayError.hpp</text>
</a>
</g>
</g>
<!-- Node22&#45;&gt;Node27 -->
<g id="edge47" class="edge">
<title>Node22&#45;&gt;Node27</title>
<path fill="none" stroke="midnightblue" d="M1355.5,-280.08C1355.5,-273.01 1355.5,-262.86 1355.5,-253.99"/>
<polygon fill="midnightblue" stroke="midnightblue" points="1359,-253.75 1355.5,-243.75 1352,-253.75 1359,-253.75"/>
</g>
<!-- Node29 -->
<g id="node29" class="node">
<title>Node29</title>
<g id="a_node29"><a xlink:title=" ">
<polygon fill="white" stroke="#bfbfbf" points="1127.5,-224.5 1127.5,-243.5 1191.5,-243.5 1191.5,-224.5 1127.5,-224.5"/>
<text text-anchor="middle" x="1159.5" y="-231.5" font-family="Helvetica,sans-Serif" font-size="10.00">algorithm</text>
</a>
</g>
</g>
<!-- Node22&#45;&gt;Node29 -->
<g id="edge51" class="edge">
<title>Node22&#45;&gt;Node29</title>
<path fill="none" stroke="midnightblue" d="M1324.44,-280.44C1290.9,-271.2 1237.3,-256.44 1200.36,-246.26"/>
<polygon fill="midnightblue" stroke="midnightblue" points="1200.98,-242.8 1190.41,-243.52 1199.12,-249.55 1200.98,-242.8"/>
</g>
<!-- Node30 -->
<g id="node30" class="node">
<title>Node30</title>
<g id="a_node30"><a xlink:title=" ">
<polygon fill="white" stroke="#bfbfbf" points="1209.5,-224.5 1209.5,-243.5 1269.5,-243.5 1269.5,-224.5 1209.5,-224.5"/>
<text text-anchor="middle" x="1239.5" y="-231.5" font-family="Helvetica,sans-Serif" font-size="10.00">iostream</text>
</a>
</g>
</g>
<!-- Node22&#45;&gt;Node30 -->
<g id="edge53" class="edge">
<title>Node22&#45;&gt;Node30</title>
<path fill="none" stroke="midnightblue" d="M1337.12,-280.44C1318.28,-271.68 1288.77,-257.94 1267.12,-247.86"/>
<polygon fill="midnightblue" stroke="midnightblue" points="1268.34,-244.56 1257.79,-243.52 1265.38,-250.91 1268.34,-244.56"/>
</g>
<!-- Node27&#45;&gt;Node8 -->
<g id="edge49" class="edge">
<title>Node27&#45;&gt;Node8</title>
<path fill="none" stroke="midnightblue" d="M1306.22,-224.44C1241.99,-213.29 1131.45,-194.1 1076.89,-184.62"/>
<polygon fill="midnightblue" stroke="midnightblue" points="1077.21,-181.13 1066.76,-182.86 1076.01,-188.02 1077.21,-181.13"/>
</g>
<!-- Node28 -->
<g id="node28" class="node">
<title>Node28</title>
<g id="a_node28"><a xlink:title=" ">
<polygon fill="white" stroke="#bfbfbf" points="1323,-168.5 1323,-187.5 1388,-187.5 1388,-168.5 1323,-168.5"/>
<text text-anchor="middle" x="1355.5" y="-175.5" font-family="Helvetica,sans-Serif" font-size="10.00">stdexcept</text>
</a>
</g>
</g>
<!-- Node27&#45;&gt;Node28 -->
<g id="edge48" class="edge">
<title>Node27&#45;&gt;Node28</title>
<path fill="none" stroke="midnightblue" d="M1355.5,-224.08C1355.5,-217.01 1355.5,-206.86 1355.5,-197.99"/>
<polygon fill="midnightblue" stroke="midnightblue" points="1359,-197.75 1355.5,-187.75 1352,-197.75 1359,-197.75"/>
</g>
<!-- Node31&#45;&gt;Node3 -->
<g id="edge55" class="edge">
<title>Node31&#45;&gt;Node3</title>
<path fill="none" stroke="midnightblue" d="M1739.68,-392.46C1758.87,-375.35 1798.5,-334.73 1798.5,-291 1798.5,-291 1798.5,-291 1798.5,-121 1798.5,-90.2 1799.4,-74.12 1774.5,-56 1730.46,-23.96 894.81,-13.34 708.23,-11.36"/>
<polygon fill="midnightblue" stroke="midnightblue" points="708.14,-7.86 698.11,-11.26 708.07,-14.86 708.14,-7.86"/>
</g>
<!-- Node31&#45;&gt;Node4 -->
<g id="edge56" class="edge">
<title>Node31&#45;&gt;Node4</title>
<path fill="none" stroke="midnightblue" d="M1650.2,-397.6C1427.05,-388.04 794.65,-360.93 559.24,-350.85"/>
<polygon fill="midnightblue" stroke="midnightblue" points="559.15,-347.34 549.01,-350.41 558.85,-354.33 559.15,-347.34"/>
</g>
</g>
</svg>
