<?xml version="1.0" encoding="UTF-8" standalone="no"?>
<!DOCTYPE svg PUBLIC "-//W3C//DTD SVG 1.1//EN"
 "http://www.w3.org/Graphics/SVG/1.1/DTD/svg11.dtd">
<!-- Generated by graphviz version 2.43.0 (0)
 -->
<!-- Title: lib/Ray/sources/Drawables/2D/Line.cpp Pages: 1 -->
<svg width="1826pt" height="599pt"
 viewBox="0.00 0.00 1826.07 599.00" xmlns="http://www.w3.org/2000/svg" xmlns:xlink="http://www.w3.org/1999/xlink">
<g id="graph0" class="graph" transform="scale(1 1) rotate(0) translate(4 595)">
<title>lib/Ray/sources/Drawables/2D/Line.cpp</title>
<polygon fill="white" stroke="transparent" points="-4,4 -4,-595 1822.07,-595 1822.07,4 -4,4"/>
<!-- Node1 -->
<g id="node1" class="node">
<title>Node1</title>
<g id="a_node1"><a xlink:title=" ">
<polygon fill="#bfbfbf" stroke="black" points="1059.5,-560.5 1059.5,-590.5 1205.5,-590.5 1205.5,-560.5 1059.5,-560.5"/>
<text text-anchor="start" x="1067.5" y="-578.5" font-family="Helvetica,sans-Serif" font-size="10.00">lib/Ray/sources/Drawables</text>
<text text-anchor="middle" x="1132.5" y="-567.5" font-family="Helvetica,sans-Serif" font-size="10.00">/2D/Line.cpp</text>
</a>
</g>
</g>
<!-- Node2 -->
<g id="node2" class="node">
<title>Node2</title>
<g id="a_node2"><a xlink:href="2D_2Line_8hpp.html" target="_top" xlink:title=" ">
<polygon fill="white" stroke="black" points="0,-392.5 0,-411.5 129,-411.5 129,-392.5 0,-392.5"/>
<text text-anchor="middle" x="64.5" y="-399.5" font-family="Helvetica,sans-Serif" font-size="10.00">Drawables/2D/Line.hpp</text>
</a>
</g>
</g>
<!-- Node1&#45;&gt;Node2 -->
<g id="edge1" class="edge">
<title>Node1&#45;&gt;Node2</title>
<path fill="none" stroke="midnightblue" d="M1059.41,-572.04C859.81,-564.47 309.27,-537.67 143.5,-468 117.53,-457.08 93.41,-434.74 78.82,-419.32"/>
<polygon fill="midnightblue" stroke="midnightblue" points="81.08,-416.6 71.75,-411.58 75.91,-421.32 81.08,-416.6"/>
</g>
<!-- Node20 -->
<g id="node20" class="node">
<title>Node20</title>
<g id="a_node20"><a xlink:title=" ">
<polygon fill="white" stroke="#bfbfbf" points="1212,-504.5 1212,-523.5 1259,-523.5 1259,-504.5 1212,-504.5"/>
<text text-anchor="middle" x="1235.5" y="-511.5" font-family="Helvetica,sans-Serif" font-size="10.00">cmath</text>
</a>
</g>
</g>
<!-- Node1&#45;&gt;Node20 -->
<g id="edge35" class="edge">
<title>Node1&#45;&gt;Node20</title>
<path fill="none" stroke="midnightblue" d="M1156.91,-560.4C1173.42,-550.86 1195.12,-538.32 1211.54,-528.84"/>
<polygon fill="midnightblue" stroke="midnightblue" points="1213.6,-531.69 1220.51,-523.66 1210.1,-525.63 1213.6,-531.69"/>
</g>
<!-- Node21 -->
<g id="node21" class="node">
<title>Node21</title>
<g id="a_node21"><a xlink:href="Image_8hpp.html" target="_top" xlink:title=" ">
<polygon fill="white" stroke="black" points="1071,-504.5 1071,-523.5 1194,-523.5 1194,-504.5 1071,-504.5"/>
<text text-anchor="middle" x="1132.5" y="-511.5" font-family="Helvetica,sans-Serif" font-size="10.00">Drawables/Image.hpp</text>
</a>
</g>
</g>
<!-- Node1&#45;&gt;Node21 -->
<g id="edge36" class="edge">
<title>Node1&#45;&gt;Node21</title>
<path fill="none" stroke="midnightblue" d="M1132.5,-560.4C1132.5,-552.47 1132.5,-542.46 1132.5,-533.86"/>
<polygon fill="midnightblue" stroke="midnightblue" points="1136,-533.66 1132.5,-523.66 1129,-533.66 1136,-533.66"/>
</g>
<!-- Node3 -->
<g id="node3" class="node">
<title>Node3</title>
<g id="a_node3"><a xlink:title=" ">
<polygon fill="white" stroke="#bfbfbf" points="639,-0.5 639,-19.5 692,-19.5 692,-0.5 639,-0.5"/>
<text text-anchor="middle" x="665.5" y="-7.5" font-family="Helvetica,sans-Serif" font-size="10.00">raylib.h</text>
</a>
</g>
</g>
<!-- Node2&#45;&gt;Node3 -->
<g id="edge2" class="edge">
<title>Node2&#45;&gt;Node3</title>
<path fill="none" stroke="midnightblue" d="M68.14,-392.34C75.51,-374 91.5,-329.74 91.5,-291 91.5,-291 91.5,-291 91.5,-121 91.5,-88.99 96.16,-74.18 122.5,-56 164.02,-27.34 513.44,-15.2 628.75,-11.94"/>
<polygon fill="midnightblue" stroke="midnightblue" points="628.95,-15.44 638.85,-11.67 628.75,-8.44 628.95,-15.44"/>
</g>
<!-- Node4 -->
<g id="node4" class="node">
<title>Node4</title>
<g id="a_node4"><a xlink:href="ADrawable2D_8hpp.html" target="_top" xlink:title=" ">
<polygon fill="white" stroke="black" points="384,-336.5 384,-355.5 543,-355.5 543,-336.5 384,-336.5"/>
<text text-anchor="middle" x="463.5" y="-343.5" font-family="Helvetica,sans-Serif" font-size="10.00">Drawables/ADrawable2D.hpp</text>
</a>
</g>
</g>
<!-- Node2&#45;&gt;Node4 -->
<g id="edge3" class="edge">
<title>Node2&#45;&gt;Node4</title>
<path fill="none" stroke="midnightblue" d="M127.72,-392.44C199.08,-382.79 314.99,-367.1 390.23,-356.92"/>
<polygon fill="midnightblue" stroke="midnightblue" points="391.13,-360.33 400.57,-355.52 390.19,-353.39 391.13,-360.33"/>
</g>
<!-- Node4&#45;&gt;Node3 -->
<g id="edge4" class="edge">
<title>Node4&#45;&gt;Node3</title>
<path fill="none" stroke="midnightblue" d="M412.83,-336.46C329.95,-321.04 174.5,-285.4 174.5,-235 174.5,-235 174.5,-235 174.5,-121 174.5,-86.11 188.54,-73.88 218.5,-56 287.43,-14.87 534.45,-10.79 628.65,-10.77"/>
<polygon fill="midnightblue" stroke="midnightblue" points="628.84,-14.27 638.84,-10.78 628.85,-7.27 628.84,-14.27"/>
</g>
<!-- Node5 -->
<g id="node5" class="node">
<title>Node5</title>
<g id="a_node5"><a xlink:href="lib_2Ray_2sources_2Vector_2Vector2_8hpp.html" target="_top" xlink:title=" ">
<polygon fill="white" stroke="black" points="744.5,-112.5 744.5,-131.5 852.5,-131.5 852.5,-112.5 744.5,-112.5"/>
<text text-anchor="middle" x="798.5" y="-119.5" font-family="Helvetica,sans-Serif" font-size="10.00">Vector/Vector2.hpp</text>
</a>
</g>
</g>
<!-- Node4&#45;&gt;Node5 -->
<g id="edge5" class="edge">
<title>Node4&#45;&gt;Node5</title>
<path fill="none" stroke="midnightblue" d="M543.09,-340.51C583.98,-335.18 633.14,-323.85 671.5,-300 734.35,-260.93 775.32,-178.17 791.14,-141.34"/>
<polygon fill="midnightblue" stroke="midnightblue" points="794.47,-142.44 795.08,-131.86 788.01,-139.75 794.47,-142.44"/>
</g>
<!-- Node6 -->
<g id="node6" class="node">
<title>Node6</title>
<g id="a_node6"><a xlink:href="IDrawable_8hpp.html" target="_top" xlink:title=" ">
<polygon fill="white" stroke="black" points="520.5,-280.5 520.5,-299.5 662.5,-299.5 662.5,-280.5 520.5,-280.5"/>
<text text-anchor="middle" x="591.5" y="-287.5" font-family="Helvetica,sans-Serif" font-size="10.00">Drawables/IDrawable.hpp</text>
</a>
</g>
</g>
<!-- Node4&#45;&gt;Node6 -->
<g id="edge7" class="edge">
<title>Node4&#45;&gt;Node6</title>
<path fill="none" stroke="midnightblue" d="M483.78,-336.44C504.85,-327.56 538.02,-313.56 561.99,-303.45"/>
<polygon fill="midnightblue" stroke="midnightblue" points="563.46,-306.63 571.31,-299.52 560.74,-300.18 563.46,-306.63"/>
</g>
<!-- Node19 -->
<g id="node19" class="node">
<title>Node19</title>
<g id="a_node19"><a xlink:href="Color_8hpp.html" target="_top" xlink:title=" ">
<polygon fill="white" stroke="black" points="252.5,-168.5 252.5,-187.5 314.5,-187.5 314.5,-168.5 252.5,-168.5"/>
<text text-anchor="middle" x="283.5" y="-175.5" font-family="Helvetica,sans-Serif" font-size="10.00">Color.hpp</text>
</a>
</g>
</g>
<!-- Node4&#45;&gt;Node19 -->
<g id="edge34" class="edge">
<title>Node4&#45;&gt;Node19</title>
<path fill="none" stroke="midnightblue" d="M453.82,-336.08C424.63,-309.15 337.19,-228.51 300.26,-194.45"/>
<polygon fill="midnightblue" stroke="midnightblue" points="302.51,-191.77 292.79,-187.57 297.77,-196.92 302.51,-191.77"/>
</g>
<!-- Node5&#45;&gt;Node3 -->
<g id="edge6" class="edge">
<title>Node5&#45;&gt;Node3</title>
<path fill="none" stroke="midnightblue" d="M797.52,-112.25C795.53,-98.55 789.85,-71.94 774.5,-56 755.2,-35.96 725.68,-24.51 702.22,-18.19"/>
<polygon fill="midnightblue" stroke="midnightblue" points="702.81,-14.73 692.26,-15.7 701.12,-21.52 702.81,-14.73"/>
</g>
<!-- Node7 -->
<g id="node7" class="node">
<title>Node7</title>
<g id="a_node7"><a xlink:href="Window_8hpp.html" target="_top" xlink:title=" ">
<polygon fill="white" stroke="black" points="604.5,-224.5 604.5,-243.5 680.5,-243.5 680.5,-224.5 604.5,-224.5"/>
<text text-anchor="middle" x="642.5" y="-231.5" font-family="Helvetica,sans-Serif" font-size="10.00">Window.hpp</text>
</a>
</g>
</g>
<!-- Node6&#45;&gt;Node7 -->
<g id="edge8" class="edge">
<title>Node6&#45;&gt;Node7</title>
<path fill="none" stroke="midnightblue" d="M599.92,-280.08C607.35,-272.22 618.35,-260.57 627.31,-251.08"/>
<polygon fill="midnightblue" stroke="midnightblue" points="629.91,-253.42 634.24,-243.75 624.82,-248.62 629.91,-253.42"/>
</g>
<!-- Node7&#45;&gt;Node3 -->
<g id="edge9" class="edge">
<title>Node7&#45;&gt;Node3</title>
<path fill="none" stroke="midnightblue" d="M680.57,-228.47C732.57,-219.96 823.68,-196.22 861.5,-132 900.7,-65.44 769.15,-30.43 702.21,-17.26"/>
<polygon fill="midnightblue" stroke="midnightblue" points="702.54,-13.76 692.06,-15.33 701.23,-20.64 702.54,-13.76"/>
</g>
<!-- Node7&#45;&gt;Node5 -->
<g id="edge12" class="edge">
<title>Node7&#45;&gt;Node5</title>
<path fill="none" stroke="midnightblue" d="M665.91,-224.35C685.51,-216.5 713.69,-203.76 735.5,-188 754.91,-173.97 773.53,-153.62 785.43,-139.43"/>
<polygon fill="midnightblue" stroke="midnightblue" points="788.29,-141.47 791.91,-131.51 782.87,-137.03 788.29,-141.47"/>
</g>
<!-- Node8 -->
<g id="node8" class="node">
<title>Node8</title>
<g id="a_node8"><a xlink:title=" ">
<polygon fill="white" stroke="#bfbfbf" points="1016.5,-168.5 1016.5,-187.5 1060.5,-187.5 1060.5,-168.5 1016.5,-168.5"/>
<text text-anchor="middle" x="1038.5" y="-175.5" font-family="Helvetica,sans-Serif" font-size="10.00">string</text>
</a>
</g>
</g>
<!-- Node7&#45;&gt;Node8 -->
<g id="edge10" class="edge">
<title>Node7&#45;&gt;Node8</title>
<path fill="none" stroke="midnightblue" d="M680.66,-230.32C745.67,-225.31 882.16,-212.9 1006.21,-187.97"/>
<polygon fill="midnightblue" stroke="midnightblue" points="1007.16,-191.35 1016.26,-185.92 1005.76,-184.49 1007.16,-191.35"/>
</g>
<!-- Node9 -->
<g id="node9" class="node">
<title>Node9</title>
<g id="a_node9"><a xlink:title=" ">
<polygon fill="white" stroke="#bfbfbf" points="670.5,-168.5 670.5,-187.5 726.5,-187.5 726.5,-168.5 670.5,-168.5"/>
<text text-anchor="middle" x="698.5" y="-175.5" font-family="Helvetica,sans-Serif" font-size="10.00">optional</text>
</a>
</g>
</g>
<!-- Node7&#45;&gt;Node9 -->
<g id="edge11" class="edge">
<title>Node7&#45;&gt;Node9</title>
<path fill="none" stroke="midnightblue" d="M651.5,-224.32C659.69,-216.42 672.01,-204.55 681.97,-194.94"/>
<polygon fill="midnightblue" stroke="midnightblue" points="684.57,-197.29 689.34,-187.83 679.71,-192.26 684.57,-197.29"/>
</g>
<!-- Node10 -->
<g id="node10" class="node">
<title>Node10</title>
<g id="a_node10"><a xlink:href="lib_2Ray_2sources_2Vector_2Vector3_8hpp.html" target="_top" xlink:title=" ">
<polygon fill="white" stroke="black" points="442.5,-112.5 442.5,-131.5 550.5,-131.5 550.5,-112.5 442.5,-112.5"/>
<text text-anchor="middle" x="496.5" y="-119.5" font-family="Helvetica,sans-Serif" font-size="10.00">Vector/Vector3.hpp</text>
</a>
</g>
</g>
<!-- Node7&#45;&gt;Node10 -->
<g id="edge13" class="edge">
<title>Node7&#45;&gt;Node10</title>
<path fill="none" stroke="midnightblue" d="M604.35,-229.76C574.84,-225.2 535.16,-214.26 511.5,-188 500.24,-175.51 496.93,-156.28 496.17,-141.97"/>
<polygon fill="midnightblue" stroke="midnightblue" points="499.67,-141.72 496.01,-131.78 492.67,-141.83 499.67,-141.72"/>
</g>
<!-- Node11 -->
<g id="node11" class="node">
<title>Node11</title>
<g id="a_node11"><a xlink:href="Keyboard_8hpp.html" target="_top" xlink:title=" ">
<polygon fill="white" stroke="black" points="858.5,-168.5 858.5,-187.5 998.5,-187.5 998.5,-168.5 858.5,-168.5"/>
<text text-anchor="middle" x="928.5" y="-175.5" font-family="Helvetica,sans-Serif" font-size="10.00">Controllers/Keyboard.hpp</text>
</a>
</g>
</g>
<!-- Node7&#45;&gt;Node11 -->
<g id="edge15" class="edge">
<title>Node7&#45;&gt;Node11</title>
<path fill="none" stroke="midnightblue" d="M680.77,-225.77C730.31,-216.42 816.97,-200.06 873.54,-189.38"/>
<polygon fill="midnightblue" stroke="midnightblue" points="874.21,-192.81 883.39,-187.52 872.91,-185.93 874.21,-192.81"/>
</g>
<!-- Node13 -->
<g id="node13" class="node">
<title>Node13</title>
<g id="a_node13"><a xlink:href="Camera2D_8hpp.html" target="_top" xlink:title=" ">
<polygon fill="white" stroke="black" points="521,-168.5 521,-187.5 652,-187.5 652,-168.5 521,-168.5"/>
<text text-anchor="middle" x="586.5" y="-175.5" font-family="Helvetica,sans-Serif" font-size="10.00">Camera/Camera2D.hpp</text>
</a>
</g>
</g>
<!-- Node7&#45;&gt;Node13 -->
<g id="edge18" class="edge">
<title>Node7&#45;&gt;Node13</title>
<path fill="none" stroke="midnightblue" d="M633.5,-224.32C625.31,-216.42 612.99,-204.55 603.03,-194.94"/>
<polygon fill="midnightblue" stroke="midnightblue" points="605.29,-192.26 595.66,-187.83 600.43,-197.29 605.29,-192.26"/>
</g>
<!-- Node16 -->
<g id="node16" class="node">
<title>Node16</title>
<g id="a_node16"><a xlink:href="Camera3D_8hpp.html" target="_top" xlink:title=" ">
<polygon fill="white" stroke="black" points="333,-168.5 333,-187.5 464,-187.5 464,-168.5 333,-168.5"/>
<text text-anchor="middle" x="398.5" y="-175.5" font-family="Helvetica,sans-Serif" font-size="10.00">Camera/Camera3D.hpp</text>
</a>
</g>
</g>
<!-- Node7&#45;&gt;Node16 -->
<g id="edge24" class="edge">
<title>Node7&#45;&gt;Node16</title>
<path fill="none" stroke="midnightblue" d="M604.38,-224.56C561.92,-215.17 493.2,-199.96 446.96,-189.72"/>
<polygon fill="midnightblue" stroke="midnightblue" points="447.68,-186.3 437.16,-187.56 446.17,-193.13 447.68,-186.3"/>
</g>
<!-- Node7&#45;&gt;Node19 -->
<g id="edge32" class="edge">
<title>Node7&#45;&gt;Node19</title>
<path fill="none" stroke="midnightblue" d="M604.04,-228.6C545.75,-221.7 431.38,-207.3 324.85,-188.13"/>
<polygon fill="midnightblue" stroke="midnightblue" points="325.36,-184.66 314.89,-186.32 324.11,-191.55 325.36,-184.66"/>
</g>
<!-- Node10&#45;&gt;Node3 -->
<g id="edge14" class="edge">
<title>Node10&#45;&gt;Node3</title>
<path fill="none" stroke="midnightblue" d="M534.25,-112.48C559.06,-105.57 591.29,-93.96 615.5,-76 632.59,-63.32 646.77,-43.28 655.61,-28.8"/>
<polygon fill="midnightblue" stroke="midnightblue" points="658.83,-30.23 660.85,-19.83 652.79,-26.7 658.83,-30.23"/>
</g>
<!-- Node11&#45;&gt;Node3 -->
<g id="edge16" class="edge">
<title>Node11&#45;&gt;Node3</title>
<path fill="none" stroke="midnightblue" d="M928.9,-168.44C929.42,-146.26 927.53,-86.49 894.5,-56 866.96,-30.58 759.65,-18.4 702.23,-13.6"/>
<polygon fill="midnightblue" stroke="midnightblue" points="702.37,-10.1 692.12,-12.79 701.81,-17.08 702.37,-10.1"/>
</g>
<!-- Node12 -->
<g id="node12" class="node">
<title>Node12</title>
<g id="a_node12"><a xlink:title=" ">
<polygon fill="white" stroke="#bfbfbf" points="1011,-112.5 1011,-131.5 1058,-131.5 1058,-112.5 1011,-112.5"/>
<text text-anchor="middle" x="1034.5" y="-119.5" font-family="Helvetica,sans-Serif" font-size="10.00">vector</text>
</a>
</g>
</g>
<!-- Node11&#45;&gt;Node12 -->
<g id="edge17" class="edge">
<title>Node11&#45;&gt;Node12</title>
<path fill="none" stroke="midnightblue" d="M945.53,-168.32C962.53,-159.66 988.88,-146.24 1008.49,-136.25"/>
<polygon fill="midnightblue" stroke="midnightblue" points="1010.19,-139.31 1017.51,-131.65 1007.01,-133.08 1010.19,-139.31"/>
</g>
<!-- Node13&#45;&gt;Node3 -->
<g id="edge19" class="edge">
<title>Node13&#45;&gt;Node3</title>
<path fill="none" stroke="midnightblue" d="M619.89,-168.44C643.22,-161.32 674.24,-149.5 697.5,-132 722.79,-112.97 731.15,-105.91 741.5,-76 744.41,-67.6 745.9,-63.72 741.5,-56 732.82,-40.78 716.75,-30.18 701.61,-23.11"/>
<polygon fill="midnightblue" stroke="midnightblue" points="702.95,-19.87 692.38,-19.15 700.19,-26.31 702.95,-19.87"/>
</g>
<!-- Node13&#45;&gt;Node5 -->
<g id="edge20" class="edge">
<title>Node13&#45;&gt;Node5</title>
<path fill="none" stroke="midnightblue" d="M620.09,-168.44C656.69,-159.12 715.34,-144.18 755.33,-134"/>
<polygon fill="midnightblue" stroke="midnightblue" points="756.24,-137.38 765.07,-131.52 754.51,-130.59 756.24,-137.38"/>
</g>
<!-- Node14 -->
<g id="node14" class="node">
<title>Node14</title>
<g id="a_node14"><a xlink:href="ICamera_8hpp.html" target="_top" xlink:title=" ">
<polygon fill="white" stroke="black" points="568.5,-112.5 568.5,-131.5 688.5,-131.5 688.5,-112.5 568.5,-112.5"/>
<text text-anchor="middle" x="628.5" y="-119.5" font-family="Helvetica,sans-Serif" font-size="10.00">Camera/ICamera.hpp</text>
</a>
</g>
</g>
<!-- Node13&#45;&gt;Node14 -->
<g id="edge21" class="edge">
<title>Node13&#45;&gt;Node14</title>
<path fill="none" stroke="midnightblue" d="M593.44,-168.08C599.43,-160.38 608.25,-149.03 615.55,-139.65"/>
<polygon fill="midnightblue" stroke="midnightblue" points="618.32,-141.79 621.69,-131.75 612.79,-137.5 618.32,-141.79"/>
</g>
<!-- Node15 -->
<g id="node15" class="node">
<title>Node15</title>
<g id="a_node15"><a xlink:href="Matrix_8hpp.html" target="_top" xlink:title=" ">
<polygon fill="white" stroke="black" points="663,-56.5 663,-75.5 732,-75.5 732,-56.5 663,-56.5"/>
<text text-anchor="middle" x="697.5" y="-63.5" font-family="Helvetica,sans-Serif" font-size="10.00">Matrix.hpp</text>
</a>
</g>
</g>
<!-- Node14&#45;&gt;Node15 -->
<g id="edge22" class="edge">
<title>Node14&#45;&gt;Node15</title>
<path fill="none" stroke="midnightblue" d="M639.59,-112.32C649.99,-104.18 665.76,-91.84 678.22,-82.09"/>
<polygon fill="midnightblue" stroke="midnightblue" points="680.49,-84.75 686.21,-75.83 676.18,-79.24 680.49,-84.75"/>
</g>
<!-- Node15&#45;&gt;Node3 -->
<g id="edge23" class="edge">
<title>Node15&#45;&gt;Node3</title>
<path fill="none" stroke="midnightblue" d="M692.22,-56.08C687.79,-48.61 681.34,-37.72 675.88,-28.52"/>
<polygon fill="midnightblue" stroke="midnightblue" points="678.79,-26.57 670.69,-19.75 672.77,-30.14 678.79,-26.57"/>
</g>
<!-- Node16&#45;&gt;Node3 -->
<g id="edge25" class="edge">
<title>Node16&#45;&gt;Node3</title>
<path fill="none" stroke="midnightblue" d="M398,-168.42C397.21,-146.18 398.41,-86.29 431.5,-56 459.8,-30.1 569.9,-18.11 628.43,-13.47"/>
<polygon fill="midnightblue" stroke="midnightblue" points="629.03,-16.93 638.73,-12.68 628.49,-9.95 629.03,-16.93"/>
</g>
<!-- Node16&#45;&gt;Node10 -->
<g id="edge26" class="edge">
<title>Node16&#45;&gt;Node10</title>
<path fill="none" stroke="midnightblue" d="M414.25,-168.32C429.82,-159.74 453.88,-146.49 471.96,-136.52"/>
<polygon fill="midnightblue" stroke="midnightblue" points="473.72,-139.55 480.79,-131.65 470.35,-133.42 473.72,-139.55"/>
</g>
<!-- Node16&#45;&gt;Node14 -->
<g id="edge27" class="edge">
<title>Node16&#45;&gt;Node14</title>
<path fill="none" stroke="midnightblue" d="M434.94,-168.44C474.9,-159.06 539.09,-143.99 582.48,-133.8"/>
<polygon fill="midnightblue" stroke="midnightblue" points="583.29,-137.21 592.23,-131.52 581.69,-130.39 583.29,-137.21"/>
</g>
<!-- Node17 -->
<g id="node17" class="node">
<title>Node17</title>
<g id="a_node17"><a xlink:href="CameraProjection_8hpp.html" target="_top" xlink:title=" ">
<polygon fill="white" stroke="black" points="440.5,-56.5 440.5,-75.5 606.5,-75.5 606.5,-56.5 440.5,-56.5"/>
<text text-anchor="middle" x="523.5" y="-63.5" font-family="Helvetica,sans-Serif" font-size="10.00">Camera/CameraProjection.hpp</text>
</a>
</g>
</g>
<!-- Node16&#45;&gt;Node17 -->
<g id="edge28" class="edge">
<title>Node16&#45;&gt;Node17</title>
<path fill="none" stroke="midnightblue" d="M401.23,-168.36C405.9,-154.82 416.57,-128.42 433.5,-112 448.52,-97.43 469.2,-86.64 486.94,-79.28"/>
<polygon fill="midnightblue" stroke="midnightblue" points="488.42,-82.46 496.45,-75.55 485.86,-75.95 488.42,-82.46"/>
</g>
<!-- Node18 -->
<g id="node18" class="node">
<title>Node18</title>
<g id="a_node18"><a xlink:href="CameraMode_8hpp.html" target="_top" xlink:title=" ">
<polygon fill="white" stroke="black" points="240.5,-56.5 240.5,-75.5 384.5,-75.5 384.5,-56.5 240.5,-56.5"/>
<text text-anchor="middle" x="312.5" y="-63.5" font-family="Helvetica,sans-Serif" font-size="10.00">Camera/CameraMode.hpp</text>
</a>
</g>
</g>
<!-- Node16&#45;&gt;Node18 -->
<g id="edge30" class="edge">
<title>Node16&#45;&gt;Node18</title>
<path fill="none" stroke="midnightblue" d="M391.55,-168.41C384.26,-159.39 372.5,-144.75 362.5,-132 349.79,-115.8 335.48,-97.16 325.44,-84"/>
<polygon fill="midnightblue" stroke="midnightblue" points="328.09,-81.7 319.24,-75.87 322.52,-85.95 328.09,-81.7"/>
</g>
<!-- Node17&#45;&gt;Node3 -->
<g id="edge29" class="edge">
<title>Node17&#45;&gt;Node3</title>
<path fill="none" stroke="midnightblue" d="M546,-56.44C569.58,-47.48 606.82,-33.31 633.46,-23.18"/>
<polygon fill="midnightblue" stroke="midnightblue" points="635,-26.34 643.1,-19.52 632.51,-19.8 635,-26.34"/>
</g>
<!-- Node18&#45;&gt;Node3 -->
<g id="edge31" class="edge">
<title>Node18&#45;&gt;Node3</title>
<path fill="none" stroke="midnightblue" d="M368.43,-56.44C441.39,-45.28 567,-26.07 628.88,-16.6"/>
<polygon fill="midnightblue" stroke="midnightblue" points="629.6,-20.03 638.95,-15.06 628.54,-13.11 629.6,-20.03"/>
</g>
<!-- Node19&#45;&gt;Node3 -->
<g id="edge33" class="edge">
<title>Node19&#45;&gt;Node3</title>
<path fill="none" stroke="midnightblue" d="M274.07,-168.34C251.83,-146.91 200.26,-90.64 231.5,-56 257.9,-26.72 528.33,-15.3 628.47,-12.06"/>
<polygon fill="midnightblue" stroke="midnightblue" points="628.83,-15.55 638.72,-11.74 628.61,-8.55 628.83,-15.55"/>
</g>
<!-- Node21&#45;&gt;Node3 -->
<g id="edge37" class="edge">
<title>Node21&#45;&gt;Node3</title>
<path fill="none" stroke="midnightblue" d="M1070.95,-509.22C853.8,-494.25 136.5,-430.01 136.5,-235 136.5,-235 136.5,-235 136.5,-121 136.5,-84.28 155.27,-73.59 187.5,-56 263.38,-14.58 530.15,-10.74 628.62,-10.77"/>
<polygon fill="midnightblue" stroke="midnightblue" points="628.69,-14.27 638.7,-10.79 628.7,-7.27 628.69,-14.27"/>
</g>
<!-- Node21&#45;&gt;Node8 -->
<g id="edge38" class="edge">
<title>Node21&#45;&gt;Node8</title>
<path fill="none" stroke="midnightblue" d="M1070.9,-507.77C1006.74,-498.55 915.5,-473.11 915.5,-403 915.5,-403 915.5,-403 915.5,-289 915.5,-239.95 970.51,-207.31 1006.95,-191.07"/>
<polygon fill="midnightblue" stroke="midnightblue" points="1008.4,-194.25 1016.23,-187.11 1005.65,-187.82 1008.4,-194.25"/>
</g>
<!-- Node22 -->
<g id="node22" class="node">
<title>Node22</title>
<g id="a_node22"><a xlink:href="Texture_8hpp.html" target="_top" xlink:title=" ">
<polygon fill="white" stroke="black" points="1312.5,-448.5 1312.5,-467.5 1386.5,-467.5 1386.5,-448.5 1312.5,-448.5"/>
<text text-anchor="middle" x="1349.5" y="-455.5" font-family="Helvetica,sans-Serif" font-size="10.00">Texture.hpp</text>
</a>
</g>
</g>
<!-- Node21&#45;&gt;Node22 -->
<g id="edge39" class="edge">
<title>Node21&#45;&gt;Node22</title>
<path fill="none" stroke="midnightblue" d="M1166.88,-504.44C1204.42,-495.1 1264.63,-480.12 1305.57,-469.93"/>
<polygon fill="midnightblue" stroke="midnightblue" points="1306.42,-473.33 1315.28,-467.52 1304.73,-466.53 1306.42,-473.33"/>
</g>
<!-- Node23 -->
<g id="node23" class="node">
<title>Node23</title>
<g id="a_node23"><a xlink:href="Cache_8hpp.html" target="_top" xlink:title=" ">
<polygon fill="white" stroke="black" points="1303,-280.5 1303,-299.5 1396,-299.5 1396,-280.5 1303,-280.5"/>
<text text-anchor="middle" x="1349.5" y="-287.5" font-family="Helvetica,sans-Serif" font-size="10.00">Utils/Cache.hpp</text>
</a>
</g>
</g>
<!-- Node21&#45;&gt;Node23 -->
<g id="edge58" class="edge">
<title>Node21&#45;&gt;Node23</title>
<path fill="none" stroke="midnightblue" d="M1194.1,-504.92C1359.48,-483.09 1801.44,-423.78 1811.5,-412 1866.33,-347.78 1541.41,-309.15 1406.35,-296.05"/>
<polygon fill="midnightblue" stroke="midnightblue" points="1406.48,-292.54 1396.19,-295.07 1405.81,-299.51 1406.48,-292.54"/>
</g>
<!-- Node32 -->
<g id="node32" class="node">
<title>Node32</title>
<g id="a_node32"><a xlink:href="Rectangle_8hpp.html" target="_top" xlink:title=" ">
<polygon fill="white" stroke="black" points="1644.5,-392.5 1644.5,-411.5 1802.5,-411.5 1802.5,-392.5 1644.5,-392.5"/>
<text text-anchor="middle" x="1723.5" y="-399.5" font-family="Helvetica,sans-Serif" font-size="10.00">Drawables/2D/Rectangle.hpp</text>
</a>
</g>
</g>
<!-- Node21&#45;&gt;Node32 -->
<g id="edge59" class="edge">
<title>Node21&#45;&gt;Node32</title>
<path fill="none" stroke="midnightblue" d="M1184.97,-504.44C1238.1,-495.67 1322.61,-481.45 1395.5,-468 1493.72,-449.87 1608.06,-426.75 1672.5,-413.54"/>
<polygon fill="midnightblue" stroke="midnightblue" points="1673.31,-416.94 1682.4,-411.5 1671.9,-410.09 1673.31,-416.94"/>
</g>
<!-- Node22&#45;&gt;Node3 -->
<g id="edge40" class="edge">
<title>Node22&#45;&gt;Node3</title>
<path fill="none" stroke="midnightblue" d="M1373.55,-448.41C1437.01,-424.73 1611.45,-352.96 1718.5,-244 1741.64,-220.44 1754.5,-212.02 1754.5,-179 1754.5,-179 1754.5,-179 1754.5,-121 1754.5,-53.61 1682.88,-72.35 1617.5,-56 1439.58,-11.49 855.94,-10.32 702.65,-10.81"/>
<polygon fill="midnightblue" stroke="midnightblue" points="702.36,-7.31 692.37,-10.85 702.38,-14.31 702.36,-7.31"/>
</g>
<!-- Node22&#45;&gt;Node8 -->
<g id="edge41" class="edge">
<title>Node22&#45;&gt;Node8</title>
<path fill="none" stroke="midnightblue" d="M1312.25,-454.62C1213.67,-447.32 953.5,-421.03 953.5,-347 953.5,-347 953.5,-347 953.5,-289 953.5,-247.76 991.36,-212.57 1016.55,-193.73"/>
<polygon fill="midnightblue" stroke="midnightblue" points="1018.77,-196.44 1024.84,-187.76 1014.68,-190.76 1018.77,-196.44"/>
</g>
<!-- Node22&#45;&gt;Node23 -->
<g id="edge42" class="edge">
<title>Node22&#45;&gt;Node23</title>
<path fill="none" stroke="midnightblue" d="M1349.5,-448.08C1349.5,-421.95 1349.5,-345.21 1349.5,-309.58"/>
<polygon fill="midnightblue" stroke="midnightblue" points="1353,-309.57 1349.5,-299.57 1346,-309.57 1353,-309.57"/>
</g>
<!-- Node22&#45;&gt;Node32 -->
<g id="edge55" class="edge">
<title>Node22&#45;&gt;Node32</title>
<path fill="none" stroke="midnightblue" d="M1386.73,-451.62C1448.97,-442.64 1575.1,-424.43 1654.1,-413.02"/>
<polygon fill="midnightblue" stroke="midnightblue" points="1655.05,-416.42 1664.44,-411.53 1654.05,-409.49 1655.05,-416.42"/>
</g>
<!-- Node23&#45;&gt;Node3 -->
<g id="edge47" class="edge">
<title>Node23&#45;&gt;Node3</title>
<path fill="none" stroke="midnightblue" d="M1396.2,-289.09C1480.43,-288.28 1653.17,-281.91 1697.5,-244 1720.37,-224.44 1716.5,-209.1 1716.5,-179 1716.5,-179 1716.5,-179 1716.5,-121 1716.5,-16.73 887.68,-10.9 702.08,-10.91"/>
<polygon fill="midnightblue" stroke="midnightblue" points="702,-7.41 692.01,-10.91 702.01,-14.41 702,-7.41"/>
</g>
<!-- Node23&#45;&gt;Node8 -->
<g id="edge53" class="edge">
<title>Node23&#45;&gt;Node8</title>
<path fill="none" stroke="midnightblue" d="M1302.95,-289.91C1220.1,-290.41 1052.28,-286.07 1015.5,-244 1003.49,-230.27 1013.93,-209.86 1024.34,-195.58"/>
<polygon fill="midnightblue" stroke="midnightblue" points="1027.19,-197.62 1030.63,-187.6 1021.69,-193.29 1027.19,-197.62"/>
</g>
<!-- Node23&#45;&gt;Node12 -->
<g id="edge51" class="edge">
<title>Node23&#45;&gt;Node12</title>
<path fill="none" stroke="midnightblue" d="M1302.87,-289.09C1226.9,-288.13 1081.63,-281.31 1049.5,-244 1043.7,-237.26 1047.27,-232.6 1049.5,-224 1056.13,-198.42 1078.08,-193 1069.5,-168 1065.78,-157.16 1058.27,-146.92 1051.15,-138.96"/>
<polygon fill="midnightblue" stroke="midnightblue" points="1053.5,-136.35 1044.06,-131.55 1048.45,-141.19 1053.5,-136.35"/>
</g>
<!-- Node24 -->
<g id="node24" class="node">
<title>Node24</title>
<g id="a_node24"><a xlink:title=" ">
<polygon fill="white" stroke="#bfbfbf" points="1435.5,-224.5 1435.5,-243.5 1493.5,-243.5 1493.5,-224.5 1435.5,-224.5"/>
<text text-anchor="middle" x="1464.5" y="-231.5" font-family="Helvetica,sans-Serif" font-size="10.00">memory</text>
</a>
</g>
</g>
<!-- Node23&#45;&gt;Node24 -->
<g id="edge43" class="edge">
<title>Node23&#45;&gt;Node24</title>
<path fill="none" stroke="midnightblue" d="M1367.72,-280.44C1386.4,-271.68 1415.66,-257.94 1437.12,-247.86"/>
<polygon fill="midnightblue" stroke="midnightblue" points="1438.8,-250.93 1446.36,-243.52 1435.82,-244.6 1438.8,-250.93"/>
</g>
<!-- Node25 -->
<g id="node25" class="node">
<title>Node25</title>
<g id="a_node25"><a xlink:title=" ">
<polygon fill="white" stroke="#bfbfbf" points="1512,-224.5 1512,-243.5 1605,-243.5 1605,-224.5 1512,-224.5"/>
<text text-anchor="middle" x="1558.5" y="-231.5" font-family="Helvetica,sans-Serif" font-size="10.00">unordered_map</text>
</a>
</g>
</g>
<!-- Node23&#45;&gt;Node25 -->
<g id="edge44" class="edge">
<title>Node23&#45;&gt;Node25</title>
<path fill="none" stroke="midnightblue" d="M1382.62,-280.44C1418.62,-271.14 1476.27,-256.25 1515.69,-246.06"/>
<polygon fill="midnightblue" stroke="midnightblue" points="1516.73,-249.41 1525.54,-243.52 1514.98,-242.63 1516.73,-249.41"/>
</g>
<!-- Node26 -->
<g id="node26" class="node">
<title>Node26</title>
<g id="a_node26"><a xlink:title=" ">
<polygon fill="white" stroke="#bfbfbf" points="1623,-224.5 1623,-243.5 1688,-243.5 1688,-224.5 1623,-224.5"/>
<text text-anchor="middle" x="1655.5" y="-231.5" font-family="Helvetica,sans-Serif" font-size="10.00">functional</text>
</a>
</g>
</g>
<!-- Node23&#45;&gt;Node26 -->
<g id="edge45" class="edge">
<title>Node23&#45;&gt;Node26</title>
<path fill="none" stroke="midnightblue" d="M1396.06,-281.79C1447,-273.74 1531.32,-259.97 1612.92,-244.24"/>
<polygon fill="midnightblue" stroke="midnightblue" points="1613.71,-247.65 1622.86,-242.31 1612.37,-240.78 1613.71,-247.65"/>
</g>
<!-- Node27 -->
<g id="node27" class="node">
<title>Node27</title>
<g id="a_node27"><a xlink:title=" ">
<polygon fill="white" stroke="#bfbfbf" points="1058,-224.5 1058,-243.5 1103,-243.5 1103,-224.5 1058,-224.5"/>
<text text-anchor="middle" x="1080.5" y="-231.5" font-family="Helvetica,sans-Serif" font-size="10.00">utility</text>
</a>
</g>
</g>
<!-- Node23&#45;&gt;Node27 -->
<g id="edge46" class="edge">
<title>Node23&#45;&gt;Node27</title>
<path fill="none" stroke="midnightblue" d="M1302.93,-281.38C1257.11,-273.62 1184.98,-260.66 1113.28,-244.01"/>
<polygon fill="midnightblue" stroke="midnightblue" points="1113.7,-240.51 1103.16,-241.64 1112.1,-247.33 1113.7,-240.51"/>
</g>
<!-- Node28 -->
<g id="node28" class="node">
<title>Node28</title>
<g id="a_node28"><a xlink:href="RayError_8hpp.html" target="_top" xlink:title=" ">
<polygon fill="white" stroke="black" points="1282,-224.5 1282,-243.5 1417,-243.5 1417,-224.5 1282,-224.5"/>
<text text-anchor="middle" x="1349.5" y="-231.5" font-family="Helvetica,sans-Serif" font-size="10.00">Exceptions/RayError.hpp</text>
</a>
</g>
</g>
<!-- Node23&#45;&gt;Node28 -->
<g id="edge48" class="edge">
<title>Node23&#45;&gt;Node28</title>
<path fill="none" stroke="midnightblue" d="M1349.5,-280.08C1349.5,-273.01 1349.5,-262.86 1349.5,-253.99"/>
<polygon fill="midnightblue" stroke="midnightblue" points="1353,-253.75 1349.5,-243.75 1346,-253.75 1353,-253.75"/>
</g>
<!-- Node30 -->
<g id="node30" class="node">
<title>Node30</title>
<g id="a_node30"><a xlink:title=" ">
<polygon fill="white" stroke="#bfbfbf" points="1121.5,-224.5 1121.5,-243.5 1185.5,-243.5 1185.5,-224.5 1121.5,-224.5"/>
<text text-anchor="middle" x="1153.5" y="-231.5" font-family="Helvetica,sans-Serif" font-size="10.00">algorithm</text>
</a>
</g>
</g>
<!-- Node23&#45;&gt;Node30 -->
<g id="edge52" class="edge">
<title>Node23&#45;&gt;Node30</title>
<path fill="none" stroke="midnightblue" d="M1318.44,-280.44C1284.9,-271.2 1231.3,-256.44 1194.36,-246.26"/>
<polygon fill="midnightblue" stroke="midnightblue" points="1194.98,-242.8 1184.41,-243.52 1193.12,-249.55 1194.98,-242.8"/>
</g>
<!-- Node31 -->
<g id="node31" class="node">
<title>Node31</title>
<g id="a_node31"><a xlink:title=" ">
<polygon fill="white" stroke="#bfbfbf" points="1203.5,-224.5 1203.5,-243.5 1263.5,-243.5 1263.5,-224.5 1203.5,-224.5"/>
<text text-anchor="middle" x="1233.5" y="-231.5" font-family="Helvetica,sans-Serif" font-size="10.00">iostream</text>
</a>
</g>
</g>
<!-- Node23&#45;&gt;Node31 -->
<g id="edge54" class="edge">
<title>Node23&#45;&gt;Node31</title>
<path fill="none" stroke="midnightblue" d="M1331.12,-280.44C1312.28,-271.68 1282.77,-257.94 1261.12,-247.86"/>
<polygon fill="midnightblue" stroke="midnightblue" points="1262.34,-244.56 1251.79,-243.52 1259.38,-250.91 1262.34,-244.56"/>
</g>
<!-- Node28&#45;&gt;Node8 -->
<g id="edge50" class="edge">
<title>Node28&#45;&gt;Node8</title>
<path fill="none" stroke="midnightblue" d="M1300.22,-224.44C1235.99,-213.29 1125.45,-194.1 1070.89,-184.62"/>
<polygon fill="midnightblue" stroke="midnightblue" points="1071.21,-181.13 1060.76,-182.86 1070.01,-188.02 1071.21,-181.13"/>
</g>
<!-- Node29 -->
<g id="node29" class="node">
<title>Node29</title>
<g id="a_node29"><a xlink:title=" ">
<polygon fill="white" stroke="#bfbfbf" points="1317,-168.5 1317,-187.5 1382,-187.5 1382,-168.5 1317,-168.5"/>
<text text-anchor="middle" x="1349.5" y="-175.5" font-family="Helvetica,sans-Serif" font-size="10.00">stdexcept</text>
</a>
</g>
</g>
<!-- Node28&#45;&gt;Node29 -->
<g id="edge49" class="edge">
<title>Node28&#45;&gt;Node29</title>
<path fill="none" stroke="midnightblue" d="M1349.5,-224.08C1349.5,-217.01 1349.5,-206.86 1349.5,-197.99"/>
<polygon fill="midnightblue" stroke="midnightblue" points="1353,-197.75 1349.5,-187.75 1346,-197.75 1353,-197.75"/>
</g>
<!-- Node32&#45;&gt;Node3 -->
<g id="edge56" class="edge">
<title>Node32&#45;&gt;Node3</title>
<path fill="none" stroke="midnightblue" d="M1733.68,-392.46C1752.87,-375.35 1792.5,-334.73 1792.5,-291 1792.5,-291 1792.5,-291 1792.5,-121 1792.5,-90.2 1793.4,-74.12 1768.5,-56 1724.46,-23.96 888.81,-13.34 702.23,-11.36"/>
<polygon fill="midnightblue" stroke="midnightblue" points="702.14,-7.86 692.11,-11.26 702.07,-14.86 702.14,-7.86"/>
</g>
<!-- Node32&#45;&gt;Node4 -->
<g id="edge57" class="edge">
<title>Node32&#45;&gt;Node4</title>
<path fill="none" stroke="midnightblue" d="M1644.2,-397.6C1421.05,-388.04 788.65,-360.93 553.24,-350.85"/>
<polygon fill="midnightblue" stroke="midnightblue" points="553.15,-347.34 543.01,-350.41 552.85,-354.33 553.15,-347.34"/>
</g>
</g>
</svg>
