<?xml version="1.0" encoding="UTF-8" standalone="no"?>
<!DOCTYPE svg PUBLIC "-//W3C//DTD SVG 1.1//EN"
 "http://www.w3.org/Graphics/SVG/1.1/DTD/svg11.dtd">
<!-- Generated by graphviz version 2.43.0 (0)
 -->
<!-- Title: lib/Ray/sources/Drawables/3D/Triangle.hpp Pages: 1 -->
<svg width="995pt" height="431pt"
 viewBox="0.00 0.00 995.00 431.00" xmlns="http://www.w3.org/2000/svg" xmlns:xlink="http://www.w3.org/1999/xlink">
<g id="graph0" class="graph" transform="scale(1 1) rotate(0) translate(4 427)">
<title>lib/Ray/sources/Drawables/3D/Triangle.hpp</title>
<polygon fill="white" stroke="transparent" points="-4,4 -4,-427 991,-427 991,4 -4,4"/>
<!-- Node1 -->
<g id="node1" class="node">
<title>Node1</title>
<g id="a_node1"><a xlink:title=" ">
<polygon fill="#bfbfbf" stroke="black" points="0,-392.5 0,-422.5 146,-422.5 146,-392.5 0,-392.5"/>
<text text-anchor="start" x="8" y="-410.5" font-family="Helvetica,sans-Serif" font-size="10.00">lib/Ray/sources/Drawables</text>
<text text-anchor="middle" x="73" y="-399.5" font-family="Helvetica,sans-Serif" font-size="10.00">/3D/Triangle.hpp</text>
</a>
</g>
</g>
<!-- Node2 -->
<g id="node2" class="node">
<title>Node2</title>
<g id="a_node2"><a xlink:title=" ">
<polygon fill="white" stroke="#bfbfbf" points="342.5,-0.5 342.5,-19.5 395.5,-19.5 395.5,-0.5 342.5,-0.5"/>
<text text-anchor="middle" x="369" y="-7.5" font-family="Helvetica,sans-Serif" font-size="10.00">raylib.h</text>
</a>
</g>
</g>
<!-- Node1&#45;&gt;Node2 -->
<g id="edge1" class="edge">
<title>Node1&#45;&gt;Node2</title>
<path fill="none" stroke="midnightblue" d="M61.5,-392.16C45.91,-371.23 20,-330.49 20,-291 20,-291 20,-291 20,-121 20,-81.68 45.31,-74.5 80,-56 123.06,-33.04 264.39,-19.19 332.14,-13.71"/>
<polygon fill="midnightblue" stroke="midnightblue" points="332.66,-17.18 342.35,-12.9 332.11,-10.2 332.66,-17.18"/>
</g>
<!-- Node3 -->
<g id="node3" class="node">
<title>Node3</title>
<g id="a_node3"><a xlink:href="ADrawable3D_8hpp.html" target="_top" xlink:title=" ">
<polygon fill="white" stroke="black" points="47.5,-336.5 47.5,-355.5 206.5,-355.5 206.5,-336.5 47.5,-336.5"/>
<text text-anchor="middle" x="127" y="-343.5" font-family="Helvetica,sans-Serif" font-size="10.00">Drawables/ADrawable3D.hpp</text>
</a>
</g>
</g>
<!-- Node1&#45;&gt;Node3 -->
<g id="edge2" class="edge">
<title>Node1&#45;&gt;Node3</title>
<path fill="none" stroke="midnightblue" d="M85.8,-392.4C93.72,-383.66 103.94,-372.41 112.21,-363.3"/>
<polygon fill="midnightblue" stroke="midnightblue" points="115.01,-365.42 119.14,-355.66 109.83,-360.71 115.01,-365.42"/>
</g>
<!-- Node3&#45;&gt;Node2 -->
<g id="edge3" class="edge">
<title>Node3&#45;&gt;Node2</title>
<path fill="none" stroke="midnightblue" d="M116.82,-336.46C97.63,-319.35 58,-278.73 58,-235 58,-235 58,-235 58,-121 58,-80.46 86.17,-74.96 122,-56 190.16,-19.93 282.08,-12.23 332.36,-10.9"/>
<polygon fill="midnightblue" stroke="midnightblue" points="332.51,-14.4 342.44,-10.71 332.37,-7.4 332.51,-14.4"/>
</g>
<!-- Node4 -->
<g id="node4" class="node">
<title>Node4</title>
<g id="a_node4"><a xlink:href="IDrawable_8hpp.html" target="_top" xlink:title=" ">
<polygon fill="white" stroke="black" points="365,-280.5 365,-299.5 507,-299.5 507,-280.5 365,-280.5"/>
<text text-anchor="middle" x="436" y="-287.5" font-family="Helvetica,sans-Serif" font-size="10.00">Drawables/IDrawable.hpp</text>
</a>
</g>
</g>
<!-- Node3&#45;&gt;Node4 -->
<g id="edge4" class="edge">
<title>Node3&#45;&gt;Node4</title>
<path fill="none" stroke="midnightblue" d="M175.96,-336.44C230.54,-326.9 318.79,-311.48 377.1,-301.29"/>
<polygon fill="midnightblue" stroke="midnightblue" points="378.02,-304.69 387.27,-299.52 376.81,-297.79 378.02,-304.69"/>
</g>
<!-- Node18 -->
<g id="node18" class="node">
<title>Node18</title>
<g id="a_node18"><a xlink:href="Color_8hpp.html" target="_top" xlink:title=" ">
<polygon fill="white" stroke="black" points="96,-168.5 96,-187.5 158,-187.5 158,-168.5 96,-168.5"/>
<text text-anchor="middle" x="127" y="-175.5" font-family="Helvetica,sans-Serif" font-size="10.00">Color.hpp</text>
</a>
</g>
</g>
<!-- Node3&#45;&gt;Node18 -->
<g id="edge32" class="edge">
<title>Node3&#45;&gt;Node18</title>
<path fill="none" stroke="midnightblue" d="M127,-336.08C127,-309.95 127,-233.21 127,-197.58"/>
<polygon fill="midnightblue" stroke="midnightblue" points="130.5,-197.57 127,-187.57 123.5,-197.57 130.5,-197.57"/>
</g>
<!-- Node5 -->
<g id="node5" class="node">
<title>Node5</title>
<g id="a_node5"><a xlink:href="Window_8hpp.html" target="_top" xlink:title=" ">
<polygon fill="white" stroke="black" points="560,-224.5 560,-243.5 636,-243.5 636,-224.5 560,-224.5"/>
<text text-anchor="middle" x="598" y="-231.5" font-family="Helvetica,sans-Serif" font-size="10.00">Window.hpp</text>
</a>
</g>
</g>
<!-- Node4&#45;&gt;Node5 -->
<g id="edge5" class="edge">
<title>Node4&#45;&gt;Node5</title>
<path fill="none" stroke="midnightblue" d="M461.67,-280.44C488.92,-271.36 532.18,-256.94 562.65,-246.78"/>
<polygon fill="midnightblue" stroke="midnightblue" points="564.07,-250 572.45,-243.52 561.86,-243.36 564.07,-250"/>
</g>
<!-- Node5&#45;&gt;Node2 -->
<g id="edge6" class="edge">
<title>Node5&#45;&gt;Node2</title>
<path fill="none" stroke="midnightblue" d="M604.86,-224.45C626.29,-196.68 687.99,-107.78 644,-56 613.89,-20.57 473.96,-12.97 406.1,-11.39"/>
<polygon fill="midnightblue" stroke="midnightblue" points="405.92,-7.89 395.86,-11.18 405.78,-14.88 405.92,-7.89"/>
</g>
<!-- Node6 -->
<g id="node6" class="node">
<title>Node6</title>
<g id="a_node6"><a xlink:title=" ">
<polygon fill="white" stroke="#bfbfbf" points="673,-168.5 673,-187.5 717,-187.5 717,-168.5 673,-168.5"/>
<text text-anchor="middle" x="695" y="-175.5" font-family="Helvetica,sans-Serif" font-size="10.00">string</text>
</a>
</g>
</g>
<!-- Node5&#45;&gt;Node6 -->
<g id="edge7" class="edge">
<title>Node5&#45;&gt;Node6</title>
<path fill="none" stroke="midnightblue" d="M613.58,-224.32C629,-215.74 652.81,-202.49 670.71,-192.52"/>
<polygon fill="midnightblue" stroke="midnightblue" points="672.42,-195.58 679.45,-187.65 669.01,-189.46 672.42,-195.58"/>
</g>
<!-- Node7 -->
<g id="node7" class="node">
<title>Node7</title>
<g id="a_node7"><a xlink:title=" ">
<polygon fill="white" stroke="#bfbfbf" points="735,-168.5 735,-187.5 791,-187.5 791,-168.5 735,-168.5"/>
<text text-anchor="middle" x="763" y="-175.5" font-family="Helvetica,sans-Serif" font-size="10.00">optional</text>
</a>
</g>
</g>
<!-- Node5&#45;&gt;Node7 -->
<g id="edge8" class="edge">
<title>Node5&#45;&gt;Node7</title>
<path fill="none" stroke="midnightblue" d="M624.14,-224.44C652.02,-215.32 696.35,-200.81 727.4,-190.65"/>
<polygon fill="midnightblue" stroke="midnightblue" points="728.56,-193.95 736.98,-187.52 726.38,-187.3 728.56,-193.95"/>
</g>
<!-- Node8 -->
<g id="node8" class="node">
<title>Node8</title>
<g id="a_node8"><a xlink:href="lib_2Ray_2sources_2Vector_2Vector2_8hpp.html" target="_top" xlink:title=" ">
<polygon fill="white" stroke="black" points="710,-112.5 710,-131.5 818,-131.5 818,-112.5 710,-112.5"/>
<text text-anchor="middle" x="764" y="-119.5" font-family="Helvetica,sans-Serif" font-size="10.00">Vector/Vector2.hpp</text>
</a>
</g>
</g>
<!-- Node5&#45;&gt;Node8 -->
<g id="edge9" class="edge">
<title>Node5&#45;&gt;Node8</title>
<path fill="none" stroke="midnightblue" d="M636.37,-230.04C689.14,-225.09 779.89,-213.09 800,-188 812.39,-172.54 796.96,-152.24 782.63,-138.47"/>
<polygon fill="midnightblue" stroke="midnightblue" points="784.74,-135.66 774.97,-131.56 780.05,-140.86 784.74,-135.66"/>
</g>
<!-- Node9 -->
<g id="node9" class="node">
<title>Node9</title>
<g id="a_node9"><a xlink:href="lib_2Ray_2sources_2Vector_2Vector3_8hpp.html" target="_top" xlink:title=" ">
<polygon fill="white" stroke="black" points="124,-112.5 124,-131.5 232,-131.5 232,-112.5 124,-112.5"/>
<text text-anchor="middle" x="178" y="-119.5" font-family="Helvetica,sans-Serif" font-size="10.00">Vector/Vector3.hpp</text>
</a>
</g>
</g>
<!-- Node5&#45;&gt;Node9 -->
<g id="edge11" class="edge">
<title>Node5&#45;&gt;Node9</title>
<path fill="none" stroke="midnightblue" d="M559.74,-231.43C501.91,-228.13 389.41,-218.08 299,-188 261.65,-175.57 222.15,-152.14 198.81,-137.07"/>
<polygon fill="midnightblue" stroke="midnightblue" points="200.69,-134.12 190.41,-131.55 196.85,-139.97 200.69,-134.12"/>
</g>
<!-- Node10 -->
<g id="node10" class="node">
<title>Node10</title>
<g id="a_node10"><a xlink:href="Keyboard_8hpp.html" target="_top" xlink:title=" ">
<polygon fill="white" stroke="black" points="847,-168.5 847,-187.5 987,-187.5 987,-168.5 847,-168.5"/>
<text text-anchor="middle" x="917" y="-175.5" font-family="Helvetica,sans-Serif" font-size="10.00">Controllers/Keyboard.hpp</text>
</a>
</g>
</g>
<!-- Node5&#45;&gt;Node10 -->
<g id="edge13" class="edge">
<title>Node5&#45;&gt;Node10</title>
<path fill="none" stroke="midnightblue" d="M636.16,-226.54C690.79,-217.29 791.83,-200.19 856.65,-189.22"/>
<polygon fill="midnightblue" stroke="midnightblue" points="857.46,-192.63 866.73,-187.51 856.29,-185.73 857.46,-192.63"/>
</g>
<!-- Node12 -->
<g id="node12" class="node">
<title>Node12</title>
<g id="a_node12"><a xlink:href="Camera2D_8hpp.html" target="_top" xlink:title=" ">
<polygon fill="white" stroke="black" points="485.5,-168.5 485.5,-187.5 616.5,-187.5 616.5,-168.5 485.5,-168.5"/>
<text text-anchor="middle" x="551" y="-175.5" font-family="Helvetica,sans-Serif" font-size="10.00">Camera/Camera2D.hpp</text>
</a>
</g>
</g>
<!-- Node5&#45;&gt;Node12 -->
<g id="edge16" class="edge">
<title>Node5&#45;&gt;Node12</title>
<path fill="none" stroke="midnightblue" d="M590.24,-224.08C583.46,-216.3 573.46,-204.8 565.24,-195.37"/>
<polygon fill="midnightblue" stroke="midnightblue" points="567.82,-193 558.62,-187.75 562.54,-197.59 567.82,-193"/>
</g>
<!-- Node15 -->
<g id="node15" class="node">
<title>Node15</title>
<g id="a_node15"><a xlink:href="Camera3D_8hpp.html" target="_top" xlink:title=" ">
<polygon fill="white" stroke="black" points="307.5,-168.5 307.5,-187.5 438.5,-187.5 438.5,-168.5 307.5,-168.5"/>
<text text-anchor="middle" x="373" y="-175.5" font-family="Helvetica,sans-Serif" font-size="10.00">Camera/Camera3D.hpp</text>
</a>
</g>
</g>
<!-- Node5&#45;&gt;Node15 -->
<g id="edge22" class="edge">
<title>Node5&#45;&gt;Node15</title>
<path fill="none" stroke="midnightblue" d="M562.35,-224.44C523.34,-215.08 460.73,-200.06 418.28,-189.87"/>
<polygon fill="midnightblue" stroke="midnightblue" points="419.03,-186.45 408.49,-187.52 417.39,-193.25 419.03,-186.45"/>
</g>
<!-- Node5&#45;&gt;Node18 -->
<g id="edge30" class="edge">
<title>Node5&#45;&gt;Node18</title>
<path fill="none" stroke="midnightblue" d="M559.86,-228.63C472.54,-218.62 258.72,-194.1 168.37,-183.74"/>
<polygon fill="midnightblue" stroke="midnightblue" points="168.57,-180.24 158.24,-182.58 167.77,-187.2 168.57,-180.24"/>
</g>
<!-- Node8&#45;&gt;Node2 -->
<g id="edge10" class="edge">
<title>Node8&#45;&gt;Node2</title>
<path fill="none" stroke="midnightblue" d="M757.66,-112.04C746.86,-97.54 723.36,-69.21 696,-56 645.4,-31.57 480.43,-18.16 406.01,-13.23"/>
<polygon fill="midnightblue" stroke="midnightblue" points="405.92,-9.71 395.71,-12.56 405.47,-16.7 405.92,-9.71"/>
</g>
<!-- Node9&#45;&gt;Node2 -->
<g id="edge12" class="edge">
<title>Node9&#45;&gt;Node2</title>
<path fill="none" stroke="midnightblue" d="M170.9,-112.47C160.64,-99.08 144.33,-72.89 158,-56 179.48,-29.45 277.41,-17.89 331.98,-13.44"/>
<polygon fill="midnightblue" stroke="midnightblue" points="332.59,-16.9 342.29,-12.64 332.05,-9.92 332.59,-16.9"/>
</g>
<!-- Node10&#45;&gt;Node2 -->
<g id="edge14" class="edge">
<title>Node10&#45;&gt;Node2</title>
<path fill="none" stroke="midnightblue" d="M916.92,-168.14C916.31,-154.29 913.1,-127.49 898,-112 840.99,-53.53 802.73,-73.67 723,-56 608.98,-30.73 470.93,-18.28 406.07,-13.47"/>
<polygon fill="midnightblue" stroke="midnightblue" points="406.16,-9.96 395.93,-12.73 405.65,-16.95 406.16,-9.96"/>
</g>
<!-- Node11 -->
<g id="node11" class="node">
<title>Node11</title>
<g id="a_node11"><a xlink:title=" ">
<polygon fill="white" stroke="#bfbfbf" points="841.5,-112.5 841.5,-131.5 888.5,-131.5 888.5,-112.5 841.5,-112.5"/>
<text text-anchor="middle" x="865" y="-119.5" font-family="Helvetica,sans-Serif" font-size="10.00">vector</text>
</a>
</g>
</g>
<!-- Node10&#45;&gt;Node11 -->
<g id="edge15" class="edge">
<title>Node10&#45;&gt;Node11</title>
<path fill="none" stroke="midnightblue" d="M908.41,-168.08C900.84,-160.22 889.62,-148.57 880.49,-139.08"/>
<polygon fill="midnightblue" stroke="midnightblue" points="882.88,-136.53 873.43,-131.75 877.84,-141.38 882.88,-136.53"/>
</g>
<!-- Node12&#45;&gt;Node2 -->
<g id="edge17" class="edge">
<title>Node12&#45;&gt;Node2</title>
<path fill="none" stroke="midnightblue" d="M573.98,-168.38C589.74,-161.18 609.62,-149.29 620,-132 637.43,-102.98 646.77,-81.93 625,-56 597.45,-23.18 469.87,-14.29 405.85,-11.89"/>
<polygon fill="midnightblue" stroke="midnightblue" points="405.89,-8.39 395.78,-11.54 405.65,-15.38 405.89,-8.39"/>
</g>
<!-- Node12&#45;&gt;Node8 -->
<g id="edge18" class="edge">
<title>Node12&#45;&gt;Node8</title>
<path fill="none" stroke="midnightblue" d="M584.75,-168.44C621.52,-159.12 680.45,-144.18 720.62,-134"/>
<polygon fill="midnightblue" stroke="midnightblue" points="721.57,-137.37 730.41,-131.52 719.85,-130.58 721.57,-137.37"/>
</g>
<!-- Node13 -->
<g id="node13" class="node">
<title>Node13</title>
<g id="a_node13"><a xlink:href="ICamera_8hpp.html" target="_top" xlink:title=" ">
<polygon fill="white" stroke="black" points="491,-112.5 491,-131.5 611,-131.5 611,-112.5 491,-112.5"/>
<text text-anchor="middle" x="551" y="-119.5" font-family="Helvetica,sans-Serif" font-size="10.00">Camera/ICamera.hpp</text>
</a>
</g>
</g>
<!-- Node12&#45;&gt;Node13 -->
<g id="edge19" class="edge">
<title>Node12&#45;&gt;Node13</title>
<path fill="none" stroke="midnightblue" d="M551,-168.08C551,-161.01 551,-150.86 551,-141.99"/>
<polygon fill="midnightblue" stroke="midnightblue" points="554.5,-141.75 551,-131.75 547.5,-141.75 554.5,-141.75"/>
</g>
<!-- Node14 -->
<g id="node14" class="node">
<title>Node14</title>
<g id="a_node14"><a xlink:href="Matrix_8hpp.html" target="_top" xlink:title=" ">
<polygon fill="white" stroke="black" points="546.5,-56.5 546.5,-75.5 615.5,-75.5 615.5,-56.5 546.5,-56.5"/>
<text text-anchor="middle" x="581" y="-63.5" font-family="Helvetica,sans-Serif" font-size="10.00">Matrix.hpp</text>
</a>
</g>
</g>
<!-- Node13&#45;&gt;Node14 -->
<g id="edge20" class="edge">
<title>Node13&#45;&gt;Node14</title>
<path fill="none" stroke="midnightblue" d="M555.95,-112.08C560.1,-104.61 566.15,-93.72 571.27,-84.52"/>
<polygon fill="midnightblue" stroke="midnightblue" points="574.34,-86.19 576.14,-75.75 568.22,-82.79 574.34,-86.19"/>
</g>
<!-- Node14&#45;&gt;Node2 -->
<g id="edge21" class="edge">
<title>Node14&#45;&gt;Node2</title>
<path fill="none" stroke="midnightblue" d="M547.41,-56.44C508.74,-46.59 445.45,-30.47 405.57,-20.32"/>
<polygon fill="midnightblue" stroke="midnightblue" points="406.28,-16.88 395.72,-17.81 404.55,-23.67 406.28,-16.88"/>
</g>
<!-- Node15&#45;&gt;Node2 -->
<g id="edge23" class="edge">
<title>Node15&#45;&gt;Node2</title>
<path fill="none" stroke="midnightblue" d="M355.33,-168.47C311.45,-147.13 200.4,-91.96 191,-76 186.49,-68.34 185.54,-63.01 191,-56 208.16,-33.96 285.24,-21.01 332.16,-15.03"/>
<polygon fill="midnightblue" stroke="midnightblue" points="332.75,-18.48 342.25,-13.79 331.9,-11.54 332.75,-18.48"/>
</g>
<!-- Node15&#45;&gt;Node9 -->
<g id="edge24" class="edge">
<title>Node15&#45;&gt;Node9</title>
<path fill="none" stroke="midnightblue" d="M342.1,-168.44C308.73,-159.2 255.41,-144.44 218.65,-134.26"/>
<polygon fill="midnightblue" stroke="midnightblue" points="219.33,-130.81 208.75,-131.52 217.46,-137.56 219.33,-130.81"/>
</g>
<!-- Node15&#45;&gt;Node13 -->
<g id="edge25" class="edge">
<title>Node15&#45;&gt;Node13</title>
<path fill="none" stroke="midnightblue" d="M401.2,-168.44C431.41,-159.28 479.51,-144.69 513.03,-134.52"/>
<polygon fill="midnightblue" stroke="midnightblue" points="514.37,-137.77 522.93,-131.52 512.34,-131.07 514.37,-137.77"/>
</g>
<!-- Node16 -->
<g id="node16" class="node">
<title>Node16</title>
<g id="a_node16"><a xlink:href="CameraProjection_8hpp.html" target="_top" xlink:title=" ">
<polygon fill="white" stroke="black" points="200,-56.5 200,-75.5 366,-75.5 366,-56.5 200,-56.5"/>
<text text-anchor="middle" x="283" y="-63.5" font-family="Helvetica,sans-Serif" font-size="10.00">Camera/CameraProjection.hpp</text>
</a>
</g>
</g>
<!-- Node15&#45;&gt;Node16 -->
<g id="edge26" class="edge">
<title>Node15&#45;&gt;Node16</title>
<path fill="none" stroke="midnightblue" d="M365.94,-168.37C350.95,-150.05 315.77,-107.05 296.39,-83.36"/>
<polygon fill="midnightblue" stroke="midnightblue" points="299.07,-81.11 290.03,-75.59 293.65,-85.55 299.07,-81.11"/>
</g>
<!-- Node17 -->
<g id="node17" class="node">
<title>Node17</title>
<g id="a_node17"><a xlink:href="CameraMode_8hpp.html" target="_top" xlink:title=" ">
<polygon fill="white" stroke="black" points="384,-56.5 384,-75.5 528,-75.5 528,-56.5 384,-56.5"/>
<text text-anchor="middle" x="456" y="-63.5" font-family="Helvetica,sans-Serif" font-size="10.00">Camera/CameraMode.hpp</text>
</a>
</g>
</g>
<!-- Node15&#45;&gt;Node17 -->
<g id="edge28" class="edge">
<title>Node15&#45;&gt;Node17</title>
<path fill="none" stroke="midnightblue" d="M379.51,-168.37C393.27,-150.14 425.5,-107.43 443.42,-83.68"/>
<polygon fill="midnightblue" stroke="midnightblue" points="446.29,-85.68 449.52,-75.59 440.7,-81.47 446.29,-85.68"/>
</g>
<!-- Node16&#45;&gt;Node2 -->
<g id="edge27" class="edge">
<title>Node16&#45;&gt;Node2</title>
<path fill="none" stroke="midnightblue" d="M296.82,-56.32C310.23,-47.9 330.82,-34.97 346.59,-25.07"/>
<polygon fill="midnightblue" stroke="midnightblue" points="348.61,-27.94 355.22,-19.65 344.89,-22.01 348.61,-27.94"/>
</g>
<!-- Node17&#45;&gt;Node2 -->
<g id="edge29" class="edge">
<title>Node17&#45;&gt;Node2</title>
<path fill="none" stroke="midnightblue" d="M442.02,-56.32C428.45,-47.9 407.62,-34.97 391.68,-25.07"/>
<polygon fill="midnightblue" stroke="midnightblue" points="393.29,-21.95 382.94,-19.65 389.59,-27.9 393.29,-21.95"/>
</g>
<!-- Node18&#45;&gt;Node2 -->
<g id="edge31" class="edge">
<title>Node18&#45;&gt;Node2</title>
<path fill="none" stroke="midnightblue" d="M123.91,-168.17C120.95,-159.2 116.68,-144.83 115,-132 110.22,-95.49 118.02,-77.38 148,-56 177.12,-35.23 277.26,-21.18 332.2,-14.84"/>
<polygon fill="midnightblue" stroke="midnightblue" points="332.69,-18.31 342.23,-13.71 331.9,-11.36 332.69,-18.31"/>
</g>
</g>
</svg>
