<?xml version="1.0" encoding="UTF-8" standalone="no"?>
<!DOCTYPE svg PUBLIC "-//W3C//DTD SVG 1.1//EN"
 "http://www.w3.org/Graphics/SVG/1.1/DTD/svg11.dtd">
<!-- Generated by graphviz version 2.43.0 (0)
 -->
<!-- Title: lib/Ray/sources/Drawables/3D/Triangle.cpp Pages: 1 -->
<svg width="996pt" height="487pt"
 viewBox="0.00 0.00 995.50 487.00" xmlns="http://www.w3.org/2000/svg" xmlns:xlink="http://www.w3.org/1999/xlink">
<g id="graph0" class="graph" transform="scale(1 1) rotate(0) translate(4 483)">
<title>lib/Ray/sources/Drawables/3D/Triangle.cpp</title>
<polygon fill="white" stroke="transparent" points="-4,4 -4,-483 991.5,-483 991.5,4 -4,4"/>
<!-- Node1 -->
<g id="node1" class="node">
<title>Node1</title>
<g id="a_node1"><a xlink:title=" ">
<polygon fill="#bfbfbf" stroke="black" points="62.5,-448.5 62.5,-478.5 208.5,-478.5 208.5,-448.5 62.5,-448.5"/>
<text text-anchor="start" x="70.5" y="-466.5" font-family="Helvetica,sans-Serif" font-size="10.00">lib/Ray/sources/Drawables</text>
<text text-anchor="middle" x="135.5" y="-455.5" font-family="Helvetica,sans-Serif" font-size="10.00">/3D/Triangle.cpp</text>
</a>
</g>
</g>
<!-- Node2 -->
<g id="node2" class="node">
<title>Node2</title>
<g id="a_node2"><a xlink:href="3D_2Triangle_8hpp.html" target="_top" xlink:title=" ">
<polygon fill="white" stroke="black" points="0,-392.5 0,-411.5 147,-411.5 147,-392.5 0,-392.5"/>
<text text-anchor="middle" x="73.5" y="-399.5" font-family="Helvetica,sans-Serif" font-size="10.00">Drawables/3D/Triangle.hpp</text>
</a>
</g>
</g>
<!-- Node1&#45;&gt;Node2 -->
<g id="edge1" class="edge">
<title>Node1&#45;&gt;Node2</title>
<path fill="none" stroke="midnightblue" d="M120.81,-448.4C111.52,-439.49 99.5,-427.95 89.9,-418.74"/>
<polygon fill="midnightblue" stroke="midnightblue" points="92.16,-416.06 82.52,-411.66 87.31,-421.11 92.16,-416.06"/>
</g>
<!-- Node20 -->
<g id="node20" class="node">
<title>Node20</title>
<g id="a_node20"><a xlink:title=" ">
<polygon fill="white" stroke="#bfbfbf" points="165,-392.5 165,-411.5 230,-411.5 230,-392.5 165,-392.5"/>
<text text-anchor="middle" x="197.5" y="-399.5" font-family="Helvetica,sans-Serif" font-size="10.00">exception</text>
</a>
</g>
</g>
<!-- Node1&#45;&gt;Node20 -->
<g id="edge34" class="edge">
<title>Node1&#45;&gt;Node20</title>
<path fill="none" stroke="midnightblue" d="M150.19,-448.4C159.48,-439.49 171.5,-427.95 181.1,-418.74"/>
<polygon fill="midnightblue" stroke="midnightblue" points="183.69,-421.11 188.48,-411.66 178.84,-416.06 183.69,-421.11"/>
</g>
<!-- Node3 -->
<g id="node3" class="node">
<title>Node3</title>
<g id="a_node3"><a xlink:title=" ">
<polygon fill="white" stroke="#bfbfbf" points="343,-0.5 343,-19.5 396,-19.5 396,-0.5 343,-0.5"/>
<text text-anchor="middle" x="369.5" y="-7.5" font-family="Helvetica,sans-Serif" font-size="10.00">raylib.h</text>
</a>
</g>
</g>
<!-- Node2&#45;&gt;Node3 -->
<g id="edge2" class="edge">
<title>Node2&#45;&gt;Node3</title>
<path fill="none" stroke="midnightblue" d="M65.42,-392.34C57.77,-383.72 46.45,-369.82 39.5,-356 25.98,-329.11 20.5,-321.1 20.5,-291 20.5,-291 20.5,-291 20.5,-121 20.5,-81.68 45.81,-74.5 80.5,-56 123.56,-33.04 264.89,-19.19 332.64,-13.71"/>
<polygon fill="midnightblue" stroke="midnightblue" points="333.16,-17.18 342.85,-12.9 332.61,-10.2 333.16,-17.18"/>
</g>
<!-- Node4 -->
<g id="node4" class="node">
<title>Node4</title>
<g id="a_node4"><a xlink:href="ADrawable3D_8hpp.html" target="_top" xlink:title=" ">
<polygon fill="white" stroke="black" points="48,-336.5 48,-355.5 207,-355.5 207,-336.5 48,-336.5"/>
<text text-anchor="middle" x="127.5" y="-343.5" font-family="Helvetica,sans-Serif" font-size="10.00">Drawables/ADrawable3D.hpp</text>
</a>
</g>
</g>
<!-- Node2&#45;&gt;Node4 -->
<g id="edge3" class="edge">
<title>Node2&#45;&gt;Node4</title>
<path fill="none" stroke="midnightblue" d="M82.42,-392.08C90.28,-384.22 101.93,-372.57 111.42,-363.08"/>
<polygon fill="midnightblue" stroke="midnightblue" points="114.15,-365.3 118.75,-355.75 109.2,-360.35 114.15,-365.3"/>
</g>
<!-- Node4&#45;&gt;Node3 -->
<g id="edge4" class="edge">
<title>Node4&#45;&gt;Node3</title>
<path fill="none" stroke="midnightblue" d="M117.32,-336.46C98.13,-319.35 58.5,-278.73 58.5,-235 58.5,-235 58.5,-235 58.5,-121 58.5,-80.46 86.67,-74.96 122.5,-56 190.66,-19.93 282.58,-12.23 332.86,-10.9"/>
<polygon fill="midnightblue" stroke="midnightblue" points="333.01,-14.4 342.94,-10.71 332.87,-7.4 333.01,-14.4"/>
</g>
<!-- Node5 -->
<g id="node5" class="node">
<title>Node5</title>
<g id="a_node5"><a xlink:href="IDrawable_8hpp.html" target="_top" xlink:title=" ">
<polygon fill="white" stroke="black" points="365.5,-280.5 365.5,-299.5 507.5,-299.5 507.5,-280.5 365.5,-280.5"/>
<text text-anchor="middle" x="436.5" y="-287.5" font-family="Helvetica,sans-Serif" font-size="10.00">Drawables/IDrawable.hpp</text>
</a>
</g>
</g>
<!-- Node4&#45;&gt;Node5 -->
<g id="edge5" class="edge">
<title>Node4&#45;&gt;Node5</title>
<path fill="none" stroke="midnightblue" d="M176.46,-336.44C231.04,-326.9 319.29,-311.48 377.6,-301.29"/>
<polygon fill="midnightblue" stroke="midnightblue" points="378.52,-304.69 387.77,-299.52 377.31,-297.79 378.52,-304.69"/>
</g>
<!-- Node19 -->
<g id="node19" class="node">
<title>Node19</title>
<g id="a_node19"><a xlink:href="Color_8hpp.html" target="_top" xlink:title=" ">
<polygon fill="white" stroke="black" points="96.5,-168.5 96.5,-187.5 158.5,-187.5 158.5,-168.5 96.5,-168.5"/>
<text text-anchor="middle" x="127.5" y="-175.5" font-family="Helvetica,sans-Serif" font-size="10.00">Color.hpp</text>
</a>
</g>
</g>
<!-- Node4&#45;&gt;Node19 -->
<g id="edge33" class="edge">
<title>Node4&#45;&gt;Node19</title>
<path fill="none" stroke="midnightblue" d="M127.5,-336.08C127.5,-309.95 127.5,-233.21 127.5,-197.58"/>
<polygon fill="midnightblue" stroke="midnightblue" points="131,-197.57 127.5,-187.57 124,-197.57 131,-197.57"/>
</g>
<!-- Node6 -->
<g id="node6" class="node">
<title>Node6</title>
<g id="a_node6"><a xlink:href="Window_8hpp.html" target="_top" xlink:title=" ">
<polygon fill="white" stroke="black" points="560.5,-224.5 560.5,-243.5 636.5,-243.5 636.5,-224.5 560.5,-224.5"/>
<text text-anchor="middle" x="598.5" y="-231.5" font-family="Helvetica,sans-Serif" font-size="10.00">Window.hpp</text>
</a>
</g>
</g>
<!-- Node5&#45;&gt;Node6 -->
<g id="edge6" class="edge">
<title>Node5&#45;&gt;Node6</title>
<path fill="none" stroke="midnightblue" d="M462.17,-280.44C489.42,-271.36 532.68,-256.94 563.15,-246.78"/>
<polygon fill="midnightblue" stroke="midnightblue" points="564.57,-250 572.95,-243.52 562.36,-243.36 564.57,-250"/>
</g>
<!-- Node6&#45;&gt;Node3 -->
<g id="edge7" class="edge">
<title>Node6&#45;&gt;Node3</title>
<path fill="none" stroke="midnightblue" d="M605.36,-224.45C626.79,-196.68 688.49,-107.78 644.5,-56 614.39,-20.57 474.46,-12.97 406.6,-11.39"/>
<polygon fill="midnightblue" stroke="midnightblue" points="406.42,-7.89 396.36,-11.18 406.28,-14.88 406.42,-7.89"/>
</g>
<!-- Node7 -->
<g id="node7" class="node">
<title>Node7</title>
<g id="a_node7"><a xlink:title=" ">
<polygon fill="white" stroke="#bfbfbf" points="673.5,-168.5 673.5,-187.5 717.5,-187.5 717.5,-168.5 673.5,-168.5"/>
<text text-anchor="middle" x="695.5" y="-175.5" font-family="Helvetica,sans-Serif" font-size="10.00">string</text>
</a>
</g>
</g>
<!-- Node6&#45;&gt;Node7 -->
<g id="edge8" class="edge">
<title>Node6&#45;&gt;Node7</title>
<path fill="none" stroke="midnightblue" d="M614.08,-224.32C629.5,-215.74 653.31,-202.49 671.21,-192.52"/>
<polygon fill="midnightblue" stroke="midnightblue" points="672.92,-195.58 679.95,-187.65 669.51,-189.46 672.92,-195.58"/>
</g>
<!-- Node8 -->
<g id="node8" class="node">
<title>Node8</title>
<g id="a_node8"><a xlink:title=" ">
<polygon fill="white" stroke="#bfbfbf" points="735.5,-168.5 735.5,-187.5 791.5,-187.5 791.5,-168.5 735.5,-168.5"/>
<text text-anchor="middle" x="763.5" y="-175.5" font-family="Helvetica,sans-Serif" font-size="10.00">optional</text>
</a>
</g>
</g>
<!-- Node6&#45;&gt;Node8 -->
<g id="edge9" class="edge">
<title>Node6&#45;&gt;Node8</title>
<path fill="none" stroke="midnightblue" d="M624.64,-224.44C652.52,-215.32 696.85,-200.81 727.9,-190.65"/>
<polygon fill="midnightblue" stroke="midnightblue" points="729.06,-193.95 737.48,-187.52 726.88,-187.3 729.06,-193.95"/>
</g>
<!-- Node9 -->
<g id="node9" class="node">
<title>Node9</title>
<g id="a_node9"><a xlink:href="lib_2Ray_2sources_2Vector_2Vector2_8hpp.html" target="_top" xlink:title=" ">
<polygon fill="white" stroke="black" points="710.5,-112.5 710.5,-131.5 818.5,-131.5 818.5,-112.5 710.5,-112.5"/>
<text text-anchor="middle" x="764.5" y="-119.5" font-family="Helvetica,sans-Serif" font-size="10.00">Vector/Vector2.hpp</text>
</a>
</g>
</g>
<!-- Node6&#45;&gt;Node9 -->
<g id="edge10" class="edge">
<title>Node6&#45;&gt;Node9</title>
<path fill="none" stroke="midnightblue" d="M636.87,-230.04C689.64,-225.09 780.39,-213.09 800.5,-188 812.89,-172.54 797.46,-152.24 783.13,-138.47"/>
<polygon fill="midnightblue" stroke="midnightblue" points="785.24,-135.66 775.47,-131.56 780.55,-140.86 785.24,-135.66"/>
</g>
<!-- Node10 -->
<g id="node10" class="node">
<title>Node10</title>
<g id="a_node10"><a xlink:href="lib_2Ray_2sources_2Vector_2Vector3_8hpp.html" target="_top" xlink:title=" ">
<polygon fill="white" stroke="black" points="124.5,-112.5 124.5,-131.5 232.5,-131.5 232.5,-112.5 124.5,-112.5"/>
<text text-anchor="middle" x="178.5" y="-119.5" font-family="Helvetica,sans-Serif" font-size="10.00">Vector/Vector3.hpp</text>
</a>
</g>
</g>
<!-- Node6&#45;&gt;Node10 -->
<g id="edge12" class="edge">
<title>Node6&#45;&gt;Node10</title>
<path fill="none" stroke="midnightblue" d="M560.24,-231.43C502.41,-228.13 389.91,-218.08 299.5,-188 262.15,-175.57 222.65,-152.14 199.31,-137.07"/>
<polygon fill="midnightblue" stroke="midnightblue" points="201.19,-134.12 190.91,-131.55 197.35,-139.97 201.19,-134.12"/>
</g>
<!-- Node11 -->
<g id="node11" class="node">
<title>Node11</title>
<g id="a_node11"><a xlink:href="Keyboard_8hpp.html" target="_top" xlink:title=" ">
<polygon fill="white" stroke="black" points="847.5,-168.5 847.5,-187.5 987.5,-187.5 987.5,-168.5 847.5,-168.5"/>
<text text-anchor="middle" x="917.5" y="-175.5" font-family="Helvetica,sans-Serif" font-size="10.00">Controllers/Keyboard.hpp</text>
</a>
</g>
</g>
<!-- Node6&#45;&gt;Node11 -->
<g id="edge14" class="edge">
<title>Node6&#45;&gt;Node11</title>
<path fill="none" stroke="midnightblue" d="M636.66,-226.54C691.29,-217.29 792.33,-200.19 857.15,-189.22"/>
<polygon fill="midnightblue" stroke="midnightblue" points="857.96,-192.63 867.23,-187.51 856.79,-185.73 857.96,-192.63"/>
</g>
<!-- Node13 -->
<g id="node13" class="node">
<title>Node13</title>
<g id="a_node13"><a xlink:href="Camera2D_8hpp.html" target="_top" xlink:title=" ">
<polygon fill="white" stroke="black" points="486,-168.5 486,-187.5 617,-187.5 617,-168.5 486,-168.5"/>
<text text-anchor="middle" x="551.5" y="-175.5" font-family="Helvetica,sans-Serif" font-size="10.00">Camera/Camera2D.hpp</text>
</a>
</g>
</g>
<!-- Node6&#45;&gt;Node13 -->
<g id="edge17" class="edge">
<title>Node6&#45;&gt;Node13</title>
<path fill="none" stroke="midnightblue" d="M590.74,-224.08C583.96,-216.3 573.96,-204.8 565.74,-195.37"/>
<polygon fill="midnightblue" stroke="midnightblue" points="568.32,-193 559.12,-187.75 563.04,-197.59 568.32,-193"/>
</g>
<!-- Node16 -->
<g id="node16" class="node">
<title>Node16</title>
<g id="a_node16"><a xlink:href="Camera3D_8hpp.html" target="_top" xlink:title=" ">
<polygon fill="white" stroke="black" points="308,-168.5 308,-187.5 439,-187.5 439,-168.5 308,-168.5"/>
<text text-anchor="middle" x="373.5" y="-175.5" font-family="Helvetica,sans-Serif" font-size="10.00">Camera/Camera3D.hpp</text>
</a>
</g>
</g>
<!-- Node6&#45;&gt;Node16 -->
<g id="edge23" class="edge">
<title>Node6&#45;&gt;Node16</title>
<path fill="none" stroke="midnightblue" d="M562.85,-224.44C523.84,-215.08 461.23,-200.06 418.78,-189.87"/>
<polygon fill="midnightblue" stroke="midnightblue" points="419.53,-186.45 408.99,-187.52 417.89,-193.25 419.53,-186.45"/>
</g>
<!-- Node6&#45;&gt;Node19 -->
<g id="edge31" class="edge">
<title>Node6&#45;&gt;Node19</title>
<path fill="none" stroke="midnightblue" d="M560.36,-228.63C473.04,-218.62 259.22,-194.1 168.87,-183.74"/>
<polygon fill="midnightblue" stroke="midnightblue" points="169.07,-180.24 158.74,-182.58 168.27,-187.2 169.07,-180.24"/>
</g>
<!-- Node9&#45;&gt;Node3 -->
<g id="edge11" class="edge">
<title>Node9&#45;&gt;Node3</title>
<path fill="none" stroke="midnightblue" d="M758.16,-112.04C747.36,-97.54 723.86,-69.21 696.5,-56 645.9,-31.57 480.93,-18.16 406.51,-13.23"/>
<polygon fill="midnightblue" stroke="midnightblue" points="406.42,-9.71 396.21,-12.56 405.97,-16.7 406.42,-9.71"/>
</g>
<!-- Node10&#45;&gt;Node3 -->
<g id="edge13" class="edge">
<title>Node10&#45;&gt;Node3</title>
<path fill="none" stroke="midnightblue" d="M171.4,-112.47C161.14,-99.08 144.83,-72.89 158.5,-56 179.98,-29.45 277.91,-17.89 332.48,-13.44"/>
<polygon fill="midnightblue" stroke="midnightblue" points="333.09,-16.9 342.79,-12.64 332.55,-9.92 333.09,-16.9"/>
</g>
<!-- Node11&#45;&gt;Node3 -->
<g id="edge15" class="edge">
<title>Node11&#45;&gt;Node3</title>
<path fill="none" stroke="midnightblue" d="M917.42,-168.14C916.81,-154.29 913.6,-127.49 898.5,-112 841.49,-53.53 803.23,-73.67 723.5,-56 609.48,-30.73 471.43,-18.28 406.57,-13.47"/>
<polygon fill="midnightblue" stroke="midnightblue" points="406.66,-9.96 396.43,-12.73 406.15,-16.95 406.66,-9.96"/>
</g>
<!-- Node12 -->
<g id="node12" class="node">
<title>Node12</title>
<g id="a_node12"><a xlink:title=" ">
<polygon fill="white" stroke="#bfbfbf" points="842,-112.5 842,-131.5 889,-131.5 889,-112.5 842,-112.5"/>
<text text-anchor="middle" x="865.5" y="-119.5" font-family="Helvetica,sans-Serif" font-size="10.00">vector</text>
</a>
</g>
</g>
<!-- Node11&#45;&gt;Node12 -->
<g id="edge16" class="edge">
<title>Node11&#45;&gt;Node12</title>
<path fill="none" stroke="midnightblue" d="M908.91,-168.08C901.34,-160.22 890.12,-148.57 880.99,-139.08"/>
<polygon fill="midnightblue" stroke="midnightblue" points="883.38,-136.53 873.93,-131.75 878.34,-141.38 883.38,-136.53"/>
</g>
<!-- Node13&#45;&gt;Node3 -->
<g id="edge18" class="edge">
<title>Node13&#45;&gt;Node3</title>
<path fill="none" stroke="midnightblue" d="M574.48,-168.38C590.24,-161.18 610.12,-149.29 620.5,-132 637.93,-102.98 647.27,-81.93 625.5,-56 597.95,-23.18 470.37,-14.29 406.35,-11.89"/>
<polygon fill="midnightblue" stroke="midnightblue" points="406.39,-8.39 396.28,-11.54 406.15,-15.38 406.39,-8.39"/>
</g>
<!-- Node13&#45;&gt;Node9 -->
<g id="edge19" class="edge">
<title>Node13&#45;&gt;Node9</title>
<path fill="none" stroke="midnightblue" d="M585.25,-168.44C622.02,-159.12 680.95,-144.18 721.12,-134"/>
<polygon fill="midnightblue" stroke="midnightblue" points="722.07,-137.37 730.91,-131.52 720.35,-130.58 722.07,-137.37"/>
</g>
<!-- Node14 -->
<g id="node14" class="node">
<title>Node14</title>
<g id="a_node14"><a xlink:href="ICamera_8hpp.html" target="_top" xlink:title=" ">
<polygon fill="white" stroke="black" points="491.5,-112.5 491.5,-131.5 611.5,-131.5 611.5,-112.5 491.5,-112.5"/>
<text text-anchor="middle" x="551.5" y="-119.5" font-family="Helvetica,sans-Serif" font-size="10.00">Camera/ICamera.hpp</text>
</a>
</g>
</g>
<!-- Node13&#45;&gt;Node14 -->
<g id="edge20" class="edge">
<title>Node13&#45;&gt;Node14</title>
<path fill="none" stroke="midnightblue" d="M551.5,-168.08C551.5,-161.01 551.5,-150.86 551.5,-141.99"/>
<polygon fill="midnightblue" stroke="midnightblue" points="555,-141.75 551.5,-131.75 548,-141.75 555,-141.75"/>
</g>
<!-- Node15 -->
<g id="node15" class="node">
<title>Node15</title>
<g id="a_node15"><a xlink:href="Matrix_8hpp.html" target="_top" xlink:title=" ">
<polygon fill="white" stroke="black" points="547,-56.5 547,-75.5 616,-75.5 616,-56.5 547,-56.5"/>
<text text-anchor="middle" x="581.5" y="-63.5" font-family="Helvetica,sans-Serif" font-size="10.00">Matrix.hpp</text>
</a>
</g>
</g>
<!-- Node14&#45;&gt;Node15 -->
<g id="edge21" class="edge">
<title>Node14&#45;&gt;Node15</title>
<path fill="none" stroke="midnightblue" d="M556.45,-112.08C560.6,-104.61 566.65,-93.72 571.77,-84.52"/>
<polygon fill="midnightblue" stroke="midnightblue" points="574.84,-86.19 576.64,-75.75 568.72,-82.79 574.84,-86.19"/>
</g>
<!-- Node15&#45;&gt;Node3 -->
<g id="edge22" class="edge">
<title>Node15&#45;&gt;Node3</title>
<path fill="none" stroke="midnightblue" d="M547.91,-56.44C509.24,-46.59 445.95,-30.47 406.07,-20.32"/>
<polygon fill="midnightblue" stroke="midnightblue" points="406.78,-16.88 396.22,-17.81 405.05,-23.67 406.78,-16.88"/>
</g>
<!-- Node16&#45;&gt;Node3 -->
<g id="edge24" class="edge">
<title>Node16&#45;&gt;Node3</title>
<path fill="none" stroke="midnightblue" d="M355.83,-168.47C311.95,-147.13 200.9,-91.96 191.5,-76 186.99,-68.34 186.04,-63.01 191.5,-56 208.66,-33.96 285.74,-21.01 332.66,-15.03"/>
<polygon fill="midnightblue" stroke="midnightblue" points="333.25,-18.48 342.75,-13.79 332.4,-11.54 333.25,-18.48"/>
</g>
<!-- Node16&#45;&gt;Node10 -->
<g id="edge25" class="edge">
<title>Node16&#45;&gt;Node10</title>
<path fill="none" stroke="midnightblue" d="M342.6,-168.44C309.23,-159.2 255.91,-144.44 219.15,-134.26"/>
<polygon fill="midnightblue" stroke="midnightblue" points="219.83,-130.81 209.25,-131.52 217.96,-137.56 219.83,-130.81"/>
</g>
<!-- Node16&#45;&gt;Node14 -->
<g id="edge26" class="edge">
<title>Node16&#45;&gt;Node14</title>
<path fill="none" stroke="midnightblue" d="M401.7,-168.44C431.91,-159.28 480.01,-144.69 513.53,-134.52"/>
<polygon fill="midnightblue" stroke="midnightblue" points="514.87,-137.77 523.43,-131.52 512.84,-131.07 514.87,-137.77"/>
</g>
<!-- Node17 -->
<g id="node17" class="node">
<title>Node17</title>
<g id="a_node17"><a xlink:href="CameraProjection_8hpp.html" target="_top" xlink:title=" ">
<polygon fill="white" stroke="black" points="200.5,-56.5 200.5,-75.5 366.5,-75.5 366.5,-56.5 200.5,-56.5"/>
<text text-anchor="middle" x="283.5" y="-63.5" font-family="Helvetica,sans-Serif" font-size="10.00">Camera/CameraProjection.hpp</text>
</a>
</g>
</g>
<!-- Node16&#45;&gt;Node17 -->
<g id="edge27" class="edge">
<title>Node16&#45;&gt;Node17</title>
<path fill="none" stroke="midnightblue" d="M366.44,-168.37C351.45,-150.05 316.27,-107.05 296.89,-83.36"/>
<polygon fill="midnightblue" stroke="midnightblue" points="299.57,-81.11 290.53,-75.59 294.15,-85.55 299.57,-81.11"/>
</g>
<!-- Node18 -->
<g id="node18" class="node">
<title>Node18</title>
<g id="a_node18"><a xlink:href="CameraMode_8hpp.html" target="_top" xlink:title=" ">
<polygon fill="white" stroke="black" points="384.5,-56.5 384.5,-75.5 528.5,-75.5 528.5,-56.5 384.5,-56.5"/>
<text text-anchor="middle" x="456.5" y="-63.5" font-family="Helvetica,sans-Serif" font-size="10.00">Camera/CameraMode.hpp</text>
</a>
</g>
</g>
<!-- Node16&#45;&gt;Node18 -->
<g id="edge29" class="edge">
<title>Node16&#45;&gt;Node18</title>
<path fill="none" stroke="midnightblue" d="M380.01,-168.37C393.77,-150.14 426,-107.43 443.92,-83.68"/>
<polygon fill="midnightblue" stroke="midnightblue" points="446.79,-85.68 450.02,-75.59 441.2,-81.47 446.79,-85.68"/>
</g>
<!-- Node17&#45;&gt;Node3 -->
<g id="edge28" class="edge">
<title>Node17&#45;&gt;Node3</title>
<path fill="none" stroke="midnightblue" d="M297.32,-56.32C310.73,-47.9 331.32,-34.97 347.09,-25.07"/>
<polygon fill="midnightblue" stroke="midnightblue" points="349.11,-27.94 355.72,-19.65 345.39,-22.01 349.11,-27.94"/>
</g>
<!-- Node18&#45;&gt;Node3 -->
<g id="edge30" class="edge">
<title>Node18&#45;&gt;Node3</title>
<path fill="none" stroke="midnightblue" d="M442.52,-56.32C428.95,-47.9 408.12,-34.97 392.18,-25.07"/>
<polygon fill="midnightblue" stroke="midnightblue" points="393.79,-21.95 383.44,-19.65 390.09,-27.9 393.79,-21.95"/>
</g>
<!-- Node19&#45;&gt;Node3 -->
<g id="edge32" class="edge">
<title>Node19&#45;&gt;Node3</title>
<path fill="none" stroke="midnightblue" d="M124.41,-168.17C121.45,-159.2 117.18,-144.83 115.5,-132 110.72,-95.49 118.52,-77.38 148.5,-56 177.62,-35.23 277.76,-21.18 332.7,-14.84"/>
<polygon fill="midnightblue" stroke="midnightblue" points="333.19,-18.31 342.73,-13.71 332.4,-11.36 333.19,-18.31"/>
</g>
</g>
</svg>
