<?xml version="1.0" encoding="UTF-8" standalone="no"?>
<!DOCTYPE svg PUBLIC "-//W3C//DTD SVG 1.1//EN"
 "http://www.w3.org/Graphics/SVG/1.1/DTD/svg11.dtd">
<!-- Generated by graphviz version 2.43.0 (0)
 -->
<!-- Title: lib/Ray/sources/Drawables/ADrawable3D.cpp Pages: 1 -->
<svg width="969pt" height="431pt"
 viewBox="0.00 0.00 969.00 431.00" xmlns="http://www.w3.org/2000/svg" xmlns:xlink="http://www.w3.org/1999/xlink">
<g id="graph0" class="graph" transform="scale(1 1) rotate(0) translate(4 427)">
<title>lib/Ray/sources/Drawables/ADrawable3D.cpp</title>
<polygon fill="white" stroke="transparent" points="-4,4 -4,-427 965,-427 965,4 -4,4"/>
<!-- Node1 -->
<g id="node1" class="node">
<title>Node1</title>
<g id="a_node1"><a xlink:title=" ">
<polygon fill="#bfbfbf" stroke="black" points="504,-392.5 504,-422.5 650,-422.5 650,-392.5 504,-392.5"/>
<text text-anchor="start" x="512" y="-410.5" font-family="Helvetica,sans-Serif" font-size="10.00">lib/Ray/sources/Drawables</text>
<text text-anchor="middle" x="577" y="-399.5" font-family="Helvetica,sans-Serif" font-size="10.00">/ADrawable3D.cpp</text>
</a>
</g>
</g>
<!-- Node2 -->
<g id="node2" class="node">
<title>Node2</title>
<g id="a_node2"><a xlink:href="ADrawable3D_8hpp.html" target="_top" xlink:title=" ">
<polygon fill="white" stroke="black" points="497.5,-336.5 497.5,-355.5 656.5,-355.5 656.5,-336.5 497.5,-336.5"/>
<text text-anchor="middle" x="577" y="-343.5" font-family="Helvetica,sans-Serif" font-size="10.00">Drawables/ADrawable3D.hpp</text>
</a>
</g>
</g>
<!-- Node1&#45;&gt;Node2 -->
<g id="edge1" class="edge">
<title>Node1&#45;&gt;Node2</title>
<path fill="none" stroke="midnightblue" d="M577,-392.4C577,-384.47 577,-374.46 577,-365.86"/>
<polygon fill="midnightblue" stroke="midnightblue" points="580.5,-365.66 577,-355.66 573.5,-365.66 580.5,-365.66"/>
</g>
<!-- Node3 -->
<g id="node3" class="node">
<title>Node3</title>
<g id="a_node3"><a xlink:title=" ">
<polygon fill="white" stroke="#bfbfbf" points="366.5,-0.5 366.5,-19.5 419.5,-19.5 419.5,-0.5 366.5,-0.5"/>
<text text-anchor="middle" x="393" y="-7.5" font-family="Helvetica,sans-Serif" font-size="10.00">raylib.h</text>
</a>
</g>
</g>
<!-- Node2&#45;&gt;Node3 -->
<g id="edge2" class="edge">
<title>Node2&#45;&gt;Node3</title>
<path fill="none" stroke="midnightblue" d="M497.38,-338C339.09,-323 0,-285.03 0,-235 0,-235 0,-235 0,-121 0,-47.43 258.65,-20.83 356.29,-13.41"/>
<polygon fill="midnightblue" stroke="midnightblue" points="356.58,-16.9 366.3,-12.68 356.07,-9.92 356.58,-16.9"/>
</g>
<!-- Node4 -->
<g id="node4" class="node">
<title>Node4</title>
<g id="a_node4"><a xlink:href="IDrawable_8hpp.html" target="_top" xlink:title=" ">
<polygon fill="white" stroke="black" points="506,-280.5 506,-299.5 648,-299.5 648,-280.5 506,-280.5"/>
<text text-anchor="middle" x="577" y="-287.5" font-family="Helvetica,sans-Serif" font-size="10.00">Drawables/IDrawable.hpp</text>
</a>
</g>
</g>
<!-- Node2&#45;&gt;Node4 -->
<g id="edge3" class="edge">
<title>Node2&#45;&gt;Node4</title>
<path fill="none" stroke="midnightblue" d="M577,-336.08C577,-329.01 577,-318.86 577,-309.99"/>
<polygon fill="midnightblue" stroke="midnightblue" points="580.5,-309.75 577,-299.75 573.5,-309.75 580.5,-309.75"/>
</g>
<!-- Node18 -->
<g id="node18" class="node">
<title>Node18</title>
<g id="a_node18"><a xlink:href="Color_8hpp.html" target="_top" xlink:title=" ">
<polygon fill="white" stroke="black" points="899,-168.5 899,-187.5 961,-187.5 961,-168.5 899,-168.5"/>
<text text-anchor="middle" x="930" y="-175.5" font-family="Helvetica,sans-Serif" font-size="10.00">Color.hpp</text>
</a>
</g>
</g>
<!-- Node2&#45;&gt;Node18 -->
<g id="edge31" class="edge">
<title>Node2&#45;&gt;Node18</title>
<path fill="none" stroke="midnightblue" d="M595.48,-336.31C653.62,-308.97 833.03,-224.6 902.31,-192.02"/>
<polygon fill="midnightblue" stroke="midnightblue" points="904.14,-195.03 911.7,-187.61 901.16,-188.69 904.14,-195.03"/>
</g>
<!-- Node5 -->
<g id="node5" class="node">
<title>Node5</title>
<g id="a_node5"><a xlink:href="Window_8hpp.html" target="_top" xlink:title=" ">
<polygon fill="white" stroke="black" points="539,-224.5 539,-243.5 615,-243.5 615,-224.5 539,-224.5"/>
<text text-anchor="middle" x="577" y="-231.5" font-family="Helvetica,sans-Serif" font-size="10.00">Window.hpp</text>
</a>
</g>
</g>
<!-- Node4&#45;&gt;Node5 -->
<g id="edge4" class="edge">
<title>Node4&#45;&gt;Node5</title>
<path fill="none" stroke="midnightblue" d="M577,-280.08C577,-273.01 577,-262.86 577,-253.99"/>
<polygon fill="midnightblue" stroke="midnightblue" points="580.5,-253.75 577,-243.75 573.5,-253.75 580.5,-253.75"/>
</g>
<!-- Node5&#45;&gt;Node3 -->
<g id="edge5" class="edge">
<title>Node5&#45;&gt;Node3</title>
<path fill="none" stroke="midnightblue" d="M577.48,-224.49C578.63,-211.12 582.58,-184.96 596,-168 650.31,-99.36 815.98,-121.57 758,-56 736.46,-31.64 518.06,-17.55 429.76,-12.82"/>
<polygon fill="midnightblue" stroke="midnightblue" points="429.82,-9.31 419.65,-12.28 429.46,-16.31 429.82,-9.31"/>
</g>
<!-- Node6 -->
<g id="node6" class="node">
<title>Node6</title>
<g id="a_node6"><a xlink:title=" ">
<polygon fill="white" stroke="#bfbfbf" points="605,-168.5 605,-187.5 649,-187.5 649,-168.5 605,-168.5"/>
<text text-anchor="middle" x="627" y="-175.5" font-family="Helvetica,sans-Serif" font-size="10.00">string</text>
</a>
</g>
</g>
<!-- Node5&#45;&gt;Node6 -->
<g id="edge6" class="edge">
<title>Node5&#45;&gt;Node6</title>
<path fill="none" stroke="midnightblue" d="M585.26,-224.08C592.46,-216.3 603.11,-204.8 611.85,-195.37"/>
<polygon fill="midnightblue" stroke="midnightblue" points="614.67,-197.47 618.9,-187.75 609.53,-192.71 614.67,-197.47"/>
</g>
<!-- Node7 -->
<g id="node7" class="node">
<title>Node7</title>
<g id="a_node7"><a xlink:title=" ">
<polygon fill="white" stroke="#bfbfbf" points="667,-168.5 667,-187.5 723,-187.5 723,-168.5 667,-168.5"/>
<text text-anchor="middle" x="695" y="-175.5" font-family="Helvetica,sans-Serif" font-size="10.00">optional</text>
</a>
</g>
</g>
<!-- Node5&#45;&gt;Node7 -->
<g id="edge7" class="edge">
<title>Node5&#45;&gt;Node7</title>
<path fill="none" stroke="midnightblue" d="M595.7,-224.44C614.94,-215.64 645.15,-201.81 667.2,-191.72"/>
<polygon fill="midnightblue" stroke="midnightblue" points="668.75,-194.86 676.39,-187.52 665.84,-188.5 668.75,-194.86"/>
</g>
<!-- Node8 -->
<g id="node8" class="node">
<title>Node8</title>
<g id="a_node8"><a xlink:href="lib_2Ray_2sources_2Vector_2Vector2_8hpp.html" target="_top" xlink:title=" ">
<polygon fill="white" stroke="black" points="28,-112.5 28,-131.5 136,-131.5 136,-112.5 28,-112.5"/>
<text text-anchor="middle" x="82" y="-119.5" font-family="Helvetica,sans-Serif" font-size="10.00">Vector/Vector2.hpp</text>
</a>
</g>
</g>
<!-- Node5&#45;&gt;Node8 -->
<g id="edge8" class="edge">
<title>Node5&#45;&gt;Node8</title>
<path fill="none" stroke="midnightblue" d="M538.89,-231.9C473.34,-229.18 335.54,-219.84 224,-188 180.39,-175.55 133.14,-151.62 105.63,-136.52"/>
<polygon fill="midnightblue" stroke="midnightblue" points="107.2,-133.39 96.76,-131.59 103.8,-139.51 107.2,-133.39"/>
</g>
<!-- Node9 -->
<g id="node9" class="node">
<title>Node9</title>
<g id="a_node9"><a xlink:href="lib_2Ray_2sources_2Vector_2Vector3_8hpp.html" target="_top" xlink:title=" ">
<polygon fill="white" stroke="black" points="154,-112.5 154,-131.5 262,-131.5 262,-112.5 154,-112.5"/>
<text text-anchor="middle" x="208" y="-119.5" font-family="Helvetica,sans-Serif" font-size="10.00">Vector/Vector3.hpp</text>
</a>
</g>
</g>
<!-- Node5&#45;&gt;Node9 -->
<g id="edge10" class="edge">
<title>Node5&#45;&gt;Node9</title>
<path fill="none" stroke="midnightblue" d="M538.77,-231.94C462.19,-229.17 293.27,-219.55 246,-188 229.73,-177.14 219.49,-156.76 213.8,-141.7"/>
<polygon fill="midnightblue" stroke="midnightblue" points="216.99,-140.22 210.43,-131.89 210.37,-142.49 216.99,-140.22"/>
</g>
<!-- Node10 -->
<g id="node10" class="node">
<title>Node10</title>
<g id="a_node10"><a xlink:href="Keyboard_8hpp.html" target="_top" xlink:title=" ">
<polygon fill="white" stroke="black" points="741,-168.5 741,-187.5 881,-187.5 881,-168.5 741,-168.5"/>
<text text-anchor="middle" x="811" y="-175.5" font-family="Helvetica,sans-Serif" font-size="10.00">Controllers/Keyboard.hpp</text>
</a>
</g>
</g>
<!-- Node5&#45;&gt;Node10 -->
<g id="edge12" class="edge">
<title>Node5&#45;&gt;Node10</title>
<path fill="none" stroke="midnightblue" d="M614.08,-224.44C654.73,-215.06 720.03,-199.99 764.18,-189.8"/>
<polygon fill="midnightblue" stroke="midnightblue" points="765.14,-193.18 774.1,-187.52 763.56,-186.35 765.14,-193.18"/>
</g>
<!-- Node12 -->
<g id="node12" class="node">
<title>Node12</title>
<g id="a_node12"><a xlink:href="Camera2D_8hpp.html" target="_top" xlink:title=" ">
<polygon fill="white" stroke="black" points="255.5,-168.5 255.5,-187.5 386.5,-187.5 386.5,-168.5 255.5,-168.5"/>
<text text-anchor="middle" x="321" y="-175.5" font-family="Helvetica,sans-Serif" font-size="10.00">Camera/Camera2D.hpp</text>
</a>
</g>
</g>
<!-- Node5&#45;&gt;Node12 -->
<g id="edge15" class="edge">
<title>Node5&#45;&gt;Node12</title>
<path fill="none" stroke="midnightblue" d="M538.95,-224.97C494.39,-215.57 420.41,-199.97 371.18,-189.58"/>
<polygon fill="midnightblue" stroke="midnightblue" points="371.88,-186.16 361.37,-187.52 370.44,-193 371.88,-186.16"/>
</g>
<!-- Node15 -->
<g id="node15" class="node">
<title>Node15</title>
<g id="a_node15"><a xlink:href="Camera3D_8hpp.html" target="_top" xlink:title=" ">
<polygon fill="white" stroke="black" points="414.5,-168.5 414.5,-187.5 545.5,-187.5 545.5,-168.5 414.5,-168.5"/>
<text text-anchor="middle" x="480" y="-175.5" font-family="Helvetica,sans-Serif" font-size="10.00">Camera/Camera3D.hpp</text>
</a>
</g>
</g>
<!-- Node5&#45;&gt;Node15 -->
<g id="edge21" class="edge">
<title>Node5&#45;&gt;Node15</title>
<path fill="none" stroke="midnightblue" d="M561.42,-224.32C546,-215.74 522.19,-202.49 504.29,-192.52"/>
<polygon fill="midnightblue" stroke="midnightblue" points="505.99,-189.46 495.55,-187.65 502.58,-195.58 505.99,-189.46"/>
</g>
<!-- Node5&#45;&gt;Node18 -->
<g id="edge29" class="edge">
<title>Node5&#45;&gt;Node18</title>
<path fill="none" stroke="midnightblue" d="M615.22,-228.49C672.5,-221.51 784.2,-207.08 888.53,-188.15"/>
<polygon fill="midnightblue" stroke="midnightblue" points="889.4,-191.55 898.6,-186.31 888.14,-184.67 889.4,-191.55"/>
</g>
<!-- Node8&#45;&gt;Node3 -->
<g id="edge9" class="edge">
<title>Node8&#45;&gt;Node3</title>
<path fill="none" stroke="midnightblue" d="M99.44,-112.35C126.78,-99.03 181.61,-73.2 230,-56 272.74,-40.8 323.27,-27.56 356.61,-19.44"/>
<polygon fill="midnightblue" stroke="midnightblue" points="357.48,-22.84 366.38,-17.09 355.84,-16.03 357.48,-22.84"/>
</g>
<!-- Node9&#45;&gt;Node3 -->
<g id="edge11" class="edge">
<title>Node9&#45;&gt;Node3</title>
<path fill="none" stroke="midnightblue" d="M211.65,-112.49C218.03,-98.63 232.49,-71.21 253,-56 283.63,-33.28 326.19,-21.75 356.32,-16.09"/>
<polygon fill="midnightblue" stroke="midnightblue" points="357.17,-19.5 366.42,-14.33 355.97,-12.6 357.17,-19.5"/>
</g>
<!-- Node10&#45;&gt;Node3 -->
<g id="edge13" class="edge">
<title>Node10&#45;&gt;Node3</title>
<path fill="none" stroke="midnightblue" d="M812.65,-168.41C816.37,-146.15 822.8,-86.21 791,-56 765.06,-31.36 523.57,-17.25 429.89,-12.67"/>
<polygon fill="midnightblue" stroke="midnightblue" points="429.9,-9.16 419.74,-12.18 429.56,-16.16 429.9,-9.16"/>
</g>
<!-- Node11 -->
<g id="node11" class="node">
<title>Node11</title>
<g id="a_node11"><a xlink:title=" ">
<polygon fill="white" stroke="#bfbfbf" points="843.5,-112.5 843.5,-131.5 890.5,-131.5 890.5,-112.5 843.5,-112.5"/>
<text text-anchor="middle" x="867" y="-119.5" font-family="Helvetica,sans-Serif" font-size="10.00">vector</text>
</a>
</g>
</g>
<!-- Node10&#45;&gt;Node11 -->
<g id="edge14" class="edge">
<title>Node10&#45;&gt;Node11</title>
<path fill="none" stroke="midnightblue" d="M820,-168.32C828.19,-160.42 840.51,-148.55 850.47,-138.94"/>
<polygon fill="midnightblue" stroke="midnightblue" points="853.07,-141.29 857.84,-131.83 848.21,-136.26 853.07,-141.29"/>
</g>
<!-- Node12&#45;&gt;Node3 -->
<g id="edge16" class="edge">
<title>Node12&#45;&gt;Node3</title>
<path fill="none" stroke="midnightblue" d="M313.96,-168.34C297.84,-147.4 261.44,-92.98 286,-56 301.51,-32.65 331.77,-21.39 356.16,-15.97"/>
<polygon fill="midnightblue" stroke="midnightblue" points="357.06,-19.36 366.19,-13.99 355.7,-12.49 357.06,-19.36"/>
</g>
<!-- Node12&#45;&gt;Node8 -->
<g id="edge17" class="edge">
<title>Node12&#45;&gt;Node8</title>
<path fill="none" stroke="midnightblue" d="M283.13,-168.44C241.52,-159.04 174.63,-143.93 129.53,-133.74"/>
<polygon fill="midnightblue" stroke="midnightblue" points="130.22,-130.31 119.69,-131.52 128.68,-137.13 130.22,-130.31"/>
</g>
<!-- Node13 -->
<g id="node13" class="node">
<title>Node13</title>
<g id="a_node13"><a xlink:href="ICamera_8hpp.html" target="_top" xlink:title=" ">
<polygon fill="white" stroke="black" points="318,-112.5 318,-131.5 438,-131.5 438,-112.5 318,-112.5"/>
<text text-anchor="middle" x="378" y="-119.5" font-family="Helvetica,sans-Serif" font-size="10.00">Camera/ICamera.hpp</text>
</a>
</g>
</g>
<!-- Node12&#45;&gt;Node13 -->
<g id="edge18" class="edge">
<title>Node12&#45;&gt;Node13</title>
<path fill="none" stroke="midnightblue" d="M330.16,-168.32C338.5,-160.42 351.03,-148.55 361.18,-138.94"/>
<polygon fill="midnightblue" stroke="midnightblue" points="363.82,-141.25 368.68,-131.83 359.01,-136.17 363.82,-141.25"/>
</g>
<!-- Node14 -->
<g id="node14" class="node">
<title>Node14</title>
<g id="a_node14"><a xlink:href="Matrix_8hpp.html" target="_top" xlink:title=" ">
<polygon fill="white" stroke="black" points="295.5,-56.5 295.5,-75.5 364.5,-75.5 364.5,-56.5 295.5,-56.5"/>
<text text-anchor="middle" x="330" y="-63.5" font-family="Helvetica,sans-Serif" font-size="10.00">Matrix.hpp</text>
</a>
</g>
</g>
<!-- Node13&#45;&gt;Node14 -->
<g id="edge19" class="edge">
<title>Node13&#45;&gt;Node14</title>
<path fill="none" stroke="midnightblue" d="M370.07,-112.08C363.15,-104.3 352.93,-92.8 344.55,-83.37"/>
<polygon fill="midnightblue" stroke="midnightblue" points="347.04,-80.9 337.78,-75.75 341.81,-85.55 347.04,-80.9"/>
</g>
<!-- Node14&#45;&gt;Node3 -->
<g id="edge20" class="edge">
<title>Node14&#45;&gt;Node3</title>
<path fill="none" stroke="midnightblue" d="M340.12,-56.32C349.53,-48.26 363.74,-36.08 375.07,-26.37"/>
<polygon fill="midnightblue" stroke="midnightblue" points="377.38,-29 382.69,-19.83 372.82,-23.68 377.38,-29"/>
</g>
<!-- Node15&#45;&gt;Node3 -->
<g id="edge22" class="edge">
<title>Node15&#45;&gt;Node3</title>
<path fill="none" stroke="midnightblue" d="M476.5,-168.12C471.18,-155.14 460.25,-130.53 447,-112 434.02,-93.85 423.24,-95.28 412,-76 403.58,-61.56 398.65,-43.11 395.93,-29.56"/>
<polygon fill="midnightblue" stroke="midnightblue" points="399.35,-28.75 394.14,-19.52 392.45,-29.98 399.35,-28.75"/>
</g>
<!-- Node15&#45;&gt;Node9 -->
<g id="edge23" class="edge">
<title>Node15&#45;&gt;Node9</title>
<path fill="none" stroke="midnightblue" d="M436.9,-168.44C389.15,-158.96 312.14,-143.67 260.81,-133.48"/>
<polygon fill="midnightblue" stroke="midnightblue" points="261.39,-130.03 250.9,-131.52 260.02,-136.9 261.39,-130.03"/>
</g>
<!-- Node15&#45;&gt;Node13 -->
<g id="edge24" class="edge">
<title>Node15&#45;&gt;Node13</title>
<path fill="none" stroke="midnightblue" d="M463.61,-168.32C447.33,-159.7 422.13,-146.36 403.28,-136.39"/>
<polygon fill="midnightblue" stroke="midnightblue" points="404.82,-133.24 394.35,-131.65 401.55,-139.43 404.82,-133.24"/>
</g>
<!-- Node16 -->
<g id="node16" class="node">
<title>Node16</title>
<g id="a_node16"><a xlink:href="CameraProjection_8hpp.html" target="_top" xlink:title=" ">
<polygon fill="white" stroke="black" points="421,-56.5 421,-75.5 587,-75.5 587,-56.5 421,-56.5"/>
<text text-anchor="middle" x="504" y="-63.5" font-family="Helvetica,sans-Serif" font-size="10.00">Camera/CameraProjection.hpp</text>
</a>
</g>
</g>
<!-- Node15&#45;&gt;Node16 -->
<g id="edge25" class="edge">
<title>Node15&#45;&gt;Node16</title>
<path fill="none" stroke="midnightblue" d="M481.88,-168.37C485.76,-150.62 494.69,-109.67 499.94,-85.6"/>
<polygon fill="midnightblue" stroke="midnightblue" points="503.41,-86.11 502.13,-75.59 496.57,-84.62 503.41,-86.11"/>
</g>
<!-- Node17 -->
<g id="node17" class="node">
<title>Node17</title>
<g id="a_node17"><a xlink:href="CameraMode_8hpp.html" target="_top" xlink:title=" ">
<polygon fill="white" stroke="black" points="605,-56.5 605,-75.5 749,-75.5 749,-56.5 605,-56.5"/>
<text text-anchor="middle" x="677" y="-63.5" font-family="Helvetica,sans-Serif" font-size="10.00">Camera/CameraMode.hpp</text>
</a>
</g>
</g>
<!-- Node15&#45;&gt;Node17 -->
<g id="edge27" class="edge">
<title>Node15&#45;&gt;Node17</title>
<path fill="none" stroke="midnightblue" d="M495.46,-168.37C529.62,-149.29 611.77,-103.42 652.81,-80.51"/>
<polygon fill="midnightblue" stroke="midnightblue" points="654.59,-83.52 661.61,-75.59 651.18,-77.41 654.59,-83.52"/>
</g>
<!-- Node16&#45;&gt;Node3 -->
<g id="edge26" class="edge">
<title>Node16&#45;&gt;Node3</title>
<path fill="none" stroke="midnightblue" d="M486.17,-56.32C468.28,-47.62 440.52,-34.12 419.95,-24.11"/>
<polygon fill="midnightblue" stroke="midnightblue" points="421.31,-20.88 410.79,-19.65 418.25,-27.18 421.31,-20.88"/>
</g>
<!-- Node17&#45;&gt;Node3 -->
<g id="edge28" class="edge">
<title>Node17&#45;&gt;Node3</title>
<path fill="none" stroke="midnightblue" d="M632,-56.44C576.1,-45.82 481.8,-27.88 429.93,-18.02"/>
<polygon fill="midnightblue" stroke="midnightblue" points="430.32,-14.53 419.84,-16.1 429.01,-21.41 430.32,-14.53"/>
</g>
<!-- Node18&#45;&gt;Node3 -->
<g id="edge30" class="edge">
<title>Node18&#45;&gt;Node3</title>
<path fill="none" stroke="midnightblue" d="M927.67,-168.11C923.79,-154.68 914.93,-128.99 900,-112 869.16,-76.89 855.15,-71.34 811,-56 740.86,-31.63 518.14,-17.57 429.71,-12.83"/>
<polygon fill="midnightblue" stroke="midnightblue" points="429.78,-9.33 419.61,-12.3 429.41,-16.32 429.78,-9.33"/>
</g>
</g>
</svg>
