<?xml version="1.0" encoding="UTF-8" standalone="no"?>
<!DOCTYPE svg PUBLIC "-//W3C//DTD SVG 1.1//EN"
 "http://www.w3.org/Graphics/SVG/1.1/DTD/svg11.dtd">
<!-- Generated by graphviz version 2.43.0 (0)
 -->
<!-- Title: lib/Ray/sources/Drawables/ADrawable2D.hpp Pages: 1 -->
<svg width="887pt" height="375pt"
 viewBox="0.00 0.00 887.00 375.00" xmlns="http://www.w3.org/2000/svg" xmlns:xlink="http://www.w3.org/1999/xlink">
<g id="graph0" class="graph" transform="scale(1 1) rotate(0) translate(4 371)">
<title>lib/Ray/sources/Drawables/ADrawable2D.hpp</title>
<polygon fill="white" stroke="transparent" points="-4,4 -4,-371 883,-371 883,4 -4,4"/>
<!-- Node1 -->
<g id="node1" class="node">
<title>Node1</title>
<g id="a_node1"><a xlink:title=" ">
<polygon fill="#bfbfbf" stroke="black" points="186,-336.5 186,-366.5 332,-366.5 332,-336.5 186,-336.5"/>
<text text-anchor="start" x="194" y="-354.5" font-family="Helvetica,sans-Serif" font-size="10.00">lib/Ray/sources/Drawables</text>
<text text-anchor="middle" x="259" y="-343.5" font-family="Helvetica,sans-Serif" font-size="10.00">/ADrawable2D.hpp</text>
</a>
</g>
</g>
<!-- Node2 -->
<g id="node2" class="node">
<title>Node2</title>
<g id="a_node2"><a xlink:title=" ">
<polygon fill="white" stroke="#bfbfbf" points="374.5,-0.5 374.5,-19.5 427.5,-19.5 427.5,-0.5 374.5,-0.5"/>
<text text-anchor="middle" x="401" y="-7.5" font-family="Helvetica,sans-Serif" font-size="10.00">raylib.h</text>
</a>
</g>
</g>
<!-- Node1&#45;&gt;Node2 -->
<g id="edge1" class="edge">
<title>Node1&#45;&gt;Node2</title>
<path fill="none" stroke="midnightblue" d="M185.82,-348.05C109.23,-341.1 0,-316.85 0,-235 0,-235 0,-235 0,-121 0,-45.86 265.14,-20.19 364.23,-13.22"/>
<polygon fill="midnightblue" stroke="midnightblue" points="364.64,-16.7 374.38,-12.53 364.16,-9.71 364.64,-16.7"/>
</g>
<!-- Node3 -->
<g id="node3" class="node">
<title>Node3</title>
<g id="a_node3"><a xlink:href="lib_2Ray_2sources_2Vector_2Vector2_8hpp.html" target="_top" xlink:title=" ">
<polygon fill="white" stroke="black" points="28,-112.5 28,-131.5 136,-131.5 136,-112.5 28,-112.5"/>
<text text-anchor="middle" x="82" y="-119.5" font-family="Helvetica,sans-Serif" font-size="10.00">Vector/Vector2.hpp</text>
</a>
</g>
</g>
<!-- Node1&#45;&gt;Node3 -->
<g id="edge2" class="edge">
<title>Node1&#45;&gt;Node3</title>
<path fill="none" stroke="midnightblue" d="M242.94,-336.19C213.64,-309.43 150.89,-249 111,-188 101.39,-173.31 93.52,-154.91 88.41,-141.44"/>
<polygon fill="midnightblue" stroke="midnightblue" points="91.64,-140.07 84.93,-131.86 85.06,-142.46 91.64,-140.07"/>
</g>
<!-- Node4 -->
<g id="node4" class="node">
<title>Node4</title>
<g id="a_node4"><a xlink:href="IDrawable_8hpp.html" target="_top" xlink:title=" ">
<polygon fill="white" stroke="black" points="371,-280.5 371,-299.5 513,-299.5 513,-280.5 371,-280.5"/>
<text text-anchor="middle" x="442" y="-287.5" font-family="Helvetica,sans-Serif" font-size="10.00">Drawables/IDrawable.hpp</text>
</a>
</g>
</g>
<!-- Node1&#45;&gt;Node4 -->
<g id="edge4" class="edge">
<title>Node1&#45;&gt;Node4</title>
<path fill="none" stroke="midnightblue" d="M302.37,-336.4C333.99,-326.12 376.33,-312.35 406.07,-302.68"/>
<polygon fill="midnightblue" stroke="midnightblue" points="407.21,-305.99 415.64,-299.57 405.05,-299.33 407.21,-305.99"/>
</g>
<!-- Node17 -->
<g id="node17" class="node">
<title>Node17</title>
<g id="a_node17"><a xlink:href="Color_8hpp.html" target="_top" xlink:title=" ">
<polygon fill="white" stroke="black" points="817,-168.5 817,-187.5 879,-187.5 879,-168.5 817,-168.5"/>
<text text-anchor="middle" x="848" y="-175.5" font-family="Helvetica,sans-Serif" font-size="10.00">Color.hpp</text>
</a>
</g>
</g>
<!-- Node1&#45;&gt;Node17 -->
<g id="edge31" class="edge">
<title>Node1&#45;&gt;Node17</title>
<path fill="none" stroke="midnightblue" d="M332.03,-339.81C385.23,-331.22 458.75,-317.68 522,-300 634.44,-268.57 763.04,-215.58 819.21,-191.53"/>
<polygon fill="midnightblue" stroke="midnightblue" points="820.73,-194.69 828.53,-187.53 817.96,-188.26 820.73,-194.69"/>
</g>
<!-- Node3&#45;&gt;Node2 -->
<g id="edge3" class="edge">
<title>Node3&#45;&gt;Node2</title>
<path fill="none" stroke="midnightblue" d="M88.4,-112.16C99.29,-97.84 122.92,-69.76 150,-56 219.83,-20.52 313.02,-12.59 363.93,-11.07"/>
<polygon fill="midnightblue" stroke="midnightblue" points="364.21,-14.57 374.13,-10.84 364.05,-7.57 364.21,-14.57"/>
</g>
<!-- Node5 -->
<g id="node5" class="node">
<title>Node5</title>
<g id="a_node5"><a xlink:href="Window_8hpp.html" target="_top" xlink:title=" ">
<polygon fill="white" stroke="black" points="465,-224.5 465,-243.5 541,-243.5 541,-224.5 465,-224.5"/>
<text text-anchor="middle" x="503" y="-231.5" font-family="Helvetica,sans-Serif" font-size="10.00">Window.hpp</text>
</a>
</g>
</g>
<!-- Node4&#45;&gt;Node5 -->
<g id="edge5" class="edge">
<title>Node4&#45;&gt;Node5</title>
<path fill="none" stroke="midnightblue" d="M451.8,-280.32C460.82,-272.34 474.41,-260.31 485.32,-250.65"/>
<polygon fill="midnightblue" stroke="midnightblue" points="487.85,-253.08 493.02,-243.83 483.21,-247.84 487.85,-253.08"/>
</g>
<!-- Node5&#45;&gt;Node2 -->
<g id="edge6" class="edge">
<title>Node5&#45;&gt;Node2</title>
<path fill="none" stroke="midnightblue" d="M541.08,-232.38C607.71,-230.39 741.13,-222.15 770,-188 791.81,-162.21 785.51,-142.01 770,-112 750.24,-73.77 730.88,-72.18 691,-56 604.95,-21.1 494.44,-13.09 437.91,-11.36"/>
<polygon fill="midnightblue" stroke="midnightblue" points="437.76,-7.86 427.67,-11.1 437.58,-14.86 437.76,-7.86"/>
</g>
<!-- Node5&#45;&gt;Node3 -->
<g id="edge9" class="edge">
<title>Node5&#45;&gt;Node3</title>
<path fill="none" stroke="midnightblue" d="M464.92,-231.7C383.41,-228.37 194.92,-217.61 139,-188 118.35,-177.07 101.73,-155.39 91.88,-140.08"/>
<polygon fill="midnightblue" stroke="midnightblue" points="94.85,-138.23 86.65,-131.53 88.88,-141.88 94.85,-138.23"/>
</g>
<!-- Node6 -->
<g id="node6" class="node">
<title>Node6</title>
<g id="a_node6"><a xlink:title=" ">
<polygon fill="white" stroke="#bfbfbf" points="447,-168.5 447,-187.5 491,-187.5 491,-168.5 447,-168.5"/>
<text text-anchor="middle" x="469" y="-175.5" font-family="Helvetica,sans-Serif" font-size="10.00">string</text>
</a>
</g>
</g>
<!-- Node5&#45;&gt;Node6 -->
<g id="edge7" class="edge">
<title>Node5&#45;&gt;Node6</title>
<path fill="none" stroke="midnightblue" d="M497.39,-224.08C492.63,-216.53 485.68,-205.49 479.85,-196.23"/>
<polygon fill="midnightblue" stroke="midnightblue" points="482.8,-194.35 474.51,-187.75 476.88,-198.08 482.8,-194.35"/>
</g>
<!-- Node7 -->
<g id="node7" class="node">
<title>Node7</title>
<g id="a_node7"><a xlink:title=" ">
<polygon fill="white" stroke="#bfbfbf" points="509,-168.5 509,-187.5 565,-187.5 565,-168.5 509,-168.5"/>
<text text-anchor="middle" x="537" y="-175.5" font-family="Helvetica,sans-Serif" font-size="10.00">optional</text>
</a>
</g>
</g>
<!-- Node5&#45;&gt;Node7 -->
<g id="edge8" class="edge">
<title>Node5&#45;&gt;Node7</title>
<path fill="none" stroke="midnightblue" d="M508.61,-224.08C513.37,-216.53 520.32,-205.49 526.15,-196.23"/>
<polygon fill="midnightblue" stroke="midnightblue" points="529.12,-198.08 531.49,-187.75 523.2,-194.35 529.12,-198.08"/>
</g>
<!-- Node8 -->
<g id="node8" class="node">
<title>Node8</title>
<g id="a_node8"><a xlink:href="lib_2Ray_2sources_2Vector_2Vector3_8hpp.html" target="_top" xlink:title=" ">
<polygon fill="white" stroke="black" points="539,-112.5 539,-131.5 647,-131.5 647,-112.5 539,-112.5"/>
<text text-anchor="middle" x="593" y="-119.5" font-family="Helvetica,sans-Serif" font-size="10.00">Vector/Vector3.hpp</text>
</a>
</g>
</g>
<!-- Node5&#45;&gt;Node8 -->
<g id="edge10" class="edge">
<title>Node5&#45;&gt;Node8</title>
<path fill="none" stroke="midnightblue" d="M524.29,-224.49C540.19,-217.1 561.28,-204.91 574,-188 584.05,-174.64 588.8,-156.07 591.03,-142.2"/>
<polygon fill="midnightblue" stroke="midnightblue" points="594.56,-142.24 592.38,-131.87 587.62,-141.33 594.56,-142.24"/>
</g>
<!-- Node9 -->
<g id="node9" class="node">
<title>Node9</title>
<g id="a_node9"><a xlink:href="Keyboard_8hpp.html" target="_top" xlink:title=" ">
<polygon fill="white" stroke="black" points="621,-168.5 621,-187.5 761,-187.5 761,-168.5 621,-168.5"/>
<text text-anchor="middle" x="691" y="-175.5" font-family="Helvetica,sans-Serif" font-size="10.00">Controllers/Keyboard.hpp</text>
</a>
</g>
</g>
<!-- Node5&#45;&gt;Node9 -->
<g id="edge12" class="edge">
<title>Node5&#45;&gt;Node9</title>
<path fill="none" stroke="midnightblue" d="M532.79,-224.44C564.83,-215.24 615.93,-200.56 651.35,-190.39"/>
<polygon fill="midnightblue" stroke="midnightblue" points="652.71,-193.64 661.35,-187.52 650.77,-186.91 652.71,-193.64"/>
</g>
<!-- Node11 -->
<g id="node11" class="node">
<title>Node11</title>
<g id="a_node11"><a xlink:href="Camera2D_8hpp.html" target="_top" xlink:title=" ">
<polygon fill="white" stroke="black" points="148.5,-168.5 148.5,-187.5 279.5,-187.5 279.5,-168.5 148.5,-168.5"/>
<text text-anchor="middle" x="214" y="-175.5" font-family="Helvetica,sans-Serif" font-size="10.00">Camera/Camera2D.hpp</text>
</a>
</g>
</g>
<!-- Node5&#45;&gt;Node11 -->
<g id="edge15" class="edge">
<title>Node5&#45;&gt;Node11</title>
<path fill="none" stroke="midnightblue" d="M464.92,-225.88C415.04,-216.56 327.18,-200.15 269.79,-189.42"/>
<polygon fill="midnightblue" stroke="midnightblue" points="270.27,-185.95 259.79,-187.56 268.98,-192.83 270.27,-185.95"/>
</g>
<!-- Node14 -->
<g id="node14" class="node">
<title>Node14</title>
<g id="a_node14"><a xlink:href="Camera3D_8hpp.html" target="_top" xlink:title=" ">
<polygon fill="white" stroke="black" points="297.5,-168.5 297.5,-187.5 428.5,-187.5 428.5,-168.5 297.5,-168.5"/>
<text text-anchor="middle" x="363" y="-175.5" font-family="Helvetica,sans-Serif" font-size="10.00">Camera/Camera3D.hpp</text>
</a>
</g>
</g>
<!-- Node5&#45;&gt;Node14 -->
<g id="edge21" class="edge">
<title>Node5&#45;&gt;Node14</title>
<path fill="none" stroke="midnightblue" d="M480.82,-224.44C457.57,-215.48 420.85,-201.31 394.58,-191.18"/>
<polygon fill="midnightblue" stroke="midnightblue" points="395.67,-187.85 385.08,-187.52 393.15,-194.38 395.67,-187.85"/>
</g>
<!-- Node5&#45;&gt;Node17 -->
<g id="edge29" class="edge">
<title>Node5&#45;&gt;Node17</title>
<path fill="none" stroke="midnightblue" d="M541.46,-227.84C598.63,-220.03 709.36,-204.38 803,-188 804.1,-187.81 805.21,-187.61 806.33,-187.41"/>
<polygon fill="midnightblue" stroke="midnightblue" points="807.38,-190.77 816.57,-185.49 806.09,-183.89 807.38,-190.77"/>
</g>
<!-- Node8&#45;&gt;Node2 -->
<g id="edge11" class="edge">
<title>Node8&#45;&gt;Node2</title>
<path fill="none" stroke="midnightblue" d="M611.73,-112.5C635.89,-100.39 672.83,-77.27 655,-56 627.68,-23.41 501.09,-14.41 437.57,-11.93"/>
<polygon fill="midnightblue" stroke="midnightblue" points="437.69,-8.44 427.57,-11.58 437.44,-15.43 437.69,-8.44"/>
</g>
<!-- Node9&#45;&gt;Node2 -->
<g id="edge13" class="edge">
<title>Node9&#45;&gt;Node2</title>
<path fill="none" stroke="midnightblue" d="M692.61,-168.18C696.11,-145.9 701.84,-86.88 671,-56 638.89,-23.84 504.04,-14.62 437.9,-12.01"/>
<polygon fill="midnightblue" stroke="midnightblue" points="438.02,-8.51 427.9,-11.64 437.77,-15.51 438.02,-8.51"/>
</g>
<!-- Node10 -->
<g id="node10" class="node">
<title>Node10</title>
<g id="a_node10"><a xlink:title=" ">
<polygon fill="white" stroke="#bfbfbf" points="713.5,-112.5 713.5,-131.5 760.5,-131.5 760.5,-112.5 713.5,-112.5"/>
<text text-anchor="middle" x="737" y="-119.5" font-family="Helvetica,sans-Serif" font-size="10.00">vector</text>
</a>
</g>
</g>
<!-- Node9&#45;&gt;Node10 -->
<g id="edge14" class="edge">
<title>Node9&#45;&gt;Node10</title>
<path fill="none" stroke="midnightblue" d="M698.6,-168.08C705.23,-160.3 715.02,-148.8 723.06,-139.37"/>
<polygon fill="midnightblue" stroke="midnightblue" points="725.73,-141.63 729.55,-131.75 720.4,-137.09 725.73,-141.63"/>
</g>
<!-- Node11&#45;&gt;Node2 -->
<g id="edge16" class="edge">
<title>Node11&#45;&gt;Node2</title>
<path fill="none" stroke="midnightblue" d="M205.52,-168.23C197.95,-159.75 187.4,-146.13 183,-132 172.97,-99.75 161.67,-82.19 183,-56 205.41,-28.49 307.87,-17.29 363.99,-13.16"/>
<polygon fill="midnightblue" stroke="midnightblue" points="364.49,-16.63 374.23,-12.44 364.01,-9.65 364.49,-16.63"/>
</g>
<!-- Node11&#45;&gt;Node3 -->
<g id="edge17" class="edge">
<title>Node11&#45;&gt;Node3</title>
<path fill="none" stroke="midnightblue" d="M193.08,-168.44C171.26,-159.52 136.85,-145.44 112.11,-135.32"/>
<polygon fill="midnightblue" stroke="midnightblue" points="113.4,-132.06 102.82,-131.52 110.75,-138.54 113.4,-132.06"/>
</g>
<!-- Node12 -->
<g id="node12" class="node">
<title>Node12</title>
<g id="a_node12"><a xlink:href="ICamera_8hpp.html" target="_top" xlink:title=" ">
<polygon fill="white" stroke="black" points="192,-112.5 192,-131.5 312,-131.5 312,-112.5 192,-112.5"/>
<text text-anchor="middle" x="252" y="-119.5" font-family="Helvetica,sans-Serif" font-size="10.00">Camera/ICamera.hpp</text>
</a>
</g>
</g>
<!-- Node11&#45;&gt;Node12 -->
<g id="edge18" class="edge">
<title>Node11&#45;&gt;Node12</title>
<path fill="none" stroke="midnightblue" d="M220.27,-168.08C225.64,-160.46 233.52,-149.26 240.08,-139.94"/>
<polygon fill="midnightblue" stroke="midnightblue" points="242.95,-141.94 245.84,-131.75 237.22,-137.91 242.95,-141.94"/>
</g>
<!-- Node13 -->
<g id="node13" class="node">
<title>Node13</title>
<g id="a_node13"><a xlink:href="Matrix_8hpp.html" target="_top" xlink:title=" ">
<polygon fill="white" stroke="black" points="192.5,-56.5 192.5,-75.5 261.5,-75.5 261.5,-56.5 192.5,-56.5"/>
<text text-anchor="middle" x="227" y="-63.5" font-family="Helvetica,sans-Serif" font-size="10.00">Matrix.hpp</text>
</a>
</g>
</g>
<!-- Node12&#45;&gt;Node13 -->
<g id="edge19" class="edge">
<title>Node12&#45;&gt;Node13</title>
<path fill="none" stroke="midnightblue" d="M247.87,-112.08C244.49,-104.77 239.58,-94.18 235.38,-85.1"/>
<polygon fill="midnightblue" stroke="midnightblue" points="238.43,-83.36 231.05,-75.75 232.08,-86.3 238.43,-83.36"/>
</g>
<!-- Node13&#45;&gt;Node2 -->
<g id="edge20" class="edge">
<title>Node13&#45;&gt;Node2</title>
<path fill="none" stroke="midnightblue" d="M254.57,-56.44C284.36,-47.2 331.95,-32.43 364.75,-22.25"/>
<polygon fill="midnightblue" stroke="midnightblue" points="365.9,-25.56 374.41,-19.25 363.83,-18.87 365.9,-25.56"/>
</g>
<!-- Node14&#45;&gt;Node2 -->
<g id="edge22" class="edge">
<title>Node14&#45;&gt;Node2</title>
<path fill="none" stroke="midnightblue" d="M356.92,-168.32C340.32,-144.14 296.27,-76.39 309,-56 321.16,-36.52 344.47,-25.24 364.59,-18.84"/>
<polygon fill="midnightblue" stroke="midnightblue" points="365.8,-22.14 374.44,-16.01 363.86,-15.41 365.8,-22.14"/>
</g>
<!-- Node14&#45;&gt;Node8 -->
<g id="edge23" class="edge">
<title>Node14&#45;&gt;Node8</title>
<path fill="none" stroke="midnightblue" d="M399.44,-168.44C439.4,-159.06 503.59,-143.99 546.98,-133.8"/>
<polygon fill="midnightblue" stroke="midnightblue" points="547.79,-137.21 556.73,-131.52 546.19,-130.39 547.79,-137.21"/>
</g>
<!-- Node14&#45;&gt;Node12 -->
<g id="edge24" class="edge">
<title>Node14&#45;&gt;Node12</title>
<path fill="none" stroke="midnightblue" d="M345.17,-168.32C327.28,-159.62 299.52,-146.12 278.95,-136.11"/>
<polygon fill="midnightblue" stroke="midnightblue" points="280.31,-132.88 269.79,-131.65 277.25,-139.18 280.31,-132.88"/>
</g>
<!-- Node15 -->
<g id="node15" class="node">
<title>Node15</title>
<g id="a_node15"><a xlink:href="CameraProjection_8hpp.html" target="_top" xlink:title=" ">
<polygon fill="white" stroke="black" points="318,-56.5 318,-75.5 484,-75.5 484,-56.5 318,-56.5"/>
<text text-anchor="middle" x="401" y="-63.5" font-family="Helvetica,sans-Serif" font-size="10.00">Camera/CameraProjection.hpp</text>
</a>
</g>
</g>
<!-- Node14&#45;&gt;Node15 -->
<g id="edge25" class="edge">
<title>Node14&#45;&gt;Node15</title>
<path fill="none" stroke="midnightblue" d="M365.98,-168.37C372.14,-150.54 386.39,-109.3 394.69,-85.27"/>
<polygon fill="midnightblue" stroke="midnightblue" points="398.07,-86.19 398.03,-75.59 391.46,-83.9 398.07,-86.19"/>
</g>
<!-- Node16 -->
<g id="node16" class="node">
<title>Node16</title>
<g id="a_node16"><a xlink:href="CameraMode_8hpp.html" target="_top" xlink:title=" ">
<polygon fill="white" stroke="black" points="502,-56.5 502,-75.5 646,-75.5 646,-56.5 502,-56.5"/>
<text text-anchor="middle" x="574" y="-63.5" font-family="Helvetica,sans-Serif" font-size="10.00">Camera/CameraMode.hpp</text>
</a>
</g>
</g>
<!-- Node14&#45;&gt;Node16 -->
<g id="edge27" class="edge">
<title>Node14&#45;&gt;Node16</title>
<path fill="none" stroke="midnightblue" d="M379.56,-168.37C416.3,-149.21 504.88,-103.04 548.65,-80.22"/>
<polygon fill="midnightblue" stroke="midnightblue" points="550.27,-83.32 557.52,-75.59 547.03,-77.11 550.27,-83.32"/>
</g>
<!-- Node15&#45;&gt;Node2 -->
<g id="edge26" class="edge">
<title>Node15&#45;&gt;Node2</title>
<path fill="none" stroke="midnightblue" d="M401,-56.08C401,-49.01 401,-38.86 401,-29.99"/>
<polygon fill="midnightblue" stroke="midnightblue" points="404.5,-29.75 401,-19.75 397.5,-29.75 404.5,-29.75"/>
</g>
<!-- Node16&#45;&gt;Node2 -->
<g id="edge28" class="edge">
<title>Node16&#45;&gt;Node2</title>
<path fill="none" stroke="midnightblue" d="M546.59,-56.44C517.06,-47.23 469.93,-32.52 437.33,-22.34"/>
<polygon fill="midnightblue" stroke="midnightblue" points="438.3,-18.98 427.72,-19.34 436.22,-25.66 438.3,-18.98"/>
</g>
<!-- Node17&#45;&gt;Node2 -->
<g id="edge30" class="edge">
<title>Node17&#45;&gt;Node2</title>
<path fill="none" stroke="midnightblue" d="M847.68,-168.21C846.35,-145.45 839.39,-84.42 803,-56 746.69,-12.02 525.93,-9.52 437.71,-10.35"/>
<polygon fill="midnightblue" stroke="midnightblue" points="437.59,-6.85 427.63,-10.47 437.67,-13.85 437.59,-6.85"/>
</g>
</g>
</svg>
