<?xml version="1.0" encoding="UTF-8" standalone="no"?>
<!DOCTYPE svg PUBLIC "-//W3C//DTD SVG 1.1//EN"
 "http://www.w3.org/Graphics/SVG/1.1/DTD/svg11.dtd">
<!-- Generated by graphviz version 2.43.0 (0)
 -->
<!-- Title: sources/Component/Shaders/Items/AlphaCtxShaderComponent.hpp Pages: 1 -->
<svg width="404pt" height="106pt"
 viewBox="0.00 0.00 404.00 106.00" xmlns="http://www.w3.org/2000/svg" xmlns:xlink="http://www.w3.org/1999/xlink">
<g id="graph0" class="graph" transform="scale(1 1) rotate(0) translate(4 102)">
<title>sources/Component/Shaders/Items/AlphaCtxShaderComponent.hpp</title>
<polygon fill="white" stroke="transparent" points="-4,4 -4,-102 400,-102 400,4 -4,4"/>
<!-- Node1 -->
<g id="node1" class="node">
<title>Node1</title>
<g id="a_node1"><a xlink:title=" ">
<polygon fill="#bfbfbf" stroke="black" points="102.5,-67.5 102.5,-97.5 308.5,-97.5 308.5,-67.5 102.5,-67.5"/>
<text text-anchor="start" x="110.5" y="-85.5" font-family="Helvetica,sans-Serif" font-size="10.00">sources/Component/Shaders</text>
<text text-anchor="middle" x="205.5" y="-74.5" font-family="Helvetica,sans-Serif" font-size="10.00">/Items/AlphaCtxShaderComponent.hpp</text>
</a>
</g>
</g>
<!-- Node2 -->
<g id="node2" class="node">
<title>Node2</title>
<g id="a_node2"><a xlink:href="AlphaCtxShaderComponent_8cpp.html" target="_top" xlink:title=" ">
<polygon fill="white" stroke="black" points="0,-0.5 0,-30.5 205,-30.5 205,-0.5 0,-0.5"/>
<text text-anchor="start" x="8" y="-18.5" font-family="Helvetica,sans-Serif" font-size="10.00">sources/Component/Shaders</text>
<text text-anchor="middle" x="102.5" y="-7.5" font-family="Helvetica,sans-Serif" font-size="10.00">/Items/AlphaCtxShaderComponent.cpp</text>
</a>
</g>
</g>
<!-- Node1&#45;&gt;Node2 -->
<g id="edge1" class="edge">
<title>Node1&#45;&gt;Node2</title>
<path fill="none" stroke="midnightblue" d="M174.62,-62.02C158.6,-51.9 139.37,-39.77 124.81,-30.58"/>
<polygon fill="midnightblue" stroke="midnightblue" points="172.83,-65.02 183.15,-67.4 176.56,-59.1 172.83,-65.02"/>
</g>
<!-- Node3 -->
<g id="node3" class="node">
<title>Node3</title>
<g id="a_node3"><a xlink:href="GameScene_8cpp.html" target="_top" xlink:title=" ">
<polygon fill="white" stroke="black" points="223,-6 223,-25 396,-25 396,-6 223,-6"/>
<text text-anchor="middle" x="309.5" y="-13" font-family="Helvetica,sans-Serif" font-size="10.00">sources/Runner/GameScene.cpp</text>
</a>
</g>
</g>
<!-- Node1&#45;&gt;Node3 -->
<g id="edge2" class="edge">
<title>Node1&#45;&gt;Node3</title>
<path fill="none" stroke="midnightblue" d="M236.74,-61.97C256.46,-49.65 280.95,-34.35 295.89,-25.01"/>
<polygon fill="midnightblue" stroke="midnightblue" points="234.69,-59.13 228.07,-67.4 238.4,-65.06 234.69,-59.13"/>
</g>
</g>
</svg>
