<?xml version="1.0" encoding="UTF-8" standalone="no"?>
<!DOCTYPE svg PUBLIC "-//W3C//DTD SVG 1.1//EN"
 "http://www.w3.org/Graphics/SVG/1.1/DTD/svg11.dtd">
<!-- Generated by graphviz version 2.43.0 (0)
 -->
<!-- Title: sources/Component/Animator/AnimatorComponent.hpp Pages: 1 -->
<svg width="1077pt" height="106pt"
 viewBox="0.00 0.00 1076.50 106.00" xmlns="http://www.w3.org/2000/svg" xmlns:xlink="http://www.w3.org/1999/xlink">
<g id="graph0" class="graph" transform="scale(1 1) rotate(0) translate(4 102)">
<title>sources/Component/Animator/AnimatorComponent.hpp</title>
<polygon fill="white" stroke="transparent" points="-4,4 -4,-102 1072.5,-102 1072.5,4 -4,4"/>
<!-- Node1 -->
<g id="node1" class="node">
<title>Node1</title>
<g id="a_node1"><a xlink:title=" ">
<polygon fill="#bfbfbf" stroke="black" points="463,-67.5 463,-97.5 624,-97.5 624,-67.5 463,-67.5"/>
<text text-anchor="start" x="471" y="-85.5" font-family="Helvetica,sans-Serif" font-size="10.00">sources/Component/Animator</text>
<text text-anchor="middle" x="543.5" y="-74.5" font-family="Helvetica,sans-Serif" font-size="10.00">/AnimatorComponent.hpp</text>
</a>
</g>
</g>
<!-- Node2 -->
<g id="node2" class="node">
<title>Node2</title>
<g id="a_node2"><a xlink:href="AnimatorComponent_8cpp.html" target="_top" xlink:title=" ">
<polygon fill="white" stroke="black" points="0,-0.5 0,-30.5 161,-30.5 161,-0.5 0,-0.5"/>
<text text-anchor="start" x="8" y="-18.5" font-family="Helvetica,sans-Serif" font-size="10.00">sources/Component/Animator</text>
<text text-anchor="middle" x="80.5" y="-7.5" font-family="Helvetica,sans-Serif" font-size="10.00">/AnimatorComponent.cpp</text>
</a>
</g>
</g>
<!-- Node1&#45;&gt;Node2 -->
<g id="edge1" class="edge">
<title>Node1&#45;&gt;Node2</title>
<path fill="none" stroke="midnightblue" d="M452.69,-69.85C377.1,-60.01 266.7,-45.26 170.5,-31 167.53,-30.56 164.5,-30.1 161.44,-29.64"/>
<polygon fill="midnightblue" stroke="midnightblue" points="452.28,-73.33 462.65,-71.15 453.19,-66.39 452.28,-73.33"/>
</g>
<!-- Node3 -->
<g id="node3" class="node">
<title>Node3</title>
<g id="a_node3"><a xlink:href="ParserYaml_8cpp.html" target="_top" xlink:title=" ">
<polygon fill="white" stroke="black" points="179.5,-6 179.5,-25 343.5,-25 343.5,-6 179.5,-6"/>
<text text-anchor="middle" x="261.5" y="-13" font-family="Helvetica,sans-Serif" font-size="10.00">sources/Parser/ParserYaml.cpp</text>
</a>
</g>
</g>
<!-- Node1&#45;&gt;Node3 -->
<g id="edge2" class="edge">
<title>Node1&#45;&gt;Node3</title>
<path fill="none" stroke="midnightblue" d="M472.91,-65.23C417.54,-52.47 342.68,-35.21 298.5,-25.03"/>
<polygon fill="midnightblue" stroke="midnightblue" points="472.13,-68.64 482.66,-67.48 473.7,-61.82 472.13,-68.64"/>
</g>
<!-- Node4 -->
<g id="node4" class="node">
<title>Node4</title>
<g id="a_node4"><a xlink:href="GameScene_8cpp.html" target="_top" xlink:title=" ">
<polygon fill="white" stroke="black" points="362,-6 362,-25 535,-25 535,-6 362,-6"/>
<text text-anchor="middle" x="448.5" y="-13" font-family="Helvetica,sans-Serif" font-size="10.00">sources/Runner/GameScene.cpp</text>
</a>
</g>
</g>
<!-- Node1&#45;&gt;Node4 -->
<g id="edge3" class="edge">
<title>Node1&#45;&gt;Node4</title>
<path fill="none" stroke="midnightblue" d="M514.48,-61.64C496.55,-49.37 474.46,-34.26 460.93,-25.01"/>
<polygon fill="midnightblue" stroke="midnightblue" points="512.66,-64.64 522.89,-67.4 516.61,-58.86 512.66,-64.64"/>
</g>
<!-- Node5 -->
<g id="node5" class="node">
<title>Node5</title>
<g id="a_node5"><a xlink:href="LobbyScene_8cpp.html" target="_top" xlink:title=" ">
<polygon fill="white" stroke="black" points="553,-6 553,-25 726,-25 726,-6 553,-6"/>
<text text-anchor="middle" x="639.5" y="-13" font-family="Helvetica,sans-Serif" font-size="10.00">sources/Runner/LobbyScene.cpp</text>
</a>
</g>
</g>
<!-- Node1&#45;&gt;Node5 -->
<g id="edge4" class="edge">
<title>Node1&#45;&gt;Node5</title>
<path fill="none" stroke="midnightblue" d="M572.83,-61.64C590.95,-49.37 613.27,-34.26 626.94,-25.01"/>
<polygon fill="midnightblue" stroke="midnightblue" points="570.65,-58.89 564.33,-67.4 574.57,-64.69 570.65,-58.89"/>
</g>
<!-- Node6 -->
<g id="node6" class="node">
<title>Node6</title>
<g id="a_node6"><a xlink:href="ResumeLobbyScene_8cpp.html" target="_top" xlink:title=" ">
<polygon fill="white" stroke="black" points="744.5,-0.5 744.5,-30.5 908.5,-30.5 908.5,-0.5 744.5,-0.5"/>
<text text-anchor="start" x="752.5" y="-18.5" font-family="Helvetica,sans-Serif" font-size="10.00">sources/Runner/ResumeLobby</text>
<text text-anchor="middle" x="826.5" y="-7.5" font-family="Helvetica,sans-Serif" font-size="10.00">Scene.cpp</text>
</a>
</g>
</g>
<!-- Node1&#45;&gt;Node6 -->
<g id="edge5" class="edge">
<title>Node1&#45;&gt;Node6</title>
<path fill="none" stroke="midnightblue" d="M614.53,-65.19C660.88,-54.54 720.77,-40.78 765.06,-30.61"/>
<polygon fill="midnightblue" stroke="midnightblue" points="613.52,-61.83 604.56,-67.48 615.09,-68.65 613.52,-61.83"/>
</g>
<!-- Node7 -->
<g id="node7" class="node">
<title>Node7</title>
<g id="a_node7"><a xlink:href="AnimatorSystem_8cpp.html" target="_top" xlink:title=" ">
<polygon fill="white" stroke="black" points="926.5,-0.5 926.5,-30.5 1068.5,-30.5 1068.5,-0.5 926.5,-0.5"/>
<text text-anchor="start" x="934.5" y="-18.5" font-family="Helvetica,sans-Serif" font-size="10.00">sources/System/Animator</text>
<text text-anchor="middle" x="997.5" y="-7.5" font-family="Helvetica,sans-Serif" font-size="10.00">/AnimatorSystem.cpp</text>
</a>
</g>
</g>
<!-- Node1&#45;&gt;Node7 -->
<g id="edge6" class="edge">
<title>Node1&#45;&gt;Node7</title>
<path fill="none" stroke="midnightblue" d="M634.27,-70.41C710.11,-60.86 821.04,-46.25 917.5,-31 920.43,-30.54 923.41,-30.05 926.43,-29.55"/>
<polygon fill="midnightblue" stroke="midnightblue" points="633.76,-66.94 624.27,-71.66 634.63,-73.89 633.76,-66.94"/>
</g>
</g>
</svg>
