<?xml version="1.0" encoding="UTF-8" standalone="no"?>
<!DOCTYPE svg PUBLIC "-//W3C//DTD SVG 1.1//EN"
 "http://www.w3.org/Graphics/SVG/1.1/DTD/svg11.dtd">
<!-- Generated by graphviz version 2.43.0 (0)
 -->
<!-- Title: sources/Component/Animation/AnimationsComponent.hpp Pages: 1 -->
<svg width="1448pt" height="263pt"
 viewBox="0.00 0.00 1448.27 263.00" xmlns="http://www.w3.org/2000/svg" xmlns:xlink="http://www.w3.org/1999/xlink">
<g id="graph0" class="graph" transform="scale(1 1) rotate(0) translate(4 259)">
<title>sources/Component/Animation/AnimationsComponent.hpp</title>
<polygon fill="white" stroke="transparent" points="-4,4 -4,-259 1444.27,-259 1444.27,4 -4,4"/>
<!-- Node1 -->
<g id="node1" class="node">
<title>Node1</title>
<g id="a_node1"><a xlink:title=" ">
<polygon fill="#bfbfbf" stroke="black" points="223.71,-224.5 223.71,-254.5 390.71,-254.5 390.71,-224.5 223.71,-224.5"/>
<text text-anchor="start" x="231.71" y="-242.5" font-family="Helvetica,sans-Serif" font-size="10.00">sources/Component/Animation</text>
<text text-anchor="middle" x="307.21" y="-231.5" font-family="Helvetica,sans-Serif" font-size="10.00">/AnimationsComponent.hpp</text>
</a>
</g>
</g>
<!-- Node2 -->
<g id="node2" class="node">
<title>Node2</title>
<g id="a_node2"><a xlink:title=" ">
<polygon fill="white" stroke="#bfbfbf" points="448.21,-0.5 448.21,-19.5 492.21,-19.5 492.21,-0.5 448.21,-0.5"/>
<text text-anchor="middle" x="470.21" y="-7.5" font-family="Helvetica,sans-Serif" font-size="10.00">string</text>
</a>
</g>
</g>
<!-- Node1&#45;&gt;Node2 -->
<g id="edge1" class="edge">
<title>Node1&#45;&gt;Node2</title>
<path fill="none" stroke="midnightblue" d="M241.66,-224.46C134.75,-198.78 -58.06,-139.12 17.21,-56 45.4,-24.87 339.01,-14.41 437.91,-11.76"/>
<polygon fill="midnightblue" stroke="midnightblue" points="438.28,-15.25 448.18,-11.49 438.09,-8.25 438.28,-15.25"/>
</g>
<!-- Node3 -->
<g id="node3" class="node">
<title>Node3</title>
<g id="a_node3"><a xlink:href="ModelAnimations_8hpp.html" target="_top" xlink:title=" ">
<polygon fill="white" stroke="black" points="728.21,-168.5 728.21,-187.5 884.21,-187.5 884.21,-168.5 728.21,-168.5"/>
<text text-anchor="middle" x="806.21" y="-175.5" font-family="Helvetica,sans-Serif" font-size="10.00">Model/ModelAnimations.hpp</text>
</a>
</g>
</g>
<!-- Node1&#45;&gt;Node3 -->
<g id="edge2" class="edge">
<title>Node1&#45;&gt;Node3</title>
<path fill="none" stroke="midnightblue" d="M390.73,-228.54C483.53,-217.48 632.39,-199.73 724.46,-188.75"/>
<polygon fill="midnightblue" stroke="midnightblue" points="725.06,-192.2 734.57,-187.54 724.23,-185.25 725.06,-192.2"/>
</g>
<!-- Node16 -->
<g id="node16" class="node">
<title>Node16</title>
<g id="a_node16"><a xlink:href="Component_8hpp.html" target="_top" xlink:title=" ">
<polygon fill="white" stroke="black" points="26.71,-56.5 26.71,-75.5 179.71,-75.5 179.71,-56.5 26.71,-56.5"/>
<text text-anchor="middle" x="103.21" y="-63.5" font-family="Helvetica,sans-Serif" font-size="10.00">Component/Component.hpp</text>
</a>
</g>
</g>
<!-- Node1&#45;&gt;Node16 -->
<g id="edge21" class="edge">
<title>Node1&#45;&gt;Node16</title>
<path fill="none" stroke="midnightblue" d="M290.52,-224.47C252.65,-192.63 160.51,-115.17 121.33,-82.23"/>
<polygon fill="midnightblue" stroke="midnightblue" points="123.3,-79.32 113.39,-75.56 118.8,-84.67 123.3,-79.32"/>
</g>
<!-- Node18 -->
<g id="node18" class="node">
<title>Node18</title>
<g id="a_node18"><a xlink:href="Entity_8hpp.html" target="_top" xlink:title=" ">
<polygon fill="white" stroke="black" points="336.21,-112.5 336.21,-131.5 432.21,-131.5 432.21,-112.5 336.21,-112.5"/>
<text text-anchor="middle" x="384.21" y="-119.5" font-family="Helvetica,sans-Serif" font-size="10.00">Entity/Entity.hpp</text>
</a>
</g>
</g>
<!-- Node1&#45;&gt;Node18 -->
<g id="edge25" class="edge">
<title>Node1&#45;&gt;Node18</title>
<path fill="none" stroke="midnightblue" d="M316.65,-224.34C330.84,-203.05 357.62,-162.89 372.86,-140.03"/>
<polygon fill="midnightblue" stroke="midnightblue" points="375.8,-141.93 378.43,-131.67 369.97,-138.05 375.8,-141.93"/>
</g>
<!-- Node3&#45;&gt;Node2 -->
<g id="edge7" class="edge">
<title>Node3&#45;&gt;Node2</title>
<path fill="none" stroke="midnightblue" d="M728.05,-172.36C656.43,-163.95 552.26,-140.58 489.21,-76 477.29,-63.79 472.78,-44.52 471.11,-30.13"/>
<polygon fill="midnightblue" stroke="midnightblue" points="474.57,-29.55 470.29,-19.86 467.6,-30.11 474.57,-29.55"/>
</g>
<!-- Node4 -->
<g id="node4" class="node">
<title>Node4</title>
<g id="a_node4"><a xlink:href="ModelAnimation_8hpp.html" target="_top" xlink:title=" ">
<polygon fill="white" stroke="black" points="730.71,-112.5 730.71,-131.5 881.71,-131.5 881.71,-112.5 730.71,-112.5"/>
<text text-anchor="middle" x="806.21" y="-119.5" font-family="Helvetica,sans-Serif" font-size="10.00">Model/ModelAnimation.hpp</text>
</a>
</g>
</g>
<!-- Node3&#45;&gt;Node4 -->
<g id="edge3" class="edge">
<title>Node3&#45;&gt;Node4</title>
<path fill="none" stroke="midnightblue" d="M806.21,-168.08C806.21,-161.01 806.21,-150.86 806.21,-141.99"/>
<polygon fill="midnightblue" stroke="midnightblue" points="809.71,-141.75 806.21,-131.75 802.71,-141.75 809.71,-141.75"/>
</g>
<!-- Node7 -->
<g id="node7" class="node">
<title>Node7</title>
<g id="a_node7"><a xlink:title=" ">
<polygon fill="white" stroke="#bfbfbf" points="1307.71,-0.5 1307.71,-19.5 1354.71,-19.5 1354.71,-0.5 1307.71,-0.5"/>
<text text-anchor="middle" x="1331.21" y="-7.5" font-family="Helvetica,sans-Serif" font-size="10.00">vector</text>
</a>
</g>
</g>
<!-- Node3&#45;&gt;Node7 -->
<g id="edge6" class="edge">
<title>Node3&#45;&gt;Node7</title>
<path fill="none" stroke="midnightblue" d="M884.3,-176.49C1036.56,-173.66 1364.39,-157.95 1434.21,-76 1457.82,-48.3 1403.12,-28.46 1364.74,-18.44"/>
<polygon fill="midnightblue" stroke="midnightblue" points="1365.46,-15.01 1354.91,-15.99 1363.77,-21.8 1365.46,-15.01"/>
</g>
<!-- Node8 -->
<g id="node8" class="node">
<title>Node8</title>
<g id="a_node8"><a xlink:href="Cache_8hpp.html" target="_top" xlink:title=" ">
<polygon fill="white" stroke="black" points="919.71,-112.5 919.71,-131.5 1012.71,-131.5 1012.71,-112.5 919.71,-112.5"/>
<text text-anchor="middle" x="966.21" y="-119.5" font-family="Helvetica,sans-Serif" font-size="10.00">Utils/Cache.hpp</text>
</a>
</g>
</g>
<!-- Node3&#45;&gt;Node8 -->
<g id="edge8" class="edge">
<title>Node3&#45;&gt;Node8</title>
<path fill="none" stroke="midnightblue" d="M831.56,-168.44C858.48,-159.36 901.21,-144.94 931.3,-134.78"/>
<polygon fill="midnightblue" stroke="midnightblue" points="932.62,-138.03 940.98,-131.52 930.38,-131.4 932.62,-138.03"/>
</g>
<!-- Node5 -->
<g id="node5" class="node">
<title>Node5</title>
<g id="a_node5"><a xlink:title=" ">
<polygon fill="white" stroke="#bfbfbf" points="833.71,-56.5 833.71,-75.5 886.71,-75.5 886.71,-56.5 833.71,-56.5"/>
<text text-anchor="middle" x="860.21" y="-63.5" font-family="Helvetica,sans-Serif" font-size="10.00">raylib.h</text>
</a>
</g>
</g>
<!-- Node4&#45;&gt;Node5 -->
<g id="edge4" class="edge">
<title>Node4&#45;&gt;Node5</title>
<path fill="none" stroke="midnightblue" d="M815.13,-112.08C822.99,-104.22 834.64,-92.57 844.13,-83.08"/>
<polygon fill="midnightblue" stroke="midnightblue" points="846.87,-85.3 851.46,-75.75 841.92,-80.35 846.87,-85.3"/>
</g>
<!-- Node6 -->
<g id="node6" class="node">
<title>Node6</title>
<g id="a_node6"><a xlink:title=" ">
<polygon fill="white" stroke="#bfbfbf" points="757.21,-56.5 757.21,-75.5 815.21,-75.5 815.21,-56.5 757.21,-56.5"/>
<text text-anchor="middle" x="786.21" y="-63.5" font-family="Helvetica,sans-Serif" font-size="10.00">memory</text>
</a>
</g>
</g>
<!-- Node4&#45;&gt;Node6 -->
<g id="edge5" class="edge">
<title>Node4&#45;&gt;Node6</title>
<path fill="none" stroke="midnightblue" d="M802.91,-112.08C800.23,-104.85 796.36,-94.41 793.03,-85.4"/>
<polygon fill="midnightblue" stroke="midnightblue" points="796.21,-83.91 789.45,-75.75 789.64,-86.34 796.21,-83.91"/>
</g>
<!-- Node8&#45;&gt;Node2 -->
<g id="edge19" class="edge">
<title>Node8&#45;&gt;Node2</title>
<path fill="none" stroke="midnightblue" d="M960.04,-112.38C949.07,-97.84 924.65,-68.77 896.21,-56 743.47,12.58 687.12,-42.57 521.21,-20 515.11,-19.17 508.61,-18.14 502.38,-17.07"/>
<polygon fill="midnightblue" stroke="midnightblue" points="502.7,-13.58 492.24,-15.28 501.48,-20.47 502.7,-13.58"/>
</g>
<!-- Node8&#45;&gt;Node5 -->
<g id="edge13" class="edge">
<title>Node8&#45;&gt;Node5</title>
<path fill="none" stroke="midnightblue" d="M949.18,-112.32C932.18,-103.66 905.84,-90.24 886.22,-80.25"/>
<polygon fill="midnightblue" stroke="midnightblue" points="887.7,-77.08 877.2,-75.65 884.52,-83.31 887.7,-77.08"/>
</g>
<!-- Node8&#45;&gt;Node6 -->
<g id="edge9" class="edge">
<title>Node8&#45;&gt;Node6</title>
<path fill="none" stroke="midnightblue" d="M937.69,-112.44C907.15,-103.28 858.5,-88.69 824.61,-78.52"/>
<polygon fill="midnightblue" stroke="midnightblue" points="825.18,-75.04 814.6,-75.52 823.17,-81.74 825.18,-75.04"/>
</g>
<!-- Node8&#45;&gt;Node7 -->
<g id="edge17" class="edge">
<title>Node8&#45;&gt;Node7</title>
<path fill="none" stroke="midnightblue" d="M1012.97,-121.05C1096.84,-120.17 1268.2,-113.66 1312.21,-76 1325.45,-64.67 1329.73,-44.67 1330.99,-29.84"/>
<polygon fill="midnightblue" stroke="midnightblue" points="1334.49,-29.88 1331.45,-19.73 1327.49,-29.56 1334.49,-29.88"/>
</g>
<!-- Node9 -->
<g id="node9" class="node">
<title>Node9</title>
<g id="a_node9"><a xlink:title=" ">
<polygon fill="white" stroke="#bfbfbf" points="645.71,-56.5 645.71,-75.5 738.71,-75.5 738.71,-56.5 645.71,-56.5"/>
<text text-anchor="middle" x="692.21" y="-63.5" font-family="Helvetica,sans-Serif" font-size="10.00">unordered_map</text>
</a>
</g>
</g>
<!-- Node8&#45;&gt;Node9 -->
<g id="edge10" class="edge">
<title>Node8&#45;&gt;Node9</title>
<path fill="none" stroke="midnightblue" d="M922.8,-112.44C874.7,-102.96 797.12,-87.67 745.41,-77.48"/>
<polygon fill="midnightblue" stroke="midnightblue" points="745.91,-74.02 735.43,-75.52 744.56,-80.88 745.91,-74.02"/>
</g>
<!-- Node10 -->
<g id="node10" class="node">
<title>Node10</title>
<g id="a_node10"><a xlink:title=" ">
<polygon fill="white" stroke="#bfbfbf" points="1359.71,-56.5 1359.71,-75.5 1424.71,-75.5 1424.71,-56.5 1359.71,-56.5"/>
<text text-anchor="middle" x="1392.21" y="-63.5" font-family="Helvetica,sans-Serif" font-size="10.00">functional</text>
</a>
</g>
</g>
<!-- Node8&#45;&gt;Node10 -->
<g id="edge11" class="edge">
<title>Node8&#45;&gt;Node10</title>
<path fill="none" stroke="midnightblue" d="M1012.74,-116.55C1084.37,-109.46 1225.88,-94.49 1345.21,-76 1346.67,-75.77 1348.16,-75.53 1349.66,-75.29"/>
<polygon fill="midnightblue" stroke="midnightblue" points="1350.4,-78.71 1359.65,-73.55 1349.2,-71.82 1350.4,-78.71"/>
</g>
<!-- Node11 -->
<g id="node11" class="node">
<title>Node11</title>
<g id="a_node11"><a xlink:title=" ">
<polygon fill="white" stroke="#bfbfbf" points="943.71,-56.5 943.71,-75.5 988.71,-75.5 988.71,-56.5 943.71,-56.5"/>
<text text-anchor="middle" x="966.21" y="-63.5" font-family="Helvetica,sans-Serif" font-size="10.00">utility</text>
</a>
</g>
</g>
<!-- Node8&#45;&gt;Node11 -->
<g id="edge12" class="edge">
<title>Node8&#45;&gt;Node11</title>
<path fill="none" stroke="midnightblue" d="M966.21,-112.08C966.21,-105.01 966.21,-94.86 966.21,-85.99"/>
<polygon fill="midnightblue" stroke="midnightblue" points="969.71,-85.75 966.21,-75.75 962.71,-85.75 969.71,-85.75"/>
</g>
<!-- Node12 -->
<g id="node12" class="node">
<title>Node12</title>
<g id="a_node12"><a xlink:href="RayError_8hpp.html" target="_top" xlink:title=" ">
<polygon fill="white" stroke="black" points="1167.71,-56.5 1167.71,-75.5 1302.71,-75.5 1302.71,-56.5 1167.71,-56.5"/>
<text text-anchor="middle" x="1235.21" y="-63.5" font-family="Helvetica,sans-Serif" font-size="10.00">Exceptions/RayError.hpp</text>
</a>
</g>
</g>
<!-- Node8&#45;&gt;Node12 -->
<g id="edge14" class="edge">
<title>Node8&#45;&gt;Node12</title>
<path fill="none" stroke="midnightblue" d="M1008.84,-112.44C1055.96,-102.98 1131.9,-87.74 1182.67,-77.55"/>
<polygon fill="midnightblue" stroke="midnightblue" points="1183.67,-80.92 1192.79,-75.52 1182.29,-74.05 1183.67,-80.92"/>
</g>
<!-- Node14 -->
<g id="node14" class="node">
<title>Node14</title>
<g id="a_node14"><a xlink:title=" ">
<polygon fill="white" stroke="#bfbfbf" points="1007.21,-56.5 1007.21,-75.5 1071.21,-75.5 1071.21,-56.5 1007.21,-56.5"/>
<text text-anchor="middle" x="1039.21" y="-63.5" font-family="Helvetica,sans-Serif" font-size="10.00">algorithm</text>
</a>
</g>
</g>
<!-- Node8&#45;&gt;Node14 -->
<g id="edge18" class="edge">
<title>Node8&#45;&gt;Node14</title>
<path fill="none" stroke="midnightblue" d="M977.94,-112.32C989.05,-104.11 1005.95,-91.6 1019.2,-81.81"/>
<polygon fill="midnightblue" stroke="midnightblue" points="1021.31,-84.59 1027.27,-75.83 1017.15,-78.97 1021.31,-84.59"/>
</g>
<!-- Node15 -->
<g id="node15" class="node">
<title>Node15</title>
<g id="a_node15"><a xlink:title=" ">
<polygon fill="white" stroke="#bfbfbf" points="1089.21,-56.5 1089.21,-75.5 1149.21,-75.5 1149.21,-56.5 1089.21,-56.5"/>
<text text-anchor="middle" x="1119.21" y="-63.5" font-family="Helvetica,sans-Serif" font-size="10.00">iostream</text>
</a>
</g>
</g>
<!-- Node8&#45;&gt;Node15 -->
<g id="edge20" class="edge">
<title>Node8&#45;&gt;Node15</title>
<path fill="none" stroke="midnightblue" d="M990.46,-112.44C1016.08,-103.4 1056.7,-89.06 1085.45,-78.92"/>
<polygon fill="midnightblue" stroke="midnightblue" points="1086.82,-82.15 1095.08,-75.52 1084.49,-75.54 1086.82,-82.15"/>
</g>
<!-- Node12&#45;&gt;Node2 -->
<g id="edge16" class="edge">
<title>Node12&#45;&gt;Node2</title>
<path fill="none" stroke="midnightblue" d="M1167.63,-56.87C1164.45,-56.56 1161.3,-56.27 1158.21,-56 875.71,-31.53 802.88,-52.7 521.21,-20 515.09,-19.29 508.59,-18.31 502.35,-17.27"/>
<polygon fill="midnightblue" stroke="midnightblue" points="502.68,-13.77 492.22,-15.47 501.46,-20.66 502.68,-13.77"/>
</g>
<!-- Node13 -->
<g id="node13" class="node">
<title>Node13</title>
<g id="a_node13"><a xlink:title=" ">
<polygon fill="white" stroke="#bfbfbf" points="908.71,-0.5 908.71,-19.5 973.71,-19.5 973.71,-0.5 908.71,-0.5"/>
<text text-anchor="middle" x="941.21" y="-7.5" font-family="Helvetica,sans-Serif" font-size="10.00">stdexcept</text>
</a>
</g>
</g>
<!-- Node12&#45;&gt;Node13 -->
<g id="edge15" class="edge">
<title>Node12&#45;&gt;Node13</title>
<path fill="none" stroke="midnightblue" d="M1188.63,-56.44C1132.35,-46.11 1038.45,-28.86 983.95,-18.85"/>
<polygon fill="midnightblue" stroke="midnightblue" points="984.39,-15.37 973.92,-17.01 983.13,-22.26 984.39,-15.37"/>
</g>
<!-- Node16&#45;&gt;Node2 -->
<g id="edge23" class="edge">
<title>Node16&#45;&gt;Node2</title>
<path fill="none" stroke="midnightblue" d="M161.36,-56.44C239.7,-44.92 376.42,-24.8 438.24,-15.7"/>
<polygon fill="midnightblue" stroke="midnightblue" points="438.81,-19.16 448.19,-14.24 437.79,-12.23 438.81,-19.16"/>
</g>
<!-- Node16&#45;&gt;Node7 -->
<g id="edge22" class="edge">
<title>Node16&#45;&gt;Node7</title>
<path fill="none" stroke="midnightblue" d="M180.08,-56.71C183.17,-56.45 186.22,-56.22 189.21,-56 413.13,-39.89 1133.45,-17.1 1297.67,-12.03"/>
<polygon fill="midnightblue" stroke="midnightblue" points="1297.78,-15.53 1307.67,-11.72 1297.57,-8.53 1297.78,-15.53"/>
</g>
<!-- Node17 -->
<g id="node17" class="node">
<title>Node17</title>
<g id="a_node17"><a xlink:title=" ">
<polygon fill="white" stroke="#bfbfbf" points="70.71,-0.5 70.71,-19.5 135.71,-19.5 135.71,-0.5 70.71,-0.5"/>
<text text-anchor="middle" x="103.21" y="-7.5" font-family="Helvetica,sans-Serif" font-size="10.00">typeindex</text>
</a>
</g>
</g>
<!-- Node16&#45;&gt;Node17 -->
<g id="edge24" class="edge">
<title>Node16&#45;&gt;Node17</title>
<path fill="none" stroke="midnightblue" d="M103.21,-56.08C103.21,-49.01 103.21,-38.86 103.21,-29.99"/>
<polygon fill="midnightblue" stroke="midnightblue" points="106.71,-29.75 103.21,-19.75 99.71,-29.75 106.71,-29.75"/>
</g>
<!-- Node18&#45;&gt;Node2 -->
<g id="edge26" class="edge">
<title>Node18&#45;&gt;Node2</title>
<path fill="none" stroke="midnightblue" d="M390.96,-112.37C405.22,-94.14 438.61,-51.43 457.18,-27.68"/>
<polygon fill="midnightblue" stroke="midnightblue" points="460.09,-29.63 463.5,-19.59 454.58,-25.31 460.09,-29.63"/>
</g>
<!-- Node18&#45;&gt;Node6 -->
<g id="edge29" class="edge">
<title>Node18&#45;&gt;Node6</title>
<path fill="none" stroke="midnightblue" d="M432.45,-116.73C500.48,-110.34 628.62,-96.94 746.87,-76.07"/>
<polygon fill="midnightblue" stroke="midnightblue" points="747.59,-79.5 756.82,-74.3 746.36,-72.61 747.59,-79.5"/>
</g>
<!-- Node18&#45;&gt;Node9 -->
<g id="edge27" class="edge">
<title>Node18&#45;&gt;Node9</title>
<path fill="none" stroke="midnightblue" d="M432.34,-112.56C487.24,-102.94 576.95,-87.21 635.28,-76.98"/>
<polygon fill="midnightblue" stroke="midnightblue" points="636.19,-80.38 645.43,-75.2 634.98,-73.48 636.19,-80.38"/>
</g>
<!-- Node18&#45;&gt;Node16 -->
<g id="edge30" class="edge">
<title>Node18&#45;&gt;Node16</title>
<path fill="none" stroke="midnightblue" d="M339.69,-112.44C290.26,-102.94 210.47,-87.61 157.43,-77.42"/>
<polygon fill="midnightblue" stroke="midnightblue" points="158.01,-73.97 147.53,-75.52 156.69,-80.84 158.01,-73.97"/>
</g>
<!-- Node19 -->
<g id="node19" class="node">
<title>Node19</title>
<g id="a_node19"><a xlink:title=" ">
<polygon fill="white" stroke="#bfbfbf" points="346.71,-56.5 346.71,-75.5 403.71,-75.5 403.71,-56.5 346.71,-56.5"/>
<text text-anchor="middle" x="375.21" y="-63.5" font-family="Helvetica,sans-Serif" font-size="10.00">typeinfo</text>
</a>
</g>
</g>
<!-- Node18&#45;&gt;Node19 -->
<g id="edge28" class="edge">
<title>Node18&#45;&gt;Node19</title>
<path fill="none" stroke="midnightblue" d="M382.73,-112.08C381.53,-104.93 379.82,-94.64 378.33,-85.69"/>
<polygon fill="midnightblue" stroke="midnightblue" points="381.77,-85.04 376.67,-75.75 374.86,-86.19 381.77,-85.04"/>
</g>
<!-- Node20 -->
<g id="node20" class="node">
<title>Node20</title>
<g id="a_node20"><a xlink:href="WalError_8hpp.html" target="_top" xlink:title=" ">
<polygon fill="white" stroke="black" points="498.71,-56.5 498.71,-75.5 627.71,-75.5 627.71,-56.5 498.71,-56.5"/>
<text text-anchor="middle" x="563.21" y="-63.5" font-family="Helvetica,sans-Serif" font-size="10.00">Exception/WalError.hpp</text>
</a>
</g>
</g>
<!-- Node18&#45;&gt;Node20 -->
<g id="edge31" class="edge">
<title>Node18&#45;&gt;Node20</title>
<path fill="none" stroke="midnightblue" d="M412.58,-112.44C442.95,-103.28 491.32,-88.69 525.03,-78.52"/>
<polygon fill="midnightblue" stroke="midnightblue" points="526.42,-81.76 534.98,-75.52 524.4,-75.05 526.42,-81.76"/>
</g>
<!-- Node22 -->
<g id="node22" class="node">
<title>Node22</title>
<g id="a_node22"><a xlink:href="TypeHolder_8hpp.html" target="_top" xlink:title=" ">
<polygon fill="white" stroke="black" points="198.21,-56.5 198.21,-75.5 328.21,-75.5 328.21,-56.5 198.21,-56.5"/>
<text text-anchor="middle" x="263.21" y="-63.5" font-family="Helvetica,sans-Serif" font-size="10.00">Models/TypeHolder.hpp</text>
</a>
</g>
</g>
<!-- Node18&#45;&gt;Node22 -->
<g id="edge35" class="edge">
<title>Node18&#45;&gt;Node22</title>
<path fill="none" stroke="midnightblue" d="M365.04,-112.44C345.3,-103.64 314.33,-89.81 291.72,-79.72"/>
<polygon fill="midnightblue" stroke="midnightblue" points="292.85,-76.4 282.3,-75.52 290,-82.79 292.85,-76.4"/>
</g>
<!-- Node20&#45;&gt;Node2 -->
<g id="edge34" class="edge">
<title>Node20&#45;&gt;Node2</title>
<path fill="none" stroke="midnightblue" d="M548.27,-56.32C533.63,-47.82 511.08,-34.73 493.97,-24.8"/>
<polygon fill="midnightblue" stroke="midnightblue" points="495.52,-21.65 485.12,-19.65 492.01,-27.7 495.52,-21.65"/>
</g>
<!-- Node20&#45;&gt;Node13 -->
<g id="edge33" class="edge">
<title>Node20&#45;&gt;Node13</title>
<path fill="none" stroke="midnightblue" d="M623.11,-56.44C699.78,-45.49 830.74,-26.78 898.22,-17.14"/>
<polygon fill="midnightblue" stroke="midnightblue" points="899.08,-20.55 908.49,-15.67 898.09,-13.62 899.08,-20.55"/>
</g>
<!-- Node21 -->
<g id="node21" class="node">
<title>Node21</title>
<g id="a_node21"><a xlink:title=" ">
<polygon fill="white" stroke="#bfbfbf" points="530.71,-0.5 530.71,-19.5 595.71,-19.5 595.71,-0.5 530.71,-0.5"/>
<text text-anchor="middle" x="563.21" y="-7.5" font-family="Helvetica,sans-Serif" font-size="10.00">exception</text>
</a>
</g>
</g>
<!-- Node20&#45;&gt;Node21 -->
<g id="edge32" class="edge">
<title>Node20&#45;&gt;Node21</title>
<path fill="none" stroke="midnightblue" d="M563.21,-56.08C563.21,-49.01 563.21,-38.86 563.21,-29.99"/>
<polygon fill="midnightblue" stroke="midnightblue" points="566.71,-29.75 563.21,-19.75 559.71,-29.75 566.71,-29.75"/>
</g>
</g>
</svg>
