<?xml version="1.0" encoding="UTF-8" standalone="no"?>
<!DOCTYPE svg PUBLIC "-//W3C//DTD SVG 1.1//EN"
 "http://www.w3.org/Graphics/SVG/1.1/DTD/svg11.dtd">
<!-- Generated by graphviz version 2.43.0 (0)
 -->
<!-- Title: sources/Component/Animation/AnimationsComponent.hpp Pages: 1 -->
<svg width="1008pt" height="173pt"
 viewBox="0.00 0.00 1007.50 173.00" xmlns="http://www.w3.org/2000/svg" xmlns:xlink="http://www.w3.org/1999/xlink">
<g id="graph0" class="graph" transform="scale(1 1) rotate(0) translate(4 169)">
<title>sources/Component/Animation/AnimationsComponent.hpp</title>
<polygon fill="white" stroke="transparent" points="-4,4 -4,-169 1003.5,-169 1003.5,4 -4,4"/>
<!-- Node1 -->
<g id="node1" class="node">
<title>Node1</title>
<g id="a_node1"><a xlink:title=" ">
<polygon fill="#bfbfbf" stroke="black" points="486,-134.5 486,-164.5 653,-164.5 653,-134.5 486,-134.5"/>
<text text-anchor="start" x="494" y="-152.5" font-family="Helvetica,sans-Serif" font-size="10.00">sources/Component/Animation</text>
<text text-anchor="middle" x="569.5" y="-141.5" font-family="Helvetica,sans-Serif" font-size="10.00">/AnimationsComponent.hpp</text>
</a>
</g>
</g>
<!-- Node2 -->
<g id="node2" class="node">
<title>Node2</title>
<g id="a_node2"><a xlink:href="AnimationsComponent_8cpp.html" target="_top" xlink:title=" ">
<polygon fill="white" stroke="black" points="0,-67.5 0,-97.5 167,-97.5 167,-67.5 0,-67.5"/>
<text text-anchor="start" x="8" y="-85.5" font-family="Helvetica,sans-Serif" font-size="10.00">sources/Component/Animation</text>
<text text-anchor="middle" x="83.5" y="-74.5" font-family="Helvetica,sans-Serif" font-size="10.00">/AnimationsComponent.cpp</text>
</a>
</g>
</g>
<!-- Node1&#45;&gt;Node2 -->
<g id="edge1" class="edge">
<title>Node1&#45;&gt;Node2</title>
<path fill="none" stroke="midnightblue" d="M475.83,-137.18C396.15,-127.38 278.71,-112.53 176.5,-98 173.43,-97.56 170.3,-97.11 167.14,-96.65"/>
<polygon fill="midnightblue" stroke="midnightblue" points="475.5,-140.67 485.85,-138.41 476.35,-133.72 475.5,-140.67"/>
</g>
<!-- Node3 -->
<g id="node3" class="node">
<title>Node3</title>
<g id="a_node3"><a xlink:href="ParserYaml_8cpp.html" target="_top" xlink:title=" ">
<polygon fill="white" stroke="black" points="185.5,-73 185.5,-92 349.5,-92 349.5,-73 185.5,-73"/>
<text text-anchor="middle" x="267.5" y="-80" font-family="Helvetica,sans-Serif" font-size="10.00">sources/Parser/ParserYaml.cpp</text>
</a>
</g>
</g>
<!-- Node1&#45;&gt;Node3 -->
<g id="edge2" class="edge">
<title>Node1&#45;&gt;Node3</title>
<path fill="none" stroke="midnightblue" d="M494.27,-132.31C434.93,-119.54 354.53,-102.23 307.13,-92.03"/>
<polygon fill="midnightblue" stroke="midnightblue" points="493.83,-135.79 504.34,-134.48 495.3,-128.95 493.83,-135.79"/>
</g>
<!-- Node4 -->
<g id="node4" class="node">
<title>Node4</title>
<g id="a_node4"><a xlink:href="GameScene_8cpp.html" target="_top" xlink:title=" ">
<polygon fill="white" stroke="black" points="368,-73 368,-92 541,-92 541,-73 368,-73"/>
<text text-anchor="middle" x="454.5" y="-80" font-family="Helvetica,sans-Serif" font-size="10.00">sources/Runner/GameScene.cpp</text>
</a>
</g>
</g>
<!-- Node1&#45;&gt;Node4 -->
<g id="edge3" class="edge">
<title>Node1&#45;&gt;Node4</title>
<path fill="none" stroke="midnightblue" d="M535.84,-129.47C513.88,-117.06 486.3,-101.47 469.55,-92.01"/>
<polygon fill="midnightblue" stroke="midnightblue" points="534.12,-132.52 544.55,-134.4 537.56,-126.43 534.12,-132.52"/>
</g>
<!-- Node5 -->
<g id="node5" class="node">
<title>Node5</title>
<g id="a_node5"><a xlink:href="AnimationsSystem_8hpp.html" target="_top" xlink:title=" ">
<polygon fill="white" stroke="black" points="598,-67.5 598,-97.5 745,-97.5 745,-67.5 598,-67.5"/>
<text text-anchor="start" x="606" y="-85.5" font-family="Helvetica,sans-Serif" font-size="10.00">sources/System/Animation</text>
<text text-anchor="middle" x="671.5" y="-74.5" font-family="Helvetica,sans-Serif" font-size="10.00">/AnimationsSystem.hpp</text>
</a>
</g>
</g>
<!-- Node1&#45;&gt;Node5 -->
<g id="edge4" class="edge">
<title>Node1&#45;&gt;Node5</title>
<path fill="none" stroke="midnightblue" d="M600.08,-129.02C615.95,-118.9 634.98,-106.77 649.41,-97.58"/>
<polygon fill="midnightblue" stroke="midnightblue" points="598.18,-126.07 591.63,-134.4 601.95,-131.97 598.18,-126.07"/>
</g>
<!-- Node7 -->
<g id="node7" class="node">
<title>Node7</title>
<g id="a_node7"><a xlink:href="AnimationsSystem_8cpp.html" target="_top" xlink:title=" ">
<polygon fill="white" stroke="black" points="513,-0.5 513,-30.5 660,-30.5 660,-0.5 513,-0.5"/>
<text text-anchor="start" x="521" y="-18.5" font-family="Helvetica,sans-Serif" font-size="10.00">sources/System/Animation</text>
<text text-anchor="middle" x="586.5" y="-7.5" font-family="Helvetica,sans-Serif" font-size="10.00">/AnimationsSystem.cpp</text>
</a>
</g>
</g>
<!-- Node1&#45;&gt;Node7 -->
<g id="edge7" class="edge">
<title>Node1&#45;&gt;Node7</title>
<path fill="none" stroke="midnightblue" d="M572.61,-124.39C576.15,-96.9 581.81,-52.89 584.69,-30.52"/>
<polygon fill="midnightblue" stroke="midnightblue" points="569.13,-124.01 571.32,-134.37 576.07,-124.9 569.13,-124.01"/>
</g>
<!-- Node8 -->
<g id="node8" class="node">
<title>Node8</title>
<g id="a_node8"><a xlink:href="AnimatorSystem_8cpp.html" target="_top" xlink:title=" ">
<polygon fill="white" stroke="black" points="857.5,-0.5 857.5,-30.5 999.5,-30.5 999.5,-0.5 857.5,-0.5"/>
<text text-anchor="start" x="865.5" y="-18.5" font-family="Helvetica,sans-Serif" font-size="10.00">sources/System/Animator</text>
<text text-anchor="middle" x="928.5" y="-7.5" font-family="Helvetica,sans-Serif" font-size="10.00">/AnimatorSystem.cpp</text>
</a>
</g>
</g>
<!-- Node1&#45;&gt;Node8 -->
<g id="edge8" class="edge">
<title>Node1&#45;&gt;Node8</title>
<path fill="none" stroke="midnightblue" d="M663.5,-146.81C753.23,-143.13 879.77,-131.88 914.5,-98 932.48,-80.46 932.42,-48.81 930.58,-30.55"/>
<polygon fill="midnightblue" stroke="midnightblue" points="663.15,-143.32 653.29,-147.2 663.42,-150.32 663.15,-143.32"/>
</g>
<!-- Node9 -->
<g id="node9" class="node">
<title>Node9</title>
<g id="a_node9"><a xlink:href="AnimatorSystem_8hpp.html" target="_top" xlink:title=" ">
<polygon fill="white" stroke="black" points="763.5,-67.5 763.5,-97.5 905.5,-97.5 905.5,-67.5 763.5,-67.5"/>
<text text-anchor="start" x="771.5" y="-85.5" font-family="Helvetica,sans-Serif" font-size="10.00">sources/System/Animator</text>
<text text-anchor="middle" x="834.5" y="-74.5" font-family="Helvetica,sans-Serif" font-size="10.00">/AnimatorSystem.hpp</text>
</a>
</g>
</g>
<!-- Node1&#45;&gt;Node9 -->
<g id="edge9" class="edge">
<title>Node1&#45;&gt;Node9</title>
<path fill="none" stroke="midnightblue" d="M636.56,-132.05C679.88,-121.43 735.67,-107.74 776.97,-97.61"/>
<polygon fill="midnightblue" stroke="midnightblue" points="635.55,-128.69 626.67,-134.48 637.22,-135.49 635.55,-128.69"/>
</g>
<!-- Node6 -->
<g id="node6" class="node">
<title>Node6</title>
<g id="a_node6"><a xlink:href="Runner_8cpp.html" target="_top" xlink:title=" ">
<polygon fill="white" stroke="black" points="686,-6 686,-25 835,-25 835,-6 686,-6"/>
<text text-anchor="middle" x="760.5" y="-13" font-family="Helvetica,sans-Serif" font-size="10.00">sources/Runner/Runner.cpp</text>
</a>
</g>
</g>
<!-- Node5&#45;&gt;Node6 -->
<g id="edge5" class="edge">
<title>Node5&#45;&gt;Node6</title>
<path fill="none" stroke="midnightblue" d="M699.15,-61.31C715.86,-49.1 736.3,-34.18 748.85,-25.01"/>
<polygon fill="midnightblue" stroke="midnightblue" points="696.82,-58.67 690.81,-67.4 700.95,-64.32 696.82,-58.67"/>
</g>
<!-- Node5&#45;&gt;Node7 -->
<g id="edge6" class="edge">
<title>Node5&#45;&gt;Node7</title>
<path fill="none" stroke="midnightblue" d="M644.91,-61.17C631.91,-51.23 616.6,-39.51 604.91,-30.58"/>
<polygon fill="midnightblue" stroke="midnightblue" points="642.99,-64.1 653.06,-67.4 647.24,-58.54 642.99,-64.1"/>
</g>
<!-- Node9&#45;&gt;Node6 -->
<g id="edge10" class="edge">
<title>Node9&#45;&gt;Node6</title>
<path fill="none" stroke="midnightblue" d="M810.79,-60.67C797.13,-48.67 780.67,-34.22 770.4,-25.19"/>
<polygon fill="midnightblue" stroke="midnightblue" points="808.62,-63.43 818.44,-67.4 813.24,-58.17 808.62,-63.43"/>
</g>
<!-- Node9&#45;&gt;Node8 -->
<g id="edge11" class="edge">
<title>Node9&#45;&gt;Node8</title>
<path fill="none" stroke="midnightblue" d="M863.49,-61.45C877.95,-51.45 895.09,-39.6 908.14,-30.58"/>
<polygon fill="midnightblue" stroke="midnightblue" points="861.13,-58.83 854.9,-67.4 865.11,-64.59 861.13,-58.83"/>
</g>
</g>
</svg>
