<?xml version="1.0" encoding="UTF-8" standalone="no"?>
<!DOCTYPE svg PUBLIC "-//W3C//DTD SVG 1.1//EN"
 "http://www.w3.org/Graphics/SVG/1.1/DTD/svg11.dtd">
<!-- Generated by graphviz version 2.43.0 (0)
 -->
<!-- Title: sources/Component/Animator/AnimatorComponent.cpp Pages: 1 -->
<svg width="758pt" height="263pt"
 viewBox="0.00 0.00 757.50 263.00" xmlns="http://www.w3.org/2000/svg" xmlns:xlink="http://www.w3.org/1999/xlink">
<g id="graph0" class="graph" transform="scale(1 1) rotate(0) translate(4 259)">
<title>sources/Component/Animator/AnimatorComponent.cpp</title>
<polygon fill="white" stroke="transparent" points="-4,4 -4,-259 753.5,-259 753.5,4 -4,4"/>
<!-- Node1 -->
<g id="node1" class="node">
<title>Node1</title>
<g id="a_node1"><a xlink:title=" ">
<polygon fill="#bfbfbf" stroke="black" points="306,-224.5 306,-254.5 467,-254.5 467,-224.5 306,-224.5"/>
<text text-anchor="start" x="314" y="-242.5" font-family="Helvetica,sans-Serif" font-size="10.00">sources/Component/Animator</text>
<text text-anchor="middle" x="386.5" y="-231.5" font-family="Helvetica,sans-Serif" font-size="10.00">/AnimatorComponent.cpp</text>
</a>
</g>
</g>
<!-- Node2 -->
<g id="node2" class="node">
<title>Node2</title>
<g id="a_node2"><a xlink:href="AnimatorComponent_8hpp.html" target="_top" xlink:title=" ">
<polygon fill="white" stroke="black" points="317,-168.5 317,-187.5 456,-187.5 456,-168.5 317,-168.5"/>
<text text-anchor="middle" x="386.5" y="-175.5" font-family="Helvetica,sans-Serif" font-size="10.00">AnimatorComponent.hpp</text>
</a>
</g>
</g>
<!-- Node1&#45;&gt;Node2 -->
<g id="edge1" class="edge">
<title>Node1&#45;&gt;Node2</title>
<path fill="none" stroke="midnightblue" d="M386.5,-224.4C386.5,-216.47 386.5,-206.46 386.5,-197.86"/>
<polygon fill="midnightblue" stroke="midnightblue" points="390,-197.66 386.5,-187.66 383,-197.66 390,-197.66"/>
</g>
<!-- Node3 -->
<g id="node3" class="node">
<title>Node3</title>
<g id="a_node3"><a xlink:href="Entity_8hpp.html" target="_top" xlink:title=" ">
<polygon fill="white" stroke="black" points="338.5,-112.5 338.5,-131.5 434.5,-131.5 434.5,-112.5 338.5,-112.5"/>
<text text-anchor="middle" x="386.5" y="-119.5" font-family="Helvetica,sans-Serif" font-size="10.00">Entity/Entity.hpp</text>
</a>
</g>
</g>
<!-- Node2&#45;&gt;Node3 -->
<g id="edge2" class="edge">
<title>Node2&#45;&gt;Node3</title>
<path fill="none" stroke="midnightblue" d="M386.5,-168.08C386.5,-161.01 386.5,-150.86 386.5,-141.99"/>
<polygon fill="midnightblue" stroke="midnightblue" points="390,-141.75 386.5,-131.75 383,-141.75 390,-141.75"/>
</g>
<!-- Node4 -->
<g id="node4" class="node">
<title>Node4</title>
<g id="a_node4"><a xlink:title=" ">
<polygon fill="white" stroke="#bfbfbf" points="421.5,-0.5 421.5,-19.5 465.5,-19.5 465.5,-0.5 421.5,-0.5"/>
<text text-anchor="middle" x="443.5" y="-7.5" font-family="Helvetica,sans-Serif" font-size="10.00">string</text>
</a>
</g>
</g>
<!-- Node3&#45;&gt;Node4 -->
<g id="edge3" class="edge">
<title>Node3&#45;&gt;Node4</title>
<path fill="none" stroke="midnightblue" d="M395.91,-112.2C404.49,-103.69 416.95,-90.05 424.5,-76 432.32,-61.43 437.28,-43.26 440.17,-29.83"/>
<polygon fill="midnightblue" stroke="midnightblue" points="443.63,-30.34 442.12,-19.86 436.76,-29 443.63,-30.34"/>
</g>
<!-- Node5 -->
<g id="node5" class="node">
<title>Node5</title>
<g id="a_node5"><a xlink:title=" ">
<polygon fill="white" stroke="#bfbfbf" points="171,-56.5 171,-75.5 264,-75.5 264,-56.5 171,-56.5"/>
<text text-anchor="middle" x="217.5" y="-63.5" font-family="Helvetica,sans-Serif" font-size="10.00">unordered_map</text>
</a>
</g>
</g>
<!-- Node3&#45;&gt;Node5 -->
<g id="edge4" class="edge">
<title>Node3&#45;&gt;Node5</title>
<path fill="none" stroke="midnightblue" d="M359.72,-112.44C331.17,-103.32 285.77,-88.81 253.96,-78.65"/>
<polygon fill="midnightblue" stroke="midnightblue" points="254.74,-75.23 244.15,-75.52 252.61,-81.89 254.74,-75.23"/>
</g>
<!-- Node6 -->
<g id="node6" class="node">
<title>Node6</title>
<g id="a_node6"><a xlink:title=" ">
<polygon fill="white" stroke="#bfbfbf" points="282,-56.5 282,-75.5 339,-75.5 339,-56.5 282,-56.5"/>
<text text-anchor="middle" x="310.5" y="-63.5" font-family="Helvetica,sans-Serif" font-size="10.00">typeinfo</text>
</a>
</g>
</g>
<!-- Node3&#45;&gt;Node6 -->
<g id="edge5" class="edge">
<title>Node3&#45;&gt;Node6</title>
<path fill="none" stroke="midnightblue" d="M374.29,-112.32C362.72,-104.11 345.12,-91.6 331.34,-81.81"/>
<polygon fill="midnightblue" stroke="midnightblue" points="333.11,-78.77 322.93,-75.83 329.06,-84.48 333.11,-78.77"/>
</g>
<!-- Node7 -->
<g id="node7" class="node">
<title>Node7</title>
<g id="a_node7"><a xlink:title=" ">
<polygon fill="white" stroke="#bfbfbf" points="357.5,-56.5 357.5,-75.5 415.5,-75.5 415.5,-56.5 357.5,-56.5"/>
<text text-anchor="middle" x="386.5" y="-63.5" font-family="Helvetica,sans-Serif" font-size="10.00">memory</text>
</a>
</g>
</g>
<!-- Node3&#45;&gt;Node7 -->
<g id="edge6" class="edge">
<title>Node3&#45;&gt;Node7</title>
<path fill="none" stroke="midnightblue" d="M386.5,-112.08C386.5,-105.01 386.5,-94.86 386.5,-85.99"/>
<polygon fill="midnightblue" stroke="midnightblue" points="390,-85.75 386.5,-75.75 383,-85.75 390,-85.75"/>
</g>
<!-- Node8 -->
<g id="node8" class="node">
<title>Node8</title>
<g id="a_node8"><a xlink:href="Component_8hpp.html" target="_top" xlink:title=" ">
<polygon fill="white" stroke="black" points="0,-56.5 0,-75.5 153,-75.5 153,-56.5 0,-56.5"/>
<text text-anchor="middle" x="76.5" y="-63.5" font-family="Helvetica,sans-Serif" font-size="10.00">Component/Component.hpp</text>
</a>
</g>
</g>
<!-- Node3&#45;&gt;Node8 -->
<g id="edge7" class="edge">
<title>Node3&#45;&gt;Node8</title>
<path fill="none" stroke="midnightblue" d="M338.4,-112.62C283.66,-103.09 194.24,-87.51 135.37,-77.26"/>
<polygon fill="midnightblue" stroke="midnightblue" points="135.93,-73.8 125.48,-75.53 134.73,-80.7 135.93,-73.8"/>
</g>
<!-- Node11 -->
<g id="node11" class="node">
<title>Node11</title>
<g id="a_node11"><a xlink:href="WalError_8hpp.html" target="_top" xlink:title=" ">
<polygon fill="white" stroke="black" points="472,-56.5 472,-75.5 601,-75.5 601,-56.5 472,-56.5"/>
<text text-anchor="middle" x="536.5" y="-63.5" font-family="Helvetica,sans-Serif" font-size="10.00">Exception/WalError.hpp</text>
</a>
</g>
</g>
<!-- Node3&#45;&gt;Node11 -->
<g id="edge11" class="edge">
<title>Node3&#45;&gt;Node11</title>
<path fill="none" stroke="midnightblue" d="M410.27,-112.44C435.39,-103.4 475.21,-89.06 503.4,-78.92"/>
<polygon fill="midnightblue" stroke="midnightblue" points="504.62,-82.2 512.84,-75.52 502.25,-75.61 504.62,-82.2"/>
</g>
<!-- Node14 -->
<g id="node14" class="node">
<title>Node14</title>
<g id="a_node14"><a xlink:href="TypeHolder_8hpp.html" target="_top" xlink:title=" ">
<polygon fill="white" stroke="black" points="619.5,-56.5 619.5,-75.5 749.5,-75.5 749.5,-56.5 619.5,-56.5"/>
<text text-anchor="middle" x="684.5" y="-63.5" font-family="Helvetica,sans-Serif" font-size="10.00">Models/TypeHolder.hpp</text>
</a>
</g>
</g>
<!-- Node3&#45;&gt;Node14 -->
<g id="edge15" class="edge">
<title>Node3&#45;&gt;Node14</title>
<path fill="none" stroke="midnightblue" d="M433.72,-112.44C486.25,-102.92 571.11,-87.55 627.35,-77.36"/>
<polygon fill="midnightblue" stroke="midnightblue" points="628.29,-80.74 637.5,-75.52 627.04,-73.86 628.29,-80.74"/>
</g>
<!-- Node8&#45;&gt;Node4 -->
<g id="edge9" class="edge">
<title>Node8&#45;&gt;Node4</title>
<path fill="none" stroke="midnightblue" d="M134.65,-56.44C212.99,-44.92 349.7,-24.8 411.53,-15.7"/>
<polygon fill="midnightblue" stroke="midnightblue" points="412.09,-19.16 421.48,-14.24 411.07,-12.23 412.09,-19.16"/>
</g>
<!-- Node9 -->
<g id="node9" class="node">
<title>Node9</title>
<g id="a_node9"><a xlink:title=" ">
<polygon fill="white" stroke="#bfbfbf" points="90,-0.5 90,-19.5 137,-19.5 137,-0.5 90,-0.5"/>
<text text-anchor="middle" x="113.5" y="-7.5" font-family="Helvetica,sans-Serif" font-size="10.00">vector</text>
</a>
</g>
</g>
<!-- Node8&#45;&gt;Node9 -->
<g id="edge8" class="edge">
<title>Node8&#45;&gt;Node9</title>
<path fill="none" stroke="midnightblue" d="M82.61,-56.08C87.78,-48.53 95.35,-37.49 101.69,-28.23"/>
<polygon fill="midnightblue" stroke="midnightblue" points="104.74,-29.98 107.5,-19.75 98.96,-26.02 104.74,-29.98"/>
</g>
<!-- Node10 -->
<g id="node10" class="node">
<title>Node10</title>
<g id="a_node10"><a xlink:title=" ">
<polygon fill="white" stroke="#bfbfbf" points="7,-0.5 7,-19.5 72,-19.5 72,-0.5 7,-0.5"/>
<text text-anchor="middle" x="39.5" y="-7.5" font-family="Helvetica,sans-Serif" font-size="10.00">typeindex</text>
</a>
</g>
</g>
<!-- Node8&#45;&gt;Node10 -->
<g id="edge10" class="edge">
<title>Node8&#45;&gt;Node10</title>
<path fill="none" stroke="midnightblue" d="M70.39,-56.08C65.22,-48.53 57.65,-37.49 51.31,-28.23"/>
<polygon fill="midnightblue" stroke="midnightblue" points="54.04,-26.02 45.5,-19.75 48.26,-29.98 54.04,-26.02"/>
</g>
<!-- Node11&#45;&gt;Node4 -->
<g id="edge14" class="edge">
<title>Node11&#45;&gt;Node4</title>
<path fill="none" stroke="midnightblue" d="M521.56,-56.32C506.91,-47.82 484.37,-34.73 467.26,-24.8"/>
<polygon fill="midnightblue" stroke="midnightblue" points="468.81,-21.65 458.4,-19.65 465.3,-27.7 468.81,-21.65"/>
</g>
<!-- Node12 -->
<g id="node12" class="node">
<title>Node12</title>
<g id="a_node12"><a xlink:title=" ">
<polygon fill="white" stroke="#bfbfbf" points="577,-0.5 577,-19.5 642,-19.5 642,-0.5 577,-0.5"/>
<text text-anchor="middle" x="609.5" y="-7.5" font-family="Helvetica,sans-Serif" font-size="10.00">exception</text>
</a>
</g>
</g>
<!-- Node11&#45;&gt;Node12 -->
<g id="edge12" class="edge">
<title>Node11&#45;&gt;Node12</title>
<path fill="none" stroke="midnightblue" d="M548.23,-56.32C559.34,-48.11 576.24,-35.6 589.48,-25.81"/>
<polygon fill="midnightblue" stroke="midnightblue" points="591.6,-28.59 597.56,-19.83 587.44,-22.97 591.6,-28.59"/>
</g>
<!-- Node13 -->
<g id="node13" class="node">
<title>Node13</title>
<g id="a_node13"><a xlink:title=" ">
<polygon fill="white" stroke="#bfbfbf" points="494,-0.5 494,-19.5 559,-19.5 559,-0.5 494,-0.5"/>
<text text-anchor="middle" x="526.5" y="-7.5" font-family="Helvetica,sans-Serif" font-size="10.00">stdexcept</text>
</a>
</g>
</g>
<!-- Node11&#45;&gt;Node13 -->
<g id="edge13" class="edge">
<title>Node11&#45;&gt;Node13</title>
<path fill="none" stroke="midnightblue" d="M534.85,-56.08C533.52,-48.93 531.62,-38.64 529.96,-29.69"/>
<polygon fill="midnightblue" stroke="midnightblue" points="533.38,-28.95 528.12,-19.75 526.5,-30.22 533.38,-28.95"/>
</g>
</g>
</svg>
