<?xml version="1.0" encoding="UTF-8" standalone="no"?>
<!DOCTYPE svg PUBLIC "-//W3C//DTD SVG 1.1//EN"
 "http://www.w3.org/Graphics/SVG/1.1/DTD/svg11.dtd">
<!-- Generated by graphviz version 2.43.0 (0)
 -->
<!-- Title: sources/Component/Bomb/BasicBombComponent.hpp Pages: 1 -->
<svg width="663pt" height="173pt"
 viewBox="0.00 0.00 662.50 173.00" xmlns="http://www.w3.org/2000/svg" xmlns:xlink="http://www.w3.org/1999/xlink">
<g id="graph0" class="graph" transform="scale(1 1) rotate(0) translate(4 169)">
<title>sources/Component/Bomb/BasicBombComponent.hpp</title>
<polygon fill="white" stroke="transparent" points="-4,4 -4,-169 658.5,-169 658.5,4 -4,4"/>
<!-- Node1 -->
<g id="node1" class="node">
<title>Node1</title>
<g id="a_node1"><a xlink:title=" ">
<polygon fill="#bfbfbf" stroke="black" points="235.5,-134.5 235.5,-164.5 387.5,-164.5 387.5,-134.5 235.5,-134.5"/>
<text text-anchor="start" x="243.5" y="-152.5" font-family="Helvetica,sans-Serif" font-size="10.00">sources/Component/Bomb</text>
<text text-anchor="middle" x="311.5" y="-141.5" font-family="Helvetica,sans-Serif" font-size="10.00">/BasicBombComponent.hpp</text>
</a>
</g>
</g>
<!-- Node2 -->
<g id="node2" class="node">
<title>Node2</title>
<g id="a_node2"><a xlink:href="BasicBombComponent_8cpp.html" target="_top" xlink:title=" ">
<polygon fill="white" stroke="black" points="0,-67.5 0,-97.5 151,-97.5 151,-67.5 0,-67.5"/>
<text text-anchor="start" x="8" y="-85.5" font-family="Helvetica,sans-Serif" font-size="10.00">sources/Component/Bomb</text>
<text text-anchor="middle" x="75.5" y="-74.5" font-family="Helvetica,sans-Serif" font-size="10.00">/BasicBombComponent.cpp</text>
</a>
</g>
</g>
<!-- Node1&#45;&gt;Node2 -->
<g id="edge1" class="edge">
<title>Node1&#45;&gt;Node2</title>
<path fill="none" stroke="midnightblue" d="M250.56,-131.71C212.15,-121.14 163.13,-107.63 126.73,-97.61"/>
<polygon fill="midnightblue" stroke="midnightblue" points="250.01,-135.19 260.58,-134.48 251.87,-128.45 250.01,-135.19"/>
</g>
<!-- Node3 -->
<g id="node3" class="node">
<title>Node3</title>
<g id="a_node3"><a xlink:href="BombSystem_8hpp.html" target="_top" xlink:title=" ">
<polygon fill="white" stroke="black" points="169,-67.5 169,-97.5 294,-97.5 294,-67.5 169,-67.5"/>
<text text-anchor="start" x="177" y="-85.5" font-family="Helvetica,sans-Serif" font-size="10.00">sources/System/Bomb</text>
<text text-anchor="middle" x="231.5" y="-74.5" font-family="Helvetica,sans-Serif" font-size="10.00">/BombSystem.hpp</text>
</a>
</g>
</g>
<!-- Node1&#45;&gt;Node3 -->
<g id="edge2" class="edge">
<title>Node1&#45;&gt;Node3</title>
<path fill="none" stroke="midnightblue" d="M286.13,-127.88C273.97,-118.01 259.72,-106.43 248.82,-97.58"/>
<polygon fill="midnightblue" stroke="midnightblue" points="284.17,-130.81 294.14,-134.4 288.59,-125.37 284.17,-130.81"/>
</g>
<!-- Node6 -->
<g id="node6" class="node">
<title>Node6</title>
<g id="a_node6"><a xlink:href="BombHolderSystem_8cpp.html" target="_top" xlink:title=" ">
<polygon fill="white" stroke="black" points="312.5,-67.5 312.5,-97.5 470.5,-97.5 470.5,-67.5 312.5,-67.5"/>
<text text-anchor="start" x="320.5" y="-85.5" font-family="Helvetica,sans-Serif" font-size="10.00">sources/System/BombHolder</text>
<text text-anchor="middle" x="391.5" y="-74.5" font-family="Helvetica,sans-Serif" font-size="10.00">/BombHolderSystem.cpp</text>
</a>
</g>
</g>
<!-- Node1&#45;&gt;Node6 -->
<g id="edge5" class="edge">
<title>Node1&#45;&gt;Node6</title>
<path fill="none" stroke="midnightblue" d="M336.87,-127.88C349.03,-118.01 363.28,-106.43 374.18,-97.58"/>
<polygon fill="midnightblue" stroke="midnightblue" points="334.41,-125.37 328.86,-134.4 338.83,-130.81 334.41,-125.37"/>
</g>
<!-- Node7 -->
<g id="node7" class="node">
<title>Node7</title>
<g id="a_node7"><a xlink:href="IAControllableSystem_8cpp.html" target="_top" xlink:title=" ">
<polygon fill="white" stroke="black" points="488.5,-67.5 488.5,-97.5 654.5,-97.5 654.5,-67.5 488.5,-67.5"/>
<text text-anchor="start" x="496.5" y="-85.5" font-family="Helvetica,sans-Serif" font-size="10.00">sources/System/IAControllable</text>
<text text-anchor="middle" x="571.5" y="-74.5" font-family="Helvetica,sans-Serif" font-size="10.00">/IAControllableSystem.cpp</text>
</a>
</g>
</g>
<!-- Node1&#45;&gt;Node7 -->
<g id="edge6" class="edge">
<title>Node1&#45;&gt;Node7</title>
<path fill="none" stroke="midnightblue" d="M377.56,-131.98C420.03,-121.37 474.62,-107.72 515.06,-97.61"/>
<polygon fill="midnightblue" stroke="midnightblue" points="376.45,-128.66 367.6,-134.48 378.15,-135.45 376.45,-128.66"/>
</g>
<!-- Node4 -->
<g id="node4" class="node">
<title>Node4</title>
<g id="a_node4"><a xlink:href="Runner_8cpp.html" target="_top" xlink:title=" ">
<polygon fill="white" stroke="black" points="79,-6 79,-25 228,-25 228,-6 79,-6"/>
<text text-anchor="middle" x="153.5" y="-13" font-family="Helvetica,sans-Serif" font-size="10.00">sources/Runner/Runner.cpp</text>
</a>
</g>
</g>
<!-- Node3&#45;&gt;Node4 -->
<g id="edge3" class="edge">
<title>Node3&#45;&gt;Node4</title>
<path fill="none" stroke="midnightblue" d="M206.51,-60.67C192.1,-48.67 174.76,-34.22 163.93,-25.19"/>
<polygon fill="midnightblue" stroke="midnightblue" points="204.65,-63.68 214.58,-67.4 209.13,-58.31 204.65,-63.68"/>
</g>
<!-- Node5 -->
<g id="node5" class="node">
<title>Node5</title>
<g id="a_node5"><a xlink:href="BombSystem_8cpp.html" target="_top" xlink:title=" ">
<polygon fill="white" stroke="black" points="246,-0.5 246,-30.5 371,-30.5 371,-0.5 246,-0.5"/>
<text text-anchor="start" x="254" y="-18.5" font-family="Helvetica,sans-Serif" font-size="10.00">sources/System/Bomb</text>
<text text-anchor="middle" x="308.5" y="-7.5" font-family="Helvetica,sans-Serif" font-size="10.00">/BombSystem.cpp</text>
</a>
</g>
</g>
<!-- Node3&#45;&gt;Node5 -->
<g id="edge4" class="edge">
<title>Node3&#45;&gt;Node5</title>
<path fill="none" stroke="midnightblue" d="M255.92,-60.88C267.62,-51.01 281.34,-39.43 291.82,-30.58"/>
<polygon fill="midnightblue" stroke="midnightblue" points="253.59,-58.27 248.21,-67.4 258.11,-63.62 253.59,-58.27"/>
</g>
</g>
</svg>
