<?xml version="1.0" encoding="UTF-8" standalone="no"?>
<!DOCTYPE svg PUBLIC "-//W3C//DTD SVG 1.1//EN"
 "http://www.w3.org/Graphics/SVG/1.1/DTD/svg11.dtd">
<!-- Generated by graphviz version 2.43.0 (0)
 -->
<!-- Title: sources/Component/Shaders/Items/BombExplosionShaderComponent.hpp Pages: 1 -->
<svg width="420pt" height="106pt"
 viewBox="0.00 0.00 420.00 106.00" xmlns="http://www.w3.org/2000/svg" xmlns:xlink="http://www.w3.org/1999/xlink">
<g id="graph0" class="graph" transform="scale(1 1) rotate(0) translate(4 102)">
<title>sources/Component/Shaders/Items/BombExplosionShaderComponent.hpp</title>
<polygon fill="white" stroke="transparent" points="-4,4 -4,-102 416,-102 416,4 -4,4"/>
<!-- Node1 -->
<g id="node1" class="node">
<title>Node1</title>
<g id="a_node1"><a xlink:title=" ">
<polygon fill="#bfbfbf" stroke="black" points="106.5,-67.5 106.5,-97.5 343.5,-97.5 343.5,-67.5 106.5,-67.5"/>
<text text-anchor="start" x="114.5" y="-85.5" font-family="Helvetica,sans-Serif" font-size="10.00">sources/Component/Shaders</text>
<text text-anchor="middle" x="225" y="-74.5" font-family="Helvetica,sans-Serif" font-size="10.00">/Items/BombExplosionShaderComponent.hpp</text>
</a>
</g>
</g>
<!-- Node2 -->
<g id="node2" class="node">
<title>Node2</title>
<g id="a_node2"><a xlink:href="BombExplosionShaderComponent_8cpp.html" target="_top" xlink:title=" ">
<polygon fill="white" stroke="black" points="0,-0.5 0,-30.5 236,-30.5 236,-0.5 0,-0.5"/>
<text text-anchor="start" x="8" y="-18.5" font-family="Helvetica,sans-Serif" font-size="10.00">sources/Component/Shaders</text>
<text text-anchor="middle" x="118" y="-7.5" font-family="Helvetica,sans-Serif" font-size="10.00">/Items/BombExplosionShaderComponent.cpp</text>
</a>
</g>
</g>
<!-- Node1&#45;&gt;Node2 -->
<g id="edge1" class="edge">
<title>Node1&#45;&gt;Node2</title>
<path fill="none" stroke="midnightblue" d="M192.92,-62.02C176.27,-51.9 156.31,-39.77 141.17,-30.58"/>
<polygon fill="midnightblue" stroke="midnightblue" points="191.42,-65.2 201.78,-67.4 195.05,-59.21 191.42,-65.2"/>
</g>
<!-- Node3 -->
<g id="node3" class="node">
<title>Node3</title>
<g id="a_node3"><a xlink:href="BombHolderSystem_8cpp.html" target="_top" xlink:title=" ">
<polygon fill="white" stroke="black" points="254,-0.5 254,-30.5 412,-30.5 412,-0.5 254,-0.5"/>
<text text-anchor="start" x="262" y="-18.5" font-family="Helvetica,sans-Serif" font-size="10.00">sources/System/BombHolder</text>
<text text-anchor="middle" x="333" y="-7.5" font-family="Helvetica,sans-Serif" font-size="10.00">/BombHolderSystem.cpp</text>
</a>
</g>
</g>
<!-- Node1&#45;&gt;Node3 -->
<g id="edge2" class="edge">
<title>Node1&#45;&gt;Node3</title>
<path fill="none" stroke="midnightblue" d="M257.37,-62.02C274.18,-51.9 294.34,-39.77 309.61,-30.58"/>
<polygon fill="midnightblue" stroke="midnightblue" points="255.2,-59.24 248.43,-67.4 258.81,-65.24 255.2,-59.24"/>
</g>
</g>
</svg>
