<?xml version="1.0" encoding="UTF-8" standalone="no"?>
<!DOCTYPE svg PUBLIC "-//W3C//DTD SVG 1.1//EN"
 "http://www.w3.org/Graphics/SVG/1.1/DTD/svg11.dtd">
<!-- Generated by graphviz version 2.43.0 (0)
 -->
<!-- Title: sources/System/Bomb/BombSystem.cpp Pages: 1 -->
<svg width="1424pt" height="509pt"
 viewBox="0.00 0.00 1424.48 509.00" xmlns="http://www.w3.org/2000/svg" xmlns:xlink="http://www.w3.org/1999/xlink">
<g id="graph0" class="graph" transform="scale(1 1) rotate(0) translate(4 505)">
<title>sources/System/Bomb/BombSystem.cpp</title>
<polygon fill="white" stroke="transparent" points="-4,4 -4,-505 1420.48,-505 1420.48,4 -4,4"/>
<!-- Node1 -->
<g id="node1" class="node">
<title>Node1</title>
<g id="a_node1"><a xlink:title=" ">
<polygon fill="#bfbfbf" stroke="black" points="417.98,-470.5 417.98,-500.5 542.98,-500.5 542.98,-470.5 417.98,-470.5"/>
<text text-anchor="start" x="425.98" y="-488.5" font-family="Helvetica,sans-Serif" font-size="10.00">sources/System/Bomb</text>
<text text-anchor="middle" x="480.48" y="-477.5" font-family="Helvetica,sans-Serif" font-size="10.00">/BombSystem.cpp</text>
</a>
</g>
</g>
<!-- Node2 -->
<g id="node2" class="node">
<title>Node2</title>
<g id="a_node2"><a xlink:href="BombHolderComponent_8hpp.html" target="_top" xlink:title=" ">
<polygon fill="white" stroke="black" points="299.48,-224.5 299.48,-254.5 457.48,-254.5 457.48,-224.5 299.48,-224.5"/>
<text text-anchor="start" x="307.48" y="-242.5" font-family="Helvetica,sans-Serif" font-size="10.00">Component/BombHolder</text>
<text text-anchor="middle" x="378.48" y="-231.5" font-family="Helvetica,sans-Serif" font-size="10.00">/BombHolderComponent.hpp</text>
</a>
</g>
</g>
<!-- Node1&#45;&gt;Node2 -->
<g id="edge1" class="edge">
<title>Node1&#45;&gt;Node2</title>
<path fill="none" stroke="midnightblue" d="M468.94,-470.14C461.51,-460.38 452.04,-446.94 445.48,-434 416.04,-376.01 394.46,-302.08 384.54,-264.61"/>
<polygon fill="midnightblue" stroke="midnightblue" points="387.85,-263.43 381.95,-254.63 381.07,-265.19 387.85,-263.43"/>
</g>
<!-- Node16 -->
<g id="node16" class="node">
<title>Node16</title>
<g id="a_node16"><a xlink:href="BombSystem_8hpp.html" target="_top" xlink:title=" ">
<polygon fill="white" stroke="black" points="454.98,-414.5 454.98,-433.5 557.98,-433.5 557.98,-414.5 454.98,-414.5"/>
<text text-anchor="middle" x="506.48" y="-421.5" font-family="Helvetica,sans-Serif" font-size="10.00">BombSystem.hpp</text>
</a>
</g>
</g>
<!-- Node1&#45;&gt;Node16 -->
<g id="edge18" class="edge">
<title>Node1&#45;&gt;Node16</title>
<path fill="none" stroke="midnightblue" d="M486.64,-470.4C490.22,-462.2 494.77,-451.78 498.61,-442.99"/>
<polygon fill="midnightblue" stroke="midnightblue" points="501.9,-444.22 502.69,-433.66 495.48,-441.42 501.9,-444.22"/>
</g>
<!-- Node3 -->
<g id="node3" class="node">
<title>Node3</title>
<g id="a_node3"><a xlink:href="Component_8hpp.html" target="_top" xlink:title=" ">
<polygon fill="white" stroke="black" points="338.98,-56.5 338.98,-75.5 491.98,-75.5 491.98,-56.5 338.98,-56.5"/>
<text text-anchor="middle" x="415.48" y="-63.5" font-family="Helvetica,sans-Serif" font-size="10.00">Component/Component.hpp</text>
</a>
</g>
</g>
<!-- Node2&#45;&gt;Node3 -->
<g id="edge2" class="edge">
<title>Node2&#45;&gt;Node3</title>
<path fill="none" stroke="midnightblue" d="M381.51,-224.47C388.14,-193.7 403.97,-120.33 411.44,-85.7"/>
<polygon fill="midnightblue" stroke="midnightblue" points="414.94,-86.07 413.63,-75.56 408.1,-84.6 414.94,-86.07"/>
</g>
<!-- Node7 -->
<g id="node7" class="node">
<title>Node7</title>
<g id="a_node7"><a xlink:href="Entity_8hpp.html" target="_top" xlink:title=" ">
<polygon fill="white" stroke="black" points="695.48,-112.5 695.48,-131.5 791.48,-131.5 791.48,-112.5 695.48,-112.5"/>
<text text-anchor="middle" x="743.48" y="-119.5" font-family="Helvetica,sans-Serif" font-size="10.00">Entity/Entity.hpp</text>
</a>
</g>
</g>
<!-- Node2&#45;&gt;Node7 -->
<g id="edge6" class="edge">
<title>Node2&#45;&gt;Node7</title>
<path fill="none" stroke="midnightblue" d="M420.61,-224.44C464.08,-210.01 533.89,-187.03 594.48,-168 631.88,-156.25 674.75,-143.36 704.88,-134.4"/>
<polygon fill="midnightblue" stroke="midnightblue" points="705.99,-137.72 714.58,-131.52 703.99,-131.01 705.99,-137.72"/>
</g>
<!-- Node15 -->
<g id="node15" class="node">
<title>Node15</title>
<g id="a_node15"><a xlink:title=" ">
<polygon fill="white" stroke="#bfbfbf" points="629.48,-168.5 629.48,-187.5 679.48,-187.5 679.48,-168.5 629.48,-168.5"/>
<text text-anchor="middle" x="654.48" y="-175.5" font-family="Helvetica,sans-Serif" font-size="10.00">chrono</text>
</a>
</g>
</g>
<!-- Node2&#45;&gt;Node15 -->
<g id="edge17" class="edge">
<title>Node2&#45;&gt;Node15</title>
<path fill="none" stroke="midnightblue" d="M443.54,-224.47C498.57,-212.61 575.32,-196.06 619.46,-186.55"/>
<polygon fill="midnightblue" stroke="midnightblue" points="620.38,-189.93 629.42,-184.4 618.91,-183.09 620.38,-189.93"/>
</g>
<!-- Node4 -->
<g id="node4" class="node">
<title>Node4</title>
<g id="a_node4"><a xlink:title=" ">
<polygon fill="white" stroke="#bfbfbf" points="1297.98,-0.5 1297.98,-19.5 1344.98,-19.5 1344.98,-0.5 1297.98,-0.5"/>
<text text-anchor="middle" x="1321.48" y="-7.5" font-family="Helvetica,sans-Serif" font-size="10.00">vector</text>
</a>
</g>
</g>
<!-- Node3&#45;&gt;Node4 -->
<g id="edge3" class="edge">
<title>Node3&#45;&gt;Node4</title>
<path fill="none" stroke="midnightblue" d="M492.37,-56.66C495.11,-56.43 497.81,-56.21 500.48,-56 820.8,-31.08 901.98,-42.55 1222.48,-20 1244.27,-18.47 1268.71,-16.25 1287.85,-14.4"/>
<polygon fill="midnightblue" stroke="midnightblue" points="1288.28,-17.87 1297.9,-13.42 1287.6,-10.91 1288.28,-17.87"/>
</g>
<!-- Node5 -->
<g id="node5" class="node">
<title>Node5</title>
<g id="a_node5"><a xlink:title=" ">
<polygon fill="white" stroke="#bfbfbf" points="857.48,-0.5 857.48,-19.5 901.48,-19.5 901.48,-0.5 857.48,-0.5"/>
<text text-anchor="middle" x="879.48" y="-7.5" font-family="Helvetica,sans-Serif" font-size="10.00">string</text>
</a>
</g>
</g>
<!-- Node3&#45;&gt;Node5 -->
<g id="edge4" class="edge">
<title>Node3&#45;&gt;Node5</title>
<path fill="none" stroke="midnightblue" d="M488.74,-56.47C591.22,-44.55 773.07,-23.38 846.93,-14.79"/>
<polygon fill="midnightblue" stroke="midnightblue" points="847.5,-18.25 857.02,-13.61 846.69,-11.29 847.5,-18.25"/>
</g>
<!-- Node6 -->
<g id="node6" class="node">
<title>Node6</title>
<g id="a_node6"><a xlink:title=" ">
<polygon fill="white" stroke="#bfbfbf" points="382.98,-0.5 382.98,-19.5 447.98,-19.5 447.98,-0.5 382.98,-0.5"/>
<text text-anchor="middle" x="415.48" y="-7.5" font-family="Helvetica,sans-Serif" font-size="10.00">typeindex</text>
</a>
</g>
</g>
<!-- Node3&#45;&gt;Node6 -->
<g id="edge5" class="edge">
<title>Node3&#45;&gt;Node6</title>
<path fill="none" stroke="midnightblue" d="M415.48,-56.08C415.48,-49.01 415.48,-38.86 415.48,-29.99"/>
<polygon fill="midnightblue" stroke="midnightblue" points="418.98,-29.75 415.48,-19.75 411.98,-29.75 418.98,-29.75"/>
</g>
<!-- Node7&#45;&gt;Node3 -->
<g id="edge11" class="edge">
<title>Node7&#45;&gt;Node3</title>
<path fill="none" stroke="midnightblue" d="M695.43,-113.09C637.7,-103.59 540.72,-87.62 477.42,-77.2"/>
<polygon fill="midnightblue" stroke="midnightblue" points="477.61,-73.68 467.17,-75.51 476.47,-80.59 477.61,-73.68"/>
</g>
<!-- Node7&#45;&gt;Node5 -->
<g id="edge7" class="edge">
<title>Node7&#45;&gt;Node5</title>
<path fill="none" stroke="midnightblue" d="M743.66,-112.24C744.42,-98.53 747.83,-71.92 762.48,-56 784.6,-31.97 820.99,-20.65 847.32,-15.39"/>
<polygon fill="midnightblue" stroke="midnightblue" points="848,-18.83 857.22,-13.61 846.76,-11.94 848,-18.83"/>
</g>
<!-- Node8 -->
<g id="node8" class="node">
<title>Node8</title>
<g id="a_node8"><a xlink:title=" ">
<polygon fill="white" stroke="#bfbfbf" points="771.98,-56.5 771.98,-75.5 864.98,-75.5 864.98,-56.5 771.98,-56.5"/>
<text text-anchor="middle" x="818.48" y="-63.5" font-family="Helvetica,sans-Serif" font-size="10.00">unordered_map</text>
</a>
</g>
</g>
<!-- Node7&#45;&gt;Node8 -->
<g id="edge8" class="edge">
<title>Node7&#45;&gt;Node8</title>
<path fill="none" stroke="midnightblue" d="M755.53,-112.32C766.94,-104.11 784.31,-91.6 797.91,-81.81"/>
<polygon fill="midnightblue" stroke="midnightblue" points="800.14,-84.52 806.21,-75.83 796.05,-78.84 800.14,-84.52"/>
</g>
<!-- Node9 -->
<g id="node9" class="node">
<title>Node9</title>
<g id="a_node9"><a xlink:title=" ">
<polygon fill="white" stroke="#bfbfbf" points="509.98,-56.5 509.98,-75.5 566.98,-75.5 566.98,-56.5 509.98,-56.5"/>
<text text-anchor="middle" x="538.48" y="-63.5" font-family="Helvetica,sans-Serif" font-size="10.00">typeinfo</text>
</a>
</g>
</g>
<!-- Node7&#45;&gt;Node9 -->
<g id="edge9" class="edge">
<title>Node7&#45;&gt;Node9</title>
<path fill="none" stroke="midnightblue" d="M710.99,-112.44C674.62,-102.86 615.7,-87.34 577.02,-77.15"/>
<polygon fill="midnightblue" stroke="midnightblue" points="577.73,-73.72 567.17,-74.56 575.95,-80.49 577.73,-73.72"/>
</g>
<!-- Node10 -->
<g id="node10" class="node">
<title>Node10</title>
<g id="a_node10"><a xlink:title=" ">
<polygon fill="white" stroke="#bfbfbf" points="957.48,-56.5 957.48,-75.5 1015.48,-75.5 1015.48,-56.5 957.48,-56.5"/>
<text text-anchor="middle" x="986.48" y="-63.5" font-family="Helvetica,sans-Serif" font-size="10.00">memory</text>
</a>
</g>
</g>
<!-- Node7&#45;&gt;Node10 -->
<g id="edge10" class="edge">
<title>Node7&#45;&gt;Node10</title>
<path fill="none" stroke="midnightblue" d="M781.98,-112.44C827.27,-102.38 902.03,-85.77 947.51,-75.66"/>
<polygon fill="midnightblue" stroke="midnightblue" points="948.3,-79.07 957.31,-73.48 946.78,-72.24 948.3,-79.07"/>
</g>
<!-- Node11 -->
<g id="node11" class="node">
<title>Node11</title>
<g id="a_node11"><a xlink:href="WalError_8hpp.html" target="_top" xlink:title=" ">
<polygon fill="white" stroke="black" points="1106.98,-56.5 1106.98,-75.5 1235.98,-75.5 1235.98,-56.5 1106.98,-56.5"/>
<text text-anchor="middle" x="1171.48" y="-63.5" font-family="Helvetica,sans-Serif" font-size="10.00">Exception/WalError.hpp</text>
</a>
</g>
</g>
<!-- Node7&#45;&gt;Node11 -->
<g id="edge12" class="edge">
<title>Node7&#45;&gt;Node11</title>
<path fill="none" stroke="midnightblue" d="M791.74,-114.91C865.98,-105.54 1008.76,-87.53 1096.53,-76.46"/>
<polygon fill="midnightblue" stroke="midnightblue" points="1097.2,-79.9 1106.69,-75.17 1096.33,-72.95 1097.2,-79.9"/>
</g>
<!-- Node14 -->
<g id="node14" class="node">
<title>Node14</title>
<g id="a_node14"><a xlink:href="TypeHolder_8hpp.html" target="_top" xlink:title=" ">
<polygon fill="white" stroke="black" points="585.48,-56.5 585.48,-75.5 715.48,-75.5 715.48,-56.5 585.48,-56.5"/>
<text text-anchor="middle" x="650.48" y="-63.5" font-family="Helvetica,sans-Serif" font-size="10.00">Models/TypeHolder.hpp</text>
</a>
</g>
</g>
<!-- Node7&#45;&gt;Node14 -->
<g id="edge16" class="edge">
<title>Node7&#45;&gt;Node14</title>
<path fill="none" stroke="midnightblue" d="M728.54,-112.32C713.89,-103.82 691.34,-90.73 674.24,-80.8"/>
<polygon fill="midnightblue" stroke="midnightblue" points="675.79,-77.65 665.38,-75.65 672.27,-83.7 675.79,-77.65"/>
</g>
<!-- Node11&#45;&gt;Node5 -->
<g id="edge15" class="edge">
<title>Node11&#45;&gt;Node5</title>
<path fill="none" stroke="midnightblue" d="M1125.21,-56.44C1065.63,-45.43 963.61,-26.56 911.77,-16.97"/>
<polygon fill="midnightblue" stroke="midnightblue" points="912.27,-13.5 901.8,-15.13 910.99,-20.39 912.27,-13.5"/>
</g>
<!-- Node12 -->
<g id="node12" class="node">
<title>Node12</title>
<g id="a_node12"><a xlink:title=" ">
<polygon fill="white" stroke="#bfbfbf" points="1064.98,-0.5 1064.98,-19.5 1129.98,-19.5 1129.98,-0.5 1064.98,-0.5"/>
<text text-anchor="middle" x="1097.48" y="-7.5" font-family="Helvetica,sans-Serif" font-size="10.00">exception</text>
</a>
</g>
</g>
<!-- Node11&#45;&gt;Node12 -->
<g id="edge13" class="edge">
<title>Node11&#45;&gt;Node12</title>
<path fill="none" stroke="midnightblue" d="M1159.59,-56.32C1148.33,-48.11 1131.19,-35.6 1117.77,-25.81"/>
<polygon fill="midnightblue" stroke="midnightblue" points="1119.72,-22.9 1109.58,-19.83 1115.6,-28.56 1119.72,-22.9"/>
</g>
<!-- Node13 -->
<g id="node13" class="node">
<title>Node13</title>
<g id="a_node13"><a xlink:title=" ">
<polygon fill="white" stroke="#bfbfbf" points="1147.98,-0.5 1147.98,-19.5 1212.98,-19.5 1212.98,-0.5 1147.98,-0.5"/>
<text text-anchor="middle" x="1180.48" y="-7.5" font-family="Helvetica,sans-Serif" font-size="10.00">stdexcept</text>
</a>
</g>
</g>
<!-- Node11&#45;&gt;Node13 -->
<g id="edge14" class="edge">
<title>Node11&#45;&gt;Node13</title>
<path fill="none" stroke="midnightblue" d="M1172.96,-56.08C1174.16,-48.93 1175.87,-38.64 1177.36,-29.69"/>
<polygon fill="midnightblue" stroke="midnightblue" points="1180.83,-30.19 1179.02,-19.75 1173.92,-29.04 1180.83,-30.19"/>
</g>
<!-- Node17 -->
<g id="node17" class="node">
<title>Node17</title>
<g id="a_node17"><a xlink:href="System_8hpp.html" target="_top" xlink:title=" ">
<polygon fill="white" stroke="black" points="651.48,-353 651.48,-372 765.48,-372 765.48,-353 651.48,-353"/>
<text text-anchor="middle" x="708.48" y="-360" font-family="Helvetica,sans-Serif" font-size="10.00">System/System.hpp</text>
</a>
</g>
</g>
<!-- Node16&#45;&gt;Node17 -->
<g id="edge19" class="edge">
<title>Node16&#45;&gt;Node17</title>
<path fill="none" stroke="midnightblue" d="M535.42,-414.48C570.74,-404.07 630.61,-386.44 669.84,-374.88"/>
<polygon fill="midnightblue" stroke="midnightblue" points="670.99,-378.19 679.59,-372.01 669.01,-371.48 670.99,-378.19"/>
</g>
<!-- Node29 -->
<g id="node29" class="node">
<title>Node29</title>
<g id="a_node29"><a xlink:href="PositionComponent_8hpp.html" target="_top" xlink:title=" ">
<polygon fill="white" stroke="black" points="111.48,-347.5 111.48,-377.5 247.48,-377.5 247.48,-347.5 111.48,-347.5"/>
<text text-anchor="start" x="119.48" y="-365.5" font-family="Helvetica,sans-Serif" font-size="10.00">Component/Position</text>
<text text-anchor="middle" x="179.48" y="-354.5" font-family="Helvetica,sans-Serif" font-size="10.00">/PositionComponent.hpp</text>
</a>
</g>
</g>
<!-- Node16&#45;&gt;Node29 -->
<g id="edge56" class="edge">
<title>Node16&#45;&gt;Node29</title>
<path fill="none" stroke="midnightblue" d="M459.63,-414.48C406.91,-404.88 320.42,-389.15 257.47,-377.69"/>
<polygon fill="midnightblue" stroke="midnightblue" points="258.05,-374.24 247.58,-375.89 256.79,-381.13 258.05,-374.24"/>
</g>
<!-- Node34 -->
<g id="node34" class="node">
<title>Node34</title>
<g id="a_node34"><a xlink:href="BasicBombComponent_8hpp.html" target="_top" xlink:title=" ">
<polygon fill="white" stroke="black" points="475.48,-224.5 475.48,-254.5 637.48,-254.5 637.48,-224.5 475.48,-224.5"/>
<text text-anchor="start" x="483.48" y="-242.5" font-family="Helvetica,sans-Serif" font-size="10.00">Component/Bomb/BasicBomb</text>
<text text-anchor="middle" x="556.48" y="-231.5" font-family="Helvetica,sans-Serif" font-size="10.00">Component.hpp</text>
</a>
</g>
</g>
<!-- Node16&#45;&gt;Node34 -->
<g id="edge63" class="edge">
<title>Node16&#45;&gt;Node34</title>
<path fill="none" stroke="midnightblue" d="M508.89,-414.2C516.26,-387.28 538.7,-305.4 549.93,-264.41"/>
<polygon fill="midnightblue" stroke="midnightblue" points="553.32,-265.26 552.59,-254.69 546.57,-263.41 553.32,-265.26"/>
</g>
<!-- Node17&#45;&gt;Node4 -->
<g id="edge21" class="edge">
<title>Node17&#45;&gt;Node4</title>
<path fill="none" stroke="midnightblue" d="M765.52,-357.76C933.8,-345.97 1416.48,-306.4 1416.48,-240.5 1416.48,-240.5 1416.48,-240.5 1416.48,-121 1416.48,-77.74 1373.87,-43.09 1345.72,-24.91"/>
<polygon fill="midnightblue" stroke="midnightblue" points="1347.51,-21.9 1337.16,-19.6 1343.82,-27.85 1347.51,-21.9"/>
</g>
<!-- Node17&#45;&gt;Node6 -->
<g id="edge23" class="edge">
<title>Node17&#45;&gt;Node6</title>
<path fill="none" stroke="midnightblue" d="M651.47,-359.77C501.45,-354.83 103.57,-339.21 51.48,-311 23.88,-296.06 18.57,-284.71 8.48,-255 -46.7,-92.55 257.22,-32.93 372.52,-16.34"/>
<polygon fill="midnightblue" stroke="midnightblue" points="373.33,-19.77 382.75,-14.92 372.36,-12.83 373.33,-19.77"/>
</g>
<!-- Node17&#45;&gt;Node7 -->
<g id="edge24" class="edge">
<title>Node17&#45;&gt;Node7</title>
<path fill="none" stroke="midnightblue" d="M723.24,-352.97C748.61,-337.35 799.68,-301.43 819.48,-255 838.46,-210.47 791.43,-162.13 763.09,-138.2"/>
<polygon fill="midnightblue" stroke="midnightblue" points="764.95,-135.19 754.99,-131.58 760.53,-140.62 764.95,-135.19"/>
</g>
<!-- Node17&#45;&gt;Node9 -->
<g id="edge22" class="edge">
<title>Node17&#45;&gt;Node9</title>
<path fill="none" stroke="midnightblue" d="M651.13,-359.94C522.09,-355.9 212.47,-343.07 113.48,-311 67.58,-296.13 44.22,-297 20.48,-255 0.13,-219 19.83,-192.05 53.48,-168 215.82,-51.94 299.71,-117.62 499.93,-76"/>
<polygon fill="midnightblue" stroke="midnightblue" points="500.82,-79.39 509.86,-73.87 499.35,-72.55 500.82,-79.39"/>
</g>
<!-- Node17&#45;&gt;Node15 -->
<g id="edge20" class="edge">
<title>Node17&#45;&gt;Node15</title>
<path fill="none" stroke="midnightblue" d="M705.87,-352.7C697.55,-324.57 671.48,-236.46 660,-197.66"/>
<polygon fill="midnightblue" stroke="midnightblue" points="663.25,-196.31 657.06,-187.71 656.54,-198.3 663.25,-196.31"/>
</g>
<!-- Node18 -->
<g id="node18" class="node">
<title>Node18</title>
<g id="a_node18"><a xlink:href="Wal_8hpp.html" target="_top" xlink:title=" ">
<polygon fill="white" stroke="black" points="1129.48,-291.5 1129.48,-310.5 1185.48,-310.5 1185.48,-291.5 1129.48,-291.5"/>
<text text-anchor="middle" x="1157.48" y="-298.5" font-family="Helvetica,sans-Serif" font-size="10.00">Wal.hpp</text>
</a>
</g>
</g>
<!-- Node17&#45;&gt;Node18 -->
<g id="edge25" class="edge">
<title>Node17&#45;&gt;Node18</title>
<path fill="none" stroke="midnightblue" d="M765.8,-353.9C858.9,-341.57 1040.51,-317.5 1119.39,-307.05"/>
<polygon fill="midnightblue" stroke="midnightblue" points="1119.92,-310.51 1129.37,-305.72 1119,-303.57 1119.92,-310.51"/>
</g>
<!-- Node20 -->
<g id="node20" class="node">
<title>Node20</title>
<g id="a_node20"><a xlink:href="ISystem_8hpp.html" target="_top" xlink:title=" ">
<polygon fill="white" stroke="black" points="693.98,-230 693.98,-249 810.98,-249 810.98,-230 693.98,-230"/>
<text text-anchor="middle" x="752.48" y="-237" font-family="Helvetica,sans-Serif" font-size="10.00">System/ISystem.hpp</text>
</a>
</g>
</g>
<!-- Node17&#45;&gt;Node20 -->
<g id="edge54" class="edge">
<title>Node17&#45;&gt;Node20</title>
<path fill="none" stroke="midnightblue" d="M711.64,-352.8C718.78,-333.18 736.25,-285.14 745.86,-258.69"/>
<polygon fill="midnightblue" stroke="midnightblue" points="749.21,-259.72 749.34,-249.12 742.63,-257.32 749.21,-259.72"/>
</g>
<!-- Node21 -->
<g id="node21" class="node">
<title>Node21</title>
<g id="a_node21"><a xlink:href="View_8hpp.html" target="_top" xlink:title=" ">
<polygon fill="white" stroke="black" points="860.48,-168.5 860.48,-187.5 948.48,-187.5 948.48,-168.5 860.48,-168.5"/>
<text text-anchor="middle" x="904.48" y="-175.5" font-family="Helvetica,sans-Serif" font-size="10.00">View/View.hpp</text>
</a>
</g>
</g>
<!-- Node17&#45;&gt;Node21 -->
<g id="edge53" class="edge">
<title>Node17&#45;&gt;Node21</title>
<path fill="none" stroke="midnightblue" d="M765.78,-353.31C795.23,-346.44 829.81,-333.88 853.48,-311 885.61,-279.93 897.83,-226.35 902.21,-197.95"/>
<polygon fill="midnightblue" stroke="midnightblue" points="905.71,-198.15 903.61,-187.77 898.78,-197.2 905.71,-198.15"/>
</g>
<!-- Node28 -->
<g id="node28" class="node">
<title>Node28</title>
<g id="a_node28"><a xlink:title=" ">
<polygon fill="white" stroke="#bfbfbf" points="221.48,-230 221.48,-249 281.48,-249 281.48,-230 221.48,-230"/>
<text text-anchor="middle" x="251.48" y="-237" font-family="Helvetica,sans-Serif" font-size="10.00">iostream</text>
</a>
</g>
</g>
<!-- Node17&#45;&gt;Node28 -->
<g id="edge55" class="edge">
<title>Node17&#45;&gt;Node28</title>
<path fill="none" stroke="midnightblue" d="M669.19,-352.96C594.66,-336.44 427.9,-297.92 290.48,-255 287.92,-254.2 285.28,-253.33 282.63,-252.42"/>
<polygon fill="midnightblue" stroke="midnightblue" points="283.79,-249.12 273.2,-249.04 281.44,-255.71 283.79,-249.12"/>
</g>
<!-- Node18&#45;&gt;Node4 -->
<g id="edge27" class="edge">
<title>Node18&#45;&gt;Node4</title>
<path fill="none" stroke="midnightblue" d="M1185.54,-300.02C1224.2,-298.62 1294.18,-290.86 1339.48,-255 1369.25,-231.44 1378.48,-216.97 1378.48,-179 1378.48,-179 1378.48,-179 1378.48,-121 1378.48,-84.3 1353.16,-47.66 1336.27,-27.3"/>
<polygon fill="midnightblue" stroke="midnightblue" points="1338.83,-24.9 1329.64,-19.62 1333.52,-29.48 1338.83,-24.9"/>
</g>
<!-- Node18&#45;&gt;Node5 -->
<g id="edge28" class="edge">
<title>Node18&#45;&gt;Node5</title>
<path fill="none" stroke="midnightblue" d="M1170.43,-291.25C1181.32,-283.16 1196.36,-270.13 1204.48,-255 1234.51,-198.99 1247.34,-158.93 1204.48,-112 1199.35,-106.38 992.15,-44.44 911.31,-20.43"/>
<polygon fill="midnightblue" stroke="midnightblue" points="912.24,-17.06 901.66,-17.57 910.25,-23.77 912.24,-17.06"/>
</g>
<!-- Node18&#45;&gt;Node9 -->
<g id="edge30" class="edge">
<title>Node18&#45;&gt;Node9</title>
<path fill="none" stroke="midnightblue" d="M1129.37,-296.13C1088.11,-289.99 1009.04,-276.46 944.48,-255 793.7,-204.88 624.66,-114.82 562.81,-80.65"/>
<polygon fill="midnightblue" stroke="midnightblue" points="564.26,-77.46 553.82,-75.66 560.86,-83.58 564.26,-77.46"/>
</g>
<!-- Node18&#45;&gt;Node10 -->
<g id="edge29" class="edge">
<title>Node18&#45;&gt;Node10</title>
<path fill="none" stroke="midnightblue" d="M1165.15,-291.46C1172.26,-282.93 1182.33,-269.09 1186.48,-255 1196.5,-220.96 1220.22,-155.08 1185.48,-112 1175.45,-99.57 1080.76,-82.31 1025.69,-73.21"/>
<polygon fill="midnightblue" stroke="midnightblue" points="1026,-69.71 1015.57,-71.55 1024.87,-76.62 1026,-69.71"/>
</g>
<!-- Node18&#45;&gt;Node11 -->
<g id="edge31" class="edge">
<title>Node18&#45;&gt;Node11</title>
<path fill="none" stroke="midnightblue" d="M1185.71,-296.11C1227.01,-289.78 1300.73,-275.82 1316.48,-255 1354.81,-204.31 1354.17,-163.17 1316.48,-112 1300.05,-89.7 1272.68,-78.13 1246.12,-72.23"/>
<polygon fill="midnightblue" stroke="midnightblue" points="1246.49,-68.74 1236,-70.24 1245.14,-75.6 1246.49,-68.74"/>
</g>
<!-- Node19 -->
<g id="node19" class="node">
<title>Node19</title>
<g id="a_node19"><a xlink:title=" ">
<polygon fill="white" stroke="#bfbfbf" points="1114.98,-112.5 1114.98,-131.5 1159.98,-131.5 1159.98,-112.5 1114.98,-112.5"/>
<text text-anchor="middle" x="1137.48" y="-119.5" font-family="Helvetica,sans-Serif" font-size="10.00">utility</text>
</a>
</g>
</g>
<!-- Node18&#45;&gt;Node19 -->
<g id="edge26" class="edge">
<title>Node18&#45;&gt;Node19</title>
<path fill="none" stroke="midnightblue" d="M1160.53,-291.41C1167.66,-269.99 1183.76,-212.72 1169.48,-168 1166.14,-157.54 1159.38,-147.43 1152.93,-139.45"/>
<polygon fill="midnightblue" stroke="midnightblue" points="1155.42,-136.98 1146.23,-131.71 1150.13,-141.56 1155.42,-136.98"/>
</g>
<!-- Node18&#45;&gt;Node20 -->
<g id="edge32" class="edge">
<title>Node18&#45;&gt;Node20</title>
<path fill="none" stroke="midnightblue" d="M1129.32,-295.86C1066.02,-286.56 910.95,-263.78 820.69,-250.52"/>
<polygon fill="midnightblue" stroke="midnightblue" points="820.95,-247.02 810.55,-249.03 819.94,-253.95 820.95,-247.02"/>
</g>
<!-- Node26 -->
<g id="node26" class="node">
<title>Node26</title>
<g id="a_node26"><a xlink:href="Callback_8hpp.html" target="_top" xlink:title=" ">
<polygon fill="white" stroke="black" points="1042.48,-168.5 1042.48,-187.5 1160.48,-187.5 1160.48,-168.5 1042.48,-168.5"/>
<text text-anchor="middle" x="1101.48" y="-175.5" font-family="Helvetica,sans-Serif" font-size="10.00">Models/Callback.hpp</text>
</a>
</g>
</g>
<!-- Node18&#45;&gt;Node26 -->
<g id="edge43" class="edge">
<title>Node18&#45;&gt;Node26</title>
<path fill="none" stroke="midnightblue" d="M1153.45,-291.3C1144.33,-271.59 1121.94,-223.21 1109.73,-196.84"/>
<polygon fill="midnightblue" stroke="midnightblue" points="1112.84,-195.23 1105.47,-187.62 1106.49,-198.17 1112.84,-195.23"/>
</g>
<!-- Node27 -->
<g id="node27" class="node">
<title>Node27</title>
<g id="a_node27"><a xlink:href="Scene_8hpp.html" target="_top" xlink:title=" ">
<polygon fill="white" stroke="black" points="953.98,-230 953.98,-249 1052.98,-249 1052.98,-230 953.98,-230"/>
<text text-anchor="middle" x="1003.48" y="-237" font-family="Helvetica,sans-Serif" font-size="10.00">Scene/Scene.hpp</text>
</a>
</g>
</g>
<!-- Node18&#45;&gt;Node27 -->
<g id="edge47" class="edge">
<title>Node18&#45;&gt;Node27</title>
<path fill="none" stroke="midnightblue" d="M1135.41,-291.48C1109.11,-281.31 1064.96,-264.26 1035.05,-252.7"/>
<polygon fill="midnightblue" stroke="midnightblue" points="1036.09,-249.35 1025.5,-249.01 1033.57,-255.88 1036.09,-249.35"/>
</g>
<!-- Node20&#45;&gt;Node7 -->
<g id="edge33" class="edge">
<title>Node20&#45;&gt;Node7</title>
<path fill="none" stroke="midnightblue" d="M751.8,-229.82C750.35,-211.26 746.93,-167.34 744.96,-141.97"/>
<polygon fill="midnightblue" stroke="midnightblue" points="748.43,-141.48 744.16,-131.78 741.45,-142.02 748.43,-141.48"/>
</g>
<!-- Node20&#45;&gt;Node15 -->
<g id="edge42" class="edge">
<title>Node20&#45;&gt;Node15</title>
<path fill="none" stroke="midnightblue" d="M738.44,-229.98C722.43,-220.25 696.03,-204.23 677.1,-192.74"/>
<polygon fill="midnightblue" stroke="midnightblue" points="678.86,-189.71 668.49,-187.51 675.22,-195.69 678.86,-189.71"/>
</g>
<!-- Node20&#45;&gt;Node21 -->
<g id="edge34" class="edge">
<title>Node20&#45;&gt;Node21</title>
<path fill="none" stroke="midnightblue" d="M774.26,-229.98C800.22,-219.81 843.79,-202.76 873.31,-191.2"/>
<polygon fill="midnightblue" stroke="midnightblue" points="874.7,-194.41 882.74,-187.51 872.15,-187.9 874.7,-194.41"/>
</g>
<!-- Node21&#45;&gt;Node6 -->
<g id="edge37" class="edge">
<title>Node21&#45;&gt;Node6</title>
<path fill="none" stroke="midnightblue" d="M882.02,-168.38C866.71,-161.18 847.61,-149.29 838.48,-132 834.32,-124.14 835.13,-120.24 838.48,-112 846.87,-91.32 865.08,-96.68 873.48,-76 876.82,-67.76 879.45,-62.59 873.48,-56 845.89,-25.57 567.06,-14.99 458.45,-12.01"/>
<polygon fill="midnightblue" stroke="midnightblue" points="458.28,-8.5 448.19,-11.73 458.09,-15.5 458.28,-8.5"/>
</g>
<!-- Node21&#45;&gt;Node7 -->
<g id="edge41" class="edge">
<title>Node21&#45;&gt;Node7</title>
<path fill="none" stroke="midnightblue" d="M878.97,-168.44C851.88,-159.36 808.89,-144.94 778.61,-134.78"/>
<polygon fill="midnightblue" stroke="midnightblue" points="779.46,-131.38 768.87,-131.52 777.24,-138.01 779.46,-131.38"/>
</g>
<!-- Node21&#45;&gt;Node19 -->
<g id="edge39" class="edge">
<title>Node21&#45;&gt;Node19</title>
<path fill="none" stroke="midnightblue" d="M946.44,-168.46C985.27,-160.38 1044.79,-147.54 1104.81,-132.32"/>
<polygon fill="midnightblue" stroke="midnightblue" points="1106.01,-135.62 1114.84,-129.75 1104.28,-128.84 1106.01,-135.62"/>
</g>
<!-- Node22 -->
<g id="node22" class="node">
<title>Node22</title>
<g id="a_node22"><a xlink:title=" ">
<polygon fill="white" stroke="#bfbfbf" points="981.48,-112.5 981.48,-131.5 1013.48,-131.5 1013.48,-112.5 981.48,-112.5"/>
<text text-anchor="middle" x="997.48" y="-119.5" font-family="Helvetica,sans-Serif" font-size="10.00">list</text>
</a>
</g>
</g>
<!-- Node21&#45;&gt;Node22 -->
<g id="edge35" class="edge">
<title>Node21&#45;&gt;Node22</title>
<path fill="none" stroke="midnightblue" d="M919.42,-168.32C934.06,-159.82 956.61,-146.73 973.71,-136.8"/>
<polygon fill="midnightblue" stroke="midnightblue" points="975.68,-139.7 982.57,-131.65 972.17,-133.65 975.68,-139.7"/>
</g>
<!-- Node23 -->
<g id="node23" class="node">
<title>Node23</title>
<g id="a_node23"><a xlink:title=" ">
<polygon fill="white" stroke="#bfbfbf" points="847.98,-112.5 847.98,-131.5 888.98,-131.5 888.98,-112.5 847.98,-112.5"/>
<text text-anchor="middle" x="868.48" y="-119.5" font-family="Helvetica,sans-Serif" font-size="10.00">tuple</text>
</a>
</g>
</g>
<!-- Node21&#45;&gt;Node23 -->
<g id="edge36" class="edge">
<title>Node21&#45;&gt;Node23</title>
<path fill="none" stroke="midnightblue" d="M898.53,-168.08C893.5,-160.53 886.14,-149.49 879.96,-140.23"/>
<polygon fill="midnightblue" stroke="midnightblue" points="882.77,-138.13 874.31,-131.75 876.95,-142.01 882.77,-138.13"/>
</g>
<!-- Node24 -->
<g id="node24" class="node">
<title>Node24</title>
<g id="a_node24"><a xlink:title=" ">
<polygon fill="white" stroke="#bfbfbf" points="1031.98,-112.5 1031.98,-131.5 1096.98,-131.5 1096.98,-112.5 1031.98,-112.5"/>
<text text-anchor="middle" x="1064.48" y="-119.5" font-family="Helvetica,sans-Serif" font-size="10.00">functional</text>
</a>
</g>
</g>
<!-- Node21&#45;&gt;Node24 -->
<g id="edge38" class="edge">
<title>Node21&#45;&gt;Node24</title>
<path fill="none" stroke="midnightblue" d="M929.83,-168.44C956.75,-159.36 999.47,-144.94 1029.56,-134.78"/>
<polygon fill="midnightblue" stroke="midnightblue" points="1030.89,-138.03 1039.24,-131.52 1028.65,-131.4 1030.89,-138.03"/>
</g>
<!-- Node25 -->
<g id="node25" class="node">
<title>Node25</title>
<g id="a_node25"><a xlink:title=" ">
<polygon fill="white" stroke="#bfbfbf" points="907.48,-112.5 907.48,-131.5 963.48,-131.5 963.48,-112.5 907.48,-112.5"/>
<text text-anchor="middle" x="935.48" y="-119.5" font-family="Helvetica,sans-Serif" font-size="10.00">optional</text>
</a>
</g>
</g>
<!-- Node21&#45;&gt;Node25 -->
<g id="edge40" class="edge">
<title>Node21&#45;&gt;Node25</title>
<path fill="none" stroke="midnightblue" d="M909.6,-168.08C913.88,-160.61 920.14,-149.72 925.42,-140.52"/>
<polygon fill="midnightblue" stroke="midnightblue" points="928.51,-142.17 930.45,-131.75 922.44,-138.68 928.51,-142.17"/>
</g>
<!-- Node26&#45;&gt;Node8 -->
<g id="edge46" class="edge">
<title>Node26&#45;&gt;Node8</title>
<path fill="none" stroke="midnightblue" d="M1122.36,-168.45C1148.76,-156.47 1188.57,-133.7 1169.48,-112 1159.87,-101.08 972.45,-81.7 875.51,-72.34"/>
<polygon fill="midnightblue" stroke="midnightblue" points="875.58,-68.83 865.29,-71.36 874.91,-75.8 875.58,-68.83"/>
</g>
<!-- Node26&#45;&gt;Node19 -->
<g id="edge45" class="edge">
<title>Node26&#45;&gt;Node19</title>
<path fill="none" stroke="midnightblue" d="M1107.42,-168.08C1112.45,-160.53 1119.81,-149.49 1125.99,-140.23"/>
<polygon fill="midnightblue" stroke="midnightblue" points="1129.01,-142.01 1131.64,-131.75 1123.18,-138.13 1129.01,-142.01"/>
</g>
<!-- Node26&#45;&gt;Node24 -->
<g id="edge44" class="edge">
<title>Node26&#45;&gt;Node24</title>
<path fill="none" stroke="midnightblue" d="M1095.37,-168.08C1090.2,-160.53 1082.63,-149.49 1076.28,-140.23"/>
<polygon fill="midnightblue" stroke="midnightblue" points="1079.01,-138.02 1070.47,-131.75 1073.24,-141.98 1079.01,-138.02"/>
</g>
<!-- Node27&#45;&gt;Node4 -->
<g id="edge48" class="edge">
<title>Node27&#45;&gt;Node4</title>
<path fill="none" stroke="midnightblue" d="M1053.09,-230.99C1087.83,-223.99 1134.16,-211.05 1169.48,-188 1236.14,-144.49 1290.03,-63.47 1311.47,-28.18"/>
<polygon fill="midnightblue" stroke="midnightblue" points="1314.53,-29.88 1316.64,-19.5 1308.51,-26.3 1314.53,-29.88"/>
</g>
<!-- Node27&#45;&gt;Node7 -->
<g id="edge52" class="edge">
<title>Node27&#45;&gt;Node7</title>
<path fill="none" stroke="midnightblue" d="M970.96,-229.96C939.63,-221.2 891.26,-206.31 851.48,-188 819.61,-173.34 785.31,-151.56 764.12,-137.32"/>
<polygon fill="midnightblue" stroke="midnightblue" points="765.86,-134.27 755.62,-131.54 761.92,-140.06 765.86,-134.27"/>
</g>
<!-- Node27&#45;&gt;Node21 -->
<g id="edge51" class="edge">
<title>Node27&#45;&gt;Node21</title>
<path fill="none" stroke="midnightblue" d="M989.29,-229.98C973.12,-220.25 946.45,-204.23 927.33,-192.74"/>
<polygon fill="midnightblue" stroke="midnightblue" points="929.01,-189.66 918.64,-187.51 925.4,-195.66 929.01,-189.66"/>
</g>
<!-- Node27&#45;&gt;Node22 -->
<g id="edge49" class="edge">
<title>Node27&#45;&gt;Node22</title>
<path fill="none" stroke="midnightblue" d="M1002.93,-229.92C1002.3,-219.88 1001.25,-202.73 1000.48,-188 999.66,-172.47 998.85,-154.84 998.28,-141.87"/>
<polygon fill="midnightblue" stroke="midnightblue" points="1001.78,-141.67 997.85,-131.83 994.78,-141.98 1001.78,-141.67"/>
</g>
<!-- Node27&#45;&gt;Node24 -->
<g id="edge50" class="edge">
<title>Node27&#45;&gt;Node24</title>
<path fill="none" stroke="midnightblue" d="M1006.46,-230C1011.35,-216.48 1021.68,-189.45 1033.48,-168 1038.85,-158.23 1045.82,-147.95 1051.79,-139.69"/>
<polygon fill="midnightblue" stroke="midnightblue" points="1054.62,-141.75 1057.75,-131.63 1048.99,-137.58 1054.62,-141.75"/>
</g>
<!-- Node29&#45;&gt;Node3 -->
<g id="edge62" class="edge">
<title>Node29&#45;&gt;Node3</title>
<path fill="none" stroke="midnightblue" d="M125.73,-347.47C101.47,-339.41 73.42,-327.54 51.48,-311 -0.05,-272.17 -20.43,-212.3 26.48,-168 72.08,-124.92 245.56,-92.53 344.76,-77.06"/>
<polygon fill="midnightblue" stroke="midnightblue" points="345.36,-80.51 354.71,-75.53 344.29,-73.59 345.36,-80.51"/>
</g>
<!-- Node30 -->
<g id="node30" class="node">
<title>Node30</title>
<g id="a_node30"><a xlink:href="sources_2Models_2Vector3_8hpp.html" target="_top" xlink:title=" ">
<polygon fill="white" stroke="black" points="122.98,-291.5 122.98,-310.5 235.98,-310.5 235.98,-291.5 122.98,-291.5"/>
<text text-anchor="middle" x="179.48" y="-298.5" font-family="Helvetica,sans-Serif" font-size="10.00">Models/Vector3.hpp</text>
</a>
</g>
</g>
<!-- Node29&#45;&gt;Node30 -->
<g id="edge57" class="edge">
<title>Node29&#45;&gt;Node30</title>
<path fill="none" stroke="midnightblue" d="M179.48,-347.4C179.48,-339.47 179.48,-329.46 179.48,-320.86"/>
<polygon fill="midnightblue" stroke="midnightblue" points="182.98,-320.66 179.48,-310.66 175.98,-320.66 182.98,-320.66"/>
</g>
<!-- Node30&#45;&gt;Node28 -->
<g id="edge58" class="edge">
<title>Node30&#45;&gt;Node28</title>
<path fill="none" stroke="midnightblue" d="M189.79,-291.48C201.13,-282.11 219.55,-266.88 233.32,-255.51"/>
<polygon fill="midnightblue" stroke="midnightblue" points="235.7,-258.08 241.18,-249.01 231.24,-252.68 235.7,-258.08"/>
</g>
<!-- Node31 -->
<g id="node31" class="node">
<title>Node31</title>
<g id="a_node31"><a xlink:title=" ">
<polygon fill="white" stroke="#bfbfbf" points="155.98,-230 155.98,-249 202.98,-249 202.98,-230 155.98,-230"/>
<text text-anchor="middle" x="179.48" y="-237" font-family="Helvetica,sans-Serif" font-size="10.00">cmath</text>
</a>
</g>
</g>
<!-- Node30&#45;&gt;Node31 -->
<g id="edge59" class="edge">
<title>Node30&#45;&gt;Node31</title>
<path fill="none" stroke="midnightblue" d="M179.48,-291.48C179.48,-283.08 179.48,-269.98 179.48,-259.16"/>
<polygon fill="midnightblue" stroke="midnightblue" points="182.98,-259.01 179.48,-249.01 175.98,-259.01 182.98,-259.01"/>
</g>
<!-- Node32 -->
<g id="node32" class="node">
<title>Node32</title>
<g id="a_node32"><a xlink:href="lib_2Ray_2sources_2Vector_2Vector3_8hpp.html" target="_top" xlink:title=" ">
<polygon fill="white" stroke="black" points="29.48,-230 29.48,-249 137.48,-249 137.48,-230 29.48,-230"/>
<text text-anchor="middle" x="83.48" y="-237" font-family="Helvetica,sans-Serif" font-size="10.00">Vector/Vector3.hpp</text>
</a>
</g>
</g>
<!-- Node30&#45;&gt;Node32 -->
<g id="edge60" class="edge">
<title>Node30&#45;&gt;Node32</title>
<path fill="none" stroke="midnightblue" d="M165.72,-291.48C150.11,-281.8 124.41,-265.87 105.89,-254.39"/>
<polygon fill="midnightblue" stroke="midnightblue" points="107.55,-251.3 97.21,-249.01 103.86,-257.25 107.55,-251.3"/>
</g>
<!-- Node33 -->
<g id="node33" class="node">
<title>Node33</title>
<g id="a_node33"><a xlink:title=" ">
<polygon fill="white" stroke="#bfbfbf" points="62.98,-168.5 62.98,-187.5 115.98,-187.5 115.98,-168.5 62.98,-168.5"/>
<text text-anchor="middle" x="89.48" y="-175.5" font-family="Helvetica,sans-Serif" font-size="10.00">raylib.h</text>
</a>
</g>
</g>
<!-- Node32&#45;&gt;Node33 -->
<g id="edge61" class="edge">
<title>Node32&#45;&gt;Node33</title>
<path fill="none" stroke="midnightblue" d="M84.34,-229.98C85.18,-221.58 86.5,-208.48 87.6,-197.66"/>
<polygon fill="midnightblue" stroke="midnightblue" points="91.1,-197.81 88.62,-187.51 84.13,-197.11 91.1,-197.81"/>
</g>
<!-- Node34&#45;&gt;Node3 -->
<g id="edge64" class="edge">
<title>Node34&#45;&gt;Node3</title>
<path fill="none" stroke="midnightblue" d="M544.94,-224.47C519.1,-193.03 456.68,-117.12 429.04,-83.5"/>
<polygon fill="midnightblue" stroke="midnightblue" points="431.57,-81.06 422.51,-75.56 426.16,-85.51 431.57,-81.06"/>
</g>
<!-- Node34&#45;&gt;Node7 -->
<g id="edge65" class="edge">
<title>Node34&#45;&gt;Node7</title>
<path fill="none" stroke="midnightblue" d="M566,-224.45C577.32,-208.72 597.57,-183.41 620.48,-168 643.53,-152.49 672.59,-141.54 696.67,-134.32"/>
<polygon fill="midnightblue" stroke="midnightblue" points="697.67,-137.68 706.32,-131.55 695.74,-130.95 697.67,-137.68"/>
</g>
<!-- Node34&#45;&gt;Node15 -->
<g id="edge66" class="edge">
<title>Node34&#45;&gt;Node15</title>
<path fill="none" stroke="midnightblue" d="M579.7,-224.4C595.26,-214.95 615.67,-202.56 631.24,-193.11"/>
<polygon fill="midnightblue" stroke="midnightblue" points="633.49,-195.84 640.22,-187.66 629.85,-189.86 633.49,-195.84"/>
</g>
</g>
</svg>
