<?xml version="1.0" encoding="UTF-8" standalone="no"?>
<!DOCTYPE svg PUBLIC "-//W3C//DTD SVG 1.1//EN"
 "http://www.w3.org/Graphics/SVG/1.1/DTD/svg11.dtd">
<!-- Generated by graphviz version 2.43.0 (0)
 -->
<!-- Title: sources/Component/BombHolder/BombHolderComponent.hpp Pages: 1 -->
<svg width="764pt" height="207pt"
 viewBox="0.00 0.00 763.50 207.00" xmlns="http://www.w3.org/2000/svg" xmlns:xlink="http://www.w3.org/1999/xlink">
<g id="graph0" class="graph" transform="scale(1 1) rotate(0) translate(4 203)">
<title>sources/Component/BombHolder/BombHolderComponent.hpp</title>
<polygon fill="white" stroke="transparent" points="-4,4 -4,-203 759.5,-203 759.5,4 -4,4"/>
<!-- Node1 -->
<g id="node1" class="node">
<title>Node1</title>
<g id="a_node1"><a xlink:title=" ">
<polygon fill="#bfbfbf" stroke="black" points="219,-168.5 219,-198.5 396,-198.5 396,-168.5 219,-168.5"/>
<text text-anchor="start" x="227" y="-186.5" font-family="Helvetica,sans-Serif" font-size="10.00">sources/Component/BombHolder</text>
<text text-anchor="middle" x="307.5" y="-175.5" font-family="Helvetica,sans-Serif" font-size="10.00">/BombHolderComponent.hpp</text>
</a>
</g>
</g>
<!-- Node2 -->
<g id="node2" class="node">
<title>Node2</title>
<g id="a_node2"><a xlink:href="Component_8hpp.html" target="_top" xlink:title=" ">
<polygon fill="white" stroke="black" points="5,-56.5 5,-75.5 158,-75.5 158,-56.5 5,-56.5"/>
<text text-anchor="middle" x="81.5" y="-63.5" font-family="Helvetica,sans-Serif" font-size="10.00">Component/Component.hpp</text>
</a>
</g>
</g>
<!-- Node1&#45;&gt;Node2 -->
<g id="edge1" class="edge">
<title>Node1&#45;&gt;Node2</title>
<path fill="none" stroke="midnightblue" d="M279.79,-168.34C235.63,-145.77 149.92,-101.97 107.11,-80.09"/>
<polygon fill="midnightblue" stroke="midnightblue" points="108.67,-76.96 98.18,-75.52 105.49,-83.19 108.67,-76.96"/>
</g>
<!-- Node6 -->
<g id="node6" class="node">
<title>Node6</title>
<g id="a_node6"><a xlink:href="Entity_8hpp.html" target="_top" xlink:title=" ">
<polygon fill="white" stroke="black" points="259.5,-112.5 259.5,-131.5 355.5,-131.5 355.5,-112.5 259.5,-112.5"/>
<text text-anchor="middle" x="307.5" y="-119.5" font-family="Helvetica,sans-Serif" font-size="10.00">Entity/Entity.hpp</text>
</a>
</g>
</g>
<!-- Node1&#45;&gt;Node6 -->
<g id="edge5" class="edge">
<title>Node1&#45;&gt;Node6</title>
<path fill="none" stroke="midnightblue" d="M307.5,-168.4C307.5,-160.47 307.5,-150.46 307.5,-141.86"/>
<polygon fill="midnightblue" stroke="midnightblue" points="311,-141.66 307.5,-131.66 304,-141.66 311,-141.66"/>
</g>
<!-- Node14 -->
<g id="node14" class="node">
<title>Node14</title>
<g id="a_node14"><a xlink:title=" ">
<polygon fill="white" stroke="#bfbfbf" points="373.5,-112.5 373.5,-131.5 423.5,-131.5 423.5,-112.5 373.5,-112.5"/>
<text text-anchor="middle" x="398.5" y="-119.5" font-family="Helvetica,sans-Serif" font-size="10.00">chrono</text>
</a>
</g>
</g>
<!-- Node1&#45;&gt;Node14 -->
<g id="edge16" class="edge">
<title>Node1&#45;&gt;Node14</title>
<path fill="none" stroke="midnightblue" d="M329.07,-168.4C343.38,-159.04 362.11,-146.79 376.51,-137.38"/>
<polygon fill="midnightblue" stroke="midnightblue" points="378.8,-140.06 385.26,-131.66 374.97,-134.2 378.8,-140.06"/>
</g>
<!-- Node3 -->
<g id="node3" class="node">
<title>Node3</title>
<g id="a_node3"><a xlink:title=" ">
<polygon fill="white" stroke="#bfbfbf" points="0,-0.5 0,-19.5 47,-19.5 47,-0.5 0,-0.5"/>
<text text-anchor="middle" x="23.5" y="-7.5" font-family="Helvetica,sans-Serif" font-size="10.00">vector</text>
</a>
</g>
</g>
<!-- Node2&#45;&gt;Node3 -->
<g id="edge2" class="edge">
<title>Node2&#45;&gt;Node3</title>
<path fill="none" stroke="midnightblue" d="M72.18,-56.32C63.61,-48.34 50.69,-36.31 40.31,-26.65"/>
<polygon fill="midnightblue" stroke="midnightblue" points="42.69,-24.09 32.99,-19.83 37.92,-29.21 42.69,-24.09"/>
</g>
<!-- Node4 -->
<g id="node4" class="node">
<title>Node4</title>
<g id="a_node4"><a xlink:title=" ">
<polygon fill="white" stroke="#bfbfbf" points="164.5,-0.5 164.5,-19.5 208.5,-19.5 208.5,-0.5 164.5,-0.5"/>
<text text-anchor="middle" x="186.5" y="-7.5" font-family="Helvetica,sans-Serif" font-size="10.00">string</text>
</a>
</g>
</g>
<!-- Node2&#45;&gt;Node4 -->
<g id="edge3" class="edge">
<title>Node2&#45;&gt;Node4</title>
<path fill="none" stroke="midnightblue" d="M98.37,-56.32C115.21,-47.66 141.31,-34.24 160.74,-24.25"/>
<polygon fill="midnightblue" stroke="midnightblue" points="162.38,-27.34 169.67,-19.65 159.18,-21.12 162.38,-27.34"/>
</g>
<!-- Node5 -->
<g id="node5" class="node">
<title>Node5</title>
<g id="a_node5"><a xlink:title=" ">
<polygon fill="white" stroke="#bfbfbf" points="65,-0.5 65,-19.5 130,-19.5 130,-0.5 65,-0.5"/>
<text text-anchor="middle" x="97.5" y="-7.5" font-family="Helvetica,sans-Serif" font-size="10.00">typeindex</text>
</a>
</g>
</g>
<!-- Node2&#45;&gt;Node5 -->
<g id="edge4" class="edge">
<title>Node2&#45;&gt;Node5</title>
<path fill="none" stroke="midnightblue" d="M84.14,-56.08C86.29,-48.85 89.38,-38.41 92.05,-29.4"/>
<polygon fill="midnightblue" stroke="midnightblue" points="95.42,-30.33 94.91,-19.75 88.71,-28.34 95.42,-30.33"/>
</g>
<!-- Node6&#45;&gt;Node2 -->
<g id="edge10" class="edge">
<title>Node6&#45;&gt;Node2</title>
<path fill="none" stroke="midnightblue" d="M271.69,-112.44C232.51,-103.08 169.62,-88.06 126.98,-77.87"/>
<polygon fill="midnightblue" stroke="midnightblue" points="127.68,-74.44 117.14,-75.52 126.06,-81.24 127.68,-74.44"/>
</g>
<!-- Node6&#45;&gt;Node4 -->
<g id="edge6" class="edge">
<title>Node6&#45;&gt;Node4</title>
<path fill="none" stroke="midnightblue" d="M268.75,-112.47C247.33,-105.88 221.83,-94.63 205.5,-76 194.25,-63.17 189.65,-43.98 187.77,-29.78"/>
<polygon fill="midnightblue" stroke="midnightblue" points="191.24,-29.28 186.78,-19.67 184.27,-29.97 191.24,-29.28"/>
</g>
<!-- Node7 -->
<g id="node7" class="node">
<title>Node7</title>
<g id="a_node7"><a xlink:title=" ">
<polygon fill="white" stroke="#bfbfbf" points="215,-56.5 215,-75.5 308,-75.5 308,-56.5 215,-56.5"/>
<text text-anchor="middle" x="261.5" y="-63.5" font-family="Helvetica,sans-Serif" font-size="10.00">unordered_map</text>
</a>
</g>
</g>
<!-- Node6&#45;&gt;Node7 -->
<g id="edge7" class="edge">
<title>Node6&#45;&gt;Node7</title>
<path fill="none" stroke="midnightblue" d="M299.9,-112.08C293.27,-104.3 283.48,-92.8 275.44,-83.37"/>
<polygon fill="midnightblue" stroke="midnightblue" points="278.1,-81.09 268.95,-75.75 272.77,-85.63 278.1,-81.09"/>
</g>
<!-- Node8 -->
<g id="node8" class="node">
<title>Node8</title>
<g id="a_node8"><a xlink:title=" ">
<polygon fill="white" stroke="#bfbfbf" points="326,-56.5 326,-75.5 383,-75.5 383,-56.5 326,-56.5"/>
<text text-anchor="middle" x="354.5" y="-63.5" font-family="Helvetica,sans-Serif" font-size="10.00">typeinfo</text>
</a>
</g>
</g>
<!-- Node6&#45;&gt;Node8 -->
<g id="edge8" class="edge">
<title>Node6&#45;&gt;Node8</title>
<path fill="none" stroke="midnightblue" d="M315.26,-112.08C322.04,-104.3 332.04,-92.8 340.26,-83.37"/>
<polygon fill="midnightblue" stroke="midnightblue" points="342.96,-85.59 346.88,-75.75 337.68,-81 342.96,-85.59"/>
</g>
<!-- Node9 -->
<g id="node9" class="node">
<title>Node9</title>
<g id="a_node9"><a xlink:title=" ">
<polygon fill="white" stroke="#bfbfbf" points="401.5,-56.5 401.5,-75.5 459.5,-75.5 459.5,-56.5 401.5,-56.5"/>
<text text-anchor="middle" x="430.5" y="-63.5" font-family="Helvetica,sans-Serif" font-size="10.00">memory</text>
</a>
</g>
</g>
<!-- Node6&#45;&gt;Node9 -->
<g id="edge9" class="edge">
<title>Node6&#45;&gt;Node9</title>
<path fill="none" stroke="midnightblue" d="M326.99,-112.44C347.14,-103.6 378.82,-89.69 401.83,-79.59"/>
<polygon fill="midnightblue" stroke="midnightblue" points="403.35,-82.74 411.1,-75.52 400.54,-76.33 403.35,-82.74"/>
</g>
<!-- Node10 -->
<g id="node10" class="node">
<title>Node10</title>
<g id="a_node10"><a xlink:href="WalError_8hpp.html" target="_top" xlink:title=" ">
<polygon fill="white" stroke="black" points="478,-56.5 478,-75.5 607,-75.5 607,-56.5 478,-56.5"/>
<text text-anchor="middle" x="542.5" y="-63.5" font-family="Helvetica,sans-Serif" font-size="10.00">Exception/WalError.hpp</text>
</a>
</g>
</g>
<!-- Node6&#45;&gt;Node10 -->
<g id="edge11" class="edge">
<title>Node6&#45;&gt;Node10</title>
<path fill="none" stroke="midnightblue" d="M344.74,-112.44C385.56,-103.06 451.14,-87.99 495.48,-77.8"/>
<polygon fill="midnightblue" stroke="midnightblue" points="496.48,-81.17 505.44,-75.52 494.91,-74.34 496.48,-81.17"/>
</g>
<!-- Node13 -->
<g id="node13" class="node">
<title>Node13</title>
<g id="a_node13"><a xlink:href="TypeHolder_8hpp.html" target="_top" xlink:title=" ">
<polygon fill="white" stroke="black" points="625.5,-56.5 625.5,-75.5 755.5,-75.5 755.5,-56.5 625.5,-56.5"/>
<text text-anchor="middle" x="690.5" y="-63.5" font-family="Helvetica,sans-Serif" font-size="10.00">Models/TypeHolder.hpp</text>
</a>
</g>
</g>
<!-- Node6&#45;&gt;Node13 -->
<g id="edge15" class="edge">
<title>Node6&#45;&gt;Node13</title>
<path fill="none" stroke="midnightblue" d="M355.69,-113.32C358.67,-112.87 361.63,-112.43 364.5,-112 450.78,-99.23 550.09,-85.69 616.2,-76.84"/>
<polygon fill="midnightblue" stroke="midnightblue" points="616.67,-80.31 626.12,-75.51 615.74,-73.37 616.67,-80.31"/>
</g>
<!-- Node10&#45;&gt;Node4 -->
<g id="edge14" class="edge">
<title>Node10&#45;&gt;Node4</title>
<path fill="none" stroke="midnightblue" d="M486.09,-56.44C410.63,-45 279.32,-25.08 218.77,-15.9"/>
<polygon fill="midnightblue" stroke="midnightblue" points="219.07,-12.4 208.66,-14.36 218.02,-19.32 219.07,-12.4"/>
</g>
<!-- Node11 -->
<g id="node11" class="node">
<title>Node11</title>
<g id="a_node11"><a xlink:title=" ">
<polygon fill="white" stroke="#bfbfbf" points="468,-0.5 468,-19.5 533,-19.5 533,-0.5 468,-0.5"/>
<text text-anchor="middle" x="500.5" y="-7.5" font-family="Helvetica,sans-Serif" font-size="10.00">exception</text>
</a>
</g>
</g>
<!-- Node10&#45;&gt;Node11 -->
<g id="edge12" class="edge">
<title>Node10&#45;&gt;Node11</title>
<path fill="none" stroke="midnightblue" d="M535.56,-56.08C529.57,-48.38 520.75,-37.03 513.45,-27.65"/>
<polygon fill="midnightblue" stroke="midnightblue" points="516.21,-25.5 507.31,-19.75 510.68,-29.79 516.21,-25.5"/>
</g>
<!-- Node12 -->
<g id="node12" class="node">
<title>Node12</title>
<g id="a_node12"><a xlink:title=" ">
<polygon fill="white" stroke="#bfbfbf" points="551,-0.5 551,-19.5 616,-19.5 616,-0.5 551,-0.5"/>
<text text-anchor="middle" x="583.5" y="-7.5" font-family="Helvetica,sans-Serif" font-size="10.00">stdexcept</text>
</a>
</g>
</g>
<!-- Node10&#45;&gt;Node12 -->
<g id="edge13" class="edge">
<title>Node10&#45;&gt;Node12</title>
<path fill="none" stroke="midnightblue" d="M549.27,-56.08C555.06,-48.46 563.56,-37.26 570.64,-27.94"/>
<polygon fill="midnightblue" stroke="midnightblue" points="573.6,-29.83 576.86,-19.75 568.02,-25.6 573.6,-29.83"/>
</g>
</g>
</svg>
