<?xml version="1.0" encoding="UTF-8" standalone="no"?>
<!DOCTYPE svg PUBLIC "-//W3C//DTD SVG 1.1//EN"
 "http://www.w3.org/Graphics/SVG/1.1/DTD/svg11.dtd">
<!-- Generated by graphviz version 2.43.0 (0)
 -->
<!-- Title: sources/Component/BombHolder/BombHolderComponent.hpp Pages: 1 -->
<svg width="1683pt" height="173pt"
 viewBox="0.00 0.00 1682.50 173.00" xmlns="http://www.w3.org/2000/svg" xmlns:xlink="http://www.w3.org/1999/xlink">
<g id="graph0" class="graph" transform="scale(1 1) rotate(0) translate(4 169)">
<title>sources/Component/BombHolder/BombHolderComponent.hpp</title>
<polygon fill="white" stroke="transparent" points="-4,4 -4,-169 1678.5,-169 1678.5,4 -4,4"/>
<!-- Node1 -->
<g id="node1" class="node">
<title>Node1</title>
<g id="a_node1"><a xlink:title=" ">
<polygon fill="#bfbfbf" stroke="black" points="774,-134.5 774,-164.5 951,-164.5 951,-134.5 774,-134.5"/>
<text text-anchor="start" x="782" y="-152.5" font-family="Helvetica,sans-Serif" font-size="10.00">sources/Component/BombHolder</text>
<text text-anchor="middle" x="862.5" y="-141.5" font-family="Helvetica,sans-Serif" font-size="10.00">/BombHolderComponent.hpp</text>
</a>
</g>
</g>
<!-- Node2 -->
<g id="node2" class="node">
<title>Node2</title>
<g id="a_node2"><a xlink:href="BombHolderComponent_8cpp.html" target="_top" xlink:title=" ">
<polygon fill="white" stroke="black" points="0,-67.5 0,-97.5 177,-97.5 177,-67.5 0,-67.5"/>
<text text-anchor="start" x="8" y="-85.5" font-family="Helvetica,sans-Serif" font-size="10.00">sources/Component/BombHolder</text>
<text text-anchor="middle" x="88.5" y="-74.5" font-family="Helvetica,sans-Serif" font-size="10.00">/BombHolderComponent.cpp</text>
</a>
</g>
</g>
<!-- Node1&#45;&gt;Node2 -->
<g id="edge1" class="edge">
<title>Node1&#45;&gt;Node2</title>
<path fill="none" stroke="midnightblue" d="M763.92,-143.38C632.1,-136.01 391.27,-120.77 186.5,-98 183.42,-97.66 180.29,-97.29 177.14,-96.91"/>
<polygon fill="midnightblue" stroke="midnightblue" points="763.82,-146.88 774,-143.94 764.21,-139.89 763.82,-146.88"/>
</g>
<!-- Node3 -->
<g id="node3" class="node">
<title>Node3</title>
<g id="a_node3"><a xlink:href="Bonus_8cpp.html" target="_top" xlink:title=" ">
<polygon fill="white" stroke="black" points="195.5,-73 195.5,-92 333.5,-92 333.5,-73 195.5,-73"/>
<text text-anchor="middle" x="264.5" y="-80" font-family="Helvetica,sans-Serif" font-size="10.00">sources/Items/Bonus.cpp</text>
</a>
</g>
</g>
<!-- Node1&#45;&gt;Node3 -->
<g id="edge2" class="edge">
<title>Node1&#45;&gt;Node3</title>
<path fill="none" stroke="midnightblue" d="M763.64,-141.47C658.81,-133.42 488.52,-118.62 342.5,-98 330.91,-96.36 318.41,-94.21 306.9,-92.07"/>
<polygon fill="midnightblue" stroke="midnightblue" points="763.66,-144.98 773.89,-142.25 764.19,-138 763.66,-144.98"/>
</g>
<!-- Node4 -->
<g id="node4" class="node">
<title>Node4</title>
<g id="a_node4"><a xlink:href="ParserYaml_8cpp.html" target="_top" xlink:title=" ">
<polygon fill="white" stroke="black" points="351.5,-73 351.5,-92 515.5,-92 515.5,-73 351.5,-73"/>
<text text-anchor="middle" x="433.5" y="-80" font-family="Helvetica,sans-Serif" font-size="10.00">sources/Parser/ParserYaml.cpp</text>
</a>
</g>
</g>
<!-- Node1&#45;&gt;Node4 -->
<g id="edge3" class="edge">
<title>Node1&#45;&gt;Node4</title>
<path fill="none" stroke="midnightblue" d="M763.67,-133.99C696.26,-124.03 604.95,-110.42 524.5,-98 512.17,-96.1 498.9,-94.01 486.42,-92.02"/>
<polygon fill="midnightblue" stroke="midnightblue" points="763.46,-137.5 773.86,-135.5 764.48,-130.57 763.46,-137.5"/>
</g>
<!-- Node5 -->
<g id="node5" class="node">
<title>Node5</title>
<g id="a_node5"><a xlink:href="GameScene_8cpp.html" target="_top" xlink:title=" ">
<polygon fill="white" stroke="black" points="534,-73 534,-92 707,-92 707,-73 534,-73"/>
<text text-anchor="middle" x="620.5" y="-80" font-family="Helvetica,sans-Serif" font-size="10.00">sources/Runner/GameScene.cpp</text>
</a>
</g>
</g>
<!-- Node1&#45;&gt;Node5 -->
<g id="edge4" class="edge">
<title>Node1&#45;&gt;Node5</title>
<path fill="none" stroke="midnightblue" d="M800.44,-131.83C753.08,-119.11 689.77,-102.11 652.25,-92.03"/>
<polygon fill="midnightblue" stroke="midnightblue" points="799.72,-135.26 810.29,-134.48 801.54,-128.5 799.72,-135.26"/>
</g>
<!-- Node6 -->
<g id="node6" class="node">
<title>Node6</title>
<g id="a_node6"><a xlink:href="BombSystem_8cpp.html" target="_top" xlink:title=" ">
<polygon fill="white" stroke="black" points="725,-67.5 725,-97.5 850,-97.5 850,-67.5 725,-67.5"/>
<text text-anchor="start" x="733" y="-85.5" font-family="Helvetica,sans-Serif" font-size="10.00">sources/System/Bomb</text>
<text text-anchor="middle" x="787.5" y="-74.5" font-family="Helvetica,sans-Serif" font-size="10.00">/BombSystem.cpp</text>
</a>
</g>
</g>
<!-- Node1&#45;&gt;Node6 -->
<g id="edge5" class="edge">
<title>Node1&#45;&gt;Node6</title>
<path fill="none" stroke="midnightblue" d="M838.38,-127.6C827.06,-117.78 813.86,-106.34 803.74,-97.58"/>
<polygon fill="midnightblue" stroke="midnightblue" points="836.38,-130.49 846.23,-134.4 840.96,-125.2 836.38,-130.49"/>
</g>
<!-- Node7 -->
<g id="node7" class="node">
<title>Node7</title>
<g id="a_node7"><a xlink:href="BombHolderSystem_8hpp.html" target="_top" xlink:title=" ">
<polygon fill="white" stroke="black" points="1208.5,-67.5 1208.5,-97.5 1366.5,-97.5 1366.5,-67.5 1208.5,-67.5"/>
<text text-anchor="start" x="1216.5" y="-85.5" font-family="Helvetica,sans-Serif" font-size="10.00">sources/System/BombHolder</text>
<text text-anchor="middle" x="1287.5" y="-74.5" font-family="Helvetica,sans-Serif" font-size="10.00">/BombHolderSystem.hpp</text>
</a>
</g>
</g>
<!-- Node1&#45;&gt;Node7 -->
<g id="edge6" class="edge">
<title>Node1&#45;&gt;Node7</title>
<path fill="none" stroke="midnightblue" d="M961.4,-134.07C1028.59,-124.17 1119.45,-110.59 1199.5,-98 1202.41,-97.54 1205.37,-97.07 1208.35,-96.6"/>
<polygon fill="midnightblue" stroke="midnightblue" points="960.63,-130.64 951.25,-135.56 961.65,-137.57 960.63,-130.64"/>
</g>
<!-- Node10 -->
<g id="node10" class="node">
<title>Node10</title>
<g id="a_node10"><a xlink:href="PlayerBonusSystem_8hpp.html" target="_top" xlink:title=" ">
<polygon fill="white" stroke="black" points="868.5,-67.5 868.5,-97.5 1006.5,-97.5 1006.5,-67.5 868.5,-67.5"/>
<text text-anchor="start" x="876.5" y="-85.5" font-family="Helvetica,sans-Serif" font-size="10.00">sources/System/Bonus</text>
<text text-anchor="middle" x="937.5" y="-74.5" font-family="Helvetica,sans-Serif" font-size="10.00">/PlayerBonusSystem.hpp</text>
</a>
</g>
</g>
<!-- Node1&#45;&gt;Node10 -->
<g id="edge9" class="edge">
<title>Node1&#45;&gt;Node10</title>
<path fill="none" stroke="midnightblue" d="M886.62,-127.6C897.94,-117.78 911.14,-106.34 921.26,-97.58"/>
<polygon fill="midnightblue" stroke="midnightblue" points="884.04,-125.2 878.77,-134.4 888.62,-130.49 884.04,-125.2"/>
</g>
<!-- Node12 -->
<g id="node12" class="node">
<title>Node12</title>
<g id="a_node12"><a xlink:href="IAControllableSystem_8hpp.html" target="_top" xlink:title=" ">
<polygon fill="white" stroke="black" points="1024.5,-67.5 1024.5,-97.5 1190.5,-97.5 1190.5,-67.5 1024.5,-67.5"/>
<text text-anchor="start" x="1032.5" y="-85.5" font-family="Helvetica,sans-Serif" font-size="10.00">sources/System/IAControllable</text>
<text text-anchor="middle" x="1107.5" y="-74.5" font-family="Helvetica,sans-Serif" font-size="10.00">/IAControllableSystem.hpp</text>
</a>
</g>
</g>
<!-- Node1&#45;&gt;Node12 -->
<g id="edge12" class="edge">
<title>Node1&#45;&gt;Node12</title>
<path fill="none" stroke="midnightblue" d="M925.26,-131.85C965.2,-121.25 1016.37,-107.68 1054.31,-97.61"/>
<polygon fill="midnightblue" stroke="midnightblue" points="924.13,-128.53 915.36,-134.48 925.92,-135.29 924.13,-128.53"/>
</g>
<!-- Node14 -->
<g id="node14" class="node">
<title>Node14</title>
<g id="a_node14"><a xlink:href="LobbySystem_8cpp.html" target="_top" xlink:title=" ">
<polygon fill="white" stroke="black" points="1384.5,-67.5 1384.5,-97.5 1510.5,-97.5 1510.5,-67.5 1384.5,-67.5"/>
<text text-anchor="start" x="1392.5" y="-85.5" font-family="Helvetica,sans-Serif" font-size="10.00">sources/System/Lobby</text>
<text text-anchor="middle" x="1447.5" y="-74.5" font-family="Helvetica,sans-Serif" font-size="10.00">/LobbySystem.cpp</text>
</a>
</g>
</g>
<!-- Node1&#45;&gt;Node14 -->
<g id="edge15" class="edge">
<title>Node1&#45;&gt;Node14</title>
<path fill="none" stroke="midnightblue" d="M961.48,-141.73C1065.06,-133.94 1232.24,-119.42 1375.5,-98 1378.4,-97.57 1381.36,-97.09 1384.35,-96.59"/>
<polygon fill="midnightblue" stroke="midnightblue" points="961.06,-138.25 951.34,-142.48 961.58,-145.23 961.06,-138.25"/>
</g>
<!-- Node15 -->
<g id="node15" class="node">
<title>Node15</title>
<g id="a_node15"><a xlink:href="ResumeLobbySystem_8cpp.html" target="_top" xlink:title=" ">
<polygon fill="white" stroke="black" points="1528.5,-67.5 1528.5,-97.5 1674.5,-97.5 1674.5,-67.5 1528.5,-67.5"/>
<text text-anchor="start" x="1536.5" y="-85.5" font-family="Helvetica,sans-Serif" font-size="10.00">sources/System/Lobby</text>
<text text-anchor="middle" x="1601.5" y="-74.5" font-family="Helvetica,sans-Serif" font-size="10.00">/ResumeLobbySystem.cpp</text>
</a>
</g>
</g>
<!-- Node1&#45;&gt;Node15 -->
<g id="edge16" class="edge">
<title>Node1&#45;&gt;Node15</title>
<path fill="none" stroke="midnightblue" d="M961.49,-143.93C1090.35,-137.28 1322.39,-122.94 1519.5,-98 1522.37,-97.64 1525.29,-97.24 1528.24,-96.82"/>
<polygon fill="midnightblue" stroke="midnightblue" points="961.06,-140.45 951.25,-144.45 961.41,-147.44 961.06,-140.45"/>
</g>
<!-- Node8 -->
<g id="node8" class="node">
<title>Node8</title>
<g id="a_node8"><a xlink:href="Runner_8cpp.html" target="_top" xlink:title=" ">
<polygon fill="white" stroke="black" points="943,-6 943,-25 1092,-25 1092,-6 943,-6"/>
<text text-anchor="middle" x="1017.5" y="-13" font-family="Helvetica,sans-Serif" font-size="10.00">sources/Runner/Runner.cpp</text>
</a>
</g>
</g>
<!-- Node7&#45;&gt;Node8 -->
<g id="edge7" class="edge">
<title>Node7&#45;&gt;Node8</title>
<path fill="none" stroke="midnightblue" d="M1219.25,-65.07C1166.3,-52.32 1095.05,-35.17 1052.93,-25.03"/>
<polygon fill="midnightblue" stroke="midnightblue" points="1218.7,-68.54 1229.25,-67.48 1220.34,-61.73 1218.7,-68.54"/>
</g>
<!-- Node9 -->
<g id="node9" class="node">
<title>Node9</title>
<g id="a_node9"><a xlink:href="BombHolderSystem_8cpp.html" target="_top" xlink:title=" ">
<polygon fill="white" stroke="black" points="1294.5,-0.5 1294.5,-30.5 1452.5,-30.5 1452.5,-0.5 1294.5,-0.5"/>
<text text-anchor="start" x="1302.5" y="-18.5" font-family="Helvetica,sans-Serif" font-size="10.00">sources/System/BombHolder</text>
<text text-anchor="middle" x="1373.5" y="-7.5" font-family="Helvetica,sans-Serif" font-size="10.00">/BombHolderSystem.cpp</text>
</a>
</g>
</g>
<!-- Node7&#45;&gt;Node9 -->
<g id="edge8" class="edge">
<title>Node7&#45;&gt;Node9</title>
<path fill="none" stroke="midnightblue" d="M1314.4,-61.17C1327.55,-51.23 1343.05,-39.51 1354.88,-30.58"/>
<polygon fill="midnightblue" stroke="midnightblue" points="1312.03,-58.57 1306.16,-67.4 1316.25,-64.16 1312.03,-58.57"/>
</g>
<!-- Node10&#45;&gt;Node8 -->
<g id="edge10" class="edge">
<title>Node10&#45;&gt;Node8</title>
<path fill="none" stroke="midnightblue" d="M962.72,-61.01C977.57,-48.94 995.59,-34.3 1006.8,-25.19"/>
<polygon fill="midnightblue" stroke="midnightblue" points="960.41,-58.37 954.86,-67.4 964.83,-63.81 960.41,-58.37"/>
</g>
<!-- Node11 -->
<g id="node11" class="node">
<title>Node11</title>
<g id="a_node11"><a xlink:href="PlayerBonusSystem_8cpp.html" target="_top" xlink:title=" ">
<polygon fill="white" stroke="black" points="788,-0.5 788,-30.5 925,-30.5 925,-0.5 788,-0.5"/>
<text text-anchor="start" x="796" y="-18.5" font-family="Helvetica,sans-Serif" font-size="10.00">sources/System/Bonus</text>
<text text-anchor="middle" x="856.5" y="-7.5" font-family="Helvetica,sans-Serif" font-size="10.00">/PlayerBonusSystem.cpp</text>
</a>
</g>
</g>
<!-- Node10&#45;&gt;Node11 -->
<g id="edge11" class="edge">
<title>Node10&#45;&gt;Node11</title>
<path fill="none" stroke="midnightblue" d="M911.81,-60.88C899.5,-51.01 885.07,-39.43 874.04,-30.58"/>
<polygon fill="midnightblue" stroke="midnightblue" points="909.93,-63.87 919.92,-67.4 914.32,-58.41 909.93,-63.87"/>
</g>
<!-- Node12&#45;&gt;Node8 -->
<g id="edge13" class="edge">
<title>Node12&#45;&gt;Node8</title>
<path fill="none" stroke="midnightblue" d="M1079.54,-61.31C1062.64,-49.1 1041.98,-34.18 1029.28,-25.01"/>
<polygon fill="midnightblue" stroke="midnightblue" points="1077.82,-64.38 1087.97,-67.4 1081.91,-58.7 1077.82,-64.38"/>
</g>
<!-- Node13 -->
<g id="node13" class="node">
<title>Node13</title>
<g id="a_node13"><a xlink:href="IAControllableSystem_8cpp.html" target="_top" xlink:title=" ">
<polygon fill="white" stroke="black" points="1110.5,-0.5 1110.5,-30.5 1276.5,-30.5 1276.5,-0.5 1110.5,-0.5"/>
<text text-anchor="start" x="1118.5" y="-18.5" font-family="Helvetica,sans-Serif" font-size="10.00">sources/System/IAControllable</text>
<text text-anchor="middle" x="1193.5" y="-7.5" font-family="Helvetica,sans-Serif" font-size="10.00">/IAControllableSystem.cpp</text>
</a>
</g>
</g>
<!-- Node12&#45;&gt;Node13 -->
<g id="edge14" class="edge">
<title>Node12&#45;&gt;Node13</title>
<path fill="none" stroke="midnightblue" d="M1134.4,-61.17C1147.55,-51.23 1163.05,-39.51 1174.88,-30.58"/>
<polygon fill="midnightblue" stroke="midnightblue" points="1132.03,-58.57 1126.16,-67.4 1136.25,-64.16 1132.03,-58.57"/>
</g>
</g>
</svg>
