<?xml version="1.0" encoding="UTF-8" standalone="no"?>
<!DOCTYPE svg PUBLIC "-//W3C//DTD SVG 1.1//EN"
 "http://www.w3.org/Graphics/SVG/1.1/DTD/svg11.dtd">
<!-- Generated by graphviz version 2.43.0 (0)
 -->
<!-- Title: sources/System/Bomb/BombSystem.hpp Pages: 1 -->
<svg width="1380pt" height="453pt"
 viewBox="0.00 0.00 1380.00 453.00" xmlns="http://www.w3.org/2000/svg" xmlns:xlink="http://www.w3.org/1999/xlink">
<g id="graph0" class="graph" transform="scale(1 1) rotate(0) translate(4 449)">
<title>sources/System/Bomb/BombSystem.hpp</title>
<polygon fill="white" stroke="transparent" points="-4,4 -4,-449 1376,-449 1376,4 -4,4"/>
<!-- Node1 -->
<g id="node1" class="node">
<title>Node1</title>
<g id="a_node1"><a xlink:title=" ">
<polygon fill="#bfbfbf" stroke="black" points="953.5,-414.5 953.5,-444.5 1078.5,-444.5 1078.5,-414.5 953.5,-414.5"/>
<text text-anchor="start" x="961.5" y="-432.5" font-family="Helvetica,sans-Serif" font-size="10.00">sources/System/Bomb</text>
<text text-anchor="middle" x="1016" y="-421.5" font-family="Helvetica,sans-Serif" font-size="10.00">/BombSystem.hpp</text>
</a>
</g>
</g>
<!-- Node2 -->
<g id="node2" class="node">
<title>Node2</title>
<g id="a_node2"><a xlink:href="System_8hpp.html" target="_top" xlink:title=" ">
<polygon fill="white" stroke="black" points="679,-353 679,-372 793,-372 793,-353 679,-353"/>
<text text-anchor="middle" x="736" y="-360" font-family="Helvetica,sans-Serif" font-size="10.00">System/System.hpp</text>
</a>
</g>
</g>
<!-- Node1&#45;&gt;Node2 -->
<g id="edge1" class="edge">
<title>Node1&#45;&gt;Node2</title>
<path fill="none" stroke="midnightblue" d="M955.59,-414.48C903.77,-402.45 830.16,-385.36 782.74,-374.35"/>
<polygon fill="midnightblue" stroke="midnightblue" points="783.27,-370.88 772.74,-372.03 781.69,-377.7 783.27,-370.88"/>
</g>
<!-- Node27 -->
<g id="node27" class="node">
<title>Node27</title>
<g id="a_node27"><a xlink:href="PositionComponent_8hpp.html" target="_top" xlink:title=" ">
<polygon fill="white" stroke="black" points="1044,-347.5 1044,-377.5 1180,-377.5 1180,-347.5 1044,-347.5"/>
<text text-anchor="start" x="1052" y="-365.5" font-family="Helvetica,sans-Serif" font-size="10.00">Component/Position</text>
<text text-anchor="middle" x="1112" y="-354.5" font-family="Helvetica,sans-Serif" font-size="10.00">/PositionComponent.hpp</text>
</a>
</g>
</g>
<!-- Node1&#45;&gt;Node27 -->
<g id="edge51" class="edge">
<title>Node1&#45;&gt;Node27</title>
<path fill="none" stroke="midnightblue" d="M1036.83,-414.4C1050.29,-405.28 1068,-393.29 1082.85,-383.24"/>
<polygon fill="midnightblue" stroke="midnightblue" points="1084.89,-386.08 1091.21,-377.58 1080.97,-380.28 1084.89,-386.08"/>
</g>
<!-- Node32 -->
<g id="node32" class="node">
<title>Node32</title>
<g id="a_node32"><a xlink:href="BasicBombComponent_8hpp.html" target="_top" xlink:title=" ">
<polygon fill="white" stroke="black" points="864,-224.5 864,-254.5 1026,-254.5 1026,-224.5 864,-224.5"/>
<text text-anchor="start" x="872" y="-242.5" font-family="Helvetica,sans-Serif" font-size="10.00">Component/Bomb/BasicBomb</text>
<text text-anchor="middle" x="945" y="-231.5" font-family="Helvetica,sans-Serif" font-size="10.00">Component.hpp</text>
</a>
</g>
</g>
<!-- Node1&#45;&gt;Node32 -->
<g id="edge58" class="edge">
<title>Node1&#45;&gt;Node32</title>
<path fill="none" stroke="midnightblue" d="M1010.66,-414.37C998.53,-382.24 968.77,-303.44 953.84,-263.91"/>
<polygon fill="midnightblue" stroke="midnightblue" points="957.11,-262.66 950.3,-254.54 950.56,-265.13 957.11,-262.66"/>
</g>
<!-- Node3 -->
<g id="node3" class="node">
<title>Node3</title>
<g id="a_node3"><a xlink:title=" ">
<polygon fill="white" stroke="#bfbfbf" points="829,-168.5 829,-187.5 879,-187.5 879,-168.5 829,-168.5"/>
<text text-anchor="middle" x="854" y="-175.5" font-family="Helvetica,sans-Serif" font-size="10.00">chrono</text>
</a>
</g>
</g>
<!-- Node2&#45;&gt;Node3 -->
<g id="edge2" class="edge">
<title>Node2&#45;&gt;Node3</title>
<path fill="none" stroke="midnightblue" d="M755.92,-352.95C773.11,-344.61 797.41,-330.35 812,-311 838.1,-276.39 848.27,-225.08 852,-197.74"/>
<polygon fill="midnightblue" stroke="midnightblue" points="855.5,-197.96 853.23,-187.61 848.55,-197.12 855.5,-197.96"/>
</g>
<!-- Node4 -->
<g id="node4" class="node">
<title>Node4</title>
<g id="a_node4"><a xlink:title=" ">
<polygon fill="white" stroke="#bfbfbf" points="936.5,-0.5 936.5,-19.5 983.5,-19.5 983.5,-0.5 936.5,-0.5"/>
<text text-anchor="middle" x="960" y="-7.5" font-family="Helvetica,sans-Serif" font-size="10.00">vector</text>
</a>
</g>
</g>
<!-- Node2&#45;&gt;Node4 -->
<g id="edge3" class="edge">
<title>Node2&#45;&gt;Node4</title>
<path fill="none" stroke="midnightblue" d="M772.97,-352.95C844.71,-335.65 998.95,-294.74 1035,-255 1058.39,-229.21 1054,-213.82 1054,-179 1054,-179 1054,-179 1054,-121 1054,-77.93 1011.84,-43.21 983.99,-24.98"/>
<polygon fill="midnightblue" stroke="midnightblue" points="985.85,-22.01 975.52,-19.65 982.12,-27.94 985.85,-22.01"/>
</g>
<!-- Node5 -->
<g id="node5" class="node">
<title>Node5</title>
<g id="a_node5"><a xlink:title=" ">
<polygon fill="white" stroke="#bfbfbf" points="740.5,-56.5 740.5,-75.5 797.5,-75.5 797.5,-56.5 740.5,-56.5"/>
<text text-anchor="middle" x="769" y="-63.5" font-family="Helvetica,sans-Serif" font-size="10.00">typeinfo</text>
</a>
</g>
</g>
<!-- Node2&#45;&gt;Node5 -->
<g id="edge4" class="edge">
<title>Node2&#45;&gt;Node5</title>
<path fill="none" stroke="midnightblue" d="M736.99,-352.69C741.53,-312.13 760.49,-142.97 766.88,-85.9"/>
<polygon fill="midnightblue" stroke="midnightblue" points="770.38,-86.11 768.02,-75.78 763.42,-85.33 770.38,-86.11"/>
</g>
<!-- Node6 -->
<g id="node6" class="node">
<title>Node6</title>
<g id="a_node6"><a xlink:title=" ">
<polygon fill="white" stroke="#bfbfbf" points="307.5,-0.5 307.5,-19.5 372.5,-19.5 372.5,-0.5 307.5,-0.5"/>
<text text-anchor="middle" x="340" y="-7.5" font-family="Helvetica,sans-Serif" font-size="10.00">typeindex</text>
</a>
</g>
</g>
<!-- Node2&#45;&gt;Node6 -->
<g id="edge5" class="edge">
<title>Node2&#45;&gt;Node6</title>
<path fill="none" stroke="midnightblue" d="M678.86,-358.13C505.93,-347.16 0,-309.21 0,-240.5 0,-240.5 0,-240.5 0,-121 0,-84.28 19.32,-74.56 51,-56 91.94,-32.01 227.15,-19.06 297.15,-13.82"/>
<polygon fill="midnightblue" stroke="midnightblue" points="297.68,-17.29 307.4,-13.08 297.17,-10.31 297.68,-17.29"/>
</g>
<!-- Node7 -->
<g id="node7" class="node">
<title>Node7</title>
<g id="a_node7"><a xlink:href="Entity_8hpp.html" target="_top" xlink:title=" ">
<polygon fill="white" stroke="black" points="511,-112.5 511,-131.5 607,-131.5 607,-112.5 511,-112.5"/>
<text text-anchor="middle" x="559" y="-119.5" font-family="Helvetica,sans-Serif" font-size="10.00">Entity/Entity.hpp</text>
</a>
</g>
</g>
<!-- Node2&#45;&gt;Node7 -->
<g id="edge6" class="edge">
<title>Node2&#45;&gt;Node7</title>
<path fill="none" stroke="midnightblue" d="M720.32,-352.75C693.06,-336.79 636.81,-300.35 605,-255 580,-219.36 567.45,-168.86 562.18,-141.82"/>
<polygon fill="midnightblue" stroke="midnightblue" points="565.58,-140.99 560.35,-131.78 558.7,-142.25 565.58,-140.99"/>
</g>
<!-- Node16 -->
<g id="node16" class="node">
<title>Node16</title>
<g id="a_node16"><a xlink:href="Wal_8hpp.html" target="_top" xlink:title=" ">
<polygon fill="white" stroke="black" points="443,-291.5 443,-310.5 499,-310.5 499,-291.5 443,-291.5"/>
<text text-anchor="middle" x="471" y="-298.5" font-family="Helvetica,sans-Serif" font-size="10.00">Wal.hpp</text>
</a>
</g>
</g>
<!-- Node2&#45;&gt;Node16 -->
<g id="edge20" class="edge">
<title>Node2&#45;&gt;Node16</title>
<path fill="none" stroke="midnightblue" d="M698.03,-352.98C647.69,-341.67 559.36,-321.84 509,-310.53"/>
<polygon fill="midnightblue" stroke="midnightblue" points="509.68,-307.1 499.16,-308.32 508.15,-313.93 509.68,-307.1"/>
</g>
<!-- Node18 -->
<g id="node18" class="node">
<title>Node18</title>
<g id="a_node18"><a xlink:href="ISystem_8hpp.html" target="_top" xlink:title=" ">
<polygon fill="white" stroke="black" points="614.5,-230 614.5,-249 731.5,-249 731.5,-230 614.5,-230"/>
<text text-anchor="middle" x="673" y="-237" font-family="Helvetica,sans-Serif" font-size="10.00">System/ISystem.hpp</text>
</a>
</g>
</g>
<!-- Node2&#45;&gt;Node18 -->
<g id="edge49" class="edge">
<title>Node2&#45;&gt;Node18</title>
<path fill="none" stroke="midnightblue" d="M731.47,-352.8C721.16,-333 695.8,-284.28 682.11,-257.99"/>
<polygon fill="midnightblue" stroke="midnightblue" points="685.21,-256.38 677.49,-249.12 679,-259.61 685.21,-256.38"/>
</g>
<!-- Node19 -->
<g id="node19" class="node">
<title>Node19</title>
<g id="a_node19"><a xlink:href="View_8hpp.html" target="_top" xlink:title=" ">
<polygon fill="white" stroke="black" points="356,-168.5 356,-187.5 444,-187.5 444,-168.5 356,-168.5"/>
<text text-anchor="middle" x="400" y="-175.5" font-family="Helvetica,sans-Serif" font-size="10.00">View/View.hpp</text>
</a>
</g>
</g>
<!-- Node2&#45;&gt;Node19 -->
<g id="edge48" class="edge">
<title>Node2&#45;&gt;Node19</title>
<path fill="none" stroke="midnightblue" d="M678.81,-361.49C615.8,-359.37 512.94,-349.54 434,-311 400.93,-294.85 387.81,-288.69 373,-255 364.24,-235.07 376.08,-211.31 386.73,-195.73"/>
<polygon fill="midnightblue" stroke="midnightblue" points="389.61,-197.73 392.7,-187.59 383.96,-193.59 389.61,-197.73"/>
</g>
<!-- Node26 -->
<g id="node26" class="node">
<title>Node26</title>
<g id="a_node26"><a xlink:title=" ">
<polygon fill="white" stroke="#bfbfbf" points="1120,-230 1120,-249 1180,-249 1180,-230 1120,-230"/>
<text text-anchor="middle" x="1150" y="-237" font-family="Helvetica,sans-Serif" font-size="10.00">iostream</text>
</a>
</g>
</g>
<!-- Node2&#45;&gt;Node26 -->
<g id="edge50" class="edge">
<title>Node2&#45;&gt;Node26</title>
<path fill="none" stroke="midnightblue" d="M793.1,-354C845.6,-346.22 925.18,-332.2 992,-311 1040.57,-295.59 1094.15,-269.65 1124.77,-253.89"/>
<polygon fill="midnightblue" stroke="midnightblue" points="1126.61,-256.88 1133.87,-249.17 1123.38,-250.67 1126.61,-256.88"/>
</g>
<!-- Node7&#45;&gt;Node5 -->
<g id="edge9" class="edge">
<title>Node7&#45;&gt;Node5</title>
<path fill="none" stroke="midnightblue" d="M592.28,-112.44C629.83,-102.79 690.84,-87.1 730.44,-76.92"/>
<polygon fill="midnightblue" stroke="midnightblue" points="731.45,-80.27 740.27,-74.39 729.71,-73.49 731.45,-80.27"/>
</g>
<!-- Node8 -->
<g id="node8" class="node">
<title>Node8</title>
<g id="a_node8"><a xlink:title=" ">
<polygon fill="white" stroke="#bfbfbf" points="509,-0.5 509,-19.5 553,-19.5 553,-0.5 509,-0.5"/>
<text text-anchor="middle" x="531" y="-7.5" font-family="Helvetica,sans-Serif" font-size="10.00">string</text>
</a>
</g>
</g>
<!-- Node7&#45;&gt;Node8 -->
<g id="edge7" class="edge">
<title>Node7&#45;&gt;Node8</title>
<path fill="none" stroke="midnightblue" d="M556.09,-112.44C553.08,-103.43 548.37,-88.82 545,-76 540.96,-60.63 537.22,-42.99 534.62,-29.97"/>
<polygon fill="midnightblue" stroke="midnightblue" points="538,-29.04 532.65,-19.89 531.13,-30.38 538,-29.04"/>
</g>
<!-- Node9 -->
<g id="node9" class="node">
<title>Node9</title>
<g id="a_node9"><a xlink:title=" ">
<polygon fill="white" stroke="#bfbfbf" points="201.5,-56.5 201.5,-75.5 294.5,-75.5 294.5,-56.5 201.5,-56.5"/>
<text text-anchor="middle" x="248" y="-63.5" font-family="Helvetica,sans-Serif" font-size="10.00">unordered_map</text>
</a>
</g>
</g>
<!-- Node7&#45;&gt;Node9 -->
<g id="edge8" class="edge">
<title>Node7&#45;&gt;Node9</title>
<path fill="none" stroke="midnightblue" d="M510.75,-112.62C455.02,-102.95 363.48,-87.05 304.48,-76.81"/>
<polygon fill="midnightblue" stroke="midnightblue" points="305.04,-73.35 294.59,-75.09 303.84,-80.25 305.04,-73.35"/>
</g>
<!-- Node10 -->
<g id="node10" class="node">
<title>Node10</title>
<g id="a_node10"><a xlink:title=" ">
<polygon fill="white" stroke="#bfbfbf" points="90,-56.5 90,-75.5 148,-75.5 148,-56.5 90,-56.5"/>
<text text-anchor="middle" x="119" y="-63.5" font-family="Helvetica,sans-Serif" font-size="10.00">memory</text>
</a>
</g>
</g>
<!-- Node7&#45;&gt;Node10 -->
<g id="edge10" class="edge">
<title>Node7&#45;&gt;Node10</title>
<path fill="none" stroke="midnightblue" d="M510.91,-113.39C507.56,-112.91 504.23,-112.44 501,-112 364,-93.4 329.28,-92.46 192,-76 181.05,-74.69 169.17,-73.23 158.25,-71.89"/>
<polygon fill="midnightblue" stroke="midnightblue" points="158.48,-68.39 148.12,-70.64 157.62,-75.34 158.48,-68.39"/>
</g>
<!-- Node11 -->
<g id="node11" class="node">
<title>Node11</title>
<g id="a_node11"><a xlink:href="Component_8hpp.html" target="_top" xlink:title=" ">
<polygon fill="white" stroke="black" points="827.5,-56.5 827.5,-75.5 980.5,-75.5 980.5,-56.5 827.5,-56.5"/>
<text text-anchor="middle" x="904" y="-63.5" font-family="Helvetica,sans-Serif" font-size="10.00">Component/Component.hpp</text>
</a>
</g>
</g>
<!-- Node7&#45;&gt;Node11 -->
<g id="edge11" class="edge">
<title>Node7&#45;&gt;Node11</title>
<path fill="none" stroke="midnightblue" d="M607.33,-113.43C667.92,-103.95 771.99,-87.66 839.38,-77.11"/>
<polygon fill="midnightblue" stroke="midnightblue" points="840.11,-80.54 849.45,-75.54 839.03,-73.63 840.11,-80.54"/>
</g>
<!-- Node12 -->
<g id="node12" class="node">
<title>Node12</title>
<g id="a_node12"><a xlink:href="WalError_8hpp.html" target="_top" xlink:title=" ">
<polygon fill="white" stroke="black" points="554.5,-56.5 554.5,-75.5 683.5,-75.5 683.5,-56.5 554.5,-56.5"/>
<text text-anchor="middle" x="619" y="-63.5" font-family="Helvetica,sans-Serif" font-size="10.00">Exception/WalError.hpp</text>
</a>
</g>
</g>
<!-- Node7&#45;&gt;Node12 -->
<g id="edge15" class="edge">
<title>Node7&#45;&gt;Node12</title>
<path fill="none" stroke="midnightblue" d="M568.64,-112.32C577.51,-104.34 590.87,-92.31 601.61,-82.65"/>
<polygon fill="midnightblue" stroke="midnightblue" points="604.09,-85.13 609.18,-75.83 599.41,-79.92 604.09,-85.13"/>
</g>
<!-- Node15 -->
<g id="node15" class="node">
<title>Node15</title>
<g id="a_node15"><a xlink:href="TypeHolder_8hpp.html" target="_top" xlink:title=" ">
<polygon fill="white" stroke="black" points="368,-56.5 368,-75.5 498,-75.5 498,-56.5 368,-56.5"/>
<text text-anchor="middle" x="433" y="-63.5" font-family="Helvetica,sans-Serif" font-size="10.00">Models/TypeHolder.hpp</text>
</a>
</g>
</g>
<!-- Node7&#45;&gt;Node15 -->
<g id="edge19" class="edge">
<title>Node7&#45;&gt;Node15</title>
<path fill="none" stroke="midnightblue" d="M539.03,-112.44C518.39,-103.6 485.94,-89.69 462.37,-79.59"/>
<polygon fill="midnightblue" stroke="midnightblue" points="463.44,-76.24 452.87,-75.52 460.68,-82.67 463.44,-76.24"/>
</g>
<!-- Node11&#45;&gt;Node4 -->
<g id="edge12" class="edge">
<title>Node11&#45;&gt;Node4</title>
<path fill="none" stroke="midnightblue" d="M913,-56.32C921.19,-48.42 933.51,-36.55 943.47,-26.94"/>
<polygon fill="midnightblue" stroke="midnightblue" points="946.07,-29.29 950.84,-19.83 941.21,-24.26 946.07,-29.29"/>
</g>
<!-- Node11&#45;&gt;Node6 -->
<g id="edge14" class="edge">
<title>Node11&#45;&gt;Node6</title>
<path fill="none" stroke="midnightblue" d="M827.35,-57.66C707.02,-46.14 477.73,-24.19 382.8,-15.1"/>
<polygon fill="midnightblue" stroke="midnightblue" points="382.99,-11.6 372.71,-14.13 382.33,-18.57 382.99,-11.6"/>
</g>
<!-- Node11&#45;&gt;Node8 -->
<g id="edge13" class="edge">
<title>Node11&#45;&gt;Node8</title>
<path fill="none" stroke="midnightblue" d="M827.32,-57.24C758.75,-49.72 655.7,-36.95 567,-20 565.75,-19.76 564.49,-19.51 563.21,-19.24"/>
<polygon fill="midnightblue" stroke="midnightblue" points="563.91,-15.81 553.38,-17.01 562.36,-22.64 563.91,-15.81"/>
</g>
<!-- Node12&#45;&gt;Node8 -->
<g id="edge18" class="edge">
<title>Node12&#45;&gt;Node8</title>
<path fill="none" stroke="midnightblue" d="M604.86,-56.32C591.13,-47.9 570.06,-34.97 553.94,-25.07"/>
<polygon fill="midnightblue" stroke="midnightblue" points="555.46,-21.9 545.1,-19.65 551.8,-27.87 555.46,-21.9"/>
</g>
<!-- Node13 -->
<g id="node13" class="node">
<title>Node13</title>
<g id="a_node13"><a xlink:title=" ">
<polygon fill="white" stroke="#bfbfbf" points="659.5,-0.5 659.5,-19.5 724.5,-19.5 724.5,-0.5 659.5,-0.5"/>
<text text-anchor="middle" x="692" y="-7.5" font-family="Helvetica,sans-Serif" font-size="10.00">exception</text>
</a>
</g>
</g>
<!-- Node12&#45;&gt;Node13 -->
<g id="edge16" class="edge">
<title>Node12&#45;&gt;Node13</title>
<path fill="none" stroke="midnightblue" d="M630.73,-56.32C641.84,-48.11 658.74,-35.6 671.98,-25.81"/>
<polygon fill="midnightblue" stroke="midnightblue" points="674.1,-28.59 680.06,-19.83 669.94,-22.97 674.1,-28.59"/>
</g>
<!-- Node14 -->
<g id="node14" class="node">
<title>Node14</title>
<g id="a_node14"><a xlink:title=" ">
<polygon fill="white" stroke="#bfbfbf" points="576.5,-0.5 576.5,-19.5 641.5,-19.5 641.5,-0.5 576.5,-0.5"/>
<text text-anchor="middle" x="609" y="-7.5" font-family="Helvetica,sans-Serif" font-size="10.00">stdexcept</text>
</a>
</g>
</g>
<!-- Node12&#45;&gt;Node14 -->
<g id="edge17" class="edge">
<title>Node12&#45;&gt;Node14</title>
<path fill="none" stroke="midnightblue" d="M617.35,-56.08C616.02,-48.93 614.12,-38.64 612.46,-29.69"/>
<polygon fill="midnightblue" stroke="midnightblue" points="615.88,-28.95 610.62,-19.75 609,-30.22 615.88,-28.95"/>
</g>
<!-- Node16&#45;&gt;Node4 -->
<g id="edge22" class="edge">
<title>Node16&#45;&gt;Node4</title>
<path fill="none" stroke="midnightblue" d="M499.02,-297.67C559.36,-292.27 699.49,-277.64 741,-255 786.85,-229.99 778.89,-200.22 820,-168 887.61,-115 946.02,-149.8 990,-76 999.48,-60.08 987.75,-40.67 976.3,-27.22"/>
<polygon fill="midnightblue" stroke="midnightblue" points="978.73,-24.7 969.39,-19.7 973.58,-29.44 978.73,-24.7"/>
</g>
<!-- Node16&#45;&gt;Node5 -->
<g id="edge25" class="edge">
<title>Node16&#45;&gt;Node5</title>
<path fill="none" stroke="midnightblue" d="M483.7,-291.23C496.53,-282.31 516.85,-267.97 534,-255 616.13,-192.89 711.09,-114.98 750.44,-82.41"/>
<polygon fill="midnightblue" stroke="midnightblue" points="752.92,-84.91 758.39,-75.83 748.46,-79.52 752.92,-84.91"/>
</g>
<!-- Node16&#45;&gt;Node8 -->
<g id="edge23" class="edge">
<title>Node16&#45;&gt;Node8</title>
<path fill="none" stroke="midnightblue" d="M442.8,-298.53C370.31,-294.43 179.15,-281.34 122,-255 76.28,-233.93 38,-229.35 38,-179 38,-179 38,-179 38,-121 38,-86.36 51.34,-73.9 81,-56 98.9,-45.2 398.51,-21.22 498.68,-13.47"/>
<polygon fill="midnightblue" stroke="midnightblue" points="499.11,-16.95 508.81,-12.69 498.57,-9.97 499.11,-16.95"/>
</g>
<!-- Node16&#45;&gt;Node10 -->
<g id="edge24" class="edge">
<title>Node16&#45;&gt;Node10</title>
<path fill="none" stroke="midnightblue" d="M442.74,-299.28C391.85,-297.15 282.18,-288.68 197,-255 147.25,-235.33 122.19,-235.2 97,-188 79.15,-154.56 96.64,-109.3 109.04,-84.71"/>
<polygon fill="midnightblue" stroke="midnightblue" points="112.17,-86.27 113.77,-75.8 105.98,-82.99 112.17,-86.27"/>
</g>
<!-- Node16&#45;&gt;Node12 -->
<g id="edge26" class="edge">
<title>Node16&#45;&gt;Node12</title>
<path fill="none" stroke="midnightblue" d="M477.89,-291.48C489.38,-277.34 513.22,-248.17 534,-224 569.71,-182.46 595.33,-182.72 616,-132 621.94,-117.44 622.3,-99.49 621.4,-86.15"/>
<polygon fill="midnightblue" stroke="midnightblue" points="624.85,-85.42 620.39,-75.81 617.88,-86.1 624.85,-85.42"/>
</g>
<!-- Node17 -->
<g id="node17" class="node">
<title>Node17</title>
<g id="a_node17"><a xlink:title=" ">
<polygon fill="white" stroke="#bfbfbf" points="142.5,-112.5 142.5,-131.5 187.5,-131.5 187.5,-112.5 142.5,-112.5"/>
<text text-anchor="middle" x="165" y="-119.5" font-family="Helvetica,sans-Serif" font-size="10.00">utility</text>
</a>
</g>
</g>
<!-- Node16&#45;&gt;Node17 -->
<g id="edge21" class="edge">
<title>Node16&#45;&gt;Node17</title>
<path fill="none" stroke="midnightblue" d="M450.34,-291.48C430.23,-282.96 398.99,-269.13 373,-255 335.83,-234.79 231.86,-166.96 186.55,-137.2"/>
<polygon fill="midnightblue" stroke="midnightblue" points="188.35,-134.19 178.07,-131.62 184.5,-140.04 188.35,-134.19"/>
</g>
<!-- Node16&#45;&gt;Node18 -->
<g id="edge27" class="edge">
<title>Node16&#45;&gt;Node18</title>
<path fill="none" stroke="midnightblue" d="M499.09,-291.73C534.19,-281.39 594.46,-263.64 634.01,-251.98"/>
<polygon fill="midnightblue" stroke="midnightblue" points="635.24,-255.27 643.84,-249.09 633.26,-248.56 635.24,-255.27"/>
</g>
<!-- Node24 -->
<g id="node24" class="node">
<title>Node24</title>
<g id="a_node24"><a xlink:href="Callback_8hpp.html" target="_top" xlink:title=" ">
<polygon fill="white" stroke="black" points="106,-168.5 106,-187.5 224,-187.5 224,-168.5 106,-168.5"/>
<text text-anchor="middle" x="165" y="-175.5" font-family="Helvetica,sans-Serif" font-size="10.00">Models/Callback.hpp</text>
</a>
</g>
</g>
<!-- Node16&#45;&gt;Node24 -->
<g id="edge38" class="edge">
<title>Node16&#45;&gt;Node24</title>
<path fill="none" stroke="midnightblue" d="M443,-299.95C397.32,-298.74 305.14,-291.52 238,-255 211.72,-240.71 189.23,-213.67 176.41,-196"/>
<polygon fill="midnightblue" stroke="midnightblue" points="179.22,-193.91 170.62,-187.73 173.49,-197.93 179.22,-193.91"/>
</g>
<!-- Node25 -->
<g id="node25" class="node">
<title>Node25</title>
<g id="a_node25"><a xlink:href="Scene_8hpp.html" target="_top" xlink:title=" ">
<polygon fill="white" stroke="black" points="382.5,-230 382.5,-249 481.5,-249 481.5,-230 382.5,-230"/>
<text text-anchor="middle" x="432" y="-237" font-family="Helvetica,sans-Serif" font-size="10.00">Scene/Scene.hpp</text>
</a>
</g>
</g>
<!-- Node16&#45;&gt;Node25 -->
<g id="edge42" class="edge">
<title>Node16&#45;&gt;Node25</title>
<path fill="none" stroke="midnightblue" d="M465.41,-291.48C459.62,-282.64 450.41,-268.59 443.13,-257.48"/>
<polygon fill="midnightblue" stroke="midnightblue" points="445.99,-255.45 437.58,-249.01 440.13,-259.29 445.99,-255.45"/>
</g>
<!-- Node18&#45;&gt;Node3 -->
<g id="edge37" class="edge">
<title>Node18&#45;&gt;Node3</title>
<path fill="none" stroke="midnightblue" d="M698.93,-229.98C730.52,-219.59 783.99,-202.01 819.15,-190.46"/>
<polygon fill="midnightblue" stroke="midnightblue" points="820.58,-193.67 828.99,-187.22 818.4,-187.02 820.58,-193.67"/>
</g>
<!-- Node18&#45;&gt;Node7 -->
<g id="edge28" class="edge">
<title>Node18&#45;&gt;Node7</title>
<path fill="none" stroke="midnightblue" d="M664.43,-229.82C645.37,-210.5 599.21,-163.74 574.78,-138.98"/>
<polygon fill="midnightblue" stroke="midnightblue" points="577.18,-136.44 567.67,-131.78 572.2,-141.36 577.18,-136.44"/>
</g>
<!-- Node18&#45;&gt;Node19 -->
<g id="edge29" class="edge">
<title>Node18&#45;&gt;Node19</title>
<path fill="none" stroke="midnightblue" d="M633.89,-229.98C585.13,-219.35 501.79,-201.18 448.88,-189.65"/>
<polygon fill="midnightblue" stroke="midnightblue" points="449.56,-186.22 439.04,-187.51 448.07,-193.06 449.56,-186.22"/>
</g>
<!-- Node19&#45;&gt;Node6 -->
<g id="edge32" class="edge">
<title>Node19&#45;&gt;Node6</title>
<path fill="none" stroke="midnightblue" d="M392.25,-168.34C384.95,-159.72 374.21,-145.81 368,-132 352.57,-97.71 345.17,-53.99 342.02,-29.6"/>
<polygon fill="midnightblue" stroke="midnightblue" points="345.48,-29.09 340.83,-19.58 338.53,-29.92 345.48,-29.09"/>
</g>
<!-- Node19&#45;&gt;Node7 -->
<g id="edge36" class="edge">
<title>Node19&#45;&gt;Node7</title>
<path fill="none" stroke="midnightblue" d="M425.19,-168.44C451.94,-159.36 494.4,-144.94 524.31,-134.78"/>
<polygon fill="midnightblue" stroke="midnightblue" points="525.58,-138.05 533.92,-131.52 523.33,-131.42 525.58,-138.05"/>
</g>
<!-- Node19&#45;&gt;Node17 -->
<g id="edge34" class="edge">
<title>Node19&#45;&gt;Node17</title>
<path fill="none" stroke="midnightblue" d="M357.61,-168.49C318.32,-160.42 258.03,-147.56 197.38,-132.24"/>
<polygon fill="midnightblue" stroke="midnightblue" points="198.19,-128.83 187.64,-129.76 196.47,-135.62 198.19,-128.83"/>
</g>
<!-- Node20 -->
<g id="node20" class="node">
<title>Node20</title>
<g id="a_node20"><a xlink:title=" ">
<polygon fill="white" stroke="#bfbfbf" points="289,-112.5 289,-131.5 321,-131.5 321,-112.5 289,-112.5"/>
<text text-anchor="middle" x="305" y="-119.5" font-family="Helvetica,sans-Serif" font-size="10.00">list</text>
</a>
</g>
</g>
<!-- Node19&#45;&gt;Node20 -->
<g id="edge30" class="edge">
<title>Node19&#45;&gt;Node20</title>
<path fill="none" stroke="midnightblue" d="M384.74,-168.32C369.78,-159.82 346.75,-146.73 329.27,-136.8"/>
<polygon fill="midnightblue" stroke="midnightblue" points="330.65,-133.55 320.23,-131.65 327.19,-139.64 330.65,-133.55"/>
</g>
<!-- Node21 -->
<g id="node21" class="node">
<title>Node21</title>
<g id="a_node21"><a xlink:title=" ">
<polygon fill="white" stroke="#bfbfbf" points="451.5,-112.5 451.5,-131.5 492.5,-131.5 492.5,-112.5 451.5,-112.5"/>
<text text-anchor="middle" x="472" y="-119.5" font-family="Helvetica,sans-Serif" font-size="10.00">tuple</text>
</a>
</g>
</g>
<!-- Node19&#45;&gt;Node21 -->
<g id="edge31" class="edge">
<title>Node19&#45;&gt;Node21</title>
<path fill="none" stroke="midnightblue" d="M411.57,-168.32C422.42,-160.18 438.88,-147.84 451.88,-138.09"/>
<polygon fill="midnightblue" stroke="midnightblue" points="454.32,-140.63 460.22,-131.83 450.12,-135.03 454.32,-140.63"/>
</g>
<!-- Node22 -->
<g id="node22" class="node">
<title>Node22</title>
<g id="a_node22"><a xlink:title=" ">
<polygon fill="white" stroke="#bfbfbf" points="205.5,-112.5 205.5,-131.5 270.5,-131.5 270.5,-112.5 205.5,-112.5"/>
<text text-anchor="middle" x="238" y="-119.5" font-family="Helvetica,sans-Serif" font-size="10.00">functional</text>
</a>
</g>
</g>
<!-- Node19&#45;&gt;Node22 -->
<g id="edge33" class="edge">
<title>Node19&#45;&gt;Node22</title>
<path fill="none" stroke="midnightblue" d="M374.33,-168.44C347.08,-159.36 303.82,-144.94 273.35,-134.78"/>
<polygon fill="midnightblue" stroke="midnightblue" points="274.14,-131.36 263.55,-131.52 271.93,-138 274.14,-131.36"/>
</g>
<!-- Node23 -->
<g id="node23" class="node">
<title>Node23</title>
<g id="a_node23"><a xlink:title=" ">
<polygon fill="white" stroke="#bfbfbf" points="377,-112.5 377,-131.5 433,-131.5 433,-112.5 377,-112.5"/>
<text text-anchor="middle" x="405" y="-119.5" font-family="Helvetica,sans-Serif" font-size="10.00">optional</text>
</a>
</g>
</g>
<!-- Node19&#45;&gt;Node23 -->
<g id="edge35" class="edge">
<title>Node19&#45;&gt;Node23</title>
<path fill="none" stroke="midnightblue" d="M400.83,-168.08C401.48,-161.01 402.42,-150.86 403.24,-141.99"/>
<polygon fill="midnightblue" stroke="midnightblue" points="406.75,-142.03 404.19,-131.75 399.78,-141.39 406.75,-142.03"/>
</g>
<!-- Node24&#45;&gt;Node9 -->
<g id="edge41" class="edge">
<title>Node24&#45;&gt;Node9</title>
<path fill="none" stroke="midnightblue" d="M154.84,-168.16C141.24,-155.24 120.24,-130.7 133,-112 146.26,-92.57 169.27,-81.53 191.24,-75.26"/>
<polygon fill="midnightblue" stroke="midnightblue" points="192.41,-78.57 201.23,-72.7 190.67,-71.79 192.41,-78.57"/>
</g>
<!-- Node24&#45;&gt;Node17 -->
<g id="edge40" class="edge">
<title>Node24&#45;&gt;Node17</title>
<path fill="none" stroke="midnightblue" d="M165,-168.08C165,-161.01 165,-150.86 165,-141.99"/>
<polygon fill="midnightblue" stroke="midnightblue" points="168.5,-141.75 165,-131.75 161.5,-141.75 168.5,-141.75"/>
</g>
<!-- Node24&#45;&gt;Node22 -->
<g id="edge39" class="edge">
<title>Node24&#45;&gt;Node22</title>
<path fill="none" stroke="midnightblue" d="M176.73,-168.32C187.84,-160.11 204.74,-147.6 217.98,-137.81"/>
<polygon fill="midnightblue" stroke="midnightblue" points="220.1,-140.59 226.06,-131.83 215.94,-134.97 220.1,-140.59"/>
</g>
<!-- Node25&#45;&gt;Node4 -->
<g id="edge43" class="edge">
<title>Node25&#45;&gt;Node4</title>
<path fill="none" stroke="midnightblue" d="M447.44,-229.95C479.27,-212.22 554.41,-169.96 616,-132 642.23,-115.83 703.47,-67.64 732,-56 797.54,-29.26 880.32,-18.03 925.94,-13.62"/>
<polygon fill="midnightblue" stroke="midnightblue" points="926.53,-17.08 936.17,-12.68 925.89,-10.11 926.53,-17.08"/>
</g>
<!-- Node25&#45;&gt;Node7 -->
<g id="edge47" class="edge">
<title>Node25&#45;&gt;Node7</title>
<path fill="none" stroke="midnightblue" d="M438.95,-229.7C450.15,-215.79 473.27,-188.22 496,-168 508.77,-156.64 524.39,-145.47 536.89,-137.09"/>
<polygon fill="midnightblue" stroke="midnightblue" points="538.92,-139.95 545.35,-131.53 535.07,-134.1 538.92,-139.95"/>
</g>
<!-- Node25&#45;&gt;Node19 -->
<g id="edge46" class="edge">
<title>Node25&#45;&gt;Node19</title>
<path fill="none" stroke="midnightblue" d="M427.42,-229.98C422.76,-221.32 415.41,-207.65 409.49,-196.65"/>
<polygon fill="midnightblue" stroke="midnightblue" points="412.4,-194.66 404.58,-187.51 406.23,-197.97 412.4,-194.66"/>
</g>
<!-- Node25&#45;&gt;Node20 -->
<g id="edge44" class="edge">
<title>Node25&#45;&gt;Node20</title>
<path fill="none" stroke="midnightblue" d="M412.05,-229.91C393.63,-221.26 366.29,-206.58 347,-188 332.83,-174.35 321.12,-155.05 313.7,-141.02"/>
<polygon fill="midnightblue" stroke="midnightblue" points="316.73,-139.24 309.08,-131.9 310.48,-142.4 316.73,-139.24"/>
</g>
<!-- Node25&#45;&gt;Node22 -->
<g id="edge45" class="edge">
<title>Node25&#45;&gt;Node22</title>
<path fill="none" stroke="midnightblue" d="M411.3,-229.88C389.69,-220.59 355.11,-204.84 327,-188 301.56,-172.77 274.3,-152.15 256.75,-138.26"/>
<polygon fill="midnightblue" stroke="midnightblue" points="258.52,-135.19 248.52,-131.67 254.14,-140.65 258.52,-135.19"/>
</g>
<!-- Node27&#45;&gt;Node11 -->
<g id="edge57" class="edge">
<title>Node27&#45;&gt;Node11</title>
<path fill="none" stroke="midnightblue" d="M1105.16,-347.33C1092.61,-321.82 1064.48,-266.82 1035,-224 997.42,-169.41 944.98,-110.95 919.34,-83.29"/>
<polygon fill="midnightblue" stroke="midnightblue" points="921.68,-80.66 912.29,-75.73 916.56,-85.43 921.68,-80.66"/>
</g>
<!-- Node28 -->
<g id="node28" class="node">
<title>Node28</title>
<g id="a_node28"><a xlink:href="sources_2Models_2Vector3_8hpp.html" target="_top" xlink:title=" ">
<polygon fill="white" stroke="black" points="1142.5,-291.5 1142.5,-310.5 1255.5,-310.5 1255.5,-291.5 1142.5,-291.5"/>
<text text-anchor="middle" x="1199" y="-298.5" font-family="Helvetica,sans-Serif" font-size="10.00">Models/Vector3.hpp</text>
</a>
</g>
</g>
<!-- Node27&#45;&gt;Node28 -->
<g id="edge52" class="edge">
<title>Node27&#45;&gt;Node28</title>
<path fill="none" stroke="midnightblue" d="M1132.62,-347.4C1146.3,-338.04 1164.21,-325.79 1177.98,-316.38"/>
<polygon fill="midnightblue" stroke="midnightblue" points="1180.06,-319.19 1186.34,-310.66 1176.11,-313.41 1180.06,-319.19"/>
</g>
<!-- Node28&#45;&gt;Node26 -->
<g id="edge53" class="edge">
<title>Node28&#45;&gt;Node26</title>
<path fill="none" stroke="midnightblue" d="M1191.98,-291.48C1184.56,-282.46 1172.67,-268.02 1163.43,-256.81"/>
<polygon fill="midnightblue" stroke="midnightblue" points="1166.07,-254.5 1157.01,-249.01 1160.66,-258.95 1166.07,-254.5"/>
</g>
<!-- Node29 -->
<g id="node29" class="node">
<title>Node29</title>
<g id="a_node29"><a xlink:title=" ">
<polygon fill="white" stroke="#bfbfbf" points="1198.5,-230 1198.5,-249 1245.5,-249 1245.5,-230 1198.5,-230"/>
<text text-anchor="middle" x="1222" y="-237" font-family="Helvetica,sans-Serif" font-size="10.00">cmath</text>
</a>
</g>
</g>
<!-- Node28&#45;&gt;Node29 -->
<g id="edge54" class="edge">
<title>Node28&#45;&gt;Node29</title>
<path fill="none" stroke="midnightblue" d="M1202.3,-291.48C1205.61,-282.9 1210.82,-269.43 1215.05,-258.48"/>
<polygon fill="midnightblue" stroke="midnightblue" points="1218.37,-259.6 1218.71,-249.01 1211.84,-257.07 1218.37,-259.6"/>
</g>
<!-- Node30 -->
<g id="node30" class="node">
<title>Node30</title>
<g id="a_node30"><a xlink:href="lib_2Ray_2sources_2Vector_2Vector3_8hpp.html" target="_top" xlink:title=" ">
<polygon fill="white" stroke="black" points="1264,-230 1264,-249 1372,-249 1372,-230 1264,-230"/>
<text text-anchor="middle" x="1318" y="-237" font-family="Helvetica,sans-Serif" font-size="10.00">Vector/Vector3.hpp</text>
</a>
</g>
</g>
<!-- Node28&#45;&gt;Node30 -->
<g id="edge55" class="edge">
<title>Node28&#45;&gt;Node30</title>
<path fill="none" stroke="midnightblue" d="M1216.05,-291.48C1235.84,-281.58 1268.72,-265.14 1291.77,-253.62"/>
<polygon fill="midnightblue" stroke="midnightblue" points="1293.6,-256.61 1300.98,-249.01 1290.47,-250.35 1293.6,-256.61"/>
</g>
<!-- Node31 -->
<g id="node31" class="node">
<title>Node31</title>
<g id="a_node31"><a xlink:title=" ">
<polygon fill="white" stroke="#bfbfbf" points="1291.5,-168.5 1291.5,-187.5 1344.5,-187.5 1344.5,-168.5 1291.5,-168.5"/>
<text text-anchor="middle" x="1318" y="-175.5" font-family="Helvetica,sans-Serif" font-size="10.00">raylib.h</text>
</a>
</g>
</g>
<!-- Node30&#45;&gt;Node31 -->
<g id="edge56" class="edge">
<title>Node30&#45;&gt;Node31</title>
<path fill="none" stroke="midnightblue" d="M1318,-229.98C1318,-221.58 1318,-208.48 1318,-197.66"/>
<polygon fill="midnightblue" stroke="midnightblue" points="1321.5,-197.51 1318,-187.51 1314.5,-197.51 1321.5,-197.51"/>
</g>
<!-- Node32&#45;&gt;Node3 -->
<g id="edge61" class="edge">
<title>Node32&#45;&gt;Node3</title>
<path fill="none" stroke="midnightblue" d="M923.43,-224.4C909.12,-215.04 890.39,-202.79 875.99,-193.38"/>
<polygon fill="midnightblue" stroke="midnightblue" points="877.53,-190.2 867.24,-187.66 873.7,-196.06 877.53,-190.2"/>
</g>
<!-- Node32&#45;&gt;Node7 -->
<g id="edge60" class="edge">
<title>Node32&#45;&gt;Node7</title>
<path fill="none" stroke="midnightblue" d="M937.91,-224.43C928.8,-207.92 911.31,-181.14 888,-168 842.91,-142.58 699.2,-130.68 617.41,-125.84"/>
<polygon fill="midnightblue" stroke="midnightblue" points="617.45,-122.34 607.27,-125.26 617.05,-129.33 617.45,-122.34"/>
</g>
<!-- Node32&#45;&gt;Node11 -->
<g id="edge59" class="edge">
<title>Node32&#45;&gt;Node11</title>
<path fill="none" stroke="midnightblue" d="M941.64,-224.47C934.29,-193.7 916.75,-120.33 908.47,-85.7"/>
<polygon fill="midnightblue" stroke="midnightblue" points="911.78,-84.47 906.05,-75.56 904.97,-86.1 911.78,-84.47"/>
</g>
</g>
</svg>
