<?xml version="1.0" encoding="UTF-8" standalone="no"?>
<!DOCTYPE svg PUBLIC "-//W3C//DTD SVG 1.1//EN"
 "http://www.w3.org/Graphics/SVG/1.1/DTD/svg11.dtd">
<!-- Generated by graphviz version 2.43.0 (0)
 -->
<!-- Title: sources/Items/Bonus.hpp Pages: 1 -->
<svg width="1691pt" height="285pt"
 viewBox="0.00 0.00 1690.50 285.00" xmlns="http://www.w3.org/2000/svg" xmlns:xlink="http://www.w3.org/1999/xlink">
<g id="graph0" class="graph" transform="scale(1 1) rotate(0) translate(4 281)">
<title>sources/Items/Bonus.hpp</title>
<polygon fill="white" stroke="transparent" points="-4,4 -4,-281 1686.5,-281 1686.5,4 -4,4"/>
<!-- Node1 -->
<g id="node1" class="node">
<title>Node1</title>
<g id="a_node1"><a xlink:title=" ">
<polygon fill="#bfbfbf" stroke="black" points="652.5,-257.5 652.5,-276.5 791.5,-276.5 791.5,-257.5 652.5,-257.5"/>
<text text-anchor="middle" x="722" y="-264.5" font-family="Helvetica,sans-Serif" font-size="10.00">sources/Items/Bonus.hpp</text>
</a>
</g>
</g>
<!-- Node2 -->
<g id="node2" class="node">
<title>Node2</title>
<g id="a_node2"><a xlink:href="Bonus_8cpp.html" target="_top" xlink:title=" ">
<polygon fill="white" stroke="black" points="466,-201.5 466,-220.5 604,-220.5 604,-201.5 466,-201.5"/>
<text text-anchor="middle" x="535" y="-208.5" font-family="Helvetica,sans-Serif" font-size="10.00">sources/Items/Bonus.cpp</text>
</a>
</g>
</g>
<!-- Node1&#45;&gt;Node2 -->
<g id="edge1" class="edge">
<title>Node1&#45;&gt;Node2</title>
<path fill="none" stroke="midnightblue" d="M682.41,-254.57C647.13,-244.38 596.31,-229.7 564.49,-220.52"/>
<polygon fill="midnightblue" stroke="midnightblue" points="681.79,-258.03 692.37,-257.44 683.73,-251.31 681.79,-258.03"/>
</g>
<!-- Node3 -->
<g id="node3" class="node">
<title>Node3</title>
<g id="a_node3"><a xlink:href="Map_8hpp.html" target="_top" xlink:title=" ">
<polygon fill="white" stroke="black" points="660.5,-201.5 660.5,-220.5 783.5,-220.5 783.5,-201.5 660.5,-201.5"/>
<text text-anchor="middle" x="722" y="-208.5" font-family="Helvetica,sans-Serif" font-size="10.00">sources/Map/Map.hpp</text>
</a>
</g>
</g>
<!-- Node1&#45;&gt;Node3 -->
<g id="edge2" class="edge">
<title>Node1&#45;&gt;Node3</title>
<path fill="none" stroke="midnightblue" d="M722,-246.8C722,-237.91 722,-227.78 722,-220.75"/>
<polygon fill="midnightblue" stroke="midnightblue" points="718.5,-247.08 722,-257.08 725.5,-247.08 718.5,-247.08"/>
</g>
<!-- Node5 -->
<g id="node5" class="node">
<title>Node5</title>
<g id="a_node5"><a xlink:href="Map_8cpp.html" target="_top" xlink:title=" ">
<polygon fill="white" stroke="black" points="0,-140 0,-159 122,-159 122,-140 0,-140"/>
<text text-anchor="middle" x="61" y="-147" font-family="Helvetica,sans-Serif" font-size="10.00">sources/Map/Map.cpp</text>
</a>
</g>
</g>
<!-- Node1&#45;&gt;Node5 -->
<g id="edge21" class="edge">
<title>Node1&#45;&gt;Node5</title>
<path fill="none" stroke="midnightblue" d="M699.85,-252.05C670.77,-233.84 622.29,-203.94 613,-201 408.17,-136.26 343.73,-194.85 131,-165 120.06,-163.47 108.27,-161.25 97.54,-159"/>
<polygon fill="midnightblue" stroke="midnightblue" points="698.21,-255.15 708.54,-257.5 701.93,-249.22 698.21,-255.15"/>
</g>
<!-- Node12 -->
<g id="node12" class="node">
<title>Node12</title>
<g id="a_node12"><a xlink:href="ParserYaml_8cpp.html" target="_top" xlink:title=" ">
<polygon fill="white" stroke="black" points="936,-73 936,-92 1100,-92 1100,-73 936,-73"/>
<text text-anchor="middle" x="1018" y="-80" font-family="Helvetica,sans-Serif" font-size="10.00">sources/Parser/ParserYaml.cpp</text>
</a>
</g>
</g>
<!-- Node1&#45;&gt;Node12 -->
<g id="edge22" class="edge">
<title>Node1&#45;&gt;Node12</title>
<path fill="none" stroke="midnightblue" d="M798.56,-255.53C858.51,-243.48 940.01,-218.03 991,-165 1010.84,-144.37 1016.11,-108.84 1017.5,-92.37"/>
<polygon fill="midnightblue" stroke="midnightblue" points="797.54,-252.16 788.38,-257.49 798.86,-259.03 797.54,-252.16"/>
</g>
<!-- Node13 -->
<g id="node13" class="node">
<title>Node13</title>
<g id="a_node13"><a xlink:href="ParserYaml_8hpp.html" target="_top" xlink:title=" ">
<polygon fill="white" stroke="black" points="1111,-140 1111,-159 1275,-159 1275,-140 1111,-140"/>
<text text-anchor="middle" x="1193" y="-147" font-family="Helvetica,sans-Serif" font-size="10.00">sources/Parser/ParserYaml.hpp</text>
</a>
</g>
</g>
<!-- Node1&#45;&gt;Node13 -->
<g id="edge23" class="edge">
<title>Node1&#45;&gt;Node13</title>
<path fill="none" stroke="midnightblue" d="M802.08,-260.32C865.42,-254.41 955.6,-242.84 1032,-221 1087.45,-205.15 1148.78,-174.28 1177.08,-159.2"/>
<polygon fill="midnightblue" stroke="midnightblue" points="801.41,-256.86 791.76,-261.25 802.04,-263.84 801.41,-256.86"/>
</g>
<!-- Node4 -->
<g id="node4" class="node">
<title>Node4</title>
<g id="a_node4"><a xlink:href="LuaMap_8cpp.html" target="_top" xlink:title=" ">
<polygon fill="white" stroke="black" points="652,-140 652,-159 792,-159 792,-140 652,-140"/>
<text text-anchor="middle" x="722" y="-147" font-family="Helvetica,sans-Serif" font-size="10.00">sources/Map/LuaMap.cpp</text>
</a>
</g>
</g>
<!-- Node3&#45;&gt;Node4 -->
<g id="edge3" class="edge">
<title>Node3&#45;&gt;Node4</title>
<path fill="none" stroke="midnightblue" d="M722,-191.32C722,-180.5 722,-167.4 722,-159.01"/>
<polygon fill="midnightblue" stroke="midnightblue" points="718.5,-191.48 722,-201.48 725.5,-191.48 718.5,-191.48"/>
</g>
<!-- Node3&#45;&gt;Node5 -->
<g id="edge4" class="edge">
<title>Node3&#45;&gt;Node5</title>
<path fill="none" stroke="midnightblue" d="M649.94,-201.38C648.62,-201.25 647.3,-201.12 646,-201 417.56,-179.5 358.3,-196.34 131,-165 120.06,-163.49 108.26,-161.28 97.53,-159.03"/>
<polygon fill="midnightblue" stroke="midnightblue" points="649.92,-204.89 660.22,-202.43 650.63,-197.93 649.92,-204.89"/>
</g>
<!-- Node6 -->
<g id="node6" class="node">
<title>Node6</title>
<g id="a_node6"><a xlink:href="MapInfo_8hpp.html" target="_top" xlink:title=" ">
<polygon fill="white" stroke="black" points="810,-140 810,-159 952,-159 952,-140 810,-140"/>
<text text-anchor="middle" x="881" y="-147" font-family="Helvetica,sans-Serif" font-size="10.00">sources/Map/MapInfo.hpp</text>
</a>
</g>
</g>
<!-- Node3&#45;&gt;Node6 -->
<g id="edge5" class="edge">
<title>Node3&#45;&gt;Node6</title>
<path fill="none" stroke="midnightblue" d="M754.25,-197.93C785.15,-186.37 831.01,-169.21 858.26,-159.01"/>
<polygon fill="midnightblue" stroke="midnightblue" points="752.92,-194.69 744.78,-201.48 755.37,-201.25 752.92,-194.69"/>
</g>
<!-- Node3&#45;&gt;Node12 -->
<g id="edge11" class="edge">
<title>Node3&#45;&gt;Node12</title>
<path fill="none" stroke="midnightblue" d="M793.87,-202.5C853.9,-195.16 933.88,-182.51 961,-165 989.29,-146.74 1007.55,-109.01 1014.65,-92.07"/>
<polygon fill="midnightblue" stroke="midnightblue" points="793.18,-199.06 783.67,-203.72 794.01,-206.01 793.18,-199.06"/>
</g>
<!-- Node3&#45;&gt;Node13 -->
<g id="edge12" class="edge">
<title>Node3&#45;&gt;Node13</title>
<path fill="none" stroke="midnightblue" d="M793.71,-200.94C883.92,-189.55 1037.63,-170.13 1125.7,-159"/>
<polygon fill="midnightblue" stroke="midnightblue" points="793.06,-197.5 783.58,-202.22 793.93,-204.44 793.06,-197.5"/>
</g>
<!-- Node17 -->
<g id="node17" class="node">
<title>Node17</title>
<g id="a_node17"><a xlink:href="GameScene_8cpp.html" target="_top" xlink:title=" ">
<polygon fill="white" stroke="black" points="140.5,-140 140.5,-159 313.5,-159 313.5,-140 140.5,-140"/>
<text text-anchor="middle" x="227" y="-147" font-family="Helvetica,sans-Serif" font-size="10.00">sources/Runner/GameScene.cpp</text>
</a>
</g>
</g>
<!-- Node3&#45;&gt;Node17 -->
<g id="edge18" class="edge">
<title>Node3&#45;&gt;Node17</title>
<path fill="none" stroke="midnightblue" d="M649.93,-201.45C648.61,-201.3 647.3,-201.15 646,-201 502.5,-184.51 466.22,-183.79 323,-165 309.38,-163.21 294.7,-161.09 281.02,-159.04"/>
<polygon fill="midnightblue" stroke="midnightblue" points="649.87,-204.97 660.2,-202.65 650.67,-198.02 649.87,-204.97"/>
</g>
<!-- Node18 -->
<g id="node18" class="node">
<title>Node18</title>
<g id="a_node18"><a xlink:href="BombHolderSystem_8cpp.html" target="_top" xlink:title=" ">
<polygon fill="white" stroke="black" points="332,-134.5 332,-164.5 490,-164.5 490,-134.5 332,-134.5"/>
<text text-anchor="start" x="340" y="-152.5" font-family="Helvetica,sans-Serif" font-size="10.00">sources/System/BombHolder</text>
<text text-anchor="middle" x="411" y="-141.5" font-family="Helvetica,sans-Serif" font-size="10.00">/BombHolderSystem.cpp</text>
</a>
</g>
</g>
<!-- Node3&#45;&gt;Node18 -->
<g id="edge19" class="edge">
<title>Node3&#45;&gt;Node18</title>
<path fill="none" stroke="midnightblue" d="M667.31,-199.54C616.47,-189.81 540.38,-175.25 484.3,-164.52"/>
<polygon fill="midnightblue" stroke="midnightblue" points="666.96,-203.03 677.44,-201.48 668.28,-196.16 666.96,-203.03"/>
</g>
<!-- Node19 -->
<g id="node19" class="node">
<title>Node19</title>
<g id="a_node19"><a xlink:href="LobbySystem_8cpp.html" target="_top" xlink:title=" ">
<polygon fill="white" stroke="black" points="508,-134.5 508,-164.5 634,-164.5 634,-134.5 508,-134.5"/>
<text text-anchor="start" x="516" y="-152.5" font-family="Helvetica,sans-Serif" font-size="10.00">sources/System/Lobby</text>
<text text-anchor="middle" x="571" y="-141.5" font-family="Helvetica,sans-Serif" font-size="10.00">/LobbySystem.cpp</text>
</a>
</g>
</g>
<!-- Node3&#45;&gt;Node19 -->
<g id="edge20" class="edge">
<title>Node3&#45;&gt;Node19</title>
<path fill="none" stroke="midnightblue" d="M690.83,-197.72C666.33,-188.06 632.17,-174.6 606.59,-164.52"/>
<polygon fill="midnightblue" stroke="midnightblue" points="689.78,-201.07 700.37,-201.48 692.34,-194.55 689.78,-201.07"/>
</g>
<!-- Node7 -->
<g id="node7" class="node">
<title>Node7</title>
<g id="a_node7"><a xlink:href="IAControllableComponent_8cpp.html" target="_top" xlink:title=" ">
<polygon fill="white" stroke="black" points="389.5,-67.5 389.5,-97.5 574.5,-97.5 574.5,-67.5 389.5,-67.5"/>
<text text-anchor="start" x="397.5" y="-85.5" font-family="Helvetica,sans-Serif" font-size="10.00">sources/Component/IAControllable</text>
<text text-anchor="middle" x="482" y="-74.5" font-family="Helvetica,sans-Serif" font-size="10.00">/IAControllableComponent.cpp</text>
</a>
</g>
</g>
<!-- Node6&#45;&gt;Node7 -->
<g id="edge6" class="edge">
<title>Node6&#45;&gt;Node7</title>
<path fill="none" stroke="midnightblue" d="M824.88,-138.17C816.87,-136.74 808.73,-135.31 801,-134 724.71,-121.05 637.97,-107.39 574.22,-97.54"/>
<polygon fill="midnightblue" stroke="midnightblue" points="824.46,-141.65 834.92,-139.97 825.7,-134.76 824.46,-141.65"/>
</g>
<!-- Node8 -->
<g id="node8" class="node">
<title>Node8</title>
<g id="a_node8"><a xlink:href="MapInfo_8cpp.html" target="_top" xlink:title=" ">
<polygon fill="white" stroke="black" points="592.5,-73 592.5,-92 733.5,-92 733.5,-73 592.5,-73"/>
<text text-anchor="middle" x="663" y="-80" font-family="Helvetica,sans-Serif" font-size="10.00">sources/Map/MapInfo.cpp</text>
</a>
</g>
</g>
<!-- Node6&#45;&gt;Node8 -->
<g id="edge7" class="edge">
<title>Node6&#45;&gt;Node8</title>
<path fill="none" stroke="midnightblue" d="M842.46,-137.01C799.32,-124.15 730.39,-103.59 691.72,-92.06"/>
<polygon fill="midnightblue" stroke="midnightblue" points="841.47,-140.37 852.05,-139.87 843.47,-133.66 841.47,-140.37"/>
</g>
<!-- Node9 -->
<g id="node9" class="node">
<title>Node9</title>
<g id="a_node9"><a xlink:href="IAControllableSystem_8hpp.html" target="_top" xlink:title=" ">
<polygon fill="white" stroke="black" points="752,-67.5 752,-97.5 918,-97.5 918,-67.5 752,-67.5"/>
<text text-anchor="start" x="760" y="-85.5" font-family="Helvetica,sans-Serif" font-size="10.00">sources/System/IAControllable</text>
<text text-anchor="middle" x="835" y="-74.5" font-family="Helvetica,sans-Serif" font-size="10.00">/IAControllableSystem.hpp</text>
</a>
</g>
</g>
<!-- Node6&#45;&gt;Node9 -->
<g id="edge8" class="edge">
<title>Node6&#45;&gt;Node9</title>
<path fill="none" stroke="midnightblue" d="M868.87,-131.35C861.41,-120.82 851.99,-107.5 844.97,-97.59"/>
<polygon fill="midnightblue" stroke="midnightblue" points="866.16,-133.59 874.8,-139.73 871.88,-129.55 866.16,-133.59"/>
</g>
<!-- Node10 -->
<g id="node10" class="node">
<title>Node10</title>
<g id="a_node10"><a xlink:href="Runner_8cpp.html" target="_top" xlink:title=" ">
<polygon fill="white" stroke="black" points="1160.5,-6 1160.5,-25 1309.5,-25 1309.5,-6 1160.5,-6"/>
<text text-anchor="middle" x="1235" y="-13" font-family="Helvetica,sans-Serif" font-size="10.00">sources/Runner/Runner.cpp</text>
</a>
</g>
</g>
<!-- Node9&#45;&gt;Node10 -->
<g id="edge9" class="edge">
<title>Node9&#45;&gt;Node10</title>
<path fill="none" stroke="midnightblue" d="M928.34,-66.33C1007.48,-53.47 1118.11,-35.5 1182.59,-25.02"/>
<polygon fill="midnightblue" stroke="midnightblue" points="927.68,-62.89 918.37,-67.95 928.8,-69.8 927.68,-62.89"/>
</g>
<!-- Node11 -->
<g id="node11" class="node">
<title>Node11</title>
<g id="a_node11"><a xlink:href="IAControllableSystem_8cpp.html" target="_top" xlink:title=" ">
<polygon fill="white" stroke="black" points="752,-0.5 752,-30.5 918,-30.5 918,-0.5 752,-0.5"/>
<text text-anchor="start" x="760" y="-18.5" font-family="Helvetica,sans-Serif" font-size="10.00">sources/System/IAControllable</text>
<text text-anchor="middle" x="835" y="-7.5" font-family="Helvetica,sans-Serif" font-size="10.00">/IAControllableSystem.cpp</text>
</a>
</g>
</g>
<!-- Node9&#45;&gt;Node11 -->
<g id="edge10" class="edge">
<title>Node9&#45;&gt;Node11</title>
<path fill="none" stroke="midnightblue" d="M835,-57.11C835,-48.15 835,-38.32 835,-30.58"/>
<polygon fill="midnightblue" stroke="midnightblue" points="831.5,-57.4 835,-67.4 838.5,-57.4 831.5,-57.4"/>
</g>
<!-- Node13&#45;&gt;Node10 -->
<g id="edge16" class="edge">
<title>Node13&#45;&gt;Node10</title>
<path fill="none" stroke="midnightblue" d="M1285.5,-141.69C1347.52,-134.99 1421.32,-122.09 1441,-98 1481.15,-48.85 1383.97,-29.2 1309.8,-21.44"/>
<polygon fill="midnightblue" stroke="midnightblue" points="1284.85,-138.24 1275.26,-142.76 1285.57,-145.21 1284.85,-138.24"/>
</g>
<!-- Node13&#45;&gt;Node12 -->
<g id="edge13" class="edge">
<title>Node13&#45;&gt;Node12</title>
<path fill="none" stroke="midnightblue" d="M1160.07,-136.27C1125.34,-123.37 1071.51,-103.38 1041.06,-92.06"/>
<polygon fill="midnightblue" stroke="midnightblue" points="1159.17,-139.67 1169.76,-139.87 1161.61,-133.11 1159.17,-139.67"/>
</g>
<!-- Node14 -->
<g id="node14" class="node">
<title>Node14</title>
<g id="a_node14"><a xlink:href="MainMenuScene_8cpp.html" target="_top" xlink:title=" ">
<polygon fill="white" stroke="black" points="1487.5,-73 1487.5,-92 1682.5,-92 1682.5,-73 1487.5,-73"/>
<text text-anchor="middle" x="1585" y="-80" font-family="Helvetica,sans-Serif" font-size="10.00">sources/Runner/MainMenuScene.cpp</text>
</a>
</g>
</g>
<!-- Node13&#45;&gt;Node14 -->
<g id="edge14" class="edge">
<title>Node13&#45;&gt;Node14</title>
<path fill="none" stroke="midnightblue" d="M1254.68,-138.27C1331.61,-125.52 1461.73,-103.94 1533.55,-92.03"/>
<polygon fill="midnightblue" stroke="midnightblue" points="1253.94,-134.85 1244.65,-139.94 1255.09,-141.75 1253.94,-134.85"/>
</g>
<!-- Node15 -->
<g id="node15" class="node">
<title>Node15</title>
<g id="a_node15"><a xlink:href="PauseMenuScene_8cpp.html" target="_top" xlink:title=" ">
<polygon fill="white" stroke="black" points="1118,-67.5 1118,-97.5 1268,-97.5 1268,-67.5 1118,-67.5"/>
<text text-anchor="start" x="1126" y="-85.5" font-family="Helvetica,sans-Serif" font-size="10.00">sources/Runner/PauseMenu</text>
<text text-anchor="middle" x="1193" y="-74.5" font-family="Helvetica,sans-Serif" font-size="10.00">Scene.cpp</text>
</a>
</g>
</g>
<!-- Node13&#45;&gt;Node15 -->
<g id="edge15" class="edge">
<title>Node13&#45;&gt;Node15</title>
<path fill="none" stroke="midnightblue" d="M1193,-129.41C1193,-119.22 1193,-106.9 1193,-97.59"/>
<polygon fill="midnightblue" stroke="midnightblue" points="1189.5,-129.73 1193,-139.73 1196.5,-129.73 1189.5,-129.73"/>
</g>
<!-- Node16 -->
<g id="node16" class="node">
<title>Node16</title>
<g id="a_node16"><a xlink:href="ResumeLobbySystem_8cpp.html" target="_top" xlink:title=" ">
<polygon fill="white" stroke="black" points="1286,-67.5 1286,-97.5 1432,-97.5 1432,-67.5 1286,-67.5"/>
<text text-anchor="start" x="1294" y="-85.5" font-family="Helvetica,sans-Serif" font-size="10.00">sources/System/Lobby</text>
<text text-anchor="middle" x="1359" y="-74.5" font-family="Helvetica,sans-Serif" font-size="10.00">/ResumeLobbySystem.cpp</text>
</a>
</g>
</g>
<!-- Node13&#45;&gt;Node16 -->
<g id="edge17" class="edge">
<title>Node13&#45;&gt;Node16</title>
<path fill="none" stroke="midnightblue" d="M1224.41,-136.2C1252.54,-125.19 1293.77,-109.04 1323.17,-97.53"/>
<polygon fill="midnightblue" stroke="midnightblue" points="1223.08,-132.96 1215.04,-139.87 1225.63,-139.48 1223.08,-132.96"/>
</g>
</g>
</svg>
