<?xml version="1.0" encoding="UTF-8" standalone="no"?>
<!DOCTYPE svg PUBLIC "-//W3C//DTD SVG 1.1//EN"
 "http://www.w3.org/Graphics/SVG/1.1/DTD/svg11.dtd">
<!-- Generated by graphviz version 2.43.0 (0)
 -->
<!-- Title: sources/Items/Bonus.cpp Pages: 1 -->
<svg width="1347pt" height="319pt"
 viewBox="0.00 0.00 1347.00 319.00" xmlns="http://www.w3.org/2000/svg" xmlns:xlink="http://www.w3.org/1999/xlink">
<g id="graph0" class="graph" transform="scale(1 1) rotate(0) translate(4 315)">
<title>sources/Items/Bonus.cpp</title>
<polygon fill="white" stroke="transparent" points="-4,4 -4,-315 1343,-315 1343,4 -4,4"/>
<!-- Node1 -->
<g id="node1" class="node">
<title>Node1</title>
<g id="a_node1"><a xlink:title=" ">
<polygon fill="#bfbfbf" stroke="black" points="871,-291.5 871,-310.5 1009,-310.5 1009,-291.5 871,-291.5"/>
<text text-anchor="middle" x="940" y="-298.5" font-family="Helvetica,sans-Serif" font-size="10.00">sources/Items/Bonus.cpp</text>
</a>
</g>
</g>
<!-- Node2 -->
<g id="node2" class="node">
<title>Node2</title>
<g id="a_node2"><a xlink:href="CollisionComponent_8hpp.html" target="_top" xlink:title=" ">
<polygon fill="white" stroke="black" points="585.5,-168.5 585.5,-198.5 724.5,-198.5 724.5,-168.5 585.5,-168.5"/>
<text text-anchor="start" x="593.5" y="-186.5" font-family="Helvetica,sans-Serif" font-size="10.00">Component/Collision</text>
<text text-anchor="middle" x="655" y="-175.5" font-family="Helvetica,sans-Serif" font-size="10.00">/CollisionComponent.hpp</text>
</a>
</g>
</g>
<!-- Node1&#45;&gt;Node2 -->
<g id="edge1" class="edge">
<title>Node1&#45;&gt;Node2</title>
<path fill="none" stroke="midnightblue" d="M870.96,-293.33C809.92,-286.33 726.42,-273.71 699,-255 682.48,-243.73 670.95,-223.99 663.85,-208.26"/>
<polygon fill="midnightblue" stroke="midnightblue" points="666.9,-206.5 659.81,-198.63 660.45,-209.21 666.9,-206.5"/>
</g>
<!-- Node23 -->
<g id="node23" class="node">
<title>Node23</title>
<g id="a_node23"><a xlink:href="ControllableComponent_8hpp.html" target="_top" xlink:title=" ">
<polygon fill="white" stroke="black" points="781,-168.5 781,-198.5 937,-198.5 937,-168.5 781,-168.5"/>
<text text-anchor="start" x="789" y="-186.5" font-family="Helvetica,sans-Serif" font-size="10.00">Component/Controllable</text>
<text text-anchor="middle" x="859" y="-175.5" font-family="Helvetica,sans-Serif" font-size="10.00">/ControllableComponent.hpp</text>
</a>
</g>
</g>
<!-- Node1&#45;&gt;Node23 -->
<g id="edge26" class="edge">
<title>Node1&#45;&gt;Node23</title>
<path fill="none" stroke="midnightblue" d="M880.32,-291.43C858.57,-285.1 836.12,-274.11 823,-255 812.37,-239.52 823.35,-220.47 835.9,-206.08"/>
<polygon fill="midnightblue" stroke="midnightblue" points="838.61,-208.3 842.91,-198.61 833.51,-203.51 838.61,-208.3"/>
</g>
<!-- Node27 -->
<g id="node27" class="node">
<title>Node27</title>
<g id="a_node27"><a xlink:href="SpeedComponent_8hpp.html" target="_top" xlink:title=" ">
<polygon fill="white" stroke="black" points="832,-235.5 832,-254.5 1048,-254.5 1048,-235.5 832,-235.5"/>
<text text-anchor="middle" x="940" y="-242.5" font-family="Helvetica,sans-Serif" font-size="10.00">Component/Speed/SpeedComponent.hpp</text>
</a>
</g>
</g>
<!-- Node1&#45;&gt;Node27 -->
<g id="edge35" class="edge">
<title>Node1&#45;&gt;Node27</title>
<path fill="none" stroke="midnightblue" d="M940,-291.08C940,-284.01 940,-273.86 940,-264.99"/>
<polygon fill="midnightblue" stroke="midnightblue" points="943.5,-264.75 940,-254.75 936.5,-264.75 943.5,-264.75"/>
</g>
<!-- Node28 -->
<g id="node28" class="node">
<title>Node28</title>
<g id="a_node28"><a xlink:href="PlayerBonusComponent_8hpp.html" target="_top" xlink:title=" ">
<polygon fill="white" stroke="black" points="1169,-168.5 1169,-198.5 1339,-198.5 1339,-168.5 1169,-168.5"/>
<text text-anchor="start" x="1177" y="-186.5" font-family="Helvetica,sans-Serif" font-size="10.00">Component/Bonus/PlayerBonus</text>
<text text-anchor="middle" x="1254" y="-175.5" font-family="Helvetica,sans-Serif" font-size="10.00">Component.hpp</text>
</a>
</g>
</g>
<!-- Node1&#45;&gt;Node28 -->
<g id="edge37" class="edge">
<title>Node1&#45;&gt;Node28</title>
<path fill="none" stroke="midnightblue" d="M1009.21,-296.51C1082.01,-291.55 1190.45,-280.11 1223,-255 1237.54,-243.79 1245.4,-224.32 1249.56,-208.68"/>
<polygon fill="midnightblue" stroke="midnightblue" points="1253.05,-209.14 1251.89,-198.61 1246.23,-207.56 1253.05,-209.14"/>
</g>
<!-- Node29 -->
<g id="node29" class="node">
<title>Node29</title>
<g id="a_node29"><a xlink:href="MovableComponent_8hpp.html" target="_top" xlink:title=" ">
<polygon fill="white" stroke="black" points="404.5,-168.5 404.5,-198.5 567.5,-198.5 567.5,-168.5 404.5,-168.5"/>
<text text-anchor="start" x="412.5" y="-186.5" font-family="Helvetica,sans-Serif" font-size="10.00">Component/Movable/Movable</text>
<text text-anchor="middle" x="486" y="-175.5" font-family="Helvetica,sans-Serif" font-size="10.00">Component.hpp</text>
</a>
</g>
</g>
<!-- Node1&#45;&gt;Node29 -->
<g id="edge41" class="edge">
<title>Node1&#45;&gt;Node29</title>
<path fill="none" stroke="midnightblue" d="M870.87,-291.81C817.16,-284.58 741.12,-272.47 676,-255 623.9,-241.03 566.07,-218.51 528.05,-202.69"/>
<polygon fill="midnightblue" stroke="midnightblue" points="528.92,-199.26 518.35,-198.62 526.22,-205.71 528.92,-199.26"/>
</g>
<!-- Node30 -->
<g id="node30" class="node">
<title>Node30</title>
<g id="a_node30"><a xlink:href="Bonus_8hpp.html" target="_top" xlink:title=" ">
<polygon fill="white" stroke="black" points="708,-235.5 708,-254.5 776,-254.5 776,-235.5 708,-235.5"/>
<text text-anchor="middle" x="742" y="-242.5" font-family="Helvetica,sans-Serif" font-size="10.00">Bonus.hpp</text>
</a>
</g>
</g>
<!-- Node1&#45;&gt;Node30 -->
<g id="edge44" class="edge">
<title>Node1&#45;&gt;Node30</title>
<path fill="none" stroke="midnightblue" d="M908.63,-291.44C874.74,-282.2 820.6,-267.44 783.28,-257.26"/>
<polygon fill="midnightblue" stroke="midnightblue" points="783.8,-253.77 773.23,-254.52 781.95,-260.52 783.8,-253.77"/>
</g>
<!-- Node31 -->
<g id="node31" class="node">
<title>Node31</title>
<g id="a_node31"><a xlink:title=" ">
<polygon fill="white" stroke="#bfbfbf" points="1104,-235.5 1104,-254.5 1142,-254.5 1142,-235.5 1104,-235.5"/>
<text text-anchor="middle" x="1123" y="-242.5" font-family="Helvetica,sans-Serif" font-size="10.00">map</text>
</a>
</g>
</g>
<!-- Node1&#45;&gt;Node31 -->
<g id="edge47" class="edge">
<title>Node1&#45;&gt;Node31</title>
<path fill="none" stroke="midnightblue" d="M969,-291.44C1003.25,-281.34 1059.88,-264.63 1094.09,-254.53"/>
<polygon fill="midnightblue" stroke="midnightblue" points="1095.34,-257.81 1103.94,-251.62 1093.36,-251.1 1095.34,-257.81"/>
</g>
<!-- Node32 -->
<g id="node32" class="node">
<title>Node32</title>
<g id="a_node32"><a xlink:title=" ">
<polygon fill="white" stroke="#bfbfbf" points="1160,-235.5 1160,-254.5 1214,-254.5 1214,-235.5 1160,-235.5"/>
<text text-anchor="middle" x="1187" y="-242.5" font-family="Helvetica,sans-Serif" font-size="10.00">random</text>
</a>
</g>
</g>
<!-- Node1&#45;&gt;Node32 -->
<g id="edge48" class="edge">
<title>Node1&#45;&gt;Node32</title>
<path fill="none" stroke="midnightblue" d="M982.13,-291.47C1022.71,-283.14 1086.05,-269.89 1150.04,-255.16"/>
<polygon fill="midnightblue" stroke="midnightblue" points="1150.94,-258.55 1159.9,-252.88 1149.37,-251.73 1150.94,-258.55"/>
</g>
<!-- Node33 -->
<g id="node33" class="node">
<title>Node33</title>
<g id="a_node33"><a xlink:href="BombHolderComponent_8hpp.html" target="_top" xlink:title=" ">
<polygon fill="white" stroke="black" points="993,-168.5 993,-198.5 1151,-198.5 1151,-168.5 993,-168.5"/>
<text text-anchor="start" x="1001" y="-186.5" font-family="Helvetica,sans-Serif" font-size="10.00">Component/BombHolder</text>
<text text-anchor="middle" x="1072" y="-175.5" font-family="Helvetica,sans-Serif" font-size="10.00">/BombHolderComponent.hpp</text>
</a>
</g>
</g>
<!-- Node1&#45;&gt;Node33 -->
<g id="edge49" class="edge">
<title>Node1&#45;&gt;Node33</title>
<path fill="none" stroke="midnightblue" d="M992.29,-291.49C1015.27,-285.14 1040.68,-274.12 1057,-255 1067.85,-242.29 1071.46,-223.65 1072.44,-208.73"/>
<polygon fill="midnightblue" stroke="midnightblue" points="1075.94,-208.76 1072.74,-198.66 1068.94,-208.54 1075.94,-208.76"/>
</g>
<!-- Node3 -->
<g id="node3" class="node">
<title>Node3</title>
<g id="a_node3"><a xlink:href="Callback_8hpp.html" target="_top" xlink:title=" ">
<polygon fill="white" stroke="black" points="481,-112.5 481,-131.5 599,-131.5 599,-112.5 481,-112.5"/>
<text text-anchor="middle" x="540" y="-119.5" font-family="Helvetica,sans-Serif" font-size="10.00">Models/Callback.hpp</text>
</a>
</g>
</g>
<!-- Node2&#45;&gt;Node3 -->
<g id="edge2" class="edge">
<title>Node2&#45;&gt;Node3</title>
<path fill="none" stroke="midnightblue" d="M627.75,-168.4C608.97,-158.68 584.17,-145.86 565.73,-136.31"/>
<polygon fill="midnightblue" stroke="midnightblue" points="567.22,-133.14 556.73,-131.66 564.01,-139.36 567.22,-133.14"/>
</g>
<!-- Node7 -->
<g id="node7" class="node">
<title>Node7</title>
<g id="a_node7"><a xlink:href="sources_2Models_2Vector3_8hpp.html" target="_top" xlink:title=" ">
<polygon fill="white" stroke="black" points="136.5,-112.5 136.5,-131.5 249.5,-131.5 249.5,-112.5 136.5,-112.5"/>
<text text-anchor="middle" x="193" y="-119.5" font-family="Helvetica,sans-Serif" font-size="10.00">Models/Vector3.hpp</text>
</a>
</g>
</g>
<!-- Node2&#45;&gt;Node7 -->
<g id="edge6" class="edge">
<title>Node2&#45;&gt;Node7</title>
<path fill="none" stroke="midnightblue" d="M585.26,-169.43C582.13,-168.93 579.03,-168.45 576,-168 438.6,-147.64 400.88,-149.65 260.03,-132.23"/>
<polygon fill="midnightblue" stroke="midnightblue" points="260.07,-128.7 249.71,-130.94 259.2,-135.65 260.07,-128.7"/>
</g>
<!-- Node12 -->
<g id="node12" class="node">
<title>Node12</title>
<g id="a_node12"><a xlink:href="Component_8hpp.html" target="_top" xlink:title=" ">
<polygon fill="white" stroke="black" points="1139.5,-56.5 1139.5,-75.5 1292.5,-75.5 1292.5,-56.5 1139.5,-56.5"/>
<text text-anchor="middle" x="1216" y="-63.5" font-family="Helvetica,sans-Serif" font-size="10.00">Component/Component.hpp</text>
</a>
</g>
</g>
<!-- Node2&#45;&gt;Node12 -->
<g id="edge11" class="edge">
<title>Node2&#45;&gt;Node12</title>
<path fill="none" stroke="midnightblue" d="M724.72,-169.73C767.28,-161.06 822.46,-148.21 870,-132 890.33,-125.07 893.4,-118.09 914,-112 953.75,-100.26 1057.65,-86.07 1132.47,-76.8"/>
<polygon fill="midnightblue" stroke="midnightblue" points="1133.33,-80.22 1142.83,-75.53 1132.48,-73.28 1133.33,-80.22"/>
</g>
<!-- Node16 -->
<g id="node16" class="node">
<title>Node16</title>
<g id="a_node16"><a xlink:href="Entity_8hpp.html" target="_top" xlink:title=" ">
<polygon fill="white" stroke="black" points="765,-112.5 765,-131.5 861,-131.5 861,-112.5 765,-112.5"/>
<text text-anchor="middle" x="813" y="-119.5" font-family="Helvetica,sans-Serif" font-size="10.00">Entity/Entity.hpp</text>
</a>
</g>
</g>
<!-- Node2&#45;&gt;Node16 -->
<g id="edge15" class="edge">
<title>Node2&#45;&gt;Node16</title>
<path fill="none" stroke="midnightblue" d="M692.44,-168.4C719.19,-158.33 754.82,-144.91 780.4,-135.28"/>
<polygon fill="midnightblue" stroke="midnightblue" points="781.88,-138.46 790.01,-131.66 779.42,-131.91 781.88,-138.46"/>
</g>
<!-- Node4 -->
<g id="node4" class="node">
<title>Node4</title>
<g id="a_node4"><a xlink:title=" ">
<polygon fill="white" stroke="#bfbfbf" points="459.5,-56.5 459.5,-75.5 524.5,-75.5 524.5,-56.5 459.5,-56.5"/>
<text text-anchor="middle" x="492" y="-63.5" font-family="Helvetica,sans-Serif" font-size="10.00">functional</text>
</a>
</g>
</g>
<!-- Node3&#45;&gt;Node4 -->
<g id="edge3" class="edge">
<title>Node3&#45;&gt;Node4</title>
<path fill="none" stroke="midnightblue" d="M532.07,-112.08C525.15,-104.3 514.93,-92.8 506.55,-83.37"/>
<polygon fill="midnightblue" stroke="midnightblue" points="509.04,-80.9 499.78,-75.75 503.81,-85.55 509.04,-80.9"/>
</g>
<!-- Node5 -->
<g id="node5" class="node">
<title>Node5</title>
<g id="a_node5"><a xlink:title=" ">
<polygon fill="white" stroke="#bfbfbf" points="396.5,-56.5 396.5,-75.5 441.5,-75.5 441.5,-56.5 396.5,-56.5"/>
<text text-anchor="middle" x="419" y="-63.5" font-family="Helvetica,sans-Serif" font-size="10.00">utility</text>
</a>
</g>
</g>
<!-- Node3&#45;&gt;Node5 -->
<g id="edge4" class="edge">
<title>Node3&#45;&gt;Node5</title>
<path fill="none" stroke="midnightblue" d="M520.83,-112.44C501.09,-103.64 470.11,-89.81 447.51,-79.72"/>
<polygon fill="midnightblue" stroke="midnightblue" points="448.64,-76.4 438.08,-75.52 445.79,-82.79 448.64,-76.4"/>
</g>
<!-- Node6 -->
<g id="node6" class="node">
<title>Node6</title>
<g id="a_node6"><a xlink:title=" ">
<polygon fill="white" stroke="#bfbfbf" points="542.5,-56.5 542.5,-75.5 635.5,-75.5 635.5,-56.5 542.5,-56.5"/>
<text text-anchor="middle" x="589" y="-63.5" font-family="Helvetica,sans-Serif" font-size="10.00">unordered_map</text>
</a>
</g>
</g>
<!-- Node3&#45;&gt;Node6 -->
<g id="edge5" class="edge">
<title>Node3&#45;&gt;Node6</title>
<path fill="none" stroke="midnightblue" d="M548.09,-112.08C555.16,-104.3 565.59,-92.8 574.15,-83.37"/>
<polygon fill="midnightblue" stroke="midnightblue" points="576.93,-85.51 581.06,-75.75 571.75,-80.8 576.93,-85.51"/>
</g>
<!-- Node8 -->
<g id="node8" class="node">
<title>Node8</title>
<g id="a_node8"><a xlink:title=" ">
<polygon fill="white" stroke="#bfbfbf" points="192,-56.5 192,-75.5 252,-75.5 252,-56.5 192,-56.5"/>
<text text-anchor="middle" x="222" y="-63.5" font-family="Helvetica,sans-Serif" font-size="10.00">iostream</text>
</a>
</g>
</g>
<!-- Node7&#45;&gt;Node8 -->
<g id="edge7" class="edge">
<title>Node7&#45;&gt;Node8</title>
<path fill="none" stroke="midnightblue" d="M197.79,-112.08C201.76,-104.69 207.53,-93.95 212.43,-84.81"/>
<polygon fill="midnightblue" stroke="midnightblue" points="215.65,-86.22 217.3,-75.75 209.49,-82.91 215.65,-86.22"/>
</g>
<!-- Node9 -->
<g id="node9" class="node">
<title>Node9</title>
<g id="a_node9"><a xlink:title=" ">
<polygon fill="white" stroke="#bfbfbf" points="126.5,-56.5 126.5,-75.5 173.5,-75.5 173.5,-56.5 126.5,-56.5"/>
<text text-anchor="middle" x="150" y="-63.5" font-family="Helvetica,sans-Serif" font-size="10.00">cmath</text>
</a>
</g>
</g>
<!-- Node7&#45;&gt;Node9 -->
<g id="edge8" class="edge">
<title>Node7&#45;&gt;Node9</title>
<path fill="none" stroke="midnightblue" d="M185.9,-112.08C179.76,-104.38 170.73,-93.03 163.26,-83.65"/>
<polygon fill="midnightblue" stroke="midnightblue" points="165.94,-81.39 156.97,-75.75 160.46,-85.75 165.94,-81.39"/>
</g>
<!-- Node10 -->
<g id="node10" class="node">
<title>Node10</title>
<g id="a_node10"><a xlink:href="lib_2Ray_2sources_2Vector_2Vector3_8hpp.html" target="_top" xlink:title=" ">
<polygon fill="white" stroke="black" points="0,-56.5 0,-75.5 108,-75.5 108,-56.5 0,-56.5"/>
<text text-anchor="middle" x="54" y="-63.5" font-family="Helvetica,sans-Serif" font-size="10.00">Vector/Vector3.hpp</text>
</a>
</g>
</g>
<!-- Node7&#45;&gt;Node10 -->
<g id="edge9" class="edge">
<title>Node7&#45;&gt;Node10</title>
<path fill="none" stroke="midnightblue" d="M170.98,-112.44C147.9,-103.48 111.44,-89.31 85.36,-79.18"/>
<polygon fill="midnightblue" stroke="midnightblue" points="86.51,-75.88 75.92,-75.52 83.98,-82.4 86.51,-75.88"/>
</g>
<!-- Node11 -->
<g id="node11" class="node">
<title>Node11</title>
<g id="a_node11"><a xlink:title=" ">
<polygon fill="white" stroke="#bfbfbf" points="162.5,-0.5 162.5,-19.5 215.5,-19.5 215.5,-0.5 162.5,-0.5"/>
<text text-anchor="middle" x="189" y="-7.5" font-family="Helvetica,sans-Serif" font-size="10.00">raylib.h</text>
</a>
</g>
</g>
<!-- Node10&#45;&gt;Node11 -->
<g id="edge10" class="edge">
<title>Node10&#45;&gt;Node11</title>
<path fill="none" stroke="midnightblue" d="M75.39,-56.44C97.71,-47.52 132.9,-33.44 158.21,-23.32"/>
<polygon fill="midnightblue" stroke="midnightblue" points="159.72,-26.48 167.71,-19.52 157.12,-19.98 159.72,-26.48"/>
</g>
<!-- Node13 -->
<g id="node13" class="node">
<title>Node13</title>
<g id="a_node13"><a xlink:title=" ">
<polygon fill="white" stroke="#bfbfbf" points="1155.5,-0.5 1155.5,-19.5 1202.5,-19.5 1202.5,-0.5 1155.5,-0.5"/>
<text text-anchor="middle" x="1179" y="-7.5" font-family="Helvetica,sans-Serif" font-size="10.00">vector</text>
</a>
</g>
</g>
<!-- Node12&#45;&gt;Node13 -->
<g id="edge12" class="edge">
<title>Node12&#45;&gt;Node13</title>
<path fill="none" stroke="midnightblue" d="M1209.89,-56.08C1204.72,-48.53 1197.15,-37.49 1190.81,-28.23"/>
<polygon fill="midnightblue" stroke="midnightblue" points="1193.54,-26.02 1185,-19.75 1187.76,-29.98 1193.54,-26.02"/>
</g>
<!-- Node14 -->
<g id="node14" class="node">
<title>Node14</title>
<g id="a_node14"><a xlink:title=" ">
<polygon fill="white" stroke="#bfbfbf" points="866,-0.5 866,-19.5 910,-19.5 910,-0.5 866,-0.5"/>
<text text-anchor="middle" x="888" y="-7.5" font-family="Helvetica,sans-Serif" font-size="10.00">string</text>
</a>
</g>
</g>
<!-- Node12&#45;&gt;Node14 -->
<g id="edge13" class="edge">
<title>Node12&#45;&gt;Node14</title>
<path fill="none" stroke="midnightblue" d="M1164.03,-56.44C1095.64,-45.18 977.46,-25.73 920.52,-16.35"/>
<polygon fill="midnightblue" stroke="midnightblue" points="920.74,-12.84 910.31,-14.67 919.6,-19.75 920.74,-12.84"/>
</g>
<!-- Node15 -->
<g id="node15" class="node">
<title>Node15</title>
<g id="a_node15"><a xlink:title=" ">
<polygon fill="white" stroke="#bfbfbf" points="1220.5,-0.5 1220.5,-19.5 1285.5,-19.5 1285.5,-0.5 1220.5,-0.5"/>
<text text-anchor="middle" x="1253" y="-7.5" font-family="Helvetica,sans-Serif" font-size="10.00">typeindex</text>
</a>
</g>
</g>
<!-- Node12&#45;&gt;Node15 -->
<g id="edge14" class="edge">
<title>Node12&#45;&gt;Node15</title>
<path fill="none" stroke="midnightblue" d="M1222.11,-56.08C1227.28,-48.53 1234.85,-37.49 1241.19,-28.23"/>
<polygon fill="midnightblue" stroke="midnightblue" points="1244.24,-29.98 1247,-19.75 1238.46,-26.02 1244.24,-29.98"/>
</g>
<!-- Node16&#45;&gt;Node6 -->
<g id="edge17" class="edge">
<title>Node16&#45;&gt;Node6</title>
<path fill="none" stroke="midnightblue" d="M777.51,-112.44C738.68,-103.08 676.34,-88.06 634.08,-77.87"/>
<polygon fill="midnightblue" stroke="midnightblue" points="634.87,-74.46 624.33,-75.52 633.23,-81.26 634.87,-74.46"/>
</g>
<!-- Node16&#45;&gt;Node12 -->
<g id="edge20" class="edge">
<title>Node16&#45;&gt;Node12</title>
<path fill="none" stroke="midnightblue" d="M861.06,-113.96C865.77,-113.29 870.48,-112.63 875,-112 965.77,-99.42 1070.24,-85.76 1139.38,-76.82"/>
<polygon fill="midnightblue" stroke="midnightblue" points="1139.85,-80.29 1149.32,-75.54 1138.95,-73.35 1139.85,-80.29"/>
</g>
<!-- Node16&#45;&gt;Node14 -->
<g id="edge16" class="edge">
<title>Node16&#45;&gt;Node14</title>
<path fill="none" stroke="midnightblue" d="M828.25,-112.4C840.93,-104.5 858.54,-91.66 869,-76 878.29,-62.1 883.12,-43.59 885.58,-29.88"/>
<polygon fill="midnightblue" stroke="midnightblue" points="889.09,-30.11 887.14,-19.69 882.17,-29.05 889.09,-30.11"/>
</g>
<!-- Node17 -->
<g id="node17" class="node">
<title>Node17</title>
<g id="a_node17"><a xlink:title=" ">
<polygon fill="white" stroke="#bfbfbf" points="1064.5,-56.5 1064.5,-75.5 1121.5,-75.5 1121.5,-56.5 1064.5,-56.5"/>
<text text-anchor="middle" x="1093" y="-63.5" font-family="Helvetica,sans-Serif" font-size="10.00">typeinfo</text>
</a>
</g>
</g>
<!-- Node16&#45;&gt;Node17 -->
<g id="edge18" class="edge">
<title>Node16&#45;&gt;Node17</title>
<path fill="none" stroke="midnightblue" d="M861.35,-112.72C908.19,-104.55 981.47,-91.33 1054.56,-76.01"/>
<polygon fill="midnightblue" stroke="midnightblue" points="1055.34,-79.42 1064.4,-73.93 1053.89,-72.57 1055.34,-79.42"/>
</g>
<!-- Node18 -->
<g id="node18" class="node">
<title>Node18</title>
<g id="a_node18"><a xlink:title=" ">
<polygon fill="white" stroke="#bfbfbf" points="654,-56.5 654,-75.5 712,-75.5 712,-56.5 654,-56.5"/>
<text text-anchor="middle" x="683" y="-63.5" font-family="Helvetica,sans-Serif" font-size="10.00">memory</text>
</a>
</g>
</g>
<!-- Node16&#45;&gt;Node18 -->
<g id="edge19" class="edge">
<title>Node16&#45;&gt;Node18</title>
<path fill="none" stroke="midnightblue" d="M792.4,-112.44C771.01,-103.56 737.32,-89.56 712.98,-79.45"/>
<polygon fill="midnightblue" stroke="midnightblue" points="714.08,-76.12 703.5,-75.52 711.39,-82.58 714.08,-76.12"/>
</g>
<!-- Node19 -->
<g id="node19" class="node">
<title>Node19</title>
<g id="a_node19"><a xlink:href="WalError_8hpp.html" target="_top" xlink:title=" ">
<polygon fill="white" stroke="black" points="730.5,-56.5 730.5,-75.5 859.5,-75.5 859.5,-56.5 730.5,-56.5"/>
<text text-anchor="middle" x="795" y="-63.5" font-family="Helvetica,sans-Serif" font-size="10.00">Exception/WalError.hpp</text>
</a>
</g>
</g>
<!-- Node16&#45;&gt;Node19 -->
<g id="edge21" class="edge">
<title>Node16&#45;&gt;Node19</title>
<path fill="none" stroke="midnightblue" d="M810.03,-112.08C807.62,-104.85 804.14,-94.41 801.13,-85.4"/>
<polygon fill="midnightblue" stroke="midnightblue" points="804.4,-84.13 797.92,-75.75 797.76,-86.34 804.4,-84.13"/>
</g>
<!-- Node22 -->
<g id="node22" class="node">
<title>Node22</title>
<g id="a_node22"><a xlink:href="TypeHolder_8hpp.html" target="_top" xlink:title=" ">
<polygon fill="white" stroke="black" points="916,-56.5 916,-75.5 1046,-75.5 1046,-56.5 916,-56.5"/>
<text text-anchor="middle" x="981" y="-63.5" font-family="Helvetica,sans-Serif" font-size="10.00">Models/TypeHolder.hpp</text>
</a>
</g>
</g>
<!-- Node16&#45;&gt;Node22 -->
<g id="edge25" class="edge">
<title>Node16&#45;&gt;Node22</title>
<path fill="none" stroke="midnightblue" d="M839.62,-112.44C868.01,-103.32 913.14,-88.81 944.75,-78.65"/>
<polygon fill="midnightblue" stroke="midnightblue" points="946.06,-81.91 954.5,-75.52 943.91,-75.24 946.06,-81.91"/>
</g>
<!-- Node19&#45;&gt;Node14 -->
<g id="edge24" class="edge">
<title>Node19&#45;&gt;Node14</title>
<path fill="none" stroke="midnightblue" d="M809.94,-56.32C824.59,-47.82 847.13,-34.73 864.24,-24.8"/>
<polygon fill="midnightblue" stroke="midnightblue" points="866.2,-27.7 873.1,-19.65 862.69,-21.65 866.2,-27.7"/>
</g>
<!-- Node20 -->
<g id="node20" class="node">
<title>Node20</title>
<g id="a_node20"><a xlink:title=" ">
<polygon fill="white" stroke="#bfbfbf" points="689.5,-0.5 689.5,-19.5 754.5,-19.5 754.5,-0.5 689.5,-0.5"/>
<text text-anchor="middle" x="722" y="-7.5" font-family="Helvetica,sans-Serif" font-size="10.00">exception</text>
</a>
</g>
</g>
<!-- Node19&#45;&gt;Node20 -->
<g id="edge22" class="edge">
<title>Node19&#45;&gt;Node20</title>
<path fill="none" stroke="midnightblue" d="M783.27,-56.32C772.16,-48.11 755.26,-35.6 742.02,-25.81"/>
<polygon fill="midnightblue" stroke="midnightblue" points="744.06,-22.97 733.94,-19.83 739.9,-28.59 744.06,-22.97"/>
</g>
<!-- Node21 -->
<g id="node21" class="node">
<title>Node21</title>
<g id="a_node21"><a xlink:title=" ">
<polygon fill="white" stroke="#bfbfbf" points="772.5,-0.5 772.5,-19.5 837.5,-19.5 837.5,-0.5 772.5,-0.5"/>
<text text-anchor="middle" x="805" y="-7.5" font-family="Helvetica,sans-Serif" font-size="10.00">stdexcept</text>
</a>
</g>
</g>
<!-- Node19&#45;&gt;Node21 -->
<g id="edge23" class="edge">
<title>Node19&#45;&gt;Node21</title>
<path fill="none" stroke="midnightblue" d="M796.65,-56.08C797.98,-48.93 799.88,-38.64 801.54,-29.69"/>
<polygon fill="midnightblue" stroke="midnightblue" points="805,-30.22 803.38,-19.75 798.12,-28.95 805,-30.22"/>
</g>
<!-- Node23&#45;&gt;Node12 -->
<g id="edge32" class="edge">
<title>Node23&#45;&gt;Node12</title>
<path fill="none" stroke="midnightblue" d="M872.85,-168.32C889.72,-151.96 919.83,-125.59 951,-112 982.72,-98.17 1066.64,-85.26 1131.62,-76.85"/>
<polygon fill="midnightblue" stroke="midnightblue" points="1132.4,-80.28 1141.88,-75.54 1131.51,-73.33 1132.4,-80.28"/>
</g>
<!-- Node23&#45;&gt;Node16 -->
<g id="edge33" class="edge">
<title>Node23&#45;&gt;Node16</title>
<path fill="none" stroke="midnightblue" d="M848.1,-168.4C841.41,-159.75 832.82,-148.64 825.82,-139.58"/>
<polygon fill="midnightblue" stroke="midnightblue" points="828.58,-137.43 819.69,-131.66 823.04,-141.71 828.58,-137.43"/>
</g>
<!-- Node24 -->
<g id="node24" class="node">
<title>Node24</title>
<g id="a_node24"><a xlink:href="sources_2Models_2Vector2_8hpp.html" target="_top" xlink:title=" ">
<polygon fill="white" stroke="black" points="267.5,-112.5 267.5,-131.5 380.5,-131.5 380.5,-112.5 267.5,-112.5"/>
<text text-anchor="middle" x="324" y="-119.5" font-family="Helvetica,sans-Serif" font-size="10.00">Models/Vector2.hpp</text>
</a>
</g>
</g>
<!-- Node23&#45;&gt;Node24 -->
<g id="edge27" class="edge">
<title>Node23&#45;&gt;Node24</title>
<path fill="none" stroke="midnightblue" d="M780.7,-173.43C764.91,-171.62 748.43,-169.74 733,-168 612.34,-154.42 471.59,-139.03 390.63,-130.23"/>
<polygon fill="midnightblue" stroke="midnightblue" points="390.9,-126.74 380.58,-129.13 390.14,-133.7 390.9,-126.74"/>
</g>
<!-- Node26 -->
<g id="node26" class="node">
<title>Node26</title>
<g id="a_node26"><a xlink:title=" ">
<polygon fill="white" stroke="#bfbfbf" points="1047,-112.5 1047,-131.5 1097,-131.5 1097,-112.5 1047,-112.5"/>
<text text-anchor="middle" x="1072" y="-119.5" font-family="Helvetica,sans-Serif" font-size="10.00">chrono</text>
</a>
</g>
</g>
<!-- Node23&#45;&gt;Node26 -->
<g id="edge34" class="edge">
<title>Node23&#45;&gt;Node26</title>
<path fill="none" stroke="midnightblue" d="M909.21,-168.47C948.61,-157.47 1002.44,-142.43 1037.22,-132.72"/>
<polygon fill="midnightblue" stroke="midnightblue" points="1038.24,-136.07 1046.93,-130 1036.35,-129.32 1038.24,-136.07"/>
</g>
<!-- Node24&#45;&gt;Node8 -->
<g id="edge28" class="edge">
<title>Node24&#45;&gt;Node8</title>
<path fill="none" stroke="midnightblue" d="M307.61,-112.32C291.33,-103.7 266.13,-90.36 247.28,-80.39"/>
<polygon fill="midnightblue" stroke="midnightblue" points="248.82,-77.24 238.35,-75.65 245.55,-83.43 248.82,-77.24"/>
</g>
<!-- Node24&#45;&gt;Node9 -->
<g id="edge29" class="edge">
<title>Node24&#45;&gt;Node9</title>
<path fill="none" stroke="midnightblue" d="M296.43,-112.44C265.69,-102.9 215.98,-87.48 183.14,-77.29"/>
<polygon fill="midnightblue" stroke="midnightblue" points="184.12,-73.93 173.54,-74.3 182.05,-80.61 184.12,-73.93"/>
</g>
<!-- Node25 -->
<g id="node25" class="node">
<title>Node25</title>
<g id="a_node25"><a xlink:href="lib_2Ray_2sources_2Vector_2Vector2_8hpp.html" target="_top" xlink:title=" ">
<polygon fill="white" stroke="black" points="270,-56.5 270,-75.5 378,-75.5 378,-56.5 270,-56.5"/>
<text text-anchor="middle" x="324" y="-63.5" font-family="Helvetica,sans-Serif" font-size="10.00">Vector/Vector2.hpp</text>
</a>
</g>
</g>
<!-- Node24&#45;&gt;Node25 -->
<g id="edge30" class="edge">
<title>Node24&#45;&gt;Node25</title>
<path fill="none" stroke="midnightblue" d="M324,-112.08C324,-105.01 324,-94.86 324,-85.99"/>
<polygon fill="midnightblue" stroke="midnightblue" points="327.5,-85.75 324,-75.75 320.5,-85.75 327.5,-85.75"/>
</g>
<!-- Node25&#45;&gt;Node11 -->
<g id="edge31" class="edge">
<title>Node25&#45;&gt;Node11</title>
<path fill="none" stroke="midnightblue" d="M302.61,-56.44C280.29,-47.52 245.1,-33.44 219.79,-23.32"/>
<polygon fill="midnightblue" stroke="midnightblue" points="220.88,-19.98 210.29,-19.52 218.28,-26.48 220.88,-19.98"/>
</g>
<!-- Node27&#45;&gt;Node12 -->
<g id="edge36" class="edge">
<title>Node27&#45;&gt;Node12</title>
<path fill="none" stroke="midnightblue" d="M943.48,-235.31C953.73,-210.97 986.4,-141.93 1038,-112 1067.61,-94.83 1103.69,-84.14 1135.62,-77.53"/>
<polygon fill="midnightblue" stroke="midnightblue" points="1136.68,-80.88 1145.82,-75.52 1135.33,-74.02 1136.68,-80.88"/>
</g>
<!-- Node28&#45;&gt;Node12 -->
<g id="edge38" class="edge">
<title>Node28&#45;&gt;Node12</title>
<path fill="none" stroke="midnightblue" d="M1249.34,-168.34C1242.46,-147.43 1229.59,-108.31 1222.01,-85.27"/>
<polygon fill="midnightblue" stroke="midnightblue" points="1225.3,-84.07 1218.85,-75.67 1218.65,-86.26 1225.3,-84.07"/>
</g>
<!-- Node28&#45;&gt;Node16 -->
<g id="edge39" class="edge">
<title>Node28&#45;&gt;Node16</title>
<path fill="none" stroke="midnightblue" d="M1168.96,-169.29C1165.94,-168.85 1162.94,-168.42 1160,-168 1058.6,-153.61 940.26,-138.65 871.27,-130.12"/>
<polygon fill="midnightblue" stroke="midnightblue" points="871.4,-126.61 861.04,-128.86 870.54,-133.56 871.4,-126.61"/>
</g>
<!-- Node28&#45;&gt;Node26 -->
<g id="edge40" class="edge">
<title>Node28&#45;&gt;Node26</title>
<path fill="none" stroke="midnightblue" d="M1210.87,-168.4C1179.04,-157.99 1136.29,-144.02 1106.67,-134.34"/>
<polygon fill="midnightblue" stroke="midnightblue" points="1107.76,-131.01 1097.16,-131.23 1105.58,-137.66 1107.76,-131.01"/>
</g>
<!-- Node29&#45;&gt;Node7 -->
<g id="edge42" class="edge">
<title>Node29&#45;&gt;Node7</title>
<path fill="none" stroke="midnightblue" d="M416.93,-168.47C364.18,-157.76 292.62,-143.23 244.73,-133.51"/>
<polygon fill="midnightblue" stroke="midnightblue" points="245.39,-130.07 234.89,-131.51 243.99,-136.93 245.39,-130.07"/>
</g>
<!-- Node29&#45;&gt;Node16 -->
<g id="edge43" class="edge">
<title>Node29&#45;&gt;Node16</title>
<path fill="none" stroke="midnightblue" d="M563.08,-168.47C622.33,-157.69 702.82,-143.05 756.27,-133.32"/>
<polygon fill="midnightblue" stroke="midnightblue" points="757.04,-136.74 766.25,-131.51 755.79,-129.85 757.04,-136.74"/>
</g>
<!-- Node30&#45;&gt;Node2 -->
<g id="edge46" class="edge">
<title>Node30&#45;&gt;Node2</title>
<path fill="none" stroke="midnightblue" d="M729.54,-235.48C717.64,-227.34 699.29,-214.79 683.77,-204.18"/>
<polygon fill="midnightblue" stroke="midnightblue" points="685.73,-201.28 675.5,-198.52 681.78,-207.06 685.73,-201.28"/>
</g>
<!-- Node30&#45;&gt;Node16 -->
<g id="edge45" class="edge">
<title>Node30&#45;&gt;Node16</title>
<path fill="none" stroke="midnightblue" d="M744.37,-235.08C748.53,-220.36 758.04,-190.39 772,-168 778.63,-157.37 787.9,-146.94 795.96,-138.8"/>
<polygon fill="midnightblue" stroke="midnightblue" points="798.73,-140.99 803.46,-131.5 793.85,-135.97 798.73,-140.99"/>
</g>
<!-- Node33&#45;&gt;Node12 -->
<g id="edge50" class="edge">
<title>Node33&#45;&gt;Node12</title>
<path fill="none" stroke="midnightblue" d="M1089.66,-168.34C1117.02,-146.39 1169.41,-104.37 1197.36,-81.95"/>
<polygon fill="midnightblue" stroke="midnightblue" points="1199.58,-84.66 1205.19,-75.67 1195.2,-79.2 1199.58,-84.66"/>
</g>
<!-- Node33&#45;&gt;Node16 -->
<g id="edge51" class="edge">
<title>Node33&#45;&gt;Node16</title>
<path fill="none" stroke="midnightblue" d="M1010.95,-168.47C964.7,-157.85 902.12,-143.47 859.8,-133.75"/>
<polygon fill="midnightblue" stroke="midnightblue" points="860.56,-130.33 850.03,-131.51 858.99,-137.16 860.56,-130.33"/>
</g>
<!-- Node33&#45;&gt;Node26 -->
<g id="edge52" class="edge">
<title>Node33&#45;&gt;Node26</title>
<path fill="none" stroke="midnightblue" d="M1072,-168.4C1072,-160.47 1072,-150.46 1072,-141.86"/>
<polygon fill="midnightblue" stroke="midnightblue" points="1075.5,-141.66 1072,-131.66 1068.5,-141.66 1075.5,-141.66"/>
</g>
</g>
</svg>
