<?xml version="1.0" encoding="UTF-8" standalone="no"?>
<!DOCTYPE svg PUBLIC "-//W3C//DTD SVG 1.1//EN"
 "http://www.w3.org/Graphics/SVG/1.1/DTD/svg11.dtd">
<!-- Generated by graphviz version 2.43.0 (0)
 -->
<!-- Title: sources/Component/BumperTimer/BumperTimerComponent.hpp Pages: 1 -->
<svg width="801pt" height="173pt"
 viewBox="0.00 0.00 800.50 173.00" xmlns="http://www.w3.org/2000/svg" xmlns:xlink="http://www.w3.org/1999/xlink">
<g id="graph0" class="graph" transform="scale(1 1) rotate(0) translate(4 169)">
<title>sources/Component/BumperTimer/BumperTimerComponent.hpp</title>
<polygon fill="white" stroke="transparent" points="-4,4 -4,-169 796.5,-169 796.5,4 -4,4"/>
<!-- Node1 -->
<g id="node1" class="node">
<title>Node1</title>
<g id="a_node1"><a xlink:title=" ">
<polygon fill="#bfbfbf" stroke="black" points="257.5,-134.5 257.5,-164.5 449.5,-164.5 449.5,-134.5 257.5,-134.5"/>
<text text-anchor="start" x="265.5" y="-152.5" font-family="Helvetica,sans-Serif" font-size="10.00">sources/Component/Bumper</text>
<text text-anchor="middle" x="353.5" y="-141.5" font-family="Helvetica,sans-Serif" font-size="10.00">Timer/BumperTimerComponent.hpp</text>
</a>
</g>
</g>
<!-- Node2 -->
<g id="node2" class="node">
<title>Node2</title>
<g id="a_node2"><a xlink:href="BumperTimerComponent_8cpp.html" target="_top" xlink:title=" ">
<polygon fill="white" stroke="black" points="0,-67.5 0,-97.5 191,-97.5 191,-67.5 0,-67.5"/>
<text text-anchor="start" x="8" y="-85.5" font-family="Helvetica,sans-Serif" font-size="10.00">sources/Component/Bumper</text>
<text text-anchor="middle" x="95.5" y="-74.5" font-family="Helvetica,sans-Serif" font-size="10.00">Timer/BumperTimerComponent.cpp</text>
</a>
</g>
</g>
<!-- Node1&#45;&gt;Node2 -->
<g id="edge1" class="edge">
<title>Node1&#45;&gt;Node2</title>
<path fill="none" stroke="midnightblue" d="M287.95,-131.98C245.8,-121.37 191.64,-107.72 151.51,-97.61"/>
<polygon fill="midnightblue" stroke="midnightblue" points="287.28,-135.43 297.84,-134.48 288.99,-128.64 287.28,-135.43"/>
</g>
<!-- Node3 -->
<g id="node3" class="node">
<title>Node3</title>
<g id="a_node3"><a xlink:href="Map_8cpp.html" target="_top" xlink:title=" ">
<polygon fill="white" stroke="black" points="209.5,-73 209.5,-92 331.5,-92 331.5,-73 209.5,-73"/>
<text text-anchor="middle" x="270.5" y="-80" font-family="Helvetica,sans-Serif" font-size="10.00">sources/Map/Map.cpp</text>
</a>
</g>
</g>
<!-- Node1&#45;&gt;Node3 -->
<g id="edge2" class="edge">
<title>Node1&#45;&gt;Node3</title>
<path fill="none" stroke="midnightblue" d="M327.33,-128.01C311.92,-115.94 293.24,-101.3 281.6,-92.19"/>
<polygon fill="midnightblue" stroke="midnightblue" points="325.46,-130.99 335.49,-134.4 329.78,-125.47 325.46,-130.99"/>
</g>
<!-- Node4 -->
<g id="node4" class="node">
<title>Node4</title>
<g id="a_node4"><a xlink:href="GameScene_8cpp.html" target="_top" xlink:title=" ">
<polygon fill="white" stroke="black" points="350,-73 350,-92 523,-92 523,-73 350,-73"/>
<text text-anchor="middle" x="436.5" y="-80" font-family="Helvetica,sans-Serif" font-size="10.00">sources/Runner/GameScene.cpp</text>
</a>
</g>
</g>
<!-- Node1&#45;&gt;Node4 -->
<g id="edge3" class="edge">
<title>Node1&#45;&gt;Node4</title>
<path fill="none" stroke="midnightblue" d="M379.67,-128.01C395.08,-115.94 413.76,-101.3 425.4,-92.19"/>
<polygon fill="midnightblue" stroke="midnightblue" points="377.22,-125.47 371.51,-134.4 381.54,-130.99 377.22,-125.47"/>
</g>
<!-- Node5 -->
<g id="node5" class="node">
<title>Node5</title>
<g id="a_node5"><a xlink:href="BumperTimerSystem_8hpp.html" target="_top" xlink:title=" ">
<polygon fill="white" stroke="black" points="541.5,-67.5 541.5,-97.5 705.5,-97.5 705.5,-67.5 541.5,-67.5"/>
<text text-anchor="start" x="549.5" y="-85.5" font-family="Helvetica,sans-Serif" font-size="10.00">sources/System/BumperTimer</text>
<text text-anchor="middle" x="623.5" y="-74.5" font-family="Helvetica,sans-Serif" font-size="10.00">/BumperTimerSystem.hpp</text>
</a>
</g>
</g>
<!-- Node1&#45;&gt;Node5 -->
<g id="edge4" class="edge">
<title>Node1&#45;&gt;Node5</title>
<path fill="none" stroke="midnightblue" d="M421.55,-132.12C465.73,-121.48 522.72,-107.76 564.89,-97.61"/>
<polygon fill="midnightblue" stroke="midnightblue" points="420.66,-128.73 411.75,-134.48 422.3,-135.54 420.66,-128.73"/>
</g>
<!-- Node6 -->
<g id="node6" class="node">
<title>Node6</title>
<g id="a_node6"><a xlink:href="Runner_8cpp.html" target="_top" xlink:title=" ">
<polygon fill="white" stroke="black" points="461,-6 461,-25 610,-25 610,-6 461,-6"/>
<text text-anchor="middle" x="535.5" y="-13" font-family="Helvetica,sans-Serif" font-size="10.00">sources/Runner/Runner.cpp</text>
</a>
</g>
</g>
<!-- Node5&#45;&gt;Node6 -->
<g id="edge5" class="edge">
<title>Node5&#45;&gt;Node6</title>
<path fill="none" stroke="midnightblue" d="M596.16,-61.31C579.64,-49.1 559.43,-34.18 547.02,-25.01"/>
<polygon fill="midnightblue" stroke="midnightblue" points="594.28,-64.27 604.41,-67.4 598.44,-58.64 594.28,-64.27"/>
</g>
<!-- Node7 -->
<g id="node7" class="node">
<title>Node7</title>
<g id="a_node7"><a xlink:href="BumperTimerSystem_8cpp.html" target="_top" xlink:title=" ">
<polygon fill="white" stroke="black" points="628.5,-0.5 628.5,-30.5 792.5,-30.5 792.5,-0.5 628.5,-0.5"/>
<text text-anchor="start" x="636.5" y="-18.5" font-family="Helvetica,sans-Serif" font-size="10.00">sources/System/BumperTimer</text>
<text text-anchor="middle" x="710.5" y="-7.5" font-family="Helvetica,sans-Serif" font-size="10.00">/BumperTimerSystem.cpp</text>
</a>
</g>
</g>
<!-- Node5&#45;&gt;Node7 -->
<g id="edge6" class="edge">
<title>Node5&#45;&gt;Node7</title>
<path fill="none" stroke="midnightblue" d="M650.71,-61.17C664.02,-51.23 679.7,-39.51 691.66,-30.58"/>
<polygon fill="midnightblue" stroke="midnightblue" points="648.29,-58.61 642.38,-67.4 652.48,-64.21 648.29,-58.61"/>
</g>
</g>
</svg>
