<?xml version="1.0" encoding="UTF-8" standalone="no"?>
<!DOCTYPE svg PUBLIC "-//W3C//DTD SVG 1.1//EN"
 "http://www.w3.org/Graphics/SVG/1.1/DTD/svg11.dtd">
<!-- Generated by graphviz version 2.43.0 (0)
 -->
<!-- Title: sources/Component/Button/ButtonComponent.hpp Pages: 1 -->
<svg width="887pt" height="375pt"
 viewBox="0.00 0.00 887.00 375.00" xmlns="http://www.w3.org/2000/svg" xmlns:xlink="http://www.w3.org/1999/xlink">
<g id="graph0" class="graph" transform="scale(1 1) rotate(0) translate(4 371)">
<title>sources/Component/Button/ButtonComponent.hpp</title>
<polygon fill="white" stroke="transparent" points="-4,4 -4,-371 883,-371 883,4 -4,4"/>
<!-- Node1 -->
<g id="node1" class="node">
<title>Node1</title>
<g id="a_node1"><a xlink:title=" ">
<polygon fill="#bfbfbf" stroke="black" points="466,-336.5 466,-366.5 615,-366.5 615,-336.5 466,-336.5"/>
<text text-anchor="start" x="474" y="-354.5" font-family="Helvetica,sans-Serif" font-size="10.00">sources/Component/Button</text>
<text text-anchor="middle" x="540.5" y="-343.5" font-family="Helvetica,sans-Serif" font-size="10.00">/ButtonComponent.hpp</text>
</a>
</g>
</g>
<!-- Node2 -->
<g id="node2" class="node">
<title>Node2</title>
<g id="a_node2"><a xlink:href="Callback_8hpp.html" target="_top" xlink:title=" ">
<polygon fill="white" stroke="black" points="682.5,-168.5 682.5,-187.5 800.5,-187.5 800.5,-168.5 682.5,-168.5"/>
<text text-anchor="middle" x="741.5" y="-175.5" font-family="Helvetica,sans-Serif" font-size="10.00">Models/Callback.hpp</text>
</a>
</g>
</g>
<!-- Node1&#45;&gt;Node2 -->
<g id="edge1" class="edge">
<title>Node1&#45;&gt;Node2</title>
<path fill="none" stroke="midnightblue" d="M566.7,-336.36C599.29,-317.95 655.52,-283.43 695.5,-244 709.92,-229.78 722.89,-210.56 731.36,-196.71"/>
<polygon fill="midnightblue" stroke="midnightblue" points="734.6,-198.11 736.68,-187.72 728.57,-194.54 734.6,-198.11"/>
</g>
<!-- Node6 -->
<g id="node6" class="node">
<title>Node6</title>
<g id="a_node6"><a xlink:href="Component_8hpp.html" target="_top" xlink:title=" ">
<polygon fill="white" stroke="black" points="674,-56.5 674,-75.5 827,-75.5 827,-56.5 674,-56.5"/>
<text text-anchor="middle" x="750.5" y="-63.5" font-family="Helvetica,sans-Serif" font-size="10.00">Component/Component.hpp</text>
</a>
</g>
</g>
<!-- Node1&#45;&gt;Node6 -->
<g id="edge5" class="edge">
<title>Node1&#45;&gt;Node6</title>
<path fill="none" stroke="midnightblue" d="M612.25,-336.48C685.57,-317.53 793.14,-275.47 825.5,-188 840.82,-146.59 798.23,-104.04 771.09,-82.12"/>
<polygon fill="midnightblue" stroke="midnightblue" points="772.96,-79.13 762.92,-75.75 768.66,-84.66 772.96,-79.13"/>
</g>
<!-- Node10 -->
<g id="node10" class="node">
<title>Node10</title>
<g id="a_node10"><a xlink:href="Entity_8hpp.html" target="_top" xlink:title=" ">
<polygon fill="white" stroke="black" points="316.5,-112.5 316.5,-131.5 412.5,-131.5 412.5,-112.5 316.5,-112.5"/>
<text text-anchor="middle" x="364.5" y="-119.5" font-family="Helvetica,sans-Serif" font-size="10.00">Entity/Entity.hpp</text>
</a>
</g>
</g>
<!-- Node1&#45;&gt;Node10 -->
<g id="edge9" class="edge">
<title>Node1&#45;&gt;Node10</title>
<path fill="none" stroke="midnightblue" d="M470.57,-336.47C418.46,-322.24 349.91,-294.8 311.5,-244 290.99,-216.87 287.05,-198.3 302.5,-168 309.5,-154.27 322.87,-143.75 335.4,-136.35"/>
<polygon fill="midnightblue" stroke="midnightblue" points="337.17,-139.37 344.28,-131.51 333.82,-133.22 337.17,-139.37"/>
</g>
<!-- Node17 -->
<g id="node17" class="node">
<title>Node17</title>
<g id="a_node17"><a xlink:title=" ">
<polygon fill="white" stroke="#bfbfbf" points="242.5,-112.5 242.5,-131.5 298.5,-131.5 298.5,-112.5 242.5,-112.5"/>
<text text-anchor="middle" x="270.5" y="-119.5" font-family="Helvetica,sans-Serif" font-size="10.00">optional</text>
</a>
</g>
</g>
<!-- Node1&#45;&gt;Node17 -->
<g id="edge20" class="edge">
<title>Node1&#45;&gt;Node17</title>
<path fill="none" stroke="midnightblue" d="M465.71,-341.81C427.34,-334.81 381.11,-322.3 344.5,-300 316,-282.64 309.38,-273.86 294.5,-244 277.84,-210.57 272.74,-166.54 271.18,-141.86"/>
<polygon fill="midnightblue" stroke="midnightblue" points="274.67,-141.53 270.68,-131.71 267.68,-141.87 274.67,-141.53"/>
</g>
<!-- Node18 -->
<g id="node18" class="node">
<title>Node18</title>
<g id="a_node18"><a xlink:href="Wal_8hpp.html" target="_top" xlink:title=" ">
<polygon fill="white" stroke="black" points="512.5,-280.5 512.5,-299.5 568.5,-299.5 568.5,-280.5 512.5,-280.5"/>
<text text-anchor="middle" x="540.5" y="-287.5" font-family="Helvetica,sans-Serif" font-size="10.00">Wal.hpp</text>
</a>
</g>
</g>
<!-- Node1&#45;&gt;Node18 -->
<g id="edge21" class="edge">
<title>Node1&#45;&gt;Node18</title>
<path fill="none" stroke="midnightblue" d="M540.5,-336.4C540.5,-328.47 540.5,-318.46 540.5,-309.86"/>
<polygon fill="midnightblue" stroke="midnightblue" points="544,-309.66 540.5,-299.66 537,-309.66 544,-309.66"/>
</g>
<!-- Node3 -->
<g id="node3" class="node">
<title>Node3</title>
<g id="a_node3"><a xlink:title=" ">
<polygon fill="white" stroke="#bfbfbf" points="579,-112.5 579,-131.5 644,-131.5 644,-112.5 579,-112.5"/>
<text text-anchor="middle" x="611.5" y="-119.5" font-family="Helvetica,sans-Serif" font-size="10.00">functional</text>
</a>
</g>
</g>
<!-- Node2&#45;&gt;Node3 -->
<g id="edge2" class="edge">
<title>Node2&#45;&gt;Node3</title>
<path fill="none" stroke="midnightblue" d="M720.9,-168.44C699.51,-159.56 665.82,-145.56 641.48,-135.45"/>
<polygon fill="midnightblue" stroke="midnightblue" points="642.58,-132.12 632,-131.52 639.89,-138.58 642.58,-132.12"/>
</g>
<!-- Node4 -->
<g id="node4" class="node">
<title>Node4</title>
<g id="a_node4"><a xlink:title=" ">
<polygon fill="white" stroke="#bfbfbf" points="701,-112.5 701,-131.5 746,-131.5 746,-112.5 701,-112.5"/>
<text text-anchor="middle" x="723.5" y="-119.5" font-family="Helvetica,sans-Serif" font-size="10.00">utility</text>
</a>
</g>
</g>
<!-- Node2&#45;&gt;Node4 -->
<g id="edge3" class="edge">
<title>Node2&#45;&gt;Node4</title>
<path fill="none" stroke="midnightblue" d="M738.53,-168.08C736.12,-160.85 732.64,-150.41 729.63,-141.4"/>
<polygon fill="midnightblue" stroke="midnightblue" points="732.9,-140.13 726.42,-131.75 726.26,-142.34 732.9,-140.13"/>
</g>
<!-- Node5 -->
<g id="node5" class="node">
<title>Node5</title>
<g id="a_node5"><a xlink:title=" ">
<polygon fill="white" stroke="#bfbfbf" points="486,-56.5 486,-75.5 579,-75.5 579,-56.5 486,-56.5"/>
<text text-anchor="middle" x="532.5" y="-63.5" font-family="Helvetica,sans-Serif" font-size="10.00">unordered_map</text>
</a>
</g>
</g>
<!-- Node2&#45;&gt;Node5 -->
<g id="edge4" class="edge">
<title>Node2&#45;&gt;Node5</title>
<path fill="none" stroke="midnightblue" d="M747.39,-168.37C755.83,-154.83 768.95,-128.44 755.5,-112 744.97,-99.13 651.82,-83.73 589.29,-74.68"/>
<polygon fill="midnightblue" stroke="midnightblue" points="589.55,-71.19 579.15,-73.24 588.56,-78.12 589.55,-71.19"/>
</g>
<!-- Node7 -->
<g id="node7" class="node">
<title>Node7</title>
<g id="a_node7"><a xlink:title=" ">
<polygon fill="white" stroke="#bfbfbf" points="832,-0.5 832,-19.5 879,-19.5 879,-0.5 832,-0.5"/>
<text text-anchor="middle" x="855.5" y="-7.5" font-family="Helvetica,sans-Serif" font-size="10.00">vector</text>
</a>
</g>
</g>
<!-- Node6&#45;&gt;Node7 -->
<g id="edge6" class="edge">
<title>Node6&#45;&gt;Node7</title>
<path fill="none" stroke="midnightblue" d="M767.37,-56.32C784.21,-47.66 810.31,-34.24 829.74,-24.25"/>
<polygon fill="midnightblue" stroke="midnightblue" points="831.38,-27.34 838.67,-19.65 828.18,-21.12 831.38,-27.34"/>
</g>
<!-- Node8 -->
<g id="node8" class="node">
<title>Node8</title>
<g id="a_node8"><a xlink:title=" ">
<polygon fill="white" stroke="#bfbfbf" points="529.5,-0.5 529.5,-19.5 573.5,-19.5 573.5,-0.5 529.5,-0.5"/>
<text text-anchor="middle" x="551.5" y="-7.5" font-family="Helvetica,sans-Serif" font-size="10.00">string</text>
</a>
</g>
</g>
<!-- Node6&#45;&gt;Node8 -->
<g id="edge7" class="edge">
<title>Node6&#45;&gt;Node8</title>
<path fill="none" stroke="midnightblue" d="M718.97,-56.44C681.9,-46.39 620.73,-29.79 583.48,-19.68"/>
<polygon fill="midnightblue" stroke="midnightblue" points="584.21,-16.25 573.64,-17.01 582.38,-23.01 584.21,-16.25"/>
</g>
<!-- Node9 -->
<g id="node9" class="node">
<title>Node9</title>
<g id="a_node9"><a xlink:title=" ">
<polygon fill="white" stroke="#bfbfbf" points="702,-0.5 702,-19.5 767,-19.5 767,-0.5 702,-0.5"/>
<text text-anchor="middle" x="734.5" y="-7.5" font-family="Helvetica,sans-Serif" font-size="10.00">typeindex</text>
</a>
</g>
</g>
<!-- Node6&#45;&gt;Node9 -->
<g id="edge8" class="edge">
<title>Node6&#45;&gt;Node9</title>
<path fill="none" stroke="midnightblue" d="M747.86,-56.08C745.71,-48.85 742.62,-38.41 739.95,-29.4"/>
<polygon fill="midnightblue" stroke="midnightblue" points="743.29,-28.34 737.09,-19.75 736.58,-30.33 743.29,-28.34"/>
</g>
<!-- Node10&#45;&gt;Node5 -->
<g id="edge11" class="edge">
<title>Node10&#45;&gt;Node5</title>
<path fill="none" stroke="midnightblue" d="M391.12,-112.44C419.51,-103.32 464.64,-88.81 496.25,-78.65"/>
<polygon fill="midnightblue" stroke="midnightblue" points="497.56,-81.91 506,-75.52 495.41,-75.24 497.56,-81.91"/>
</g>
<!-- Node10&#45;&gt;Node6 -->
<g id="edge14" class="edge">
<title>Node10&#45;&gt;Node6</title>
<path fill="none" stroke="midnightblue" d="M412.61,-114.27C479.72,-104.88 601.92,-87.79 679.52,-76.93"/>
<polygon fill="midnightblue" stroke="midnightblue" points="680.27,-80.36 689.69,-75.51 679.3,-73.43 680.27,-80.36"/>
</g>
<!-- Node10&#45;&gt;Node8 -->
<g id="edge10" class="edge">
<title>Node10&#45;&gt;Node8</title>
<path fill="none" stroke="midnightblue" d="M379.17,-112.37C411.4,-93.41 488.6,-48 527.8,-24.94"/>
<polygon fill="midnightblue" stroke="midnightblue" points="530.05,-27.68 536.89,-19.59 526.5,-21.64 530.05,-27.68"/>
</g>
<!-- Node11 -->
<g id="node11" class="node">
<title>Node11</title>
<g id="a_node11"><a xlink:title=" ">
<polygon fill="white" stroke="#bfbfbf" points="0,-56.5 0,-75.5 57,-75.5 57,-56.5 0,-56.5"/>
<text text-anchor="middle" x="28.5" y="-63.5" font-family="Helvetica,sans-Serif" font-size="10.00">typeinfo</text>
</a>
</g>
</g>
<!-- Node10&#45;&gt;Node11 -->
<g id="edge12" class="edge">
<title>Node10&#45;&gt;Node11</title>
<path fill="none" stroke="midnightblue" d="M316.3,-113.36C313.32,-112.9 310.37,-112.44 307.5,-112 203.59,-96.04 174.53,-96.46 67.03,-75.96"/>
<polygon fill="midnightblue" stroke="midnightblue" points="67.56,-72.49 57.08,-74.04 66.24,-79.37 67.56,-72.49"/>
</g>
<!-- Node12 -->
<g id="node12" class="node">
<title>Node12</title>
<g id="a_node12"><a xlink:title=" ">
<polygon fill="white" stroke="#bfbfbf" points="75.5,-56.5 75.5,-75.5 133.5,-75.5 133.5,-56.5 75.5,-56.5"/>
<text text-anchor="middle" x="104.5" y="-63.5" font-family="Helvetica,sans-Serif" font-size="10.00">memory</text>
</a>
</g>
</g>
<!-- Node10&#45;&gt;Node12 -->
<g id="edge13" class="edge">
<title>Node10&#45;&gt;Node12</title>
<path fill="none" stroke="midnightblue" d="M320.18,-112.46C277.41,-104.12 210.59,-90.82 143.43,-76.15"/>
<polygon fill="midnightblue" stroke="midnightblue" points="144.04,-72.7 133.52,-73.98 142.54,-79.54 144.04,-72.7"/>
</g>
<!-- Node13 -->
<g id="node13" class="node">
<title>Node13</title>
<g id="a_node13"><a xlink:href="WalError_8hpp.html" target="_top" xlink:title=" ">
<polygon fill="white" stroke="black" points="152,-56.5 152,-75.5 281,-75.5 281,-56.5 152,-56.5"/>
<text text-anchor="middle" x="216.5" y="-63.5" font-family="Helvetica,sans-Serif" font-size="10.00">Exception/WalError.hpp</text>
</a>
</g>
</g>
<!-- Node10&#45;&gt;Node13 -->
<g id="edge15" class="edge">
<title>Node10&#45;&gt;Node13</title>
<path fill="none" stroke="midnightblue" d="M341.05,-112.44C316.37,-103.44 277.31,-89.19 249.52,-79.05"/>
<polygon fill="midnightblue" stroke="midnightblue" points="250.44,-75.66 239.84,-75.52 248.04,-82.23 250.44,-75.66"/>
</g>
<!-- Node16 -->
<g id="node16" class="node">
<title>Node16</title>
<g id="a_node16"><a xlink:href="TypeHolder_8hpp.html" target="_top" xlink:title=" ">
<polygon fill="white" stroke="black" points="299.5,-56.5 299.5,-75.5 429.5,-75.5 429.5,-56.5 299.5,-56.5"/>
<text text-anchor="middle" x="364.5" y="-63.5" font-family="Helvetica,sans-Serif" font-size="10.00">Models/TypeHolder.hpp</text>
</a>
</g>
</g>
<!-- Node10&#45;&gt;Node16 -->
<g id="edge19" class="edge">
<title>Node10&#45;&gt;Node16</title>
<path fill="none" stroke="midnightblue" d="M364.5,-112.08C364.5,-105.01 364.5,-94.86 364.5,-85.99"/>
<polygon fill="midnightblue" stroke="midnightblue" points="368,-85.75 364.5,-75.75 361,-85.75 368,-85.75"/>
</g>
<!-- Node13&#45;&gt;Node8 -->
<g id="edge18" class="edge">
<title>Node13&#45;&gt;Node8</title>
<path fill="none" stroke="midnightblue" d="M269.58,-56.44C339.92,-45.1 461.83,-25.45 519.5,-16.16"/>
<polygon fill="midnightblue" stroke="midnightblue" points="520.18,-19.59 529.5,-14.55 519.07,-12.68 520.18,-19.59"/>
</g>
<!-- Node14 -->
<g id="node14" class="node">
<title>Node14</title>
<g id="a_node14"><a xlink:title=" ">
<polygon fill="white" stroke="#bfbfbf" points="226,-0.5 226,-19.5 291,-19.5 291,-0.5 226,-0.5"/>
<text text-anchor="middle" x="258.5" y="-7.5" font-family="Helvetica,sans-Serif" font-size="10.00">exception</text>
</a>
</g>
</g>
<!-- Node13&#45;&gt;Node14 -->
<g id="edge16" class="edge">
<title>Node13&#45;&gt;Node14</title>
<path fill="none" stroke="midnightblue" d="M223.44,-56.08C229.43,-48.38 238.25,-37.03 245.55,-27.65"/>
<polygon fill="midnightblue" stroke="midnightblue" points="248.32,-29.79 251.69,-19.75 242.79,-25.5 248.32,-29.79"/>
</g>
<!-- Node15 -->
<g id="node15" class="node">
<title>Node15</title>
<g id="a_node15"><a xlink:title=" ">
<polygon fill="white" stroke="#bfbfbf" points="143,-0.5 143,-19.5 208,-19.5 208,-0.5 143,-0.5"/>
<text text-anchor="middle" x="175.5" y="-7.5" font-family="Helvetica,sans-Serif" font-size="10.00">stdexcept</text>
</a>
</g>
</g>
<!-- Node13&#45;&gt;Node15 -->
<g id="edge17" class="edge">
<title>Node13&#45;&gt;Node15</title>
<path fill="none" stroke="midnightblue" d="M209.73,-56.08C203.94,-48.46 195.44,-37.26 188.36,-27.94"/>
<polygon fill="midnightblue" stroke="midnightblue" points="190.98,-25.6 182.14,-19.75 185.4,-29.83 190.98,-25.6"/>
</g>
<!-- Node18&#45;&gt;Node2 -->
<g id="edge39" class="edge">
<title>Node18&#45;&gt;Node2</title>
<path fill="none" stroke="midnightblue" d="M568.57,-282.51C595.46,-275.53 636.54,-262.84 668.5,-244 690.98,-230.74 712.8,-209.95 726.64,-195.47"/>
<polygon fill="midnightblue" stroke="midnightblue" points="729.55,-197.47 733.81,-187.77 724.43,-192.7 729.55,-197.47"/>
</g>
<!-- Node18&#45;&gt;Node4 -->
<g id="edge22" class="edge">
<title>Node18&#45;&gt;Node4</title>
<path fill="none" stroke="midnightblue" d="M553.12,-280.2C565.36,-271.48 584.27,-257.5 599.5,-244 634.78,-212.73 639.52,-200.68 673.5,-168 683.92,-157.98 695.95,-147.14 705.6,-138.6"/>
<polygon fill="midnightblue" stroke="midnightblue" points="708.16,-141.01 713.36,-131.77 703.54,-135.75 708.16,-141.01"/>
</g>
<!-- Node18&#45;&gt;Node7 -->
<g id="edge23" class="edge">
<title>Node18&#45;&gt;Node7</title>
<path fill="none" stroke="midnightblue" d="M568.85,-289.5C615.52,-289.1 710.09,-283.04 777.5,-244 848.9,-202.65 845.39,-157.76 856.5,-76 858.59,-60.6 858.14,-42.97 857.28,-29.96"/>
<polygon fill="midnightblue" stroke="midnightblue" points="860.76,-29.57 856.48,-19.88 853.79,-30.13 860.76,-29.57"/>
</g>
<!-- Node18&#45;&gt;Node8 -->
<g id="edge24" class="edge">
<title>Node18&#45;&gt;Node8</title>
<path fill="none" stroke="midnightblue" d="M568.94,-288.65C626.92,-286.18 757.67,-271.2 809.5,-188 828.53,-157.46 780.22,-118.64 771.5,-112 731.92,-81.85 710.87,-96.41 665.5,-76 632.08,-60.96 595.66,-39.16 573.19,-25.03"/>
<polygon fill="midnightblue" stroke="midnightblue" points="575.07,-22.08 564.75,-19.67 571.31,-27.99 575.07,-22.08"/>
</g>
<!-- Node18&#45;&gt;Node11 -->
<g id="edge26" class="edge">
<title>Node18&#45;&gt;Node11</title>
<path fill="none" stroke="midnightblue" d="M512.2,-289.58C457.85,-289.65 336.16,-284.79 244.5,-244 156.33,-204.77 74.69,-119.54 42.73,-83.56"/>
<polygon fill="midnightblue" stroke="midnightblue" points="45.24,-81.12 36.02,-75.9 39.98,-85.73 45.24,-81.12"/>
</g>
<!-- Node18&#45;&gt;Node12 -->
<g id="edge25" class="edge">
<title>Node18&#45;&gt;Node12</title>
<path fill="none" stroke="midnightblue" d="M512.3,-289.53C462.75,-289.33 358.06,-283.73 281.5,-244 205.37,-204.49 141.42,-120.7 116.12,-84.39"/>
<polygon fill="midnightblue" stroke="midnightblue" points="118.82,-82.13 110.28,-75.85 113.04,-86.08 118.82,-82.13"/>
</g>
<!-- Node18&#45;&gt;Node13 -->
<g id="edge27" class="edge">
<title>Node18&#45;&gt;Node13</title>
<path fill="none" stroke="midnightblue" d="M512.28,-289.99C466.4,-290.25 374.44,-285.08 311.5,-244 260.7,-210.85 258.9,-187.09 233.5,-132 226.63,-117.1 222.18,-98.96 219.56,-85.63"/>
<polygon fill="midnightblue" stroke="midnightblue" points="223,-84.96 217.78,-75.74 216.11,-86.21 223,-84.96"/>
</g>
<!-- Node19 -->
<g id="node19" class="node">
<title>Node19</title>
<g id="a_node19"><a xlink:href="ISystem_8hpp.html" target="_top" xlink:title=" ">
<polygon fill="white" stroke="black" points="320,-224.5 320,-243.5 437,-243.5 437,-224.5 320,-224.5"/>
<text text-anchor="middle" x="378.5" y="-231.5" font-family="Helvetica,sans-Serif" font-size="10.00">System/ISystem.hpp</text>
</a>
</g>
</g>
<!-- Node18&#45;&gt;Node19 -->
<g id="edge28" class="edge">
<title>Node18&#45;&gt;Node19</title>
<path fill="none" stroke="midnightblue" d="M514.83,-280.44C487.58,-271.36 444.32,-256.94 413.85,-246.78"/>
<polygon fill="midnightblue" stroke="midnightblue" points="414.64,-243.36 404.05,-243.52 412.43,-250 414.64,-243.36"/>
</g>
<!-- Node24 -->
<g id="node24" class="node">
<title>Node24</title>
<g id="a_node24"><a xlink:href="Scene_8hpp.html" target="_top" xlink:title=" ">
<polygon fill="white" stroke="black" points="491,-224.5 491,-243.5 590,-243.5 590,-224.5 491,-224.5"/>
<text text-anchor="middle" x="540.5" y="-231.5" font-family="Helvetica,sans-Serif" font-size="10.00">Scene/Scene.hpp</text>
</a>
</g>
</g>
<!-- Node18&#45;&gt;Node24 -->
<g id="edge40" class="edge">
<title>Node18&#45;&gt;Node24</title>
<path fill="none" stroke="midnightblue" d="M540.5,-280.08C540.5,-273.01 540.5,-262.86 540.5,-253.99"/>
<polygon fill="midnightblue" stroke="midnightblue" points="544,-253.75 540.5,-243.75 537,-253.75 544,-253.75"/>
</g>
<!-- Node19&#45;&gt;Node10 -->
<g id="edge29" class="edge">
<title>Node19&#45;&gt;Node10</title>
<path fill="none" stroke="midnightblue" d="M354.71,-224.5C338.78,-217.41 319.04,-205.61 309.5,-188 298.86,-168.36 319.93,-149.27 338.99,-136.91"/>
<polygon fill="midnightblue" stroke="midnightblue" points="341.04,-139.76 347.77,-131.57 337.4,-133.78 341.04,-139.76"/>
</g>
<!-- Node20 -->
<g id="node20" class="node">
<title>Node20</title>
<g id="a_node20"><a xlink:href="View_8hpp.html" target="_top" xlink:title=" ">
<polygon fill="white" stroke="black" points="424.5,-168.5 424.5,-187.5 512.5,-187.5 512.5,-168.5 424.5,-168.5"/>
<text text-anchor="middle" x="468.5" y="-175.5" font-family="Helvetica,sans-Serif" font-size="10.00">View/View.hpp</text>
</a>
</g>
</g>
<!-- Node19&#45;&gt;Node20 -->
<g id="edge30" class="edge">
<title>Node19&#45;&gt;Node20</title>
<path fill="none" stroke="midnightblue" d="M392.96,-224.32C407,-215.9 428.55,-202.97 445.04,-193.07"/>
<polygon fill="midnightblue" stroke="midnightblue" points="447.3,-195.8 454.08,-187.65 443.7,-189.8 447.3,-195.8"/>
</g>
<!-- Node23 -->
<g id="node23" class="node">
<title>Node23</title>
<g id="a_node23"><a xlink:title=" ">
<polygon fill="white" stroke="#bfbfbf" points="318.5,-168.5 318.5,-187.5 368.5,-187.5 368.5,-168.5 318.5,-168.5"/>
<text text-anchor="middle" x="343.5" y="-175.5" font-family="Helvetica,sans-Serif" font-size="10.00">chrono</text>
</a>
</g>
</g>
<!-- Node19&#45;&gt;Node23 -->
<g id="edge38" class="edge">
<title>Node19&#45;&gt;Node23</title>
<path fill="none" stroke="midnightblue" d="M372.72,-224.08C367.83,-216.53 360.67,-205.49 354.67,-196.23"/>
<polygon fill="midnightblue" stroke="midnightblue" points="357.55,-194.24 349.17,-187.75 351.67,-198.05 357.55,-194.24"/>
</g>
<!-- Node20&#45;&gt;Node3 -->
<g id="edge34" class="edge">
<title>Node20&#45;&gt;Node3</title>
<path fill="none" stroke="midnightblue" d="M491.16,-168.44C514.9,-159.48 552.41,-145.31 579.24,-135.18"/>
<polygon fill="midnightblue" stroke="midnightblue" points="580.83,-138.32 588.95,-131.52 578.36,-131.77 580.83,-138.32"/>
</g>
<!-- Node20&#45;&gt;Node4 -->
<g id="edge35" class="edge">
<title>Node20&#45;&gt;Node4</title>
<path fill="none" stroke="midnightblue" d="M508.91,-168.44C559.3,-157.77 644.47,-139.73 690.92,-129.9"/>
<polygon fill="midnightblue" stroke="midnightblue" points="691.7,-133.31 700.76,-127.82 690.25,-126.46 691.7,-133.31"/>
</g>
<!-- Node20&#45;&gt;Node9 -->
<g id="edge33" class="edge">
<title>Node20&#45;&gt;Node9</title>
<path fill="none" stroke="midnightblue" d="M463.96,-168.42C457.53,-154.96 447.87,-128.68 460.5,-112 496.18,-64.89 532.92,-96.07 588.5,-76 631.41,-60.51 679.42,-38.1 708.29,-24.06"/>
<polygon fill="midnightblue" stroke="midnightblue" points="709.87,-27.18 717.3,-19.64 706.79,-20.89 709.87,-27.18"/>
</g>
<!-- Node20&#45;&gt;Node10 -->
<g id="edge37" class="edge">
<title>Node20&#45;&gt;Node10</title>
<path fill="none" stroke="midnightblue" d="M451.79,-168.32C435.19,-159.7 409.5,-146.36 390.28,-136.39"/>
<polygon fill="midnightblue" stroke="midnightblue" points="391.66,-133.16 381.17,-131.65 388.43,-139.37 391.66,-133.16"/>
</g>
<!-- Node20&#45;&gt;Node17 -->
<g id="edge36" class="edge">
<title>Node20&#45;&gt;Node17</title>
<path fill="none" stroke="midnightblue" d="M437.13,-168.44C402.24,-158.93 345.89,-143.56 308.53,-133.37"/>
<polygon fill="midnightblue" stroke="midnightblue" points="309.09,-129.9 298.53,-130.64 307.25,-136.65 309.09,-129.9"/>
</g>
<!-- Node21 -->
<g id="node21" class="node">
<title>Node21</title>
<g id="a_node21"><a xlink:title=" ">
<polygon fill="white" stroke="#bfbfbf" points="528.5,-112.5 528.5,-131.5 560.5,-131.5 560.5,-112.5 528.5,-112.5"/>
<text text-anchor="middle" x="544.5" y="-119.5" font-family="Helvetica,sans-Serif" font-size="10.00">list</text>
</a>
</g>
</g>
<!-- Node20&#45;&gt;Node21 -->
<g id="edge31" class="edge">
<title>Node20&#45;&gt;Node21</title>
<path fill="none" stroke="midnightblue" d="M480.71,-168.32C492.28,-160.11 509.88,-147.6 523.66,-137.81"/>
<polygon fill="midnightblue" stroke="midnightblue" points="525.94,-140.48 532.07,-131.83 521.89,-134.77 525.94,-140.48"/>
</g>
<!-- Node22 -->
<g id="node22" class="node">
<title>Node22</title>
<g id="a_node22"><a xlink:title=" ">
<polygon fill="white" stroke="#bfbfbf" points="469,-112.5 469,-131.5 510,-131.5 510,-112.5 469,-112.5"/>
<text text-anchor="middle" x="489.5" y="-119.5" font-family="Helvetica,sans-Serif" font-size="10.00">tuple</text>
</a>
</g>
</g>
<!-- Node20&#45;&gt;Node22 -->
<g id="edge32" class="edge">
<title>Node20&#45;&gt;Node22</title>
<path fill="none" stroke="midnightblue" d="M471.97,-168.08C474.81,-160.77 478.93,-150.18 482.46,-141.1"/>
<polygon fill="midnightblue" stroke="midnightblue" points="485.73,-142.34 486.1,-131.75 479.21,-139.8 485.73,-142.34"/>
</g>
<!-- Node24&#45;&gt;Node3 -->
<g id="edge43" class="edge">
<title>Node24&#45;&gt;Node3</title>
<path fill="none" stroke="midnightblue" d="M546.07,-224.37C557.74,-206.3 584.92,-164.18 600.33,-140.31"/>
<polygon fill="midnightblue" stroke="midnightblue" points="603.47,-141.89 605.95,-131.59 597.59,-138.1 603.47,-141.89"/>
</g>
<!-- Node24&#45;&gt;Node7 -->
<g id="edge41" class="edge">
<title>Node24&#45;&gt;Node7</title>
<path fill="none" stroke="midnightblue" d="M550.38,-224.2C578.81,-199.06 660.74,-127.68 692.5,-112 751.65,-82.79 788.94,-121.72 836.5,-76 848.94,-64.04 853.36,-44.43 854.87,-29.87"/>
<polygon fill="midnightblue" stroke="midnightblue" points="858.39,-29.73 855.55,-19.52 851.4,-29.27 858.39,-29.73"/>
</g>
<!-- Node24&#45;&gt;Node10 -->
<g id="edge45" class="edge">
<title>Node24&#45;&gt;Node10</title>
<path fill="none" stroke="midnightblue" d="M499.75,-224.49C473.88,-217.66 440.65,-206.16 415.5,-188 398.12,-175.44 383.64,-155.39 374.61,-140.87"/>
<polygon fill="midnightblue" stroke="midnightblue" points="377.38,-138.67 369.26,-131.87 371.36,-142.25 377.38,-138.67"/>
</g>
<!-- Node24&#45;&gt;Node20 -->
<g id="edge44" class="edge">
<title>Node24&#45;&gt;Node20</title>
<path fill="none" stroke="midnightblue" d="M528.93,-224.32C518.08,-216.18 501.62,-203.84 488.62,-194.09"/>
<polygon fill="midnightblue" stroke="midnightblue" points="490.38,-191.03 480.28,-187.83 486.18,-196.63 490.38,-191.03"/>
</g>
<!-- Node24&#45;&gt;Node21 -->
<g id="edge42" class="edge">
<title>Node24&#45;&gt;Node21</title>
<path fill="none" stroke="midnightblue" d="M540.81,-224.37C541.46,-206.62 542.95,-165.67 543.82,-141.6"/>
<polygon fill="midnightblue" stroke="midnightblue" points="547.32,-141.71 544.19,-131.59 540.33,-141.46 547.32,-141.71"/>
</g>
</g>
</svg>
