<?xml version="1.0" encoding="UTF-8" standalone="no"?>
<!DOCTYPE svg PUBLIC "-//W3C//DTD SVG 1.1//EN"
 "http://www.w3.org/Graphics/SVG/1.1/DTD/svg11.dtd">
<!-- Generated by graphviz version 2.43.0 (0)
 -->
<!-- Title: sources/Component/Button/ButtonComponent.hpp Pages: 1 -->
<svg width="2568pt" height="173pt"
 viewBox="0.00 0.00 2567.50 173.00" xmlns="http://www.w3.org/2000/svg" xmlns:xlink="http://www.w3.org/1999/xlink">
<g id="graph0" class="graph" transform="scale(1 1) rotate(0) translate(4 169)">
<title>sources/Component/Button/ButtonComponent.hpp</title>
<polygon fill="white" stroke="transparent" points="-4,4 -4,-169 2563.5,-169 2563.5,4 -4,4"/>
<!-- Node1 -->
<g id="node1" class="node">
<title>Node1</title>
<g id="a_node1"><a xlink:title=" ">
<polygon fill="#bfbfbf" stroke="black" points="1123,-134.5 1123,-164.5 1272,-164.5 1272,-134.5 1123,-134.5"/>
<text text-anchor="start" x="1131" y="-152.5" font-family="Helvetica,sans-Serif" font-size="10.00">sources/Component/Button</text>
<text text-anchor="middle" x="1197.5" y="-141.5" font-family="Helvetica,sans-Serif" font-size="10.00">/ButtonComponent.hpp</text>
</a>
</g>
</g>
<!-- Node2 -->
<g id="node2" class="node">
<title>Node2</title>
<g id="a_node2"><a xlink:href="CreditScene_8cpp.html" target="_top" xlink:title=" ">
<polygon fill="white" stroke="black" points="0,-73 0,-92 173,-92 173,-73 0,-73"/>
<text text-anchor="middle" x="86.5" y="-80" font-family="Helvetica,sans-Serif" font-size="10.00">sources/Runner/CreditScene.cpp</text>
</a>
</g>
</g>
<!-- Node1&#45;&gt;Node2 -->
<g id="edge1" class="edge">
<title>Node1&#45;&gt;Node2</title>
<path fill="none" stroke="midnightblue" d="M1112.67,-147.15C938.13,-143.74 526.32,-132.43 182.5,-98 167.57,-96.51 151.42,-94.3 136.7,-92.05"/>
<polygon fill="midnightblue" stroke="midnightblue" points="1112.75,-150.65 1122.81,-147.34 1112.88,-143.65 1112.75,-150.65"/>
</g>
<!-- Node3 -->
<g id="node3" class="node">
<title>Node3</title>
<g id="a_node3"><a xlink:href="HowToPlayScene_8cpp.html" target="_top" xlink:title=" ">
<polygon fill="white" stroke="black" points="191.5,-67.5 191.5,-97.5 339.5,-97.5 339.5,-67.5 191.5,-67.5"/>
<text text-anchor="start" x="199.5" y="-85.5" font-family="Helvetica,sans-Serif" font-size="10.00">sources/Runner/HowToPlay</text>
<text text-anchor="middle" x="265.5" y="-74.5" font-family="Helvetica,sans-Serif" font-size="10.00">Scene.cpp</text>
</a>
</g>
</g>
<!-- Node1&#45;&gt;Node3 -->
<g id="edge2" class="edge">
<title>Node1&#45;&gt;Node3</title>
<path fill="none" stroke="midnightblue" d="M1112.6,-146.64C959.45,-142.57 626.99,-130.5 348.5,-98 345.59,-97.66 342.64,-97.29 339.65,-96.88"/>
<polygon fill="midnightblue" stroke="midnightblue" points="1112.78,-150.14 1122.87,-146.91 1112.96,-143.15 1112.78,-150.14"/>
</g>
<!-- Node4 -->
<g id="node4" class="node">
<title>Node4</title>
<g id="a_node4"><a xlink:href="LobbyScene_8cpp.html" target="_top" xlink:title=" ">
<polygon fill="white" stroke="black" points="358,-73 358,-92 531,-92 531,-73 358,-73"/>
<text text-anchor="middle" x="444.5" y="-80" font-family="Helvetica,sans-Serif" font-size="10.00">sources/Runner/LobbyScene.cpp</text>
</a>
</g>
</g>
<!-- Node1&#45;&gt;Node4 -->
<g id="edge3" class="edge">
<title>Node1&#45;&gt;Node4</title>
<path fill="none" stroke="midnightblue" d="M1112.52,-144.02C986.96,-136.93 744.6,-121.49 539.5,-98 525.24,-96.37 509.85,-94.2 495.68,-92.03"/>
<polygon fill="midnightblue" stroke="midnightblue" points="1112.64,-147.53 1122.82,-144.59 1113.04,-140.54 1112.64,-147.53"/>
</g>
<!-- Node5 -->
<g id="node5" class="node">
<title>Node5</title>
<g id="a_node5"><a xlink:href="MainMenuScene_8cpp.html" target="_top" xlink:title=" ">
<polygon fill="white" stroke="black" points="549,-73 549,-92 744,-92 744,-73 549,-73"/>
<text text-anchor="middle" x="646.5" y="-80" font-family="Helvetica,sans-Serif" font-size="10.00">sources/Runner/MainMenuScene.cpp</text>
</a>
</g>
</g>
<!-- Node1&#45;&gt;Node5 -->
<g id="edge4" class="edge">
<title>Node1&#45;&gt;Node5</title>
<path fill="none" stroke="midnightblue" d="M1112.53,-139.44C1022.93,-129.76 877.68,-113.66 752.5,-98 737.76,-96.16 721.87,-94.05 707.01,-92.02"/>
<polygon fill="midnightblue" stroke="midnightblue" points="1112.32,-142.94 1122.64,-140.53 1113.07,-135.98 1112.32,-142.94"/>
</g>
<!-- Node6 -->
<g id="node6" class="node">
<title>Node6</title>
<g id="a_node6"><a xlink:href="PauseMenuScene_8cpp.html" target="_top" xlink:title=" ">
<polygon fill="white" stroke="black" points="761.5,-67.5 761.5,-97.5 911.5,-97.5 911.5,-67.5 761.5,-67.5"/>
<text text-anchor="start" x="769.5" y="-85.5" font-family="Helvetica,sans-Serif" font-size="10.00">sources/Runner/PauseMenu</text>
<text text-anchor="middle" x="836.5" y="-74.5" font-family="Helvetica,sans-Serif" font-size="10.00">Scene.cpp</text>
</a>
</g>
</g>
<!-- Node1&#45;&gt;Node6 -->
<g id="edge5" class="edge">
<title>Node1&#45;&gt;Node6</title>
<path fill="none" stroke="midnightblue" d="M1112.71,-133.23C1051.7,-122.25 970.16,-107.57 911.51,-97.01"/>
<polygon fill="midnightblue" stroke="midnightblue" points="1112.24,-136.7 1122.7,-135.03 1113.48,-129.82 1112.24,-136.7"/>
</g>
<!-- Node7 -->
<g id="node7" class="node">
<title>Node7</title>
<g id="a_node7"><a xlink:href="ResumeLobbyScene_8cpp.html" target="_top" xlink:title=" ">
<polygon fill="white" stroke="black" points="929.5,-67.5 929.5,-97.5 1093.5,-97.5 1093.5,-67.5 929.5,-67.5"/>
<text text-anchor="start" x="937.5" y="-85.5" font-family="Helvetica,sans-Serif" font-size="10.00">sources/Runner/ResumeLobby</text>
<text text-anchor="middle" x="1011.5" y="-74.5" font-family="Helvetica,sans-Serif" font-size="10.00">Scene.cpp</text>
</a>
</g>
</g>
<!-- Node1&#45;&gt;Node7 -->
<g id="edge6" class="edge">
<title>Node1&#45;&gt;Node7</title>
<path fill="none" stroke="midnightblue" d="M1147.69,-131.09C1117.66,-120.6 1079.91,-107.41 1051.78,-97.58"/>
<polygon fill="midnightblue" stroke="midnightblue" points="1146.55,-134.4 1157.14,-134.4 1148.86,-127.79 1146.55,-134.4"/>
</g>
<!-- Node8 -->
<g id="node8" class="node">
<title>Node8</title>
<g id="a_node8"><a xlink:href="ScoreScene_8cpp.html" target="_top" xlink:title=" ">
<polygon fill="white" stroke="black" points="1112,-73 1112,-92 1283,-92 1283,-73 1112,-73"/>
<text text-anchor="middle" x="1197.5" y="-80" font-family="Helvetica,sans-Serif" font-size="10.00">sources/Runner/ScoreScene.cpp</text>
</a>
</g>
</g>
<!-- Node1&#45;&gt;Node8 -->
<g id="edge7" class="edge">
<title>Node1&#45;&gt;Node8</title>
<path fill="none" stroke="midnightblue" d="M1197.5,-124.25C1197.5,-113.02 1197.5,-100.38 1197.5,-92.19"/>
<polygon fill="midnightblue" stroke="midnightblue" points="1194,-124.4 1197.5,-134.4 1201,-124.4 1194,-124.4"/>
</g>
<!-- Node9 -->
<g id="node9" class="node">
<title>Node9</title>
<g id="a_node9"><a xlink:href="SettingsMenuScene_8cpp.html" target="_top" xlink:title=" ">
<polygon fill="white" stroke="black" points="1301,-67.5 1301,-97.5 1462,-97.5 1462,-67.5 1301,-67.5"/>
<text text-anchor="start" x="1309" y="-85.5" font-family="Helvetica,sans-Serif" font-size="10.00">sources/Runner/SettingsMenu</text>
<text text-anchor="middle" x="1381.5" y="-74.5" font-family="Helvetica,sans-Serif" font-size="10.00">Scene.cpp</text>
</a>
</g>
</g>
<!-- Node1&#45;&gt;Node9 -->
<g id="edge8" class="edge">
<title>Node1&#45;&gt;Node9</title>
<path fill="none" stroke="midnightblue" d="M1247.17,-130.96C1276.8,-120.48 1313.94,-107.37 1341.65,-97.58"/>
<polygon fill="midnightblue" stroke="midnightblue" points="1245.69,-127.76 1237.43,-134.4 1248.02,-134.37 1245.69,-127.76"/>
</g>
<!-- Node10 -->
<g id="node10" class="node">
<title>Node10</title>
<g id="a_node10"><a xlink:href="SplashScreenScene_8cpp.html" target="_top" xlink:title=" ">
<polygon fill="white" stroke="black" points="1480.5,-67.5 1480.5,-97.5 1640.5,-97.5 1640.5,-67.5 1480.5,-67.5"/>
<text text-anchor="start" x="1488.5" y="-85.5" font-family="Helvetica,sans-Serif" font-size="10.00">sources/Runner/SplashScreen</text>
<text text-anchor="middle" x="1560.5" y="-74.5" font-family="Helvetica,sans-Serif" font-size="10.00">Scene.cpp</text>
</a>
</g>
</g>
<!-- Node1&#45;&gt;Node10 -->
<g id="edge9" class="edge">
<title>Node1&#45;&gt;Node10</title>
<path fill="none" stroke="midnightblue" d="M1282.16,-133.34C1342.54,-122.53 1423.14,-108.1 1482.06,-97.55"/>
<polygon fill="midnightblue" stroke="midnightblue" points="1281.5,-129.9 1272.27,-135.11 1282.73,-136.79 1281.5,-129.9"/>
</g>
<!-- Node11 -->
<g id="node11" class="node">
<title>Node11</title>
<g id="a_node11"><a xlink:href="TitleScreenScene_8cpp.html" target="_top" xlink:title=" ">
<polygon fill="white" stroke="black" points="1659,-67.5 1659,-97.5 1808,-97.5 1808,-67.5 1659,-67.5"/>
<text text-anchor="start" x="1667" y="-85.5" font-family="Helvetica,sans-Serif" font-size="10.00">sources/Runner/TitleScreen</text>
<text text-anchor="middle" x="1733.5" y="-74.5" font-family="Helvetica,sans-Serif" font-size="10.00">Scene.cpp</text>
</a>
</g>
</g>
<!-- Node1&#45;&gt;Node11 -->
<g id="edge10" class="edge">
<title>Node1&#45;&gt;Node11</title>
<path fill="none" stroke="midnightblue" d="M1282.04,-140.58C1372.99,-131.7 1521.78,-116.14 1649.5,-98 1652.58,-97.56 1655.71,-97.1 1658.88,-96.62"/>
<polygon fill="midnightblue" stroke="midnightblue" points="1281.67,-137.09 1272.06,-141.55 1282.35,-144.06 1281.67,-137.09"/>
</g>
<!-- Node12 -->
<g id="node12" class="node">
<title>Node12</title>
<g id="a_node12"><a xlink:href="IntroAnimationSystem_8cpp.html" target="_top" xlink:title=" ">
<polygon fill="white" stroke="black" points="1826.5,-67.5 1826.5,-97.5 1996.5,-97.5 1996.5,-67.5 1826.5,-67.5"/>
<text text-anchor="start" x="1834.5" y="-85.5" font-family="Helvetica,sans-Serif" font-size="10.00">sources/System/IntroAnimation</text>
<text text-anchor="middle" x="1911.5" y="-74.5" font-family="Helvetica,sans-Serif" font-size="10.00">/IntroAnimationSystem.cpp</text>
</a>
</g>
</g>
<!-- Node1&#45;&gt;Node12 -->
<g id="edge11" class="edge">
<title>Node1&#45;&gt;Node12</title>
<path fill="none" stroke="midnightblue" d="M1282.64,-143.45C1402.15,-135.93 1626.33,-120.24 1816.5,-98 1819.73,-97.62 1823.02,-97.22 1826.34,-96.79"/>
<polygon fill="midnightblue" stroke="midnightblue" points="1282.23,-139.97 1272.46,-144.08 1282.66,-146.95 1282.23,-139.97"/>
</g>
<!-- Node13 -->
<g id="node13" class="node">
<title>Node13</title>
<g id="a_node13"><a xlink:href="MenuControllableSystem_8cpp.html" target="_top" xlink:title=" ">
<polygon fill="white" stroke="black" points="1901,-0.5 1901,-30.5 2084,-30.5 2084,-0.5 1901,-0.5"/>
<text text-anchor="start" x="1909" y="-18.5" font-family="Helvetica,sans-Serif" font-size="10.00">sources/System/MenuControllable</text>
<text text-anchor="middle" x="1992.5" y="-7.5" font-family="Helvetica,sans-Serif" font-size="10.00">/MenuControllableSystem.cpp</text>
</a>
</g>
</g>
<!-- Node1&#45;&gt;Node13 -->
<g id="edge12" class="edge">
<title>Node1&#45;&gt;Node13</title>
<path fill="none" stroke="midnightblue" d="M1282.53,-146.28C1485.07,-140.59 1981.02,-124.05 2005.5,-98 2022.57,-79.83 2010.43,-48.71 2000.9,-30.64"/>
<polygon fill="midnightblue" stroke="midnightblue" points="1282.14,-142.79 1272.24,-146.57 1282.33,-149.79 1282.14,-142.79"/>
</g>
<!-- Node14 -->
<g id="node14" class="node">
<title>Node14</title>
<g id="a_node14"><a xlink:href="MenuControllableSystem_8hpp.html" target="_top" xlink:title=" ">
<polygon fill="white" stroke="black" points="2085,-67.5 2085,-97.5 2268,-97.5 2268,-67.5 2085,-67.5"/>
<text text-anchor="start" x="2093" y="-85.5" font-family="Helvetica,sans-Serif" font-size="10.00">sources/System/MenuControllable</text>
<text text-anchor="middle" x="2176.5" y="-74.5" font-family="Helvetica,sans-Serif" font-size="10.00">/MenuControllableSystem.hpp</text>
</a>
</g>
</g>
<!-- Node1&#45;&gt;Node14 -->
<g id="edge13" class="edge">
<title>Node1&#45;&gt;Node14</title>
<path fill="none" stroke="midnightblue" d="M1282.29,-144.66C1434.09,-137.52 1762.23,-120.8 2038.5,-98 2053.51,-96.76 2069.41,-95.26 2084.88,-93.71"/>
<polygon fill="midnightblue" stroke="midnightblue" points="1281.94,-141.18 1272.11,-145.14 1282.27,-148.17 1281.94,-141.18"/>
</g>
<!-- Node14&#45;&gt;Node13 -->
<g id="edge17" class="edge">
<title>Node14&#45;&gt;Node13</title>
<path fill="none" stroke="midnightblue" d="M2126.83,-63.96C2097.2,-53.48 2060.06,-40.37 2032.35,-30.58"/>
<polygon fill="midnightblue" stroke="midnightblue" points="2125.98,-67.37 2136.57,-67.4 2128.31,-60.76 2125.98,-67.37"/>
</g>
<!-- Node15 -->
<g id="node15" class="node">
<title>Node15</title>
<g id="a_node15"><a xlink:href="Runner_8cpp.html" target="_top" xlink:title=" ">
<polygon fill="white" stroke="black" points="2102,-6 2102,-25 2251,-25 2251,-6 2102,-6"/>
<text text-anchor="middle" x="2176.5" y="-13" font-family="Helvetica,sans-Serif" font-size="10.00">sources/Runner/Runner.cpp</text>
</a>
</g>
</g>
<!-- Node14&#45;&gt;Node15 -->
<g id="edge14" class="edge">
<title>Node14&#45;&gt;Node15</title>
<path fill="none" stroke="midnightblue" d="M2176.5,-57.25C2176.5,-46.02 2176.5,-33.38 2176.5,-25.19"/>
<polygon fill="midnightblue" stroke="midnightblue" points="2173,-57.4 2176.5,-67.4 2180,-57.4 2173,-57.4"/>
</g>
<!-- Node16 -->
<g id="node16" class="node">
<title>Node16</title>
<g id="a_node16"><a xlink:href="LobbySystem_8cpp.html" target="_top" xlink:title=" ">
<polygon fill="white" stroke="black" points="2269.5,-0.5 2269.5,-30.5 2395.5,-30.5 2395.5,-0.5 2269.5,-0.5"/>
<text text-anchor="start" x="2277.5" y="-18.5" font-family="Helvetica,sans-Serif" font-size="10.00">sources/System/Lobby</text>
<text text-anchor="middle" x="2332.5" y="-7.5" font-family="Helvetica,sans-Serif" font-size="10.00">/LobbySystem.cpp</text>
</a>
</g>
</g>
<!-- Node14&#45;&gt;Node16 -->
<g id="edge15" class="edge">
<title>Node14&#45;&gt;Node16</title>
<path fill="none" stroke="midnightblue" d="M2219.59,-63.54C2244.56,-53.14 2275.53,-40.24 2298.72,-30.58"/>
<polygon fill="midnightblue" stroke="midnightblue" points="2218.23,-60.32 2210.35,-67.4 2220.93,-66.78 2218.23,-60.32"/>
</g>
<!-- Node17 -->
<g id="node17" class="node">
<title>Node17</title>
<g id="a_node17"><a xlink:href="ResumeLobbySystem_8cpp.html" target="_top" xlink:title=" ">
<polygon fill="white" stroke="black" points="2413.5,-0.5 2413.5,-30.5 2559.5,-30.5 2559.5,-0.5 2413.5,-0.5"/>
<text text-anchor="start" x="2421.5" y="-18.5" font-family="Helvetica,sans-Serif" font-size="10.00">sources/System/Lobby</text>
<text text-anchor="middle" x="2486.5" y="-7.5" font-family="Helvetica,sans-Serif" font-size="10.00">/ResumeLobbySystem.cpp</text>
</a>
</g>
</g>
<!-- Node14&#45;&gt;Node17 -->
<g id="edge16" class="edge">
<title>Node14&#45;&gt;Node17</title>
<path fill="none" stroke="midnightblue" d="M2253.37,-65.38C2304.36,-54.69 2370.63,-40.8 2419.47,-30.55"/>
<polygon fill="midnightblue" stroke="midnightblue" points="2252.45,-62 2243.38,-67.48 2253.89,-68.85 2252.45,-62"/>
</g>
</g>
</svg>
