<?xml version="1.0" encoding="UTF-8" standalone="no"?>
<!DOCTYPE svg PUBLIC "-//W3C//DTD SVG 1.1//EN"
 "http://www.w3.org/Graphics/SVG/1.1/DTD/svg11.dtd">
<!-- Generated by graphviz version 2.43.0 (0)
 -->
<!-- Title: tests/CacheTest.cpp Pages: 1 -->
<svg width="1967pt" height="588pt"
 viewBox="0.00 0.00 1967.00 588.00" xmlns="http://www.w3.org/2000/svg" xmlns:xlink="http://www.w3.org/1999/xlink">
<g id="graph0" class="graph" transform="scale(1 1) rotate(0) translate(4 584)">
<title>tests/CacheTest.cpp</title>
<polygon fill="white" stroke="transparent" points="-4,4 -4,-584 1963,-584 1963,4 -4,4"/>
<!-- Node1 -->
<g id="node1" class="node">
<title>Node1</title>
<g id="a_node1"><a xlink:title=" ">
<polygon fill="#bfbfbf" stroke="black" points="1619.5,-560.5 1619.5,-579.5 1732.5,-579.5 1732.5,-560.5 1619.5,-560.5"/>
<text text-anchor="middle" x="1676" y="-567.5" font-family="Helvetica,sans-Serif" font-size="10.00">tests/CacheTest.cpp</text>
</a>
</g>
</g>
<!-- Node2 -->
<g id="node2" class="node">
<title>Node2</title>
<g id="a_node2"><a xlink:title=" ">
<polygon fill="white" stroke="#bfbfbf" points="791.5,-504.5 791.5,-523.5 890.5,-523.5 890.5,-504.5 791.5,-504.5"/>
<text text-anchor="middle" x="841" y="-511.5" font-family="Helvetica,sans-Serif" font-size="10.00">catch2/catch.hpp</text>
</a>
</g>
</g>
<!-- Node1&#45;&gt;Node2 -->
<g id="edge1" class="edge">
<title>Node1&#45;&gt;Node2</title>
<path fill="none" stroke="midnightblue" d="M1619.3,-567.58C1492.38,-564.01 1175.59,-552.84 900.8,-524.1"/>
<polygon fill="midnightblue" stroke="midnightblue" points="900.95,-520.59 890.63,-523.02 900.21,-527.55 900.95,-520.59"/>
</g>
<!-- Node3 -->
<g id="node3" class="node">
<title>Node3</title>
<g id="a_node3"><a xlink:href="Image_8hpp.html" target="_top" xlink:title=" ">
<polygon fill="white" stroke="black" points="908.5,-504.5 908.5,-523.5 1031.5,-523.5 1031.5,-504.5 908.5,-504.5"/>
<text text-anchor="middle" x="970" y="-511.5" font-family="Helvetica,sans-Serif" font-size="10.00">Drawables/Image.hpp</text>
</a>
</g>
</g>
<!-- Node1&#45;&gt;Node3 -->
<g id="edge2" class="edge">
<title>Node1&#45;&gt;Node3</title>
<path fill="none" stroke="midnightblue" d="M1619.42,-564.67C1491.97,-554.92 1182.59,-531.26 1041.85,-520.5"/>
<polygon fill="midnightblue" stroke="midnightblue" points="1041.84,-516.98 1031.6,-519.71 1041.31,-523.96 1041.84,-516.98"/>
</g>
<!-- Node16 -->
<g id="node16" class="node">
<title>Node16</title>
<g id="a_node16"><a xlink:title=" ">
<polygon fill="white" stroke="#bfbfbf" points="1649,-224.5 1649,-243.5 1709,-243.5 1709,-224.5 1649,-224.5"/>
<text text-anchor="middle" x="1679" y="-231.5" font-family="Helvetica,sans-Serif" font-size="10.00">iostream</text>
</a>
</g>
</g>
<!-- Node1&#45;&gt;Node16 -->
<g id="edge68" class="edge">
<title>Node1&#45;&gt;Node16</title>
<path fill="none" stroke="midnightblue" d="M1723.36,-560.42C1775.18,-547.99 1851,-519.47 1851,-459 1851,-459 1851,-459 1851,-345 1851,-282.82 1770.24,-254.21 1719.4,-242.35"/>
<polygon fill="midnightblue" stroke="midnightblue" points="1719.87,-238.87 1709.35,-240.14 1718.37,-245.71 1719.87,-238.87"/>
</g>
<!-- Node32 -->
<g id="node32" class="node">
<title>Node32</title>
<g id="a_node32"><a xlink:href="Sound_8hpp.html" target="_top" xlink:title=" ">
<polygon fill="white" stroke="black" points="1686,-336.5 1686,-355.5 1784,-355.5 1784,-336.5 1686,-336.5"/>
<text text-anchor="middle" x="1735" y="-343.5" font-family="Helvetica,sans-Serif" font-size="10.00">Audio/Sound.hpp</text>
</a>
</g>
</g>
<!-- Node1&#45;&gt;Node32 -->
<g id="edge57" class="edge">
<title>Node1&#45;&gt;Node32</title>
<path fill="none" stroke="midnightblue" d="M1678.31,-560.3C1687.01,-527.56 1717.89,-411.38 1730.04,-365.67"/>
<polygon fill="midnightblue" stroke="midnightblue" points="1733.45,-366.45 1732.64,-355.88 1726.69,-364.65 1733.45,-366.45"/>
</g>
<!-- Node34 -->
<g id="node34" class="node">
<title>Node34</title>
<g id="a_node34"><a xlink:href="Music_8hpp.html" target="_top" xlink:title=" ">
<polygon fill="white" stroke="black" points="1570.5,-336.5 1570.5,-355.5 1667.5,-355.5 1667.5,-336.5 1570.5,-336.5"/>
<text text-anchor="middle" x="1619" y="-343.5" font-family="Helvetica,sans-Serif" font-size="10.00">Audio/Music.hpp</text>
</a>
</g>
</g>
<!-- Node1&#45;&gt;Node34 -->
<g id="edge62" class="edge">
<title>Node1&#45;&gt;Node34</title>
<path fill="none" stroke="midnightblue" d="M1673.77,-560.3C1665.36,-527.56 1635.53,-411.38 1623.79,-365.67"/>
<polygon fill="midnightblue" stroke="midnightblue" points="1627.16,-364.7 1621.28,-355.88 1620.38,-366.44 1627.16,-364.7"/>
</g>
<!-- Node35 -->
<g id="node35" class="node">
<title>Node35</title>
<g id="a_node35"><a xlink:href="TraceLog_8hpp.html" target="_top" xlink:title=" ">
<polygon fill="white" stroke="black" points="1879,-448.5 1879,-467.5 1959,-467.5 1959,-448.5 1879,-448.5"/>
<text text-anchor="middle" x="1919" y="-455.5" font-family="Helvetica,sans-Serif" font-size="10.00">TraceLog.hpp</text>
</a>
</g>
</g>
<!-- Node1&#45;&gt;Node35 -->
<g id="edge66" class="edge">
<title>Node1&#45;&gt;Node35</title>
<path fill="none" stroke="midnightblue" d="M1732.54,-565C1772.12,-560.03 1824.88,-548.91 1865,-524 1884.02,-512.19 1899.55,-491.37 1908.99,-476.47"/>
<polygon fill="midnightblue" stroke="midnightblue" points="1912.12,-478.06 1914.3,-467.69 1906.13,-474.44 1912.12,-478.06"/>
</g>
<!-- Node4 -->
<g id="node4" class="node">
<title>Node4</title>
<g id="a_node4"><a xlink:title=" ">
<polygon fill="white" stroke="#bfbfbf" points="616.5,-0.5 616.5,-19.5 669.5,-19.5 669.5,-0.5 616.5,-0.5"/>
<text text-anchor="middle" x="643" y="-7.5" font-family="Helvetica,sans-Serif" font-size="10.00">raylib.h</text>
</a>
</g>
</g>
<!-- Node3&#45;&gt;Node4 -->
<g id="edge3" class="edge">
<title>Node3&#45;&gt;Node4</title>
<path fill="none" stroke="midnightblue" d="M908.43,-505.14C905.24,-504.75 902.08,-504.37 899,-504 799.19,-492.07 0,-503.52 0,-403 0,-403 0,-403 0,-121 0,-83.16 21.3,-73.22 55,-56 103.95,-30.98 484.61,-16.27 605.96,-12.18"/>
<polygon fill="midnightblue" stroke="midnightblue" points="606.35,-15.67 616.23,-11.84 606.11,-8.67 606.35,-15.67"/>
</g>
<!-- Node5 -->
<g id="node5" class="node">
<title>Node5</title>
<g id="a_node5"><a xlink:title=" ">
<polygon fill="white" stroke="#bfbfbf" points="1092,-168.5 1092,-187.5 1136,-187.5 1136,-168.5 1092,-168.5"/>
<text text-anchor="middle" x="1114" y="-175.5" font-family="Helvetica,sans-Serif" font-size="10.00">string</text>
</a>
</g>
</g>
<!-- Node3&#45;&gt;Node5 -->
<g id="edge4" class="edge">
<title>Node3&#45;&gt;Node5</title>
<path fill="none" stroke="midnightblue" d="M956.21,-504.19C945.17,-496.24 930.5,-483.45 924,-468 880.97,-365.71 900.08,-303.99 977,-224 1004.55,-195.35 1050.63,-184.93 1081.65,-181.14"/>
<polygon fill="midnightblue" stroke="midnightblue" points="1082.36,-184.59 1091.94,-180.06 1081.63,-177.63 1082.36,-184.59"/>
</g>
<!-- Node6 -->
<g id="node6" class="node">
<title>Node6</title>
<g id="a_node6"><a xlink:href="Texture_8hpp.html" target="_top" xlink:title=" ">
<polygon fill="white" stroke="black" points="933,-448.5 933,-467.5 1007,-467.5 1007,-448.5 933,-448.5"/>
<text text-anchor="middle" x="970" y="-455.5" font-family="Helvetica,sans-Serif" font-size="10.00">Texture.hpp</text>
</a>
</g>
</g>
<!-- Node3&#45;&gt;Node6 -->
<g id="edge5" class="edge">
<title>Node3&#45;&gt;Node6</title>
<path fill="none" stroke="midnightblue" d="M970,-504.08C970,-497.01 970,-486.86 970,-477.99"/>
<polygon fill="midnightblue" stroke="midnightblue" points="973.5,-477.75 970,-467.75 966.5,-477.75 973.5,-477.75"/>
</g>
<!-- Node7 -->
<g id="node7" class="node">
<title>Node7</title>
<g id="a_node7"><a xlink:href="Cache_8hpp.html" target="_top" xlink:title=" ">
<polygon fill="white" stroke="black" points="1309.5,-280.5 1309.5,-299.5 1402.5,-299.5 1402.5,-280.5 1309.5,-280.5"/>
<text text-anchor="middle" x="1356" y="-287.5" font-family="Helvetica,sans-Serif" font-size="10.00">Utils/Cache.hpp</text>
</a>
</g>
</g>
<!-- Node3&#45;&gt;Node7 -->
<g id="edge55" class="edge">
<title>Node3&#45;&gt;Node7</title>
<path fill="none" stroke="midnightblue" d="M985.17,-504.35C1026.64,-480.68 1145.45,-412.83 1244,-356 1274.5,-338.41 1309.61,-318.01 1332.26,-304.83"/>
<polygon fill="midnightblue" stroke="midnightblue" points="1334.28,-307.7 1341.16,-299.65 1330.76,-301.65 1334.28,-307.7"/>
</g>
<!-- Node17 -->
<g id="node17" class="node">
<title>Node17</title>
<g id="a_node17"><a xlink:href="Rectangle_8hpp.html" target="_top" xlink:title=" ">
<polygon fill="white" stroke="black" points="710,-392.5 710,-411.5 868,-411.5 868,-392.5 710,-392.5"/>
<text text-anchor="middle" x="789" y="-399.5" font-family="Helvetica,sans-Serif" font-size="10.00">Drawables/2D/Rectangle.hpp</text>
</a>
</g>
</g>
<!-- Node3&#45;&gt;Node17 -->
<g id="edge56" class="edge">
<title>Node3&#45;&gt;Node17</title>
<path fill="none" stroke="midnightblue" d="M952.44,-504.4C935.03,-495.72 907.76,-481.67 885,-468 858.04,-451.8 828.23,-431.16 809.09,-417.54"/>
<polygon fill="midnightblue" stroke="midnightblue" points="811.02,-414.61 800.85,-411.64 806.94,-420.31 811.02,-414.61"/>
</g>
<!-- Node6&#45;&gt;Node4 -->
<g id="edge6" class="edge">
<title>Node6&#45;&gt;Node4</title>
<path fill="none" stroke="midnightblue" d="M970.09,-448.02C970.13,-411.43 967.11,-270.58 921,-168 892.01,-103.5 870.8,-88.5 808,-56 766.78,-34.66 714.37,-22.61 679.81,-16.45"/>
<polygon fill="midnightblue" stroke="midnightblue" points="680.14,-12.96 669.69,-14.73 678.96,-19.86 680.14,-12.96"/>
</g>
<!-- Node6&#45;&gt;Node5 -->
<g id="edge7" class="edge">
<title>Node6&#45;&gt;Node5</title>
<path fill="none" stroke="midnightblue" d="M970.65,-448.45C972.01,-429.95 975,-384.85 975,-347 975,-347 975,-347 975,-289 975,-258.9 973.52,-246.06 994,-224 1016.85,-199.38 1054.48,-188.15 1081.51,-183.08"/>
<polygon fill="midnightblue" stroke="midnightblue" points="1082.38,-186.48 1091.66,-181.37 1081.22,-179.58 1082.38,-186.48"/>
</g>
<!-- Node6&#45;&gt;Node7 -->
<g id="edge8" class="edge">
<title>Node6&#45;&gt;Node7</title>
<path fill="none" stroke="midnightblue" d="M989.75,-448.48C1035.62,-428.7 1152.91,-378.14 1251,-336 1276.48,-325.05 1305.46,-312.64 1326.51,-303.62"/>
<polygon fill="midnightblue" stroke="midnightblue" points="1328.05,-306.77 1335.87,-299.62 1325.3,-300.34 1328.05,-306.77"/>
</g>
<!-- Node6&#45;&gt;Node17 -->
<g id="edge21" class="edge">
<title>Node6&#45;&gt;Node17</title>
<path fill="none" stroke="midnightblue" d="M941.32,-448.44C910.47,-439.24 861.27,-424.56 827.17,-414.39"/>
<polygon fill="midnightblue" stroke="midnightblue" points="828.13,-411.02 817.55,-411.52 826.13,-417.73 828.13,-411.02"/>
</g>
<!-- Node7&#45;&gt;Node4 -->
<g id="edge13" class="edge">
<title>Node7&#45;&gt;Node4</title>
<path fill="none" stroke="midnightblue" d="M1402.6,-286.22C1465.58,-281.52 1573.3,-269.87 1602,-244 1624.35,-223.85 1621,-209.1 1621,-179 1621,-179 1621,-179 1621,-121 1621,-24.41 857.91,-12.63 679.84,-11.2"/>
<polygon fill="midnightblue" stroke="midnightblue" points="679.69,-7.7 669.67,-11.12 679.64,-14.7 679.69,-7.7"/>
</g>
<!-- Node7&#45;&gt;Node5 -->
<g id="edge19" class="edge">
<title>Node7&#45;&gt;Node5</title>
<path fill="none" stroke="midnightblue" d="M1323.32,-280.48C1295.26,-272.63 1254.06,-259.82 1220,-244 1188.62,-229.43 1154.98,-207.62 1134.21,-193.35"/>
<polygon fill="midnightblue" stroke="midnightblue" points="1136.1,-190.4 1125.89,-187.56 1132.1,-196.15 1136.1,-190.4"/>
</g>
<!-- Node8 -->
<g id="node8" class="node">
<title>Node8</title>
<g id="a_node8"><a xlink:title=" ">
<polygon fill="white" stroke="#bfbfbf" points="1003,-224.5 1003,-243.5 1061,-243.5 1061,-224.5 1003,-224.5"/>
<text text-anchor="middle" x="1032" y="-231.5" font-family="Helvetica,sans-Serif" font-size="10.00">memory</text>
</a>
</g>
</g>
<!-- Node7&#45;&gt;Node8 -->
<g id="edge9" class="edge">
<title>Node7&#45;&gt;Node8</title>
<path fill="none" stroke="midnightblue" d="M1309.24,-282.76C1254.5,-275.21 1160.91,-261.53 1071.45,-244.17"/>
<polygon fill="midnightblue" stroke="midnightblue" points="1071.9,-240.69 1061.41,-242.2 1070.55,-247.56 1071.9,-240.69"/>
</g>
<!-- Node9 -->
<g id="node9" class="node">
<title>Node9</title>
<g id="a_node9"><a xlink:title=" ">
<polygon fill="white" stroke="#bfbfbf" points="1079.5,-224.5 1079.5,-243.5 1172.5,-243.5 1172.5,-224.5 1079.5,-224.5"/>
<text text-anchor="middle" x="1126" y="-231.5" font-family="Helvetica,sans-Serif" font-size="10.00">unordered_map</text>
</a>
</g>
</g>
<!-- Node7&#45;&gt;Node9 -->
<g id="edge10" class="edge">
<title>Node7&#45;&gt;Node9</title>
<path fill="none" stroke="midnightblue" d="M1319.56,-280.44C1279.6,-271.06 1215.41,-255.99 1172.02,-245.8"/>
<polygon fill="midnightblue" stroke="midnightblue" points="1172.81,-242.39 1162.27,-243.52 1171.21,-249.21 1172.81,-242.39"/>
</g>
<!-- Node10 -->
<g id="node10" class="node">
<title>Node10</title>
<g id="a_node10"><a xlink:title=" ">
<polygon fill="white" stroke="#bfbfbf" points="1382.5,-224.5 1382.5,-243.5 1447.5,-243.5 1447.5,-224.5 1382.5,-224.5"/>
<text text-anchor="middle" x="1415" y="-231.5" font-family="Helvetica,sans-Serif" font-size="10.00">functional</text>
</a>
</g>
</g>
<!-- Node7&#45;&gt;Node10 -->
<g id="edge11" class="edge">
<title>Node7&#45;&gt;Node10</title>
<path fill="none" stroke="midnightblue" d="M1365.48,-280.32C1374.2,-272.34 1387.34,-260.31 1397.9,-250.65"/>
<polygon fill="midnightblue" stroke="midnightblue" points="1400.33,-253.17 1405.35,-243.83 1395.61,-248 1400.33,-253.17"/>
</g>
<!-- Node11 -->
<g id="node11" class="node">
<title>Node11</title>
<g id="a_node11"><a xlink:title=" ">
<polygon fill="white" stroke="#bfbfbf" points="1465.5,-224.5 1465.5,-243.5 1510.5,-243.5 1510.5,-224.5 1465.5,-224.5"/>
<text text-anchor="middle" x="1488" y="-231.5" font-family="Helvetica,sans-Serif" font-size="10.00">utility</text>
</a>
</g>
</g>
<!-- Node7&#45;&gt;Node11 -->
<g id="edge12" class="edge">
<title>Node7&#45;&gt;Node11</title>
<path fill="none" stroke="midnightblue" d="M1376.92,-280.44C1398.74,-271.52 1433.15,-257.44 1457.89,-247.32"/>
<polygon fill="midnightblue" stroke="midnightblue" points="1459.25,-250.54 1467.18,-243.52 1456.6,-244.06 1459.25,-250.54"/>
</g>
<!-- Node12 -->
<g id="node12" class="node">
<title>Node12</title>
<g id="a_node12"><a xlink:href="RayError_8hpp.html" target="_top" xlink:title=" ">
<polygon fill="white" stroke="black" points="1229.5,-224.5 1229.5,-243.5 1364.5,-243.5 1364.5,-224.5 1229.5,-224.5"/>
<text text-anchor="middle" x="1297" y="-231.5" font-family="Helvetica,sans-Serif" font-size="10.00">Exceptions/RayError.hpp</text>
</a>
</g>
</g>
<!-- Node7&#45;&gt;Node12 -->
<g id="edge14" class="edge">
<title>Node7&#45;&gt;Node12</title>
<path fill="none" stroke="midnightblue" d="M1346.52,-280.32C1337.8,-272.34 1324.66,-260.31 1314.1,-250.65"/>
<polygon fill="midnightblue" stroke="midnightblue" points="1316.39,-248 1306.65,-243.83 1311.67,-253.17 1316.39,-248"/>
</g>
<!-- Node14 -->
<g id="node14" class="node">
<title>Node14</title>
<g id="a_node14"><a xlink:title=" ">
<polygon fill="white" stroke="#bfbfbf" points="799.5,-112.5 799.5,-131.5 846.5,-131.5 846.5,-112.5 799.5,-112.5"/>
<text text-anchor="middle" x="823" y="-119.5" font-family="Helvetica,sans-Serif" font-size="10.00">vector</text>
</a>
</g>
</g>
<!-- Node7&#45;&gt;Node14 -->
<g id="edge17" class="edge">
<title>Node7&#45;&gt;Node14</title>
<path fill="none" stroke="midnightblue" d="M1309.3,-287.06C1224.34,-282.9 1048.28,-271.21 994,-244 952.13,-223.01 959.17,-195.14 921,-168 901.16,-153.89 876.19,-142.51 856.42,-134.72"/>
<polygon fill="midnightblue" stroke="midnightblue" points="857.49,-131.38 846.9,-131.08 854.99,-137.92 857.49,-131.38"/>
</g>
<!-- Node15 -->
<g id="node15" class="node">
<title>Node15</title>
<g id="a_node15"><a xlink:title=" ">
<polygon fill="white" stroke="#bfbfbf" points="1529,-224.5 1529,-243.5 1593,-243.5 1593,-224.5 1529,-224.5"/>
<text text-anchor="middle" x="1561" y="-231.5" font-family="Helvetica,sans-Serif" font-size="10.00">algorithm</text>
</a>
</g>
</g>
<!-- Node7&#45;&gt;Node15 -->
<g id="edge18" class="edge">
<title>Node7&#45;&gt;Node15</title>
<path fill="none" stroke="midnightblue" d="M1388.48,-280.44C1423.72,-271.16 1480.1,-256.31 1518.76,-246.13"/>
<polygon fill="midnightblue" stroke="midnightblue" points="1519.89,-249.45 1528.67,-243.52 1518.11,-242.68 1519.89,-249.45"/>
</g>
<!-- Node7&#45;&gt;Node16 -->
<g id="edge20" class="edge">
<title>Node7&#45;&gt;Node16</title>
<path fill="none" stroke="midnightblue" d="M1402.51,-282.11C1457.97,-273.75 1553.43,-258.91 1635,-244 1636.25,-243.77 1637.52,-243.54 1638.8,-243.29"/>
<polygon fill="midnightblue" stroke="midnightblue" points="1639.59,-246.71 1648.74,-241.36 1638.25,-239.84 1639.59,-246.71"/>
</g>
<!-- Node12&#45;&gt;Node5 -->
<g id="edge16" class="edge">
<title>Node12&#45;&gt;Node5</title>
<path fill="none" stroke="midnightblue" d="M1268,-224.44C1234.85,-214.66 1180.72,-198.69 1146.26,-188.52"/>
<polygon fill="midnightblue" stroke="midnightblue" points="1146.82,-185.04 1136.24,-185.56 1144.84,-191.75 1146.82,-185.04"/>
</g>
<!-- Node13 -->
<g id="node13" class="node">
<title>Node13</title>
<g id="a_node13"><a xlink:title=" ">
<polygon fill="white" stroke="#bfbfbf" points="1264.5,-168.5 1264.5,-187.5 1329.5,-187.5 1329.5,-168.5 1264.5,-168.5"/>
<text text-anchor="middle" x="1297" y="-175.5" font-family="Helvetica,sans-Serif" font-size="10.00">stdexcept</text>
</a>
</g>
</g>
<!-- Node12&#45;&gt;Node13 -->
<g id="edge15" class="edge">
<title>Node12&#45;&gt;Node13</title>
<path fill="none" stroke="midnightblue" d="M1297,-224.08C1297,-217.01 1297,-206.86 1297,-197.99"/>
<polygon fill="midnightblue" stroke="midnightblue" points="1300.5,-197.75 1297,-187.75 1293.5,-197.75 1300.5,-197.75"/>
</g>
<!-- Node17&#45;&gt;Node4 -->
<g id="edge22" class="edge">
<title>Node17&#45;&gt;Node4</title>
<path fill="none" stroke="midnightblue" d="M709.7,-397.6C516.65,-388.26 38,-358.33 38,-291 38,-291 38,-291 38,-121 38,-83.44 58.68,-73.33 92,-56 181.83,-9.29 497.82,-9.01 606.2,-10.35"/>
<polygon fill="midnightblue" stroke="midnightblue" points="606.27,-13.85 616.32,-10.49 606.37,-6.85 606.27,-13.85"/>
</g>
<!-- Node18 -->
<g id="node18" class="node">
<title>Node18</title>
<g id="a_node18"><a xlink:href="ADrawable2D_8hpp.html" target="_top" xlink:title=" ">
<polygon fill="white" stroke="black" points="584.5,-336.5 584.5,-355.5 743.5,-355.5 743.5,-336.5 584.5,-336.5"/>
<text text-anchor="middle" x="664" y="-343.5" font-family="Helvetica,sans-Serif" font-size="10.00">Drawables/ADrawable2D.hpp</text>
</a>
</g>
</g>
<!-- Node17&#45;&gt;Node18 -->
<g id="edge23" class="edge">
<title>Node17&#45;&gt;Node18</title>
<path fill="none" stroke="midnightblue" d="M769.19,-392.44C748.71,-383.6 716.52,-369.69 693.14,-359.59"/>
<polygon fill="midnightblue" stroke="midnightblue" points="694.28,-356.27 683.71,-355.52 691.51,-362.7 694.28,-356.27"/>
</g>
<!-- Node18&#45;&gt;Node4 -->
<g id="edge24" class="edge">
<title>Node18&#45;&gt;Node4</title>
<path fill="none" stroke="midnightblue" d="M584.39,-338.29C423.76,-323.67 76,-286.12 76,-235 76,-235 76,-235 76,-121 76,-84.82 93.35,-73.53 125,-56 207.74,-10.18 502.11,-9.22 606.2,-10.38"/>
<polygon fill="midnightblue" stroke="midnightblue" points="606.2,-13.88 616.24,-10.51 606.28,-6.88 606.2,-13.88"/>
</g>
<!-- Node19 -->
<g id="node19" class="node">
<title>Node19</title>
<g id="a_node19"><a xlink:href="lib_2Ray_2sources_2Vector_2Vector2_8hpp.html" target="_top" xlink:title=" ">
<polygon fill="white" stroke="black" points="628,-112.5 628,-131.5 736,-131.5 736,-112.5 628,-112.5"/>
<text text-anchor="middle" x="682" y="-119.5" font-family="Helvetica,sans-Serif" font-size="10.00">Vector/Vector2.hpp</text>
</a>
</g>
</g>
<!-- Node18&#45;&gt;Node19 -->
<g id="edge25" class="edge">
<title>Node18&#45;&gt;Node19</title>
<path fill="none" stroke="midnightblue" d="M664.71,-336.3C667.35,-303.63 676.74,-187.87 680.46,-141.96"/>
<polygon fill="midnightblue" stroke="midnightblue" points="683.96,-142.13 681.28,-131.88 676.98,-141.57 683.96,-142.13"/>
</g>
<!-- Node20 -->
<g id="node20" class="node">
<title>Node20</title>
<g id="a_node20"><a xlink:href="IDrawable_8hpp.html" target="_top" xlink:title=" ">
<polygon fill="white" stroke="black" points="478,-280.5 478,-299.5 620,-299.5 620,-280.5 478,-280.5"/>
<text text-anchor="middle" x="549" y="-287.5" font-family="Helvetica,sans-Serif" font-size="10.00">Drawables/IDrawable.hpp</text>
</a>
</g>
</g>
<!-- Node18&#45;&gt;Node20 -->
<g id="edge27" class="edge">
<title>Node18&#45;&gt;Node20</title>
<path fill="none" stroke="midnightblue" d="M645.78,-336.44C627.1,-327.68 597.84,-313.94 576.38,-303.86"/>
<polygon fill="midnightblue" stroke="midnightblue" points="577.68,-300.6 567.14,-299.52 574.7,-306.93 577.68,-300.6"/>
</g>
<!-- Node31 -->
<g id="node31" class="node">
<title>Node31</title>
<g id="a_node31"><a xlink:href="Color_8hpp.html" target="_top" xlink:title=" ">
<polygon fill="white" stroke="black" points="850,-168.5 850,-187.5 912,-187.5 912,-168.5 850,-168.5"/>
<text text-anchor="middle" x="881" y="-175.5" font-family="Helvetica,sans-Serif" font-size="10.00">Color.hpp</text>
</a>
</g>
</g>
<!-- Node18&#45;&gt;Node31 -->
<g id="edge54" class="edge">
<title>Node18&#45;&gt;Node31</title>
<path fill="none" stroke="midnightblue" d="M675.36,-336.31C710.44,-309.47 817.35,-227.69 861.55,-193.88"/>
<polygon fill="midnightblue" stroke="midnightblue" points="863.94,-196.46 869.75,-187.61 859.68,-190.9 863.94,-196.46"/>
</g>
<!-- Node19&#45;&gt;Node4 -->
<g id="edge26" class="edge">
<title>Node19&#45;&gt;Node4</title>
<path fill="none" stroke="midnightblue" d="M682.64,-112.26C683.26,-99.46 683.23,-75.07 676,-56 672.07,-45.62 665.04,-35.52 658.49,-27.53"/>
<polygon fill="midnightblue" stroke="midnightblue" points="660.93,-25 651.72,-19.77 655.65,-29.6 660.93,-25"/>
</g>
<!-- Node21 -->
<g id="node21" class="node">
<title>Node21</title>
<g id="a_node21"><a xlink:href="Window_8hpp.html" target="_top" xlink:title=" ">
<polygon fill="white" stroke="black" points="503,-224.5 503,-243.5 579,-243.5 579,-224.5 503,-224.5"/>
<text text-anchor="middle" x="541" y="-231.5" font-family="Helvetica,sans-Serif" font-size="10.00">Window.hpp</text>
</a>
</g>
</g>
<!-- Node20&#45;&gt;Node21 -->
<g id="edge28" class="edge">
<title>Node20&#45;&gt;Node21</title>
<path fill="none" stroke="midnightblue" d="M547.68,-280.08C546.62,-272.93 545.09,-262.64 543.77,-253.69"/>
<polygon fill="midnightblue" stroke="midnightblue" points="547.22,-253.13 542.3,-243.75 540.3,-254.16 547.22,-253.13"/>
</g>
<!-- Node21&#45;&gt;Node4 -->
<g id="edge29" class="edge">
<title>Node21&#45;&gt;Node4</title>
<path fill="none" stroke="midnightblue" d="M512.24,-224.48C481.62,-213.84 439.79,-193.87 457,-168 479.96,-133.5 508.11,-154.34 543,-132 573.99,-112.15 580.74,-104.52 604,-76 616.06,-61.21 626.98,-42.32 634.17,-28.71"/>
<polygon fill="midnightblue" stroke="midnightblue" points="637.45,-30 638.9,-19.5 631.22,-26.8 637.45,-30"/>
</g>
<!-- Node21&#45;&gt;Node5 -->
<g id="edge30" class="edge">
<title>Node21&#45;&gt;Node5</title>
<path fill="none" stroke="midnightblue" d="M579.04,-229.42C685.15,-219.41 983.09,-191.34 1081.79,-182.04"/>
<polygon fill="midnightblue" stroke="midnightblue" points="1082.14,-185.52 1091.76,-181.1 1081.48,-178.55 1082.14,-185.52"/>
</g>
<!-- Node21&#45;&gt;Node19 -->
<g id="edge32" class="edge">
<title>Node21&#45;&gt;Node19</title>
<path fill="none" stroke="midnightblue" d="M554.23,-224.42C567.56,-215.63 588.61,-201.4 606,-188 626.89,-171.91 649.74,-152.03 664.87,-138.52"/>
<polygon fill="midnightblue" stroke="midnightblue" points="667.33,-141.03 672.43,-131.74 662.65,-135.82 667.33,-141.03"/>
</g>
<!-- Node22 -->
<g id="node22" class="node">
<title>Node22</title>
<g id="a_node22"><a xlink:title=" ">
<polygon fill="white" stroke="#bfbfbf" points="354,-168.5 354,-187.5 410,-187.5 410,-168.5 354,-168.5"/>
<text text-anchor="middle" x="382" y="-175.5" font-family="Helvetica,sans-Serif" font-size="10.00">optional</text>
</a>
</g>
</g>
<!-- Node21&#45;&gt;Node22 -->
<g id="edge31" class="edge">
<title>Node21&#45;&gt;Node22</title>
<path fill="none" stroke="midnightblue" d="M515.81,-224.44C489.06,-215.36 446.6,-200.94 416.69,-190.78"/>
<polygon fill="midnightblue" stroke="midnightblue" points="417.67,-187.42 407.08,-187.52 415.42,-194.05 417.67,-187.42"/>
</g>
<!-- Node23 -->
<g id="node23" class="node">
<title>Node23</title>
<g id="a_node23"><a xlink:href="lib_2Ray_2sources_2Vector_2Vector3_8hpp.html" target="_top" xlink:title=" ">
<polygon fill="white" stroke="black" points="122,-112.5 122,-131.5 230,-131.5 230,-112.5 122,-112.5"/>
<text text-anchor="middle" x="176" y="-119.5" font-family="Helvetica,sans-Serif" font-size="10.00">Vector/Vector3.hpp</text>
</a>
</g>
</g>
<!-- Node21&#45;&gt;Node23 -->
<g id="edge33" class="edge">
<title>Node21&#45;&gt;Node23</title>
<path fill="none" stroke="midnightblue" d="M502.78,-233.12C422.62,-232.59 240.56,-226.99 195,-188 181.76,-176.67 177.48,-156.67 176.23,-141.84"/>
<polygon fill="midnightblue" stroke="midnightblue" points="179.72,-141.56 175.76,-131.73 172.73,-141.88 179.72,-141.56"/>
</g>
<!-- Node24 -->
<g id="node24" class="node">
<title>Node24</title>
<g id="a_node24"><a xlink:href="Keyboard_8hpp.html" target="_top" xlink:title=" ">
<polygon fill="white" stroke="black" points="692,-168.5 692,-187.5 832,-187.5 832,-168.5 692,-168.5"/>
<text text-anchor="middle" x="762" y="-175.5" font-family="Helvetica,sans-Serif" font-size="10.00">Controllers/Keyboard.hpp</text>
</a>
</g>
</g>
<!-- Node21&#45;&gt;Node24 -->
<g id="edge35" class="edge">
<title>Node21&#45;&gt;Node24</title>
<path fill="none" stroke="midnightblue" d="M576.02,-224.44C614.25,-215.1 675.57,-200.12 717.26,-189.93"/>
<polygon fill="midnightblue" stroke="midnightblue" points="718.26,-193.29 727.15,-187.52 716.6,-186.49 718.26,-193.29"/>
</g>
<!-- Node25 -->
<g id="node25" class="node">
<title>Node25</title>
<g id="a_node25"><a xlink:href="Camera2D_8hpp.html" target="_top" xlink:title=" ">
<polygon fill="white" stroke="black" points="466.5,-168.5 466.5,-187.5 597.5,-187.5 597.5,-168.5 466.5,-168.5"/>
<text text-anchor="middle" x="532" y="-175.5" font-family="Helvetica,sans-Serif" font-size="10.00">Camera/Camera2D.hpp</text>
</a>
</g>
</g>
<!-- Node21&#45;&gt;Node25 -->
<g id="edge38" class="edge">
<title>Node21&#45;&gt;Node25</title>
<path fill="none" stroke="midnightblue" d="M539.51,-224.08C538.32,-216.93 536.61,-206.64 535.12,-197.69"/>
<polygon fill="midnightblue" stroke="midnightblue" points="538.55,-197.04 533.46,-187.75 531.65,-198.19 538.55,-197.04"/>
</g>
<!-- Node28 -->
<g id="node28" class="node">
<title>Node28</title>
<g id="a_node28"><a xlink:href="Camera3D_8hpp.html" target="_top" xlink:title=" ">
<polygon fill="white" stroke="black" points="204.5,-168.5 204.5,-187.5 335.5,-187.5 335.5,-168.5 204.5,-168.5"/>
<text text-anchor="middle" x="270" y="-175.5" font-family="Helvetica,sans-Serif" font-size="10.00">Camera/Camera3D.hpp</text>
</a>
</g>
</g>
<!-- Node21&#45;&gt;Node28 -->
<g id="edge44" class="edge">
<title>Node21&#45;&gt;Node28</title>
<path fill="none" stroke="midnightblue" d="M502.75,-225.38C455.73,-216.01 375.71,-200.06 322.84,-189.53"/>
<polygon fill="midnightblue" stroke="midnightblue" points="323.47,-186.09 312.98,-187.56 322.1,-192.95 323.47,-186.09"/>
</g>
<!-- Node21&#45;&gt;Node31 -->
<g id="edge52" class="edge">
<title>Node21&#45;&gt;Node31</title>
<path fill="none" stroke="midnightblue" d="M579.03,-228.19C634.29,-221.01 740.19,-206.52 839.69,-188.14"/>
<polygon fill="midnightblue" stroke="midnightblue" points="840.41,-191.56 849.6,-186.29 839.13,-184.68 840.41,-191.56"/>
</g>
<!-- Node23&#45;&gt;Node4 -->
<g id="edge34" class="edge">
<title>Node23&#45;&gt;Node4</title>
<path fill="none" stroke="midnightblue" d="M163.13,-112.4C145.12,-99.35 116.37,-74.16 133,-56 164.84,-21.23 494.17,-13.18 606.05,-11.45"/>
<polygon fill="midnightblue" stroke="midnightblue" points="606.23,-14.95 616.18,-11.3 606.13,-7.95 606.23,-14.95"/>
</g>
<!-- Node24&#45;&gt;Node4 -->
<g id="edge36" class="edge">
<title>Node24&#45;&gt;Node4</title>
<path fill="none" stroke="midnightblue" d="M761.07,-168.08C759.4,-155.06 755.1,-130.4 745,-112 724.9,-75.39 687.4,-43.43 663.9,-25.72"/>
<polygon fill="midnightblue" stroke="midnightblue" points="665.78,-22.75 655.64,-19.65 661.63,-28.39 665.78,-22.75"/>
</g>
<!-- Node24&#45;&gt;Node14 -->
<g id="edge37" class="edge">
<title>Node24&#45;&gt;Node14</title>
<path fill="none" stroke="midnightblue" d="M771.8,-168.32C780.82,-160.34 794.41,-148.31 805.32,-138.65"/>
<polygon fill="midnightblue" stroke="midnightblue" points="807.85,-141.08 813.02,-131.83 803.21,-135.84 807.85,-141.08"/>
</g>
<!-- Node25&#45;&gt;Node4 -->
<g id="edge39" class="edge">
<title>Node25&#45;&gt;Node4</title>
<path fill="none" stroke="midnightblue" d="M546.51,-168.3C570.45,-153.04 617.62,-118.94 638,-76 644.82,-61.62 645.66,-43.43 645.03,-29.95"/>
<polygon fill="midnightblue" stroke="midnightblue" points="648.51,-29.62 644.25,-19.92 641.53,-30.16 648.51,-29.62"/>
</g>
<!-- Node25&#45;&gt;Node19 -->
<g id="edge40" class="edge">
<title>Node25&#45;&gt;Node19</title>
<path fill="none" stroke="midnightblue" d="M555.77,-168.44C580.89,-159.4 620.71,-145.06 648.9,-134.92"/>
<polygon fill="midnightblue" stroke="midnightblue" points="650.12,-138.2 658.34,-131.52 647.75,-131.61 650.12,-138.2"/>
</g>
<!-- Node26 -->
<g id="node26" class="node">
<title>Node26</title>
<g id="a_node26"><a xlink:href="ICamera_8hpp.html" target="_top" xlink:title=" ">
<polygon fill="white" stroke="black" points="414,-112.5 414,-131.5 534,-131.5 534,-112.5 414,-112.5"/>
<text text-anchor="middle" x="474" y="-119.5" font-family="Helvetica,sans-Serif" font-size="10.00">Camera/ICamera.hpp</text>
</a>
</g>
</g>
<!-- Node25&#45;&gt;Node26 -->
<g id="edge41" class="edge">
<title>Node25&#45;&gt;Node26</title>
<path fill="none" stroke="midnightblue" d="M522.68,-168.32C514.11,-160.34 501.19,-148.31 490.81,-138.65"/>
<polygon fill="midnightblue" stroke="midnightblue" points="493.19,-136.09 483.49,-131.83 488.42,-141.21 493.19,-136.09"/>
</g>
<!-- Node27 -->
<g id="node27" class="node">
<title>Node27</title>
<g id="a_node27"><a xlink:href="Matrix_8hpp.html" target="_top" xlink:title=" ">
<polygon fill="white" stroke="black" points="526.5,-56.5 526.5,-75.5 595.5,-75.5 595.5,-56.5 526.5,-56.5"/>
<text text-anchor="middle" x="561" y="-63.5" font-family="Helvetica,sans-Serif" font-size="10.00">Matrix.hpp</text>
</a>
</g>
</g>
<!-- Node26&#45;&gt;Node27 -->
<g id="edge42" class="edge">
<title>Node26&#45;&gt;Node27</title>
<path fill="none" stroke="midnightblue" d="M487.98,-112.32C501.55,-103.9 522.38,-90.97 538.32,-81.07"/>
<polygon fill="midnightblue" stroke="midnightblue" points="540.41,-83.9 547.06,-75.65 536.71,-77.95 540.41,-83.9"/>
</g>
<!-- Node27&#45;&gt;Node4 -->
<g id="edge43" class="edge">
<title>Node27&#45;&gt;Node4</title>
<path fill="none" stroke="midnightblue" d="M574.17,-56.32C586.85,-47.98 606.23,-35.21 621.21,-25.35"/>
<polygon fill="midnightblue" stroke="midnightblue" points="623.43,-28.08 629.86,-19.65 619.58,-22.23 623.43,-28.08"/>
</g>
<!-- Node28&#45;&gt;Node4 -->
<g id="edge45" class="edge">
<title>Node28&#45;&gt;Node4</title>
<path fill="none" stroke="midnightblue" d="M271.72,-168.19C276.67,-145.38 293.22,-84.25 333,-56 376.32,-25.24 534.1,-15.22 606.38,-12.2"/>
<polygon fill="midnightblue" stroke="midnightblue" points="606.55,-15.7 616.4,-11.8 606.27,-8.7 606.55,-15.7"/>
</g>
<!-- Node28&#45;&gt;Node23 -->
<g id="edge46" class="edge">
<title>Node28&#45;&gt;Node23</title>
<path fill="none" stroke="midnightblue" d="M254.9,-168.32C240.1,-159.82 217.31,-146.73 200.02,-136.8"/>
<polygon fill="midnightblue" stroke="midnightblue" points="201.48,-133.6 191.07,-131.65 197.99,-139.67 201.48,-133.6"/>
</g>
<!-- Node28&#45;&gt;Node26 -->
<g id="edge47" class="edge">
<title>Node28&#45;&gt;Node26</title>
<path fill="none" stroke="midnightblue" d="M302.32,-168.44C337.39,-159.16 393.5,-144.31 431.96,-134.13"/>
<polygon fill="midnightblue" stroke="midnightblue" points="433.06,-137.46 441.83,-131.52 431.26,-130.69 433.06,-137.46"/>
</g>
<!-- Node29 -->
<g id="node29" class="node">
<title>Node29</title>
<g id="a_node29"><a xlink:href="CameraProjection_8hpp.html" target="_top" xlink:title=" ">
<polygon fill="white" stroke="black" points="342,-56.5 342,-75.5 508,-75.5 508,-56.5 342,-56.5"/>
<text text-anchor="middle" x="425" y="-63.5" font-family="Helvetica,sans-Serif" font-size="10.00">Camera/CameraProjection.hpp</text>
</a>
</g>
</g>
<!-- Node28&#45;&gt;Node29 -->
<g id="edge48" class="edge">
<title>Node28&#45;&gt;Node29</title>
<path fill="none" stroke="midnightblue" d="M282.16,-168.37C308.65,-149.57 371.78,-104.77 404.52,-81.53"/>
<polygon fill="midnightblue" stroke="midnightblue" points="406.76,-84.23 412.89,-75.59 402.71,-78.52 406.76,-84.23"/>
</g>
<!-- Node30 -->
<g id="node30" class="node">
<title>Node30</title>
<g id="a_node30"><a xlink:href="CameraMode_8hpp.html" target="_top" xlink:title=" ">
<polygon fill="white" stroke="black" points="142,-56.5 142,-75.5 286,-75.5 286,-56.5 142,-56.5"/>
<text text-anchor="middle" x="214" y="-63.5" font-family="Helvetica,sans-Serif" font-size="10.00">Camera/CameraMode.hpp</text>
</a>
</g>
</g>
<!-- Node28&#45;&gt;Node30 -->
<g id="edge50" class="edge">
<title>Node28&#45;&gt;Node30</title>
<path fill="none" stroke="midnightblue" d="M265.96,-168.08C260.2,-155.48 249.2,-131.78 239,-112 234.23,-102.75 228.63,-92.61 223.94,-84.29"/>
<polygon fill="midnightblue" stroke="midnightblue" points="226.94,-82.5 218.95,-75.54 220.86,-85.96 226.94,-82.5"/>
</g>
<!-- Node29&#45;&gt;Node4 -->
<g id="edge49" class="edge">
<title>Node29&#45;&gt;Node4</title>
<path fill="none" stroke="midnightblue" d="M459.54,-56.44C499.61,-46.52 565.38,-30.23 606.33,-20.08"/>
<polygon fill="midnightblue" stroke="midnightblue" points="607.31,-23.45 616.18,-17.64 605.63,-16.65 607.31,-23.45"/>
</g>
<!-- Node30&#45;&gt;Node4 -->
<g id="edge51" class="edge">
<title>Node30&#45;&gt;Node4</title>
<path fill="none" stroke="midnightblue" d="M281.98,-56.44C373.85,-44.88 534.43,-24.67 606.35,-15.61"/>
<polygon fill="midnightblue" stroke="midnightblue" points="606.81,-19.08 616.3,-14.36 605.94,-12.14 606.81,-19.08"/>
</g>
<!-- Node31&#45;&gt;Node4 -->
<g id="edge53" class="edge">
<title>Node31&#45;&gt;Node4</title>
<path fill="none" stroke="midnightblue" d="M879.62,-168.34C877.04,-154.75 870.3,-128.31 855,-112 806.41,-60.19 725.77,-32.12 679.21,-19.48"/>
<polygon fill="midnightblue" stroke="midnightblue" points="680.1,-16.09 669.53,-16.94 678.32,-22.86 680.1,-16.09"/>
</g>
<!-- Node32&#45;&gt;Node4 -->
<g id="edge61" class="edge">
<title>Node32&#45;&gt;Node4</title>
<path fill="none" stroke="midnightblue" d="M1747.19,-336.24C1769.12,-319.35 1813,-279.95 1813,-235 1813,-235 1813,-235 1813,-121 1813,-58.78 1749.09,-72.17 1689,-56 1590.04,-29.37 853.63,-14.73 679.73,-11.63"/>
<polygon fill="midnightblue" stroke="midnightblue" points="679.61,-8.13 669.55,-11.45 679.49,-15.13 679.61,-8.13"/>
</g>
<!-- Node32&#45;&gt;Node7 -->
<g id="edge60" class="edge">
<title>Node32&#45;&gt;Node7</title>
<path fill="none" stroke="midnightblue" d="M1685.75,-337.44C1682.45,-336.95 1679.18,-336.47 1676,-336 1583.98,-322.51 1476.95,-307.62 1412.94,-298.8"/>
<polygon fill="midnightblue" stroke="midnightblue" points="1413.04,-295.28 1402.66,-297.39 1412.09,-302.22 1413.04,-295.28"/>
</g>
<!-- Node33 -->
<g id="node33" class="node">
<title>Node33</title>
<g id="a_node33"><a xlink:href="IAudio_8hpp.html" target="_top" xlink:title=" ">
<polygon fill="white" stroke="black" points="1647.5,-280.5 1647.5,-299.5 1746.5,-299.5 1746.5,-280.5 1647.5,-280.5"/>
<text text-anchor="middle" x="1697" y="-287.5" font-family="Helvetica,sans-Serif" font-size="10.00">Audio/IAudio.hpp</text>
</a>
</g>
</g>
<!-- Node32&#45;&gt;Node33 -->
<g id="edge58" class="edge">
<title>Node32&#45;&gt;Node33</title>
<path fill="none" stroke="midnightblue" d="M1728.73,-336.08C1723.36,-328.46 1715.48,-317.26 1708.92,-307.94"/>
<polygon fill="midnightblue" stroke="midnightblue" points="1711.78,-305.91 1703.16,-299.75 1706.05,-309.94 1711.78,-305.91"/>
</g>
<!-- Node33&#45;&gt;Node5 -->
<g id="edge59" class="edge">
<title>Node33&#45;&gt;Node5</title>
<path fill="none" stroke="midnightblue" d="M1704.57,-280.26C1715.5,-266.57 1732.85,-239.99 1718,-224 1713.08,-218.7 1270.2,-189.25 1146.04,-181.1"/>
<polygon fill="midnightblue" stroke="midnightblue" points="1146.22,-177.6 1136.01,-180.44 1145.76,-184.59 1146.22,-177.6"/>
</g>
<!-- Node34&#45;&gt;Node4 -->
<g id="edge64" class="edge">
<title>Node34&#45;&gt;Node4</title>
<path fill="none" stroke="midnightblue" d="M1657.49,-336.44C1692.67,-327.89 1741.25,-314.04 1755,-300 1776.15,-278.4 1775,-265.23 1775,-235 1775,-235 1775,-235 1775,-121 1775,-8.3 874.65,-9.13 679.87,-10.63"/>
<polygon fill="midnightblue" stroke="midnightblue" points="679.56,-7.13 669.59,-10.71 679.62,-14.13 679.56,-7.13"/>
</g>
<!-- Node34&#45;&gt;Node7 -->
<g id="edge65" class="edge">
<title>Node34&#45;&gt;Node7</title>
<path fill="none" stroke="midnightblue" d="M1577.33,-336.44C1531.25,-326.98 1457,-311.74 1407.37,-301.55"/>
<polygon fill="midnightblue" stroke="midnightblue" points="1407.98,-298.1 1397.48,-299.52 1406.57,-304.96 1407.98,-298.1"/>
</g>
<!-- Node34&#45;&gt;Node33 -->
<g id="edge63" class="edge">
<title>Node34&#45;&gt;Node33</title>
<path fill="none" stroke="midnightblue" d="M1631.53,-336.32C1643.59,-327.98 1662.03,-315.21 1676.27,-305.35"/>
<polygon fill="midnightblue" stroke="midnightblue" points="1678.27,-308.22 1684.5,-299.65 1674.28,-302.47 1678.27,-308.22"/>
</g>
<!-- Node35&#45;&gt;Node4 -->
<g id="edge67" class="edge">
<title>Node35&#45;&gt;Node4</title>
<path fill="none" stroke="midnightblue" d="M1917.04,-448.5C1912.97,-430.09 1904,-385.16 1904,-347 1904,-347 1904,-347 1904,-121 1904,-47.53 1823.66,-72.2 1752,-56 1541.09,-8.32 847.6,-9.66 679.8,-10.71"/>
<polygon fill="midnightblue" stroke="midnightblue" points="679.72,-7.21 669.74,-10.78 679.76,-14.21 679.72,-7.21"/>
</g>
</g>
</svg>
