<?xml version="1.0" encoding="UTF-8" standalone="no"?>
<!DOCTYPE svg PUBLIC "-//W3C//DTD SVG 1.1//EN"
 "http://www.w3.org/Graphics/SVG/1.1/DTD/svg11.dtd">
<!-- Generated by graphviz version 2.43.0 (0)
 -->
<!-- Title: tests/CallbackTest.cpp Pages: 1 -->
<svg width="1058pt" height="364pt"
 viewBox="0.00 0.00 1057.50 364.00" xmlns="http://www.w3.org/2000/svg" xmlns:xlink="http://www.w3.org/1999/xlink">
<g id="graph0" class="graph" transform="scale(1 1) rotate(0) translate(4 360)">
<title>tests/CallbackTest.cpp</title>
<polygon fill="white" stroke="transparent" points="-4,4 -4,-360 1053.5,-360 1053.5,4 -4,4"/>
<!-- Node1 -->
<g id="node1" class="node">
<title>Node1</title>
<g id="a_node1"><a xlink:title=" ">
<polygon fill="#bfbfbf" stroke="black" points="337,-336.5 337,-355.5 462,-355.5 462,-336.5 337,-336.5"/>
<text text-anchor="middle" x="399.5" y="-343.5" font-family="Helvetica,sans-Serif" font-size="10.00">tests/CallbackTest.cpp</text>
</a>
</g>
</g>
<!-- Node2 -->
<g id="node2" class="node">
<title>Node2</title>
<g id="a_node2"><a xlink:title=" ">
<polygon fill="white" stroke="#bfbfbf" points="0,-280.5 0,-299.5 99,-299.5 99,-280.5 0,-280.5"/>
<text text-anchor="middle" x="49.5" y="-287.5" font-family="Helvetica,sans-Serif" font-size="10.00">catch2/catch.hpp</text>
</a>
</g>
</g>
<!-- Node1&#45;&gt;Node2 -->
<g id="edge1" class="edge">
<title>Node1&#45;&gt;Node2</title>
<path fill="none" stroke="midnightblue" d="M344.04,-336.44C280,-326.56 175.06,-310.37 109.25,-300.22"/>
<polygon fill="midnightblue" stroke="midnightblue" points="109.46,-296.71 99.04,-298.64 108.39,-303.63 109.46,-296.71"/>
</g>
<!-- Node3 -->
<g id="node3" class="node">
<title>Node3</title>
<g id="a_node3"><a xlink:title=" ">
<polygon fill="white" stroke="#bfbfbf" points="100,-0.5 100,-19.5 165,-19.5 165,-0.5 100,-0.5"/>
<text text-anchor="middle" x="132.5" y="-7.5" font-family="Helvetica,sans-Serif" font-size="10.00">stdexcept</text>
</a>
</g>
</g>
<!-- Node1&#45;&gt;Node3 -->
<g id="edge2" class="edge">
<title>Node1&#45;&gt;Node3</title>
<path fill="none" stroke="midnightblue" d="M354.58,-336.48C277.33,-320.54 127.5,-283.39 127.5,-235 127.5,-235 127.5,-235 127.5,-121 127.5,-88.91 129.65,-51.62 131.13,-29.74"/>
<polygon fill="midnightblue" stroke="midnightblue" points="134.64,-29.77 131.85,-19.55 127.65,-29.28 134.64,-29.77"/>
</g>
<!-- Node4 -->
<g id="node4" class="node">
<title>Node4</title>
<g id="a_node4"><a xlink:href="Wal_8hpp.html" target="_top" xlink:title=" ">
<polygon fill="white" stroke="black" points="457.5,-280.5 457.5,-299.5 513.5,-299.5 513.5,-280.5 457.5,-280.5"/>
<text text-anchor="middle" x="485.5" y="-287.5" font-family="Helvetica,sans-Serif" font-size="10.00">Wal.hpp</text>
</a>
</g>
</g>
<!-- Node1&#45;&gt;Node4 -->
<g id="edge3" class="edge">
<title>Node1&#45;&gt;Node4</title>
<path fill="none" stroke="midnightblue" d="M413.32,-336.32C426.73,-327.9 447.32,-314.97 463.09,-305.07"/>
<polygon fill="midnightblue" stroke="midnightblue" points="465.11,-307.94 471.72,-299.65 461.39,-302.01 465.11,-307.94"/>
</g>
<!-- Node13 -->
<g id="node13" class="node">
<title>Node13</title>
<g id="a_node13"><a xlink:href="Entity_8hpp.html" target="_top" xlink:title=" ">
<polygon fill="white" stroke="black" points="480.5,-112.5 480.5,-131.5 576.5,-131.5 576.5,-112.5 480.5,-112.5"/>
<text text-anchor="middle" x="528.5" y="-119.5" font-family="Helvetica,sans-Serif" font-size="10.00">Entity/Entity.hpp</text>
</a>
</g>
</g>
<!-- Node1&#45;&gt;Node13 -->
<g id="edge45" class="edge">
<title>Node1&#45;&gt;Node13</title>
<path fill="none" stroke="midnightblue" d="M400.21,-336.29C402.84,-308.76 414.24,-222.24 456.5,-168 467.28,-154.17 483.58,-143.48 497.95,-135.99"/>
<polygon fill="midnightblue" stroke="midnightblue" points="499.6,-139.08 507.04,-131.53 496.52,-132.8 499.6,-139.08"/>
</g>
<!-- Node24 -->
<g id="node24" class="node">
<title>Node24</title>
<g id="a_node24"><a xlink:href="Callback_8hpp.html" target="_top" xlink:title=" ">
<polygon fill="white" stroke="black" points="753.5,-168.5 753.5,-187.5 871.5,-187.5 871.5,-168.5 753.5,-168.5"/>
<text text-anchor="middle" x="812.5" y="-175.5" font-family="Helvetica,sans-Serif" font-size="10.00">Models/Callback.hpp</text>
</a>
</g>
</g>
<!-- Node1&#45;&gt;Node24 -->
<g id="edge46" class="edge">
<title>Node1&#45;&gt;Node24</title>
<path fill="none" stroke="midnightblue" d="M462.33,-340.8C540.37,-332.83 674.53,-309.89 767.5,-244 784.42,-232.01 797.05,-211.52 804.55,-196.75"/>
<polygon fill="midnightblue" stroke="midnightblue" points="807.76,-198.14 808.92,-187.61 801.45,-195.12 807.76,-198.14"/>
</g>
<!-- Node25 -->
<g id="node25" class="node">
<title>Node25</title>
<g id="a_node25"><a xlink:href="Scene_8hpp.html" target="_top" xlink:title=" ">
<polygon fill="white" stroke="black" points="830,-224.5 830,-243.5 929,-243.5 929,-224.5 830,-224.5"/>
<text text-anchor="middle" x="879.5" y="-231.5" font-family="Helvetica,sans-Serif" font-size="10.00">Scene/Scene.hpp</text>
</a>
</g>
</g>
<!-- Node1&#45;&gt;Node25 -->
<g id="edge44" class="edge">
<title>Node1&#45;&gt;Node25</title>
<path fill="none" stroke="midnightblue" d="M462.16,-343.34C562.64,-339.84 754.68,-329.41 815.5,-300 837.7,-289.27 856.57,-267.55 867.95,-252.17"/>
<polygon fill="midnightblue" stroke="midnightblue" points="871.11,-253.76 874.03,-243.58 865.39,-249.72 871.11,-253.76"/>
</g>
<!-- Node5 -->
<g id="node5" class="node">
<title>Node5</title>
<g id="a_node5"><a xlink:title=" ">
<polygon fill="white" stroke="#bfbfbf" points="767,-112.5 767,-131.5 812,-131.5 812,-112.5 767,-112.5"/>
<text text-anchor="middle" x="789.5" y="-119.5" font-family="Helvetica,sans-Serif" font-size="10.00">utility</text>
</a>
</g>
</g>
<!-- Node4&#45;&gt;Node5 -->
<g id="edge4" class="edge">
<title>Node4&#45;&gt;Node5</title>
<path fill="none" stroke="midnightblue" d="M510.53,-280.41C534.48,-271.96 571.45,-258.26 602.5,-244 650.21,-222.09 662.56,-216.73 706.5,-188 730.24,-172.47 755.66,-151.92 772.02,-138.12"/>
<polygon fill="midnightblue" stroke="midnightblue" points="774.35,-140.73 779.69,-131.58 769.81,-135.41 774.35,-140.73"/>
</g>
<!-- Node6 -->
<g id="node6" class="node">
<title>Node6</title>
<g id="a_node6"><a xlink:title=" ">
<polygon fill="white" stroke="#bfbfbf" points="988,-0.5 988,-19.5 1035,-19.5 1035,-0.5 988,-0.5"/>
<text text-anchor="middle" x="1011.5" y="-7.5" font-family="Helvetica,sans-Serif" font-size="10.00">vector</text>
</a>
</g>
</g>
<!-- Node4&#45;&gt;Node6 -->
<g id="edge5" class="edge">
<title>Node4&#45;&gt;Node6</title>
<path fill="none" stroke="midnightblue" d="M513.86,-289.57C628.22,-291.12 1049.5,-289.36 1049.5,-179 1049.5,-179 1049.5,-179 1049.5,-121 1049.5,-86.81 1032.9,-49.76 1021.64,-28.57"/>
<polygon fill="midnightblue" stroke="midnightblue" points="1024.68,-26.83 1016.78,-19.77 1018.55,-30.22 1024.68,-26.83"/>
</g>
<!-- Node7 -->
<g id="node7" class="node">
<title>Node7</title>
<g id="a_node7"><a xlink:title=" ">
<polygon fill="white" stroke="#bfbfbf" points="460.5,-0.5 460.5,-19.5 504.5,-19.5 504.5,-0.5 460.5,-0.5"/>
<text text-anchor="middle" x="482.5" y="-7.5" font-family="Helvetica,sans-Serif" font-size="10.00">string</text>
</a>
</g>
</g>
<!-- Node4&#45;&gt;Node7 -->
<g id="edge6" class="edge">
<title>Node4&#45;&gt;Node7</title>
<path fill="none" stroke="midnightblue" d="M457.48,-284.34C408.74,-274.47 313.5,-246.52 313.5,-179 313.5,-179 313.5,-179 313.5,-121 313.5,-90.9 311.29,-77.36 332.5,-56 363.79,-24.49 416.21,-14.87 450.06,-12.03"/>
<polygon fill="midnightblue" stroke="midnightblue" points="450.61,-15.5 460.35,-11.33 450.13,-8.52 450.61,-15.5"/>
</g>
<!-- Node8 -->
<g id="node8" class="node">
<title>Node8</title>
<g id="a_node8"><a xlink:title=" ">
<polygon fill="white" stroke="#bfbfbf" points="341.5,-56.5 341.5,-75.5 399.5,-75.5 399.5,-56.5 341.5,-56.5"/>
<text text-anchor="middle" x="370.5" y="-63.5" font-family="Helvetica,sans-Serif" font-size="10.00">memory</text>
</a>
</g>
</g>
<!-- Node4&#45;&gt;Node8 -->
<g id="edge7" class="edge">
<title>Node4&#45;&gt;Node8</title>
<path fill="none" stroke="midnightblue" d="M480.12,-280.49C474.52,-271.53 465.59,-256.95 458.5,-244 427.26,-186.94 394.03,-117.33 378.89,-85.04"/>
<polygon fill="midnightblue" stroke="midnightblue" points="381.88,-83.18 374.48,-75.6 375.54,-86.14 381.88,-83.18"/>
</g>
<!-- Node9 -->
<g id="node9" class="node">
<title>Node9</title>
<g id="a_node9"><a xlink:title=" ">
<polygon fill="white" stroke="#bfbfbf" points="418,-56.5 418,-75.5 475,-75.5 475,-56.5 418,-56.5"/>
<text text-anchor="middle" x="446.5" y="-63.5" font-family="Helvetica,sans-Serif" font-size="10.00">typeinfo</text>
</a>
</g>
</g>
<!-- Node4&#45;&gt;Node9 -->
<g id="edge8" class="edge">
<title>Node4&#45;&gt;Node9</title>
<path fill="none" stroke="midnightblue" d="M481.41,-280.21C477.39,-271.26 471.31,-256.91 467.5,-244 451.03,-188.23 447.42,-118.96 446.67,-86.06"/>
<polygon fill="midnightblue" stroke="midnightblue" points="450.16,-85.62 446.5,-75.68 443.16,-85.73 450.16,-85.62"/>
</g>
<!-- Node10 -->
<g id="node10" class="node">
<title>Node10</title>
<g id="a_node10"><a xlink:href="WalError_8hpp.html" target="_top" xlink:title=" ">
<polygon fill="white" stroke="black" points="156,-56.5 156,-75.5 285,-75.5 285,-56.5 156,-56.5"/>
<text text-anchor="middle" x="220.5" y="-63.5" font-family="Helvetica,sans-Serif" font-size="10.00">Exception/WalError.hpp</text>
</a>
</g>
</g>
<!-- Node4&#45;&gt;Node10 -->
<g id="edge9" class="edge">
<title>Node4&#45;&gt;Node10</title>
<path fill="none" stroke="midnightblue" d="M457.21,-289.56C417.53,-288.85 345.08,-281.94 299.5,-244 249.32,-202.23 229.83,-122.12 223.33,-85.77"/>
<polygon fill="midnightblue" stroke="midnightblue" points="226.73,-84.9 221.65,-75.6 219.83,-86.04 226.73,-84.9"/>
</g>
<!-- Node12 -->
<g id="node12" class="node">
<title>Node12</title>
<g id="a_node12"><a xlink:href="ISystem_8hpp.html" target="_top" xlink:title=" ">
<polygon fill="white" stroke="black" points="476,-224.5 476,-243.5 593,-243.5 593,-224.5 476,-224.5"/>
<text text-anchor="middle" x="534.5" y="-231.5" font-family="Helvetica,sans-Serif" font-size="10.00">System/ISystem.hpp</text>
</a>
</g>
</g>
<!-- Node4&#45;&gt;Node12 -->
<g id="edge13" class="edge">
<title>Node4&#45;&gt;Node12</title>
<path fill="none" stroke="midnightblue" d="M493.59,-280.08C500.66,-272.3 511.09,-260.8 519.65,-251.37"/>
<polygon fill="midnightblue" stroke="midnightblue" points="522.43,-253.51 526.56,-243.75 517.25,-248.8 522.43,-253.51"/>
</g>
<!-- Node4&#45;&gt;Node24 -->
<g id="edge34" class="edge">
<title>Node4&#45;&gt;Node24</title>
<path fill="none" stroke="midnightblue" d="M513.71,-288.94C562.27,-287.78 663.74,-280.73 739.5,-244 763.46,-232.38 785.48,-210.58 798.93,-195.45"/>
<polygon fill="midnightblue" stroke="midnightblue" points="801.61,-197.7 805.48,-187.83 796.31,-193.13 801.61,-197.7"/>
</g>
<!-- Node4&#45;&gt;Node25 -->
<g id="edge38" class="edge">
<title>Node4&#45;&gt;Node25</title>
<path fill="none" stroke="midnightblue" d="M513.52,-285.16C577.11,-276.44 733.48,-255.01 819.83,-243.18"/>
<polygon fill="midnightblue" stroke="midnightblue" points="820.31,-246.65 829.74,-241.82 819.36,-239.71 820.31,-246.65"/>
</g>
<!-- Node10&#45;&gt;Node3 -->
<g id="edge11" class="edge">
<title>Node10&#45;&gt;Node3</title>
<path fill="none" stroke="midnightblue" d="M206.36,-56.32C192.63,-47.9 171.56,-34.97 155.44,-25.07"/>
<polygon fill="midnightblue" stroke="midnightblue" points="156.96,-21.9 146.6,-19.65 153.3,-27.87 156.96,-21.9"/>
</g>
<!-- Node10&#45;&gt;Node7 -->
<g id="edge12" class="edge">
<title>Node10&#45;&gt;Node7</title>
<path fill="none" stroke="midnightblue" d="M262.01,-56.44C314.33,-45.66 403.12,-27.36 450.49,-17.6"/>
<polygon fill="midnightblue" stroke="midnightblue" points="451.41,-20.98 460.5,-15.54 449.99,-14.13 451.41,-20.98"/>
</g>
<!-- Node11 -->
<g id="node11" class="node">
<title>Node11</title>
<g id="a_node11"><a xlink:title=" ">
<polygon fill="white" stroke="#bfbfbf" points="188,-0.5 188,-19.5 253,-19.5 253,-0.5 188,-0.5"/>
<text text-anchor="middle" x="220.5" y="-7.5" font-family="Helvetica,sans-Serif" font-size="10.00">exception</text>
</a>
</g>
</g>
<!-- Node10&#45;&gt;Node11 -->
<g id="edge10" class="edge">
<title>Node10&#45;&gt;Node11</title>
<path fill="none" stroke="midnightblue" d="M220.5,-56.08C220.5,-49.01 220.5,-38.86 220.5,-29.99"/>
<polygon fill="midnightblue" stroke="midnightblue" points="224,-29.75 220.5,-19.75 217,-29.75 224,-29.75"/>
</g>
<!-- Node12&#45;&gt;Node13 -->
<g id="edge14" class="edge">
<title>Node12&#45;&gt;Node13</title>
<path fill="none" stroke="midnightblue" d="M534.03,-224.37C533.06,-206.62 530.83,-165.67 529.51,-141.6"/>
<polygon fill="midnightblue" stroke="midnightblue" points="533.01,-141.39 528.97,-131.59 526.02,-141.77 533.01,-141.39"/>
</g>
<!-- Node18 -->
<g id="node18" class="node">
<title>Node18</title>
<g id="a_node18"><a xlink:href="View_8hpp.html" target="_top" xlink:title=" ">
<polygon fill="white" stroke="black" points="609.5,-168.5 609.5,-187.5 697.5,-187.5 697.5,-168.5 609.5,-168.5"/>
<text text-anchor="middle" x="653.5" y="-175.5" font-family="Helvetica,sans-Serif" font-size="10.00">View/View.hpp</text>
</a>
</g>
</g>
<!-- Node12&#45;&gt;Node18 -->
<g id="edge25" class="edge">
<title>Node12&#45;&gt;Node18</title>
<path fill="none" stroke="midnightblue" d="M553.36,-224.44C572.77,-215.64 603.23,-201.81 625.46,-191.72"/>
<polygon fill="midnightblue" stroke="midnightblue" points="627.07,-194.84 634.73,-187.52 624.18,-188.46 627.07,-194.84"/>
</g>
<!-- Node23 -->
<g id="node23" class="node">
<title>Node23</title>
<g id="a_node23"><a xlink:title=" ">
<polygon fill="white" stroke="#bfbfbf" points="465.5,-168.5 465.5,-187.5 515.5,-187.5 515.5,-168.5 465.5,-168.5"/>
<text text-anchor="middle" x="490.5" y="-175.5" font-family="Helvetica,sans-Serif" font-size="10.00">chrono</text>
</a>
</g>
</g>
<!-- Node12&#45;&gt;Node23 -->
<g id="edge33" class="edge">
<title>Node12&#45;&gt;Node23</title>
<path fill="none" stroke="midnightblue" d="M527.23,-224.08C520.96,-216.38 511.71,-205.03 504.07,-195.65"/>
<polygon fill="midnightblue" stroke="midnightblue" points="506.66,-193.29 497.63,-187.75 501.23,-197.71 506.66,-193.29"/>
</g>
<!-- Node13&#45;&gt;Node7 -->
<g id="edge15" class="edge">
<title>Node13&#45;&gt;Node7</title>
<path fill="none" stroke="midnightblue" d="M568.25,-112.43C605.68,-102.47 653.15,-83.76 632.5,-56 605.51,-19.73 550.29,-11.59 514.9,-10.34"/>
<polygon fill="midnightblue" stroke="midnightblue" points="514.67,-6.84 504.61,-10.15 514.55,-13.84 514.67,-6.84"/>
</g>
<!-- Node13&#45;&gt;Node8 -->
<g id="edge18" class="edge">
<title>Node13&#45;&gt;Node8</title>
<path fill="none" stroke="midnightblue" d="M503.46,-112.44C476.88,-103.36 434.69,-88.94 404.98,-78.78"/>
<polygon fill="midnightblue" stroke="midnightblue" points="406.01,-75.44 395.42,-75.52 403.75,-82.06 406.01,-75.44"/>
</g>
<!-- Node13&#45;&gt;Node9 -->
<g id="edge17" class="edge">
<title>Node13&#45;&gt;Node9</title>
<path fill="none" stroke="midnightblue" d="M515.33,-112.32C502.65,-103.98 483.27,-91.21 468.29,-81.35"/>
<polygon fill="midnightblue" stroke="midnightblue" points="469.92,-78.23 459.64,-75.65 466.07,-84.08 469.92,-78.23"/>
</g>
<!-- Node13&#45;&gt;Node10 -->
<g id="edge23" class="edge">
<title>Node13&#45;&gt;Node10</title>
<path fill="none" stroke="midnightblue" d="M480.38,-112.56C426.03,-103.03 337.59,-87.53 279.22,-77.3"/>
<polygon fill="midnightblue" stroke="midnightblue" points="279.5,-73.79 269.05,-75.51 278.29,-80.69 279.5,-73.79"/>
</g>
<!-- Node14 -->
<g id="node14" class="node">
<title>Node14</title>
<g id="a_node14"><a xlink:title=" ">
<polygon fill="white" stroke="#bfbfbf" points="890,-56.5 890,-75.5 983,-75.5 983,-56.5 890,-56.5"/>
<text text-anchor="middle" x="936.5" y="-63.5" font-family="Helvetica,sans-Serif" font-size="10.00">unordered_map</text>
</a>
</g>
</g>
<!-- Node13&#45;&gt;Node14 -->
<g id="edge16" class="edge">
<title>Node13&#45;&gt;Node14</title>
<path fill="none" stroke="midnightblue" d="M576.59,-113.44C579.94,-112.94 583.27,-112.46 586.5,-112 689.63,-97.37 810.16,-82.32 879.48,-73.87"/>
<polygon fill="midnightblue" stroke="midnightblue" points="880.24,-77.3 889.74,-72.62 879.39,-70.35 880.24,-77.3"/>
</g>
<!-- Node15 -->
<g id="node15" class="node">
<title>Node15</title>
<g id="a_node15"><a xlink:href="Component_8hpp.html" target="_top" xlink:title=" ">
<polygon fill="white" stroke="black" points="680,-56.5 680,-75.5 833,-75.5 833,-56.5 680,-56.5"/>
<text text-anchor="middle" x="756.5" y="-63.5" font-family="Helvetica,sans-Serif" font-size="10.00">Component/Component.hpp</text>
</a>
</g>
</g>
<!-- Node13&#45;&gt;Node15 -->
<g id="edge19" class="edge">
<title>Node13&#45;&gt;Node15</title>
<path fill="none" stroke="midnightblue" d="M564.63,-112.44C604.15,-103.08 667.6,-88.06 710.61,-77.87"/>
<polygon fill="midnightblue" stroke="midnightblue" points="711.62,-81.23 720.54,-75.52 710,-74.42 711.62,-81.23"/>
</g>
<!-- Node17 -->
<g id="node17" class="node">
<title>Node17</title>
<g id="a_node17"><a xlink:href="TypeHolder_8hpp.html" target="_top" xlink:title=" ">
<polygon fill="white" stroke="black" points="493.5,-56.5 493.5,-75.5 623.5,-75.5 623.5,-56.5 493.5,-56.5"/>
<text text-anchor="middle" x="558.5" y="-63.5" font-family="Helvetica,sans-Serif" font-size="10.00">Models/TypeHolder.hpp</text>
</a>
</g>
</g>
<!-- Node13&#45;&gt;Node17 -->
<g id="edge24" class="edge">
<title>Node13&#45;&gt;Node17</title>
<path fill="none" stroke="midnightblue" d="M533.45,-112.08C537.6,-104.61 543.65,-93.72 548.77,-84.52"/>
<polygon fill="midnightblue" stroke="midnightblue" points="551.84,-86.19 553.64,-75.75 545.72,-82.79 551.84,-86.19"/>
</g>
<!-- Node15&#45;&gt;Node6 -->
<g id="edge20" class="edge">
<title>Node15&#45;&gt;Node6</title>
<path fill="none" stroke="midnightblue" d="M796.91,-56.44C846.91,-45.85 931.15,-28.01 977.83,-18.13"/>
<polygon fill="midnightblue" stroke="midnightblue" points="978.68,-21.53 987.74,-16.03 977.23,-14.68 978.68,-21.53"/>
</g>
<!-- Node15&#45;&gt;Node7 -->
<g id="edge21" class="edge">
<title>Node15&#45;&gt;Node7</title>
<path fill="none" stroke="midnightblue" d="M713.08,-56.44C657.97,-45.58 564.17,-27.09 514.91,-17.39"/>
<polygon fill="midnightblue" stroke="midnightblue" points="515.3,-13.9 504.81,-15.4 513.95,-20.77 515.3,-13.9"/>
</g>
<!-- Node16 -->
<g id="node16" class="node">
<title>Node16</title>
<g id="a_node16"><a xlink:title=" ">
<polygon fill="white" stroke="#bfbfbf" points="776,-0.5 776,-19.5 841,-19.5 841,-0.5 776,-0.5"/>
<text text-anchor="middle" x="808.5" y="-7.5" font-family="Helvetica,sans-Serif" font-size="10.00">typeindex</text>
</a>
</g>
</g>
<!-- Node15&#45;&gt;Node16 -->
<g id="edge22" class="edge">
<title>Node15&#45;&gt;Node16</title>
<path fill="none" stroke="midnightblue" d="M765.09,-56.08C772.66,-48.22 783.88,-36.57 793.01,-27.08"/>
<polygon fill="midnightblue" stroke="midnightblue" points="795.66,-29.38 800.07,-19.75 790.62,-24.53 795.66,-29.38"/>
</g>
<!-- Node18&#45;&gt;Node5 -->
<g id="edge30" class="edge">
<title>Node18&#45;&gt;Node5</title>
<path fill="none" stroke="midnightblue" d="M675.05,-168.44C697.53,-159.52 732.99,-145.44 758.48,-135.32"/>
<polygon fill="midnightblue" stroke="midnightblue" points="760.05,-138.46 768.05,-131.52 757.47,-131.95 760.05,-138.46"/>
</g>
<!-- Node18&#45;&gt;Node13 -->
<g id="edge32" class="edge">
<title>Node18&#45;&gt;Node13</title>
<path fill="none" stroke="midnightblue" d="M633.69,-168.44C613.21,-159.6 581.02,-145.69 557.64,-135.59"/>
<polygon fill="midnightblue" stroke="midnightblue" points="558.78,-132.27 548.21,-131.52 556.01,-138.7 558.78,-132.27"/>
</g>
<!-- Node18&#45;&gt;Node16 -->
<g id="edge28" class="edge">
<title>Node18&#45;&gt;Node16</title>
<path fill="none" stroke="midnightblue" d="M666.07,-168.36C685.42,-155.26 723.88,-130 758.5,-112 794.53,-93.26 820.14,-109.91 842.5,-76 853.05,-60 839.45,-40.35 826.45,-26.87"/>
<polygon fill="midnightblue" stroke="midnightblue" points="828.67,-24.16 819.05,-19.72 823.81,-29.19 828.67,-24.16"/>
</g>
<!-- Node19 -->
<g id="node19" class="node">
<title>Node19</title>
<g id="a_node19"><a xlink:title=" ">
<polygon fill="white" stroke="#bfbfbf" points="913.5,-112.5 913.5,-131.5 945.5,-131.5 945.5,-112.5 913.5,-112.5"/>
<text text-anchor="middle" x="929.5" y="-119.5" font-family="Helvetica,sans-Serif" font-size="10.00">list</text>
</a>
</g>
</g>
<!-- Node18&#45;&gt;Node19 -->
<g id="edge26" class="edge">
<title>Node18&#45;&gt;Node19</title>
<path fill="none" stroke="midnightblue" d="M697.52,-171.39C745.96,-164.72 826.16,-152.19 903.57,-131.86"/>
<polygon fill="midnightblue" stroke="midnightblue" points="904.73,-135.18 913.49,-129.21 902.92,-128.42 904.73,-135.18"/>
</g>
<!-- Node20 -->
<g id="node20" class="node">
<title>Node20</title>
<g id="a_node20"><a xlink:title=" ">
<polygon fill="white" stroke="#bfbfbf" points="595,-112.5 595,-131.5 636,-131.5 636,-112.5 595,-112.5"/>
<text text-anchor="middle" x="615.5" y="-119.5" font-family="Helvetica,sans-Serif" font-size="10.00">tuple</text>
</a>
</g>
</g>
<!-- Node18&#45;&gt;Node20 -->
<g id="edge27" class="edge">
<title>Node18&#45;&gt;Node20</title>
<path fill="none" stroke="midnightblue" d="M647.23,-168.08C641.86,-160.46 633.98,-149.26 627.42,-139.94"/>
<polygon fill="midnightblue" stroke="midnightblue" points="630.28,-137.91 621.66,-131.75 624.55,-141.94 630.28,-137.91"/>
</g>
<!-- Node21 -->
<g id="node21" class="node">
<title>Node21</title>
<g id="a_node21"><a xlink:title=" ">
<polygon fill="white" stroke="#bfbfbf" points="830,-112.5 830,-131.5 895,-131.5 895,-112.5 830,-112.5"/>
<text text-anchor="middle" x="862.5" y="-119.5" font-family="Helvetica,sans-Serif" font-size="10.00">functional</text>
</a>
</g>
</g>
<!-- Node18&#45;&gt;Node21 -->
<g id="edge29" class="edge">
<title>Node18&#45;&gt;Node21</title>
<path fill="none" stroke="midnightblue" d="M686.62,-168.44C722.72,-159.11 780.61,-144.16 820.03,-133.97"/>
<polygon fill="midnightblue" stroke="midnightblue" points="821.08,-137.32 829.88,-131.43 819.32,-130.54 821.08,-137.32"/>
</g>
<!-- Node22 -->
<g id="node22" class="node">
<title>Node22</title>
<g id="a_node22"><a xlink:title=" ">
<polygon fill="white" stroke="#bfbfbf" points="654.5,-112.5 654.5,-131.5 710.5,-131.5 710.5,-112.5 654.5,-112.5"/>
<text text-anchor="middle" x="682.5" y="-119.5" font-family="Helvetica,sans-Serif" font-size="10.00">optional</text>
</a>
</g>
</g>
<!-- Node18&#45;&gt;Node22 -->
<g id="edge31" class="edge">
<title>Node18&#45;&gt;Node22</title>
<path fill="none" stroke="midnightblue" d="M658.29,-168.08C662.26,-160.69 668.03,-149.95 672.93,-140.81"/>
<polygon fill="midnightblue" stroke="midnightblue" points="676.15,-142.22 677.8,-131.75 669.99,-138.91 676.15,-142.22"/>
</g>
<!-- Node24&#45;&gt;Node5 -->
<g id="edge36" class="edge">
<title>Node24&#45;&gt;Node5</title>
<path fill="none" stroke="midnightblue" d="M808.7,-168.08C805.59,-160.77 801.08,-150.18 797.21,-141.1"/>
<polygon fill="midnightblue" stroke="midnightblue" points="800.37,-139.58 793.23,-131.75 793.93,-142.32 800.37,-139.58"/>
</g>
<!-- Node24&#45;&gt;Node14 -->
<g id="edge37" class="edge">
<title>Node24&#45;&gt;Node14</title>
<path fill="none" stroke="midnightblue" d="M871.72,-174.08C901.65,-169.24 935.56,-157.87 954.5,-132 964.73,-118.03 957.13,-98.51 948.89,-84.51"/>
<polygon fill="midnightblue" stroke="midnightblue" points="951.66,-82.35 943.3,-75.84 945.78,-86.14 951.66,-82.35"/>
</g>
<!-- Node24&#45;&gt;Node21 -->
<g id="edge35" class="edge">
<title>Node24&#45;&gt;Node21</title>
<path fill="none" stroke="midnightblue" d="M820.76,-168.08C827.96,-160.3 838.61,-148.8 847.35,-139.37"/>
<polygon fill="midnightblue" stroke="midnightblue" points="850.17,-141.47 854.4,-131.75 845.03,-136.71 850.17,-141.47"/>
</g>
<!-- Node25&#45;&gt;Node6 -->
<g id="edge39" class="edge">
<title>Node25&#45;&gt;Node6</title>
<path fill="none" stroke="midnightblue" d="M889.25,-224.45C907.4,-208.08 946.67,-170.54 970.5,-132 984.56,-109.26 983.85,-101.3 992.5,-76 997.79,-60.53 1002.94,-42.69 1006.54,-29.61"/>
<polygon fill="midnightblue" stroke="midnightblue" points="1009.93,-30.48 1009.17,-19.91 1003.17,-28.65 1009.93,-30.48"/>
</g>
<!-- Node25&#45;&gt;Node13 -->
<g id="edge43" class="edge">
<title>Node25&#45;&gt;Node13</title>
<path fill="none" stroke="midnightblue" d="M829.87,-233.34C772.04,-231.91 674.93,-223.69 600.5,-188 576.89,-176.68 555.4,-155.13 542.16,-139.96"/>
<polygon fill="midnightblue" stroke="midnightblue" points="544.49,-137.28 535.37,-131.88 539.13,-141.79 544.49,-137.28"/>
</g>
<!-- Node25&#45;&gt;Node18 -->
<g id="edge42" class="edge">
<title>Node25&#45;&gt;Node18</title>
<path fill="none" stroke="midnightblue" d="M843.69,-224.44C804.51,-215.08 741.62,-200.06 698.98,-189.87"/>
<polygon fill="midnightblue" stroke="midnightblue" points="699.68,-186.44 689.14,-187.52 698.06,-193.24 699.68,-186.44"/>
</g>
<!-- Node25&#45;&gt;Node19 -->
<g id="edge40" class="edge">
<title>Node25&#45;&gt;Node19</title>
<path fill="none" stroke="midnightblue" d="M883.42,-224.37C891.57,-206.46 910.44,-164.92 921.34,-140.95"/>
<polygon fill="midnightblue" stroke="midnightblue" points="924.64,-142.14 925.59,-131.59 918.27,-139.25 924.64,-142.14"/>
</g>
<!-- Node25&#45;&gt;Node21 -->
<g id="edge41" class="edge">
<title>Node25&#45;&gt;Node21</title>
<path fill="none" stroke="midnightblue" d="M880.73,-224.49C882.29,-211.98 884.34,-187.95 880.5,-168 878.71,-158.7 875.02,-148.89 871.44,-140.8"/>
<polygon fill="midnightblue" stroke="midnightblue" points="874.56,-139.21 867.12,-131.66 868.23,-142.2 874.56,-139.21"/>
</g>
</g>
</svg>
