<?xml version="1.0" encoding="UTF-8" standalone="no"?>
<!DOCTYPE svg PUBLIC "-//W3C//DTD SVG 1.1//EN"
 "http://www.w3.org/Graphics/SVG/1.1/DTD/svg11.dtd">
<!-- Generated by graphviz version 2.43.0 (0)
 -->
<!-- Title: lib/Ray/sources/Camera/Camera3D.hpp Pages: 1 -->
<svg width="489pt" height="207pt"
 viewBox="0.00 0.00 488.88 207.00" xmlns="http://www.w3.org/2000/svg" xmlns:xlink="http://www.w3.org/1999/xlink">
<g id="graph0" class="graph" transform="scale(1 1) rotate(0) translate(4 203)">
<title>lib/Ray/sources/Camera/Camera3D.hpp</title>
<polygon fill="white" stroke="transparent" points="-4,4 -4,-203 484.88,-203 484.88,4 -4,4"/>
<!-- Node1 -->
<g id="node1" class="node">
<title>Node1</title>
<g id="a_node1"><a xlink:title=" ">
<polygon fill="#bfbfbf" stroke="black" points="113.88,-168.5 113.88,-198.5 245.88,-198.5 245.88,-168.5 113.88,-168.5"/>
<text text-anchor="start" x="121.88" y="-186.5" font-family="Helvetica,sans-Serif" font-size="10.00">lib/Ray/sources/Camera</text>
<text text-anchor="middle" x="179.88" y="-175.5" font-family="Helvetica,sans-Serif" font-size="10.00">/Camera3D.hpp</text>
</a>
</g>
</g>
<!-- Node2 -->
<g id="node2" class="node">
<title>Node2</title>
<g id="a_node2"><a xlink:title=" ">
<polygon fill="white" stroke="#bfbfbf" points="153.38,-0.5 153.38,-19.5 206.38,-19.5 206.38,-0.5 153.38,-0.5"/>
<text text-anchor="middle" x="179.88" y="-7.5" font-family="Helvetica,sans-Serif" font-size="10.00">raylib.h</text>
</a>
</g>
</g>
<!-- Node1&#45;&gt;Node2 -->
<g id="edge1" class="edge">
<title>Node1&#45;&gt;Node2</title>
<path fill="none" stroke="midnightblue" d="M129.69,-168.45C66.36,-148.2 -29.78,-107.53 9.88,-56 26.03,-35.01 98.37,-21.81 143.32,-15.47"/>
<polygon fill="midnightblue" stroke="midnightblue" points="143.85,-18.93 153.28,-14.12 142.9,-11.99 143.85,-18.93"/>
</g>
<!-- Node3 -->
<g id="node3" class="node">
<title>Node3</title>
<g id="a_node3"><a xlink:href="lib_2Ray_2sources_2Vector_2Vector3_8hpp.html" target="_top" xlink:title=" ">
<polygon fill="white" stroke="black" points="18.88,-56.5 18.88,-75.5 126.88,-75.5 126.88,-56.5 18.88,-56.5"/>
<text text-anchor="middle" x="72.88" y="-63.5" font-family="Helvetica,sans-Serif" font-size="10.00">Vector/Vector3.hpp</text>
</a>
</g>
</g>
<!-- Node1&#45;&gt;Node3 -->
<g id="edge2" class="edge">
<title>Node1&#45;&gt;Node3</title>
<path fill="none" stroke="midnightblue" d="M155.91,-168.47C141.67,-159.32 123.91,-146.44 110.88,-132 98.18,-117.92 87.67,-98.93 80.95,-85.12"/>
<polygon fill="midnightblue" stroke="midnightblue" points="83.97,-83.31 76.57,-75.73 77.63,-86.27 83.97,-83.31"/>
</g>
<!-- Node4 -->
<g id="node4" class="node">
<title>Node4</title>
<g id="a_node4"><a xlink:href="ICamera_8hpp.html" target="_top" xlink:title=" ">
<polygon fill="white" stroke="black" points="119.88,-112.5 119.88,-131.5 239.88,-131.5 239.88,-112.5 119.88,-112.5"/>
<text text-anchor="middle" x="179.88" y="-119.5" font-family="Helvetica,sans-Serif" font-size="10.00">Camera/ICamera.hpp</text>
</a>
</g>
</g>
<!-- Node1&#45;&gt;Node4 -->
<g id="edge4" class="edge">
<title>Node1&#45;&gt;Node4</title>
<path fill="none" stroke="midnightblue" d="M179.88,-168.4C179.88,-160.47 179.88,-150.46 179.88,-141.86"/>
<polygon fill="midnightblue" stroke="midnightblue" points="183.38,-141.66 179.88,-131.66 176.38,-141.66 183.38,-141.66"/>
</g>
<!-- Node6 -->
<g id="node6" class="node">
<title>Node6</title>
<g id="a_node6"><a xlink:href="CameraProjection_8hpp.html" target="_top" xlink:title=" ">
<polygon fill="white" stroke="black" points="232.88,-56.5 232.88,-75.5 398.88,-75.5 398.88,-56.5 232.88,-56.5"/>
<text text-anchor="middle" x="315.88" y="-63.5" font-family="Helvetica,sans-Serif" font-size="10.00">Camera/CameraProjection.hpp</text>
</a>
</g>
</g>
<!-- Node1&#45;&gt;Node6 -->
<g id="edge7" class="edge">
<title>Node1&#45;&gt;Node6</title>
<path fill="none" stroke="midnightblue" d="M200.67,-168.41C214.67,-158.66 233.34,-145.12 248.88,-132 267.51,-116.27 287.39,-96.58 300.61,-83.01"/>
<polygon fill="midnightblue" stroke="midnightblue" points="303.14,-85.43 307.57,-75.81 298.1,-80.57 303.14,-85.43"/>
</g>
<!-- Node7 -->
<g id="node7" class="node">
<title>Node7</title>
<g id="a_node7"><a xlink:href="CameraMode_8hpp.html" target="_top" xlink:title=" ">
<polygon fill="white" stroke="black" points="336.88,-112.5 336.88,-131.5 480.88,-131.5 480.88,-112.5 336.88,-112.5"/>
<text text-anchor="middle" x="408.88" y="-119.5" font-family="Helvetica,sans-Serif" font-size="10.00">Camera/CameraMode.hpp</text>
</a>
</g>
</g>
<!-- Node1&#45;&gt;Node7 -->
<g id="edge9" class="edge">
<title>Node1&#45;&gt;Node7</title>
<path fill="none" stroke="midnightblue" d="M233.86,-168.47C274.23,-157.99 328.68,-143.84 366.07,-134.12"/>
<polygon fill="midnightblue" stroke="midnightblue" points="367.34,-137.41 376.14,-131.51 365.58,-130.63 367.34,-137.41"/>
</g>
<!-- Node3&#45;&gt;Node2 -->
<g id="edge3" class="edge">
<title>Node3&#45;&gt;Node2</title>
<path fill="none" stroke="midnightblue" d="M90.07,-56.32C107.23,-47.66 133.83,-34.24 153.63,-24.25"/>
<polygon fill="midnightblue" stroke="midnightblue" points="155.38,-27.28 162.73,-19.65 152.23,-21.04 155.38,-27.28"/>
</g>
<!-- Node5 -->
<g id="node5" class="node">
<title>Node5</title>
<g id="a_node5"><a xlink:href="Matrix_8hpp.html" target="_top" xlink:title=" ">
<polygon fill="white" stroke="black" points="145.38,-56.5 145.38,-75.5 214.38,-75.5 214.38,-56.5 145.38,-56.5"/>
<text text-anchor="middle" x="179.88" y="-63.5" font-family="Helvetica,sans-Serif" font-size="10.00">Matrix.hpp</text>
</a>
</g>
</g>
<!-- Node4&#45;&gt;Node5 -->
<g id="edge5" class="edge">
<title>Node4&#45;&gt;Node5</title>
<path fill="none" stroke="midnightblue" d="M179.88,-112.08C179.88,-105.01 179.88,-94.86 179.88,-85.99"/>
<polygon fill="midnightblue" stroke="midnightblue" points="183.38,-85.75 179.88,-75.75 176.38,-85.75 183.38,-85.75"/>
</g>
<!-- Node5&#45;&gt;Node2 -->
<g id="edge6" class="edge">
<title>Node5&#45;&gt;Node2</title>
<path fill="none" stroke="midnightblue" d="M179.88,-56.08C179.88,-49.01 179.88,-38.86 179.88,-29.99"/>
<polygon fill="midnightblue" stroke="midnightblue" points="183.38,-29.75 179.88,-19.75 176.38,-29.75 183.38,-29.75"/>
</g>
<!-- Node6&#45;&gt;Node2 -->
<g id="edge8" class="edge">
<title>Node6&#45;&gt;Node2</title>
<path fill="none" stroke="midnightblue" d="M294.33,-56.44C271.85,-47.52 236.39,-33.44 210.9,-23.32"/>
<polygon fill="midnightblue" stroke="midnightblue" points="211.91,-19.95 201.33,-19.52 209.33,-26.46 211.91,-19.95"/>
</g>
<!-- Node7&#45;&gt;Node2 -->
<g id="edge10" class="edge">
<title>Node7&#45;&gt;Node2</title>
<path fill="none" stroke="midnightblue" d="M411.85,-112.25C415.88,-98.55 421.19,-71.94 407.88,-56 383.9,-27.28 275.01,-16.56 216.81,-12.83"/>
<polygon fill="midnightblue" stroke="midnightblue" points="216.76,-9.32 206.57,-12.21 216.34,-16.3 216.76,-9.32"/>
</g>
</g>
</svg>
