<?xml version="1.0" encoding="UTF-8" standalone="no"?>
<!DOCTYPE svg PUBLIC "-//W3C//DTD SVG 1.1//EN"
 "http://www.w3.org/Graphics/SVG/1.1/DTD/svg11.dtd">
<!-- Generated by graphviz version 2.43.0 (0)
 -->
<!-- Title: sources/Component/Renderer/CameraComponent.hpp Pages: 1 -->
<svg width="1316pt" height="173pt"
 viewBox="0.00 0.00 1316.00 173.00" xmlns="http://www.w3.org/2000/svg" xmlns:xlink="http://www.w3.org/1999/xlink">
<g id="graph0" class="graph" transform="scale(1 1) rotate(0) translate(4 169)">
<title>sources/Component/Renderer/CameraComponent.hpp</title>
<polygon fill="white" stroke="transparent" points="-4,4 -4,-169 1312,-169 1312,4 -4,4"/>
<!-- Node1 -->
<g id="node1" class="node">
<title>Node1</title>
<g id="a_node1"><a xlink:title=" ">
<polygon fill="#bfbfbf" stroke="black" points="563,-134.5 563,-164.5 724,-164.5 724,-134.5 563,-134.5"/>
<text text-anchor="start" x="571" y="-152.5" font-family="Helvetica,sans-Serif" font-size="10.00">sources/Component/Renderer</text>
<text text-anchor="middle" x="643.5" y="-141.5" font-family="Helvetica,sans-Serif" font-size="10.00">/CameraComponent.hpp</text>
</a>
</g>
</g>
<!-- Node2 -->
<g id="node2" class="node">
<title>Node2</title>
<g id="a_node2"><a xlink:href="CameraComponent_8cpp.html" target="_top" xlink:title=" ">
<polygon fill="white" stroke="black" points="0,-67.5 0,-97.5 161,-97.5 161,-67.5 0,-67.5"/>
<text text-anchor="start" x="8" y="-85.5" font-family="Helvetica,sans-Serif" font-size="10.00">sources/Component/Renderer</text>
<text text-anchor="middle" x="80.5" y="-74.5" font-family="Helvetica,sans-Serif" font-size="10.00">/CameraComponent.cpp</text>
</a>
</g>
</g>
<!-- Node1&#45;&gt;Node2 -->
<g id="edge1" class="edge">
<title>Node1&#45;&gt;Node2</title>
<path fill="none" stroke="midnightblue" d="M552.62,-140.32C457.07,-131.38 302.45,-115.9 169.5,-98 166.71,-97.62 163.87,-97.23 161,-96.82"/>
<polygon fill="midnightblue" stroke="midnightblue" points="552.54,-143.83 562.82,-141.28 553.19,-136.86 552.54,-143.83"/>
</g>
<!-- Node3 -->
<g id="node3" class="node">
<title>Node3</title>
<g id="a_node3"><a xlink:href="GameScene_8cpp.html" target="_top" xlink:title=" ">
<polygon fill="white" stroke="black" points="179,-73 179,-92 352,-92 352,-73 179,-73"/>
<text text-anchor="middle" x="265.5" y="-80" font-family="Helvetica,sans-Serif" font-size="10.00">sources/Runner/GameScene.cpp</text>
</a>
</g>
</g>
<!-- Node1&#45;&gt;Node3 -->
<g id="edge2" class="edge">
<title>Node1&#45;&gt;Node3</title>
<path fill="none" stroke="midnightblue" d="M553,-132.94C478.41,-120.11 375.4,-102.4 315.08,-92.03"/>
<polygon fill="midnightblue" stroke="midnightblue" points="552.42,-136.39 562.87,-134.64 553.61,-129.49 552.42,-136.39"/>
</g>
<!-- Node4 -->
<g id="node4" class="node">
<title>Node4</title>
<g id="a_node4"><a xlink:href="LobbyScene_8cpp.html" target="_top" xlink:title=" ">
<polygon fill="white" stroke="black" points="370,-73 370,-92 543,-92 543,-73 370,-73"/>
<text text-anchor="middle" x="456.5" y="-80" font-family="Helvetica,sans-Serif" font-size="10.00">sources/Runner/LobbyScene.cpp</text>
</a>
</g>
</g>
<!-- Node1&#45;&gt;Node4 -->
<g id="edge3" class="edge">
<title>Node1&#45;&gt;Node4</title>
<path fill="none" stroke="midnightblue" d="M593.46,-131.11C557.08,-118.46 509.41,-101.89 480.97,-92.01"/>
<polygon fill="midnightblue" stroke="midnightblue" points="592.33,-134.42 602.92,-134.4 594.63,-127.81 592.33,-134.42"/>
</g>
<!-- Node5 -->
<g id="node5" class="node">
<title>Node5</title>
<g id="a_node5"><a xlink:href="ResumeLobbyScene_8cpp.html" target="_top" xlink:title=" ">
<polygon fill="white" stroke="black" points="561.5,-67.5 561.5,-97.5 725.5,-97.5 725.5,-67.5 561.5,-67.5"/>
<text text-anchor="start" x="569.5" y="-85.5" font-family="Helvetica,sans-Serif" font-size="10.00">sources/Runner/ResumeLobby</text>
<text text-anchor="middle" x="643.5" y="-74.5" font-family="Helvetica,sans-Serif" font-size="10.00">Scene.cpp</text>
</a>
</g>
</g>
<!-- Node1&#45;&gt;Node5 -->
<g id="edge4" class="edge">
<title>Node1&#45;&gt;Node5</title>
<path fill="none" stroke="midnightblue" d="M643.5,-124.11C643.5,-115.15 643.5,-105.32 643.5,-97.58"/>
<polygon fill="midnightblue" stroke="midnightblue" points="640,-124.4 643.5,-134.4 647,-124.4 640,-124.4"/>
</g>
<!-- Node6 -->
<g id="node6" class="node">
<title>Node6</title>
<g id="a_node6"><a xlink:href="CameraSystem_8hpp.html" target="_top" xlink:title=" ">
<polygon fill="white" stroke="black" points="744,-67.5 744,-97.5 885,-97.5 885,-67.5 744,-67.5"/>
<text text-anchor="start" x="752" y="-85.5" font-family="Helvetica,sans-Serif" font-size="10.00">sources/System/Renderer</text>
<text text-anchor="middle" x="814.5" y="-74.5" font-family="Helvetica,sans-Serif" font-size="10.00">/CameraSystem.hpp</text>
</a>
</g>
</g>
<!-- Node1&#45;&gt;Node6 -->
<g id="edge5" class="edge">
<title>Node1&#45;&gt;Node6</title>
<path fill="none" stroke="midnightblue" d="M690.02,-130.82C717.5,-120.37 751.83,-107.32 777.47,-97.58"/>
<polygon fill="midnightblue" stroke="midnightblue" points="688.71,-127.57 680.6,-134.4 691.2,-134.11 688.71,-127.57"/>
</g>
<!-- Node11 -->
<g id="node11" class="node">
<title>Node11</title>
<g id="a_node11"><a xlink:href="RenderSystem_8hpp.html" target="_top" xlink:title=" ">
<polygon fill="white" stroke="black" points="951,-67.5 951,-97.5 1092,-97.5 1092,-67.5 951,-67.5"/>
<text text-anchor="start" x="959" y="-85.5" font-family="Helvetica,sans-Serif" font-size="10.00">sources/System/Renderer</text>
<text text-anchor="middle" x="1021.5" y="-74.5" font-family="Helvetica,sans-Serif" font-size="10.00">/RenderSystem.hpp</text>
</a>
</g>
</g>
<!-- Node1&#45;&gt;Node11 -->
<g id="edge10" class="edge">
<title>Node1&#45;&gt;Node11</title>
<path fill="none" stroke="midnightblue" d="M734.18,-132.91C800.66,-121.48 889.63,-106.18 950.86,-95.65"/>
<polygon fill="midnightblue" stroke="midnightblue" points="733.39,-129.49 724.13,-134.64 734.58,-136.39 733.39,-129.49"/>
</g>
<!-- Node13 -->
<g id="node13" class="node">
<title>Node13</title>
<g id="a_node13"><a xlink:href="RenderSystem_8cpp.html" target="_top" xlink:title=" ">
<polygon fill="white" stroke="black" points="1167,-0.5 1167,-30.5 1308,-30.5 1308,-0.5 1167,-0.5"/>
<text text-anchor="start" x="1175" y="-18.5" font-family="Helvetica,sans-Serif" font-size="10.00">sources/System/Renderer</text>
<text text-anchor="middle" x="1237.5" y="-7.5" font-family="Helvetica,sans-Serif" font-size="10.00">/RenderSystem.cpp</text>
</a>
</g>
</g>
<!-- Node1&#45;&gt;Node13 -->
<g id="edge14" class="edge">
<title>Node1&#45;&gt;Node13</title>
<path fill="none" stroke="midnightblue" d="M734.34,-143.04C847.72,-135.42 1034.75,-120.04 1100.5,-98 1146.95,-82.43 1194.66,-49.43 1219.68,-30.55"/>
<polygon fill="midnightblue" stroke="midnightblue" points="734.02,-139.55 724.28,-143.7 734.49,-146.53 734.02,-139.55"/>
</g>
<!-- Node7 -->
<g id="node7" class="node">
<title>Node7</title>
<g id="a_node7"><a xlink:href="PauseMenuScene_8cpp.html" target="_top" xlink:title=" ">
<polygon fill="white" stroke="black" points="314.5,-0.5 314.5,-30.5 464.5,-30.5 464.5,-0.5 314.5,-0.5"/>
<text text-anchor="start" x="322.5" y="-18.5" font-family="Helvetica,sans-Serif" font-size="10.00">sources/Runner/PauseMenu</text>
<text text-anchor="middle" x="389.5" y="-7.5" font-family="Helvetica,sans-Serif" font-size="10.00">Scene.cpp</text>
</a>
</g>
</g>
<!-- Node6&#45;&gt;Node7 -->
<g id="edge6" class="edge">
<title>Node6&#45;&gt;Node7</title>
<path fill="none" stroke="midnightblue" d="M733.81,-66.94C617.18,-48.56 586.05,-48.47 473.5,-31 470.58,-30.55 467.59,-30.07 464.59,-29.59"/>
<polygon fill="midnightblue" stroke="midnightblue" points="733.43,-70.42 743.86,-68.53 734.53,-63.5 733.43,-70.42"/>
</g>
<!-- Node8 -->
<g id="node8" class="node">
<title>Node8</title>
<g id="a_node8"><a xlink:href="Runner_8cpp.html" target="_top" xlink:title=" ">
<polygon fill="white" stroke="black" points="821,-6 821,-25 970,-25 970,-6 821,-6"/>
<text text-anchor="middle" x="895.5" y="-13" font-family="Helvetica,sans-Serif" font-size="10.00">sources/Runner/Runner.cpp</text>
</a>
</g>
</g>
<!-- Node6&#45;&gt;Node8 -->
<g id="edge7" class="edge">
<title>Node6&#45;&gt;Node8</title>
<path fill="none" stroke="midnightblue" d="M840.04,-61.01C855.07,-48.94 873.31,-34.3 884.67,-25.19"/>
<polygon fill="midnightblue" stroke="midnightblue" points="837.68,-58.41 832.08,-67.4 842.07,-63.87 837.68,-58.41"/>
</g>
<!-- Node9 -->
<g id="node9" class="node">
<title>Node9</title>
<g id="a_node9"><a xlink:href="EndConditionSystem_8cpp.html" target="_top" xlink:title=" ">
<polygon fill="white" stroke="black" points="483,-0.5 483,-30.5 644,-30.5 644,-0.5 483,-0.5"/>
<text text-anchor="start" x="491" y="-18.5" font-family="Helvetica,sans-Serif" font-size="10.00">sources/System/EndCondition</text>
<text text-anchor="middle" x="563.5" y="-7.5" font-family="Helvetica,sans-Serif" font-size="10.00">/EndConditionSystem.cpp</text>
</a>
</g>
</g>
<!-- Node6&#45;&gt;Node9 -->
<g id="edge8" class="edge">
<title>Node6&#45;&gt;Node9</title>
<path fill="none" stroke="midnightblue" d="M750.46,-64.92C709.5,-54.31 656.94,-40.7 617.99,-30.61"/>
<polygon fill="midnightblue" stroke="midnightblue" points="749.79,-68.36 760.35,-67.48 751.54,-61.58 749.79,-68.36"/>
</g>
<!-- Node10 -->
<g id="node10" class="node">
<title>Node10</title>
<g id="a_node10"><a xlink:href="CameraSystem_8cpp.html" target="_top" xlink:title=" ">
<polygon fill="white" stroke="black" points="662,-0.5 662,-30.5 803,-30.5 803,-0.5 662,-0.5"/>
<text text-anchor="start" x="670" y="-18.5" font-family="Helvetica,sans-Serif" font-size="10.00">sources/System/Renderer</text>
<text text-anchor="middle" x="732.5" y="-7.5" font-family="Helvetica,sans-Serif" font-size="10.00">/CameraSystem.cpp</text>
</a>
</g>
</g>
<!-- Node6&#45;&gt;Node10 -->
<g id="edge9" class="edge">
<title>Node6&#45;&gt;Node10</title>
<path fill="none" stroke="midnightblue" d="M788.85,-61.17C776.31,-51.23 761.53,-39.51 750.26,-30.58"/>
<polygon fill="midnightblue" stroke="midnightblue" points="786.7,-63.93 796.71,-67.4 791.04,-58.44 786.7,-63.93"/>
</g>
<!-- Node11&#45;&gt;Node8 -->
<g id="edge11" class="edge">
<title>Node11&#45;&gt;Node8</title>
<path fill="none" stroke="midnightblue" d="M985.26,-62.8C961.1,-50.34 930.5,-34.56 911.99,-25.01"/>
<polygon fill="midnightblue" stroke="midnightblue" points="983.67,-65.92 994.16,-67.4 986.88,-59.7 983.67,-65.92"/>
</g>
<!-- Node12 -->
<g id="node12" class="node">
<title>Node12</title>
<g id="a_node12"><a xlink:href="SettingsMenuScene_8cpp.html" target="_top" xlink:title=" ">
<polygon fill="white" stroke="black" points="988,-0.5 988,-30.5 1149,-30.5 1149,-0.5 988,-0.5"/>
<text text-anchor="start" x="996" y="-18.5" font-family="Helvetica,sans-Serif" font-size="10.00">sources/Runner/SettingsMenu</text>
<text text-anchor="middle" x="1068.5" y="-7.5" font-family="Helvetica,sans-Serif" font-size="10.00">Scene.cpp</text>
</a>
</g>
</g>
<!-- Node11&#45;&gt;Node12 -->
<g id="edge12" class="edge">
<title>Node11&#45;&gt;Node12</title>
<path fill="none" stroke="midnightblue" d="M1037.66,-59.16C1044.51,-49.68 1052.29,-38.92 1058.32,-30.58"/>
<polygon fill="midnightblue" stroke="midnightblue" points="1034.72,-57.24 1031.7,-67.4 1040.39,-61.34 1034.72,-57.24"/>
</g>
<!-- Node11&#45;&gt;Node13 -->
<g id="edge13" class="edge">
<title>Node11&#45;&gt;Node13</title>
<path fill="none" stroke="midnightblue" d="M1077.73,-64.58C1112.81,-54.02 1157.44,-40.59 1190.61,-30.61"/>
<polygon fill="midnightblue" stroke="midnightblue" points="1076.67,-61.24 1068.1,-67.48 1078.69,-67.95 1076.67,-61.24"/>
</g>
</g>
</svg>
