<?xml version="1.0" encoding="UTF-8" standalone="no"?>
<!DOCTYPE svg PUBLIC "-//W3C//DTD SVG 1.1//EN"
 "http://www.w3.org/Graphics/SVG/1.1/DTD/svg11.dtd">
<!-- Generated by graphviz version 2.43.0 (0)
 -->
<!-- Title: lib/Ray/sources/Camera/Camera3D.cpp Pages: 1 -->
<svg width="489pt" height="263pt"
 viewBox="0.00 0.00 488.61 263.00" xmlns="http://www.w3.org/2000/svg" xmlns:xlink="http://www.w3.org/1999/xlink">
<g id="graph0" class="graph" transform="scale(1 1) rotate(0) translate(4 259)">
<title>lib/Ray/sources/Camera/Camera3D.cpp</title>
<polygon fill="white" stroke="transparent" points="-4,4 -4,-259 484.61,-259 484.61,4 -4,4"/>
<!-- Node1 -->
<g id="node1" class="node">
<title>Node1</title>
<g id="a_node1"><a xlink:title=" ">
<polygon fill="#bfbfbf" stroke="black" points="113.61,-224.5 113.61,-254.5 245.61,-254.5 245.61,-224.5 113.61,-224.5"/>
<text text-anchor="start" x="121.61" y="-242.5" font-family="Helvetica,sans-Serif" font-size="10.00">lib/Ray/sources/Camera</text>
<text text-anchor="middle" x="179.61" y="-231.5" font-family="Helvetica,sans-Serif" font-size="10.00">/Camera3D.cpp</text>
</a>
</g>
</g>
<!-- Node2 -->
<g id="node2" class="node">
<title>Node2</title>
<g id="a_node2"><a xlink:href="Camera3D_8hpp.html" target="_top" xlink:title=" ">
<polygon fill="white" stroke="black" points="114.11,-168.5 114.11,-187.5 245.11,-187.5 245.11,-168.5 114.11,-168.5"/>
<text text-anchor="middle" x="179.61" y="-175.5" font-family="Helvetica,sans-Serif" font-size="10.00">Camera/Camera3D.hpp</text>
</a>
</g>
</g>
<!-- Node1&#45;&gt;Node2 -->
<g id="edge1" class="edge">
<title>Node1&#45;&gt;Node2</title>
<path fill="none" stroke="midnightblue" d="M179.61,-224.4C179.61,-216.47 179.61,-206.46 179.61,-197.86"/>
<polygon fill="midnightblue" stroke="midnightblue" points="183.11,-197.66 179.61,-187.66 176.11,-197.66 183.11,-197.66"/>
</g>
<!-- Node3 -->
<g id="node3" class="node">
<title>Node3</title>
<g id="a_node3"><a xlink:title=" ">
<polygon fill="white" stroke="#bfbfbf" points="153.11,-0.5 153.11,-19.5 206.11,-19.5 206.11,-0.5 153.11,-0.5"/>
<text text-anchor="middle" x="179.61" y="-7.5" font-family="Helvetica,sans-Serif" font-size="10.00">raylib.h</text>
</a>
</g>
</g>
<!-- Node2&#45;&gt;Node3 -->
<g id="edge2" class="edge">
<title>Node2&#45;&gt;Node3</title>
<path fill="none" stroke="midnightblue" d="M145.09,-168.43C84.02,-151.62 -32.82,-111.12 9.61,-56 25.76,-35.01 98.1,-21.81 143.05,-15.47"/>
<polygon fill="midnightblue" stroke="midnightblue" points="143.58,-18.93 153.01,-14.12 142.63,-11.99 143.58,-18.93"/>
</g>
<!-- Node4 -->
<g id="node4" class="node">
<title>Node4</title>
<g id="a_node4"><a xlink:href="lib_2Ray_2sources_2Vector_2Vector3_8hpp.html" target="_top" xlink:title=" ">
<polygon fill="white" stroke="black" points="18.61,-56.5 18.61,-75.5 126.61,-75.5 126.61,-56.5 18.61,-56.5"/>
<text text-anchor="middle" x="72.61" y="-63.5" font-family="Helvetica,sans-Serif" font-size="10.00">Vector/Vector3.hpp</text>
</a>
</g>
</g>
<!-- Node2&#45;&gt;Node4 -->
<g id="edge3" class="edge">
<title>Node2&#45;&gt;Node4</title>
<path fill="none" stroke="midnightblue" d="M161.83,-168.39C146.83,-160.48 125.5,-147.64 110.61,-132 97.54,-118.27 87.08,-99.24 80.47,-85.31"/>
<polygon fill="midnightblue" stroke="midnightblue" points="83.5,-83.51 76.19,-75.84 77.12,-86.39 83.5,-83.51"/>
</g>
<!-- Node5 -->
<g id="node5" class="node">
<title>Node5</title>
<g id="a_node5"><a xlink:href="ICamera_8hpp.html" target="_top" xlink:title=" ">
<polygon fill="white" stroke="black" points="119.61,-112.5 119.61,-131.5 239.61,-131.5 239.61,-112.5 119.61,-112.5"/>
<text text-anchor="middle" x="179.61" y="-119.5" font-family="Helvetica,sans-Serif" font-size="10.00">Camera/ICamera.hpp</text>
</a>
</g>
</g>
<!-- Node2&#45;&gt;Node5 -->
<g id="edge5" class="edge">
<title>Node2&#45;&gt;Node5</title>
<path fill="none" stroke="midnightblue" d="M179.61,-168.08C179.61,-161.01 179.61,-150.86 179.61,-141.99"/>
<polygon fill="midnightblue" stroke="midnightblue" points="183.11,-141.75 179.61,-131.75 176.11,-141.75 183.11,-141.75"/>
</g>
<!-- Node7 -->
<g id="node7" class="node">
<title>Node7</title>
<g id="a_node7"><a xlink:href="CameraProjection_8hpp.html" target="_top" xlink:title=" ">
<polygon fill="white" stroke="black" points="232.61,-56.5 232.61,-75.5 398.61,-75.5 398.61,-56.5 232.61,-56.5"/>
<text text-anchor="middle" x="315.61" y="-63.5" font-family="Helvetica,sans-Serif" font-size="10.00">Camera/CameraProjection.hpp</text>
</a>
</g>
</g>
<!-- Node2&#45;&gt;Node7 -->
<g id="edge8" class="edge">
<title>Node2&#45;&gt;Node7</title>
<path fill="none" stroke="midnightblue" d="M194.44,-168.47C208.81,-159.94 230.96,-146.1 248.61,-132 267.69,-116.75 287.53,-96.93 300.62,-83.2"/>
<polygon fill="midnightblue" stroke="midnightblue" points="303.53,-85.22 307.83,-75.54 298.43,-80.42 303.53,-85.22"/>
</g>
<!-- Node8 -->
<g id="node8" class="node">
<title>Node8</title>
<g id="a_node8"><a xlink:href="CameraMode_8hpp.html" target="_top" xlink:title=" ">
<polygon fill="white" stroke="black" points="336.61,-112.5 336.61,-131.5 480.61,-131.5 480.61,-112.5 336.61,-112.5"/>
<text text-anchor="middle" x="408.61" y="-119.5" font-family="Helvetica,sans-Serif" font-size="10.00">Camera/CameraMode.hpp</text>
</a>
</g>
</g>
<!-- Node2&#45;&gt;Node8 -->
<g id="edge10" class="edge">
<title>Node2&#45;&gt;Node8</title>
<path fill="none" stroke="midnightblue" d="M215.9,-168.44C255.59,-159.08 319.32,-144.06 362.52,-133.87"/>
<polygon fill="midnightblue" stroke="midnightblue" points="363.56,-137.22 372.49,-131.52 361.96,-130.41 363.56,-137.22"/>
</g>
<!-- Node4&#45;&gt;Node3 -->
<g id="edge4" class="edge">
<title>Node4&#45;&gt;Node3</title>
<path fill="none" stroke="midnightblue" d="M89.8,-56.32C106.96,-47.66 133.56,-34.24 153.36,-24.25"/>
<polygon fill="midnightblue" stroke="midnightblue" points="155.11,-27.28 162.46,-19.65 151.96,-21.04 155.11,-27.28"/>
</g>
<!-- Node6 -->
<g id="node6" class="node">
<title>Node6</title>
<g id="a_node6"><a xlink:href="Matrix_8hpp.html" target="_top" xlink:title=" ">
<polygon fill="white" stroke="black" points="145.11,-56.5 145.11,-75.5 214.11,-75.5 214.11,-56.5 145.11,-56.5"/>
<text text-anchor="middle" x="179.61" y="-63.5" font-family="Helvetica,sans-Serif" font-size="10.00">Matrix.hpp</text>
</a>
</g>
</g>
<!-- Node5&#45;&gt;Node6 -->
<g id="edge6" class="edge">
<title>Node5&#45;&gt;Node6</title>
<path fill="none" stroke="midnightblue" d="M179.61,-112.08C179.61,-105.01 179.61,-94.86 179.61,-85.99"/>
<polygon fill="midnightblue" stroke="midnightblue" points="183.11,-85.75 179.61,-75.75 176.11,-85.75 183.11,-85.75"/>
</g>
<!-- Node6&#45;&gt;Node3 -->
<g id="edge7" class="edge">
<title>Node6&#45;&gt;Node3</title>
<path fill="none" stroke="midnightblue" d="M179.61,-56.08C179.61,-49.01 179.61,-38.86 179.61,-29.99"/>
<polygon fill="midnightblue" stroke="midnightblue" points="183.11,-29.75 179.61,-19.75 176.11,-29.75 183.11,-29.75"/>
</g>
<!-- Node7&#45;&gt;Node3 -->
<g id="edge9" class="edge">
<title>Node7&#45;&gt;Node3</title>
<path fill="none" stroke="midnightblue" d="M294.06,-56.44C271.58,-47.52 236.12,-33.44 210.63,-23.32"/>
<polygon fill="midnightblue" stroke="midnightblue" points="211.65,-19.95 201.06,-19.52 209.06,-26.46 211.65,-19.95"/>
</g>
<!-- Node8&#45;&gt;Node3 -->
<g id="edge11" class="edge">
<title>Node8&#45;&gt;Node3</title>
<path fill="none" stroke="midnightblue" d="M411.58,-112.25C415.61,-98.55 420.92,-71.94 407.61,-56 383.63,-27.28 274.74,-16.56 216.54,-12.83"/>
<polygon fill="midnightblue" stroke="midnightblue" points="216.49,-9.32 206.3,-12.21 216.07,-16.3 216.49,-9.32"/>
</g>
</g>
</svg>
