<?xml version="1.0" encoding="UTF-8" standalone="no"?>
<!DOCTYPE svg PUBLIC "-//W3C//DTD SVG 1.1//EN"
 "http://www.w3.org/Graphics/SVG/1.1/DTD/svg11.dtd">
<!-- Generated by graphviz version 2.43.0 (0)
 -->
<!-- Title: BBM::LobbySystem Pages: 1 -->
<svg width="188pt" height="584pt"
 viewBox="0.00 0.00 188.00 584.00" xmlns="http://www.w3.org/2000/svg" xmlns:xlink="http://www.w3.org/1999/xlink">
<g id="graph0" class="graph" transform="scale(1 1) rotate(0) translate(4 580)">
<title>BBM::LobbySystem</title>
<polygon fill="white" stroke="transparent" points="-4,4 -4,-580 184,-580 184,4 -4,4"/>
<!-- Node1 -->
<g id="node1" class="node">
<title>Node1</title>
<g id="a_node1"><a xlink:title="A system to handle Health entities.">
<polygon fill="#bfbfbf" stroke="black" points="30.5,-0.5 30.5,-233.5 149.5,-233.5 149.5,-0.5 30.5,-0.5"/>
<text text-anchor="middle" x="90" y="-221.5" font-family="Helvetica,sans-Serif" font-size="10.00">BBM::LobbySystem</text>
<polyline fill="none" stroke="black" points="30.5,-214.5 149.5,-214.5 "/>
<text text-anchor="start" x="38.5" y="-202.5" font-family="Helvetica,sans-Serif" font-size="10.00">+ colors</text>
<text text-anchor="start" x="38.5" y="-191.5" font-family="Helvetica,sans-Serif" font-size="10.00">&#45; _colorTaken</text>
<text text-anchor="start" x="38.5" y="-180.5" font-family="Helvetica,sans-Serif" font-size="10.00">&#45; _rayColors</text>
<polyline fill="none" stroke="black" points="30.5,-173.5 149.5,-173.5 "/>
<text text-anchor="start" x="38.5" y="-161.5" font-family="Helvetica,sans-Serif" font-size="10.00">+ onUpdate()</text>
<text text-anchor="start" x="38.5" y="-150.5" font-family="Helvetica,sans-Serif" font-size="10.00">+ onSelfUpdate()</text>
<text text-anchor="start" x="38.5" y="-139.5" font-family="Helvetica,sans-Serif" font-size="10.00">+ unloadLobby()</text>
<text text-anchor="start" x="38.5" y="-128.5" font-family="Helvetica,sans-Serif" font-size="10.00">+ addAI()</text>
<text text-anchor="start" x="38.5" y="-117.5" font-family="Helvetica,sans-Serif" font-size="10.00">+ removeAI()</text>
<text text-anchor="start" x="38.5" y="-106.5" font-family="Helvetica,sans-Serif" font-size="10.00">+ LobbySystem()</text>
<text text-anchor="start" x="38.5" y="-95.5" font-family="Helvetica,sans-Serif" font-size="10.00">+ LobbySystem()</text>
<text text-anchor="start" x="38.5" y="-84.5" font-family="Helvetica,sans-Serif" font-size="10.00">+ ~LobbySystem()</text>
<text text-anchor="start" x="38.5" y="-73.5" font-family="Helvetica,sans-Serif" font-size="10.00">+ operator=()</text>
<text text-anchor="start" x="38.5" y="-62.5" font-family="Helvetica,sans-Serif" font-size="10.00">+ addController()</text>
<text text-anchor="start" x="38.5" y="-51.5" font-family="Helvetica,sans-Serif" font-size="10.00">+ createTile()</text>
<text text-anchor="start" x="38.5" y="-40.5" font-family="Helvetica,sans-Serif" font-size="10.00">+ playersAreReady()</text>
<text text-anchor="start" x="38.5" y="-29.5" font-family="Helvetica,sans-Serif" font-size="10.00">+ switchToGame()</text>
<text text-anchor="start" x="38.5" y="-18.5" font-family="Helvetica,sans-Serif" font-size="10.00">&#45; _canJoin()</text>
<text text-anchor="start" x="38.5" y="-7.5" font-family="Helvetica,sans-Serif" font-size="10.00">&#45; _nextColor()</text>
</a>
</g>
</g>
<!-- Node2 -->
<g id="node2" class="node">
<title>Node2</title>
<g id="a_node2"><a xlink:href="classWAL_1_1System.html" target="_top" xlink:title=" ">
<polygon fill="white" stroke="black" points="0,-270.5 0,-448.5 180,-448.5 180,-270.5 0,-270.5"/>
<text text-anchor="start" x="8" y="-436.5" font-family="Helvetica,sans-Serif" font-size="10.00">WAL::System&lt; LobbyComponent,</text>
<text text-anchor="middle" x="90" y="-425.5" font-family="Helvetica,sans-Serif" font-size="10.00"> Drawable2DComponent &gt;</text>
<polyline fill="none" stroke="black" points="0,-418.5 180,-418.5 "/>
<text text-anchor="start" x="8" y="-406.5" font-family="Helvetica,sans-Serif" font-size="10.00"># _wal</text>
<polyline fill="none" stroke="black" points="0,-399.5 180,-399.5 "/>
<text text-anchor="start" x="8" y="-387.5" font-family="Helvetica,sans-Serif" font-size="10.00">+ ~System()</text>
<text text-anchor="start" x="8" y="-376.5" font-family="Helvetica,sans-Serif" font-size="10.00">+ System()</text>
<text text-anchor="start" x="8" y="-365.5" font-family="Helvetica,sans-Serif" font-size="10.00">+ getView()</text>
<text text-anchor="start" x="8" y="-354.5" font-family="Helvetica,sans-Serif" font-size="10.00">+ onUpdate()</text>
<text text-anchor="start" x="8" y="-343.5" font-family="Helvetica,sans-Serif" font-size="10.00">+ onFixedUpdate()</text>
<text text-anchor="start" x="8" y="-332.5" font-family="Helvetica,sans-Serif" font-size="10.00">+ onSelfUpdate()</text>
<text text-anchor="start" x="8" y="-321.5" font-family="Helvetica,sans-Serif" font-size="10.00">+ update()</text>
<text text-anchor="start" x="8" y="-310.5" font-family="Helvetica,sans-Serif" font-size="10.00">+ fixedUpdate()</text>
<text text-anchor="start" x="8" y="-299.5" font-family="Helvetica,sans-Serif" font-size="10.00"># System()</text>
<text text-anchor="start" x="8" y="-288.5" font-family="Helvetica,sans-Serif" font-size="10.00"># System()</text>
<text text-anchor="start" x="8" y="-277.5" font-family="Helvetica,sans-Serif" font-size="10.00"># operator=()</text>
</a>
</g>
</g>
<!-- Node2&#45;&gt;Node1 -->
<g id="edge1" class="edge">
<title>Node2&#45;&gt;Node1</title>
<path fill="none" stroke="midnightblue" d="M90,-260.15C90,-251.42 90,-242.53 90,-233.67"/>
<polygon fill="none" stroke="midnightblue" points="86.5,-260.31 90,-270.31 93.5,-260.31 86.5,-260.31"/>
</g>
<!-- Node3 -->
<g id="node3" class="node">
<title>Node3</title>
<g id="a_node3"><a xlink:href="classWAL_1_1ISystem.html" target="_top" xlink:title="A base class that represent a system.">
<polygon fill="white" stroke="black" points="43,-485.5 43,-575.5 137,-575.5 137,-485.5 43,-485.5"/>
<text text-anchor="middle" x="90" y="-563.5" font-family="Helvetica,sans-Serif" font-size="10.00">WAL::ISystem</text>
<polyline fill="none" stroke="black" points="43,-556.5 137,-556.5 "/>
<text text-anchor="middle" x="90" y="-544.5" font-family="Helvetica,sans-Serif" font-size="10.00"> </text>
<polyline fill="none" stroke="black" points="43,-537.5 137,-537.5 "/>
<text text-anchor="start" x="51" y="-525.5" font-family="Helvetica,sans-Serif" font-size="10.00">+ update()</text>
<text text-anchor="start" x="51" y="-514.5" font-family="Helvetica,sans-Serif" font-size="10.00">+ fixedUpdate()</text>
<text text-anchor="start" x="51" y="-503.5" font-family="Helvetica,sans-Serif" font-size="10.00">+ getView()</text>
<text text-anchor="start" x="51" y="-492.5" font-family="Helvetica,sans-Serif" font-size="10.00">+ ~ISystem()</text>
</a>
</g>
</g>
<!-- Node3&#45;&gt;Node2 -->
<g id="edge2" class="edge">
<title>Node3&#45;&gt;Node2</title>
<path fill="none" stroke="midnightblue" d="M90,-475.06C90,-466.63 90,-457.73 90,-448.78"/>
<polygon fill="none" stroke="midnightblue" points="86.5,-475.1 90,-485.1 93.5,-475.1 86.5,-475.1"/>
</g>
</g>
</svg>
