<?xml version="1.0" encoding="UTF-8" standalone="no"?>
<!DOCTYPE svg PUBLIC "-//W3C//DTD SVG 1.1//EN"
 "http://www.w3.org/Graphics/SVG/1.1/DTD/svg11.dtd">
<!-- Generated by graphviz version 2.43.0 (0)
 -->
<!-- Title: BBM::ButtonComponent&lt; T &gt; Pages: 1 -->
<svg width="170pt" height="347pt"
 viewBox="0.00 0.00 170.00 347.00" xmlns="http://www.w3.org/2000/svg" xmlns:xlink="http://www.w3.org/1999/xlink">
<g id="graph0" class="graph" transform="scale(1 1) rotate(0) translate(4 343)">
<title>BBM::ButtonComponent&lt; T &gt;</title>
<polygon fill="white" stroke="transparent" points="-4,4 -4,-343 166,-343 166,4 -4,4"/>
<!-- Node1 -->
<g id="node1" class="node">
<title>Node1</title>
<g id="a_node1"><a xlink:title=" ">
<polygon fill="#bfbfbf" stroke="black" points="0,-0.5 0,-178.5 162,-178.5 162,-0.5 0,-0.5"/>
<text text-anchor="middle" x="81" y="-166.5" font-family="Helvetica,sans-Serif" font-size="10.00">BBM::ButtonComponent&lt; T &gt;</text>
<polyline fill="none" stroke="black" points="0,-159.5 162,-159.5 "/>
<text text-anchor="start" x="8" y="-147.5" font-family="Helvetica,sans-Serif" font-size="10.00">+ onEvent</text>
<text text-anchor="start" x="8" y="-136.5" font-family="Helvetica,sans-Serif" font-size="10.00">+ _up</text>
<text text-anchor="start" x="8" y="-125.5" font-family="Helvetica,sans-Serif" font-size="10.00">+ _down</text>
<text text-anchor="start" x="8" y="-114.5" font-family="Helvetica,sans-Serif" font-size="10.00">+ _right</text>
<text text-anchor="start" x="8" y="-103.5" font-family="Helvetica,sans-Serif" font-size="10.00">+ _left</text>
<polyline fill="none" stroke="black" points="0,-96.5 162,-96.5 "/>
<text text-anchor="start" x="8" y="-84.5" font-family="Helvetica,sans-Serif" font-size="10.00">+ clone()</text>
<text text-anchor="start" x="8" y="-73.5" font-family="Helvetica,sans-Serif" font-size="10.00">+ ButtonComponent()</text>
<text text-anchor="start" x="8" y="-62.5" font-family="Helvetica,sans-Serif" font-size="10.00">+ ButtonComponent()</text>
<text text-anchor="start" x="8" y="-51.5" font-family="Helvetica,sans-Serif" font-size="10.00">+ setButtonLinks()</text>
<text text-anchor="start" x="8" y="-40.5" font-family="Helvetica,sans-Serif" font-size="10.00">+ ButtonComponent()</text>
<text text-anchor="start" x="8" y="-29.5" font-family="Helvetica,sans-Serif" font-size="10.00">+ ~ButtonComponent()</text>
<text text-anchor="start" x="8" y="-18.5" font-family="Helvetica,sans-Serif" font-size="10.00">+ operator=()</text>
<text text-anchor="start" x="8" y="-7.5" font-family="Helvetica,sans-Serif" font-size="10.00">+ emptyButtonCallback()</text>
</a>
</g>
</g>
<!-- Node2 -->
<g id="node2" class="node">
<title>Node2</title>
<g id="a_node2"><a xlink:href="classWAL_1_1Component.html" target="_top" xlink:title="Represent a single component of WAL.">
<polygon fill="white" stroke="black" points="31,-215.5 31,-338.5 131,-338.5 131,-215.5 31,-215.5"/>
<text text-anchor="middle" x="81" y="-326.5" font-family="Helvetica,sans-Serif" font-size="10.00">WAL::Component</text>
<polyline fill="none" stroke="black" points="31,-319.5 131,-319.5 "/>
<text text-anchor="start" x="39" y="-307.5" font-family="Helvetica,sans-Serif" font-size="10.00"># _entity</text>
<polyline fill="none" stroke="black" points="31,-300.5 131,-300.5 "/>
<text text-anchor="start" x="39" y="-288.5" font-family="Helvetica,sans-Serif" font-size="10.00">+ operator=()</text>
<text text-anchor="start" x="39" y="-277.5" font-family="Helvetica,sans-Serif" font-size="10.00">+ ~Component()</text>
<text text-anchor="start" x="39" y="-266.5" font-family="Helvetica,sans-Serif" font-size="10.00">+ clone()</text>
<text text-anchor="start" x="39" y="-255.5" font-family="Helvetica,sans-Serif" font-size="10.00">+ onStart()</text>
<text text-anchor="start" x="39" y="-244.5" font-family="Helvetica,sans-Serif" font-size="10.00">+ onStop()</text>
<text text-anchor="start" x="39" y="-233.5" font-family="Helvetica,sans-Serif" font-size="10.00"># Component()</text>
<text text-anchor="start" x="39" y="-222.5" font-family="Helvetica,sans-Serif" font-size="10.00"># Component()</text>
</a>
</g>
</g>
<!-- Node2&#45;&gt;Node1 -->
<g id="edge1" class="edge">
<title>Node2&#45;&gt;Node1</title>
<path fill="none" stroke="midnightblue" d="M81,-205.2C81,-196.51 81,-187.54 81,-178.63"/>
<polygon fill="none" stroke="midnightblue" points="77.5,-205.26 81,-215.26 84.5,-205.26 77.5,-205.26"/>
</g>
</g>
</svg>
