<?xml version="1.0" encoding="UTF-8" standalone="no"?>
<!DOCTYPE svg PUBLIC "-//W3C//DTD SVG 1.1//EN"
 "http://www.w3.org/Graphics/SVG/1.1/DTD/svg11.dtd">
<!-- Generated by graphviz version 2.43.0 (0)
 -->
<!-- Title: RAY::Drawables::Drawables3D::Triangle Pages: 1 -->
<svg width="420pt" height="618pt"
 viewBox="0.00 0.00 420.00 618.00" xmlns="http://www.w3.org/2000/svg" xmlns:xlink="http://www.w3.org/1999/xlink">
<g id="graph0" class="graph" transform="scale(1 1) rotate(0) translate(4 614)">
<title>RAY::Drawables::Drawables3D::Triangle</title>
<polygon fill="white" stroke="transparent" points="-4,4 -4,-614 416,-614 416,4 -4,4"/>
<!-- Node1 -->
<g id="node1" class="node">
<title>Node1</title>
<g id="a_node1"><a xlink:title="Triangle in a three&#45;dimensionnal space.">
<polygon fill="#bfbfbf" stroke="black" points="223,-0.5 223,-178.5 378,-178.5 378,-0.5 223,-0.5"/>
<text text-anchor="start" x="231" y="-166.5" font-family="Helvetica,sans-Serif" font-size="10.00">RAY::Drawables::Drawables3</text>
<text text-anchor="middle" x="300.5" y="-155.5" font-family="Helvetica,sans-Serif" font-size="10.00">D::Triangle</text>
<polyline fill="none" stroke="black" points="223,-148.5 378,-148.5 "/>
<text text-anchor="middle" x="300.5" y="-136.5" font-family="Helvetica,sans-Serif" font-size="10.00"> </text>
<polyline fill="none" stroke="black" points="223,-129.5 378,-129.5 "/>
<text text-anchor="start" x="231" y="-117.5" font-family="Helvetica,sans-Serif" font-size="10.00">+ Triangle()</text>
<text text-anchor="start" x="231" y="-106.5" font-family="Helvetica,sans-Serif" font-size="10.00">+ Triangle()</text>
<text text-anchor="start" x="231" y="-95.5" font-family="Helvetica,sans-Serif" font-size="10.00">+ operator=()</text>
<text text-anchor="start" x="231" y="-84.5" font-family="Helvetica,sans-Serif" font-size="10.00">+ ~Triangle()</text>
<text text-anchor="start" x="231" y="-73.5" font-family="Helvetica,sans-Serif" font-size="10.00">+ getPositionA()</text>
<text text-anchor="start" x="231" y="-62.5" font-family="Helvetica,sans-Serif" font-size="10.00">+ getPositionB()</text>
<text text-anchor="start" x="231" y="-51.5" font-family="Helvetica,sans-Serif" font-size="10.00">+ getPositionC()</text>
<text text-anchor="start" x="231" y="-40.5" font-family="Helvetica,sans-Serif" font-size="10.00">+ setPositionA()</text>
<text text-anchor="start" x="231" y="-29.5" font-family="Helvetica,sans-Serif" font-size="10.00">+ setPositionB()</text>
<text text-anchor="start" x="231" y="-18.5" font-family="Helvetica,sans-Serif" font-size="10.00">+ setPositionC()</text>
<text text-anchor="start" x="231" y="-7.5" font-family="Helvetica,sans-Serif" font-size="10.00">+ drawOn()</text>
</a>
</g>
</g>
<!-- Node2 -->
<g id="node2" class="node">
<title>Node2</title>
<g id="a_node2"><a xlink:href="classRAY_1_1Drawables_1_1ADrawable3D.html" target="_top" xlink:title="Abstraction of any three&#45;dimensionnal drawable.">
<polygon fill="white" stroke="black" points="147.5,-216.5 147.5,-383.5 311.5,-383.5 311.5,-216.5 147.5,-216.5"/>
<text text-anchor="middle" x="229.5" y="-371.5" font-family="Helvetica,sans-Serif" font-size="10.00">RAY::Drawables::ADrawable3D</text>
<polyline fill="none" stroke="black" points="147.5,-364.5 311.5,-364.5 "/>
<text text-anchor="middle" x="229.5" y="-352.5" font-family="Helvetica,sans-Serif" font-size="10.00"> </text>
<polyline fill="none" stroke="black" points="147.5,-345.5 311.5,-345.5 "/>
<text text-anchor="start" x="155.5" y="-333.5" font-family="Helvetica,sans-Serif" font-size="10.00">+ ADrawable3D()</text>
<text text-anchor="start" x="155.5" y="-322.5" font-family="Helvetica,sans-Serif" font-size="10.00">+ ADrawable3D()</text>
<text text-anchor="start" x="155.5" y="-311.5" font-family="Helvetica,sans-Serif" font-size="10.00">+ ~ADrawable3D()</text>
<text text-anchor="start" x="155.5" y="-300.5" font-family="Helvetica,sans-Serif" font-size="10.00">+ drawOn()</text>
<text text-anchor="start" x="155.5" y="-289.5" font-family="Helvetica,sans-Serif" font-size="10.00">+ drawWiresOn()</text>
<text text-anchor="start" x="155.5" y="-278.5" font-family="Helvetica,sans-Serif" font-size="10.00">+ getColor()</text>
<text text-anchor="start" x="155.5" y="-267.5" font-family="Helvetica,sans-Serif" font-size="10.00">+ setColor()</text>
<text text-anchor="start" x="155.5" y="-256.5" font-family="Helvetica,sans-Serif" font-size="10.00">+ getDebugColor()</text>
<text text-anchor="start" x="155.5" y="-245.5" font-family="Helvetica,sans-Serif" font-size="10.00">+ setDebugColor()</text>
<text text-anchor="start" x="155.5" y="-234.5" font-family="Helvetica,sans-Serif" font-size="10.00">+ getPosition()</text>
<text text-anchor="start" x="155.5" y="-223.5" font-family="Helvetica,sans-Serif" font-size="10.00">+ setPosition()</text>
</a>
</g>
</g>
<!-- Node2&#45;&gt;Node1 -->
<g id="edge1" class="edge">
<title>Node2&#45;&gt;Node1</title>
<path fill="none" stroke="midnightblue" d="M260.95,-206.64C264.13,-197.32 267.35,-187.86 270.5,-178.59"/>
<polygon fill="none" stroke="midnightblue" points="257.57,-205.7 257.66,-216.3 264.2,-207.96 257.57,-205.7"/>
</g>
<!-- Node3 -->
<g id="node3" class="node">
<title>Node3</title>
<g id="a_node3"><a xlink:href="classRAY_1_1Drawables_1_1IDrawable.html" target="_top" xlink:title="Interface for any drawable.">
<polygon fill="white" stroke="black" points="0,-492 0,-560 147,-560 147,-492 0,-492"/>
<text text-anchor="middle" x="73.5" y="-548" font-family="Helvetica,sans-Serif" font-size="10.00">RAY::Drawables::IDrawable</text>
<polyline fill="none" stroke="black" points="0,-541 147,-541 "/>
<text text-anchor="middle" x="73.5" y="-529" font-family="Helvetica,sans-Serif" font-size="10.00"> </text>
<polyline fill="none" stroke="black" points="0,-522 147,-522 "/>
<text text-anchor="start" x="8" y="-510" font-family="Helvetica,sans-Serif" font-size="10.00">+ ~IDrawable()</text>
<text text-anchor="start" x="8" y="-499" font-family="Helvetica,sans-Serif" font-size="10.00">+ drawOn()</text>
</a>
</g>
</g>
<!-- Node3&#45;&gt;Node2 -->
<g id="edge2" class="edge">
<title>Node3&#45;&gt;Node2</title>
<path fill="none" stroke="midnightblue" d="M102.34,-483.59C121.85,-455.58 148.29,-417.62 172,-383.56"/>
<polygon fill="none" stroke="midnightblue" points="99.36,-481.74 96.52,-491.95 105.11,-485.74 99.36,-481.74"/>
</g>
<!-- Node4 -->
<g id="node4" class="node">
<title>Node4</title>
<g id="a_node4"><a xlink:href="classRAY_1_1Color.html" target="_top" xlink:title="Object representation of color.">
<polygon fill="white" stroke="black" points="165,-442.5 165,-609.5 250,-609.5 250,-442.5 165,-442.5"/>
<text text-anchor="middle" x="207.5" y="-597.5" font-family="Helvetica,sans-Serif" font-size="10.00">RAY::Color</text>
<polyline fill="none" stroke="black" points="165,-590.5 250,-590.5 "/>
<text text-anchor="start" x="173" y="-578.5" font-family="Helvetica,sans-Serif" font-size="10.00">&#45; __pad0__</text>
<polyline fill="none" stroke="black" points="165,-571.5 250,-571.5 "/>
<text text-anchor="start" x="173" y="-559.5" font-family="Helvetica,sans-Serif" font-size="10.00">+ Color()</text>
<text text-anchor="start" x="173" y="-548.5" font-family="Helvetica,sans-Serif" font-size="10.00">+ Color()</text>
<text text-anchor="start" x="173" y="-537.5" font-family="Helvetica,sans-Serif" font-size="10.00">+ Color()</text>
<text text-anchor="start" x="173" y="-526.5" font-family="Helvetica,sans-Serif" font-size="10.00">+ Color()</text>
<text text-anchor="start" x="173" y="-515.5" font-family="Helvetica,sans-Serif" font-size="10.00">+ Color()</text>
<text text-anchor="start" x="173" y="-504.5" font-family="Helvetica,sans-Serif" font-size="10.00">+ ~Color()</text>
<text text-anchor="start" x="173" y="-493.5" font-family="Helvetica,sans-Serif" font-size="10.00">+ operator=()</text>
<text text-anchor="start" x="173" y="-482.5" font-family="Helvetica,sans-Serif" font-size="10.00">+ setR()</text>
<text text-anchor="start" x="173" y="-471.5" font-family="Helvetica,sans-Serif" font-size="10.00">+ setG()</text>
<text text-anchor="start" x="173" y="-460.5" font-family="Helvetica,sans-Serif" font-size="10.00">+ setB()</text>
<text text-anchor="start" x="173" y="-449.5" font-family="Helvetica,sans-Serif" font-size="10.00">and 6 more...</text>
</a>
</g>
</g>
<!-- Node4&#45;&gt;Node2 -->
<g id="edge3" class="edge">
<title>Node4&#45;&gt;Node2</title>
<path fill="none" stroke="#404040" d="M203.14,-442.48C203.29,-428.92 203.97,-415.05 205.5,-402 205.74,-399.94 206.01,-397.86 206.3,-395.77"/>
<polygon fill="none" stroke="#404040" points="206.34,-395.53 203.33,-388.97 208.22,-383.67 211.23,-390.23 206.34,-395.53"/>
<text text-anchor="middle" x="242" y="-416" font-family="Helvetica,sans-Serif" font-size="10.00"> #_debugColor</text>
<text text-anchor="middle" x="242" y="-405" font-family="Helvetica,sans-Serif" font-size="10.00">#_color</text>
</g>
<!-- Node4&#45;&gt;Node4 -->
<g id="edge4" class="edge">
<title>Node4&#45;&gt;Node4</title>
<path fill="none" stroke="#404040" d="M250.18,-546.63C260.42,-545.02 268,-538.14 268,-526 268,-518.98 265.47,-513.72 261.35,-510.22"/>
<polygon fill="none" stroke="#404040" points="261.19,-510.15 254.09,-511.43 250.18,-505.37 257.28,-504.09 261.19,-510.15"/>
<text text-anchor="middle" x="286.5" y="-523.5" font-family="Helvetica,sans-Serif" font-size="10.00"> &#45;_color</text>
</g>
<!-- Node5 -->
<g id="node5" class="node">
<title>Node5</title>
<g id="a_node5"><a xlink:href="classRAY_1_1Vector3.html" target="_top" xlink:title="A Three&#45;dimensionnal Vector data type.">
<polygon fill="white" stroke="black" points="327,-453.5 327,-598.5 412,-598.5 412,-453.5 327,-453.5"/>
<text text-anchor="middle" x="369.5" y="-586.5" font-family="Helvetica,sans-Serif" font-size="10.00">RAY::Vector3</text>
<polyline fill="none" stroke="black" points="327,-579.5 412,-579.5 "/>
<text text-anchor="start" x="335" y="-567.5" font-family="Helvetica,sans-Serif" font-size="10.00">+ x</text>
<text text-anchor="start" x="335" y="-556.5" font-family="Helvetica,sans-Serif" font-size="10.00">+ y</text>
<text text-anchor="start" x="335" y="-545.5" font-family="Helvetica,sans-Serif" font-size="10.00">+ z</text>
<text text-anchor="start" x="335" y="-534.5" font-family="Helvetica,sans-Serif" font-size="10.00">+ __pad0__</text>
<polyline fill="none" stroke="black" points="327,-527.5 412,-527.5 "/>
<text text-anchor="start" x="335" y="-515.5" font-family="Helvetica,sans-Serif" font-size="10.00">+ Vector3()</text>
<text text-anchor="start" x="335" y="-504.5" font-family="Helvetica,sans-Serif" font-size="10.00">+ Vector3()</text>
<text text-anchor="start" x="335" y="-493.5" font-family="Helvetica,sans-Serif" font-size="10.00">+ Vector3()</text>
<text text-anchor="start" x="335" y="-482.5" font-family="Helvetica,sans-Serif" font-size="10.00">+ Vector3()</text>
<text text-anchor="start" x="335" y="-471.5" font-family="Helvetica,sans-Serif" font-size="10.00">+ ~Vector3()</text>
<text text-anchor="start" x="335" y="-460.5" font-family="Helvetica,sans-Serif" font-size="10.00">+ operator=()</text>
</a>
</g>
</g>
<!-- Node5&#45;&gt;Node1 -->
<g id="edge6" class="edge">
<title>Node5&#45;&gt;Node1</title>
<path fill="none" stroke="#404040" d="M363.53,-453.34C361.84,-436.47 359.82,-418.57 357.5,-402 347.57,-331.05 332.98,-251.62 321.04,-190.72"/>
<polygon fill="none" stroke="#404040" points="321.01,-190.57 315.93,-185.46 318.69,-178.8 323.78,-183.91 321.01,-190.57"/>
<text text-anchor="middle" x="373" y="-303" font-family="Helvetica,sans-Serif" font-size="10.00"> &#45;_posB</text>
<text text-anchor="middle" x="373" y="-292" font-family="Helvetica,sans-Serif" font-size="10.00">&#45;_posC</text>
</g>
<!-- Node5&#45;&gt;Node2 -->
<g id="edge5" class="edge">
<title>Node5&#45;&gt;Node2</title>
<path fill="none" stroke="#404040" d="M326.81,-460.04C322.69,-453.92 318.53,-447.83 314.5,-442 308.88,-433.89 306.89,-432.27 301.5,-424 295.28,-414.46 288.98,-404.38 282.81,-394.25"/>
<polygon fill="none" stroke="#404040" points="282.65,-393.98 276.12,-390.91 276.45,-383.71 282.97,-386.78 282.65,-393.98"/>
<text text-anchor="middle" x="329.5" y="-410.5" font-family="Helvetica,sans-Serif" font-size="10.00"> #_position</text>
</g>
</g>
</svg>
