<?xml version="1.0" encoding="UTF-8" standalone="no"?>
<!DOCTYPE svg PUBLIC "-//W3C//DTD SVG 1.1//EN"
 "http://www.w3.org/Graphics/SVG/1.1/DTD/svg11.dtd">
<!-- Generated by graphviz version 2.43.0 (0)
 -->
<!-- Title: BBM::TagComponent&lt; name &gt; Pages: 1 -->
<svg width="134pt" height="281pt"
 viewBox="0.00 0.00 134.00 281.00" xmlns="http://www.w3.org/2000/svg" xmlns:xlink="http://www.w3.org/1999/xlink">
<g id="graph0" class="graph" transform="scale(1 1) rotate(0) translate(4 277)">
<title>BBM::TagComponent&lt; name &gt;</title>
<polygon fill="white" stroke="transparent" points="-4,4 -4,-277 130,-277 130,4 -4,4"/>
<!-- Node1 -->
<g id="node1" class="node">
<title>Node1</title>
<g id="a_node1"><a xlink:title=" ">
<polygon fill="#bfbfbf" stroke="black" points="0,-0.5 0,-112.5 126,-112.5 126,-0.5 0,-0.5"/>
<text text-anchor="start" x="8" y="-100.5" font-family="Helvetica,sans-Serif" font-size="10.00">BBM::TagComponent&lt;</text>
<text text-anchor="middle" x="63" y="-89.5" font-family="Helvetica,sans-Serif" font-size="10.00"> name &gt;</text>
<polyline fill="none" stroke="black" points="0,-82.5 126,-82.5 "/>
<text text-anchor="middle" x="63" y="-70.5" font-family="Helvetica,sans-Serif" font-size="10.00"> </text>
<polyline fill="none" stroke="black" points="0,-63.5 126,-63.5 "/>
<text text-anchor="start" x="8" y="-51.5" font-family="Helvetica,sans-Serif" font-size="10.00">+ clone()</text>
<text text-anchor="start" x="8" y="-40.5" font-family="Helvetica,sans-Serif" font-size="10.00">+ TagComponent()</text>
<text text-anchor="start" x="8" y="-29.5" font-family="Helvetica,sans-Serif" font-size="10.00">+ TagComponent()</text>
<text text-anchor="start" x="8" y="-18.5" font-family="Helvetica,sans-Serif" font-size="10.00">+ ~TagComponent()</text>
<text text-anchor="start" x="8" y="-7.5" font-family="Helvetica,sans-Serif" font-size="10.00">+ operator=()</text>
</a>
</g>
</g>
<!-- Node2 -->
<g id="node2" class="node">
<title>Node2</title>
<g id="a_node2"><a xlink:href="classWAL_1_1Component.html" target="_top" xlink:title="Represent a single component of WAL.">
<polygon fill="white" stroke="black" points="13,-149.5 13,-272.5 113,-272.5 113,-149.5 13,-149.5"/>
<text text-anchor="middle" x="63" y="-260.5" font-family="Helvetica,sans-Serif" font-size="10.00">WAL::Component</text>
<polyline fill="none" stroke="black" points="13,-253.5 113,-253.5 "/>
<text text-anchor="start" x="21" y="-241.5" font-family="Helvetica,sans-Serif" font-size="10.00"># _entity</text>
<polyline fill="none" stroke="black" points="13,-234.5 113,-234.5 "/>
<text text-anchor="start" x="21" y="-222.5" font-family="Helvetica,sans-Serif" font-size="10.00">+ operator=()</text>
<text text-anchor="start" x="21" y="-211.5" font-family="Helvetica,sans-Serif" font-size="10.00">+ ~Component()</text>
<text text-anchor="start" x="21" y="-200.5" font-family="Helvetica,sans-Serif" font-size="10.00">+ clone()</text>
<text text-anchor="start" x="21" y="-189.5" font-family="Helvetica,sans-Serif" font-size="10.00">+ onStart()</text>
<text text-anchor="start" x="21" y="-178.5" font-family="Helvetica,sans-Serif" font-size="10.00">+ onStop()</text>
<text text-anchor="start" x="21" y="-167.5" font-family="Helvetica,sans-Serif" font-size="10.00"># Component()</text>
<text text-anchor="start" x="21" y="-156.5" font-family="Helvetica,sans-Serif" font-size="10.00"># Component()</text>
</a>
</g>
</g>
<!-- Node2&#45;&gt;Node1 -->
<g id="edge1" class="edge">
<title>Node2&#45;&gt;Node1</title>
<path fill="none" stroke="midnightblue" d="M63,-139.25C63,-130.29 63,-121.23 63,-112.56"/>
<polygon fill="none" stroke="midnightblue" points="59.5,-139.29 63,-149.29 66.5,-139.29 59.5,-139.29"/>
</g>
</g>
</svg>
