<?xml version="1.0" encoding="UTF-8" standalone="no"?>
<!DOCTYPE svg PUBLIC "-//W3C//DTD SVG 1.1//EN"
 "http://www.w3.org/Graphics/SVG/1.1/DTD/svg11.dtd">
<!-- Generated by graphviz version 2.43.0 (0)
 -->
<!-- Title: RAY::Image Pages: 1 -->
<svg width="172pt" height="799pt"
 viewBox="0.00 0.00 172.00 799.00" xmlns="http://www.w3.org/2000/svg" xmlns:xlink="http://www.w3.org/1999/xlink">
<g id="graph0" class="graph" transform="scale(1 1) rotate(0) translate(4 795)">
<title>RAY::Image</title>
<polygon fill="white" stroke="transparent" points="-4,4 -4,-795 168,-795 168,4 -4,4"/>
<!-- Node1 -->
<g id="node1" class="node">
<title>Node1</title>
<g id="a_node1"><a xlink:title="Object representation of a framebuffer.">
<polygon fill="#bfbfbf" stroke="black" points="23.5,-0.5 23.5,-200.5 140.5,-200.5 140.5,-0.5 23.5,-0.5"/>
<text text-anchor="middle" x="82" y="-188.5" font-family="Helvetica,sans-Serif" font-size="10.00">RAY::Image</text>
<polyline fill="none" stroke="black" points="23.5,-181.5 140.5,-181.5 "/>
<text text-anchor="start" x="31.5" y="-169.5" font-family="Helvetica,sans-Serif" font-size="10.00">&#45; _image</text>
<text text-anchor="start" x="31.5" y="-158.5" font-family="Helvetica,sans-Serif" font-size="10.00">&#45; _ressourcePath</text>
<text text-anchor="start" x="31.5" y="-147.5" font-family="Helvetica,sans-Serif" font-size="10.00">&#45; __pad0__</text>
<text text-anchor="start" x="31.5" y="-136.5" font-family="Helvetica,sans-Serif" font-size="10.00">&#45; _imagesCache</text>
<polyline fill="none" stroke="black" points="23.5,-129.5 140.5,-129.5 "/>
<text text-anchor="start" x="31.5" y="-117.5" font-family="Helvetica,sans-Serif" font-size="10.00">+ Image()</text>
<text text-anchor="start" x="31.5" y="-106.5" font-family="Helvetica,sans-Serif" font-size="10.00">+ Image()</text>
<text text-anchor="start" x="31.5" y="-95.5" font-family="Helvetica,sans-Serif" font-size="10.00">+ operator=()</text>
<text text-anchor="start" x="31.5" y="-84.5" font-family="Helvetica,sans-Serif" font-size="10.00">+ ~Image()</text>
<text text-anchor="start" x="31.5" y="-73.5" font-family="Helvetica,sans-Serif" font-size="10.00">+ exportTo()</text>
<text text-anchor="start" x="31.5" y="-62.5" font-family="Helvetica,sans-Serif" font-size="10.00">+ draw()</text>
<text text-anchor="start" x="31.5" y="-51.5" font-family="Helvetica,sans-Serif" font-size="10.00">+ drawOn()</text>
<text text-anchor="start" x="31.5" y="-40.5" font-family="Helvetica,sans-Serif" font-size="10.00">+ drawOn()</text>
<text text-anchor="start" x="31.5" y="-29.5" font-family="Helvetica,sans-Serif" font-size="10.00">+ resize()</text>
<text text-anchor="start" x="31.5" y="-18.5" font-family="Helvetica,sans-Serif" font-size="10.00">+ use()</text>
<text text-anchor="start" x="31.5" y="-7.5" font-family="Helvetica,sans-Serif" font-size="10.00">&#45; operator::Image *()</text>
</a>
</g>
</g>
<!-- Node2 -->
<g id="node2" class="node">
<title>Node2</title>
<g id="a_node2"><a xlink:href="classRAY_1_1Drawables_1_1Drawables2D_1_1Rectangle.html" target="_top" xlink:title="Rectangle in a two&#45;dimensional space.">
<polygon fill="white" stroke="black" points="4.5,-237.5 4.5,-426.5 159.5,-426.5 159.5,-237.5 4.5,-237.5"/>
<text text-anchor="start" x="12.5" y="-414.5" font-family="Helvetica,sans-Serif" font-size="10.00">RAY::Drawables::Drawables2</text>
<text text-anchor="middle" x="82" y="-403.5" font-family="Helvetica,sans-Serif" font-size="10.00">D::Rectangle</text>
<polyline fill="none" stroke="black" points="4.5,-396.5 159.5,-396.5 "/>
<text text-anchor="start" x="12.5" y="-384.5" font-family="Helvetica,sans-Serif" font-size="10.00"># _dimensions</text>
<text text-anchor="start" x="12.5" y="-373.5" font-family="Helvetica,sans-Serif" font-size="10.00"># __pad0__</text>
<polyline fill="none" stroke="black" points="4.5,-366.5 159.5,-366.5 "/>
<text text-anchor="start" x="12.5" y="-354.5" font-family="Helvetica,sans-Serif" font-size="10.00">+ Rectangle()</text>
<text text-anchor="start" x="12.5" y="-343.5" font-family="Helvetica,sans-Serif" font-size="10.00">+ Rectangle()</text>
<text text-anchor="start" x="12.5" y="-332.5" font-family="Helvetica,sans-Serif" font-size="10.00">+ Rectangle()</text>
<text text-anchor="start" x="12.5" y="-321.5" font-family="Helvetica,sans-Serif" font-size="10.00">+ operator=()</text>
<text text-anchor="start" x="12.5" y="-310.5" font-family="Helvetica,sans-Serif" font-size="10.00">+ ~Rectangle()</text>
<text text-anchor="start" x="12.5" y="-299.5" font-family="Helvetica,sans-Serif" font-size="10.00">+ getDimensions()</text>
<text text-anchor="start" x="12.5" y="-288.5" font-family="Helvetica,sans-Serif" font-size="10.00">+ getWidth()</text>
<text text-anchor="start" x="12.5" y="-277.5" font-family="Helvetica,sans-Serif" font-size="10.00">+ getHeight()</text>
<text text-anchor="start" x="12.5" y="-266.5" font-family="Helvetica,sans-Serif" font-size="10.00">+ setDimensions()</text>
<text text-anchor="start" x="12.5" y="-255.5" font-family="Helvetica,sans-Serif" font-size="10.00">+ incrementWidth()</text>
<text text-anchor="start" x="12.5" y="-244.5" font-family="Helvetica,sans-Serif" font-size="10.00">and 6 more...</text>
</a>
</g>
</g>
<!-- Node2&#45;&gt;Node1 -->
<g id="edge1" class="edge">
<title>Node2&#45;&gt;Node1</title>
<path fill="none" stroke="midnightblue" d="M82,-227.11C82,-218.38 82,-209.55 82,-200.85"/>
<polygon fill="none" stroke="midnightblue" points="78.5,-227.32 82,-237.32 85.5,-227.32 78.5,-227.32"/>
</g>
<!-- Node3 -->
<g id="node3" class="node">
<title>Node3</title>
<g id="a_node3"><a xlink:href="classRAY_1_1Drawables_1_1ADrawable2D.html" target="_top" xlink:title="Abstraction of any two&#45;dimensionnal drawable.">
<polygon fill="white" stroke="black" points="0,-463.5 0,-685.5 164,-685.5 164,-463.5 0,-463.5"/>
<text text-anchor="middle" x="82" y="-673.5" font-family="Helvetica,sans-Serif" font-size="10.00">RAY::Drawables::ADrawable2D</text>
<polyline fill="none" stroke="black" points="0,-666.5 164,-666.5 "/>
<text text-anchor="start" x="8" y="-654.5" font-family="Helvetica,sans-Serif" font-size="10.00"># _rotation</text>
<text text-anchor="start" x="8" y="-643.5" font-family="Helvetica,sans-Serif" font-size="10.00"># _scale</text>
<text text-anchor="start" x="8" y="-632.5" font-family="Helvetica,sans-Serif" font-size="10.00"># _position</text>
<text text-anchor="start" x="8" y="-621.5" font-family="Helvetica,sans-Serif" font-size="10.00"># _color</text>
<polyline fill="none" stroke="black" points="0,-614.5 164,-614.5 "/>
<text text-anchor="start" x="8" y="-602.5" font-family="Helvetica,sans-Serif" font-size="10.00">+ ADrawable2D()</text>
<text text-anchor="start" x="8" y="-591.5" font-family="Helvetica,sans-Serif" font-size="10.00">+ ADrawable2D()</text>
<text text-anchor="start" x="8" y="-580.5" font-family="Helvetica,sans-Serif" font-size="10.00">+ ADrawable2D()</text>
<text text-anchor="start" x="8" y="-569.5" font-family="Helvetica,sans-Serif" font-size="10.00">+ ~ADrawable2D()</text>
<text text-anchor="start" x="8" y="-558.5" font-family="Helvetica,sans-Serif" font-size="10.00">+ getPosition()</text>
<text text-anchor="start" x="8" y="-547.5" font-family="Helvetica,sans-Serif" font-size="10.00">+ getColor()</text>
<text text-anchor="start" x="8" y="-536.5" font-family="Helvetica,sans-Serif" font-size="10.00">+ setPosition()</text>
<text text-anchor="start" x="8" y="-525.5" font-family="Helvetica,sans-Serif" font-size="10.00">+ setPosition()</text>
<text text-anchor="start" x="8" y="-514.5" font-family="Helvetica,sans-Serif" font-size="10.00">+ setColor()</text>
<text text-anchor="start" x="8" y="-503.5" font-family="Helvetica,sans-Serif" font-size="10.00">+ drawOn()</text>
<text text-anchor="start" x="8" y="-492.5" font-family="Helvetica,sans-Serif" font-size="10.00">+ drawOn()</text>
<text text-anchor="start" x="8" y="-481.5" font-family="Helvetica,sans-Serif" font-size="10.00">+ getScale()</text>
<text text-anchor="start" x="8" y="-470.5" font-family="Helvetica,sans-Serif" font-size="10.00">+ setScale()</text>
</a>
</g>
</g>
<!-- Node3&#45;&gt;Node2 -->
<g id="edge2" class="edge">
<title>Node3&#45;&gt;Node2</title>
<path fill="none" stroke="midnightblue" d="M82,-453.39C82,-444.46 82,-435.54 82,-426.81"/>
<polygon fill="none" stroke="midnightblue" points="78.5,-453.46 82,-463.46 85.5,-453.46 78.5,-453.46"/>
</g>
<!-- Node4 -->
<g id="node4" class="node">
<title>Node4</title>
<g id="a_node4"><a xlink:href="classRAY_1_1Drawables_1_1IDrawable.html" target="_top" xlink:title="Interface for any drawable.">
<polygon fill="white" stroke="black" points="8.5,-722.5 8.5,-790.5 155.5,-790.5 155.5,-722.5 8.5,-722.5"/>
<text text-anchor="middle" x="82" y="-778.5" font-family="Helvetica,sans-Serif" font-size="10.00">RAY::Drawables::IDrawable</text>
<polyline fill="none" stroke="black" points="8.5,-771.5 155.5,-771.5 "/>
<text text-anchor="middle" x="82" y="-759.5" font-family="Helvetica,sans-Serif" font-size="10.00"> </text>
<polyline fill="none" stroke="black" points="8.5,-752.5 155.5,-752.5 "/>
<text text-anchor="start" x="16.5" y="-740.5" font-family="Helvetica,sans-Serif" font-size="10.00">+ ~IDrawable()</text>
<text text-anchor="start" x="16.5" y="-729.5" font-family="Helvetica,sans-Serif" font-size="10.00">+ drawOn()</text>
</a>
</g>
</g>
<!-- Node4&#45;&gt;Node3 -->
<g id="edge3" class="edge">
<title>Node4&#45;&gt;Node3</title>
<path fill="none" stroke="midnightblue" d="M82,-712.35C82,-704.01 82,-694.92 82,-685.52"/>
<polygon fill="none" stroke="midnightblue" points="78.5,-712.49 82,-722.49 85.5,-712.49 78.5,-712.49"/>
</g>
</g>
</svg>
