<?xml version="1.0" encoding="UTF-8" standalone="no"?>
<!DOCTYPE svg PUBLIC "-//W3C//DTD SVG 1.1//EN"
 "http://www.w3.org/Graphics/SVG/1.1/DTD/svg11.dtd">
<!-- Generated by graphviz version 2.43.0 (0)
 -->
<!-- Title: WAL::WalError Pages: 1 -->
<svg width="252pt" height="320pt"
 viewBox="0.00 0.00 252.00 320.00" xmlns="http://www.w3.org/2000/svg" xmlns:xlink="http://www.w3.org/1999/xlink">
<g id="graph0" class="graph" transform="scale(1 1) rotate(0) translate(4 316)">
<title>WAL::WalError</title>
<polygon fill="white" stroke="transparent" points="-4,4 -4,-316 248,-316 248,4 -4,4"/>
<!-- Node1 -->
<g id="node1" class="node">
<title>Node1</title>
<g id="a_node1"><a xlink:title="The base class for WAL&#39;s exceptions.">
<polygon fill="#bfbfbf" stroke="black" points="79,-127.5 79,-217.5 164,-217.5 164,-127.5 79,-127.5"/>
<text text-anchor="middle" x="121.5" y="-205.5" font-family="Helvetica,sans-Serif" font-size="10.00">WAL::WalError</text>
<polyline fill="none" stroke="black" points="79,-198.5 164,-198.5 "/>
<text text-anchor="middle" x="121.5" y="-186.5" font-family="Helvetica,sans-Serif" font-size="10.00"> </text>
<polyline fill="none" stroke="black" points="79,-179.5 164,-179.5 "/>
<text text-anchor="start" x="87" y="-167.5" font-family="Helvetica,sans-Serif" font-size="10.00">+ WalError()</text>
<text text-anchor="start" x="87" y="-156.5" font-family="Helvetica,sans-Serif" font-size="10.00">+ WalError()</text>
<text text-anchor="start" x="87" y="-145.5" font-family="Helvetica,sans-Serif" font-size="10.00">+ ~WalError()</text>
<text text-anchor="start" x="87" y="-134.5" font-family="Helvetica,sans-Serif" font-size="10.00">+ operator=()</text>
</a>
</g>
</g>
<!-- Node3 -->
<g id="node3" class="node">
<title>Node3</title>
<g id="a_node3"><a xlink:href="classWAL_1_1DuplicateError.html" target="_top" xlink:title="An exception informing the user that something already exists.">
<polygon fill="white" stroke="black" points="0,-0.5 0,-90.5 113,-90.5 113,-0.5 0,-0.5"/>
<text text-anchor="middle" x="56.5" y="-78.5" font-family="Helvetica,sans-Serif" font-size="10.00">WAL::DuplicateError</text>
<polyline fill="none" stroke="black" points="0,-71.5 113,-71.5 "/>
<text text-anchor="middle" x="56.5" y="-59.5" font-family="Helvetica,sans-Serif" font-size="10.00"> </text>
<polyline fill="none" stroke="black" points="0,-52.5 113,-52.5 "/>
<text text-anchor="start" x="8" y="-40.5" font-family="Helvetica,sans-Serif" font-size="10.00">+ DuplicateError()</text>
<text text-anchor="start" x="8" y="-29.5" font-family="Helvetica,sans-Serif" font-size="10.00">+ DuplicateError()</text>
<text text-anchor="start" x="8" y="-18.5" font-family="Helvetica,sans-Serif" font-size="10.00">+ ~DuplicateError()</text>
<text text-anchor="start" x="8" y="-7.5" font-family="Helvetica,sans-Serif" font-size="10.00">+ operator=()</text>
</a>
</g>
</g>
<!-- Node1&#45;&gt;Node3 -->
<g id="edge2" class="edge">
<title>Node1&#45;&gt;Node3</title>
<path fill="none" stroke="midnightblue" d="M93.84,-118.31C89.04,-109.07 84.09,-99.56 79.43,-90.59"/>
<polygon fill="none" stroke="midnightblue" points="90.86,-120.17 98.58,-127.43 97.08,-116.94 90.86,-120.17"/>
</g>
<!-- Node4 -->
<g id="node4" class="node">
<title>Node4</title>
<g id="a_node4"><a xlink:href="classWAL_1_1NotFoundError.html" target="_top" xlink:title="An exception informing the user that something could not be found.">
<polygon fill="white" stroke="black" points="131,-0.5 131,-90.5 244,-90.5 244,-0.5 131,-0.5"/>
<text text-anchor="middle" x="187.5" y="-78.5" font-family="Helvetica,sans-Serif" font-size="10.00">WAL::NotFoundError</text>
<polyline fill="none" stroke="black" points="131,-71.5 244,-71.5 "/>
<text text-anchor="middle" x="187.5" y="-59.5" font-family="Helvetica,sans-Serif" font-size="10.00"> </text>
<polyline fill="none" stroke="black" points="131,-52.5 244,-52.5 "/>
<text text-anchor="start" x="139" y="-40.5" font-family="Helvetica,sans-Serif" font-size="10.00">+ NotFoundError()</text>
<text text-anchor="start" x="139" y="-29.5" font-family="Helvetica,sans-Serif" font-size="10.00">+ NotFoundError()</text>
<text text-anchor="start" x="139" y="-18.5" font-family="Helvetica,sans-Serif" font-size="10.00">+ ~NotFoundError()</text>
<text text-anchor="start" x="139" y="-7.5" font-family="Helvetica,sans-Serif" font-size="10.00">+ operator=()</text>
</a>
</g>
</g>
<!-- Node1&#45;&gt;Node4 -->
<g id="edge3" class="edge">
<title>Node1&#45;&gt;Node4</title>
<path fill="none" stroke="midnightblue" d="M149.58,-118.31C154.46,-109.07 159.49,-99.56 164.22,-90.59"/>
<polygon fill="none" stroke="midnightblue" points="146.34,-116.95 144.77,-127.43 152.53,-120.22 146.34,-116.95"/>
</g>
<!-- Node2 -->
<g id="node2" class="node">
<title>Node2</title>
<g id="a_node2"><a xlink:title=" ">
<polygon fill="white" stroke="#bfbfbf" points="69.5,-254.5 69.5,-311.5 173.5,-311.5 173.5,-254.5 69.5,-254.5"/>
<text text-anchor="middle" x="121.5" y="-299.5" font-family="Helvetica,sans-Serif" font-size="10.00">std::runtime_error</text>
<polyline fill="none" stroke="#bfbfbf" points="69.5,-292.5 173.5,-292.5 "/>
<text text-anchor="middle" x="121.5" y="-280.5" font-family="Helvetica,sans-Serif" font-size="10.00"> </text>
<polyline fill="none" stroke="#bfbfbf" points="69.5,-273.5 173.5,-273.5 "/>
<text text-anchor="middle" x="121.5" y="-261.5" font-family="Helvetica,sans-Serif" font-size="10.00"> </text>
</a>
</g>
</g>
<!-- Node2&#45;&gt;Node1 -->
<g id="edge1" class="edge">
<title>Node2&#45;&gt;Node1</title>
<path fill="none" stroke="midnightblue" d="M121.5,-244.21C121.5,-235.61 121.5,-226.39 121.5,-217.55"/>
<polygon fill="none" stroke="midnightblue" points="118,-244.34 121.5,-254.34 125,-244.34 118,-244.34"/>
</g>
</g>
</svg>
