<?xml version="1.0" encoding="UTF-8" standalone="no"?>
<!DOCTYPE svg PUBLIC "-//W3C//DTD SVG 1.1//EN"
 "http://www.w3.org/Graphics/SVG/1.1/DTD/svg11.dtd">
<!-- Generated by graphviz version 2.43.0 (0)
 -->
<!-- Title: BBM::ResumeLobbyComponent Pages: 1 -->
<svg width="271pt" height="921pt"
 viewBox="0.00 0.00 271.00 921.00" xmlns="http://www.w3.org/2000/svg" xmlns:xlink="http://www.w3.org/1999/xlink">
<g id="graph0" class="graph" transform="scale(1 1) rotate(0) translate(4 917)">
<title>BBM::ResumeLobbyComponent</title>
<polygon fill="white" stroke="transparent" points="-4,4 -4,-917 267,-917 267,4 -4,4"/>
<!-- Node1 -->
<g id="node1" class="node">
<title>Node1</title>
<g id="a_node1"><a xlink:title=" ">
<polygon fill="#bfbfbf" stroke="black" points="0,-0.5 0,-145.5 170,-145.5 170,-0.5 0,-0.5"/>
<text text-anchor="middle" x="85" y="-133.5" font-family="Helvetica,sans-Serif" font-size="10.00">BBM::ResumeLobbyComponent</text>
<polyline fill="none" stroke="black" points="0,-126.5 170,-126.5 "/>
<text text-anchor="start" x="8" y="-114.5" font-family="Helvetica,sans-Serif" font-size="10.00">+ layout</text>
<text text-anchor="start" x="8" y="-103.5" font-family="Helvetica,sans-Serif" font-size="10.00">+ playerID</text>
<text text-anchor="start" x="8" y="-92.5" font-family="Helvetica,sans-Serif" font-size="10.00">+ playerColor</text>
<text text-anchor="start" x="8" y="-81.5" font-family="Helvetica,sans-Serif" font-size="10.00">+ ready</text>
<text text-anchor="start" x="8" y="-70.5" font-family="Helvetica,sans-Serif" font-size="10.00">+ lastInput</text>
<polyline fill="none" stroke="black" points="0,-63.5 170,-63.5 "/>
<text text-anchor="start" x="8" y="-51.5" font-family="Helvetica,sans-Serif" font-size="10.00">+ clone()</text>
<text text-anchor="start" x="8" y="-40.5" font-family="Helvetica,sans-Serif" font-size="10.00">+ ResumeLobbyComponent()</text>
<text text-anchor="start" x="8" y="-29.5" font-family="Helvetica,sans-Serif" font-size="10.00">+ ResumeLobbyComponent()</text>
<text text-anchor="start" x="8" y="-18.5" font-family="Helvetica,sans-Serif" font-size="10.00">+ ~ResumeLobbyComponent()</text>
<text text-anchor="start" x="8" y="-7.5" font-family="Helvetica,sans-Serif" font-size="10.00">+ operator=()</text>
</a>
</g>
</g>
<!-- Node2 -->
<g id="node2" class="node">
<title>Node2</title>
<g id="a_node2"><a xlink:href="classWAL_1_1Component.html" target="_top" xlink:title="Represent a single component of WAL.">
<polygon fill="white" stroke="black" points="163,-183.5 163,-306.5 263,-306.5 263,-183.5 163,-183.5"/>
<text text-anchor="middle" x="213" y="-294.5" font-family="Helvetica,sans-Serif" font-size="10.00">WAL::Component</text>
<polyline fill="none" stroke="black" points="163,-287.5 263,-287.5 "/>
<text text-anchor="middle" x="213" y="-275.5" font-family="Helvetica,sans-Serif" font-size="10.00"> </text>
<polyline fill="none" stroke="black" points="163,-268.5 263,-268.5 "/>
<text text-anchor="start" x="171" y="-256.5" font-family="Helvetica,sans-Serif" font-size="10.00">+ operator=()</text>
<text text-anchor="start" x="171" y="-245.5" font-family="Helvetica,sans-Serif" font-size="10.00">+ ~Component()</text>
<text text-anchor="start" x="171" y="-234.5" font-family="Helvetica,sans-Serif" font-size="10.00">+ clone()</text>
<text text-anchor="start" x="171" y="-223.5" font-family="Helvetica,sans-Serif" font-size="10.00">+ onStart()</text>
<text text-anchor="start" x="171" y="-212.5" font-family="Helvetica,sans-Serif" font-size="10.00">+ onStop()</text>
<text text-anchor="start" x="171" y="-201.5" font-family="Helvetica,sans-Serif" font-size="10.00"># Component()</text>
<text text-anchor="start" x="171" y="-190.5" font-family="Helvetica,sans-Serif" font-size="10.00"># Component()</text>
</a>
</g>
</g>
<!-- Node2&#45;&gt;Node1 -->
<g id="edge1" class="edge">
<title>Node2&#45;&gt;Node1</title>
<path fill="none" stroke="midnightblue" d="M161.1,-175.08C153.83,-165.42 146.35,-155.48 139.04,-145.77"/>
<polygon fill="none" stroke="midnightblue" points="158.34,-177.22 167.15,-183.11 163.93,-173.01 158.34,-177.22"/>
</g>
<!-- Node3 -->
<g id="node3" class="node">
<title>Node3</title>
<g id="a_node3"><a xlink:href="classWAL_1_1Entity.html" target="_top" xlink:title="An entity of the WAL&#39;s ECS.">
<polygon fill="white" stroke="black" points="20.5,-354.5 20.5,-620.5 157.5,-620.5 157.5,-354.5 20.5,-354.5"/>
<text text-anchor="middle" x="89" y="-608.5" font-family="Helvetica,sans-Serif" font-size="10.00">WAL::Entity</text>
<polyline fill="none" stroke="black" points="20.5,-601.5 157.5,-601.5 "/>
<text text-anchor="start" x="28.5" y="-589.5" font-family="Helvetica,sans-Serif" font-size="10.00">&#45; _uid</text>
<text text-anchor="start" x="28.5" y="-578.5" font-family="Helvetica,sans-Serif" font-size="10.00">&#45; _name</text>
<text text-anchor="start" x="28.5" y="-567.5" font-family="Helvetica,sans-Serif" font-size="10.00">&#45; _disabled</text>
<text text-anchor="start" x="28.5" y="-556.5" font-family="Helvetica,sans-Serif" font-size="10.00">&#45; _shouldDelete</text>
<text text-anchor="start" x="28.5" y="-545.5" font-family="Helvetica,sans-Serif" font-size="10.00">&#45; _notifyScene</text>
<text text-anchor="start" x="28.5" y="-534.5" font-family="Helvetica,sans-Serif" font-size="10.00">&#45; _components</text>
<text text-anchor="start" x="28.5" y="-523.5" font-family="Helvetica,sans-Serif" font-size="10.00">&#45; Scene</text>
<text text-anchor="start" x="28.5" y="-512.5" font-family="Helvetica,sans-Serif" font-size="10.00">&#45; nextID</text>
<polyline fill="none" stroke="black" points="20.5,-505.5 157.5,-505.5 "/>
<text text-anchor="start" x="28.5" y="-493.5" font-family="Helvetica,sans-Serif" font-size="10.00">+ getUid()</text>
<text text-anchor="start" x="28.5" y="-482.5" font-family="Helvetica,sans-Serif" font-size="10.00">+ getName()</text>
<text text-anchor="start" x="28.5" y="-471.5" font-family="Helvetica,sans-Serif" font-size="10.00">+ setName()</text>
<text text-anchor="start" x="28.5" y="-460.5" font-family="Helvetica,sans-Serif" font-size="10.00">+ isDisable()</text>
<text text-anchor="start" x="28.5" y="-449.5" font-family="Helvetica,sans-Serif" font-size="10.00">+ setDisable()</text>
<text text-anchor="start" x="28.5" y="-438.5" font-family="Helvetica,sans-Serif" font-size="10.00">+ shouldDelete()</text>
<text text-anchor="start" x="28.5" y="-427.5" font-family="Helvetica,sans-Serif" font-size="10.00">+ scheduleDeletion()</text>
<text text-anchor="start" x="28.5" y="-416.5" font-family="Helvetica,sans-Serif" font-size="10.00">+ getComponent()</text>
<text text-anchor="start" x="28.5" y="-405.5" font-family="Helvetica,sans-Serif" font-size="10.00">+ tryGetComponent()</text>
<text text-anchor="start" x="28.5" y="-394.5" font-family="Helvetica,sans-Serif" font-size="10.00">+ getComponent()</text>
<text text-anchor="start" x="28.5" y="-383.5" font-family="Helvetica,sans-Serif" font-size="10.00">and 13 more...</text>
<text text-anchor="start" x="28.5" y="-372.5" font-family="Helvetica,sans-Serif" font-size="10.00">&#45; _componentAdded()</text>
<text text-anchor="start" x="28.5" y="-361.5" font-family="Helvetica,sans-Serif" font-size="10.00">&#45; _componentRemoved()</text>
</a>
</g>
</g>
<!-- Node3&#45;&gt;Node1 -->
<g id="edge4" class="edge">
<title>Node3&#45;&gt;Node1</title>
<path fill="none" stroke="#404040" d="M83.26,-354.18C82.74,-338.28 82.3,-322.28 82,-307 80.93,-251.9 81.24,-238.11 82,-183 82.11,-174.77 82.27,-166.18 82.46,-157.61"/>
<polygon fill="none" stroke="#404040" points="82.47,-157.52 78.61,-151.43 82.75,-145.53 86.61,-151.62 82.47,-157.52"/>
<text text-anchor="middle" x="118" y="-248" font-family="Helvetica,sans-Serif" font-size="10.00"> +readyButton</text>
<text text-anchor="middle" x="118" y="-237" font-family="Helvetica,sans-Serif" font-size="10.00">+coloredTile</text>
</g>
<!-- Node3&#45;&gt;Node2 -->
<g id="edge2" class="edge">
<title>Node3&#45;&gt;Node2</title>
<path fill="none" stroke="#404040" d="M157.17,-354.29C163.65,-341.72 170.04,-329.32 176.05,-317.66"/>
<polygon fill="none" stroke="#404040" points="176.2,-317.38 175.39,-310.22 181.69,-306.72 182.5,-313.88 176.2,-317.38"/>
<text text-anchor="middle" x="192" y="-328" font-family="Helvetica,sans-Serif" font-size="10.00"> #_entity</text>
</g>
<!-- Node4 -->
<g id="node4" class="node">
<title>Node4</title>
<g id="a_node4"><a xlink:href="classWAL_1_1Scene.html" target="_top" xlink:title="Represent a single scene that contains entities.">
<polygon fill="white" stroke="black" points="20.5,-668.5 20.5,-912.5 157.5,-912.5 157.5,-668.5 20.5,-668.5"/>
<text text-anchor="middle" x="89" y="-900.5" font-family="Helvetica,sans-Serif" font-size="10.00">WAL::Scene</text>
<polyline fill="none" stroke="black" points="20.5,-893.5 157.5,-893.5 "/>
<text text-anchor="start" x="28.5" y="-881.5" font-family="Helvetica,sans-Serif" font-size="10.00">+ Entity</text>
<text text-anchor="start" x="28.5" y="-870.5" font-family="Helvetica,sans-Serif" font-size="10.00">&#45; _id</text>
<text text-anchor="start" x="28.5" y="-859.5" font-family="Helvetica,sans-Serif" font-size="10.00">&#45; _entities</text>
<text text-anchor="start" x="28.5" y="-848.5" font-family="Helvetica,sans-Serif" font-size="10.00">&#45; _newEntities</text>
<text text-anchor="start" x="28.5" y="-837.5" font-family="Helvetica,sans-Serif" font-size="10.00">&#45; _views</text>
<text text-anchor="start" x="28.5" y="-826.5" font-family="Helvetica,sans-Serif" font-size="10.00">&#45; _nextID</text>
<polyline fill="none" stroke="black" points="20.5,-819.5 157.5,-819.5 "/>
<text text-anchor="start" x="28.5" y="-807.5" font-family="Helvetica,sans-Serif" font-size="10.00">+ getID()</text>
<text text-anchor="start" x="28.5" y="-796.5" font-family="Helvetica,sans-Serif" font-size="10.00">+ getEntities()</text>
<text text-anchor="start" x="28.5" y="-785.5" font-family="Helvetica,sans-Serif" font-size="10.00">+ addEntity()</text>
<text text-anchor="start" x="28.5" y="-774.5" font-family="Helvetica,sans-Serif" font-size="10.00">+ scheduleNewEntity()</text>
<text text-anchor="start" x="28.5" y="-763.5" font-family="Helvetica,sans-Serif" font-size="10.00">+ view()</text>
<text text-anchor="start" x="28.5" y="-752.5" font-family="Helvetica,sans-Serif" font-size="10.00">+ applyChanges()</text>
<text text-anchor="start" x="28.5" y="-741.5" font-family="Helvetica,sans-Serif" font-size="10.00">+ Scene()</text>
<text text-anchor="start" x="28.5" y="-730.5" font-family="Helvetica,sans-Serif" font-size="10.00">+ Scene()</text>
<text text-anchor="start" x="28.5" y="-719.5" font-family="Helvetica,sans-Serif" font-size="10.00">+ ~Scene()</text>
<text text-anchor="start" x="28.5" y="-708.5" font-family="Helvetica,sans-Serif" font-size="10.00">+ operator=()</text>
<text text-anchor="start" x="28.5" y="-697.5" font-family="Helvetica,sans-Serif" font-size="10.00">&#45; _componentAdded()</text>
<text text-anchor="start" x="28.5" y="-686.5" font-family="Helvetica,sans-Serif" font-size="10.00">&#45; _componentRemoved()</text>
<text text-anchor="start" x="28.5" y="-675.5" font-family="Helvetica,sans-Serif" font-size="10.00">&#45; _entityRemoved()</text>
</a>
</g>
</g>
<!-- Node4&#45;&gt;Node3 -->
<g id="edge3" class="edge">
<title>Node4&#45;&gt;Node3</title>
<path fill="none" stroke="#404040" d="M89,-668.37C89,-656.73 89,-644.85 89,-633.02"/>
<polygon fill="none" stroke="#404040" points="89,-632.71 85,-626.71 89,-620.71 93,-626.71 89,-632.71"/>
<text text-anchor="middle" x="112" y="-642" font-family="Helvetica,sans-Serif" font-size="10.00"> +_scene</text>
</g>
</g>
</svg>
