<?xml version="1.0" encoding="UTF-8" standalone="no"?>
<!DOCTYPE svg PUBLIC "-//W3C//DTD SVG 1.1//EN"
 "http://www.w3.org/Graphics/SVG/1.1/DTD/svg11.dtd">
<!-- Generated by graphviz version 2.43.0 (0)
 -->
<!-- Title: RAY::Drawables::Drawables3D::Circle Pages: 1 -->
<svg width="172pt" height="507pt"
 viewBox="0.00 0.00 172.00 507.00" xmlns="http://www.w3.org/2000/svg" xmlns:xlink="http://www.w3.org/1999/xlink">
<g id="graph0" class="graph" transform="scale(1 1) rotate(0) translate(4 503)">
<title>RAY::Drawables::Drawables3D::Circle</title>
<polygon fill="white" stroke="transparent" points="-4,4 -4,-503 168,-503 168,4 -4,4"/>
<!-- Node1 -->
<g id="node1" class="node">
<title>Node1</title>
<g id="a_node1"><a xlink:title="Circle in a three&#45;dimensionnal space.">
<polygon fill="#bfbfbf" stroke="black" points="4.5,-0.5 4.5,-167.5 159.5,-167.5 159.5,-0.5 4.5,-0.5"/>
<text text-anchor="start" x="12.5" y="-155.5" font-family="Helvetica,sans-Serif" font-size="10.00">RAY::Drawables::Drawables3</text>
<text text-anchor="middle" x="82" y="-144.5" font-family="Helvetica,sans-Serif" font-size="10.00">D::Circle</text>
<polyline fill="none" stroke="black" points="4.5,-137.5 159.5,-137.5 "/>
<text text-anchor="start" x="12.5" y="-125.5" font-family="Helvetica,sans-Serif" font-size="10.00">&#45; _radius</text>
<text text-anchor="start" x="12.5" y="-114.5" font-family="Helvetica,sans-Serif" font-size="10.00">&#45; _rotationAxis</text>
<text text-anchor="start" x="12.5" y="-103.5" font-family="Helvetica,sans-Serif" font-size="10.00">&#45; _rotationAngle</text>
<polyline fill="none" stroke="black" points="4.5,-96.5 159.5,-96.5 "/>
<text text-anchor="start" x="12.5" y="-84.5" font-family="Helvetica,sans-Serif" font-size="10.00">+ Circle()</text>
<text text-anchor="start" x="12.5" y="-73.5" font-family="Helvetica,sans-Serif" font-size="10.00">+ Circle()</text>
<text text-anchor="start" x="12.5" y="-62.5" font-family="Helvetica,sans-Serif" font-size="10.00">+ operator=()</text>
<text text-anchor="start" x="12.5" y="-51.5" font-family="Helvetica,sans-Serif" font-size="10.00">+ ~Circle()</text>
<text text-anchor="start" x="12.5" y="-40.5" font-family="Helvetica,sans-Serif" font-size="10.00">+ getRadius()</text>
<text text-anchor="start" x="12.5" y="-29.5" font-family="Helvetica,sans-Serif" font-size="10.00">+ setRadius()</text>
<text text-anchor="start" x="12.5" y="-18.5" font-family="Helvetica,sans-Serif" font-size="10.00">+ getCenterPos()</text>
<text text-anchor="start" x="12.5" y="-7.5" font-family="Helvetica,sans-Serif" font-size="10.00">+ drawOn()</text>
</a>
</g>
</g>
<!-- Node2 -->
<g id="node2" class="node">
<title>Node2</title>
<g id="a_node2"><a xlink:href="classRAY_1_1Drawables_1_1ADrawable3D.html" target="_top" xlink:title="Abstraction of any three&#45;dimensionnal drawable.">
<polygon fill="white" stroke="black" points="0,-204.5 0,-393.5 164,-393.5 164,-204.5 0,-204.5"/>
<text text-anchor="middle" x="82" y="-381.5" font-family="Helvetica,sans-Serif" font-size="10.00">RAY::Drawables::ADrawable3D</text>
<polyline fill="none" stroke="black" points="0,-374.5 164,-374.5 "/>
<text text-anchor="start" x="8" y="-362.5" font-family="Helvetica,sans-Serif" font-size="10.00"># _position</text>
<text text-anchor="start" x="8" y="-351.5" font-family="Helvetica,sans-Serif" font-size="10.00"># _color</text>
<text text-anchor="start" x="8" y="-340.5" font-family="Helvetica,sans-Serif" font-size="10.00"># _debugColor</text>
<polyline fill="none" stroke="black" points="0,-333.5 164,-333.5 "/>
<text text-anchor="start" x="8" y="-321.5" font-family="Helvetica,sans-Serif" font-size="10.00">+ ADrawable3D()</text>
<text text-anchor="start" x="8" y="-310.5" font-family="Helvetica,sans-Serif" font-size="10.00">+ ADrawable3D()</text>
<text text-anchor="start" x="8" y="-299.5" font-family="Helvetica,sans-Serif" font-size="10.00">+ ~ADrawable3D()</text>
<text text-anchor="start" x="8" y="-288.5" font-family="Helvetica,sans-Serif" font-size="10.00">+ drawOn()</text>
<text text-anchor="start" x="8" y="-277.5" font-family="Helvetica,sans-Serif" font-size="10.00">+ drawWiresOn()</text>
<text text-anchor="start" x="8" y="-266.5" font-family="Helvetica,sans-Serif" font-size="10.00">+ getColor()</text>
<text text-anchor="start" x="8" y="-255.5" font-family="Helvetica,sans-Serif" font-size="10.00">+ setColor()</text>
<text text-anchor="start" x="8" y="-244.5" font-family="Helvetica,sans-Serif" font-size="10.00">+ getDebugColor()</text>
<text text-anchor="start" x="8" y="-233.5" font-family="Helvetica,sans-Serif" font-size="10.00">+ setDebugColor()</text>
<text text-anchor="start" x="8" y="-222.5" font-family="Helvetica,sans-Serif" font-size="10.00">+ getPosition()</text>
<text text-anchor="start" x="8" y="-211.5" font-family="Helvetica,sans-Serif" font-size="10.00">+ setPosition()</text>
</a>
</g>
</g>
<!-- Node2&#45;&gt;Node1 -->
<g id="edge1" class="edge">
<title>Node2&#45;&gt;Node1</title>
<path fill="none" stroke="midnightblue" d="M82,-194.25C82,-185.35 82,-176.44 82,-167.74"/>
<polygon fill="none" stroke="midnightblue" points="78.5,-194.27 82,-204.27 85.5,-194.27 78.5,-194.27"/>
</g>
<!-- Node3 -->
<g id="node3" class="node">
<title>Node3</title>
<g id="a_node3"><a xlink:href="classRAY_1_1Drawables_1_1IDrawable.html" target="_top" xlink:title="Interface for any drawable.">
<polygon fill="white" stroke="black" points="8.5,-430.5 8.5,-498.5 155.5,-498.5 155.5,-430.5 8.5,-430.5"/>
<text text-anchor="middle" x="82" y="-486.5" font-family="Helvetica,sans-Serif" font-size="10.00">RAY::Drawables::IDrawable</text>
<polyline fill="none" stroke="black" points="8.5,-479.5 155.5,-479.5 "/>
<text text-anchor="middle" x="82" y="-467.5" font-family="Helvetica,sans-Serif" font-size="10.00"> </text>
<polyline fill="none" stroke="black" points="8.5,-460.5 155.5,-460.5 "/>
<text text-anchor="start" x="16.5" y="-448.5" font-family="Helvetica,sans-Serif" font-size="10.00">+ ~IDrawable()</text>
<text text-anchor="start" x="16.5" y="-437.5" font-family="Helvetica,sans-Serif" font-size="10.00">+ drawOn()</text>
</a>
</g>
</g>
<!-- Node3&#45;&gt;Node2 -->
<g id="edge2" class="edge">
<title>Node3&#45;&gt;Node2</title>
<path fill="none" stroke="midnightblue" d="M82,-420.25C82,-411.9 82,-402.85 82,-393.6"/>
<polygon fill="none" stroke="midnightblue" points="78.5,-420.41 82,-430.41 85.5,-420.41 78.5,-420.41"/>
</g>
</g>
</svg>
