<?xml version="1.0" encoding="UTF-8" standalone="no"?>
<!DOCTYPE svg PUBLIC "-//W3C//DTD SVG 1.1//EN"
 "http://www.w3.org/Graphics/SVG/1.1/DTD/svg11.dtd">
<!-- Generated by graphviz version 2.43.0 (0)
 -->
<!-- Title: RAY::Mesh::AMesh Pages: 1 -->
<svg width="140pt" height="226pt"
 viewBox="0.00 0.00 140.00 226.00" xmlns="http://www.w3.org/2000/svg" xmlns:xlink="http://www.w3.org/1999/xlink">
<g id="graph0" class="graph" transform="scale(1 1) rotate(0) translate(4 222)">
<title>RAY::Mesh::AMesh</title>
<polygon fill="white" stroke="transparent" points="-4,4 -4,-222 136,-222 136,4 -4,4"/>
<!-- Node1 -->
<g id="node1" class="node">
<title>Node1</title>
<g id="a_node1"><a xlink:title=" ">
<polygon fill="#bfbfbf" stroke="black" points="13.5,-149.5 13.5,-217.5 118.5,-217.5 118.5,-149.5 13.5,-149.5"/>
<text text-anchor="middle" x="66" y="-205.5" font-family="Helvetica,sans-Serif" font-size="10.00">RAY::Mesh::AMesh</text>
<polyline fill="none" stroke="black" points="13.5,-198.5 118.5,-198.5 "/>
<text text-anchor="start" x="21.5" y="-186.5" font-family="Helvetica,sans-Serif" font-size="10.00"># _raylibMesh</text>
<text text-anchor="start" x="21.5" y="-175.5" font-family="Helvetica,sans-Serif" font-size="10.00"># __pad0__</text>
<polyline fill="none" stroke="black" points="13.5,-168.5 118.5,-168.5 "/>
<text text-anchor="start" x="21.5" y="-156.5" font-family="Helvetica,sans-Serif" font-size="10.00">+ ~AMesh()</text>
</a>
</g>
</g>
<!-- Node2 -->
<g id="node2" class="node">
<title>Node2</title>
<g id="a_node2"><a xlink:href="classRAY_1_1Mesh_1_1MeshSphere.html" target="_top" xlink:title=" ">
<polygon fill="white" stroke="black" points="0,-0.5 0,-112.5 132,-112.5 132,-0.5 0,-0.5"/>
<text text-anchor="middle" x="66" y="-100.5" font-family="Helvetica,sans-Serif" font-size="10.00">RAY::Mesh::MeshSphere</text>
<polyline fill="none" stroke="black" points="0,-93.5 132,-93.5 "/>
<text text-anchor="start" x="8" y="-81.5" font-family="Helvetica,sans-Serif" font-size="10.00">+ radius</text>
<text text-anchor="start" x="8" y="-70.5" font-family="Helvetica,sans-Serif" font-size="10.00">+ rings</text>
<text text-anchor="start" x="8" y="-59.5" font-family="Helvetica,sans-Serif" font-size="10.00">+ slices</text>
<polyline fill="none" stroke="black" points="0,-52.5 132,-52.5 "/>
<text text-anchor="start" x="8" y="-40.5" font-family="Helvetica,sans-Serif" font-size="10.00">+ MeshSphere()</text>
<text text-anchor="start" x="8" y="-29.5" font-family="Helvetica,sans-Serif" font-size="10.00">+ MeshSphere()</text>
<text text-anchor="start" x="8" y="-18.5" font-family="Helvetica,sans-Serif" font-size="10.00">+ ~MeshSphere()</text>
<text text-anchor="start" x="8" y="-7.5" font-family="Helvetica,sans-Serif" font-size="10.00">+ operator=()</text>
</a>
</g>
</g>
<!-- Node1&#45;&gt;Node2 -->
<g id="edge1" class="edge">
<title>Node1&#45;&gt;Node2</title>
<path fill="none" stroke="midnightblue" d="M66,-139.18C66,-130.6 66,-121.49 66,-112.59"/>
<polygon fill="none" stroke="midnightblue" points="62.5,-139.33 66,-149.33 69.5,-139.33 62.5,-139.33"/>
</g>
</g>
</svg>
