<?xml version="1.0" encoding="UTF-8" standalone="no"?>
<!DOCTYPE svg PUBLIC "-//W3C//DTD SVG 1.1//EN"
 "http://www.w3.org/Graphics/SVG/1.1/DTD/svg11.dtd">
<!-- Generated by graphviz version 2.43.0 (0)
 -->
<!-- Title: RAY::Drawables::Drawables3D::Model Pages: 1 -->
<svg width="803pt" height="694pt"
 viewBox="0.00 0.00 802.50 694.00" xmlns="http://www.w3.org/2000/svg" xmlns:xlink="http://www.w3.org/1999/xlink">
<g id="graph0" class="graph" transform="scale(1 1) rotate(0) translate(4 690)">
<title>RAY::Drawables::Drawables3D::Model</title>
<polygon fill="white" stroke="transparent" points="-4,4 -4,-690 798.5,-690 798.5,4 -4,4"/>
<!-- Node1 -->
<g id="node1" class="node">
<title>Node1</title>
<g id="a_node1"><a xlink:title="Basic 3D Model type.">
<polygon fill="#bfbfbf" stroke="black" points="344,-0.5 344,-211.5 499,-211.5 499,-0.5 344,-0.5"/>
<text text-anchor="start" x="352" y="-199.5" font-family="Helvetica,sans-Serif" font-size="10.00">RAY::Drawables::Drawables3</text>
<text text-anchor="middle" x="421.5" y="-188.5" font-family="Helvetica,sans-Serif" font-size="10.00">D::Model</text>
<polyline fill="none" stroke="black" points="344,-181.5 499,-181.5 "/>
<text text-anchor="start" x="352" y="-169.5" font-family="Helvetica,sans-Serif" font-size="10.00">&#45; _model</text>
<text text-anchor="start" x="352" y="-158.5" font-family="Helvetica,sans-Serif" font-size="10.00">&#45; _textureList</text>
<text text-anchor="start" x="352" y="-147.5" font-family="Helvetica,sans-Serif" font-size="10.00">&#45; _rotationAngle</text>
<text text-anchor="start" x="352" y="-136.5" font-family="Helvetica,sans-Serif" font-size="10.00">&#45; __pad0__</text>
<polyline fill="none" stroke="black" points="344,-129.5 499,-129.5 "/>
<text text-anchor="start" x="352" y="-117.5" font-family="Helvetica,sans-Serif" font-size="10.00">+ Model()</text>
<text text-anchor="start" x="352" y="-106.5" font-family="Helvetica,sans-Serif" font-size="10.00">+ Model()</text>
<text text-anchor="start" x="352" y="-95.5" font-family="Helvetica,sans-Serif" font-size="10.00">+ Model()</text>
<text text-anchor="start" x="352" y="-84.5" font-family="Helvetica,sans-Serif" font-size="10.00">+ operator=()</text>
<text text-anchor="start" x="352" y="-73.5" font-family="Helvetica,sans-Serif" font-size="10.00">+ ~Model()</text>
<text text-anchor="start" x="352" y="-62.5" font-family="Helvetica,sans-Serif" font-size="10.00">+ unloadKeepMeshes()</text>
<text text-anchor="start" x="352" y="-51.5" font-family="Helvetica,sans-Serif" font-size="10.00">+ setAnimation()</text>
<text text-anchor="start" x="352" y="-40.5" font-family="Helvetica,sans-Serif" font-size="10.00">+ setTextureToMaterial()</text>
<text text-anchor="start" x="352" y="-29.5" font-family="Helvetica,sans-Serif" font-size="10.00">+ getBoneCount()</text>
<text text-anchor="start" x="352" y="-18.5" font-family="Helvetica,sans-Serif" font-size="10.00">+ setRotationAngle()</text>
<text text-anchor="start" x="352" y="-7.5" font-family="Helvetica,sans-Serif" font-size="10.00">and 10 more...</text>
</a>
</g>
</g>
<!-- Node2 -->
<g id="node2" class="node">
<title>Node2</title>
<g id="a_node2"><a xlink:href="classRAY_1_1Drawables_1_1ADrawable3D.html" target="_top" xlink:title="Abstraction of any three&#45;dimensionnal drawable.">
<polygon fill="white" stroke="black" points="147.5,-276 147.5,-443 311.5,-443 311.5,-276 147.5,-276"/>
<text text-anchor="middle" x="229.5" y="-431" font-family="Helvetica,sans-Serif" font-size="10.00">RAY::Drawables::ADrawable3D</text>
<polyline fill="none" stroke="black" points="147.5,-424 311.5,-424 "/>
<text text-anchor="middle" x="229.5" y="-412" font-family="Helvetica,sans-Serif" font-size="10.00"> </text>
<polyline fill="none" stroke="black" points="147.5,-405 311.5,-405 "/>
<text text-anchor="start" x="155.5" y="-393" font-family="Helvetica,sans-Serif" font-size="10.00">+ ADrawable3D()</text>
<text text-anchor="start" x="155.5" y="-382" font-family="Helvetica,sans-Serif" font-size="10.00">+ ADrawable3D()</text>
<text text-anchor="start" x="155.5" y="-371" font-family="Helvetica,sans-Serif" font-size="10.00">+ ~ADrawable3D()</text>
<text text-anchor="start" x="155.5" y="-360" font-family="Helvetica,sans-Serif" font-size="10.00">+ drawOn()</text>
<text text-anchor="start" x="155.5" y="-349" font-family="Helvetica,sans-Serif" font-size="10.00">+ drawWiresOn()</text>
<text text-anchor="start" x="155.5" y="-338" font-family="Helvetica,sans-Serif" font-size="10.00">+ getColor()</text>
<text text-anchor="start" x="155.5" y="-327" font-family="Helvetica,sans-Serif" font-size="10.00">+ setColor()</text>
<text text-anchor="start" x="155.5" y="-316" font-family="Helvetica,sans-Serif" font-size="10.00">+ getDebugColor()</text>
<text text-anchor="start" x="155.5" y="-305" font-family="Helvetica,sans-Serif" font-size="10.00">+ setDebugColor()</text>
<text text-anchor="start" x="155.5" y="-294" font-family="Helvetica,sans-Serif" font-size="10.00">+ getPosition()</text>
<text text-anchor="start" x="155.5" y="-283" font-family="Helvetica,sans-Serif" font-size="10.00">+ setPosition()</text>
</a>
</g>
</g>
<!-- Node2&#45;&gt;Node1 -->
<g id="edge1" class="edge">
<title>Node2&#45;&gt;Node1</title>
<path fill="none" stroke="midnightblue" d="M298.85,-267.66C313.48,-248.5 329.01,-228.15 343.92,-208.62"/>
<polygon fill="none" stroke="midnightblue" points="295.92,-265.73 292.63,-275.8 301.48,-269.98 295.92,-265.73"/>
</g>
<!-- Node3 -->
<g id="node3" class="node">
<title>Node3</title>
<g id="a_node3"><a xlink:href="classRAY_1_1Drawables_1_1IDrawable.html" target="_top" xlink:title="Interface for any drawable.">
<polygon fill="white" stroke="black" points="0,-568 0,-636 147,-636 147,-568 0,-568"/>
<text text-anchor="middle" x="73.5" y="-624" font-family="Helvetica,sans-Serif" font-size="10.00">RAY::Drawables::IDrawable</text>
<polyline fill="none" stroke="black" points="0,-617 147,-617 "/>
<text text-anchor="middle" x="73.5" y="-605" font-family="Helvetica,sans-Serif" font-size="10.00"> </text>
<polyline fill="none" stroke="black" points="0,-598 147,-598 "/>
<text text-anchor="start" x="8" y="-586" font-family="Helvetica,sans-Serif" font-size="10.00">+ ~IDrawable()</text>
<text text-anchor="start" x="8" y="-575" font-family="Helvetica,sans-Serif" font-size="10.00">+ drawOn()</text>
</a>
</g>
</g>
<!-- Node3&#45;&gt;Node2 -->
<g id="edge2" class="edge">
<title>Node3&#45;&gt;Node2</title>
<path fill="none" stroke="midnightblue" d="M100.64,-559.16C121.37,-527.2 150.6,-482.14 175.98,-443.01"/>
<polygon fill="none" stroke="midnightblue" points="97.53,-557.52 95.03,-567.81 103.41,-561.33 97.53,-557.52"/>
</g>
<!-- Node4 -->
<g id="node4" class="node">
<title>Node4</title>
<g id="a_node4"><a xlink:href="classRAY_1_1Color.html" target="_top" xlink:title="Object representation of color.">
<polygon fill="white" stroke="black" points="165,-518.5 165,-685.5 250,-685.5 250,-518.5 165,-518.5"/>
<text text-anchor="middle" x="207.5" y="-673.5" font-family="Helvetica,sans-Serif" font-size="10.00">RAY::Color</text>
<polyline fill="none" stroke="black" points="165,-666.5 250,-666.5 "/>
<text text-anchor="start" x="173" y="-654.5" font-family="Helvetica,sans-Serif" font-size="10.00">&#45; __pad0__</text>
<polyline fill="none" stroke="black" points="165,-647.5 250,-647.5 "/>
<text text-anchor="start" x="173" y="-635.5" font-family="Helvetica,sans-Serif" font-size="10.00">+ Color()</text>
<text text-anchor="start" x="173" y="-624.5" font-family="Helvetica,sans-Serif" font-size="10.00">+ Color()</text>
<text text-anchor="start" x="173" y="-613.5" font-family="Helvetica,sans-Serif" font-size="10.00">+ Color()</text>
<text text-anchor="start" x="173" y="-602.5" font-family="Helvetica,sans-Serif" font-size="10.00">+ Color()</text>
<text text-anchor="start" x="173" y="-591.5" font-family="Helvetica,sans-Serif" font-size="10.00">+ Color()</text>
<text text-anchor="start" x="173" y="-580.5" font-family="Helvetica,sans-Serif" font-size="10.00">+ ~Color()</text>
<text text-anchor="start" x="173" y="-569.5" font-family="Helvetica,sans-Serif" font-size="10.00">+ operator=()</text>
<text text-anchor="start" x="173" y="-558.5" font-family="Helvetica,sans-Serif" font-size="10.00">+ setR()</text>
<text text-anchor="start" x="173" y="-547.5" font-family="Helvetica,sans-Serif" font-size="10.00">+ setG()</text>
<text text-anchor="start" x="173" y="-536.5" font-family="Helvetica,sans-Serif" font-size="10.00">+ setB()</text>
<text text-anchor="start" x="173" y="-525.5" font-family="Helvetica,sans-Serif" font-size="10.00">and 6 more...</text>
</a>
</g>
</g>
<!-- Node4&#45;&gt;Node2 -->
<g id="edge3" class="edge">
<title>Node4&#45;&gt;Node2</title>
<path fill="none" stroke="#404040" d="M205.73,-518.32C205.64,-512.12 205.56,-505.96 205.5,-500 205.4,-490.22 204.52,-487.73 205.5,-478 206.25,-470.59 207.26,-462.96 208.44,-455.31"/>
<polygon fill="none" stroke="#404040" points="208.46,-455.15 205.5,-448.58 210.42,-443.31 213.39,-449.88 208.46,-455.15"/>
<text text-anchor="middle" x="242" y="-492" font-family="Helvetica,sans-Serif" font-size="10.00"> #_debugColor</text>
<text text-anchor="middle" x="242" y="-481" font-family="Helvetica,sans-Serif" font-size="10.00">#_color</text>
</g>
<!-- Node4&#45;&gt;Node4 -->
<g id="edge4" class="edge">
<title>Node4&#45;&gt;Node4</title>
<path fill="none" stroke="#404040" d="M250.18,-622.63C260.42,-621.02 268,-614.14 268,-602 268,-594.98 265.47,-589.72 261.35,-586.22"/>
<polygon fill="none" stroke="#404040" points="261.19,-586.15 254.09,-587.43 250.18,-581.37 257.28,-580.09 261.19,-586.15"/>
<text text-anchor="middle" x="286.5" y="-599.5" font-family="Helvetica,sans-Serif" font-size="10.00"> &#45;_color</text>
</g>
<!-- Node5 -->
<g id="node5" class="node">
<title>Node5</title>
<g id="a_node5"><a xlink:href="classRAY_1_1Vector3.html" target="_top" xlink:title="A Three&#45;dimensionnal Vector data type.">
<polygon fill="white" stroke="black" points="327,-529.5 327,-674.5 412,-674.5 412,-529.5 327,-529.5"/>
<text text-anchor="middle" x="369.5" y="-662.5" font-family="Helvetica,sans-Serif" font-size="10.00">RAY::Vector3</text>
<polyline fill="none" stroke="black" points="327,-655.5 412,-655.5 "/>
<text text-anchor="start" x="335" y="-643.5" font-family="Helvetica,sans-Serif" font-size="10.00">+ x</text>
<text text-anchor="start" x="335" y="-632.5" font-family="Helvetica,sans-Serif" font-size="10.00">+ y</text>
<text text-anchor="start" x="335" y="-621.5" font-family="Helvetica,sans-Serif" font-size="10.00">+ z</text>
<text text-anchor="start" x="335" y="-610.5" font-family="Helvetica,sans-Serif" font-size="10.00">+ __pad0__</text>
<polyline fill="none" stroke="black" points="327,-603.5 412,-603.5 "/>
<text text-anchor="start" x="335" y="-591.5" font-family="Helvetica,sans-Serif" font-size="10.00">+ Vector3()</text>
<text text-anchor="start" x="335" y="-580.5" font-family="Helvetica,sans-Serif" font-size="10.00">+ Vector3()</text>
<text text-anchor="start" x="335" y="-569.5" font-family="Helvetica,sans-Serif" font-size="10.00">+ Vector3()</text>
<text text-anchor="start" x="335" y="-558.5" font-family="Helvetica,sans-Serif" font-size="10.00">+ Vector3()</text>
<text text-anchor="start" x="335" y="-547.5" font-family="Helvetica,sans-Serif" font-size="10.00">+ ~Vector3()</text>
<text text-anchor="start" x="335" y="-536.5" font-family="Helvetica,sans-Serif" font-size="10.00">+ operator=()</text>
</a>
</g>
</g>
<!-- Node5&#45;&gt;Node1 -->
<g id="edge8" class="edge">
<title>Node5&#45;&gt;Node1</title>
<path fill="none" stroke="#404040" d="M367.01,-529.17C365.73,-459.67 366.72,-351.54 380.5,-259 382.22,-247.44 384.51,-235.51 387.13,-223.64"/>
<polygon fill="none" stroke="#404040" points="387.16,-223.51 384.61,-216.77 389.85,-211.82 392.4,-218.56 387.16,-223.51"/>
<text text-anchor="middle" x="415" y="-362.5" font-family="Helvetica,sans-Serif" font-size="10.00"> &#45;_scale</text>
<text text-anchor="middle" x="415" y="-351.5" font-family="Helvetica,sans-Serif" font-size="10.00">&#45;_rotationAxis</text>
</g>
<!-- Node5&#45;&gt;Node2 -->
<g id="edge5" class="edge">
<title>Node5&#45;&gt;Node2</title>
<path fill="none" stroke="#404040" d="M326.98,-538C313.66,-518.24 302.2,-501.19 301.5,-500 292.81,-485.33 284.07,-469.49 275.82,-453.95"/>
<polygon fill="none" stroke="#404040" points="275.78,-453.87 269.45,-450.42 270.2,-443.24 276.53,-446.69 275.78,-453.87"/>
<text text-anchor="middle" x="329.5" y="-486.5" font-family="Helvetica,sans-Serif" font-size="10.00"> #_position</text>
</g>
<!-- Node6 -->
<g id="node6" class="node">
<title>Node6</title>
<g id="a_node6"><a xlink:href="classRAY_1_1Shader.html" target="_top" xlink:title=" ">
<polygon fill="white" stroke="black" points="458.5,-259.5 458.5,-459.5 620.5,-459.5 620.5,-259.5 458.5,-259.5"/>
<text text-anchor="middle" x="539.5" y="-447.5" font-family="Helvetica,sans-Serif" font-size="10.00">RAY::Shader</text>
<polyline fill="none" stroke="black" points="458.5,-440.5 620.5,-440.5 "/>
<text text-anchor="start" x="466.5" y="-428.5" font-family="Helvetica,sans-Serif" font-size="10.00">&#45; _vertexFile</text>
<text text-anchor="start" x="466.5" y="-417.5" font-family="Helvetica,sans-Serif" font-size="10.00">&#45; _fragmentFile</text>
<text text-anchor="start" x="466.5" y="-406.5" font-family="Helvetica,sans-Serif" font-size="10.00">&#45; _rayLibShader</text>
<text text-anchor="start" x="466.5" y="-395.5" font-family="Helvetica,sans-Serif" font-size="10.00">&#45; _shaderIndexVars</text>
<polyline fill="none" stroke="black" points="458.5,-388.5 620.5,-388.5 "/>
<text text-anchor="start" x="466.5" y="-376.5" font-family="Helvetica,sans-Serif" font-size="10.00">+ getShaderPtr()</text>
<text text-anchor="start" x="466.5" y="-365.5" font-family="Helvetica,sans-Serif" font-size="10.00">+ setShaderUniformVar()</text>
<text text-anchor="start" x="466.5" y="-354.5" font-family="Helvetica,sans-Serif" font-size="10.00">+ setShaderUniformVar()</text>
<text text-anchor="start" x="466.5" y="-343.5" font-family="Helvetica,sans-Serif" font-size="10.00">+ setShaderUniformVar()</text>
<text text-anchor="start" x="466.5" y="-332.5" font-family="Helvetica,sans-Serif" font-size="10.00">+ setLocation()</text>
<text text-anchor="start" x="466.5" y="-321.5" font-family="Helvetica,sans-Serif" font-size="10.00">+ Shader()</text>
<text text-anchor="start" x="466.5" y="-310.5" font-family="Helvetica,sans-Serif" font-size="10.00">+ Shader()</text>
<text text-anchor="start" x="466.5" y="-299.5" font-family="Helvetica,sans-Serif" font-size="10.00">+ ~Shader()</text>
<text text-anchor="start" x="466.5" y="-288.5" font-family="Helvetica,sans-Serif" font-size="10.00">+ operator=()</text>
<text text-anchor="start" x="466.5" y="-277.5" font-family="Helvetica,sans-Serif" font-size="10.00">+ BeginUsingCustomShader()</text>
<text text-anchor="start" x="466.5" y="-266.5" font-family="Helvetica,sans-Serif" font-size="10.00">+ EndUsingCustomShader()</text>
</a>
</g>
</g>
<!-- Node6&#45;&gt;Node1 -->
<g id="edge6" class="edge">
<title>Node6&#45;&gt;Node1</title>
<path fill="none" stroke="#404040" d="M493.03,-259.46C487.4,-247.46 481.61,-235.13 475.88,-222.91"/>
<polygon fill="none" stroke="#404040" points="475.74,-222.61 469.57,-218.88 470.64,-211.75 476.81,-215.48 475.74,-222.61"/>
<text text-anchor="middle" x="526" y="-233" font-family="Helvetica,sans-Serif" font-size="10.00"> &#45;_originalShader</text>
</g>
<!-- Node7 -->
<g id="node7" class="node">
<title>Node7</title>
<g id="a_node7"><a xlink:href="classRAY_1_1Cache.html" target="_top" xlink:title=" ">
<polygon fill="white" stroke="black" points="465,-540.5 465,-663.5 614,-663.5 614,-540.5 465,-540.5"/>
<text text-anchor="middle" x="539.5" y="-651.5" font-family="Helvetica,sans-Serif" font-size="10.00">RAY::Cache&lt; RAY::Shader &gt;</text>
<polyline fill="none" stroke="black" points="465,-644.5 614,-644.5 "/>
<text text-anchor="start" x="473" y="-632.5" font-family="Helvetica,sans-Serif" font-size="10.00">&#45; _dataLoader</text>
<text text-anchor="start" x="473" y="-621.5" font-family="Helvetica,sans-Serif" font-size="10.00">&#45; _dataUnloader</text>
<text text-anchor="start" x="473" y="-610.5" font-family="Helvetica,sans-Serif" font-size="10.00">&#45; _cache</text>
<polyline fill="none" stroke="black" points="465,-603.5 614,-603.5 "/>
<text text-anchor="start" x="473" y="-591.5" font-family="Helvetica,sans-Serif" font-size="10.00">+ Cache()</text>
<text text-anchor="start" x="473" y="-580.5" font-family="Helvetica,sans-Serif" font-size="10.00">+ Cache()</text>
<text text-anchor="start" x="473" y="-569.5" font-family="Helvetica,sans-Serif" font-size="10.00">+ ~Cache()</text>
<text text-anchor="start" x="473" y="-558.5" font-family="Helvetica,sans-Serif" font-size="10.00">+ operator=()</text>
<text text-anchor="start" x="473" y="-547.5" font-family="Helvetica,sans-Serif" font-size="10.00">+ fetch()</text>
</a>
</g>
</g>
<!-- Node7&#45;&gt;Node6 -->
<g id="edge7" class="edge">
<title>Node7&#45;&gt;Node6</title>
<path fill="none" stroke="#404040" d="M539.5,-540.31C539.5,-519.46 539.5,-495.4 539.5,-471.81"/>
<polygon fill="none" stroke="#404040" points="539.5,-471.54 535.5,-465.54 539.5,-459.54 543.5,-465.54 539.5,-471.54"/>
<text text-anchor="middle" x="580" y="-486.5" font-family="Helvetica,sans-Serif" font-size="10.00"> &#45;_shadersCache</text>
</g>
<!-- Node8 -->
<g id="node8" class="node">
<title>Node8</title>
<g id="a_node8"><a xlink:href="classRAY_1_1Cache.html" target="_top" xlink:title=" ">
<polygon fill="white" stroke="black" points="638.5,-292.5 638.5,-426.5 794.5,-426.5 794.5,-292.5 638.5,-292.5"/>
<text text-anchor="start" x="646.5" y="-414.5" font-family="Helvetica,sans-Serif" font-size="10.00">RAY::Cache&lt; RAY::Drawables</text>
<text text-anchor="middle" x="716.5" y="-403.5" font-family="Helvetica,sans-Serif" font-size="10.00">::Drawables3D::Model &gt;</text>
<polyline fill="none" stroke="black" points="638.5,-396.5 794.5,-396.5 "/>
<text text-anchor="start" x="646.5" y="-384.5" font-family="Helvetica,sans-Serif" font-size="10.00">&#45; _dataLoader</text>
<text text-anchor="start" x="646.5" y="-373.5" font-family="Helvetica,sans-Serif" font-size="10.00">&#45; _dataUnloader</text>
<text text-anchor="start" x="646.5" y="-362.5" font-family="Helvetica,sans-Serif" font-size="10.00">&#45; _cache</text>
<polyline fill="none" stroke="black" points="638.5,-355.5 794.5,-355.5 "/>
<text text-anchor="start" x="646.5" y="-343.5" font-family="Helvetica,sans-Serif" font-size="10.00">+ Cache()</text>
<text text-anchor="start" x="646.5" y="-332.5" font-family="Helvetica,sans-Serif" font-size="10.00">+ Cache()</text>
<text text-anchor="start" x="646.5" y="-321.5" font-family="Helvetica,sans-Serif" font-size="10.00">+ ~Cache()</text>
<text text-anchor="start" x="646.5" y="-310.5" font-family="Helvetica,sans-Serif" font-size="10.00">+ operator=()</text>
<text text-anchor="start" x="646.5" y="-299.5" font-family="Helvetica,sans-Serif" font-size="10.00">+ fetch()</text>
</a>
</g>
</g>
<!-- Node8&#45;&gt;Node1 -->
<g id="edge9" class="edge">
<title>Node8&#45;&gt;Node1</title>
<path fill="none" stroke="#404040" d="M662.32,-292.34C651.86,-280.8 640.67,-269.23 629.5,-259 592.42,-225.02 547.78,-191.57 509.38,-164.73"/>
<polygon fill="none" stroke="#404040" points="509.1,-164.54 501.89,-164.41 499.24,-157.7 506.45,-157.83 509.1,-164.54"/>
<text text-anchor="middle" x="648" y="-233" font-family="Helvetica,sans-Serif" font-size="10.00"> &#45;_modelsCache</text>
</g>
</g>
</svg>
