<?xml version="1.0" encoding="UTF-8" standalone="no"?>
<!DOCTYPE svg PUBLIC "-//W3C//DTD SVG 1.1//EN"
 "http://www.w3.org/Graphics/SVG/1.1/DTD/svg11.dtd">
<!-- Generated by graphviz version 2.43.0 (0)
 -->
<!-- Title: RAY::Drawables::Drawables3D::Cylinder Pages: 1 -->
<svg width="172pt" height="551pt"
 viewBox="0.00 0.00 172.00 551.00" xmlns="http://www.w3.org/2000/svg" xmlns:xlink="http://www.w3.org/1999/xlink">
<g id="graph0" class="graph" transform="scale(1 1) rotate(0) translate(4 547)">
<title>RAY::Drawables::Drawables3D::Cylinder</title>
<polygon fill="white" stroke="transparent" points="-4,4 -4,-547 168,-547 168,4 -4,4"/>
<!-- Node1 -->
<g id="node1" class="node">
<title>Node1</title>
<g id="a_node1"><a xlink:title="Cylinder in a three&#45;dimensionnal space.">
<polygon fill="#bfbfbf" stroke="black" points="4.5,-0.5 4.5,-211.5 159.5,-211.5 159.5,-0.5 4.5,-0.5"/>
<text text-anchor="start" x="12.5" y="-199.5" font-family="Helvetica,sans-Serif" font-size="10.00">RAY::Drawables::Drawables3</text>
<text text-anchor="middle" x="82" y="-188.5" font-family="Helvetica,sans-Serif" font-size="10.00">D::Cylinder</text>
<polyline fill="none" stroke="black" points="4.5,-181.5 159.5,-181.5 "/>
<text text-anchor="start" x="12.5" y="-169.5" font-family="Helvetica,sans-Serif" font-size="10.00">&#45; _topRadius</text>
<text text-anchor="start" x="12.5" y="-158.5" font-family="Helvetica,sans-Serif" font-size="10.00">&#45; _bottomRadius</text>
<text text-anchor="start" x="12.5" y="-147.5" font-family="Helvetica,sans-Serif" font-size="10.00">&#45; _height</text>
<polyline fill="none" stroke="black" points="4.5,-140.5 159.5,-140.5 "/>
<text text-anchor="start" x="12.5" y="-128.5" font-family="Helvetica,sans-Serif" font-size="10.00">+ Cylinder()</text>
<text text-anchor="start" x="12.5" y="-117.5" font-family="Helvetica,sans-Serif" font-size="10.00">+ Cylinder()</text>
<text text-anchor="start" x="12.5" y="-106.5" font-family="Helvetica,sans-Serif" font-size="10.00">+ operator=()</text>
<text text-anchor="start" x="12.5" y="-95.5" font-family="Helvetica,sans-Serif" font-size="10.00">+ ~Cylinder()</text>
<text text-anchor="start" x="12.5" y="-84.5" font-family="Helvetica,sans-Serif" font-size="10.00">+ getTopRadius()</text>
<text text-anchor="start" x="12.5" y="-73.5" font-family="Helvetica,sans-Serif" font-size="10.00">+ setTopRadius()</text>
<text text-anchor="start" x="12.5" y="-62.5" font-family="Helvetica,sans-Serif" font-size="10.00">+ getBottomRadius()</text>
<text text-anchor="start" x="12.5" y="-51.5" font-family="Helvetica,sans-Serif" font-size="10.00">+ setBottomRadius()</text>
<text text-anchor="start" x="12.5" y="-40.5" font-family="Helvetica,sans-Serif" font-size="10.00">+ getHeight()</text>
<text text-anchor="start" x="12.5" y="-29.5" font-family="Helvetica,sans-Serif" font-size="10.00">+ setHeight()</text>
<text text-anchor="start" x="12.5" y="-18.5" font-family="Helvetica,sans-Serif" font-size="10.00">+ drawOn()</text>
<text text-anchor="start" x="12.5" y="-7.5" font-family="Helvetica,sans-Serif" font-size="10.00">+ drawWiresOn()</text>
</a>
</g>
</g>
<!-- Node2 -->
<g id="node2" class="node">
<title>Node2</title>
<g id="a_node2"><a xlink:href="classRAY_1_1Drawables_1_1ADrawable3D.html" target="_top" xlink:title="Abstraction of any three&#45;dimensionnal drawable.">
<polygon fill="white" stroke="black" points="0,-248.5 0,-437.5 164,-437.5 164,-248.5 0,-248.5"/>
<text text-anchor="middle" x="82" y="-425.5" font-family="Helvetica,sans-Serif" font-size="10.00">RAY::Drawables::ADrawable3D</text>
<polyline fill="none" stroke="black" points="0,-418.5 164,-418.5 "/>
<text text-anchor="start" x="8" y="-406.5" font-family="Helvetica,sans-Serif" font-size="10.00"># _position</text>
<text text-anchor="start" x="8" y="-395.5" font-family="Helvetica,sans-Serif" font-size="10.00"># _color</text>
<text text-anchor="start" x="8" y="-384.5" font-family="Helvetica,sans-Serif" font-size="10.00"># _debugColor</text>
<polyline fill="none" stroke="black" points="0,-377.5 164,-377.5 "/>
<text text-anchor="start" x="8" y="-365.5" font-family="Helvetica,sans-Serif" font-size="10.00">+ ADrawable3D()</text>
<text text-anchor="start" x="8" y="-354.5" font-family="Helvetica,sans-Serif" font-size="10.00">+ ADrawable3D()</text>
<text text-anchor="start" x="8" y="-343.5" font-family="Helvetica,sans-Serif" font-size="10.00">+ ~ADrawable3D()</text>
<text text-anchor="start" x="8" y="-332.5" font-family="Helvetica,sans-Serif" font-size="10.00">+ drawOn()</text>
<text text-anchor="start" x="8" y="-321.5" font-family="Helvetica,sans-Serif" font-size="10.00">+ drawWiresOn()</text>
<text text-anchor="start" x="8" y="-310.5" font-family="Helvetica,sans-Serif" font-size="10.00">+ getColor()</text>
<text text-anchor="start" x="8" y="-299.5" font-family="Helvetica,sans-Serif" font-size="10.00">+ setColor()</text>
<text text-anchor="start" x="8" y="-288.5" font-family="Helvetica,sans-Serif" font-size="10.00">+ getDebugColor()</text>
<text text-anchor="start" x="8" y="-277.5" font-family="Helvetica,sans-Serif" font-size="10.00">+ setDebugColor()</text>
<text text-anchor="start" x="8" y="-266.5" font-family="Helvetica,sans-Serif" font-size="10.00">+ getPosition()</text>
<text text-anchor="start" x="8" y="-255.5" font-family="Helvetica,sans-Serif" font-size="10.00">+ setPosition()</text>
</a>
</g>
</g>
<!-- Node2&#45;&gt;Node1 -->
<g id="edge1" class="edge">
<title>Node2&#45;&gt;Node1</title>
<path fill="none" stroke="midnightblue" d="M82,-238.22C82,-229.46 82,-220.6 82,-211.84"/>
<polygon fill="none" stroke="midnightblue" points="78.5,-238.45 82,-248.45 85.5,-238.45 78.5,-238.45"/>
</g>
<!-- Node3 -->
<g id="node3" class="node">
<title>Node3</title>
<g id="a_node3"><a xlink:href="classRAY_1_1Drawables_1_1IDrawable.html" target="_top" xlink:title="Interface for any drawable.">
<polygon fill="white" stroke="black" points="8.5,-474.5 8.5,-542.5 155.5,-542.5 155.5,-474.5 8.5,-474.5"/>
<text text-anchor="middle" x="82" y="-530.5" font-family="Helvetica,sans-Serif" font-size="10.00">RAY::Drawables::IDrawable</text>
<polyline fill="none" stroke="black" points="8.5,-523.5 155.5,-523.5 "/>
<text text-anchor="middle" x="82" y="-511.5" font-family="Helvetica,sans-Serif" font-size="10.00"> </text>
<polyline fill="none" stroke="black" points="8.5,-504.5 155.5,-504.5 "/>
<text text-anchor="start" x="16.5" y="-492.5" font-family="Helvetica,sans-Serif" font-size="10.00">+ ~IDrawable()</text>
<text text-anchor="start" x="16.5" y="-481.5" font-family="Helvetica,sans-Serif" font-size="10.00">+ drawOn()</text>
</a>
</g>
</g>
<!-- Node3&#45;&gt;Node2 -->
<g id="edge2" class="edge">
<title>Node3&#45;&gt;Node2</title>
<path fill="none" stroke="midnightblue" d="M82,-464.25C82,-455.9 82,-446.85 82,-437.6"/>
<polygon fill="none" stroke="midnightblue" points="78.5,-464.41 82,-474.41 85.5,-464.41 78.5,-464.41"/>
</g>
</g>
</svg>
