<?xml version="1.0" encoding="UTF-8" standalone="no"?>
<!DOCTYPE svg PUBLIC "-//W3C//DTD SVG 1.1//EN"
 "http://www.w3.org/Graphics/SVG/1.1/DTD/svg11.dtd">
<!-- Generated by graphviz version 2.43.0 (0)
 -->
<!-- Title: RAY::Drawables::Drawables3D::Ray Pages: 1 -->
<svg width="420pt" height="574pt"
 viewBox="0.00 0.00 420.00 574.00" xmlns="http://www.w3.org/2000/svg" xmlns:xlink="http://www.w3.org/1999/xlink">
<g id="graph0" class="graph" transform="scale(1 1) rotate(0) translate(4 570)">
<title>RAY::Drawables::Drawables3D::Ray</title>
<polygon fill="white" stroke="transparent" points="-4,4 -4,-570 416,-570 416,4 -4,4"/>
<!-- Node1 -->
<g id="node1" class="node">
<title>Node1</title>
<g id="a_node1"><a xlink:title="Ray in a three&#45;dimensionnal space.">
<polygon fill="#bfbfbf" stroke="black" points="223,-0.5 223,-134.5 378,-134.5 378,-0.5 223,-0.5"/>
<text text-anchor="start" x="231" y="-122.5" font-family="Helvetica,sans-Serif" font-size="10.00">RAY::Drawables::Drawables3</text>
<text text-anchor="middle" x="300.5" y="-111.5" font-family="Helvetica,sans-Serif" font-size="10.00">D::Ray</text>
<polyline fill="none" stroke="black" points="223,-104.5 378,-104.5 "/>
<text text-anchor="middle" x="300.5" y="-92.5" font-family="Helvetica,sans-Serif" font-size="10.00"> </text>
<polyline fill="none" stroke="black" points="223,-85.5 378,-85.5 "/>
<text text-anchor="start" x="231" y="-73.5" font-family="Helvetica,sans-Serif" font-size="10.00">+ Ray()</text>
<text text-anchor="start" x="231" y="-62.5" font-family="Helvetica,sans-Serif" font-size="10.00">+ Ray()</text>
<text text-anchor="start" x="231" y="-51.5" font-family="Helvetica,sans-Serif" font-size="10.00">+ operator=()</text>
<text text-anchor="start" x="231" y="-40.5" font-family="Helvetica,sans-Serif" font-size="10.00">+ ~Ray()</text>
<text text-anchor="start" x="231" y="-29.5" font-family="Helvetica,sans-Serif" font-size="10.00">+ getDirection()</text>
<text text-anchor="start" x="231" y="-18.5" font-family="Helvetica,sans-Serif" font-size="10.00">+ setDirection()</text>
<text text-anchor="start" x="231" y="-7.5" font-family="Helvetica,sans-Serif" font-size="10.00">+ drawOn()</text>
</a>
</g>
</g>
<!-- Node2 -->
<g id="node2" class="node">
<title>Node2</title>
<g id="a_node2"><a xlink:href="classRAY_1_1Drawables_1_1ADrawable3D.html" target="_top" xlink:title="Abstraction of any three&#45;dimensionnal drawable.">
<polygon fill="white" stroke="black" points="147.5,-172.5 147.5,-339.5 311.5,-339.5 311.5,-172.5 147.5,-172.5"/>
<text text-anchor="middle" x="229.5" y="-327.5" font-family="Helvetica,sans-Serif" font-size="10.00">RAY::Drawables::ADrawable3D</text>
<polyline fill="none" stroke="black" points="147.5,-320.5 311.5,-320.5 "/>
<text text-anchor="middle" x="229.5" y="-308.5" font-family="Helvetica,sans-Serif" font-size="10.00"> </text>
<polyline fill="none" stroke="black" points="147.5,-301.5 311.5,-301.5 "/>
<text text-anchor="start" x="155.5" y="-289.5" font-family="Helvetica,sans-Serif" font-size="10.00">+ ADrawable3D()</text>
<text text-anchor="start" x="155.5" y="-278.5" font-family="Helvetica,sans-Serif" font-size="10.00">+ ADrawable3D()</text>
<text text-anchor="start" x="155.5" y="-267.5" font-family="Helvetica,sans-Serif" font-size="10.00">+ ~ADrawable3D()</text>
<text text-anchor="start" x="155.5" y="-256.5" font-family="Helvetica,sans-Serif" font-size="10.00">+ drawOn()</text>
<text text-anchor="start" x="155.5" y="-245.5" font-family="Helvetica,sans-Serif" font-size="10.00">+ drawWiresOn()</text>
<text text-anchor="start" x="155.5" y="-234.5" font-family="Helvetica,sans-Serif" font-size="10.00">+ getColor()</text>
<text text-anchor="start" x="155.5" y="-223.5" font-family="Helvetica,sans-Serif" font-size="10.00">+ setColor()</text>
<text text-anchor="start" x="155.5" y="-212.5" font-family="Helvetica,sans-Serif" font-size="10.00">+ getDebugColor()</text>
<text text-anchor="start" x="155.5" y="-201.5" font-family="Helvetica,sans-Serif" font-size="10.00">+ setDebugColor()</text>
<text text-anchor="start" x="155.5" y="-190.5" font-family="Helvetica,sans-Serif" font-size="10.00">+ getPosition()</text>
<text text-anchor="start" x="155.5" y="-179.5" font-family="Helvetica,sans-Serif" font-size="10.00">+ setPosition()</text>
</a>
</g>
</g>
<!-- Node2&#45;&gt;Node1 -->
<g id="edge1" class="edge">
<title>Node2&#45;&gt;Node1</title>
<path fill="none" stroke="midnightblue" d="M264.58,-162.85C268.22,-153.29 271.86,-143.73 275.36,-134.54"/>
<polygon fill="none" stroke="midnightblue" points="261.24,-161.79 260.95,-172.38 267.78,-164.28 261.24,-161.79"/>
</g>
<!-- Node3 -->
<g id="node3" class="node">
<title>Node3</title>
<g id="a_node3"><a xlink:href="classRAY_1_1Drawables_1_1IDrawable.html" target="_top" xlink:title="Interface for any drawable.">
<polygon fill="white" stroke="black" points="0,-448 0,-516 147,-516 147,-448 0,-448"/>
<text text-anchor="middle" x="73.5" y="-504" font-family="Helvetica,sans-Serif" font-size="10.00">RAY::Drawables::IDrawable</text>
<polyline fill="none" stroke="black" points="0,-497 147,-497 "/>
<text text-anchor="middle" x="73.5" y="-485" font-family="Helvetica,sans-Serif" font-size="10.00"> </text>
<polyline fill="none" stroke="black" points="0,-478 147,-478 "/>
<text text-anchor="start" x="8" y="-466" font-family="Helvetica,sans-Serif" font-size="10.00">+ ~IDrawable()</text>
<text text-anchor="start" x="8" y="-455" font-family="Helvetica,sans-Serif" font-size="10.00">+ drawOn()</text>
</a>
</g>
</g>
<!-- Node3&#45;&gt;Node2 -->
<g id="edge2" class="edge">
<title>Node3&#45;&gt;Node2</title>
<path fill="none" stroke="midnightblue" d="M102.34,-439.59C121.85,-411.58 148.29,-373.62 172,-339.56"/>
<polygon fill="none" stroke="midnightblue" points="99.36,-437.74 96.52,-447.95 105.11,-441.74 99.36,-437.74"/>
</g>
<!-- Node4 -->
<g id="node4" class="node">
<title>Node4</title>
<g id="a_node4"><a xlink:href="classRAY_1_1Color.html" target="_top" xlink:title="Object representation of color.">
<polygon fill="white" stroke="black" points="165,-398.5 165,-565.5 250,-565.5 250,-398.5 165,-398.5"/>
<text text-anchor="middle" x="207.5" y="-553.5" font-family="Helvetica,sans-Serif" font-size="10.00">RAY::Color</text>
<polyline fill="none" stroke="black" points="165,-546.5 250,-546.5 "/>
<text text-anchor="start" x="173" y="-534.5" font-family="Helvetica,sans-Serif" font-size="10.00">&#45; __pad0__</text>
<polyline fill="none" stroke="black" points="165,-527.5 250,-527.5 "/>
<text text-anchor="start" x="173" y="-515.5" font-family="Helvetica,sans-Serif" font-size="10.00">+ Color()</text>
<text text-anchor="start" x="173" y="-504.5" font-family="Helvetica,sans-Serif" font-size="10.00">+ Color()</text>
<text text-anchor="start" x="173" y="-493.5" font-family="Helvetica,sans-Serif" font-size="10.00">+ Color()</text>
<text text-anchor="start" x="173" y="-482.5" font-family="Helvetica,sans-Serif" font-size="10.00">+ Color()</text>
<text text-anchor="start" x="173" y="-471.5" font-family="Helvetica,sans-Serif" font-size="10.00">+ Color()</text>
<text text-anchor="start" x="173" y="-460.5" font-family="Helvetica,sans-Serif" font-size="10.00">+ ~Color()</text>
<text text-anchor="start" x="173" y="-449.5" font-family="Helvetica,sans-Serif" font-size="10.00">+ operator=()</text>
<text text-anchor="start" x="173" y="-438.5" font-family="Helvetica,sans-Serif" font-size="10.00">+ setR()</text>
<text text-anchor="start" x="173" y="-427.5" font-family="Helvetica,sans-Serif" font-size="10.00">+ setG()</text>
<text text-anchor="start" x="173" y="-416.5" font-family="Helvetica,sans-Serif" font-size="10.00">+ setB()</text>
<text text-anchor="start" x="173" y="-405.5" font-family="Helvetica,sans-Serif" font-size="10.00">and 6 more...</text>
</a>
</g>
</g>
<!-- Node4&#45;&gt;Node2 -->
<g id="edge3" class="edge">
<title>Node4&#45;&gt;Node2</title>
<path fill="none" stroke="#404040" d="M203.14,-398.48C203.29,-384.92 203.97,-371.05 205.5,-358 205.74,-355.94 206.01,-353.86 206.3,-351.77"/>
<polygon fill="none" stroke="#404040" points="206.34,-351.53 203.33,-344.97 208.22,-339.67 211.23,-346.23 206.34,-351.53"/>
<text text-anchor="middle" x="242" y="-372" font-family="Helvetica,sans-Serif" font-size="10.00"> #_debugColor</text>
<text text-anchor="middle" x="242" y="-361" font-family="Helvetica,sans-Serif" font-size="10.00">#_color</text>
</g>
<!-- Node4&#45;&gt;Node4 -->
<g id="edge4" class="edge">
<title>Node4&#45;&gt;Node4</title>
<path fill="none" stroke="#404040" d="M250.18,-502.63C260.42,-501.02 268,-494.14 268,-482 268,-474.98 265.47,-469.72 261.35,-466.22"/>
<polygon fill="none" stroke="#404040" points="261.19,-466.15 254.09,-467.43 250.18,-461.37 257.28,-460.09 261.19,-466.15"/>
<text text-anchor="middle" x="286.5" y="-479.5" font-family="Helvetica,sans-Serif" font-size="10.00"> &#45;_color</text>
</g>
<!-- Node5 -->
<g id="node5" class="node">
<title>Node5</title>
<g id="a_node5"><a xlink:href="classRAY_1_1Vector3.html" target="_top" xlink:title="A Three&#45;dimensionnal Vector data type.">
<polygon fill="white" stroke="black" points="327,-409.5 327,-554.5 412,-554.5 412,-409.5 327,-409.5"/>
<text text-anchor="middle" x="369.5" y="-542.5" font-family="Helvetica,sans-Serif" font-size="10.00">RAY::Vector3</text>
<polyline fill="none" stroke="black" points="327,-535.5 412,-535.5 "/>
<text text-anchor="start" x="335" y="-523.5" font-family="Helvetica,sans-Serif" font-size="10.00">+ x</text>
<text text-anchor="start" x="335" y="-512.5" font-family="Helvetica,sans-Serif" font-size="10.00">+ y</text>
<text text-anchor="start" x="335" y="-501.5" font-family="Helvetica,sans-Serif" font-size="10.00">+ z</text>
<text text-anchor="start" x="335" y="-490.5" font-family="Helvetica,sans-Serif" font-size="10.00">+ __pad0__</text>
<polyline fill="none" stroke="black" points="327,-483.5 412,-483.5 "/>
<text text-anchor="start" x="335" y="-471.5" font-family="Helvetica,sans-Serif" font-size="10.00">+ Vector3()</text>
<text text-anchor="start" x="335" y="-460.5" font-family="Helvetica,sans-Serif" font-size="10.00">+ Vector3()</text>
<text text-anchor="start" x="335" y="-449.5" font-family="Helvetica,sans-Serif" font-size="10.00">+ Vector3()</text>
<text text-anchor="start" x="335" y="-438.5" font-family="Helvetica,sans-Serif" font-size="10.00">+ Vector3()</text>
<text text-anchor="start" x="335" y="-427.5" font-family="Helvetica,sans-Serif" font-size="10.00">+ ~Vector3()</text>
<text text-anchor="start" x="335" y="-416.5" font-family="Helvetica,sans-Serif" font-size="10.00">+ operator=()</text>
</a>
</g>
</g>
<!-- Node5&#45;&gt;Node1 -->
<g id="edge6" class="edge">
<title>Node5&#45;&gt;Node1</title>
<path fill="none" stroke="#404040" d="M363.69,-409.31C362,-392.44 359.93,-374.56 357.5,-358 346.92,-285.96 330.52,-204.67 318.02,-146.61"/>
<polygon fill="none" stroke="#404040" points="317.95,-146.31 312.77,-141.3 315.41,-134.59 320.59,-139.6 317.95,-146.31"/>
<text text-anchor="middle" x="381" y="-253.5" font-family="Helvetica,sans-Serif" font-size="10.00"> &#45;_direction</text>
</g>
<!-- Node5&#45;&gt;Node2 -->
<g id="edge5" class="edge">
<title>Node5&#45;&gt;Node2</title>
<path fill="none" stroke="#404040" d="M326.81,-416.04C322.69,-409.92 318.53,-403.83 314.5,-398 308.88,-389.89 306.89,-388.27 301.5,-380 295.28,-370.46 288.98,-360.38 282.81,-350.25"/>
<polygon fill="none" stroke="#404040" points="282.65,-349.98 276.12,-346.91 276.45,-339.71 282.97,-342.78 282.65,-349.98"/>
<text text-anchor="middle" x="329.5" y="-366.5" font-family="Helvetica,sans-Serif" font-size="10.00"> #_position</text>
</g>
</g>
</svg>
