<?xml version="1.0" encoding="UTF-8" standalone="no"?>
<!DOCTYPE svg PUBLIC "-//W3C//DTD SVG 1.1//EN"
 "http://www.w3.org/Graphics/SVG/1.1/DTD/svg11.dtd">
<!-- Generated by graphviz version 2.43.0 (0)
 -->
<!-- Title: RAY::Camera::Camera2D Pages: 1 -->
<svg width="211pt" height="304pt"
 viewBox="0.00 0.00 211.00 304.00" xmlns="http://www.w3.org/2000/svg" xmlns:xlink="http://www.w3.org/1999/xlink">
<g id="graph0" class="graph" transform="scale(1 1) rotate(0) translate(4 300)">
<title>RAY::Camera::Camera2D</title>
<polygon fill="white" stroke="transparent" points="-4,4 -4,-300 207,-300 207,4 -4,4"/>
<!-- Node1 -->
<g id="node1" class="node">
<title>Node1</title>
<g id="a_node1"><a xlink:title="Entity representing a Camera in 2D space.">
<polygon fill="#bfbfbf" stroke="black" points="0,-0.5 0,-189.5 136,-189.5 136,-0.5 0,-0.5"/>
<text text-anchor="middle" x="68" y="-177.5" font-family="Helvetica,sans-Serif" font-size="10.00">RAY::Camera::Camera2D</text>
<polyline fill="none" stroke="black" points="0,-170.5 136,-170.5 "/>
<text text-anchor="start" x="8" y="-158.5" font-family="Helvetica,sans-Serif" font-size="10.00">&#45; __pad0__</text>
<polyline fill="none" stroke="black" points="0,-151.5 136,-151.5 "/>
<text text-anchor="start" x="8" y="-139.5" font-family="Helvetica,sans-Serif" font-size="10.00">+ Camera2D()</text>
<text text-anchor="start" x="8" y="-128.5" font-family="Helvetica,sans-Serif" font-size="10.00">+ Camera2D()</text>
<text text-anchor="start" x="8" y="-117.5" font-family="Helvetica,sans-Serif" font-size="10.00">+ ~Camera2D()</text>
<text text-anchor="start" x="8" y="-106.5" font-family="Helvetica,sans-Serif" font-size="10.00">+ operator=()</text>
<text text-anchor="start" x="8" y="-95.5" font-family="Helvetica,sans-Serif" font-size="10.00">+ setOffset()</text>
<text text-anchor="start" x="8" y="-84.5" font-family="Helvetica,sans-Serif" font-size="10.00">+ setTarget()</text>
<text text-anchor="start" x="8" y="-73.5" font-family="Helvetica,sans-Serif" font-size="10.00">+ setRotation()</text>
<text text-anchor="start" x="8" y="-62.5" font-family="Helvetica,sans-Serif" font-size="10.00">+ setZoom()</text>
<text text-anchor="start" x="8" y="-51.5" font-family="Helvetica,sans-Serif" font-size="10.00">+ getOffset()</text>
<text text-anchor="start" x="8" y="-40.5" font-family="Helvetica,sans-Serif" font-size="10.00">+ getTarget()</text>
<text text-anchor="start" x="8" y="-29.5" font-family="Helvetica,sans-Serif" font-size="10.00">+ getRotation()</text>
<text text-anchor="start" x="8" y="-18.5" font-family="Helvetica,sans-Serif" font-size="10.00">+ getZoom()</text>
<text text-anchor="start" x="8" y="-7.5" font-family="Helvetica,sans-Serif" font-size="10.00">+ getMatrix()</text>
</a>
</g>
</g>
<!-- Node1&#45;&gt;Node1 -->
<g id="edge2" class="edge">
<title>Node1&#45;&gt;Node1</title>
<path fill="none" stroke="#404040" d="M136.13,-114.25C146.76,-111.37 154,-104.95 154,-95 154,-89.09 151.45,-84.43 147.15,-81.01"/>
<polygon fill="none" stroke="#404040" points="146.96,-80.92 139.82,-81.95 136.13,-75.75 143.27,-74.73 146.96,-80.92"/>
<text text-anchor="middle" x="178.5" y="-92.5" font-family="Helvetica,sans-Serif" font-size="10.00"> &#45;_camera</text>
</g>
<!-- Node2 -->
<g id="node2" class="node">
<title>Node2</title>
<g id="a_node2"><a xlink:href="classRAY_1_1Camera_1_1ICamera.html" target="_top" xlink:title="Interface for Cameras.">
<polygon fill="white" stroke="black" points="5.5,-227.5 5.5,-295.5 130.5,-295.5 130.5,-227.5 5.5,-227.5"/>
<text text-anchor="middle" x="68" y="-283.5" font-family="Helvetica,sans-Serif" font-size="10.00">RAY::Camera::ICamera</text>
<polyline fill="none" stroke="black" points="5.5,-276.5 130.5,-276.5 "/>
<text text-anchor="middle" x="68" y="-264.5" font-family="Helvetica,sans-Serif" font-size="10.00"> </text>
<polyline fill="none" stroke="black" points="5.5,-257.5 130.5,-257.5 "/>
<text text-anchor="start" x="13.5" y="-245.5" font-family="Helvetica,sans-Serif" font-size="10.00">+ ~ICamera()</text>
<text text-anchor="start" x="13.5" y="-234.5" font-family="Helvetica,sans-Serif" font-size="10.00">+ getMatrix()</text>
</a>
</g>
</g>
<!-- Node2&#45;&gt;Node1 -->
<g id="edge1" class="edge">
<title>Node2&#45;&gt;Node1</title>
<path fill="none" stroke="midnightblue" d="M68,-217.17C68,-208.62 68,-199.33 68,-189.83"/>
<polygon fill="none" stroke="midnightblue" points="64.5,-217.21 68,-227.21 71.5,-217.21 64.5,-217.21"/>
</g>
</g>
</svg>
