<?xml version="1.0" encoding="UTF-8" standalone="no"?>
<!DOCTYPE svg PUBLIC "-//W3C//DTD SVG 1.1//EN"
 "http://www.w3.org/Graphics/SVG/1.1/DTD/svg11.dtd">
<!-- Generated by graphviz version 2.43.0 (0)
 -->
<!-- Title: RAY::Drawables::Drawables3D::Plane Pages: 1 -->
<svg width="416pt" height="584pt"
 viewBox="0.00 0.00 416.00 584.00" xmlns="http://www.w3.org/2000/svg" xmlns:xlink="http://www.w3.org/1999/xlink">
<g id="graph0" class="graph" transform="scale(1 1) rotate(0) translate(4 580)">
<title>RAY::Drawables::Drawables3D::Plane</title>
<polygon fill="white" stroke="transparent" points="-4,4 -4,-580 412,-580 412,4 -4,4"/>
<!-- Node1 -->
<g id="node1" class="node">
<title>Node1</title>
<g id="a_node1"><a xlink:title="Plane in a three&#45;dimensionnal space.">
<polygon fill="#bfbfbf" stroke="black" points="201,-0.5 201,-134.5 356,-134.5 356,-0.5 201,-0.5"/>
<text text-anchor="start" x="209" y="-122.5" font-family="Helvetica,sans-Serif" font-size="10.00">RAY::Drawables::Drawables3</text>
<text text-anchor="middle" x="278.5" y="-111.5" font-family="Helvetica,sans-Serif" font-size="10.00">D::Plane</text>
<polyline fill="none" stroke="black" points="201,-104.5 356,-104.5 "/>
<text text-anchor="middle" x="278.5" y="-92.5" font-family="Helvetica,sans-Serif" font-size="10.00"> </text>
<polyline fill="none" stroke="black" points="201,-85.5 356,-85.5 "/>
<text text-anchor="start" x="209" y="-73.5" font-family="Helvetica,sans-Serif" font-size="10.00">+ Plane()</text>
<text text-anchor="start" x="209" y="-62.5" font-family="Helvetica,sans-Serif" font-size="10.00">+ Plane()</text>
<text text-anchor="start" x="209" y="-51.5" font-family="Helvetica,sans-Serif" font-size="10.00">+ operator=()</text>
<text text-anchor="start" x="209" y="-40.5" font-family="Helvetica,sans-Serif" font-size="10.00">+ ~Plane()</text>
<text text-anchor="start" x="209" y="-29.5" font-family="Helvetica,sans-Serif" font-size="10.00">+ getDimensions()</text>
<text text-anchor="start" x="209" y="-18.5" font-family="Helvetica,sans-Serif" font-size="10.00">+ setDimensions()</text>
<text text-anchor="start" x="209" y="-7.5" font-family="Helvetica,sans-Serif" font-size="10.00">+ drawOn()</text>
</a>
</g>
</g>
<!-- Node2 -->
<g id="node2" class="node">
<title>Node2</title>
<g id="a_node2"><a xlink:href="classRAY_1_1Drawables_1_1ADrawable3D.html" target="_top" xlink:title="Abstraction of any three&#45;dimensionnal drawable.">
<polygon fill="white" stroke="black" points="125.5,-182.5 125.5,-349.5 289.5,-349.5 289.5,-182.5 125.5,-182.5"/>
<text text-anchor="middle" x="207.5" y="-337.5" font-family="Helvetica,sans-Serif" font-size="10.00">RAY::Drawables::ADrawable3D</text>
<polyline fill="none" stroke="black" points="125.5,-330.5 289.5,-330.5 "/>
<text text-anchor="middle" x="207.5" y="-318.5" font-family="Helvetica,sans-Serif" font-size="10.00"> </text>
<polyline fill="none" stroke="black" points="125.5,-311.5 289.5,-311.5 "/>
<text text-anchor="start" x="133.5" y="-299.5" font-family="Helvetica,sans-Serif" font-size="10.00">+ ADrawable3D()</text>
<text text-anchor="start" x="133.5" y="-288.5" font-family="Helvetica,sans-Serif" font-size="10.00">+ ADrawable3D()</text>
<text text-anchor="start" x="133.5" y="-277.5" font-family="Helvetica,sans-Serif" font-size="10.00">+ ~ADrawable3D()</text>
<text text-anchor="start" x="133.5" y="-266.5" font-family="Helvetica,sans-Serif" font-size="10.00">+ drawOn()</text>
<text text-anchor="start" x="133.5" y="-255.5" font-family="Helvetica,sans-Serif" font-size="10.00">+ drawWiresOn()</text>
<text text-anchor="start" x="133.5" y="-244.5" font-family="Helvetica,sans-Serif" font-size="10.00">+ getColor()</text>
<text text-anchor="start" x="133.5" y="-233.5" font-family="Helvetica,sans-Serif" font-size="10.00">+ setColor()</text>
<text text-anchor="start" x="133.5" y="-222.5" font-family="Helvetica,sans-Serif" font-size="10.00">+ getDebugColor()</text>
<text text-anchor="start" x="133.5" y="-211.5" font-family="Helvetica,sans-Serif" font-size="10.00">+ setDebugColor()</text>
<text text-anchor="start" x="133.5" y="-200.5" font-family="Helvetica,sans-Serif" font-size="10.00">+ getPosition()</text>
<text text-anchor="start" x="133.5" y="-189.5" font-family="Helvetica,sans-Serif" font-size="10.00">+ setPosition()</text>
</a>
</g>
</g>
<!-- Node2&#45;&gt;Node1 -->
<g id="edge1" class="edge">
<title>Node2&#45;&gt;Node1</title>
<path fill="none" stroke="midnightblue" d="M240.91,-172.53C245.52,-159.79 250.17,-146.91 254.55,-134.77"/>
<polygon fill="none" stroke="midnightblue" points="237.51,-171.64 237.4,-182.24 244.09,-174.02 237.51,-171.64"/>
</g>
<!-- Node3 -->
<g id="node3" class="node">
<title>Node3</title>
<g id="a_node3"><a xlink:href="classRAY_1_1Drawables_1_1IDrawable.html" target="_top" xlink:title="Interface for any drawable.">
<polygon fill="white" stroke="black" points="0,-458 0,-526 147,-526 147,-458 0,-458"/>
<text text-anchor="middle" x="73.5" y="-514" font-family="Helvetica,sans-Serif" font-size="10.00">RAY::Drawables::IDrawable</text>
<polyline fill="none" stroke="black" points="0,-507 147,-507 "/>
<text text-anchor="middle" x="73.5" y="-495" font-family="Helvetica,sans-Serif" font-size="10.00"> </text>
<polyline fill="none" stroke="black" points="0,-488 147,-488 "/>
<text text-anchor="start" x="8" y="-476" font-family="Helvetica,sans-Serif" font-size="10.00">+ ~IDrawable()</text>
<text text-anchor="start" x="8" y="-465" font-family="Helvetica,sans-Serif" font-size="10.00">+ drawOn()</text>
</a>
</g>
</g>
<!-- Node3&#45;&gt;Node2 -->
<g id="edge2" class="edge">
<title>Node3&#45;&gt;Node2</title>
<path fill="none" stroke="midnightblue" d="M98.49,-449.23C115.23,-421.25 137.83,-383.47 158.11,-349.56"/>
<polygon fill="none" stroke="midnightblue" points="95.4,-447.57 93.27,-457.95 101.41,-451.16 95.4,-447.57"/>
</g>
<!-- Node4 -->
<g id="node4" class="node">
<title>Node4</title>
<g id="a_node4"><a xlink:href="classRAY_1_1Color.html" target="_top" xlink:title="Object representation of color.">
<polygon fill="white" stroke="black" points="165,-408.5 165,-575.5 250,-575.5 250,-408.5 165,-408.5"/>
<text text-anchor="middle" x="207.5" y="-563.5" font-family="Helvetica,sans-Serif" font-size="10.00">RAY::Color</text>
<polyline fill="none" stroke="black" points="165,-556.5 250,-556.5 "/>
<text text-anchor="start" x="173" y="-544.5" font-family="Helvetica,sans-Serif" font-size="10.00">&#45; __pad0__</text>
<polyline fill="none" stroke="black" points="165,-537.5 250,-537.5 "/>
<text text-anchor="start" x="173" y="-525.5" font-family="Helvetica,sans-Serif" font-size="10.00">+ Color()</text>
<text text-anchor="start" x="173" y="-514.5" font-family="Helvetica,sans-Serif" font-size="10.00">+ Color()</text>
<text text-anchor="start" x="173" y="-503.5" font-family="Helvetica,sans-Serif" font-size="10.00">+ Color()</text>
<text text-anchor="start" x="173" y="-492.5" font-family="Helvetica,sans-Serif" font-size="10.00">+ Color()</text>
<text text-anchor="start" x="173" y="-481.5" font-family="Helvetica,sans-Serif" font-size="10.00">+ Color()</text>
<text text-anchor="start" x="173" y="-470.5" font-family="Helvetica,sans-Serif" font-size="10.00">+ ~Color()</text>
<text text-anchor="start" x="173" y="-459.5" font-family="Helvetica,sans-Serif" font-size="10.00">+ operator=()</text>
<text text-anchor="start" x="173" y="-448.5" font-family="Helvetica,sans-Serif" font-size="10.00">+ setR()</text>
<text text-anchor="start" x="173" y="-437.5" font-family="Helvetica,sans-Serif" font-size="10.00">+ setG()</text>
<text text-anchor="start" x="173" y="-426.5" font-family="Helvetica,sans-Serif" font-size="10.00">+ setB()</text>
<text text-anchor="start" x="173" y="-415.5" font-family="Helvetica,sans-Serif" font-size="10.00">and 6 more...</text>
</a>
</g>
</g>
<!-- Node4&#45;&gt;Node2 -->
<g id="edge3" class="edge">
<title>Node4&#45;&gt;Node2</title>
<path fill="none" stroke="#404040" d="M207.5,-408.23C207.5,-393.18 207.5,-377.38 207.5,-362.01"/>
<polygon fill="none" stroke="#404040" points="207.5,-361.81 203.5,-355.81 207.5,-349.81 211.5,-355.81 207.5,-361.81"/>
<text text-anchor="middle" x="244" y="-382" font-family="Helvetica,sans-Serif" font-size="10.00"> #_debugColor</text>
<text text-anchor="middle" x="244" y="-371" font-family="Helvetica,sans-Serif" font-size="10.00">#_color</text>
</g>
<!-- Node4&#45;&gt;Node4 -->
<g id="edge4" class="edge">
<title>Node4&#45;&gt;Node4</title>
<path fill="none" stroke="#404040" d="M250.18,-512.63C260.42,-511.02 268,-504.14 268,-492 268,-484.98 265.47,-479.72 261.35,-476.22"/>
<polygon fill="none" stroke="#404040" points="261.19,-476.15 254.09,-477.43 250.18,-471.37 257.28,-470.09 261.19,-476.15"/>
<text text-anchor="middle" x="286.5" y="-489.5" font-family="Helvetica,sans-Serif" font-size="10.00"> &#45;_color</text>
</g>
<!-- Node5 -->
<g id="node5" class="node">
<title>Node5</title>
<g id="a_node5"><a xlink:href="classRAY_1_1Vector3.html" target="_top" xlink:title="A Three&#45;dimensionnal Vector data type.">
<polygon fill="white" stroke="black" points="323,-419.5 323,-564.5 408,-564.5 408,-419.5 323,-419.5"/>
<text text-anchor="middle" x="365.5" y="-552.5" font-family="Helvetica,sans-Serif" font-size="10.00">RAY::Vector3</text>
<polyline fill="none" stroke="black" points="323,-545.5 408,-545.5 "/>
<text text-anchor="start" x="331" y="-533.5" font-family="Helvetica,sans-Serif" font-size="10.00">+ x</text>
<text text-anchor="start" x="331" y="-522.5" font-family="Helvetica,sans-Serif" font-size="10.00">+ y</text>
<text text-anchor="start" x="331" y="-511.5" font-family="Helvetica,sans-Serif" font-size="10.00">+ z</text>
<text text-anchor="start" x="331" y="-500.5" font-family="Helvetica,sans-Serif" font-size="10.00">+ __pad0__</text>
<polyline fill="none" stroke="black" points="323,-493.5 408,-493.5 "/>
<text text-anchor="start" x="331" y="-481.5" font-family="Helvetica,sans-Serif" font-size="10.00">+ Vector3()</text>
<text text-anchor="start" x="331" y="-470.5" font-family="Helvetica,sans-Serif" font-size="10.00">+ Vector3()</text>
<text text-anchor="start" x="331" y="-459.5" font-family="Helvetica,sans-Serif" font-size="10.00">+ Vector3()</text>
<text text-anchor="start" x="331" y="-448.5" font-family="Helvetica,sans-Serif" font-size="10.00">+ Vector3()</text>
<text text-anchor="start" x="331" y="-437.5" font-family="Helvetica,sans-Serif" font-size="10.00">+ ~Vector3()</text>
<text text-anchor="start" x="331" y="-426.5" font-family="Helvetica,sans-Serif" font-size="10.00">+ operator=()</text>
</a>
</g>
</g>
<!-- Node5&#45;&gt;Node2 -->
<g id="edge5" class="edge">
<title>Node5&#45;&gt;Node2</title>
<path fill="none" stroke="#404040" d="M322.72,-421.93C319.64,-417.19 316.54,-412.51 313.5,-408 302.79,-392.13 290.99,-375.6 279.27,-359.68"/>
<polygon fill="none" stroke="#404040" points="279.14,-359.5 272.35,-357.06 271.99,-349.85 278.78,-352.29 279.14,-359.5"/>
<text text-anchor="middle" x="328.5" y="-376.5" font-family="Helvetica,sans-Serif" font-size="10.00"> #_position</text>
</g>
<!-- Node6 -->
<g id="node6" class="node">
<title>Node6</title>
<g id="a_node6"><a xlink:href="classRAY_1_1Vector2.html" target="_top" xlink:title="A Two&#45;dimensionnal Vector data type.">
<polygon fill="white" stroke="black" points="308,-199 308,-333 393,-333 393,-199 308,-199"/>
<text text-anchor="middle" x="350.5" y="-321" font-family="Helvetica,sans-Serif" font-size="10.00">RAY::Vector2</text>
<polyline fill="none" stroke="black" points="308,-314 393,-314 "/>
<text text-anchor="start" x="316" y="-302" font-family="Helvetica,sans-Serif" font-size="10.00">+ x</text>
<text text-anchor="start" x="316" y="-291" font-family="Helvetica,sans-Serif" font-size="10.00">+ y</text>
<text text-anchor="start" x="316" y="-280" font-family="Helvetica,sans-Serif" font-size="10.00">+ __pad0__</text>
<polyline fill="none" stroke="black" points="308,-273 393,-273 "/>
<text text-anchor="start" x="316" y="-261" font-family="Helvetica,sans-Serif" font-size="10.00">+ Vector2()</text>
<text text-anchor="start" x="316" y="-250" font-family="Helvetica,sans-Serif" font-size="10.00">+ Vector2()</text>
<text text-anchor="start" x="316" y="-239" font-family="Helvetica,sans-Serif" font-size="10.00">+ Vector2()</text>
<text text-anchor="start" x="316" y="-228" font-family="Helvetica,sans-Serif" font-size="10.00">+ Vector2()</text>
<text text-anchor="start" x="316" y="-217" font-family="Helvetica,sans-Serif" font-size="10.00">+ ~Vector2()</text>
<text text-anchor="start" x="316" y="-206" font-family="Helvetica,sans-Serif" font-size="10.00">+ operator=()</text>
</a>
</g>
</g>
<!-- Node6&#45;&gt;Node1 -->
<g id="edge6" class="edge">
<title>Node6&#45;&gt;Node1</title>
<path fill="none" stroke="#404040" d="M326.22,-198.75C320.03,-181.84 313.31,-163.51 306.93,-146.09"/>
<polygon fill="none" stroke="#404040" points="306.92,-146.07 301.1,-141.81 302.79,-134.8 308.61,-139.06 306.92,-146.07"/>
<text text-anchor="middle" x="347" y="-156" font-family="Helvetica,sans-Serif" font-size="10.00"> &#45;_dimensions</text>
</g>
</g>
</svg>
