<?xml version="1.0" encoding="UTF-8" standalone="no"?>
<!DOCTYPE svg PUBLIC "-//W3C//DTD SVG 1.1//EN"
 "http://www.w3.org/Graphics/SVG/1.1/DTD/svg11.dtd">
<!-- Generated by graphviz version 2.43.0 (0)
 -->
<!-- Title: RAY::Drawables::Drawables2D::Rectangle Pages: 1 -->
<svg width="260pt" height="799pt"
 viewBox="0.00 0.00 260.00 799.00" xmlns="http://www.w3.org/2000/svg" xmlns:xlink="http://www.w3.org/1999/xlink">
<g id="graph0" class="graph" transform="scale(1 1) rotate(0) translate(4 795)">
<title>RAY::Drawables::Drawables2D::Rectangle</title>
<polygon fill="white" stroke="transparent" points="-4,4 -4,-795 256,-795 256,4 -4,4"/>
<!-- Node1 -->
<g id="node1" class="node">
<title>Node1</title>
<g id="a_node1"><a xlink:title="Rectangle in a two&#45;dimensional space.">
<polygon fill="#bfbfbf" stroke="black" points="48,-237.5 48,-426.5 203,-426.5 203,-237.5 48,-237.5"/>
<text text-anchor="start" x="56" y="-414.5" font-family="Helvetica,sans-Serif" font-size="10.00">RAY::Drawables::Drawables2</text>
<text text-anchor="middle" x="125.5" y="-403.5" font-family="Helvetica,sans-Serif" font-size="10.00">D::Rectangle</text>
<polyline fill="none" stroke="black" points="48,-396.5 203,-396.5 "/>
<text text-anchor="start" x="56" y="-384.5" font-family="Helvetica,sans-Serif" font-size="10.00"># _dimensions</text>
<text text-anchor="start" x="56" y="-373.5" font-family="Helvetica,sans-Serif" font-size="10.00"># __pad0__</text>
<polyline fill="none" stroke="black" points="48,-366.5 203,-366.5 "/>
<text text-anchor="start" x="56" y="-354.5" font-family="Helvetica,sans-Serif" font-size="10.00">+ Rectangle()</text>
<text text-anchor="start" x="56" y="-343.5" font-family="Helvetica,sans-Serif" font-size="10.00">+ Rectangle()</text>
<text text-anchor="start" x="56" y="-332.5" font-family="Helvetica,sans-Serif" font-size="10.00">+ Rectangle()</text>
<text text-anchor="start" x="56" y="-321.5" font-family="Helvetica,sans-Serif" font-size="10.00">+ operator=()</text>
<text text-anchor="start" x="56" y="-310.5" font-family="Helvetica,sans-Serif" font-size="10.00">+ ~Rectangle()</text>
<text text-anchor="start" x="56" y="-299.5" font-family="Helvetica,sans-Serif" font-size="10.00">+ getDimensions()</text>
<text text-anchor="start" x="56" y="-288.5" font-family="Helvetica,sans-Serif" font-size="10.00">+ getWidth()</text>
<text text-anchor="start" x="56" y="-277.5" font-family="Helvetica,sans-Serif" font-size="10.00">+ getHeight()</text>
<text text-anchor="start" x="56" y="-266.5" font-family="Helvetica,sans-Serif" font-size="10.00">+ setDimensions()</text>
<text text-anchor="start" x="56" y="-255.5" font-family="Helvetica,sans-Serif" font-size="10.00">+ incrementWidth()</text>
<text text-anchor="start" x="56" y="-244.5" font-family="Helvetica,sans-Serif" font-size="10.00">and 6 more...</text>
</a>
</g>
</g>
<!-- Node4 -->
<g id="node4" class="node">
<title>Node4</title>
<g id="a_node4"><a xlink:href="classRAY_1_1Image.html" target="_top" xlink:title="Object representation of a framebuffer.">
<polygon fill="white" stroke="black" points="0,-0.5 0,-200.5 117,-200.5 117,-0.5 0,-0.5"/>
<text text-anchor="middle" x="58.5" y="-188.5" font-family="Helvetica,sans-Serif" font-size="10.00">RAY::Image</text>
<polyline fill="none" stroke="black" points="0,-181.5 117,-181.5 "/>
<text text-anchor="start" x="8" y="-169.5" font-family="Helvetica,sans-Serif" font-size="10.00">&#45; _image</text>
<text text-anchor="start" x="8" y="-158.5" font-family="Helvetica,sans-Serif" font-size="10.00">&#45; _ressourcePath</text>
<text text-anchor="start" x="8" y="-147.5" font-family="Helvetica,sans-Serif" font-size="10.00">&#45; __pad0__</text>
<text text-anchor="start" x="8" y="-136.5" font-family="Helvetica,sans-Serif" font-size="10.00">&#45; _imagesCache</text>
<polyline fill="none" stroke="black" points="0,-129.5 117,-129.5 "/>
<text text-anchor="start" x="8" y="-117.5" font-family="Helvetica,sans-Serif" font-size="10.00">+ Image()</text>
<text text-anchor="start" x="8" y="-106.5" font-family="Helvetica,sans-Serif" font-size="10.00">+ Image()</text>
<text text-anchor="start" x="8" y="-95.5" font-family="Helvetica,sans-Serif" font-size="10.00">+ operator=()</text>
<text text-anchor="start" x="8" y="-84.5" font-family="Helvetica,sans-Serif" font-size="10.00">+ ~Image()</text>
<text text-anchor="start" x="8" y="-73.5" font-family="Helvetica,sans-Serif" font-size="10.00">+ exportTo()</text>
<text text-anchor="start" x="8" y="-62.5" font-family="Helvetica,sans-Serif" font-size="10.00">+ draw()</text>
<text text-anchor="start" x="8" y="-51.5" font-family="Helvetica,sans-Serif" font-size="10.00">+ drawOn()</text>
<text text-anchor="start" x="8" y="-40.5" font-family="Helvetica,sans-Serif" font-size="10.00">+ drawOn()</text>
<text text-anchor="start" x="8" y="-29.5" font-family="Helvetica,sans-Serif" font-size="10.00">+ resize()</text>
<text text-anchor="start" x="8" y="-18.5" font-family="Helvetica,sans-Serif" font-size="10.00">+ use()</text>
<text text-anchor="start" x="8" y="-7.5" font-family="Helvetica,sans-Serif" font-size="10.00">&#45; operator::Image *()</text>
</a>
</g>
</g>
<!-- Node1&#45;&gt;Node4 -->
<g id="edge3" class="edge">
<title>Node1&#45;&gt;Node4</title>
<path fill="none" stroke="midnightblue" d="M95.34,-227.68C92.73,-218.76 90.1,-209.74 87.5,-200.85"/>
<polygon fill="none" stroke="midnightblue" points="91.99,-228.7 98.15,-237.32 98.71,-226.74 91.99,-228.7"/>
</g>
<!-- Node5 -->
<g id="node5" class="node">
<title>Node5</title>
<g id="a_node5"><a xlink:href="classRAY_1_1Texture.html" target="_top" xlink:title="Object representation of a texture.">
<polygon fill="white" stroke="black" points="135,-6 135,-195 252,-195 252,-6 135,-6"/>
<text text-anchor="middle" x="193.5" y="-183" font-family="Helvetica,sans-Serif" font-size="10.00">RAY::Texture</text>
<polyline fill="none" stroke="black" points="135,-176 252,-176 "/>
<text text-anchor="start" x="143" y="-164" font-family="Helvetica,sans-Serif" font-size="10.00">&#45; _texture</text>
<text text-anchor="start" x="143" y="-153" font-family="Helvetica,sans-Serif" font-size="10.00">&#45; _resourcePath</text>
<text text-anchor="start" x="143" y="-142" font-family="Helvetica,sans-Serif" font-size="10.00">&#45; __pad0__</text>
<text text-anchor="start" x="143" y="-131" font-family="Helvetica,sans-Serif" font-size="10.00">&#45; _texturesCache</text>
<polyline fill="none" stroke="black" points="135,-124 252,-124 "/>
<text text-anchor="start" x="143" y="-112" font-family="Helvetica,sans-Serif" font-size="10.00">+ Texture()</text>
<text text-anchor="start" x="143" y="-101" font-family="Helvetica,sans-Serif" font-size="10.00">+ Texture()</text>
<text text-anchor="start" x="143" y="-90" font-family="Helvetica,sans-Serif" font-size="10.00">+ Texture()</text>
<text text-anchor="start" x="143" y="-79" font-family="Helvetica,sans-Serif" font-size="10.00">+ Texture()</text>
<text text-anchor="start" x="143" y="-68" font-family="Helvetica,sans-Serif" font-size="10.00">+ operator=()</text>
<text text-anchor="start" x="143" y="-57" font-family="Helvetica,sans-Serif" font-size="10.00">+ ~Texture()</text>
<text text-anchor="start" x="143" y="-46" font-family="Helvetica,sans-Serif" font-size="10.00">+ drawOn()</text>
<text text-anchor="start" x="143" y="-35" font-family="Helvetica,sans-Serif" font-size="10.00">+ use()</text>
<text text-anchor="start" x="143" y="-24" font-family="Helvetica,sans-Serif" font-size="10.00">+ unload()</text>
<text text-anchor="start" x="143" y="-13" font-family="Helvetica,sans-Serif" font-size="10.00">+ getResourcePath()</text>
</a>
</g>
</g>
<!-- Node1&#45;&gt;Node5 -->
<g id="edge4" class="edge">
<title>Node1&#45;&gt;Node5</title>
<path fill="none" stroke="midnightblue" d="M156.17,-227.5C159.35,-216.76 162.57,-205.88 165.72,-195.25"/>
<polygon fill="none" stroke="midnightblue" points="152.74,-226.74 153.26,-237.32 159.45,-228.73 152.74,-226.74"/>
</g>
<!-- Node2 -->
<g id="node2" class="node">
<title>Node2</title>
<g id="a_node2"><a xlink:href="classRAY_1_1Drawables_1_1ADrawable2D.html" target="_top" xlink:title="Abstraction of any two&#45;dimensionnal drawable.">
<polygon fill="white" stroke="black" points="43.5,-463.5 43.5,-685.5 207.5,-685.5 207.5,-463.5 43.5,-463.5"/>
<text text-anchor="middle" x="125.5" y="-673.5" font-family="Helvetica,sans-Serif" font-size="10.00">RAY::Drawables::ADrawable2D</text>
<polyline fill="none" stroke="black" points="43.5,-666.5 207.5,-666.5 "/>
<text text-anchor="start" x="51.5" y="-654.5" font-family="Helvetica,sans-Serif" font-size="10.00"># _rotation</text>
<text text-anchor="start" x="51.5" y="-643.5" font-family="Helvetica,sans-Serif" font-size="10.00"># _scale</text>
<text text-anchor="start" x="51.5" y="-632.5" font-family="Helvetica,sans-Serif" font-size="10.00"># _position</text>
<text text-anchor="start" x="51.5" y="-621.5" font-family="Helvetica,sans-Serif" font-size="10.00"># _color</text>
<polyline fill="none" stroke="black" points="43.5,-614.5 207.5,-614.5 "/>
<text text-anchor="start" x="51.5" y="-602.5" font-family="Helvetica,sans-Serif" font-size="10.00">+ ADrawable2D()</text>
<text text-anchor="start" x="51.5" y="-591.5" font-family="Helvetica,sans-Serif" font-size="10.00">+ ADrawable2D()</text>
<text text-anchor="start" x="51.5" y="-580.5" font-family="Helvetica,sans-Serif" font-size="10.00">+ ADrawable2D()</text>
<text text-anchor="start" x="51.5" y="-569.5" font-family="Helvetica,sans-Serif" font-size="10.00">+ ~ADrawable2D()</text>
<text text-anchor="start" x="51.5" y="-558.5" font-family="Helvetica,sans-Serif" font-size="10.00">+ getPosition()</text>
<text text-anchor="start" x="51.5" y="-547.5" font-family="Helvetica,sans-Serif" font-size="10.00">+ getColor()</text>
<text text-anchor="start" x="51.5" y="-536.5" font-family="Helvetica,sans-Serif" font-size="10.00">+ setPosition()</text>
<text text-anchor="start" x="51.5" y="-525.5" font-family="Helvetica,sans-Serif" font-size="10.00">+ setPosition()</text>
<text text-anchor="start" x="51.5" y="-514.5" font-family="Helvetica,sans-Serif" font-size="10.00">+ setColor()</text>
<text text-anchor="start" x="51.5" y="-503.5" font-family="Helvetica,sans-Serif" font-size="10.00">+ drawOn()</text>
<text text-anchor="start" x="51.5" y="-492.5" font-family="Helvetica,sans-Serif" font-size="10.00">+ drawOn()</text>
<text text-anchor="start" x="51.5" y="-481.5" font-family="Helvetica,sans-Serif" font-size="10.00">+ getScale()</text>
<text text-anchor="start" x="51.5" y="-470.5" font-family="Helvetica,sans-Serif" font-size="10.00">+ setScale()</text>
</a>
</g>
</g>
<!-- Node2&#45;&gt;Node1 -->
<g id="edge1" class="edge">
<title>Node2&#45;&gt;Node1</title>
<path fill="none" stroke="midnightblue" d="M125.5,-453.39C125.5,-444.46 125.5,-435.54 125.5,-426.81"/>
<polygon fill="none" stroke="midnightblue" points="122,-453.46 125.5,-463.46 129,-453.46 122,-453.46"/>
</g>
<!-- Node3 -->
<g id="node3" class="node">
<title>Node3</title>
<g id="a_node3"><a xlink:href="classRAY_1_1Drawables_1_1IDrawable.html" target="_top" xlink:title="Interface for any drawable.">
<polygon fill="white" stroke="black" points="52,-722.5 52,-790.5 199,-790.5 199,-722.5 52,-722.5"/>
<text text-anchor="middle" x="125.5" y="-778.5" font-family="Helvetica,sans-Serif" font-size="10.00">RAY::Drawables::IDrawable</text>
<polyline fill="none" stroke="black" points="52,-771.5 199,-771.5 "/>
<text text-anchor="middle" x="125.5" y="-759.5" font-family="Helvetica,sans-Serif" font-size="10.00"> </text>
<polyline fill="none" stroke="black" points="52,-752.5 199,-752.5 "/>
<text text-anchor="start" x="60" y="-740.5" font-family="Helvetica,sans-Serif" font-size="10.00">+ ~IDrawable()</text>
<text text-anchor="start" x="60" y="-729.5" font-family="Helvetica,sans-Serif" font-size="10.00">+ drawOn()</text>
</a>
</g>
</g>
<!-- Node3&#45;&gt;Node2 -->
<g id="edge2" class="edge">
<title>Node3&#45;&gt;Node2</title>
<path fill="none" stroke="midnightblue" d="M125.5,-712.35C125.5,-704.01 125.5,-694.92 125.5,-685.52"/>
<polygon fill="none" stroke="midnightblue" points="122,-712.49 125.5,-722.49 129,-712.49 122,-712.49"/>
</g>
</g>
</svg>
