<?xml version="1.0" encoding="UTF-8" standalone="no"?>
<!DOCTYPE svg PUBLIC "-//W3C//DTD SVG 1.1//EN"
 "http://www.w3.org/Graphics/SVG/1.1/DTD/svg11.dtd">
<!-- Generated by graphviz version 2.43.0 (0)
 -->
<!-- Title: RAY::Drawables::Drawables2D::Text Pages: 1 -->
<svg width="571pt" height="716pt"
 viewBox="0.00 0.00 571.00 716.00" xmlns="http://www.w3.org/2000/svg" xmlns:xlink="http://www.w3.org/1999/xlink">
<g id="graph0" class="graph" transform="scale(1 1) rotate(0) translate(4 712)">
<title>RAY::Drawables::Drawables2D::Text</title>
<polygon fill="white" stroke="transparent" points="-4,4 -4,-712 567,-712 567,4 -4,4"/>
<!-- Node1 -->
<g id="node1" class="node">
<title>Node1</title>
<g id="a_node1"><a xlink:title="Text in a two&#45;dimensionnal space.">
<polygon fill="#bfbfbf" stroke="black" points="246,-0.5 246,-244.5 401,-244.5 401,-0.5 246,-0.5"/>
<text text-anchor="start" x="254" y="-232.5" font-family="Helvetica,sans-Serif" font-size="10.00">RAY::Drawables::Drawables2</text>
<text text-anchor="middle" x="323.5" y="-221.5" font-family="Helvetica,sans-Serif" font-size="10.00">D::Text</text>
<polyline fill="none" stroke="black" points="246,-214.5 401,-214.5 "/>
<text text-anchor="start" x="254" y="-202.5" font-family="Helvetica,sans-Serif" font-size="10.00">+ DefaultLetterSpacing</text>
<text text-anchor="start" x="254" y="-191.5" font-family="Helvetica,sans-Serif" font-size="10.00">&#45; _text</text>
<text text-anchor="start" x="254" y="-180.5" font-family="Helvetica,sans-Serif" font-size="10.00">&#45; _size</text>
<text text-anchor="start" x="254" y="-169.5" font-family="Helvetica,sans-Serif" font-size="10.00">&#45; _spacing</text>
<polyline fill="none" stroke="black" points="246,-162.5 401,-162.5 "/>
<text text-anchor="start" x="254" y="-150.5" font-family="Helvetica,sans-Serif" font-size="10.00">+ Text()</text>
<text text-anchor="start" x="254" y="-139.5" font-family="Helvetica,sans-Serif" font-size="10.00">+ Text()</text>
<text text-anchor="start" x="254" y="-128.5" font-family="Helvetica,sans-Serif" font-size="10.00">+ Text()</text>
<text text-anchor="start" x="254" y="-117.5" font-family="Helvetica,sans-Serif" font-size="10.00">+ operator=()</text>
<text text-anchor="start" x="254" y="-106.5" font-family="Helvetica,sans-Serif" font-size="10.00">+ ~Text()</text>
<text text-anchor="start" x="254" y="-95.5" font-family="Helvetica,sans-Serif" font-size="10.00">+ getString()</text>
<text text-anchor="start" x="254" y="-84.5" font-family="Helvetica,sans-Serif" font-size="10.00">+ getFontSize()</text>
<text text-anchor="start" x="254" y="-73.5" font-family="Helvetica,sans-Serif" font-size="10.00">+ getLetterSpacing()</text>
<text text-anchor="start" x="254" y="-62.5" font-family="Helvetica,sans-Serif" font-size="10.00">+ setFont()</text>
<text text-anchor="start" x="254" y="-51.5" font-family="Helvetica,sans-Serif" font-size="10.00">+ setText()</text>
<text text-anchor="start" x="254" y="-40.5" font-family="Helvetica,sans-Serif" font-size="10.00">+ setLetterSpacing()</text>
<text text-anchor="start" x="254" y="-29.5" font-family="Helvetica,sans-Serif" font-size="10.00">+ setFontSize()</text>
<text text-anchor="start" x="254" y="-18.5" font-family="Helvetica,sans-Serif" font-size="10.00">+ drawOn()</text>
<text text-anchor="start" x="254" y="-7.5" font-family="Helvetica,sans-Serif" font-size="10.00">+ drawOn()</text>
</a>
</g>
</g>
<!-- Node2 -->
<g id="node2" class="node">
<title>Node2</title>
<g id="a_node2"><a xlink:href="classRAY_1_1Drawables_1_1ADrawable2D.html" target="_top" xlink:title="Abstraction of any two&#45;dimensionnal drawable.">
<polygon fill="white" stroke="black" points="170.5,-292.5 170.5,-492.5 334.5,-492.5 334.5,-292.5 170.5,-292.5"/>
<text text-anchor="middle" x="252.5" y="-480.5" font-family="Helvetica,sans-Serif" font-size="10.00">RAY::Drawables::ADrawable2D</text>
<polyline fill="none" stroke="black" points="170.5,-473.5 334.5,-473.5 "/>
<text text-anchor="start" x="178.5" y="-461.5" font-family="Helvetica,sans-Serif" font-size="10.00"># _rotation</text>
<text text-anchor="start" x="178.5" y="-450.5" font-family="Helvetica,sans-Serif" font-size="10.00"># _scale</text>
<polyline fill="none" stroke="black" points="170.5,-443.5 334.5,-443.5 "/>
<text text-anchor="start" x="178.5" y="-431.5" font-family="Helvetica,sans-Serif" font-size="10.00">+ ADrawable2D()</text>
<text text-anchor="start" x="178.5" y="-420.5" font-family="Helvetica,sans-Serif" font-size="10.00">+ ADrawable2D()</text>
<text text-anchor="start" x="178.5" y="-409.5" font-family="Helvetica,sans-Serif" font-size="10.00">+ ADrawable2D()</text>
<text text-anchor="start" x="178.5" y="-398.5" font-family="Helvetica,sans-Serif" font-size="10.00">+ ~ADrawable2D()</text>
<text text-anchor="start" x="178.5" y="-387.5" font-family="Helvetica,sans-Serif" font-size="10.00">+ getPosition()</text>
<text text-anchor="start" x="178.5" y="-376.5" font-family="Helvetica,sans-Serif" font-size="10.00">+ getColor()</text>
<text text-anchor="start" x="178.5" y="-365.5" font-family="Helvetica,sans-Serif" font-size="10.00">+ setPosition()</text>
<text text-anchor="start" x="178.5" y="-354.5" font-family="Helvetica,sans-Serif" font-size="10.00">+ setPosition()</text>
<text text-anchor="start" x="178.5" y="-343.5" font-family="Helvetica,sans-Serif" font-size="10.00">+ setColor()</text>
<text text-anchor="start" x="178.5" y="-332.5" font-family="Helvetica,sans-Serif" font-size="10.00">+ drawOn()</text>
<text text-anchor="start" x="178.5" y="-321.5" font-family="Helvetica,sans-Serif" font-size="10.00">+ drawOn()</text>
<text text-anchor="start" x="178.5" y="-310.5" font-family="Helvetica,sans-Serif" font-size="10.00">+ getScale()</text>
<text text-anchor="start" x="178.5" y="-299.5" font-family="Helvetica,sans-Serif" font-size="10.00">+ setScale()</text>
</a>
</g>
</g>
<!-- Node2&#45;&gt;Node1 -->
<g id="edge1" class="edge">
<title>Node2&#45;&gt;Node1</title>
<path fill="none" stroke="midnightblue" d="M281.36,-282.57C284.65,-270.15 288.02,-257.42 291.35,-244.84"/>
<polygon fill="none" stroke="midnightblue" points="277.91,-281.91 278.74,-292.47 284.68,-283.7 277.91,-281.91"/>
</g>
<!-- Node3 -->
<g id="node3" class="node">
<title>Node3</title>
<g id="a_node3"><a xlink:href="classRAY_1_1Drawables_1_1IDrawable.html" target="_top" xlink:title="Interface for any drawable.">
<polygon fill="white" stroke="black" points="0,-590 0,-658 147,-658 147,-590 0,-590"/>
<text text-anchor="middle" x="73.5" y="-646" font-family="Helvetica,sans-Serif" font-size="10.00">RAY::Drawables::IDrawable</text>
<polyline fill="none" stroke="black" points="0,-639 147,-639 "/>
<text text-anchor="middle" x="73.5" y="-627" font-family="Helvetica,sans-Serif" font-size="10.00"> </text>
<polyline fill="none" stroke="black" points="0,-620 147,-620 "/>
<text text-anchor="start" x="8" y="-608" font-family="Helvetica,sans-Serif" font-size="10.00">+ ~IDrawable()</text>
<text text-anchor="start" x="8" y="-597" font-family="Helvetica,sans-Serif" font-size="10.00">+ drawOn()</text>
</a>
</g>
</g>
<!-- Node3&#45;&gt;Node2 -->
<g id="edge2" class="edge">
<title>Node3&#45;&gt;Node2</title>
<path fill="none" stroke="midnightblue" d="M105.86,-581.52C125.24,-556.66 150.78,-523.92 175.1,-492.74"/>
<polygon fill="none" stroke="midnightblue" points="102.92,-579.59 99.53,-589.63 108.44,-583.9 102.92,-579.59"/>
</g>
<!-- Node4 -->
<g id="node4" class="node">
<title>Node4</title>
<g id="a_node4"><a xlink:href="classRAY_1_1Vector2.html" target="_top" xlink:title="A Two&#45;dimensionnal Vector data type.">
<polygon fill="white" stroke="black" points="165,-557 165,-691 250,-691 250,-557 165,-557"/>
<text text-anchor="middle" x="207.5" y="-679" font-family="Helvetica,sans-Serif" font-size="10.00">RAY::Vector2</text>
<polyline fill="none" stroke="black" points="165,-672 250,-672 "/>
<text text-anchor="start" x="173" y="-660" font-family="Helvetica,sans-Serif" font-size="10.00">+ x</text>
<text text-anchor="start" x="173" y="-649" font-family="Helvetica,sans-Serif" font-size="10.00">+ y</text>
<text text-anchor="start" x="173" y="-638" font-family="Helvetica,sans-Serif" font-size="10.00">+ __pad0__</text>
<polyline fill="none" stroke="black" points="165,-631 250,-631 "/>
<text text-anchor="start" x="173" y="-619" font-family="Helvetica,sans-Serif" font-size="10.00">+ Vector2()</text>
<text text-anchor="start" x="173" y="-608" font-family="Helvetica,sans-Serif" font-size="10.00">+ Vector2()</text>
<text text-anchor="start" x="173" y="-597" font-family="Helvetica,sans-Serif" font-size="10.00">+ Vector2()</text>
<text text-anchor="start" x="173" y="-586" font-family="Helvetica,sans-Serif" font-size="10.00">+ Vector2()</text>
<text text-anchor="start" x="173" y="-575" font-family="Helvetica,sans-Serif" font-size="10.00">+ ~Vector2()</text>
<text text-anchor="start" x="173" y="-564" font-family="Helvetica,sans-Serif" font-size="10.00">+ operator=()</text>
</a>
</g>
</g>
<!-- Node4&#45;&gt;Node2 -->
<g id="edge3" class="edge">
<title>Node4&#45;&gt;Node2</title>
<path fill="none" stroke="#404040" d="M213.52,-556.71C215.36,-541.62 217.66,-525.7 220.5,-511 220.92,-508.84 221.35,-506.65 221.81,-504.46"/>
<polygon fill="none" stroke="#404040" points="221.83,-504.34 219.2,-497.63 224.38,-492.62 227.02,-499.33 221.83,-504.34"/>
<text text-anchor="middle" x="248.5" y="-514" font-family="Helvetica,sans-Serif" font-size="10.00"> #_position</text>
</g>
<!-- Node5 -->
<g id="node5" class="node">
<title>Node5</title>
<g id="a_node5"><a xlink:href="classRAY_1_1Color.html" target="_top" xlink:title="Object representation of color.">
<polygon fill="white" stroke="black" points="268,-540.5 268,-707.5 353,-707.5 353,-540.5 268,-540.5"/>
<text text-anchor="middle" x="310.5" y="-695.5" font-family="Helvetica,sans-Serif" font-size="10.00">RAY::Color</text>
<polyline fill="none" stroke="black" points="268,-688.5 353,-688.5 "/>
<text text-anchor="start" x="276" y="-676.5" font-family="Helvetica,sans-Serif" font-size="10.00">&#45; __pad0__</text>
<polyline fill="none" stroke="black" points="268,-669.5 353,-669.5 "/>
<text text-anchor="start" x="276" y="-657.5" font-family="Helvetica,sans-Serif" font-size="10.00">+ Color()</text>
<text text-anchor="start" x="276" y="-646.5" font-family="Helvetica,sans-Serif" font-size="10.00">+ Color()</text>
<text text-anchor="start" x="276" y="-635.5" font-family="Helvetica,sans-Serif" font-size="10.00">+ Color()</text>
<text text-anchor="start" x="276" y="-624.5" font-family="Helvetica,sans-Serif" font-size="10.00">+ Color()</text>
<text text-anchor="start" x="276" y="-613.5" font-family="Helvetica,sans-Serif" font-size="10.00">+ Color()</text>
<text text-anchor="start" x="276" y="-602.5" font-family="Helvetica,sans-Serif" font-size="10.00">+ ~Color()</text>
<text text-anchor="start" x="276" y="-591.5" font-family="Helvetica,sans-Serif" font-size="10.00">+ operator=()</text>
<text text-anchor="start" x="276" y="-580.5" font-family="Helvetica,sans-Serif" font-size="10.00">+ setR()</text>
<text text-anchor="start" x="276" y="-569.5" font-family="Helvetica,sans-Serif" font-size="10.00">+ setG()</text>
<text text-anchor="start" x="276" y="-558.5" font-family="Helvetica,sans-Serif" font-size="10.00">+ setB()</text>
<text text-anchor="start" x="276" y="-547.5" font-family="Helvetica,sans-Serif" font-size="10.00">and 6 more...</text>
</a>
</g>
</g>
<!-- Node5&#45;&gt;Node2 -->
<g id="edge4" class="edge">
<title>Node5&#45;&gt;Node2</title>
<path fill="none" stroke="#404040" d="M289.64,-540.47C286.66,-528.69 283.56,-516.41 280.47,-504.19"/>
<polygon fill="none" stroke="#404040" points="280.46,-504.15 275.12,-499.32 277.52,-492.52 282.87,-497.36 280.46,-504.15"/>
<text text-anchor="middle" x="306" y="-514" font-family="Helvetica,sans-Serif" font-size="10.00"> #_color</text>
</g>
<!-- Node5&#45;&gt;Node5 -->
<g id="edge5" class="edge">
<title>Node5&#45;&gt;Node5</title>
<path fill="none" stroke="#404040" d="M353.18,-643.52C363.42,-642 371,-635.49 371,-624 371,-617.36 368.47,-612.38 364.35,-609.07"/>
<polygon fill="none" stroke="#404040" points="364.28,-609.04 357.21,-610.46 353.18,-604.48 360.25,-603.06 364.28,-609.04"/>
<text text-anchor="middle" x="389.5" y="-621.5" font-family="Helvetica,sans-Serif" font-size="10.00"> &#45;_color</text>
</g>
<!-- Node6 -->
<g id="node6" class="node">
<title>Node6</title>
<g id="a_node6"><a xlink:href="classRAY_1_1Font.html" target="_top" xlink:title="A font manager.">
<polygon fill="white" stroke="black" points="402,-342 402,-443 487,-443 487,-342 402,-342"/>
<text text-anchor="middle" x="444.5" y="-431" font-family="Helvetica,sans-Serif" font-size="10.00">RAY::Font</text>
<polyline fill="none" stroke="black" points="402,-424 487,-424 "/>
<text text-anchor="start" x="410" y="-412" font-family="Helvetica,sans-Serif" font-size="10.00">&#45; _font</text>
<polyline fill="none" stroke="black" points="402,-405 487,-405 "/>
<text text-anchor="start" x="410" y="-393" font-family="Helvetica,sans-Serif" font-size="10.00">+ Font()</text>
<text text-anchor="start" x="410" y="-382" font-family="Helvetica,sans-Serif" font-size="10.00">+ Font()</text>
<text text-anchor="start" x="410" y="-371" font-family="Helvetica,sans-Serif" font-size="10.00">+ Font()</text>
<text text-anchor="start" x="410" y="-360" font-family="Helvetica,sans-Serif" font-size="10.00">+ operator=()</text>
<text text-anchor="start" x="410" y="-349" font-family="Helvetica,sans-Serif" font-size="10.00">+ ~Font()</text>
</a>
</g>
</g>
<!-- Node6&#45;&gt;Node1 -->
<g id="edge6" class="edge">
<title>Node6&#45;&gt;Node1</title>
<path fill="none" stroke="#404040" d="M422.02,-341.72C410.98,-317.25 397.08,-286.48 383.24,-255.83"/>
<polygon fill="none" stroke="#404040" points="383.09,-255.49 376.98,-251.66 378.15,-244.55 384.27,-248.37 383.09,-255.49"/>
<text text-anchor="middle" x="407.5" y="-266" font-family="Helvetica,sans-Serif" font-size="10.00"> &#45;_font</text>
</g>
<!-- Node7 -->
<g id="node7" class="node">
<title>Node7</title>
<g id="a_node7"><a xlink:href="classRAY_1_1Cache.html" target="_top" xlink:title=" ">
<polygon fill="white" stroke="black" points="426,-562.5 426,-685.5 563,-685.5 563,-562.5 426,-562.5"/>
<text text-anchor="middle" x="494.5" y="-673.5" font-family="Helvetica,sans-Serif" font-size="10.00">RAY::Cache&lt; RAY::Font &gt;</text>
<polyline fill="none" stroke="black" points="426,-666.5 563,-666.5 "/>
<text text-anchor="start" x="434" y="-654.5" font-family="Helvetica,sans-Serif" font-size="10.00">&#45; _dataLoader</text>
<text text-anchor="start" x="434" y="-643.5" font-family="Helvetica,sans-Serif" font-size="10.00">&#45; _dataUnloader</text>
<text text-anchor="start" x="434" y="-632.5" font-family="Helvetica,sans-Serif" font-size="10.00">&#45; _cache</text>
<polyline fill="none" stroke="black" points="426,-625.5 563,-625.5 "/>
<text text-anchor="start" x="434" y="-613.5" font-family="Helvetica,sans-Serif" font-size="10.00">+ Cache()</text>
<text text-anchor="start" x="434" y="-602.5" font-family="Helvetica,sans-Serif" font-size="10.00">+ Cache()</text>
<text text-anchor="start" x="434" y="-591.5" font-family="Helvetica,sans-Serif" font-size="10.00">+ ~Cache()</text>
<text text-anchor="start" x="434" y="-580.5" font-family="Helvetica,sans-Serif" font-size="10.00">+ operator=()</text>
<text text-anchor="start" x="434" y="-569.5" font-family="Helvetica,sans-Serif" font-size="10.00">+ fetch()</text>
</a>
</g>
</g>
<!-- Node7&#45;&gt;Node6 -->
<g id="edge7" class="edge">
<title>Node7&#45;&gt;Node6</title>
<path fill="none" stroke="#404040" d="M481.3,-562.4C474.08,-529.28 465.17,-488.36 457.92,-455.09"/>
<polygon fill="none" stroke="#404040" points="457.88,-454.93 452.7,-449.92 455.33,-443.21 460.51,-448.22 457.88,-454.93"/>
<text text-anchor="middle" x="505" y="-514" font-family="Helvetica,sans-Serif" font-size="10.00"> &#45;_fontsCache</text>
</g>
</g>
</svg>
