<?xml version="1.0" encoding="UTF-8" standalone="no"?>
<!DOCTYPE svg PUBLIC "-//W3C//DTD SVG 1.1//EN"
 "http://www.w3.org/Graphics/SVG/1.1/DTD/svg11.dtd">
<!-- Generated by graphviz version 2.43.0 (0)
 -->
<!-- Title: RAY::Drawables::Drawables3D::Plane Pages: 1 -->
<svg width="172pt" height="474pt"
 viewBox="0.00 0.00 172.00 474.00" xmlns="http://www.w3.org/2000/svg" xmlns:xlink="http://www.w3.org/1999/xlink">
<g id="graph0" class="graph" transform="scale(1 1) rotate(0) translate(4 470)">
<title>RAY::Drawables::Drawables3D::Plane</title>
<polygon fill="white" stroke="transparent" points="-4,4 -4,-470 168,-470 168,4 -4,4"/>
<!-- Node1 -->
<g id="node1" class="node">
<title>Node1</title>
<g id="a_node1"><a xlink:title="Plane in a three&#45;dimensionnal space.">
<polygon fill="#bfbfbf" stroke="black" points="4.5,-0.5 4.5,-134.5 159.5,-134.5 159.5,-0.5 4.5,-0.5"/>
<text text-anchor="start" x="12.5" y="-122.5" font-family="Helvetica,sans-Serif" font-size="10.00">RAY::Drawables::Drawables3</text>
<text text-anchor="middle" x="82" y="-111.5" font-family="Helvetica,sans-Serif" font-size="10.00">D::Plane</text>
<polyline fill="none" stroke="black" points="4.5,-104.5 159.5,-104.5 "/>
<text text-anchor="start" x="12.5" y="-92.5" font-family="Helvetica,sans-Serif" font-size="10.00">&#45; _dimensions</text>
<polyline fill="none" stroke="black" points="4.5,-85.5 159.5,-85.5 "/>
<text text-anchor="start" x="12.5" y="-73.5" font-family="Helvetica,sans-Serif" font-size="10.00">+ Plane()</text>
<text text-anchor="start" x="12.5" y="-62.5" font-family="Helvetica,sans-Serif" font-size="10.00">+ Plane()</text>
<text text-anchor="start" x="12.5" y="-51.5" font-family="Helvetica,sans-Serif" font-size="10.00">+ operator=()</text>
<text text-anchor="start" x="12.5" y="-40.5" font-family="Helvetica,sans-Serif" font-size="10.00">+ ~Plane()</text>
<text text-anchor="start" x="12.5" y="-29.5" font-family="Helvetica,sans-Serif" font-size="10.00">+ getDimensions()</text>
<text text-anchor="start" x="12.5" y="-18.5" font-family="Helvetica,sans-Serif" font-size="10.00">+ setDimensions()</text>
<text text-anchor="start" x="12.5" y="-7.5" font-family="Helvetica,sans-Serif" font-size="10.00">+ drawOn()</text>
</a>
</g>
</g>
<!-- Node2 -->
<g id="node2" class="node">
<title>Node2</title>
<g id="a_node2"><a xlink:href="classRAY_1_1Drawables_1_1ADrawable3D.html" target="_top" xlink:title="Abstraction of any three&#45;dimensionnal drawable.">
<polygon fill="white" stroke="black" points="0,-171.5 0,-360.5 164,-360.5 164,-171.5 0,-171.5"/>
<text text-anchor="middle" x="82" y="-348.5" font-family="Helvetica,sans-Serif" font-size="10.00">RAY::Drawables::ADrawable3D</text>
<polyline fill="none" stroke="black" points="0,-341.5 164,-341.5 "/>
<text text-anchor="start" x="8" y="-329.5" font-family="Helvetica,sans-Serif" font-size="10.00"># _position</text>
<text text-anchor="start" x="8" y="-318.5" font-family="Helvetica,sans-Serif" font-size="10.00"># _color</text>
<text text-anchor="start" x="8" y="-307.5" font-family="Helvetica,sans-Serif" font-size="10.00"># _debugColor</text>
<polyline fill="none" stroke="black" points="0,-300.5 164,-300.5 "/>
<text text-anchor="start" x="8" y="-288.5" font-family="Helvetica,sans-Serif" font-size="10.00">+ ADrawable3D()</text>
<text text-anchor="start" x="8" y="-277.5" font-family="Helvetica,sans-Serif" font-size="10.00">+ ADrawable3D()</text>
<text text-anchor="start" x="8" y="-266.5" font-family="Helvetica,sans-Serif" font-size="10.00">+ ~ADrawable3D()</text>
<text text-anchor="start" x="8" y="-255.5" font-family="Helvetica,sans-Serif" font-size="10.00">+ drawOn()</text>
<text text-anchor="start" x="8" y="-244.5" font-family="Helvetica,sans-Serif" font-size="10.00">+ drawWiresOn()</text>
<text text-anchor="start" x="8" y="-233.5" font-family="Helvetica,sans-Serif" font-size="10.00">+ getColor()</text>
<text text-anchor="start" x="8" y="-222.5" font-family="Helvetica,sans-Serif" font-size="10.00">+ setColor()</text>
<text text-anchor="start" x="8" y="-211.5" font-family="Helvetica,sans-Serif" font-size="10.00">+ getDebugColor()</text>
<text text-anchor="start" x="8" y="-200.5" font-family="Helvetica,sans-Serif" font-size="10.00">+ setDebugColor()</text>
<text text-anchor="start" x="8" y="-189.5" font-family="Helvetica,sans-Serif" font-size="10.00">+ getPosition()</text>
<text text-anchor="start" x="8" y="-178.5" font-family="Helvetica,sans-Serif" font-size="10.00">+ setPosition()</text>
</a>
</g>
</g>
<!-- Node2&#45;&gt;Node1 -->
<g id="edge1" class="edge">
<title>Node2&#45;&gt;Node1</title>
<path fill="none" stroke="midnightblue" d="M82,-161.21C82,-152.24 82,-143.33 82,-134.78"/>
<polygon fill="none" stroke="midnightblue" points="78.5,-161.35 82,-171.35 85.5,-161.35 78.5,-161.35"/>
</g>
<!-- Node3 -->
<g id="node3" class="node">
<title>Node3</title>
<g id="a_node3"><a xlink:href="classRAY_1_1Drawables_1_1IDrawable.html" target="_top" xlink:title="Interface for any drawable.">
<polygon fill="white" stroke="black" points="8.5,-397.5 8.5,-465.5 155.5,-465.5 155.5,-397.5 8.5,-397.5"/>
<text text-anchor="middle" x="82" y="-453.5" font-family="Helvetica,sans-Serif" font-size="10.00">RAY::Drawables::IDrawable</text>
<polyline fill="none" stroke="black" points="8.5,-446.5 155.5,-446.5 "/>
<text text-anchor="middle" x="82" y="-434.5" font-family="Helvetica,sans-Serif" font-size="10.00"> </text>
<polyline fill="none" stroke="black" points="8.5,-427.5 155.5,-427.5 "/>
<text text-anchor="start" x="16.5" y="-415.5" font-family="Helvetica,sans-Serif" font-size="10.00">+ ~IDrawable()</text>
<text text-anchor="start" x="16.5" y="-404.5" font-family="Helvetica,sans-Serif" font-size="10.00">+ drawOn()</text>
</a>
</g>
</g>
<!-- Node3&#45;&gt;Node2 -->
<g id="edge2" class="edge">
<title>Node3&#45;&gt;Node2</title>
<path fill="none" stroke="midnightblue" d="M82,-387.25C82,-378.9 82,-369.85 82,-360.6"/>
<polygon fill="none" stroke="midnightblue" points="78.5,-387.41 82,-397.41 85.5,-387.41 78.5,-387.41"/>
</g>
</g>
</svg>
