<?xml version="1.0" encoding="UTF-8" standalone="no"?>
<!DOCTYPE svg PUBLIC "-//W3C//DTD SVG 1.1//EN"
 "http://www.w3.org/Graphics/SVG/1.1/DTD/svg11.dtd">
<!-- Generated by graphviz version 2.43.0 (0)
 -->
<!-- Title: BBM::EventSystem Pages: 1 -->
<svg width="230pt" height="618pt"
 viewBox="0.00 0.00 230.00 618.00" xmlns="http://www.w3.org/2000/svg" xmlns:xlink="http://www.w3.org/1999/xlink">
<g id="graph0" class="graph" transform="scale(1 1) rotate(0) translate(4 614)">
<title>BBM::EventSystem</title>
<polygon fill="white" stroke="transparent" points="-4,4 -4,-614 226,-614 226,4 -4,4"/>
<!-- Node1 -->
<g id="node1" class="node">
<title>Node1</title>
<g id="a_node1"><a xlink:title=" ">
<polygon fill="#bfbfbf" stroke="black" points="52,-0.5 52,-145.5 162,-145.5 162,-0.5 52,-0.5"/>
<text text-anchor="middle" x="107" y="-133.5" font-family="Helvetica,sans-Serif" font-size="10.00">BBM::EventSystem</text>
<polyline fill="none" stroke="black" points="52,-126.5 162,-126.5 "/>
<text text-anchor="start" x="60" y="-114.5" font-family="Helvetica,sans-Serif" font-size="10.00">&#45; _events</text>
<text text-anchor="start" x="60" y="-103.5" font-family="Helvetica,sans-Serif" font-size="10.00">&#45; _globalEvents</text>
<polyline fill="none" stroke="black" points="52,-96.5 162,-96.5 "/>
<text text-anchor="start" x="60" y="-84.5" font-family="Helvetica,sans-Serif" font-size="10.00">+ dispatchEvent()</text>
<text text-anchor="start" x="60" y="-73.5" font-family="Helvetica,sans-Serif" font-size="10.00">+ dispatchEvent()</text>
<text text-anchor="start" x="60" y="-62.5" font-family="Helvetica,sans-Serif" font-size="10.00">+ onUpdate()</text>
<text text-anchor="start" x="60" y="-51.5" font-family="Helvetica,sans-Serif" font-size="10.00">+ onSelfUpdate()</text>
<text text-anchor="start" x="60" y="-40.5" font-family="Helvetica,sans-Serif" font-size="10.00">+ EventSystem()</text>
<text text-anchor="start" x="60" y="-29.5" font-family="Helvetica,sans-Serif" font-size="10.00">+ EventSystem()</text>
<text text-anchor="start" x="60" y="-18.5" font-family="Helvetica,sans-Serif" font-size="10.00">+ ~EventSystem()</text>
<text text-anchor="start" x="60" y="-7.5" font-family="Helvetica,sans-Serif" font-size="10.00">+ operator=()</text>
</a>
</g>
</g>
<!-- Node2 -->
<g id="node2" class="node">
<title>Node2</title>
<g id="a_node2"><a xlink:href="classWAL_1_1System.html" target="_top" xlink:title=" ">
<polygon fill="white" stroke="black" points="53,-183.5 53,-350.5 161,-350.5 161,-183.5 53,-183.5"/>
<text text-anchor="middle" x="107" y="-338.5" font-family="Helvetica,sans-Serif" font-size="10.00">WAL::System&lt;&gt;</text>
<polyline fill="none" stroke="black" points="53,-331.5 161,-331.5 "/>
<text text-anchor="middle" x="107" y="-319.5" font-family="Helvetica,sans-Serif" font-size="10.00"> </text>
<polyline fill="none" stroke="black" points="53,-312.5 161,-312.5 "/>
<text text-anchor="start" x="61" y="-300.5" font-family="Helvetica,sans-Serif" font-size="10.00">+ ~System()</text>
<text text-anchor="start" x="61" y="-289.5" font-family="Helvetica,sans-Serif" font-size="10.00">+ System()</text>
<text text-anchor="start" x="61" y="-278.5" font-family="Helvetica,sans-Serif" font-size="10.00">+ getView()</text>
<text text-anchor="start" x="61" y="-267.5" font-family="Helvetica,sans-Serif" font-size="10.00">+ onUpdate()</text>
<text text-anchor="start" x="61" y="-256.5" font-family="Helvetica,sans-Serif" font-size="10.00">+ onFixedUpdate()</text>
<text text-anchor="start" x="61" y="-245.5" font-family="Helvetica,sans-Serif" font-size="10.00">+ onSelfUpdate()</text>
<text text-anchor="start" x="61" y="-234.5" font-family="Helvetica,sans-Serif" font-size="10.00">+ update()</text>
<text text-anchor="start" x="61" y="-223.5" font-family="Helvetica,sans-Serif" font-size="10.00">+ fixedUpdate()</text>
<text text-anchor="start" x="61" y="-212.5" font-family="Helvetica,sans-Serif" font-size="10.00"># System()</text>
<text text-anchor="start" x="61" y="-201.5" font-family="Helvetica,sans-Serif" font-size="10.00"># System()</text>
<text text-anchor="start" x="61" y="-190.5" font-family="Helvetica,sans-Serif" font-size="10.00"># operator=()</text>
</a>
</g>
</g>
<!-- Node2&#45;&gt;Node1 -->
<g id="edge1" class="edge">
<title>Node2&#45;&gt;Node1</title>
<path fill="none" stroke="midnightblue" d="M107,-173.37C107,-164.03 107,-154.66 107,-145.6"/>
<polygon fill="none" stroke="midnightblue" points="103.5,-173.46 107,-183.46 110.5,-173.46 103.5,-173.46"/>
</g>
<!-- Node3 -->
<g id="node3" class="node">
<title>Node3</title>
<g id="a_node3"><a xlink:href="classWAL_1_1ISystem.html" target="_top" xlink:title="A base class that represent a system.">
<polygon fill="white" stroke="black" points="0,-459 0,-549 94,-549 94,-459 0,-459"/>
<text text-anchor="middle" x="47" y="-537" font-family="Helvetica,sans-Serif" font-size="10.00">WAL::ISystem</text>
<polyline fill="none" stroke="black" points="0,-530 94,-530 "/>
<text text-anchor="middle" x="47" y="-518" font-family="Helvetica,sans-Serif" font-size="10.00"> </text>
<polyline fill="none" stroke="black" points="0,-511 94,-511 "/>
<text text-anchor="start" x="8" y="-499" font-family="Helvetica,sans-Serif" font-size="10.00">+ update()</text>
<text text-anchor="start" x="8" y="-488" font-family="Helvetica,sans-Serif" font-size="10.00">+ fixedUpdate()</text>
<text text-anchor="start" x="8" y="-477" font-family="Helvetica,sans-Serif" font-size="10.00">+ getView()</text>
<text text-anchor="start" x="8" y="-466" font-family="Helvetica,sans-Serif" font-size="10.00">+ ~ISystem()</text>
</a>
</g>
</g>
<!-- Node3&#45;&gt;Node2 -->
<g id="edge2" class="edge">
<title>Node3&#45;&gt;Node2</title>
<path fill="none" stroke="midnightblue" d="M60.83,-448.82C68.27,-419.68 77.61,-383.13 85.93,-350.53"/>
<polygon fill="none" stroke="midnightblue" points="57.37,-448.24 58.29,-458.8 64.15,-449.97 57.37,-448.24"/>
</g>
<!-- Node4 -->
<g id="node4" class="node">
<title>Node4</title>
<g id="a_node4"><a xlink:href="classWAL_1_1Wal.html" target="_top" xlink:title="The main WAL class, it is used to setup and run the ECS.">
<polygon fill="white" stroke="black" points="112,-398.5 112,-609.5 222,-609.5 222,-398.5 112,-398.5"/>
<text text-anchor="middle" x="167" y="-597.5" font-family="Helvetica,sans-Serif" font-size="10.00">WAL::Wal</text>
<polyline fill="none" stroke="black" points="112,-590.5 222,-590.5 "/>
<text text-anchor="start" x="120" y="-578.5" font-family="Helvetica,sans-Serif" font-size="10.00">+ shouldClose</text>
<text text-anchor="start" x="120" y="-567.5" font-family="Helvetica,sans-Serif" font-size="10.00">+ timestep</text>
<text text-anchor="start" x="120" y="-556.5" font-family="Helvetica,sans-Serif" font-size="10.00">&#45; _systems</text>
<text text-anchor="start" x="120" y="-545.5" font-family="Helvetica,sans-Serif" font-size="10.00">&#45; _scene</text>
<polyline fill="none" stroke="black" points="112,-538.5 222,-538.5 "/>
<text text-anchor="start" x="120" y="-526.5" font-family="Helvetica,sans-Serif" font-size="10.00">+ getScene()</text>
<text text-anchor="start" x="120" y="-515.5" font-family="Helvetica,sans-Serif" font-size="10.00">+ changeScene()</text>
<text text-anchor="start" x="120" y="-504.5" font-family="Helvetica,sans-Serif" font-size="10.00">+ addSystem()</text>
<text text-anchor="start" x="120" y="-493.5" font-family="Helvetica,sans-Serif" font-size="10.00">+ addSystem()</text>
<text text-anchor="start" x="120" y="-482.5" font-family="Helvetica,sans-Serif" font-size="10.00">+ getSystem()</text>
<text text-anchor="start" x="120" y="-471.5" font-family="Helvetica,sans-Serif" font-size="10.00">+ removeSystem()</text>
<text text-anchor="start" x="120" y="-460.5" font-family="Helvetica,sans-Serif" font-size="10.00">+ run()</text>
<text text-anchor="start" x="120" y="-449.5" font-family="Helvetica,sans-Serif" font-size="10.00">+ Wal()</text>
<text text-anchor="start" x="120" y="-438.5" font-family="Helvetica,sans-Serif" font-size="10.00">+ Wal()</text>
<text text-anchor="start" x="120" y="-427.5" font-family="Helvetica,sans-Serif" font-size="10.00">+ ~Wal()</text>
<text text-anchor="start" x="120" y="-416.5" font-family="Helvetica,sans-Serif" font-size="10.00">+ operator=()</text>
<text text-anchor="start" x="120" y="-405.5" font-family="Helvetica,sans-Serif" font-size="10.00">&#45; _run()</text>
</a>
</g>
</g>
<!-- Node4&#45;&gt;Node2 -->
<g id="edge3" class="edge">
<title>Node4&#45;&gt;Node2</title>
<path fill="none" stroke="#404040" d="M140.25,-398.21C137.2,-386.28 134.11,-374.17 131.1,-362.38"/>
<polygon fill="none" stroke="#404040" points="131.09,-362.35 125.73,-357.52 128.12,-350.72 133.48,-355.55 131.09,-362.35"/>
<text text-anchor="middle" x="152" y="-372" font-family="Helvetica,sans-Serif" font-size="10.00"> #_wal</text>
</g>
</g>
</svg>
