<?xml version="1.0" encoding="UTF-8" standalone="no"?>
<!DOCTYPE svg PUBLIC "-//W3C//DTD SVG 1.1//EN"
 "http://www.w3.org/Graphics/SVG/1.1/DTD/svg11.dtd">
<!-- Generated by graphviz version 2.43.0 (0)
 -->
<!-- Title: RAY::ModelAnimation Pages: 1 -->
<svg width="242pt" height="154pt"
 viewBox="0.00 0.00 242.00 154.00" xmlns="http://www.w3.org/2000/svg" xmlns:xlink="http://www.w3.org/1999/xlink">
<g id="graph0" class="graph" transform="scale(1 1) rotate(0) translate(4 150)">
<title>RAY::ModelAnimation</title>
<polygon fill="white" stroke="transparent" points="-4,4 -4,-150 238,-150 238,4 -4,4"/>
<!-- Node1 -->
<g id="node1" class="node">
<title>Node1</title>
<g id="a_node1"><a xlink:title="A Holder for Model Animations.">
<polygon fill="#bfbfbf" stroke="black" points="0,-0.5 0,-145.5 154,-145.5 154,-0.5 0,-0.5"/>
<text text-anchor="middle" x="77" y="-133.5" font-family="Helvetica,sans-Serif" font-size="10.00">RAY::ModelAnimation</text>
<polyline fill="none" stroke="black" points="0,-126.5 154,-126.5 "/>
<text text-anchor="start" x="8" y="-114.5" font-family="Helvetica,sans-Serif" font-size="10.00">&#45; _frameCounter</text>
<text text-anchor="start" x="8" y="-103.5" font-family="Helvetica,sans-Serif" font-size="10.00">&#45; __pad0__</text>
<polyline fill="none" stroke="black" points="0,-96.5 154,-96.5 "/>
<text text-anchor="start" x="8" y="-84.5" font-family="Helvetica,sans-Serif" font-size="10.00">+ ModelAnimation()</text>
<text text-anchor="start" x="8" y="-73.5" font-family="Helvetica,sans-Serif" font-size="10.00">+ ModelAnimation()</text>
<text text-anchor="start" x="8" y="-62.5" font-family="Helvetica,sans-Serif" font-size="10.00">+ operator=()</text>
<text text-anchor="start" x="8" y="-51.5" font-family="Helvetica,sans-Serif" font-size="10.00">+ getFrameCounter()</text>
<text text-anchor="start" x="8" y="-40.5" font-family="Helvetica,sans-Serif" font-size="10.00">+ getFrameCount()</text>
<text text-anchor="start" x="8" y="-29.5" font-family="Helvetica,sans-Serif" font-size="10.00">+ setFrameCounter()</text>
<text text-anchor="start" x="8" y="-18.5" font-family="Helvetica,sans-Serif" font-size="10.00">+ incrementFrameCounter()</text>
<text text-anchor="start" x="8" y="-7.5" font-family="Helvetica,sans-Serif" font-size="10.00">+ ~ModelAnimation()</text>
</a>
</g>
</g>
<!-- Node1&#45;&gt;Node1 -->
<g id="edge1" class="edge">
<title>Node1&#45;&gt;Node1</title>
<path fill="none" stroke="#404040" d="M154.16,-97.43C164.85,-93.4 172,-85.26 172,-73 172,-65.34 169.21,-59.28 164.5,-54.84"/>
<polygon fill="none" stroke="#404040" points="164.42,-54.79 157.22,-55.1 154.16,-48.57 161.36,-48.26 164.42,-54.79"/>
<text text-anchor="middle" x="203" y="-70.5" font-family="Helvetica,sans-Serif" font-size="10.00"> &#45;_animation</text>
</g>
</g>
</svg>
