<?xml version="1.0" encoding="UTF-8" standalone="no"?>
<!DOCTYPE svg PUBLIC "-//W3C//DTD SVG 1.1//EN"
 "http://www.w3.org/Graphics/SVG/1.1/DTD/svg11.dtd">
<!-- Generated by graphviz version 2.43.0 (0)
 -->
<!-- Title: BBM::ScoreComponent Pages: 1 -->
<svg width="145pt" height="877pt"
 viewBox="0.00 0.00 145.00 877.00" xmlns="http://www.w3.org/2000/svg" xmlns:xlink="http://www.w3.org/1999/xlink">
<g id="graph0" class="graph" transform="scale(1 1) rotate(0) translate(4 873)">
<title>BBM::ScoreComponent</title>
<polygon fill="white" stroke="transparent" points="-4,4 -4,-873 141,-873 141,4 -4,4"/>
<!-- Node1 -->
<g id="node1" class="node">
<title>Node1</title>
<g id="a_node1"><a xlink:title="A basic position component.">
<polygon fill="#bfbfbf" stroke="black" points="4.5,-0.5 4.5,-101.5 132.5,-101.5 132.5,-0.5 4.5,-0.5"/>
<text text-anchor="middle" x="68.5" y="-89.5" font-family="Helvetica,sans-Serif" font-size="10.00">BBM::ScoreComponent</text>
<polyline fill="none" stroke="black" points="4.5,-82.5 132.5,-82.5 "/>
<text text-anchor="start" x="12.5" y="-70.5" font-family="Helvetica,sans-Serif" font-size="10.00">+ aliveTime</text>
<polyline fill="none" stroke="black" points="4.5,-63.5 132.5,-63.5 "/>
<text text-anchor="start" x="12.5" y="-51.5" font-family="Helvetica,sans-Serif" font-size="10.00">+ clone()</text>
<text text-anchor="start" x="12.5" y="-40.5" font-family="Helvetica,sans-Serif" font-size="10.00">+ ScoreComponent()</text>
<text text-anchor="start" x="12.5" y="-29.5" font-family="Helvetica,sans-Serif" font-size="10.00">+ ScoreComponent()</text>
<text text-anchor="start" x="12.5" y="-18.5" font-family="Helvetica,sans-Serif" font-size="10.00">+ ~ScoreComponent()</text>
<text text-anchor="start" x="12.5" y="-7.5" font-family="Helvetica,sans-Serif" font-size="10.00">+ operator=()</text>
</a>
</g>
</g>
<!-- Node2 -->
<g id="node2" class="node">
<title>Node2</title>
<g id="a_node2"><a xlink:href="classWAL_1_1Component.html" target="_top" xlink:title="Represent a single component of WAL.">
<polygon fill="white" stroke="black" points="18.5,-139.5 18.5,-262.5 118.5,-262.5 118.5,-139.5 18.5,-139.5"/>
<text text-anchor="middle" x="68.5" y="-250.5" font-family="Helvetica,sans-Serif" font-size="10.00">WAL::Component</text>
<polyline fill="none" stroke="black" points="18.5,-243.5 118.5,-243.5 "/>
<text text-anchor="middle" x="68.5" y="-231.5" font-family="Helvetica,sans-Serif" font-size="10.00"> </text>
<polyline fill="none" stroke="black" points="18.5,-224.5 118.5,-224.5 "/>
<text text-anchor="start" x="26.5" y="-212.5" font-family="Helvetica,sans-Serif" font-size="10.00">+ operator=()</text>
<text text-anchor="start" x="26.5" y="-201.5" font-family="Helvetica,sans-Serif" font-size="10.00">+ ~Component()</text>
<text text-anchor="start" x="26.5" y="-190.5" font-family="Helvetica,sans-Serif" font-size="10.00">+ clone()</text>
<text text-anchor="start" x="26.5" y="-179.5" font-family="Helvetica,sans-Serif" font-size="10.00">+ onStart()</text>
<text text-anchor="start" x="26.5" y="-168.5" font-family="Helvetica,sans-Serif" font-size="10.00">+ onStop()</text>
<text text-anchor="start" x="26.5" y="-157.5" font-family="Helvetica,sans-Serif" font-size="10.00"># Component()</text>
<text text-anchor="start" x="26.5" y="-146.5" font-family="Helvetica,sans-Serif" font-size="10.00"># Component()</text>
</a>
</g>
</g>
<!-- Node2&#45;&gt;Node1 -->
<g id="edge1" class="edge">
<title>Node2&#45;&gt;Node1</title>
<path fill="none" stroke="midnightblue" d="M68.5,-129.37C68.5,-120.1 68.5,-110.75 68.5,-101.92"/>
<polygon fill="none" stroke="midnightblue" points="65,-129.38 68.5,-139.38 72,-129.38 65,-129.38"/>
</g>
<!-- Node3 -->
<g id="node3" class="node">
<title>Node3</title>
<g id="a_node3"><a xlink:href="classWAL_1_1Entity.html" target="_top" xlink:title="An entity of the WAL&#39;s ECS.">
<polygon fill="white" stroke="black" points="0,-310.5 0,-576.5 137,-576.5 137,-310.5 0,-310.5"/>
<text text-anchor="middle" x="68.5" y="-564.5" font-family="Helvetica,sans-Serif" font-size="10.00">WAL::Entity</text>
<polyline fill="none" stroke="black" points="0,-557.5 137,-557.5 "/>
<text text-anchor="start" x="8" y="-545.5" font-family="Helvetica,sans-Serif" font-size="10.00">&#45; _uid</text>
<text text-anchor="start" x="8" y="-534.5" font-family="Helvetica,sans-Serif" font-size="10.00">&#45; _name</text>
<text text-anchor="start" x="8" y="-523.5" font-family="Helvetica,sans-Serif" font-size="10.00">&#45; _disabled</text>
<text text-anchor="start" x="8" y="-512.5" font-family="Helvetica,sans-Serif" font-size="10.00">&#45; _shouldDelete</text>
<text text-anchor="start" x="8" y="-501.5" font-family="Helvetica,sans-Serif" font-size="10.00">&#45; _notifyScene</text>
<text text-anchor="start" x="8" y="-490.5" font-family="Helvetica,sans-Serif" font-size="10.00">&#45; _components</text>
<text text-anchor="start" x="8" y="-479.5" font-family="Helvetica,sans-Serif" font-size="10.00">&#45; Scene</text>
<text text-anchor="start" x="8" y="-468.5" font-family="Helvetica,sans-Serif" font-size="10.00">&#45; nextID</text>
<polyline fill="none" stroke="black" points="0,-461.5 137,-461.5 "/>
<text text-anchor="start" x="8" y="-449.5" font-family="Helvetica,sans-Serif" font-size="10.00">+ getUid()</text>
<text text-anchor="start" x="8" y="-438.5" font-family="Helvetica,sans-Serif" font-size="10.00">+ getName()</text>
<text text-anchor="start" x="8" y="-427.5" font-family="Helvetica,sans-Serif" font-size="10.00">+ setName()</text>
<text text-anchor="start" x="8" y="-416.5" font-family="Helvetica,sans-Serif" font-size="10.00">+ isDisable()</text>
<text text-anchor="start" x="8" y="-405.5" font-family="Helvetica,sans-Serif" font-size="10.00">+ setDisable()</text>
<text text-anchor="start" x="8" y="-394.5" font-family="Helvetica,sans-Serif" font-size="10.00">+ shouldDelete()</text>
<text text-anchor="start" x="8" y="-383.5" font-family="Helvetica,sans-Serif" font-size="10.00">+ scheduleDeletion()</text>
<text text-anchor="start" x="8" y="-372.5" font-family="Helvetica,sans-Serif" font-size="10.00">+ getComponent()</text>
<text text-anchor="start" x="8" y="-361.5" font-family="Helvetica,sans-Serif" font-size="10.00">+ tryGetComponent()</text>
<text text-anchor="start" x="8" y="-350.5" font-family="Helvetica,sans-Serif" font-size="10.00">+ getComponent()</text>
<text text-anchor="start" x="8" y="-339.5" font-family="Helvetica,sans-Serif" font-size="10.00">and 13 more...</text>
<text text-anchor="start" x="8" y="-328.5" font-family="Helvetica,sans-Serif" font-size="10.00">&#45; _componentAdded()</text>
<text text-anchor="start" x="8" y="-317.5" font-family="Helvetica,sans-Serif" font-size="10.00">&#45; _componentRemoved()</text>
</a>
</g>
</g>
<!-- Node3&#45;&gt;Node2 -->
<g id="edge2" class="edge">
<title>Node3&#45;&gt;Node2</title>
<path fill="none" stroke="#404040" d="M68.5,-310.29C68.5,-298.11 68.5,-286.09 68.5,-274.74"/>
<polygon fill="none" stroke="#404040" points="68.5,-274.72 64.5,-268.72 68.5,-262.72 72.5,-268.72 68.5,-274.72"/>
<text text-anchor="middle" x="91.5" y="-284" font-family="Helvetica,sans-Serif" font-size="10.00"> #_entity</text>
</g>
<!-- Node4 -->
<g id="node4" class="node">
<title>Node4</title>
<g id="a_node4"><a xlink:href="classWAL_1_1Scene.html" target="_top" xlink:title="Represent a single scene that contains entities.">
<polygon fill="white" stroke="black" points="0,-624.5 0,-868.5 137,-868.5 137,-624.5 0,-624.5"/>
<text text-anchor="middle" x="68.5" y="-856.5" font-family="Helvetica,sans-Serif" font-size="10.00">WAL::Scene</text>
<polyline fill="none" stroke="black" points="0,-849.5 137,-849.5 "/>
<text text-anchor="start" x="8" y="-837.5" font-family="Helvetica,sans-Serif" font-size="10.00">+ Entity</text>
<text text-anchor="start" x="8" y="-826.5" font-family="Helvetica,sans-Serif" font-size="10.00">&#45; _id</text>
<text text-anchor="start" x="8" y="-815.5" font-family="Helvetica,sans-Serif" font-size="10.00">&#45; _entities</text>
<text text-anchor="start" x="8" y="-804.5" font-family="Helvetica,sans-Serif" font-size="10.00">&#45; _newEntities</text>
<text text-anchor="start" x="8" y="-793.5" font-family="Helvetica,sans-Serif" font-size="10.00">&#45; _views</text>
<text text-anchor="start" x="8" y="-782.5" font-family="Helvetica,sans-Serif" font-size="10.00">&#45; _nextID</text>
<polyline fill="none" stroke="black" points="0,-775.5 137,-775.5 "/>
<text text-anchor="start" x="8" y="-763.5" font-family="Helvetica,sans-Serif" font-size="10.00">+ getID()</text>
<text text-anchor="start" x="8" y="-752.5" font-family="Helvetica,sans-Serif" font-size="10.00">+ getEntities()</text>
<text text-anchor="start" x="8" y="-741.5" font-family="Helvetica,sans-Serif" font-size="10.00">+ addEntity()</text>
<text text-anchor="start" x="8" y="-730.5" font-family="Helvetica,sans-Serif" font-size="10.00">+ scheduleNewEntity()</text>
<text text-anchor="start" x="8" y="-719.5" font-family="Helvetica,sans-Serif" font-size="10.00">+ view()</text>
<text text-anchor="start" x="8" y="-708.5" font-family="Helvetica,sans-Serif" font-size="10.00">+ applyChanges()</text>
<text text-anchor="start" x="8" y="-697.5" font-family="Helvetica,sans-Serif" font-size="10.00">+ Scene()</text>
<text text-anchor="start" x="8" y="-686.5" font-family="Helvetica,sans-Serif" font-size="10.00">+ Scene()</text>
<text text-anchor="start" x="8" y="-675.5" font-family="Helvetica,sans-Serif" font-size="10.00">+ ~Scene()</text>
<text text-anchor="start" x="8" y="-664.5" font-family="Helvetica,sans-Serif" font-size="10.00">+ operator=()</text>
<text text-anchor="start" x="8" y="-653.5" font-family="Helvetica,sans-Serif" font-size="10.00">&#45; _componentAdded()</text>
<text text-anchor="start" x="8" y="-642.5" font-family="Helvetica,sans-Serif" font-size="10.00">&#45; _componentRemoved()</text>
<text text-anchor="start" x="8" y="-631.5" font-family="Helvetica,sans-Serif" font-size="10.00">&#45; _entityRemoved()</text>
</a>
</g>
</g>
<!-- Node4&#45;&gt;Node3 -->
<g id="edge3" class="edge">
<title>Node4&#45;&gt;Node3</title>
<path fill="none" stroke="#404040" d="M68.5,-624.37C68.5,-612.73 68.5,-600.85 68.5,-589.02"/>
<polygon fill="none" stroke="#404040" points="68.5,-588.71 64.5,-582.71 68.5,-576.71 72.5,-582.71 68.5,-588.71"/>
<text text-anchor="middle" x="91.5" y="-598" font-family="Helvetica,sans-Serif" font-size="10.00"> +_scene</text>
</g>
</g>
</svg>
