<?xml version="1.0" encoding="UTF-8" standalone="no"?>
<!DOCTYPE svg PUBLIC "-//W3C//DTD SVG 1.1//EN"
 "http://www.w3.org/Graphics/SVG/1.1/DTD/svg11.dtd">
<!-- Generated by graphviz version 2.43.0 (0)
 -->
<!-- Title: RAY::Drawables::ADrawable3D Pages: 1 -->
<svg width="1893pt" height="595pt"
 viewBox="0.00 0.00 1893.00 595.00" xmlns="http://www.w3.org/2000/svg" xmlns:xlink="http://www.w3.org/1999/xlink">
<g id="graph0" class="graph" transform="scale(1 1) rotate(0) translate(4 591)">
<title>RAY::Drawables::ADrawable3D</title>
<polygon fill="white" stroke="transparent" points="-4,4 -4,-591 1889,-591 1889,4 -4,4"/>
<!-- Node1 -->
<g id="node1" class="node">
<title>Node1</title>
<g id="a_node1"><a xlink:title="Abstraction of any three&#45;dimensionnal drawable.">
<polygon fill="#bfbfbf" stroke="black" points="860.5,-292.5 860.5,-481.5 1024.5,-481.5 1024.5,-292.5 860.5,-292.5"/>
<text text-anchor="middle" x="942.5" y="-469.5" font-family="Helvetica,sans-Serif" font-size="10.00">RAY::Drawables::ADrawable3D</text>
<polyline fill="none" stroke="black" points="860.5,-462.5 1024.5,-462.5 "/>
<text text-anchor="start" x="868.5" y="-450.5" font-family="Helvetica,sans-Serif" font-size="10.00"># _position</text>
<text text-anchor="start" x="868.5" y="-439.5" font-family="Helvetica,sans-Serif" font-size="10.00"># _color</text>
<text text-anchor="start" x="868.5" y="-428.5" font-family="Helvetica,sans-Serif" font-size="10.00"># _debugColor</text>
<polyline fill="none" stroke="black" points="860.5,-421.5 1024.5,-421.5 "/>
<text text-anchor="start" x="868.5" y="-409.5" font-family="Helvetica,sans-Serif" font-size="10.00">+ ADrawable3D()</text>
<text text-anchor="start" x="868.5" y="-398.5" font-family="Helvetica,sans-Serif" font-size="10.00">+ ADrawable3D()</text>
<text text-anchor="start" x="868.5" y="-387.5" font-family="Helvetica,sans-Serif" font-size="10.00">+ ~ADrawable3D()</text>
<text text-anchor="start" x="868.5" y="-376.5" font-family="Helvetica,sans-Serif" font-size="10.00">+ drawOn()</text>
<text text-anchor="start" x="868.5" y="-365.5" font-family="Helvetica,sans-Serif" font-size="10.00">+ drawWiresOn()</text>
<text text-anchor="start" x="868.5" y="-354.5" font-family="Helvetica,sans-Serif" font-size="10.00">+ getColor()</text>
<text text-anchor="start" x="868.5" y="-343.5" font-family="Helvetica,sans-Serif" font-size="10.00">+ setColor()</text>
<text text-anchor="start" x="868.5" y="-332.5" font-family="Helvetica,sans-Serif" font-size="10.00">+ getDebugColor()</text>
<text text-anchor="start" x="868.5" y="-321.5" font-family="Helvetica,sans-Serif" font-size="10.00">+ setDebugColor()</text>
<text text-anchor="start" x="868.5" y="-310.5" font-family="Helvetica,sans-Serif" font-size="10.00">+ getPosition()</text>
<text text-anchor="start" x="868.5" y="-299.5" font-family="Helvetica,sans-Serif" font-size="10.00">+ setPosition()</text>
</a>
</g>
</g>
<!-- Node3 -->
<g id="node3" class="node">
<title>Node3</title>
<g id="a_node3"><a xlink:href="classRAY_1_1Drawables_1_1Drawables3D_1_1Circle.html" target="_top" xlink:title="Circle in a three&#45;dimensionnal space.">
<polygon fill="white" stroke="black" points="0,-44.5 0,-211.5 155,-211.5 155,-44.5 0,-44.5"/>
<text text-anchor="start" x="8" y="-199.5" font-family="Helvetica,sans-Serif" font-size="10.00">RAY::Drawables::Drawables3</text>
<text text-anchor="middle" x="77.5" y="-188.5" font-family="Helvetica,sans-Serif" font-size="10.00">D::Circle</text>
<polyline fill="none" stroke="black" points="0,-181.5 155,-181.5 "/>
<text text-anchor="start" x="8" y="-169.5" font-family="Helvetica,sans-Serif" font-size="10.00">&#45; _radius</text>
<text text-anchor="start" x="8" y="-158.5" font-family="Helvetica,sans-Serif" font-size="10.00">&#45; _rotationAxis</text>
<text text-anchor="start" x="8" y="-147.5" font-family="Helvetica,sans-Serif" font-size="10.00">&#45; _rotationAngle</text>
<polyline fill="none" stroke="black" points="0,-140.5 155,-140.5 "/>
<text text-anchor="start" x="8" y="-128.5" font-family="Helvetica,sans-Serif" font-size="10.00">+ Circle()</text>
<text text-anchor="start" x="8" y="-117.5" font-family="Helvetica,sans-Serif" font-size="10.00">+ Circle()</text>
<text text-anchor="start" x="8" y="-106.5" font-family="Helvetica,sans-Serif" font-size="10.00">+ operator=()</text>
<text text-anchor="start" x="8" y="-95.5" font-family="Helvetica,sans-Serif" font-size="10.00">+ ~Circle()</text>
<text text-anchor="start" x="8" y="-84.5" font-family="Helvetica,sans-Serif" font-size="10.00">+ getRadius()</text>
<text text-anchor="start" x="8" y="-73.5" font-family="Helvetica,sans-Serif" font-size="10.00">+ setRadius()</text>
<text text-anchor="start" x="8" y="-62.5" font-family="Helvetica,sans-Serif" font-size="10.00">+ getCenterPos()</text>
<text text-anchor="start" x="8" y="-51.5" font-family="Helvetica,sans-Serif" font-size="10.00">+ drawOn()</text>
</a>
</g>
</g>
<!-- Node1&#45;&gt;Node3 -->
<g id="edge2" class="edge">
<title>Node1&#45;&gt;Node3</title>
<path fill="none" stroke="midnightblue" d="M850.23,-379.68C669.36,-365.86 276.05,-328.22 163.5,-256 146.02,-244.78 131.21,-228.61 119.06,-211.55"/>
<polygon fill="none" stroke="midnightblue" points="850.02,-383.18 860.25,-380.44 850.55,-376.2 850.02,-383.18"/>
</g>
<!-- Node4 -->
<g id="node4" class="node">
<title>Node4</title>
<g id="a_node4"><a xlink:href="classRAY_1_1Drawables_1_1Drawables3D_1_1Cube.html" target="_top" xlink:title="Cube in a three&#45;dimensionnal space.">
<polygon fill="white" stroke="black" points="173,-55.5 173,-200.5 328,-200.5 328,-55.5 173,-55.5"/>
<text text-anchor="start" x="181" y="-188.5" font-family="Helvetica,sans-Serif" font-size="10.00">RAY::Drawables::Drawables3</text>
<text text-anchor="middle" x="250.5" y="-177.5" font-family="Helvetica,sans-Serif" font-size="10.00">D::Cube</text>
<polyline fill="none" stroke="black" points="173,-170.5 328,-170.5 "/>
<text text-anchor="start" x="181" y="-158.5" font-family="Helvetica,sans-Serif" font-size="10.00">&#45; _dimensions</text>
<polyline fill="none" stroke="black" points="173,-151.5 328,-151.5 "/>
<text text-anchor="start" x="181" y="-139.5" font-family="Helvetica,sans-Serif" font-size="10.00">+ Cube()</text>
<text text-anchor="start" x="181" y="-128.5" font-family="Helvetica,sans-Serif" font-size="10.00">+ Cube()</text>
<text text-anchor="start" x="181" y="-117.5" font-family="Helvetica,sans-Serif" font-size="10.00">+ operator=()</text>
<text text-anchor="start" x="181" y="-106.5" font-family="Helvetica,sans-Serif" font-size="10.00">+ ~Cube()</text>
<text text-anchor="start" x="181" y="-95.5" font-family="Helvetica,sans-Serif" font-size="10.00">+ getDimensions()</text>
<text text-anchor="start" x="181" y="-84.5" font-family="Helvetica,sans-Serif" font-size="10.00">+ setDimensions()</text>
<text text-anchor="start" x="181" y="-73.5" font-family="Helvetica,sans-Serif" font-size="10.00">+ drawOn()</text>
<text text-anchor="start" x="181" y="-62.5" font-family="Helvetica,sans-Serif" font-size="10.00">+ drawWiresOn()</text>
</a>
</g>
</g>
<!-- Node1&#45;&gt;Node4 -->
<g id="edge3" class="edge">
<title>Node1&#45;&gt;Node4</title>
<path fill="none" stroke="midnightblue" d="M850.49,-374.78C702.44,-355.33 419.56,-312.03 336.5,-256 315.86,-242.08 298.82,-221.38 285.51,-200.72"/>
<polygon fill="none" stroke="midnightblue" points="850.11,-378.26 860.47,-376.08 851.01,-371.32 850.11,-378.26"/>
</g>
<!-- Node5 -->
<g id="node5" class="node">
<title>Node5</title>
<g id="a_node5"><a xlink:href="classRAY_1_1Drawables_1_1Drawables3D_1_1Cylinder.html" target="_top" xlink:title="Cylinder in a three&#45;dimensionnal space.">
<polygon fill="white" stroke="black" points="346,-22.5 346,-233.5 501,-233.5 501,-22.5 346,-22.5"/>
<text text-anchor="start" x="354" y="-221.5" font-family="Helvetica,sans-Serif" font-size="10.00">RAY::Drawables::Drawables3</text>
<text text-anchor="middle" x="423.5" y="-210.5" font-family="Helvetica,sans-Serif" font-size="10.00">D::Cylinder</text>
<polyline fill="none" stroke="black" points="346,-203.5 501,-203.5 "/>
<text text-anchor="start" x="354" y="-191.5" font-family="Helvetica,sans-Serif" font-size="10.00">&#45; _topRadius</text>
<text text-anchor="start" x="354" y="-180.5" font-family="Helvetica,sans-Serif" font-size="10.00">&#45; _bottomRadius</text>
<text text-anchor="start" x="354" y="-169.5" font-family="Helvetica,sans-Serif" font-size="10.00">&#45; _height</text>
<polyline fill="none" stroke="black" points="346,-162.5 501,-162.5 "/>
<text text-anchor="start" x="354" y="-150.5" font-family="Helvetica,sans-Serif" font-size="10.00">+ Cylinder()</text>
<text text-anchor="start" x="354" y="-139.5" font-family="Helvetica,sans-Serif" font-size="10.00">+ Cylinder()</text>
<text text-anchor="start" x="354" y="-128.5" font-family="Helvetica,sans-Serif" font-size="10.00">+ operator=()</text>
<text text-anchor="start" x="354" y="-117.5" font-family="Helvetica,sans-Serif" font-size="10.00">+ ~Cylinder()</text>
<text text-anchor="start" x="354" y="-106.5" font-family="Helvetica,sans-Serif" font-size="10.00">+ getTopRadius()</text>
<text text-anchor="start" x="354" y="-95.5" font-family="Helvetica,sans-Serif" font-size="10.00">+ setTopRadius()</text>
<text text-anchor="start" x="354" y="-84.5" font-family="Helvetica,sans-Serif" font-size="10.00">+ getBottomRadius()</text>
<text text-anchor="start" x="354" y="-73.5" font-family="Helvetica,sans-Serif" font-size="10.00">+ setBottomRadius()</text>
<text text-anchor="start" x="354" y="-62.5" font-family="Helvetica,sans-Serif" font-size="10.00">+ getHeight()</text>
<text text-anchor="start" x="354" y="-51.5" font-family="Helvetica,sans-Serif" font-size="10.00">+ setHeight()</text>
<text text-anchor="start" x="354" y="-40.5" font-family="Helvetica,sans-Serif" font-size="10.00">+ drawOn()</text>
<text text-anchor="start" x="354" y="-29.5" font-family="Helvetica,sans-Serif" font-size="10.00">+ drawWiresOn()</text>
</a>
</g>
</g>
<!-- Node1&#45;&gt;Node5 -->
<g id="edge4" class="edge">
<title>Node1&#45;&gt;Node5</title>
<path fill="none" stroke="midnightblue" d="M850.17,-376.52C756.58,-363 611.42,-330.88 509.5,-256 500.7,-249.54 492.52,-241.89 484.97,-233.59"/>
<polygon fill="none" stroke="midnightblue" points="849.8,-380 860.19,-377.93 850.77,-373.07 849.8,-380"/>
</g>
<!-- Node6 -->
<g id="node6" class="node">
<title>Node6</title>
<g id="a_node6"><a xlink:href="classRAY_1_1Drawables_1_1Drawables3D_1_1Grid.html" target="_top" xlink:title="a grid (centered at (0, 0, 0))">
<polygon fill="white" stroke="black" points="519,-33.5 519,-222.5 674,-222.5 674,-33.5 519,-33.5"/>
<text text-anchor="start" x="527" y="-210.5" font-family="Helvetica,sans-Serif" font-size="10.00">RAY::Drawables::Drawables3</text>
<text text-anchor="middle" x="596.5" y="-199.5" font-family="Helvetica,sans-Serif" font-size="10.00">D::Grid</text>
<polyline fill="none" stroke="black" points="519,-192.5 674,-192.5 "/>
<text text-anchor="start" x="527" y="-180.5" font-family="Helvetica,sans-Serif" font-size="10.00">&#45; _slices</text>
<text text-anchor="start" x="527" y="-169.5" font-family="Helvetica,sans-Serif" font-size="10.00">&#45; _spacing</text>
<polyline fill="none" stroke="black" points="519,-162.5 674,-162.5 "/>
<text text-anchor="start" x="527" y="-150.5" font-family="Helvetica,sans-Serif" font-size="10.00">+ Grid()</text>
<text text-anchor="start" x="527" y="-139.5" font-family="Helvetica,sans-Serif" font-size="10.00">+ Grid()</text>
<text text-anchor="start" x="527" y="-128.5" font-family="Helvetica,sans-Serif" font-size="10.00">+ operator=()</text>
<text text-anchor="start" x="527" y="-117.5" font-family="Helvetica,sans-Serif" font-size="10.00">+ ~Grid()</text>
<text text-anchor="start" x="527" y="-106.5" font-family="Helvetica,sans-Serif" font-size="10.00">+ getSlices()</text>
<text text-anchor="start" x="527" y="-95.5" font-family="Helvetica,sans-Serif" font-size="10.00">+ getSpacing()</text>
<text text-anchor="start" x="527" y="-84.5" font-family="Helvetica,sans-Serif" font-size="10.00">+ setSlices()</text>
<text text-anchor="start" x="527" y="-73.5" font-family="Helvetica,sans-Serif" font-size="10.00">+ setSpacing()</text>
<text text-anchor="start" x="527" y="-62.5" font-family="Helvetica,sans-Serif" font-size="10.00">+ getPosition()</text>
<text text-anchor="start" x="527" y="-51.5" font-family="Helvetica,sans-Serif" font-size="10.00">+ setPosition()</text>
<text text-anchor="start" x="527" y="-40.5" font-family="Helvetica,sans-Serif" font-size="10.00">+ drawOn()</text>
</a>
</g>
</g>
<!-- Node1&#45;&gt;Node6 -->
<g id="edge5" class="edge">
<title>Node1&#45;&gt;Node6</title>
<path fill="none" stroke="midnightblue" d="M851.05,-353.8C797.82,-331.94 731.73,-299.14 682.5,-256 671.39,-246.26 661.05,-234.77 651.67,-222.76"/>
<polygon fill="none" stroke="midnightblue" points="849.91,-357.12 860.49,-357.62 852.53,-350.63 849.91,-357.12"/>
</g>
<!-- Node7 -->
<g id="node7" class="node">
<title>Node7</title>
<g id="a_node7"><a xlink:href="classRAY_1_1Drawables_1_1Drawables3D_1_1Line.html" target="_top" xlink:title="Line in a three&#45;dimensionnal space.">
<polygon fill="white" stroke="black" points="692,-50 692,-206 847,-206 847,-50 692,-50"/>
<text text-anchor="start" x="700" y="-194" font-family="Helvetica,sans-Serif" font-size="10.00">RAY::Drawables::Drawables3</text>
<text text-anchor="middle" x="769.5" y="-183" font-family="Helvetica,sans-Serif" font-size="10.00">D::Line</text>
<polyline fill="none" stroke="black" points="692,-176 847,-176 "/>
<text text-anchor="start" x="700" y="-164" font-family="Helvetica,sans-Serif" font-size="10.00">&#45; _endPosition</text>
<polyline fill="none" stroke="black" points="692,-157 847,-157 "/>
<text text-anchor="start" x="700" y="-145" font-family="Helvetica,sans-Serif" font-size="10.00">+ Line()</text>
<text text-anchor="start" x="700" y="-134" font-family="Helvetica,sans-Serif" font-size="10.00">+ Line()</text>
<text text-anchor="start" x="700" y="-123" font-family="Helvetica,sans-Serif" font-size="10.00">+ operator=()</text>
<text text-anchor="start" x="700" y="-112" font-family="Helvetica,sans-Serif" font-size="10.00">+ ~Line()</text>
<text text-anchor="start" x="700" y="-101" font-family="Helvetica,sans-Serif" font-size="10.00">+ getStartPosition()</text>
<text text-anchor="start" x="700" y="-90" font-family="Helvetica,sans-Serif" font-size="10.00">+ getEndPosition()</text>
<text text-anchor="start" x="700" y="-79" font-family="Helvetica,sans-Serif" font-size="10.00">+ setStartPosition()</text>
<text text-anchor="start" x="700" y="-68" font-family="Helvetica,sans-Serif" font-size="10.00">+ setEndPosition()</text>
<text text-anchor="start" x="700" y="-57" font-family="Helvetica,sans-Serif" font-size="10.00">+ drawOn()</text>
</a>
</g>
</g>
<!-- Node1&#45;&gt;Node7 -->
<g id="edge6" class="edge">
<title>Node1&#45;&gt;Node7</title>
<path fill="none" stroke="midnightblue" d="M873.93,-284.14C856.51,-258.25 838.06,-230.85 821.6,-206.4"/>
<polygon fill="none" stroke="midnightblue" points="871.07,-286.15 879.55,-292.49 876.87,-282.24 871.07,-286.15"/>
</g>
<!-- Node8 -->
<g id="node8" class="node">
<title>Node8</title>
<g id="a_node8"><a xlink:href="classRAY_1_1Drawables_1_1Drawables3D_1_1Model.html" target="_top" xlink:title="Basic 3D Model type.">
<polygon fill="white" stroke="black" points="865,-0.5 865,-255.5 1020,-255.5 1020,-0.5 865,-0.5"/>
<text text-anchor="start" x="873" y="-243.5" font-family="Helvetica,sans-Serif" font-size="10.00">RAY::Drawables::Drawables3</text>
<text text-anchor="middle" x="942.5" y="-232.5" font-family="Helvetica,sans-Serif" font-size="10.00">D::Model</text>
<polyline fill="none" stroke="black" points="865,-225.5 1020,-225.5 "/>
<text text-anchor="start" x="873" y="-213.5" font-family="Helvetica,sans-Serif" font-size="10.00">&#45; _model</text>
<text text-anchor="start" x="873" y="-202.5" font-family="Helvetica,sans-Serif" font-size="10.00">&#45; _textureList</text>
<text text-anchor="start" x="873" y="-191.5" font-family="Helvetica,sans-Serif" font-size="10.00">&#45; _rotationAxis</text>
<text text-anchor="start" x="873" y="-180.5" font-family="Helvetica,sans-Serif" font-size="10.00">&#45; _rotationAngle</text>
<text text-anchor="start" x="873" y="-169.5" font-family="Helvetica,sans-Serif" font-size="10.00">&#45; _scale</text>
<text text-anchor="start" x="873" y="-158.5" font-family="Helvetica,sans-Serif" font-size="10.00">&#45; _originalShader</text>
<text text-anchor="start" x="873" y="-147.5" font-family="Helvetica,sans-Serif" font-size="10.00">&#45; __pad0__</text>
<text text-anchor="start" x="873" y="-136.5" font-family="Helvetica,sans-Serif" font-size="10.00">&#45; _modelsCache</text>
<polyline fill="none" stroke="black" points="865,-129.5 1020,-129.5 "/>
<text text-anchor="start" x="873" y="-117.5" font-family="Helvetica,sans-Serif" font-size="10.00">+ Model()</text>
<text text-anchor="start" x="873" y="-106.5" font-family="Helvetica,sans-Serif" font-size="10.00">+ Model()</text>
<text text-anchor="start" x="873" y="-95.5" font-family="Helvetica,sans-Serif" font-size="10.00">+ Model()</text>
<text text-anchor="start" x="873" y="-84.5" font-family="Helvetica,sans-Serif" font-size="10.00">+ operator=()</text>
<text text-anchor="start" x="873" y="-73.5" font-family="Helvetica,sans-Serif" font-size="10.00">+ ~Model()</text>
<text text-anchor="start" x="873" y="-62.5" font-family="Helvetica,sans-Serif" font-size="10.00">+ unloadKeepMeshes()</text>
<text text-anchor="start" x="873" y="-51.5" font-family="Helvetica,sans-Serif" font-size="10.00">+ setAnimation()</text>
<text text-anchor="start" x="873" y="-40.5" font-family="Helvetica,sans-Serif" font-size="10.00">+ setTextureToMaterial()</text>
<text text-anchor="start" x="873" y="-29.5" font-family="Helvetica,sans-Serif" font-size="10.00">+ getBoneCount()</text>
<text text-anchor="start" x="873" y="-18.5" font-family="Helvetica,sans-Serif" font-size="10.00">+ setRotationAngle()</text>
<text text-anchor="start" x="873" y="-7.5" font-family="Helvetica,sans-Serif" font-size="10.00">and 10 more...</text>
</a>
</g>
</g>
<!-- Node1&#45;&gt;Node8 -->
<g id="edge7" class="edge">
<title>Node1&#45;&gt;Node8</title>
<path fill="none" stroke="midnightblue" d="M942.5,-282.35C942.5,-273.63 942.5,-264.76 942.5,-255.9"/>
<polygon fill="none" stroke="midnightblue" points="939,-282.49 942.5,-292.49 946,-282.49 939,-282.49"/>
</g>
<!-- Node9 -->
<g id="node9" class="node">
<title>Node9</title>
<g id="a_node9"><a xlink:href="classRAY_1_1Drawables_1_1Drawables3D_1_1Plane.html" target="_top" xlink:title="Plane in a three&#45;dimensionnal space.">
<polygon fill="white" stroke="black" points="1038,-61 1038,-195 1193,-195 1193,-61 1038,-61"/>
<text text-anchor="start" x="1046" y="-183" font-family="Helvetica,sans-Serif" font-size="10.00">RAY::Drawables::Drawables3</text>
<text text-anchor="middle" x="1115.5" y="-172" font-family="Helvetica,sans-Serif" font-size="10.00">D::Plane</text>
<polyline fill="none" stroke="black" points="1038,-165 1193,-165 "/>
<text text-anchor="start" x="1046" y="-153" font-family="Helvetica,sans-Serif" font-size="10.00">&#45; _dimensions</text>
<polyline fill="none" stroke="black" points="1038,-146 1193,-146 "/>
<text text-anchor="start" x="1046" y="-134" font-family="Helvetica,sans-Serif" font-size="10.00">+ Plane()</text>
<text text-anchor="start" x="1046" y="-123" font-family="Helvetica,sans-Serif" font-size="10.00">+ Plane()</text>
<text text-anchor="start" x="1046" y="-112" font-family="Helvetica,sans-Serif" font-size="10.00">+ operator=()</text>
<text text-anchor="start" x="1046" y="-101" font-family="Helvetica,sans-Serif" font-size="10.00">+ ~Plane()</text>
<text text-anchor="start" x="1046" y="-90" font-family="Helvetica,sans-Serif" font-size="10.00">+ getDimensions()</text>
<text text-anchor="start" x="1046" y="-79" font-family="Helvetica,sans-Serif" font-size="10.00">+ setDimensions()</text>
<text text-anchor="start" x="1046" y="-68" font-family="Helvetica,sans-Serif" font-size="10.00">+ drawOn()</text>
</a>
</g>
</g>
<!-- Node1&#45;&gt;Node9 -->
<g id="edge8" class="edge">
<title>Node1&#45;&gt;Node9</title>
<path fill="none" stroke="midnightblue" d="M1011.09,-284.1C1031.26,-254.14 1052.78,-222.17 1071.02,-195.08"/>
<polygon fill="none" stroke="midnightblue" points="1008.13,-282.24 1005.45,-292.49 1013.93,-286.15 1008.13,-282.24"/>
</g>
<!-- Node10 -->
<g id="node10" class="node">
<title>Node10</title>
<g id="a_node10"><a xlink:href="classRAY_1_1Drawables_1_1Drawables3D_1_1Point.html" target="_top" xlink:title="Point in a three&#45;dimensionnal space.">
<polygon fill="white" stroke="black" points="1211,-72 1211,-184 1366,-184 1366,-72 1211,-72"/>
<text text-anchor="start" x="1219" y="-172" font-family="Helvetica,sans-Serif" font-size="10.00">RAY::Drawables::Drawables3</text>
<text text-anchor="middle" x="1288.5" y="-161" font-family="Helvetica,sans-Serif" font-size="10.00">D::Point</text>
<polyline fill="none" stroke="black" points="1211,-154 1366,-154 "/>
<text text-anchor="middle" x="1288.5" y="-142" font-family="Helvetica,sans-Serif" font-size="10.00"> </text>
<polyline fill="none" stroke="black" points="1211,-135 1366,-135 "/>
<text text-anchor="start" x="1219" y="-123" font-family="Helvetica,sans-Serif" font-size="10.00">+ Point()</text>
<text text-anchor="start" x="1219" y="-112" font-family="Helvetica,sans-Serif" font-size="10.00">+ Point()</text>
<text text-anchor="start" x="1219" y="-101" font-family="Helvetica,sans-Serif" font-size="10.00">+ operator=()</text>
<text text-anchor="start" x="1219" y="-90" font-family="Helvetica,sans-Serif" font-size="10.00">+ ~Point()</text>
<text text-anchor="start" x="1219" y="-79" font-family="Helvetica,sans-Serif" font-size="10.00">+ drawOn()</text>
</a>
</g>
</g>
<!-- Node1&#45;&gt;Node10 -->
<g id="edge9" class="edge">
<title>Node1&#45;&gt;Node10</title>
<path fill="none" stroke="midnightblue" d="M1033.95,-353.8C1087.18,-331.94 1153.27,-299.14 1202.5,-256 1225.43,-235.9 1245.05,-208.38 1259.74,-184.09"/>
<polygon fill="none" stroke="midnightblue" points="1032.47,-350.63 1024.51,-357.62 1035.09,-357.12 1032.47,-350.63"/>
</g>
<!-- Node11 -->
<g id="node11" class="node">
<title>Node11</title>
<g id="a_node11"><a xlink:href="classRAY_1_1Drawables_1_1Drawables3D_1_1Ray.html" target="_top" xlink:title="Ray in a three&#45;dimensionnal space.">
<polygon fill="white" stroke="black" points="1384,-61 1384,-195 1539,-195 1539,-61 1384,-61"/>
<text text-anchor="start" x="1392" y="-183" font-family="Helvetica,sans-Serif" font-size="10.00">RAY::Drawables::Drawables3</text>
<text text-anchor="middle" x="1461.5" y="-172" font-family="Helvetica,sans-Serif" font-size="10.00">D::Ray</text>
<polyline fill="none" stroke="black" points="1384,-165 1539,-165 "/>
<text text-anchor="start" x="1392" y="-153" font-family="Helvetica,sans-Serif" font-size="10.00">&#45; _direction</text>
<polyline fill="none" stroke="black" points="1384,-146 1539,-146 "/>
<text text-anchor="start" x="1392" y="-134" font-family="Helvetica,sans-Serif" font-size="10.00">+ Ray()</text>
<text text-anchor="start" x="1392" y="-123" font-family="Helvetica,sans-Serif" font-size="10.00">+ Ray()</text>
<text text-anchor="start" x="1392" y="-112" font-family="Helvetica,sans-Serif" font-size="10.00">+ operator=()</text>
<text text-anchor="start" x="1392" y="-101" font-family="Helvetica,sans-Serif" font-size="10.00">+ ~Ray()</text>
<text text-anchor="start" x="1392" y="-90" font-family="Helvetica,sans-Serif" font-size="10.00">+ getDirection()</text>
<text text-anchor="start" x="1392" y="-79" font-family="Helvetica,sans-Serif" font-size="10.00">+ setDirection()</text>
<text text-anchor="start" x="1392" y="-68" font-family="Helvetica,sans-Serif" font-size="10.00">+ drawOn()</text>
</a>
</g>
</g>
<!-- Node1&#45;&gt;Node11 -->
<g id="edge10" class="edge">
<title>Node1&#45;&gt;Node11</title>
<path fill="none" stroke="midnightblue" d="M1034.83,-376.52C1128.42,-363 1273.58,-330.88 1375.5,-256 1397.07,-240.16 1414.95,-217.18 1428.73,-195.11"/>
<polygon fill="none" stroke="midnightblue" points="1034.23,-373.07 1024.81,-377.93 1035.2,-380 1034.23,-373.07"/>
</g>
<!-- Node12 -->
<g id="node12" class="node">
<title>Node12</title>
<g id="a_node12"><a xlink:href="classRAY_1_1Drawables_1_1Drawables3D_1_1Sphere.html" target="_top" xlink:title="Sphere in a three&#45;dimensionnal space.">
<polygon fill="white" stroke="black" points="1557,-55.5 1557,-200.5 1712,-200.5 1712,-55.5 1557,-55.5"/>
<text text-anchor="start" x="1565" y="-188.5" font-family="Helvetica,sans-Serif" font-size="10.00">RAY::Drawables::Drawables3</text>
<text text-anchor="middle" x="1634.5" y="-177.5" font-family="Helvetica,sans-Serif" font-size="10.00">D::Sphere</text>
<polyline fill="none" stroke="black" points="1557,-170.5 1712,-170.5 "/>
<text text-anchor="start" x="1565" y="-158.5" font-family="Helvetica,sans-Serif" font-size="10.00">&#45; _radius</text>
<polyline fill="none" stroke="black" points="1557,-151.5 1712,-151.5 "/>
<text text-anchor="start" x="1565" y="-139.5" font-family="Helvetica,sans-Serif" font-size="10.00">+ Sphere()</text>
<text text-anchor="start" x="1565" y="-128.5" font-family="Helvetica,sans-Serif" font-size="10.00">+ Sphere()</text>
<text text-anchor="start" x="1565" y="-117.5" font-family="Helvetica,sans-Serif" font-size="10.00">+ operator=()</text>
<text text-anchor="start" x="1565" y="-106.5" font-family="Helvetica,sans-Serif" font-size="10.00">+ ~Sphere()</text>
<text text-anchor="start" x="1565" y="-95.5" font-family="Helvetica,sans-Serif" font-size="10.00">+ getRadius()</text>
<text text-anchor="start" x="1565" y="-84.5" font-family="Helvetica,sans-Serif" font-size="10.00">+ setRadius()</text>
<text text-anchor="start" x="1565" y="-73.5" font-family="Helvetica,sans-Serif" font-size="10.00">+ drawOn()</text>
<text text-anchor="start" x="1565" y="-62.5" font-family="Helvetica,sans-Serif" font-size="10.00">+ drawWiresOn()</text>
</a>
</g>
</g>
<!-- Node1&#45;&gt;Node12 -->
<g id="edge11" class="edge">
<title>Node1&#45;&gt;Node12</title>
<path fill="none" stroke="midnightblue" d="M1034.51,-374.78C1182.56,-355.33 1465.44,-312.03 1548.5,-256 1569.14,-242.08 1586.18,-221.38 1599.49,-200.72"/>
<polygon fill="none" stroke="midnightblue" points="1033.99,-371.32 1024.53,-376.08 1034.89,-378.26 1033.99,-371.32"/>
</g>
<!-- Node13 -->
<g id="node13" class="node">
<title>Node13</title>
<g id="a_node13"><a xlink:href="classRAY_1_1Drawables_1_1Drawables3D_1_1Triangle.html" target="_top" xlink:title="Triangle in a three&#45;dimensionnal space.">
<polygon fill="white" stroke="black" points="1730,-33.5 1730,-222.5 1885,-222.5 1885,-33.5 1730,-33.5"/>
<text text-anchor="start" x="1738" y="-210.5" font-family="Helvetica,sans-Serif" font-size="10.00">RAY::Drawables::Drawables3</text>
<text text-anchor="middle" x="1807.5" y="-199.5" font-family="Helvetica,sans-Serif" font-size="10.00">D::Triangle</text>
<polyline fill="none" stroke="black" points="1730,-192.5 1885,-192.5 "/>
<text text-anchor="start" x="1738" y="-180.5" font-family="Helvetica,sans-Serif" font-size="10.00">&#45; _posB</text>
<text text-anchor="start" x="1738" y="-169.5" font-family="Helvetica,sans-Serif" font-size="10.00">&#45; _posC</text>
<polyline fill="none" stroke="black" points="1730,-162.5 1885,-162.5 "/>
<text text-anchor="start" x="1738" y="-150.5" font-family="Helvetica,sans-Serif" font-size="10.00">+ Triangle()</text>
<text text-anchor="start" x="1738" y="-139.5" font-family="Helvetica,sans-Serif" font-size="10.00">+ Triangle()</text>
<text text-anchor="start" x="1738" y="-128.5" font-family="Helvetica,sans-Serif" font-size="10.00">+ operator=()</text>
<text text-anchor="start" x="1738" y="-117.5" font-family="Helvetica,sans-Serif" font-size="10.00">+ ~Triangle()</text>
<text text-anchor="start" x="1738" y="-106.5" font-family="Helvetica,sans-Serif" font-size="10.00">+ getPositionA()</text>
<text text-anchor="start" x="1738" y="-95.5" font-family="Helvetica,sans-Serif" font-size="10.00">+ getPositionB()</text>
<text text-anchor="start" x="1738" y="-84.5" font-family="Helvetica,sans-Serif" font-size="10.00">+ getPositionC()</text>
<text text-anchor="start" x="1738" y="-73.5" font-family="Helvetica,sans-Serif" font-size="10.00">+ setPositionA()</text>
<text text-anchor="start" x="1738" y="-62.5" font-family="Helvetica,sans-Serif" font-size="10.00">+ setPositionB()</text>
<text text-anchor="start" x="1738" y="-51.5" font-family="Helvetica,sans-Serif" font-size="10.00">+ setPositionC()</text>
<text text-anchor="start" x="1738" y="-40.5" font-family="Helvetica,sans-Serif" font-size="10.00">+ drawOn()</text>
</a>
</g>
</g>
<!-- Node1&#45;&gt;Node13 -->
<g id="edge12" class="edge">
<title>Node1&#45;&gt;Node13</title>
<path fill="none" stroke="midnightblue" d="M1034.77,-379.68C1215.64,-365.86 1608.95,-328.22 1721.5,-256 1735.17,-247.23 1747.21,-235.43 1757.62,-222.54"/>
<polygon fill="none" stroke="midnightblue" points="1034.45,-376.2 1024.75,-380.44 1034.98,-383.18 1034.45,-376.2"/>
</g>
<!-- Node2 -->
<g id="node2" class="node">
<title>Node2</title>
<g id="a_node2"><a xlink:href="classRAY_1_1Drawables_1_1IDrawable.html" target="_top" xlink:title="Interface for any drawable.">
<polygon fill="white" stroke="black" points="869,-518.5 869,-586.5 1016,-586.5 1016,-518.5 869,-518.5"/>
<text text-anchor="middle" x="942.5" y="-574.5" font-family="Helvetica,sans-Serif" font-size="10.00">RAY::Drawables::IDrawable</text>
<polyline fill="none" stroke="black" points="869,-567.5 1016,-567.5 "/>
<text text-anchor="middle" x="942.5" y="-555.5" font-family="Helvetica,sans-Serif" font-size="10.00"> </text>
<polyline fill="none" stroke="black" points="869,-548.5 1016,-548.5 "/>
<text text-anchor="start" x="877" y="-536.5" font-family="Helvetica,sans-Serif" font-size="10.00">+ ~IDrawable()</text>
<text text-anchor="start" x="877" y="-525.5" font-family="Helvetica,sans-Serif" font-size="10.00">+ drawOn()</text>
</a>
</g>
</g>
<!-- Node2&#45;&gt;Node1 -->
<g id="edge1" class="edge">
<title>Node2&#45;&gt;Node1</title>
<path fill="none" stroke="midnightblue" d="M942.5,-508.25C942.5,-499.9 942.5,-490.85 942.5,-481.6"/>
<polygon fill="none" stroke="midnightblue" points="939,-508.41 942.5,-518.41 946,-508.41 939,-508.41"/>
</g>
</g>
</svg>
