<?xml version="1.0" encoding="UTF-8" standalone="no"?>
<!DOCTYPE svg PUBLIC "-//W3C//DTD SVG 1.1//EN"
 "http://www.w3.org/Graphics/SVG/1.1/DTD/svg11.dtd">
<!-- Generated by graphviz version 2.43.0 (0)
 -->
<!-- Title: BBM::LobbyComponent Pages: 1 -->
<svg width="139pt" height="336pt"
 viewBox="0.00 0.00 139.00 336.00" xmlns="http://www.w3.org/2000/svg" xmlns:xlink="http://www.w3.org/1999/xlink">
<g id="graph0" class="graph" transform="scale(1 1) rotate(0) translate(4 332)">
<title>BBM::LobbyComponent</title>
<polygon fill="white" stroke="transparent" points="-4,4 -4,-332 135,-332 135,4 -4,4"/>
<!-- Node1 -->
<g id="node1" class="node">
<title>Node1</title>
<g id="a_node1"><a xlink:title=" ">
<polygon fill="#bfbfbf" stroke="black" points="0,-0.5 0,-167.5 131,-167.5 131,-0.5 0,-0.5"/>
<text text-anchor="middle" x="65.5" y="-155.5" font-family="Helvetica,sans-Serif" font-size="10.00">BBM::LobbyComponent</text>
<polyline fill="none" stroke="black" points="0,-148.5 131,-148.5 "/>
<text text-anchor="start" x="8" y="-136.5" font-family="Helvetica,sans-Serif" font-size="10.00">+ layout</text>
<text text-anchor="start" x="8" y="-125.5" font-family="Helvetica,sans-Serif" font-size="10.00">+ playerID</text>
<text text-anchor="start" x="8" y="-114.5" font-family="Helvetica,sans-Serif" font-size="10.00">+ color</text>
<text text-anchor="start" x="8" y="-103.5" font-family="Helvetica,sans-Serif" font-size="10.00">+ ready</text>
<text text-anchor="start" x="8" y="-92.5" font-family="Helvetica,sans-Serif" font-size="10.00">+ readyButton</text>
<text text-anchor="start" x="8" y="-81.5" font-family="Helvetica,sans-Serif" font-size="10.00">+ coloredTile</text>
<text text-anchor="start" x="8" y="-70.5" font-family="Helvetica,sans-Serif" font-size="10.00">+ lastInput</text>
<polyline fill="none" stroke="black" points="0,-63.5 131,-63.5 "/>
<text text-anchor="start" x="8" y="-51.5" font-family="Helvetica,sans-Serif" font-size="10.00">+ clone()</text>
<text text-anchor="start" x="8" y="-40.5" font-family="Helvetica,sans-Serif" font-size="10.00">+ LobbyComponent()</text>
<text text-anchor="start" x="8" y="-29.5" font-family="Helvetica,sans-Serif" font-size="10.00">+ LobbyComponent()</text>
<text text-anchor="start" x="8" y="-18.5" font-family="Helvetica,sans-Serif" font-size="10.00">+ ~LobbyComponent()</text>
<text text-anchor="start" x="8" y="-7.5" font-family="Helvetica,sans-Serif" font-size="10.00">+ operator=()</text>
</a>
</g>
</g>
<!-- Node2 -->
<g id="node2" class="node">
<title>Node2</title>
<g id="a_node2"><a xlink:href="classWAL_1_1Component.html" target="_top" xlink:title="Represent a single component of WAL.">
<polygon fill="white" stroke="black" points="15.5,-204.5 15.5,-327.5 115.5,-327.5 115.5,-204.5 15.5,-204.5"/>
<text text-anchor="middle" x="65.5" y="-315.5" font-family="Helvetica,sans-Serif" font-size="10.00">WAL::Component</text>
<polyline fill="none" stroke="black" points="15.5,-308.5 115.5,-308.5 "/>
<text text-anchor="start" x="23.5" y="-296.5" font-family="Helvetica,sans-Serif" font-size="10.00"># _entity</text>
<polyline fill="none" stroke="black" points="15.5,-289.5 115.5,-289.5 "/>
<text text-anchor="start" x="23.5" y="-277.5" font-family="Helvetica,sans-Serif" font-size="10.00">+ operator=()</text>
<text text-anchor="start" x="23.5" y="-266.5" font-family="Helvetica,sans-Serif" font-size="10.00">+ ~Component()</text>
<text text-anchor="start" x="23.5" y="-255.5" font-family="Helvetica,sans-Serif" font-size="10.00">+ clone()</text>
<text text-anchor="start" x="23.5" y="-244.5" font-family="Helvetica,sans-Serif" font-size="10.00">+ onStart()</text>
<text text-anchor="start" x="23.5" y="-233.5" font-family="Helvetica,sans-Serif" font-size="10.00">+ onStop()</text>
<text text-anchor="start" x="23.5" y="-222.5" font-family="Helvetica,sans-Serif" font-size="10.00"># Component()</text>
<text text-anchor="start" x="23.5" y="-211.5" font-family="Helvetica,sans-Serif" font-size="10.00"># Component()</text>
</a>
</g>
</g>
<!-- Node2&#45;&gt;Node1 -->
<g id="edge1" class="edge">
<title>Node2&#45;&gt;Node1</title>
<path fill="none" stroke="midnightblue" d="M65.5,-194.25C65.5,-185.57 65.5,-176.63 65.5,-167.79"/>
<polygon fill="none" stroke="midnightblue" points="62,-194.31 65.5,-204.31 69,-194.31 62,-194.31"/>
</g>
</g>
</svg>
