<?xml version="1.0" encoding="UTF-8" standalone="no"?>
<!DOCTYPE svg PUBLIC "-//W3C//DTD SVG 1.1//EN"
 "http://www.w3.org/Graphics/SVG/1.1/DTD/svg11.dtd">
<!-- Generated by graphviz version 2.43.0 (0)
 -->
<!-- Title: BBM::PlayerSoundManagerSystem Pages: 1 -->
<svg width="193pt" height="463pt"
 viewBox="0.00 0.00 193.00 463.00" xmlns="http://www.w3.org/2000/svg" xmlns:xlink="http://www.w3.org/1999/xlink">
<g id="graph0" class="graph" transform="scale(1 1) rotate(0) translate(4 459)">
<title>BBM::PlayerSoundManagerSystem</title>
<polygon fill="white" stroke="transparent" points="-4,4 -4,-459 189,-459 189,4 -4,4"/>
<!-- Node1 -->
<g id="node1" class="node">
<title>Node1</title>
<g id="a_node1"><a xlink:title=" ">
<polygon fill="#bfbfbf" stroke="black" points="0,-0.5 0,-101.5 185,-101.5 185,-0.5 0,-0.5"/>
<text text-anchor="middle" x="92.5" y="-89.5" font-family="Helvetica,sans-Serif" font-size="10.00">BBM::PlayerSoundManagerSystem</text>
<polyline fill="none" stroke="black" points="0,-82.5 185,-82.5 "/>
<text text-anchor="middle" x="92.5" y="-70.5" font-family="Helvetica,sans-Serif" font-size="10.00"> </text>
<polyline fill="none" stroke="black" points="0,-63.5 185,-63.5 "/>
<text text-anchor="start" x="8" y="-51.5" font-family="Helvetica,sans-Serif" font-size="10.00">+ onFixedUpdate()</text>
<text text-anchor="start" x="8" y="-40.5" font-family="Helvetica,sans-Serif" font-size="10.00">+ PlayerSoundManagerSystem()</text>
<text text-anchor="start" x="8" y="-29.5" font-family="Helvetica,sans-Serif" font-size="10.00">+ PlayerSoundManagerSystem()</text>
<text text-anchor="start" x="8" y="-18.5" font-family="Helvetica,sans-Serif" font-size="10.00">+ ~PlayerSoundManagerSystem()</text>
<text text-anchor="start" x="8" y="-7.5" font-family="Helvetica,sans-Serif" font-size="10.00">+ operator=()</text>
</a>
</g>
</g>
<!-- Node2 -->
<g id="node2" class="node">
<title>Node2</title>
<g id="a_node2"><a xlink:href="classWAL_1_1System.html" target="_top" xlink:title=" ">
<polygon fill="white" stroke="black" points="2,-138.5 2,-327.5 183,-327.5 183,-138.5 2,-138.5"/>
<text text-anchor="start" x="10" y="-315.5" font-family="Helvetica,sans-Serif" font-size="10.00">WAL::System&lt; SoundComponent,</text>
<text text-anchor="start" x="10" y="-304.5" font-family="Helvetica,sans-Serif" font-size="10.00"> ControllableComponent,</text>
<text text-anchor="middle" x="92.5" y="-293.5" font-family="Helvetica,sans-Serif" font-size="10.00"> HealthComponent &gt;</text>
<polyline fill="none" stroke="black" points="2,-286.5 183,-286.5 "/>
<text text-anchor="start" x="10" y="-274.5" font-family="Helvetica,sans-Serif" font-size="10.00"># _wal</text>
<polyline fill="none" stroke="black" points="2,-267.5 183,-267.5 "/>
<text text-anchor="start" x="10" y="-255.5" font-family="Helvetica,sans-Serif" font-size="10.00">+ ~System()</text>
<text text-anchor="start" x="10" y="-244.5" font-family="Helvetica,sans-Serif" font-size="10.00">+ System()</text>
<text text-anchor="start" x="10" y="-233.5" font-family="Helvetica,sans-Serif" font-size="10.00">+ getView()</text>
<text text-anchor="start" x="10" y="-222.5" font-family="Helvetica,sans-Serif" font-size="10.00">+ onUpdate()</text>
<text text-anchor="start" x="10" y="-211.5" font-family="Helvetica,sans-Serif" font-size="10.00">+ onFixedUpdate()</text>
<text text-anchor="start" x="10" y="-200.5" font-family="Helvetica,sans-Serif" font-size="10.00">+ onSelfUpdate()</text>
<text text-anchor="start" x="10" y="-189.5" font-family="Helvetica,sans-Serif" font-size="10.00">+ update()</text>
<text text-anchor="start" x="10" y="-178.5" font-family="Helvetica,sans-Serif" font-size="10.00">+ fixedUpdate()</text>
<text text-anchor="start" x="10" y="-167.5" font-family="Helvetica,sans-Serif" font-size="10.00"># System()</text>
<text text-anchor="start" x="10" y="-156.5" font-family="Helvetica,sans-Serif" font-size="10.00"># System()</text>
<text text-anchor="start" x="10" y="-145.5" font-family="Helvetica,sans-Serif" font-size="10.00"># operator=()</text>
</a>
</g>
</g>
<!-- Node2&#45;&gt;Node1 -->
<g id="edge1" class="edge">
<title>Node2&#45;&gt;Node1</title>
<path fill="none" stroke="midnightblue" d="M92.5,-128.27C92.5,-119.08 92.5,-110.08 92.5,-101.67"/>
<polygon fill="none" stroke="midnightblue" points="89,-128.31 92.5,-138.31 96,-128.31 89,-128.31"/>
</g>
<!-- Node3 -->
<g id="node3" class="node">
<title>Node3</title>
<g id="a_node3"><a xlink:href="classWAL_1_1ISystem.html" target="_top" xlink:title="A base class that represent a system.">
<polygon fill="white" stroke="black" points="45.5,-364.5 45.5,-454.5 139.5,-454.5 139.5,-364.5 45.5,-364.5"/>
<text text-anchor="middle" x="92.5" y="-442.5" font-family="Helvetica,sans-Serif" font-size="10.00">WAL::ISystem</text>
<polyline fill="none" stroke="black" points="45.5,-435.5 139.5,-435.5 "/>
<text text-anchor="middle" x="92.5" y="-423.5" font-family="Helvetica,sans-Serif" font-size="10.00"> </text>
<polyline fill="none" stroke="black" points="45.5,-416.5 139.5,-416.5 "/>
<text text-anchor="start" x="53.5" y="-404.5" font-family="Helvetica,sans-Serif" font-size="10.00">+ update()</text>
<text text-anchor="start" x="53.5" y="-393.5" font-family="Helvetica,sans-Serif" font-size="10.00">+ fixedUpdate()</text>
<text text-anchor="start" x="53.5" y="-382.5" font-family="Helvetica,sans-Serif" font-size="10.00">+ getView()</text>
<text text-anchor="start" x="53.5" y="-371.5" font-family="Helvetica,sans-Serif" font-size="10.00">+ ~ISystem()</text>
</a>
</g>
</g>
<!-- Node3&#45;&gt;Node2 -->
<g id="edge2" class="edge">
<title>Node3&#45;&gt;Node2</title>
<path fill="none" stroke="midnightblue" d="M92.5,-354.36C92.5,-345.86 92.5,-336.86 92.5,-327.76"/>
<polygon fill="none" stroke="midnightblue" points="89,-354.47 92.5,-364.47 96,-354.47 89,-354.47"/>
</g>
</g>
</svg>
