<?xml version="1.0" encoding="UTF-8" standalone="no"?>
<!DOCTYPE svg PUBLIC "-//W3C//DTD SVG 1.1//EN"
 "http://www.w3.org/Graphics/SVG/1.1/DTD/svg11.dtd">
<!-- Generated by graphviz version 2.43.0 (0)
 -->
<!-- Title: RAY::Texture Pages: 1 -->
<svg width="551pt" height="866pt"
 viewBox="0.00 0.00 550.50 866.00" xmlns="http://www.w3.org/2000/svg" xmlns:xlink="http://www.w3.org/1999/xlink">
<g id="graph0" class="graph" transform="scale(1 1) rotate(0) translate(4 862)">
<title>RAY::Texture</title>
<polygon fill="white" stroke="transparent" points="-4,4 -4,-862 546.5,-862 546.5,4 -4,4"/>
<!-- Node1 -->
<g id="node1" class="node">
<title>Node1</title>
<g id="a_node1"><a xlink:title="Object representation of a texture.">
<polygon fill="#bfbfbf" stroke="black" points="322,-0.5 322,-178.5 439,-178.5 439,-0.5 322,-0.5"/>
<text text-anchor="middle" x="380.5" y="-166.5" font-family="Helvetica,sans-Serif" font-size="10.00">RAY::Texture</text>
<polyline fill="none" stroke="black" points="322,-159.5 439,-159.5 "/>
<text text-anchor="start" x="330" y="-147.5" font-family="Helvetica,sans-Serif" font-size="10.00">&#45; _texture</text>
<text text-anchor="start" x="330" y="-136.5" font-family="Helvetica,sans-Serif" font-size="10.00">&#45; _resourcePath</text>
<text text-anchor="start" x="330" y="-125.5" font-family="Helvetica,sans-Serif" font-size="10.00">&#45; __pad0__</text>
<polyline fill="none" stroke="black" points="322,-118.5 439,-118.5 "/>
<text text-anchor="start" x="330" y="-106.5" font-family="Helvetica,sans-Serif" font-size="10.00">+ Texture()</text>
<text text-anchor="start" x="330" y="-95.5" font-family="Helvetica,sans-Serif" font-size="10.00">+ Texture()</text>
<text text-anchor="start" x="330" y="-84.5" font-family="Helvetica,sans-Serif" font-size="10.00">+ Texture()</text>
<text text-anchor="start" x="330" y="-73.5" font-family="Helvetica,sans-Serif" font-size="10.00">+ Texture()</text>
<text text-anchor="start" x="330" y="-62.5" font-family="Helvetica,sans-Serif" font-size="10.00">+ operator=()</text>
<text text-anchor="start" x="330" y="-51.5" font-family="Helvetica,sans-Serif" font-size="10.00">+ ~Texture()</text>
<text text-anchor="start" x="330" y="-40.5" font-family="Helvetica,sans-Serif" font-size="10.00">+ drawOn()</text>
<text text-anchor="start" x="330" y="-29.5" font-family="Helvetica,sans-Serif" font-size="10.00">+ use()</text>
<text text-anchor="start" x="330" y="-18.5" font-family="Helvetica,sans-Serif" font-size="10.00">+ unload()</text>
<text text-anchor="start" x="330" y="-7.5" font-family="Helvetica,sans-Serif" font-size="10.00">+ getResourcePath()</text>
</a>
</g>
</g>
<!-- Node2 -->
<g id="node2" class="node">
<title>Node2</title>
<g id="a_node2"><a xlink:href="classRAY_1_1Drawables_1_1Drawables2D_1_1Rectangle.html" target="_top" xlink:title="Rectangle in a two&#45;dimensional space.">
<polygon fill="white" stroke="black" points="217,-226.5 217,-404.5 372,-404.5 372,-226.5 217,-226.5"/>
<text text-anchor="start" x="225" y="-392.5" font-family="Helvetica,sans-Serif" font-size="10.00">RAY::Drawables::Drawables2</text>
<text text-anchor="middle" x="294.5" y="-381.5" font-family="Helvetica,sans-Serif" font-size="10.00">D::Rectangle</text>
<polyline fill="none" stroke="black" points="217,-374.5 372,-374.5 "/>
<text text-anchor="start" x="225" y="-362.5" font-family="Helvetica,sans-Serif" font-size="10.00"># __pad0__</text>
<polyline fill="none" stroke="black" points="217,-355.5 372,-355.5 "/>
<text text-anchor="start" x="225" y="-343.5" font-family="Helvetica,sans-Serif" font-size="10.00">+ Rectangle()</text>
<text text-anchor="start" x="225" y="-332.5" font-family="Helvetica,sans-Serif" font-size="10.00">+ Rectangle()</text>
<text text-anchor="start" x="225" y="-321.5" font-family="Helvetica,sans-Serif" font-size="10.00">+ Rectangle()</text>
<text text-anchor="start" x="225" y="-310.5" font-family="Helvetica,sans-Serif" font-size="10.00">+ operator=()</text>
<text text-anchor="start" x="225" y="-299.5" font-family="Helvetica,sans-Serif" font-size="10.00">+ ~Rectangle()</text>
<text text-anchor="start" x="225" y="-288.5" font-family="Helvetica,sans-Serif" font-size="10.00">+ getDimensions()</text>
<text text-anchor="start" x="225" y="-277.5" font-family="Helvetica,sans-Serif" font-size="10.00">+ getWidth()</text>
<text text-anchor="start" x="225" y="-266.5" font-family="Helvetica,sans-Serif" font-size="10.00">+ getHeight()</text>
<text text-anchor="start" x="225" y="-255.5" font-family="Helvetica,sans-Serif" font-size="10.00">+ setDimensions()</text>
<text text-anchor="start" x="225" y="-244.5" font-family="Helvetica,sans-Serif" font-size="10.00">+ incrementWidth()</text>
<text text-anchor="start" x="225" y="-233.5" font-family="Helvetica,sans-Serif" font-size="10.00">and 6 more...</text>
</a>
</g>
</g>
<!-- Node2&#45;&gt;Node1 -->
<g id="edge1" class="edge">
<title>Node2&#45;&gt;Node1</title>
<path fill="none" stroke="midnightblue" d="M332.06,-216.67C336.92,-204.02 341.87,-191.11 346.66,-178.63"/>
<polygon fill="none" stroke="midnightblue" points="328.68,-215.7 328.37,-226.29 335.22,-218.21 328.68,-215.7"/>
</g>
<!-- Node3 -->
<g id="node3" class="node">
<title>Node3</title>
<g id="a_node3"><a xlink:href="classRAY_1_1Drawables_1_1ADrawable2D.html" target="_top" xlink:title="Abstraction of any two&#45;dimensionnal drawable.">
<polygon fill="white" stroke="black" points="145.5,-442.5 145.5,-642.5 309.5,-642.5 309.5,-442.5 145.5,-442.5"/>
<text text-anchor="middle" x="227.5" y="-630.5" font-family="Helvetica,sans-Serif" font-size="10.00">RAY::Drawables::ADrawable2D</text>
<polyline fill="none" stroke="black" points="145.5,-623.5 309.5,-623.5 "/>
<text text-anchor="start" x="153.5" y="-611.5" font-family="Helvetica,sans-Serif" font-size="10.00"># _rotation</text>
<text text-anchor="start" x="153.5" y="-600.5" font-family="Helvetica,sans-Serif" font-size="10.00"># _scale</text>
<polyline fill="none" stroke="black" points="145.5,-593.5 309.5,-593.5 "/>
<text text-anchor="start" x="153.5" y="-581.5" font-family="Helvetica,sans-Serif" font-size="10.00">+ ADrawable2D()</text>
<text text-anchor="start" x="153.5" y="-570.5" font-family="Helvetica,sans-Serif" font-size="10.00">+ ADrawable2D()</text>
<text text-anchor="start" x="153.5" y="-559.5" font-family="Helvetica,sans-Serif" font-size="10.00">+ ADrawable2D()</text>
<text text-anchor="start" x="153.5" y="-548.5" font-family="Helvetica,sans-Serif" font-size="10.00">+ ~ADrawable2D()</text>
<text text-anchor="start" x="153.5" y="-537.5" font-family="Helvetica,sans-Serif" font-size="10.00">+ getPosition()</text>
<text text-anchor="start" x="153.5" y="-526.5" font-family="Helvetica,sans-Serif" font-size="10.00">+ getColor()</text>
<text text-anchor="start" x="153.5" y="-515.5" font-family="Helvetica,sans-Serif" font-size="10.00">+ setPosition()</text>
<text text-anchor="start" x="153.5" y="-504.5" font-family="Helvetica,sans-Serif" font-size="10.00">+ setPosition()</text>
<text text-anchor="start" x="153.5" y="-493.5" font-family="Helvetica,sans-Serif" font-size="10.00">+ setColor()</text>
<text text-anchor="start" x="153.5" y="-482.5" font-family="Helvetica,sans-Serif" font-size="10.00">+ drawOn()</text>
<text text-anchor="start" x="153.5" y="-471.5" font-family="Helvetica,sans-Serif" font-size="10.00">+ drawOn()</text>
<text text-anchor="start" x="153.5" y="-460.5" font-family="Helvetica,sans-Serif" font-size="10.00">+ getScale()</text>
<text text-anchor="start" x="153.5" y="-449.5" font-family="Helvetica,sans-Serif" font-size="10.00">+ setScale()</text>
</a>
</g>
</g>
<!-- Node3&#45;&gt;Node2 -->
<g id="edge2" class="edge">
<title>Node3&#45;&gt;Node2</title>
<path fill="none" stroke="midnightblue" d="M259.9,-432.69C262.71,-423.27 265.52,-413.82 268.27,-404.6"/>
<polygon fill="none" stroke="midnightblue" points="256.48,-431.9 256.98,-442.48 263.19,-433.9 256.48,-431.9"/>
</g>
<!-- Node4 -->
<g id="node4" class="node">
<title>Node4</title>
<g id="a_node4"><a xlink:href="classRAY_1_1Drawables_1_1IDrawable.html" target="_top" xlink:title="Interface for any drawable.">
<polygon fill="white" stroke="black" points="0,-740 0,-808 147,-808 147,-740 0,-740"/>
<text text-anchor="middle" x="73.5" y="-796" font-family="Helvetica,sans-Serif" font-size="10.00">RAY::Drawables::IDrawable</text>
<polyline fill="none" stroke="black" points="0,-789 147,-789 "/>
<text text-anchor="middle" x="73.5" y="-777" font-family="Helvetica,sans-Serif" font-size="10.00"> </text>
<polyline fill="none" stroke="black" points="0,-770 147,-770 "/>
<text text-anchor="start" x="8" y="-758" font-family="Helvetica,sans-Serif" font-size="10.00">+ ~IDrawable()</text>
<text text-anchor="start" x="8" y="-747" font-family="Helvetica,sans-Serif" font-size="10.00">+ drawOn()</text>
</a>
</g>
</g>
<!-- Node4&#45;&gt;Node3 -->
<g id="edge3" class="edge">
<title>Node4&#45;&gt;Node3</title>
<path fill="none" stroke="midnightblue" d="M101.56,-731.19C118.21,-706.37 140.08,-673.79 160.91,-642.74"/>
<polygon fill="none" stroke="midnightblue" points="98.56,-729.37 95.89,-739.63 104.37,-733.28 98.56,-729.37"/>
</g>
<!-- Node5 -->
<g id="node5" class="node">
<title>Node5</title>
<g id="a_node5"><a xlink:href="classRAY_1_1Vector2.html" target="_top" xlink:title="A Two&#45;dimensionnal Vector data type.">
<polygon fill="white" stroke="black" points="323,-707 323,-841 408,-841 408,-707 323,-707"/>
<text text-anchor="middle" x="365.5" y="-829" font-family="Helvetica,sans-Serif" font-size="10.00">RAY::Vector2</text>
<polyline fill="none" stroke="black" points="323,-822 408,-822 "/>
<text text-anchor="start" x="331" y="-810" font-family="Helvetica,sans-Serif" font-size="10.00">+ x</text>
<text text-anchor="start" x="331" y="-799" font-family="Helvetica,sans-Serif" font-size="10.00">+ y</text>
<text text-anchor="start" x="331" y="-788" font-family="Helvetica,sans-Serif" font-size="10.00">+ __pad0__</text>
<polyline fill="none" stroke="black" points="323,-781 408,-781 "/>
<text text-anchor="start" x="331" y="-769" font-family="Helvetica,sans-Serif" font-size="10.00">+ Vector2()</text>
<text text-anchor="start" x="331" y="-758" font-family="Helvetica,sans-Serif" font-size="10.00">+ Vector2()</text>
<text text-anchor="start" x="331" y="-747" font-family="Helvetica,sans-Serif" font-size="10.00">+ Vector2()</text>
<text text-anchor="start" x="331" y="-736" font-family="Helvetica,sans-Serif" font-size="10.00">+ Vector2()</text>
<text text-anchor="start" x="331" y="-725" font-family="Helvetica,sans-Serif" font-size="10.00">+ ~Vector2()</text>
<text text-anchor="start" x="331" y="-714" font-family="Helvetica,sans-Serif" font-size="10.00">+ operator=()</text>
</a>
</g>
</g>
<!-- Node5&#45;&gt;Node2 -->
<g id="edge7" class="edge">
<title>Node5&#45;&gt;Node2</title>
<path fill="none" stroke="#404040" d="M357.06,-706.92C348.3,-640 333.75,-533.61 318.5,-442 317.11,-433.65 315.6,-425 314.04,-416.33"/>
<polygon fill="none" stroke="#404040" points="314.04,-416.32 309.03,-411.13 311.88,-404.51 316.9,-409.7 314.04,-416.32"/>
<text text-anchor="middle" x="385" y="-540" font-family="Helvetica,sans-Serif" font-size="10.00"> #_dimensions</text>
</g>
<!-- Node5&#45;&gt;Node3 -->
<g id="edge4" class="edge">
<title>Node5&#45;&gt;Node3</title>
<path fill="none" stroke="#404040" d="M326.7,-706.88C322.48,-701 318.05,-695.28 313.5,-690 305.48,-680.69 300.09,-681.67 292.5,-672 287.84,-666.06 283.38,-659.74 279.13,-653.2"/>
<polygon fill="none" stroke="#404040" points="278.98,-652.96 272.41,-649.99 272.63,-642.78 279.2,-645.75 278.98,-652.96"/>
<text text-anchor="middle" x="320.5" y="-664" font-family="Helvetica,sans-Serif" font-size="10.00"> #_position</text>
</g>
<!-- Node6 -->
<g id="node6" class="node">
<title>Node6</title>
<g id="a_node6"><a xlink:href="classRAY_1_1Color.html" target="_top" xlink:title="Object representation of color.">
<polygon fill="white" stroke="black" points="165,-690.5 165,-857.5 250,-857.5 250,-690.5 165,-690.5"/>
<text text-anchor="middle" x="207.5" y="-845.5" font-family="Helvetica,sans-Serif" font-size="10.00">RAY::Color</text>
<polyline fill="none" stroke="black" points="165,-838.5 250,-838.5 "/>
<text text-anchor="start" x="173" y="-826.5" font-family="Helvetica,sans-Serif" font-size="10.00">&#45; __pad0__</text>
<polyline fill="none" stroke="black" points="165,-819.5 250,-819.5 "/>
<text text-anchor="start" x="173" y="-807.5" font-family="Helvetica,sans-Serif" font-size="10.00">+ Color()</text>
<text text-anchor="start" x="173" y="-796.5" font-family="Helvetica,sans-Serif" font-size="10.00">+ Color()</text>
<text text-anchor="start" x="173" y="-785.5" font-family="Helvetica,sans-Serif" font-size="10.00">+ Color()</text>
<text text-anchor="start" x="173" y="-774.5" font-family="Helvetica,sans-Serif" font-size="10.00">+ Color()</text>
<text text-anchor="start" x="173" y="-763.5" font-family="Helvetica,sans-Serif" font-size="10.00">+ Color()</text>
<text text-anchor="start" x="173" y="-752.5" font-family="Helvetica,sans-Serif" font-size="10.00">+ ~Color()</text>
<text text-anchor="start" x="173" y="-741.5" font-family="Helvetica,sans-Serif" font-size="10.00">+ operator=()</text>
<text text-anchor="start" x="173" y="-730.5" font-family="Helvetica,sans-Serif" font-size="10.00">+ setR()</text>
<text text-anchor="start" x="173" y="-719.5" font-family="Helvetica,sans-Serif" font-size="10.00">+ setG()</text>
<text text-anchor="start" x="173" y="-708.5" font-family="Helvetica,sans-Serif" font-size="10.00">+ setB()</text>
<text text-anchor="start" x="173" y="-697.5" font-family="Helvetica,sans-Serif" font-size="10.00">and 6 more...</text>
</a>
</g>
</g>
<!-- Node6&#45;&gt;Node3 -->
<g id="edge5" class="edge">
<title>Node6&#45;&gt;Node3</title>
<path fill="none" stroke="#404040" d="M214.69,-690.47C215.71,-678.81 216.77,-666.66 217.82,-654.57"/>
<polygon fill="none" stroke="#404040" points="217.83,-654.47 214.37,-648.15 218.87,-642.52 222.33,-648.84 217.83,-654.47"/>
<text text-anchor="middle" x="238" y="-664" font-family="Helvetica,sans-Serif" font-size="10.00"> #_color</text>
</g>
<!-- Node6&#45;&gt;Node6 -->
<g id="edge6" class="edge">
<title>Node6&#45;&gt;Node6</title>
<path fill="none" stroke="#404040" d="M250.18,-793.52C260.42,-792 268,-785.49 268,-774 268,-767.36 265.47,-762.38 261.35,-759.07"/>
<polygon fill="none" stroke="#404040" points="261.28,-759.04 254.21,-760.46 250.18,-754.48 257.25,-753.06 261.28,-759.04"/>
<text text-anchor="middle" x="286.5" y="-771.5" font-family="Helvetica,sans-Serif" font-size="10.00"> &#45;_color</text>
</g>
<!-- Node7 -->
<g id="node7" class="node">
<title>Node7</title>
<g id="a_node7"><a xlink:href="classRAY_1_1Cache.html" target="_top" xlink:title=" ">
<polygon fill="white" stroke="black" points="390.5,-254 390.5,-377 542.5,-377 542.5,-254 390.5,-254"/>
<text text-anchor="middle" x="466.5" y="-365" font-family="Helvetica,sans-Serif" font-size="10.00">RAY::Cache&lt; RAY::Texture &gt;</text>
<polyline fill="none" stroke="black" points="390.5,-358 542.5,-358 "/>
<text text-anchor="start" x="398.5" y="-346" font-family="Helvetica,sans-Serif" font-size="10.00">&#45; _dataLoader</text>
<text text-anchor="start" x="398.5" y="-335" font-family="Helvetica,sans-Serif" font-size="10.00">&#45; _dataUnloader</text>
<text text-anchor="start" x="398.5" y="-324" font-family="Helvetica,sans-Serif" font-size="10.00">&#45; _cache</text>
<polyline fill="none" stroke="black" points="390.5,-317 542.5,-317 "/>
<text text-anchor="start" x="398.5" y="-305" font-family="Helvetica,sans-Serif" font-size="10.00">+ Cache()</text>
<text text-anchor="start" x="398.5" y="-294" font-family="Helvetica,sans-Serif" font-size="10.00">+ Cache()</text>
<text text-anchor="start" x="398.5" y="-283" font-family="Helvetica,sans-Serif" font-size="10.00">+ ~Cache()</text>
<text text-anchor="start" x="398.5" y="-272" font-family="Helvetica,sans-Serif" font-size="10.00">+ operator=()</text>
<text text-anchor="start" x="398.5" y="-261" font-family="Helvetica,sans-Serif" font-size="10.00">+ fetch()</text>
</a>
</g>
</g>
<!-- Node7&#45;&gt;Node1 -->
<g id="edge8" class="edge">
<title>Node7&#45;&gt;Node1</title>
<path fill="none" stroke="#404040" d="M443.23,-253.88C435.64,-234.13 427.02,-211.66 418.64,-189.84"/>
<polygon fill="none" stroke="#404040" points="418.59,-189.71 412.7,-185.54 414.29,-178.5 420.17,-182.67 418.59,-189.71"/>
<text text-anchor="middle" x="465" y="-200" font-family="Helvetica,sans-Serif" font-size="10.00"> &#45;_texturesCache</text>
</g>
</g>
</svg>
