<?xml version="1.0" encoding="UTF-8" standalone="no"?>
<!DOCTYPE svg PUBLIC "-//W3C//DTD SVG 1.1//EN"
 "http://www.w3.org/Graphics/SVG/1.1/DTD/svg11.dtd">
<!-- Generated by graphviz version 2.43.0 (0)
 -->
<!-- Title: BBM::LevitateSystem Pages: 1 -->
<svg width="199pt" height="452pt"
 viewBox="0.00 0.00 199.00 452.00" xmlns="http://www.w3.org/2000/svg" xmlns:xlink="http://www.w3.org/1999/xlink">
<g id="graph0" class="graph" transform="scale(1 1) rotate(0) translate(4 448)">
<title>BBM::LevitateSystem</title>
<polygon fill="white" stroke="transparent" points="-4,4 -4,-448 195,-448 195,4 -4,4"/>
<!-- Node1 -->
<g id="node1" class="node">
<title>Node1</title>
<g id="a_node1"><a xlink:title=" ">
<polygon fill="#bfbfbf" stroke="black" points="34.5,-0.5 34.5,-101.5 156.5,-101.5 156.5,-0.5 34.5,-0.5"/>
<text text-anchor="middle" x="95.5" y="-89.5" font-family="Helvetica,sans-Serif" font-size="10.00">BBM::LevitateSystem</text>
<polyline fill="none" stroke="black" points="34.5,-82.5 156.5,-82.5 "/>
<text text-anchor="middle" x="95.5" y="-70.5" font-family="Helvetica,sans-Serif" font-size="10.00"> </text>
<polyline fill="none" stroke="black" points="34.5,-63.5 156.5,-63.5 "/>
<text text-anchor="start" x="42.5" y="-51.5" font-family="Helvetica,sans-Serif" font-size="10.00">+ onFixedUpdate()</text>
<text text-anchor="start" x="42.5" y="-40.5" font-family="Helvetica,sans-Serif" font-size="10.00">+ LevitateSystem()</text>
<text text-anchor="start" x="42.5" y="-29.5" font-family="Helvetica,sans-Serif" font-size="10.00">+ LevitateSystem()</text>
<text text-anchor="start" x="42.5" y="-18.5" font-family="Helvetica,sans-Serif" font-size="10.00">+ ~LevitateSystem()</text>
<text text-anchor="start" x="42.5" y="-7.5" font-family="Helvetica,sans-Serif" font-size="10.00">+ operator=()</text>
</a>
</g>
</g>
<!-- Node2 -->
<g id="node2" class="node">
<title>Node2</title>
<g id="a_node2"><a xlink:href="classWAL_1_1System.html" target="_top" xlink:title=" ">
<polygon fill="white" stroke="black" points="0,-138.5 0,-316.5 191,-316.5 191,-138.5 0,-138.5"/>
<text text-anchor="start" x="8" y="-304.5" font-family="Helvetica,sans-Serif" font-size="10.00">WAL::System&lt; LevitateComponent,</text>
<text text-anchor="middle" x="95.5" y="-293.5" font-family="Helvetica,sans-Serif" font-size="10.00"> PositionComponent &gt;</text>
<polyline fill="none" stroke="black" points="0,-286.5 191,-286.5 "/>
<text text-anchor="start" x="8" y="-274.5" font-family="Helvetica,sans-Serif" font-size="10.00"># _wal</text>
<polyline fill="none" stroke="black" points="0,-267.5 191,-267.5 "/>
<text text-anchor="start" x="8" y="-255.5" font-family="Helvetica,sans-Serif" font-size="10.00">+ ~System()</text>
<text text-anchor="start" x="8" y="-244.5" font-family="Helvetica,sans-Serif" font-size="10.00">+ System()</text>
<text text-anchor="start" x="8" y="-233.5" font-family="Helvetica,sans-Serif" font-size="10.00">+ getView()</text>
<text text-anchor="start" x="8" y="-222.5" font-family="Helvetica,sans-Serif" font-size="10.00">+ onUpdate()</text>
<text text-anchor="start" x="8" y="-211.5" font-family="Helvetica,sans-Serif" font-size="10.00">+ onFixedUpdate()</text>
<text text-anchor="start" x="8" y="-200.5" font-family="Helvetica,sans-Serif" font-size="10.00">+ onSelfUpdate()</text>
<text text-anchor="start" x="8" y="-189.5" font-family="Helvetica,sans-Serif" font-size="10.00">+ update()</text>
<text text-anchor="start" x="8" y="-178.5" font-family="Helvetica,sans-Serif" font-size="10.00">+ fixedUpdate()</text>
<text text-anchor="start" x="8" y="-167.5" font-family="Helvetica,sans-Serif" font-size="10.00"># System()</text>
<text text-anchor="start" x="8" y="-156.5" font-family="Helvetica,sans-Serif" font-size="10.00"># System()</text>
<text text-anchor="start" x="8" y="-145.5" font-family="Helvetica,sans-Serif" font-size="10.00"># operator=()</text>
</a>
</g>
</g>
<!-- Node2&#45;&gt;Node1 -->
<g id="edge1" class="edge">
<title>Node2&#45;&gt;Node1</title>
<path fill="none" stroke="midnightblue" d="M95.5,-128.38C95.5,-119.12 95.5,-110.02 95.5,-101.51"/>
<polygon fill="none" stroke="midnightblue" points="92,-128.48 95.5,-138.48 99,-128.48 92,-128.48"/>
</g>
<!-- Node3 -->
<g id="node3" class="node">
<title>Node3</title>
<g id="a_node3"><a xlink:href="classWAL_1_1ISystem.html" target="_top" xlink:title="A base class that represent a system.">
<polygon fill="white" stroke="black" points="48.5,-353.5 48.5,-443.5 142.5,-443.5 142.5,-353.5 48.5,-353.5"/>
<text text-anchor="middle" x="95.5" y="-431.5" font-family="Helvetica,sans-Serif" font-size="10.00">WAL::ISystem</text>
<polyline fill="none" stroke="black" points="48.5,-424.5 142.5,-424.5 "/>
<text text-anchor="middle" x="95.5" y="-412.5" font-family="Helvetica,sans-Serif" font-size="10.00"> </text>
<polyline fill="none" stroke="black" points="48.5,-405.5 142.5,-405.5 "/>
<text text-anchor="start" x="56.5" y="-393.5" font-family="Helvetica,sans-Serif" font-size="10.00">+ update()</text>
<text text-anchor="start" x="56.5" y="-382.5" font-family="Helvetica,sans-Serif" font-size="10.00">+ fixedUpdate()</text>
<text text-anchor="start" x="56.5" y="-371.5" font-family="Helvetica,sans-Serif" font-size="10.00">+ getView()</text>
<text text-anchor="start" x="56.5" y="-360.5" font-family="Helvetica,sans-Serif" font-size="10.00">+ ~ISystem()</text>
</a>
</g>
</g>
<!-- Node3&#45;&gt;Node2 -->
<g id="edge2" class="edge">
<title>Node3&#45;&gt;Node2</title>
<path fill="none" stroke="midnightblue" d="M95.5,-343.06C95.5,-334.63 95.5,-325.73 95.5,-316.78"/>
<polygon fill="none" stroke="midnightblue" points="92,-343.1 95.5,-353.1 99,-343.1 92,-343.1"/>
</g>
</g>
</svg>
