<?xml version="1.0" encoding="UTF-8" standalone="no"?>
<!DOCTYPE svg PUBLIC "-//W3C//DTD SVG 1.1//EN"
 "http://www.w3.org/Graphics/SVG/1.1/DTD/svg11.dtd">
<!-- Generated by graphviz version 2.43.0 (0)
 -->
<!-- Title: RAY::Drawables::Drawables3D::Point Pages: 1 -->
<svg width="416pt" height="552pt"
 viewBox="0.00 0.00 416.00 552.00" xmlns="http://www.w3.org/2000/svg" xmlns:xlink="http://www.w3.org/1999/xlink">
<g id="graph0" class="graph" transform="scale(1 1) rotate(0) translate(4 548)">
<title>RAY::Drawables::Drawables3D::Point</title>
<polygon fill="white" stroke="transparent" points="-4,4 -4,-548 412,-548 412,4 -4,4"/>
<!-- Node1 -->
<g id="node1" class="node">
<title>Node1</title>
<g id="a_node1"><a xlink:title="Point in a three&#45;dimensionnal space.">
<polygon fill="#bfbfbf" stroke="black" points="130,-0.5 130,-112.5 285,-112.5 285,-0.5 130,-0.5"/>
<text text-anchor="start" x="138" y="-100.5" font-family="Helvetica,sans-Serif" font-size="10.00">RAY::Drawables::Drawables3</text>
<text text-anchor="middle" x="207.5" y="-89.5" font-family="Helvetica,sans-Serif" font-size="10.00">D::Point</text>
<polyline fill="none" stroke="black" points="130,-82.5 285,-82.5 "/>
<text text-anchor="middle" x="207.5" y="-70.5" font-family="Helvetica,sans-Serif" font-size="10.00"> </text>
<polyline fill="none" stroke="black" points="130,-63.5 285,-63.5 "/>
<text text-anchor="start" x="138" y="-51.5" font-family="Helvetica,sans-Serif" font-size="10.00">+ Point()</text>
<text text-anchor="start" x="138" y="-40.5" font-family="Helvetica,sans-Serif" font-size="10.00">+ Point()</text>
<text text-anchor="start" x="138" y="-29.5" font-family="Helvetica,sans-Serif" font-size="10.00">+ operator=()</text>
<text text-anchor="start" x="138" y="-18.5" font-family="Helvetica,sans-Serif" font-size="10.00">+ ~Point()</text>
<text text-anchor="start" x="138" y="-7.5" font-family="Helvetica,sans-Serif" font-size="10.00">+ drawOn()</text>
</a>
</g>
</g>
<!-- Node2 -->
<g id="node2" class="node">
<title>Node2</title>
<g id="a_node2"><a xlink:href="classRAY_1_1Drawables_1_1ADrawable3D.html" target="_top" xlink:title="Abstraction of any three&#45;dimensionnal drawable.">
<polygon fill="white" stroke="black" points="125.5,-150.5 125.5,-317.5 289.5,-317.5 289.5,-150.5 125.5,-150.5"/>
<text text-anchor="middle" x="207.5" y="-305.5" font-family="Helvetica,sans-Serif" font-size="10.00">RAY::Drawables::ADrawable3D</text>
<polyline fill="none" stroke="black" points="125.5,-298.5 289.5,-298.5 "/>
<text text-anchor="middle" x="207.5" y="-286.5" font-family="Helvetica,sans-Serif" font-size="10.00"> </text>
<polyline fill="none" stroke="black" points="125.5,-279.5 289.5,-279.5 "/>
<text text-anchor="start" x="133.5" y="-267.5" font-family="Helvetica,sans-Serif" font-size="10.00">+ ADrawable3D()</text>
<text text-anchor="start" x="133.5" y="-256.5" font-family="Helvetica,sans-Serif" font-size="10.00">+ ADrawable3D()</text>
<text text-anchor="start" x="133.5" y="-245.5" font-family="Helvetica,sans-Serif" font-size="10.00">+ ~ADrawable3D()</text>
<text text-anchor="start" x="133.5" y="-234.5" font-family="Helvetica,sans-Serif" font-size="10.00">+ drawOn()</text>
<text text-anchor="start" x="133.5" y="-223.5" font-family="Helvetica,sans-Serif" font-size="10.00">+ drawWiresOn()</text>
<text text-anchor="start" x="133.5" y="-212.5" font-family="Helvetica,sans-Serif" font-size="10.00">+ getColor()</text>
<text text-anchor="start" x="133.5" y="-201.5" font-family="Helvetica,sans-Serif" font-size="10.00">+ setColor()</text>
<text text-anchor="start" x="133.5" y="-190.5" font-family="Helvetica,sans-Serif" font-size="10.00">+ getDebugColor()</text>
<text text-anchor="start" x="133.5" y="-179.5" font-family="Helvetica,sans-Serif" font-size="10.00">+ setDebugColor()</text>
<text text-anchor="start" x="133.5" y="-168.5" font-family="Helvetica,sans-Serif" font-size="10.00">+ getPosition()</text>
<text text-anchor="start" x="133.5" y="-157.5" font-family="Helvetica,sans-Serif" font-size="10.00">+ setPosition()</text>
</a>
</g>
</g>
<!-- Node2&#45;&gt;Node1 -->
<g id="edge1" class="edge">
<title>Node2&#45;&gt;Node1</title>
<path fill="none" stroke="midnightblue" d="M207.5,-140.18C207.5,-130.77 207.5,-121.45 207.5,-112.64"/>
<polygon fill="none" stroke="midnightblue" points="204,-140.39 207.5,-150.39 211,-140.39 204,-140.39"/>
</g>
<!-- Node3 -->
<g id="node3" class="node">
<title>Node3</title>
<g id="a_node3"><a xlink:href="classRAY_1_1Drawables_1_1IDrawable.html" target="_top" xlink:title="Interface for any drawable.">
<polygon fill="white" stroke="black" points="0,-426 0,-494 147,-494 147,-426 0,-426"/>
<text text-anchor="middle" x="73.5" y="-482" font-family="Helvetica,sans-Serif" font-size="10.00">RAY::Drawables::IDrawable</text>
<polyline fill="none" stroke="black" points="0,-475 147,-475 "/>
<text text-anchor="middle" x="73.5" y="-463" font-family="Helvetica,sans-Serif" font-size="10.00"> </text>
<polyline fill="none" stroke="black" points="0,-456 147,-456 "/>
<text text-anchor="start" x="8" y="-444" font-family="Helvetica,sans-Serif" font-size="10.00">+ ~IDrawable()</text>
<text text-anchor="start" x="8" y="-433" font-family="Helvetica,sans-Serif" font-size="10.00">+ drawOn()</text>
</a>
</g>
</g>
<!-- Node3&#45;&gt;Node2 -->
<g id="edge2" class="edge">
<title>Node3&#45;&gt;Node2</title>
<path fill="none" stroke="midnightblue" d="M98.49,-417.23C115.23,-389.25 137.83,-351.47 158.11,-317.56"/>
<polygon fill="none" stroke="midnightblue" points="95.4,-415.57 93.27,-425.95 101.41,-419.16 95.4,-415.57"/>
</g>
<!-- Node4 -->
<g id="node4" class="node">
<title>Node4</title>
<g id="a_node4"><a xlink:href="classRAY_1_1Color.html" target="_top" xlink:title="Object representation of color.">
<polygon fill="white" stroke="black" points="165,-376.5 165,-543.5 250,-543.5 250,-376.5 165,-376.5"/>
<text text-anchor="middle" x="207.5" y="-531.5" font-family="Helvetica,sans-Serif" font-size="10.00">RAY::Color</text>
<polyline fill="none" stroke="black" points="165,-524.5 250,-524.5 "/>
<text text-anchor="start" x="173" y="-512.5" font-family="Helvetica,sans-Serif" font-size="10.00">&#45; __pad0__</text>
<polyline fill="none" stroke="black" points="165,-505.5 250,-505.5 "/>
<text text-anchor="start" x="173" y="-493.5" font-family="Helvetica,sans-Serif" font-size="10.00">+ Color()</text>
<text text-anchor="start" x="173" y="-482.5" font-family="Helvetica,sans-Serif" font-size="10.00">+ Color()</text>
<text text-anchor="start" x="173" y="-471.5" font-family="Helvetica,sans-Serif" font-size="10.00">+ Color()</text>
<text text-anchor="start" x="173" y="-460.5" font-family="Helvetica,sans-Serif" font-size="10.00">+ Color()</text>
<text text-anchor="start" x="173" y="-449.5" font-family="Helvetica,sans-Serif" font-size="10.00">+ Color()</text>
<text text-anchor="start" x="173" y="-438.5" font-family="Helvetica,sans-Serif" font-size="10.00">+ ~Color()</text>
<text text-anchor="start" x="173" y="-427.5" font-family="Helvetica,sans-Serif" font-size="10.00">+ operator=()</text>
<text text-anchor="start" x="173" y="-416.5" font-family="Helvetica,sans-Serif" font-size="10.00">+ setR()</text>
<text text-anchor="start" x="173" y="-405.5" font-family="Helvetica,sans-Serif" font-size="10.00">+ setG()</text>
<text text-anchor="start" x="173" y="-394.5" font-family="Helvetica,sans-Serif" font-size="10.00">+ setB()</text>
<text text-anchor="start" x="173" y="-383.5" font-family="Helvetica,sans-Serif" font-size="10.00">and 6 more...</text>
</a>
</g>
</g>
<!-- Node4&#45;&gt;Node2 -->
<g id="edge3" class="edge">
<title>Node4&#45;&gt;Node2</title>
<path fill="none" stroke="#404040" d="M207.5,-376.23C207.5,-361.18 207.5,-345.38 207.5,-330.01"/>
<polygon fill="none" stroke="#404040" points="207.5,-329.81 203.5,-323.81 207.5,-317.81 211.5,-323.81 207.5,-329.81"/>
<text text-anchor="middle" x="244" y="-350" font-family="Helvetica,sans-Serif" font-size="10.00"> #_debugColor</text>
<text text-anchor="middle" x="244" y="-339" font-family="Helvetica,sans-Serif" font-size="10.00">#_color</text>
</g>
<!-- Node4&#45;&gt;Node4 -->
<g id="edge4" class="edge">
<title>Node4&#45;&gt;Node4</title>
<path fill="none" stroke="#404040" d="M250.18,-480.63C260.42,-479.02 268,-472.14 268,-460 268,-452.98 265.47,-447.72 261.35,-444.22"/>
<polygon fill="none" stroke="#404040" points="261.19,-444.15 254.09,-445.43 250.18,-439.37 257.28,-438.09 261.19,-444.15"/>
<text text-anchor="middle" x="286.5" y="-457.5" font-family="Helvetica,sans-Serif" font-size="10.00"> &#45;_color</text>
</g>
<!-- Node5 -->
<g id="node5" class="node">
<title>Node5</title>
<g id="a_node5"><a xlink:href="classRAY_1_1Vector3.html" target="_top" xlink:title="A Three&#45;dimensionnal Vector data type.">
<polygon fill="white" stroke="black" points="323,-387.5 323,-532.5 408,-532.5 408,-387.5 323,-387.5"/>
<text text-anchor="middle" x="365.5" y="-520.5" font-family="Helvetica,sans-Serif" font-size="10.00">RAY::Vector3</text>
<polyline fill="none" stroke="black" points="323,-513.5 408,-513.5 "/>
<text text-anchor="start" x="331" y="-501.5" font-family="Helvetica,sans-Serif" font-size="10.00">+ x</text>
<text text-anchor="start" x="331" y="-490.5" font-family="Helvetica,sans-Serif" font-size="10.00">+ y</text>
<text text-anchor="start" x="331" y="-479.5" font-family="Helvetica,sans-Serif" font-size="10.00">+ z</text>
<text text-anchor="start" x="331" y="-468.5" font-family="Helvetica,sans-Serif" font-size="10.00">+ __pad0__</text>
<polyline fill="none" stroke="black" points="323,-461.5 408,-461.5 "/>
<text text-anchor="start" x="331" y="-449.5" font-family="Helvetica,sans-Serif" font-size="10.00">+ Vector3()</text>
<text text-anchor="start" x="331" y="-438.5" font-family="Helvetica,sans-Serif" font-size="10.00">+ Vector3()</text>
<text text-anchor="start" x="331" y="-427.5" font-family="Helvetica,sans-Serif" font-size="10.00">+ Vector3()</text>
<text text-anchor="start" x="331" y="-416.5" font-family="Helvetica,sans-Serif" font-size="10.00">+ Vector3()</text>
<text text-anchor="start" x="331" y="-405.5" font-family="Helvetica,sans-Serif" font-size="10.00">+ ~Vector3()</text>
<text text-anchor="start" x="331" y="-394.5" font-family="Helvetica,sans-Serif" font-size="10.00">+ operator=()</text>
</a>
</g>
</g>
<!-- Node5&#45;&gt;Node2 -->
<g id="edge5" class="edge">
<title>Node5&#45;&gt;Node2</title>
<path fill="none" stroke="#404040" d="M322.82,-388.52C320.05,-384.26 317.26,-380.06 314.5,-376 303.7,-360.11 291.79,-343.58 279.96,-327.65"/>
<polygon fill="none" stroke="#404040" points="279.8,-327.44 273,-325.03 272.61,-317.83 279.41,-320.24 279.8,-327.44"/>
<text text-anchor="middle" x="328.5" y="-344.5" font-family="Helvetica,sans-Serif" font-size="10.00"> #_position</text>
</g>
</g>
</svg>
