<?xml version="1.0" encoding="UTF-8" standalone="no"?>
<!DOCTYPE svg PUBLIC "-//W3C//DTD SVG 1.1//EN"
 "http://www.w3.org/Graphics/SVG/1.1/DTD/svg11.dtd">
<!-- Generated by graphviz version 2.43.0 (0)
 -->
<!-- Title: BBM::MenuControllableSystem Pages: 1 -->
<svg width="469pt" height="738pt"
 viewBox="0.00 0.00 468.50 738.00" xmlns="http://www.w3.org/2000/svg" xmlns:xlink="http://www.w3.org/1999/xlink">
<g id="graph0" class="graph" transform="scale(1 1) rotate(0) translate(4 734)">
<title>BBM::MenuControllableSystem</title>
<polygon fill="white" stroke="transparent" points="-4,4 -4,-734 464.5,-734 464.5,4 -4,4"/>
<!-- Node1 -->
<g id="node1" class="node">
<title>Node1</title>
<g id="a_node1"><a xlink:title="A system to handle Controllable entities in a menu.">
<polygon fill="#bfbfbf" stroke="black" points="158,-0.5 158,-123.5 326,-123.5 326,-0.5 158,-0.5"/>
<text text-anchor="middle" x="242" y="-111.5" font-family="Helvetica,sans-Serif" font-size="10.00">BBM::MenuControllableSystem</text>
<polyline fill="none" stroke="black" points="158,-104.5 326,-104.5 "/>
<text text-anchor="start" x="166" y="-92.5" font-family="Helvetica,sans-Serif" font-size="10.00">+ now</text>
<polyline fill="none" stroke="black" points="158,-85.5 326,-85.5 "/>
<text text-anchor="start" x="166" y="-73.5" font-family="Helvetica,sans-Serif" font-size="10.00">+ onSelfUpdate()</text>
<text text-anchor="start" x="166" y="-62.5" font-family="Helvetica,sans-Serif" font-size="10.00">+ MenuControllableSystem()</text>
<text text-anchor="start" x="166" y="-51.5" font-family="Helvetica,sans-Serif" font-size="10.00">+ MenuControllableSystem()</text>
<text text-anchor="start" x="166" y="-40.5" font-family="Helvetica,sans-Serif" font-size="10.00">+ ~MenuControllableSystem()</text>
<text text-anchor="start" x="166" y="-29.5" font-family="Helvetica,sans-Serif" font-size="10.00">+ operator=()</text>
<text text-anchor="start" x="166" y="-18.5" font-family="Helvetica,sans-Serif" font-size="10.00">&#45; _updateCurrentButton()</text>
<text text-anchor="start" x="166" y="-7.5" font-family="Helvetica,sans-Serif" font-size="10.00">&#45; _mouseOnButton()</text>
</a>
</g>
</g>
<!-- Node2 -->
<g id="node2" class="node">
<title>Node2</title>
<g id="a_node2"><a xlink:href="classWAL_1_1System.html" target="_top" xlink:title=" ">
<polygon fill="white" stroke="black" points="53,-221 53,-388 161,-388 161,-221 53,-221"/>
<text text-anchor="middle" x="107" y="-376" font-family="Helvetica,sans-Serif" font-size="10.00">WAL::System&lt;&gt;</text>
<polyline fill="none" stroke="black" points="53,-369 161,-369 "/>
<text text-anchor="middle" x="107" y="-357" font-family="Helvetica,sans-Serif" font-size="10.00"> </text>
<polyline fill="none" stroke="black" points="53,-350 161,-350 "/>
<text text-anchor="start" x="61" y="-338" font-family="Helvetica,sans-Serif" font-size="10.00">+ ~System()</text>
<text text-anchor="start" x="61" y="-327" font-family="Helvetica,sans-Serif" font-size="10.00">+ System()</text>
<text text-anchor="start" x="61" y="-316" font-family="Helvetica,sans-Serif" font-size="10.00">+ getView()</text>
<text text-anchor="start" x="61" y="-305" font-family="Helvetica,sans-Serif" font-size="10.00">+ onUpdate()</text>
<text text-anchor="start" x="61" y="-294" font-family="Helvetica,sans-Serif" font-size="10.00">+ onFixedUpdate()</text>
<text text-anchor="start" x="61" y="-283" font-family="Helvetica,sans-Serif" font-size="10.00">+ onSelfUpdate()</text>
<text text-anchor="start" x="61" y="-272" font-family="Helvetica,sans-Serif" font-size="10.00">+ update()</text>
<text text-anchor="start" x="61" y="-261" font-family="Helvetica,sans-Serif" font-size="10.00">+ fixedUpdate()</text>
<text text-anchor="start" x="61" y="-250" font-family="Helvetica,sans-Serif" font-size="10.00"># System()</text>
<text text-anchor="start" x="61" y="-239" font-family="Helvetica,sans-Serif" font-size="10.00"># System()</text>
<text text-anchor="start" x="61" y="-228" font-family="Helvetica,sans-Serif" font-size="10.00"># operator=()</text>
</a>
</g>
</g>
<!-- Node2&#45;&gt;Node1 -->
<g id="edge1" class="edge">
<title>Node2&#45;&gt;Node1</title>
<path fill="none" stroke="midnightblue" d="M148.45,-211.85C155.33,-197.99 162.63,-184 170,-171 178.89,-155.32 189.26,-138.89 199.31,-123.72"/>
<polygon fill="none" stroke="midnightblue" points="145.27,-210.4 144,-220.92 151.55,-213.48 145.27,-210.4"/>
</g>
<!-- Node3 -->
<g id="node3" class="node">
<title>Node3</title>
<g id="a_node3"><a xlink:href="classWAL_1_1ISystem.html" target="_top" xlink:title="A base class that represent a system.">
<polygon fill="white" stroke="black" points="0,-562.5 0,-652.5 94,-652.5 94,-562.5 0,-562.5"/>
<text text-anchor="middle" x="47" y="-640.5" font-family="Helvetica,sans-Serif" font-size="10.00">WAL::ISystem</text>
<polyline fill="none" stroke="black" points="0,-633.5 94,-633.5 "/>
<text text-anchor="middle" x="47" y="-621.5" font-family="Helvetica,sans-Serif" font-size="10.00"> </text>
<polyline fill="none" stroke="black" points="0,-614.5 94,-614.5 "/>
<text text-anchor="start" x="8" y="-602.5" font-family="Helvetica,sans-Serif" font-size="10.00">+ update()</text>
<text text-anchor="start" x="8" y="-591.5" font-family="Helvetica,sans-Serif" font-size="10.00">+ fixedUpdate()</text>
<text text-anchor="start" x="8" y="-580.5" font-family="Helvetica,sans-Serif" font-size="10.00">+ getView()</text>
<text text-anchor="start" x="8" y="-569.5" font-family="Helvetica,sans-Serif" font-size="10.00">+ ~ISystem()</text>
</a>
</g>
</g>
<!-- Node3&#45;&gt;Node2 -->
<g id="edge2" class="edge">
<title>Node3&#45;&gt;Node2</title>
<path fill="none" stroke="midnightblue" d="M57.78,-552.4C66.9,-506.67 80.1,-440.44 90.54,-388.08"/>
<polygon fill="none" stroke="midnightblue" points="54.31,-551.92 55.79,-562.41 61.18,-553.29 54.31,-551.92"/>
</g>
<!-- Node4 -->
<g id="node4" class="node">
<title>Node4</title>
<g id="a_node4"><a xlink:href="classWAL_1_1Wal.html" target="_top" xlink:title="The main WAL class, it is used to setup and run the ECS.">
<polygon fill="white" stroke="black" points="112,-502 112,-713 222,-713 222,-502 112,-502"/>
<text text-anchor="middle" x="167" y="-701" font-family="Helvetica,sans-Serif" font-size="10.00">WAL::Wal</text>
<polyline fill="none" stroke="black" points="112,-694 222,-694 "/>
<text text-anchor="start" x="120" y="-682" font-family="Helvetica,sans-Serif" font-size="10.00">+ shouldClose</text>
<text text-anchor="start" x="120" y="-671" font-family="Helvetica,sans-Serif" font-size="10.00">+ timestep</text>
<text text-anchor="start" x="120" y="-660" font-family="Helvetica,sans-Serif" font-size="10.00">&#45; _systems</text>
<text text-anchor="start" x="120" y="-649" font-family="Helvetica,sans-Serif" font-size="10.00">&#45; _scene</text>
<polyline fill="none" stroke="black" points="112,-642 222,-642 "/>
<text text-anchor="start" x="120" y="-630" font-family="Helvetica,sans-Serif" font-size="10.00">+ getScene()</text>
<text text-anchor="start" x="120" y="-619" font-family="Helvetica,sans-Serif" font-size="10.00">+ changeScene()</text>
<text text-anchor="start" x="120" y="-608" font-family="Helvetica,sans-Serif" font-size="10.00">+ addSystem()</text>
<text text-anchor="start" x="120" y="-597" font-family="Helvetica,sans-Serif" font-size="10.00">+ addSystem()</text>
<text text-anchor="start" x="120" y="-586" font-family="Helvetica,sans-Serif" font-size="10.00">+ getSystem()</text>
<text text-anchor="start" x="120" y="-575" font-family="Helvetica,sans-Serif" font-size="10.00">+ removeSystem()</text>
<text text-anchor="start" x="120" y="-564" font-family="Helvetica,sans-Serif" font-size="10.00">+ run()</text>
<text text-anchor="start" x="120" y="-553" font-family="Helvetica,sans-Serif" font-size="10.00">+ Wal()</text>
<text text-anchor="start" x="120" y="-542" font-family="Helvetica,sans-Serif" font-size="10.00">+ Wal()</text>
<text text-anchor="start" x="120" y="-531" font-family="Helvetica,sans-Serif" font-size="10.00">+ ~Wal()</text>
<text text-anchor="start" x="120" y="-520" font-family="Helvetica,sans-Serif" font-size="10.00">+ operator=()</text>
<text text-anchor="start" x="120" y="-509" font-family="Helvetica,sans-Serif" font-size="10.00">&#45; _run()</text>
</a>
</g>
</g>
<!-- Node4&#45;&gt;Node2 -->
<g id="edge3" class="edge">
<title>Node4&#45;&gt;Node2</title>
<path fill="none" stroke="#404040" d="M146.1,-501.65C139.53,-468.7 132.32,-432.53 125.9,-400.32"/>
<polygon fill="none" stroke="#404040" points="125.83,-399.95 120.73,-394.85 123.48,-388.18 128.58,-393.28 125.83,-399.95"/>
<text text-anchor="middle" x="156" y="-459" font-family="Helvetica,sans-Serif" font-size="10.00"> #_wal</text>
</g>
<!-- Node5 -->
<g id="node5" class="node">
<title>Node5</title>
<g id="a_node5"><a xlink:href="classBBM_1_1Vector2.html" target="_top" xlink:title=" ">
<polygon fill="white" stroke="black" points="179,-215.5 179,-393.5 305,-393.5 305,-215.5 179,-215.5"/>
<text text-anchor="middle" x="242" y="-381.5" font-family="Helvetica,sans-Serif" font-size="10.00">BBM::Vector2&lt; float &gt;</text>
<polyline fill="none" stroke="black" points="179,-374.5 305,-374.5 "/>
<text text-anchor="start" x="187" y="-362.5" font-family="Helvetica,sans-Serif" font-size="10.00">+ x</text>
<text text-anchor="start" x="187" y="-351.5" font-family="Helvetica,sans-Serif" font-size="10.00">+ y</text>
<polyline fill="none" stroke="black" points="179,-344.5 305,-344.5 "/>
<text text-anchor="start" x="187" y="-332.5" font-family="Helvetica,sans-Serif" font-size="10.00">+ Vector2()</text>
<text text-anchor="start" x="187" y="-321.5" font-family="Helvetica,sans-Serif" font-size="10.00">+ Vector2()</text>
<text text-anchor="start" x="187" y="-310.5" font-family="Helvetica,sans-Serif" font-size="10.00">+ ~Vector2()</text>
<text text-anchor="start" x="187" y="-299.5" font-family="Helvetica,sans-Serif" font-size="10.00">+ operator==()</text>
<text text-anchor="start" x="187" y="-288.5" font-family="Helvetica,sans-Serif" font-size="10.00">+ operator!=()</text>
<text text-anchor="start" x="187" y="-277.5" font-family="Helvetica,sans-Serif" font-size="10.00">+ operator+=()</text>
<text text-anchor="start" x="187" y="-266.5" font-family="Helvetica,sans-Serif" font-size="10.00">+ operator+()</text>
<text text-anchor="start" x="187" y="-255.5" font-family="Helvetica,sans-Serif" font-size="10.00">+ operator&#45;=()</text>
<text text-anchor="start" x="187" y="-244.5" font-family="Helvetica,sans-Serif" font-size="10.00">+ operator&#45;()</text>
<text text-anchor="start" x="187" y="-233.5" font-family="Helvetica,sans-Serif" font-size="10.00">+ operator*=()</text>
<text text-anchor="start" x="187" y="-222.5" font-family="Helvetica,sans-Serif" font-size="10.00">and 13 more...</text>
</a>
</g>
</g>
<!-- Node5&#45;&gt;Node1 -->
<g id="edge4" class="edge">
<title>Node5&#45;&gt;Node1</title>
<path fill="none" stroke="#404040" d="M242,-215.31C242,-189.16 242,-160.83 242,-135.77"/>
<polygon fill="none" stroke="#404040" points="242,-135.75 238,-129.75 242,-123.75 246,-129.75 242,-135.75"/>
<text text-anchor="middle" x="291.5" y="-145" font-family="Helvetica,sans-Serif" font-size="10.00"> &#45;_oldMousePosition</text>
</g>
<!-- Node6 -->
<g id="node6" class="node">
<title>Node6</title>
<g id="a_node6"><a xlink:href="classWAL_1_1Entity.html" target="_top" xlink:title="An entity of the WAL&#39;s ECS.">
<polygon fill="white" stroke="black" points="323.5,-171.5 323.5,-437.5 460.5,-437.5 460.5,-171.5 323.5,-171.5"/>
<text text-anchor="middle" x="392" y="-425.5" font-family="Helvetica,sans-Serif" font-size="10.00">WAL::Entity</text>
<polyline fill="none" stroke="black" points="323.5,-418.5 460.5,-418.5 "/>
<text text-anchor="start" x="331.5" y="-406.5" font-family="Helvetica,sans-Serif" font-size="10.00">&#45; _uid</text>
<text text-anchor="start" x="331.5" y="-395.5" font-family="Helvetica,sans-Serif" font-size="10.00">&#45; _name</text>
<text text-anchor="start" x="331.5" y="-384.5" font-family="Helvetica,sans-Serif" font-size="10.00">&#45; _disabled</text>
<text text-anchor="start" x="331.5" y="-373.5" font-family="Helvetica,sans-Serif" font-size="10.00">&#45; _shouldDelete</text>
<text text-anchor="start" x="331.5" y="-362.5" font-family="Helvetica,sans-Serif" font-size="10.00">&#45; _notifyScene</text>
<text text-anchor="start" x="331.5" y="-351.5" font-family="Helvetica,sans-Serif" font-size="10.00">&#45; _components</text>
<text text-anchor="start" x="331.5" y="-340.5" font-family="Helvetica,sans-Serif" font-size="10.00">&#45; Scene</text>
<text text-anchor="start" x="331.5" y="-329.5" font-family="Helvetica,sans-Serif" font-size="10.00">&#45; nextID</text>
<polyline fill="none" stroke="black" points="323.5,-322.5 460.5,-322.5 "/>
<text text-anchor="start" x="331.5" y="-310.5" font-family="Helvetica,sans-Serif" font-size="10.00">+ getUid()</text>
<text text-anchor="start" x="331.5" y="-299.5" font-family="Helvetica,sans-Serif" font-size="10.00">+ getName()</text>
<text text-anchor="start" x="331.5" y="-288.5" font-family="Helvetica,sans-Serif" font-size="10.00">+ setName()</text>
<text text-anchor="start" x="331.5" y="-277.5" font-family="Helvetica,sans-Serif" font-size="10.00">+ isDisable()</text>
<text text-anchor="start" x="331.5" y="-266.5" font-family="Helvetica,sans-Serif" font-size="10.00">+ setDisable()</text>
<text text-anchor="start" x="331.5" y="-255.5" font-family="Helvetica,sans-Serif" font-size="10.00">+ shouldDelete()</text>
<text text-anchor="start" x="331.5" y="-244.5" font-family="Helvetica,sans-Serif" font-size="10.00">+ scheduleDeletion()</text>
<text text-anchor="start" x="331.5" y="-233.5" font-family="Helvetica,sans-Serif" font-size="10.00">+ getComponent()</text>
<text text-anchor="start" x="331.5" y="-222.5" font-family="Helvetica,sans-Serif" font-size="10.00">+ tryGetComponent()</text>
<text text-anchor="start" x="331.5" y="-211.5" font-family="Helvetica,sans-Serif" font-size="10.00">+ getComponent()</text>
<text text-anchor="start" x="331.5" y="-200.5" font-family="Helvetica,sans-Serif" font-size="10.00">and 13 more...</text>
<text text-anchor="start" x="331.5" y="-189.5" font-family="Helvetica,sans-Serif" font-size="10.00">&#45; _componentAdded()</text>
<text text-anchor="start" x="331.5" y="-178.5" font-family="Helvetica,sans-Serif" font-size="10.00">&#45; _componentRemoved()</text>
</a>
</g>
</g>
<!-- Node6&#45;&gt;Node1 -->
<g id="edge5" class="edge">
<title>Node6&#45;&gt;Node1</title>
<path fill="none" stroke="#404040" d="M361.24,-171.13C356.56,-160.89 351.18,-151.04 345,-142 341.91,-137.48 338.48,-133.11 334.8,-128.9"/>
<polygon fill="none" stroke="#404040" points="334.6,-128.69 327.58,-127.05 326.39,-119.94 333.41,-121.58 334.6,-128.69"/>
<text text-anchor="middle" x="389.5" y="-145" font-family="Helvetica,sans-Serif" font-size="10.00"> +currentButton</text>
</g>
<!-- Node7 -->
<g id="node7" class="node">
<title>Node7</title>
<g id="a_node7"><a xlink:href="classWAL_1_1Scene.html" target="_top" xlink:title="Represent a single scene that contains entities.">
<polygon fill="white" stroke="black" points="323.5,-485.5 323.5,-729.5 460.5,-729.5 460.5,-485.5 323.5,-485.5"/>
<text text-anchor="middle" x="392" y="-717.5" font-family="Helvetica,sans-Serif" font-size="10.00">WAL::Scene</text>
<polyline fill="none" stroke="black" points="323.5,-710.5 460.5,-710.5 "/>
<text text-anchor="start" x="331.5" y="-698.5" font-family="Helvetica,sans-Serif" font-size="10.00">+ Entity</text>
<text text-anchor="start" x="331.5" y="-687.5" font-family="Helvetica,sans-Serif" font-size="10.00">&#45; _id</text>
<text text-anchor="start" x="331.5" y="-676.5" font-family="Helvetica,sans-Serif" font-size="10.00">&#45; _entities</text>
<text text-anchor="start" x="331.5" y="-665.5" font-family="Helvetica,sans-Serif" font-size="10.00">&#45; _newEntities</text>
<text text-anchor="start" x="331.5" y="-654.5" font-family="Helvetica,sans-Serif" font-size="10.00">&#45; _views</text>
<text text-anchor="start" x="331.5" y="-643.5" font-family="Helvetica,sans-Serif" font-size="10.00">&#45; _nextID</text>
<polyline fill="none" stroke="black" points="323.5,-636.5 460.5,-636.5 "/>
<text text-anchor="start" x="331.5" y="-624.5" font-family="Helvetica,sans-Serif" font-size="10.00">+ getID()</text>
<text text-anchor="start" x="331.5" y="-613.5" font-family="Helvetica,sans-Serif" font-size="10.00">+ getEntities()</text>
<text text-anchor="start" x="331.5" y="-602.5" font-family="Helvetica,sans-Serif" font-size="10.00">+ addEntity()</text>
<text text-anchor="start" x="331.5" y="-591.5" font-family="Helvetica,sans-Serif" font-size="10.00">+ scheduleNewEntity()</text>
<text text-anchor="start" x="331.5" y="-580.5" font-family="Helvetica,sans-Serif" font-size="10.00">+ view()</text>
<text text-anchor="start" x="331.5" y="-569.5" font-family="Helvetica,sans-Serif" font-size="10.00">+ applyChanges()</text>
<text text-anchor="start" x="331.5" y="-558.5" font-family="Helvetica,sans-Serif" font-size="10.00">+ Scene()</text>
<text text-anchor="start" x="331.5" y="-547.5" font-family="Helvetica,sans-Serif" font-size="10.00">+ Scene()</text>
<text text-anchor="start" x="331.5" y="-536.5" font-family="Helvetica,sans-Serif" font-size="10.00">+ ~Scene()</text>
<text text-anchor="start" x="331.5" y="-525.5" font-family="Helvetica,sans-Serif" font-size="10.00">+ operator=()</text>
<text text-anchor="start" x="331.5" y="-514.5" font-family="Helvetica,sans-Serif" font-size="10.00">&#45; _componentAdded()</text>
<text text-anchor="start" x="331.5" y="-503.5" font-family="Helvetica,sans-Serif" font-size="10.00">&#45; _componentRemoved()</text>
<text text-anchor="start" x="331.5" y="-492.5" font-family="Helvetica,sans-Serif" font-size="10.00">&#45; _entityRemoved()</text>
</a>
</g>
</g>
<!-- Node7&#45;&gt;Node6 -->
<g id="edge6" class="edge">
<title>Node7&#45;&gt;Node6</title>
<path fill="none" stroke="#404040" d="M392,-485.37C392,-473.73 392,-461.85 392,-450.02"/>
<polygon fill="none" stroke="#404040" points="392,-449.71 388,-443.71 392,-437.71 396,-443.71 392,-449.71"/>
<text text-anchor="middle" x="415" y="-459" font-family="Helvetica,sans-Serif" font-size="10.00"> +_scene</text>
</g>
</g>
</svg>
