<?xml version="1.0" encoding="UTF-8" standalone="no"?>
<!DOCTYPE svg PUBLIC "-//W3C//DTD SVG 1.1//EN"
 "http://www.w3.org/Graphics/SVG/1.1/DTD/svg11.dtd">
<!-- Generated by graphviz version 2.43.0 (0)
 -->
<!-- Title: BBM::ShaderComponent Pages: 1 -->
<svg width="386pt" height="474pt"
 viewBox="0.00 0.00 386.00 474.00" xmlns="http://www.w3.org/2000/svg" xmlns:xlink="http://www.w3.org/1999/xlink">
<g id="graph0" class="graph" transform="scale(1 1) rotate(0) translate(4 470)">
<title>BBM::ShaderComponent</title>
<polygon fill="white" stroke="transparent" points="-4,4 -4,-470 382,-470 382,4 -4,4"/>
<!-- Node1 -->
<g id="node1" class="node">
<title>Node1</title>
<g id="a_node1"><a xlink:title=" ">
<polygon fill="#bfbfbf" stroke="black" points="128.5,-138.5 128.5,-305.5 264.5,-305.5 264.5,-138.5 128.5,-138.5"/>
<text text-anchor="middle" x="196.5" y="-293.5" font-family="Helvetica,sans-Serif" font-size="10.00">BBM::ShaderComponent</text>
<polyline fill="none" stroke="black" points="128.5,-286.5 264.5,-286.5 "/>
<text text-anchor="start" x="136.5" y="-274.5" font-family="Helvetica,sans-Serif" font-size="10.00">+ shader</text>
<text text-anchor="start" x="136.5" y="-263.5" font-family="Helvetica,sans-Serif" font-size="10.00">+ fragmentFilePath</text>
<text text-anchor="start" x="136.5" y="-252.5" font-family="Helvetica,sans-Serif" font-size="10.00">+ vertexFilePath</text>
<text text-anchor="start" x="136.5" y="-241.5" font-family="Helvetica,sans-Serif" font-size="10.00">+ update</text>
<polyline fill="none" stroke="black" points="128.5,-234.5 264.5,-234.5 "/>
<text text-anchor="start" x="136.5" y="-222.5" font-family="Helvetica,sans-Serif" font-size="10.00">+ getShader()</text>
<text text-anchor="start" x="136.5" y="-211.5" font-family="Helvetica,sans-Serif" font-size="10.00">+ clone()</text>
<text text-anchor="start" x="136.5" y="-200.5" font-family="Helvetica,sans-Serif" font-size="10.00">+ getFragmentFilePath()</text>
<text text-anchor="start" x="136.5" y="-189.5" font-family="Helvetica,sans-Serif" font-size="10.00">+ getVertexFilePath()</text>
<text text-anchor="start" x="136.5" y="-178.5" font-family="Helvetica,sans-Serif" font-size="10.00">+ ShaderComponent()</text>
<text text-anchor="start" x="136.5" y="-167.5" font-family="Helvetica,sans-Serif" font-size="10.00">+ ShaderComponent()</text>
<text text-anchor="start" x="136.5" y="-156.5" font-family="Helvetica,sans-Serif" font-size="10.00">+ ~ShaderComponent()</text>
<text text-anchor="start" x="136.5" y="-145.5" font-family="Helvetica,sans-Serif" font-size="10.00">+ operator=()</text>
</a>
</g>
</g>
<!-- Node3 -->
<g id="node3" class="node">
<title>Node3</title>
<g id="a_node3"><a xlink:href="classBBM_1_1ShaderComponentDrawable2D.html" target="_top" xlink:title=" ">
<polygon fill="white" stroke="black" points="0,-6 0,-96 195,-96 195,-6 0,-6"/>
<text text-anchor="middle" x="97.5" y="-84" font-family="Helvetica,sans-Serif" font-size="10.00">BBM::ShaderComponentDrawable2D</text>
<polyline fill="none" stroke="black" points="0,-77 195,-77 "/>
<text text-anchor="middle" x="97.5" y="-65" font-family="Helvetica,sans-Serif" font-size="10.00"> </text>
<polyline fill="none" stroke="black" points="0,-58 195,-58 "/>
<text text-anchor="start" x="8" y="-46" font-family="Helvetica,sans-Serif" font-size="10.00">+ ShaderComponentDrawable2D()</text>
<text text-anchor="start" x="8" y="-35" font-family="Helvetica,sans-Serif" font-size="10.00">+ ShaderComponentDrawable2D()</text>
<text text-anchor="start" x="8" y="-24" font-family="Helvetica,sans-Serif" font-size="10.00">+ ~ShaderComponentDrawable2D()</text>
<text text-anchor="start" x="8" y="-13" font-family="Helvetica,sans-Serif" font-size="10.00">+ operator=()</text>
</a>
</g>
</g>
<!-- Node1&#45;&gt;Node3 -->
<g id="edge2" class="edge">
<title>Node1&#45;&gt;Node3</title>
<path fill="none" stroke="midnightblue" d="M142.96,-129.6C136.17,-118.01 129.49,-106.6 123.42,-96.24"/>
<polygon fill="none" stroke="midnightblue" points="140.09,-131.62 148.16,-138.48 146.13,-128.08 140.09,-131.62"/>
</g>
<!-- Node4 -->
<g id="node4" class="node">
<title>Node4</title>
<g id="a_node4"><a xlink:href="classBBM_1_1ShaderComponentModel.html" target="_top" xlink:title=" ">
<polygon fill="white" stroke="black" points="213,-0.5 213,-101.5 378,-101.5 378,-0.5 213,-0.5"/>
<text text-anchor="middle" x="295.5" y="-89.5" font-family="Helvetica,sans-Serif" font-size="10.00">BBM::ShaderComponentModel</text>
<polyline fill="none" stroke="black" points="213,-82.5 378,-82.5 "/>
<text text-anchor="start" x="221" y="-70.5" font-family="Helvetica,sans-Serif" font-size="10.00">+ model</text>
<polyline fill="none" stroke="black" points="213,-63.5 378,-63.5 "/>
<text text-anchor="start" x="221" y="-51.5" font-family="Helvetica,sans-Serif" font-size="10.00">+ onStart()</text>
<text text-anchor="start" x="221" y="-40.5" font-family="Helvetica,sans-Serif" font-size="10.00">+ ShaderComponentModel()</text>
<text text-anchor="start" x="221" y="-29.5" font-family="Helvetica,sans-Serif" font-size="10.00">+ ShaderComponentModel()</text>
<text text-anchor="start" x="221" y="-18.5" font-family="Helvetica,sans-Serif" font-size="10.00">+ ~ShaderComponentModel()</text>
<text text-anchor="start" x="221" y="-7.5" font-family="Helvetica,sans-Serif" font-size="10.00">+ operator=()</text>
</a>
</g>
</g>
<!-- Node1&#45;&gt;Node4 -->
<g id="edge3" class="edge">
<title>Node1&#45;&gt;Node4</title>
<path fill="none" stroke="midnightblue" d="M250.01,-129.65C255.64,-120.05 261.19,-110.57 266.38,-101.71"/>
<polygon fill="none" stroke="midnightblue" points="246.87,-128.08 244.84,-138.48 252.91,-131.62 246.87,-128.08"/>
</g>
<!-- Node2 -->
<g id="node2" class="node">
<title>Node2</title>
<g id="a_node2"><a xlink:href="classWAL_1_1Component.html" target="_top" xlink:title="Represent a single component of WAL.">
<polygon fill="white" stroke="black" points="146.5,-342.5 146.5,-465.5 246.5,-465.5 246.5,-342.5 146.5,-342.5"/>
<text text-anchor="middle" x="196.5" y="-453.5" font-family="Helvetica,sans-Serif" font-size="10.00">WAL::Component</text>
<polyline fill="none" stroke="black" points="146.5,-446.5 246.5,-446.5 "/>
<text text-anchor="start" x="154.5" y="-434.5" font-family="Helvetica,sans-Serif" font-size="10.00"># _entity</text>
<polyline fill="none" stroke="black" points="146.5,-427.5 246.5,-427.5 "/>
<text text-anchor="start" x="154.5" y="-415.5" font-family="Helvetica,sans-Serif" font-size="10.00">+ operator=()</text>
<text text-anchor="start" x="154.5" y="-404.5" font-family="Helvetica,sans-Serif" font-size="10.00">+ ~Component()</text>
<text text-anchor="start" x="154.5" y="-393.5" font-family="Helvetica,sans-Serif" font-size="10.00">+ clone()</text>
<text text-anchor="start" x="154.5" y="-382.5" font-family="Helvetica,sans-Serif" font-size="10.00">+ onStart()</text>
<text text-anchor="start" x="154.5" y="-371.5" font-family="Helvetica,sans-Serif" font-size="10.00">+ onStop()</text>
<text text-anchor="start" x="154.5" y="-360.5" font-family="Helvetica,sans-Serif" font-size="10.00"># Component()</text>
<text text-anchor="start" x="154.5" y="-349.5" font-family="Helvetica,sans-Serif" font-size="10.00"># Component()</text>
</a>
</g>
</g>
<!-- Node2&#45;&gt;Node1 -->
<g id="edge1" class="edge">
<title>Node2&#45;&gt;Node1</title>
<path fill="none" stroke="midnightblue" d="M196.5,-332.25C196.5,-323.57 196.5,-314.63 196.5,-305.79"/>
<polygon fill="none" stroke="midnightblue" points="193,-332.31 196.5,-342.31 200,-332.31 193,-332.31"/>
</g>
</g>
</svg>
