<?xml version="1.0" encoding="UTF-8" standalone="no"?>
<!DOCTYPE svg PUBLIC "-//W3C//DTD SVG 1.1//EN"
 "http://www.w3.org/Graphics/SVG/1.1/DTD/svg11.dtd">
<!-- Generated by graphviz version 2.43.0 (0)
 -->
<!-- Title: RAY::Drawables::Drawables2D::Triangle Pages: 1 -->
<svg width="172pt" height="573pt"
 viewBox="0.00 0.00 172.00 573.00" xmlns="http://www.w3.org/2000/svg" xmlns:xlink="http://www.w3.org/1999/xlink">
<g id="graph0" class="graph" transform="scale(1 1) rotate(0) translate(4 569)">
<title>RAY::Drawables::Drawables2D::Triangle</title>
<polygon fill="white" stroke="transparent" points="-4,4 -4,-569 168,-569 168,4 -4,4"/>
<!-- Node1 -->
<g id="node1" class="node">
<title>Node1</title>
<g id="a_node1"><a xlink:title="Triangle in a two&#45;dimensionnal space.">
<polygon fill="#bfbfbf" stroke="black" points="4.5,-0.5 4.5,-200.5 159.5,-200.5 159.5,-0.5 4.5,-0.5"/>
<text text-anchor="start" x="12.5" y="-188.5" font-family="Helvetica,sans-Serif" font-size="10.00">RAY::Drawables::Drawables2</text>
<text text-anchor="middle" x="82" y="-177.5" font-family="Helvetica,sans-Serif" font-size="10.00">D::Triangle</text>
<polyline fill="none" stroke="black" points="4.5,-170.5 159.5,-170.5 "/>
<text text-anchor="start" x="12.5" y="-158.5" font-family="Helvetica,sans-Serif" font-size="10.00">&#45; _posB</text>
<text text-anchor="start" x="12.5" y="-147.5" font-family="Helvetica,sans-Serif" font-size="10.00">&#45; _posC</text>
<polyline fill="none" stroke="black" points="4.5,-140.5 159.5,-140.5 "/>
<text text-anchor="start" x="12.5" y="-128.5" font-family="Helvetica,sans-Serif" font-size="10.00">+ Triangle()</text>
<text text-anchor="start" x="12.5" y="-117.5" font-family="Helvetica,sans-Serif" font-size="10.00">+ Triangle()</text>
<text text-anchor="start" x="12.5" y="-106.5" font-family="Helvetica,sans-Serif" font-size="10.00">+ operator=()</text>
<text text-anchor="start" x="12.5" y="-95.5" font-family="Helvetica,sans-Serif" font-size="10.00">+ ~Triangle()</text>
<text text-anchor="start" x="12.5" y="-84.5" font-family="Helvetica,sans-Serif" font-size="10.00">+ getPositionA()</text>
<text text-anchor="start" x="12.5" y="-73.5" font-family="Helvetica,sans-Serif" font-size="10.00">+ getPositionB()</text>
<text text-anchor="start" x="12.5" y="-62.5" font-family="Helvetica,sans-Serif" font-size="10.00">+ getPositionC()</text>
<text text-anchor="start" x="12.5" y="-51.5" font-family="Helvetica,sans-Serif" font-size="10.00">+ setPositionA()</text>
<text text-anchor="start" x="12.5" y="-40.5" font-family="Helvetica,sans-Serif" font-size="10.00">+ setPositionB()</text>
<text text-anchor="start" x="12.5" y="-29.5" font-family="Helvetica,sans-Serif" font-size="10.00">+ setPositionC()</text>
<text text-anchor="start" x="12.5" y="-18.5" font-family="Helvetica,sans-Serif" font-size="10.00">+ drawOn()</text>
<text text-anchor="start" x="12.5" y="-7.5" font-family="Helvetica,sans-Serif" font-size="10.00">+ drawOn()</text>
</a>
</g>
</g>
<!-- Node2 -->
<g id="node2" class="node">
<title>Node2</title>
<g id="a_node2"><a xlink:href="classRAY_1_1Drawables_1_1ADrawable2D.html" target="_top" xlink:title="Abstraction of any two&#45;dimensionnal drawable.">
<polygon fill="white" stroke="black" points="0,-237.5 0,-459.5 164,-459.5 164,-237.5 0,-237.5"/>
<text text-anchor="middle" x="82" y="-447.5" font-family="Helvetica,sans-Serif" font-size="10.00">RAY::Drawables::ADrawable2D</text>
<polyline fill="none" stroke="black" points="0,-440.5 164,-440.5 "/>
<text text-anchor="start" x="8" y="-428.5" font-family="Helvetica,sans-Serif" font-size="10.00"># _rotation</text>
<text text-anchor="start" x="8" y="-417.5" font-family="Helvetica,sans-Serif" font-size="10.00"># _scale</text>
<text text-anchor="start" x="8" y="-406.5" font-family="Helvetica,sans-Serif" font-size="10.00"># _position</text>
<text text-anchor="start" x="8" y="-395.5" font-family="Helvetica,sans-Serif" font-size="10.00"># _color</text>
<polyline fill="none" stroke="black" points="0,-388.5 164,-388.5 "/>
<text text-anchor="start" x="8" y="-376.5" font-family="Helvetica,sans-Serif" font-size="10.00">+ ADrawable2D()</text>
<text text-anchor="start" x="8" y="-365.5" font-family="Helvetica,sans-Serif" font-size="10.00">+ ADrawable2D()</text>
<text text-anchor="start" x="8" y="-354.5" font-family="Helvetica,sans-Serif" font-size="10.00">+ ADrawable2D()</text>
<text text-anchor="start" x="8" y="-343.5" font-family="Helvetica,sans-Serif" font-size="10.00">+ ~ADrawable2D()</text>
<text text-anchor="start" x="8" y="-332.5" font-family="Helvetica,sans-Serif" font-size="10.00">+ getPosition()</text>
<text text-anchor="start" x="8" y="-321.5" font-family="Helvetica,sans-Serif" font-size="10.00">+ getColor()</text>
<text text-anchor="start" x="8" y="-310.5" font-family="Helvetica,sans-Serif" font-size="10.00">+ setPosition()</text>
<text text-anchor="start" x="8" y="-299.5" font-family="Helvetica,sans-Serif" font-size="10.00">+ setPosition()</text>
<text text-anchor="start" x="8" y="-288.5" font-family="Helvetica,sans-Serif" font-size="10.00">+ setColor()</text>
<text text-anchor="start" x="8" y="-277.5" font-family="Helvetica,sans-Serif" font-size="10.00">+ drawOn()</text>
<text text-anchor="start" x="8" y="-266.5" font-family="Helvetica,sans-Serif" font-size="10.00">+ drawOn()</text>
<text text-anchor="start" x="8" y="-255.5" font-family="Helvetica,sans-Serif" font-size="10.00">+ getScale()</text>
<text text-anchor="start" x="8" y="-244.5" font-family="Helvetica,sans-Serif" font-size="10.00">+ setScale()</text>
</a>
</g>
</g>
<!-- Node2&#45;&gt;Node1 -->
<g id="edge1" class="edge">
<title>Node2&#45;&gt;Node1</title>
<path fill="none" stroke="midnightblue" d="M82,-227.35C82,-218.38 82,-209.4 82,-200.58"/>
<polygon fill="none" stroke="midnightblue" points="78.5,-227.45 82,-237.45 85.5,-227.45 78.5,-227.45"/>
</g>
<!-- Node3 -->
<g id="node3" class="node">
<title>Node3</title>
<g id="a_node3"><a xlink:href="classRAY_1_1Drawables_1_1IDrawable.html" target="_top" xlink:title="Interface for any drawable.">
<polygon fill="white" stroke="black" points="8.5,-496.5 8.5,-564.5 155.5,-564.5 155.5,-496.5 8.5,-496.5"/>
<text text-anchor="middle" x="82" y="-552.5" font-family="Helvetica,sans-Serif" font-size="10.00">RAY::Drawables::IDrawable</text>
<polyline fill="none" stroke="black" points="8.5,-545.5 155.5,-545.5 "/>
<text text-anchor="middle" x="82" y="-533.5" font-family="Helvetica,sans-Serif" font-size="10.00"> </text>
<polyline fill="none" stroke="black" points="8.5,-526.5 155.5,-526.5 "/>
<text text-anchor="start" x="16.5" y="-514.5" font-family="Helvetica,sans-Serif" font-size="10.00">+ ~IDrawable()</text>
<text text-anchor="start" x="16.5" y="-503.5" font-family="Helvetica,sans-Serif" font-size="10.00">+ drawOn()</text>
</a>
</g>
</g>
<!-- Node3&#45;&gt;Node2 -->
<g id="edge2" class="edge">
<title>Node3&#45;&gt;Node2</title>
<path fill="none" stroke="midnightblue" d="M82,-486.35C82,-478.01 82,-468.92 82,-459.52"/>
<polygon fill="none" stroke="midnightblue" points="78.5,-486.49 82,-496.49 85.5,-486.49 78.5,-486.49"/>
</g>
</g>
</svg>
