<?xml version="1.0" encoding="UTF-8" standalone="no"?>
<!DOCTYPE svg PUBLIC "-//W3C//DTD SVG 1.1//EN"
 "http://www.w3.org/Graphics/SVG/1.1/DTD/svg11.dtd">
<!-- Generated by graphviz version 2.43.0 (0)
 -->
<!-- Title: BBM::WhiteShaderComponent Pages: 1 -->
<svg width="172pt" height="292pt"
 viewBox="0.00 0.00 172.00 292.00" xmlns="http://www.w3.org/2000/svg" xmlns:xlink="http://www.w3.org/1999/xlink">
<g id="graph0" class="graph" transform="scale(1 1) rotate(0) translate(4 288)">
<title>BBM::WhiteShaderComponent</title>
<polygon fill="white" stroke="transparent" points="-4,4 -4,-288 168,-288 168,4 -4,4"/>
<!-- Node1 -->
<g id="node1" class="node">
<title>Node1</title>
<g id="a_node1"><a xlink:title=" ">
<polygon fill="#bfbfbf" stroke="black" points="0,-0.5 0,-123.5 164,-123.5 164,-0.5 0,-0.5"/>
<text text-anchor="middle" x="82" y="-111.5" font-family="Helvetica,sans-Serif" font-size="10.00">BBM::WhiteShaderComponent</text>
<polyline fill="none" stroke="black" points="0,-104.5 164,-104.5 "/>
<text text-anchor="start" x="8" y="-92.5" font-family="Helvetica,sans-Serif" font-size="10.00">+ whiteValue</text>
<text text-anchor="start" x="8" y="-81.5" font-family="Helvetica,sans-Serif" font-size="10.00">+ balance</text>
<text text-anchor="start" x="8" y="-70.5" font-family="Helvetica,sans-Serif" font-size="10.00">+ clock</text>
<polyline fill="none" stroke="black" points="0,-63.5 164,-63.5 "/>
<text text-anchor="start" x="8" y="-51.5" font-family="Helvetica,sans-Serif" font-size="10.00">+ clone()</text>
<text text-anchor="start" x="8" y="-40.5" font-family="Helvetica,sans-Serif" font-size="10.00">+ WhiteShaderComponent()</text>
<text text-anchor="start" x="8" y="-29.5" font-family="Helvetica,sans-Serif" font-size="10.00">+ WhiteShaderComponent()</text>
<text text-anchor="start" x="8" y="-18.5" font-family="Helvetica,sans-Serif" font-size="10.00">+ ~WhiteShaderComponent()</text>
<text text-anchor="start" x="8" y="-7.5" font-family="Helvetica,sans-Serif" font-size="10.00">+ operator=()</text>
</a>
</g>
</g>
<!-- Node2 -->
<g id="node2" class="node">
<title>Node2</title>
<g id="a_node2"><a xlink:href="classWAL_1_1Component.html" target="_top" xlink:title="Represent a single component of WAL.">
<polygon fill="white" stroke="black" points="32,-160.5 32,-283.5 132,-283.5 132,-160.5 32,-160.5"/>
<text text-anchor="middle" x="82" y="-271.5" font-family="Helvetica,sans-Serif" font-size="10.00">WAL::Component</text>
<polyline fill="none" stroke="black" points="32,-264.5 132,-264.5 "/>
<text text-anchor="start" x="40" y="-252.5" font-family="Helvetica,sans-Serif" font-size="10.00"># _entity</text>
<polyline fill="none" stroke="black" points="32,-245.5 132,-245.5 "/>
<text text-anchor="start" x="40" y="-233.5" font-family="Helvetica,sans-Serif" font-size="10.00">+ operator=()</text>
<text text-anchor="start" x="40" y="-222.5" font-family="Helvetica,sans-Serif" font-size="10.00">+ ~Component()</text>
<text text-anchor="start" x="40" y="-211.5" font-family="Helvetica,sans-Serif" font-size="10.00">+ clone()</text>
<text text-anchor="start" x="40" y="-200.5" font-family="Helvetica,sans-Serif" font-size="10.00">+ onStart()</text>
<text text-anchor="start" x="40" y="-189.5" font-family="Helvetica,sans-Serif" font-size="10.00">+ onStop()</text>
<text text-anchor="start" x="40" y="-178.5" font-family="Helvetica,sans-Serif" font-size="10.00"># Component()</text>
<text text-anchor="start" x="40" y="-167.5" font-family="Helvetica,sans-Serif" font-size="10.00"># Component()</text>
</a>
</g>
</g>
<!-- Node2&#45;&gt;Node1 -->
<g id="edge1" class="edge">
<title>Node2&#45;&gt;Node1</title>
<path fill="none" stroke="midnightblue" d="M82,-150.12C82,-141.31 82,-132.37 82,-123.73"/>
<polygon fill="none" stroke="midnightblue" points="78.5,-150.36 82,-160.36 85.5,-150.36 78.5,-150.36"/>
</g>
</g>
</svg>
