<?xml version="1.0" encoding="UTF-8" standalone="no"?>
<!DOCTYPE svg PUBLIC "-//W3C//DTD SVG 1.1//EN"
 "http://www.w3.org/Graphics/SVG/1.1/DTD/svg11.dtd">
<!-- Generated by graphviz version 2.43.0 (0)
 -->
<!-- Title: WAL::System&lt; Dependencies &gt; Pages: 1 -->
<svg width="230pt" height="435pt"
 viewBox="0.00 0.00 230.00 435.00" xmlns="http://www.w3.org/2000/svg" xmlns:xlink="http://www.w3.org/1999/xlink">
<g id="graph0" class="graph" transform="scale(1 1) rotate(0) translate(4 431)">
<title>WAL::System&lt; Dependencies &gt;</title>
<polygon fill="white" stroke="transparent" points="-4,4 -4,-431 226,-431 226,4 -4,4"/>
<!-- Node1 -->
<g id="node1" class="node">
<title>Node1</title>
<g id="a_node1"><a xlink:title="A base system of WAL.">
<polygon fill="#bfbfbf" stroke="black" points="21,-0.5 21,-167.5 193,-167.5 193,-0.5 21,-0.5"/>
<text text-anchor="middle" x="107" y="-155.5" font-family="Helvetica,sans-Serif" font-size="10.00">WAL::System&lt; Dependencies &gt;</text>
<polyline fill="none" stroke="black" points="21,-148.5 193,-148.5 "/>
<text text-anchor="middle" x="107" y="-136.5" font-family="Helvetica,sans-Serif" font-size="10.00"> </text>
<polyline fill="none" stroke="black" points="21,-129.5 193,-129.5 "/>
<text text-anchor="start" x="29" y="-117.5" font-family="Helvetica,sans-Serif" font-size="10.00">+ ~System()</text>
<text text-anchor="start" x="29" y="-106.5" font-family="Helvetica,sans-Serif" font-size="10.00">+ System()</text>
<text text-anchor="start" x="29" y="-95.5" font-family="Helvetica,sans-Serif" font-size="10.00">+ getView()</text>
<text text-anchor="start" x="29" y="-84.5" font-family="Helvetica,sans-Serif" font-size="10.00">+ onUpdate()</text>
<text text-anchor="start" x="29" y="-73.5" font-family="Helvetica,sans-Serif" font-size="10.00">+ onFixedUpdate()</text>
<text text-anchor="start" x="29" y="-62.5" font-family="Helvetica,sans-Serif" font-size="10.00">+ onSelfUpdate()</text>
<text text-anchor="start" x="29" y="-51.5" font-family="Helvetica,sans-Serif" font-size="10.00">+ update()</text>
<text text-anchor="start" x="29" y="-40.5" font-family="Helvetica,sans-Serif" font-size="10.00">+ fixedUpdate()</text>
<text text-anchor="start" x="29" y="-29.5" font-family="Helvetica,sans-Serif" font-size="10.00"># System()</text>
<text text-anchor="start" x="29" y="-18.5" font-family="Helvetica,sans-Serif" font-size="10.00"># System()</text>
<text text-anchor="start" x="29" y="-7.5" font-family="Helvetica,sans-Serif" font-size="10.00"># operator=()</text>
</a>
</g>
</g>
<!-- Node2 -->
<g id="node2" class="node">
<title>Node2</title>
<g id="a_node2"><a xlink:href="classWAL_1_1ISystem.html" target="_top" xlink:title="A base class that represent a system.">
<polygon fill="white" stroke="black" points="0,-276 0,-366 94,-366 94,-276 0,-276"/>
<text text-anchor="middle" x="47" y="-354" font-family="Helvetica,sans-Serif" font-size="10.00">WAL::ISystem</text>
<polyline fill="none" stroke="black" points="0,-347 94,-347 "/>
<text text-anchor="middle" x="47" y="-335" font-family="Helvetica,sans-Serif" font-size="10.00"> </text>
<polyline fill="none" stroke="black" points="0,-328 94,-328 "/>
<text text-anchor="start" x="8" y="-316" font-family="Helvetica,sans-Serif" font-size="10.00">+ update()</text>
<text text-anchor="start" x="8" y="-305" font-family="Helvetica,sans-Serif" font-size="10.00">+ fixedUpdate()</text>
<text text-anchor="start" x="8" y="-294" font-family="Helvetica,sans-Serif" font-size="10.00">+ getView()</text>
<text text-anchor="start" x="8" y="-283" font-family="Helvetica,sans-Serif" font-size="10.00">+ ~ISystem()</text>
</a>
</g>
</g>
<!-- Node2&#45;&gt;Node1 -->
<g id="edge1" class="edge">
<title>Node2&#45;&gt;Node1</title>
<path fill="none" stroke="midnightblue" d="M60.83,-265.82C68.27,-236.68 77.61,-200.13 85.93,-167.53"/>
<polygon fill="none" stroke="midnightblue" points="57.37,-265.24 58.29,-275.8 64.15,-266.97 57.37,-265.24"/>
</g>
<!-- Node3 -->
<g id="node3" class="node">
<title>Node3</title>
<g id="a_node3"><a xlink:href="classWAL_1_1Wal.html" target="_top" xlink:title="The main WAL class, it is used to setup and run the ECS.">
<polygon fill="white" stroke="black" points="112,-215.5 112,-426.5 222,-426.5 222,-215.5 112,-215.5"/>
<text text-anchor="middle" x="167" y="-414.5" font-family="Helvetica,sans-Serif" font-size="10.00">WAL::Wal</text>
<polyline fill="none" stroke="black" points="112,-407.5 222,-407.5 "/>
<text text-anchor="start" x="120" y="-395.5" font-family="Helvetica,sans-Serif" font-size="10.00">+ shouldClose</text>
<text text-anchor="start" x="120" y="-384.5" font-family="Helvetica,sans-Serif" font-size="10.00">+ timestep</text>
<text text-anchor="start" x="120" y="-373.5" font-family="Helvetica,sans-Serif" font-size="10.00">&#45; _systems</text>
<text text-anchor="start" x="120" y="-362.5" font-family="Helvetica,sans-Serif" font-size="10.00">&#45; _scene</text>
<polyline fill="none" stroke="black" points="112,-355.5 222,-355.5 "/>
<text text-anchor="start" x="120" y="-343.5" font-family="Helvetica,sans-Serif" font-size="10.00">+ getScene()</text>
<text text-anchor="start" x="120" y="-332.5" font-family="Helvetica,sans-Serif" font-size="10.00">+ changeScene()</text>
<text text-anchor="start" x="120" y="-321.5" font-family="Helvetica,sans-Serif" font-size="10.00">+ addSystem()</text>
<text text-anchor="start" x="120" y="-310.5" font-family="Helvetica,sans-Serif" font-size="10.00">+ addSystem()</text>
<text text-anchor="start" x="120" y="-299.5" font-family="Helvetica,sans-Serif" font-size="10.00">+ getSystem()</text>
<text text-anchor="start" x="120" y="-288.5" font-family="Helvetica,sans-Serif" font-size="10.00">+ removeSystem()</text>
<text text-anchor="start" x="120" y="-277.5" font-family="Helvetica,sans-Serif" font-size="10.00">+ run()</text>
<text text-anchor="start" x="120" y="-266.5" font-family="Helvetica,sans-Serif" font-size="10.00">+ Wal()</text>
<text text-anchor="start" x="120" y="-255.5" font-family="Helvetica,sans-Serif" font-size="10.00">+ Wal()</text>
<text text-anchor="start" x="120" y="-244.5" font-family="Helvetica,sans-Serif" font-size="10.00">+ ~Wal()</text>
<text text-anchor="start" x="120" y="-233.5" font-family="Helvetica,sans-Serif" font-size="10.00">+ operator=()</text>
<text text-anchor="start" x="120" y="-222.5" font-family="Helvetica,sans-Serif" font-size="10.00">&#45; _run()</text>
</a>
</g>
</g>
<!-- Node3&#45;&gt;Node1 -->
<g id="edge2" class="edge">
<title>Node3&#45;&gt;Node1</title>
<path fill="none" stroke="#404040" d="M140.25,-215.21C137.2,-203.28 134.11,-191.17 131.1,-179.38"/>
<polygon fill="none" stroke="#404040" points="131.09,-179.35 125.73,-174.52 128.12,-167.72 133.48,-172.55 131.09,-179.35"/>
<text text-anchor="middle" x="152" y="-189" font-family="Helvetica,sans-Serif" font-size="10.00"> #_wal</text>
</g>
</g>
</svg>
