<?xml version="1.0" encoding="UTF-8" standalone="no"?>
<!DOCTYPE svg PUBLIC "-//W3C//DTD SVG 1.1//EN"
 "http://www.w3.org/Graphics/SVG/1.1/DTD/svg11.dtd">
<!-- Generated by graphviz version 2.43.0 (0)
 -->
<!-- Title: RAY::Exception::WrongInputError Pages: 1 -->
<svg width="158pt" height="331pt"
 viewBox="0.00 0.00 158.00 331.00" xmlns="http://www.w3.org/2000/svg" xmlns:xlink="http://www.w3.org/1999/xlink">
<g id="graph0" class="graph" transform="scale(1 1) rotate(0) translate(4 327)">
<title>RAY::Exception::WrongInputError</title>
<polygon fill="white" stroke="transparent" points="-4,4 -4,-327 154,-327 154,4 -4,4"/>
<!-- Node1 -->
<g id="node1" class="node">
<title>Node1</title>
<g id="a_node1"><a xlink:title="exception used when an non&#45;supported operation is done">
<polygon fill="#bfbfbf" stroke="black" points="0,-0.5 0,-101.5 150,-101.5 150,-0.5 0,-0.5"/>
<text text-anchor="start" x="8" y="-89.5" font-family="Helvetica,sans-Serif" font-size="10.00">RAY::Exception::WrongInput</text>
<text text-anchor="middle" x="75" y="-78.5" font-family="Helvetica,sans-Serif" font-size="10.00">Error</text>
<polyline fill="none" stroke="black" points="0,-71.5 150,-71.5 "/>
<text text-anchor="middle" x="75" y="-59.5" font-family="Helvetica,sans-Serif" font-size="10.00"> </text>
<polyline fill="none" stroke="black" points="0,-52.5 150,-52.5 "/>
<text text-anchor="start" x="8" y="-40.5" font-family="Helvetica,sans-Serif" font-size="10.00">+ WrongInputError()</text>
<text text-anchor="start" x="8" y="-29.5" font-family="Helvetica,sans-Serif" font-size="10.00">+ ~WrongInputError()</text>
<text text-anchor="start" x="8" y="-18.5" font-family="Helvetica,sans-Serif" font-size="10.00">+ WrongInputError()</text>
<text text-anchor="start" x="8" y="-7.5" font-family="Helvetica,sans-Serif" font-size="10.00">+ operator=()</text>
</a>
</g>
</g>
<!-- Node2 -->
<g id="node2" class="node">
<title>Node2</title>
<g id="a_node2"><a xlink:href="classRAY_1_1Exception_1_1RayError.html" target="_top" xlink:title="base exception class for RAY lib">
<polygon fill="white" stroke="black" points="7,-138.5 7,-228.5 143,-228.5 143,-138.5 7,-138.5"/>
<text text-anchor="middle" x="75" y="-216.5" font-family="Helvetica,sans-Serif" font-size="10.00">RAY::Exception::RayError</text>
<polyline fill="none" stroke="black" points="7,-209.5 143,-209.5 "/>
<text text-anchor="middle" x="75" y="-197.5" font-family="Helvetica,sans-Serif" font-size="10.00"> </text>
<polyline fill="none" stroke="black" points="7,-190.5 143,-190.5 "/>
<text text-anchor="start" x="15" y="-178.5" font-family="Helvetica,sans-Serif" font-size="10.00">+ RayError()</text>
<text text-anchor="start" x="15" y="-167.5" font-family="Helvetica,sans-Serif" font-size="10.00">+ ~RayError()</text>
<text text-anchor="start" x="15" y="-156.5" font-family="Helvetica,sans-Serif" font-size="10.00">+ RayError()</text>
<text text-anchor="start" x="15" y="-145.5" font-family="Helvetica,sans-Serif" font-size="10.00">+ operator=()</text>
</a>
</g>
</g>
<!-- Node2&#45;&gt;Node1 -->
<g id="edge1" class="edge">
<title>Node2&#45;&gt;Node1</title>
<path fill="none" stroke="midnightblue" d="M75,-128.13C75,-119.31 75,-110.22 75,-101.52"/>
<polygon fill="none" stroke="midnightblue" points="71.5,-128.32 75,-138.32 78.5,-128.32 71.5,-128.32"/>
</g>
<!-- Node3 -->
<g id="node3" class="node">
<title>Node3</title>
<g id="a_node3"><a xlink:title=" ">
<polygon fill="white" stroke="#bfbfbf" points="33.5,-265.5 33.5,-322.5 116.5,-322.5 116.5,-265.5 33.5,-265.5"/>
<text text-anchor="middle" x="75" y="-310.5" font-family="Helvetica,sans-Serif" font-size="10.00">runtime_error</text>
<polyline fill="none" stroke="#bfbfbf" points="33.5,-303.5 116.5,-303.5 "/>
<text text-anchor="middle" x="75" y="-291.5" font-family="Helvetica,sans-Serif" font-size="10.00"> </text>
<polyline fill="none" stroke="#bfbfbf" points="33.5,-284.5 116.5,-284.5 "/>
<text text-anchor="middle" x="75" y="-272.5" font-family="Helvetica,sans-Serif" font-size="10.00"> </text>
</a>
</g>
</g>
<!-- Node3&#45;&gt;Node2 -->
<g id="edge2" class="edge">
<title>Node3&#45;&gt;Node2</title>
<path fill="none" stroke="midnightblue" d="M75,-255.21C75,-246.61 75,-237.39 75,-228.55"/>
<polygon fill="none" stroke="midnightblue" points="71.5,-255.34 75,-265.34 78.5,-255.34 71.5,-255.34"/>
</g>
</g>
</svg>
