<?xml version="1.0" encoding="UTF-8" standalone="no"?>
<!DOCTYPE svg PUBLIC "-//W3C//DTD SVG 1.1//EN"
 "http://www.w3.org/Graphics/SVG/1.1/DTD/svg11.dtd">
<!-- Generated by graphviz version 2.43.0 (0)
 -->
<!-- Title: BBM::AnimationsSystem Pages: 1 -->
<svg width="230pt" height="607pt"
 viewBox="0.00 0.00 230.00 607.00" xmlns="http://www.w3.org/2000/svg" xmlns:xlink="http://www.w3.org/1999/xlink">
<g id="graph0" class="graph" transform="scale(1 1) rotate(0) translate(4 603)">
<title>BBM::AnimationsSystem</title>
<polygon fill="white" stroke="transparent" points="-4,4 -4,-603 226,-603 226,4 -4,4"/>
<!-- Node1 -->
<g id="node1" class="node">
<title>Node1</title>
<g id="a_node1"><a xlink:title=" ">
<polygon fill="#bfbfbf" stroke="black" points="38.5,-0.5 38.5,-123.5 175.5,-123.5 175.5,-0.5 38.5,-0.5"/>
<text text-anchor="middle" x="107" y="-111.5" font-family="Helvetica,sans-Serif" font-size="10.00">BBM::AnimationsSystem</text>
<polyline fill="none" stroke="black" points="38.5,-104.5 175.5,-104.5 "/>
<text text-anchor="start" x="46.5" y="-92.5" font-family="Helvetica,sans-Serif" font-size="10.00">&#45; maxAnimsToSkip</text>
<text text-anchor="start" x="46.5" y="-81.5" font-family="Helvetica,sans-Serif" font-size="10.00">&#45; animsToSkip</text>
<polyline fill="none" stroke="black" points="38.5,-74.5 175.5,-74.5 "/>
<text text-anchor="start" x="46.5" y="-62.5" font-family="Helvetica,sans-Serif" font-size="10.00">+ onUpdate()</text>
<text text-anchor="start" x="46.5" y="-51.5" font-family="Helvetica,sans-Serif" font-size="10.00">+ onSelfUpdate()</text>
<text text-anchor="start" x="46.5" y="-40.5" font-family="Helvetica,sans-Serif" font-size="10.00">+ AnimationsSystem()</text>
<text text-anchor="start" x="46.5" y="-29.5" font-family="Helvetica,sans-Serif" font-size="10.00">+ AnimationsSystem()</text>
<text text-anchor="start" x="46.5" y="-18.5" font-family="Helvetica,sans-Serif" font-size="10.00">+ ~AnimationsSystem()</text>
<text text-anchor="start" x="46.5" y="-7.5" font-family="Helvetica,sans-Serif" font-size="10.00">+ operator=()</text>
</a>
</g>
</g>
<!-- Node2 -->
<g id="node2" class="node">
<title>Node2</title>
<g id="a_node2"><a xlink:href="classWAL_1_1System.html" target="_top" xlink:title=" ">
<polygon fill="white" stroke="black" points="1.5,-161.5 1.5,-339.5 212.5,-339.5 212.5,-161.5 1.5,-161.5"/>
<text text-anchor="start" x="9.5" y="-327.5" font-family="Helvetica,sans-Serif" font-size="10.00">WAL::System&lt; Drawable3DComponent,</text>
<text text-anchor="middle" x="107" y="-316.5" font-family="Helvetica,sans-Serif" font-size="10.00"> AnimationsComponent &gt;</text>
<polyline fill="none" stroke="black" points="1.5,-309.5 212.5,-309.5 "/>
<text text-anchor="middle" x="107" y="-297.5" font-family="Helvetica,sans-Serif" font-size="10.00"> </text>
<polyline fill="none" stroke="black" points="1.5,-290.5 212.5,-290.5 "/>
<text text-anchor="start" x="9.5" y="-278.5" font-family="Helvetica,sans-Serif" font-size="10.00">+ ~System()</text>
<text text-anchor="start" x="9.5" y="-267.5" font-family="Helvetica,sans-Serif" font-size="10.00">+ System()</text>
<text text-anchor="start" x="9.5" y="-256.5" font-family="Helvetica,sans-Serif" font-size="10.00">+ getView()</text>
<text text-anchor="start" x="9.5" y="-245.5" font-family="Helvetica,sans-Serif" font-size="10.00">+ onUpdate()</text>
<text text-anchor="start" x="9.5" y="-234.5" font-family="Helvetica,sans-Serif" font-size="10.00">+ onFixedUpdate()</text>
<text text-anchor="start" x="9.5" y="-223.5" font-family="Helvetica,sans-Serif" font-size="10.00">+ onSelfUpdate()</text>
<text text-anchor="start" x="9.5" y="-212.5" font-family="Helvetica,sans-Serif" font-size="10.00">+ update()</text>
<text text-anchor="start" x="9.5" y="-201.5" font-family="Helvetica,sans-Serif" font-size="10.00">+ fixedUpdate()</text>
<text text-anchor="start" x="9.5" y="-190.5" font-family="Helvetica,sans-Serif" font-size="10.00"># System()</text>
<text text-anchor="start" x="9.5" y="-179.5" font-family="Helvetica,sans-Serif" font-size="10.00"># System()</text>
<text text-anchor="start" x="9.5" y="-168.5" font-family="Helvetica,sans-Serif" font-size="10.00"># operator=()</text>
</a>
</g>
</g>
<!-- Node2&#45;&gt;Node1 -->
<g id="edge1" class="edge">
<title>Node2&#45;&gt;Node1</title>
<path fill="none" stroke="midnightblue" d="M107,-151.21C107,-141.79 107,-132.44 107,-123.54"/>
<polygon fill="none" stroke="midnightblue" points="103.5,-151.44 107,-161.44 110.5,-151.44 103.5,-151.44"/>
</g>
<!-- Node3 -->
<g id="node3" class="node">
<title>Node3</title>
<g id="a_node3"><a xlink:href="classWAL_1_1ISystem.html" target="_top" xlink:title="A base class that represent a system.">
<polygon fill="white" stroke="black" points="0,-448 0,-538 94,-538 94,-448 0,-448"/>
<text text-anchor="middle" x="47" y="-526" font-family="Helvetica,sans-Serif" font-size="10.00">WAL::ISystem</text>
<polyline fill="none" stroke="black" points="0,-519 94,-519 "/>
<text text-anchor="middle" x="47" y="-507" font-family="Helvetica,sans-Serif" font-size="10.00"> </text>
<polyline fill="none" stroke="black" points="0,-500 94,-500 "/>
<text text-anchor="start" x="8" y="-488" font-family="Helvetica,sans-Serif" font-size="10.00">+ update()</text>
<text text-anchor="start" x="8" y="-477" font-family="Helvetica,sans-Serif" font-size="10.00">+ fixedUpdate()</text>
<text text-anchor="start" x="8" y="-466" font-family="Helvetica,sans-Serif" font-size="10.00">+ getView()</text>
<text text-anchor="start" x="8" y="-455" font-family="Helvetica,sans-Serif" font-size="10.00">+ ~ISystem()</text>
</a>
</g>
</g>
<!-- Node3&#45;&gt;Node2 -->
<g id="edge2" class="edge">
<title>Node3&#45;&gt;Node2</title>
<path fill="none" stroke="midnightblue" d="M60.48,-437.97C67.7,-409.02 76.79,-372.61 85,-339.67"/>
<polygon fill="none" stroke="midnightblue" points="57.03,-437.34 58,-447.89 63.82,-439.03 57.03,-437.34"/>
</g>
<!-- Node4 -->
<g id="node4" class="node">
<title>Node4</title>
<g id="a_node4"><a xlink:href="classWAL_1_1Wal.html" target="_top" xlink:title="The main WAL class, it is used to setup and run the ECS.">
<polygon fill="white" stroke="black" points="112,-387.5 112,-598.5 222,-598.5 222,-387.5 112,-387.5"/>
<text text-anchor="middle" x="167" y="-586.5" font-family="Helvetica,sans-Serif" font-size="10.00">WAL::Wal</text>
<polyline fill="none" stroke="black" points="112,-579.5 222,-579.5 "/>
<text text-anchor="start" x="120" y="-567.5" font-family="Helvetica,sans-Serif" font-size="10.00">+ shouldClose</text>
<text text-anchor="start" x="120" y="-556.5" font-family="Helvetica,sans-Serif" font-size="10.00">+ timestep</text>
<text text-anchor="start" x="120" y="-545.5" font-family="Helvetica,sans-Serif" font-size="10.00">&#45; _systems</text>
<text text-anchor="start" x="120" y="-534.5" font-family="Helvetica,sans-Serif" font-size="10.00">&#45; _scene</text>
<polyline fill="none" stroke="black" points="112,-527.5 222,-527.5 "/>
<text text-anchor="start" x="120" y="-515.5" font-family="Helvetica,sans-Serif" font-size="10.00">+ getScene()</text>
<text text-anchor="start" x="120" y="-504.5" font-family="Helvetica,sans-Serif" font-size="10.00">+ changeScene()</text>
<text text-anchor="start" x="120" y="-493.5" font-family="Helvetica,sans-Serif" font-size="10.00">+ addSystem()</text>
<text text-anchor="start" x="120" y="-482.5" font-family="Helvetica,sans-Serif" font-size="10.00">+ addSystem()</text>
<text text-anchor="start" x="120" y="-471.5" font-family="Helvetica,sans-Serif" font-size="10.00">+ getSystem()</text>
<text text-anchor="start" x="120" y="-460.5" font-family="Helvetica,sans-Serif" font-size="10.00">+ removeSystem()</text>
<text text-anchor="start" x="120" y="-449.5" font-family="Helvetica,sans-Serif" font-size="10.00">+ run()</text>
<text text-anchor="start" x="120" y="-438.5" font-family="Helvetica,sans-Serif" font-size="10.00">+ Wal()</text>
<text text-anchor="start" x="120" y="-427.5" font-family="Helvetica,sans-Serif" font-size="10.00">+ Wal()</text>
<text text-anchor="start" x="120" y="-416.5" font-family="Helvetica,sans-Serif" font-size="10.00">+ ~Wal()</text>
<text text-anchor="start" x="120" y="-405.5" font-family="Helvetica,sans-Serif" font-size="10.00">+ operator=()</text>
<text text-anchor="start" x="120" y="-394.5" font-family="Helvetica,sans-Serif" font-size="10.00">&#45; _run()</text>
</a>
</g>
</g>
<!-- Node4&#45;&gt;Node2 -->
<g id="edge3" class="edge">
<title>Node4&#45;&gt;Node2</title>
<path fill="none" stroke="#404040" d="M140.86,-387.21C137.9,-375.35 134.89,-363.27 131.94,-351.47"/>
<polygon fill="none" stroke="#404040" points="131.93,-351.42 126.59,-346.57 129.02,-339.78 134.36,-344.63 131.93,-351.42"/>
<text text-anchor="middle" x="152" y="-361" font-family="Helvetica,sans-Serif" font-size="10.00"> #_wal</text>
</g>
</g>
</svg>
