<?xml version="1.0" encoding="UTF-8" standalone="no"?>
<!DOCTYPE svg PUBLIC "-//W3C//DTD SVG 1.1//EN"
 "http://www.w3.org/Graphics/SVG/1.1/DTD/svg11.dtd">
<!-- Generated by graphviz version 2.43.0 (0)
 -->
<!-- Title: RAY::Camera::Camera2D Pages: 1 -->
<svg width="144pt" height="314pt"
 viewBox="0.00 0.00 144.00 314.00" xmlns="http://www.w3.org/2000/svg" xmlns:xlink="http://www.w3.org/1999/xlink">
<g id="graph0" class="graph" transform="scale(1 1) rotate(0) translate(4 310)">
<title>RAY::Camera::Camera2D</title>
<polygon fill="white" stroke="transparent" points="-4,4 -4,-310 140,-310 140,4 -4,4"/>
<!-- Node1 -->
<g id="node1" class="node">
<title>Node1</title>
<g id="a_node1"><a xlink:title="Entity representing a Camera in 2D space.">
<polygon fill="#bfbfbf" stroke="black" points="0,-0.5 0,-200.5 136,-200.5 136,-0.5 0,-0.5"/>
<text text-anchor="middle" x="68" y="-188.5" font-family="Helvetica,sans-Serif" font-size="10.00">RAY::Camera::Camera2D</text>
<polyline fill="none" stroke="black" points="0,-181.5 136,-181.5 "/>
<text text-anchor="start" x="8" y="-169.5" font-family="Helvetica,sans-Serif" font-size="10.00">&#45; _camera</text>
<text text-anchor="start" x="8" y="-158.5" font-family="Helvetica,sans-Serif" font-size="10.00">&#45; __pad0__</text>
<polyline fill="none" stroke="black" points="0,-151.5 136,-151.5 "/>
<text text-anchor="start" x="8" y="-139.5" font-family="Helvetica,sans-Serif" font-size="10.00">+ Camera2D()</text>
<text text-anchor="start" x="8" y="-128.5" font-family="Helvetica,sans-Serif" font-size="10.00">+ Camera2D()</text>
<text text-anchor="start" x="8" y="-117.5" font-family="Helvetica,sans-Serif" font-size="10.00">+ ~Camera2D()</text>
<text text-anchor="start" x="8" y="-106.5" font-family="Helvetica,sans-Serif" font-size="10.00">+ operator=()</text>
<text text-anchor="start" x="8" y="-95.5" font-family="Helvetica,sans-Serif" font-size="10.00">+ setOffset()</text>
<text text-anchor="start" x="8" y="-84.5" font-family="Helvetica,sans-Serif" font-size="10.00">+ setTarget()</text>
<text text-anchor="start" x="8" y="-73.5" font-family="Helvetica,sans-Serif" font-size="10.00">+ setRotation()</text>
<text text-anchor="start" x="8" y="-62.5" font-family="Helvetica,sans-Serif" font-size="10.00">+ setZoom()</text>
<text text-anchor="start" x="8" y="-51.5" font-family="Helvetica,sans-Serif" font-size="10.00">+ getOffset()</text>
<text text-anchor="start" x="8" y="-40.5" font-family="Helvetica,sans-Serif" font-size="10.00">+ getTarget()</text>
<text text-anchor="start" x="8" y="-29.5" font-family="Helvetica,sans-Serif" font-size="10.00">+ getRotation()</text>
<text text-anchor="start" x="8" y="-18.5" font-family="Helvetica,sans-Serif" font-size="10.00">+ getZoom()</text>
<text text-anchor="start" x="8" y="-7.5" font-family="Helvetica,sans-Serif" font-size="10.00">+ getMatrix()</text>
</a>
</g>
</g>
<!-- Node2 -->
<g id="node2" class="node">
<title>Node2</title>
<g id="a_node2"><a xlink:href="classRAY_1_1Camera_1_1ICamera.html" target="_top" xlink:title="Interface for Cameras.">
<polygon fill="white" stroke="black" points="5.5,-237.5 5.5,-305.5 130.5,-305.5 130.5,-237.5 5.5,-237.5"/>
<text text-anchor="middle" x="68" y="-293.5" font-family="Helvetica,sans-Serif" font-size="10.00">RAY::Camera::ICamera</text>
<polyline fill="none" stroke="black" points="5.5,-286.5 130.5,-286.5 "/>
<text text-anchor="middle" x="68" y="-274.5" font-family="Helvetica,sans-Serif" font-size="10.00"> </text>
<polyline fill="none" stroke="black" points="5.5,-267.5 130.5,-267.5 "/>
<text text-anchor="start" x="13.5" y="-255.5" font-family="Helvetica,sans-Serif" font-size="10.00">+ ~ICamera()</text>
<text text-anchor="start" x="13.5" y="-244.5" font-family="Helvetica,sans-Serif" font-size="10.00">+ getMatrix()</text>
</a>
</g>
</g>
<!-- Node2&#45;&gt;Node1 -->
<g id="edge1" class="edge">
<title>Node2&#45;&gt;Node1</title>
<path fill="none" stroke="midnightblue" d="M68,-227.08C68,-218.84 68,-209.92 68,-200.76"/>
<polygon fill="none" stroke="midnightblue" points="64.5,-227.11 68,-237.11 71.5,-227.11 64.5,-227.11"/>
</g>
</g>
</svg>
