<?xml version="1.0" encoding="UTF-8" standalone="no"?>
<!DOCTYPE svg PUBLIC "-//W3C//DTD SVG 1.1//EN"
 "http://www.w3.org/Graphics/SVG/1.1/DTD/svg11.dtd">
<!-- Generated by graphviz version 2.43.0 (0)
 -->
<!-- Title: BBM::ShaderComponent Pages: 1 -->
<svg width="502pt" height="1008pt"
 viewBox="0.00 0.00 501.50 1008.00" xmlns="http://www.w3.org/2000/svg" xmlns:xlink="http://www.w3.org/1999/xlink">
<g id="graph0" class="graph" transform="scale(1 1) rotate(0) translate(4 1004)">
<title>BBM::ShaderComponent</title>
<polygon fill="white" stroke="transparent" points="-4,4 -4,-1004 497.5,-1004 497.5,4 -4,4"/>
<!-- Node1 -->
<g id="node1" class="node">
<title>Node1</title>
<g id="a_node1"><a xlink:title=" ">
<polygon fill="#bfbfbf" stroke="black" points="158.5,-0.5 158.5,-145.5 294.5,-145.5 294.5,-0.5 158.5,-0.5"/>
<text text-anchor="middle" x="226.5" y="-133.5" font-family="Helvetica,sans-Serif" font-size="10.00">BBM::ShaderComponent</text>
<polyline fill="none" stroke="black" points="158.5,-126.5 294.5,-126.5 "/>
<text text-anchor="start" x="166.5" y="-114.5" font-family="Helvetica,sans-Serif" font-size="10.00">+ fragmentFilePath</text>
<text text-anchor="start" x="166.5" y="-103.5" font-family="Helvetica,sans-Serif" font-size="10.00">+ vertexFilePath</text>
<polyline fill="none" stroke="black" points="158.5,-96.5 294.5,-96.5 "/>
<text text-anchor="start" x="166.5" y="-84.5" font-family="Helvetica,sans-Serif" font-size="10.00">+ getShader()</text>
<text text-anchor="start" x="166.5" y="-73.5" font-family="Helvetica,sans-Serif" font-size="10.00">+ clone()</text>
<text text-anchor="start" x="166.5" y="-62.5" font-family="Helvetica,sans-Serif" font-size="10.00">+ getFragmentFilePath()</text>
<text text-anchor="start" x="166.5" y="-51.5" font-family="Helvetica,sans-Serif" font-size="10.00">+ getVertexFilePath()</text>
<text text-anchor="start" x="166.5" y="-40.5" font-family="Helvetica,sans-Serif" font-size="10.00">+ ShaderComponent()</text>
<text text-anchor="start" x="166.5" y="-29.5" font-family="Helvetica,sans-Serif" font-size="10.00">+ ShaderComponent()</text>
<text text-anchor="start" x="166.5" y="-18.5" font-family="Helvetica,sans-Serif" font-size="10.00">+ ~ShaderComponent()</text>
<text text-anchor="start" x="166.5" y="-7.5" font-family="Helvetica,sans-Serif" font-size="10.00">+ operator=()</text>
</a>
</g>
</g>
<!-- Node2 -->
<g id="node2" class="node">
<title>Node2</title>
<g id="a_node2"><a xlink:href="classWAL_1_1Component.html" target="_top" xlink:title="Represent a single component of WAL.">
<polygon fill="white" stroke="black" points="26.5,-232 26.5,-355 126.5,-355 126.5,-232 26.5,-232"/>
<text text-anchor="middle" x="76.5" y="-343" font-family="Helvetica,sans-Serif" font-size="10.00">WAL::Component</text>
<polyline fill="none" stroke="black" points="26.5,-336 126.5,-336 "/>
<text text-anchor="middle" x="76.5" y="-324" font-family="Helvetica,sans-Serif" font-size="10.00"> </text>
<polyline fill="none" stroke="black" points="26.5,-317 126.5,-317 "/>
<text text-anchor="start" x="34.5" y="-305" font-family="Helvetica,sans-Serif" font-size="10.00">+ operator=()</text>
<text text-anchor="start" x="34.5" y="-294" font-family="Helvetica,sans-Serif" font-size="10.00">+ ~Component()</text>
<text text-anchor="start" x="34.5" y="-283" font-family="Helvetica,sans-Serif" font-size="10.00">+ clone()</text>
<text text-anchor="start" x="34.5" y="-272" font-family="Helvetica,sans-Serif" font-size="10.00">+ onStart()</text>
<text text-anchor="start" x="34.5" y="-261" font-family="Helvetica,sans-Serif" font-size="10.00">+ onStop()</text>
<text text-anchor="start" x="34.5" y="-250" font-family="Helvetica,sans-Serif" font-size="10.00"># Component()</text>
<text text-anchor="start" x="34.5" y="-239" font-family="Helvetica,sans-Serif" font-size="10.00"># Component()</text>
</a>
</g>
</g>
<!-- Node2&#45;&gt;Node1 -->
<g id="edge1" class="edge">
<title>Node2&#45;&gt;Node1</title>
<path fill="none" stroke="midnightblue" d="M116.95,-223.3C123.32,-213.03 129.96,-202.66 136.5,-193 147.03,-177.45 158.81,-161.16 170.29,-145.8"/>
<polygon fill="none" stroke="midnightblue" points="113.93,-221.53 111.67,-231.88 119.89,-225.19 113.93,-221.53"/>
</g>
<!-- Node3 -->
<g id="node3" class="node">
<title>Node3</title>
<g id="a_node3"><a xlink:href="classWAL_1_1Entity.html" target="_top" xlink:title="An entity of the WAL&#39;s ECS.">
<polygon fill="white" stroke="black" points="0,-441.5 0,-707.5 137,-707.5 137,-441.5 0,-441.5"/>
<text text-anchor="middle" x="68.5" y="-695.5" font-family="Helvetica,sans-Serif" font-size="10.00">WAL::Entity</text>
<polyline fill="none" stroke="black" points="0,-688.5 137,-688.5 "/>
<text text-anchor="start" x="8" y="-676.5" font-family="Helvetica,sans-Serif" font-size="10.00">&#45; _uid</text>
<text text-anchor="start" x="8" y="-665.5" font-family="Helvetica,sans-Serif" font-size="10.00">&#45; _name</text>
<text text-anchor="start" x="8" y="-654.5" font-family="Helvetica,sans-Serif" font-size="10.00">&#45; _disabled</text>
<text text-anchor="start" x="8" y="-643.5" font-family="Helvetica,sans-Serif" font-size="10.00">&#45; _shouldDelete</text>
<text text-anchor="start" x="8" y="-632.5" font-family="Helvetica,sans-Serif" font-size="10.00">&#45; _notifyScene</text>
<text text-anchor="start" x="8" y="-621.5" font-family="Helvetica,sans-Serif" font-size="10.00">&#45; _components</text>
<text text-anchor="start" x="8" y="-610.5" font-family="Helvetica,sans-Serif" font-size="10.00">&#45; Scene</text>
<text text-anchor="start" x="8" y="-599.5" font-family="Helvetica,sans-Serif" font-size="10.00">&#45; nextID</text>
<polyline fill="none" stroke="black" points="0,-592.5 137,-592.5 "/>
<text text-anchor="start" x="8" y="-580.5" font-family="Helvetica,sans-Serif" font-size="10.00">+ getUid()</text>
<text text-anchor="start" x="8" y="-569.5" font-family="Helvetica,sans-Serif" font-size="10.00">+ getName()</text>
<text text-anchor="start" x="8" y="-558.5" font-family="Helvetica,sans-Serif" font-size="10.00">+ setName()</text>
<text text-anchor="start" x="8" y="-547.5" font-family="Helvetica,sans-Serif" font-size="10.00">+ isDisable()</text>
<text text-anchor="start" x="8" y="-536.5" font-family="Helvetica,sans-Serif" font-size="10.00">+ setDisable()</text>
<text text-anchor="start" x="8" y="-525.5" font-family="Helvetica,sans-Serif" font-size="10.00">+ shouldDelete()</text>
<text text-anchor="start" x="8" y="-514.5" font-family="Helvetica,sans-Serif" font-size="10.00">+ scheduleDeletion()</text>
<text text-anchor="start" x="8" y="-503.5" font-family="Helvetica,sans-Serif" font-size="10.00">+ getComponent()</text>
<text text-anchor="start" x="8" y="-492.5" font-family="Helvetica,sans-Serif" font-size="10.00">+ tryGetComponent()</text>
<text text-anchor="start" x="8" y="-481.5" font-family="Helvetica,sans-Serif" font-size="10.00">+ getComponent()</text>
<text text-anchor="start" x="8" y="-470.5" font-family="Helvetica,sans-Serif" font-size="10.00">and 13 more...</text>
<text text-anchor="start" x="8" y="-459.5" font-family="Helvetica,sans-Serif" font-size="10.00">&#45; _componentAdded()</text>
<text text-anchor="start" x="8" y="-448.5" font-family="Helvetica,sans-Serif" font-size="10.00">&#45; _componentRemoved()</text>
</a>
</g>
</g>
<!-- Node3&#45;&gt;Node2 -->
<g id="edge2" class="edge">
<title>Node3&#45;&gt;Node2</title>
<path fill="none" stroke="#404040" d="M72.29,-441.35C73.02,-415.92 73.76,-390.16 74.41,-367.47"/>
<polygon fill="none" stroke="#404040" points="74.42,-367.2 70.59,-361.09 74.76,-355.2 78.59,-361.31 74.42,-367.2"/>
<text text-anchor="middle" x="96.5" y="-415" font-family="Helvetica,sans-Serif" font-size="10.00"> #_entity</text>
</g>
<!-- Node4 -->
<g id="node4" class="node">
<title>Node4</title>
<g id="a_node4"><a xlink:href="classWAL_1_1Scene.html" target="_top" xlink:title="Represent a single scene that contains entities.">
<polygon fill="white" stroke="black" points="0,-755.5 0,-999.5 137,-999.5 137,-755.5 0,-755.5"/>
<text text-anchor="middle" x="68.5" y="-987.5" font-family="Helvetica,sans-Serif" font-size="10.00">WAL::Scene</text>
<polyline fill="none" stroke="black" points="0,-980.5 137,-980.5 "/>
<text text-anchor="start" x="8" y="-968.5" font-family="Helvetica,sans-Serif" font-size="10.00">+ Entity</text>
<text text-anchor="start" x="8" y="-957.5" font-family="Helvetica,sans-Serif" font-size="10.00">&#45; _id</text>
<text text-anchor="start" x="8" y="-946.5" font-family="Helvetica,sans-Serif" font-size="10.00">&#45; _entities</text>
<text text-anchor="start" x="8" y="-935.5" font-family="Helvetica,sans-Serif" font-size="10.00">&#45; _newEntities</text>
<text text-anchor="start" x="8" y="-924.5" font-family="Helvetica,sans-Serif" font-size="10.00">&#45; _views</text>
<text text-anchor="start" x="8" y="-913.5" font-family="Helvetica,sans-Serif" font-size="10.00">&#45; _nextID</text>
<polyline fill="none" stroke="black" points="0,-906.5 137,-906.5 "/>
<text text-anchor="start" x="8" y="-894.5" font-family="Helvetica,sans-Serif" font-size="10.00">+ getID()</text>
<text text-anchor="start" x="8" y="-883.5" font-family="Helvetica,sans-Serif" font-size="10.00">+ getEntities()</text>
<text text-anchor="start" x="8" y="-872.5" font-family="Helvetica,sans-Serif" font-size="10.00">+ addEntity()</text>
<text text-anchor="start" x="8" y="-861.5" font-family="Helvetica,sans-Serif" font-size="10.00">+ scheduleNewEntity()</text>
<text text-anchor="start" x="8" y="-850.5" font-family="Helvetica,sans-Serif" font-size="10.00">+ view()</text>
<text text-anchor="start" x="8" y="-839.5" font-family="Helvetica,sans-Serif" font-size="10.00">+ applyChanges()</text>
<text text-anchor="start" x="8" y="-828.5" font-family="Helvetica,sans-Serif" font-size="10.00">+ Scene()</text>
<text text-anchor="start" x="8" y="-817.5" font-family="Helvetica,sans-Serif" font-size="10.00">+ Scene()</text>
<text text-anchor="start" x="8" y="-806.5" font-family="Helvetica,sans-Serif" font-size="10.00">+ ~Scene()</text>
<text text-anchor="start" x="8" y="-795.5" font-family="Helvetica,sans-Serif" font-size="10.00">+ operator=()</text>
<text text-anchor="start" x="8" y="-784.5" font-family="Helvetica,sans-Serif" font-size="10.00">&#45; _componentAdded()</text>
<text text-anchor="start" x="8" y="-773.5" font-family="Helvetica,sans-Serif" font-size="10.00">&#45; _componentRemoved()</text>
<text text-anchor="start" x="8" y="-762.5" font-family="Helvetica,sans-Serif" font-size="10.00">&#45; _entityRemoved()</text>
</a>
</g>
</g>
<!-- Node4&#45;&gt;Node3 -->
<g id="edge3" class="edge">
<title>Node4&#45;&gt;Node3</title>
<path fill="none" stroke="#404040" d="M68.5,-755.37C68.5,-743.73 68.5,-731.85 68.5,-720.02"/>
<polygon fill="none" stroke="#404040" points="68.5,-719.71 64.5,-713.71 68.5,-707.71 72.5,-713.71 68.5,-719.71"/>
<text text-anchor="middle" x="91.5" y="-729" font-family="Helvetica,sans-Serif" font-size="10.00"> +_scene</text>
</g>
<!-- Node5 -->
<g id="node5" class="node">
<title>Node5</title>
<g id="a_node5"><a xlink:href="classRAY_1_1Shader.html" target="_top" xlink:title=" ">
<polygon fill="white" stroke="black" points="145.5,-193.5 145.5,-393.5 307.5,-393.5 307.5,-193.5 145.5,-193.5"/>
<text text-anchor="middle" x="226.5" y="-381.5" font-family="Helvetica,sans-Serif" font-size="10.00">RAY::Shader</text>
<polyline fill="none" stroke="black" points="145.5,-374.5 307.5,-374.5 "/>
<text text-anchor="start" x="153.5" y="-362.5" font-family="Helvetica,sans-Serif" font-size="10.00">&#45; _vertexFile</text>
<text text-anchor="start" x="153.5" y="-351.5" font-family="Helvetica,sans-Serif" font-size="10.00">&#45; _fragmentFile</text>
<text text-anchor="start" x="153.5" y="-340.5" font-family="Helvetica,sans-Serif" font-size="10.00">&#45; _rayLibShader</text>
<text text-anchor="start" x="153.5" y="-329.5" font-family="Helvetica,sans-Serif" font-size="10.00">&#45; _shaderIndexVars</text>
<polyline fill="none" stroke="black" points="145.5,-322.5 307.5,-322.5 "/>
<text text-anchor="start" x="153.5" y="-310.5" font-family="Helvetica,sans-Serif" font-size="10.00">+ getShaderPtr()</text>
<text text-anchor="start" x="153.5" y="-299.5" font-family="Helvetica,sans-Serif" font-size="10.00">+ setShaderUniformVar()</text>
<text text-anchor="start" x="153.5" y="-288.5" font-family="Helvetica,sans-Serif" font-size="10.00">+ setShaderUniformVar()</text>
<text text-anchor="start" x="153.5" y="-277.5" font-family="Helvetica,sans-Serif" font-size="10.00">+ setShaderUniformVar()</text>
<text text-anchor="start" x="153.5" y="-266.5" font-family="Helvetica,sans-Serif" font-size="10.00">+ setLocation()</text>
<text text-anchor="start" x="153.5" y="-255.5" font-family="Helvetica,sans-Serif" font-size="10.00">+ Shader()</text>
<text text-anchor="start" x="153.5" y="-244.5" font-family="Helvetica,sans-Serif" font-size="10.00">+ Shader()</text>
<text text-anchor="start" x="153.5" y="-233.5" font-family="Helvetica,sans-Serif" font-size="10.00">+ ~Shader()</text>
<text text-anchor="start" x="153.5" y="-222.5" font-family="Helvetica,sans-Serif" font-size="10.00">+ operator=()</text>
<text text-anchor="start" x="153.5" y="-211.5" font-family="Helvetica,sans-Serif" font-size="10.00">+ BeginUsingCustomShader()</text>
<text text-anchor="start" x="153.5" y="-200.5" font-family="Helvetica,sans-Serif" font-size="10.00">+ EndUsingCustomShader()</text>
</a>
</g>
</g>
<!-- Node5&#45;&gt;Node1 -->
<g id="edge4" class="edge">
<title>Node5&#45;&gt;Node1</title>
<path fill="none" stroke="#404040" d="M226.5,-193.48C226.5,-181.49 226.5,-169.35 226.5,-157.61"/>
<polygon fill="none" stroke="#404040" points="226.5,-157.56 222.5,-151.56 226.5,-145.56 230.5,-151.56 226.5,-157.56"/>
<text text-anchor="middle" x="249" y="-167" font-family="Helvetica,sans-Serif" font-size="10.00"> +shader</text>
</g>
<!-- Node6 -->
<g id="node6" class="node">
<title>Node6</title>
<g id="a_node6"><a xlink:href="classRAY_1_1Cache.html" target="_top" xlink:title=" ">
<polygon fill="white" stroke="black" points="155,-513 155,-636 304,-636 304,-513 155,-513"/>
<text text-anchor="middle" x="229.5" y="-624" font-family="Helvetica,sans-Serif" font-size="10.00">RAY::Cache&lt; RAY::Shader &gt;</text>
<polyline fill="none" stroke="black" points="155,-617 304,-617 "/>
<text text-anchor="start" x="163" y="-605" font-family="Helvetica,sans-Serif" font-size="10.00">&#45; _dataLoader</text>
<text text-anchor="start" x="163" y="-594" font-family="Helvetica,sans-Serif" font-size="10.00">&#45; _dataUnloader</text>
<text text-anchor="start" x="163" y="-583" font-family="Helvetica,sans-Serif" font-size="10.00">&#45; _cache</text>
<polyline fill="none" stroke="black" points="155,-576 304,-576 "/>
<text text-anchor="start" x="163" y="-564" font-family="Helvetica,sans-Serif" font-size="10.00">+ Cache()</text>
<text text-anchor="start" x="163" y="-553" font-family="Helvetica,sans-Serif" font-size="10.00">+ Cache()</text>
<text text-anchor="start" x="163" y="-542" font-family="Helvetica,sans-Serif" font-size="10.00">+ ~Cache()</text>
<text text-anchor="start" x="163" y="-531" font-family="Helvetica,sans-Serif" font-size="10.00">+ operator=()</text>
<text text-anchor="start" x="163" y="-520" font-family="Helvetica,sans-Serif" font-size="10.00">+ fetch()</text>
</a>
</g>
</g>
<!-- Node6&#45;&gt;Node5 -->
<g id="edge5" class="edge">
<title>Node6&#45;&gt;Node5</title>
<path fill="none" stroke="#404040" d="M228.85,-512.96C228.51,-481.64 228.09,-442.41 227.7,-405.86"/>
<polygon fill="none" stroke="#404040" points="227.69,-405.59 223.63,-399.63 227.57,-393.59 231.63,-399.54 227.69,-405.59"/>
<text text-anchor="middle" x="269" y="-415" font-family="Helvetica,sans-Serif" font-size="10.00"> &#45;_shadersCache</text>
</g>
<!-- Node7 -->
<g id="node7" class="node">
<title>Node7</title>
<g id="a_node7"><a xlink:href="classWAL_1_1Callback.html" target="_top" xlink:title=" ">
<polygon fill="white" stroke="black" points="325.5,-210 325.5,-377 493.5,-377 493.5,-210 325.5,-210"/>
<text text-anchor="start" x="333.5" y="-365" font-family="Helvetica,sans-Serif" font-size="10.00">WAL::Callback&lt; WAL</text>
<text text-anchor="start" x="333.5" y="-354" font-family="Helvetica,sans-Serif" font-size="10.00">::Entity &amp;, WAL::Wal</text>
<text text-anchor="middle" x="409.5" y="-343" font-family="Helvetica,sans-Serif" font-size="10.00"> &amp;, std::chrono::nanoseconds &gt;</text>
<polyline fill="none" stroke="black" points="325.5,-336 493.5,-336 "/>
<text text-anchor="start" x="333.5" y="-324" font-family="Helvetica,sans-Serif" font-size="10.00">&#45; _nextID</text>
<text text-anchor="start" x="333.5" y="-313" font-family="Helvetica,sans-Serif" font-size="10.00">&#45; _functions</text>
<polyline fill="none" stroke="black" points="325.5,-306 493.5,-306 "/>
<text text-anchor="start" x="333.5" y="-294" font-family="Helvetica,sans-Serif" font-size="10.00">+ addCallback()</text>
<text text-anchor="start" x="333.5" y="-283" font-family="Helvetica,sans-Serif" font-size="10.00">+ removeCallback()</text>
<text text-anchor="start" x="333.5" y="-272" font-family="Helvetica,sans-Serif" font-size="10.00">+ operator()()</text>
<text text-anchor="start" x="333.5" y="-261" font-family="Helvetica,sans-Serif" font-size="10.00">+ Callback()</text>
<text text-anchor="start" x="333.5" y="-250" font-family="Helvetica,sans-Serif" font-size="10.00">+ Callback()</text>
<text text-anchor="start" x="333.5" y="-239" font-family="Helvetica,sans-Serif" font-size="10.00">+ Callback()</text>
<text text-anchor="start" x="333.5" y="-228" font-family="Helvetica,sans-Serif" font-size="10.00">+ ~Callback()</text>
<text text-anchor="start" x="333.5" y="-217" font-family="Helvetica,sans-Serif" font-size="10.00">+ operator=()</text>
</a>
</g>
</g>
<!-- Node7&#45;&gt;Node1 -->
<g id="edge6" class="edge">
<title>Node7&#45;&gt;Node1</title>
<path fill="none" stroke="#404040" d="M340.32,-209.89C325.23,-191.88 309.29,-172.85 294.26,-154.9"/>
<polygon fill="none" stroke="#404040" points="294.2,-154.83 287.28,-152.8 286.49,-145.63 293.41,-147.66 294.2,-154.83"/>
<text text-anchor="middle" x="330.5" y="-167" font-family="Helvetica,sans-Serif" font-size="10.00"> +update</text>
</g>
</g>
</svg>
