<?xml version="1.0" encoding="UTF-8" standalone="no"?>
<!DOCTYPE svg PUBLIC "-//W3C//DTD SVG 1.1//EN"
 "http://www.w3.org/Graphics/SVG/1.1/DTD/svg11.dtd">
<!-- Generated by graphviz version 2.43.0 (0)
 -->
<!-- Title: RAY::Audio::IAudio Pages: 1 -->
<svg width="264pt" height="369pt"
 viewBox="0.00 0.00 263.50 369.00" xmlns="http://www.w3.org/2000/svg" xmlns:xlink="http://www.w3.org/1999/xlink">
<g id="graph0" class="graph" transform="scale(1 1) rotate(0) translate(4 365)">
<title>RAY::Audio::IAudio</title>
<polygon fill="white" stroke="transparent" points="-4,4 -4,-365 259.5,-365 259.5,4 -4,4"/>
<!-- Node1 -->
<g id="node1" class="node">
<title>Node1</title>
<g id="a_node1"><a xlink:title="Interface for Audio ressources.">
<polygon fill="#bfbfbf" stroke="black" points="82.5,-226.5 82.5,-360.5 186.5,-360.5 186.5,-226.5 82.5,-226.5"/>
<text text-anchor="middle" x="134.5" y="-348.5" font-family="Helvetica,sans-Serif" font-size="10.00">RAY::Audio::IAudio</text>
<polyline fill="none" stroke="black" points="82.5,-341.5 186.5,-341.5 "/>
<text text-anchor="middle" x="134.5" y="-329.5" font-family="Helvetica,sans-Serif" font-size="10.00"> </text>
<polyline fill="none" stroke="black" points="82.5,-322.5 186.5,-322.5 "/>
<text text-anchor="start" x="90.5" y="-310.5" font-family="Helvetica,sans-Serif" font-size="10.00">+ ~IAudio()</text>
<text text-anchor="start" x="90.5" y="-299.5" font-family="Helvetica,sans-Serif" font-size="10.00">+ isPlaying()</text>
<text text-anchor="start" x="90.5" y="-288.5" font-family="Helvetica,sans-Serif" font-size="10.00">+ play()</text>
<text text-anchor="start" x="90.5" y="-277.5" font-family="Helvetica,sans-Serif" font-size="10.00">+ stop()</text>
<text text-anchor="start" x="90.5" y="-266.5" font-family="Helvetica,sans-Serif" font-size="10.00">+ pause()</text>
<text text-anchor="start" x="90.5" y="-255.5" font-family="Helvetica,sans-Serif" font-size="10.00">+ resume()</text>
<text text-anchor="start" x="90.5" y="-244.5" font-family="Helvetica,sans-Serif" font-size="10.00">+ setVolume()</text>
<text text-anchor="start" x="90.5" y="-233.5" font-family="Helvetica,sans-Serif" font-size="10.00">+ setPitch()</text>
</a>
</g>
</g>
<!-- Node2 -->
<g id="node2" class="node">
<title>Node2</title>
<g id="a_node2"><a xlink:href="classRAY_1_1Audio_1_1Music.html" target="_top" xlink:title="A manager for music stream.">
<polygon fill="white" stroke="black" points="0,-0.5 0,-189.5 133,-189.5 133,-0.5 0,-0.5"/>
<text text-anchor="middle" x="66.5" y="-177.5" font-family="Helvetica,sans-Serif" font-size="10.00">RAY::Audio::Music</text>
<polyline fill="none" stroke="black" points="0,-170.5 133,-170.5 "/>
<text text-anchor="start" x="8" y="-158.5" font-family="Helvetica,sans-Serif" font-size="10.00">&#45; _music</text>
<text text-anchor="start" x="8" y="-147.5" font-family="Helvetica,sans-Serif" font-size="10.00">&#45; _musicsCache</text>
<polyline fill="none" stroke="black" points="0,-140.5 133,-140.5 "/>
<text text-anchor="start" x="8" y="-128.5" font-family="Helvetica,sans-Serif" font-size="10.00">+ Music()</text>
<text text-anchor="start" x="8" y="-117.5" font-family="Helvetica,sans-Serif" font-size="10.00">+ ~Music()</text>
<text text-anchor="start" x="8" y="-106.5" font-family="Helvetica,sans-Serif" font-size="10.00">+ Music()</text>
<text text-anchor="start" x="8" y="-95.5" font-family="Helvetica,sans-Serif" font-size="10.00">+ operator=()</text>
<text text-anchor="start" x="8" y="-84.5" font-family="Helvetica,sans-Serif" font-size="10.00">+ isPlaying()</text>
<text text-anchor="start" x="8" y="-73.5" font-family="Helvetica,sans-Serif" font-size="10.00">+ play()</text>
<text text-anchor="start" x="8" y="-62.5" font-family="Helvetica,sans-Serif" font-size="10.00">+ stop()</text>
<text text-anchor="start" x="8" y="-51.5" font-family="Helvetica,sans-Serif" font-size="10.00">+ pause()</text>
<text text-anchor="start" x="8" y="-40.5" font-family="Helvetica,sans-Serif" font-size="10.00">+ resume()</text>
<text text-anchor="start" x="8" y="-29.5" font-family="Helvetica,sans-Serif" font-size="10.00">+ setVolume()</text>
<text text-anchor="start" x="8" y="-18.5" font-family="Helvetica,sans-Serif" font-size="10.00">+ setPitch()</text>
<text text-anchor="start" x="8" y="-7.5" font-family="Helvetica,sans-Serif" font-size="10.00">+ updateMusicStream()</text>
</a>
</g>
</g>
<!-- Node1&#45;&gt;Node2 -->
<g id="edge1" class="edge">
<title>Node1&#45;&gt;Node2</title>
<path fill="none" stroke="midnightblue" d="M108.27,-216.7C105.19,-207.8 102.02,-198.64 98.87,-189.53"/>
<polygon fill="none" stroke="midnightblue" points="105,-217.94 111.57,-226.25 111.61,-215.65 105,-217.94"/>
</g>
<!-- Node3 -->
<g id="node3" class="node">
<title>Node3</title>
<g id="a_node3"><a xlink:href="classRAY_1_1Audio_1_1Sound.html" target="_top" xlink:title="A manager for sound stream.">
<polygon fill="white" stroke="black" points="151.5,-6 151.5,-184 255.5,-184 255.5,-6 151.5,-6"/>
<text text-anchor="middle" x="203.5" y="-172" font-family="Helvetica,sans-Serif" font-size="10.00">RAY::Audio::Sound</text>
<polyline fill="none" stroke="black" points="151.5,-165 255.5,-165 "/>
<text text-anchor="start" x="159.5" y="-153" font-family="Helvetica,sans-Serif" font-size="10.00">&#45; _sound</text>
<text text-anchor="start" x="159.5" y="-142" font-family="Helvetica,sans-Serif" font-size="10.00">&#45; _soundsCache</text>
<polyline fill="none" stroke="black" points="151.5,-135 255.5,-135 "/>
<text text-anchor="start" x="159.5" y="-123" font-family="Helvetica,sans-Serif" font-size="10.00">+ Sound()</text>
<text text-anchor="start" x="159.5" y="-112" font-family="Helvetica,sans-Serif" font-size="10.00">+ ~Sound()</text>
<text text-anchor="start" x="159.5" y="-101" font-family="Helvetica,sans-Serif" font-size="10.00">+ Sound()</text>
<text text-anchor="start" x="159.5" y="-90" font-family="Helvetica,sans-Serif" font-size="10.00">+ operator=()</text>
<text text-anchor="start" x="159.5" y="-79" font-family="Helvetica,sans-Serif" font-size="10.00">+ isPlaying()</text>
<text text-anchor="start" x="159.5" y="-68" font-family="Helvetica,sans-Serif" font-size="10.00">+ play()</text>
<text text-anchor="start" x="159.5" y="-57" font-family="Helvetica,sans-Serif" font-size="10.00">+ stop()</text>
<text text-anchor="start" x="159.5" y="-46" font-family="Helvetica,sans-Serif" font-size="10.00">+ pause()</text>
<text text-anchor="start" x="159.5" y="-35" font-family="Helvetica,sans-Serif" font-size="10.00">+ resume()</text>
<text text-anchor="start" x="159.5" y="-24" font-family="Helvetica,sans-Serif" font-size="10.00">+ setVolume()</text>
<text text-anchor="start" x="159.5" y="-13" font-family="Helvetica,sans-Serif" font-size="10.00">+ setPitch()</text>
</a>
</g>
</g>
<!-- Node1&#45;&gt;Node3 -->
<g id="edge2" class="edge">
<title>Node1&#45;&gt;Node3</title>
<path fill="none" stroke="midnightblue" d="M161.14,-216.64C164.86,-206.04 168.71,-195.08 172.5,-184.28"/>
<polygon fill="none" stroke="midnightblue" points="157.77,-215.65 157.76,-226.25 164.38,-217.97 157.77,-215.65"/>
</g>
</g>
</svg>
