<?xml version="1.0" encoding="UTF-8" standalone="no"?>
<!DOCTYPE svg PUBLIC "-//W3C//DTD SVG 1.1//EN"
 "http://www.w3.org/Graphics/SVG/1.1/DTD/svg11.dtd">
<!-- Generated by graphviz version 2.43.0 (0)
 -->
<!-- Title: RAY::Audio::Sound Pages: 1 -->
<svg width="262pt" height="358pt"
 viewBox="0.00 0.00 262.00 358.00" xmlns="http://www.w3.org/2000/svg" xmlns:xlink="http://www.w3.org/1999/xlink">
<g id="graph0" class="graph" transform="scale(1 1) rotate(0) translate(4 354)">
<title>RAY::Audio::Sound</title>
<polygon fill="white" stroke="transparent" points="-4,4 -4,-354 258,-354 258,4 -4,4"/>
<!-- Node1 -->
<g id="node1" class="node">
<title>Node1</title>
<g id="a_node1"><a xlink:title="A manager for sound stream.">
<polygon fill="#bfbfbf" stroke="black" points="68,-0.5 68,-167.5 172,-167.5 172,-0.5 68,-0.5"/>
<text text-anchor="middle" x="120" y="-155.5" font-family="Helvetica,sans-Serif" font-size="10.00">RAY::Audio::Sound</text>
<polyline fill="none" stroke="black" points="68,-148.5 172,-148.5 "/>
<text text-anchor="start" x="76" y="-136.5" font-family="Helvetica,sans-Serif" font-size="10.00">&#45; _sound</text>
<polyline fill="none" stroke="black" points="68,-129.5 172,-129.5 "/>
<text text-anchor="start" x="76" y="-117.5" font-family="Helvetica,sans-Serif" font-size="10.00">+ Sound()</text>
<text text-anchor="start" x="76" y="-106.5" font-family="Helvetica,sans-Serif" font-size="10.00">+ ~Sound()</text>
<text text-anchor="start" x="76" y="-95.5" font-family="Helvetica,sans-Serif" font-size="10.00">+ Sound()</text>
<text text-anchor="start" x="76" y="-84.5" font-family="Helvetica,sans-Serif" font-size="10.00">+ operator=()</text>
<text text-anchor="start" x="76" y="-73.5" font-family="Helvetica,sans-Serif" font-size="10.00">+ isPlaying()</text>
<text text-anchor="start" x="76" y="-62.5" font-family="Helvetica,sans-Serif" font-size="10.00">+ play()</text>
<text text-anchor="start" x="76" y="-51.5" font-family="Helvetica,sans-Serif" font-size="10.00">+ stop()</text>
<text text-anchor="start" x="76" y="-40.5" font-family="Helvetica,sans-Serif" font-size="10.00">+ pause()</text>
<text text-anchor="start" x="76" y="-29.5" font-family="Helvetica,sans-Serif" font-size="10.00">+ resume()</text>
<text text-anchor="start" x="76" y="-18.5" font-family="Helvetica,sans-Serif" font-size="10.00">+ setVolume()</text>
<text text-anchor="start" x="76" y="-7.5" font-family="Helvetica,sans-Serif" font-size="10.00">+ setPitch()</text>
</a>
</g>
</g>
<!-- Node2 -->
<g id="node2" class="node">
<title>Node2</title>
<g id="a_node2"><a xlink:href="classRAY_1_1Audio_1_1IAudio.html" target="_top" xlink:title="Interface for Audio ressources.">
<polygon fill="white" stroke="black" points="0,-215.5 0,-349.5 104,-349.5 104,-215.5 0,-215.5"/>
<text text-anchor="middle" x="52" y="-337.5" font-family="Helvetica,sans-Serif" font-size="10.00">RAY::Audio::IAudio</text>
<polyline fill="none" stroke="black" points="0,-330.5 104,-330.5 "/>
<text text-anchor="middle" x="52" y="-318.5" font-family="Helvetica,sans-Serif" font-size="10.00"> </text>
<polyline fill="none" stroke="black" points="0,-311.5 104,-311.5 "/>
<text text-anchor="start" x="8" y="-299.5" font-family="Helvetica,sans-Serif" font-size="10.00">+ ~IAudio()</text>
<text text-anchor="start" x="8" y="-288.5" font-family="Helvetica,sans-Serif" font-size="10.00">+ isPlaying()</text>
<text text-anchor="start" x="8" y="-277.5" font-family="Helvetica,sans-Serif" font-size="10.00">+ play()</text>
<text text-anchor="start" x="8" y="-266.5" font-family="Helvetica,sans-Serif" font-size="10.00">+ stop()</text>
<text text-anchor="start" x="8" y="-255.5" font-family="Helvetica,sans-Serif" font-size="10.00">+ pause()</text>
<text text-anchor="start" x="8" y="-244.5" font-family="Helvetica,sans-Serif" font-size="10.00">+ resume()</text>
<text text-anchor="start" x="8" y="-233.5" font-family="Helvetica,sans-Serif" font-size="10.00">+ setVolume()</text>
<text text-anchor="start" x="8" y="-222.5" font-family="Helvetica,sans-Serif" font-size="10.00">+ setPitch()</text>
</a>
</g>
</g>
<!-- Node2&#45;&gt;Node1 -->
<g id="edge1" class="edge">
<title>Node2&#45;&gt;Node1</title>
<path fill="none" stroke="midnightblue" d="M78.32,-205.45C82.6,-193.08 87.05,-180.22 91.38,-167.7"/>
<polygon fill="none" stroke="midnightblue" points="74.89,-204.65 74.93,-215.25 81.5,-206.94 74.89,-204.65"/>
</g>
<!-- Node3 -->
<g id="node3" class="node">
<title>Node3</title>
<g id="a_node3"><a xlink:href="classRAY_1_1Cache.html" target="_top" xlink:title=" ">
<polygon fill="white" stroke="black" points="122,-215.5 122,-349.5 254,-349.5 254,-215.5 122,-215.5"/>
<text text-anchor="start" x="130" y="-337.5" font-family="Helvetica,sans-Serif" font-size="10.00">RAY::Cache&lt; RAY::Audio</text>
<text text-anchor="middle" x="188" y="-326.5" font-family="Helvetica,sans-Serif" font-size="10.00">::Sound &gt;</text>
<polyline fill="none" stroke="black" points="122,-319.5 254,-319.5 "/>
<text text-anchor="start" x="130" y="-307.5" font-family="Helvetica,sans-Serif" font-size="10.00">&#45; _dataLoader</text>
<text text-anchor="start" x="130" y="-296.5" font-family="Helvetica,sans-Serif" font-size="10.00">&#45; _dataUnloader</text>
<text text-anchor="start" x="130" y="-285.5" font-family="Helvetica,sans-Serif" font-size="10.00">&#45; _cache</text>
<polyline fill="none" stroke="black" points="122,-278.5 254,-278.5 "/>
<text text-anchor="start" x="130" y="-266.5" font-family="Helvetica,sans-Serif" font-size="10.00">+ Cache()</text>
<text text-anchor="start" x="130" y="-255.5" font-family="Helvetica,sans-Serif" font-size="10.00">+ Cache()</text>
<text text-anchor="start" x="130" y="-244.5" font-family="Helvetica,sans-Serif" font-size="10.00">+ ~Cache()</text>
<text text-anchor="start" x="130" y="-233.5" font-family="Helvetica,sans-Serif" font-size="10.00">+ operator=()</text>
<text text-anchor="start" x="130" y="-222.5" font-family="Helvetica,sans-Serif" font-size="10.00">+ fetch()</text>
</a>
</g>
</g>
<!-- Node3&#45;&gt;Node1 -->
<g id="edge2" class="edge">
<title>Node3&#45;&gt;Node1</title>
<path fill="none" stroke="#404040" d="M165.07,-215.25C161.07,-203.68 156.84,-191.45 152.63,-179.3"/>
<polygon fill="none" stroke="#404040" points="152.54,-179.04 146.8,-174.68 148.62,-167.7 154.36,-172.06 152.54,-179.04"/>
<text text-anchor="middle" x="196.5" y="-189" font-family="Helvetica,sans-Serif" font-size="10.00"> &#45;_soundsCache</text>
</g>
</g>
</svg>
