<?xml version="1.0" encoding="UTF-8" standalone="no"?>
<!DOCTYPE svg PUBLIC "-//W3C//DTD SVG 1.1//EN"
 "http://www.w3.org/Graphics/SVG/1.1/DTD/svg11.dtd">
<!-- Generated by graphviz version 2.43.0 (0)
 -->
<!-- Title: BBM::RenderSystem Pages: 1 -->
<svg width="610pt" height="738pt"
 viewBox="0.00 0.00 610.00 738.00" xmlns="http://www.w3.org/2000/svg" xmlns:xlink="http://www.w3.org/1999/xlink">
<g id="graph0" class="graph" transform="scale(1 1) rotate(0) translate(4 734)">
<title>BBM::RenderSystem</title>
<polygon fill="white" stroke="transparent" points="-4,4 -4,-734 606,-734 606,4 -4,4"/>
<!-- Node1 -->
<g id="node1" class="node">
<title>Node1</title>
<g id="a_node1"><a xlink:title=" ">
<polygon fill="#bfbfbf" stroke="black" points="252,-0.5 252,-178.5 398,-178.5 398,-0.5 252,-0.5"/>
<text text-anchor="middle" x="325" y="-166.5" font-family="Helvetica,sans-Serif" font-size="10.00">BBM::RenderSystem</text>
<polyline fill="none" stroke="black" points="252,-159.5 398,-159.5 "/>
<text text-anchor="start" x="260" y="-147.5" font-family="Helvetica,sans-Serif" font-size="10.00">&#45; _debugMode</text>
<text text-anchor="start" x="260" y="-136.5" font-family="Helvetica,sans-Serif" font-size="10.00">&#45; FPS</text>
<polyline fill="none" stroke="black" points="252,-129.5 398,-129.5 "/>
<text text-anchor="start" x="260" y="-117.5" font-family="Helvetica,sans-Serif" font-size="10.00">+ onSelfUpdate()</text>
<text text-anchor="start" x="260" y="-106.5" font-family="Helvetica,sans-Serif" font-size="10.00">+ onUpdate()</text>
<text text-anchor="start" x="260" y="-95.5" font-family="Helvetica,sans-Serif" font-size="10.00">+ setDebug()</text>
<text text-anchor="start" x="260" y="-84.5" font-family="Helvetica,sans-Serif" font-size="10.00">+ drawBoundingBox()</text>
<text text-anchor="start" x="260" y="-73.5" font-family="Helvetica,sans-Serif" font-size="10.00">+ RenderSystem()</text>
<text text-anchor="start" x="260" y="-62.5" font-family="Helvetica,sans-Serif" font-size="10.00">+ RenderSystem()</text>
<text text-anchor="start" x="260" y="-51.5" font-family="Helvetica,sans-Serif" font-size="10.00">+ ~RenderSystem()</text>
<text text-anchor="start" x="260" y="-40.5" font-family="Helvetica,sans-Serif" font-size="10.00">+ operator=()</text>
<text text-anchor="start" x="260" y="-29.5" font-family="Helvetica,sans-Serif" font-size="10.00">&#45; drawRescaledDrawable()</text>
<text text-anchor="start" x="260" y="-18.5" font-family="Helvetica,sans-Serif" font-size="10.00">&#45; getRescaledPosition()</text>
<text text-anchor="start" x="260" y="-7.5" font-family="Helvetica,sans-Serif" font-size="10.00">&#45; resizeWindow()</text>
</a>
</g>
</g>
<!-- Node2 -->
<g id="node2" class="node">
<title>Node2</title>
<g id="a_node2"><a xlink:href="classWAL_1_1System.html" target="_top" xlink:title=" ">
<polygon fill="white" stroke="black" points="49.5,-259.5 49.5,-437.5 238.5,-437.5 238.5,-259.5 49.5,-259.5"/>
<text text-anchor="start" x="57.5" y="-425.5" font-family="Helvetica,sans-Serif" font-size="10.00">WAL::System&lt; CameraComponent,</text>
<text text-anchor="middle" x="144" y="-414.5" font-family="Helvetica,sans-Serif" font-size="10.00"> PositionComponent &gt;</text>
<polyline fill="none" stroke="black" points="49.5,-407.5 238.5,-407.5 "/>
<text text-anchor="middle" x="144" y="-395.5" font-family="Helvetica,sans-Serif" font-size="10.00"> </text>
<polyline fill="none" stroke="black" points="49.5,-388.5 238.5,-388.5 "/>
<text text-anchor="start" x="57.5" y="-376.5" font-family="Helvetica,sans-Serif" font-size="10.00">+ ~System()</text>
<text text-anchor="start" x="57.5" y="-365.5" font-family="Helvetica,sans-Serif" font-size="10.00">+ System()</text>
<text text-anchor="start" x="57.5" y="-354.5" font-family="Helvetica,sans-Serif" font-size="10.00">+ getView()</text>
<text text-anchor="start" x="57.5" y="-343.5" font-family="Helvetica,sans-Serif" font-size="10.00">+ onUpdate()</text>
<text text-anchor="start" x="57.5" y="-332.5" font-family="Helvetica,sans-Serif" font-size="10.00">+ onFixedUpdate()</text>
<text text-anchor="start" x="57.5" y="-321.5" font-family="Helvetica,sans-Serif" font-size="10.00">+ onSelfUpdate()</text>
<text text-anchor="start" x="57.5" y="-310.5" font-family="Helvetica,sans-Serif" font-size="10.00">+ update()</text>
<text text-anchor="start" x="57.5" y="-299.5" font-family="Helvetica,sans-Serif" font-size="10.00">+ fixedUpdate()</text>
<text text-anchor="start" x="57.5" y="-288.5" font-family="Helvetica,sans-Serif" font-size="10.00"># System()</text>
<text text-anchor="start" x="57.5" y="-277.5" font-family="Helvetica,sans-Serif" font-size="10.00"># System()</text>
<text text-anchor="start" x="57.5" y="-266.5" font-family="Helvetica,sans-Serif" font-size="10.00"># operator=()</text>
</a>
</g>
</g>
<!-- Node2&#45;&gt;Node1 -->
<g id="edge1" class="edge">
<title>Node2&#45;&gt;Node1</title>
<path fill="none" stroke="midnightblue" d="M211.89,-251.11C228.57,-227.43 246.34,-202.19 262.74,-178.91"/>
<polygon fill="none" stroke="midnightblue" points="208.93,-249.22 206.04,-259.41 214.66,-253.25 208.93,-249.22"/>
</g>
<!-- Node3 -->
<g id="node3" class="node">
<title>Node3</title>
<g id="a_node3"><a xlink:href="classWAL_1_1ISystem.html" target="_top" xlink:title="A base class that represent a system.">
<polygon fill="white" stroke="black" points="0,-579 0,-669 94,-669 94,-579 0,-579"/>
<text text-anchor="middle" x="47" y="-657" font-family="Helvetica,sans-Serif" font-size="10.00">WAL::ISystem</text>
<polyline fill="none" stroke="black" points="0,-650 94,-650 "/>
<text text-anchor="middle" x="47" y="-638" font-family="Helvetica,sans-Serif" font-size="10.00"> </text>
<polyline fill="none" stroke="black" points="0,-631 94,-631 "/>
<text text-anchor="start" x="8" y="-619" font-family="Helvetica,sans-Serif" font-size="10.00">+ update()</text>
<text text-anchor="start" x="8" y="-608" font-family="Helvetica,sans-Serif" font-size="10.00">+ fixedUpdate()</text>
<text text-anchor="start" x="8" y="-597" font-family="Helvetica,sans-Serif" font-size="10.00">+ getView()</text>
<text text-anchor="start" x="8" y="-586" font-family="Helvetica,sans-Serif" font-size="10.00">+ ~ISystem()</text>
</a>
</g>
</g>
<!-- Node3&#45;&gt;Node2 -->
<g id="edge2" class="edge">
<title>Node3&#45;&gt;Node2</title>
<path fill="none" stroke="midnightblue" d="M66.13,-569.05C79.41,-531.61 97.4,-480.88 112.75,-437.62"/>
<polygon fill="none" stroke="midnightblue" points="62.74,-568.16 62.69,-578.75 69.33,-570.5 62.74,-568.16"/>
</g>
<!-- Node4 -->
<g id="node4" class="node">
<title>Node4</title>
<g id="a_node4"><a xlink:href="classWAL_1_1Wal.html" target="_top" xlink:title="The main WAL class, it is used to setup and run the ECS.">
<polygon fill="white" stroke="black" points="112,-518.5 112,-729.5 222,-729.5 222,-518.5 112,-518.5"/>
<text text-anchor="middle" x="167" y="-717.5" font-family="Helvetica,sans-Serif" font-size="10.00">WAL::Wal</text>
<polyline fill="none" stroke="black" points="112,-710.5 222,-710.5 "/>
<text text-anchor="start" x="120" y="-698.5" font-family="Helvetica,sans-Serif" font-size="10.00">+ shouldClose</text>
<text text-anchor="start" x="120" y="-687.5" font-family="Helvetica,sans-Serif" font-size="10.00">+ timestep</text>
<text text-anchor="start" x="120" y="-676.5" font-family="Helvetica,sans-Serif" font-size="10.00">&#45; _systems</text>
<text text-anchor="start" x="120" y="-665.5" font-family="Helvetica,sans-Serif" font-size="10.00">&#45; _scene</text>
<polyline fill="none" stroke="black" points="112,-658.5 222,-658.5 "/>
<text text-anchor="start" x="120" y="-646.5" font-family="Helvetica,sans-Serif" font-size="10.00">+ getScene()</text>
<text text-anchor="start" x="120" y="-635.5" font-family="Helvetica,sans-Serif" font-size="10.00">+ changeScene()</text>
<text text-anchor="start" x="120" y="-624.5" font-family="Helvetica,sans-Serif" font-size="10.00">+ addSystem()</text>
<text text-anchor="start" x="120" y="-613.5" font-family="Helvetica,sans-Serif" font-size="10.00">+ addSystem()</text>
<text text-anchor="start" x="120" y="-602.5" font-family="Helvetica,sans-Serif" font-size="10.00">+ getSystem()</text>
<text text-anchor="start" x="120" y="-591.5" font-family="Helvetica,sans-Serif" font-size="10.00">+ removeSystem()</text>
<text text-anchor="start" x="120" y="-580.5" font-family="Helvetica,sans-Serif" font-size="10.00">+ run()</text>
<text text-anchor="start" x="120" y="-569.5" font-family="Helvetica,sans-Serif" font-size="10.00">+ Wal()</text>
<text text-anchor="start" x="120" y="-558.5" font-family="Helvetica,sans-Serif" font-size="10.00">+ Wal()</text>
<text text-anchor="start" x="120" y="-547.5" font-family="Helvetica,sans-Serif" font-size="10.00">+ ~Wal()</text>
<text text-anchor="start" x="120" y="-536.5" font-family="Helvetica,sans-Serif" font-size="10.00">+ operator=()</text>
<text text-anchor="start" x="120" y="-525.5" font-family="Helvetica,sans-Serif" font-size="10.00">&#45; _run()</text>
</a>
</g>
</g>
<!-- Node4&#45;&gt;Node2 -->
<g id="edge3" class="edge">
<title>Node4&#45;&gt;Node2</title>
<path fill="none" stroke="#404040" d="M158.21,-518.43C156.31,-495.91 154.31,-472.15 152.43,-449.8"/>
<polygon fill="none" stroke="#404040" points="152.41,-449.5 147.92,-443.86 151.4,-437.54 155.89,-443.19 152.41,-449.5"/>
<text text-anchor="middle" x="174" y="-492" font-family="Helvetica,sans-Serif" font-size="10.00"> #_wal</text>
</g>
<!-- Node5 -->
<g id="node5" class="node">
<title>Node5</title>
<g id="a_node5"><a xlink:href="classRAY_1_1Camera_1_1Camera3D.html" target="_top" xlink:title="Entity representing a Camera in 3D space.">
<polygon fill="white" stroke="black" points="257,-259.5 257,-437.5 393,-437.5 393,-259.5 257,-259.5"/>
<text text-anchor="middle" x="325" y="-425.5" font-family="Helvetica,sans-Serif" font-size="10.00">RAY::Camera::Camera3D</text>
<polyline fill="none" stroke="black" points="257,-418.5 393,-418.5 "/>
<text text-anchor="start" x="265" y="-406.5" font-family="Helvetica,sans-Serif" font-size="10.00">&#45; _mode</text>
<text text-anchor="start" x="265" y="-395.5" font-family="Helvetica,sans-Serif" font-size="10.00">&#45; __pad0__</text>
<polyline fill="none" stroke="black" points="257,-388.5 393,-388.5 "/>
<text text-anchor="start" x="265" y="-376.5" font-family="Helvetica,sans-Serif" font-size="10.00">+ Camera3D()</text>
<text text-anchor="start" x="265" y="-365.5" font-family="Helvetica,sans-Serif" font-size="10.00">+ Camera3D()</text>
<text text-anchor="start" x="265" y="-354.5" font-family="Helvetica,sans-Serif" font-size="10.00">+ ~Camera3D()</text>
<text text-anchor="start" x="265" y="-343.5" font-family="Helvetica,sans-Serif" font-size="10.00">+ operator=()</text>
<text text-anchor="start" x="265" y="-332.5" font-family="Helvetica,sans-Serif" font-size="10.00">+ setPosition()</text>
<text text-anchor="start" x="265" y="-321.5" font-family="Helvetica,sans-Serif" font-size="10.00">+ setTarget()</text>
<text text-anchor="start" x="265" y="-310.5" font-family="Helvetica,sans-Serif" font-size="10.00">+ setUp()</text>
<text text-anchor="start" x="265" y="-299.5" font-family="Helvetica,sans-Serif" font-size="10.00">+ setFovy()</text>
<text text-anchor="start" x="265" y="-288.5" font-family="Helvetica,sans-Serif" font-size="10.00">+ setProjection()</text>
<text text-anchor="start" x="265" y="-277.5" font-family="Helvetica,sans-Serif" font-size="10.00">+ getPosition()</text>
<text text-anchor="start" x="265" y="-266.5" font-family="Helvetica,sans-Serif" font-size="10.00">and 7 more...</text>
</a>
</g>
</g>
<!-- Node5&#45;&gt;Node1 -->
<g id="edge4" class="edge">
<title>Node5&#45;&gt;Node1</title>
<path fill="none" stroke="#404040" d="M325,-259.41C325,-237.37 325,-213.55 325,-190.96"/>
<polygon fill="none" stroke="#404040" points="325,-190.91 321,-184.91 325,-178.91 329,-184.91 325,-190.91"/>
<text text-anchor="middle" x="349.5" y="-200" font-family="Helvetica,sans-Serif" font-size="10.00"> &#45;_camera</text>
</g>
<!-- Node5&#45;&gt;Node5 -->
<g id="edge6" class="edge">
<title>Node5&#45;&gt;Node5</title>
<path fill="none" stroke="#404040" d="M393.13,-373.59C403.76,-369.84 411,-361.47 411,-348.5 411,-340.39 408.17,-334.08 403.45,-329.58"/>
<polygon fill="none" stroke="#404040" points="403.43,-329.56 396.23,-329.92 393.13,-323.41 400.33,-323.05 403.43,-329.56"/>
<text text-anchor="middle" x="435.5" y="-346" font-family="Helvetica,sans-Serif" font-size="10.00"> &#45;_camera</text>
</g>
<!-- Node6 -->
<g id="node6" class="node">
<title>Node6</title>
<g id="a_node6"><a xlink:href="classRAY_1_1Camera_1_1ICamera.html" target="_top" xlink:title="Interface for Cameras.">
<polygon fill="white" stroke="black" points="262.5,-590 262.5,-658 387.5,-658 387.5,-590 262.5,-590"/>
<text text-anchor="middle" x="325" y="-646" font-family="Helvetica,sans-Serif" font-size="10.00">RAY::Camera::ICamera</text>
<polyline fill="none" stroke="black" points="262.5,-639 387.5,-639 "/>
<text text-anchor="middle" x="325" y="-627" font-family="Helvetica,sans-Serif" font-size="10.00"> </text>
<polyline fill="none" stroke="black" points="262.5,-620 387.5,-620 "/>
<text text-anchor="start" x="270.5" y="-608" font-family="Helvetica,sans-Serif" font-size="10.00">+ ~ICamera()</text>
<text text-anchor="start" x="270.5" y="-597" font-family="Helvetica,sans-Serif" font-size="10.00">+ getMatrix()</text>
</a>
</g>
</g>
<!-- Node6&#45;&gt;Node5 -->
<g id="edge5" class="edge">
<title>Node6&#45;&gt;Node5</title>
<path fill="none" stroke="midnightblue" d="M325,-579.51C325,-541.46 325,-484.99 325,-437.54"/>
<polygon fill="none" stroke="midnightblue" points="321.5,-579.74 325,-589.74 328.5,-579.74 321.5,-579.74"/>
</g>
<!-- Node7 -->
<g id="node7" class="node">
<title>Node7</title>
<g id="a_node7"><a xlink:href="classRAY_1_1Window.html" target="_top" xlink:title=" ">
<polygon fill="white" stroke="black" points="478.5,-226.5 478.5,-470.5 587.5,-470.5 587.5,-226.5 478.5,-226.5"/>
<text text-anchor="middle" x="533" y="-458.5" font-family="Helvetica,sans-Serif" font-size="10.00">RAY::Window</text>
<polyline fill="none" stroke="black" points="478.5,-451.5 587.5,-451.5 "/>
<text text-anchor="start" x="486.5" y="-439.5" font-family="Helvetica,sans-Serif" font-size="10.00">&#45; _title</text>
<text text-anchor="start" x="486.5" y="-428.5" font-family="Helvetica,sans-Serif" font-size="10.00">&#45; _isOpen</text>
<text text-anchor="start" x="486.5" y="-417.5" font-family="Helvetica,sans-Serif" font-size="10.00">&#45; _flags</text>
<text text-anchor="start" x="486.5" y="-406.5" font-family="Helvetica,sans-Serif" font-size="10.00">&#45; _displayState</text>
<text text-anchor="start" x="486.5" y="-395.5" font-family="Helvetica,sans-Serif" font-size="10.00">&#45; _instance</text>
<polyline fill="none" stroke="black" points="478.5,-388.5 587.5,-388.5 "/>
<text text-anchor="start" x="486.5" y="-376.5" font-family="Helvetica,sans-Serif" font-size="10.00">+ Window()</text>
<text text-anchor="start" x="486.5" y="-365.5" font-family="Helvetica,sans-Serif" font-size="10.00">+ Window()</text>
<text text-anchor="start" x="486.5" y="-354.5" font-family="Helvetica,sans-Serif" font-size="10.00">+ operator=()</text>
<text text-anchor="start" x="486.5" y="-343.5" font-family="Helvetica,sans-Serif" font-size="10.00">+ ~Window()</text>
<text text-anchor="start" x="486.5" y="-332.5" font-family="Helvetica,sans-Serif" font-size="10.00">+ open()</text>
<text text-anchor="start" x="486.5" y="-321.5" font-family="Helvetica,sans-Serif" font-size="10.00">+ shouldClose()</text>
<text text-anchor="start" x="486.5" y="-310.5" font-family="Helvetica,sans-Serif" font-size="10.00">+ close()</text>
<text text-anchor="start" x="486.5" y="-299.5" font-family="Helvetica,sans-Serif" font-size="10.00">+ isFocused()</text>
<text text-anchor="start" x="486.5" y="-288.5" font-family="Helvetica,sans-Serif" font-size="10.00">+ getDimensions()</text>
<text text-anchor="start" x="486.5" y="-277.5" font-family="Helvetica,sans-Serif" font-size="10.00">+ setDimensions()</text>
<text text-anchor="start" x="486.5" y="-266.5" font-family="Helvetica,sans-Serif" font-size="10.00">and 24 more...</text>
<text text-anchor="start" x="486.5" y="-255.5" font-family="Helvetica,sans-Serif" font-size="10.00">+ getInstance()</text>
<text text-anchor="start" x="486.5" y="-244.5" font-family="Helvetica,sans-Serif" font-size="10.00">+ getInstance()</text>
<text text-anchor="start" x="486.5" y="-233.5" font-family="Helvetica,sans-Serif" font-size="10.00">&#45; Window()</text>
</a>
</g>
</g>
<!-- Node7&#45;&gt;Node1 -->
<g id="edge7" class="edge">
<title>Node7&#45;&gt;Node1</title>
<path fill="none" stroke="#404040" d="M478.3,-239C475.28,-234.53 472.18,-230.17 469,-226 451.01,-202.35 428.72,-179.2 407.09,-158.91"/>
<polygon fill="none" stroke="#404040" points="407.02,-158.84 399.89,-157.71 398.2,-150.7 405.33,-151.83 407.02,-158.84"/>
<text text-anchor="middle" x="478" y="-200" font-family="Helvetica,sans-Serif" font-size="10.00"> &#45;_window</text>
</g>
<!-- Node8 -->
<g id="node8" class="node">
<title>Node8</title>
<g id="a_node8"><a xlink:href="classRAY_1_1Vector2.html" target="_top" xlink:title="A Two&#45;dimensionnal Vector data type.">
<polygon fill="white" stroke="black" points="490.5,-557 490.5,-691 575.5,-691 575.5,-557 490.5,-557"/>
<text text-anchor="middle" x="533" y="-679" font-family="Helvetica,sans-Serif" font-size="10.00">RAY::Vector2</text>
<polyline fill="none" stroke="black" points="490.5,-672 575.5,-672 "/>
<text text-anchor="start" x="498.5" y="-660" font-family="Helvetica,sans-Serif" font-size="10.00">+ x</text>
<text text-anchor="start" x="498.5" y="-649" font-family="Helvetica,sans-Serif" font-size="10.00">+ y</text>
<text text-anchor="start" x="498.5" y="-638" font-family="Helvetica,sans-Serif" font-size="10.00">+ __pad0__</text>
<polyline fill="none" stroke="black" points="490.5,-631 575.5,-631 "/>
<text text-anchor="start" x="498.5" y="-619" font-family="Helvetica,sans-Serif" font-size="10.00">+ Vector2()</text>
<text text-anchor="start" x="498.5" y="-608" font-family="Helvetica,sans-Serif" font-size="10.00">+ Vector2()</text>
<text text-anchor="start" x="498.5" y="-597" font-family="Helvetica,sans-Serif" font-size="10.00">+ Vector2()</text>
<text text-anchor="start" x="498.5" y="-586" font-family="Helvetica,sans-Serif" font-size="10.00">+ Vector2()</text>
<text text-anchor="start" x="498.5" y="-575" font-family="Helvetica,sans-Serif" font-size="10.00">+ ~Vector2()</text>
<text text-anchor="start" x="498.5" y="-564" font-family="Helvetica,sans-Serif" font-size="10.00">+ operator=()</text>
</a>
</g>
</g>
<!-- Node8&#45;&gt;Node7 -->
<g id="edge8" class="edge">
<title>Node8&#45;&gt;Node7</title>
<path fill="none" stroke="#404040" d="M533,-556.79C533,-534.41 533,-508.56 533,-482.86"/>
<polygon fill="none" stroke="#404040" points="533,-482.68 529,-476.68 533,-470.68 537,-476.68 533,-482.68"/>
<text text-anchor="middle" x="567.5" y="-492" font-family="Helvetica,sans-Serif" font-size="10.00"> &#45;_dimensions</text>
</g>
</g>
</svg>
