<?xml version="1.0" encoding="UTF-8" standalone="no"?>
<!DOCTYPE svg PUBLIC "-//W3C//DTD SVG 1.1//EN"
 "http://www.w3.org/Graphics/SVG/1.1/DTD/svg11.dtd">
<!-- Generated by graphviz version 2.43.0 (0)
 -->
<!-- Title: BBM::TimerComponent Pages: 1 -->
<svg width="279pt" height="942pt"
 viewBox="0.00 0.00 278.50 942.00" xmlns="http://www.w3.org/2000/svg" xmlns:xlink="http://www.w3.org/1999/xlink">
<g id="graph0" class="graph" transform="scale(1 1) rotate(0) translate(4 938)">
<title>BBM::TimerComponent</title>
<polygon fill="white" stroke="transparent" points="-4,4 -4,-938 274.5,-938 274.5,4 -4,4"/>
<!-- Node1 -->
<g id="node1" class="node">
<title>Node1</title>
<g id="a_node1"><a xlink:title=" ">
<polygon fill="#bfbfbf" stroke="black" points="104.5,-0.5 104.5,-123.5 234.5,-123.5 234.5,-0.5 104.5,-0.5"/>
<text text-anchor="middle" x="169.5" y="-111.5" font-family="Helvetica,sans-Serif" font-size="10.00">BBM::TimerComponent</text>
<polyline fill="none" stroke="black" points="104.5,-104.5 234.5,-104.5 "/>
<text text-anchor="start" x="112.5" y="-92.5" font-family="Helvetica,sans-Serif" font-size="10.00">+ disabled</text>
<text text-anchor="start" x="112.5" y="-81.5" font-family="Helvetica,sans-Serif" font-size="10.00">+ ringIn</text>
<polyline fill="none" stroke="black" points="104.5,-74.5 234.5,-74.5 "/>
<text text-anchor="start" x="112.5" y="-62.5" font-family="Helvetica,sans-Serif" font-size="10.00">+ clone()</text>
<text text-anchor="start" x="112.5" y="-51.5" font-family="Helvetica,sans-Serif" font-size="10.00">+ TimerComponent()</text>
<text text-anchor="start" x="112.5" y="-40.5" font-family="Helvetica,sans-Serif" font-size="10.00">+ TimerComponent()</text>
<text text-anchor="start" x="112.5" y="-29.5" font-family="Helvetica,sans-Serif" font-size="10.00">+ TimerComponent()</text>
<text text-anchor="start" x="112.5" y="-18.5" font-family="Helvetica,sans-Serif" font-size="10.00">+ ~TimerComponent()</text>
<text text-anchor="start" x="112.5" y="-7.5" font-family="Helvetica,sans-Serif" font-size="10.00">+ operator=()</text>
</a>
</g>
</g>
<!-- Node2 -->
<g id="node2" class="node">
<title>Node2</title>
<g id="a_node2"><a xlink:href="classWAL_1_1Component.html" target="_top" xlink:title="Represent a single component of WAL.">
<polygon fill="white" stroke="black" points="18.5,-188 18.5,-311 118.5,-311 118.5,-188 18.5,-188"/>
<text text-anchor="middle" x="68.5" y="-299" font-family="Helvetica,sans-Serif" font-size="10.00">WAL::Component</text>
<polyline fill="none" stroke="black" points="18.5,-292 118.5,-292 "/>
<text text-anchor="middle" x="68.5" y="-280" font-family="Helvetica,sans-Serif" font-size="10.00"> </text>
<polyline fill="none" stroke="black" points="18.5,-273 118.5,-273 "/>
<text text-anchor="start" x="26.5" y="-261" font-family="Helvetica,sans-Serif" font-size="10.00">+ operator=()</text>
<text text-anchor="start" x="26.5" y="-250" font-family="Helvetica,sans-Serif" font-size="10.00">+ ~Component()</text>
<text text-anchor="start" x="26.5" y="-239" font-family="Helvetica,sans-Serif" font-size="10.00">+ clone()</text>
<text text-anchor="start" x="26.5" y="-228" font-family="Helvetica,sans-Serif" font-size="10.00">+ onStart()</text>
<text text-anchor="start" x="26.5" y="-217" font-family="Helvetica,sans-Serif" font-size="10.00">+ onStop()</text>
<text text-anchor="start" x="26.5" y="-206" font-family="Helvetica,sans-Serif" font-size="10.00"># Component()</text>
<text text-anchor="start" x="26.5" y="-195" font-family="Helvetica,sans-Serif" font-size="10.00"># Component()</text>
</a>
</g>
</g>
<!-- Node2&#45;&gt;Node1 -->
<g id="edge1" class="edge">
<title>Node2&#45;&gt;Node1</title>
<path fill="none" stroke="midnightblue" d="M106.37,-178.94C116.29,-160.73 126.89,-141.25 136.53,-123.56"/>
<polygon fill="none" stroke="midnightblue" points="103.28,-177.3 101.57,-187.76 109.43,-180.65 103.28,-177.3"/>
</g>
<!-- Node3 -->
<g id="node3" class="node">
<title>Node3</title>
<g id="a_node3"><a xlink:href="classWAL_1_1Entity.html" target="_top" xlink:title="An entity of the WAL&#39;s ECS.">
<polygon fill="white" stroke="black" points="0,-375.5 0,-641.5 137,-641.5 137,-375.5 0,-375.5"/>
<text text-anchor="middle" x="68.5" y="-629.5" font-family="Helvetica,sans-Serif" font-size="10.00">WAL::Entity</text>
<polyline fill="none" stroke="black" points="0,-622.5 137,-622.5 "/>
<text text-anchor="start" x="8" y="-610.5" font-family="Helvetica,sans-Serif" font-size="10.00">&#45; _uid</text>
<text text-anchor="start" x="8" y="-599.5" font-family="Helvetica,sans-Serif" font-size="10.00">&#45; _name</text>
<text text-anchor="start" x="8" y="-588.5" font-family="Helvetica,sans-Serif" font-size="10.00">&#45; _disabled</text>
<text text-anchor="start" x="8" y="-577.5" font-family="Helvetica,sans-Serif" font-size="10.00">&#45; _shouldDelete</text>
<text text-anchor="start" x="8" y="-566.5" font-family="Helvetica,sans-Serif" font-size="10.00">&#45; _notifyScene</text>
<text text-anchor="start" x="8" y="-555.5" font-family="Helvetica,sans-Serif" font-size="10.00">&#45; _components</text>
<text text-anchor="start" x="8" y="-544.5" font-family="Helvetica,sans-Serif" font-size="10.00">&#45; Scene</text>
<text text-anchor="start" x="8" y="-533.5" font-family="Helvetica,sans-Serif" font-size="10.00">&#45; nextID</text>
<polyline fill="none" stroke="black" points="0,-526.5 137,-526.5 "/>
<text text-anchor="start" x="8" y="-514.5" font-family="Helvetica,sans-Serif" font-size="10.00">+ getUid()</text>
<text text-anchor="start" x="8" y="-503.5" font-family="Helvetica,sans-Serif" font-size="10.00">+ getName()</text>
<text text-anchor="start" x="8" y="-492.5" font-family="Helvetica,sans-Serif" font-size="10.00">+ setName()</text>
<text text-anchor="start" x="8" y="-481.5" font-family="Helvetica,sans-Serif" font-size="10.00">+ isDisable()</text>
<text text-anchor="start" x="8" y="-470.5" font-family="Helvetica,sans-Serif" font-size="10.00">+ setDisable()</text>
<text text-anchor="start" x="8" y="-459.5" font-family="Helvetica,sans-Serif" font-size="10.00">+ shouldDelete()</text>
<text text-anchor="start" x="8" y="-448.5" font-family="Helvetica,sans-Serif" font-size="10.00">+ scheduleDeletion()</text>
<text text-anchor="start" x="8" y="-437.5" font-family="Helvetica,sans-Serif" font-size="10.00">+ getComponent()</text>
<text text-anchor="start" x="8" y="-426.5" font-family="Helvetica,sans-Serif" font-size="10.00">+ tryGetComponent()</text>
<text text-anchor="start" x="8" y="-415.5" font-family="Helvetica,sans-Serif" font-size="10.00">+ getComponent()</text>
<text text-anchor="start" x="8" y="-404.5" font-family="Helvetica,sans-Serif" font-size="10.00">and 13 more...</text>
<text text-anchor="start" x="8" y="-393.5" font-family="Helvetica,sans-Serif" font-size="10.00">&#45; _componentAdded()</text>
<text text-anchor="start" x="8" y="-382.5" font-family="Helvetica,sans-Serif" font-size="10.00">&#45; _componentRemoved()</text>
</a>
</g>
</g>
<!-- Node3&#45;&gt;Node2 -->
<g id="edge2" class="edge">
<title>Node3&#45;&gt;Node2</title>
<path fill="none" stroke="#404040" d="M68.5,-375.24C68.5,-357.4 68.5,-339.66 68.5,-323.39"/>
<polygon fill="none" stroke="#404040" points="68.5,-323.26 64.5,-317.26 68.5,-311.26 72.5,-317.26 68.5,-323.26"/>
<text text-anchor="middle" x="91.5" y="-349" font-family="Helvetica,sans-Serif" font-size="10.00"> #_entity</text>
</g>
<!-- Node4 -->
<g id="node4" class="node">
<title>Node4</title>
<g id="a_node4"><a xlink:href="classWAL_1_1Scene.html" target="_top" xlink:title="Represent a single scene that contains entities.">
<polygon fill="white" stroke="black" points="0,-689.5 0,-933.5 137,-933.5 137,-689.5 0,-689.5"/>
<text text-anchor="middle" x="68.5" y="-921.5" font-family="Helvetica,sans-Serif" font-size="10.00">WAL::Scene</text>
<polyline fill="none" stroke="black" points="0,-914.5 137,-914.5 "/>
<text text-anchor="start" x="8" y="-902.5" font-family="Helvetica,sans-Serif" font-size="10.00">+ Entity</text>
<text text-anchor="start" x="8" y="-891.5" font-family="Helvetica,sans-Serif" font-size="10.00">&#45; _id</text>
<text text-anchor="start" x="8" y="-880.5" font-family="Helvetica,sans-Serif" font-size="10.00">&#45; _entities</text>
<text text-anchor="start" x="8" y="-869.5" font-family="Helvetica,sans-Serif" font-size="10.00">&#45; _newEntities</text>
<text text-anchor="start" x="8" y="-858.5" font-family="Helvetica,sans-Serif" font-size="10.00">&#45; _views</text>
<text text-anchor="start" x="8" y="-847.5" font-family="Helvetica,sans-Serif" font-size="10.00">&#45; _nextID</text>
<polyline fill="none" stroke="black" points="0,-840.5 137,-840.5 "/>
<text text-anchor="start" x="8" y="-828.5" font-family="Helvetica,sans-Serif" font-size="10.00">+ getID()</text>
<text text-anchor="start" x="8" y="-817.5" font-family="Helvetica,sans-Serif" font-size="10.00">+ getEntities()</text>
<text text-anchor="start" x="8" y="-806.5" font-family="Helvetica,sans-Serif" font-size="10.00">+ addEntity()</text>
<text text-anchor="start" x="8" y="-795.5" font-family="Helvetica,sans-Serif" font-size="10.00">+ scheduleNewEntity()</text>
<text text-anchor="start" x="8" y="-784.5" font-family="Helvetica,sans-Serif" font-size="10.00">+ view()</text>
<text text-anchor="start" x="8" y="-773.5" font-family="Helvetica,sans-Serif" font-size="10.00">+ applyChanges()</text>
<text text-anchor="start" x="8" y="-762.5" font-family="Helvetica,sans-Serif" font-size="10.00">+ Scene()</text>
<text text-anchor="start" x="8" y="-751.5" font-family="Helvetica,sans-Serif" font-size="10.00">+ Scene()</text>
<text text-anchor="start" x="8" y="-740.5" font-family="Helvetica,sans-Serif" font-size="10.00">+ ~Scene()</text>
<text text-anchor="start" x="8" y="-729.5" font-family="Helvetica,sans-Serif" font-size="10.00">+ operator=()</text>
<text text-anchor="start" x="8" y="-718.5" font-family="Helvetica,sans-Serif" font-size="10.00">&#45; _componentAdded()</text>
<text text-anchor="start" x="8" y="-707.5" font-family="Helvetica,sans-Serif" font-size="10.00">&#45; _componentRemoved()</text>
<text text-anchor="start" x="8" y="-696.5" font-family="Helvetica,sans-Serif" font-size="10.00">&#45; _entityRemoved()</text>
</a>
</g>
</g>
<!-- Node4&#45;&gt;Node3 -->
<g id="edge3" class="edge">
<title>Node4&#45;&gt;Node3</title>
<path fill="none" stroke="#404040" d="M68.5,-689.37C68.5,-677.73 68.5,-665.85 68.5,-654.02"/>
<polygon fill="none" stroke="#404040" points="68.5,-653.71 64.5,-647.71 68.5,-641.71 72.5,-647.71 68.5,-653.71"/>
<text text-anchor="middle" x="91.5" y="-663" font-family="Helvetica,sans-Serif" font-size="10.00"> +_scene</text>
</g>
<!-- Node5 -->
<g id="node5" class="node">
<title>Node5</title>
<g id="a_node5"><a xlink:href="classWAL_1_1Callback.html" target="_top" xlink:title=" ">
<polygon fill="white" stroke="black" points="136.5,-171.5 136.5,-327.5 270.5,-327.5 270.5,-171.5 136.5,-171.5"/>
<text text-anchor="start" x="144.5" y="-315.5" font-family="Helvetica,sans-Serif" font-size="10.00">WAL::Callback&lt; WAL</text>
<text text-anchor="middle" x="203.5" y="-304.5" font-family="Helvetica,sans-Serif" font-size="10.00">::Entity &amp;, WAL::Wal &amp; &gt;</text>
<polyline fill="none" stroke="black" points="136.5,-297.5 270.5,-297.5 "/>
<text text-anchor="start" x="144.5" y="-285.5" font-family="Helvetica,sans-Serif" font-size="10.00">&#45; _nextID</text>
<text text-anchor="start" x="144.5" y="-274.5" font-family="Helvetica,sans-Serif" font-size="10.00">&#45; _functions</text>
<polyline fill="none" stroke="black" points="136.5,-267.5 270.5,-267.5 "/>
<text text-anchor="start" x="144.5" y="-255.5" font-family="Helvetica,sans-Serif" font-size="10.00">+ addCallback()</text>
<text text-anchor="start" x="144.5" y="-244.5" font-family="Helvetica,sans-Serif" font-size="10.00">+ removeCallback()</text>
<text text-anchor="start" x="144.5" y="-233.5" font-family="Helvetica,sans-Serif" font-size="10.00">+ operator()()</text>
<text text-anchor="start" x="144.5" y="-222.5" font-family="Helvetica,sans-Serif" font-size="10.00">+ Callback()</text>
<text text-anchor="start" x="144.5" y="-211.5" font-family="Helvetica,sans-Serif" font-size="10.00">+ Callback()</text>
<text text-anchor="start" x="144.5" y="-200.5" font-family="Helvetica,sans-Serif" font-size="10.00">+ Callback()</text>
<text text-anchor="start" x="144.5" y="-189.5" font-family="Helvetica,sans-Serif" font-size="10.00">+ ~Callback()</text>
<text text-anchor="start" x="144.5" y="-178.5" font-family="Helvetica,sans-Serif" font-size="10.00">+ operator=()</text>
</a>
</g>
</g>
<!-- Node5&#45;&gt;Node1 -->
<g id="edge4" class="edge">
<title>Node5&#45;&gt;Node1</title>
<path fill="none" stroke="#404040" d="M189.38,-171.44C187.21,-159.62 184.98,-147.45 182.83,-135.73"/>
<polygon fill="none" stroke="#404040" points="182.79,-135.51 177.77,-130.33 180.63,-123.71 185.64,-128.89 182.79,-135.51"/>
<text text-anchor="middle" x="210.5" y="-145" font-family="Helvetica,sans-Serif" font-size="10.00"> +callback</text>
</g>
</g>
</svg>
