<?xml version="1.0" encoding="UTF-8" standalone="no"?>
<!DOCTYPE svg PUBLIC "-//W3C//DTD SVG 1.1//EN"
 "http://www.w3.org/Graphics/SVG/1.1/DTD/svg11.dtd">
<!-- Generated by graphviz version 2.43.0 (0)
 -->
<!-- Title: RAY::Exception::RayError Pages: 1 -->
<svg width="680pt" height="331pt"
 viewBox="0.00 0.00 679.50 331.00" xmlns="http://www.w3.org/2000/svg" xmlns:xlink="http://www.w3.org/1999/xlink">
<g id="graph0" class="graph" transform="scale(1 1) rotate(0) translate(4 327)">
<title>RAY::Exception::RayError</title>
<polygon fill="white" stroke="transparent" points="-4,4 -4,-327 675.5,-327 675.5,4 -4,4"/>
<!-- Node1 -->
<g id="node1" class="node">
<title>Node1</title>
<g id="a_node1"><a xlink:title="base exception class for RAY lib">
<polygon fill="#bfbfbf" stroke="black" points="281.5,-138.5 281.5,-228.5 417.5,-228.5 417.5,-138.5 281.5,-138.5"/>
<text text-anchor="middle" x="349.5" y="-216.5" font-family="Helvetica,sans-Serif" font-size="10.00">RAY::Exception::RayError</text>
<polyline fill="none" stroke="black" points="281.5,-209.5 417.5,-209.5 "/>
<text text-anchor="middle" x="349.5" y="-197.5" font-family="Helvetica,sans-Serif" font-size="10.00"> </text>
<polyline fill="none" stroke="black" points="281.5,-190.5 417.5,-190.5 "/>
<text text-anchor="start" x="289.5" y="-178.5" font-family="Helvetica,sans-Serif" font-size="10.00">+ RayError()</text>
<text text-anchor="start" x="289.5" y="-167.5" font-family="Helvetica,sans-Serif" font-size="10.00">+ ~RayError()</text>
<text text-anchor="start" x="289.5" y="-156.5" font-family="Helvetica,sans-Serif" font-size="10.00">+ RayError()</text>
<text text-anchor="start" x="289.5" y="-145.5" font-family="Helvetica,sans-Serif" font-size="10.00">+ operator=()</text>
</a>
</g>
</g>
<!-- Node3 -->
<g id="node3" class="node">
<title>Node3</title>
<g id="a_node3"><a xlink:href="classRAY_1_1Exception_1_1NotCompatibleError.html" target="_top" xlink:title="exception used when an incompatibility occurs">
<polygon fill="white" stroke="black" points="0,-0.5 0,-101.5 167,-101.5 167,-0.5 0,-0.5"/>
<text text-anchor="start" x="8" y="-89.5" font-family="Helvetica,sans-Serif" font-size="10.00">RAY::Exception::NotCompatible</text>
<text text-anchor="middle" x="83.5" y="-78.5" font-family="Helvetica,sans-Serif" font-size="10.00">Error</text>
<polyline fill="none" stroke="black" points="0,-71.5 167,-71.5 "/>
<text text-anchor="middle" x="83.5" y="-59.5" font-family="Helvetica,sans-Serif" font-size="10.00"> </text>
<polyline fill="none" stroke="black" points="0,-52.5 167,-52.5 "/>
<text text-anchor="start" x="8" y="-40.5" font-family="Helvetica,sans-Serif" font-size="10.00">+ NotCompatibleError()</text>
<text text-anchor="start" x="8" y="-29.5" font-family="Helvetica,sans-Serif" font-size="10.00">+ ~NotCompatibleError()</text>
<text text-anchor="start" x="8" y="-18.5" font-family="Helvetica,sans-Serif" font-size="10.00">+ NotCompatibleError()</text>
<text text-anchor="start" x="8" y="-7.5" font-family="Helvetica,sans-Serif" font-size="10.00">+ operator=()</text>
</a>
</g>
</g>
<!-- Node1&#45;&gt;Node3 -->
<g id="edge2" class="edge">
<title>Node1&#45;&gt;Node3</title>
<path fill="none" stroke="midnightblue" d="M272.01,-147.94C241.7,-134.09 206.77,-117.71 175.5,-102 172.74,-100.61 169.94,-99.19 167.12,-97.74"/>
<polygon fill="none" stroke="midnightblue" points="270.7,-151.2 281.26,-152.16 273.61,-144.83 270.7,-151.2"/>
</g>
<!-- Node4 -->
<g id="node4" class="node">
<title>Node4</title>
<g id="a_node4"><a xlink:href="classRAY_1_1Exception_1_1NotSupportedError.html" target="_top" xlink:title="exception used when an non&#45;supported operation is done">
<polygon fill="white" stroke="black" points="185,-0.5 185,-101.5 346,-101.5 346,-0.5 185,-0.5"/>
<text text-anchor="start" x="193" y="-89.5" font-family="Helvetica,sans-Serif" font-size="10.00">RAY::Exception::NotSupported</text>
<text text-anchor="middle" x="265.5" y="-78.5" font-family="Helvetica,sans-Serif" font-size="10.00">Error</text>
<polyline fill="none" stroke="black" points="185,-71.5 346,-71.5 "/>
<text text-anchor="middle" x="265.5" y="-59.5" font-family="Helvetica,sans-Serif" font-size="10.00"> </text>
<polyline fill="none" stroke="black" points="185,-52.5 346,-52.5 "/>
<text text-anchor="start" x="193" y="-40.5" font-family="Helvetica,sans-Serif" font-size="10.00">+ NotSupportedError()</text>
<text text-anchor="start" x="193" y="-29.5" font-family="Helvetica,sans-Serif" font-size="10.00">+ ~NotSupportedError()</text>
<text text-anchor="start" x="193" y="-18.5" font-family="Helvetica,sans-Serif" font-size="10.00">+ NotSupportedError()</text>
<text text-anchor="start" x="193" y="-7.5" font-family="Helvetica,sans-Serif" font-size="10.00">+ operator=()</text>
</a>
</g>
</g>
<!-- Node1&#45;&gt;Node4 -->
<g id="edge3" class="edge">
<title>Node1&#45;&gt;Node4</title>
<path fill="none" stroke="midnightblue" d="M315.61,-129.85C309.59,-120.5 303.34,-110.79 297.38,-101.52"/>
<polygon fill="none" stroke="midnightblue" points="312.71,-131.8 321.06,-138.32 318.59,-128.02 312.71,-131.8"/>
</g>
<!-- Node5 -->
<g id="node5" class="node">
<title>Node5</title>
<g id="a_node5"><a xlink:href="classRAY_1_1Exception_1_1ResourceNotFound.html" target="_top" xlink:title="exception used when a resource is not found">
<polygon fill="white" stroke="black" points="364,-0.5 364,-101.5 503,-101.5 503,-0.5 364,-0.5"/>
<text text-anchor="start" x="372" y="-89.5" font-family="Helvetica,sans-Serif" font-size="10.00">RAY::Exception::Resource</text>
<text text-anchor="middle" x="433.5" y="-78.5" font-family="Helvetica,sans-Serif" font-size="10.00">NotFound</text>
<polyline fill="none" stroke="black" points="364,-71.5 503,-71.5 "/>
<text text-anchor="middle" x="433.5" y="-59.5" font-family="Helvetica,sans-Serif" font-size="10.00"> </text>
<polyline fill="none" stroke="black" points="364,-52.5 503,-52.5 "/>
<text text-anchor="start" x="372" y="-40.5" font-family="Helvetica,sans-Serif" font-size="10.00">+ ResourceNotFound()</text>
<text text-anchor="start" x="372" y="-29.5" font-family="Helvetica,sans-Serif" font-size="10.00">+ ~ResourceNotFound()</text>
<text text-anchor="start" x="372" y="-18.5" font-family="Helvetica,sans-Serif" font-size="10.00">+ ResourceNotFound()</text>
<text text-anchor="start" x="372" y="-7.5" font-family="Helvetica,sans-Serif" font-size="10.00">+ operator=()</text>
</a>
</g>
</g>
<!-- Node1&#45;&gt;Node5 -->
<g id="edge4" class="edge">
<title>Node1&#45;&gt;Node5</title>
<path fill="none" stroke="midnightblue" d="M383.39,-129.85C389.41,-120.5 395.66,-110.79 401.62,-101.52"/>
<polygon fill="none" stroke="midnightblue" points="380.41,-128.02 377.94,-138.32 386.29,-131.8 380.41,-128.02"/>
</g>
<!-- Node6 -->
<g id="node6" class="node">
<title>Node6</title>
<g id="a_node6"><a xlink:href="classRAY_1_1Exception_1_1WrongInputError.html" target="_top" xlink:title="exception used when an non&#45;supported operation is done">
<polygon fill="white" stroke="black" points="521.5,-0.5 521.5,-101.5 671.5,-101.5 671.5,-0.5 521.5,-0.5"/>
<text text-anchor="start" x="529.5" y="-89.5" font-family="Helvetica,sans-Serif" font-size="10.00">RAY::Exception::WrongInput</text>
<text text-anchor="middle" x="596.5" y="-78.5" font-family="Helvetica,sans-Serif" font-size="10.00">Error</text>
<polyline fill="none" stroke="black" points="521.5,-71.5 671.5,-71.5 "/>
<text text-anchor="middle" x="596.5" y="-59.5" font-family="Helvetica,sans-Serif" font-size="10.00"> </text>
<polyline fill="none" stroke="black" points="521.5,-52.5 671.5,-52.5 "/>
<text text-anchor="start" x="529.5" y="-40.5" font-family="Helvetica,sans-Serif" font-size="10.00">+ WrongInputError()</text>
<text text-anchor="start" x="529.5" y="-29.5" font-family="Helvetica,sans-Serif" font-size="10.00">+ ~WrongInputError()</text>
<text text-anchor="start" x="529.5" y="-18.5" font-family="Helvetica,sans-Serif" font-size="10.00">+ WrongInputError()</text>
<text text-anchor="start" x="529.5" y="-7.5" font-family="Helvetica,sans-Serif" font-size="10.00">+ operator=()</text>
</a>
</g>
</g>
<!-- Node1&#45;&gt;Node6 -->
<g id="edge5" class="edge">
<title>Node1&#45;&gt;Node6</title>
<path fill="none" stroke="midnightblue" d="M426.65,-145.93C454,-132.57 484.85,-117.03 512.5,-102 515.33,-100.46 518.21,-98.87 521.1,-97.26"/>
<polygon fill="none" stroke="midnightblue" points="424.97,-142.85 417.52,-150.38 428.04,-149.15 424.97,-142.85"/>
</g>
<!-- Node2 -->
<g id="node2" class="node">
<title>Node2</title>
<g id="a_node2"><a xlink:title=" ">
<polygon fill="white" stroke="#bfbfbf" points="308,-265.5 308,-322.5 391,-322.5 391,-265.5 308,-265.5"/>
<text text-anchor="middle" x="349.5" y="-310.5" font-family="Helvetica,sans-Serif" font-size="10.00">runtime_error</text>
<polyline fill="none" stroke="#bfbfbf" points="308,-303.5 391,-303.5 "/>
<text text-anchor="middle" x="349.5" y="-291.5" font-family="Helvetica,sans-Serif" font-size="10.00"> </text>
<polyline fill="none" stroke="#bfbfbf" points="308,-284.5 391,-284.5 "/>
<text text-anchor="middle" x="349.5" y="-272.5" font-family="Helvetica,sans-Serif" font-size="10.00"> </text>
</a>
</g>
</g>
<!-- Node2&#45;&gt;Node1 -->
<g id="edge1" class="edge">
<title>Node2&#45;&gt;Node1</title>
<path fill="none" stroke="midnightblue" d="M349.5,-255.21C349.5,-246.61 349.5,-237.39 349.5,-228.55"/>
<polygon fill="none" stroke="midnightblue" points="346,-255.34 349.5,-265.34 353,-255.34 346,-255.34"/>
</g>
</g>
</svg>
