<?xml version="1.0" encoding="UTF-8" standalone="no"?>
<!DOCTYPE svg PUBLIC "-//W3C//DTD SVG 1.1//EN"
 "http://www.w3.org/Graphics/SVG/1.1/DTD/svg11.dtd">
<!-- Generated by graphviz version 2.43.0 (0)
 -->
<!-- Title: BBM::MusicComponent Pages: 1 -->
<svg width="418pt" height="1052pt"
 viewBox="0.00 0.00 417.50 1052.00" xmlns="http://www.w3.org/2000/svg" xmlns:xlink="http://www.w3.org/1999/xlink">
<g id="graph0" class="graph" transform="scale(1 1) rotate(0) translate(4 1048)">
<title>BBM::MusicComponent</title>
<polygon fill="white" stroke="transparent" points="-4,4 -4,-1048 413.5,-1048 413.5,4 -4,4"/>
<!-- Node1 -->
<g id="node1" class="node">
<title>Node1</title>
<g id="a_node1"><a xlink:title="A basic Music component.">
<polygon fill="#bfbfbf" stroke="black" points="72,-0.5 72,-211.5 205,-211.5 205,-0.5 72,-0.5"/>
<text text-anchor="middle" x="138.5" y="-199.5" font-family="Helvetica,sans-Serif" font-size="10.00">BBM::MusicComponent</text>
<polyline fill="none" stroke="black" points="72,-192.5 205,-192.5 "/>
<text text-anchor="start" x="80" y="-180.5" font-family="Helvetica,sans-Serif" font-size="10.00">+ volume</text>
<text text-anchor="start" x="80" y="-169.5" font-family="Helvetica,sans-Serif" font-size="10.00">&#45; _musicPath</text>
<polyline fill="none" stroke="black" points="72,-162.5 205,-162.5 "/>
<text text-anchor="start" x="80" y="-150.5" font-family="Helvetica,sans-Serif" font-size="10.00">+ playMusic()</text>
<text text-anchor="start" x="80" y="-139.5" font-family="Helvetica,sans-Serif" font-size="10.00">+ stopMusic()</text>
<text text-anchor="start" x="80" y="-128.5" font-family="Helvetica,sans-Serif" font-size="10.00">+ pauseMusic()</text>
<text text-anchor="start" x="80" y="-117.5" font-family="Helvetica,sans-Serif" font-size="10.00">+ setVolume()</text>
<text text-anchor="start" x="80" y="-106.5" font-family="Helvetica,sans-Serif" font-size="10.00">+ turnDownVolume()</text>
<text text-anchor="start" x="80" y="-95.5" font-family="Helvetica,sans-Serif" font-size="10.00">+ turnUpVolume()</text>
<text text-anchor="start" x="80" y="-84.5" font-family="Helvetica,sans-Serif" font-size="10.00">+ setPitch()</text>
<text text-anchor="start" x="80" y="-73.5" font-family="Helvetica,sans-Serif" font-size="10.00">+ isPlaying()</text>
<text text-anchor="start" x="80" y="-62.5" font-family="Helvetica,sans-Serif" font-size="10.00">+ updateMusicStream()</text>
<text text-anchor="start" x="80" y="-51.5" font-family="Helvetica,sans-Serif" font-size="10.00">+ clone()</text>
<text text-anchor="start" x="80" y="-40.5" font-family="Helvetica,sans-Serif" font-size="10.00">+ MusicComponent()</text>
<text text-anchor="start" x="80" y="-29.5" font-family="Helvetica,sans-Serif" font-size="10.00">+ MusicComponent()</text>
<text text-anchor="start" x="80" y="-18.5" font-family="Helvetica,sans-Serif" font-size="10.00">+ ~MusicComponent()</text>
<text text-anchor="start" x="80" y="-7.5" font-family="Helvetica,sans-Serif" font-size="10.00">+ operator=()</text>
</a>
</g>
</g>
<!-- Node2 -->
<g id="node2" class="node">
<title>Node2</title>
<g id="a_node2"><a xlink:href="classWAL_1_1Component.html" target="_top" xlink:title="Represent a single component of WAL.">
<polygon fill="white" stroke="black" points="21.5,-287 21.5,-410 121.5,-410 121.5,-287 21.5,-287"/>
<text text-anchor="middle" x="71.5" y="-398" font-family="Helvetica,sans-Serif" font-size="10.00">WAL::Component</text>
<polyline fill="none" stroke="black" points="21.5,-391 121.5,-391 "/>
<text text-anchor="middle" x="71.5" y="-379" font-family="Helvetica,sans-Serif" font-size="10.00"> </text>
<polyline fill="none" stroke="black" points="21.5,-372 121.5,-372 "/>
<text text-anchor="start" x="29.5" y="-360" font-family="Helvetica,sans-Serif" font-size="10.00">+ operator=()</text>
<text text-anchor="start" x="29.5" y="-349" font-family="Helvetica,sans-Serif" font-size="10.00">+ ~Component()</text>
<text text-anchor="start" x="29.5" y="-338" font-family="Helvetica,sans-Serif" font-size="10.00">+ clone()</text>
<text text-anchor="start" x="29.5" y="-327" font-family="Helvetica,sans-Serif" font-size="10.00">+ onStart()</text>
<text text-anchor="start" x="29.5" y="-316" font-family="Helvetica,sans-Serif" font-size="10.00">+ onStop()</text>
<text text-anchor="start" x="29.5" y="-305" font-family="Helvetica,sans-Serif" font-size="10.00"># Component()</text>
<text text-anchor="start" x="29.5" y="-294" font-family="Helvetica,sans-Serif" font-size="10.00"># Component()</text>
</a>
</g>
</g>
<!-- Node2&#45;&gt;Node1 -->
<g id="edge1" class="edge">
<title>Node2&#45;&gt;Node1</title>
<path fill="none" stroke="midnightblue" d="M91.15,-276.97C96.85,-256.51 103.2,-233.73 109.34,-211.66"/>
<polygon fill="none" stroke="midnightblue" points="87.72,-276.24 88.41,-286.81 94.46,-278.12 87.72,-276.24"/>
</g>
<!-- Node3 -->
<g id="node3" class="node">
<title>Node3</title>
<g id="a_node3"><a xlink:href="classWAL_1_1Entity.html" target="_top" xlink:title="An entity of the WAL&#39;s ECS.">
<polygon fill="white" stroke="black" points="0,-485.5 0,-751.5 137,-751.5 137,-485.5 0,-485.5"/>
<text text-anchor="middle" x="68.5" y="-739.5" font-family="Helvetica,sans-Serif" font-size="10.00">WAL::Entity</text>
<polyline fill="none" stroke="black" points="0,-732.5 137,-732.5 "/>
<text text-anchor="start" x="8" y="-720.5" font-family="Helvetica,sans-Serif" font-size="10.00">&#45; _uid</text>
<text text-anchor="start" x="8" y="-709.5" font-family="Helvetica,sans-Serif" font-size="10.00">&#45; _name</text>
<text text-anchor="start" x="8" y="-698.5" font-family="Helvetica,sans-Serif" font-size="10.00">&#45; _disabled</text>
<text text-anchor="start" x="8" y="-687.5" font-family="Helvetica,sans-Serif" font-size="10.00">&#45; _shouldDelete</text>
<text text-anchor="start" x="8" y="-676.5" font-family="Helvetica,sans-Serif" font-size="10.00">&#45; _notifyScene</text>
<text text-anchor="start" x="8" y="-665.5" font-family="Helvetica,sans-Serif" font-size="10.00">&#45; _components</text>
<text text-anchor="start" x="8" y="-654.5" font-family="Helvetica,sans-Serif" font-size="10.00">&#45; Scene</text>
<text text-anchor="start" x="8" y="-643.5" font-family="Helvetica,sans-Serif" font-size="10.00">&#45; nextID</text>
<polyline fill="none" stroke="black" points="0,-636.5 137,-636.5 "/>
<text text-anchor="start" x="8" y="-624.5" font-family="Helvetica,sans-Serif" font-size="10.00">+ getUid()</text>
<text text-anchor="start" x="8" y="-613.5" font-family="Helvetica,sans-Serif" font-size="10.00">+ getName()</text>
<text text-anchor="start" x="8" y="-602.5" font-family="Helvetica,sans-Serif" font-size="10.00">+ setName()</text>
<text text-anchor="start" x="8" y="-591.5" font-family="Helvetica,sans-Serif" font-size="10.00">+ isDisable()</text>
<text text-anchor="start" x="8" y="-580.5" font-family="Helvetica,sans-Serif" font-size="10.00">+ setDisable()</text>
<text text-anchor="start" x="8" y="-569.5" font-family="Helvetica,sans-Serif" font-size="10.00">+ shouldDelete()</text>
<text text-anchor="start" x="8" y="-558.5" font-family="Helvetica,sans-Serif" font-size="10.00">+ scheduleDeletion()</text>
<text text-anchor="start" x="8" y="-547.5" font-family="Helvetica,sans-Serif" font-size="10.00">+ getComponent()</text>
<text text-anchor="start" x="8" y="-536.5" font-family="Helvetica,sans-Serif" font-size="10.00">+ tryGetComponent()</text>
<text text-anchor="start" x="8" y="-525.5" font-family="Helvetica,sans-Serif" font-size="10.00">+ getComponent()</text>
<text text-anchor="start" x="8" y="-514.5" font-family="Helvetica,sans-Serif" font-size="10.00">and 13 more...</text>
<text text-anchor="start" x="8" y="-503.5" font-family="Helvetica,sans-Serif" font-size="10.00">&#45; _componentAdded()</text>
<text text-anchor="start" x="8" y="-492.5" font-family="Helvetica,sans-Serif" font-size="10.00">&#45; _componentRemoved()</text>
</a>
</g>
</g>
<!-- Node3&#45;&gt;Node2 -->
<g id="edge2" class="edge">
<title>Node3&#45;&gt;Node2</title>
<path fill="none" stroke="#404040" d="M69.98,-485.46C70.22,-463.79 70.46,-442.05 70.68,-422.51"/>
<polygon fill="none" stroke="#404040" points="70.68,-422.33 66.75,-416.29 70.82,-410.33 74.75,-416.38 70.68,-422.33"/>
<text text-anchor="middle" x="93.5" y="-459" font-family="Helvetica,sans-Serif" font-size="10.00"> #_entity</text>
</g>
<!-- Node4 -->
<g id="node4" class="node">
<title>Node4</title>
<g id="a_node4"><a xlink:href="classWAL_1_1Scene.html" target="_top" xlink:title="Represent a single scene that contains entities.">
<polygon fill="white" stroke="black" points="0,-799.5 0,-1043.5 137,-1043.5 137,-799.5 0,-799.5"/>
<text text-anchor="middle" x="68.5" y="-1031.5" font-family="Helvetica,sans-Serif" font-size="10.00">WAL::Scene</text>
<polyline fill="none" stroke="black" points="0,-1024.5 137,-1024.5 "/>
<text text-anchor="start" x="8" y="-1012.5" font-family="Helvetica,sans-Serif" font-size="10.00">+ Entity</text>
<text text-anchor="start" x="8" y="-1001.5" font-family="Helvetica,sans-Serif" font-size="10.00">&#45; _id</text>
<text text-anchor="start" x="8" y="-990.5" font-family="Helvetica,sans-Serif" font-size="10.00">&#45; _entities</text>
<text text-anchor="start" x="8" y="-979.5" font-family="Helvetica,sans-Serif" font-size="10.00">&#45; _newEntities</text>
<text text-anchor="start" x="8" y="-968.5" font-family="Helvetica,sans-Serif" font-size="10.00">&#45; _views</text>
<text text-anchor="start" x="8" y="-957.5" font-family="Helvetica,sans-Serif" font-size="10.00">&#45; _nextID</text>
<polyline fill="none" stroke="black" points="0,-950.5 137,-950.5 "/>
<text text-anchor="start" x="8" y="-938.5" font-family="Helvetica,sans-Serif" font-size="10.00">+ getID()</text>
<text text-anchor="start" x="8" y="-927.5" font-family="Helvetica,sans-Serif" font-size="10.00">+ getEntities()</text>
<text text-anchor="start" x="8" y="-916.5" font-family="Helvetica,sans-Serif" font-size="10.00">+ addEntity()</text>
<text text-anchor="start" x="8" y="-905.5" font-family="Helvetica,sans-Serif" font-size="10.00">+ scheduleNewEntity()</text>
<text text-anchor="start" x="8" y="-894.5" font-family="Helvetica,sans-Serif" font-size="10.00">+ view()</text>
<text text-anchor="start" x="8" y="-883.5" font-family="Helvetica,sans-Serif" font-size="10.00">+ applyChanges()</text>
<text text-anchor="start" x="8" y="-872.5" font-family="Helvetica,sans-Serif" font-size="10.00">+ Scene()</text>
<text text-anchor="start" x="8" y="-861.5" font-family="Helvetica,sans-Serif" font-size="10.00">+ Scene()</text>
<text text-anchor="start" x="8" y="-850.5" font-family="Helvetica,sans-Serif" font-size="10.00">+ ~Scene()</text>
<text text-anchor="start" x="8" y="-839.5" font-family="Helvetica,sans-Serif" font-size="10.00">+ operator=()</text>
<text text-anchor="start" x="8" y="-828.5" font-family="Helvetica,sans-Serif" font-size="10.00">&#45; _componentAdded()</text>
<text text-anchor="start" x="8" y="-817.5" font-family="Helvetica,sans-Serif" font-size="10.00">&#45; _componentRemoved()</text>
<text text-anchor="start" x="8" y="-806.5" font-family="Helvetica,sans-Serif" font-size="10.00">&#45; _entityRemoved()</text>
</a>
</g>
</g>
<!-- Node4&#45;&gt;Node3 -->
<g id="edge3" class="edge">
<title>Node4&#45;&gt;Node3</title>
<path fill="none" stroke="#404040" d="M68.5,-799.37C68.5,-787.73 68.5,-775.85 68.5,-764.02"/>
<polygon fill="none" stroke="#404040" points="68.5,-763.71 64.5,-757.71 68.5,-751.71 72.5,-757.71 68.5,-763.71"/>
<text text-anchor="middle" x="91.5" y="-773" font-family="Helvetica,sans-Serif" font-size="10.00"> +_scene</text>
</g>
<!-- Node5 -->
<g id="node5" class="node">
<title>Node5</title>
<g id="a_node5"><a xlink:href="classRAY_1_1Audio_1_1Music.html" target="_top" xlink:title="A manager for music stream.">
<polygon fill="white" stroke="black" points="141,-259.5 141,-437.5 274,-437.5 274,-259.5 141,-259.5"/>
<text text-anchor="middle" x="207.5" y="-425.5" font-family="Helvetica,sans-Serif" font-size="10.00">RAY::Audio::Music</text>
<polyline fill="none" stroke="black" points="141,-418.5 274,-418.5 "/>
<text text-anchor="start" x="149" y="-406.5" font-family="Helvetica,sans-Serif" font-size="10.00">&#45; _music</text>
<polyline fill="none" stroke="black" points="141,-399.5 274,-399.5 "/>
<text text-anchor="start" x="149" y="-387.5" font-family="Helvetica,sans-Serif" font-size="10.00">+ Music()</text>
<text text-anchor="start" x="149" y="-376.5" font-family="Helvetica,sans-Serif" font-size="10.00">+ ~Music()</text>
<text text-anchor="start" x="149" y="-365.5" font-family="Helvetica,sans-Serif" font-size="10.00">+ Music()</text>
<text text-anchor="start" x="149" y="-354.5" font-family="Helvetica,sans-Serif" font-size="10.00">+ operator=()</text>
<text text-anchor="start" x="149" y="-343.5" font-family="Helvetica,sans-Serif" font-size="10.00">+ isPlaying()</text>
<text text-anchor="start" x="149" y="-332.5" font-family="Helvetica,sans-Serif" font-size="10.00">+ play()</text>
<text text-anchor="start" x="149" y="-321.5" font-family="Helvetica,sans-Serif" font-size="10.00">+ stop()</text>
<text text-anchor="start" x="149" y="-310.5" font-family="Helvetica,sans-Serif" font-size="10.00">+ pause()</text>
<text text-anchor="start" x="149" y="-299.5" font-family="Helvetica,sans-Serif" font-size="10.00">+ resume()</text>
<text text-anchor="start" x="149" y="-288.5" font-family="Helvetica,sans-Serif" font-size="10.00">+ setVolume()</text>
<text text-anchor="start" x="149" y="-277.5" font-family="Helvetica,sans-Serif" font-size="10.00">+ setPitch()</text>
<text text-anchor="start" x="149" y="-266.5" font-family="Helvetica,sans-Serif" font-size="10.00">+ updateMusicStream()</text>
</a>
</g>
</g>
<!-- Node5&#45;&gt;Node1 -->
<g id="edge4" class="edge">
<title>Node5&#45;&gt;Node1</title>
<path fill="none" stroke="#404040" d="M182.2,-259.31C178.85,-247.63 175.37,-235.51 171.91,-223.44"/>
<polygon fill="none" stroke="#404040" points="171.91,-223.44 166.41,-218.78 168.6,-211.9 174.1,-216.57 171.91,-223.44"/>
<text text-anchor="middle" x="196.5" y="-233" font-family="Helvetica,sans-Serif" font-size="10.00"> &#45;_music</text>
</g>
<!-- Node6 -->
<g id="node6" class="node">
<title>Node6</title>
<g id="a_node6"><a xlink:href="classRAY_1_1Audio_1_1IAudio.html" target="_top" xlink:title="Interface for Audio ressources.">
<polygon fill="white" stroke="black" points="155.5,-551.5 155.5,-685.5 259.5,-685.5 259.5,-551.5 155.5,-551.5"/>
<text text-anchor="middle" x="207.5" y="-673.5" font-family="Helvetica,sans-Serif" font-size="10.00">RAY::Audio::IAudio</text>
<polyline fill="none" stroke="black" points="155.5,-666.5 259.5,-666.5 "/>
<text text-anchor="middle" x="207.5" y="-654.5" font-family="Helvetica,sans-Serif" font-size="10.00"> </text>
<polyline fill="none" stroke="black" points="155.5,-647.5 259.5,-647.5 "/>
<text text-anchor="start" x="163.5" y="-635.5" font-family="Helvetica,sans-Serif" font-size="10.00">+ ~IAudio()</text>
<text text-anchor="start" x="163.5" y="-624.5" font-family="Helvetica,sans-Serif" font-size="10.00">+ isPlaying()</text>
<text text-anchor="start" x="163.5" y="-613.5" font-family="Helvetica,sans-Serif" font-size="10.00">+ play()</text>
<text text-anchor="start" x="163.5" y="-602.5" font-family="Helvetica,sans-Serif" font-size="10.00">+ stop()</text>
<text text-anchor="start" x="163.5" y="-591.5" font-family="Helvetica,sans-Serif" font-size="10.00">+ pause()</text>
<text text-anchor="start" x="163.5" y="-580.5" font-family="Helvetica,sans-Serif" font-size="10.00">+ resume()</text>
<text text-anchor="start" x="163.5" y="-569.5" font-family="Helvetica,sans-Serif" font-size="10.00">+ setVolume()</text>
<text text-anchor="start" x="163.5" y="-558.5" font-family="Helvetica,sans-Serif" font-size="10.00">+ setPitch()</text>
</a>
</g>
</g>
<!-- Node6&#45;&gt;Node5 -->
<g id="edge5" class="edge">
<title>Node6&#45;&gt;Node5</title>
<path fill="none" stroke="midnightblue" d="M207.5,-541C207.5,-508.79 207.5,-471.11 207.5,-437.74"/>
<polygon fill="none" stroke="midnightblue" points="204,-541.25 207.5,-551.25 211,-541.25 204,-541.25"/>
</g>
<!-- Node7 -->
<g id="node7" class="node">
<title>Node7</title>
<g id="a_node7"><a xlink:href="classRAY_1_1Cache.html" target="_top" xlink:title=" ">
<polygon fill="white" stroke="black" points="277.5,-551.5 277.5,-685.5 409.5,-685.5 409.5,-551.5 277.5,-551.5"/>
<text text-anchor="start" x="285.5" y="-673.5" font-family="Helvetica,sans-Serif" font-size="10.00">RAY::Cache&lt; RAY::Audio</text>
<text text-anchor="middle" x="343.5" y="-662.5" font-family="Helvetica,sans-Serif" font-size="10.00">::Music &gt;</text>
<polyline fill="none" stroke="black" points="277.5,-655.5 409.5,-655.5 "/>
<text text-anchor="start" x="285.5" y="-643.5" font-family="Helvetica,sans-Serif" font-size="10.00">&#45; _dataLoader</text>
<text text-anchor="start" x="285.5" y="-632.5" font-family="Helvetica,sans-Serif" font-size="10.00">&#45; _dataUnloader</text>
<text text-anchor="start" x="285.5" y="-621.5" font-family="Helvetica,sans-Serif" font-size="10.00">&#45; _cache</text>
<polyline fill="none" stroke="black" points="277.5,-614.5 409.5,-614.5 "/>
<text text-anchor="start" x="285.5" y="-602.5" font-family="Helvetica,sans-Serif" font-size="10.00">+ Cache()</text>
<text text-anchor="start" x="285.5" y="-591.5" font-family="Helvetica,sans-Serif" font-size="10.00">+ Cache()</text>
<text text-anchor="start" x="285.5" y="-580.5" font-family="Helvetica,sans-Serif" font-size="10.00">+ ~Cache()</text>
<text text-anchor="start" x="285.5" y="-569.5" font-family="Helvetica,sans-Serif" font-size="10.00">+ operator=()</text>
<text text-anchor="start" x="285.5" y="-558.5" font-family="Helvetica,sans-Serif" font-size="10.00">+ fetch()</text>
</a>
</g>
</g>
<!-- Node7&#45;&gt;Node5 -->
<g id="edge6" class="edge">
<title>Node7&#45;&gt;Node5</title>
<path fill="none" stroke="#404040" d="M309.88,-551.25C294.2,-520.34 275.2,-482.9 257.85,-448.71"/>
<polygon fill="none" stroke="#404040" points="257.71,-448.44 251.43,-444.9 252.28,-437.74 258.56,-441.28 257.71,-448.44"/>
<text text-anchor="middle" x="302" y="-459" font-family="Helvetica,sans-Serif" font-size="10.00"> &#45;_musicsCache</text>
</g>
</g>
</svg>
