<?xml version="1.0" encoding="UTF-8" standalone="no"?>
<!DOCTYPE svg PUBLIC "-//W3C//DTD SVG 1.1//EN"
 "http://www.w3.org/Graphics/SVG/1.1/DTD/svg11.dtd">
<!-- Generated by graphviz version 2.43.0 (0)
 -->
<!-- Title: RAY::Audio::Music Pages: 1 -->
<svg width="262pt" height="369pt"
 viewBox="0.00 0.00 262.00 369.00" xmlns="http://www.w3.org/2000/svg" xmlns:xlink="http://www.w3.org/1999/xlink">
<g id="graph0" class="graph" transform="scale(1 1) rotate(0) translate(4 365)">
<title>RAY::Audio::Music</title>
<polygon fill="white" stroke="transparent" points="-4,4 -4,-365 258,-365 258,4 -4,4"/>
<!-- Node1 -->
<g id="node1" class="node">
<title>Node1</title>
<g id="a_node1"><a xlink:title="A manager for music stream.">
<polygon fill="#bfbfbf" stroke="black" points="53.5,-0.5 53.5,-178.5 186.5,-178.5 186.5,-0.5 53.5,-0.5"/>
<text text-anchor="middle" x="120" y="-166.5" font-family="Helvetica,sans-Serif" font-size="10.00">RAY::Audio::Music</text>
<polyline fill="none" stroke="black" points="53.5,-159.5 186.5,-159.5 "/>
<text text-anchor="start" x="61.5" y="-147.5" font-family="Helvetica,sans-Serif" font-size="10.00">&#45; _music</text>
<polyline fill="none" stroke="black" points="53.5,-140.5 186.5,-140.5 "/>
<text text-anchor="start" x="61.5" y="-128.5" font-family="Helvetica,sans-Serif" font-size="10.00">+ Music()</text>
<text text-anchor="start" x="61.5" y="-117.5" font-family="Helvetica,sans-Serif" font-size="10.00">+ ~Music()</text>
<text text-anchor="start" x="61.5" y="-106.5" font-family="Helvetica,sans-Serif" font-size="10.00">+ Music()</text>
<text text-anchor="start" x="61.5" y="-95.5" font-family="Helvetica,sans-Serif" font-size="10.00">+ operator=()</text>
<text text-anchor="start" x="61.5" y="-84.5" font-family="Helvetica,sans-Serif" font-size="10.00">+ isPlaying()</text>
<text text-anchor="start" x="61.5" y="-73.5" font-family="Helvetica,sans-Serif" font-size="10.00">+ play()</text>
<text text-anchor="start" x="61.5" y="-62.5" font-family="Helvetica,sans-Serif" font-size="10.00">+ stop()</text>
<text text-anchor="start" x="61.5" y="-51.5" font-family="Helvetica,sans-Serif" font-size="10.00">+ pause()</text>
<text text-anchor="start" x="61.5" y="-40.5" font-family="Helvetica,sans-Serif" font-size="10.00">+ resume()</text>
<text text-anchor="start" x="61.5" y="-29.5" font-family="Helvetica,sans-Serif" font-size="10.00">+ setVolume()</text>
<text text-anchor="start" x="61.5" y="-18.5" font-family="Helvetica,sans-Serif" font-size="10.00">+ setPitch()</text>
<text text-anchor="start" x="61.5" y="-7.5" font-family="Helvetica,sans-Serif" font-size="10.00">+ updateMusicStream()</text>
</a>
</g>
</g>
<!-- Node2 -->
<g id="node2" class="node">
<title>Node2</title>
<g id="a_node2"><a xlink:href="classRAY_1_1Audio_1_1IAudio.html" target="_top" xlink:title="Interface for Audio ressources.">
<polygon fill="white" stroke="black" points="0,-226.5 0,-360.5 104,-360.5 104,-226.5 0,-226.5"/>
<text text-anchor="middle" x="52" y="-348.5" font-family="Helvetica,sans-Serif" font-size="10.00">RAY::Audio::IAudio</text>
<polyline fill="none" stroke="black" points="0,-341.5 104,-341.5 "/>
<text text-anchor="middle" x="52" y="-329.5" font-family="Helvetica,sans-Serif" font-size="10.00"> </text>
<polyline fill="none" stroke="black" points="0,-322.5 104,-322.5 "/>
<text text-anchor="start" x="8" y="-310.5" font-family="Helvetica,sans-Serif" font-size="10.00">+ ~IAudio()</text>
<text text-anchor="start" x="8" y="-299.5" font-family="Helvetica,sans-Serif" font-size="10.00">+ isPlaying()</text>
<text text-anchor="start" x="8" y="-288.5" font-family="Helvetica,sans-Serif" font-size="10.00">+ play()</text>
<text text-anchor="start" x="8" y="-277.5" font-family="Helvetica,sans-Serif" font-size="10.00">+ stop()</text>
<text text-anchor="start" x="8" y="-266.5" font-family="Helvetica,sans-Serif" font-size="10.00">+ pause()</text>
<text text-anchor="start" x="8" y="-255.5" font-family="Helvetica,sans-Serif" font-size="10.00">+ resume()</text>
<text text-anchor="start" x="8" y="-244.5" font-family="Helvetica,sans-Serif" font-size="10.00">+ setVolume()</text>
<text text-anchor="start" x="8" y="-233.5" font-family="Helvetica,sans-Serif" font-size="10.00">+ setPitch()</text>
</a>
</g>
</g>
<!-- Node2&#45;&gt;Node1 -->
<g id="edge1" class="edge">
<title>Node2&#45;&gt;Node1</title>
<path fill="none" stroke="midnightblue" d="M77.55,-216.6C81.7,-204.28 86.03,-191.42 90.27,-178.82"/>
<polygon fill="none" stroke="midnightblue" points="74.14,-215.76 74.27,-226.36 80.77,-218 74.14,-215.76"/>
</g>
<!-- Node3 -->
<g id="node3" class="node">
<title>Node3</title>
<g id="a_node3"><a xlink:href="classRAY_1_1Cache.html" target="_top" xlink:title=" ">
<polygon fill="white" stroke="black" points="122,-226.5 122,-360.5 254,-360.5 254,-226.5 122,-226.5"/>
<text text-anchor="start" x="130" y="-348.5" font-family="Helvetica,sans-Serif" font-size="10.00">RAY::Cache&lt; RAY::Audio</text>
<text text-anchor="middle" x="188" y="-337.5" font-family="Helvetica,sans-Serif" font-size="10.00">::Music &gt;</text>
<polyline fill="none" stroke="black" points="122,-330.5 254,-330.5 "/>
<text text-anchor="start" x="130" y="-318.5" font-family="Helvetica,sans-Serif" font-size="10.00">&#45; _dataLoader</text>
<text text-anchor="start" x="130" y="-307.5" font-family="Helvetica,sans-Serif" font-size="10.00">&#45; _dataUnloader</text>
<text text-anchor="start" x="130" y="-296.5" font-family="Helvetica,sans-Serif" font-size="10.00">&#45; _cache</text>
<polyline fill="none" stroke="black" points="122,-289.5 254,-289.5 "/>
<text text-anchor="start" x="130" y="-277.5" font-family="Helvetica,sans-Serif" font-size="10.00">+ Cache()</text>
<text text-anchor="start" x="130" y="-266.5" font-family="Helvetica,sans-Serif" font-size="10.00">+ Cache()</text>
<text text-anchor="start" x="130" y="-255.5" font-family="Helvetica,sans-Serif" font-size="10.00">+ ~Cache()</text>
<text text-anchor="start" x="130" y="-244.5" font-family="Helvetica,sans-Serif" font-size="10.00">+ operator=()</text>
<text text-anchor="start" x="130" y="-233.5" font-family="Helvetica,sans-Serif" font-size="10.00">+ fetch()</text>
</a>
</g>
</g>
<!-- Node3&#45;&gt;Node1 -->
<g id="edge2" class="edge">
<title>Node3&#45;&gt;Node1</title>
<path fill="none" stroke="#404040" d="M165.73,-226.36C161.86,-214.85 157.75,-202.65 153.65,-190.47"/>
<polygon fill="none" stroke="#404040" points="153.56,-190.2 147.86,-185.79 149.73,-178.82 155.44,-183.23 153.56,-190.2"/>
<text text-anchor="middle" x="196.5" y="-200" font-family="Helvetica,sans-Serif" font-size="10.00"> &#45;_musicsCache</text>
</g>
</g>
</svg>
