<?xml version="1.0" encoding="UTF-8" standalone="no"?>
<!DOCTYPE svg PUBLIC "-//W3C//DTD SVG 1.1//EN"
 "http://www.w3.org/Graphics/SVG/1.1/DTD/svg11.dtd">
<!-- Generated by graphviz version 2.43.0 (0)
 -->
<!-- Title: RAY::Drawables::ADrawable2D Pages: 1 -->
<svg width="1028pt" height="865pt"
 viewBox="0.00 0.00 1028.00 865.00" xmlns="http://www.w3.org/2000/svg" xmlns:xlink="http://www.w3.org/1999/xlink">
<g id="graph0" class="graph" transform="scale(1 1) rotate(0) translate(4 861)">
<title>RAY::Drawables::ADrawable2D</title>
<polygon fill="white" stroke="transparent" points="-4,4 -4,-861 1024,-861 1024,4 -4,4"/>
<!-- Node1 -->
<g id="node1" class="node">
<title>Node1</title>
<g id="a_node1"><a xlink:title="Abstraction of any two&#45;dimensionnal drawable.">
<polygon fill="#bfbfbf" stroke="black" points="427.5,-529.5 427.5,-751.5 591.5,-751.5 591.5,-529.5 427.5,-529.5"/>
<text text-anchor="middle" x="509.5" y="-739.5" font-family="Helvetica,sans-Serif" font-size="10.00">RAY::Drawables::ADrawable2D</text>
<polyline fill="none" stroke="black" points="427.5,-732.5 591.5,-732.5 "/>
<text text-anchor="start" x="435.5" y="-720.5" font-family="Helvetica,sans-Serif" font-size="10.00"># _rotation</text>
<text text-anchor="start" x="435.5" y="-709.5" font-family="Helvetica,sans-Serif" font-size="10.00"># _scale</text>
<text text-anchor="start" x="435.5" y="-698.5" font-family="Helvetica,sans-Serif" font-size="10.00"># _position</text>
<text text-anchor="start" x="435.5" y="-687.5" font-family="Helvetica,sans-Serif" font-size="10.00"># _color</text>
<polyline fill="none" stroke="black" points="427.5,-680.5 591.5,-680.5 "/>
<text text-anchor="start" x="435.5" y="-668.5" font-family="Helvetica,sans-Serif" font-size="10.00">+ ADrawable2D()</text>
<text text-anchor="start" x="435.5" y="-657.5" font-family="Helvetica,sans-Serif" font-size="10.00">+ ADrawable2D()</text>
<text text-anchor="start" x="435.5" y="-646.5" font-family="Helvetica,sans-Serif" font-size="10.00">+ ADrawable2D()</text>
<text text-anchor="start" x="435.5" y="-635.5" font-family="Helvetica,sans-Serif" font-size="10.00">+ ~ADrawable2D()</text>
<text text-anchor="start" x="435.5" y="-624.5" font-family="Helvetica,sans-Serif" font-size="10.00">+ getPosition()</text>
<text text-anchor="start" x="435.5" y="-613.5" font-family="Helvetica,sans-Serif" font-size="10.00">+ getColor()</text>
<text text-anchor="start" x="435.5" y="-602.5" font-family="Helvetica,sans-Serif" font-size="10.00">+ setPosition()</text>
<text text-anchor="start" x="435.5" y="-591.5" font-family="Helvetica,sans-Serif" font-size="10.00">+ setPosition()</text>
<text text-anchor="start" x="435.5" y="-580.5" font-family="Helvetica,sans-Serif" font-size="10.00">+ setColor()</text>
<text text-anchor="start" x="435.5" y="-569.5" font-family="Helvetica,sans-Serif" font-size="10.00">+ drawOn()</text>
<text text-anchor="start" x="435.5" y="-558.5" font-family="Helvetica,sans-Serif" font-size="10.00">+ drawOn()</text>
<text text-anchor="start" x="435.5" y="-547.5" font-family="Helvetica,sans-Serif" font-size="10.00">+ getScale()</text>
<text text-anchor="start" x="435.5" y="-536.5" font-family="Helvetica,sans-Serif" font-size="10.00">+ setScale()</text>
</a>
</g>
</g>
<!-- Node3 -->
<g id="node3" class="node">
<title>Node3</title>
<g id="a_node3"><a xlink:href="classRAY_1_1Drawables_1_1Drawables2D_1_1Circle.html" target="_top" xlink:title="Circle in a two&#45;dimensionnal space.">
<polygon fill="white" stroke="black" points="0,-287 0,-443 155,-443 155,-287 0,-287"/>
<text text-anchor="start" x="8" y="-431" font-family="Helvetica,sans-Serif" font-size="10.00">RAY::Drawables::Drawables2</text>
<text text-anchor="middle" x="77.5" y="-420" font-family="Helvetica,sans-Serif" font-size="10.00">D::Circle</text>
<polyline fill="none" stroke="black" points="0,-413 155,-413 "/>
<text text-anchor="start" x="8" y="-401" font-family="Helvetica,sans-Serif" font-size="10.00">&#45; _radius</text>
<polyline fill="none" stroke="black" points="0,-394 155,-394 "/>
<text text-anchor="start" x="8" y="-382" font-family="Helvetica,sans-Serif" font-size="10.00">+ Circle()</text>
<text text-anchor="start" x="8" y="-371" font-family="Helvetica,sans-Serif" font-size="10.00">+ Circle()</text>
<text text-anchor="start" x="8" y="-360" font-family="Helvetica,sans-Serif" font-size="10.00">+ Circle()</text>
<text text-anchor="start" x="8" y="-349" font-family="Helvetica,sans-Serif" font-size="10.00">+ operator=()</text>
<text text-anchor="start" x="8" y="-338" font-family="Helvetica,sans-Serif" font-size="10.00">+ ~Circle()</text>
<text text-anchor="start" x="8" y="-327" font-family="Helvetica,sans-Serif" font-size="10.00">+ getRadius()</text>
<text text-anchor="start" x="8" y="-316" font-family="Helvetica,sans-Serif" font-size="10.00">+ setRadius()</text>
<text text-anchor="start" x="8" y="-305" font-family="Helvetica,sans-Serif" font-size="10.00">+ drawOn()</text>
<text text-anchor="start" x="8" y="-294" font-family="Helvetica,sans-Serif" font-size="10.00">+ drawOn()</text>
</a>
</g>
</g>
<!-- Node1&#45;&gt;Node3 -->
<g id="edge2" class="edge">
<title>Node1&#45;&gt;Node3</title>
<path fill="none" stroke="midnightblue" d="M417.41,-616.27C342.88,-594 238.37,-554.55 163.5,-493 146.63,-479.13 131.75,-461.12 119.3,-443.04"/>
<polygon fill="none" stroke="midnightblue" points="416.68,-619.71 427.26,-619.17 418.66,-612.99 416.68,-619.71"/>
</g>
<!-- Node4 -->
<g id="node4" class="node">
<title>Node4</title>
<g id="a_node4"><a xlink:href="classRAY_1_1Drawables_1_1Drawables2D_1_1Line.html" target="_top" xlink:title="Line in a two&#45;dimensionnal space.">
<polygon fill="white" stroke="black" points="173,-287 173,-443 328,-443 328,-287 173,-287"/>
<text text-anchor="start" x="181" y="-431" font-family="Helvetica,sans-Serif" font-size="10.00">RAY::Drawables::Drawables2</text>
<text text-anchor="middle" x="250.5" y="-420" font-family="Helvetica,sans-Serif" font-size="10.00">D::Line</text>
<polyline fill="none" stroke="black" points="173,-413 328,-413 "/>
<text text-anchor="start" x="181" y="-401" font-family="Helvetica,sans-Serif" font-size="10.00">&#45; _end</text>
<polyline fill="none" stroke="black" points="173,-394 328,-394 "/>
<text text-anchor="start" x="181" y="-382" font-family="Helvetica,sans-Serif" font-size="10.00">+ Line()</text>
<text text-anchor="start" x="181" y="-371" font-family="Helvetica,sans-Serif" font-size="10.00">+ Line()</text>
<text text-anchor="start" x="181" y="-360" font-family="Helvetica,sans-Serif" font-size="10.00">+ Line()</text>
<text text-anchor="start" x="181" y="-349" font-family="Helvetica,sans-Serif" font-size="10.00">+ operator=()</text>
<text text-anchor="start" x="181" y="-338" font-family="Helvetica,sans-Serif" font-size="10.00">+ ~Line()</text>
<text text-anchor="start" x="181" y="-327" font-family="Helvetica,sans-Serif" font-size="10.00">+ getEndPosition()</text>
<text text-anchor="start" x="181" y="-316" font-family="Helvetica,sans-Serif" font-size="10.00">+ setEndPosition()</text>
<text text-anchor="start" x="181" y="-305" font-family="Helvetica,sans-Serif" font-size="10.00">+ drawOn()</text>
<text text-anchor="start" x="181" y="-294" font-family="Helvetica,sans-Serif" font-size="10.00">+ drawOn()</text>
</a>
</g>
</g>
<!-- Node1&#45;&gt;Node4 -->
<g id="edge3" class="edge">
<title>Node1&#45;&gt;Node4</title>
<path fill="none" stroke="midnightblue" d="M419.58,-571.27C391.49,-547.94 361.38,-520.7 336.5,-493 322.8,-477.74 309.56,-460.18 297.75,-443.07"/>
<polygon fill="none" stroke="midnightblue" points="417.5,-574.09 427.44,-577.74 421.95,-568.68 417.5,-574.09"/>
</g>
<!-- Node5 -->
<g id="node5" class="node">
<title>Node5</title>
<g id="a_node5"><a xlink:href="classRAY_1_1Drawables_1_1Drawables2D_1_1Point.html" target="_top" xlink:title="Point in a two&#45;dimensionnal space.">
<polygon fill="white" stroke="black" points="346,-298 346,-432 501,-432 501,-298 346,-298"/>
<text text-anchor="start" x="354" y="-420" font-family="Helvetica,sans-Serif" font-size="10.00">RAY::Drawables::Drawables2</text>
<text text-anchor="middle" x="423.5" y="-409" font-family="Helvetica,sans-Serif" font-size="10.00">D::Point</text>
<polyline fill="none" stroke="black" points="346,-402 501,-402 "/>
<text text-anchor="middle" x="423.5" y="-390" font-family="Helvetica,sans-Serif" font-size="10.00"> </text>
<polyline fill="none" stroke="black" points="346,-383 501,-383 "/>
<text text-anchor="start" x="354" y="-371" font-family="Helvetica,sans-Serif" font-size="10.00">+ Point()</text>
<text text-anchor="start" x="354" y="-360" font-family="Helvetica,sans-Serif" font-size="10.00">+ Point()</text>
<text text-anchor="start" x="354" y="-349" font-family="Helvetica,sans-Serif" font-size="10.00">+ Point()</text>
<text text-anchor="start" x="354" y="-338" font-family="Helvetica,sans-Serif" font-size="10.00">+ operator=()</text>
<text text-anchor="start" x="354" y="-327" font-family="Helvetica,sans-Serif" font-size="10.00">+ ~Point()</text>
<text text-anchor="start" x="354" y="-316" font-family="Helvetica,sans-Serif" font-size="10.00">+ drawOn()</text>
<text text-anchor="start" x="354" y="-305" font-family="Helvetica,sans-Serif" font-size="10.00">+ drawOn()</text>
</a>
</g>
</g>
<!-- Node1&#45;&gt;Node5 -->
<g id="edge4" class="edge">
<title>Node1&#45;&gt;Node5</title>
<path fill="none" stroke="midnightblue" d="M471.84,-519.73C462.39,-489.69 452.6,-458.53 444.31,-432.19"/>
<polygon fill="none" stroke="midnightblue" points="468.55,-520.95 474.89,-529.44 475.23,-518.85 468.55,-520.95"/>
</g>
<!-- Node6 -->
<g id="node6" class="node">
<title>Node6</title>
<g id="a_node6"><a xlink:href="classRAY_1_1Drawables_1_1Drawables2D_1_1Rectangle.html" target="_top" xlink:title="Rectangle in a two&#45;dimensional space.">
<polygon fill="white" stroke="black" points="519,-270.5 519,-459.5 674,-459.5 674,-270.5 519,-270.5"/>
<text text-anchor="start" x="527" y="-447.5" font-family="Helvetica,sans-Serif" font-size="10.00">RAY::Drawables::Drawables2</text>
<text text-anchor="middle" x="596.5" y="-436.5" font-family="Helvetica,sans-Serif" font-size="10.00">D::Rectangle</text>
<polyline fill="none" stroke="black" points="519,-429.5 674,-429.5 "/>
<text text-anchor="start" x="527" y="-417.5" font-family="Helvetica,sans-Serif" font-size="10.00"># _dimensions</text>
<text text-anchor="start" x="527" y="-406.5" font-family="Helvetica,sans-Serif" font-size="10.00"># __pad0__</text>
<polyline fill="none" stroke="black" points="519,-399.5 674,-399.5 "/>
<text text-anchor="start" x="527" y="-387.5" font-family="Helvetica,sans-Serif" font-size="10.00">+ Rectangle()</text>
<text text-anchor="start" x="527" y="-376.5" font-family="Helvetica,sans-Serif" font-size="10.00">+ Rectangle()</text>
<text text-anchor="start" x="527" y="-365.5" font-family="Helvetica,sans-Serif" font-size="10.00">+ Rectangle()</text>
<text text-anchor="start" x="527" y="-354.5" font-family="Helvetica,sans-Serif" font-size="10.00">+ operator=()</text>
<text text-anchor="start" x="527" y="-343.5" font-family="Helvetica,sans-Serif" font-size="10.00">+ ~Rectangle()</text>
<text text-anchor="start" x="527" y="-332.5" font-family="Helvetica,sans-Serif" font-size="10.00">+ getDimensions()</text>
<text text-anchor="start" x="527" y="-321.5" font-family="Helvetica,sans-Serif" font-size="10.00">+ getWidth()</text>
<text text-anchor="start" x="527" y="-310.5" font-family="Helvetica,sans-Serif" font-size="10.00">+ getHeight()</text>
<text text-anchor="start" x="527" y="-299.5" font-family="Helvetica,sans-Serif" font-size="10.00">+ setDimensions()</text>
<text text-anchor="start" x="527" y="-288.5" font-family="Helvetica,sans-Serif" font-size="10.00">+ incrementWidth()</text>
<text text-anchor="start" x="527" y="-277.5" font-family="Helvetica,sans-Serif" font-size="10.00">and 6 more...</text>
</a>
</g>
</g>
<!-- Node1&#45;&gt;Node6 -->
<g id="edge5" class="edge">
<title>Node1&#45;&gt;Node6</title>
<path fill="none" stroke="midnightblue" d="M547.55,-519.89C553.97,-499.69 560.56,-478.99 566.73,-459.58"/>
<polygon fill="none" stroke="midnightblue" points="544.21,-518.85 544.51,-529.44 550.88,-520.97 544.21,-518.85"/>
</g>
<!-- Node9 -->
<g id="node9" class="node">
<title>Node9</title>
<g id="a_node9"><a xlink:href="classRAY_1_1Drawables_1_1Drawables2D_1_1Text.html" target="_top" xlink:title="Text in a two&#45;dimensionnal space.">
<polygon fill="white" stroke="black" points="692,-237.5 692,-492.5 847,-492.5 847,-237.5 692,-237.5"/>
<text text-anchor="start" x="700" y="-480.5" font-family="Helvetica,sans-Serif" font-size="10.00">RAY::Drawables::Drawables2</text>
<text text-anchor="middle" x="769.5" y="-469.5" font-family="Helvetica,sans-Serif" font-size="10.00">D::Text</text>
<polyline fill="none" stroke="black" points="692,-462.5 847,-462.5 "/>
<text text-anchor="start" x="700" y="-450.5" font-family="Helvetica,sans-Serif" font-size="10.00">+ DefaultLetterSpacing</text>
<text text-anchor="start" x="700" y="-439.5" font-family="Helvetica,sans-Serif" font-size="10.00">&#45; _text</text>
<text text-anchor="start" x="700" y="-428.5" font-family="Helvetica,sans-Serif" font-size="10.00">&#45; _font</text>
<text text-anchor="start" x="700" y="-417.5" font-family="Helvetica,sans-Serif" font-size="10.00">&#45; _size</text>
<text text-anchor="start" x="700" y="-406.5" font-family="Helvetica,sans-Serif" font-size="10.00">&#45; _spacing</text>
<polyline fill="none" stroke="black" points="692,-399.5 847,-399.5 "/>
<text text-anchor="start" x="700" y="-387.5" font-family="Helvetica,sans-Serif" font-size="10.00">+ Text()</text>
<text text-anchor="start" x="700" y="-376.5" font-family="Helvetica,sans-Serif" font-size="10.00">+ Text()</text>
<text text-anchor="start" x="700" y="-365.5" font-family="Helvetica,sans-Serif" font-size="10.00">+ Text()</text>
<text text-anchor="start" x="700" y="-354.5" font-family="Helvetica,sans-Serif" font-size="10.00">+ operator=()</text>
<text text-anchor="start" x="700" y="-343.5" font-family="Helvetica,sans-Serif" font-size="10.00">+ ~Text()</text>
<text text-anchor="start" x="700" y="-332.5" font-family="Helvetica,sans-Serif" font-size="10.00">+ getString()</text>
<text text-anchor="start" x="700" y="-321.5" font-family="Helvetica,sans-Serif" font-size="10.00">+ getFontSize()</text>
<text text-anchor="start" x="700" y="-310.5" font-family="Helvetica,sans-Serif" font-size="10.00">+ getLetterSpacing()</text>
<text text-anchor="start" x="700" y="-299.5" font-family="Helvetica,sans-Serif" font-size="10.00">+ setFont()</text>
<text text-anchor="start" x="700" y="-288.5" font-family="Helvetica,sans-Serif" font-size="10.00">+ setText()</text>
<text text-anchor="start" x="700" y="-277.5" font-family="Helvetica,sans-Serif" font-size="10.00">+ setLetterSpacing()</text>
<text text-anchor="start" x="700" y="-266.5" font-family="Helvetica,sans-Serif" font-size="10.00">+ setFontSize()</text>
<text text-anchor="start" x="700" y="-255.5" font-family="Helvetica,sans-Serif" font-size="10.00">+ drawOn()</text>
<text text-anchor="start" x="700" y="-244.5" font-family="Helvetica,sans-Serif" font-size="10.00">+ drawOn()</text>
</a>
</g>
</g>
<!-- Node1&#45;&gt;Node9 -->
<g id="edge8" class="edge">
<title>Node1&#45;&gt;Node9</title>
<path fill="none" stroke="midnightblue" d="M599.74,-570.85C627.7,-547.59 657.67,-520.5 682.5,-493 685.63,-489.53 688.75,-485.94 691.83,-482.26"/>
<polygon fill="none" stroke="midnightblue" points="597.4,-568.24 591.91,-577.31 601.85,-573.64 597.4,-568.24"/>
</g>
<!-- Node10 -->
<g id="node10" class="node">
<title>Node10</title>
<g id="a_node10"><a xlink:href="classRAY_1_1Drawables_1_1Drawables2D_1_1Triangle.html" target="_top" xlink:title="Triangle in a two&#45;dimensionnal space.">
<polygon fill="white" stroke="black" points="865,-265 865,-465 1020,-465 1020,-265 865,-265"/>
<text text-anchor="start" x="873" y="-453" font-family="Helvetica,sans-Serif" font-size="10.00">RAY::Drawables::Drawables2</text>
<text text-anchor="middle" x="942.5" y="-442" font-family="Helvetica,sans-Serif" font-size="10.00">D::Triangle</text>
<polyline fill="none" stroke="black" points="865,-435 1020,-435 "/>
<text text-anchor="start" x="873" y="-423" font-family="Helvetica,sans-Serif" font-size="10.00">&#45; _posB</text>
<text text-anchor="start" x="873" y="-412" font-family="Helvetica,sans-Serif" font-size="10.00">&#45; _posC</text>
<polyline fill="none" stroke="black" points="865,-405 1020,-405 "/>
<text text-anchor="start" x="873" y="-393" font-family="Helvetica,sans-Serif" font-size="10.00">+ Triangle()</text>
<text text-anchor="start" x="873" y="-382" font-family="Helvetica,sans-Serif" font-size="10.00">+ Triangle()</text>
<text text-anchor="start" x="873" y="-371" font-family="Helvetica,sans-Serif" font-size="10.00">+ operator=()</text>
<text text-anchor="start" x="873" y="-360" font-family="Helvetica,sans-Serif" font-size="10.00">+ ~Triangle()</text>
<text text-anchor="start" x="873" y="-349" font-family="Helvetica,sans-Serif" font-size="10.00">+ getPositionA()</text>
<text text-anchor="start" x="873" y="-338" font-family="Helvetica,sans-Serif" font-size="10.00">+ getPositionB()</text>
<text text-anchor="start" x="873" y="-327" font-family="Helvetica,sans-Serif" font-size="10.00">+ getPositionC()</text>
<text text-anchor="start" x="873" y="-316" font-family="Helvetica,sans-Serif" font-size="10.00">+ setPositionA()</text>
<text text-anchor="start" x="873" y="-305" font-family="Helvetica,sans-Serif" font-size="10.00">+ setPositionB()</text>
<text text-anchor="start" x="873" y="-294" font-family="Helvetica,sans-Serif" font-size="10.00">+ setPositionC()</text>
<text text-anchor="start" x="873" y="-283" font-family="Helvetica,sans-Serif" font-size="10.00">+ drawOn()</text>
<text text-anchor="start" x="873" y="-272" font-family="Helvetica,sans-Serif" font-size="10.00">+ drawOn()</text>
</a>
</g>
</g>
<!-- Node1&#45;&gt;Node10 -->
<g id="edge9" class="edge">
<title>Node1&#45;&gt;Node10</title>
<path fill="none" stroke="midnightblue" d="M601.5,-616.17C675.98,-593.83 780.46,-554.35 855.5,-493 865.43,-484.88 874.7,-475.34 883.2,-465.2"/>
<polygon fill="none" stroke="midnightblue" points="600.26,-612.89 591.66,-619.07 602.24,-619.6 600.26,-612.89"/>
</g>
<!-- Node2 -->
<g id="node2" class="node">
<title>Node2</title>
<g id="a_node2"><a xlink:href="classRAY_1_1Drawables_1_1IDrawable.html" target="_top" xlink:title="Interface for any drawable.">
<polygon fill="white" stroke="black" points="436,-788.5 436,-856.5 583,-856.5 583,-788.5 436,-788.5"/>
<text text-anchor="middle" x="509.5" y="-844.5" font-family="Helvetica,sans-Serif" font-size="10.00">RAY::Drawables::IDrawable</text>
<polyline fill="none" stroke="black" points="436,-837.5 583,-837.5 "/>
<text text-anchor="middle" x="509.5" y="-825.5" font-family="Helvetica,sans-Serif" font-size="10.00"> </text>
<polyline fill="none" stroke="black" points="436,-818.5 583,-818.5 "/>
<text text-anchor="start" x="444" y="-806.5" font-family="Helvetica,sans-Serif" font-size="10.00">+ ~IDrawable()</text>
<text text-anchor="start" x="444" y="-795.5" font-family="Helvetica,sans-Serif" font-size="10.00">+ drawOn()</text>
</a>
</g>
</g>
<!-- Node2&#45;&gt;Node1 -->
<g id="edge1" class="edge">
<title>Node2&#45;&gt;Node1</title>
<path fill="none" stroke="midnightblue" d="M509.5,-778.35C509.5,-770.01 509.5,-760.92 509.5,-751.52"/>
<polygon fill="none" stroke="midnightblue" points="506,-778.49 509.5,-788.49 513,-778.49 506,-778.49"/>
</g>
<!-- Node7 -->
<g id="node7" class="node">
<title>Node7</title>
<g id="a_node7"><a xlink:href="classRAY_1_1Image.html" target="_top" xlink:title="Object representation of a framebuffer.">
<polygon fill="white" stroke="black" points="470,-0.5 470,-200.5 587,-200.5 587,-0.5 470,-0.5"/>
<text text-anchor="middle" x="528.5" y="-188.5" font-family="Helvetica,sans-Serif" font-size="10.00">RAY::Image</text>
<polyline fill="none" stroke="black" points="470,-181.5 587,-181.5 "/>
<text text-anchor="start" x="478" y="-169.5" font-family="Helvetica,sans-Serif" font-size="10.00">&#45; _image</text>
<text text-anchor="start" x="478" y="-158.5" font-family="Helvetica,sans-Serif" font-size="10.00">&#45; _ressourcePath</text>
<text text-anchor="start" x="478" y="-147.5" font-family="Helvetica,sans-Serif" font-size="10.00">&#45; __pad0__</text>
<text text-anchor="start" x="478" y="-136.5" font-family="Helvetica,sans-Serif" font-size="10.00">&#45; _imagesCache</text>
<polyline fill="none" stroke="black" points="470,-129.5 587,-129.5 "/>
<text text-anchor="start" x="478" y="-117.5" font-family="Helvetica,sans-Serif" font-size="10.00">+ Image()</text>
<text text-anchor="start" x="478" y="-106.5" font-family="Helvetica,sans-Serif" font-size="10.00">+ Image()</text>
<text text-anchor="start" x="478" y="-95.5" font-family="Helvetica,sans-Serif" font-size="10.00">+ operator=()</text>
<text text-anchor="start" x="478" y="-84.5" font-family="Helvetica,sans-Serif" font-size="10.00">+ ~Image()</text>
<text text-anchor="start" x="478" y="-73.5" font-family="Helvetica,sans-Serif" font-size="10.00">+ exportTo()</text>
<text text-anchor="start" x="478" y="-62.5" font-family="Helvetica,sans-Serif" font-size="10.00">+ draw()</text>
<text text-anchor="start" x="478" y="-51.5" font-family="Helvetica,sans-Serif" font-size="10.00">+ drawOn()</text>
<text text-anchor="start" x="478" y="-40.5" font-family="Helvetica,sans-Serif" font-size="10.00">+ drawOn()</text>
<text text-anchor="start" x="478" y="-29.5" font-family="Helvetica,sans-Serif" font-size="10.00">+ resize()</text>
<text text-anchor="start" x="478" y="-18.5" font-family="Helvetica,sans-Serif" font-size="10.00">+ use()</text>
<text text-anchor="start" x="478" y="-7.5" font-family="Helvetica,sans-Serif" font-size="10.00">&#45; operator::Image *()</text>
</a>
</g>
</g>
<!-- Node6&#45;&gt;Node7 -->
<g id="edge6" class="edge">
<title>Node6&#45;&gt;Node7</title>
<path fill="none" stroke="midnightblue" d="M569.68,-260.48C564.6,-240.87 559.3,-220.38 554.25,-200.9"/>
<polygon fill="none" stroke="midnightblue" points="566.34,-261.54 572.24,-270.34 573.12,-259.79 566.34,-261.54"/>
</g>
<!-- Node8 -->
<g id="node8" class="node">
<title>Node8</title>
<g id="a_node8"><a xlink:href="classRAY_1_1Texture.html" target="_top" xlink:title="Object representation of a texture.">
<polygon fill="white" stroke="black" points="605,-6 605,-195 722,-195 722,-6 605,-6"/>
<text text-anchor="middle" x="663.5" y="-183" font-family="Helvetica,sans-Serif" font-size="10.00">RAY::Texture</text>
<polyline fill="none" stroke="black" points="605,-176 722,-176 "/>
<text text-anchor="start" x="613" y="-164" font-family="Helvetica,sans-Serif" font-size="10.00">&#45; _texture</text>
<text text-anchor="start" x="613" y="-153" font-family="Helvetica,sans-Serif" font-size="10.00">&#45; _resourcePath</text>
<text text-anchor="start" x="613" y="-142" font-family="Helvetica,sans-Serif" font-size="10.00">&#45; __pad0__</text>
<text text-anchor="start" x="613" y="-131" font-family="Helvetica,sans-Serif" font-size="10.00">&#45; _texturesCache</text>
<polyline fill="none" stroke="black" points="605,-124 722,-124 "/>
<text text-anchor="start" x="613" y="-112" font-family="Helvetica,sans-Serif" font-size="10.00">+ Texture()</text>
<text text-anchor="start" x="613" y="-101" font-family="Helvetica,sans-Serif" font-size="10.00">+ Texture()</text>
<text text-anchor="start" x="613" y="-90" font-family="Helvetica,sans-Serif" font-size="10.00">+ Texture()</text>
<text text-anchor="start" x="613" y="-79" font-family="Helvetica,sans-Serif" font-size="10.00">+ Texture()</text>
<text text-anchor="start" x="613" y="-68" font-family="Helvetica,sans-Serif" font-size="10.00">+ operator=()</text>
<text text-anchor="start" x="613" y="-57" font-family="Helvetica,sans-Serif" font-size="10.00">+ ~Texture()</text>
<text text-anchor="start" x="613" y="-46" font-family="Helvetica,sans-Serif" font-size="10.00">+ drawOn()</text>
<text text-anchor="start" x="613" y="-35" font-family="Helvetica,sans-Serif" font-size="10.00">+ use()</text>
<text text-anchor="start" x="613" y="-24" font-family="Helvetica,sans-Serif" font-size="10.00">+ unload()</text>
<text text-anchor="start" x="613" y="-13" font-family="Helvetica,sans-Serif" font-size="10.00">+ getResourcePath()</text>
</a>
</g>
</g>
<!-- Node6&#45;&gt;Node8 -->
<g id="edge7" class="edge">
<title>Node6&#45;&gt;Node8</title>
<path fill="none" stroke="midnightblue" d="M622.91,-260.51C628.42,-238.94 634.19,-216.31 639.6,-195.12"/>
<polygon fill="none" stroke="midnightblue" points="619.49,-259.79 620.4,-270.34 626.27,-261.52 619.49,-259.79"/>
</g>
</g>
</svg>
