<?xml version="1.0" encoding="UTF-8" standalone="no"?>
<!DOCTYPE svg PUBLIC "-//W3C//DTD SVG 1.1//EN"
 "http://www.w3.org/Graphics/SVG/1.1/DTD/svg11.dtd">
<!-- Generated by graphviz version 2.43.0 (0)
 -->
<!-- Title: BBM::CollisionComponent Pages: 1 -->
<svg width="429pt" height="1030pt"
 viewBox="0.00 0.00 428.50 1030.00" xmlns="http://www.w3.org/2000/svg" xmlns:xlink="http://www.w3.org/1999/xlink">
<g id="graph0" class="graph" transform="scale(1 1) rotate(0) translate(4 1026)">
<title>BBM::CollisionComponent</title>
<polygon fill="white" stroke="transparent" points="-4,4 -4,-1026 424.5,-1026 424.5,4 -4,4"/>
<!-- Node1 -->
<g id="node1" class="node">
<title>Node1</title>
<g id="a_node1"><a xlink:title=" ">
<polygon fill="#bfbfbf" stroke="black" points="135,-0.5 135,-145.5 278,-145.5 278,-0.5 135,-0.5"/>
<text text-anchor="middle" x="206.5" y="-133.5" font-family="Helvetica,sans-Serif" font-size="10.00">BBM::CollisionComponent</text>
<polyline fill="none" stroke="black" points="135,-126.5 278,-126.5 "/>
<text text-anchor="middle" x="206.5" y="-114.5" font-family="Helvetica,sans-Serif" font-size="10.00"> </text>
<polyline fill="none" stroke="black" points="135,-107.5 278,-107.5 "/>
<text text-anchor="start" x="143" y="-95.5" font-family="Helvetica,sans-Serif" font-size="10.00">+ clone()</text>
<text text-anchor="start" x="143" y="-84.5" font-family="Helvetica,sans-Serif" font-size="10.00">+ CollisionComponent()</text>
<text text-anchor="start" x="143" y="-73.5" font-family="Helvetica,sans-Serif" font-size="10.00">+ CollisionComponent()</text>
<text text-anchor="start" x="143" y="-62.5" font-family="Helvetica,sans-Serif" font-size="10.00">+ CollisionComponent()</text>
<text text-anchor="start" x="143" y="-51.5" font-family="Helvetica,sans-Serif" font-size="10.00">+ CollisionComponent()</text>
<text text-anchor="start" x="143" y="-40.5" font-family="Helvetica,sans-Serif" font-size="10.00">+ CollisionComponent()</text>
<text text-anchor="start" x="143" y="-29.5" font-family="Helvetica,sans-Serif" font-size="10.00">+ CollisionComponent()</text>
<text text-anchor="start" x="143" y="-18.5" font-family="Helvetica,sans-Serif" font-size="10.00">+ ~CollisionComponent()</text>
<text text-anchor="start" x="143" y="-7.5" font-family="Helvetica,sans-Serif" font-size="10.00">+ operator=()</text>
</a>
</g>
</g>
<!-- Node2 -->
<g id="node2" class="node">
<title>Node2</title>
<g id="a_node2"><a xlink:href="classWAL_1_1Component.html" target="_top" xlink:title="Represent a single component of WAL.">
<polygon fill="white" stroke="black" points="18.5,-248.5 18.5,-371.5 118.5,-371.5 118.5,-248.5 18.5,-248.5"/>
<text text-anchor="middle" x="68.5" y="-359.5" font-family="Helvetica,sans-Serif" font-size="10.00">WAL::Component</text>
<polyline fill="none" stroke="black" points="18.5,-352.5 118.5,-352.5 "/>
<text text-anchor="middle" x="68.5" y="-340.5" font-family="Helvetica,sans-Serif" font-size="10.00"> </text>
<polyline fill="none" stroke="black" points="18.5,-333.5 118.5,-333.5 "/>
<text text-anchor="start" x="26.5" y="-321.5" font-family="Helvetica,sans-Serif" font-size="10.00">+ operator=()</text>
<text text-anchor="start" x="26.5" y="-310.5" font-family="Helvetica,sans-Serif" font-size="10.00">+ ~Component()</text>
<text text-anchor="start" x="26.5" y="-299.5" font-family="Helvetica,sans-Serif" font-size="10.00">+ clone()</text>
<text text-anchor="start" x="26.5" y="-288.5" font-family="Helvetica,sans-Serif" font-size="10.00">+ onStart()</text>
<text text-anchor="start" x="26.5" y="-277.5" font-family="Helvetica,sans-Serif" font-size="10.00">+ onStop()</text>
<text text-anchor="start" x="26.5" y="-266.5" font-family="Helvetica,sans-Serif" font-size="10.00"># Component()</text>
<text text-anchor="start" x="26.5" y="-255.5" font-family="Helvetica,sans-Serif" font-size="10.00"># Component()</text>
</a>
</g>
</g>
<!-- Node2&#45;&gt;Node1 -->
<g id="edge1" class="edge">
<title>Node2&#45;&gt;Node1</title>
<path fill="none" stroke="midnightblue" d="M107.22,-239.31C113.91,-227.49 120.86,-215.36 127.5,-204 138.63,-184.96 150.9,-164.51 162.39,-145.6"/>
<polygon fill="none" stroke="midnightblue" points="104.03,-237.85 102.16,-248.28 110.12,-241.29 104.03,-237.85"/>
</g>
<!-- Node3 -->
<g id="node3" class="node">
<title>Node3</title>
<g id="a_node3"><a xlink:href="classWAL_1_1Entity.html" target="_top" xlink:title="An entity of the WAL&#39;s ECS.">
<polygon fill="white" stroke="black" points="0,-463.5 0,-729.5 137,-729.5 137,-463.5 0,-463.5"/>
<text text-anchor="middle" x="68.5" y="-717.5" font-family="Helvetica,sans-Serif" font-size="10.00">WAL::Entity</text>
<polyline fill="none" stroke="black" points="0,-710.5 137,-710.5 "/>
<text text-anchor="start" x="8" y="-698.5" font-family="Helvetica,sans-Serif" font-size="10.00">&#45; _uid</text>
<text text-anchor="start" x="8" y="-687.5" font-family="Helvetica,sans-Serif" font-size="10.00">&#45; _name</text>
<text text-anchor="start" x="8" y="-676.5" font-family="Helvetica,sans-Serif" font-size="10.00">&#45; _disabled</text>
<text text-anchor="start" x="8" y="-665.5" font-family="Helvetica,sans-Serif" font-size="10.00">&#45; _shouldDelete</text>
<text text-anchor="start" x="8" y="-654.5" font-family="Helvetica,sans-Serif" font-size="10.00">&#45; _notifyScene</text>
<text text-anchor="start" x="8" y="-643.5" font-family="Helvetica,sans-Serif" font-size="10.00">&#45; _components</text>
<text text-anchor="start" x="8" y="-632.5" font-family="Helvetica,sans-Serif" font-size="10.00">&#45; Scene</text>
<text text-anchor="start" x="8" y="-621.5" font-family="Helvetica,sans-Serif" font-size="10.00">&#45; nextID</text>
<polyline fill="none" stroke="black" points="0,-614.5 137,-614.5 "/>
<text text-anchor="start" x="8" y="-602.5" font-family="Helvetica,sans-Serif" font-size="10.00">+ getUid()</text>
<text text-anchor="start" x="8" y="-591.5" font-family="Helvetica,sans-Serif" font-size="10.00">+ getName()</text>
<text text-anchor="start" x="8" y="-580.5" font-family="Helvetica,sans-Serif" font-size="10.00">+ setName()</text>
<text text-anchor="start" x="8" y="-569.5" font-family="Helvetica,sans-Serif" font-size="10.00">+ isDisable()</text>
<text text-anchor="start" x="8" y="-558.5" font-family="Helvetica,sans-Serif" font-size="10.00">+ setDisable()</text>
<text text-anchor="start" x="8" y="-547.5" font-family="Helvetica,sans-Serif" font-size="10.00">+ shouldDelete()</text>
<text text-anchor="start" x="8" y="-536.5" font-family="Helvetica,sans-Serif" font-size="10.00">+ scheduleDeletion()</text>
<text text-anchor="start" x="8" y="-525.5" font-family="Helvetica,sans-Serif" font-size="10.00">+ getComponent()</text>
<text text-anchor="start" x="8" y="-514.5" font-family="Helvetica,sans-Serif" font-size="10.00">+ tryGetComponent()</text>
<text text-anchor="start" x="8" y="-503.5" font-family="Helvetica,sans-Serif" font-size="10.00">+ getComponent()</text>
<text text-anchor="start" x="8" y="-492.5" font-family="Helvetica,sans-Serif" font-size="10.00">and 13 more...</text>
<text text-anchor="start" x="8" y="-481.5" font-family="Helvetica,sans-Serif" font-size="10.00">&#45; _componentAdded()</text>
<text text-anchor="start" x="8" y="-470.5" font-family="Helvetica,sans-Serif" font-size="10.00">&#45; _componentRemoved()</text>
</a>
</g>
</g>
<!-- Node3&#45;&gt;Node2 -->
<g id="edge2" class="edge">
<title>Node3&#45;&gt;Node2</title>
<path fill="none" stroke="#404040" d="M68.5,-463.24C68.5,-435.94 68.5,-408.13 68.5,-383.89"/>
<polygon fill="none" stroke="#404040" points="68.5,-383.56 64.5,-377.56 68.5,-371.56 72.5,-377.56 68.5,-383.56"/>
<text text-anchor="middle" x="91.5" y="-437" font-family="Helvetica,sans-Serif" font-size="10.00"> #_entity</text>
</g>
<!-- Node4 -->
<g id="node4" class="node">
<title>Node4</title>
<g id="a_node4"><a xlink:href="classWAL_1_1Scene.html" target="_top" xlink:title="Represent a single scene that contains entities.">
<polygon fill="white" stroke="black" points="0,-777.5 0,-1021.5 137,-1021.5 137,-777.5 0,-777.5"/>
<text text-anchor="middle" x="68.5" y="-1009.5" font-family="Helvetica,sans-Serif" font-size="10.00">WAL::Scene</text>
<polyline fill="none" stroke="black" points="0,-1002.5 137,-1002.5 "/>
<text text-anchor="start" x="8" y="-990.5" font-family="Helvetica,sans-Serif" font-size="10.00">+ Entity</text>
<text text-anchor="start" x="8" y="-979.5" font-family="Helvetica,sans-Serif" font-size="10.00">&#45; _id</text>
<text text-anchor="start" x="8" y="-968.5" font-family="Helvetica,sans-Serif" font-size="10.00">&#45; _entities</text>
<text text-anchor="start" x="8" y="-957.5" font-family="Helvetica,sans-Serif" font-size="10.00">&#45; _newEntities</text>
<text text-anchor="start" x="8" y="-946.5" font-family="Helvetica,sans-Serif" font-size="10.00">&#45; _views</text>
<text text-anchor="start" x="8" y="-935.5" font-family="Helvetica,sans-Serif" font-size="10.00">&#45; _nextID</text>
<polyline fill="none" stroke="black" points="0,-928.5 137,-928.5 "/>
<text text-anchor="start" x="8" y="-916.5" font-family="Helvetica,sans-Serif" font-size="10.00">+ getID()</text>
<text text-anchor="start" x="8" y="-905.5" font-family="Helvetica,sans-Serif" font-size="10.00">+ getEntities()</text>
<text text-anchor="start" x="8" y="-894.5" font-family="Helvetica,sans-Serif" font-size="10.00">+ addEntity()</text>
<text text-anchor="start" x="8" y="-883.5" font-family="Helvetica,sans-Serif" font-size="10.00">+ scheduleNewEntity()</text>
<text text-anchor="start" x="8" y="-872.5" font-family="Helvetica,sans-Serif" font-size="10.00">+ view()</text>
<text text-anchor="start" x="8" y="-861.5" font-family="Helvetica,sans-Serif" font-size="10.00">+ applyChanges()</text>
<text text-anchor="start" x="8" y="-850.5" font-family="Helvetica,sans-Serif" font-size="10.00">+ Scene()</text>
<text text-anchor="start" x="8" y="-839.5" font-family="Helvetica,sans-Serif" font-size="10.00">+ Scene()</text>
<text text-anchor="start" x="8" y="-828.5" font-family="Helvetica,sans-Serif" font-size="10.00">+ ~Scene()</text>
<text text-anchor="start" x="8" y="-817.5" font-family="Helvetica,sans-Serif" font-size="10.00">+ operator=()</text>
<text text-anchor="start" x="8" y="-806.5" font-family="Helvetica,sans-Serif" font-size="10.00">&#45; _componentAdded()</text>
<text text-anchor="start" x="8" y="-795.5" font-family="Helvetica,sans-Serif" font-size="10.00">&#45; _componentRemoved()</text>
<text text-anchor="start" x="8" y="-784.5" font-family="Helvetica,sans-Serif" font-size="10.00">&#45; _entityRemoved()</text>
</a>
</g>
</g>
<!-- Node4&#45;&gt;Node3 -->
<g id="edge3" class="edge">
<title>Node4&#45;&gt;Node3</title>
<path fill="none" stroke="#404040" d="M68.5,-777.37C68.5,-765.73 68.5,-753.85 68.5,-742.02"/>
<polygon fill="none" stroke="#404040" points="68.5,-741.71 64.5,-735.71 68.5,-729.71 72.5,-735.71 68.5,-741.71"/>
<text text-anchor="middle" x="91.5" y="-751" font-family="Helvetica,sans-Serif" font-size="10.00"> +_scene</text>
</g>
<!-- Node5 -->
<g id="node5" class="node">
<title>Node5</title>
<g id="a_node5"><a xlink:href="classWAL_1_1Callback.html" target="_top" xlink:title=" ">
<polygon fill="white" stroke="black" points="136.5,-226.5 136.5,-393.5 276.5,-393.5 276.5,-226.5 136.5,-226.5"/>
<text text-anchor="start" x="144.5" y="-381.5" font-family="Helvetica,sans-Serif" font-size="10.00">WAL::Callback&lt; WAL</text>
<text text-anchor="start" x="144.5" y="-370.5" font-family="Helvetica,sans-Serif" font-size="10.00">::Entity &amp;, const WAL</text>
<text text-anchor="middle" x="206.5" y="-359.5" font-family="Helvetica,sans-Serif" font-size="10.00">::Entity &amp;, CollidedAxis &gt;</text>
<polyline fill="none" stroke="black" points="136.5,-352.5 276.5,-352.5 "/>
<text text-anchor="start" x="144.5" y="-340.5" font-family="Helvetica,sans-Serif" font-size="10.00">&#45; _nextID</text>
<text text-anchor="start" x="144.5" y="-329.5" font-family="Helvetica,sans-Serif" font-size="10.00">&#45; _functions</text>
<polyline fill="none" stroke="black" points="136.5,-322.5 276.5,-322.5 "/>
<text text-anchor="start" x="144.5" y="-310.5" font-family="Helvetica,sans-Serif" font-size="10.00">+ addCallback()</text>
<text text-anchor="start" x="144.5" y="-299.5" font-family="Helvetica,sans-Serif" font-size="10.00">+ removeCallback()</text>
<text text-anchor="start" x="144.5" y="-288.5" font-family="Helvetica,sans-Serif" font-size="10.00">+ operator()()</text>
<text text-anchor="start" x="144.5" y="-277.5" font-family="Helvetica,sans-Serif" font-size="10.00">+ Callback()</text>
<text text-anchor="start" x="144.5" y="-266.5" font-family="Helvetica,sans-Serif" font-size="10.00">+ Callback()</text>
<text text-anchor="start" x="144.5" y="-255.5" font-family="Helvetica,sans-Serif" font-size="10.00">+ Callback()</text>
<text text-anchor="start" x="144.5" y="-244.5" font-family="Helvetica,sans-Serif" font-size="10.00">+ ~Callback()</text>
<text text-anchor="start" x="144.5" y="-233.5" font-family="Helvetica,sans-Serif" font-size="10.00">+ operator=()</text>
</a>
</g>
</g>
<!-- Node5&#45;&gt;Node1 -->
<g id="edge4" class="edge">
<title>Node5&#45;&gt;Node1</title>
<path fill="none" stroke="#404040" d="M206.5,-226.48C206.5,-204.27 206.5,-180.23 206.5,-157.95"/>
<polygon fill="none" stroke="#404040" points="206.5,-157.77 202.5,-151.77 206.5,-145.77 210.5,-151.77 206.5,-157.77"/>
<text text-anchor="middle" x="238.5" y="-178" font-family="Helvetica,sans-Serif" font-size="10.00"> +onCollided</text>
<text text-anchor="middle" x="238.5" y="-167" font-family="Helvetica,sans-Serif" font-size="10.00">+onCollide</text>
</g>
<!-- Node6 -->
<g id="node6" class="node">
<title>Node6</title>
<g id="a_node6"><a xlink:href="classBBM_1_1Vector3.html" target="_top" xlink:title=" ">
<polygon fill="white" stroke="black" points="294.5,-204.5 294.5,-415.5 420.5,-415.5 420.5,-204.5 294.5,-204.5"/>
<text text-anchor="middle" x="357.5" y="-403.5" font-family="Helvetica,sans-Serif" font-size="10.00">BBM::Vector3&lt; float &gt;</text>
<polyline fill="none" stroke="black" points="294.5,-396.5 420.5,-396.5 "/>
<text text-anchor="start" x="302.5" y="-384.5" font-family="Helvetica,sans-Serif" font-size="10.00">+ x</text>
<text text-anchor="start" x="302.5" y="-373.5" font-family="Helvetica,sans-Serif" font-size="10.00">+ y</text>
<text text-anchor="start" x="302.5" y="-362.5" font-family="Helvetica,sans-Serif" font-size="10.00">+ z</text>
<polyline fill="none" stroke="black" points="294.5,-355.5 420.5,-355.5 "/>
<text text-anchor="start" x="302.5" y="-343.5" font-family="Helvetica,sans-Serif" font-size="10.00">+ Vector3()</text>
<text text-anchor="start" x="302.5" y="-332.5" font-family="Helvetica,sans-Serif" font-size="10.00">+ Vector3()</text>
<text text-anchor="start" x="302.5" y="-321.5" font-family="Helvetica,sans-Serif" font-size="10.00">+ ~Vector3()</text>
<text text-anchor="start" x="302.5" y="-310.5" font-family="Helvetica,sans-Serif" font-size="10.00">+ operator==()</text>
<text text-anchor="start" x="302.5" y="-299.5" font-family="Helvetica,sans-Serif" font-size="10.00">+ operator!=()</text>
<text text-anchor="start" x="302.5" y="-288.5" font-family="Helvetica,sans-Serif" font-size="10.00">+ operator+=()</text>
<text text-anchor="start" x="302.5" y="-277.5" font-family="Helvetica,sans-Serif" font-size="10.00">+ operator+()</text>
<text text-anchor="start" x="302.5" y="-266.5" font-family="Helvetica,sans-Serif" font-size="10.00">+ operator&#45;=()</text>
<text text-anchor="start" x="302.5" y="-255.5" font-family="Helvetica,sans-Serif" font-size="10.00">+ operator&#45;()</text>
<text text-anchor="start" x="302.5" y="-244.5" font-family="Helvetica,sans-Serif" font-size="10.00">+ operator*=()</text>
<text text-anchor="start" x="302.5" y="-233.5" font-family="Helvetica,sans-Serif" font-size="10.00">and 18 more...</text>
<text text-anchor="start" x="302.5" y="-222.5" font-family="Helvetica,sans-Serif" font-size="10.00">+ min()</text>
<text text-anchor="start" x="302.5" y="-211.5" font-family="Helvetica,sans-Serif" font-size="10.00">+ max()</text>
</a>
</g>
</g>
<!-- Node6&#45;&gt;Node1 -->
<g id="edge5" class="edge">
<title>Node6&#45;&gt;Node1</title>
<path fill="none" stroke="#404040" d="M299.68,-204.27C291.49,-190.56 282.97,-176.83 274.5,-164 272.69,-161.26 270.83,-158.49 268.92,-155.71"/>
<polygon fill="none" stroke="#404040" points="268.75,-155.47 262.04,-152.84 261.89,-145.63 268.6,-148.26 268.75,-155.47"/>
<text text-anchor="middle" x="325" y="-178" font-family="Helvetica,sans-Serif" font-size="10.00"> +bound</text>
<text text-anchor="middle" x="325" y="-167" font-family="Helvetica,sans-Serif" font-size="10.00">+positionOffset</text>
</g>
</g>
</svg>
