<?xml version="1.0" encoding="UTF-8" standalone="no"?>
<!DOCTYPE svg PUBLIC "-//W3C//DTD SVG 1.1//EN"
 "http://www.w3.org/Graphics/SVG/1.1/DTD/svg11.dtd">
<!-- Generated by graphviz version 2.43.0 (0)
 -->
<!-- Title: BBM::TimerUISystem Pages: 1 -->
<svg width="231pt" height="596pt"
 viewBox="0.00 0.00 230.50 596.00" xmlns="http://www.w3.org/2000/svg" xmlns:xlink="http://www.w3.org/1999/xlink">
<g id="graph0" class="graph" transform="scale(1 1) rotate(0) translate(4 592)">
<title>BBM::TimerUISystem</title>
<polygon fill="white" stroke="transparent" points="-4,4 -4,-592 226.5,-592 226.5,4 -4,4"/>
<!-- Node1 -->
<g id="node1" class="node">
<title>Node1</title>
<g id="a_node1"><a xlink:title=" ">
<polygon fill="#bfbfbf" stroke="black" points="47,-0.5 47,-101.5 168,-101.5 168,-0.5 47,-0.5"/>
<text text-anchor="middle" x="107.5" y="-89.5" font-family="Helvetica,sans-Serif" font-size="10.00">BBM::TimerUISystem</text>
<polyline fill="none" stroke="black" points="47,-82.5 168,-82.5 "/>
<text text-anchor="middle" x="107.5" y="-70.5" font-family="Helvetica,sans-Serif" font-size="10.00"> </text>
<polyline fill="none" stroke="black" points="47,-63.5 168,-63.5 "/>
<text text-anchor="start" x="55" y="-51.5" font-family="Helvetica,sans-Serif" font-size="10.00">+ onUpdate()</text>
<text text-anchor="start" x="55" y="-40.5" font-family="Helvetica,sans-Serif" font-size="10.00">+ TimerUISystem()</text>
<text text-anchor="start" x="55" y="-29.5" font-family="Helvetica,sans-Serif" font-size="10.00">+ TimerUISystem()</text>
<text text-anchor="start" x="55" y="-18.5" font-family="Helvetica,sans-Serif" font-size="10.00">+ ~TimerUISystem()</text>
<text text-anchor="start" x="55" y="-7.5" font-family="Helvetica,sans-Serif" font-size="10.00">+ operator=()</text>
</a>
</g>
</g>
<!-- Node2 -->
<g id="node2" class="node">
<title>Node2</title>
<g id="a_node2"><a xlink:href="classWAL_1_1System.html" target="_top" xlink:title=" ">
<polygon fill="white" stroke="black" points="0,-139.5 0,-328.5 215,-328.5 215,-139.5 0,-139.5"/>
<text text-anchor="start" x="8" y="-316.5" font-family="Helvetica,sans-Serif" font-size="10.00">WAL::System&lt; TimerComponent,</text>
<text text-anchor="start" x="8" y="-305.5" font-family="Helvetica,sans-Serif" font-size="10.00"> Drawable2DComponent, TagComponent</text>
<text text-anchor="middle" x="107.5" y="-294.5" font-family="Helvetica,sans-Serif" font-size="10.00">&lt; Timer &gt; &gt;</text>
<polyline fill="none" stroke="black" points="0,-287.5 215,-287.5 "/>
<text text-anchor="middle" x="107.5" y="-275.5" font-family="Helvetica,sans-Serif" font-size="10.00"> </text>
<polyline fill="none" stroke="black" points="0,-268.5 215,-268.5 "/>
<text text-anchor="start" x="8" y="-256.5" font-family="Helvetica,sans-Serif" font-size="10.00">+ ~System()</text>
<text text-anchor="start" x="8" y="-245.5" font-family="Helvetica,sans-Serif" font-size="10.00">+ System()</text>
<text text-anchor="start" x="8" y="-234.5" font-family="Helvetica,sans-Serif" font-size="10.00">+ getView()</text>
<text text-anchor="start" x="8" y="-223.5" font-family="Helvetica,sans-Serif" font-size="10.00">+ onUpdate()</text>
<text text-anchor="start" x="8" y="-212.5" font-family="Helvetica,sans-Serif" font-size="10.00">+ onFixedUpdate()</text>
<text text-anchor="start" x="8" y="-201.5" font-family="Helvetica,sans-Serif" font-size="10.00">+ onSelfUpdate()</text>
<text text-anchor="start" x="8" y="-190.5" font-family="Helvetica,sans-Serif" font-size="10.00">+ update()</text>
<text text-anchor="start" x="8" y="-179.5" font-family="Helvetica,sans-Serif" font-size="10.00">+ fixedUpdate()</text>
<text text-anchor="start" x="8" y="-168.5" font-family="Helvetica,sans-Serif" font-size="10.00"># System()</text>
<text text-anchor="start" x="8" y="-157.5" font-family="Helvetica,sans-Serif" font-size="10.00"># System()</text>
<text text-anchor="start" x="8" y="-146.5" font-family="Helvetica,sans-Serif" font-size="10.00"># operator=()</text>
</a>
</g>
</g>
<!-- Node2&#45;&gt;Node1 -->
<g id="edge1" class="edge">
<title>Node2&#45;&gt;Node1</title>
<path fill="none" stroke="midnightblue" d="M107.5,-129.05C107.5,-119.63 107.5,-110.42 107.5,-101.82"/>
<polygon fill="none" stroke="midnightblue" points="104,-129.32 107.5,-139.32 111,-129.32 104,-129.32"/>
</g>
<!-- Node3 -->
<g id="node3" class="node">
<title>Node3</title>
<g id="a_node3"><a xlink:href="classWAL_1_1ISystem.html" target="_top" xlink:title="A base class that represent a system.">
<polygon fill="white" stroke="black" points="0.5,-437 0.5,-527 94.5,-527 94.5,-437 0.5,-437"/>
<text text-anchor="middle" x="47.5" y="-515" font-family="Helvetica,sans-Serif" font-size="10.00">WAL::ISystem</text>
<polyline fill="none" stroke="black" points="0.5,-508 94.5,-508 "/>
<text text-anchor="middle" x="47.5" y="-496" font-family="Helvetica,sans-Serif" font-size="10.00"> </text>
<polyline fill="none" stroke="black" points="0.5,-489 94.5,-489 "/>
<text text-anchor="start" x="8.5" y="-477" font-family="Helvetica,sans-Serif" font-size="10.00">+ update()</text>
<text text-anchor="start" x="8.5" y="-466" font-family="Helvetica,sans-Serif" font-size="10.00">+ fixedUpdate()</text>
<text text-anchor="start" x="8.5" y="-455" font-family="Helvetica,sans-Serif" font-size="10.00">+ getView()</text>
<text text-anchor="start" x="8.5" y="-444" font-family="Helvetica,sans-Serif" font-size="10.00">+ ~ISystem()</text>
</a>
</g>
</g>
<!-- Node3&#45;&gt;Node2 -->
<g id="edge2" class="edge">
<title>Node3&#45;&gt;Node2</title>
<path fill="none" stroke="midnightblue" d="M60.7,-426.87C67.73,-398.06 76.57,-361.8 84.67,-328.59"/>
<polygon fill="none" stroke="midnightblue" points="57.27,-426.19 58.3,-436.74 64.07,-427.85 57.27,-426.19"/>
</g>
<!-- Node4 -->
<g id="node4" class="node">
<title>Node4</title>
<g id="a_node4"><a xlink:href="classWAL_1_1Wal.html" target="_top" xlink:title="The main WAL class, it is used to setup and run the ECS.">
<polygon fill="white" stroke="black" points="112.5,-376.5 112.5,-587.5 222.5,-587.5 222.5,-376.5 112.5,-376.5"/>
<text text-anchor="middle" x="167.5" y="-575.5" font-family="Helvetica,sans-Serif" font-size="10.00">WAL::Wal</text>
<polyline fill="none" stroke="black" points="112.5,-568.5 222.5,-568.5 "/>
<text text-anchor="start" x="120.5" y="-556.5" font-family="Helvetica,sans-Serif" font-size="10.00">+ shouldClose</text>
<text text-anchor="start" x="120.5" y="-545.5" font-family="Helvetica,sans-Serif" font-size="10.00">+ timestep</text>
<text text-anchor="start" x="120.5" y="-534.5" font-family="Helvetica,sans-Serif" font-size="10.00">&#45; _systems</text>
<text text-anchor="start" x="120.5" y="-523.5" font-family="Helvetica,sans-Serif" font-size="10.00">&#45; _scene</text>
<polyline fill="none" stroke="black" points="112.5,-516.5 222.5,-516.5 "/>
<text text-anchor="start" x="120.5" y="-504.5" font-family="Helvetica,sans-Serif" font-size="10.00">+ getScene()</text>
<text text-anchor="start" x="120.5" y="-493.5" font-family="Helvetica,sans-Serif" font-size="10.00">+ changeScene()</text>
<text text-anchor="start" x="120.5" y="-482.5" font-family="Helvetica,sans-Serif" font-size="10.00">+ addSystem()</text>
<text text-anchor="start" x="120.5" y="-471.5" font-family="Helvetica,sans-Serif" font-size="10.00">+ addSystem()</text>
<text text-anchor="start" x="120.5" y="-460.5" font-family="Helvetica,sans-Serif" font-size="10.00">+ getSystem()</text>
<text text-anchor="start" x="120.5" y="-449.5" font-family="Helvetica,sans-Serif" font-size="10.00">+ removeSystem()</text>
<text text-anchor="start" x="120.5" y="-438.5" font-family="Helvetica,sans-Serif" font-size="10.00">+ run()</text>
<text text-anchor="start" x="120.5" y="-427.5" font-family="Helvetica,sans-Serif" font-size="10.00">+ Wal()</text>
<text text-anchor="start" x="120.5" y="-416.5" font-family="Helvetica,sans-Serif" font-size="10.00">+ Wal()</text>
<text text-anchor="start" x="120.5" y="-405.5" font-family="Helvetica,sans-Serif" font-size="10.00">+ ~Wal()</text>
<text text-anchor="start" x="120.5" y="-394.5" font-family="Helvetica,sans-Serif" font-size="10.00">+ operator=()</text>
<text text-anchor="start" x="120.5" y="-383.5" font-family="Helvetica,sans-Serif" font-size="10.00">&#45; _run()</text>
</a>
</g>
</g>
<!-- Node4&#45;&gt;Node2 -->
<g id="edge3" class="edge">
<title>Node4&#45;&gt;Node2</title>
<path fill="none" stroke="#404040" d="M141.97,-376.32C139.07,-364.45 136.12,-352.35 133.22,-340.47"/>
<polygon fill="none" stroke="#404040" points="133.19,-340.34 127.89,-335.46 130.35,-328.69 135.66,-333.57 133.19,-340.34"/>
<text text-anchor="middle" x="154.5" y="-350" font-family="Helvetica,sans-Serif" font-size="10.00"> #_wal</text>
</g>
</g>
</svg>
