<?xml version="1.0" encoding="UTF-8" standalone="no"?>
<!DOCTYPE svg PUBLIC "-//W3C//DTD SVG 1.1//EN"
 "http://www.w3.org/Graphics/SVG/1.1/DTD/svg11.dtd">
<!-- Generated by graphviz version 2.43.0 (0)
 -->
<!-- Title: sources/Component/Collision/CollisionComponent.cpp Pages: 1 -->
<svg width="1175pt" height="274pt"
 viewBox="0.00 0.00 1174.50 274.00" xmlns="http://www.w3.org/2000/svg" xmlns:xlink="http://www.w3.org/1999/xlink">
<g id="graph0" class="graph" transform="scale(1 1) rotate(0) translate(4 270)">
<title>sources/Component/Collision/CollisionComponent.cpp</title>
<polygon fill="white" stroke="transparent" points="-4,4 -4,-270 1170.5,-270 1170.5,4 -4,4"/>
<!-- Node1 -->
<g id="node1" class="node">
<title>Node1</title>
<g id="a_node1"><a xlink:title=" ">
<polygon fill="#bfbfbf" stroke="black" points="320.5,-235.5 320.5,-265.5 478.5,-265.5 478.5,-235.5 320.5,-235.5"/>
<text text-anchor="start" x="328.5" y="-253.5" font-family="Helvetica,sans-Serif" font-size="10.00">sources/Component/Collision</text>
<text text-anchor="middle" x="399.5" y="-242.5" font-family="Helvetica,sans-Serif" font-size="10.00">/CollisionComponent.cpp</text>
</a>
</g>
</g>
<!-- Node2 -->
<g id="node2" class="node">
<title>Node2</title>
<g id="a_node2"><a xlink:href="CollisionComponent_8hpp.html" target="_top" xlink:title=" ">
<polygon fill="white" stroke="black" points="330,-168.5 330,-198.5 469,-198.5 469,-168.5 330,-168.5"/>
<text text-anchor="start" x="338" y="-186.5" font-family="Helvetica,sans-Serif" font-size="10.00">Component/Collision</text>
<text text-anchor="middle" x="399.5" y="-175.5" font-family="Helvetica,sans-Serif" font-size="10.00">/CollisionComponent.hpp</text>
</a>
</g>
</g>
<!-- Node1&#45;&gt;Node2 -->
<g id="edge1" class="edge">
<title>Node1&#45;&gt;Node2</title>
<path fill="none" stroke="midnightblue" d="M399.5,-235.4C399.5,-227.64 399.5,-217.81 399.5,-208.86"/>
<polygon fill="midnightblue" stroke="midnightblue" points="403,-208.58 399.5,-198.58 396,-208.58 403,-208.58"/>
</g>
<!-- Node3 -->
<g id="node3" class="node">
<title>Node3</title>
<g id="a_node3"><a xlink:href="Callback_8hpp.html" target="_top" xlink:title=" ">
<polygon fill="white" stroke="black" points="90.5,-112.5 90.5,-131.5 208.5,-131.5 208.5,-112.5 90.5,-112.5"/>
<text text-anchor="middle" x="149.5" y="-119.5" font-family="Helvetica,sans-Serif" font-size="10.00">Models/Callback.hpp</text>
</a>
</g>
</g>
<!-- Node2&#45;&gt;Node3 -->
<g id="edge2" class="edge">
<title>Node2&#45;&gt;Node3</title>
<path fill="none" stroke="midnightblue" d="M340.57,-168.47C296.12,-157.9 236.03,-143.59 195.19,-133.87"/>
<polygon fill="midnightblue" stroke="midnightblue" points="195.78,-130.42 185.24,-131.51 194.16,-137.23 195.78,-130.42"/>
</g>
<!-- Node7 -->
<g id="node7" class="node">
<title>Node7</title>
<g id="a_node7"><a xlink:href="sources_2Models_2Vector3_8hpp.html" target="_top" xlink:title=" ">
<polygon fill="white" stroke="black" points="924,-112.5 924,-131.5 1037,-131.5 1037,-112.5 924,-112.5"/>
<text text-anchor="middle" x="980.5" y="-119.5" font-family="Helvetica,sans-Serif" font-size="10.00">Models/Vector3.hpp</text>
</a>
</g>
</g>
<!-- Node2&#45;&gt;Node7 -->
<g id="edge6" class="edge">
<title>Node2&#45;&gt;Node7</title>
<path fill="none" stroke="midnightblue" d="M469.01,-175.38C581.75,-163.84 803.03,-141.17 913.89,-129.82"/>
<polygon fill="midnightblue" stroke="midnightblue" points="914.35,-133.29 923.94,-128.79 913.63,-126.33 914.35,-133.29"/>
</g>
<!-- Node12 -->
<g id="node12" class="node">
<title>Node12</title>
<g id="a_node12"><a xlink:href="Component_8hpp.html" target="_top" xlink:title=" ">
<polygon fill="white" stroke="black" points="257,-56.5 257,-75.5 410,-75.5 410,-56.5 257,-56.5"/>
<text text-anchor="middle" x="333.5" y="-63.5" font-family="Helvetica,sans-Serif" font-size="10.00">Component/Component.hpp</text>
</a>
</g>
</g>
<!-- Node2&#45;&gt;Node12 -->
<g id="edge11" class="edge">
<title>Node2&#45;&gt;Node12</title>
<path fill="none" stroke="midnightblue" d="M391.41,-168.34C379.35,-147.24 356.7,-107.6 343.58,-84.65"/>
<polygon fill="midnightblue" stroke="midnightblue" points="346.45,-82.62 338.45,-75.67 340.38,-86.09 346.45,-82.62"/>
</g>
<!-- Node16 -->
<g id="node16" class="node">
<title>Node16</title>
<g id="a_node16"><a xlink:href="Entity_8hpp.html" target="_top" xlink:title=" ">
<polygon fill="white" stroke="black" points="418.5,-112.5 418.5,-131.5 514.5,-131.5 514.5,-112.5 418.5,-112.5"/>
<text text-anchor="middle" x="466.5" y="-119.5" font-family="Helvetica,sans-Serif" font-size="10.00">Entity/Entity.hpp</text>
</a>
</g>
</g>
<!-- Node2&#45;&gt;Node16 -->
<g id="edge15" class="edge">
<title>Node2&#45;&gt;Node16</title>
<path fill="none" stroke="midnightblue" d="M415.38,-168.4C425.52,-159.4 438.66,-147.72 449.09,-138.47"/>
<polygon fill="midnightblue" stroke="midnightblue" points="451.6,-140.92 456.75,-131.66 446.95,-135.68 451.6,-140.92"/>
</g>
<!-- Node4 -->
<g id="node4" class="node">
<title>Node4</title>
<g id="a_node4"><a xlink:title=" ">
<polygon fill="white" stroke="#bfbfbf" points="0,-56.5 0,-75.5 65,-75.5 65,-56.5 0,-56.5"/>
<text text-anchor="middle" x="32.5" y="-63.5" font-family="Helvetica,sans-Serif" font-size="10.00">functional</text>
</a>
</g>
</g>
<!-- Node3&#45;&gt;Node4 -->
<g id="edge3" class="edge">
<title>Node3&#45;&gt;Node4</title>
<path fill="none" stroke="midnightblue" d="M130.96,-112.44C111.88,-103.64 81.93,-89.81 60.06,-79.72"/>
<polygon fill="midnightblue" stroke="midnightblue" points="61.5,-76.53 50.95,-75.52 58.57,-82.88 61.5,-76.53"/>
</g>
<!-- Node5 -->
<g id="node5" class="node">
<title>Node5</title>
<g id="a_node5"><a xlink:title=" ">
<polygon fill="white" stroke="#bfbfbf" points="83,-56.5 83,-75.5 128,-75.5 128,-56.5 83,-56.5"/>
<text text-anchor="middle" x="105.5" y="-63.5" font-family="Helvetica,sans-Serif" font-size="10.00">utility</text>
</a>
</g>
</g>
<!-- Node3&#45;&gt;Node5 -->
<g id="edge4" class="edge">
<title>Node3&#45;&gt;Node5</title>
<path fill="none" stroke="midnightblue" d="M142.23,-112.08C135.96,-104.38 126.71,-93.03 119.07,-83.65"/>
<polygon fill="midnightblue" stroke="midnightblue" points="121.66,-81.29 112.63,-75.75 116.23,-85.71 121.66,-81.29"/>
</g>
<!-- Node6 -->
<g id="node6" class="node">
<title>Node6</title>
<g id="a_node6"><a xlink:title=" ">
<polygon fill="white" stroke="#bfbfbf" points="146,-56.5 146,-75.5 239,-75.5 239,-56.5 146,-56.5"/>
<text text-anchor="middle" x="192.5" y="-63.5" font-family="Helvetica,sans-Serif" font-size="10.00">unordered_map</text>
</a>
</g>
</g>
<!-- Node3&#45;&gt;Node6 -->
<g id="edge5" class="edge">
<title>Node3&#45;&gt;Node6</title>
<path fill="none" stroke="midnightblue" d="M156.6,-112.08C162.74,-104.38 171.77,-93.03 179.24,-83.65"/>
<polygon fill="midnightblue" stroke="midnightblue" points="182.04,-85.75 185.53,-75.75 176.56,-81.39 182.04,-85.75"/>
</g>
<!-- Node8 -->
<g id="node8" class="node">
<title>Node8</title>
<g id="a_node8"><a xlink:title=" ">
<polygon fill="white" stroke="#bfbfbf" points="914.5,-56.5 914.5,-75.5 974.5,-75.5 974.5,-56.5 914.5,-56.5"/>
<text text-anchor="middle" x="944.5" y="-63.5" font-family="Helvetica,sans-Serif" font-size="10.00">iostream</text>
</a>
</g>
</g>
<!-- Node7&#45;&gt;Node8 -->
<g id="edge7" class="edge">
<title>Node7&#45;&gt;Node8</title>
<path fill="none" stroke="midnightblue" d="M974.56,-112.08C969.52,-104.53 962.16,-93.49 955.99,-84.23"/>
<polygon fill="midnightblue" stroke="midnightblue" points="958.79,-82.13 950.33,-75.75 952.97,-86.01 958.79,-82.13"/>
</g>
<!-- Node9 -->
<g id="node9" class="node">
<title>Node9</title>
<g id="a_node9"><a xlink:title=" ">
<polygon fill="white" stroke="#bfbfbf" points="993,-56.5 993,-75.5 1040,-75.5 1040,-56.5 993,-56.5"/>
<text text-anchor="middle" x="1016.5" y="-63.5" font-family="Helvetica,sans-Serif" font-size="10.00">cmath</text>
</a>
</g>
</g>
<!-- Node7&#45;&gt;Node9 -->
<g id="edge8" class="edge">
<title>Node7&#45;&gt;Node9</title>
<path fill="none" stroke="midnightblue" d="M986.44,-112.08C991.48,-104.53 998.84,-93.49 1005.01,-84.23"/>
<polygon fill="midnightblue" stroke="midnightblue" points="1008.03,-86.01 1010.67,-75.75 1002.21,-82.13 1008.03,-86.01"/>
</g>
<!-- Node10 -->
<g id="node10" class="node">
<title>Node10</title>
<g id="a_node10"><a xlink:href="lib_2Ray_2sources_2Vector_2Vector3_8hpp.html" target="_top" xlink:title=" ">
<polygon fill="white" stroke="black" points="1058.5,-56.5 1058.5,-75.5 1166.5,-75.5 1166.5,-56.5 1058.5,-56.5"/>
<text text-anchor="middle" x="1112.5" y="-63.5" font-family="Helvetica,sans-Serif" font-size="10.00">Vector/Vector3.hpp</text>
</a>
</g>
</g>
<!-- Node7&#45;&gt;Node10 -->
<g id="edge9" class="edge">
<title>Node7&#45;&gt;Node10</title>
<path fill="none" stroke="midnightblue" d="M1001.42,-112.44C1023.24,-103.52 1057.65,-89.44 1082.39,-79.32"/>
<polygon fill="midnightblue" stroke="midnightblue" points="1083.75,-82.54 1091.68,-75.52 1081.1,-76.06 1083.75,-82.54"/>
</g>
<!-- Node11 -->
<g id="node11" class="node">
<title>Node11</title>
<g id="a_node11"><a xlink:title=" ">
<polygon fill="white" stroke="#bfbfbf" points="1086,-0.5 1086,-19.5 1139,-19.5 1139,-0.5 1086,-0.5"/>
<text text-anchor="middle" x="1112.5" y="-7.5" font-family="Helvetica,sans-Serif" font-size="10.00">raylib.h</text>
</a>
</g>
</g>
<!-- Node10&#45;&gt;Node11 -->
<g id="edge10" class="edge">
<title>Node10&#45;&gt;Node11</title>
<path fill="none" stroke="midnightblue" d="M1112.5,-56.08C1112.5,-49.01 1112.5,-38.86 1112.5,-29.99"/>
<polygon fill="midnightblue" stroke="midnightblue" points="1116,-29.75 1112.5,-19.75 1109,-29.75 1116,-29.75"/>
</g>
<!-- Node13 -->
<g id="node13" class="node">
<title>Node13</title>
<g id="a_node13"><a xlink:title=" ">
<polygon fill="white" stroke="#bfbfbf" points="252,-0.5 252,-19.5 299,-19.5 299,-0.5 252,-0.5"/>
<text text-anchor="middle" x="275.5" y="-7.5" font-family="Helvetica,sans-Serif" font-size="10.00">vector</text>
</a>
</g>
</g>
<!-- Node12&#45;&gt;Node13 -->
<g id="edge12" class="edge">
<title>Node12&#45;&gt;Node13</title>
<path fill="none" stroke="midnightblue" d="M324.18,-56.32C315.61,-48.34 302.69,-36.31 292.31,-26.65"/>
<polygon fill="midnightblue" stroke="midnightblue" points="294.69,-24.09 284.99,-19.83 289.92,-29.21 294.69,-24.09"/>
</g>
<!-- Node14 -->
<g id="node14" class="node">
<title>Node14</title>
<g id="a_node14"><a xlink:title=" ">
<polygon fill="white" stroke="#bfbfbf" points="416.5,-0.5 416.5,-19.5 460.5,-19.5 460.5,-0.5 416.5,-0.5"/>
<text text-anchor="middle" x="438.5" y="-7.5" font-family="Helvetica,sans-Serif" font-size="10.00">string</text>
</a>
</g>
</g>
<!-- Node12&#45;&gt;Node14 -->
<g id="edge13" class="edge">
<title>Node12&#45;&gt;Node14</title>
<path fill="none" stroke="midnightblue" d="M350.37,-56.32C367.21,-47.66 393.31,-34.24 412.74,-24.25"/>
<polygon fill="midnightblue" stroke="midnightblue" points="414.38,-27.34 421.67,-19.65 411.18,-21.12 414.38,-27.34"/>
</g>
<!-- Node15 -->
<g id="node15" class="node">
<title>Node15</title>
<g id="a_node15"><a xlink:title=" ">
<polygon fill="white" stroke="#bfbfbf" points="317,-0.5 317,-19.5 382,-19.5 382,-0.5 317,-0.5"/>
<text text-anchor="middle" x="349.5" y="-7.5" font-family="Helvetica,sans-Serif" font-size="10.00">typeindex</text>
</a>
</g>
</g>
<!-- Node12&#45;&gt;Node15 -->
<g id="edge14" class="edge">
<title>Node12&#45;&gt;Node15</title>
<path fill="none" stroke="midnightblue" d="M336.14,-56.08C338.29,-48.85 341.38,-38.41 344.05,-29.4"/>
<polygon fill="midnightblue" stroke="midnightblue" points="347.42,-30.33 346.91,-19.75 340.71,-28.34 347.42,-30.33"/>
</g>
<!-- Node16&#45;&gt;Node6 -->
<g id="edge17" class="edge">
<title>Node16&#45;&gt;Node6</title>
<path fill="none" stroke="midnightblue" d="M423.08,-112.44C374.98,-102.96 297.41,-87.67 245.69,-77.48"/>
<polygon fill="midnightblue" stroke="midnightblue" points="246.2,-74.02 235.71,-75.52 244.85,-80.88 246.2,-74.02"/>
</g>
<!-- Node16&#45;&gt;Node12 -->
<g id="edge20" class="edge">
<title>Node16&#45;&gt;Node12</title>
<path fill="none" stroke="midnightblue" d="M445.43,-112.44C423.44,-103.52 388.77,-89.44 363.84,-79.32"/>
<polygon fill="midnightblue" stroke="midnightblue" points="365.06,-76.04 354.48,-75.52 362.42,-82.52 365.06,-76.04"/>
</g>
<!-- Node16&#45;&gt;Node14 -->
<g id="edge16" class="edge">
<title>Node16&#45;&gt;Node14</title>
<path fill="none" stroke="midnightblue" d="M464.3,-112.37C459.78,-94.62 449.36,-53.67 443.23,-29.6"/>
<polygon fill="midnightblue" stroke="midnightblue" points="446.55,-28.42 440.69,-19.59 439.76,-30.15 446.55,-28.42"/>
</g>
<!-- Node17 -->
<g id="node17" class="node">
<title>Node17</title>
<g id="a_node17"><a xlink:title=" ">
<polygon fill="white" stroke="#bfbfbf" points="467,-56.5 467,-75.5 524,-75.5 524,-56.5 467,-56.5"/>
<text text-anchor="middle" x="495.5" y="-63.5" font-family="Helvetica,sans-Serif" font-size="10.00">typeinfo</text>
</a>
</g>
</g>
<!-- Node16&#45;&gt;Node17 -->
<g id="edge18" class="edge">
<title>Node16&#45;&gt;Node17</title>
<path fill="none" stroke="midnightblue" d="M471.29,-112.08C475.26,-104.69 481.03,-93.95 485.93,-84.81"/>
<polygon fill="midnightblue" stroke="midnightblue" points="489.15,-86.22 490.8,-75.75 482.99,-82.91 489.15,-86.22"/>
</g>
<!-- Node18 -->
<g id="node18" class="node">
<title>Node18</title>
<g id="a_node18"><a xlink:title=" ">
<polygon fill="white" stroke="#bfbfbf" points="542.5,-56.5 542.5,-75.5 600.5,-75.5 600.5,-56.5 542.5,-56.5"/>
<text text-anchor="middle" x="571.5" y="-63.5" font-family="Helvetica,sans-Serif" font-size="10.00">memory</text>
</a>
</g>
</g>
<!-- Node16&#45;&gt;Node18 -->
<g id="edge19" class="edge">
<title>Node16&#45;&gt;Node18</title>
<path fill="none" stroke="midnightblue" d="M483.37,-112.32C500.21,-103.66 526.31,-90.24 545.74,-80.25"/>
<polygon fill="midnightblue" stroke="midnightblue" points="547.38,-83.34 554.67,-75.65 544.18,-77.12 547.38,-83.34"/>
</g>
<!-- Node19 -->
<g id="node19" class="node">
<title>Node19</title>
<g id="a_node19"><a xlink:href="WalError_8hpp.html" target="_top" xlink:title=" ">
<polygon fill="white" stroke="black" points="767,-56.5 767,-75.5 896,-75.5 896,-56.5 767,-56.5"/>
<text text-anchor="middle" x="831.5" y="-63.5" font-family="Helvetica,sans-Serif" font-size="10.00">Exception/WalError.hpp</text>
</a>
</g>
</g>
<!-- Node16&#45;&gt;Node19 -->
<g id="edge21" class="edge">
<title>Node16&#45;&gt;Node19</title>
<path fill="none" stroke="midnightblue" d="M514.59,-113.88C578.47,-104.43 691.64,-87.69 764.04,-76.98"/>
<polygon fill="midnightblue" stroke="midnightblue" points="764.59,-80.44 773.97,-75.51 763.57,-73.51 764.59,-80.44"/>
</g>
<!-- Node22 -->
<g id="node22" class="node">
<title>Node22</title>
<g id="a_node22"><a xlink:href="TypeHolder_8hpp.html" target="_top" xlink:title=" ">
<polygon fill="white" stroke="black" points="618.5,-56.5 618.5,-75.5 748.5,-75.5 748.5,-56.5 618.5,-56.5"/>
<text text-anchor="middle" x="683.5" y="-63.5" font-family="Helvetica,sans-Serif" font-size="10.00">Models/TypeHolder.hpp</text>
</a>
</g>
</g>
<!-- Node16&#45;&gt;Node22 -->
<g id="edge25" class="edge">
<title>Node16&#45;&gt;Node22</title>
<path fill="none" stroke="midnightblue" d="M500.88,-112.44C538.42,-103.1 598.63,-88.12 639.57,-77.93"/>
<polygon fill="midnightblue" stroke="midnightblue" points="640.42,-81.33 649.28,-75.52 638.73,-74.53 640.42,-81.33"/>
</g>
<!-- Node19&#45;&gt;Node14 -->
<g id="edge24" class="edge">
<title>Node19&#45;&gt;Node14</title>
<path fill="none" stroke="midnightblue" d="M769.23,-56.44C684.55,-44.81 536.18,-24.42 470.89,-15.45"/>
<polygon fill="midnightblue" stroke="midnightblue" points="471.17,-11.96 460.79,-14.06 470.22,-18.89 471.17,-11.96"/>
</g>
<!-- Node20 -->
<g id="node20" class="node">
<title>Node20</title>
<g id="a_node20"><a xlink:title=" ">
<polygon fill="white" stroke="#bfbfbf" points="757,-0.5 757,-19.5 822,-19.5 822,-0.5 757,-0.5"/>
<text text-anchor="middle" x="789.5" y="-7.5" font-family="Helvetica,sans-Serif" font-size="10.00">exception</text>
</a>
</g>
</g>
<!-- Node19&#45;&gt;Node20 -->
<g id="edge22" class="edge">
<title>Node19&#45;&gt;Node20</title>
<path fill="none" stroke="midnightblue" d="M824.56,-56.08C818.57,-48.38 809.75,-37.03 802.45,-27.65"/>
<polygon fill="midnightblue" stroke="midnightblue" points="805.21,-25.5 796.31,-19.75 799.68,-29.79 805.21,-25.5"/>
</g>
<!-- Node21 -->
<g id="node21" class="node">
<title>Node21</title>
<g id="a_node21"><a xlink:title=" ">
<polygon fill="white" stroke="#bfbfbf" points="840,-0.5 840,-19.5 905,-19.5 905,-0.5 840,-0.5"/>
<text text-anchor="middle" x="872.5" y="-7.5" font-family="Helvetica,sans-Serif" font-size="10.00">stdexcept</text>
</a>
</g>
</g>
<!-- Node19&#45;&gt;Node21 -->
<g id="edge23" class="edge">
<title>Node19&#45;&gt;Node21</title>
<path fill="none" stroke="midnightblue" d="M838.27,-56.08C844.06,-48.46 852.56,-37.26 859.64,-27.94"/>
<polygon fill="midnightblue" stroke="midnightblue" points="862.6,-29.83 865.86,-19.75 857.02,-25.6 862.6,-29.83"/>
</g>
</g>
</svg>
