<?xml version="1.0" encoding="UTF-8" standalone="no"?>
<!DOCTYPE svg PUBLIC "-//W3C//DTD SVG 1.1//EN"
 "http://www.w3.org/Graphics/SVG/1.1/DTD/svg11.dtd">
<!-- Generated by graphviz version 2.43.0 (0)
 -->
<!-- Title: sources/Component/Collision/CollisionComponent.hpp Pages: 1 -->
<svg width="1871pt" height="374pt"
 viewBox="0.00 0.00 1871.00 374.00" xmlns="http://www.w3.org/2000/svg" xmlns:xlink="http://www.w3.org/1999/xlink">
<g id="graph0" class="graph" transform="scale(1 1) rotate(0) translate(4 370)">
<title>sources/Component/Collision/CollisionComponent.hpp</title>
<polygon fill="white" stroke="transparent" points="-4,4 -4,-370 1867,-370 1867,4 -4,4"/>
<!-- Node1 -->
<g id="node1" class="node">
<title>Node1</title>
<g id="a_node1"><a xlink:title=" ">
<polygon fill="#bfbfbf" stroke="black" points="1103.5,-335.5 1103.5,-365.5 1261.5,-365.5 1261.5,-335.5 1103.5,-335.5"/>
<text text-anchor="start" x="1111.5" y="-353.5" font-family="Helvetica,sans-Serif" font-size="10.00">sources/Component/Collision</text>
<text text-anchor="middle" x="1182.5" y="-342.5" font-family="Helvetica,sans-Serif" font-size="10.00">/CollisionComponent.hpp</text>
</a>
</g>
</g>
<!-- Node2 -->
<g id="node2" class="node">
<title>Node2</title>
<g id="a_node2"><a xlink:href="CollisionComponent_8cpp.html" target="_top" xlink:title=" ">
<polygon fill="white" stroke="black" points="626.5,-268.5 626.5,-298.5 784.5,-298.5 784.5,-268.5 626.5,-268.5"/>
<text text-anchor="start" x="634.5" y="-286.5" font-family="Helvetica,sans-Serif" font-size="10.00">sources/Component/Collision</text>
<text text-anchor="middle" x="705.5" y="-275.5" font-family="Helvetica,sans-Serif" font-size="10.00">/CollisionComponent.cpp</text>
</a>
</g>
</g>
<!-- Node1&#45;&gt;Node2 -->
<g id="edge1" class="edge">
<title>Node1&#45;&gt;Node2</title>
<path fill="none" stroke="midnightblue" d="M1093.11,-338.36C1015.23,-328.51 899.3,-313.48 798.5,-299 793.97,-298.35 789.32,-297.67 784.63,-296.97"/>
<polygon fill="midnightblue" stroke="midnightblue" points="1093,-341.87 1103.36,-339.65 1093.88,-334.93 1093,-341.87"/>
</g>
<!-- Node3 -->
<g id="node3" class="node">
<title>Node3</title>
<g id="a_node3"><a xlink:href="Bonus_8cpp.html" target="_top" xlink:title=" ">
<polygon fill="white" stroke="black" points="758.5,-207 758.5,-226 896.5,-226 896.5,-207 758.5,-207"/>
<text text-anchor="middle" x="827.5" y="-214" font-family="Helvetica,sans-Serif" font-size="10.00">sources/Items/Bonus.cpp</text>
</a>
</g>
</g>
<!-- Node1&#45;&gt;Node3 -->
<g id="edge2" class="edge">
<title>Node1&#45;&gt;Node3</title>
<path fill="none" stroke="midnightblue" d="M1093.29,-344.01C1013.65,-337.54 904.38,-324.3 869.5,-299 844.37,-280.78 833.16,-243.03 829.24,-226.07"/>
<polygon fill="midnightblue" stroke="midnightblue" points="1093.09,-347.51 1103.34,-344.8 1093.64,-340.53 1093.09,-347.51"/>
</g>
<!-- Node4 -->
<g id="node4" class="node">
<title>Node4</title>
<g id="a_node4"><a xlink:href="Bonus_8hpp.html" target="_top" xlink:title=" ">
<polygon fill="white" stroke="black" points="879,-274 879,-293 1018,-293 1018,-274 879,-274"/>
<text text-anchor="middle" x="948.5" y="-281" font-family="Helvetica,sans-Serif" font-size="10.00">sources/Items/Bonus.hpp</text>
</a>
</g>
</g>
<!-- Node1&#45;&gt;Node4 -->
<g id="edge3" class="edge">
<title>Node1&#45;&gt;Node4</title>
<path fill="none" stroke="midnightblue" d="M1122.2,-332.75C1076.44,-320.04 1015.41,-303.09 979.2,-293.03"/>
<polygon fill="midnightblue" stroke="midnightblue" points="1121.44,-336.17 1132.01,-335.48 1123.32,-329.43 1121.44,-336.17"/>
</g>
<!-- Node5 -->
<g id="node5" class="node">
<title>Node5</title>
<g id="a_node5"><a xlink:href="Map_8hpp.html" target="_top" xlink:title=" ">
<polygon fill="white" stroke="black" points="617,-207 617,-226 740,-226 740,-207 617,-207"/>
<text text-anchor="middle" x="678.5" y="-214" font-family="Helvetica,sans-Serif" font-size="10.00">sources/Map/Map.hpp</text>
</a>
</g>
</g>
<!-- Node1&#45;&gt;Node5 -->
<g id="edge27" class="edge">
<title>Node1&#45;&gt;Node5</title>
<path fill="none" stroke="midnightblue" d="M1093.11,-346.61C1022.77,-341.9 923.31,-329.81 841.5,-299 817.73,-290.05 815.86,-280.03 793.5,-268 762.39,-251.26 724.6,-235.49 701.05,-226.16"/>
<polygon fill="midnightblue" stroke="midnightblue" points="1093.08,-350.11 1103.28,-347.25 1093.52,-343.13 1093.08,-350.11"/>
</g>
<!-- Node7 -->
<g id="node7" class="node">
<title>Node7</title>
<g id="a_node7"><a xlink:href="Map_8cpp.html" target="_top" xlink:title=" ">
<polygon fill="white" stroke="black" points="1171.5,-140 1171.5,-159 1293.5,-159 1293.5,-140 1171.5,-140"/>
<text text-anchor="middle" x="1232.5" y="-147" font-family="Helvetica,sans-Serif" font-size="10.00">sources/Map/Map.cpp</text>
</a>
</g>
</g>
<!-- Node1&#45;&gt;Node7 -->
<g id="edge28" class="edge">
<title>Node1&#45;&gt;Node7</title>
<path fill="none" stroke="midnightblue" d="M1157.02,-328.44C1124.4,-298.86 1075.35,-243.84 1104.5,-201 1115.55,-184.76 1165.25,-168.54 1199.37,-159.02"/>
<polygon fill="midnightblue" stroke="midnightblue" points="1155.09,-331.4 1164.91,-335.39 1159.72,-326.15 1155.09,-331.4"/>
</g>
<!-- Node19 -->
<g id="node19" class="node">
<title>Node19</title>
<g id="a_node19"><a xlink:href="GameScene_8cpp.html" target="_top" xlink:title=" ">
<polygon fill="white" stroke="black" points="980,-140 980,-159 1153,-159 1153,-140 980,-140"/>
<text text-anchor="middle" x="1066.5" y="-147" font-family="Helvetica,sans-Serif" font-size="10.00">sources/Runner/GameScene.cpp</text>
</a>
</g>
</g>
<!-- Node1&#45;&gt;Node19 -->
<g id="edge29" class="edge">
<title>Node1&#45;&gt;Node19</title>
<path fill="none" stroke="midnightblue" d="M1139.61,-330.58C1125.94,-322.63 1111.93,-312.13 1102.5,-299 1070.16,-253.97 1066.63,-183.49 1066.42,-159.12"/>
<polygon fill="midnightblue" stroke="midnightblue" points="1138.04,-333.71 1148.49,-335.44 1141.39,-327.57 1138.04,-333.71"/>
</g>
<!-- Node20 -->
<g id="node20" class="node">
<title>Node20</title>
<g id="a_node20"><a xlink:href="BombHolderSystem_8cpp.html" target="_top" xlink:title=" ">
<polygon fill="white" stroke="black" points="1421.5,-134.5 1421.5,-164.5 1579.5,-164.5 1579.5,-134.5 1421.5,-134.5"/>
<text text-anchor="start" x="1429.5" y="-152.5" font-family="Helvetica,sans-Serif" font-size="10.00">sources/System/BombHolder</text>
<text text-anchor="middle" x="1500.5" y="-141.5" font-family="Helvetica,sans-Serif" font-size="10.00">/BombHolderSystem.cpp</text>
</a>
</g>
</g>
<!-- Node1&#45;&gt;Node20 -->
<g id="edge33" class="edge">
<title>Node1&#45;&gt;Node20</title>
<path fill="none" stroke="midnightblue" d="M1271.93,-334.62C1308.19,-326.72 1349.84,-315.21 1385.5,-299 1432.87,-277.47 1452.33,-275.08 1481.5,-232 1495.43,-211.43 1499.23,-181.98 1500.21,-164.68"/>
<polygon fill="midnightblue" stroke="midnightblue" points="1270.92,-331.26 1261.86,-336.75 1272.37,-338.11 1270.92,-331.26"/>
</g>
<!-- Node22 -->
<g id="node22" class="node">
<title>Node22</title>
<g id="a_node22"><a xlink:href="BombHolderSystem_8hpp.html" target="_top" xlink:title=" ">
<polygon fill="white" stroke="black" points="1528.5,-201.5 1528.5,-231.5 1686.5,-231.5 1686.5,-201.5 1528.5,-201.5"/>
<text text-anchor="start" x="1536.5" y="-219.5" font-family="Helvetica,sans-Serif" font-size="10.00">sources/System/BombHolder</text>
<text text-anchor="middle" x="1607.5" y="-208.5" font-family="Helvetica,sans-Serif" font-size="10.00">/BombHolderSystem.hpp</text>
</a>
</g>
</g>
<!-- Node1&#45;&gt;Node22 -->
<g id="edge30" class="edge">
<title>Node1&#45;&gt;Node22</title>
<path fill="none" stroke="midnightblue" d="M1271.55,-349.39C1340.73,-346.21 1437.53,-334.79 1514.5,-299 1532.31,-290.72 1572.18,-252.63 1593.47,-231.58"/>
<polygon fill="midnightblue" stroke="midnightblue" points="1271.39,-345.9 1261.55,-349.81 1271.68,-352.89 1271.39,-345.9"/>
</g>
<!-- Node23 -->
<g id="node23" class="node">
<title>Node23</title>
<g id="a_node23"><a xlink:href="PlayerBonusSystem_8cpp.html" target="_top" xlink:title=" ">
<polygon fill="white" stroke="black" points="1567,-268.5 1567,-298.5 1704,-298.5 1704,-268.5 1567,-268.5"/>
<text text-anchor="start" x="1575" y="-286.5" font-family="Helvetica,sans-Serif" font-size="10.00">sources/System/Bonus</text>
<text text-anchor="middle" x="1635.5" y="-275.5" font-family="Helvetica,sans-Serif" font-size="10.00">/PlayerBonusSystem.cpp</text>
</a>
</g>
</g>
<!-- Node1&#45;&gt;Node23 -->
<g id="edge34" class="edge">
<title>Node1&#45;&gt;Node23</title>
<path fill="none" stroke="midnightblue" d="M1272.01,-338.23C1347.03,-328.56 1456.9,-313.87 1552.5,-299 1557.13,-298.28 1561.89,-297.51 1566.69,-296.72"/>
<polygon fill="midnightblue" stroke="midnightblue" points="1271.13,-334.82 1261.66,-339.56 1272.02,-341.76 1271.13,-334.82"/>
</g>
<!-- Node24 -->
<g id="node24" class="node">
<title>Node24</title>
<g id="a_node24"><a xlink:href="CollisionSystem_8cpp.html" target="_top" xlink:title=" ">
<polygon fill="white" stroke="black" points="1113,-201.5 1113,-231.5 1252,-231.5 1252,-201.5 1113,-201.5"/>
<text text-anchor="start" x="1121" y="-219.5" font-family="Helvetica,sans-Serif" font-size="10.00">sources/System/Collision</text>
<text text-anchor="middle" x="1182.5" y="-208.5" font-family="Helvetica,sans-Serif" font-size="10.00">/CollisionSystem.cpp</text>
</a>
</g>
</g>
<!-- Node1&#45;&gt;Node24 -->
<g id="edge35" class="edge">
<title>Node1&#45;&gt;Node24</title>
<path fill="none" stroke="midnightblue" d="M1182.5,-325.02C1182.5,-297.51 1182.5,-253.79 1182.5,-231.52"/>
<polygon fill="midnightblue" stroke="midnightblue" points="1179,-325.37 1182.5,-335.37 1186,-325.37 1179,-325.37"/>
</g>
<!-- Node25 -->
<g id="node25" class="node">
<title>Node25</title>
<g id="a_node25"><a xlink:href="CollisionSystem_8hpp.html" target="_top" xlink:title=" ">
<polygon fill="white" stroke="black" points="1211,-268.5 1211,-298.5 1350,-298.5 1350,-268.5 1211,-268.5"/>
<text text-anchor="start" x="1219" y="-286.5" font-family="Helvetica,sans-Serif" font-size="10.00">sources/System/Collision</text>
<text text-anchor="middle" x="1280.5" y="-275.5" font-family="Helvetica,sans-Serif" font-size="10.00">/CollisionSystem.hpp</text>
</a>
</g>
</g>
<!-- Node1&#45;&gt;Node25 -->
<g id="edge36" class="edge">
<title>Node1&#45;&gt;Node25</title>
<path fill="none" stroke="midnightblue" d="M1212.3,-329.73C1227.47,-319.68 1245.54,-307.68 1259.28,-298.58"/>
<polygon fill="midnightblue" stroke="midnightblue" points="1210.16,-326.95 1203.76,-335.4 1214.03,-332.79 1210.16,-326.95"/>
</g>
<!-- Node26 -->
<g id="node26" class="node">
<title>Node26</title>
<g id="a_node26"><a xlink:href="CollisionTest_8cpp.html" target="_top" xlink:title=" ">
<polygon fill="white" stroke="black" points="1347,-207 1347,-226 1472,-226 1472,-207 1347,-207"/>
<text text-anchor="middle" x="1409.5" y="-214" font-family="Helvetica,sans-Serif" font-size="10.00">tests/CollisionTest.cpp</text>
</a>
</g>
</g>
<!-- Node1&#45;&gt;Node26 -->
<g id="edge42" class="edge">
<title>Node1&#45;&gt;Node26</title>
<path fill="none" stroke="midnightblue" d="M1271.88,-337.46C1301.94,-330.08 1334.23,-318.18 1359.5,-299 1385.15,-279.53 1400.64,-242.77 1406.64,-226.1"/>
<polygon fill="midnightblue" stroke="midnightblue" points="1270.73,-334.13 1261.78,-339.79 1272.31,-340.95 1270.73,-334.13"/>
</g>
<!-- Node27 -->
<g id="node27" class="node">
<title>Node27</title>
<g id="a_node27"><a xlink:href="RenderSystem_8cpp.html" target="_top" xlink:title=" ">
<polygon fill="white" stroke="black" points="1722,-268.5 1722,-298.5 1863,-298.5 1863,-268.5 1722,-268.5"/>
<text text-anchor="start" x="1730" y="-286.5" font-family="Helvetica,sans-Serif" font-size="10.00">sources/System/Renderer</text>
<text text-anchor="middle" x="1792.5" y="-275.5" font-family="Helvetica,sans-Serif" font-size="10.00">/RenderSystem.cpp</text>
</a>
</g>
</g>
<!-- Node1&#45;&gt;Node27 -->
<g id="edge41" class="edge">
<title>Node1&#45;&gt;Node27</title>
<path fill="none" stroke="midnightblue" d="M1271.91,-343.37C1377.67,-335.58 1558.89,-320.5 1713.5,-299 1716.26,-298.62 1719.08,-298.2 1721.91,-297.77"/>
<polygon fill="midnightblue" stroke="midnightblue" points="1271.63,-339.89 1261.92,-344.11 1272.15,-346.87 1271.63,-339.89"/>
</g>
<!-- Node4&#45;&gt;Node3 -->
<g id="edge4" class="edge">
<title>Node4&#45;&gt;Node3</title>
<path fill="none" stroke="midnightblue" d="M923.29,-268.96C899.3,-256.07 863.94,-237.07 843.56,-226.13"/>
<polygon fill="midnightblue" stroke="midnightblue" points="921.72,-272.08 932.18,-273.73 925.03,-265.92 921.72,-272.08"/>
</g>
<!-- Node4&#45;&gt;Node5 -->
<g id="edge5" class="edge">
<title>Node4&#45;&gt;Node5</title>
<path fill="none" stroke="midnightblue" d="M903.07,-271.56C849.85,-258.75 762.76,-237.78 714.15,-226.08"/>
<polygon fill="midnightblue" stroke="midnightblue" points="902.38,-275 912.92,-273.94 904.02,-268.19 902.38,-275"/>
</g>
<!-- Node4&#45;&gt;Node7 -->
<g id="edge24" class="edge">
<title>Node4&#45;&gt;Node7</title>
<path fill="none" stroke="midnightblue" d="M966.86,-267.76C989.9,-249.88 1031.16,-219.79 1070.5,-201 1111.17,-181.57 1161.09,-167.33 1194.68,-159.01"/>
<polygon fill="midnightblue" stroke="midnightblue" points="964.67,-265.04 958.97,-273.97 968.99,-270.54 964.67,-265.04"/>
</g>
<!-- Node14 -->
<g id="node14" class="node">
<title>Node14</title>
<g id="a_node14"><a xlink:href="ParserYaml_8cpp.html" target="_top" xlink:title=" ">
<polygon fill="white" stroke="black" points="546.5,-73 546.5,-92 710.5,-92 710.5,-73 546.5,-73"/>
<text text-anchor="middle" x="628.5" y="-80" font-family="Helvetica,sans-Serif" font-size="10.00">sources/Parser/ParserYaml.cpp</text>
</a>
</g>
</g>
<!-- Node4&#45;&gt;Node14 -->
<g id="edge25" class="edge">
<title>Node4&#45;&gt;Node14</title>
<path fill="none" stroke="midnightblue" d="M943.46,-264.35C937.4,-245.84 925.48,-217.55 905.5,-201 863.61,-166.29 836.47,-190.67 788.5,-165 769.28,-154.72 769.21,-145.18 750.5,-134 719.6,-115.55 680.72,-100.73 655.26,-92.04"/>
<polygon fill="midnightblue" stroke="midnightblue" points="940.12,-265.4 946.36,-273.96 946.82,-263.37 940.12,-265.4"/>
</g>
<!-- Node15 -->
<g id="node15" class="node">
<title>Node15</title>
<g id="a_node15"><a xlink:href="ParserYaml_8hpp.html" target="_top" xlink:title=" ">
<polygon fill="white" stroke="black" points="797.5,-140 797.5,-159 961.5,-159 961.5,-140 797.5,-140"/>
<text text-anchor="middle" x="879.5" y="-147" font-family="Helvetica,sans-Serif" font-size="10.00">sources/Parser/ParserYaml.hpp</text>
</a>
</g>
</g>
<!-- Node4&#45;&gt;Node15 -->
<g id="edge26" class="edge">
<title>Node4&#45;&gt;Node15</title>
<path fill="none" stroke="midnightblue" d="M949.94,-263.33C950.4,-246.03 948.91,-220.39 938.5,-201 928.56,-182.47 908.82,-167.77 894.92,-159.11"/>
<polygon fill="midnightblue" stroke="midnightblue" points="946.42,-263.63 949.4,-273.8 953.41,-263.99 946.42,-263.63"/>
</g>
<!-- Node6 -->
<g id="node6" class="node">
<title>Node6</title>
<g id="a_node6"><a xlink:href="LuaMap_8cpp.html" target="_top" xlink:title=" ">
<polygon fill="white" stroke="black" points="419.5,-140 419.5,-159 559.5,-159 559.5,-140 419.5,-140"/>
<text text-anchor="middle" x="489.5" y="-147" font-family="Helvetica,sans-Serif" font-size="10.00">sources/Map/LuaMap.cpp</text>
</a>
</g>
</g>
<!-- Node5&#45;&gt;Node6 -->
<g id="edge6" class="edge">
<title>Node5&#45;&gt;Node6</title>
<path fill="none" stroke="midnightblue" d="M643.9,-203.6C606.43,-190.71 547.57,-170.47 514.4,-159.06"/>
<polygon fill="midnightblue" stroke="midnightblue" points="642.81,-206.93 653.4,-206.87 645.08,-200.31 642.81,-206.93"/>
</g>
<!-- Node5&#45;&gt;Node7 -->
<g id="edge7" class="edge">
<title>Node5&#45;&gt;Node7</title>
<path fill="none" stroke="midnightblue" d="M726.3,-204.96C734.03,-203.48 741.97,-202.09 749.5,-201 931.84,-174.52 980.2,-191.73 1162.5,-165 1173.18,-163.43 1184.69,-161.26 1195.23,-159.07"/>
<polygon fill="midnightblue" stroke="midnightblue" points="725.44,-201.56 716.31,-206.94 726.8,-208.43 725.44,-201.56"/>
</g>
<!-- Node8 -->
<g id="node8" class="node">
<title>Node8</title>
<g id="a_node8"><a xlink:href="MapInfo_8hpp.html" target="_top" xlink:title=" ">
<polygon fill="white" stroke="black" points="231.5,-140 231.5,-159 373.5,-159 373.5,-140 231.5,-140"/>
<text text-anchor="middle" x="302.5" y="-147" font-family="Helvetica,sans-Serif" font-size="10.00">sources/Map/MapInfo.hpp</text>
</a>
</g>
</g>
<!-- Node5&#45;&gt;Node8 -->
<g id="edge8" class="edge">
<title>Node5&#45;&gt;Node8</title>
<path fill="none" stroke="midnightblue" d="M618.88,-205.19C545.04,-192.43 420.6,-170.92 351.85,-159.03"/>
<polygon fill="midnightblue" stroke="midnightblue" points="618.51,-208.68 628.96,-206.94 619.7,-201.78 618.51,-208.68"/>
</g>
<!-- Node5&#45;&gt;Node14 -->
<g id="edge14" class="edge">
<title>Node5&#45;&gt;Node14</title>
<path fill="none" stroke="midnightblue" d="M647.55,-202.34C632.23,-194.05 615.19,-181.71 606.5,-165 593.65,-140.3 611.99,-107.37 622.31,-92.03"/>
<polygon fill="midnightblue" stroke="midnightblue" points="646.28,-205.62 656.78,-206.99 649.42,-199.36 646.28,-205.62"/>
</g>
<!-- Node5&#45;&gt;Node15 -->
<g id="edge15" class="edge">
<title>Node5&#45;&gt;Node15</title>
<path fill="none" stroke="midnightblue" d="M714.79,-203.77C754.61,-190.89 817.59,-170.52 853.02,-159.06"/>
<polygon fill="midnightblue" stroke="midnightblue" points="713.63,-200.46 705.19,-206.87 715.78,-207.12 713.63,-200.46"/>
</g>
<!-- Node5&#45;&gt;Node19 -->
<g id="edge21" class="edge">
<title>Node5&#45;&gt;Node19</title>
<path fill="none" stroke="midnightblue" d="M728.71,-204.96C735.68,-203.58 742.76,-202.22 749.5,-201 798.57,-192.08 934,-170.95 1011.03,-159.04"/>
<polygon fill="midnightblue" stroke="midnightblue" points="727.73,-201.59 718.62,-206.99 729.11,-208.45 727.73,-201.59"/>
</g>
<!-- Node5&#45;&gt;Node20 -->
<g id="edge22" class="edge">
<title>Node5&#45;&gt;Node20</title>
<path fill="none" stroke="midnightblue" d="M725.48,-204.97C733.47,-203.45 741.7,-202.05 749.5,-201 993.62,-168.28 1056.79,-181.99 1302.5,-165 1341.53,-162.3 1384.87,-159.14 1421.03,-156.47"/>
<polygon fill="midnightblue" stroke="midnightblue" points="724.68,-201.56 715.55,-206.94 726.04,-208.42 724.68,-201.56"/>
</g>
<!-- Node21 -->
<g id="node21" class="node">
<title>Node21</title>
<g id="a_node21"><a xlink:href="LobbySystem_8cpp.html" target="_top" xlink:title=" ">
<polygon fill="white" stroke="black" points="615.5,-134.5 615.5,-164.5 741.5,-164.5 741.5,-134.5 615.5,-134.5"/>
<text text-anchor="start" x="623.5" y="-152.5" font-family="Helvetica,sans-Serif" font-size="10.00">sources/System/Lobby</text>
<text text-anchor="middle" x="678.5" y="-141.5" font-family="Helvetica,sans-Serif" font-size="10.00">/LobbySystem.cpp</text>
</a>
</g>
</g>
<!-- Node5&#45;&gt;Node21 -->
<g id="edge23" class="edge">
<title>Node5&#45;&gt;Node21</title>
<path fill="none" stroke="midnightblue" d="M678.5,-196.41C678.5,-186.22 678.5,-173.9 678.5,-164.59"/>
<polygon fill="midnightblue" stroke="midnightblue" points="675,-196.73 678.5,-206.73 682,-196.73 675,-196.73"/>
</g>
<!-- Node9 -->
<g id="node9" class="node">
<title>Node9</title>
<g id="a_node9"><a xlink:href="IAControllableComponent_8cpp.html" target="_top" xlink:title=" ">
<polygon fill="white" stroke="black" points="0,-67.5 0,-97.5 185,-97.5 185,-67.5 0,-67.5"/>
<text text-anchor="start" x="8" y="-85.5" font-family="Helvetica,sans-Serif" font-size="10.00">sources/Component/IAControllable</text>
<text text-anchor="middle" x="92.5" y="-74.5" font-family="Helvetica,sans-Serif" font-size="10.00">/IAControllableComponent.cpp</text>
</a>
</g>
</g>
<!-- Node8&#45;&gt;Node9 -->
<g id="edge9" class="edge">
<title>Node8&#45;&gt;Node9</title>
<path fill="none" stroke="midnightblue" d="M264.62,-136.77C229.01,-125.75 175.67,-109.24 137.82,-97.53"/>
<polygon fill="midnightblue" stroke="midnightblue" points="264.03,-140.26 274.61,-139.87 266.1,-133.57 264.03,-140.26"/>
</g>
<!-- Node10 -->
<g id="node10" class="node">
<title>Node10</title>
<g id="a_node10"><a xlink:href="MapInfo_8cpp.html" target="_top" xlink:title=" ">
<polygon fill="white" stroke="black" points="203,-73 203,-92 344,-92 344,-73 203,-73"/>
<text text-anchor="middle" x="273.5" y="-80" font-family="Helvetica,sans-Serif" font-size="10.00">sources/Map/MapInfo.cpp</text>
</a>
</g>
</g>
<!-- Node8&#45;&gt;Node10 -->
<g id="edge10" class="edge">
<title>Node8&#45;&gt;Node10</title>
<path fill="none" stroke="midnightblue" d="M294.38,-130.29C288.81,-117.81 281.67,-101.81 277.35,-92.13"/>
<polygon fill="midnightblue" stroke="midnightblue" points="291.32,-132.03 298.59,-139.73 297.71,-129.18 291.32,-132.03"/>
</g>
<!-- Node11 -->
<g id="node11" class="node">
<title>Node11</title>
<g id="a_node11"><a xlink:href="IAControllableSystem_8hpp.html" target="_top" xlink:title=" ">
<polygon fill="white" stroke="black" points="362.5,-67.5 362.5,-97.5 528.5,-97.5 528.5,-67.5 362.5,-67.5"/>
<text text-anchor="start" x="370.5" y="-85.5" font-family="Helvetica,sans-Serif" font-size="10.00">sources/System/IAControllable</text>
<text text-anchor="middle" x="445.5" y="-74.5" font-family="Helvetica,sans-Serif" font-size="10.00">/IAControllableSystem.hpp</text>
</a>
</g>
</g>
<!-- Node8&#45;&gt;Node11 -->
<g id="edge11" class="edge">
<title>Node8&#45;&gt;Node11</title>
<path fill="none" stroke="midnightblue" d="M330.83,-135.62C355.02,-124.63 389.75,-108.84 414.64,-97.53"/>
<polygon fill="midnightblue" stroke="midnightblue" points="329.14,-132.54 321.49,-139.87 332.04,-138.92 329.14,-132.54"/>
</g>
<!-- Node12 -->
<g id="node12" class="node">
<title>Node12</title>
<g id="a_node12"><a xlink:href="Runner_8cpp.html" target="_top" xlink:title=" ">
<polygon fill="white" stroke="black" points="1228,-6 1228,-25 1377,-25 1377,-6 1228,-6"/>
<text text-anchor="middle" x="1302.5" y="-13" font-family="Helvetica,sans-Serif" font-size="10.00">sources/Runner/Runner.cpp</text>
</a>
</g>
</g>
<!-- Node11&#45;&gt;Node12 -->
<g id="edge12" class="edge">
<title>Node11&#45;&gt;Node12</title>
<path fill="none" stroke="midnightblue" d="M538.66,-66.94C797.44,-38.49 1092.59,-24.54 1227.92,-19.18"/>
<polygon fill="midnightblue" stroke="midnightblue" points="538.25,-63.46 528.7,-68.04 539.02,-70.42 538.25,-63.46"/>
</g>
<!-- Node13 -->
<g id="node13" class="node">
<title>Node13</title>
<g id="a_node13"><a xlink:href="IAControllableSystem_8cpp.html" target="_top" xlink:title=" ">
<polygon fill="white" stroke="black" points="362.5,-0.5 362.5,-30.5 528.5,-30.5 528.5,-0.5 362.5,-0.5"/>
<text text-anchor="start" x="370.5" y="-18.5" font-family="Helvetica,sans-Serif" font-size="10.00">sources/System/IAControllable</text>
<text text-anchor="middle" x="445.5" y="-7.5" font-family="Helvetica,sans-Serif" font-size="10.00">/IAControllableSystem.cpp</text>
</a>
</g>
</g>
<!-- Node11&#45;&gt;Node13 -->
<g id="edge13" class="edge">
<title>Node11&#45;&gt;Node13</title>
<path fill="none" stroke="midnightblue" d="M445.5,-57.11C445.5,-48.15 445.5,-38.32 445.5,-30.58"/>
<polygon fill="midnightblue" stroke="midnightblue" points="442,-57.4 445.5,-67.4 449,-57.4 442,-57.4"/>
</g>
<!-- Node15&#45;&gt;Node12 -->
<g id="edge19" class="edge">
<title>Node15&#45;&gt;Node12</title>
<path fill="none" stroke="midnightblue" d="M941.44,-138.44C951.48,-136.9 961.77,-135.36 971.5,-134 1036.47,-124.89 1211.43,-136.56 1264.5,-98 1289.13,-80.1 1298.28,-42.18 1301.25,-25.13"/>
<polygon fill="midnightblue" stroke="midnightblue" points="940.86,-134.99 931.51,-139.99 941.93,-141.91 940.86,-134.99"/>
</g>
<!-- Node15&#45;&gt;Node14 -->
<g id="edge16" class="edge">
<title>Node15&#45;&gt;Node14</title>
<path fill="none" stroke="midnightblue" d="M836.65,-137.4C787.12,-124.58 706.64,-103.74 661.65,-92.08"/>
<polygon fill="midnightblue" stroke="midnightblue" points="835.87,-140.82 846.43,-139.94 837.62,-134.04 835.87,-140.82"/>
</g>
<!-- Node16 -->
<g id="node16" class="node">
<title>Node16</title>
<g id="a_node16"><a xlink:href="MainMenuScene_8cpp.html" target="_top" xlink:title=" ">
<polygon fill="white" stroke="black" points="893,-73 893,-92 1088,-92 1088,-73 893,-73"/>
<text text-anchor="middle" x="990.5" y="-80" font-family="Helvetica,sans-Serif" font-size="10.00">sources/Runner/MainMenuScene.cpp</text>
</a>
</g>
</g>
<!-- Node15&#45;&gt;Node16 -->
<g id="edge17" class="edge">
<title>Node15&#45;&gt;Node16</title>
<path fill="none" stroke="midnightblue" d="M903.21,-134.62C925.2,-121.74 957.24,-102.98 975.77,-92.13"/>
<polygon fill="midnightblue" stroke="midnightblue" points="901.33,-131.66 894.47,-139.73 904.87,-137.7 901.33,-131.66"/>
</g>
<!-- Node17 -->
<g id="node17" class="node">
<title>Node17</title>
<g id="a_node17"><a xlink:href="PauseMenuScene_8cpp.html" target="_top" xlink:title=" ">
<polygon fill="white" stroke="black" points="1105.5,-67.5 1105.5,-97.5 1255.5,-97.5 1255.5,-67.5 1105.5,-67.5"/>
<text text-anchor="start" x="1113.5" y="-85.5" font-family="Helvetica,sans-Serif" font-size="10.00">sources/Runner/PauseMenu</text>
<text text-anchor="middle" x="1180.5" y="-74.5" font-family="Helvetica,sans-Serif" font-size="10.00">Scene.cpp</text>
</a>
</g>
</g>
<!-- Node15&#45;&gt;Node17 -->
<g id="edge18" class="edge">
<title>Node15&#45;&gt;Node17</title>
<path fill="none" stroke="midnightblue" d="M928.94,-137.82C979.84,-126.83 1059.4,-109.65 1115.4,-97.56"/>
<polygon fill="midnightblue" stroke="midnightblue" points="928.2,-134.4 919.16,-139.94 929.67,-141.25 928.2,-134.4"/>
</g>
<!-- Node18 -->
<g id="node18" class="node">
<title>Node18</title>
<g id="a_node18"><a xlink:href="ResumeLobbySystem_8cpp.html" target="_top" xlink:title=" ">
<polygon fill="white" stroke="black" points="728.5,-67.5 728.5,-97.5 874.5,-97.5 874.5,-67.5 728.5,-67.5"/>
<text text-anchor="start" x="736.5" y="-85.5" font-family="Helvetica,sans-Serif" font-size="10.00">sources/System/Lobby</text>
<text text-anchor="middle" x="801.5" y="-74.5" font-family="Helvetica,sans-Serif" font-size="10.00">/ResumeLobbySystem.cpp</text>
</a>
</g>
</g>
<!-- Node15&#45;&gt;Node18 -->
<g id="edge20" class="edge">
<title>Node15&#45;&gt;Node18</title>
<path fill="none" stroke="midnightblue" d="M861.18,-133.24C848.24,-122.45 831.02,-108.1 818.41,-97.59"/>
<polygon fill="midnightblue" stroke="midnightblue" points="859.06,-136.02 868.98,-139.73 863.54,-130.64 859.06,-136.02"/>
</g>
<!-- Node22&#45;&gt;Node12 -->
<g id="edge31" class="edge">
<title>Node22&#45;&gt;Node12</title>
<path fill="none" stroke="midnightblue" d="M1607.54,-191.23C1606.33,-173.49 1601.99,-149.85 1588.5,-134 1531.28,-66.75 1429.5,-37.41 1364.06,-25.03"/>
<polygon fill="midnightblue" stroke="midnightblue" points="1604.05,-191.54 1607.94,-201.39 1611.04,-191.26 1604.05,-191.54"/>
</g>
<!-- Node22&#45;&gt;Node20 -->
<g id="edge32" class="edge">
<title>Node22&#45;&gt;Node20</title>
<path fill="none" stroke="midnightblue" d="M1575.42,-196.02C1558.77,-185.9 1538.81,-173.77 1523.67,-164.58"/>
<polygon fill="midnightblue" stroke="midnightblue" points="1573.92,-199.2 1584.28,-201.4 1577.55,-193.21 1573.92,-199.2"/>
</g>
<!-- Node25&#45;&gt;Node7 -->
<g id="edge37" class="edge">
<title>Node25&#45;&gt;Node7</title>
<path fill="none" stroke="midnightblue" d="M1276.78,-258.34C1273.78,-241.82 1268.84,-219.63 1261.5,-201 1255.35,-185.38 1244.98,-168.79 1238.45,-159.05"/>
<polygon fill="midnightblue" stroke="midnightblue" points="1273.35,-259.01 1278.48,-268.28 1280.25,-257.83 1273.35,-259.01"/>
</g>
<!-- Node25&#45;&gt;Node12 -->
<g id="edge38" class="edge">
<title>Node25&#45;&gt;Node12</title>
<path fill="none" stroke="midnightblue" d="M1286.39,-258.3C1291.82,-234.68 1299.47,-197.62 1302.5,-165 1307.41,-112.12 1304.42,-48.19 1303.06,-25.23"/>
<polygon fill="midnightblue" stroke="midnightblue" points="1282.96,-257.61 1284.08,-268.15 1289.77,-259.21 1282.96,-257.61"/>
</g>
<!-- Node25&#45;&gt;Node24 -->
<g id="edge39" class="edge">
<title>Node25&#45;&gt;Node24</title>
<path fill="none" stroke="midnightblue" d="M1250.7,-262.73C1235.53,-252.68 1217.46,-240.68 1203.72,-231.58"/>
<polygon fill="midnightblue" stroke="midnightblue" points="1248.97,-265.79 1259.24,-268.4 1252.84,-259.95 1248.97,-265.79"/>
</g>
<!-- Node25&#45;&gt;Node26 -->
<g id="edge40" class="edge">
<title>Node25&#45;&gt;Node26</title>
<path fill="none" stroke="midnightblue" d="M1317.61,-263.8C1342.34,-251.34 1373.67,-235.56 1392.62,-226.01"/>
<polygon fill="midnightblue" stroke="midnightblue" points="1315.85,-260.77 1308.49,-268.4 1319,-267.02 1315.85,-260.77"/>
</g>
</g>
</svg>
