<?xml version="1.0" encoding="UTF-8" standalone="no"?>
<!DOCTYPE svg PUBLIC "-//W3C//DTD SVG 1.1//EN"
 "http://www.w3.org/Graphics/SVG/1.1/DTD/svg11.dtd">
<!-- Generated by graphviz version 2.43.0 (0)
 -->
<!-- Title: tests/CollisionTest.cpp Pages: 1 -->
<svg width="1291pt" height="498pt"
 viewBox="0.00 0.00 1291.10 498.00" xmlns="http://www.w3.org/2000/svg" xmlns:xlink="http://www.w3.org/1999/xlink">
<g id="graph0" class="graph" transform="scale(1 1) rotate(0) translate(4 494)">
<title>tests/CollisionTest.cpp</title>
<polygon fill="white" stroke="transparent" points="-4,4 -4,-494 1287.1,-494 1287.1,4 -4,4"/>
<!-- Node1 -->
<g id="node1" class="node">
<title>Node1</title>
<g id="a_node1"><a xlink:title=" ">
<polygon fill="#bfbfbf" stroke="black" points="575.5,-470.5 575.5,-489.5 700.5,-489.5 700.5,-470.5 575.5,-470.5"/>
<text text-anchor="middle" x="638" y="-477.5" font-family="Helvetica,sans-Serif" font-size="10.00">tests/CollisionTest.cpp</text>
</a>
</g>
</g>
<!-- Node2 -->
<g id="node2" class="node">
<title>Node2</title>
<g id="a_node2"><a xlink:title=" ">
<polygon fill="white" stroke="#bfbfbf" points="291.5,-409 291.5,-428 390.5,-428 390.5,-409 291.5,-409"/>
<text text-anchor="middle" x="341" y="-416" font-family="Helvetica,sans-Serif" font-size="10.00">catch2/catch.hpp</text>
</a>
</g>
</g>
<!-- Node1&#45;&gt;Node2 -->
<g id="edge1" class="edge">
<title>Node1&#45;&gt;Node2</title>
<path fill="none" stroke="midnightblue" d="M591.49,-470.47C544.4,-461.73 469.51,-447.53 405,-434 399.49,-432.85 393.73,-431.6 388.02,-430.33"/>
<polygon fill="midnightblue" stroke="midnightblue" points="388.37,-426.82 377.84,-428.06 386.84,-433.66 388.37,-426.82"/>
</g>
<!-- Node3 -->
<g id="node3" class="node">
<title>Node3</title>
<g id="a_node3"><a xlink:href="Entity_8hpp.html" target="_top" xlink:title=" ">
<polygon fill="white" stroke="black" points="829,-112.5 829,-131.5 925,-131.5 925,-112.5 829,-112.5"/>
<text text-anchor="middle" x="877" y="-119.5" font-family="Helvetica,sans-Serif" font-size="10.00">Entity/Entity.hpp</text>
</a>
</g>
</g>
<!-- Node1&#45;&gt;Node3 -->
<g id="edge2" class="edge">
<title>Node1&#45;&gt;Node3</title>
<path fill="none" stroke="midnightblue" d="M700.54,-478.99C854.8,-477.28 1241,-462.07 1241,-352.5 1241,-352.5 1241,-352.5 1241,-233 1241,-169.97 1038.5,-139.77 935.58,-128.49"/>
<polygon fill="midnightblue" stroke="midnightblue" points="935.65,-124.98 925.34,-127.39 934.91,-131.94 935.65,-124.98"/>
</g>
<!-- Node15 -->
<g id="node15" class="node">
<title>Node15</title>
<g id="a_node15"><a xlink:href="PositionComponent_8hpp.html" target="_top" xlink:title=" ">
<polygon fill="white" stroke="black" points="383,-336.5 383,-366.5 519,-366.5 519,-336.5 383,-336.5"/>
<text text-anchor="start" x="391" y="-354.5" font-family="Helvetica,sans-Serif" font-size="10.00">Component/Position</text>
<text text-anchor="middle" x="451" y="-343.5" font-family="Helvetica,sans-Serif" font-size="10.00">/PositionComponent.hpp</text>
</a>
</g>
</g>
<!-- Node1&#45;&gt;Node15 -->
<g id="edge16" class="edge">
<title>Node1&#45;&gt;Node15</title>
<path fill="none" stroke="midnightblue" d="M635.88,-470.37C631.59,-454.71 620.43,-421.52 599,-403 579.24,-385.92 553.42,-374.54 528.89,-367"/>
<polygon fill="midnightblue" stroke="midnightblue" points="529.79,-363.61 519.21,-364.19 527.84,-370.33 529.79,-363.61"/>
</g>
<!-- Node21 -->
<g id="node21" class="node">
<title>Node21</title>
<g id="a_node21"><a xlink:href="Wal_8hpp.html" target="_top" xlink:title=" ">
<polygon fill="white" stroke="black" points="737,-280.5 737,-299.5 793,-299.5 793,-280.5 737,-280.5"/>
<text text-anchor="middle" x="765" y="-287.5" font-family="Helvetica,sans-Serif" font-size="10.00">Wal.hpp</text>
</a>
</g>
</g>
<!-- Node1&#45;&gt;Node21 -->
<g id="edge23" class="edge">
<title>Node1&#45;&gt;Node21</title>
<path fill="none" stroke="midnightblue" d="M649.98,-470.33C672.64,-453.25 721.79,-412.9 747,-367 756.87,-349.02 761.36,-325.75 763.38,-309.72"/>
<polygon fill="midnightblue" stroke="midnightblue" points="766.89,-309.82 764.46,-299.51 759.93,-309.09 766.89,-309.82"/>
</g>
<!-- Node32 -->
<g id="node32" class="node">
<title>Node32</title>
<g id="a_node32"><a xlink:href="CollisionSystem_8hpp.html" target="_top" xlink:title=" ">
<polygon fill="white" stroke="black" points="447.5,-403.5 447.5,-433.5 590.5,-433.5 590.5,-403.5 447.5,-403.5"/>
<text text-anchor="start" x="455.5" y="-421.5" font-family="Helvetica,sans-Serif" font-size="10.00">System/Collision/Collision</text>
<text text-anchor="middle" x="519" y="-410.5" font-family="Helvetica,sans-Serif" font-size="10.00">System.hpp</text>
</a>
</g>
</g>
<!-- Node1&#45;&gt;Node32 -->
<g id="edge51" class="edge">
<title>Node1&#45;&gt;Node32</title>
<path fill="none" stroke="midnightblue" d="M620.95,-470.48C604.08,-462.04 577.71,-448.86 556.02,-438.01"/>
<polygon fill="midnightblue" stroke="midnightblue" points="557.56,-434.86 547.05,-433.52 554.42,-441.13 557.56,-434.86"/>
</g>
<!-- Node35 -->
<g id="node35" class="node">
<title>Node35</title>
<g id="a_node35"><a xlink:href="CollisionComponent_8hpp.html" target="_top" xlink:title=" ">
<polygon fill="white" stroke="black" points="105.5,-336.5 105.5,-366.5 244.5,-366.5 244.5,-336.5 105.5,-336.5"/>
<text text-anchor="start" x="113.5" y="-354.5" font-family="Helvetica,sans-Serif" font-size="10.00">Component/Collision</text>
<text text-anchor="middle" x="175" y="-343.5" font-family="Helvetica,sans-Serif" font-size="10.00">/CollisionComponent.hpp</text>
</a>
</g>
</g>
<!-- Node1&#45;&gt;Node35 -->
<g id="edge80" class="edge">
<title>Node1&#45;&gt;Node35</title>
<path fill="none" stroke="midnightblue" d="M575.24,-472.25C534.59,-466.13 481.34,-454.75 438,-434 418.03,-424.44 418.97,-412.56 399,-403 373.61,-390.84 308.08,-376.73 254.41,-366.52"/>
<polygon fill="midnightblue" stroke="midnightblue" points="255.02,-363.07 244.54,-364.66 253.72,-369.95 255.02,-363.07"/>
</g>
<!-- Node36 -->
<g id="node36" class="node">
<title>Node36</title>
<g id="a_node36"><a xlink:href="MovableComponent_8hpp.html" target="_top" xlink:title=" ">
<polygon fill="white" stroke="black" points="575.5,-336.5 575.5,-366.5 738.5,-366.5 738.5,-336.5 575.5,-336.5"/>
<text text-anchor="start" x="583.5" y="-354.5" font-family="Helvetica,sans-Serif" font-size="10.00">Component/Movable/Movable</text>
<text text-anchor="middle" x="657" y="-343.5" font-family="Helvetica,sans-Serif" font-size="10.00">Component.hpp</text>
</a>
</g>
</g>
<!-- Node1&#45;&gt;Node36 -->
<g id="edge79" class="edge">
<title>Node1&#45;&gt;Node36</title>
<path fill="none" stroke="midnightblue" d="M639.31,-470.31C642.16,-451.3 649.04,-405.47 653.34,-376.9"/>
<polygon fill="midnightblue" stroke="midnightblue" points="656.81,-377.3 654.84,-366.89 649.89,-376.26 656.81,-377.3"/>
</g>
<!-- Node37 -->
<g id="node37" class="node">
<title>Node37</title>
<g id="a_node37"><a xlink:href="MovableSystem_8hpp.html" target="_top" xlink:title=" ">
<polygon fill="white" stroke="black" points="795.5,-409 795.5,-428 996.5,-428 996.5,-409 795.5,-409"/>
<text text-anchor="middle" x="896" y="-416" font-family="Helvetica,sans-Serif" font-size="10.00">System/Movable/MovableSystem.hpp</text>
</a>
</g>
</g>
<!-- Node1&#45;&gt;Node37 -->
<g id="edge74" class="edge">
<title>Node1&#45;&gt;Node37</title>
<path fill="none" stroke="midnightblue" d="M674.97,-470.48C720.85,-459.89 799.15,-441.84 849.18,-430.3"/>
<polygon fill="midnightblue" stroke="midnightblue" points="850.15,-433.67 859.1,-428.01 848.57,-426.85 850.15,-433.67"/>
</g>
<!-- Node4 -->
<g id="node4" class="node">
<title>Node4</title>
<g id="a_node4"><a xlink:title=" ">
<polygon fill="white" stroke="#bfbfbf" points="807,-0.5 807,-19.5 851,-19.5 851,-0.5 807,-0.5"/>
<text text-anchor="middle" x="829" y="-7.5" font-family="Helvetica,sans-Serif" font-size="10.00">string</text>
</a>
</g>
</g>
<!-- Node3&#45;&gt;Node4 -->
<g id="edge3" class="edge">
<title>Node3&#45;&gt;Node4</title>
<path fill="none" stroke="midnightblue" d="M874.46,-112.41C870.63,-99.8 862.86,-75.64 854,-56 849.78,-46.63 844.3,-36.6 839.55,-28.39"/>
<polygon fill="midnightblue" stroke="midnightblue" points="842.54,-26.56 834.43,-19.74 836.51,-30.13 842.54,-26.56"/>
</g>
<!-- Node5 -->
<g id="node5" class="node">
<title>Node5</title>
<g id="a_node5"><a xlink:title=" ">
<polygon fill="white" stroke="#bfbfbf" points="599.5,-56.5 599.5,-75.5 692.5,-75.5 692.5,-56.5 599.5,-56.5"/>
<text text-anchor="middle" x="646" y="-63.5" font-family="Helvetica,sans-Serif" font-size="10.00">unordered_map</text>
</a>
</g>
</g>
<!-- Node3&#45;&gt;Node5 -->
<g id="edge4" class="edge">
<title>Node3&#45;&gt;Node5</title>
<path fill="none" stroke="midnightblue" d="M840.4,-112.44C800.27,-103.06 735.8,-87.99 692.22,-77.8"/>
<polygon fill="midnightblue" stroke="midnightblue" points="692.97,-74.38 682.43,-75.52 691.37,-81.2 692.97,-74.38"/>
</g>
<!-- Node6 -->
<g id="node6" class="node">
<title>Node6</title>
<g id="a_node6"><a xlink:title=" ">
<polygon fill="white" stroke="#bfbfbf" points="1196.5,-56.5 1196.5,-75.5 1253.5,-75.5 1253.5,-56.5 1196.5,-56.5"/>
<text text-anchor="middle" x="1225" y="-63.5" font-family="Helvetica,sans-Serif" font-size="10.00">typeinfo</text>
</a>
</g>
</g>
<!-- Node3&#45;&gt;Node6 -->
<g id="edge5" class="edge">
<title>Node3&#45;&gt;Node6</title>
<path fill="none" stroke="midnightblue" d="M925.19,-115.47C984.48,-108.34 1088.41,-94.82 1186.31,-76.18"/>
<polygon fill="midnightblue" stroke="midnightblue" points="1187.22,-79.57 1196.38,-74.25 1185.89,-72.7 1187.22,-79.57"/>
</g>
<!-- Node7 -->
<g id="node7" class="node">
<title>Node7</title>
<g id="a_node7"><a xlink:title=" ">
<polygon fill="white" stroke="#bfbfbf" points="787,-56.5 787,-75.5 845,-75.5 845,-56.5 787,-56.5"/>
<text text-anchor="middle" x="816" y="-63.5" font-family="Helvetica,sans-Serif" font-size="10.00">memory</text>
</a>
</g>
</g>
<!-- Node3&#45;&gt;Node7 -->
<g id="edge6" class="edge">
<title>Node3&#45;&gt;Node7</title>
<path fill="none" stroke="midnightblue" d="M867.2,-112.32C858.18,-104.34 844.59,-92.31 833.68,-82.65"/>
<polygon fill="midnightblue" stroke="midnightblue" points="835.79,-79.84 825.98,-75.83 831.15,-85.08 835.79,-79.84"/>
</g>
<!-- Node8 -->
<g id="node8" class="node">
<title>Node8</title>
<g id="a_node8"><a xlink:href="Component_8hpp.html" target="_top" xlink:title=" ">
<polygon fill="white" stroke="black" points="389.5,-56.5 389.5,-75.5 542.5,-75.5 542.5,-56.5 389.5,-56.5"/>
<text text-anchor="middle" x="466" y="-63.5" font-family="Helvetica,sans-Serif" font-size="10.00">Component/Component.hpp</text>
</a>
</g>
</g>
<!-- Node3&#45;&gt;Node8 -->
<g id="edge7" class="edge">
<title>Node3&#45;&gt;Node8</title>
<path fill="none" stroke="midnightblue" d="M828.64,-114.65C757.58,-105.31 624.34,-87.8 540.65,-76.81"/>
<polygon fill="midnightblue" stroke="midnightblue" points="541.07,-73.33 530.7,-75.5 540.16,-80.27 541.07,-73.33"/>
</g>
<!-- Node11 -->
<g id="node11" class="node">
<title>Node11</title>
<g id="a_node11"><a xlink:href="WalError_8hpp.html" target="_top" xlink:title=" ">
<polygon fill="white" stroke="black" points="1049.5,-56.5 1049.5,-75.5 1178.5,-75.5 1178.5,-56.5 1049.5,-56.5"/>
<text text-anchor="middle" x="1114" y="-63.5" font-family="Helvetica,sans-Serif" font-size="10.00">Exception/WalError.hpp</text>
</a>
</g>
</g>
<!-- Node3&#45;&gt;Node11 -->
<g id="edge11" class="edge">
<title>Node3&#45;&gt;Node11</title>
<path fill="none" stroke="midnightblue" d="M914.55,-112.44C955.81,-103.04 1022.14,-87.93 1066.87,-77.74"/>
<polygon fill="midnightblue" stroke="midnightblue" points="1067.65,-81.15 1076.62,-75.52 1066.09,-74.33 1067.65,-81.15"/>
</g>
<!-- Node14 -->
<g id="node14" class="node">
<title>Node14</title>
<g id="a_node14"><a xlink:href="TypeHolder_8hpp.html" target="_top" xlink:title=" ">
<polygon fill="white" stroke="black" points="901,-56.5 901,-75.5 1031,-75.5 1031,-56.5 901,-56.5"/>
<text text-anchor="middle" x="966" y="-63.5" font-family="Helvetica,sans-Serif" font-size="10.00">Models/TypeHolder.hpp</text>
</a>
</g>
</g>
<!-- Node3&#45;&gt;Node14 -->
<g id="edge15" class="edge">
<title>Node3&#45;&gt;Node14</title>
<path fill="none" stroke="midnightblue" d="M891.3,-112.32C905.18,-103.9 926.49,-90.97 942.8,-81.07"/>
<polygon fill="midnightblue" stroke="midnightblue" points="945,-83.83 951.74,-75.65 941.37,-77.85 945,-83.83"/>
</g>
<!-- Node8&#45;&gt;Node4 -->
<g id="edge9" class="edge">
<title>Node8&#45;&gt;Node4</title>
<path fill="none" stroke="midnightblue" d="M523.52,-56.44C600.65,-44.97 735.01,-24.98 796.54,-15.83"/>
<polygon fill="midnightblue" stroke="midnightblue" points="797.44,-19.23 806.81,-14.3 796.41,-12.31 797.44,-19.23"/>
</g>
<!-- Node9 -->
<g id="node9" class="node">
<title>Node9</title>
<g id="a_node9"><a xlink:title=" ">
<polygon fill="white" stroke="#bfbfbf" points="622.5,-0.5 622.5,-19.5 669.5,-19.5 669.5,-0.5 622.5,-0.5"/>
<text text-anchor="middle" x="646" y="-7.5" font-family="Helvetica,sans-Serif" font-size="10.00">vector</text>
</a>
</g>
</g>
<!-- Node8&#45;&gt;Node9 -->
<g id="edge8" class="edge">
<title>Node8&#45;&gt;Node9</title>
<path fill="none" stroke="midnightblue" d="M494.52,-56.44C526.59,-46.82 578.62,-31.21 612.57,-21.03"/>
<polygon fill="midnightblue" stroke="midnightblue" points="613.92,-24.28 622.49,-18.05 611.9,-17.57 613.92,-24.28"/>
</g>
<!-- Node10 -->
<g id="node10" class="node">
<title>Node10</title>
<g id="a_node10"><a xlink:title=" ">
<polygon fill="white" stroke="#bfbfbf" points="328.5,-0.5 328.5,-19.5 393.5,-19.5 393.5,-0.5 328.5,-0.5"/>
<text text-anchor="middle" x="361" y="-7.5" font-family="Helvetica,sans-Serif" font-size="10.00">typeindex</text>
</a>
</g>
</g>
<!-- Node8&#45;&gt;Node10 -->
<g id="edge10" class="edge">
<title>Node8&#45;&gt;Node10</title>
<path fill="none" stroke="midnightblue" d="M449.13,-56.32C432.29,-47.66 406.19,-34.24 386.76,-24.25"/>
<polygon fill="midnightblue" stroke="midnightblue" points="388.32,-21.12 377.83,-19.65 385.12,-27.34 388.32,-21.12"/>
</g>
<!-- Node11&#45;&gt;Node4 -->
<g id="edge14" class="edge">
<title>Node11&#45;&gt;Node4</title>
<path fill="none" stroke="midnightblue" d="M1068.84,-56.44C1010.96,-45.48 912.04,-26.73 861.22,-17.1"/>
<polygon fill="midnightblue" stroke="midnightblue" points="861.61,-13.62 851.14,-15.19 860.31,-20.49 861.61,-13.62"/>
</g>
<!-- Node12 -->
<g id="node12" class="node">
<title>Node12</title>
<g id="a_node12"><a xlink:title=" ">
<polygon fill="white" stroke="#bfbfbf" points="1122.5,-0.5 1122.5,-19.5 1187.5,-19.5 1187.5,-0.5 1122.5,-0.5"/>
<text text-anchor="middle" x="1155" y="-7.5" font-family="Helvetica,sans-Serif" font-size="10.00">exception</text>
</a>
</g>
</g>
<!-- Node11&#45;&gt;Node12 -->
<g id="edge12" class="edge">
<title>Node11&#45;&gt;Node12</title>
<path fill="none" stroke="midnightblue" d="M1120.77,-56.08C1126.56,-48.46 1135.06,-37.26 1142.14,-27.94"/>
<polygon fill="midnightblue" stroke="midnightblue" points="1145.1,-29.83 1148.36,-19.75 1139.52,-25.6 1145.1,-29.83"/>
</g>
<!-- Node13 -->
<g id="node13" class="node">
<title>Node13</title>
<g id="a_node13"><a xlink:title=" ">
<polygon fill="white" stroke="#bfbfbf" points="1039.5,-0.5 1039.5,-19.5 1104.5,-19.5 1104.5,-0.5 1039.5,-0.5"/>
<text text-anchor="middle" x="1072" y="-7.5" font-family="Helvetica,sans-Serif" font-size="10.00">stdexcept</text>
</a>
</g>
</g>
<!-- Node11&#45;&gt;Node13 -->
<g id="edge13" class="edge">
<title>Node11&#45;&gt;Node13</title>
<path fill="none" stroke="midnightblue" d="M1107.06,-56.08C1101.07,-48.38 1092.25,-37.03 1084.95,-27.65"/>
<polygon fill="midnightblue" stroke="midnightblue" points="1087.71,-25.5 1078.81,-19.75 1082.18,-29.79 1087.71,-25.5"/>
</g>
<!-- Node15&#45;&gt;Node8 -->
<g id="edge22" class="edge">
<title>Node15&#45;&gt;Node8</title>
<path fill="none" stroke="midnightblue" d="M427.94,-336.36C369.45,-298.79 224.37,-193.71 288,-112 300.69,-95.7 346.16,-84.37 387.96,-77.16"/>
<polygon fill="midnightblue" stroke="midnightblue" points="388.63,-80.59 397.92,-75.5 387.48,-73.69 388.63,-80.59"/>
</g>
<!-- Node16 -->
<g id="node16" class="node">
<title>Node16</title>
<g id="a_node16"><a xlink:href="sources_2Models_2Vector3_8hpp.html" target="_top" xlink:title=" ">
<polygon fill="white" stroke="black" points="204.5,-280.5 204.5,-299.5 317.5,-299.5 317.5,-280.5 204.5,-280.5"/>
<text text-anchor="middle" x="261" y="-287.5" font-family="Helvetica,sans-Serif" font-size="10.00">Models/Vector3.hpp</text>
</a>
</g>
</g>
<!-- Node15&#45;&gt;Node16 -->
<g id="edge17" class="edge">
<title>Node15&#45;&gt;Node16</title>
<path fill="none" stroke="midnightblue" d="M405.97,-336.4C373.14,-326.12 329.18,-312.35 298.3,-302.68"/>
<polygon fill="midnightblue" stroke="midnightblue" points="298.96,-299.22 288.37,-299.57 296.87,-305.9 298.96,-299.22"/>
</g>
<!-- Node17 -->
<g id="node17" class="node">
<title>Node17</title>
<g id="a_node17"><a xlink:title=" ">
<polygon fill="white" stroke="#bfbfbf" points="334,-224.5 334,-243.5 394,-243.5 394,-224.5 334,-224.5"/>
<text text-anchor="middle" x="364" y="-231.5" font-family="Helvetica,sans-Serif" font-size="10.00">iostream</text>
</a>
</g>
</g>
<!-- Node16&#45;&gt;Node17 -->
<g id="edge18" class="edge">
<title>Node16&#45;&gt;Node17</title>
<path fill="none" stroke="midnightblue" d="M277.55,-280.32C293.99,-271.7 319.43,-258.36 338.47,-248.39"/>
<polygon fill="midnightblue" stroke="midnightblue" points="340.26,-251.4 347.49,-243.65 337.01,-245.2 340.26,-251.4"/>
</g>
<!-- Node18 -->
<g id="node18" class="node">
<title>Node18</title>
<g id="a_node18"><a xlink:title=" ">
<polygon fill="white" stroke="#bfbfbf" points="230.5,-224.5 230.5,-243.5 277.5,-243.5 277.5,-224.5 230.5,-224.5"/>
<text text-anchor="middle" x="254" y="-231.5" font-family="Helvetica,sans-Serif" font-size="10.00">cmath</text>
</a>
</g>
</g>
<!-- Node16&#45;&gt;Node18 -->
<g id="edge19" class="edge">
<title>Node16&#45;&gt;Node18</title>
<path fill="none" stroke="midnightblue" d="M259.84,-280.08C258.92,-272.93 257.58,-262.64 256.42,-253.69"/>
<polygon fill="midnightblue" stroke="midnightblue" points="259.89,-253.22 255.13,-243.75 252.95,-254.12 259.89,-253.22"/>
</g>
<!-- Node19 -->
<g id="node19" class="node">
<title>Node19</title>
<g id="a_node19"><a xlink:href="lib_2Ray_2sources_2Vector_2Vector3_8hpp.html" target="_top" xlink:title=" ">
<polygon fill="white" stroke="black" points="66,-224.5 66,-243.5 174,-243.5 174,-224.5 66,-224.5"/>
<text text-anchor="middle" x="120" y="-231.5" font-family="Helvetica,sans-Serif" font-size="10.00">Vector/Vector3.hpp</text>
</a>
</g>
</g>
<!-- Node16&#45;&gt;Node19 -->
<g id="edge20" class="edge">
<title>Node16&#45;&gt;Node19</title>
<path fill="none" stroke="midnightblue" d="M238.66,-280.44C215.25,-271.48 178.26,-257.31 151.81,-247.18"/>
<polygon fill="midnightblue" stroke="midnightblue" points="152.83,-243.82 142.24,-243.52 150.32,-250.36 152.83,-243.82"/>
</g>
<!-- Node20 -->
<g id="node20" class="node">
<title>Node20</title>
<g id="a_node20"><a xlink:title=" ">
<polygon fill="white" stroke="#bfbfbf" points="93.5,-168.5 93.5,-187.5 146.5,-187.5 146.5,-168.5 93.5,-168.5"/>
<text text-anchor="middle" x="120" y="-175.5" font-family="Helvetica,sans-Serif" font-size="10.00">raylib.h</text>
</a>
</g>
</g>
<!-- Node19&#45;&gt;Node20 -->
<g id="edge21" class="edge">
<title>Node19&#45;&gt;Node20</title>
<path fill="none" stroke="midnightblue" d="M120,-224.08C120,-217.01 120,-206.86 120,-197.99"/>
<polygon fill="midnightblue" stroke="midnightblue" points="123.5,-197.75 120,-187.75 116.5,-197.75 123.5,-197.75"/>
</g>
<!-- Node21&#45;&gt;Node4 -->
<g id="edge26" class="edge">
<title>Node21&#45;&gt;Node4</title>
<path fill="none" stroke="midnightblue" d="M763.23,-280.37C757.13,-248.55 739.44,-135.46 778,-56 784.04,-43.55 795.24,-33.07 805.61,-25.36"/>
<polygon fill="midnightblue" stroke="midnightblue" points="807.76,-28.13 813.99,-19.56 803.77,-22.37 807.76,-28.13"/>
</g>
<!-- Node21&#45;&gt;Node6 -->
<g id="edge28" class="edge">
<title>Node21&#45;&gt;Node6</title>
<path fill="none" stroke="midnightblue" d="M793.17,-286.61C853.1,-281.14 991.1,-266.45 1032,-244 1101.24,-205.99 1090.17,-162.39 1151,-112 1165.72,-99.8 1184.08,-88.62 1198.82,-80.46"/>
<polygon fill="midnightblue" stroke="midnightblue" points="1200.78,-83.38 1207.91,-75.54 1197.45,-77.22 1200.78,-83.38"/>
</g>
<!-- Node21&#45;&gt;Node7 -->
<g id="edge27" class="edge">
<title>Node21&#45;&gt;Node7</title>
<path fill="none" stroke="midnightblue" d="M767.41,-280.4C769.92,-271.37 773.9,-256.73 777,-244 790.98,-186.55 805.45,-118.06 812.16,-85.7"/>
<polygon fill="midnightblue" stroke="midnightblue" points="815.67,-86.01 814.26,-75.5 808.82,-84.59 815.67,-86.01"/>
</g>
<!-- Node21&#45;&gt;Node9 -->
<g id="edge25" class="edge">
<title>Node21&#45;&gt;Node9</title>
<path fill="none" stroke="midnightblue" d="M762.47,-280.39C759.81,-271.34 755.55,-256.69 752,-244 728.65,-160.63 748.08,-128.65 701,-56 693.01,-43.66 680.54,-33.06 669.49,-25.25"/>
<polygon fill="midnightblue" stroke="midnightblue" points="671.31,-22.26 661.05,-19.61 667.42,-28.08 671.31,-22.26"/>
</g>
<!-- Node21&#45;&gt;Node11 -->
<g id="edge29" class="edge">
<title>Node21&#45;&gt;Node11</title>
<path fill="none" stroke="midnightblue" d="M778.68,-280.3C831.89,-246.45 1025.39,-123.37 1091.6,-81.25"/>
<polygon fill="midnightblue" stroke="midnightblue" points="1093.85,-83.96 1100.41,-75.64 1090.1,-78.06 1093.85,-83.96"/>
</g>
<!-- Node22 -->
<g id="node22" class="node">
<title>Node22</title>
<g id="a_node22"><a xlink:title=" ">
<polygon fill="white" stroke="#bfbfbf" points="307.5,-112.5 307.5,-131.5 352.5,-131.5 352.5,-112.5 307.5,-112.5"/>
<text text-anchor="middle" x="330" y="-119.5" font-family="Helvetica,sans-Serif" font-size="10.00">utility</text>
</a>
</g>
</g>
<!-- Node21&#45;&gt;Node22 -->
<g id="edge24" class="edge">
<title>Node21&#45;&gt;Node22</title>
<path fill="none" stroke="midnightblue" d="M736.7,-284.9C691.13,-278.05 598.82,-263.12 522,-244 501.88,-238.99 357.97,-203.32 344,-188 332.71,-175.61 329.72,-156.37 329.25,-142.03"/>
<polygon fill="midnightblue" stroke="midnightblue" points="332.75,-141.82 329.3,-131.81 325.75,-141.79 332.75,-141.82"/>
</g>
<!-- Node23 -->
<g id="node23" class="node">
<title>Node23</title>
<g id="a_node23"><a xlink:href="ISystem_8hpp.html" target="_top" xlink:title=" ">
<polygon fill="white" stroke="black" points="905.5,-224.5 905.5,-243.5 1022.5,-243.5 1022.5,-224.5 905.5,-224.5"/>
<text text-anchor="middle" x="964" y="-231.5" font-family="Helvetica,sans-Serif" font-size="10.00">System/ISystem.hpp</text>
</a>
</g>
</g>
<!-- Node21&#45;&gt;Node23 -->
<g id="edge30" class="edge">
<title>Node21&#45;&gt;Node23</title>
<path fill="none" stroke="midnightblue" d="M793.09,-281.38C826.82,-272.22 883.7,-256.79 922.5,-246.26"/>
<polygon fill="midnightblue" stroke="midnightblue" points="923.71,-249.56 932.44,-243.56 921.87,-242.8 923.71,-249.56"/>
</g>
<!-- Node30 -->
<g id="node30" class="node">
<title>Node30</title>
<g id="a_node30"><a xlink:href="Callback_8hpp.html" target="_top" xlink:title=" ">
<polygon fill="white" stroke="black" points="353,-168.5 353,-187.5 471,-187.5 471,-168.5 353,-168.5"/>
<text text-anchor="middle" x="412" y="-175.5" font-family="Helvetica,sans-Serif" font-size="10.00">Models/Callback.hpp</text>
</a>
</g>
</g>
<!-- Node21&#45;&gt;Node30 -->
<g id="edge41" class="edge">
<title>Node21&#45;&gt;Node30</title>
<path fill="none" stroke="midnightblue" d="M736.96,-283.17C700.97,-275.44 636.75,-260.79 583,-244 532.37,-228.18 475.02,-205.34 441.27,-191.37"/>
<polygon fill="midnightblue" stroke="midnightblue" points="442.57,-188.12 431.99,-187.51 439.88,-194.58 442.57,-188.12"/>
</g>
<!-- Node31 -->
<g id="node31" class="node">
<title>Node31</title>
<g id="a_node31"><a xlink:href="Scene_8hpp.html" target="_top" xlink:title=" ">
<polygon fill="white" stroke="black" points="592.5,-224.5 592.5,-243.5 691.5,-243.5 691.5,-224.5 592.5,-224.5"/>
<text text-anchor="middle" x="642" y="-231.5" font-family="Helvetica,sans-Serif" font-size="10.00">Scene/Scene.hpp</text>
</a>
</g>
</g>
<!-- Node21&#45;&gt;Node31 -->
<g id="edge45" class="edge">
<title>Node21&#45;&gt;Node31</title>
<path fill="none" stroke="midnightblue" d="M745.51,-280.44C725.36,-271.6 693.68,-257.69 670.67,-247.59"/>
<polygon fill="midnightblue" stroke="midnightblue" points="671.96,-244.33 661.4,-243.52 669.15,-250.74 671.96,-244.33"/>
</g>
<!-- Node23&#45;&gt;Node3 -->
<g id="edge31" class="edge">
<title>Node23&#45;&gt;Node3</title>
<path fill="none" stroke="midnightblue" d="M960.57,-224.41C955.12,-211.38 943.59,-186.2 929,-168 919.9,-156.65 907.68,-145.9 897.37,-137.76"/>
<polygon fill="midnightblue" stroke="midnightblue" points="899.35,-134.87 889.27,-131.58 895.1,-140.43 899.35,-134.87"/>
</g>
<!-- Node24 -->
<g id="node24" class="node">
<title>Node24</title>
<g id="a_node24"><a xlink:href="View_8hpp.html" target="_top" xlink:title=" ">
<polygon fill="white" stroke="black" points="565,-168.5 565,-187.5 653,-187.5 653,-168.5 565,-168.5"/>
<text text-anchor="middle" x="609" y="-175.5" font-family="Helvetica,sans-Serif" font-size="10.00">View/View.hpp</text>
</a>
</g>
</g>
<!-- Node23&#45;&gt;Node24 -->
<g id="edge32" class="edge">
<title>Node23&#45;&gt;Node24</title>
<path fill="none" stroke="midnightblue" d="M907.75,-224.44C840.75,-214.25 729.62,-197.35 663.43,-187.28"/>
<polygon fill="midnightblue" stroke="midnightblue" points="663.62,-183.77 653.21,-185.73 662.57,-190.69 663.62,-183.77"/>
</g>
<!-- Node29 -->
<g id="node29" class="node">
<title>Node29</title>
<g id="a_node29"><a xlink:title=" ">
<polygon fill="white" stroke="#bfbfbf" points="999,-168.5 999,-187.5 1049,-187.5 1049,-168.5 999,-168.5"/>
<text text-anchor="middle" x="1024" y="-175.5" font-family="Helvetica,sans-Serif" font-size="10.00">chrono</text>
</a>
</g>
</g>
<!-- Node23&#45;&gt;Node29 -->
<g id="edge40" class="edge">
<title>Node23&#45;&gt;Node29</title>
<path fill="none" stroke="midnightblue" d="M973.64,-224.32C982.51,-216.34 995.87,-204.31 1006.61,-194.65"/>
<polygon fill="midnightblue" stroke="midnightblue" points="1009.09,-197.13 1014.18,-187.83 1004.41,-191.92 1009.09,-197.13"/>
</g>
<!-- Node24&#45;&gt;Node3 -->
<g id="edge39" class="edge">
<title>Node24&#45;&gt;Node3</title>
<path fill="none" stroke="midnightblue" d="M651.47,-168.44C698.41,-158.98 774.08,-143.74 824.65,-133.55"/>
<polygon fill="midnightblue" stroke="midnightblue" points="825.62,-136.92 834.73,-131.52 824.24,-130.06 825.62,-136.92"/>
</g>
<!-- Node24&#45;&gt;Node10 -->
<g id="edge35" class="edge">
<title>Node24&#45;&gt;Node10</title>
<path fill="none" stroke="midnightblue" d="M592.49,-168.46C558.63,-150.96 484.4,-112.6 483,-112 438.45,-92.84 413.39,-111.17 380,-76 368.25,-63.62 363.71,-44.38 361.99,-30.04"/>
<polygon fill="midnightblue" stroke="midnightblue" points="365.46,-29.48 361.13,-19.81 358.48,-30.07 365.46,-29.48"/>
</g>
<!-- Node24&#45;&gt;Node22 -->
<g id="edge37" class="edge">
<title>Node24&#45;&gt;Node22</title>
<path fill="none" stroke="midnightblue" d="M564.79,-168.44C508.56,-157.56 412.76,-139.02 362.68,-129.33"/>
<polygon fill="midnightblue" stroke="midnightblue" points="363.2,-125.86 352.72,-127.4 361.87,-132.73 363.2,-125.86"/>
</g>
<!-- Node25 -->
<g id="node25" class="node">
<title>Node25</title>
<g id="a_node25"><a xlink:title=" ">
<polygon fill="white" stroke="#bfbfbf" points="665,-112.5 665,-131.5 697,-131.5 697,-112.5 665,-112.5"/>
<text text-anchor="middle" x="681" y="-119.5" font-family="Helvetica,sans-Serif" font-size="10.00">list</text>
</a>
</g>
</g>
<!-- Node24&#45;&gt;Node25 -->
<g id="edge33" class="edge">
<title>Node24&#45;&gt;Node25</title>
<path fill="none" stroke="midnightblue" d="M620.57,-168.32C631.42,-160.18 647.88,-147.84 660.88,-138.09"/>
<polygon fill="midnightblue" stroke="midnightblue" points="663.32,-140.63 669.22,-131.83 659.12,-135.03 663.32,-140.63"/>
</g>
<!-- Node26 -->
<g id="node26" class="node">
<title>Node26</title>
<g id="a_node26"><a xlink:title=" ">
<polygon fill="white" stroke="#bfbfbf" points="531.5,-112.5 531.5,-131.5 572.5,-131.5 572.5,-112.5 531.5,-112.5"/>
<text text-anchor="middle" x="552" y="-119.5" font-family="Helvetica,sans-Serif" font-size="10.00">tuple</text>
</a>
</g>
</g>
<!-- Node24&#45;&gt;Node26 -->
<g id="edge34" class="edge">
<title>Node24&#45;&gt;Node26</title>
<path fill="none" stroke="midnightblue" d="M599.84,-168.32C591.5,-160.42 578.97,-148.55 568.82,-138.94"/>
<polygon fill="midnightblue" stroke="midnightblue" points="570.99,-136.17 561.32,-131.83 566.18,-141.25 570.99,-136.17"/>
</g>
<!-- Node27 -->
<g id="node27" class="node">
<title>Node27</title>
<g id="a_node27"><a xlink:title=" ">
<polygon fill="white" stroke="#bfbfbf" points="409.5,-112.5 409.5,-131.5 474.5,-131.5 474.5,-112.5 409.5,-112.5"/>
<text text-anchor="middle" x="442" y="-119.5" font-family="Helvetica,sans-Serif" font-size="10.00">functional</text>
</a>
</g>
</g>
<!-- Node24&#45;&gt;Node27 -->
<g id="edge36" class="edge">
<title>Node24&#45;&gt;Node27</title>
<path fill="none" stroke="midnightblue" d="M582.54,-168.44C554.32,-159.32 509.46,-144.81 478.03,-134.65"/>
<polygon fill="midnightblue" stroke="midnightblue" points="478.93,-131.26 468.34,-131.52 476.78,-137.92 478.93,-131.26"/>
</g>
<!-- Node28 -->
<g id="node28" class="node">
<title>Node28</title>
<g id="a_node28"><a xlink:title=" ">
<polygon fill="white" stroke="#bfbfbf" points="591,-112.5 591,-131.5 647,-131.5 647,-112.5 591,-112.5"/>
<text text-anchor="middle" x="619" y="-119.5" font-family="Helvetica,sans-Serif" font-size="10.00">optional</text>
</a>
</g>
</g>
<!-- Node24&#45;&gt;Node28 -->
<g id="edge38" class="edge">
<title>Node24&#45;&gt;Node28</title>
<path fill="none" stroke="midnightblue" d="M610.65,-168.08C611.98,-160.93 613.88,-150.64 615.54,-141.69"/>
<polygon fill="midnightblue" stroke="midnightblue" points="619,-142.22 617.38,-131.75 612.12,-140.95 619,-142.22"/>
</g>
<!-- Node30&#45;&gt;Node5 -->
<g id="edge44" class="edge">
<title>Node30&#45;&gt;Node5</title>
<path fill="none" stroke="midnightblue" d="M367.71,-168.45C326.08,-158.5 273.56,-139.81 298,-112 307.51,-101.18 492.87,-81.79 589.09,-72.4"/>
<polygon fill="midnightblue" stroke="midnightblue" points="589.62,-75.86 599.24,-71.41 588.94,-68.89 589.62,-75.86"/>
</g>
<!-- Node30&#45;&gt;Node22 -->
<g id="edge43" class="edge">
<title>Node30&#45;&gt;Node22</title>
<path fill="none" stroke="midnightblue" d="M398.83,-168.32C386.15,-159.98 366.77,-147.21 351.79,-137.35"/>
<polygon fill="midnightblue" stroke="midnightblue" points="353.42,-134.23 343.14,-131.65 349.57,-140.08 353.42,-134.23"/>
</g>
<!-- Node30&#45;&gt;Node27 -->
<g id="edge42" class="edge">
<title>Node30&#45;&gt;Node27</title>
<path fill="none" stroke="midnightblue" d="M416.95,-168.08C421.1,-160.61 427.15,-149.72 432.27,-140.52"/>
<polygon fill="midnightblue" stroke="midnightblue" points="435.34,-142.19 437.14,-131.75 429.22,-138.79 435.34,-142.19"/>
</g>
<!-- Node31&#45;&gt;Node3 -->
<g id="edge50" class="edge">
<title>Node31&#45;&gt;Node3</title>
<path fill="none" stroke="midnightblue" d="M660.44,-224.37C701.54,-205.13 800.84,-158.65 849.37,-135.93"/>
<polygon fill="midnightblue" stroke="midnightblue" points="851.07,-139 858.65,-131.59 848.1,-132.66 851.07,-139"/>
</g>
<!-- Node31&#45;&gt;Node9 -->
<g id="edge46" class="edge">
<title>Node31&#45;&gt;Node9</title>
<path fill="none" stroke="midnightblue" d="M614.98,-224.38C589.57,-216 550.68,-202.45 518,-188 500.54,-180.28 497.15,-176.36 480,-168 444.95,-150.91 421.17,-164.74 400,-132 395.17,-124.54 394.49,-118.98 400,-112 442.76,-57.85 487.92,-103.95 551,-76 580.21,-63.06 609.98,-40.94 628.22,-26.15"/>
<polygon fill="midnightblue" stroke="midnightblue" points="630.73,-28.62 636.2,-19.54 626.26,-23.22 630.73,-28.62"/>
</g>
<!-- Node31&#45;&gt;Node24 -->
<g id="edge49" class="edge">
<title>Node31&#45;&gt;Node24</title>
<path fill="none" stroke="midnightblue" d="M636.55,-224.08C631.99,-216.61 625.33,-205.72 619.71,-196.52"/>
<polygon fill="midnightblue" stroke="midnightblue" points="622.55,-194.46 614.35,-187.75 616.58,-198.11 622.55,-194.46"/>
</g>
<!-- Node31&#45;&gt;Node25 -->
<g id="edge47" class="edge">
<title>Node31&#45;&gt;Node25</title>
<path fill="none" stroke="midnightblue" d="M646.34,-224.18C650.66,-215.21 657.29,-200.84 662,-188 667.69,-172.48 672.86,-154.39 676.37,-141.25"/>
<polygon fill="midnightblue" stroke="midnightblue" points="679.77,-142.09 678.9,-131.53 672.99,-140.33 679.77,-142.09"/>
</g>
<!-- Node31&#45;&gt;Node27 -->
<g id="edge48" class="edge">
<title>Node31&#45;&gt;Node27</title>
<path fill="none" stroke="midnightblue" d="M625.1,-224.38C607.68,-215.45 579.81,-201.01 556,-188 524.37,-170.72 488.3,-149.97 465.35,-136.64"/>
<polygon fill="midnightblue" stroke="midnightblue" points="467.06,-133.59 456.66,-131.59 463.54,-139.64 467.06,-133.59"/>
</g>
<!-- Node32&#45;&gt;Node15 -->
<g id="edge73" class="edge">
<title>Node32&#45;&gt;Node15</title>
<path fill="none" stroke="midnightblue" d="M504.25,-403.4C495.16,-394.71 483.33,-383.4 473.13,-373.66"/>
<polygon fill="midnightblue" stroke="midnightblue" points="475.37,-370.96 465.73,-366.58 470.54,-376.02 475.37,-370.96"/>
</g>
<!-- Node32&#45;&gt;Node16 -->
<g id="edge64" class="edge">
<title>Node32&#45;&gt;Node16</title>
<path fill="none" stroke="midnightblue" d="M447.36,-405C385.43,-393.64 304.01,-377.14 292,-367 274.85,-352.52 267.07,-327.09 263.62,-309.67"/>
<polygon fill="midnightblue" stroke="midnightblue" points="267.03,-308.85 261.92,-299.57 260.13,-310.01 267.03,-308.85"/>
</g>
<!-- Node32&#45;&gt;Node21 -->
<g id="edge53" class="edge">
<title>Node32&#45;&gt;Node21</title>
<path fill="none" stroke="midnightblue" d="M523.23,-403.28C529.48,-384.82 542.99,-352.96 566,-336 613.55,-300.96 683.59,-292.48 726.64,-290.82"/>
<polygon fill="midnightblue" stroke="midnightblue" points="726.82,-294.32 736.71,-290.54 726.62,-287.32 726.82,-294.32"/>
</g>
<!-- Node33 -->
<g id="node33" class="node">
<title>Node33</title>
<g id="a_node33"><a xlink:title=" ">
<polygon fill="white" stroke="#bfbfbf" points="301,-342 301,-361 365,-361 365,-342 301,-342"/>
<text text-anchor="middle" x="333" y="-349" font-family="Helvetica,sans-Serif" font-size="10.00">algorithm</text>
</a>
</g>
</g>
<!-- Node32&#45;&gt;Node33 -->
<g id="edge52" class="edge">
<title>Node32&#45;&gt;Node33</title>
<path fill="none" stroke="midnightblue" d="M478.36,-403.4C449.28,-393.3 409.21,-379.36 374,-367 371.63,-366.17 369.19,-365.31 366.72,-364.44"/>
<polygon fill="midnightblue" stroke="midnightblue" points="367.87,-361.13 357.27,-361.11 365.54,-367.74 367.87,-361.13"/>
</g>
<!-- Node34 -->
<g id="node34" class="node">
<title>Node34</title>
<g id="a_node34"><a xlink:href="System_8hpp.html" target="_top" xlink:title=" ">
<polygon fill="white" stroke="black" points="839,-342 839,-361 953,-361 953,-342 839,-342"/>
<text text-anchor="middle" x="896" y="-349" font-family="Helvetica,sans-Serif" font-size="10.00">System/System.hpp</text>
</a>
</g>
</g>
<!-- Node32&#45;&gt;Node34 -->
<g id="edge54" class="edge">
<title>Node32&#45;&gt;Node34</title>
<path fill="none" stroke="midnightblue" d="M590.8,-405.12C662.12,-392.82 770.2,-374.19 836.77,-362.71"/>
<polygon fill="midnightblue" stroke="midnightblue" points="837.43,-366.15 846.69,-361 836.24,-359.25 837.43,-366.15"/>
</g>
<!-- Node32&#45;&gt;Node35 -->
<g id="edge65" class="edge">
<title>Node32&#45;&gt;Node35</title>
<path fill="none" stroke="midnightblue" d="M447.31,-403.95C391,-393.31 312.65,-378.51 254.44,-367.51"/>
<polygon fill="midnightblue" stroke="midnightblue" points="255.02,-364.06 244.55,-365.64 253.72,-370.94 255.02,-364.06"/>
</g>
<!-- Node32&#45;&gt;Node36 -->
<g id="edge70" class="edge">
<title>Node32&#45;&gt;Node36</title>
<path fill="none" stroke="midnightblue" d="M548.94,-403.4C569.2,-393.86 596.15,-381.16 618.06,-370.84"/>
<polygon fill="midnightblue" stroke="midnightblue" points="619.56,-374 627.11,-366.58 616.58,-367.67 619.56,-374"/>
</g>
<!-- Node34&#45;&gt;Node3 -->
<g id="edge59" class="edge">
<title>Node34&#45;&gt;Node3</title>
<path fill="none" stroke="midnightblue" d="M926.28,-341.95C950.56,-333.99 984.5,-320.28 1009,-300 1057.21,-260.1 1096.54,-217.3 1058,-168 1042.9,-148.69 982.36,-136.48 935.41,-129.73"/>
<polygon fill="midnightblue" stroke="midnightblue" points="935.7,-126.24 925.31,-128.33 934.74,-133.17 935.7,-126.24"/>
</g>
<!-- Node34&#45;&gt;Node6 -->
<g id="edge57" class="edge">
<title>Node34&#45;&gt;Node6</title>
<path fill="none" stroke="midnightblue" d="M953.05,-350.19C1032.01,-346.42 1165,-326.48 1165,-235 1165,-235 1165,-235 1165,-177 1165,-139.88 1191.65,-103.38 1209.43,-83.16"/>
<polygon fill="midnightblue" stroke="midnightblue" points="1212.24,-85.28 1216.4,-75.53 1207.07,-80.55 1212.24,-85.28"/>
</g>
<!-- Node34&#45;&gt;Node9 -->
<g id="edge56" class="edge">
<title>Node34&#45;&gt;Node9</title>
<path fill="none" stroke="midnightblue" d="M953.37,-345.35C1060.9,-334.11 1282,-302.76 1282,-235 1282,-235 1282,-235 1282,-121 1282,-90.9 1286.41,-74.92 1263,-56 1257.27,-51.37 807.45,-21.58 679.57,-13.19"/>
<polygon fill="midnightblue" stroke="midnightblue" points="679.77,-9.7 669.56,-12.54 679.31,-16.68 679.77,-9.7"/>
</g>
<!-- Node34&#45;&gt;Node10 -->
<g id="edge58" class="edge">
<title>Node34&#45;&gt;Node10</title>
<path fill="none" stroke="midnightblue" d="M838.94,-342.32C785.24,-333.97 702.87,-319.48 633,-300 598.43,-290.36 358.78,-209.45 330,-188 299.06,-164.93 276.12,-148.72 288,-112 299.08,-77.75 326.59,-45.36 344.5,-26.88"/>
<polygon fill="midnightblue" stroke="midnightblue" points="347.15,-29.18 351.73,-19.62 342.19,-24.23 347.15,-29.18"/>
</g>
<!-- Node34&#45;&gt;Node17 -->
<g id="edge63" class="edge">
<title>Node34&#45;&gt;Node17</title>
<path fill="none" stroke="midnightblue" d="M838.74,-344.89C710.81,-332.31 412.59,-302.75 408,-300 390.14,-289.31 377.93,-268.23 370.98,-252.97"/>
<polygon fill="midnightblue" stroke="midnightblue" points="374.12,-251.4 367.01,-243.54 367.66,-254.11 374.12,-251.4"/>
</g>
<!-- Node34&#45;&gt;Node21 -->
<g id="edge60" class="edge">
<title>Node34&#45;&gt;Node21</title>
<path fill="none" stroke="midnightblue" d="M877.23,-341.98C855.15,-331.95 818.28,-315.2 792.86,-303.65"/>
<polygon fill="midnightblue" stroke="midnightblue" points="794.29,-300.46 783.73,-299.51 791.39,-306.83 794.29,-300.46"/>
</g>
<!-- Node34&#45;&gt;Node23 -->
<g id="edge62" class="edge">
<title>Node34&#45;&gt;Node23</title>
<path fill="none" stroke="midnightblue" d="M901.11,-341.82C912.24,-322.92 938.83,-277.75 953.63,-252.62"/>
<polygon fill="midnightblue" stroke="midnightblue" points="956.77,-254.18 958.83,-243.78 950.74,-250.62 956.77,-254.18"/>
</g>
<!-- Node34&#45;&gt;Node24 -->
<g id="edge61" class="edge">
<title>Node34&#45;&gt;Node24</title>
<path fill="none" stroke="midnightblue" d="M850.78,-341.94C771.73,-325.95 613.88,-289.03 583,-244 572.64,-228.89 583.49,-209.04 594.17,-195.27"/>
<polygon fill="midnightblue" stroke="midnightblue" points="596.87,-197.5 600.6,-187.58 591.5,-193.01 596.87,-197.5"/>
</g>
<!-- Node34&#45;&gt;Node29 -->
<g id="edge55" class="edge">
<title>Node34&#45;&gt;Node29</title>
<path fill="none" stroke="midnightblue" d="M915.97,-341.98C947.5,-327.28 1007.71,-293.88 1032,-244 1039.07,-229.48 1035.83,-211.07 1031.55,-197.55"/>
<polygon fill="midnightblue" stroke="midnightblue" points="1034.76,-196.13 1028.07,-187.92 1028.18,-198.51 1034.76,-196.13"/>
</g>
<!-- Node35&#45;&gt;Node3 -->
<g id="edge69" class="edge">
<title>Node35&#45;&gt;Node3</title>
<path fill="none" stroke="midnightblue" d="M149.43,-336.42C120.77,-318.99 75.83,-286.36 57,-244 42.44,-211.24 54.2,-187.92 84,-168 87.82,-165.45 636.1,-135.89 818.64,-126.12"/>
<polygon fill="midnightblue" stroke="midnightblue" points="819.05,-129.6 828.85,-125.57 818.68,-122.61 819.05,-129.6"/>
</g>
<!-- Node35&#45;&gt;Node8 -->
<g id="edge68" class="edge">
<title>Node35&#45;&gt;Node8</title>
<path fill="none" stroke="midnightblue" d="M112.32,-336.35C62.1,-320.87 0,-290.51 0,-235 0,-235 0,-235 0,-177 0,-99.98 244.14,-76.83 379,-69.91"/>
<polygon fill="midnightblue" stroke="midnightblue" points="379.5,-73.39 389.31,-69.41 379.15,-66.4 379.5,-73.39"/>
</g>
<!-- Node35&#45;&gt;Node16 -->
<g id="edge67" class="edge">
<title>Node35&#45;&gt;Node16</title>
<path fill="none" stroke="midnightblue" d="M195.38,-336.4C208.91,-327.04 226.61,-314.79 240.22,-305.38"/>
<polygon fill="midnightblue" stroke="midnightblue" points="242.25,-308.23 248.49,-299.66 238.27,-302.47 242.25,-308.23"/>
</g>
<!-- Node35&#45;&gt;Node30 -->
<g id="edge66" class="edge">
<title>Node35&#45;&gt;Node30</title>
<path fill="none" stroke="midnightblue" d="M175.63,-336.46C177.65,-309.92 186.04,-252.49 221,-224 255.01,-196.28 303.14,-185.07 342.58,-180.76"/>
<polygon fill="midnightblue" stroke="midnightblue" points="343.05,-184.23 352.66,-179.79 342.37,-177.26 343.05,-184.23"/>
</g>
<!-- Node36&#45;&gt;Node3 -->
<g id="edge72" class="edge">
<title>Node36&#45;&gt;Node3</title>
<path fill="none" stroke="midnightblue" d="M734.23,-336.48C758.26,-328.97 783.32,-317.49 802,-300 849.04,-255.95 867.79,-177.65 874.16,-141.83"/>
<polygon fill="midnightblue" stroke="midnightblue" points="877.64,-142.22 875.82,-131.79 870.74,-141.09 877.64,-142.22"/>
</g>
<!-- Node36&#45;&gt;Node16 -->
<g id="edge71" class="edge">
<title>Node36&#45;&gt;Node16</title>
<path fill="none" stroke="midnightblue" d="M575.43,-338.24C502.21,-327.24 396.04,-311.29 327.76,-301.03"/>
<polygon fill="midnightblue" stroke="midnightblue" points="327.96,-297.52 317.55,-299.5 326.92,-304.44 327.96,-297.52"/>
</g>
<!-- Node37&#45;&gt;Node3 -->
<g id="edge78" class="edge">
<title>Node37&#45;&gt;Node3</title>
<path fill="none" stroke="midnightblue" d="M939.99,-408.95C1024.87,-391.18 1203,-347.2 1203,-291 1203,-291 1203,-291 1203,-233 1203,-177.1 1028.72,-144.14 935.01,-130.45"/>
<polygon fill="midnightblue" stroke="midnightblue" points="935.5,-126.99 925.1,-129.04 934.51,-133.92 935.5,-126.99"/>
</g>
<!-- Node37&#45;&gt;Node15 -->
<g id="edge76" class="edge">
<title>Node37&#45;&gt;Node15</title>
<path fill="none" stroke="midnightblue" d="M837.37,-408.94C758.28,-397.38 617.22,-376.78 529.18,-363.92"/>
<polygon fill="midnightblue" stroke="midnightblue" points="529.65,-360.45 519.25,-362.47 528.64,-367.38 529.65,-360.45"/>
</g>
<!-- Node37&#45;&gt;Node34 -->
<g id="edge77" class="edge">
<title>Node37&#45;&gt;Node34</title>
<path fill="none" stroke="midnightblue" d="M896,-408.73C896,-399.18 896,-383.62 896,-371.28"/>
<polygon fill="midnightblue" stroke="midnightblue" points="899.5,-371.13 896,-361.13 892.5,-371.13 899.5,-371.13"/>
</g>
<!-- Node37&#45;&gt;Node36 -->
<g id="edge75" class="edge">
<title>Node37&#45;&gt;Node36</title>
<path fill="none" stroke="midnightblue" d="M864.26,-408.87C827.16,-398.78 764.89,-381.84 718.28,-369.16"/>
<polygon fill="midnightblue" stroke="midnightblue" points="719.15,-365.78 708.58,-366.53 717.31,-372.53 719.15,-365.78"/>
</g>
</g>
</svg>
