<?xml version="1.0" encoding="UTF-8" standalone="no"?>
<!DOCTYPE svg PUBLIC "-//W3C//DTD SVG 1.1//EN"
 "http://www.w3.org/Graphics/SVG/1.1/DTD/svg11.dtd">
<!-- Generated by graphviz version 2.43.0 (0)
 -->
<!-- Title: sources/System/Collision/CollisionSystem.hpp Pages: 1 -->
<svg width="1286pt" height="442pt"
 viewBox="0.00 0.00 1285.50 442.00" xmlns="http://www.w3.org/2000/svg" xmlns:xlink="http://www.w3.org/1999/xlink">
<g id="graph0" class="graph" transform="scale(1 1) rotate(0) translate(4 438)">
<title>sources/System/Collision/CollisionSystem.hpp</title>
<polygon fill="white" stroke="transparent" points="-4,4 -4,-438 1281.5,-438 1281.5,4 -4,4"/>
<!-- Node1 -->
<g id="node1" class="node">
<title>Node1</title>
<g id="a_node1"><a xlink:title=" ">
<polygon fill="#bfbfbf" stroke="black" points="764.5,-403.5 764.5,-433.5 903.5,-433.5 903.5,-403.5 764.5,-403.5"/>
<text text-anchor="start" x="772.5" y="-421.5" font-family="Helvetica,sans-Serif" font-size="10.00">sources/System/Collision</text>
<text text-anchor="middle" x="834" y="-410.5" font-family="Helvetica,sans-Serif" font-size="10.00">/CollisionSystem.hpp</text>
</a>
</g>
</g>
<!-- Node2 -->
<g id="node2" class="node">
<title>Node2</title>
<g id="a_node2"><a xlink:title=" ">
<polygon fill="white" stroke="#bfbfbf" points="475,-342 475,-361 539,-361 539,-342 475,-342"/>
<text text-anchor="middle" x="507" y="-349" font-family="Helvetica,sans-Serif" font-size="10.00">algorithm</text>
</a>
</g>
</g>
<!-- Node1&#45;&gt;Node2 -->
<g id="edge1" class="edge">
<title>Node1&#45;&gt;Node2</title>
<path fill="none" stroke="midnightblue" d="M764.48,-407.54C707.3,-398.73 624.35,-384.58 553,-367 549.37,-366.11 545.61,-365.08 541.87,-364"/>
<polygon fill="midnightblue" stroke="midnightblue" points="542.73,-360.61 532.14,-361.06 540.7,-367.31 542.73,-360.61"/>
</g>
<!-- Node3 -->
<g id="node3" class="node">
<title>Node3</title>
<g id="a_node3"><a xlink:href="Wal_8hpp.html" target="_top" xlink:title=" ">
<polygon fill="white" stroke="black" points="316,-280.5 316,-299.5 372,-299.5 372,-280.5 316,-280.5"/>
<text text-anchor="middle" x="344" y="-287.5" font-family="Helvetica,sans-Serif" font-size="10.00">Wal.hpp</text>
</a>
</g>
</g>
<!-- Node1&#45;&gt;Node3 -->
<g id="edge2" class="edge">
<title>Node1&#45;&gt;Node3</title>
<path fill="none" stroke="midnightblue" d="M764.35,-412.34C713.01,-406.43 642.58,-393.82 586,-367 566.3,-357.67 567.62,-345.49 548,-336 519.14,-322.03 432.82,-305.89 382.19,-297.24"/>
<polygon fill="midnightblue" stroke="midnightblue" points="382.71,-293.78 372.27,-295.57 381.54,-300.68 382.71,-293.78"/>
</g>
<!-- Node26 -->
<g id="node26" class="node">
<title>Node26</title>
<g id="a_node26"><a xlink:href="System_8hpp.html" target="_top" xlink:title=" ">
<polygon fill="white" stroke="black" points="595,-342 595,-361 709,-361 709,-342 595,-342"/>
<text text-anchor="middle" x="652" y="-349" font-family="Helvetica,sans-Serif" font-size="10.00">System/System.hpp</text>
</a>
</g>
</g>
<!-- Node1&#45;&gt;Node26 -->
<g id="edge43" class="edge">
<title>Node1&#45;&gt;Node26</title>
<path fill="none" stroke="midnightblue" d="M794.51,-403.4C761.87,-391.74 716.04,-375.37 685.25,-364.38"/>
<polygon fill="midnightblue" stroke="midnightblue" points="686.41,-361.07 675.82,-361.01 684.06,-367.67 686.41,-361.07"/>
</g>
<!-- Node28 -->
<g id="node28" class="node">
<title>Node28</title>
<g id="a_node28"><a xlink:href="sources_2Models_2Vector3_8hpp.html" target="_top" xlink:title=" ">
<polygon fill="white" stroke="black" points="1024.5,-280.5 1024.5,-299.5 1137.5,-299.5 1137.5,-280.5 1024.5,-280.5"/>
<text text-anchor="middle" x="1081" y="-287.5" font-family="Helvetica,sans-Serif" font-size="10.00">Models/Vector3.hpp</text>
</a>
</g>
</g>
<!-- Node1&#45;&gt;Node28 -->
<g id="edge53" class="edge">
<title>Node1&#45;&gt;Node28</title>
<path fill="none" stroke="midnightblue" d="M903.76,-410.88C963.97,-403.69 1044.68,-390.03 1067,-367 1081.63,-351.91 1083.6,-326.82 1082.92,-309.63"/>
<polygon fill="midnightblue" stroke="midnightblue" points="1086.41,-309.37 1082.2,-299.65 1079.43,-309.88 1086.41,-309.37"/>
</g>
<!-- Node32 -->
<g id="node32" class="node">
<title>Node32</title>
<g id="a_node32"><a xlink:href="CollisionComponent_8hpp.html" target="_top" xlink:title=" ">
<polygon fill="white" stroke="black" points="764.5,-336.5 764.5,-366.5 903.5,-366.5 903.5,-336.5 764.5,-336.5"/>
<text text-anchor="start" x="772.5" y="-354.5" font-family="Helvetica,sans-Serif" font-size="10.00">Component/Collision</text>
<text text-anchor="middle" x="834" y="-343.5" font-family="Helvetica,sans-Serif" font-size="10.00">/CollisionComponent.hpp</text>
</a>
</g>
</g>
<!-- Node1&#45;&gt;Node32 -->
<g id="edge58" class="edge">
<title>Node1&#45;&gt;Node32</title>
<path fill="none" stroke="midnightblue" d="M834,-403.4C834,-395.64 834,-385.81 834,-376.86"/>
<polygon fill="midnightblue" stroke="midnightblue" points="837.5,-376.58 834,-366.58 830.5,-376.58 837.5,-376.58"/>
</g>
<!-- Node33 -->
<g id="node33" class="node">
<title>Node33</title>
<g id="a_node33"><a xlink:href="MovableComponent_8hpp.html" target="_top" xlink:title=" ">
<polygon fill="white" stroke="black" points="1114.5,-336.5 1114.5,-366.5 1277.5,-366.5 1277.5,-336.5 1114.5,-336.5"/>
<text text-anchor="start" x="1122.5" y="-354.5" font-family="Helvetica,sans-Serif" font-size="10.00">Component/Movable/Movable</text>
<text text-anchor="middle" x="1196" y="-343.5" font-family="Helvetica,sans-Serif" font-size="10.00">Component.hpp</text>
</a>
</g>
</g>
<!-- Node1&#45;&gt;Node33 -->
<g id="edge63" class="edge">
<title>Node1&#45;&gt;Node33</title>
<path fill="none" stroke="midnightblue" d="M903.8,-404.97C962.01,-394.51 1045.28,-379.56 1108.05,-368.29"/>
<polygon fill="midnightblue" stroke="midnightblue" points="1108.71,-371.73 1117.94,-366.52 1107.48,-364.84 1108.71,-371.73"/>
</g>
<!-- Node34 -->
<g id="node34" class="node">
<title>Node34</title>
<g id="a_node34"><a xlink:href="PositionComponent_8hpp.html" target="_top" xlink:title=" ">
<polygon fill="white" stroke="black" points="922,-336.5 922,-366.5 1058,-366.5 1058,-336.5 922,-336.5"/>
<text text-anchor="start" x="930" y="-354.5" font-family="Helvetica,sans-Serif" font-size="10.00">Component/Position</text>
<text text-anchor="middle" x="990" y="-343.5" font-family="Helvetica,sans-Serif" font-size="10.00">/PositionComponent.hpp</text>
</a>
</g>
</g>
<!-- Node1&#45;&gt;Node34 -->
<g id="edge66" class="edge">
<title>Node1&#45;&gt;Node34</title>
<path fill="none" stroke="midnightblue" d="M867.85,-403.4C891.05,-393.73 922.03,-380.82 946.98,-370.43"/>
<polygon fill="midnightblue" stroke="midnightblue" points="948.33,-373.65 956.22,-366.58 945.64,-367.19 948.33,-373.65"/>
</g>
<!-- Node4 -->
<g id="node4" class="node">
<title>Node4</title>
<g id="a_node4"><a xlink:title=" ">
<polygon fill="white" stroke="#bfbfbf" points="600.5,-112.5 600.5,-131.5 645.5,-131.5 645.5,-112.5 600.5,-112.5"/>
<text text-anchor="middle" x="623" y="-119.5" font-family="Helvetica,sans-Serif" font-size="10.00">utility</text>
</a>
</g>
</g>
<!-- Node3&#45;&gt;Node4 -->
<g id="edge3" class="edge">
<title>Node3&#45;&gt;Node4</title>
<path fill="none" stroke="midnightblue" d="M358.61,-280.31C404.18,-253.19 544.04,-169.98 599.75,-136.83"/>
<polygon fill="midnightblue" stroke="midnightblue" points="601.73,-139.73 608.54,-131.61 598.15,-133.71 601.73,-139.73"/>
</g>
<!-- Node5 -->
<g id="node5" class="node">
<title>Node5</title>
<g id="a_node5"><a xlink:title=" ">
<polygon fill="white" stroke="#bfbfbf" points="71.5,-0.5 71.5,-19.5 118.5,-19.5 118.5,-0.5 71.5,-0.5"/>
<text text-anchor="middle" x="95" y="-7.5" font-family="Helvetica,sans-Serif" font-size="10.00">vector</text>
</a>
</g>
</g>
<!-- Node3&#45;&gt;Node5 -->
<g id="edge4" class="edge">
<title>Node3&#45;&gt;Node5</title>
<path fill="none" stroke="midnightblue" d="M315.83,-289.92C247.02,-290.58 76,-281.85 76,-179 76,-179 76,-179 76,-121 76,-88.49 84.16,-51.35 89.78,-29.61"/>
<polygon fill="midnightblue" stroke="midnightblue" points="93.22,-30.32 92.44,-19.75 86.46,-28.5 93.22,-30.32"/>
</g>
<!-- Node6 -->
<g id="node6" class="node">
<title>Node6</title>
<g id="a_node6"><a xlink:title=" ">
<polygon fill="white" stroke="#bfbfbf" points="409,-0.5 409,-19.5 453,-19.5 453,-0.5 409,-0.5"/>
<text text-anchor="middle" x="431" y="-7.5" font-family="Helvetica,sans-Serif" font-size="10.00">string</text>
</a>
</g>
</g>
<!-- Node3&#45;&gt;Node6 -->
<g id="edge5" class="edge">
<title>Node3&#45;&gt;Node6</title>
<path fill="none" stroke="midnightblue" d="M315.89,-284.38C291.7,-278.92 257.68,-267.42 238,-244 200.26,-199.08 204.16,-160.61 237,-112 249.46,-93.56 300.36,-66.46 320,-56 345.74,-42.29 376.59,-30.1 399.23,-21.87"/>
<polygon fill="midnightblue" stroke="midnightblue" points="400.46,-25.15 408.7,-18.49 398.1,-18.56 400.46,-25.15"/>
</g>
<!-- Node7 -->
<g id="node7" class="node">
<title>Node7</title>
<g id="a_node7"><a xlink:title=" ">
<polygon fill="white" stroke="#bfbfbf" points="414,-56.5 414,-75.5 472,-75.5 472,-56.5 414,-56.5"/>
<text text-anchor="middle" x="443" y="-63.5" font-family="Helvetica,sans-Serif" font-size="10.00">memory</text>
</a>
</g>
</g>
<!-- Node3&#45;&gt;Node7 -->
<g id="edge6" class="edge">
<title>Node3&#45;&gt;Node7</title>
<path fill="none" stroke="midnightblue" d="M325.02,-280.4C311.11,-272.95 293.29,-260.74 285,-244 258.98,-191.42 249.65,-158.82 285,-112 292.29,-102.34 359.4,-85.7 403.78,-75.59"/>
<polygon fill="midnightblue" stroke="midnightblue" points="404.72,-78.97 413.7,-73.35 403.18,-72.14 404.72,-78.97"/>
</g>
<!-- Node8 -->
<g id="node8" class="node">
<title>Node8</title>
<g id="a_node8"><a xlink:title=" ">
<polygon fill="white" stroke="#bfbfbf" points="328.5,-56.5 328.5,-75.5 385.5,-75.5 385.5,-56.5 328.5,-56.5"/>
<text text-anchor="middle" x="357" y="-63.5" font-family="Helvetica,sans-Serif" font-size="10.00">typeinfo</text>
</a>
</g>
</g>
<!-- Node3&#45;&gt;Node8 -->
<g id="edge7" class="edge">
<title>Node3&#45;&gt;Node8</title>
<path fill="none" stroke="midnightblue" d="M315.69,-283.53C294.12,-277.72 265.84,-266.17 252,-244 220.94,-194.23 219.7,-160.98 252,-112 259.85,-100.09 292.03,-87.36 318.71,-78.49"/>
<polygon fill="midnightblue" stroke="midnightblue" points="319.81,-81.81 328.24,-75.4 317.65,-75.15 319.81,-81.81"/>
</g>
<!-- Node9 -->
<g id="node9" class="node">
<title>Node9</title>
<g id="a_node9"><a xlink:href="WalError_8hpp.html" target="_top" xlink:title=" ">
<polygon fill="white" stroke="black" points="142.5,-56.5 142.5,-75.5 271.5,-75.5 271.5,-56.5 142.5,-56.5"/>
<text text-anchor="middle" x="207" y="-63.5" font-family="Helvetica,sans-Serif" font-size="10.00">Exception/WalError.hpp</text>
</a>
</g>
</g>
<!-- Node3&#45;&gt;Node9 -->
<g id="edge8" class="edge">
<title>Node3&#45;&gt;Node9</title>
<path fill="none" stroke="midnightblue" d="M315.97,-285.6C272.73,-279.72 192.96,-266.1 176,-244 140.28,-197.46 158.57,-168.02 176,-112 179.23,-101.62 185.78,-91.52 192.02,-83.53"/>
<polygon fill="midnightblue" stroke="midnightblue" points="194.79,-85.68 198.52,-75.77 189.42,-81.19 194.79,-85.68"/>
</g>
<!-- Node12 -->
<g id="node12" class="node">
<title>Node12</title>
<g id="a_node12"><a xlink:href="ISystem_8hpp.html" target="_top" xlink:title=" ">
<polygon fill="white" stroke="black" points="506.5,-224.5 506.5,-243.5 623.5,-243.5 623.5,-224.5 506.5,-224.5"/>
<text text-anchor="middle" x="565" y="-231.5" font-family="Helvetica,sans-Serif" font-size="10.00">System/ISystem.hpp</text>
</a>
</g>
</g>
<!-- Node3&#45;&gt;Node12 -->
<g id="edge12" class="edge">
<title>Node3&#45;&gt;Node12</title>
<path fill="none" stroke="midnightblue" d="M372.44,-282.05C409.86,-272.91 476.05,-256.73 520.22,-245.94"/>
<polygon fill="midnightblue" stroke="midnightblue" points="521.24,-249.3 530.12,-243.52 519.58,-242.5 521.24,-249.3"/>
</g>
<!-- Node24 -->
<g id="node24" class="node">
<title>Node24</title>
<g id="a_node24"><a xlink:href="Callback_8hpp.html" target="_top" xlink:title=" ">
<polygon fill="white" stroke="black" points="658,-168.5 658,-187.5 776,-187.5 776,-168.5 658,-168.5"/>
<text text-anchor="middle" x="717" y="-175.5" font-family="Helvetica,sans-Serif" font-size="10.00">Models/Callback.hpp</text>
</a>
</g>
</g>
<!-- Node3&#45;&gt;Node24 -->
<g id="edge33" class="edge">
<title>Node3&#45;&gt;Node24</title>
<path fill="none" stroke="midnightblue" d="M372.37,-289.2C425.66,-288.59 543.45,-282.55 633,-244 659.83,-232.45 685.61,-210.31 701.38,-195.11"/>
<polygon fill="midnightblue" stroke="midnightblue" points="704.03,-197.41 708.66,-187.88 699.1,-192.44 704.03,-197.41"/>
</g>
<!-- Node25 -->
<g id="node25" class="node">
<title>Node25</title>
<g id="a_node25"><a xlink:href="Scene_8hpp.html" target="_top" xlink:title=" ">
<polygon fill="white" stroke="black" points="294.5,-224.5 294.5,-243.5 393.5,-243.5 393.5,-224.5 294.5,-224.5"/>
<text text-anchor="middle" x="344" y="-231.5" font-family="Helvetica,sans-Serif" font-size="10.00">Scene/Scene.hpp</text>
</a>
</g>
</g>
<!-- Node3&#45;&gt;Node25 -->
<g id="edge37" class="edge">
<title>Node3&#45;&gt;Node25</title>
<path fill="none" stroke="midnightblue" d="M344,-280.08C344,-273.01 344,-262.86 344,-253.99"/>
<polygon fill="midnightblue" stroke="midnightblue" points="347.5,-253.75 344,-243.75 340.5,-253.75 347.5,-253.75"/>
</g>
<!-- Node9&#45;&gt;Node6 -->
<g id="edge11" class="edge">
<title>Node9&#45;&gt;Node6</title>
<path fill="none" stroke="midnightblue" d="M242.49,-56.44C285.6,-46.05 357.65,-28.68 399.08,-18.7"/>
<polygon fill="midnightblue" stroke="midnightblue" points="400.01,-22.07 408.91,-16.32 398.37,-15.27 400.01,-22.07"/>
</g>
<!-- Node10 -->
<g id="node10" class="node">
<title>Node10</title>
<g id="a_node10"><a xlink:title=" ">
<polygon fill="white" stroke="#bfbfbf" points="238.5,-0.5 238.5,-19.5 303.5,-19.5 303.5,-0.5 238.5,-0.5"/>
<text text-anchor="middle" x="271" y="-7.5" font-family="Helvetica,sans-Serif" font-size="10.00">exception</text>
</a>
</g>
</g>
<!-- Node9&#45;&gt;Node10 -->
<g id="edge9" class="edge">
<title>Node9&#45;&gt;Node10</title>
<path fill="none" stroke="midnightblue" d="M217.28,-56.32C226.84,-48.26 241.28,-36.08 252.78,-26.37"/>
<polygon fill="midnightblue" stroke="midnightblue" points="255.14,-28.96 260.53,-19.83 250.63,-23.61 255.14,-28.96"/>
</g>
<!-- Node11 -->
<g id="node11" class="node">
<title>Node11</title>
<g id="a_node11"><a xlink:title=" ">
<polygon fill="white" stroke="#bfbfbf" points="155.5,-0.5 155.5,-19.5 220.5,-19.5 220.5,-0.5 155.5,-0.5"/>
<text text-anchor="middle" x="188" y="-7.5" font-family="Helvetica,sans-Serif" font-size="10.00">stdexcept</text>
</a>
</g>
</g>
<!-- Node9&#45;&gt;Node11 -->
<g id="edge10" class="edge">
<title>Node9&#45;&gt;Node11</title>
<path fill="none" stroke="midnightblue" d="M203.86,-56.08C201.32,-48.85 197.64,-38.41 194.47,-29.4"/>
<polygon fill="midnightblue" stroke="midnightblue" points="197.7,-28.02 191.08,-19.75 191.1,-30.35 197.7,-28.02"/>
</g>
<!-- Node13 -->
<g id="node13" class="node">
<title>Node13</title>
<g id="a_node13"><a xlink:href="Entity_8hpp.html" target="_top" xlink:title=" ">
<polygon fill="white" stroke="black" points="664,-112.5 664,-131.5 760,-131.5 760,-112.5 664,-112.5"/>
<text text-anchor="middle" x="712" y="-119.5" font-family="Helvetica,sans-Serif" font-size="10.00">Entity/Entity.hpp</text>
</a>
</g>
</g>
<!-- Node12&#45;&gt;Node13 -->
<g id="edge13" class="edge">
<title>Node12&#45;&gt;Node13</title>
<path fill="none" stroke="midnightblue" d="M564.66,-224.21C564.62,-210.46 566.57,-183.78 581,-168 592.62,-155.29 632.22,-142.72 664.87,-134.11"/>
<polygon fill="midnightblue" stroke="midnightblue" points="665.93,-137.45 674.74,-131.57 664.18,-130.67 665.93,-137.45"/>
</g>
<!-- Node18 -->
<g id="node18" class="node">
<title>Node18</title>
<g id="a_node18"><a xlink:href="View_8hpp.html" target="_top" xlink:title=" ">
<polygon fill="white" stroke="black" points="370,-168.5 370,-187.5 458,-187.5 458,-168.5 370,-168.5"/>
<text text-anchor="middle" x="414" y="-175.5" font-family="Helvetica,sans-Serif" font-size="10.00">View/View.hpp</text>
</a>
</g>
</g>
<!-- Node12&#45;&gt;Node18 -->
<g id="edge24" class="edge">
<title>Node12&#45;&gt;Node18</title>
<path fill="none" stroke="midnightblue" d="M541.07,-224.44C515.78,-215.4 475.7,-201.06 447.32,-190.92"/>
<polygon fill="midnightblue" stroke="midnightblue" points="448.41,-187.59 437.81,-187.52 446.05,-194.18 448.41,-187.59"/>
</g>
<!-- Node23 -->
<g id="node23" class="node">
<title>Node23</title>
<g id="a_node23"><a xlink:title=" ">
<polygon fill="white" stroke="#bfbfbf" points="590,-168.5 590,-187.5 640,-187.5 640,-168.5 590,-168.5"/>
<text text-anchor="middle" x="615" y="-175.5" font-family="Helvetica,sans-Serif" font-size="10.00">chrono</text>
</a>
</g>
</g>
<!-- Node12&#45;&gt;Node23 -->
<g id="edge32" class="edge">
<title>Node12&#45;&gt;Node23</title>
<path fill="none" stroke="midnightblue" d="M573.26,-224.08C580.46,-216.3 591.11,-204.8 599.85,-195.37"/>
<polygon fill="midnightblue" stroke="midnightblue" points="602.67,-197.47 606.9,-187.75 597.53,-192.71 602.67,-197.47"/>
</g>
<!-- Node13&#45;&gt;Node6 -->
<g id="edge14" class="edge">
<title>Node13&#45;&gt;Node6</title>
<path fill="none" stroke="midnightblue" d="M685.84,-112.35C659.84,-103.62 618.92,-89.54 584,-76 540.05,-58.96 489.91,-37.21 459.36,-23.69"/>
<polygon fill="midnightblue" stroke="midnightblue" points="460.72,-20.46 450.16,-19.61 457.88,-26.86 460.72,-20.46"/>
</g>
<!-- Node13&#45;&gt;Node7 -->
<g id="edge17" class="edge">
<title>Node13&#45;&gt;Node7</title>
<path fill="none" stroke="midnightblue" d="M669.38,-112.44C617.93,-102.12 532.12,-84.89 482.23,-74.88"/>
<polygon fill="midnightblue" stroke="midnightblue" points="482.65,-71.39 472.16,-72.85 481.27,-78.25 482.65,-71.39"/>
</g>
<!-- Node13&#45;&gt;Node8 -->
<g id="edge16" class="edge">
<title>Node13&#45;&gt;Node8</title>
<path fill="none" stroke="midnightblue" d="M663.81,-113.34C660.83,-112.88 657.87,-112.43 655,-112 544,-95.25 515.75,-94.35 405,-76 401.96,-75.5 398.82,-74.95 395.66,-74.4"/>
<polygon fill="midnightblue" stroke="midnightblue" points="396.11,-70.92 385.65,-72.58 394.86,-77.81 396.11,-70.92"/>
</g>
<!-- Node13&#45;&gt;Node9 -->
<g id="edge22" class="edge">
<title>Node13&#45;&gt;Node9</title>
<path fill="none" stroke="midnightblue" d="M663.83,-113.2C660.84,-112.78 657.88,-112.37 655,-112 523.99,-95.09 370.73,-80.9 281.68,-73.2"/>
<polygon fill="midnightblue" stroke="midnightblue" points="281.94,-69.71 271.68,-72.34 281.34,-76.69 281.94,-69.71"/>
</g>
<!-- Node14 -->
<g id="node14" class="node">
<title>Node14</title>
<g id="a_node14"><a xlink:title=" ">
<polygon fill="white" stroke="#bfbfbf" points="741.5,-56.5 741.5,-75.5 834.5,-75.5 834.5,-56.5 741.5,-56.5"/>
<text text-anchor="middle" x="788" y="-63.5" font-family="Helvetica,sans-Serif" font-size="10.00">unordered_map</text>
</a>
</g>
</g>
<!-- Node13&#45;&gt;Node14 -->
<g id="edge15" class="edge">
<title>Node13&#45;&gt;Node14</title>
<path fill="none" stroke="midnightblue" d="M724.21,-112.32C735.78,-104.11 753.38,-91.6 767.16,-81.81"/>
<polygon fill="midnightblue" stroke="midnightblue" points="769.44,-84.48 775.57,-75.83 765.39,-78.77 769.44,-84.48"/>
</g>
<!-- Node15 -->
<g id="node15" class="node">
<title>Node15</title>
<g id="a_node15"><a xlink:href="Component_8hpp.html" target="_top" xlink:title=" ">
<polygon fill="white" stroke="black" points="852.5,-56.5 852.5,-75.5 1005.5,-75.5 1005.5,-56.5 852.5,-56.5"/>
<text text-anchor="middle" x="929" y="-63.5" font-family="Helvetica,sans-Serif" font-size="10.00">Component/Component.hpp</text>
</a>
</g>
</g>
<!-- Node13&#45;&gt;Node15 -->
<g id="edge18" class="edge">
<title>Node13&#45;&gt;Node15</title>
<path fill="none" stroke="midnightblue" d="M746.38,-112.44C783.92,-103.1 844.13,-88.12 885.07,-77.93"/>
<polygon fill="midnightblue" stroke="midnightblue" points="885.92,-81.33 894.78,-75.52 884.23,-74.53 885.92,-81.33"/>
</g>
<!-- Node17 -->
<g id="node17" class="node">
<title>Node17</title>
<g id="a_node17"><a xlink:href="TypeHolder_8hpp.html" target="_top" xlink:title=" ">
<polygon fill="white" stroke="black" points="593,-56.5 593,-75.5 723,-75.5 723,-56.5 593,-56.5"/>
<text text-anchor="middle" x="658" y="-63.5" font-family="Helvetica,sans-Serif" font-size="10.00">Models/TypeHolder.hpp</text>
</a>
</g>
</g>
<!-- Node13&#45;&gt;Node17 -->
<g id="edge23" class="edge">
<title>Node13&#45;&gt;Node17</title>
<path fill="none" stroke="midnightblue" d="M703.08,-112.08C695.22,-104.22 683.57,-92.57 674.08,-83.08"/>
<polygon fill="midnightblue" stroke="midnightblue" points="676.3,-80.35 666.75,-75.75 671.35,-85.3 676.3,-80.35"/>
</g>
<!-- Node15&#45;&gt;Node5 -->
<g id="edge19" class="edge">
<title>Node15&#45;&gt;Node5</title>
<path fill="none" stroke="midnightblue" d="M852.11,-56.67C849.37,-56.43 846.66,-56.21 844,-56 534.32,-31.64 454.65,-55.06 146,-20 140.36,-19.36 134.4,-18.49 128.62,-17.54"/>
<polygon fill="midnightblue" stroke="midnightblue" points="128.98,-14.05 118.53,-15.78 127.78,-20.94 128.98,-14.05"/>
</g>
<!-- Node15&#45;&gt;Node6 -->
<g id="edge20" class="edge">
<title>Node15&#45;&gt;Node6</title>
<path fill="none" stroke="midnightblue" d="M852.28,-56.68C741.53,-44.67 541.6,-22.99 463.5,-14.52"/>
<polygon fill="midnightblue" stroke="midnightblue" points="463.63,-11.02 453.31,-13.42 462.88,-17.98 463.63,-11.02"/>
</g>
<!-- Node16 -->
<g id="node16" class="node">
<title>Node16</title>
<g id="a_node16"><a xlink:title=" ">
<polygon fill="white" stroke="#bfbfbf" points="896.5,-0.5 896.5,-19.5 961.5,-19.5 961.5,-0.5 896.5,-0.5"/>
<text text-anchor="middle" x="929" y="-7.5" font-family="Helvetica,sans-Serif" font-size="10.00">typeindex</text>
</a>
</g>
</g>
<!-- Node15&#45;&gt;Node16 -->
<g id="edge21" class="edge">
<title>Node15&#45;&gt;Node16</title>
<path fill="none" stroke="midnightblue" d="M929,-56.08C929,-49.01 929,-38.86 929,-29.99"/>
<polygon fill="midnightblue" stroke="midnightblue" points="932.5,-29.75 929,-19.75 925.5,-29.75 932.5,-29.75"/>
</g>
<!-- Node18&#45;&gt;Node4 -->
<g id="edge29" class="edge">
<title>Node18&#45;&gt;Node4</title>
<path fill="none" stroke="midnightblue" d="M447.12,-168.44C486.42,-158.29 551.54,-141.46 590.55,-131.38"/>
<polygon fill="midnightblue" stroke="midnightblue" points="591.54,-134.74 600.34,-128.85 589.79,-127.97 591.54,-134.74"/>
</g>
<!-- Node18&#45;&gt;Node13 -->
<g id="edge31" class="edge">
<title>Node18&#45;&gt;Node13</title>
<path fill="none" stroke="midnightblue" d="M458.29,-168.97C510.6,-159.5 597.73,-143.71 655.02,-133.33"/>
<polygon fill="midnightblue" stroke="midnightblue" points="655.79,-136.74 665,-131.52 654.54,-129.86 655.79,-136.74"/>
</g>
<!-- Node18&#45;&gt;Node16 -->
<g id="edge27" class="edge">
<title>Node18&#45;&gt;Node16</title>
<path fill="none" stroke="midnightblue" d="M458.05,-172.48C488.12,-167.27 527.07,-156.08 553,-132 579.73,-107.18 555.11,-78.27 584,-56 630.36,-20.27 804.24,-12.85 886.01,-11.35"/>
<polygon fill="midnightblue" stroke="midnightblue" points="886.5,-14.84 896.44,-11.18 886.39,-7.84 886.5,-14.84"/>
</g>
<!-- Node19 -->
<g id="node19" class="node">
<title>Node19</title>
<g id="a_node19"><a xlink:title=" ">
<polygon fill="white" stroke="#bfbfbf" points="294,-112.5 294,-131.5 326,-131.5 326,-112.5 294,-112.5"/>
<text text-anchor="middle" x="310" y="-119.5" font-family="Helvetica,sans-Serif" font-size="10.00">list</text>
</a>
</g>
</g>
<!-- Node18&#45;&gt;Node19 -->
<g id="edge25" class="edge">
<title>Node18&#45;&gt;Node19</title>
<path fill="none" stroke="midnightblue" d="M397.29,-168.32C380.59,-159.65 354.69,-146.21 335.44,-136.21"/>
<polygon fill="midnightblue" stroke="midnightblue" points="336.81,-132.98 326.33,-131.48 333.59,-139.19 336.81,-132.98"/>
</g>
<!-- Node20 -->
<g id="node20" class="node">
<title>Node20</title>
<g id="a_node20"><a xlink:title=" ">
<polygon fill="white" stroke="#bfbfbf" points="502.5,-112.5 502.5,-131.5 543.5,-131.5 543.5,-112.5 502.5,-112.5"/>
<text text-anchor="middle" x="523" y="-119.5" font-family="Helvetica,sans-Serif" font-size="10.00">tuple</text>
</a>
</g>
</g>
<!-- Node18&#45;&gt;Node20 -->
<g id="edge26" class="edge">
<title>Node18&#45;&gt;Node20</title>
<path fill="none" stroke="midnightblue" d="M431.51,-168.32C449.07,-159.62 476.33,-146.12 496.53,-136.11"/>
<polygon fill="midnightblue" stroke="midnightblue" points="498.12,-139.23 505.53,-131.65 495.02,-132.96 498.12,-139.23"/>
</g>
<!-- Node21 -->
<g id="node21" class="node">
<title>Node21</title>
<g id="a_node21"><a xlink:title=" ">
<polygon fill="white" stroke="#bfbfbf" points="344.5,-112.5 344.5,-131.5 409.5,-131.5 409.5,-112.5 344.5,-112.5"/>
<text text-anchor="middle" x="377" y="-119.5" font-family="Helvetica,sans-Serif" font-size="10.00">functional</text>
</a>
</g>
</g>
<!-- Node18&#45;&gt;Node21 -->
<g id="edge28" class="edge">
<title>Node18&#45;&gt;Node21</title>
<path fill="none" stroke="midnightblue" d="M407.89,-168.08C402.72,-160.53 395.15,-149.49 388.81,-140.23"/>
<polygon fill="midnightblue" stroke="midnightblue" points="391.54,-138.02 383,-131.75 385.76,-141.98 391.54,-138.02"/>
</g>
<!-- Node22 -->
<g id="node22" class="node">
<title>Node22</title>
<g id="a_node22"><a xlink:title=" ">
<polygon fill="white" stroke="#bfbfbf" points="428,-112.5 428,-131.5 484,-131.5 484,-112.5 428,-112.5"/>
<text text-anchor="middle" x="456" y="-119.5" font-family="Helvetica,sans-Serif" font-size="10.00">optional</text>
</a>
</g>
</g>
<!-- Node18&#45;&gt;Node22 -->
<g id="edge30" class="edge">
<title>Node18&#45;&gt;Node22</title>
<path fill="none" stroke="midnightblue" d="M420.94,-168.08C426.93,-160.38 435.75,-149.03 443.05,-139.65"/>
<polygon fill="midnightblue" stroke="midnightblue" points="445.82,-141.79 449.19,-131.75 440.29,-137.5 445.82,-141.79"/>
</g>
<!-- Node24&#45;&gt;Node4 -->
<g id="edge35" class="edge">
<title>Node24&#45;&gt;Node4</title>
<path fill="none" stroke="midnightblue" d="M701.9,-168.32C687.1,-159.82 664.31,-146.73 647.02,-136.8"/>
<polygon fill="midnightblue" stroke="midnightblue" points="648.48,-133.6 638.07,-131.65 644.99,-139.67 648.48,-133.6"/>
</g>
<!-- Node24&#45;&gt;Node14 -->
<g id="edge36" class="edge">
<title>Node24&#45;&gt;Node14</title>
<path fill="none" stroke="midnightblue" d="M730.92,-168.31C742.7,-160.27 759.19,-147.27 769,-132 778.03,-117.93 782.89,-99.44 785.43,-85.78"/>
<polygon fill="midnightblue" stroke="midnightblue" points="788.93,-86.07 787.05,-75.64 782.02,-84.96 788.93,-86.07"/>
</g>
<!-- Node24&#45;&gt;Node21 -->
<g id="edge34" class="edge">
<title>Node24&#45;&gt;Node21</title>
<path fill="none" stroke="midnightblue" d="M657.74,-169.14C599.65,-161.19 508.38,-148.04 419.5,-131.99"/>
<polygon fill="midnightblue" stroke="midnightblue" points="419.99,-128.52 409.52,-130.17 418.73,-135.41 419.99,-128.52"/>
</g>
<!-- Node25&#45;&gt;Node5 -->
<g id="edge38" class="edge">
<title>Node25&#45;&gt;Node5</title>
<path fill="none" stroke="midnightblue" d="M328.56,-224.48C291.27,-203.32 194.82,-145.07 133,-76 120.36,-61.87 109.84,-42.89 103.1,-29.09"/>
<polygon fill="midnightblue" stroke="midnightblue" points="106.12,-27.28 98.71,-19.71 99.78,-30.25 106.12,-27.28"/>
</g>
<!-- Node25&#45;&gt;Node13 -->
<g id="edge42" class="edge">
<title>Node25&#45;&gt;Node13</title>
<path fill="none" stroke="midnightblue" d="M372.57,-224.46C438.13,-204.86 599.43,-156.65 673.58,-134.48"/>
<polygon fill="midnightblue" stroke="midnightblue" points="674.87,-137.75 683.45,-131.53 672.86,-131.05 674.87,-137.75"/>
</g>
<!-- Node25&#45;&gt;Node18 -->
<g id="edge41" class="edge">
<title>Node25&#45;&gt;Node18</title>
<path fill="none" stroke="midnightblue" d="M355.25,-224.32C365.8,-216.18 381.8,-203.84 394.44,-194.09"/>
<polygon fill="midnightblue" stroke="midnightblue" points="396.77,-196.71 402.55,-187.83 392.49,-191.17 396.77,-196.71"/>
</g>
<!-- Node25&#45;&gt;Node19 -->
<g id="edge39" class="edge">
<title>Node25&#45;&gt;Node19</title>
<path fill="none" stroke="midnightblue" d="M341.33,-224.37C335.82,-206.54 323.07,-165.3 315.65,-141.27"/>
<polygon fill="midnightblue" stroke="midnightblue" points="318.95,-140.11 312.66,-131.59 312.26,-142.18 318.95,-140.11"/>
</g>
<!-- Node25&#45;&gt;Node21 -->
<g id="edge40" class="edge">
<title>Node25&#45;&gt;Node21</title>
<path fill="none" stroke="midnightblue" d="M346.07,-224.1C349.06,-211.52 354.89,-187.84 361,-168 363.75,-159.07 367.18,-149.29 370.15,-141.13"/>
<polygon fill="midnightblue" stroke="midnightblue" points="373.51,-142.15 373.71,-131.55 366.95,-139.71 373.51,-142.15"/>
</g>
<!-- Node26&#45;&gt;Node3 -->
<g id="edge49" class="edge">
<title>Node26&#45;&gt;Node3</title>
<path fill="none" stroke="midnightblue" d="M610.72,-341.97C600.98,-339.98 590.63,-337.9 581,-336 510.9,-322.19 428.98,-306.8 382.13,-298.07"/>
<polygon fill="midnightblue" stroke="midnightblue" points="382.59,-294.6 372.12,-296.21 381.31,-301.48 382.59,-294.6"/>
</g>
<!-- Node26&#45;&gt;Node5 -->
<g id="edge45" class="edge">
<title>Node26&#45;&gt;Node5</title>
<path fill="none" stroke="midnightblue" d="M595.95,-341.99C580.44,-339.82 563.59,-337.65 548,-336 437.22,-324.3 145.58,-353.73 48,-300 16.54,-282.68 0,-270.91 0,-235 0,-235 0,-235 0,-121 0,-77.74 42.61,-43.09 70.75,-24.91"/>
<polygon fill="midnightblue" stroke="midnightblue" points="72.66,-27.85 79.31,-19.6 68.97,-21.9 72.66,-27.85"/>
</g>
<!-- Node26&#45;&gt;Node8 -->
<g id="edge46" class="edge">
<title>Node26&#45;&gt;Node8</title>
<path fill="none" stroke="midnightblue" d="M594.92,-342.44C504.24,-329.58 334.64,-305.35 307,-300 186.25,-276.62 38,-358 38,-235 38,-235 38,-235 38,-177 38,-118.3 233.47,-84.1 318.38,-72.01"/>
<polygon fill="midnightblue" stroke="midnightblue" points="318.99,-75.46 328.41,-70.61 318.02,-68.52 318.99,-75.46"/>
</g>
<!-- Node26&#45;&gt;Node12 -->
<g id="edge51" class="edge">
<title>Node26&#45;&gt;Node12</title>
<path fill="none" stroke="midnightblue" d="M645.46,-341.82C631.1,-322.76 596.6,-276.95 577.77,-251.96"/>
<polygon fill="midnightblue" stroke="midnightblue" points="580.43,-249.66 571.62,-243.78 574.84,-253.88 580.43,-249.66"/>
</g>
<!-- Node26&#45;&gt;Node13 -->
<g id="edge48" class="edge">
<title>Node26&#45;&gt;Node13</title>
<path fill="none" stroke="midnightblue" d="M663.14,-341.78C690.38,-319.64 759.99,-258.04 785,-188 787.99,-179.63 789.33,-175.76 785,-168 776.84,-153.39 761.78,-142.94 747.45,-135.8"/>
<polygon fill="midnightblue" stroke="midnightblue" points="748.76,-132.56 738.21,-131.59 745.85,-138.92 748.76,-132.56"/>
</g>
<!-- Node26&#45;&gt;Node16 -->
<g id="edge47" class="edge">
<title>Node26&#45;&gt;Node16</title>
<path fill="none" stroke="midnightblue" d="M674.98,-341.95C742.87,-315.24 942.39,-226.07 1015,-76 1026.92,-51.36 997.15,-33.66 969.44,-23.01"/>
<polygon fill="midnightblue" stroke="midnightblue" points="970.38,-19.63 959.79,-19.54 968.01,-26.22 970.38,-19.63"/>
</g>
<!-- Node26&#45;&gt;Node18 -->
<g id="edge50" class="edge">
<title>Node26&#45;&gt;Node18</title>
<path fill="none" stroke="midnightblue" d="M639.06,-341.89C612.37,-324.07 549.41,-281.63 498,-244 475.19,-227.31 449.58,-207.3 432.7,-193.93"/>
<polygon fill="midnightblue" stroke="midnightblue" points="434.74,-191.08 424.73,-187.6 430.38,-196.56 434.74,-191.08"/>
</g>
<!-- Node26&#45;&gt;Node23 -->
<g id="edge44" class="edge">
<title>Node26&#45;&gt;Node23</title>
<path fill="none" stroke="midnightblue" d="M651.39,-341.77C649.78,-321.03 644.74,-267.3 633,-224 630.52,-214.86 626.75,-205.07 623.29,-196.95"/>
<polygon fill="midnightblue" stroke="midnightblue" points="626.46,-195.48 619.21,-187.76 620.07,-198.32 626.46,-195.48"/>
</g>
<!-- Node27 -->
<g id="node27" class="node">
<title>Node27</title>
<g id="a_node27"><a xlink:title=" ">
<polygon fill="white" stroke="#bfbfbf" points="908,-224.5 908,-243.5 968,-243.5 968,-224.5 908,-224.5"/>
<text text-anchor="middle" x="938" y="-231.5" font-family="Helvetica,sans-Serif" font-size="10.00">iostream</text>
</a>
</g>
</g>
<!-- Node26&#45;&gt;Node27 -->
<g id="edge52" class="edge">
<title>Node26&#45;&gt;Node27</title>
<path fill="none" stroke="midnightblue" d="M674.24,-341.84C699.8,-331.86 743,-314.91 780,-300 824.68,-281.99 876.27,-260.67 908.01,-247.49"/>
<polygon fill="midnightblue" stroke="midnightblue" points="909.7,-250.58 917.59,-243.51 907.01,-244.12 909.7,-250.58"/>
</g>
<!-- Node28&#45;&gt;Node27 -->
<g id="edge54" class="edge">
<title>Node28&#45;&gt;Node27</title>
<path fill="none" stroke="midnightblue" d="M1058.34,-280.44C1034.6,-271.48 997.09,-257.31 970.26,-247.18"/>
<polygon fill="midnightblue" stroke="midnightblue" points="971.14,-243.77 960.55,-243.52 968.67,-250.32 971.14,-243.77"/>
</g>
<!-- Node29 -->
<g id="node29" class="node">
<title>Node29</title>
<g id="a_node29"><a xlink:title=" ">
<polygon fill="white" stroke="#bfbfbf" points="1150.5,-224.5 1150.5,-243.5 1197.5,-243.5 1197.5,-224.5 1150.5,-224.5"/>
<text text-anchor="middle" x="1174" y="-231.5" font-family="Helvetica,sans-Serif" font-size="10.00">cmath</text>
</a>
</g>
</g>
<!-- Node28&#45;&gt;Node29 -->
<g id="edge55" class="edge">
<title>Node28&#45;&gt;Node29</title>
<path fill="none" stroke="midnightblue" d="M1095.94,-280.32C1110.59,-271.82 1133.13,-258.73 1150.24,-248.8"/>
<polygon fill="midnightblue" stroke="midnightblue" points="1152.2,-251.7 1159.1,-243.65 1148.69,-245.65 1152.2,-251.7"/>
</g>
<!-- Node30 -->
<g id="node30" class="node">
<title>Node30</title>
<g id="a_node30"><a xlink:href="lib_2Ray_2sources_2Vector_2Vector3_8hpp.html" target="_top" xlink:title=" ">
<polygon fill="white" stroke="black" points="1024,-224.5 1024,-243.5 1132,-243.5 1132,-224.5 1024,-224.5"/>
<text text-anchor="middle" x="1078" y="-231.5" font-family="Helvetica,sans-Serif" font-size="10.00">Vector/Vector3.hpp</text>
</a>
</g>
</g>
<!-- Node28&#45;&gt;Node30 -->
<g id="edge56" class="edge">
<title>Node28&#45;&gt;Node30</title>
<path fill="none" stroke="midnightblue" d="M1080.5,-280.08C1080.11,-273.01 1079.55,-262.86 1079.05,-253.99"/>
<polygon fill="midnightblue" stroke="midnightblue" points="1082.54,-253.54 1078.49,-243.75 1075.55,-253.93 1082.54,-253.54"/>
</g>
<!-- Node31 -->
<g id="node31" class="node">
<title>Node31</title>
<g id="a_node31"><a xlink:title=" ">
<polygon fill="white" stroke="#bfbfbf" points="1051.5,-168.5 1051.5,-187.5 1104.5,-187.5 1104.5,-168.5 1051.5,-168.5"/>
<text text-anchor="middle" x="1078" y="-175.5" font-family="Helvetica,sans-Serif" font-size="10.00">raylib.h</text>
</a>
</g>
</g>
<!-- Node30&#45;&gt;Node31 -->
<g id="edge57" class="edge">
<title>Node30&#45;&gt;Node31</title>
<path fill="none" stroke="midnightblue" d="M1078,-224.08C1078,-217.01 1078,-206.86 1078,-197.99"/>
<polygon fill="midnightblue" stroke="midnightblue" points="1081.5,-197.75 1078,-187.75 1074.5,-197.75 1081.5,-197.75"/>
</g>
<!-- Node32&#45;&gt;Node13 -->
<g id="edge62" class="edge">
<title>Node32&#45;&gt;Node13</title>
<path fill="none" stroke="midnightblue" d="M835.33,-336.04C837.61,-302.81 838.75,-219.92 800,-168 788.59,-152.71 770.49,-142.21 753.67,-135.23"/>
<polygon fill="midnightblue" stroke="midnightblue" points="754.56,-131.82 743.97,-131.52 752.06,-138.36 754.56,-131.82"/>
</g>
<!-- Node32&#45;&gt;Node15 -->
<g id="edge61" class="edge">
<title>Node32&#45;&gt;Node15</title>
<path fill="none" stroke="midnightblue" d="M838.71,-336.44C854.44,-289.5 905.15,-138.18 922.84,-85.38"/>
<polygon fill="midnightblue" stroke="midnightblue" points="926.23,-86.28 926.09,-75.68 919.59,-84.05 926.23,-86.28"/>
</g>
<!-- Node32&#45;&gt;Node24 -->
<g id="edge59" class="edge">
<title>Node32&#45;&gt;Node24</title>
<path fill="none" stroke="midnightblue" d="M824.43,-336.47C803.07,-305.17 751.63,-229.76 728.55,-195.93"/>
<polygon fill="midnightblue" stroke="midnightblue" points="731.37,-193.85 722.84,-187.56 725.58,-197.79 731.37,-193.85"/>
</g>
<!-- Node32&#45;&gt;Node28 -->
<g id="edge60" class="edge">
<title>Node32&#45;&gt;Node28</title>
<path fill="none" stroke="midnightblue" d="M892.22,-336.47C936.14,-325.9 995.51,-311.59 1035.86,-301.87"/>
<polygon fill="midnightblue" stroke="midnightblue" points="1036.79,-305.25 1045.69,-299.51 1035.15,-298.45 1036.79,-305.25"/>
</g>
<!-- Node33&#45;&gt;Node13 -->
<g id="edge65" class="edge">
<title>Node33&#45;&gt;Node13</title>
<path fill="none" stroke="midnightblue" d="M1202.08,-336.49C1211.73,-311.94 1227.5,-260.27 1207,-224 1183.26,-182 1159.7,-183.49 1114,-168 1051.83,-146.93 866.1,-132.64 770.41,-126.46"/>
<polygon fill="midnightblue" stroke="midnightblue" points="770.52,-122.96 760.32,-125.82 770.08,-129.94 770.52,-122.96"/>
</g>
<!-- Node33&#45;&gt;Node28 -->
<g id="edge64" class="edge">
<title>Node33&#45;&gt;Node28</title>
<path fill="none" stroke="midnightblue" d="M1168.75,-336.4C1149.97,-326.68 1125.17,-313.86 1106.73,-304.31"/>
<polygon fill="midnightblue" stroke="midnightblue" points="1108.22,-301.14 1097.73,-299.66 1105.01,-307.36 1108.22,-301.14"/>
</g>
<!-- Node34&#45;&gt;Node15 -->
<g id="edge68" class="edge">
<title>Node34&#45;&gt;Node15</title>
<path fill="none" stroke="midnightblue" d="M991.21,-336.29C992.97,-314.5 996,-271.54 996,-235 996,-235 996,-235 996,-177 996,-138.7 966.01,-102.42 946.16,-82.59"/>
<polygon fill="midnightblue" stroke="midnightblue" points="948.52,-80 938.89,-75.6 943.67,-85.05 948.52,-80"/>
</g>
<!-- Node34&#45;&gt;Node28 -->
<g id="edge67" class="edge">
<title>Node34&#45;&gt;Node28</title>
<path fill="none" stroke="midnightblue" d="M1011.57,-336.4C1025.88,-327.04 1044.61,-314.79 1059.01,-305.38"/>
<polygon fill="midnightblue" stroke="midnightblue" points="1061.3,-308.06 1067.76,-299.66 1057.47,-302.2 1061.3,-308.06"/>
</g>
</g>
</svg>
