<?xml version="1.0" encoding="UTF-8" standalone="no"?>
<!DOCTYPE svg PUBLIC "-//W3C//DTD SVG 1.1//EN"
 "http://www.w3.org/Graphics/SVG/1.1/DTD/svg11.dtd">
<!-- Generated by graphviz version 2.43.0 (0)
 -->
<!-- Title: sources/Component/Color/ColorComponent.hpp Pages: 1 -->
<svg width="274pt" height="151pt"
 viewBox="0.00 0.00 273.50 151.00" xmlns="http://www.w3.org/2000/svg" xmlns:xlink="http://www.w3.org/1999/xlink">
<g id="graph0" class="graph" transform="scale(1 1) rotate(0) translate(4 147)">
<title>sources/Component/Color/ColorComponent.hpp</title>
<polygon fill="white" stroke="transparent" points="-4,4 -4,-147 269.5,-147 269.5,4 -4,4"/>
<!-- Node1 -->
<g id="node1" class="node">
<title>Node1</title>
<g id="a_node1"><a xlink:title=" ">
<polygon fill="#bfbfbf" stroke="black" points="23,-112.5 23,-142.5 165,-142.5 165,-112.5 23,-112.5"/>
<text text-anchor="start" x="31" y="-130.5" font-family="Helvetica,sans-Serif" font-size="10.00">sources/Component/Color</text>
<text text-anchor="middle" x="94" y="-119.5" font-family="Helvetica,sans-Serif" font-size="10.00">/ColorComponent.hpp</text>
</a>
</g>
</g>
<!-- Node2 -->
<g id="node2" class="node">
<title>Node2</title>
<g id="a_node2"><a xlink:href="Color_8hpp.html" target="_top" xlink:title=" ">
<polygon fill="white" stroke="black" points="0,-56.5 0,-75.5 62,-75.5 62,-56.5 0,-56.5"/>
<text text-anchor="middle" x="31" y="-63.5" font-family="Helvetica,sans-Serif" font-size="10.00">Color.hpp</text>
</a>
</g>
</g>
<!-- Node1&#45;&gt;Node2 -->
<g id="edge1" class="edge">
<title>Node1&#45;&gt;Node2</title>
<path fill="none" stroke="midnightblue" d="M79.07,-112.4C69.63,-103.49 57.42,-91.95 47.67,-82.74"/>
<polygon fill="midnightblue" stroke="midnightblue" points="49.84,-79.98 40.17,-75.66 45.03,-85.07 49.84,-79.98"/>
</g>
<!-- Node4 -->
<g id="node4" class="node">
<title>Node4</title>
<g id="a_node4"><a xlink:href="Component_8hpp.html" target="_top" xlink:title=" ">
<polygon fill="white" stroke="black" points="81.5,-56.5 81.5,-75.5 234.5,-75.5 234.5,-56.5 81.5,-56.5"/>
<text text-anchor="middle" x="158" y="-63.5" font-family="Helvetica,sans-Serif" font-size="10.00">Component/Component.hpp</text>
</a>
</g>
</g>
<!-- Node1&#45;&gt;Node4 -->
<g id="edge3" class="edge">
<title>Node1&#45;&gt;Node4</title>
<path fill="none" stroke="midnightblue" d="M109.17,-112.4C118.75,-103.49 131.16,-91.95 141.07,-82.74"/>
<polygon fill="midnightblue" stroke="midnightblue" points="143.75,-85.03 148.69,-75.66 138.98,-79.9 143.75,-85.03"/>
</g>
<!-- Node3 -->
<g id="node3" class="node">
<title>Node3</title>
<g id="a_node3"><a xlink:title=" ">
<polygon fill="white" stroke="#bfbfbf" points="1.5,-0.5 1.5,-19.5 54.5,-19.5 54.5,-0.5 1.5,-0.5"/>
<text text-anchor="middle" x="28" y="-7.5" font-family="Helvetica,sans-Serif" font-size="10.00">raylib.h</text>
</a>
</g>
</g>
<!-- Node2&#45;&gt;Node3 -->
<g id="edge2" class="edge">
<title>Node2&#45;&gt;Node3</title>
<path fill="none" stroke="midnightblue" d="M30.5,-56.08C30.11,-49.01 29.55,-38.86 29.05,-29.99"/>
<polygon fill="midnightblue" stroke="midnightblue" points="32.54,-29.54 28.49,-19.75 25.55,-29.93 32.54,-29.54"/>
</g>
<!-- Node5 -->
<g id="node5" class="node">
<title>Node5</title>
<g id="a_node5"><a xlink:title=" ">
<polygon fill="white" stroke="#bfbfbf" points="72.5,-0.5 72.5,-19.5 119.5,-19.5 119.5,-0.5 72.5,-0.5"/>
<text text-anchor="middle" x="96" y="-7.5" font-family="Helvetica,sans-Serif" font-size="10.00">vector</text>
</a>
</g>
</g>
<!-- Node4&#45;&gt;Node5 -->
<g id="edge4" class="edge">
<title>Node4&#45;&gt;Node5</title>
<path fill="none" stroke="midnightblue" d="M148.04,-56.32C138.87,-48.34 125.06,-36.31 113.97,-26.65"/>
<polygon fill="midnightblue" stroke="midnightblue" points="115.98,-23.76 106.14,-19.83 111.38,-29.04 115.98,-23.76"/>
</g>
<!-- Node6 -->
<g id="node6" class="node">
<title>Node6</title>
<g id="a_node6"><a xlink:title=" ">
<polygon fill="white" stroke="#bfbfbf" points="138,-0.5 138,-19.5 182,-19.5 182,-0.5 138,-0.5"/>
<text text-anchor="middle" x="160" y="-7.5" font-family="Helvetica,sans-Serif" font-size="10.00">string</text>
</a>
</g>
</g>
<!-- Node4&#45;&gt;Node6 -->
<g id="edge5" class="edge">
<title>Node4&#45;&gt;Node6</title>
<path fill="none" stroke="midnightblue" d="M158.33,-56.08C158.59,-49.01 158.97,-38.86 159.3,-29.99"/>
<polygon fill="midnightblue" stroke="midnightblue" points="162.8,-29.87 159.68,-19.75 155.81,-29.61 162.8,-29.87"/>
</g>
<!-- Node7 -->
<g id="node7" class="node">
<title>Node7</title>
<g id="a_node7"><a xlink:title=" ">
<polygon fill="white" stroke="#bfbfbf" points="200.5,-0.5 200.5,-19.5 265.5,-19.5 265.5,-0.5 200.5,-0.5"/>
<text text-anchor="middle" x="233" y="-7.5" font-family="Helvetica,sans-Serif" font-size="10.00">typeindex</text>
</a>
</g>
</g>
<!-- Node4&#45;&gt;Node7 -->
<g id="edge6" class="edge">
<title>Node4&#45;&gt;Node7</title>
<path fill="none" stroke="midnightblue" d="M170.05,-56.32C181.46,-48.11 198.83,-35.6 212.43,-25.81"/>
<polygon fill="midnightblue" stroke="midnightblue" points="214.66,-28.52 220.73,-19.83 210.57,-22.84 214.66,-28.52"/>
</g>
</g>
</svg>
