<?xml version="1.0" encoding="UTF-8" standalone="no"?>
<!DOCTYPE svg PUBLIC "-//W3C//DTD SVG 1.1//EN"
 "http://www.w3.org/Graphics/SVG/1.1/DTD/svg11.dtd">
<!-- Generated by graphviz version 2.43.0 (0)
 -->
<!-- Title: sources/Component/Color/ColorComponent.hpp Pages: 1 -->
<svg width="458pt" height="106pt"
 viewBox="0.00 0.00 458.00 106.00" xmlns="http://www.w3.org/2000/svg" xmlns:xlink="http://www.w3.org/1999/xlink">
<g id="graph0" class="graph" transform="scale(1 1) rotate(0) translate(4 102)">
<title>sources/Component/Color/ColorComponent.hpp</title>
<polygon fill="white" stroke="transparent" points="-4,4 -4,-102 454,-102 454,4 -4,4"/>
<!-- Node1 -->
<g id="node1" class="node">
<title>Node1</title>
<g id="a_node1"><a xlink:title=" ">
<polygon fill="#bfbfbf" stroke="black" points="152,-67.5 152,-97.5 294,-97.5 294,-67.5 152,-67.5"/>
<text text-anchor="start" x="160" y="-85.5" font-family="Helvetica,sans-Serif" font-size="10.00">sources/Component/Color</text>
<text text-anchor="middle" x="223" y="-74.5" font-family="Helvetica,sans-Serif" font-size="10.00">/ColorComponent.hpp</text>
</a>
</g>
</g>
<!-- Node2 -->
<g id="node2" class="node">
<title>Node2</title>
<g id="a_node2"><a xlink:href="ColorComponent_8cpp.html" target="_top" xlink:title=" ">
<polygon fill="white" stroke="black" points="0,-0.5 0,-30.5 142,-30.5 142,-0.5 0,-0.5"/>
<text text-anchor="start" x="8" y="-18.5" font-family="Helvetica,sans-Serif" font-size="10.00">sources/Component/Color</text>
<text text-anchor="middle" x="71" y="-7.5" font-family="Helvetica,sans-Serif" font-size="10.00">/ColorComponent.cpp</text>
</a>
</g>
</g>
<!-- Node1&#45;&gt;Node2 -->
<g id="edge1" class="edge">
<title>Node1&#45;&gt;Node2</title>
<path fill="none" stroke="midnightblue" d="M180.69,-63.41C156.42,-53.03 126.41,-40.2 103.92,-30.58"/>
<polygon fill="midnightblue" stroke="midnightblue" points="179.45,-66.68 190.02,-67.4 182.2,-60.25 179.45,-66.68"/>
</g>
<!-- Node3 -->
<g id="node3" class="node">
<title>Node3</title>
<g id="a_node3"><a xlink:href="LobbySystem_8cpp.html" target="_top" xlink:title=" ">
<polygon fill="white" stroke="black" points="160,-0.5 160,-30.5 286,-30.5 286,-0.5 160,-0.5"/>
<text text-anchor="start" x="168" y="-18.5" font-family="Helvetica,sans-Serif" font-size="10.00">sources/System/Lobby</text>
<text text-anchor="middle" x="223" y="-7.5" font-family="Helvetica,sans-Serif" font-size="10.00">/LobbySystem.cpp</text>
</a>
</g>
</g>
<!-- Node1&#45;&gt;Node3 -->
<g id="edge2" class="edge">
<title>Node1&#45;&gt;Node3</title>
<path fill="none" stroke="midnightblue" d="M223,-57.11C223,-48.15 223,-38.32 223,-30.58"/>
<polygon fill="midnightblue" stroke="midnightblue" points="219.5,-57.4 223,-67.4 226.5,-57.4 219.5,-57.4"/>
</g>
<!-- Node4 -->
<g id="node4" class="node">
<title>Node4</title>
<g id="a_node4"><a xlink:href="ResumeLobbySystem_8cpp.html" target="_top" xlink:title=" ">
<polygon fill="white" stroke="black" points="304,-0.5 304,-30.5 450,-30.5 450,-0.5 304,-0.5"/>
<text text-anchor="start" x="312" y="-18.5" font-family="Helvetica,sans-Serif" font-size="10.00">sources/System/Lobby</text>
<text text-anchor="middle" x="377" y="-7.5" font-family="Helvetica,sans-Serif" font-size="10.00">/ResumeLobbySystem.cpp</text>
</a>
</g>
</g>
<!-- Node1&#45;&gt;Node4 -->
<g id="edge3" class="edge">
<title>Node1&#45;&gt;Node4</title>
<path fill="none" stroke="midnightblue" d="M265.87,-63.41C290.45,-53.03 320.86,-40.2 343.65,-30.58"/>
<polygon fill="midnightblue" stroke="midnightblue" points="264.27,-60.28 256.42,-67.4 266.99,-66.73 264.27,-60.28"/>
</g>
</g>
</svg>
