<?xml version="1.0" encoding="UTF-8" standalone="no"?>
<!DOCTYPE svg PUBLIC "-//W3C//DTD SVG 1.1//EN"
 "http://www.w3.org/Graphics/SVG/1.1/DTD/svg11.dtd">
<!-- Generated by graphviz version 2.43.0 (0)
 -->
<!-- Title: lib/wal/sources/Component/Component.cpp Pages: 1 -->
<svg width="201pt" height="151pt"
 viewBox="0.00 0.00 201.00 151.00" xmlns="http://www.w3.org/2000/svg" xmlns:xlink="http://www.w3.org/1999/xlink">
<g id="graph0" class="graph" transform="scale(1 1) rotate(0) translate(4 147)">
<title>lib/wal/sources/Component/Component.cpp</title>
<polygon fill="white" stroke="transparent" points="-4,4 -4,-147 197,-147 197,4 -4,4"/>
<!-- Node1 -->
<g id="node1" class="node">
<title>Node1</title>
<g id="a_node1"><a xlink:title=" ">
<polygon fill="#bfbfbf" stroke="black" points="13,-112.5 13,-142.5 162,-142.5 162,-112.5 13,-112.5"/>
<text text-anchor="start" x="21" y="-130.5" font-family="Helvetica,sans-Serif" font-size="10.00">lib/wal/sources/Component</text>
<text text-anchor="middle" x="87.5" y="-119.5" font-family="Helvetica,sans-Serif" font-size="10.00">/Component.cpp</text>
</a>
</g>
</g>
<!-- Node2 -->
<g id="node2" class="node">
<title>Node2</title>
<g id="a_node2"><a xlink:href="Component_8hpp.html" target="_top" xlink:title=" ">
<polygon fill="white" stroke="black" points="11,-56.5 11,-75.5 164,-75.5 164,-56.5 11,-56.5"/>
<text text-anchor="middle" x="87.5" y="-63.5" font-family="Helvetica,sans-Serif" font-size="10.00">Component/Component.hpp</text>
</a>
</g>
</g>
<!-- Node1&#45;&gt;Node2 -->
<g id="edge1" class="edge">
<title>Node1&#45;&gt;Node2</title>
<path fill="none" stroke="midnightblue" d="M87.5,-112.4C87.5,-104.47 87.5,-94.46 87.5,-85.86"/>
<polygon fill="midnightblue" stroke="midnightblue" points="91,-85.66 87.5,-75.66 84,-85.66 91,-85.66"/>
</g>
<!-- Node3 -->
<g id="node3" class="node">
<title>Node3</title>
<g id="a_node3"><a xlink:title=" ">
<polygon fill="white" stroke="#bfbfbf" points="0,-0.5 0,-19.5 47,-19.5 47,-0.5 0,-0.5"/>
<text text-anchor="middle" x="23.5" y="-7.5" font-family="Helvetica,sans-Serif" font-size="10.00">vector</text>
</a>
</g>
</g>
<!-- Node2&#45;&gt;Node3 -->
<g id="edge2" class="edge">
<title>Node2&#45;&gt;Node3</title>
<path fill="none" stroke="midnightblue" d="M77.22,-56.32C67.66,-48.26 53.22,-36.08 41.72,-26.37"/>
<polygon fill="midnightblue" stroke="midnightblue" points="43.87,-23.61 33.97,-19.83 39.36,-28.96 43.87,-23.61"/>
</g>
<!-- Node4 -->
<g id="node4" class="node">
<title>Node4</title>
<g id="a_node4"><a xlink:title=" ">
<polygon fill="white" stroke="#bfbfbf" points="65.5,-0.5 65.5,-19.5 109.5,-19.5 109.5,-0.5 65.5,-0.5"/>
<text text-anchor="middle" x="87.5" y="-7.5" font-family="Helvetica,sans-Serif" font-size="10.00">string</text>
</a>
</g>
</g>
<!-- Node2&#45;&gt;Node4 -->
<g id="edge3" class="edge">
<title>Node2&#45;&gt;Node4</title>
<path fill="none" stroke="midnightblue" d="M87.5,-56.08C87.5,-49.01 87.5,-38.86 87.5,-29.99"/>
<polygon fill="midnightblue" stroke="midnightblue" points="91,-29.75 87.5,-19.75 84,-29.75 91,-29.75"/>
</g>
<!-- Node5 -->
<g id="node5" class="node">
<title>Node5</title>
<g id="a_node5"><a xlink:title=" ">
<polygon fill="white" stroke="#bfbfbf" points="128,-0.5 128,-19.5 193,-19.5 193,-0.5 128,-0.5"/>
<text text-anchor="middle" x="160.5" y="-7.5" font-family="Helvetica,sans-Serif" font-size="10.00">typeindex</text>
</a>
</g>
</g>
<!-- Node2&#45;&gt;Node5 -->
<g id="edge4" class="edge">
<title>Node2&#45;&gt;Node5</title>
<path fill="none" stroke="midnightblue" d="M99.23,-56.32C110.34,-48.11 127.24,-35.6 140.48,-25.81"/>
<polygon fill="midnightblue" stroke="midnightblue" points="142.6,-28.59 148.56,-19.83 138.44,-22.97 142.6,-28.59"/>
</g>
</g>
</svg>
