<?xml version="1.0" encoding="UTF-8" standalone="no"?>
<!DOCTYPE svg PUBLIC "-//W3C//DTD SVG 1.1//EN"
 "http://www.w3.org/Graphics/SVG/1.1/DTD/svg11.dtd">
<!-- Generated by graphviz version 2.43.0 (0)
 -->
<!-- Title: sources/Component/Controllable/ControllableComponent.hpp Pages: 1 -->
<svg width="1029pt" height="207pt"
 viewBox="0.00 0.00 1029.00 207.00" xmlns="http://www.w3.org/2000/svg" xmlns:xlink="http://www.w3.org/1999/xlink">
<g id="graph0" class="graph" transform="scale(1 1) rotate(0) translate(4 203)">
<title>sources/Component/Controllable/ControllableComponent.hpp</title>
<polygon fill="white" stroke="transparent" points="-4,4 -4,-203 1025,-203 1025,4 -4,4"/>
<!-- Node1 -->
<g id="node1" class="node">
<title>Node1</title>
<g id="a_node1"><a xlink:title=" ">
<polygon fill="#bfbfbf" stroke="black" points="394,-168.5 394,-198.5 570,-198.5 570,-168.5 394,-168.5"/>
<text text-anchor="start" x="402" y="-186.5" font-family="Helvetica,sans-Serif" font-size="10.00">sources/Component/Controllable</text>
<text text-anchor="middle" x="482" y="-175.5" font-family="Helvetica,sans-Serif" font-size="10.00">/ControllableComponent.hpp</text>
</a>
</g>
</g>
<!-- Node2 -->
<g id="node2" class="node">
<title>Node2</title>
<g id="a_node2"><a xlink:href="sources_2Models_2Vector2_8hpp.html" target="_top" xlink:title=" ">
<polygon fill="white" stroke="black" points="93.5,-112.5 93.5,-131.5 206.5,-131.5 206.5,-112.5 93.5,-112.5"/>
<text text-anchor="middle" x="150" y="-119.5" font-family="Helvetica,sans-Serif" font-size="10.00">Models/Vector2.hpp</text>
</a>
</g>
</g>
<!-- Node1&#45;&gt;Node2 -->
<g id="edge1" class="edge">
<title>Node1&#45;&gt;Node2</title>
<path fill="none" stroke="midnightblue" d="M403.74,-168.47C343.59,-157.69 261.86,-143.05 207.6,-133.32"/>
<polygon fill="midnightblue" stroke="midnightblue" points="207.92,-129.83 197.46,-131.51 206.69,-136.72 207.92,-129.83"/>
</g>
<!-- Node7 -->
<g id="node7" class="node">
<title>Node7</title>
<g id="a_node7"><a xlink:href="Component_8hpp.html" target="_top" xlink:title=" ">
<polygon fill="white" stroke="black" points="270.5,-56.5 270.5,-75.5 423.5,-75.5 423.5,-56.5 270.5,-56.5"/>
<text text-anchor="middle" x="347" y="-63.5" font-family="Helvetica,sans-Serif" font-size="10.00">Component/Component.hpp</text>
</a>
</g>
</g>
<!-- Node1&#45;&gt;Node7 -->
<g id="edge6" class="edge">
<title>Node1&#45;&gt;Node7</title>
<path fill="none" stroke="midnightblue" d="M465.45,-168.34C439.91,-146.49 391.1,-104.73 364.82,-82.24"/>
<polygon fill="midnightblue" stroke="midnightblue" points="367.01,-79.51 357.13,-75.67 362.46,-84.83 367.01,-79.51"/>
</g>
<!-- Node11 -->
<g id="node11" class="node">
<title>Node11</title>
<g id="a_node11"><a xlink:href="Entity_8hpp.html" target="_top" xlink:title=" ">
<polygon fill="white" stroke="black" points="479,-112.5 479,-131.5 575,-131.5 575,-112.5 479,-112.5"/>
<text text-anchor="middle" x="527" y="-119.5" font-family="Helvetica,sans-Serif" font-size="10.00">Entity/Entity.hpp</text>
</a>
</g>
</g>
<!-- Node1&#45;&gt;Node11 -->
<g id="edge10" class="edge">
<title>Node1&#45;&gt;Node11</title>
<path fill="none" stroke="midnightblue" d="M492.66,-168.4C499.14,-159.84 507.43,-148.87 514.25,-139.86"/>
<polygon fill="midnightblue" stroke="midnightblue" points="517.21,-141.74 520.45,-131.66 511.63,-137.52 517.21,-141.74"/>
</g>
<!-- Node19 -->
<g id="node19" class="node">
<title>Node19</title>
<g id="a_node19"><a xlink:title=" ">
<polygon fill="white" stroke="#bfbfbf" points="593,-112.5 593,-131.5 643,-131.5 643,-112.5 593,-112.5"/>
<text text-anchor="middle" x="618" y="-119.5" font-family="Helvetica,sans-Serif" font-size="10.00">chrono</text>
</a>
</g>
</g>
<!-- Node1&#45;&gt;Node19 -->
<g id="edge21" class="edge">
<title>Node1&#45;&gt;Node19</title>
<path fill="none" stroke="midnightblue" d="M514.23,-168.4C536.84,-158.51 566.84,-145.38 588.76,-135.79"/>
<polygon fill="midnightblue" stroke="midnightblue" points="590.45,-138.87 598.21,-131.66 587.65,-132.46 590.45,-138.87"/>
</g>
<!-- Node3 -->
<g id="node3" class="node">
<title>Node3</title>
<g id="a_node3"><a xlink:title=" ">
<polygon fill="white" stroke="#bfbfbf" points="0,-56.5 0,-75.5 60,-75.5 60,-56.5 0,-56.5"/>
<text text-anchor="middle" x="30" y="-63.5" font-family="Helvetica,sans-Serif" font-size="10.00">iostream</text>
</a>
</g>
</g>
<!-- Node2&#45;&gt;Node3 -->
<g id="edge2" class="edge">
<title>Node2&#45;&gt;Node3</title>
<path fill="none" stroke="midnightblue" d="M130.99,-112.44C111.41,-103.64 80.69,-89.81 58.27,-79.72"/>
<polygon fill="midnightblue" stroke="midnightblue" points="59.48,-76.43 48.93,-75.52 56.61,-82.81 59.48,-76.43"/>
</g>
<!-- Node4 -->
<g id="node4" class="node">
<title>Node4</title>
<g id="a_node4"><a xlink:title=" ">
<polygon fill="white" stroke="#bfbfbf" points="78.5,-56.5 78.5,-75.5 125.5,-75.5 125.5,-56.5 78.5,-56.5"/>
<text text-anchor="middle" x="102" y="-63.5" font-family="Helvetica,sans-Serif" font-size="10.00">cmath</text>
</a>
</g>
</g>
<!-- Node2&#45;&gt;Node4 -->
<g id="edge3" class="edge">
<title>Node2&#45;&gt;Node4</title>
<path fill="none" stroke="midnightblue" d="M142.07,-112.08C135.15,-104.3 124.93,-92.8 116.55,-83.37"/>
<polygon fill="midnightblue" stroke="midnightblue" points="119.04,-80.9 109.78,-75.75 113.81,-85.55 119.04,-80.9"/>
</g>
<!-- Node5 -->
<g id="node5" class="node">
<title>Node5</title>
<g id="a_node5"><a xlink:href="lib_2Ray_2sources_2Vector_2Vector2_8hpp.html" target="_top" xlink:title=" ">
<polygon fill="white" stroke="black" points="144,-56.5 144,-75.5 252,-75.5 252,-56.5 144,-56.5"/>
<text text-anchor="middle" x="198" y="-63.5" font-family="Helvetica,sans-Serif" font-size="10.00">Vector/Vector2.hpp</text>
</a>
</g>
</g>
<!-- Node2&#45;&gt;Node5 -->
<g id="edge4" class="edge">
<title>Node2&#45;&gt;Node5</title>
<path fill="none" stroke="midnightblue" d="M157.93,-112.08C164.85,-104.3 175.07,-92.8 183.45,-83.37"/>
<polygon fill="midnightblue" stroke="midnightblue" points="186.19,-85.55 190.22,-75.75 180.96,-80.9 186.19,-85.55"/>
</g>
<!-- Node6 -->
<g id="node6" class="node">
<title>Node6</title>
<g id="a_node6"><a xlink:title=" ">
<polygon fill="white" stroke="#bfbfbf" points="171.5,-0.5 171.5,-19.5 224.5,-19.5 224.5,-0.5 171.5,-0.5"/>
<text text-anchor="middle" x="198" y="-7.5" font-family="Helvetica,sans-Serif" font-size="10.00">raylib.h</text>
</a>
</g>
</g>
<!-- Node5&#45;&gt;Node6 -->
<g id="edge5" class="edge">
<title>Node5&#45;&gt;Node6</title>
<path fill="none" stroke="midnightblue" d="M198,-56.08C198,-49.01 198,-38.86 198,-29.99"/>
<polygon fill="midnightblue" stroke="midnightblue" points="201.5,-29.75 198,-19.75 194.5,-29.75 201.5,-29.75"/>
</g>
<!-- Node8 -->
<g id="node8" class="node">
<title>Node8</title>
<g id="a_node8"><a xlink:title=" ">
<polygon fill="white" stroke="#bfbfbf" points="265.5,-0.5 265.5,-19.5 312.5,-19.5 312.5,-0.5 265.5,-0.5"/>
<text text-anchor="middle" x="289" y="-7.5" font-family="Helvetica,sans-Serif" font-size="10.00">vector</text>
</a>
</g>
</g>
<!-- Node7&#45;&gt;Node8 -->
<g id="edge7" class="edge">
<title>Node7&#45;&gt;Node8</title>
<path fill="none" stroke="midnightblue" d="M337.68,-56.32C329.11,-48.34 316.19,-36.31 305.81,-26.65"/>
<polygon fill="midnightblue" stroke="midnightblue" points="308.19,-24.09 298.49,-19.83 303.42,-29.21 308.19,-24.09"/>
</g>
<!-- Node9 -->
<g id="node9" class="node">
<title>Node9</title>
<g id="a_node9"><a xlink:title=" ">
<polygon fill="white" stroke="#bfbfbf" points="430,-0.5 430,-19.5 474,-19.5 474,-0.5 430,-0.5"/>
<text text-anchor="middle" x="452" y="-7.5" font-family="Helvetica,sans-Serif" font-size="10.00">string</text>
</a>
</g>
</g>
<!-- Node7&#45;&gt;Node9 -->
<g id="edge8" class="edge">
<title>Node7&#45;&gt;Node9</title>
<path fill="none" stroke="midnightblue" d="M363.87,-56.32C380.71,-47.66 406.81,-34.24 426.24,-24.25"/>
<polygon fill="midnightblue" stroke="midnightblue" points="427.88,-27.34 435.17,-19.65 424.68,-21.12 427.88,-27.34"/>
</g>
<!-- Node10 -->
<g id="node10" class="node">
<title>Node10</title>
<g id="a_node10"><a xlink:title=" ">
<polygon fill="white" stroke="#bfbfbf" points="330.5,-0.5 330.5,-19.5 395.5,-19.5 395.5,-0.5 330.5,-0.5"/>
<text text-anchor="middle" x="363" y="-7.5" font-family="Helvetica,sans-Serif" font-size="10.00">typeindex</text>
</a>
</g>
</g>
<!-- Node7&#45;&gt;Node10 -->
<g id="edge9" class="edge">
<title>Node7&#45;&gt;Node10</title>
<path fill="none" stroke="midnightblue" d="M349.64,-56.08C351.79,-48.85 354.88,-38.41 357.55,-29.4"/>
<polygon fill="midnightblue" stroke="midnightblue" points="360.92,-30.33 360.41,-19.75 354.21,-28.34 360.92,-30.33"/>
</g>
<!-- Node11&#45;&gt;Node7 -->
<g id="edge15" class="edge">
<title>Node11&#45;&gt;Node7</title>
<path fill="none" stroke="midnightblue" d="M498.48,-112.44C467.93,-103.28 419.29,-88.69 385.4,-78.52"/>
<polygon fill="midnightblue" stroke="midnightblue" points="385.97,-75.04 375.39,-75.52 383.96,-81.74 385.97,-75.04"/>
</g>
<!-- Node11&#45;&gt;Node9 -->
<g id="edge11" class="edge">
<title>Node11&#45;&gt;Node9</title>
<path fill="none" stroke="midnightblue" d="M511.75,-112.4C499.07,-104.5 481.46,-91.66 471,-76 461.71,-62.1 456.88,-43.59 454.42,-29.88"/>
<polygon fill="midnightblue" stroke="midnightblue" points="457.83,-29.05 452.86,-19.69 450.91,-30.11 457.83,-29.05"/>
</g>
<!-- Node12 -->
<g id="node12" class="node">
<title>Node12</title>
<g id="a_node12"><a xlink:title=" ">
<polygon fill="white" stroke="#bfbfbf" points="480.5,-56.5 480.5,-75.5 573.5,-75.5 573.5,-56.5 480.5,-56.5"/>
<text text-anchor="middle" x="527" y="-63.5" font-family="Helvetica,sans-Serif" font-size="10.00">unordered_map</text>
</a>
</g>
</g>
<!-- Node11&#45;&gt;Node12 -->
<g id="edge12" class="edge">
<title>Node11&#45;&gt;Node12</title>
<path fill="none" stroke="midnightblue" d="M527,-112.08C527,-105.01 527,-94.86 527,-85.99"/>
<polygon fill="midnightblue" stroke="midnightblue" points="530.5,-85.75 527,-75.75 523.5,-85.75 530.5,-85.75"/>
</g>
<!-- Node13 -->
<g id="node13" class="node">
<title>Node13</title>
<g id="a_node13"><a xlink:title=" ">
<polygon fill="white" stroke="#bfbfbf" points="591.5,-56.5 591.5,-75.5 648.5,-75.5 648.5,-56.5 591.5,-56.5"/>
<text text-anchor="middle" x="620" y="-63.5" font-family="Helvetica,sans-Serif" font-size="10.00">typeinfo</text>
</a>
</g>
</g>
<!-- Node11&#45;&gt;Node13 -->
<g id="edge13" class="edge">
<title>Node11&#45;&gt;Node13</title>
<path fill="none" stroke="midnightblue" d="M541.94,-112.32C556.59,-103.82 579.13,-90.73 596.24,-80.8"/>
<polygon fill="midnightblue" stroke="midnightblue" points="598.2,-83.7 605.1,-75.65 594.69,-77.65 598.2,-83.7"/>
</g>
<!-- Node14 -->
<g id="node14" class="node">
<title>Node14</title>
<g id="a_node14"><a xlink:title=" ">
<polygon fill="white" stroke="#bfbfbf" points="667,-56.5 667,-75.5 725,-75.5 725,-56.5 667,-56.5"/>
<text text-anchor="middle" x="696" y="-63.5" font-family="Helvetica,sans-Serif" font-size="10.00">memory</text>
</a>
</g>
</g>
<!-- Node11&#45;&gt;Node14 -->
<g id="edge14" class="edge">
<title>Node11&#45;&gt;Node14</title>
<path fill="none" stroke="midnightblue" d="M553.78,-112.44C582.33,-103.32 627.73,-88.81 659.54,-78.65"/>
<polygon fill="midnightblue" stroke="midnightblue" points="660.89,-81.89 669.35,-75.52 658.76,-75.23 660.89,-81.89"/>
</g>
<!-- Node15 -->
<g id="node15" class="node">
<title>Node15</title>
<g id="a_node15"><a xlink:href="WalError_8hpp.html" target="_top" xlink:title=" ">
<polygon fill="white" stroke="black" points="743.5,-56.5 743.5,-75.5 872.5,-75.5 872.5,-56.5 743.5,-56.5"/>
<text text-anchor="middle" x="808" y="-63.5" font-family="Helvetica,sans-Serif" font-size="10.00">Exception/WalError.hpp</text>
</a>
</g>
</g>
<!-- Node11&#45;&gt;Node15 -->
<g id="edge16" class="edge">
<title>Node11&#45;&gt;Node15</title>
<path fill="none" stroke="midnightblue" d="M571.53,-112.44C620.96,-102.94 700.75,-87.61 753.78,-77.42"/>
<polygon fill="midnightblue" stroke="midnightblue" points="754.52,-80.84 763.68,-75.52 753.2,-73.97 754.52,-80.84"/>
</g>
<!-- Node18 -->
<g id="node18" class="node">
<title>Node18</title>
<g id="a_node18"><a xlink:href="TypeHolder_8hpp.html" target="_top" xlink:title=" ">
<polygon fill="white" stroke="black" points="891,-56.5 891,-75.5 1021,-75.5 1021,-56.5 891,-56.5"/>
<text text-anchor="middle" x="956" y="-63.5" font-family="Helvetica,sans-Serif" font-size="10.00">Models/TypeHolder.hpp</text>
</a>
</g>
</g>
<!-- Node11&#45;&gt;Node18 -->
<g id="edge20" class="edge">
<title>Node11&#45;&gt;Node18</title>
<path fill="none" stroke="midnightblue" d="M575.18,-113.27C578.17,-112.83 581.12,-112.4 584,-112 712.91,-94.04 747.87,-92.14 880.49,-76.18"/>
<polygon fill="midnightblue" stroke="midnightblue" points="881.12,-79.63 890.63,-74.95 880.28,-72.68 881.12,-79.63"/>
</g>
<!-- Node15&#45;&gt;Node9 -->
<g id="edge19" class="edge">
<title>Node15&#45;&gt;Node9</title>
<path fill="none" stroke="midnightblue" d="M751.59,-56.44C676.13,-45 544.82,-25.08 484.27,-15.9"/>
<polygon fill="midnightblue" stroke="midnightblue" points="484.57,-12.4 474.16,-14.36 483.52,-19.32 484.57,-12.4"/>
</g>
<!-- Node16 -->
<g id="node16" class="node">
<title>Node16</title>
<g id="a_node16"><a xlink:title=" ">
<polygon fill="white" stroke="#bfbfbf" points="733.5,-0.5 733.5,-19.5 798.5,-19.5 798.5,-0.5 733.5,-0.5"/>
<text text-anchor="middle" x="766" y="-7.5" font-family="Helvetica,sans-Serif" font-size="10.00">exception</text>
</a>
</g>
</g>
<!-- Node15&#45;&gt;Node16 -->
<g id="edge17" class="edge">
<title>Node15&#45;&gt;Node16</title>
<path fill="none" stroke="midnightblue" d="M801.06,-56.08C795.07,-48.38 786.25,-37.03 778.95,-27.65"/>
<polygon fill="midnightblue" stroke="midnightblue" points="781.71,-25.5 772.81,-19.75 776.18,-29.79 781.71,-25.5"/>
</g>
<!-- Node17 -->
<g id="node17" class="node">
<title>Node17</title>
<g id="a_node17"><a xlink:title=" ">
<polygon fill="white" stroke="#bfbfbf" points="816.5,-0.5 816.5,-19.5 881.5,-19.5 881.5,-0.5 816.5,-0.5"/>
<text text-anchor="middle" x="849" y="-7.5" font-family="Helvetica,sans-Serif" font-size="10.00">stdexcept</text>
</a>
</g>
</g>
<!-- Node15&#45;&gt;Node17 -->
<g id="edge18" class="edge">
<title>Node15&#45;&gt;Node17</title>
<path fill="none" stroke="midnightblue" d="M814.77,-56.08C820.56,-48.46 829.06,-37.26 836.14,-27.94"/>
<polygon fill="midnightblue" stroke="midnightblue" points="839.1,-29.83 842.36,-19.75 833.52,-25.6 839.1,-29.83"/>
</g>
</g>
</svg>
