<?xml version="1.0" encoding="UTF-8" standalone="no"?>
<!DOCTYPE svg PUBLIC "-//W3C//DTD SVG 1.1//EN"
 "http://www.w3.org/Graphics/SVG/1.1/DTD/svg11.dtd">
<!-- Generated by graphviz version 2.43.0 (0)
 -->
<!-- Title: sources/System/Controllable/ControllableSystem.cpp Pages: 1 -->
<svg width="1433pt" height="498pt"
 viewBox="0.00 0.00 1433.22 498.00" xmlns="http://www.w3.org/2000/svg" xmlns:xlink="http://www.w3.org/1999/xlink">
<g id="graph0" class="graph" transform="scale(1 1) rotate(0) translate(4 494)">
<title>sources/System/Controllable/ControllableSystem.cpp</title>
<polygon fill="white" stroke="transparent" points="-4,4 -4,-494 1429.22,-494 1429.22,4 -4,4"/>
<!-- Node1 -->
<g id="node1" class="node">
<title>Node1</title>
<g id="a_node1"><a xlink:title=" ">
<polygon fill="#bfbfbf" stroke="black" points="615.22,-459.5 615.22,-489.5 771.22,-489.5 771.22,-459.5 615.22,-459.5"/>
<text text-anchor="start" x="623.22" y="-477.5" font-family="Helvetica,sans-Serif" font-size="10.00">sources/System/Controllable</text>
<text text-anchor="middle" x="693.22" y="-466.5" font-family="Helvetica,sans-Serif" font-size="10.00">/ControllableSystem.cpp</text>
</a>
</g>
</g>
<!-- Node2 -->
<g id="node2" class="node">
<title>Node2</title>
<g id="a_node2"><a xlink:href="ControllableSystem_8hpp.html" target="_top" xlink:title=" ">
<polygon fill="white" stroke="black" points="502.22,-403.5 502.22,-422.5 636.22,-422.5 636.22,-403.5 502.22,-403.5"/>
<text text-anchor="middle" x="569.22" y="-410.5" font-family="Helvetica,sans-Serif" font-size="10.00">ControllableSystem.hpp</text>
</a>
</g>
</g>
<!-- Node1&#45;&gt;Node2 -->
<g id="edge1" class="edge">
<title>Node1&#45;&gt;Node2</title>
<path fill="none" stroke="midnightblue" d="M663.83,-459.4C643.4,-449.59 616.36,-436.62 596.42,-427.05"/>
<polygon fill="midnightblue" stroke="midnightblue" points="597.79,-423.83 587.26,-422.66 594.76,-430.14 597.79,-423.83"/>
</g>
<!-- Node3 -->
<g id="node3" class="node">
<title>Node3</title>
<g id="a_node3"><a xlink:href="MovableComponent_8hpp.html" target="_top" xlink:title=" ">
<polygon fill="white" stroke="black" points="195.72,-336.5 195.72,-366.5 358.72,-366.5 358.72,-336.5 195.72,-336.5"/>
<text text-anchor="start" x="203.72" y="-354.5" font-family="Helvetica,sans-Serif" font-size="10.00">Component/Movable/Movable</text>
<text text-anchor="middle" x="277.22" y="-343.5" font-family="Helvetica,sans-Serif" font-size="10.00">Component.hpp</text>
</a>
</g>
</g>
<!-- Node1&#45;&gt;Node3 -->
<g id="edge68" class="edge">
<title>Node1&#45;&gt;Node3</title>
<path fill="none" stroke="midnightblue" d="M632.98,-459.42C593.13,-449.83 539.83,-436.48 493.22,-423 435.79,-406.4 370.66,-384.75 327.08,-369.84"/>
<polygon fill="midnightblue" stroke="midnightblue" points="328.16,-366.52 317.57,-366.58 325.89,-373.14 328.16,-366.52"/>
</g>
<!-- Node21 -->
<g id="node21" class="node">
<title>Node21</title>
<g id="a_node21"><a xlink:href="ControllableComponent_8hpp.html" target="_top" xlink:title=" ">
<polygon fill="white" stroke="black" points="615.22,-336.5 615.22,-366.5 771.22,-366.5 771.22,-336.5 615.22,-336.5"/>
<text text-anchor="start" x="623.22" y="-354.5" font-family="Helvetica,sans-Serif" font-size="10.00">Component/Controllable</text>
<text text-anchor="middle" x="693.22" y="-343.5" font-family="Helvetica,sans-Serif" font-size="10.00">/ControllableComponent.hpp</text>
</a>
</g>
</g>
<!-- Node1&#45;&gt;Node21 -->
<g id="edge69" class="edge">
<title>Node1&#45;&gt;Node21</title>
<path fill="none" stroke="midnightblue" d="M693.22,-459.14C693.22,-438.86 693.22,-401.53 693.22,-376.86"/>
<polygon fill="midnightblue" stroke="midnightblue" points="696.72,-376.84 693.22,-366.84 689.72,-376.84 696.72,-376.84"/>
</g>
<!-- Node36 -->
<g id="node36" class="node">
<title>Node36</title>
<g id="a_node36"><a xlink:href="SpeedComponent_8hpp.html" target="_top" xlink:title=" ">
<polygon fill="white" stroke="black" points="1133.22,-403.5 1133.22,-422.5 1349.22,-422.5 1349.22,-403.5 1133.22,-403.5"/>
<text text-anchor="middle" x="1241.22" y="-410.5" font-family="Helvetica,sans-Serif" font-size="10.00">Component/Speed/SpeedComponent.hpp</text>
</a>
</g>
</g>
<!-- Node1&#45;&gt;Node36 -->
<g id="edge70" class="edge">
<title>Node1&#45;&gt;Node36</title>
<path fill="none" stroke="midnightblue" d="M771.44,-465.01C872.28,-454.06 1047.18,-435.07 1152.76,-423.6"/>
<polygon fill="midnightblue" stroke="midnightblue" points="1153.19,-427.08 1162.76,-422.52 1152.44,-420.12 1153.19,-427.08"/>
</g>
<!-- Node37 -->
<g id="node37" class="node">
<title>Node37</title>
<g id="a_node37"><a xlink:href="HealthComponent_8hpp.html" target="_top" xlink:title=" ">
<polygon fill="white" stroke="black" points="1044.72,-342 1044.72,-361 1265.72,-361 1265.72,-342 1044.72,-342"/>
<text text-anchor="middle" x="1155.22" y="-349" font-family="Helvetica,sans-Serif" font-size="10.00">Component/Health/HealthComponent.hpp</text>
</a>
</g>
</g>
<!-- Node1&#45;&gt;Node37 -->
<g id="edge72" class="edge">
<title>Node1&#45;&gt;Node37</title>
<path fill="none" stroke="midnightblue" d="M747.12,-459.38C840.1,-435.03 1028.74,-385.62 1112.96,-363.57"/>
<polygon fill="midnightblue" stroke="midnightblue" points="1113.91,-366.94 1122.7,-361.02 1112.14,-360.16 1113.91,-366.94"/>
</g>
<!-- Node2&#45;&gt;Node3 -->
<g id="edge2" class="edge">
<title>Node2&#45;&gt;Node3</title>
<path fill="none" stroke="midnightblue" d="M527.38,-403.48C482.84,-394.4 411.32,-379.83 356.14,-368.58"/>
<polygon fill="midnightblue" stroke="midnightblue" points="356.53,-365.09 346.03,-366.52 355.13,-371.95 356.53,-365.09"/>
</g>
<!-- Node2&#45;&gt;Node21 -->
<g id="edge22" class="edge">
<title>Node2&#45;&gt;Node21</title>
<path fill="none" stroke="midnightblue" d="M586.98,-403.48C604.64,-395 632.28,-381.74 654.95,-370.86"/>
<polygon fill="midnightblue" stroke="midnightblue" points="656.49,-374 663.99,-366.52 653.46,-367.69 656.49,-374"/>
</g>
<!-- Node25 -->
<g id="node25" class="node">
<title>Node25</title>
<g id="a_node25"><a xlink:href="System_8hpp.html" target="_top" xlink:title=" ">
<polygon fill="white" stroke="black" points="483.22,-342 483.22,-361 597.22,-361 597.22,-342 483.22,-342"/>
<text text-anchor="middle" x="540.22" y="-349" font-family="Helvetica,sans-Serif" font-size="10.00">System/System.hpp</text>
</a>
</g>
</g>
<!-- Node2&#45;&gt;Node25 -->
<g id="edge31" class="edge">
<title>Node2&#45;&gt;Node25</title>
<path fill="none" stroke="midnightblue" d="M565.06,-403.48C560.84,-394.82 554.18,-381.15 548.82,-370.15"/>
<polygon fill="midnightblue" stroke="midnightblue" points="551.89,-368.46 544.36,-361.01 545.6,-371.53 551.89,-368.46"/>
</g>
<!-- Node4 -->
<g id="node4" class="node">
<title>Node4</title>
<g id="a_node4"><a xlink:href="sources_2Models_2Vector3_8hpp.html" target="_top" xlink:title=" ">
<polygon fill="white" stroke="black" points="114.72,-280.5 114.72,-299.5 227.72,-299.5 227.72,-280.5 114.72,-280.5"/>
<text text-anchor="middle" x="171.22" y="-287.5" font-family="Helvetica,sans-Serif" font-size="10.00">Models/Vector3.hpp</text>
</a>
</g>
</g>
<!-- Node3&#45;&gt;Node4 -->
<g id="edge3" class="edge">
<title>Node3&#45;&gt;Node4</title>
<path fill="none" stroke="midnightblue" d="M252.1,-336.4C234.95,-326.77 212.35,-314.09 195.4,-304.58"/>
<polygon fill="midnightblue" stroke="midnightblue" points="197.07,-301.5 186.64,-299.66 193.65,-307.6 197.07,-301.5"/>
</g>
<!-- Node9 -->
<g id="node9" class="node">
<title>Node9</title>
<g id="a_node9"><a xlink:href="Entity_8hpp.html" target="_top" xlink:title=" ">
<polygon fill="white" stroke="black" points="594.22,-112.5 594.22,-131.5 690.22,-131.5 690.22,-112.5 594.22,-112.5"/>
<text text-anchor="middle" x="642.22" y="-119.5" font-family="Helvetica,sans-Serif" font-size="10.00">Entity/Entity.hpp</text>
</a>
</g>
</g>
<!-- Node3&#45;&gt;Node9 -->
<g id="edge8" class="edge">
<title>Node3&#45;&gt;Node9</title>
<path fill="none" stroke="midnightblue" d="M195.69,-342.01C99.81,-328.59 -40.19,-296.16 11.22,-224 77,-131.66 439.95,-122.39 583.63,-122.4"/>
<polygon fill="midnightblue" stroke="midnightblue" points="583.99,-125.9 594,-122.42 584,-118.9 583.99,-125.9"/>
</g>
<!-- Node5 -->
<g id="node5" class="node">
<title>Node5</title>
<g id="a_node5"><a xlink:title=" ">
<polygon fill="white" stroke="#bfbfbf" points="146.22,-224.5 146.22,-243.5 206.22,-243.5 206.22,-224.5 146.22,-224.5"/>
<text text-anchor="middle" x="176.22" y="-231.5" font-family="Helvetica,sans-Serif" font-size="10.00">iostream</text>
</a>
</g>
</g>
<!-- Node4&#45;&gt;Node5 -->
<g id="edge4" class="edge">
<title>Node4&#45;&gt;Node5</title>
<path fill="none" stroke="midnightblue" d="M172.04,-280.08C172.7,-273.01 173.64,-262.86 174.46,-253.99"/>
<polygon fill="midnightblue" stroke="midnightblue" points="177.97,-254.03 175.41,-243.75 171,-253.39 177.97,-254.03"/>
</g>
<!-- Node6 -->
<g id="node6" class="node">
<title>Node6</title>
<g id="a_node6"><a xlink:title=" ">
<polygon fill="white" stroke="#bfbfbf" points="224.72,-224.5 224.72,-243.5 271.72,-243.5 271.72,-224.5 224.72,-224.5"/>
<text text-anchor="middle" x="248.22" y="-231.5" font-family="Helvetica,sans-Serif" font-size="10.00">cmath</text>
</a>
</g>
</g>
<!-- Node4&#45;&gt;Node6 -->
<g id="edge5" class="edge">
<title>Node4&#45;&gt;Node6</title>
<path fill="none" stroke="midnightblue" d="M183.59,-280.32C195.37,-272.06 213.35,-259.45 227.35,-249.63"/>
<polygon fill="midnightblue" stroke="midnightblue" points="229.7,-252.26 235.88,-243.65 225.68,-246.53 229.7,-252.26"/>
</g>
<!-- Node7 -->
<g id="node7" class="node">
<title>Node7</title>
<g id="a_node7"><a xlink:href="lib_2Ray_2sources_2Vector_2Vector3_8hpp.html" target="_top" xlink:title=" ">
<polygon fill="white" stroke="black" points="20.22,-224.5 20.22,-243.5 128.22,-243.5 128.22,-224.5 20.22,-224.5"/>
<text text-anchor="middle" x="74.22" y="-231.5" font-family="Helvetica,sans-Serif" font-size="10.00">Vector/Vector3.hpp</text>
</a>
</g>
</g>
<!-- Node4&#45;&gt;Node7 -->
<g id="edge6" class="edge">
<title>Node4&#45;&gt;Node7</title>
<path fill="none" stroke="midnightblue" d="M155.63,-280.32C140.22,-271.74 116.4,-258.49 98.51,-248.52"/>
<polygon fill="midnightblue" stroke="midnightblue" points="100.2,-245.46 89.76,-243.65 96.8,-251.58 100.2,-245.46"/>
</g>
<!-- Node8 -->
<g id="node8" class="node">
<title>Node8</title>
<g id="a_node8"><a xlink:title=" ">
<polygon fill="white" stroke="#bfbfbf" points="182.72,-168.5 182.72,-187.5 235.72,-187.5 235.72,-168.5 182.72,-168.5"/>
<text text-anchor="middle" x="209.22" y="-175.5" font-family="Helvetica,sans-Serif" font-size="10.00">raylib.h</text>
</a>
</g>
</g>
<!-- Node7&#45;&gt;Node8 -->
<g id="edge7" class="edge">
<title>Node7&#45;&gt;Node8</title>
<path fill="none" stroke="midnightblue" d="M95.61,-224.44C117.92,-215.52 153.12,-201.44 178.42,-191.32"/>
<polygon fill="midnightblue" stroke="midnightblue" points="179.94,-194.48 187.93,-187.52 177.34,-187.98 179.94,-194.48"/>
</g>
<!-- Node10 -->
<g id="node10" class="node">
<title>Node10</title>
<g id="a_node10"><a xlink:title=" ">
<polygon fill="white" stroke="#bfbfbf" points="990.22,-0.5 990.22,-19.5 1034.22,-19.5 1034.22,-0.5 990.22,-0.5"/>
<text text-anchor="middle" x="1012.22" y="-7.5" font-family="Helvetica,sans-Serif" font-size="10.00">string</text>
</a>
</g>
</g>
<!-- Node9&#45;&gt;Node10 -->
<g id="edge9" class="edge">
<title>Node9&#45;&gt;Node10</title>
<path fill="none" stroke="midnightblue" d="M690.48,-113.21C757.97,-102.18 874.43,-82.62 893.22,-76 898.17,-74.26 954,-43.38 987.4,-24.82"/>
<polygon fill="midnightblue" stroke="midnightblue" points="989.53,-27.64 996.57,-19.72 986.13,-21.52 989.53,-27.64"/>
</g>
<!-- Node11 -->
<g id="node11" class="node">
<title>Node11</title>
<g id="a_node11"><a xlink:title=" ">
<polygon fill="white" stroke="#bfbfbf" points="1016.72,-56.5 1016.72,-75.5 1109.72,-75.5 1109.72,-56.5 1016.72,-56.5"/>
<text text-anchor="middle" x="1063.22" y="-63.5" font-family="Helvetica,sans-Serif" font-size="10.00">unordered_map</text>
</a>
</g>
</g>
<!-- Node9&#45;&gt;Node11 -->
<g id="edge10" class="edge">
<title>Node9&#45;&gt;Node11</title>
<path fill="none" stroke="midnightblue" d="M690.3,-113.4C693.66,-112.91 696.99,-112.44 700.22,-112 833.15,-93.9 869.46,-94.85 1006.45,-76.05"/>
<polygon fill="midnightblue" stroke="midnightblue" points="1007.06,-79.5 1016.49,-74.66 1006.1,-72.57 1007.06,-79.5"/>
</g>
<!-- Node12 -->
<g id="node12" class="node">
<title>Node12</title>
<g id="a_node12"><a xlink:title=" ">
<polygon fill="white" stroke="#bfbfbf" points="530.72,-56.5 530.72,-75.5 587.72,-75.5 587.72,-56.5 530.72,-56.5"/>
<text text-anchor="middle" x="559.22" y="-63.5" font-family="Helvetica,sans-Serif" font-size="10.00">typeinfo</text>
</a>
</g>
</g>
<!-- Node9&#45;&gt;Node12 -->
<g id="edge11" class="edge">
<title>Node9&#45;&gt;Node12</title>
<path fill="none" stroke="midnightblue" d="M628.88,-112.32C616.05,-103.98 596.43,-91.21 581.28,-81.35"/>
<polygon fill="midnightblue" stroke="midnightblue" points="582.81,-78.17 572.52,-75.65 578.99,-84.04 582.81,-78.17"/>
</g>
<!-- Node13 -->
<g id="node13" class="node">
<title>Node13</title>
<g id="a_node13"><a xlink:title=" ">
<polygon fill="white" stroke="#bfbfbf" points="940.22,-56.5 940.22,-75.5 998.22,-75.5 998.22,-56.5 940.22,-56.5"/>
<text text-anchor="middle" x="969.22" y="-63.5" font-family="Helvetica,sans-Serif" font-size="10.00">memory</text>
</a>
</g>
</g>
<!-- Node9&#45;&gt;Node13 -->
<g id="edge12" class="edge">
<title>Node9&#45;&gt;Node13</title>
<path fill="none" stroke="midnightblue" d="M690.39,-113.5C765.31,-101.82 903.51,-80.17 926.22,-76 927.48,-75.77 928.77,-75.53 930.07,-75.28"/>
<polygon fill="midnightblue" stroke="midnightblue" points="930.98,-78.67 940.11,-73.29 929.62,-71.8 930.98,-78.67"/>
</g>
<!-- Node14 -->
<g id="node14" class="node">
<title>Node14</title>
<g id="a_node14"><a xlink:href="Component_8hpp.html" target="_top" xlink:title=" ">
<polygon fill="white" stroke="black" points="1204.72,-56.5 1204.72,-75.5 1357.72,-75.5 1357.72,-56.5 1204.72,-56.5"/>
<text text-anchor="middle" x="1281.22" y="-63.5" font-family="Helvetica,sans-Serif" font-size="10.00">Component/Component.hpp</text>
</a>
</g>
</g>
<!-- Node9&#45;&gt;Node14 -->
<g id="edge13" class="edge">
<title>Node9&#45;&gt;Node14</title>
<path fill="none" stroke="midnightblue" d="M690.28,-113.25C693.64,-112.8 696.98,-112.38 700.22,-112 875.08,-91.69 1080.64,-78.2 1194.39,-71.64"/>
<polygon fill="midnightblue" stroke="midnightblue" points="1194.65,-75.13 1204.44,-71.07 1194.25,-68.14 1194.65,-75.13"/>
</g>
<!-- Node17 -->
<g id="node17" class="node">
<title>Node17</title>
<g id="a_node17"><a xlink:href="WalError_8hpp.html" target="_top" xlink:title=" ">
<polygon fill="white" stroke="black" points="754.72,-56.5 754.72,-75.5 883.72,-75.5 883.72,-56.5 754.72,-56.5"/>
<text text-anchor="middle" x="819.22" y="-63.5" font-family="Helvetica,sans-Serif" font-size="10.00">Exception/WalError.hpp</text>
</a>
</g>
</g>
<!-- Node9&#45;&gt;Node17 -->
<g id="edge17" class="edge">
<title>Node9&#45;&gt;Node17</title>
<path fill="none" stroke="midnightblue" d="M670.26,-112.44C700.3,-103.28 748.13,-88.69 781.46,-78.52"/>
<polygon fill="midnightblue" stroke="midnightblue" points="782.76,-81.78 791.3,-75.52 780.72,-75.09 782.76,-81.78"/>
</g>
<!-- Node20 -->
<g id="node20" class="node">
<title>Node20</title>
<g id="a_node20"><a xlink:href="TypeHolder_8hpp.html" target="_top" xlink:title=" ">
<polygon fill="white" stroke="black" points="606.22,-56.5 606.22,-75.5 736.22,-75.5 736.22,-56.5 606.22,-56.5"/>
<text text-anchor="middle" x="671.22" y="-63.5" font-family="Helvetica,sans-Serif" font-size="10.00">Models/TypeHolder.hpp</text>
</a>
</g>
</g>
<!-- Node9&#45;&gt;Node20 -->
<g id="edge21" class="edge">
<title>Node9&#45;&gt;Node20</title>
<path fill="none" stroke="midnightblue" d="M647.01,-112.08C650.97,-104.69 656.74,-93.95 661.65,-84.81"/>
<polygon fill="midnightblue" stroke="midnightblue" points="664.87,-86.22 666.52,-75.75 658.7,-82.91 664.87,-86.22"/>
</g>
<!-- Node14&#45;&gt;Node10 -->
<g id="edge15" class="edge">
<title>Node14&#45;&gt;Node10</title>
<path fill="none" stroke="midnightblue" d="M1238.59,-56.44C1184.63,-45.61 1092.86,-27.19 1044.4,-17.46"/>
<polygon fill="midnightblue" stroke="midnightblue" points="1044.96,-14 1034.46,-15.47 1043.58,-20.87 1044.96,-14"/>
</g>
<!-- Node15 -->
<g id="node15" class="node">
<title>Node15</title>
<g id="a_node15"><a xlink:title=" ">
<polygon fill="white" stroke="#bfbfbf" points="1204.72,-0.5 1204.72,-19.5 1251.72,-19.5 1251.72,-0.5 1204.72,-0.5"/>
<text text-anchor="middle" x="1228.22" y="-7.5" font-family="Helvetica,sans-Serif" font-size="10.00">vector</text>
</a>
</g>
</g>
<!-- Node14&#45;&gt;Node15 -->
<g id="edge14" class="edge">
<title>Node14&#45;&gt;Node15</title>
<path fill="none" stroke="midnightblue" d="M1272.46,-56.08C1264.75,-48.22 1253.31,-36.57 1244,-27.08"/>
<polygon fill="midnightblue" stroke="midnightblue" points="1246.31,-24.44 1236.81,-19.75 1241.31,-29.34 1246.31,-24.44"/>
</g>
<!-- Node16 -->
<g id="node16" class="node">
<title>Node16</title>
<g id="a_node16"><a xlink:title=" ">
<polygon fill="white" stroke="#bfbfbf" points="469.72,-0.5 469.72,-19.5 534.72,-19.5 534.72,-0.5 469.72,-0.5"/>
<text text-anchor="middle" x="502.22" y="-7.5" font-family="Helvetica,sans-Serif" font-size="10.00">typeindex</text>
</a>
</g>
</g>
<!-- Node14&#45;&gt;Node16 -->
<g id="edge16" class="edge">
<title>Node14&#45;&gt;Node16</title>
<path fill="none" stroke="midnightblue" d="M1204.39,-59.67C1042.54,-48.46 671.05,-22.7 544.98,-13.96"/>
<polygon fill="midnightblue" stroke="midnightblue" points="545.16,-10.47 534.94,-13.27 544.67,-17.45 545.16,-10.47"/>
</g>
<!-- Node17&#45;&gt;Node10 -->
<g id="edge20" class="edge">
<title>Node17&#45;&gt;Node10</title>
<path fill="none" stroke="midnightblue" d="M849.8,-56.44C885.4,-46.48 943.93,-30.11 980.15,-19.97"/>
<polygon fill="midnightblue" stroke="midnightblue" points="981.5,-23.23 990.18,-17.16 979.61,-16.49 981.5,-23.23"/>
</g>
<!-- Node18 -->
<g id="node18" class="node">
<title>Node18</title>
<g id="a_node18"><a xlink:title=" ">
<polygon fill="white" stroke="#bfbfbf" points="827.72,-0.5 827.72,-19.5 892.72,-19.5 892.72,-0.5 827.72,-0.5"/>
<text text-anchor="middle" x="860.22" y="-7.5" font-family="Helvetica,sans-Serif" font-size="10.00">exception</text>
</a>
</g>
</g>
<!-- Node17&#45;&gt;Node18 -->
<g id="edge18" class="edge">
<title>Node17&#45;&gt;Node18</title>
<path fill="none" stroke="midnightblue" d="M825.99,-56.08C831.78,-48.46 840.27,-37.26 847.35,-27.94"/>
<polygon fill="midnightblue" stroke="midnightblue" points="850.31,-29.83 853.57,-19.75 844.74,-25.6 850.31,-29.83"/>
</g>
<!-- Node19 -->
<g id="node19" class="node">
<title>Node19</title>
<g id="a_node19"><a xlink:title=" ">
<polygon fill="white" stroke="#bfbfbf" points="744.72,-0.5 744.72,-19.5 809.72,-19.5 809.72,-0.5 744.72,-0.5"/>
<text text-anchor="middle" x="777.22" y="-7.5" font-family="Helvetica,sans-Serif" font-size="10.00">stdexcept</text>
</a>
</g>
</g>
<!-- Node17&#45;&gt;Node19 -->
<g id="edge19" class="edge">
<title>Node17&#45;&gt;Node19</title>
<path fill="none" stroke="midnightblue" d="M812.28,-56.08C806.29,-48.38 797.46,-37.03 790.17,-27.65"/>
<polygon fill="midnightblue" stroke="midnightblue" points="792.92,-25.5 784.02,-19.75 787.4,-29.79 792.92,-25.5"/>
</g>
<!-- Node21&#45;&gt;Node9 -->
<g id="edge29" class="edge">
<title>Node21&#45;&gt;Node9</title>
<path fill="none" stroke="midnightblue" d="M713.54,-336.16C744.07,-312.79 795.71,-264.97 771.22,-224 753.87,-194.99 731.11,-208.49 704.22,-188 685.52,-173.76 667.35,-153.75 655.56,-139.71"/>
<polygon fill="midnightblue" stroke="midnightblue" points="658.15,-137.35 649.1,-131.84 652.74,-141.79 658.15,-137.35"/>
</g>
<!-- Node21&#45;&gt;Node14 -->
<g id="edge28" class="edge">
<title>Node21&#45;&gt;Node14</title>
<path fill="none" stroke="midnightblue" d="M771.59,-348.1C854.28,-343.88 987.67,-332.22 1098.22,-300 1208.14,-267.96 1269.68,-285.19 1330.22,-188 1351.87,-153.24 1318.54,-107.27 1297.06,-83.23"/>
<polygon fill="midnightblue" stroke="midnightblue" points="1299.44,-80.64 1290.07,-75.69 1294.31,-85.4 1299.44,-80.64"/>
</g>
<!-- Node22 -->
<g id="node22" class="node">
<title>Node22</title>
<g id="a_node22"><a xlink:href="sources_2Models_2Vector2_8hpp.html" target="_top" xlink:title=" ">
<polygon fill="white" stroke="black" points="284.72,-280.5 284.72,-299.5 397.72,-299.5 397.72,-280.5 284.72,-280.5"/>
<text text-anchor="middle" x="341.22" y="-287.5" font-family="Helvetica,sans-Serif" font-size="10.00">Models/Vector2.hpp</text>
</a>
</g>
</g>
<!-- Node21&#45;&gt;Node22 -->
<g id="edge23" class="edge">
<title>Node21&#45;&gt;Node22</title>
<path fill="none" stroke="midnightblue" d="M615.1,-337.3C550.67,-326.4 460.58,-311.18 401.59,-301.2"/>
<polygon fill="midnightblue" stroke="midnightblue" points="402.11,-297.74 391.67,-299.53 400.95,-304.65 402.11,-297.74"/>
</g>
<!-- Node24 -->
<g id="node24" class="node">
<title>Node24</title>
<g id="a_node24"><a xlink:title=" ">
<polygon fill="white" stroke="#bfbfbf" points="571.22,-168.5 571.22,-187.5 621.22,-187.5 621.22,-168.5 571.22,-168.5"/>
<text text-anchor="middle" x="596.22" y="-175.5" font-family="Helvetica,sans-Serif" font-size="10.00">chrono</text>
</a>
</g>
</g>
<!-- Node21&#45;&gt;Node24 -->
<g id="edge30" class="edge">
<title>Node21&#45;&gt;Node24</title>
<path fill="none" stroke="midnightblue" d="M685.28,-336.47C667.65,-305.3 625.29,-230.41 606.04,-196.37"/>
<polygon fill="midnightblue" stroke="midnightblue" points="609.03,-194.54 601.06,-187.56 602.93,-197.99 609.03,-194.54"/>
</g>
<!-- Node22&#45;&gt;Node5 -->
<g id="edge24" class="edge">
<title>Node22&#45;&gt;Node5</title>
<path fill="none" stroke="midnightblue" d="M315.07,-280.44C287.19,-271.32 242.87,-256.81 211.82,-246.65"/>
<polygon fill="midnightblue" stroke="midnightblue" points="212.83,-243.3 202.24,-243.52 210.65,-249.95 212.83,-243.3"/>
</g>
<!-- Node22&#45;&gt;Node6 -->
<g id="edge25" class="edge">
<title>Node22&#45;&gt;Node6</title>
<path fill="none" stroke="midnightblue" d="M326.27,-280.32C311.63,-271.82 289.08,-258.73 271.98,-248.8"/>
<polygon fill="midnightblue" stroke="midnightblue" points="273.53,-245.65 263.12,-243.65 270.01,-251.7 273.53,-245.65"/>
</g>
<!-- Node23 -->
<g id="node23" class="node">
<title>Node23</title>
<g id="a_node23"><a xlink:href="lib_2Ray_2sources_2Vector_2Vector2_8hpp.html" target="_top" xlink:title=" ">
<polygon fill="white" stroke="black" points="290.22,-224.5 290.22,-243.5 398.22,-243.5 398.22,-224.5 290.22,-224.5"/>
<text text-anchor="middle" x="344.22" y="-231.5" font-family="Helvetica,sans-Serif" font-size="10.00">Vector/Vector2.hpp</text>
</a>
</g>
</g>
<!-- Node22&#45;&gt;Node23 -->
<g id="edge26" class="edge">
<title>Node22&#45;&gt;Node23</title>
<path fill="none" stroke="midnightblue" d="M341.71,-280.08C342.1,-273.01 342.67,-262.86 343.16,-253.99"/>
<polygon fill="midnightblue" stroke="midnightblue" points="346.67,-253.93 343.73,-243.75 339.68,-253.54 346.67,-253.93"/>
</g>
<!-- Node23&#45;&gt;Node8 -->
<g id="edge27" class="edge">
<title>Node23&#45;&gt;Node8</title>
<path fill="none" stroke="midnightblue" d="M322.83,-224.44C300.51,-215.52 265.31,-201.44 240.01,-191.32"/>
<polygon fill="midnightblue" stroke="midnightblue" points="241.09,-187.98 230.51,-187.52 238.49,-194.48 241.09,-187.98"/>
</g>
<!-- Node25&#45;&gt;Node5 -->
<g id="edge67" class="edge">
<title>Node25&#45;&gt;Node5</title>
<path fill="none" stroke="midnightblue" d="M483.08,-346.12C428.14,-340.41 343.59,-327.68 275.22,-300 244.48,-287.56 213.17,-264.99 194.22,-250"/>
<polygon fill="midnightblue" stroke="midnightblue" points="196.4,-247.26 186.42,-243.7 192,-252.71 196.4,-247.26"/>
</g>
<!-- Node25&#45;&gt;Node9 -->
<g id="edge36" class="edge">
<title>Node25&#45;&gt;Node9</title>
<path fill="none" stroke="midnightblue" d="M538.73,-341.96C534.39,-314.16 524.27,-224.78 562.22,-168 572.19,-153.08 588.87,-142.58 604.43,-135.49"/>
<polygon fill="midnightblue" stroke="midnightblue" points="606.04,-138.62 613.9,-131.52 603.32,-132.16 606.04,-138.62"/>
</g>
<!-- Node25&#45;&gt;Node12 -->
<g id="edge34" class="edge">
<title>Node25&#45;&gt;Node12</title>
<path fill="none" stroke="midnightblue" d="M535.25,-341.84C524.95,-323.03 502.22,-276.8 502.22,-235 502.22,-235 502.22,-235 502.22,-177 502.22,-140.3 527.54,-103.66 544.43,-83.3"/>
<polygon fill="midnightblue" stroke="midnightblue" points="547.17,-85.48 551.05,-75.62 541.87,-80.9 547.17,-85.48"/>
</g>
<!-- Node25&#45;&gt;Node15 -->
<g id="edge33" class="edge">
<title>Node25&#45;&gt;Node15</title>
<path fill="none" stroke="midnightblue" d="M529.33,-341.92C508.31,-324.32 464.22,-281.81 464.22,-235 464.22,-235 464.22,-235 464.22,-121 464.22,-82.28 487.4,-72.94 522.22,-56 537.52,-48.55 1055.92,-20.25 1194.46,-12.8"/>
<polygon fill="midnightblue" stroke="midnightblue" points="1194.7,-16.3 1204.5,-12.26 1194.32,-9.31 1194.7,-16.3"/>
</g>
<!-- Node25&#45;&gt;Node16 -->
<g id="edge35" class="edge">
<title>Node25&#45;&gt;Node16</title>
<path fill="none" stroke="midnightblue" d="M514.87,-341.89C494.82,-333.9 467.43,-320.17 450.22,-300 430.22,-276.58 426.22,-265.8 426.22,-235 426.22,-235 426.22,-235 426.22,-121 426.22,-90.2 432.69,-81.32 450.22,-56 458.39,-44.19 470.37,-33.54 480.77,-25.57"/>
<polygon fill="midnightblue" stroke="midnightblue" points="483.01,-28.27 489.01,-19.54 478.88,-22.62 483.01,-28.27"/>
</g>
<!-- Node25&#45;&gt;Node24 -->
<g id="edge32" class="edge">
<title>Node25&#45;&gt;Node24</title>
<path fill="none" stroke="midnightblue" d="M543.07,-341.76C551.8,-315.04 578.25,-234.02 590.22,-197.36"/>
<polygon fill="midnightblue" stroke="midnightblue" points="593.66,-198.11 593.43,-187.52 587,-195.94 593.66,-198.11"/>
</g>
<!-- Node26 -->
<g id="node26" class="node">
<title>Node26</title>
<g id="a_node26"><a xlink:href="Wal_8hpp.html" target="_top" xlink:title=" ">
<polygon fill="white" stroke="black" points="1033.22,-280.5 1033.22,-299.5 1089.22,-299.5 1089.22,-280.5 1033.22,-280.5"/>
<text text-anchor="middle" x="1061.22" y="-287.5" font-family="Helvetica,sans-Serif" font-size="10.00">Wal.hpp</text>
</a>
</g>
</g>
<!-- Node25&#45;&gt;Node26 -->
<g id="edge37" class="edge">
<title>Node25&#45;&gt;Node26</title>
<path fill="none" stroke="midnightblue" d="M575.35,-341.98C585.28,-339.79 596.14,-337.6 606.22,-336 759.52,-311.66 944.11,-298.25 1022.73,-293.27"/>
<polygon fill="midnightblue" stroke="midnightblue" points="1023.35,-296.74 1033.11,-292.62 1022.91,-289.75 1023.35,-296.74"/>
</g>
<!-- Node28 -->
<g id="node28" class="node">
<title>Node28</title>
<g id="a_node28"><a xlink:href="ISystem_8hpp.html" target="_top" xlink:title=" ">
<polygon fill="white" stroke="black" points="644.72,-224.5 644.72,-243.5 761.72,-243.5 761.72,-224.5 644.72,-224.5"/>
<text text-anchor="middle" x="703.22" y="-231.5" font-family="Helvetica,sans-Serif" font-size="10.00">System/ISystem.hpp</text>
</a>
</g>
</g>
<!-- Node25&#45;&gt;Node28 -->
<g id="edge66" class="edge">
<title>Node25&#45;&gt;Node28</title>
<path fill="none" stroke="midnightblue" d="M552.47,-341.82C580.2,-322.17 648.02,-274.11 682.45,-249.72"/>
<polygon fill="midnightblue" stroke="midnightblue" points="684.69,-252.42 690.82,-243.78 680.64,-246.71 684.69,-252.42"/>
</g>
<!-- Node29 -->
<g id="node29" class="node">
<title>Node29</title>
<g id="a_node29"><a xlink:href="View_8hpp.html" target="_top" xlink:title=" ">
<polygon fill="white" stroke="black" points="753.22,-168.5 753.22,-187.5 841.22,-187.5 841.22,-168.5 753.22,-168.5"/>
<text text-anchor="middle" x="797.22" y="-175.5" font-family="Helvetica,sans-Serif" font-size="10.00">View/View.hpp</text>
</a>
</g>
</g>
<!-- Node25&#45;&gt;Node29 -->
<g id="edge65" class="edge">
<title>Node25&#45;&gt;Node29</title>
<path fill="none" stroke="midnightblue" d="M579.41,-341.98C630.1,-329.06 718.15,-299.88 771.22,-244 783.37,-231.21 790.1,-212.02 793.65,-197.8"/>
<polygon fill="midnightblue" stroke="midnightblue" points="797.14,-198.2 795.86,-187.68 790.31,-196.71 797.14,-198.2"/>
</g>
<!-- Node26&#45;&gt;Node10 -->
<g id="edge40" class="edge">
<title>Node26&#45;&gt;Node10</title>
<path fill="none" stroke="midnightblue" d="M1070.25,-280.25C1078.41,-271.77 1090.06,-258.16 1096.22,-244 1129.79,-166.8 1165.79,-126.12 1119.22,-56 1102.73,-31.18 1069.59,-20.02 1044.53,-15.02"/>
<polygon fill="midnightblue" stroke="midnightblue" points="1044.82,-11.51 1034.36,-13.23 1043.6,-18.41 1044.82,-11.51"/>
</g>
<!-- Node26&#45;&gt;Node12 -->
<g id="edge42" class="edge">
<title>Node26&#45;&gt;Node12</title>
<path fill="none" stroke="midnightblue" d="M1059.62,-280.45C1053.65,-251.07 1029.67,-153.8 967.22,-112 900.98,-67.67 693.98,-87.98 597.82,-75.68"/>
<polygon fill="midnightblue" stroke="midnightblue" points="598.17,-72.19 587.77,-74.2 597.15,-79.12 598.17,-72.19"/>
</g>
<!-- Node26&#45;&gt;Node13 -->
<g id="edge41" class="edge">
<title>Node26&#45;&gt;Node13</title>
<path fill="none" stroke="midnightblue" d="M1065.42,-280.33C1078.04,-252.91 1112.56,-166.72 1076.22,-112 1068.17,-99.89 1035.21,-87.14 1007.97,-78.31"/>
<polygon fill="midnightblue" stroke="midnightblue" points="1008.84,-74.92 998.25,-75.25 1006.73,-81.59 1008.84,-74.92"/>
</g>
<!-- Node26&#45;&gt;Node15 -->
<g id="edge39" class="edge">
<title>Node26&#45;&gt;Node15</title>
<path fill="none" stroke="midnightblue" d="M1089.3,-286.98C1144.32,-281.45 1266.49,-261.16 1330.22,-188 1370.24,-142.06 1403.06,-105.27 1367.22,-56 1343.32,-23.15 1294.91,-13.79 1262.02,-11.38"/>
<polygon fill="midnightblue" stroke="midnightblue" points="1262.12,-7.88 1251.94,-10.83 1261.73,-14.87 1262.12,-7.88"/>
</g>
<!-- Node26&#45;&gt;Node17 -->
<g id="edge43" class="edge">
<title>Node26&#45;&gt;Node17</title>
<path fill="none" stroke="midnightblue" d="M1061.38,-280.41C1061.4,-250.9 1057.03,-153.24 1000.22,-112 969.57,-89.75 929.15,-78.44 894.28,-72.72"/>
<polygon fill="midnightblue" stroke="midnightblue" points="894.54,-69.22 884.13,-71.18 893.49,-76.14 894.54,-69.22"/>
</g>
<!-- Node27 -->
<g id="node27" class="node">
<title>Node27</title>
<g id="a_node27"><a xlink:title=" ">
<polygon fill="white" stroke="#bfbfbf" points="1166.72,-112.5 1166.72,-131.5 1211.72,-131.5 1211.72,-112.5 1166.72,-112.5"/>
<text text-anchor="middle" x="1189.22" y="-119.5" font-family="Helvetica,sans-Serif" font-size="10.00">utility</text>
</a>
</g>
</g>
<!-- Node26&#45;&gt;Node27 -->
<g id="edge38" class="edge">
<title>Node26&#45;&gt;Node27</title>
<path fill="none" stroke="midnightblue" d="M1089.29,-281.41C1109.2,-274.66 1135.13,-262.88 1151.22,-244 1176.48,-214.35 1184.97,-167.9 1187.81,-142.02"/>
<polygon fill="midnightblue" stroke="midnightblue" points="1191.33,-142 1188.76,-131.72 1184.36,-141.36 1191.33,-142"/>
</g>
<!-- Node26&#45;&gt;Node28 -->
<g id="edge44" class="edge">
<title>Node26&#45;&gt;Node28</title>
<path fill="none" stroke="midnightblue" d="M1033.12,-284.76C976.89,-276.28 849.1,-257.01 770.1,-245.09"/>
<polygon fill="midnightblue" stroke="midnightblue" points="770.17,-241.56 759.76,-243.53 769.13,-248.48 770.17,-241.56"/>
</g>
<!-- Node34 -->
<g id="node34" class="node">
<title>Node34</title>
<g id="a_node34"><a xlink:href="Callback_8hpp.html" target="_top" xlink:title=" ">
<polygon fill="white" stroke="black" points="1203.22,-168.5 1203.22,-187.5 1321.22,-187.5 1321.22,-168.5 1203.22,-168.5"/>
<text text-anchor="middle" x="1262.22" y="-175.5" font-family="Helvetica,sans-Serif" font-size="10.00">Models/Callback.hpp</text>
</a>
</g>
</g>
<!-- Node26&#45;&gt;Node34 -->
<g id="edge55" class="edge">
<title>Node26&#45;&gt;Node34</title>
<path fill="none" stroke="midnightblue" d="M1089.29,-282.51C1116.17,-275.53 1157.26,-262.84 1189.22,-244 1211.7,-230.74 1233.52,-209.95 1247.35,-195.47"/>
<polygon fill="midnightblue" stroke="midnightblue" points="1250.27,-197.47 1254.52,-187.77 1245.15,-192.7 1250.27,-197.47"/>
</g>
<!-- Node35 -->
<g id="node35" class="node">
<title>Node35</title>
<g id="a_node35"><a xlink:href="Scene_8hpp.html" target="_top" xlink:title=" ">
<polygon fill="white" stroke="black" points="857.72,-224.5 857.72,-243.5 956.72,-243.5 956.72,-224.5 857.72,-224.5"/>
<text text-anchor="middle" x="907.22" y="-231.5" font-family="Helvetica,sans-Serif" font-size="10.00">Scene/Scene.hpp</text>
</a>
</g>
</g>
<!-- Node26&#45;&gt;Node35 -->
<g id="edge59" class="edge">
<title>Node26&#45;&gt;Node35</title>
<path fill="none" stroke="midnightblue" d="M1036.81,-280.44C1011.02,-271.4 970.14,-257.06 941.2,-246.92"/>
<polygon fill="midnightblue" stroke="midnightblue" points="942.1,-243.52 931.5,-243.52 939.78,-250.13 942.1,-243.52"/>
</g>
<!-- Node28&#45;&gt;Node9 -->
<g id="edge45" class="edge">
<title>Node28&#45;&gt;Node9</title>
<path fill="none" stroke="midnightblue" d="M696.85,-224.27C690.5,-215.38 680.64,-201.06 673.22,-188 664.45,-172.56 655.87,-154.24 649.96,-141"/>
<polygon fill="midnightblue" stroke="midnightblue" points="653.07,-139.37 645.85,-131.61 646.66,-142.17 653.07,-139.37"/>
</g>
<!-- Node28&#45;&gt;Node24 -->
<g id="edge54" class="edge">
<title>Node28&#45;&gt;Node24</title>
<path fill="none" stroke="midnightblue" d="M686.02,-224.32C668.87,-215.66 642.27,-202.24 622.47,-192.25"/>
<polygon fill="midnightblue" stroke="midnightblue" points="623.87,-189.04 613.37,-187.65 620.72,-195.28 623.87,-189.04"/>
</g>
<!-- Node28&#45;&gt;Node29 -->
<g id="edge46" class="edge">
<title>Node28&#45;&gt;Node29</title>
<path fill="none" stroke="midnightblue" d="M718.32,-224.32C733.12,-215.82 755.91,-202.73 773.2,-192.8"/>
<polygon fill="midnightblue" stroke="midnightblue" points="775.22,-195.67 782.15,-187.65 771.74,-189.6 775.22,-195.67"/>
</g>
<!-- Node29&#45;&gt;Node9 -->
<g id="edge53" class="edge">
<title>Node29&#45;&gt;Node9</title>
<path fill="none" stroke="midnightblue" d="M772.66,-168.44C746.69,-159.4 705.55,-145.06 676.42,-134.92"/>
<polygon fill="midnightblue" stroke="midnightblue" points="677.26,-131.5 666.66,-131.52 674.95,-138.11 677.26,-131.5"/>
</g>
<!-- Node29&#45;&gt;Node16 -->
<g id="edge49" class="edge">
<title>Node29&#45;&gt;Node16</title>
<path fill="none" stroke="midnightblue" d="M752.81,-174.22C708.33,-169.94 638.95,-159.15 585.22,-132 551.78,-115.1 542.47,-107.51 522.22,-76 513.14,-61.88 507.97,-43.39 505.18,-29.75"/>
<polygon fill="midnightblue" stroke="midnightblue" points="508.57,-28.84 503.35,-19.62 501.68,-30.09 508.57,-28.84"/>
</g>
<!-- Node29&#45;&gt;Node27 -->
<g id="edge51" class="edge">
<title>Node29&#45;&gt;Node27</title>
<path fill="none" stroke="midnightblue" d="M841.42,-170.91C920.84,-159.97 1085.93,-137.23 1156.3,-127.53"/>
<polygon fill="midnightblue" stroke="midnightblue" points="1156.93,-130.98 1166.36,-126.15 1155.98,-124.05 1156.93,-130.98"/>
</g>
<!-- Node30 -->
<g id="node30" class="node">
<title>Node30</title>
<g id="a_node30"><a xlink:title=" ">
<polygon fill="white" stroke="#bfbfbf" points="842.22,-112.5 842.22,-131.5 874.22,-131.5 874.22,-112.5 842.22,-112.5"/>
<text text-anchor="middle" x="858.22" y="-119.5" font-family="Helvetica,sans-Serif" font-size="10.00">list</text>
</a>
</g>
</g>
<!-- Node29&#45;&gt;Node30 -->
<g id="edge47" class="edge">
<title>Node29&#45;&gt;Node30</title>
<path fill="none" stroke="midnightblue" d="M807.02,-168.32C816.03,-160.34 829.62,-148.31 840.53,-138.65"/>
<polygon fill="midnightblue" stroke="midnightblue" points="843.07,-141.08 848.24,-131.83 838.43,-135.84 843.07,-141.08"/>
</g>
<!-- Node31 -->
<g id="node31" class="node">
<title>Node31</title>
<g id="a_node31"><a xlink:title=" ">
<polygon fill="white" stroke="#bfbfbf" points="708.72,-112.5 708.72,-131.5 749.72,-131.5 749.72,-112.5 708.72,-112.5"/>
<text text-anchor="middle" x="729.22" y="-119.5" font-family="Helvetica,sans-Serif" font-size="10.00">tuple</text>
</a>
</g>
</g>
<!-- Node29&#45;&gt;Node31 -->
<g id="edge48" class="edge">
<title>Node29&#45;&gt;Node31</title>
<path fill="none" stroke="midnightblue" d="M786.29,-168.32C776.04,-160.18 760.5,-147.84 748.22,-138.09"/>
<polygon fill="midnightblue" stroke="midnightblue" points="750.35,-135.31 740.34,-131.83 745.99,-140.79 750.35,-135.31"/>
</g>
<!-- Node32 -->
<g id="node32" class="node">
<title>Node32</title>
<g id="a_node32"><a xlink:title=" ">
<polygon fill="white" stroke="#bfbfbf" points="892.72,-112.5 892.72,-131.5 957.72,-131.5 957.72,-112.5 892.72,-112.5"/>
<text text-anchor="middle" x="925.22" y="-119.5" font-family="Helvetica,sans-Serif" font-size="10.00">functional</text>
</a>
</g>
</g>
<!-- Node29&#45;&gt;Node32 -->
<g id="edge50" class="edge">
<title>Node29&#45;&gt;Node32</title>
<path fill="none" stroke="midnightblue" d="M817.5,-168.44C838.56,-159.56 871.73,-145.56 895.7,-135.45"/>
<polygon fill="midnightblue" stroke="midnightblue" points="897.18,-138.63 905.03,-131.52 894.46,-132.18 897.18,-138.63"/>
</g>
<!-- Node33 -->
<g id="node33" class="node">
<title>Node33</title>
<g id="a_node33"><a xlink:title=" ">
<polygon fill="white" stroke="#bfbfbf" points="768.22,-112.5 768.22,-131.5 824.22,-131.5 824.22,-112.5 768.22,-112.5"/>
<text text-anchor="middle" x="796.22" y="-119.5" font-family="Helvetica,sans-Serif" font-size="10.00">optional</text>
</a>
</g>
</g>
<!-- Node29&#45;&gt;Node33 -->
<g id="edge52" class="edge">
<title>Node29&#45;&gt;Node33</title>
<path fill="none" stroke="midnightblue" d="M797.05,-168.08C796.92,-161.01 796.73,-150.86 796.57,-141.99"/>
<polygon fill="midnightblue" stroke="midnightblue" points="800.06,-141.68 796.38,-131.75 793.06,-141.81 800.06,-141.68"/>
</g>
<!-- Node34&#45;&gt;Node11 -->
<g id="edge58" class="edge">
<title>Node34&#45;&gt;Node11</title>
<path fill="none" stroke="midnightblue" d="M1259.15,-168.41C1253.72,-154.45 1241.08,-126.88 1221.22,-112 1191.96,-90.09 1152.41,-78.84 1120.2,-73.07"/>
<polygon fill="midnightblue" stroke="midnightblue" points="1120.46,-69.57 1110.02,-71.38 1119.31,-76.47 1120.46,-69.57"/>
</g>
<!-- Node34&#45;&gt;Node27 -->
<g id="edge57" class="edge">
<title>Node34&#45;&gt;Node27</title>
<path fill="none" stroke="midnightblue" d="M1250.49,-168.32C1239.38,-160.11 1222.47,-147.6 1209.23,-137.81"/>
<polygon fill="midnightblue" stroke="midnightblue" points="1211.28,-134.97 1201.16,-131.83 1207.12,-140.59 1211.28,-134.97"/>
</g>
<!-- Node34&#45;&gt;Node32 -->
<g id="edge56" class="edge">
<title>Node34&#45;&gt;Node32</title>
<path fill="none" stroke="midnightblue" d="M1208.82,-168.44C1142.15,-157.76 1029.43,-139.7 968.09,-129.87"/>
<polygon fill="midnightblue" stroke="midnightblue" points="968.41,-126.38 957.98,-128.25 967.3,-133.29 968.41,-126.38"/>
</g>
<!-- Node35&#45;&gt;Node9 -->
<g id="edge64" class="edge">
<title>Node35&#45;&gt;Node9</title>
<path fill="none" stroke="midnightblue" d="M862.75,-224.48C829.27,-217.18 782.71,-205.12 744.22,-188 713.43,-174.31 681.17,-152.25 661.38,-137.69"/>
<polygon fill="midnightblue" stroke="midnightblue" points="663.32,-134.77 653.21,-131.58 659.12,-140.38 663.32,-134.77"/>
</g>
<!-- Node35&#45;&gt;Node15 -->
<g id="edge60" class="edge">
<title>Node35&#45;&gt;Node15</title>
<path fill="none" stroke="midnightblue" d="M919.8,-224.3C968.64,-190.52 1145.98,-67.87 1207.24,-25.51"/>
<polygon fill="midnightblue" stroke="midnightblue" points="1209.49,-28.21 1215.72,-19.64 1205.5,-22.45 1209.49,-28.21"/>
</g>
<!-- Node35&#45;&gt;Node29 -->
<g id="edge63" class="edge">
<title>Node35&#45;&gt;Node29</title>
<path fill="none" stroke="midnightblue" d="M889.54,-224.32C871.82,-215.62 844.31,-202.12 823.93,-192.11"/>
<polygon fill="midnightblue" stroke="midnightblue" points="825.36,-188.92 814.85,-187.65 822.28,-195.2 825.36,-188.92"/>
</g>
<!-- Node35&#45;&gt;Node30 -->
<g id="edge61" class="edge">
<title>Node35&#45;&gt;Node30</title>
<path fill="none" stroke="midnightblue" d="M903.37,-224.37C895.39,-206.46 876.89,-164.92 866.21,-140.95"/>
<polygon fill="midnightblue" stroke="midnightblue" points="869.31,-139.3 862.04,-131.59 862.92,-142.15 869.31,-139.3"/>
</g>
<!-- Node35&#45;&gt;Node32 -->
<g id="edge62" class="edge">
<title>Node35&#45;&gt;Node32</title>
<path fill="none" stroke="midnightblue" d="M908.63,-224.37C911.53,-206.62 918.23,-165.67 922.17,-141.6"/>
<polygon fill="midnightblue" stroke="midnightblue" points="925.65,-142.03 923.81,-131.59 918.74,-140.89 925.65,-142.03"/>
</g>
<!-- Node36&#45;&gt;Node14 -->
<g id="edge71" class="edge">
<title>Node36&#45;&gt;Node14</title>
<path fill="none" stroke="midnightblue" d="M1284.82,-403.42C1339.23,-389.88 1425.22,-357.91 1425.22,-291 1425.22,-291 1425.22,-291 1425.22,-177 1425.22,-124.76 1364.62,-94.01 1322.05,-78.85"/>
<polygon fill="midnightblue" stroke="midnightblue" points="1323.06,-75.49 1312.46,-75.58 1320.8,-82.12 1323.06,-75.49"/>
</g>
<!-- Node37&#45;&gt;Node9 -->
<g id="edge75" class="edge">
<title>Node37&#45;&gt;Node9</title>
<path fill="none" stroke="midnightblue" d="M1149.96,-341.58C1140.98,-327 1121.39,-297.89 1098.22,-280 1002.49,-206.08 965.07,-205.89 850.22,-168 800.78,-151.69 742.77,-139.71 700.58,-132.22"/>
<polygon fill="midnightblue" stroke="midnightblue" points="700.94,-128.73 690.48,-130.46 699.73,-135.63 700.94,-128.73"/>
</g>
<!-- Node37&#45;&gt;Node14 -->
<g id="edge74" class="edge">
<title>Node37&#45;&gt;Node14</title>
<path fill="none" stroke="midnightblue" d="M1242.93,-341.97C1308.62,-330.17 1387.22,-302.04 1387.22,-235 1387.22,-235 1387.22,-235 1387.22,-177 1387.22,-146.2 1383.32,-135.33 1363.22,-112 1350.72,-97.5 1332.35,-86.81 1316.16,-79.5"/>
<polygon fill="midnightblue" stroke="midnightblue" points="1317.51,-76.27 1306.94,-75.58 1314.78,-82.72 1317.51,-76.27"/>
</g>
<!-- Node37&#45;&gt;Node26 -->
<g id="edge76" class="edge">
<title>Node37&#45;&gt;Node26</title>
<path fill="none" stroke="midnightblue" d="M1141.75,-341.98C1126.53,-332.34 1101.53,-316.52 1083.42,-305.05"/>
<polygon fill="midnightblue" stroke="midnightblue" points="1084.98,-301.9 1074.66,-299.51 1081.24,-307.81 1084.98,-301.9"/>
</g>
<!-- Node37&#45;&gt;Node34 -->
<g id="edge73" class="edge">
<title>Node37&#45;&gt;Node34</title>
<path fill="none" stroke="midnightblue" d="M1160.67,-341.76C1177.49,-314.81 1228.76,-232.62 1251.35,-196.42"/>
<polygon fill="midnightblue" stroke="midnightblue" points="1254.58,-197.86 1256.9,-187.52 1248.64,-194.15 1254.58,-197.86"/>
</g>
</g>
</svg>
