<?xml version="1.0" encoding="UTF-8" standalone="no"?>
<!DOCTYPE svg PUBLIC "-//W3C//DTD SVG 1.1//EN"
 "http://www.w3.org/Graphics/SVG/1.1/DTD/svg11.dtd">
<!-- Generated by graphviz version 2.43.0 (0)
 -->
<!-- Title: lib/Ray/sources/Drawables/3D/Cylinder.cpp Pages: 1 -->
<svg width="997pt" height="487pt"
 viewBox="0.00 0.00 996.50 487.00" xmlns="http://www.w3.org/2000/svg" xmlns:xlink="http://www.w3.org/1999/xlink">
<g id="graph0" class="graph" transform="scale(1 1) rotate(0) translate(4 483)">
<title>lib/Ray/sources/Drawables/3D/Cylinder.cpp</title>
<polygon fill="white" stroke="transparent" points="-4,4 -4,-483 992.5,-483 992.5,4 -4,4"/>
<!-- Node1 -->
<g id="node1" class="node">
<title>Node1</title>
<g id="a_node1"><a xlink:title=" ">
<polygon fill="#bfbfbf" stroke="black" points="1.5,-448.5 1.5,-478.5 147.5,-478.5 147.5,-448.5 1.5,-448.5"/>
<text text-anchor="start" x="9.5" y="-466.5" font-family="Helvetica,sans-Serif" font-size="10.00">lib/Ray/sources/Drawables</text>
<text text-anchor="middle" x="74.5" y="-455.5" font-family="Helvetica,sans-Serif" font-size="10.00">/3D/Cylinder.cpp</text>
</a>
</g>
</g>
<!-- Node2 -->
<g id="node2" class="node">
<title>Node2</title>
<g id="a_node2"><a xlink:href="Cylinder_8hpp.html" target="_top" xlink:title=" ">
<polygon fill="white" stroke="black" points="0,-392.5 0,-411.5 149,-411.5 149,-392.5 0,-392.5"/>
<text text-anchor="middle" x="74.5" y="-399.5" font-family="Helvetica,sans-Serif" font-size="10.00">Drawables/3D/Cylinder.hpp</text>
</a>
</g>
</g>
<!-- Node1&#45;&gt;Node2 -->
<g id="edge1" class="edge">
<title>Node1&#45;&gt;Node2</title>
<path fill="none" stroke="midnightblue" d="M74.5,-448.4C74.5,-440.47 74.5,-430.46 74.5,-421.86"/>
<polygon fill="midnightblue" stroke="midnightblue" points="78,-421.66 74.5,-411.66 71,-421.66 78,-421.66"/>
</g>
<!-- Node3 -->
<g id="node3" class="node">
<title>Node3</title>
<g id="a_node3"><a xlink:title=" ">
<polygon fill="white" stroke="#bfbfbf" points="344,-0.5 344,-19.5 397,-19.5 397,-0.5 344,-0.5"/>
<text text-anchor="middle" x="370.5" y="-7.5" font-family="Helvetica,sans-Serif" font-size="10.00">raylib.h</text>
</a>
</g>
</g>
<!-- Node2&#45;&gt;Node3 -->
<g id="edge2" class="edge">
<title>Node2&#45;&gt;Node3</title>
<path fill="none" stroke="midnightblue" d="M66.42,-392.34C58.77,-383.72 47.45,-369.82 40.5,-356 26.98,-329.11 21.5,-321.1 21.5,-291 21.5,-291 21.5,-291 21.5,-121 21.5,-81.68 46.81,-74.5 81.5,-56 124.56,-33.04 265.89,-19.19 333.64,-13.71"/>
<polygon fill="midnightblue" stroke="midnightblue" points="334.16,-17.18 343.85,-12.9 333.61,-10.2 334.16,-17.18"/>
</g>
<!-- Node4 -->
<g id="node4" class="node">
<title>Node4</title>
<g id="a_node4"><a xlink:href="ADrawable3D_8hpp.html" target="_top" xlink:title=" ">
<polygon fill="white" stroke="black" points="49,-336.5 49,-355.5 208,-355.5 208,-336.5 49,-336.5"/>
<text text-anchor="middle" x="128.5" y="-343.5" font-family="Helvetica,sans-Serif" font-size="10.00">Drawables/ADrawable3D.hpp</text>
</a>
</g>
</g>
<!-- Node2&#45;&gt;Node4 -->
<g id="edge3" class="edge">
<title>Node2&#45;&gt;Node4</title>
<path fill="none" stroke="midnightblue" d="M83.42,-392.08C91.28,-384.22 102.93,-372.57 112.42,-363.08"/>
<polygon fill="midnightblue" stroke="midnightblue" points="115.15,-365.3 119.75,-355.75 110.2,-360.35 115.15,-365.3"/>
</g>
<!-- Node4&#45;&gt;Node3 -->
<g id="edge4" class="edge">
<title>Node4&#45;&gt;Node3</title>
<path fill="none" stroke="midnightblue" d="M118.32,-336.46C99.13,-319.35 59.5,-278.73 59.5,-235 59.5,-235 59.5,-235 59.5,-121 59.5,-80.46 87.67,-74.96 123.5,-56 191.66,-19.93 283.58,-12.23 333.86,-10.9"/>
<polygon fill="midnightblue" stroke="midnightblue" points="334.01,-14.4 343.94,-10.71 333.87,-7.4 334.01,-14.4"/>
</g>
<!-- Node5 -->
<g id="node5" class="node">
<title>Node5</title>
<g id="a_node5"><a xlink:href="IDrawable_8hpp.html" target="_top" xlink:title=" ">
<polygon fill="white" stroke="black" points="366.5,-280.5 366.5,-299.5 508.5,-299.5 508.5,-280.5 366.5,-280.5"/>
<text text-anchor="middle" x="437.5" y="-287.5" font-family="Helvetica,sans-Serif" font-size="10.00">Drawables/IDrawable.hpp</text>
</a>
</g>
</g>
<!-- Node4&#45;&gt;Node5 -->
<g id="edge5" class="edge">
<title>Node4&#45;&gt;Node5</title>
<path fill="none" stroke="midnightblue" d="M177.46,-336.44C232.04,-326.9 320.29,-311.48 378.6,-301.29"/>
<polygon fill="midnightblue" stroke="midnightblue" points="379.52,-304.69 388.77,-299.52 378.31,-297.79 379.52,-304.69"/>
</g>
<!-- Node19 -->
<g id="node19" class="node">
<title>Node19</title>
<g id="a_node19"><a xlink:href="Color_8hpp.html" target="_top" xlink:title=" ">
<polygon fill="white" stroke="black" points="97.5,-168.5 97.5,-187.5 159.5,-187.5 159.5,-168.5 97.5,-168.5"/>
<text text-anchor="middle" x="128.5" y="-175.5" font-family="Helvetica,sans-Serif" font-size="10.00">Color.hpp</text>
</a>
</g>
</g>
<!-- Node4&#45;&gt;Node19 -->
<g id="edge33" class="edge">
<title>Node4&#45;&gt;Node19</title>
<path fill="none" stroke="midnightblue" d="M128.5,-336.08C128.5,-309.95 128.5,-233.21 128.5,-197.58"/>
<polygon fill="midnightblue" stroke="midnightblue" points="132,-197.57 128.5,-187.57 125,-197.57 132,-197.57"/>
</g>
<!-- Node6 -->
<g id="node6" class="node">
<title>Node6</title>
<g id="a_node6"><a xlink:href="Window_8hpp.html" target="_top" xlink:title=" ">
<polygon fill="white" stroke="black" points="561.5,-224.5 561.5,-243.5 637.5,-243.5 637.5,-224.5 561.5,-224.5"/>
<text text-anchor="middle" x="599.5" y="-231.5" font-family="Helvetica,sans-Serif" font-size="10.00">Window.hpp</text>
</a>
</g>
</g>
<!-- Node5&#45;&gt;Node6 -->
<g id="edge6" class="edge">
<title>Node5&#45;&gt;Node6</title>
<path fill="none" stroke="midnightblue" d="M463.17,-280.44C490.42,-271.36 533.68,-256.94 564.15,-246.78"/>
<polygon fill="midnightblue" stroke="midnightblue" points="565.57,-250 573.95,-243.52 563.36,-243.36 565.57,-250"/>
</g>
<!-- Node6&#45;&gt;Node3 -->
<g id="edge7" class="edge">
<title>Node6&#45;&gt;Node3</title>
<path fill="none" stroke="midnightblue" d="M606.36,-224.45C627.79,-196.68 689.49,-107.78 645.5,-56 615.39,-20.57 475.46,-12.97 407.6,-11.39"/>
<polygon fill="midnightblue" stroke="midnightblue" points="407.42,-7.89 397.36,-11.18 407.28,-14.88 407.42,-7.89"/>
</g>
<!-- Node7 -->
<g id="node7" class="node">
<title>Node7</title>
<g id="a_node7"><a xlink:title=" ">
<polygon fill="white" stroke="#bfbfbf" points="674.5,-168.5 674.5,-187.5 718.5,-187.5 718.5,-168.5 674.5,-168.5"/>
<text text-anchor="middle" x="696.5" y="-175.5" font-family="Helvetica,sans-Serif" font-size="10.00">string</text>
</a>
</g>
</g>
<!-- Node6&#45;&gt;Node7 -->
<g id="edge8" class="edge">
<title>Node6&#45;&gt;Node7</title>
<path fill="none" stroke="midnightblue" d="M615.08,-224.32C630.5,-215.74 654.31,-202.49 672.21,-192.52"/>
<polygon fill="midnightblue" stroke="midnightblue" points="673.92,-195.58 680.95,-187.65 670.51,-189.46 673.92,-195.58"/>
</g>
<!-- Node8 -->
<g id="node8" class="node">
<title>Node8</title>
<g id="a_node8"><a xlink:title=" ">
<polygon fill="white" stroke="#bfbfbf" points="736.5,-168.5 736.5,-187.5 792.5,-187.5 792.5,-168.5 736.5,-168.5"/>
<text text-anchor="middle" x="764.5" y="-175.5" font-family="Helvetica,sans-Serif" font-size="10.00">optional</text>
</a>
</g>
</g>
<!-- Node6&#45;&gt;Node8 -->
<g id="edge9" class="edge">
<title>Node6&#45;&gt;Node8</title>
<path fill="none" stroke="midnightblue" d="M625.64,-224.44C653.52,-215.32 697.85,-200.81 728.9,-190.65"/>
<polygon fill="midnightblue" stroke="midnightblue" points="730.06,-193.95 738.48,-187.52 727.88,-187.3 730.06,-193.95"/>
</g>
<!-- Node9 -->
<g id="node9" class="node">
<title>Node9</title>
<g id="a_node9"><a xlink:href="lib_2Ray_2sources_2Vector_2Vector2_8hpp.html" target="_top" xlink:title=" ">
<polygon fill="white" stroke="black" points="711.5,-112.5 711.5,-131.5 819.5,-131.5 819.5,-112.5 711.5,-112.5"/>
<text text-anchor="middle" x="765.5" y="-119.5" font-family="Helvetica,sans-Serif" font-size="10.00">Vector/Vector2.hpp</text>
</a>
</g>
</g>
<!-- Node6&#45;&gt;Node9 -->
<g id="edge10" class="edge">
<title>Node6&#45;&gt;Node9</title>
<path fill="none" stroke="midnightblue" d="M637.87,-230.04C690.64,-225.09 781.39,-213.09 801.5,-188 813.89,-172.54 798.46,-152.24 784.13,-138.47"/>
<polygon fill="midnightblue" stroke="midnightblue" points="786.24,-135.66 776.47,-131.56 781.55,-140.86 786.24,-135.66"/>
</g>
<!-- Node10 -->
<g id="node10" class="node">
<title>Node10</title>
<g id="a_node10"><a xlink:href="lib_2Ray_2sources_2Vector_2Vector3_8hpp.html" target="_top" xlink:title=" ">
<polygon fill="white" stroke="black" points="125.5,-112.5 125.5,-131.5 233.5,-131.5 233.5,-112.5 125.5,-112.5"/>
<text text-anchor="middle" x="179.5" y="-119.5" font-family="Helvetica,sans-Serif" font-size="10.00">Vector/Vector3.hpp</text>
</a>
</g>
</g>
<!-- Node6&#45;&gt;Node10 -->
<g id="edge12" class="edge">
<title>Node6&#45;&gt;Node10</title>
<path fill="none" stroke="midnightblue" d="M561.24,-231.43C503.41,-228.13 390.91,-218.08 300.5,-188 263.15,-175.57 223.65,-152.14 200.31,-137.07"/>
<polygon fill="midnightblue" stroke="midnightblue" points="202.19,-134.12 191.91,-131.55 198.35,-139.97 202.19,-134.12"/>
</g>
<!-- Node11 -->
<g id="node11" class="node">
<title>Node11</title>
<g id="a_node11"><a xlink:href="Keyboard_8hpp.html" target="_top" xlink:title=" ">
<polygon fill="white" stroke="black" points="848.5,-168.5 848.5,-187.5 988.5,-187.5 988.5,-168.5 848.5,-168.5"/>
<text text-anchor="middle" x="918.5" y="-175.5" font-family="Helvetica,sans-Serif" font-size="10.00">Controllers/Keyboard.hpp</text>
</a>
</g>
</g>
<!-- Node6&#45;&gt;Node11 -->
<g id="edge14" class="edge">
<title>Node6&#45;&gt;Node11</title>
<path fill="none" stroke="midnightblue" d="M637.66,-226.54C692.29,-217.29 793.33,-200.19 858.15,-189.22"/>
<polygon fill="midnightblue" stroke="midnightblue" points="858.96,-192.63 868.23,-187.51 857.79,-185.73 858.96,-192.63"/>
</g>
<!-- Node13 -->
<g id="node13" class="node">
<title>Node13</title>
<g id="a_node13"><a xlink:href="Camera2D_8hpp.html" target="_top" xlink:title=" ">
<polygon fill="white" stroke="black" points="487,-168.5 487,-187.5 618,-187.5 618,-168.5 487,-168.5"/>
<text text-anchor="middle" x="552.5" y="-175.5" font-family="Helvetica,sans-Serif" font-size="10.00">Camera/Camera2D.hpp</text>
</a>
</g>
</g>
<!-- Node6&#45;&gt;Node13 -->
<g id="edge17" class="edge">
<title>Node6&#45;&gt;Node13</title>
<path fill="none" stroke="midnightblue" d="M591.74,-224.08C584.96,-216.3 574.96,-204.8 566.74,-195.37"/>
<polygon fill="midnightblue" stroke="midnightblue" points="569.32,-193 560.12,-187.75 564.04,-197.59 569.32,-193"/>
</g>
<!-- Node16 -->
<g id="node16" class="node">
<title>Node16</title>
<g id="a_node16"><a xlink:href="Camera3D_8hpp.html" target="_top" xlink:title=" ">
<polygon fill="white" stroke="black" points="309,-168.5 309,-187.5 440,-187.5 440,-168.5 309,-168.5"/>
<text text-anchor="middle" x="374.5" y="-175.5" font-family="Helvetica,sans-Serif" font-size="10.00">Camera/Camera3D.hpp</text>
</a>
</g>
</g>
<!-- Node6&#45;&gt;Node16 -->
<g id="edge23" class="edge">
<title>Node6&#45;&gt;Node16</title>
<path fill="none" stroke="midnightblue" d="M563.85,-224.44C524.84,-215.08 462.23,-200.06 419.78,-189.87"/>
<polygon fill="midnightblue" stroke="midnightblue" points="420.53,-186.45 409.99,-187.52 418.89,-193.25 420.53,-186.45"/>
</g>
<!-- Node6&#45;&gt;Node19 -->
<g id="edge31" class="edge">
<title>Node6&#45;&gt;Node19</title>
<path fill="none" stroke="midnightblue" d="M561.36,-228.63C474.04,-218.62 260.22,-194.1 169.87,-183.74"/>
<polygon fill="midnightblue" stroke="midnightblue" points="170.07,-180.24 159.74,-182.58 169.27,-187.2 170.07,-180.24"/>
</g>
<!-- Node9&#45;&gt;Node3 -->
<g id="edge11" class="edge">
<title>Node9&#45;&gt;Node3</title>
<path fill="none" stroke="midnightblue" d="M759.16,-112.04C748.36,-97.54 724.86,-69.21 697.5,-56 646.9,-31.57 481.93,-18.16 407.51,-13.23"/>
<polygon fill="midnightblue" stroke="midnightblue" points="407.42,-9.71 397.21,-12.56 406.97,-16.7 407.42,-9.71"/>
</g>
<!-- Node10&#45;&gt;Node3 -->
<g id="edge13" class="edge">
<title>Node10&#45;&gt;Node3</title>
<path fill="none" stroke="midnightblue" d="M172.4,-112.47C162.14,-99.08 145.83,-72.89 159.5,-56 180.98,-29.45 278.91,-17.89 333.48,-13.44"/>
<polygon fill="midnightblue" stroke="midnightblue" points="334.09,-16.9 343.79,-12.64 333.55,-9.92 334.09,-16.9"/>
</g>
<!-- Node11&#45;&gt;Node3 -->
<g id="edge15" class="edge">
<title>Node11&#45;&gt;Node3</title>
<path fill="none" stroke="midnightblue" d="M918.42,-168.14C917.81,-154.29 914.6,-127.49 899.5,-112 842.49,-53.53 804.23,-73.67 724.5,-56 610.48,-30.73 472.43,-18.28 407.57,-13.47"/>
<polygon fill="midnightblue" stroke="midnightblue" points="407.66,-9.96 397.43,-12.73 407.15,-16.95 407.66,-9.96"/>
</g>
<!-- Node12 -->
<g id="node12" class="node">
<title>Node12</title>
<g id="a_node12"><a xlink:title=" ">
<polygon fill="white" stroke="#bfbfbf" points="843,-112.5 843,-131.5 890,-131.5 890,-112.5 843,-112.5"/>
<text text-anchor="middle" x="866.5" y="-119.5" font-family="Helvetica,sans-Serif" font-size="10.00">vector</text>
</a>
</g>
</g>
<!-- Node11&#45;&gt;Node12 -->
<g id="edge16" class="edge">
<title>Node11&#45;&gt;Node12</title>
<path fill="none" stroke="midnightblue" d="M909.91,-168.08C902.34,-160.22 891.12,-148.57 881.99,-139.08"/>
<polygon fill="midnightblue" stroke="midnightblue" points="884.38,-136.53 874.93,-131.75 879.34,-141.38 884.38,-136.53"/>
</g>
<!-- Node13&#45;&gt;Node3 -->
<g id="edge18" class="edge">
<title>Node13&#45;&gt;Node3</title>
<path fill="none" stroke="midnightblue" d="M575.48,-168.38C591.24,-161.18 611.12,-149.29 621.5,-132 638.93,-102.98 648.27,-81.93 626.5,-56 598.95,-23.18 471.37,-14.29 407.35,-11.89"/>
<polygon fill="midnightblue" stroke="midnightblue" points="407.39,-8.39 397.28,-11.54 407.15,-15.38 407.39,-8.39"/>
</g>
<!-- Node13&#45;&gt;Node9 -->
<g id="edge19" class="edge">
<title>Node13&#45;&gt;Node9</title>
<path fill="none" stroke="midnightblue" d="M586.25,-168.44C623.02,-159.12 681.95,-144.18 722.12,-134"/>
<polygon fill="midnightblue" stroke="midnightblue" points="723.07,-137.37 731.91,-131.52 721.35,-130.58 723.07,-137.37"/>
</g>
<!-- Node14 -->
<g id="node14" class="node">
<title>Node14</title>
<g id="a_node14"><a xlink:href="ICamera_8hpp.html" target="_top" xlink:title=" ">
<polygon fill="white" stroke="black" points="492.5,-112.5 492.5,-131.5 612.5,-131.5 612.5,-112.5 492.5,-112.5"/>
<text text-anchor="middle" x="552.5" y="-119.5" font-family="Helvetica,sans-Serif" font-size="10.00">Camera/ICamera.hpp</text>
</a>
</g>
</g>
<!-- Node13&#45;&gt;Node14 -->
<g id="edge20" class="edge">
<title>Node13&#45;&gt;Node14</title>
<path fill="none" stroke="midnightblue" d="M552.5,-168.08C552.5,-161.01 552.5,-150.86 552.5,-141.99"/>
<polygon fill="midnightblue" stroke="midnightblue" points="556,-141.75 552.5,-131.75 549,-141.75 556,-141.75"/>
</g>
<!-- Node15 -->
<g id="node15" class="node">
<title>Node15</title>
<g id="a_node15"><a xlink:href="Matrix_8hpp.html" target="_top" xlink:title=" ">
<polygon fill="white" stroke="black" points="548,-56.5 548,-75.5 617,-75.5 617,-56.5 548,-56.5"/>
<text text-anchor="middle" x="582.5" y="-63.5" font-family="Helvetica,sans-Serif" font-size="10.00">Matrix.hpp</text>
</a>
</g>
</g>
<!-- Node14&#45;&gt;Node15 -->
<g id="edge21" class="edge">
<title>Node14&#45;&gt;Node15</title>
<path fill="none" stroke="midnightblue" d="M557.45,-112.08C561.6,-104.61 567.65,-93.72 572.77,-84.52"/>
<polygon fill="midnightblue" stroke="midnightblue" points="575.84,-86.19 577.64,-75.75 569.72,-82.79 575.84,-86.19"/>
</g>
<!-- Node15&#45;&gt;Node3 -->
<g id="edge22" class="edge">
<title>Node15&#45;&gt;Node3</title>
<path fill="none" stroke="midnightblue" d="M548.91,-56.44C510.24,-46.59 446.95,-30.47 407.07,-20.32"/>
<polygon fill="midnightblue" stroke="midnightblue" points="407.78,-16.88 397.22,-17.81 406.05,-23.67 407.78,-16.88"/>
</g>
<!-- Node16&#45;&gt;Node3 -->
<g id="edge24" class="edge">
<title>Node16&#45;&gt;Node3</title>
<path fill="none" stroke="midnightblue" d="M356.83,-168.47C312.95,-147.13 201.9,-91.96 192.5,-76 187.99,-68.34 187.04,-63.01 192.5,-56 209.66,-33.96 286.74,-21.01 333.66,-15.03"/>
<polygon fill="midnightblue" stroke="midnightblue" points="334.25,-18.48 343.75,-13.79 333.4,-11.54 334.25,-18.48"/>
</g>
<!-- Node16&#45;&gt;Node10 -->
<g id="edge25" class="edge">
<title>Node16&#45;&gt;Node10</title>
<path fill="none" stroke="midnightblue" d="M343.6,-168.44C310.23,-159.2 256.91,-144.44 220.15,-134.26"/>
<polygon fill="midnightblue" stroke="midnightblue" points="220.83,-130.81 210.25,-131.52 218.96,-137.56 220.83,-130.81"/>
</g>
<!-- Node16&#45;&gt;Node14 -->
<g id="edge26" class="edge">
<title>Node16&#45;&gt;Node14</title>
<path fill="none" stroke="midnightblue" d="M402.7,-168.44C432.91,-159.28 481.01,-144.69 514.53,-134.52"/>
<polygon fill="midnightblue" stroke="midnightblue" points="515.87,-137.77 524.43,-131.52 513.84,-131.07 515.87,-137.77"/>
</g>
<!-- Node17 -->
<g id="node17" class="node">
<title>Node17</title>
<g id="a_node17"><a xlink:href="CameraProjection_8hpp.html" target="_top" xlink:title=" ">
<polygon fill="white" stroke="black" points="201.5,-56.5 201.5,-75.5 367.5,-75.5 367.5,-56.5 201.5,-56.5"/>
<text text-anchor="middle" x="284.5" y="-63.5" font-family="Helvetica,sans-Serif" font-size="10.00">Camera/CameraProjection.hpp</text>
</a>
</g>
</g>
<!-- Node16&#45;&gt;Node17 -->
<g id="edge27" class="edge">
<title>Node16&#45;&gt;Node17</title>
<path fill="none" stroke="midnightblue" d="M367.44,-168.37C352.45,-150.05 317.27,-107.05 297.89,-83.36"/>
<polygon fill="midnightblue" stroke="midnightblue" points="300.57,-81.11 291.53,-75.59 295.15,-85.55 300.57,-81.11"/>
</g>
<!-- Node18 -->
<g id="node18" class="node">
<title>Node18</title>
<g id="a_node18"><a xlink:href="CameraMode_8hpp.html" target="_top" xlink:title=" ">
<polygon fill="white" stroke="black" points="385.5,-56.5 385.5,-75.5 529.5,-75.5 529.5,-56.5 385.5,-56.5"/>
<text text-anchor="middle" x="457.5" y="-63.5" font-family="Helvetica,sans-Serif" font-size="10.00">Camera/CameraMode.hpp</text>
</a>
</g>
</g>
<!-- Node16&#45;&gt;Node18 -->
<g id="edge29" class="edge">
<title>Node16&#45;&gt;Node18</title>
<path fill="none" stroke="midnightblue" d="M381.01,-168.37C394.77,-150.14 427,-107.43 444.92,-83.68"/>
<polygon fill="midnightblue" stroke="midnightblue" points="447.79,-85.68 451.02,-75.59 442.2,-81.47 447.79,-85.68"/>
</g>
<!-- Node17&#45;&gt;Node3 -->
<g id="edge28" class="edge">
<title>Node17&#45;&gt;Node3</title>
<path fill="none" stroke="midnightblue" d="M298.32,-56.32C311.73,-47.9 332.32,-34.97 348.09,-25.07"/>
<polygon fill="midnightblue" stroke="midnightblue" points="350.11,-27.94 356.72,-19.65 346.39,-22.01 350.11,-27.94"/>
</g>
<!-- Node18&#45;&gt;Node3 -->
<g id="edge30" class="edge">
<title>Node18&#45;&gt;Node3</title>
<path fill="none" stroke="midnightblue" d="M443.52,-56.32C429.95,-47.9 409.12,-34.97 393.18,-25.07"/>
<polygon fill="midnightblue" stroke="midnightblue" points="394.79,-21.95 384.44,-19.65 391.09,-27.9 394.79,-21.95"/>
</g>
<!-- Node19&#45;&gt;Node3 -->
<g id="edge32" class="edge">
<title>Node19&#45;&gt;Node3</title>
<path fill="none" stroke="midnightblue" d="M125.41,-168.17C122.45,-159.2 118.18,-144.83 116.5,-132 111.72,-95.49 119.52,-77.38 149.5,-56 178.62,-35.23 278.76,-21.18 333.7,-14.84"/>
<polygon fill="midnightblue" stroke="midnightblue" points="334.19,-18.31 343.73,-13.71 333.4,-11.36 334.19,-18.31"/>
</g>
</g>
</svg>
