<?xml version="1.0" encoding="UTF-8" standalone="no"?>
<!DOCTYPE svg PUBLIC "-//W3C//DTD SVG 1.1//EN"
 "http://www.w3.org/Graphics/SVG/1.1/DTD/svg11.dtd">
<!-- Generated by graphviz version 2.43.0 (0)
 -->
<!-- Title: lib/wal/sources/Entity Pages: 1 -->
<svg width="310pt" height="151pt"
 viewBox="0.00 0.00 309.50 151.00" xmlns="http://www.w3.org/2000/svg" xmlns:xlink="http://www.w3.org/1999/xlink">
<g id="graph0" class="graph" transform="scale(1 1) rotate(0) translate(4 147)">
<title>lib/wal/sources/Entity</title>
<polygon fill="white" stroke="transparent" points="-4,4 -4,-147 305.5,-147 305.5,4 -4,4"/>
<g id="clust1" class="cluster">
<title>clusterdir_d2f550de4c275647d2c0a50b557bd3a7</title>
<g id="a_clust1"><a xlink:href="dir_d2f550de4c275647d2c0a50b557bd3a7.html" target="_top" xlink:title="sources">
<polygon fill="#ddddee" stroke="black" points="116.5,-64 116.5,-135 186.5,-135 186.5,-64 116.5,-64"/>
<text text-anchor="middle" x="151.5" y="-123" font-family="Helvetica,sans-Serif" font-size="10.00">sources</text>
</a>
</g>
</g>
<!-- dir_84d5ebf0d3ca7545f65093be754a2fd5 -->
<g id="node1" class="node">
<title>dir_84d5ebf0d3ca7545f65093be754a2fd5</title>
<g id="a_node1"><a xlink:href="dir_84d5ebf0d3ca7545f65093be754a2fd5.html" target="_top" xlink:title="Entity">
<polygon fill="#eeeeff" stroke="black" points="178.5,-108 124.5,-108 124.5,-72 178.5,-72 178.5,-108"/>
<text text-anchor="middle" x="151.5" y="-87.5" font-family="Helvetica,sans-Serif" font-size="10.00">Entity</text>
</a>
</g>
</g>
<!-- dir_d11df033234bd0f0769d0b08a4aa44db -->
<g id="node2" class="node">
<title>dir_d11df033234bd0f0769d0b08a4aa44db</title>
<g id="a_node2"><a xlink:href="dir_d11df033234bd0f0769d0b08a4aa44db.html" target="_top" xlink:title="Exception">
<polygon fill="none" stroke="black" points="65,-36 0,-36 0,0 65,0 65,-36"/>
<text text-anchor="middle" x="32.5" y="-15.5" font-family="Helvetica,sans-Serif" font-size="10.00">Exception</text>
</a>
</g>
</g>
<!-- dir_84d5ebf0d3ca7545f65093be754a2fd5&#45;&gt;dir_d11df033234bd0f0769d0b08a4aa44db -->
<g id="edge1" class="edge">
<title>dir_84d5ebf0d3ca7545f65093be754a2fd5&#45;&gt;dir_d11df033234bd0f0769d0b08a4aa44db</title>
<path fill="none" stroke="black" d="M124.5,-73.12C108.5,-63.7 87.97,-51.63 70.37,-41.28"/>
<polygon fill="black" stroke="black" points="71.87,-38.1 61.48,-36.04 68.32,-44.13 71.87,-38.1"/>
<g id="a_edge1&#45;headlabel"><a xlink:href="dir_000022_000023.html" target="_top" xlink:title="1">
<text text-anchor="middle" x="76.41" y="-34.97" font-family="Helvetica,sans-Serif" font-size="10.00">1</text>
</a>
</g>
</g>
<!-- dir_03844c54c5a081543e79d2b40621bd20 -->
<g id="node3" class="node">
<title>dir_03844c54c5a081543e79d2b40621bd20</title>
<g id="a_node3"><a xlink:href="dir_03844c54c5a081543e79d2b40621bd20.html" target="_top" xlink:title="Models">
<polygon fill="none" stroke="black" points="137.5,-36 83.5,-36 83.5,0 137.5,0 137.5,-36"/>
<text text-anchor="middle" x="110.5" y="-15.5" font-family="Helvetica,sans-Serif" font-size="10.00">Models</text>
</a>
</g>
</g>
<!-- dir_84d5ebf0d3ca7545f65093be754a2fd5&#45;&gt;dir_03844c54c5a081543e79d2b40621bd20 -->
<g id="edge2" class="edge">
<title>dir_84d5ebf0d3ca7545f65093be754a2fd5&#45;&gt;dir_03844c54c5a081543e79d2b40621bd20</title>
<path fill="none" stroke="black" d="M141.37,-71.7C136.65,-63.64 130.94,-53.89 125.72,-44.98"/>
<polygon fill="black" stroke="black" points="128.59,-42.96 120.52,-36.1 122.55,-46.5 128.59,-42.96"/>
<g id="a_edge2&#45;headlabel"><a xlink:href="dir_000022_000024.html" target="_top" xlink:title="1">
<text text-anchor="middle" x="132.86" y="-42.13" font-family="Helvetica,sans-Serif" font-size="10.00">1</text>
</a>
</g>
</g>
<!-- dir_c9dc268bc6fb3b96fcb68bde0e1a0ac6 -->
<g id="node4" class="node">
<title>dir_c9dc268bc6fb3b96fcb68bde0e1a0ac6</title>
<g id="a_node4"><a xlink:href="dir_c9dc268bc6fb3b96fcb68bde0e1a0ac6.html" target="_top" xlink:title="Component">
<polygon fill="none" stroke="black" points="229,-36 156,-36 156,0 229,0 229,-36"/>
<text text-anchor="middle" x="192.5" y="-15.5" font-family="Helvetica,sans-Serif" font-size="10.00">Component</text>
</a>
</g>
</g>
<!-- dir_84d5ebf0d3ca7545f65093be754a2fd5&#45;&gt;dir_c9dc268bc6fb3b96fcb68bde0e1a0ac6 -->
<g id="edge3" class="edge">
<title>dir_84d5ebf0d3ca7545f65093be754a2fd5&#45;&gt;dir_c9dc268bc6fb3b96fcb68bde0e1a0ac6</title>
<path fill="none" stroke="black" d="M161.63,-71.7C166.35,-63.64 172.06,-53.89 177.28,-44.98"/>
<polygon fill="black" stroke="black" points="180.45,-46.5 182.48,-36.1 174.41,-42.96 180.45,-46.5"/>
<g id="a_edge3&#45;headlabel"><a xlink:href="dir_000022_000021.html" target="_top" xlink:title="1">
<text text-anchor="middle" x="181.08" y="-48.54" font-family="Helvetica,sans-Serif" font-size="10.00">1</text>
</a>
</g>
</g>
<!-- dir_f134669f632146674ebf9e530d01bfab -->
<g id="node5" class="node">
<title>dir_f134669f632146674ebf9e530d01bfab</title>
<g id="a_node5"><a xlink:href="dir_f134669f632146674ebf9e530d01bfab.html" target="_top" xlink:title="Scene">
<polygon fill="none" stroke="black" points="301.5,-36 247.5,-36 247.5,0 301.5,0 301.5,-36"/>
<text text-anchor="middle" x="274.5" y="-15.5" font-family="Helvetica,sans-Serif" font-size="10.00">Scene</text>
</a>
</g>
</g>
<!-- dir_84d5ebf0d3ca7545f65093be754a2fd5&#45;&gt;dir_f134669f632146674ebf9e530d01bfab -->
<g id="edge4" class="edge">
<title>dir_84d5ebf0d3ca7545f65093be754a2fd5&#45;&gt;dir_f134669f632146674ebf9e530d01bfab</title>
<path fill="none" stroke="black" d="M175.69,-71.88C193.56,-61.07 218.01,-47.14 238.19,-36.3"/>
<polygon fill="black" stroke="black" points="239.93,-39.34 247.11,-31.56 236.64,-33.16 239.93,-39.34"/>
<g id="a_edge4&#45;headlabel"><a xlink:href="dir_000022_000025.html" target="_top" xlink:title="1">
<text text-anchor="middle" x="238.08" y="-41.03" font-family="Helvetica,sans-Serif" font-size="10.00">1</text>
</a>
</g>
</g>
<!-- dir_f134669f632146674ebf9e530d01bfab&#45;&gt;dir_84d5ebf0d3ca7545f65093be754a2fd5 -->
<g id="edge5" class="edge">
<title>dir_f134669f632146674ebf9e530d01bfab&#45;&gt;dir_84d5ebf0d3ca7545f65093be754a2fd5</title>
<path fill="none" stroke="black" d="M250.28,-36.14C232.4,-46.96 207.91,-60.9 187.74,-71.74"/>
<polygon fill="black" stroke="black" points="186,-68.7 178.81,-76.49 189.28,-74.89 186,-68.7"/>
<g id="a_edge5&#45;headlabel"><a xlink:href="dir_000025_000022.html" target="_top" xlink:title="1">
<text text-anchor="middle" x="187.84" y="-62.01" font-family="Helvetica,sans-Serif" font-size="10.00">1</text>
</a>
</g>
</g>
</g>
</svg>
