<?xml version="1.0" encoding="UTF-8" standalone="no"?>
<!DOCTYPE svg PUBLIC "-//W3C//DTD SVG 1.1//EN"
 "http://www.w3.org/Graphics/SVG/1.1/DTD/svg11.dtd">
<!-- Generated by graphviz version 2.43.0 (0)
 -->
<!-- Title: lib/Ray/sources/Camera Pages: 1 -->
<svg width="96pt" height="151pt"
 viewBox="0.00 0.00 96.00 151.00" xmlns="http://www.w3.org/2000/svg" xmlns:xlink="http://www.w3.org/1999/xlink">
<g id="graph0" class="graph" transform="scale(1 1) rotate(0) translate(4 147)">
<title>lib/Ray/sources/Camera</title>
<polygon fill="white" stroke="transparent" points="-4,4 -4,-147 92,-147 92,4 -4,4"/>
<g id="clust1" class="cluster">
<title>clusterdir_6a062873ed3e64cc8025242d19396498</title>
<g id="a_clust1"><a xlink:href="dir_6a062873ed3e64cc8025242d19396498.html" target="_top" xlink:title="sources">
<polygon fill="#ddddee" stroke="black" points="8,-64 8,-135 80,-135 80,-64 8,-64"/>
<text text-anchor="middle" x="44" y="-123" font-family="Helvetica,sans-Serif" font-size="10.00">sources</text>
</a>
</g>
</g>
<!-- dir_f6501572f7d761b2f0688e6cb6553813 -->
<g id="node1" class="node">
<title>dir_f6501572f7d761b2f0688e6cb6553813</title>
<g id="a_node1"><a xlink:href="dir_f6501572f7d761b2f0688e6cb6553813.html" target="_top" xlink:title="Camera">
<polygon fill="#eeeeff" stroke="black" points="71.5,-108 16.5,-108 16.5,-72 71.5,-72 71.5,-108"/>
<text text-anchor="middle" x="44" y="-87.5" font-family="Helvetica,sans-Serif" font-size="10.00">Camera</text>
</a>
</g>
</g>
<!-- dir_f5c1662545658e75a7dc6b962ca8f4b3 -->
<g id="node2" class="node">
<title>dir_f5c1662545658e75a7dc6b962ca8f4b3</title>
<g id="a_node2"><a xlink:href="dir_f5c1662545658e75a7dc6b962ca8f4b3.html" target="_top" xlink:title="Vector">
<polygon fill="none" stroke="black" points="71,-36 17,-36 17,0 71,0 71,-36"/>
<text text-anchor="middle" x="44" y="-15.5" font-family="Helvetica,sans-Serif" font-size="10.00">Vector</text>
</a>
</g>
</g>
<!-- dir_f6501572f7d761b2f0688e6cb6553813&#45;&gt;dir_f5c1662545658e75a7dc6b962ca8f4b3 -->
<g id="edge1" class="edge">
<title>dir_f6501572f7d761b2f0688e6cb6553813&#45;&gt;dir_f5c1662545658e75a7dc6b962ca8f4b3</title>
<path fill="none" stroke="black" d="M44,-71.7C44,-63.98 44,-54.71 44,-46.11"/>
<polygon fill="black" stroke="black" points="47.5,-46.1 44,-36.1 40.5,-46.1 47.5,-46.1"/>
<g id="a_edge1&#45;headlabel"><a xlink:href="dir_000007_000017.html" target="_top" xlink:title="2">
<text text-anchor="middle" x="50.34" y="-47.2" font-family="Helvetica,sans-Serif" font-size="10.00">2</text>
</a>
</g>
</g>
</g>
</svg>
