<?xml version="1.0" encoding="UTF-8" standalone="no"?>
<!DOCTYPE svg PUBLIC "-//W3C//DTD SVG 1.1//EN"
 "http://www.w3.org/Graphics/SVG/1.1/DTD/svg11.dtd">
<!-- Generated by graphviz version 2.43.0 (0)
 -->
<!-- Title: sources/Component/Gamepad Pages: 1 -->
<svg width="127pt" height="223pt"
 viewBox="0.00 0.00 127.00 223.00" xmlns="http://www.w3.org/2000/svg" xmlns:xlink="http://www.w3.org/1999/xlink">
<g id="graph0" class="graph" transform="scale(1 1) rotate(0) translate(4 219)">
<title>sources/Component/Gamepad</title>
<polygon fill="white" stroke="transparent" points="-4,4 -4,-219 123,-219 123,4 -4,4"/>
<g id="clust1" class="cluster">
<title>clusterdir_1625c0207da71ef5bcc742f7d87fc397</title>
<g id="a_clust1"><a xlink:href="dir_1625c0207da71ef5bcc742f7d87fc397.html" target="_top" xlink:title="Component">
<polygon fill="#ddddee" stroke="black" points="31,-136 31,-207 111,-207 111,-136 31,-136"/>
<text text-anchor="middle" x="71" y="-195" font-family="Helvetica,sans-Serif" font-size="10.00">Component</text>
</a>
</g>
</g>
<!-- dir_97e0ea9d2946e7a736aa355df7cc81fd -->
<g id="node1" class="node">
<title>dir_97e0ea9d2946e7a736aa355df7cc81fd</title>
<g id="a_node1"><a xlink:href="dir_97e0ea9d2946e7a736aa355df7cc81fd.html" target="_top" xlink:title="Gamepad">
<polygon fill="#eeeeff" stroke="black" points="103,-180 39,-180 39,-144 103,-144 103,-180"/>
<text text-anchor="middle" x="71" y="-159.5" font-family="Helvetica,sans-Serif" font-size="10.00">Gamepad</text>
</a>
</g>
</g>
<!-- dir_65d97c8c9887edd590d58df39a4d71b8 -->
<g id="node2" class="node">
<title>dir_65d97c8c9887edd590d58df39a4d71b8</title>
<g id="a_node2"><a xlink:href="dir_65d97c8c9887edd590d58df39a4d71b8.html" target="_top" xlink:title="Controllable">
<polygon fill="none" stroke="black" points="76,-108 0,-108 0,-72 76,-72 76,-108"/>
<text text-anchor="middle" x="38" y="-87.5" font-family="Helvetica,sans-Serif" font-size="10.00">Controllable</text>
</a>
</g>
</g>
<!-- dir_97e0ea9d2946e7a736aa355df7cc81fd&#45;&gt;dir_65d97c8c9887edd590d58df39a4d71b8 -->
<g id="edge2" class="edge">
<title>dir_97e0ea9d2946e7a736aa355df7cc81fd&#45;&gt;dir_65d97c8c9887edd590d58df39a4d71b8</title>
<path fill="none" stroke="black" d="M62.84,-143.7C59.09,-135.73 54.55,-126.1 50.38,-117.26"/>
<polygon fill="black" stroke="black" points="53.49,-115.66 46.06,-108.1 47.16,-118.64 53.49,-115.66"/>
<g id="a_edge2&#45;headlabel"><a xlink:href="dir_000039_000038.html" target="_top" xlink:title="1">
<text text-anchor="middle" x="57.59" y="-115.2" font-family="Helvetica,sans-Serif" font-size="10.00">1</text>
</a>
</g>
</g>
<!-- dir_97aefd0d527b934f1d99a682da8fe6a9 -->
<g id="node3" class="node">
<title>dir_97aefd0d527b934f1d99a682da8fe6a9</title>
<g id="a_node3"><a xlink:href="dir_97aefd0d527b934f1d99a682da8fe6a9.html" target="_top" xlink:title="lib">
<polygon fill="white" stroke="red" points="98,-36 44,-36 44,0 98,0 98,-36"/>
<text text-anchor="middle" x="71" y="-15.5" font-family="Helvetica,sans-Serif" font-size="10.00">lib</text>
</a>
</g>
</g>
<!-- dir_97e0ea9d2946e7a736aa355df7cc81fd&#45;&gt;dir_97aefd0d527b934f1d99a682da8fe6a9 -->
<g id="edge3" class="edge">
<title>dir_97e0ea9d2946e7a736aa355df7cc81fd&#45;&gt;dir_97aefd0d527b934f1d99a682da8fe6a9</title>
<path fill="none" stroke="black" d="M76.82,-143.56C79.93,-133.33 83.43,-120.08 85,-108 87.06,-92.13 87.06,-87.87 85,-72 83.9,-63.51 81.84,-54.43 79.63,-46.24"/>
<polygon fill="black" stroke="black" points="82.95,-45.09 76.82,-36.44 76.22,-47.02 82.95,-45.09"/>
<g id="a_edge3&#45;headlabel"><a xlink:href="dir_000039_000000.html" target="_top" xlink:title="3">
<text text-anchor="middle" x="86.67" y="-45.26" font-family="Helvetica,sans-Serif" font-size="10.00">3</text>
</a>
</g>
</g>
<!-- dir_65d97c8c9887edd590d58df39a4d71b8&#45;&gt;dir_97aefd0d527b934f1d99a682da8fe6a9 -->
<g id="edge1" class="edge">
<title>dir_65d97c8c9887edd590d58df39a4d71b8&#45;&gt;dir_97aefd0d527b934f1d99a682da8fe6a9</title>
<path fill="none" stroke="black" d="M46.16,-71.7C49.91,-63.73 54.45,-54.1 58.62,-45.26"/>
<polygon fill="black" stroke="black" points="61.84,-46.64 62.94,-36.1 55.51,-43.66 61.84,-46.64"/>
<g id="a_edge1&#45;headlabel"><a xlink:href="dir_000038_000000.html" target="_top" xlink:title="2">
<text text-anchor="middle" x="62.87" y="-48.6" font-family="Helvetica,sans-Serif" font-size="10.00">2</text>
</a>
</g>
</g>
</g>
</svg>
