<?xml version="1.0" encoding="UTF-8" standalone="no"?>
<!DOCTYPE svg PUBLIC "-//W3C//DTD SVG 1.1//EN"
 "http://www.w3.org/Graphics/SVG/1.1/DTD/svg11.dtd">
<!-- Generated by graphviz version 2.43.0 (0)
 -->
<!-- Title: sources/System/BombHolder Pages: 1 -->
<svg width="276pt" height="367pt"
 viewBox="0.00 0.00 276.27 367.00" xmlns="http://www.w3.org/2000/svg" xmlns:xlink="http://www.w3.org/1999/xlink">
<g id="graph0" class="graph" transform="scale(1 1) rotate(0) translate(4 363)">
<title>sources/System/BombHolder</title>
<polygon fill="white" stroke="transparent" points="-4,4 -4,-363 272.27,-363 272.27,4 -4,4"/>
<g id="clust1" class="cluster">
<title>clusterdir_dbff9d19e82c23288cf26fa638b485e8</title>
<g id="a_clust1"><a xlink:href="dir_dbff9d19e82c23288cf26fa638b485e8.html" target="_top" xlink:title="System">
<polygon fill="#ddddee" stroke="black" points="48.77,-280 48.77,-351 142.77,-351 142.77,-280 48.77,-280"/>
<text text-anchor="middle" x="95.77" y="-339" font-family="Helvetica,sans-Serif" font-size="10.00">System</text>
</a>
</g>
</g>
<!-- dir_924bf200350afb1bfbac41ede04be518 -->
<g id="node1" class="node">
<title>dir_924bf200350afb1bfbac41ede04be518</title>
<g id="a_node1"><a xlink:href="dir_924bf200350afb1bfbac41ede04be518.html" target="_top" xlink:title="BombHolder">
<polygon fill="#eeeeff" stroke="black" points="134.27,-324 57.27,-324 57.27,-288 134.27,-288 134.27,-324"/>
<text text-anchor="middle" x="95.77" y="-303.5" font-family="Helvetica,sans-Serif" font-size="10.00">BombHolder</text>
</a>
</g>
</g>
<!-- dir_a61a61d636d8fc46ea4cb7e95abb789e -->
<g id="node2" class="node">
<title>dir_a61a61d636d8fc46ea4cb7e95abb789e</title>
<g id="a_node2"><a xlink:href="dir_a61a61d636d8fc46ea4cb7e95abb789e.html" target="_top" xlink:title="Map">
<polygon fill="none" stroke="black" points="193.77,-252 139.77,-252 139.77,-216 193.77,-216 193.77,-252"/>
<text text-anchor="middle" x="166.77" y="-231.5" font-family="Helvetica,sans-Serif" font-size="10.00">Map</text>
</a>
</g>
</g>
<!-- dir_924bf200350afb1bfbac41ede04be518&#45;&gt;dir_a61a61d636d8fc46ea4cb7e95abb789e -->
<g id="edge6" class="edge">
<title>dir_924bf200350afb1bfbac41ede04be518&#45;&gt;dir_a61a61d636d8fc46ea4cb7e95abb789e</title>
<path fill="none" stroke="black" d="M113.32,-287.7C122,-279.14 132.63,-268.66 142.12,-259.3"/>
<polygon fill="black" stroke="black" points="144.76,-261.62 149.42,-252.1 139.84,-256.63 144.76,-261.62"/>
<g id="a_edge6&#45;headlabel"><a xlink:href="dir_000069_000062.html" target="_top" xlink:title="1">
<text text-anchor="middle" x="144.19" y="-263.66" font-family="Helvetica,sans-Serif" font-size="10.00">1</text>
</a>
</g>
</g>
<!-- dir_05ee5a4d406e98379bcf64c7739332c4 -->
<g id="node3" class="node">
<title>dir_05ee5a4d406e98379bcf64c7739332c4</title>
<g id="a_node3"><a xlink:href="dir_05ee5a4d406e98379bcf64c7739332c4.html" target="_top" xlink:title="Event">
<polygon fill="none" stroke="black" points="67.77,-252 13.77,-252 13.77,-216 67.77,-216 67.77,-252"/>
<text text-anchor="middle" x="40.77" y="-231.5" font-family="Helvetica,sans-Serif" font-size="10.00">Event</text>
</a>
</g>
</g>
<!-- dir_924bf200350afb1bfbac41ede04be518&#45;&gt;dir_05ee5a4d406e98379bcf64c7739332c4 -->
<g id="edge7" class="edge">
<title>dir_924bf200350afb1bfbac41ede04be518&#45;&gt;dir_05ee5a4d406e98379bcf64c7739332c4</title>
<path fill="none" stroke="black" d="M82.17,-287.7C75.65,-279.39 67.7,-269.28 60.52,-260.14"/>
<polygon fill="black" stroke="black" points="63.14,-257.81 54.21,-252.1 57.63,-262.13 63.14,-257.81"/>
<g id="a_edge7&#45;headlabel"><a xlink:href="dir_000069_000075.html" target="_top" xlink:title="1">
<text text-anchor="middle" x="67.59" y="-256.38" font-family="Helvetica,sans-Serif" font-size="10.00">1</text>
</a>
</g>
</g>
<!-- dir_5cb6e1a8c8be2c39561c895666c60a3e -->
<g id="node4" class="node">
<title>dir_5cb6e1a8c8be2c39561c895666c60a3e</title>
<g id="a_node4"><a xlink:href="dir_5cb6e1a8c8be2c39561c895666c60a3e.html" target="_top" xlink:title="Models">
<polygon fill="none" stroke="black" points="206.77,-108 152.77,-108 152.77,-72 206.77,-72 206.77,-108"/>
<text text-anchor="middle" x="179.77" y="-87.5" font-family="Helvetica,sans-Serif" font-size="10.00">Models</text>
</a>
</g>
</g>
<!-- dir_924bf200350afb1bfbac41ede04be518&#45;&gt;dir_5cb6e1a8c8be2c39561c895666c60a3e -->
<g id="edge8" class="edge">
<title>dir_924bf200350afb1bfbac41ede04be518&#45;&gt;dir_5cb6e1a8c8be2c39561c895666c60a3e</title>
<path fill="none" stroke="black" d="M102.5,-287.85C117.09,-250.68 151.73,-162.44 169.24,-117.82"/>
<polygon fill="black" stroke="black" points="172.61,-118.82 173,-108.23 166.09,-116.26 172.61,-118.82"/>
<g id="a_edge8&#45;headlabel"><a xlink:href="dir_000069_000019.html" target="_top" xlink:title="1">
<text text-anchor="middle" x="173.94" y="-120.7" font-family="Helvetica,sans-Serif" font-size="10.00">1</text>
</a>
</g>
</g>
<!-- dir_97aefd0d527b934f1d99a682da8fe6a9 -->
<g id="node5" class="node">
<title>dir_97aefd0d527b934f1d99a682da8fe6a9</title>
<g id="a_node5"><a xlink:href="dir_97aefd0d527b934f1d99a682da8fe6a9.html" target="_top" xlink:title="lib">
<polygon fill="white" stroke="red" points="151.77,-36 97.77,-36 97.77,0 151.77,0 151.77,-36"/>
<text text-anchor="middle" x="124.77" y="-15.5" font-family="Helvetica,sans-Serif" font-size="10.00">lib</text>
</a>
</g>
</g>
<!-- dir_924bf200350afb1bfbac41ede04be518&#45;&gt;dir_97aefd0d527b934f1d99a682da8fe6a9 -->
<g id="edge9" class="edge">
<title>dir_924bf200350afb1bfbac41ede04be518&#45;&gt;dir_97aefd0d527b934f1d99a682da8fe6a9</title>
<path fill="none" stroke="black" d="M57.15,-292.94C37.77,-284.7 16.07,-271.65 4.77,-252 -3.21,-238.13 0.67,-231.47 4.77,-216 22.94,-147.37 73.49,-79.31 102.86,-43.95"/>
<polygon fill="black" stroke="black" points="105.72,-46 109.49,-36.1 100.37,-41.48 105.72,-46"/>
<g id="a_edge9&#45;headlabel"><a xlink:href="dir_000069_000000.html" target="_top" xlink:title="3">
<text text-anchor="middle" x="105.57" y="-48.08" font-family="Helvetica,sans-Serif" font-size="10.00">3</text>
</a>
</g>
</g>
<!-- dir_1625c0207da71ef5bcc742f7d87fc397 -->
<g id="node6" class="node">
<title>dir_1625c0207da71ef5bcc742f7d87fc397</title>
<g id="a_node6"><a xlink:href="dir_1625c0207da71ef5bcc742f7d87fc397.html" target="_top" xlink:title="Component">
<polygon fill="white" stroke="red" points="268.27,-180 195.27,-180 195.27,-144 268.27,-144 268.27,-180"/>
<text text-anchor="middle" x="231.77" y="-159.5" font-family="Helvetica,sans-Serif" font-size="10.00">Component</text>
</a>
</g>
</g>
<!-- dir_924bf200350afb1bfbac41ede04be518&#45;&gt;dir_1625c0207da71ef5bcc742f7d87fc397 -->
<g id="edge10" class="edge">
<title>dir_924bf200350afb1bfbac41ede04be518&#45;&gt;dir_1625c0207da71ef5bcc742f7d87fc397</title>
<path fill="none" stroke="black" d="M134.42,-294.22C157.19,-286.04 184.94,-272.62 202.77,-252 217.75,-234.68 225.02,-209.46 228.54,-190.29"/>
<polygon fill="black" stroke="black" points="232,-190.78 230.13,-180.35 225.09,-189.67 232,-190.78"/>
<g id="a_edge10&#45;headlabel"><a xlink:href="dir_000069_000028.html" target="_top" xlink:title="13">
<text text-anchor="middle" x="234.24" y="-192.27" font-family="Helvetica,sans-Serif" font-size="10.00">13</text>
</a>
</g>
</g>
<!-- dir_a61a61d636d8fc46ea4cb7e95abb789e&#45;&gt;dir_5cb6e1a8c8be2c39561c895666c60a3e -->
<g id="edge1" class="edge">
<title>dir_a61a61d636d8fc46ea4cb7e95abb789e&#45;&gt;dir_5cb6e1a8c8be2c39561c895666c60a3e</title>
<path fill="none" stroke="black" d="M168.34,-215.87C170.55,-191.67 174.62,-147.21 177.26,-118.39"/>
<polygon fill="black" stroke="black" points="180.77,-118.47 178.19,-108.19 173.8,-117.83 180.77,-118.47"/>
<g id="a_edge1&#45;headlabel"><a xlink:href="dir_000062_000019.html" target="_top" xlink:title="1">
<text text-anchor="middle" x="183.27" y="-119.81" font-family="Helvetica,sans-Serif" font-size="10.00">1</text>
</a>
</g>
</g>
<!-- dir_a61a61d636d8fc46ea4cb7e95abb789e&#45;&gt;dir_97aefd0d527b934f1d99a682da8fe6a9 -->
<g id="edge2" class="edge">
<title>dir_a61a61d636d8fc46ea4cb7e95abb789e&#45;&gt;dir_97aefd0d527b934f1d99a682da8fe6a9</title>
<path fill="none" stroke="black" d="M163.4,-215.85C156.12,-178.75 138.86,-90.81 130.09,-46.1"/>
<polygon fill="black" stroke="black" points="133.51,-45.37 128.15,-36.23 126.64,-46.72 133.51,-45.37"/>
<g id="a_edge2&#45;headlabel"><a xlink:href="dir_000062_000000.html" target="_top" xlink:title="4">
<text text-anchor="middle" x="136.99" y="-45.85" font-family="Helvetica,sans-Serif" font-size="10.00">4</text>
</a>
</g>
</g>
<!-- dir_a61a61d636d8fc46ea4cb7e95abb789e&#45;&gt;dir_1625c0207da71ef5bcc742f7d87fc397 -->
<g id="edge3" class="edge">
<title>dir_a61a61d636d8fc46ea4cb7e95abb789e&#45;&gt;dir_1625c0207da71ef5bcc742f7d87fc397</title>
<path fill="none" stroke="black" d="M176.92,-215.7C183.99,-207.14 193.54,-196.66 202.74,-187.3"/>
<polygon fill="black" stroke="black" points="205.36,-189.63 209.99,-180.1 200.43,-184.67 205.36,-189.63"/>
<g id="a_edge3&#45;headlabel"><a xlink:href="dir_000062_000028.html" target="_top" xlink:title="11">
<text text-anchor="middle" x="204.81" y="-191.68" font-family="Helvetica,sans-Serif" font-size="10.00">11</text>
</a>
</g>
</g>
<!-- dir_05ee5a4d406e98379bcf64c7739332c4&#45;&gt;dir_97aefd0d527b934f1d99a682da8fe6a9 -->
<g id="edge4" class="edge">
<title>dir_05ee5a4d406e98379bcf64c7739332c4&#45;&gt;dir_97aefd0d527b934f1d99a682da8fe6a9</title>
<path fill="none" stroke="black" d="M47.5,-215.85C62.09,-178.68 96.73,-90.44 114.24,-45.82"/>
<polygon fill="black" stroke="black" points="117.61,-46.82 118,-36.23 111.09,-44.26 117.61,-46.82"/>
<g id="a_edge4&#45;headlabel"><a xlink:href="dir_000075_000000.html" target="_top" xlink:title="1">
<text text-anchor="middle" x="118.94" y="-48.7" font-family="Helvetica,sans-Serif" font-size="10.00">1</text>
</a>
</g>
</g>
<!-- dir_5cb6e1a8c8be2c39561c895666c60a3e&#45;&gt;dir_97aefd0d527b934f1d99a682da8fe6a9 -->
<g id="edge5" class="edge">
<title>dir_5cb6e1a8c8be2c39561c895666c60a3e&#45;&gt;dir_97aefd0d527b934f1d99a682da8fe6a9</title>
<path fill="none" stroke="black" d="M166.17,-71.7C159.65,-63.39 151.7,-53.28 144.52,-44.14"/>
<polygon fill="black" stroke="black" points="147.14,-41.81 138.21,-36.1 141.63,-46.13 147.14,-41.81"/>
<g id="a_edge5&#45;headlabel"><a xlink:href="dir_000019_000000.html" target="_top" xlink:title="3">
<text text-anchor="middle" x="151.59" y="-40.38" font-family="Helvetica,sans-Serif" font-size="10.00">3</text>
</a>
</g>
</g>
<!-- dir_1625c0207da71ef5bcc742f7d87fc397&#45;&gt;dir_a61a61d636d8fc46ea4cb7e95abb789e -->
<g id="edge11" class="edge">
<title>dir_1625c0207da71ef5bcc742f7d87fc397&#45;&gt;dir_a61a61d636d8fc46ea4cb7e95abb789e</title>
<path fill="none" stroke="black" d="M221.78,-180.1C214.75,-188.64 205.22,-199.11 196.01,-208.48"/>
<polygon fill="black" stroke="black" points="193.38,-206.16 188.75,-215.7 198.31,-211.13 193.38,-206.16"/>
<g id="a_edge11&#45;headlabel"><a xlink:href="dir_000028_000062.html" target="_top" xlink:title="1">
<text text-anchor="middle" x="193.92" y="-199.12" font-family="Helvetica,sans-Serif" font-size="10.00">1</text>
</a>
</g>
</g>
<!-- dir_1625c0207da71ef5bcc742f7d87fc397&#45;&gt;dir_5cb6e1a8c8be2c39561c895666c60a3e -->
<g id="edge12" class="edge">
<title>dir_1625c0207da71ef5bcc742f7d87fc397&#45;&gt;dir_5cb6e1a8c8be2c39561c895666c60a3e</title>
<path fill="none" stroke="black" d="M218.91,-143.7C212.74,-135.39 205.23,-125.28 198.44,-116.14"/>
<polygon fill="black" stroke="black" points="201.25,-114.04 192.47,-108.1 195.63,-118.22 201.25,-114.04"/>
<g id="a_edge12&#45;headlabel"><a xlink:href="dir_000028_000019.html" target="_top" xlink:title="7">
<text text-anchor="middle" x="205.67" y="-112.74" font-family="Helvetica,sans-Serif" font-size="10.00">7</text>
</a>
</g>
</g>
<!-- dir_1625c0207da71ef5bcc742f7d87fc397&#45;&gt;dir_97aefd0d527b934f1d99a682da8fe6a9 -->
<g id="edge13" class="edge">
<title>dir_1625c0207da71ef5bcc742f7d87fc397&#45;&gt;dir_97aefd0d527b934f1d99a682da8fe6a9</title>
<path fill="none" stroke="black" d="M232.76,-144C233.03,-124.81 230.8,-93.48 215.77,-72 202.59,-53.16 180.4,-40.04 161.23,-31.57"/>
<polygon fill="black" stroke="black" points="162.41,-28.27 151.83,-27.67 159.72,-34.74 162.41,-28.27"/>
<g id="a_edge13&#45;headlabel"><a xlink:href="dir_000028_000000.html" target="_top" xlink:title="84">
<text text-anchor="middle" x="166.82" y="-24.53" font-family="Helvetica,sans-Serif" font-size="10.00">84</text>
</a>
</g>
</g>
</g>
</svg>
