<?xml version="1.0" encoding="UTF-8" standalone="no"?>
<!DOCTYPE svg PUBLIC "-//W3C//DTD SVG 1.1//EN"
 "http://www.w3.org/Graphics/SVG/1.1/DTD/svg11.dtd">
<!-- Generated by graphviz version 2.43.0 (0)
 -->
<!-- Title: sources/Component/Animation Pages: 1 -->
<svg width="108pt" height="151pt"
 viewBox="0.00 0.00 108.00 151.00" xmlns="http://www.w3.org/2000/svg" xmlns:xlink="http://www.w3.org/1999/xlink">
<g id="graph0" class="graph" transform="scale(1 1) rotate(0) translate(4 147)">
<title>sources/Component/Animation</title>
<polygon fill="white" stroke="transparent" points="-4,4 -4,-147 104,-147 104,4 -4,4"/>
<g id="clust1" class="cluster">
<title>clusterdir_1625c0207da71ef5bcc742f7d87fc397</title>
<g id="a_clust1"><a xlink:href="dir_1625c0207da71ef5bcc742f7d87fc397.html" target="_top" xlink:title="Component">
<polygon fill="#ddddee" stroke="black" points="8,-64 8,-135 92,-135 92,-64 8,-64"/>
<text text-anchor="middle" x="50" y="-123" font-family="Helvetica,sans-Serif" font-size="10.00">Component</text>
</a>
</g>
</g>
<!-- dir_db1cf2b157d5e0eafa5cc4aa49d1b7d8 -->
<g id="node1" class="node">
<title>dir_db1cf2b157d5e0eafa5cc4aa49d1b7d8</title>
<g id="a_node1"><a xlink:href="dir_db1cf2b157d5e0eafa5cc4aa49d1b7d8.html" target="_top" xlink:title="Animation">
<polygon fill="#eeeeff" stroke="black" points="83.5,-108 16.5,-108 16.5,-72 83.5,-72 83.5,-108"/>
<text text-anchor="middle" x="50" y="-87.5" font-family="Helvetica,sans-Serif" font-size="10.00">Animation</text>
</a>
</g>
</g>
<!-- dir_97aefd0d527b934f1d99a682da8fe6a9 -->
<g id="node2" class="node">
<title>dir_97aefd0d527b934f1d99a682da8fe6a9</title>
<g id="a_node2"><a xlink:href="dir_97aefd0d527b934f1d99a682da8fe6a9.html" target="_top" xlink:title="lib">
<polygon fill="white" stroke="red" points="77,-36 23,-36 23,0 77,0 77,-36"/>
<text text-anchor="middle" x="50" y="-15.5" font-family="Helvetica,sans-Serif" font-size="10.00">lib</text>
</a>
</g>
</g>
<!-- dir_db1cf2b157d5e0eafa5cc4aa49d1b7d8&#45;&gt;dir_97aefd0d527b934f1d99a682da8fe6a9 -->
<g id="edge1" class="edge">
<title>dir_db1cf2b157d5e0eafa5cc4aa49d1b7d8&#45;&gt;dir_97aefd0d527b934f1d99a682da8fe6a9</title>
<path fill="none" stroke="black" d="M50,-71.7C50,-63.98 50,-54.71 50,-46.11"/>
<polygon fill="black" stroke="black" points="53.5,-46.1 50,-36.1 46.5,-46.1 53.5,-46.1"/>
<g id="a_edge1&#45;headlabel"><a xlink:href="dir_000029_000000.html" target="_top" xlink:title="5">
<text text-anchor="middle" x="56.34" y="-47.2" font-family="Helvetica,sans-Serif" font-size="10.00">5</text>
</a>
</g>
</g>
</g>
</svg>
