<?xml version="1.0" encoding="UTF-8" standalone="no"?>
<!DOCTYPE svg PUBLIC "-//W3C//DTD SVG 1.1//EN"
 "http://www.w3.org/Graphics/SVG/1.1/DTD/svg11.dtd">
<!-- Generated by graphviz version 2.43.0 (0)
 -->
<!-- Title: sources/System/IAControllable Pages: 1 -->
<svg width="149pt" height="295pt"
 viewBox="0.00 0.00 149.00 295.00" xmlns="http://www.w3.org/2000/svg" xmlns:xlink="http://www.w3.org/1999/xlink">
<g id="graph0" class="graph" transform="scale(1 1) rotate(0) translate(4 291)">
<title>sources/System/IAControllable</title>
<polygon fill="white" stroke="transparent" points="-4,4 -4,-291 145,-291 145,4 -4,4"/>
<g id="clust1" class="cluster">
<title>clusterdir_dbff9d19e82c23288cf26fa638b485e8</title>
<g id="a_clust1"><a xlink:href="dir_dbff9d19e82c23288cf26fa638b485e8.html" target="_top" xlink:title="System">
<polygon fill="#ddddee" stroke="black" points="31,-208 31,-279 133,-279 133,-208 31,-208"/>
<text text-anchor="middle" x="82" y="-267" font-family="Helvetica,sans-Serif" font-size="10.00">System</text>
</a>
</g>
</g>
<!-- dir_633b1f63c6548213f74b7ab8becb7421 -->
<g id="node1" class="node">
<title>dir_633b1f63c6548213f74b7ab8becb7421</title>
<g id="a_node1"><a xlink:href="dir_633b1f63c6548213f74b7ab8becb7421.html" target="_top" xlink:title="IAControllable">
<polygon fill="#eeeeff" stroke="black" points="125,-252 39,-252 39,-216 125,-216 125,-252"/>
<text text-anchor="middle" x="82" y="-231.5" font-family="Helvetica,sans-Serif" font-size="10.00">IAControllable</text>
</a>
</g>
</g>
<!-- dir_a61a61d636d8fc46ea4cb7e95abb789e -->
<g id="node2" class="node">
<title>dir_a61a61d636d8fc46ea4cb7e95abb789e</title>
<g id="a_node2"><a xlink:href="dir_a61a61d636d8fc46ea4cb7e95abb789e.html" target="_top" xlink:title="Map">
<polygon fill="none" stroke="black" points="54,-180 0,-180 0,-144 54,-144 54,-180"/>
<text text-anchor="middle" x="27" y="-159.5" font-family="Helvetica,sans-Serif" font-size="10.00">Map</text>
</a>
</g>
</g>
<!-- dir_633b1f63c6548213f74b7ab8becb7421&#45;&gt;dir_a61a61d636d8fc46ea4cb7e95abb789e -->
<g id="edge5" class="edge">
<title>dir_633b1f63c6548213f74b7ab8becb7421&#45;&gt;dir_a61a61d636d8fc46ea4cb7e95abb789e</title>
<path fill="none" stroke="black" d="M68.4,-215.7C61.88,-207.39 53.93,-197.28 46.75,-188.14"/>
<polygon fill="black" stroke="black" points="49.37,-185.81 40.44,-180.1 43.87,-190.13 49.37,-185.81"/>
<g id="a_edge5&#45;headlabel"><a xlink:href="dir_000080_000062.html" target="_top" xlink:title="2">
<text text-anchor="middle" x="53.82" y="-184.38" font-family="Helvetica,sans-Serif" font-size="10.00">2</text>
</a>
</g>
</g>
<!-- dir_97aefd0d527b934f1d99a682da8fe6a9 -->
<g id="node3" class="node">
<title>dir_97aefd0d527b934f1d99a682da8fe6a9</title>
<g id="a_node3"><a xlink:href="dir_97aefd0d527b934f1d99a682da8fe6a9.html" target="_top" xlink:title="lib">
<polygon fill="white" stroke="red" points="82,-36 28,-36 28,0 82,0 82,-36"/>
<text text-anchor="middle" x="55" y="-15.5" font-family="Helvetica,sans-Serif" font-size="10.00">lib</text>
</a>
</g>
</g>
<!-- dir_633b1f63c6548213f74b7ab8becb7421&#45;&gt;dir_97aefd0d527b934f1d99a682da8fe6a9 -->
<g id="edge6" class="edge">
<title>dir_633b1f63c6548213f74b7ab8becb7421&#45;&gt;dir_97aefd0d527b934f1d99a682da8fe6a9</title>
<path fill="none" stroke="black" d="M88.82,-215.94C99.78,-185.87 118.33,-121.9 100,-72 96.22,-61.7 89.44,-52.02 82.28,-43.84"/>
<polygon fill="black" stroke="black" points="84.77,-41.38 75.38,-36.47 79.66,-46.16 84.77,-41.38"/>
<g id="a_edge6&#45;headlabel"><a xlink:href="dir_000080_000000.html" target="_top" xlink:title="1">
<text text-anchor="middle" x="89.3" y="-39.56" font-family="Helvetica,sans-Serif" font-size="10.00">1</text>
</a>
</g>
</g>
<!-- dir_1625c0207da71ef5bcc742f7d87fc397 -->
<g id="node4" class="node">
<title>dir_1625c0207da71ef5bcc742f7d87fc397</title>
<g id="a_node4"><a xlink:href="dir_1625c0207da71ef5bcc742f7d87fc397.html" target="_top" xlink:title="Component">
<polygon fill="white" stroke="red" points="91.5,-108 18.5,-108 18.5,-72 91.5,-72 91.5,-108"/>
<text text-anchor="middle" x="55" y="-87.5" font-family="Helvetica,sans-Serif" font-size="10.00">Component</text>
</a>
</g>
</g>
<!-- dir_633b1f63c6548213f74b7ab8becb7421&#45;&gt;dir_1625c0207da71ef5bcc742f7d87fc397 -->
<g id="edge7" class="edge">
<title>dir_633b1f63c6548213f74b7ab8becb7421&#45;&gt;dir_1625c0207da71ef5bcc742f7d87fc397</title>
<path fill="none" stroke="black" d="M78.74,-215.87C74.14,-191.67 65.69,-147.21 60.21,-118.39"/>
<polygon fill="black" stroke="black" points="63.57,-117.36 58.27,-108.19 56.7,-118.67 63.57,-117.36"/>
<g id="a_edge7&#45;headlabel"><a xlink:href="dir_000080_000028.html" target="_top" xlink:title="7">
<text text-anchor="middle" x="67.04" y="-117.86" font-family="Helvetica,sans-Serif" font-size="10.00">7</text>
</a>
</g>
</g>
<!-- dir_a61a61d636d8fc46ea4cb7e95abb789e&#45;&gt;dir_97aefd0d527b934f1d99a682da8fe6a9 -->
<g id="edge1" class="edge">
<title>dir_a61a61d636d8fc46ea4cb7e95abb789e&#45;&gt;dir_97aefd0d527b934f1d99a682da8fe6a9</title>
<path fill="none" stroke="black" d="M18.04,-143.83C9.77,-125.57 0.01,-96.07 9,-72 12.88,-61.62 19.8,-51.93 27.12,-43.74"/>
<polygon fill="black" stroke="black" points="29.78,-46.03 34.18,-36.38 24.73,-41.18 29.78,-46.03"/>
<g id="a_edge1&#45;headlabel"><a xlink:href="dir_000062_000000.html" target="_top" xlink:title="4">
<text text-anchor="middle" x="29.35" y="-48.09" font-family="Helvetica,sans-Serif" font-size="10.00">4</text>
</a>
</g>
</g>
<!-- dir_a61a61d636d8fc46ea4cb7e95abb789e&#45;&gt;dir_1625c0207da71ef5bcc742f7d87fc397 -->
<g id="edge2" class="edge">
<title>dir_a61a61d636d8fc46ea4cb7e95abb789e&#45;&gt;dir_1625c0207da71ef5bcc742f7d87fc397</title>
<path fill="none" stroke="black" d="M28.01,-143.7C30.37,-135.73 34.01,-126.1 37.93,-117.26"/>
<polygon fill="black" stroke="black" points="41.16,-118.64 42.26,-108.1 34.83,-115.65 41.16,-118.64"/>
<g id="a_edge2&#45;headlabel"><a xlink:href="dir_000062_000028.html" target="_top" xlink:title="11">
<text text-anchor="middle" x="42.19" y="-120.6" font-family="Helvetica,sans-Serif" font-size="10.00">11</text>
</a>
</g>
</g>
<!-- dir_1625c0207da71ef5bcc742f7d87fc397&#45;&gt;dir_a61a61d636d8fc46ea4cb7e95abb789e -->
<g id="edge3" class="edge">
<title>dir_1625c0207da71ef5bcc742f7d87fc397&#45;&gt;dir_a61a61d636d8fc46ea4cb7e95abb789e</title>
<path fill="none" stroke="black" d="M54.05,-108.1C51.71,-116.04 48.09,-125.67 44.16,-134.51"/>
<polygon fill="black" stroke="black" points="40.93,-133.16 39.84,-143.7 47.27,-136.14 40.93,-133.16"/>
<g id="a_edge3&#45;headlabel"><a xlink:href="dir_000028_000062.html" target="_top" xlink:title="1">
<text text-anchor="middle" x="39.9" y="-126.2" font-family="Helvetica,sans-Serif" font-size="10.00">1</text>
</a>
</g>
</g>
<!-- dir_1625c0207da71ef5bcc742f7d87fc397&#45;&gt;dir_97aefd0d527b934f1d99a682da8fe6a9 -->
<g id="edge4" class="edge">
<title>dir_1625c0207da71ef5bcc742f7d87fc397&#45;&gt;dir_97aefd0d527b934f1d99a682da8fe6a9</title>
<path fill="none" stroke="black" d="M55,-71.7C55,-63.98 55,-54.71 55,-46.11"/>
<polygon fill="black" stroke="black" points="58.5,-46.1 55,-36.1 51.5,-46.1 58.5,-46.1"/>
<g id="a_edge4&#45;headlabel"><a xlink:href="dir_000028_000000.html" target="_top" xlink:title="84">
<text text-anchor="middle" x="61.34" y="-47.2" font-family="Helvetica,sans-Serif" font-size="10.00">84</text>
</a>
</g>
</g>
</g>
</svg>
