<?xml version="1.0" encoding="UTF-8" standalone="no"?>
<!DOCTYPE svg PUBLIC "-//W3C//DTD SVG 1.1//EN"
 "http://www.w3.org/Graphics/SVG/1.1/DTD/svg11.dtd">
<!-- Generated by graphviz version 2.43.0 (0)
 -->
<!-- Title: lib/Ray/sources/Controllers Pages: 1 -->
<svg width="110pt" height="151pt"
 viewBox="0.00 0.00 110.00 151.00" xmlns="http://www.w3.org/2000/svg" xmlns:xlink="http://www.w3.org/1999/xlink">
<g id="graph0" class="graph" transform="scale(1 1) rotate(0) translate(4 147)">
<title>lib/Ray/sources/Controllers</title>
<polygon fill="white" stroke="transparent" points="-4,4 -4,-147 106,-147 106,4 -4,4"/>
<g id="clust1" class="cluster">
<title>clusterdir_6a062873ed3e64cc8025242d19396498</title>
<g id="a_clust1"><a xlink:href="dir_6a062873ed3e64cc8025242d19396498.html" target="_top" xlink:title="sources">
<polygon fill="#ddddee" stroke="black" points="8,-64 8,-135 94,-135 94,-64 8,-64"/>
<text text-anchor="middle" x="51" y="-123" font-family="Helvetica,sans-Serif" font-size="10.00">sources</text>
</a>
</g>
</g>
<!-- dir_59a350bb1543496d810d785233c57fb9 -->
<g id="node1" class="node">
<title>dir_59a350bb1543496d810d785233c57fb9</title>
<g id="a_node1"><a xlink:href="dir_59a350bb1543496d810d785233c57fb9.html" target="_top" xlink:title="Controllers">
<polygon fill="#eeeeff" stroke="black" points="86,-108 16,-108 16,-72 86,-72 86,-108"/>
<text text-anchor="middle" x="51" y="-87.5" font-family="Helvetica,sans-Serif" font-size="10.00">Controllers</text>
</a>
</g>
</g>
<!-- dir_f5c1662545658e75a7dc6b962ca8f4b3 -->
<g id="node2" class="node">
<title>dir_f5c1662545658e75a7dc6b962ca8f4b3</title>
<g id="a_node2"><a xlink:href="dir_f5c1662545658e75a7dc6b962ca8f4b3.html" target="_top" xlink:title="Vector">
<polygon fill="none" stroke="black" points="78,-36 24,-36 24,0 78,0 78,-36"/>
<text text-anchor="middle" x="51" y="-15.5" font-family="Helvetica,sans-Serif" font-size="10.00">Vector</text>
</a>
</g>
</g>
<!-- dir_59a350bb1543496d810d785233c57fb9&#45;&gt;dir_f5c1662545658e75a7dc6b962ca8f4b3 -->
<g id="edge1" class="edge">
<title>dir_59a350bb1543496d810d785233c57fb9&#45;&gt;dir_f5c1662545658e75a7dc6b962ca8f4b3</title>
<path fill="none" stroke="black" d="M51,-71.7C51,-63.98 51,-54.71 51,-46.11"/>
<polygon fill="black" stroke="black" points="54.5,-46.1 51,-36.1 47.5,-46.1 54.5,-46.1"/>
<g id="a_edge1&#45;headlabel"><a xlink:href="dir_000008_000017.html" target="_top" xlink:title="1">
<text text-anchor="middle" x="57.34" y="-47.2" font-family="Helvetica,sans-Serif" font-size="10.00">1</text>
</a>
</g>
</g>
</g>
</svg>
