<?xml version="1.0" encoding="UTF-8" standalone="no"?>
<!DOCTYPE svg PUBLIC "-//W3C//DTD SVG 1.1//EN"
 "http://www.w3.org/Graphics/SVG/1.1/DTD/svg11.dtd">
<!-- Generated by graphviz version 2.43.0 (0)
 -->
<!-- Title: sources/System/BumperTimer Pages: 1 -->
<svg width="135pt" height="223pt"
 viewBox="0.00 0.00 134.50 223.00" xmlns="http://www.w3.org/2000/svg" xmlns:xlink="http://www.w3.org/1999/xlink">
<g id="graph0" class="graph" transform="scale(1 1) rotate(0) translate(4 219)">
<title>sources/System/BumperTimer</title>
<polygon fill="white" stroke="transparent" points="-4,4 -4,-219 130.5,-219 130.5,4 -4,4"/>
<g id="clust1" class="cluster">
<title>clusterdir_dbff9d19e82c23288cf26fa638b485e8</title>
<g id="a_clust1"><a xlink:href="dir_dbff9d19e82c23288cf26fa638b485e8.html" target="_top" xlink:title="System">
<polygon fill="#ddddee" stroke="black" points="8,-136 8,-207 108,-207 108,-136 8,-136"/>
<text text-anchor="middle" x="58" y="-195" font-family="Helvetica,sans-Serif" font-size="10.00">System</text>
</a>
</g>
</g>
<!-- dir_9faa03480f91e1b37bb1cc24b19f87f6 -->
<g id="node1" class="node">
<title>dir_9faa03480f91e1b37bb1cc24b19f87f6</title>
<g id="a_node1"><a xlink:href="dir_9faa03480f91e1b37bb1cc24b19f87f6.html" target="_top" xlink:title="BumperTimer">
<polygon fill="#eeeeff" stroke="black" points="99.5,-180 16.5,-180 16.5,-144 99.5,-144 99.5,-180"/>
<text text-anchor="middle" x="58" y="-159.5" font-family="Helvetica,sans-Serif" font-size="10.00">BumperTimer</text>
</a>
</g>
</g>
<!-- dir_97aefd0d527b934f1d99a682da8fe6a9 -->
<g id="node2" class="node">
<title>dir_97aefd0d527b934f1d99a682da8fe6a9</title>
<g id="a_node2"><a xlink:href="dir_97aefd0d527b934f1d99a682da8fe6a9.html" target="_top" xlink:title="lib">
<polygon fill="white" stroke="red" points="84,-36 30,-36 30,0 84,0 84,-36"/>
<text text-anchor="middle" x="57" y="-15.5" font-family="Helvetica,sans-Serif" font-size="10.00">lib</text>
</a>
</g>
</g>
<!-- dir_9faa03480f91e1b37bb1cc24b19f87f6&#45;&gt;dir_97aefd0d527b934f1d99a682da8fe6a9 -->
<g id="edge1" class="edge">
<title>dir_9faa03480f91e1b37bb1cc24b19f87f6&#45;&gt;dir_97aefd0d527b934f1d99a682da8fe6a9</title>
<path fill="none" stroke="black" d="M52.59,-143.53C49.7,-133.29 46.45,-120.04 45,-108 43.08,-92.12 43.22,-87.9 45,-72 45.96,-63.43 47.76,-54.22 49.69,-45.93"/>
<polygon fill="black" stroke="black" points="53.13,-46.57 52.13,-36.02 46.34,-44.89 53.13,-46.57"/>
<g id="a_edge1&#45;headlabel"><a xlink:href="dir_000071_000000.html" target="_top" xlink:title="1">
<text text-anchor="middle" x="55.03" y="-48.24" font-family="Helvetica,sans-Serif" font-size="10.00">1</text>
</a>
</g>
</g>
<!-- dir_1625c0207da71ef5bcc742f7d87fc397 -->
<g id="node3" class="node">
<title>dir_1625c0207da71ef5bcc742f7d87fc397</title>
<g id="a_node3"><a xlink:href="dir_1625c0207da71ef5bcc742f7d87fc397.html" target="_top" xlink:title="Component">
<polygon fill="white" stroke="red" points="126.5,-108 53.5,-108 53.5,-72 126.5,-72 126.5,-108"/>
<text text-anchor="middle" x="90" y="-87.5" font-family="Helvetica,sans-Serif" font-size="10.00">Component</text>
</a>
</g>
</g>
<!-- dir_9faa03480f91e1b37bb1cc24b19f87f6&#45;&gt;dir_1625c0207da71ef5bcc742f7d87fc397 -->
<g id="edge2" class="edge">
<title>dir_9faa03480f91e1b37bb1cc24b19f87f6&#45;&gt;dir_1625c0207da71ef5bcc742f7d87fc397</title>
<path fill="none" stroke="black" d="M65.91,-143.7C69.55,-135.73 73.95,-126.1 77.99,-117.26"/>
<polygon fill="black" stroke="black" points="81.21,-118.65 82.18,-108.1 74.84,-115.74 81.21,-118.65"/>
<g id="a_edge2&#45;headlabel"><a xlink:href="dir_000071_000028.html" target="_top" xlink:title="3">
<text text-anchor="middle" x="82.29" y="-120.6" font-family="Helvetica,sans-Serif" font-size="10.00">3</text>
</a>
</g>
</g>
<!-- dir_1625c0207da71ef5bcc742f7d87fc397&#45;&gt;dir_97aefd0d527b934f1d99a682da8fe6a9 -->
<g id="edge3" class="edge">
<title>dir_1625c0207da71ef5bcc742f7d87fc397&#45;&gt;dir_97aefd0d527b934f1d99a682da8fe6a9</title>
<path fill="none" stroke="black" d="M81.84,-71.7C78.09,-63.73 73.55,-54.1 69.38,-45.26"/>
<polygon fill="black" stroke="black" points="72.49,-43.66 65.06,-36.1 66.16,-46.64 72.49,-43.66"/>
<g id="a_edge3&#45;headlabel"><a xlink:href="dir_000028_000000.html" target="_top" xlink:title="84">
<text text-anchor="middle" x="76.59" y="-43.2" font-family="Helvetica,sans-Serif" font-size="10.00">84</text>
</a>
</g>
</g>
</g>
</svg>
