<?xml version="1.0" encoding="UTF-8" standalone="no"?>
<!DOCTYPE svg PUBLIC "-//W3C//DTD SVG 1.1//EN"
 "http://www.w3.org/Graphics/SVG/1.1/DTD/svg11.dtd">
<!-- Generated by graphviz version 2.43.0 (0)
 -->
<!-- Title: sources/System/Controllable Pages: 1 -->
<svg width="131pt" height="223pt"
 viewBox="0.00 0.00 130.50 223.00" xmlns="http://www.w3.org/2000/svg" xmlns:xlink="http://www.w3.org/1999/xlink">
<g id="graph0" class="graph" transform="scale(1 1) rotate(0) translate(4 219)">
<title>sources/System/Controllable</title>
<polygon fill="white" stroke="transparent" points="-4,4 -4,-219 126.5,-219 126.5,4 -4,4"/>
<g id="clust1" class="cluster">
<title>clusterdir_dbff9d19e82c23288cf26fa638b485e8</title>
<g id="a_clust1"><a xlink:href="dir_dbff9d19e82c23288cf26fa638b485e8.html" target="_top" xlink:title="System">
<polygon fill="#ddddee" stroke="black" points="8,-136 8,-207 100,-207 100,-136 8,-136"/>
<text text-anchor="middle" x="54" y="-195" font-family="Helvetica,sans-Serif" font-size="10.00">System</text>
</a>
</g>
</g>
<!-- dir_2c8df9956536d632d4487544fced483a -->
<g id="node1" class="node">
<title>dir_2c8df9956536d632d4487544fced483a</title>
<g id="a_node1"><a xlink:href="dir_2c8df9956536d632d4487544fced483a.html" target="_top" xlink:title="Controllable">
<polygon fill="#eeeeff" stroke="black" points="92,-180 16,-180 16,-144 92,-144 92,-180"/>
<text text-anchor="middle" x="54" y="-159.5" font-family="Helvetica,sans-Serif" font-size="10.00">Controllable</text>
</a>
</g>
</g>
<!-- dir_97aefd0d527b934f1d99a682da8fe6a9 -->
<g id="node2" class="node">
<title>dir_97aefd0d527b934f1d99a682da8fe6a9</title>
<g id="a_node2"><a xlink:href="dir_97aefd0d527b934f1d99a682da8fe6a9.html" target="_top" xlink:title="lib">
<polygon fill="white" stroke="red" points="80,-36 26,-36 26,0 80,0 80,-36"/>
<text text-anchor="middle" x="53" y="-15.5" font-family="Helvetica,sans-Serif" font-size="10.00">lib</text>
</a>
</g>
</g>
<!-- dir_2c8df9956536d632d4487544fced483a&#45;&gt;dir_97aefd0d527b934f1d99a682da8fe6a9 -->
<g id="edge1" class="edge">
<title>dir_2c8df9956536d632d4487544fced483a&#45;&gt;dir_97aefd0d527b934f1d99a682da8fe6a9</title>
<path fill="none" stroke="black" d="M48.59,-143.53C45.7,-133.29 42.45,-120.04 41,-108 39.08,-92.12 39.22,-87.9 41,-72 41.96,-63.43 43.76,-54.22 45.69,-45.93"/>
<polygon fill="black" stroke="black" points="49.13,-46.57 48.13,-36.02 42.34,-44.89 49.13,-46.57"/>
<g id="a_edge1&#45;headlabel"><a xlink:href="dir_000073_000000.html" target="_top" xlink:title="1">
<text text-anchor="middle" x="51.03" y="-48.24" font-family="Helvetica,sans-Serif" font-size="10.00">1</text>
</a>
</g>
</g>
<!-- dir_1625c0207da71ef5bcc742f7d87fc397 -->
<g id="node3" class="node">
<title>dir_1625c0207da71ef5bcc742f7d87fc397</title>
<g id="a_node3"><a xlink:href="dir_1625c0207da71ef5bcc742f7d87fc397.html" target="_top" xlink:title="Component">
<polygon fill="white" stroke="red" points="122.5,-108 49.5,-108 49.5,-72 122.5,-72 122.5,-108"/>
<text text-anchor="middle" x="86" y="-87.5" font-family="Helvetica,sans-Serif" font-size="10.00">Component</text>
</a>
</g>
</g>
<!-- dir_2c8df9956536d632d4487544fced483a&#45;&gt;dir_1625c0207da71ef5bcc742f7d87fc397 -->
<g id="edge2" class="edge">
<title>dir_2c8df9956536d632d4487544fced483a&#45;&gt;dir_1625c0207da71ef5bcc742f7d87fc397</title>
<path fill="none" stroke="black" d="M61.91,-143.7C65.55,-135.73 69.95,-126.1 73.99,-117.26"/>
<polygon fill="black" stroke="black" points="77.21,-118.65 78.18,-108.1 70.84,-115.74 77.21,-118.65"/>
<g id="a_edge2&#45;headlabel"><a xlink:href="dir_000073_000028.html" target="_top" xlink:title="6">
<text text-anchor="middle" x="78.29" y="-120.6" font-family="Helvetica,sans-Serif" font-size="10.00">6</text>
</a>
</g>
</g>
<!-- dir_1625c0207da71ef5bcc742f7d87fc397&#45;&gt;dir_97aefd0d527b934f1d99a682da8fe6a9 -->
<g id="edge3" class="edge">
<title>dir_1625c0207da71ef5bcc742f7d87fc397&#45;&gt;dir_97aefd0d527b934f1d99a682da8fe6a9</title>
<path fill="none" stroke="black" d="M77.84,-71.7C74.09,-63.73 69.55,-54.1 65.38,-45.26"/>
<polygon fill="black" stroke="black" points="68.49,-43.66 61.06,-36.1 62.16,-46.64 68.49,-43.66"/>
<g id="a_edge3&#45;headlabel"><a xlink:href="dir_000028_000000.html" target="_top" xlink:title="84">
<text text-anchor="middle" x="72.59" y="-43.2" font-family="Helvetica,sans-Serif" font-size="10.00">84</text>
</a>
</g>
</g>
</g>
</svg>
