<?xml version="1.0" encoding="UTF-8" standalone="no"?>
<!DOCTYPE svg PUBLIC "-//W3C//DTD SVG 1.1//EN"
 "http://www.w3.org/Graphics/SVG/1.1/DTD/svg11.dtd">
<!-- Generated by graphviz version 2.43.0 (0)
 -->
<!-- Title: sources Pages: 1 -->
<svg width="452pt" height="492pt"
 viewBox="0.00 0.00 452.00 492.00" xmlns="http://www.w3.org/2000/svg" xmlns:xlink="http://www.w3.org/1999/xlink">
<g id="graph0" class="graph" transform="scale(1 1) rotate(0) translate(4 488)">
<title>sources</title>
<polygon fill="white" stroke="transparent" points="-4,4 -4,-488 448,-488 448,4 -4,4"/>
<g id="clust1" class="cluster">
<title>clusterdir_08d237fc27d4ecd563f71c5d52f2fecc</title>
<g id="a_clust1"><a xlink:href="dir_08d237fc27d4ecd563f71c5d52f2fecc.html" target="_top">
<polygon fill="#eeeeff" stroke="black" points="8,-64 8,-476 258,-476 258,-64 8,-64"/>
</a>
</g>
</g>
<!-- dir_08d237fc27d4ecd563f71c5d52f2fecc -->
<g id="node1" class="node">
<title>dir_08d237fc27d4ecd563f71c5d52f2fecc</title>
<text text-anchor="middle" x="223" y="-447.5" font-family="Helvetica,sans-Serif" font-size="10.00">sources</text>
</g>
<!-- dir_1625c0207da71ef5bcc742f7d87fc397 -->
<g id="node2" class="node">
<title>dir_1625c0207da71ef5bcc742f7d87fc397</title>
<g id="a_node2"><a xlink:href="dir_1625c0207da71ef5bcc742f7d87fc397.html" target="_top" xlink:title="Component">
<polygon fill="white" stroke="red" points="177.5,-468 104.5,-468 104.5,-432 177.5,-432 177.5,-468"/>
<text text-anchor="middle" x="141" y="-447.5" font-family="Helvetica,sans-Serif" font-size="10.00">Component</text>
</a>
</g>
</g>
<!-- dir_e491b0d3ac4fed3c9fa700917290c7c5 -->
<g id="node3" class="node">
<title>dir_e491b0d3ac4fed3c9fa700917290c7c5</title>
<g id="a_node3"><a xlink:href="dir_e491b0d3ac4fed3c9fa700917290c7c5.html" target="_top" xlink:title="Exception">
<polygon fill="white" stroke="black" points="81.5,-108 16.5,-108 16.5,-72 81.5,-72 81.5,-108"/>
<text text-anchor="middle" x="49" y="-87.5" font-family="Helvetica,sans-Serif" font-size="10.00">Exception</text>
</a>
</g>
</g>
<!-- dir_1625c0207da71ef5bcc742f7d87fc397&#45;&gt;dir_e491b0d3ac4fed3c9fa700917290c7c5 -->
<g id="edge18" class="edge">
<title>dir_1625c0207da71ef5bcc742f7d87fc397&#45;&gt;dir_e491b0d3ac4fed3c9fa700917290c7c5</title>
<path fill="none" stroke="black" d="M104.09,-435.03C85.35,-426.3 63.55,-413.39 49,-396 22.03,-363.76 17,-349.03 17,-307 17,-307 17,-307 17,-233 17,-192.04 29.83,-146.02 39.24,-117.77"/>
<polygon fill="black" stroke="black" points="42.59,-118.8 42.52,-108.21 35.97,-116.53 42.59,-118.8"/>
<g id="a_edge18&#45;headlabel"><a xlink:href="dir_000028_000060.html" target="_top" xlink:title="1">
<text text-anchor="middle" x="44.11" y="-120.62" font-family="Helvetica,sans-Serif" font-size="10.00">1</text>
</a>
</g>
</g>
<!-- dir_a61a61d636d8fc46ea4cb7e95abb789e -->
<g id="node5" class="node">
<title>dir_a61a61d636d8fc46ea4cb7e95abb789e</title>
<g id="a_node5"><a xlink:href="dir_a61a61d636d8fc46ea4cb7e95abb789e.html" target="_top" xlink:title="Map">
<polygon fill="white" stroke="black" points="170,-396 116,-396 116,-360 170,-360 170,-396"/>
<text text-anchor="middle" x="143" y="-375.5" font-family="Helvetica,sans-Serif" font-size="10.00">Map</text>
</a>
</g>
</g>
<!-- dir_1625c0207da71ef5bcc742f7d87fc397&#45;&gt;dir_a61a61d636d8fc46ea4cb7e95abb789e -->
<g id="edge15" class="edge">
<title>dir_1625c0207da71ef5bcc742f7d87fc397&#45;&gt;dir_a61a61d636d8fc46ea4cb7e95abb789e</title>
<path fill="none" stroke="black" d="M135.58,-431.7C135,-423.98 135.04,-414.71 135.63,-406.11"/>
<polygon fill="black" stroke="black" points="139.12,-406.4 136.62,-396.1 132.15,-405.71 139.12,-406.4"/>
<g id="a_edge15&#45;headlabel"><a xlink:href="dir_000028_000062.html" target="_top" xlink:title="1">
<text text-anchor="middle" x="141.59" y="-407.76" font-family="Helvetica,sans-Serif" font-size="10.00">1</text>
</a>
</g>
</g>
<!-- dir_5cb6e1a8c8be2c39561c895666c60a3e -->
<g id="node6" class="node">
<title>dir_5cb6e1a8c8be2c39561c895666c60a3e</title>
<g id="a_node6"><a xlink:href="dir_5cb6e1a8c8be2c39561c895666c60a3e.html" target="_top" xlink:title="Models">
<polygon fill="white" stroke="black" points="250,-180 196,-180 196,-144 250,-144 250,-180"/>
<text text-anchor="middle" x="223" y="-159.5" font-family="Helvetica,sans-Serif" font-size="10.00">Models</text>
</a>
</g>
</g>
<!-- dir_1625c0207da71ef5bcc742f7d87fc397&#45;&gt;dir_5cb6e1a8c8be2c39561c895666c60a3e -->
<g id="edge16" class="edge">
<title>dir_1625c0207da71ef5bcc742f7d87fc397&#45;&gt;dir_5cb6e1a8c8be2c39561c895666c60a3e</title>
<path fill="none" stroke="black" d="M160.75,-431.58C170.54,-421.97 181.78,-409.31 189,-396 227.98,-324.13 230.08,-297.71 227,-216 226.69,-207.67 226.09,-198.61 225.46,-190.38"/>
<polygon fill="black" stroke="black" points="228.93,-189.85 224.62,-180.17 221.95,-190.42 228.93,-189.85"/>
<g id="a_edge16&#45;headlabel"><a xlink:href="dir_000028_000019.html" target="_top" xlink:title="7">
<text text-anchor="middle" x="232.05" y="-190.7" font-family="Helvetica,sans-Serif" font-size="10.00">7</text>
</a>
</g>
</g>
<!-- dir_97aefd0d527b934f1d99a682da8fe6a9 -->
<g id="node11" class="node">
<title>dir_97aefd0d527b934f1d99a682da8fe6a9</title>
<g id="a_node11"><a xlink:href="dir_97aefd0d527b934f1d99a682da8fe6a9.html" target="_top" xlink:title="lib">
<polygon fill="white" stroke="red" points="357,-36 303,-36 303,0 357,0 357,-36"/>
<text text-anchor="middle" x="330" y="-15.5" font-family="Helvetica,sans-Serif" font-size="10.00">lib</text>
</a>
</g>
</g>
<!-- dir_1625c0207da71ef5bcc742f7d87fc397&#45;&gt;dir_97aefd0d527b934f1d99a682da8fe6a9 -->
<g id="edge17" class="edge">
<title>dir_1625c0207da71ef5bcc742f7d87fc397&#45;&gt;dir_97aefd0d527b934f1d99a682da8fe6a9</title>
<path fill="none" stroke="black" d="M177.55,-433.92C258.14,-400.42 444,-321.56 444,-307 444,-307 444,-307 444,-161 444,-112.7 426.72,-100.42 395,-64 386.69,-54.46 375.94,-45.95 365.58,-38.98"/>
<polygon fill="black" stroke="black" points="367.33,-35.94 357.03,-33.48 363.55,-41.83 367.33,-35.94"/>
<g id="a_edge17&#45;headlabel"><a xlink:href="dir_000028_000000.html" target="_top" xlink:title="84">
<text text-anchor="middle" x="371.89" y="-33" font-family="Helvetica,sans-Serif" font-size="10.00">84</text>
</a>
</g>
</g>
<!-- dir_5f4135714bf2aa7d236f4696d6db8e69 -->
<g id="node4" class="node">
<title>dir_5f4135714bf2aa7d236f4696d6db8e69</title>
<g id="a_node4"><a xlink:href="dir_5f4135714bf2aa7d236f4696d6db8e69.html" target="_top" xlink:title="Items">
<polygon fill="white" stroke="black" points="154,-108 100,-108 100,-72 154,-72 154,-108"/>
<text text-anchor="middle" x="127" y="-87.5" font-family="Helvetica,sans-Serif" font-size="10.00">Items</text>
</a>
</g>
</g>
<!-- dir_5f4135714bf2aa7d236f4696d6db8e69&#45;&gt;dir_1625c0207da71ef5bcc742f7d87fc397 -->
<g id="edge14" class="edge">
<title>dir_5f4135714bf2aa7d236f4696d6db8e69&#45;&gt;dir_1625c0207da71ef5bcc742f7d87fc397</title>
<path fill="none" stroke="black" d="M107.03,-108.05C80.51,-132.69 37,-181.05 37,-233 37,-307 37,-307 37,-307 37,-356.37 78.42,-399.98 108.98,-425.44"/>
<polygon fill="black" stroke="black" points="106.9,-428.26 116.88,-431.82 111.3,-422.81 106.9,-428.26"/>
<g id="a_edge14&#45;headlabel"><a xlink:href="dir_000061_000028.html" target="_top" xlink:title="7">
<text text-anchor="middle" x="102.32" y="-425.71" font-family="Helvetica,sans-Serif" font-size="10.00">7</text>
</a>
</g>
</g>
<!-- dir_5f4135714bf2aa7d236f4696d6db8e69&#45;&gt;dir_97aefd0d527b934f1d99a682da8fe6a9 -->
<g id="edge13" class="edge">
<title>dir_5f4135714bf2aa7d236f4696d6db8e69&#45;&gt;dir_97aefd0d527b934f1d99a682da8fe6a9</title>
<path fill="none" stroke="black" d="M149.14,-71.88C153.57,-68.97 158.31,-66.18 163,-64 205.44,-44.27 258.11,-31.88 292.82,-25.21"/>
<polygon fill="black" stroke="black" points="293.79,-28.59 302.99,-23.32 292.52,-21.71 293.79,-28.59"/>
<g id="a_edge13&#45;headlabel"><a xlink:href="dir_000061_000000.html" target="_top" xlink:title="1">
<text text-anchor="middle" x="290.78" y="-29.54" font-family="Helvetica,sans-Serif" font-size="10.00">1</text>
</a>
</g>
</g>
<!-- dir_a61a61d636d8fc46ea4cb7e95abb789e&#45;&gt;dir_1625c0207da71ef5bcc742f7d87fc397 -->
<g id="edge4" class="edge">
<title>dir_a61a61d636d8fc46ea4cb7e95abb789e&#45;&gt;dir_1625c0207da71ef5bcc742f7d87fc397</title>
<path fill="none" stroke="black" d="M148.41,-396.1C148.99,-403.79 148.96,-413.05 148.39,-421.67"/>
<polygon fill="black" stroke="black" points="144.89,-421.4 147.41,-431.7 151.86,-422.08 144.89,-421.4"/>
<g id="a_edge4&#45;headlabel"><a xlink:href="dir_000062_000028.html" target="_top" xlink:title="11">
<text text-anchor="middle" x="142.42" y="-415.05" font-family="Helvetica,sans-Serif" font-size="10.00">11</text>
</a>
</g>
</g>
<!-- dir_a61a61d636d8fc46ea4cb7e95abb789e&#45;&gt;dir_5f4135714bf2aa7d236f4696d6db8e69 -->
<g id="edge2" class="edge">
<title>dir_a61a61d636d8fc46ea4cb7e95abb789e&#45;&gt;dir_5f4135714bf2aa7d236f4696d6db8e69</title>
<path fill="none" stroke="black" d="M123.09,-359.91C113.44,-350.4 102.73,-337.72 97,-324 72.27,-264.77 88.45,-244.14 86,-180 85.39,-164.01 80.83,-159.14 86,-144 89.44,-133.93 95.66,-124.28 102.23,-116.05"/>
<polygon fill="black" stroke="black" points="105,-118.2 108.83,-108.32 99.68,-113.65 105,-118.2"/>
<g id="a_edge2&#45;headlabel"><a xlink:href="dir_000062_000061.html" target="_top" xlink:title="2">
<text text-anchor="middle" x="104.82" y="-120.28" font-family="Helvetica,sans-Serif" font-size="10.00">2</text>
</a>
</g>
</g>
<!-- dir_a61a61d636d8fc46ea4cb7e95abb789e&#45;&gt;dir_5cb6e1a8c8be2c39561c895666c60a3e -->
<g id="edge1" class="edge">
<title>dir_a61a61d636d8fc46ea4cb7e95abb789e&#45;&gt;dir_5cb6e1a8c8be2c39561c895666c60a3e</title>
<path fill="none" stroke="black" d="M159.82,-359.88C168.96,-349.97 179.98,-336.92 188,-324 206.37,-294.39 211.2,-285.96 219,-252 223.64,-231.78 224.52,-208.31 224.3,-190.55"/>
<polygon fill="black" stroke="black" points="227.79,-190.22 224.05,-180.31 220.8,-190.39 227.79,-190.22"/>
<g id="a_edge1&#45;headlabel"><a xlink:href="dir_000062_000019.html" target="_top" xlink:title="1">
<text text-anchor="middle" x="230.72" y="-191.24" font-family="Helvetica,sans-Serif" font-size="10.00">1</text>
</a>
</g>
</g>
<!-- dir_dbff9d19e82c23288cf26fa638b485e8 -->
<g id="node9" class="node">
<title>dir_dbff9d19e82c23288cf26fa638b485e8</title>
<g id="a_node9"><a xlink:href="dir_dbff9d19e82c23288cf26fa638b485e8.html" target="_top" xlink:title="System">
<polygon fill="white" stroke="red" points="170,-324 116,-324 116,-288 170,-288 170,-324"/>
<text text-anchor="middle" x="143" y="-303.5" font-family="Helvetica,sans-Serif" font-size="10.00">System</text>
</a>
</g>
</g>
<!-- dir_a61a61d636d8fc46ea4cb7e95abb789e&#45;&gt;dir_dbff9d19e82c23288cf26fa638b485e8 -->
<g id="edge5" class="edge">
<title>dir_a61a61d636d8fc46ea4cb7e95abb789e&#45;&gt;dir_dbff9d19e82c23288cf26fa638b485e8</title>
<path fill="none" stroke="black" d="M137.08,-359.7C136.29,-351.98 136.06,-342.71 136.4,-334.11"/>
<polygon fill="black" stroke="black" points="139.9,-334.32 137.1,-324.1 132.92,-333.84 139.9,-334.32"/>
<g id="a_edge5&#45;headlabel"><a xlink:href="dir_000062_000065.html" target="_top" xlink:title="1">
<text text-anchor="middle" x="142.48" y="-335.61" font-family="Helvetica,sans-Serif" font-size="10.00">1</text>
</a>
</g>
</g>
<!-- dir_a61a61d636d8fc46ea4cb7e95abb789e&#45;&gt;dir_97aefd0d527b934f1d99a682da8fe6a9 -->
<g id="edge3" class="edge">
<title>dir_a61a61d636d8fc46ea4cb7e95abb789e&#45;&gt;dir_97aefd0d527b934f1d99a682da8fe6a9</title>
<path fill="none" stroke="black" d="M170.16,-375C237.35,-368.44 406,-341.37 406,-235 406,-235 406,-235 406,-161 406,-115.64 375.48,-70.75 353.12,-43.95"/>
<polygon fill="black" stroke="black" points="355.66,-41.53 346.49,-36.23 350.36,-46.09 355.66,-41.53"/>
<g id="a_edge3&#45;headlabel"><a xlink:href="dir_000062_000000.html" target="_top" xlink:title="4">
<text text-anchor="middle" x="360.16" y="-39.9" font-family="Helvetica,sans-Serif" font-size="10.00">4</text>
</a>
</g>
</g>
<!-- dir_5cb6e1a8c8be2c39561c895666c60a3e&#45;&gt;dir_97aefd0d527b934f1d99a682da8fe6a9 -->
<g id="edge6" class="edge">
<title>dir_5cb6e1a8c8be2c39561c895666c60a3e&#45;&gt;dir_97aefd0d527b934f1d99a682da8fe6a9</title>
<path fill="none" stroke="black" d="M238.43,-143.68C247.32,-133.49 258.57,-120.24 268,-108 283.95,-87.29 300.83,-62.87 312.94,-44.86"/>
<polygon fill="black" stroke="black" points="316.17,-46.33 318.81,-36.07 310.35,-42.44 316.17,-46.33"/>
<g id="a_edge6&#45;headlabel"><a xlink:href="dir_000019_000000.html" target="_top" xlink:title="3">
<text text-anchor="middle" x="316.53" y="-48.4" font-family="Helvetica,sans-Serif" font-size="10.00">3</text>
</a>
</g>
</g>
<!-- dir_3b87b6cb5e38832a25467a936126fed0 -->
<g id="node7" class="node">
<title>dir_3b87b6cb5e38832a25467a936126fed0</title>
<g id="a_node7"><a xlink:href="dir_3b87b6cb5e38832a25467a936126fed0.html" target="_top" xlink:title="Parser">
<polygon fill="white" stroke="black" points="149,-180 95,-180 95,-144 149,-144 149,-180"/>
<text text-anchor="middle" x="122" y="-159.5" font-family="Helvetica,sans-Serif" font-size="10.00">Parser</text>
</a>
</g>
</g>
<!-- dir_3b87b6cb5e38832a25467a936126fed0&#45;&gt;dir_1625c0207da71ef5bcc742f7d87fc397 -->
<g id="edge24" class="edge">
<title>dir_3b87b6cb5e38832a25467a936126fed0&#45;&gt;dir_1625c0207da71ef5bcc742f7d87fc397</title>
<path fill="none" stroke="black" d="M112.11,-180.04C106.82,-190.13 100.82,-203.38 98,-216 80.58,-294.08 72.56,-320.85 100,-396 103.65,-406 109.93,-415.62 116.49,-423.86"/>
<polygon fill="black" stroke="black" points="113.92,-426.24 123.06,-431.6 119.26,-421.71 113.92,-426.24"/>
<g id="a_edge24&#45;headlabel"><a xlink:href="dir_000063_000028.html" target="_top" xlink:title="17">
<text text-anchor="middle" x="109.43" y="-422.84" font-family="Helvetica,sans-Serif" font-size="10.00">17</text>
</a>
</g>
</g>
<!-- dir_3b87b6cb5e38832a25467a936126fed0&#45;&gt;dir_e491b0d3ac4fed3c9fa700917290c7c5 -->
<g id="edge25" class="edge">
<title>dir_3b87b6cb5e38832a25467a936126fed0&#45;&gt;dir_e491b0d3ac4fed3c9fa700917290c7c5</title>
<path fill="none" stroke="black" d="M103.96,-143.7C94.94,-135.05 83.88,-124.45 74.06,-115.03"/>
<polygon fill="black" stroke="black" points="76.48,-112.5 66.84,-108.1 71.63,-117.55 76.48,-112.5"/>
<g id="a_edge25&#45;headlabel"><a xlink:href="dir_000063_000060.html" target="_top" xlink:title="1">
<text text-anchor="middle" x="81.04" y="-110.44" font-family="Helvetica,sans-Serif" font-size="10.00">1</text>
</a>
</g>
</g>
<!-- dir_3b87b6cb5e38832a25467a936126fed0&#45;&gt;dir_5f4135714bf2aa7d236f4696d6db8e69 -->
<g id="edge22" class="edge">
<title>dir_3b87b6cb5e38832a25467a936126fed0&#45;&gt;dir_5f4135714bf2aa7d236f4696d6db8e69</title>
<path fill="none" stroke="black" d="M123.24,-143.7C123.79,-135.98 124.45,-126.71 125.06,-118.11"/>
<polygon fill="black" stroke="black" points="128.56,-118.33 125.78,-108.1 121.57,-117.83 128.56,-118.33"/>
<g id="a_edge22&#45;headlabel"><a xlink:href="dir_000063_000061.html" target="_top" xlink:title="2">
<text text-anchor="middle" x="131.13" y="-119.62" font-family="Helvetica,sans-Serif" font-size="10.00">2</text>
</a>
</g>
</g>
<!-- dir_3b87b6cb5e38832a25467a936126fed0&#45;&gt;dir_a61a61d636d8fc46ea4cb7e95abb789e -->
<g id="edge19" class="edge">
<title>dir_3b87b6cb5e38832a25467a936126fed0&#45;&gt;dir_a61a61d636d8fc46ea4cb7e95abb789e</title>
<path fill="none" stroke="black" d="M116.1,-180.37C106.85,-210.37 91.49,-273.56 107,-324 110.01,-333.78 115.51,-343.38 121.32,-351.67"/>
<polygon fill="black" stroke="black" points="118.59,-353.87 127.39,-359.77 124.19,-349.67 118.59,-353.87"/>
<g id="a_edge19&#45;headlabel"><a xlink:href="dir_000063_000062.html" target="_top" xlink:title="2">
<text text-anchor="middle" x="114.17" y="-350.2" font-family="Helvetica,sans-Serif" font-size="10.00">2</text>
</a>
</g>
</g>
<!-- dir_53b655bbb6a43e76304525ea68aac804 -->
<g id="node8" class="node">
<title>dir_53b655bbb6a43e76304525ea68aac804</title>
<g id="a_node8"><a xlink:href="dir_53b655bbb6a43e76304525ea68aac804.html" target="_top" xlink:title="Runner">
<polygon fill="white" stroke="black" points="210,-252 156,-252 156,-216 210,-216 210,-252"/>
<text text-anchor="middle" x="183" y="-231.5" font-family="Helvetica,sans-Serif" font-size="10.00">Runner</text>
</a>
</g>
</g>
<!-- dir_3b87b6cb5e38832a25467a936126fed0&#45;&gt;dir_53b655bbb6a43e76304525ea68aac804 -->
<g id="edge20" class="edge">
<title>dir_3b87b6cb5e38832a25467a936126fed0&#45;&gt;dir_53b655bbb6a43e76304525ea68aac804</title>
<path fill="none" stroke="black" d="M142.8,-180.1C150.88,-188.38 159.9,-198.49 167.42,-207.64"/>
<polygon fill="black" stroke="black" points="164.87,-210.06 173.84,-215.7 170.34,-205.69 164.87,-210.06"/>
<g id="a_edge20&#45;headlabel"><a xlink:href="dir_000063_000064.html" target="_top" xlink:title="1">
<text text-anchor="middle" x="160.41" y="-206.51" font-family="Helvetica,sans-Serif" font-size="10.00">1</text>
</a>
</g>
</g>
<!-- dir_3b87b6cb5e38832a25467a936126fed0&#45;&gt;dir_dbff9d19e82c23288cf26fa638b485e8 -->
<g id="edge26" class="edge">
<title>dir_3b87b6cb5e38832a25467a936126fed0&#45;&gt;dir_dbff9d19e82c23288cf26fa638b485e8</title>
<path fill="none" stroke="black" d="M130.17,-180.13C134.08,-198.09 137.03,-227.13 141,-252 142.35,-260.48 144.14,-269.66 145.47,-277.96"/>
<polygon fill="black" stroke="black" points="142.01,-278.46 146.85,-287.89 148.94,-277.5 142.01,-278.46"/>
<g id="a_edge26&#45;headlabel"><a xlink:href="dir_000063_000065.html" target="_top" xlink:title="1">
<text text-anchor="middle" x="138.7" y="-272.79" font-family="Helvetica,sans-Serif" font-size="10.00">1</text>
</a>
</g>
</g>
<!-- dir_93839d2581b894570c4963ed07c0b630 -->
<g id="node10" class="node">
<title>dir_93839d2581b894570c4963ed07c0b630</title>
<g id="a_node10"><a xlink:href="dir_93839d2581b894570c4963ed07c0b630.html" target="_top" xlink:title="Utils">
<polygon fill="white" stroke="black" points="226,-108 172,-108 172,-72 226,-72 226,-108"/>
<text text-anchor="middle" x="199" y="-87.5" font-family="Helvetica,sans-Serif" font-size="10.00">Utils</text>
</a>
</g>
</g>
<!-- dir_3b87b6cb5e38832a25467a936126fed0&#45;&gt;dir_93839d2581b894570c4963ed07c0b630 -->
<g id="edge21" class="edge">
<title>dir_3b87b6cb5e38832a25467a936126fed0&#45;&gt;dir_93839d2581b894570c4963ed07c0b630</title>
<path fill="none" stroke="black" d="M141.03,-143.7C150.54,-135.05 162.21,-124.45 172.57,-115.03"/>
<polygon fill="black" stroke="black" points="175.14,-117.42 180.19,-108.1 170.43,-112.24 175.14,-117.42"/>
<g id="a_edge21&#45;headlabel"><a xlink:href="dir_000063_000093.html" target="_top" xlink:title="1">
<text text-anchor="middle" x="174.39" y="-119.44" font-family="Helvetica,sans-Serif" font-size="10.00">1</text>
</a>
</g>
</g>
<!-- dir_3b87b6cb5e38832a25467a936126fed0&#45;&gt;dir_97aefd0d527b934f1d99a682da8fe6a9 -->
<g id="edge23" class="edge">
<title>dir_3b87b6cb5e38832a25467a936126fed0&#45;&gt;dir_97aefd0d527b934f1d99a682da8fe6a9</title>
<path fill="none" stroke="black" d="M149.19,-152.49C173.48,-143.96 209.11,-129.06 235,-108 253.96,-92.57 250.58,-81.15 268,-64 276.05,-56.07 285.59,-48.45 294.75,-41.8"/>
<polygon fill="black" stroke="black" points="296.83,-44.61 302.99,-35.99 292.8,-38.89 296.83,-44.61"/>
<g id="a_edge23&#45;headlabel"><a xlink:href="dir_000063_000000.html" target="_top" xlink:title="1">
<text text-anchor="middle" x="295.53" y="-46.5" font-family="Helvetica,sans-Serif" font-size="10.00">1</text>
</a>
</g>
</g>
<!-- dir_53b655bbb6a43e76304525ea68aac804&#45;&gt;dir_1625c0207da71ef5bcc742f7d87fc397 -->
<g id="edge10" class="edge">
<title>dir_53b655bbb6a43e76304525ea68aac804&#45;&gt;dir_1625c0207da71ef5bcc742f7d87fc397</title>
<path fill="none" stroke="black" d="M186.28,-252.2C191.27,-282.49 198.27,-346.79 179,-396 175.2,-405.7 169.22,-415.28 163.12,-423.57"/>
<polygon fill="black" stroke="black" points="160.18,-421.64 156.81,-431.69 165.71,-425.94 160.18,-421.64"/>
<g id="a_edge10&#45;headlabel"><a xlink:href="dir_000064_000028.html" target="_top" xlink:title="99">
<text text-anchor="middle" x="160.15" y="-414.56" font-family="Helvetica,sans-Serif" font-size="10.00">99</text>
</a>
</g>
</g>
<!-- dir_53b655bbb6a43e76304525ea68aac804&#45;&gt;dir_a61a61d636d8fc46ea4cb7e95abb789e -->
<g id="edge7" class="edge">
<title>dir_53b655bbb6a43e76304525ea68aac804&#45;&gt;dir_a61a61d636d8fc46ea4cb7e95abb789e</title>
<path fill="none" stroke="black" d="M184.95,-252.23C186.4,-270.54 186.95,-300.07 179,-324 175.77,-333.71 170.21,-343.29 164.41,-351.58"/>
<polygon fill="black" stroke="black" points="161.54,-349.59 158.37,-359.7 167.15,-353.76 161.54,-349.59"/>
<g id="a_edge7&#45;headlabel"><a xlink:href="dir_000064_000062.html" target="_top" xlink:title="1">
<text text-anchor="middle" x="161.4" y="-342.51" font-family="Helvetica,sans-Serif" font-size="10.00">1</text>
</a>
</g>
</g>
<!-- dir_53b655bbb6a43e76304525ea68aac804&#45;&gt;dir_5cb6e1a8c8be2c39561c895666c60a3e -->
<g id="edge8" class="edge">
<title>dir_53b655bbb6a43e76304525ea68aac804&#45;&gt;dir_5cb6e1a8c8be2c39561c895666c60a3e</title>
<path fill="none" stroke="black" d="M192.89,-215.7C197.49,-207.64 203.06,-197.89 208.15,-188.98"/>
<polygon fill="black" stroke="black" points="211.3,-190.52 213.23,-180.1 205.23,-187.05 211.3,-190.52"/>
<g id="a_edge8&#45;headlabel"><a xlink:href="dir_000064_000019.html" target="_top" xlink:title="4">
<text text-anchor="middle" x="211.99" y="-192.55" font-family="Helvetica,sans-Serif" font-size="10.00">4</text>
</a>
</g>
</g>
<!-- dir_53b655bbb6a43e76304525ea68aac804&#45;&gt;dir_3b87b6cb5e38832a25467a936126fed0 -->
<g id="edge11" class="edge">
<title>dir_53b655bbb6a43e76304525ea68aac804&#45;&gt;dir_3b87b6cb5e38832a25467a936126fed0</title>
<path fill="none" stroke="black" d="M162.01,-215.7C153.91,-207.39 144.9,-197.28 137.4,-188.14"/>
<polygon fill="black" stroke="black" points="139.97,-185.75 131.01,-180.1 134.5,-190.11 139.97,-185.75"/>
<g id="a_edge11&#45;headlabel"><a xlink:href="dir_000064_000063.html" target="_top" xlink:title="3">
<text text-anchor="middle" x="144.43" y="-184.3" font-family="Helvetica,sans-Serif" font-size="10.00">3</text>
</a>
</g>
</g>
<!-- dir_53b655bbb6a43e76304525ea68aac804&#45;&gt;dir_dbff9d19e82c23288cf26fa638b485e8 -->
<g id="edge12" class="edge">
<title>dir_53b655bbb6a43e76304525ea68aac804&#45;&gt;dir_dbff9d19e82c23288cf26fa638b485e8</title>
<path fill="none" stroke="black" d="M179.12,-252.1C175.34,-260.21 169.92,-270.08 164.36,-279.08"/>
<polygon fill="black" stroke="black" points="161.28,-277.39 158.8,-287.7 167.16,-281.19 161.28,-277.39"/>
<g id="a_edge12&#45;headlabel"><a xlink:href="dir_000064_000065.html" target="_top" xlink:title="42">
<text text-anchor="middle" x="160.84" y="-270.34" font-family="Helvetica,sans-Serif" font-size="10.00">42</text>
</a>
</g>
</g>
<!-- dir_53b655bbb6a43e76304525ea68aac804&#45;&gt;dir_97aefd0d527b934f1d99a682da8fe6a9 -->
<g id="edge9" class="edge">
<title>dir_53b655bbb6a43e76304525ea68aac804&#45;&gt;dir_97aefd0d527b934f1d99a682da8fe6a9</title>
<path fill="none" stroke="black" d="M210.05,-218.51C225.77,-209.09 245.15,-195.67 259,-180 294.11,-140.27 314.24,-80.42 323.57,-45.98"/>
<polygon fill="black" stroke="black" points="327,-46.72 326.13,-36.16 320.22,-44.96 327,-46.72"/>
<g id="a_edge9&#45;headlabel"><a xlink:href="dir_000064_000000.html" target="_top" xlink:title="37">
<text text-anchor="middle" x="328.84" y="-48.41" font-family="Helvetica,sans-Serif" font-size="10.00">37</text>
</a>
</g>
</g>
<!-- dir_dbff9d19e82c23288cf26fa638b485e8&#45;&gt;dir_1625c0207da71ef5bcc742f7d87fc397 -->
<g id="edge31" class="edge">
<title>dir_dbff9d19e82c23288cf26fa638b485e8&#45;&gt;dir_1625c0207da71ef5bcc742f7d87fc397</title>
<path fill="none" stroke="black" d="M127.39,-324.23C119.63,-333.97 111.05,-346.82 107,-360 102.3,-375.29 102.5,-380.65 107,-396 109.8,-405.55 114.91,-415.02 120.33,-423.24"/>
<polygon fill="black" stroke="black" points="117.62,-425.48 126.25,-431.63 123.35,-421.44 117.62,-425.48"/>
<g id="a_edge31&#45;headlabel"><a xlink:href="dir_000065_000028.html" target="_top" xlink:title="163">
<text text-anchor="middle" x="113.23" y="-421.67" font-family="Helvetica,sans-Serif" font-size="10.00">163</text>
</a>
</g>
</g>
<!-- dir_dbff9d19e82c23288cf26fa638b485e8&#45;&gt;dir_a61a61d636d8fc46ea4cb7e95abb789e -->
<g id="edge27" class="edge">
<title>dir_dbff9d19e82c23288cf26fa638b485e8&#45;&gt;dir_a61a61d636d8fc46ea4cb7e95abb789e</title>
<path fill="none" stroke="black" d="M148.9,-324.1C149.7,-331.79 149.94,-341.05 149.6,-349.67"/>
<polygon fill="black" stroke="black" points="146.11,-349.48 148.92,-359.7 153.09,-349.96 146.11,-349.48"/>
<g id="a_edge27&#45;headlabel"><a xlink:href="dir_000065_000062.html" target="_top" xlink:title="4">
<text text-anchor="middle" x="143.52" y="-343.2" font-family="Helvetica,sans-Serif" font-size="10.00">4</text>
</a>
</g>
</g>
<!-- dir_dbff9d19e82c23288cf26fa638b485e8&#45;&gt;dir_5cb6e1a8c8be2c39561c895666c60a3e -->
<g id="edge28" class="edge">
<title>dir_dbff9d19e82c23288cf26fa638b485e8&#45;&gt;dir_5cb6e1a8c8be2c39561c895666c60a3e</title>
<path fill="none" stroke="black" d="M139.49,-287.73C136.59,-268.87 134.69,-238.35 147,-216 155.8,-200.01 171.73,-187.79 186.74,-179.13"/>
<polygon fill="black" stroke="black" points="188.75,-182.02 195.89,-174.2 185.43,-175.86 188.75,-182.02"/>
<g id="a_edge28&#45;headlabel"><a xlink:href="dir_000065_000019.html" target="_top" xlink:title="8">
<text text-anchor="middle" x="186.93" y="-183.73" font-family="Helvetica,sans-Serif" font-size="10.00">8</text>
</a>
</g>
</g>
<!-- dir_dbff9d19e82c23288cf26fa638b485e8&#45;&gt;dir_3b87b6cb5e38832a25467a936126fed0 -->
<g id="edge32" class="edge">
<title>dir_dbff9d19e82c23288cf26fa638b485e8&#45;&gt;dir_3b87b6cb5e38832a25467a936126fed0</title>
<path fill="none" stroke="black" d="M131.21,-287.89C127.73,-277.54 124.93,-264.06 123,-252 119.71,-231.4 117.12,-207.95 116.7,-190.29"/>
<polygon fill="black" stroke="black" points="120.2,-190.14 116.73,-180.13 113.2,-190.12 120.2,-190.14"/>
<g id="a_edge32&#45;headlabel"><a xlink:href="dir_000065_000063.html" target="_top" xlink:title="1">
<text text-anchor="middle" x="123.03" y="-191.24" font-family="Helvetica,sans-Serif" font-size="10.00">1</text>
</a>
</g>
</g>
<!-- dir_dbff9d19e82c23288cf26fa638b485e8&#45;&gt;dir_53b655bbb6a43e76304525ea68aac804 -->
<g id="edge29" class="edge">
<title>dir_dbff9d19e82c23288cf26fa638b485e8&#45;&gt;dir_53b655bbb6a43e76304525ea68aac804</title>
<path fill="none" stroke="black" d="M146.97,-287.7C150.78,-279.56 156.22,-269.69 161.78,-260.7"/>
<polygon fill="black" stroke="black" points="164.85,-262.4 167.33,-252.1 158.97,-258.61 164.85,-262.4"/>
<g id="a_edge29&#45;headlabel"><a xlink:href="dir_000065_000064.html" target="_top" xlink:title="5">
<text text-anchor="middle" x="165.28" y="-264.46" font-family="Helvetica,sans-Serif" font-size="10.00">5</text>
</a>
</g>
</g>
<!-- dir_dbff9d19e82c23288cf26fa638b485e8&#45;&gt;dir_97aefd0d527b934f1d99a682da8fe6a9 -->
<g id="edge30" class="edge">
<title>dir_dbff9d19e82c23288cf26fa638b485e8&#45;&gt;dir_97aefd0d527b934f1d99a682da8fe6a9</title>
<path fill="none" stroke="black" d="M170.13,-288.25C185.15,-278.45 203.8,-265.41 219,-252 278.41,-199.61 301.56,-183.96 324,-108 329.95,-87.86 331.28,-64.08 331.21,-46.17"/>
<polygon fill="black" stroke="black" points="334.71,-46.05 331.03,-36.12 327.71,-46.18 334.71,-46.05"/>
<g id="a_edge30&#45;headlabel"><a xlink:href="dir_000065_000000.html" target="_top" xlink:title="87">
<text text-anchor="middle" x="337.62" y="-47.09" font-family="Helvetica,sans-Serif" font-size="10.00">87</text>
</a>
</g>
</g>
</g>
</svg>
