<?xml version="1.0" encoding="UTF-8" standalone="no"?>
<!DOCTYPE svg PUBLIC "-//W3C//DTD SVG 1.1//EN"
 "http://www.w3.org/Graphics/SVG/1.1/DTD/svg11.dtd">
<!-- Generated by graphviz version 2.43.0 (0)
 -->
<!-- Title: sources/Parser Pages: 1 -->
<svg width="431pt" height="367pt"
 viewBox="0.00 0.00 430.97 367.00" xmlns="http://www.w3.org/2000/svg" xmlns:xlink="http://www.w3.org/1999/xlink">
<g id="graph0" class="graph" transform="scale(1 1) rotate(0) translate(4 363)">
<title>sources/Parser</title>
<polygon fill="white" stroke="transparent" points="-4,4 -4,-363 426.97,-363 426.97,4 -4,4"/>
<g id="clust1" class="cluster">
<title>clusterdir_08d237fc27d4ecd563f71c5d52f2fecc</title>
<g id="a_clust1"><a xlink:href="dir_08d237fc27d4ecd563f71c5d52f2fecc.html" target="_top" xlink:title="sources">
<polygon fill="#ddddee" stroke="black" points="119.28,-280 119.28,-351 189.28,-351 189.28,-280 119.28,-280"/>
<text text-anchor="middle" x="154.28" y="-339" font-family="Helvetica,sans-Serif" font-size="10.00">sources</text>
</a>
</g>
</g>
<!-- dir_3b87b6cb5e38832a25467a936126fed0 -->
<g id="node1" class="node">
<title>dir_3b87b6cb5e38832a25467a936126fed0</title>
<g id="a_node1"><a xlink:href="dir_3b87b6cb5e38832a25467a936126fed0.html" target="_top" xlink:title="Parser">
<polygon fill="#eeeeff" stroke="black" points="181.28,-324 127.28,-324 127.28,-288 181.28,-288 181.28,-324"/>
<text text-anchor="middle" x="154.28" y="-303.5" font-family="Helvetica,sans-Serif" font-size="10.00">Parser</text>
</a>
</g>
</g>
<!-- dir_a61a61d636d8fc46ea4cb7e95abb789e -->
<g id="node2" class="node">
<title>dir_a61a61d636d8fc46ea4cb7e95abb789e</title>
<g id="a_node2"><a xlink:href="dir_a61a61d636d8fc46ea4cb7e95abb789e.html" target="_top" xlink:title="Map">
<polygon fill="none" stroke="black" points="348.28,-324 294.28,-324 294.28,-288 348.28,-288 348.28,-324"/>
<text text-anchor="middle" x="321.28" y="-303.5" font-family="Helvetica,sans-Serif" font-size="10.00">Map</text>
</a>
</g>
</g>
<!-- dir_3b87b6cb5e38832a25467a936126fed0&#45;&gt;dir_a61a61d636d8fc46ea4cb7e95abb789e -->
<g id="edge15" class="edge">
<title>dir_3b87b6cb5e38832a25467a936126fed0&#45;&gt;dir_a61a61d636d8fc46ea4cb7e95abb789e</title>
<path fill="none" stroke="black" d="M181.35,-306C215.6,-306 249.84,-306 284.08,-306"/>
<polygon fill="black" stroke="black" points="284.23,-309.5 294.23,-306 284.23,-302.5 284.23,-309.5"/>
<g id="a_edge15&#45;headlabel"><a xlink:href="dir_000063_000062.html" target="_top" xlink:title="2">
<text text-anchor="middle" x="280.63" y="-309.84" font-family="Helvetica,sans-Serif" font-size="10.00">2</text>
</a>
</g>
</g>
<!-- dir_53b655bbb6a43e76304525ea68aac804 -->
<g id="node3" class="node">
<title>dir_53b655bbb6a43e76304525ea68aac804</title>
<g id="a_node3"><a xlink:href="dir_53b655bbb6a43e76304525ea68aac804.html" target="_top" xlink:title="Runner">
<polygon fill="none" stroke="black" points="232.28,-180 178.28,-180 178.28,-144 232.28,-144 232.28,-180"/>
<text text-anchor="middle" x="205.28" y="-159.5" font-family="Helvetica,sans-Serif" font-size="10.00">Runner</text>
</a>
</g>
</g>
<!-- dir_3b87b6cb5e38832a25467a936126fed0&#45;&gt;dir_53b655bbb6a43e76304525ea68aac804 -->
<g id="edge16" class="edge">
<title>dir_3b87b6cb5e38832a25467a936126fed0&#45;&gt;dir_53b655bbb6a43e76304525ea68aac804</title>
<path fill="none" stroke="black" d="M162.87,-287.58C167.73,-277.35 173.73,-264.1 178.28,-252 185.98,-231.53 193.09,-207.82 198.08,-190.01"/>
<polygon fill="black" stroke="black" points="201.48,-190.85 200.76,-180.28 194.73,-189 201.48,-190.85"/>
<g id="a_edge16&#45;headlabel"><a xlink:href="dir_000063_000064.html" target="_top" xlink:title="1">
<text text-anchor="middle" x="203.26" y="-192.57" font-family="Helvetica,sans-Serif" font-size="10.00">1</text>
</a>
</g>
</g>
<!-- dir_93839d2581b894570c4963ed07c0b630 -->
<g id="node4" class="node">
<title>dir_93839d2581b894570c4963ed07c0b630</title>
<g id="a_node4"><a xlink:href="dir_93839d2581b894570c4963ed07c0b630.html" target="_top" xlink:title="Utils">
<polygon fill="none" stroke="black" points="88.28,-252 34.28,-252 34.28,-216 88.28,-216 88.28,-252"/>
<text text-anchor="middle" x="61.28" y="-231.5" font-family="Helvetica,sans-Serif" font-size="10.00">Utils</text>
</a>
</g>
</g>
<!-- dir_3b87b6cb5e38832a25467a936126fed0&#45;&gt;dir_93839d2581b894570c4963ed07c0b630 -->
<g id="edge17" class="edge">
<title>dir_3b87b6cb5e38832a25467a936126fed0&#45;&gt;dir_93839d2581b894570c4963ed07c0b630</title>
<path fill="none" stroke="black" d="M131.29,-287.7C119.47,-278.8 104.89,-267.82 92.1,-258.2"/>
<polygon fill="black" stroke="black" points="94.1,-255.32 84.01,-252.1 89.89,-260.91 94.1,-255.32"/>
<g id="a_edge17&#45;headlabel"><a xlink:href="dir_000063_000093.html" target="_top" xlink:title="1">
<text text-anchor="middle" x="98.68" y="-252.71" font-family="Helvetica,sans-Serif" font-size="10.00">1</text>
</a>
</g>
</g>
<!-- dir_5f4135714bf2aa7d236f4696d6db8e69 -->
<g id="node5" class="node">
<title>dir_5f4135714bf2aa7d236f4696d6db8e69</title>
<g id="a_node5"><a xlink:href="dir_5f4135714bf2aa7d236f4696d6db8e69.html" target="_top" xlink:title="Items">
<polygon fill="none" stroke="black" points="384.28,-252 330.28,-252 330.28,-216 384.28,-216 384.28,-252"/>
<text text-anchor="middle" x="357.28" y="-231.5" font-family="Helvetica,sans-Serif" font-size="10.00">Items</text>
</a>
</g>
</g>
<!-- dir_3b87b6cb5e38832a25467a936126fed0&#45;&gt;dir_5f4135714bf2aa7d236f4696d6db8e69 -->
<g id="edge18" class="edge">
<title>dir_3b87b6cb5e38832a25467a936126fed0&#45;&gt;dir_5f4135714bf2aa7d236f4696d6db8e69</title>
<path fill="none" stroke="black" d="M181.57,-297.56C213.13,-288.69 266.73,-272.82 320.59,-252.03"/>
<polygon fill="black" stroke="black" points="321.89,-255.28 329.93,-248.38 319.34,-248.76 321.89,-255.28"/>
<g id="a_edge18&#45;headlabel"><a xlink:href="dir_000063_000061.html" target="_top" xlink:title="2">
<text text-anchor="middle" x="319.58" y="-256.74" font-family="Helvetica,sans-Serif" font-size="10.00">2</text>
</a>
</g>
</g>
<!-- dir_97aefd0d527b934f1d99a682da8fe6a9 -->
<g id="node6" class="node">
<title>dir_97aefd0d527b934f1d99a682da8fe6a9</title>
<g id="a_node6"><a xlink:href="dir_97aefd0d527b934f1d99a682da8fe6a9.html" target="_top" xlink:title="lib">
<polygon fill="white" stroke="red" points="330.28,-36 276.28,-36 276.28,0 330.28,0 330.28,-36"/>
<text text-anchor="middle" x="303.28" y="-15.5" font-family="Helvetica,sans-Serif" font-size="10.00">lib</text>
</a>
</g>
</g>
<!-- dir_3b87b6cb5e38832a25467a936126fed0&#45;&gt;dir_97aefd0d527b934f1d99a682da8fe6a9 -->
<g id="edge19" class="edge">
<title>dir_3b87b6cb5e38832a25467a936126fed0&#45;&gt;dir_97aefd0d527b934f1d99a682da8fe6a9</title>
<path fill="none" stroke="black" d="M152.57,-287.87C149.29,-245.1 147.11,-132.69 206.28,-72 223.21,-54.64 247.05,-41.51 266.86,-32.66"/>
<polygon fill="black" stroke="black" points="268.39,-35.81 276.21,-28.66 265.64,-29.37 268.39,-35.81"/>
<g id="a_edge19&#45;headlabel"><a xlink:href="dir_000063_000000.html" target="_top" xlink:title="1">
<text text-anchor="middle" x="266.21" y="-37.33" font-family="Helvetica,sans-Serif" font-size="10.00">1</text>
</a>
</g>
</g>
<!-- dir_1625c0207da71ef5bcc742f7d87fc397 -->
<g id="node7" class="node">
<title>dir_1625c0207da71ef5bcc742f7d87fc397</title>
<g id="a_node7"><a xlink:href="dir_1625c0207da71ef5bcc742f7d87fc397.html" target="_top" xlink:title="Component">
<polygon fill="white" stroke="red" points="306.78,-108 233.78,-108 233.78,-72 306.78,-72 306.78,-108"/>
<text text-anchor="middle" x="270.28" y="-87.5" font-family="Helvetica,sans-Serif" font-size="10.00">Component</text>
</a>
</g>
</g>
<!-- dir_3b87b6cb5e38832a25467a936126fed0&#45;&gt;dir_1625c0207da71ef5bcc742f7d87fc397 -->
<g id="edge20" class="edge">
<title>dir_3b87b6cb5e38832a25467a936126fed0&#45;&gt;dir_1625c0207da71ef5bcc742f7d87fc397</title>
<path fill="none" stroke="black" d="M127.06,-302.5C96.41,-298.06 47.93,-285.79 25.28,-252 16.37,-238.71 16.93,-229.64 25.28,-216 68.45,-145.51 165.26,-113.19 223.43,-99.66"/>
<polygon fill="black" stroke="black" points="224.47,-103.01 233.47,-97.42 222.95,-96.18 224.47,-103.01"/>
<g id="a_edge20&#45;headlabel"><a xlink:href="dir_000063_000028.html" target="_top" xlink:title="17">
<text text-anchor="middle" x="221.58" y="-104.07" font-family="Helvetica,sans-Serif" font-size="10.00">17</text>
</a>
</g>
</g>
<!-- dir_e491b0d3ac4fed3c9fa700917290c7c5 -->
<g id="node8" class="node">
<title>dir_e491b0d3ac4fed3c9fa700917290c7c5</title>
<g id="a_node8"><a xlink:href="dir_e491b0d3ac4fed3c9fa700917290c7c5.html" target="_top" xlink:title="Exception">
<polygon fill="none" stroke="black" points="145.78,-36 80.78,-36 80.78,0 145.78,0 145.78,-36"/>
<text text-anchor="middle" x="113.28" y="-15.5" font-family="Helvetica,sans-Serif" font-size="10.00">Exception</text>
</a>
</g>
</g>
<!-- dir_3b87b6cb5e38832a25467a936126fed0&#45;&gt;dir_e491b0d3ac4fed3c9fa700917290c7c5 -->
<g id="edge21" class="edge">
<title>dir_3b87b6cb5e38832a25467a936126fed0&#45;&gt;dir_e491b0d3ac4fed3c9fa700917290c7c5</title>
<path fill="none" stroke="black" d="M127.06,-303.41C94.25,-299.87 40.41,-288.47 15.28,-252 -32.14,-183.16 45.26,-87.77 87.99,-43.45"/>
<polygon fill="black" stroke="black" points="90.52,-45.87 95.03,-36.28 85.52,-40.97 90.52,-45.87"/>
<g id="a_edge21&#45;headlabel"><a xlink:href="dir_000063_000060.html" target="_top" xlink:title="1">
<text text-anchor="middle" x="90.02" y="-47.92" font-family="Helvetica,sans-Serif" font-size="10.00">1</text>
</a>
</g>
</g>
<!-- dir_dbff9d19e82c23288cf26fa638b485e8 -->
<g id="node9" class="node">
<title>dir_dbff9d19e82c23288cf26fa638b485e8</title>
<g id="a_node9"><a xlink:href="dir_dbff9d19e82c23288cf26fa638b485e8.html" target="_top" xlink:title="System">
<polygon fill="white" stroke="red" points="312.28,-252 258.28,-252 258.28,-216 312.28,-216 312.28,-252"/>
<text text-anchor="middle" x="285.28" y="-231.5" font-family="Helvetica,sans-Serif" font-size="10.00">System</text>
</a>
</g>
</g>
<!-- dir_3b87b6cb5e38832a25467a936126fed0&#45;&gt;dir_dbff9d19e82c23288cf26fa638b485e8 -->
<g id="edge22" class="edge">
<title>dir_3b87b6cb5e38832a25467a936126fed0&#45;&gt;dir_dbff9d19e82c23288cf26fa638b485e8</title>
<path fill="none" stroke="black" d="M181.43,-290.5C201.1,-279.98 227.9,-265.66 249.35,-254.2"/>
<polygon fill="black" stroke="black" points="251,-257.29 258.17,-249.49 247.7,-251.11 251,-257.29"/>
<g id="a_edge22&#45;headlabel"><a xlink:href="dir_000063_000065.html" target="_top" xlink:title="1">
<text text-anchor="middle" x="249.17" y="-258.98" font-family="Helvetica,sans-Serif" font-size="10.00">1</text>
</a>
</g>
</g>
<!-- dir_a61a61d636d8fc46ea4cb7e95abb789e&#45;&gt;dir_5f4135714bf2aa7d236f4696d6db8e69 -->
<g id="edge1" class="edge">
<title>dir_a61a61d636d8fc46ea4cb7e95abb789e&#45;&gt;dir_5f4135714bf2aa7d236f4696d6db8e69</title>
<path fill="none" stroke="black" d="M330.18,-287.7C334.28,-279.73 339.23,-270.1 343.77,-261.26"/>
<polygon fill="black" stroke="black" points="347.02,-262.6 348.49,-252.1 340.8,-259.4 347.02,-262.6"/>
<g id="a_edge1&#45;headlabel"><a xlink:href="dir_000062_000061.html" target="_top" xlink:title="2">
<text text-anchor="middle" x="347.91" y="-264.59" font-family="Helvetica,sans-Serif" font-size="10.00">2</text>
</a>
</g>
</g>
<!-- dir_a61a61d636d8fc46ea4cb7e95abb789e&#45;&gt;dir_97aefd0d527b934f1d99a682da8fe6a9 -->
<g id="edge2" class="edge">
<title>dir_a61a61d636d8fc46ea4cb7e95abb789e&#45;&gt;dir_97aefd0d527b934f1d99a682da8fe6a9</title>
<path fill="none" stroke="black" d="M348.48,-298.43C371.58,-291.25 403.3,-277.25 418.28,-252 426.44,-238.24 421.87,-231.59 418.28,-216 402.32,-146.65 387.17,-131.59 348.28,-72 341.98,-62.35 334.12,-52.52 326.74,-44"/>
<polygon fill="black" stroke="black" points="329.14,-41.42 319.88,-36.27 323.9,-46.07 329.14,-41.42"/>
<g id="a_edge2&#45;headlabel"><a xlink:href="dir_000062_000000.html" target="_top" xlink:title="4">
<text text-anchor="middle" x="333.65" y="-39.72" font-family="Helvetica,sans-Serif" font-size="10.00">4</text>
</a>
</g>
</g>
<!-- dir_a61a61d636d8fc46ea4cb7e95abb789e&#45;&gt;dir_1625c0207da71ef5bcc742f7d87fc397 -->
<g id="edge3" class="edge">
<title>dir_a61a61d636d8fc46ea4cb7e95abb789e&#45;&gt;dir_1625c0207da71ef5bcc742f7d87fc397</title>
<path fill="none" stroke="black" d="M348.31,-288.28C361.68,-279.6 376.44,-267.51 384.28,-252 391.5,-237.72 390.08,-230.91 384.28,-216 367.48,-172.8 327.16,-136.77 299.13,-114.66"/>
<polygon fill="black" stroke="black" points="300.91,-111.62 290.86,-108.26 296.62,-117.15 300.91,-111.62"/>
<g id="a_edge3&#45;headlabel"><a xlink:href="dir_000062_000028.html" target="_top" xlink:title="11">
<text text-anchor="middle" x="305.49" y="-109.08" font-family="Helvetica,sans-Serif" font-size="10.00">11</text>
</a>
</g>
</g>
<!-- dir_a61a61d636d8fc46ea4cb7e95abb789e&#45;&gt;dir_dbff9d19e82c23288cf26fa638b485e8 -->
<g id="edge4" class="edge">
<title>dir_a61a61d636d8fc46ea4cb7e95abb789e&#45;&gt;dir_dbff9d19e82c23288cf26fa638b485e8</title>
<path fill="none" stroke="black" d="M306.47,-287.7C301.55,-279.73 296.38,-270.1 292.23,-261.26"/>
<polygon fill="black" stroke="black" points="295.43,-259.84 288.18,-252.1 289.02,-262.67 295.43,-259.84"/>
<g id="a_edge4&#45;headlabel"><a xlink:href="dir_000062_000065.html" target="_top" xlink:title="1">
<text text-anchor="middle" x="299.48" y="-259.48" font-family="Helvetica,sans-Serif" font-size="10.00">1</text>
</a>
</g>
</g>
<!-- dir_53b655bbb6a43e76304525ea68aac804&#45;&gt;dir_3b87b6cb5e38832a25467a936126fed0 -->
<g id="edge8" class="edge">
<title>dir_53b655bbb6a43e76304525ea68aac804&#45;&gt;dir_3b87b6cb5e38832a25467a936126fed0</title>
<path fill="none" stroke="black" d="M195.34,-180.25C189.78,-190.41 183.03,-203.66 178.28,-216 170.45,-236.35 164.16,-260.25 159.98,-278.16"/>
<polygon fill="black" stroke="black" points="156.56,-277.41 157.77,-287.94 163.39,-278.95 156.56,-277.41"/>
<g id="a_edge8&#45;headlabel"><a xlink:href="dir_000064_000063.html" target="_top" xlink:title="3">
<text text-anchor="middle" x="154.59" y="-270.78" font-family="Helvetica,sans-Serif" font-size="10.00">3</text>
</a>
</g>
</g>
<!-- dir_53b655bbb6a43e76304525ea68aac804&#45;&gt;dir_a61a61d636d8fc46ea4cb7e95abb789e -->
<g id="edge5" class="edge">
<title>dir_53b655bbb6a43e76304525ea68aac804&#45;&gt;dir_a61a61d636d8fc46ea4cb7e95abb789e</title>
<path fill="none" stroke="black" d="M210.96,-180.14C217.86,-199.16 230.9,-230.07 249.28,-252 259.49,-264.18 273.05,-275.09 285.64,-283.8"/>
<polygon fill="black" stroke="black" points="283.9,-286.84 294.16,-289.47 287.78,-281.02 283.9,-286.84"/>
<g id="a_edge5&#45;headlabel"><a xlink:href="dir_000064_000062.html" target="_top" xlink:title="1">
<text text-anchor="middle" x="279.33" y="-284.71" font-family="Helvetica,sans-Serif" font-size="10.00">1</text>
</a>
</g>
</g>
<!-- dir_53b655bbb6a43e76304525ea68aac804&#45;&gt;dir_97aefd0d527b934f1d99a682da8fe6a9 -->
<g id="edge6" class="edge">
<title>dir_53b655bbb6a43e76304525ea68aac804&#45;&gt;dir_97aefd0d527b934f1d99a682da8fe6a9</title>
<path fill="none" stroke="black" d="M205.22,-143.79C205.96,-124.69 209.58,-93.72 224.28,-72 234.89,-56.34 251.81,-44.08 267.28,-35.32"/>
<polygon fill="black" stroke="black" points="269,-38.37 276.16,-30.56 265.7,-32.2 269,-38.37"/>
<g id="a_edge6&#45;headlabel"><a xlink:href="dir_000064_000000.html" target="_top" xlink:title="37">
<text text-anchor="middle" x="267.17" y="-40.07" font-family="Helvetica,sans-Serif" font-size="10.00">37</text>
</a>
</g>
</g>
<!-- dir_53b655bbb6a43e76304525ea68aac804&#45;&gt;dir_1625c0207da71ef5bcc742f7d87fc397 -->
<g id="edge7" class="edge">
<title>dir_53b655bbb6a43e76304525ea68aac804&#45;&gt;dir_1625c0207da71ef5bcc742f7d87fc397</title>
<path fill="none" stroke="black" d="M221.35,-143.7C229.22,-135.22 238.84,-124.86 247.46,-115.58"/>
<polygon fill="black" stroke="black" points="250.16,-117.81 254.4,-108.1 245.03,-113.05 250.16,-117.81"/>
<g id="a_edge7&#45;headlabel"><a xlink:href="dir_000064_000028.html" target="_top" xlink:title="99">
<text text-anchor="middle" x="249.79" y="-119.88" font-family="Helvetica,sans-Serif" font-size="10.00">99</text>
</a>
</g>
</g>
<!-- dir_53b655bbb6a43e76304525ea68aac804&#45;&gt;dir_dbff9d19e82c23288cf26fa638b485e8 -->
<g id="edge9" class="edge">
<title>dir_53b655bbb6a43e76304525ea68aac804&#45;&gt;dir_dbff9d19e82c23288cf26fa638b485e8</title>
<path fill="none" stroke="black" d="M230.72,-180.1C241.47,-188.72 253.77,-199.32 264.03,-208.76"/>
<polygon fill="black" stroke="black" points="261.74,-211.4 271.42,-215.7 266.53,-206.3 261.74,-211.4"/>
<g id="a_edge9&#45;headlabel"><a xlink:href="dir_000064_000065.html" target="_top" xlink:title="42">
<text text-anchor="middle" x="257.17" y="-208.51" font-family="Helvetica,sans-Serif" font-size="10.00">42</text>
</a>
</g>
</g>
<!-- dir_5f4135714bf2aa7d236f4696d6db8e69&#45;&gt;dir_97aefd0d527b934f1d99a682da8fe6a9 -->
<g id="edge10" class="edge">
<title>dir_5f4135714bf2aa7d236f4696d6db8e69&#45;&gt;dir_97aefd0d527b934f1d99a682da8fe6a9</title>
<path fill="none" stroke="black" d="M356.11,-215.67C353.71,-185.71 346.98,-122.6 330.28,-72 327.27,-62.88 322.89,-53.39 318.52,-45.01"/>
<polygon fill="black" stroke="black" points="321.53,-43.2 313.68,-36.09 315.37,-46.54 321.53,-43.2"/>
<g id="a_edge10&#45;headlabel"><a xlink:href="dir_000061_000000.html" target="_top" xlink:title="1">
<text text-anchor="middle" x="325.74" y="-42.51" font-family="Helvetica,sans-Serif" font-size="10.00">1</text>
</a>
</g>
</g>
<!-- dir_5f4135714bf2aa7d236f4696d6db8e69&#45;&gt;dir_1625c0207da71ef5bcc742f7d87fc397 -->
<g id="edge11" class="edge">
<title>dir_5f4135714bf2aa7d236f4696d6db8e69&#45;&gt;dir_1625c0207da71ef5bcc742f7d87fc397</title>
<path fill="none" stroke="black" d="M346.79,-215.87C331.7,-191.24 303.76,-145.64 286.14,-116.88"/>
<polygon fill="black" stroke="black" points="289.02,-114.89 280.81,-108.19 283.05,-118.54 289.02,-114.89"/>
<g id="a_edge11&#45;headlabel"><a xlink:href="dir_000061_000028.html" target="_top" xlink:title="7">
<text text-anchor="middle" x="293.32" y="-113.97" font-family="Helvetica,sans-Serif" font-size="10.00">7</text>
</a>
</g>
</g>
<!-- dir_1625c0207da71ef5bcc742f7d87fc397&#45;&gt;dir_a61a61d636d8fc46ea4cb7e95abb789e -->
<g id="edge12" class="edge">
<title>dir_1625c0207da71ef5bcc742f7d87fc397&#45;&gt;dir_a61a61d636d8fc46ea4cb7e95abb789e</title>
<path fill="none" stroke="black" d="M303.48,-108.07C336.28,-129.16 383.68,-168.19 402.28,-216 408.08,-230.91 409.5,-237.72 402.28,-252 393.18,-270 374.77,-283.38 357.67,-292.19"/>
<polygon fill="black" stroke="black" points="355.89,-289.16 348.37,-296.62 358.9,-295.48 355.89,-289.16"/>
<g id="a_edge12&#45;headlabel"><a xlink:href="dir_000028_000062.html" target="_top" xlink:title="1">
<text text-anchor="middle" x="357.92" y="-282.55" font-family="Helvetica,sans-Serif" font-size="10.00">1</text>
</a>
</g>
</g>
<!-- dir_1625c0207da71ef5bcc742f7d87fc397&#45;&gt;dir_97aefd0d527b934f1d99a682da8fe6a9 -->
<g id="edge13" class="edge">
<title>dir_1625c0207da71ef5bcc742f7d87fc397&#45;&gt;dir_97aefd0d527b934f1d99a682da8fe6a9</title>
<path fill="none" stroke="black" d="M278.44,-71.7C282.2,-63.73 286.74,-54.1 290.9,-45.26"/>
<polygon fill="black" stroke="black" points="294.12,-46.64 295.22,-36.1 287.79,-43.66 294.12,-46.64"/>
<g id="a_edge13&#45;headlabel"><a xlink:href="dir_000028_000000.html" target="_top" xlink:title="84">
<text text-anchor="middle" x="295.16" y="-48.6" font-family="Helvetica,sans-Serif" font-size="10.00">84</text>
</a>
</g>
</g>
<!-- dir_1625c0207da71ef5bcc742f7d87fc397&#45;&gt;dir_e491b0d3ac4fed3c9fa700917290c7c5 -->
<g id="edge14" class="edge">
<title>dir_1625c0207da71ef5bcc742f7d87fc397&#45;&gt;dir_e491b0d3ac4fed3c9fa700917290c7c5</title>
<path fill="none" stroke="black" d="M233.47,-72.59C210.03,-62.14 179.6,-48.57 155.22,-37.7"/>
<polygon fill="black" stroke="black" points="156.42,-34.4 145.86,-33.53 153.57,-40.8 156.42,-34.4"/>
<g id="a_edge14&#45;headlabel"><a xlink:href="dir_000028_000060.html" target="_top" xlink:title="1">
<text text-anchor="middle" x="160.86" y="-30.77" font-family="Helvetica,sans-Serif" font-size="10.00">1</text>
</a>
</g>
</g>
<!-- dir_dbff9d19e82c23288cf26fa638b485e8&#45;&gt;dir_a61a61d636d8fc46ea4cb7e95abb789e -->
<g id="edge23" class="edge">
<title>dir_dbff9d19e82c23288cf26fa638b485e8&#45;&gt;dir_a61a61d636d8fc46ea4cb7e95abb789e</title>
<path fill="none" stroke="black" d="M299.97,-252.1C304.89,-260.04 310.06,-269.67 314.23,-278.51"/>
<polygon fill="black" stroke="black" points="311.05,-279.97 318.3,-287.7 317.45,-277.14 311.05,-279.97"/>
<g id="a_edge23&#45;headlabel"><a xlink:href="dir_000065_000062.html" target="_top" xlink:title="4">
<text text-anchor="middle" x="307" y="-275.34" font-family="Helvetica,sans-Serif" font-size="10.00">4</text>
</a>
</g>
</g>
<!-- dir_dbff9d19e82c23288cf26fa638b485e8&#45;&gt;dir_53b655bbb6a43e76304525ea68aac804 -->
<g id="edge24" class="edge">
<title>dir_dbff9d19e82c23288cf26fa638b485e8&#45;&gt;dir_53b655bbb6a43e76304525ea68aac804</title>
<path fill="none" stroke="black" d="M259.59,-215.7C248.82,-207.05 236.52,-196.45 226.3,-187.03"/>
<polygon fill="black" stroke="black" points="228.62,-184.41 218.93,-180.1 223.82,-189.5 228.62,-184.41"/>
<g id="a_edge24&#45;headlabel"><a xlink:href="dir_000065_000064.html" target="_top" xlink:title="5">
<text text-anchor="middle" x="233.18" y="-182.3" font-family="Helvetica,sans-Serif" font-size="10.00">5</text>
</a>
</g>
</g>
<!-- dir_dbff9d19e82c23288cf26fa638b485e8&#45;&gt;dir_97aefd0d527b934f1d99a682da8fe6a9 -->
<g id="edge25" class="edge">
<title>dir_dbff9d19e82c23288cf26fa638b485e8&#45;&gt;dir_97aefd0d527b934f1d99a682da8fe6a9</title>
<path fill="none" stroke="black" d="M292.22,-215.73C303.18,-186.39 322.67,-124.84 316.28,-72 315.26,-63.53 313.35,-54.47 311.3,-46.28"/>
<polygon fill="black" stroke="black" points="314.65,-45.23 308.69,-36.47 307.88,-47.03 314.65,-45.23"/>
<g id="a_edge25&#45;headlabel"><a xlink:href="dir_000065_000000.html" target="_top" xlink:title="87">
<text text-anchor="middle" x="318.31" y="-45.48" font-family="Helvetica,sans-Serif" font-size="10.00">87</text>
</a>
</g>
</g>
<!-- dir_dbff9d19e82c23288cf26fa638b485e8&#45;&gt;dir_1625c0207da71ef5bcc742f7d87fc397 -->
<g id="edge26" class="edge">
<title>dir_dbff9d19e82c23288cf26fa638b485e8&#45;&gt;dir_1625c0207da71ef5bcc742f7d87fc397</title>
<path fill="none" stroke="black" d="M283.47,-215.87C280.92,-191.67 276.22,-147.21 273.18,-118.39"/>
<polygon fill="black" stroke="black" points="276.63,-117.77 272.1,-108.19 269.67,-118.5 276.63,-117.77"/>
<g id="a_edge26&#45;headlabel"><a xlink:href="dir_000065_000028.html" target="_top" xlink:title="163">
<text text-anchor="middle" x="279.83" y="-118.54" font-family="Helvetica,sans-Serif" font-size="10.00">163</text>
</a>
</g>
</g>
</g>
</svg>
