<?xml version="1.0" encoding="UTF-8" standalone="no"?>
<!DOCTYPE svg PUBLIC "-//W3C//DTD SVG 1.1//EN"
 "http://www.w3.org/Graphics/SVG/1.1/DTD/svg11.dtd">
<!-- Generated by graphviz version 2.43.0 (0)
 -->
<!-- Title: lib/Ray/sources/Drawables Pages: 1 -->
<svg width="340pt" height="231pt"
 viewBox="0.00 0.00 339.81 231.00" xmlns="http://www.w3.org/2000/svg" xmlns:xlink="http://www.w3.org/1999/xlink">
<g id="graph0" class="graph" transform="scale(1 1) rotate(0) translate(4 227)">
<title>lib/Ray/sources/Drawables</title>
<polygon fill="white" stroke="transparent" points="-4,4 -4,-227 335.81,-227 335.81,4 -4,4"/>
<g id="clust1" class="cluster">
<title>clusterdir_6a062873ed3e64cc8025242d19396498</title>
<g id="a_clust1"><a xlink:href="dir_6a062873ed3e64cc8025242d19396498.html" target="_top" xlink:title="sources">
<polygon fill="#ddddee" stroke="black" points="8,-56 8,-215 180,-215 180,-56 8,-56"/>
<text text-anchor="middle" x="94" y="-203" font-family="Helvetica,sans-Serif" font-size="10.00">sources</text>
</a>
</g>
</g>
<g id="clust2" class="cluster">
<title>clusterdir_fbaef1213b89c2c136e136e5f4a6fca1</title>
<g id="a_clust2"><a xlink:href="dir_fbaef1213b89c2c136e136e5f4a6fca1.html" target="_top">
<polygon fill="#eeeeff" stroke="black" points="16,-64 16,-188 172,-188 172,-64 16,-64"/>
</a>
</g>
</g>
<!-- dir_fbaef1213b89c2c136e136e5f4a6fca1 -->
<g id="node1" class="node">
<title>dir_fbaef1213b89c2c136e136e5f4a6fca1</title>
<text text-anchor="middle" x="58" y="-159.5" font-family="Helvetica,sans-Serif" font-size="10.00">Drawables</text>
</g>
<!-- dir_ae3897dd83bb94b9cbd1cfd3ab0ec4e8 -->
<g id="node2" class="node">
<title>dir_ae3897dd83bb94b9cbd1cfd3ab0ec4e8</title>
<g id="a_node2"><a xlink:href="dir_ae3897dd83bb94b9cbd1cfd3ab0ec4e8.html" target="_top" xlink:title="2D">
<polygon fill="white" stroke="black" points="124,-108 70,-108 70,-72 124,-72 124,-108"/>
<text text-anchor="middle" x="97" y="-87.5" font-family="Helvetica,sans-Serif" font-size="10.00">2D</text>
</a>
</g>
</g>
<!-- dir_fbaef1213b89c2c136e136e5f4a6fca1&#45;&gt;dir_ae3897dd83bb94b9cbd1cfd3ab0ec4e8 -->
<g id="edge2" class="edge">
<title>dir_fbaef1213b89c2c136e136e5f4a6fca1&#45;&gt;dir_ae3897dd83bb94b9cbd1cfd3ab0ec4e8</title>
<path fill="none" stroke="black" d="M67.64,-143.7C72.13,-135.64 77.56,-125.89 82.52,-116.98"/>
<polygon fill="black" stroke="black" points="85.66,-118.54 87.47,-108.1 79.55,-115.14 85.66,-118.54"/>
<g id="a_edge2&#45;headlabel"><a xlink:href="dir_000009_000010.html" target="_top" xlink:title="4">
<text text-anchor="middle" x="86.39" y="-120.57" font-family="Helvetica,sans-Serif" font-size="10.00">4</text>
</a>
</g>
</g>
<!-- dir_f5c1662545658e75a7dc6b962ca8f4b3 -->
<g id="node4" class="node">
<title>dir_f5c1662545658e75a7dc6b962ca8f4b3</title>
<g id="a_node4"><a xlink:href="dir_f5c1662545658e75a7dc6b962ca8f4b3.html" target="_top" xlink:title="Vector">
<polygon fill="none" stroke="black" points="242,-108 188,-108 188,-72 242,-72 242,-108"/>
<text text-anchor="middle" x="215" y="-87.5" font-family="Helvetica,sans-Serif" font-size="10.00">Vector</text>
</a>
</g>
</g>
<!-- dir_fbaef1213b89c2c136e136e5f4a6fca1&#45;&gt;dir_f5c1662545658e75a7dc6b962ca8f4b3 -->
<g id="edge3" class="edge">
<title>dir_fbaef1213b89c2c136e136e5f4a6fca1&#45;&gt;dir_f5c1662545658e75a7dc6b962ca8f4b3</title>
<path fill="none" stroke="black" d="M92.07,-145.81C117.61,-134.42 152.51,-118.86 178.6,-107.23"/>
<polygon fill="black" stroke="black" points="180.07,-110.41 187.78,-103.14 177.22,-104.01 180.07,-110.41"/>
<g id="a_edge3&#45;headlabel"><a xlink:href="dir_000009_000017.html" target="_top" xlink:title="1">
<text text-anchor="middle" x="177.94" y="-111.96" font-family="Helvetica,sans-Serif" font-size="10.00">1</text>
</a>
</g>
</g>
<!-- dir_74442ff3d05547458d2ed78b98180a98 -->
<g id="node6" class="node">
<title>dir_74442ff3d05547458d2ed78b98180a98</title>
<g id="a_node6"><a xlink:href="dir_74442ff3d05547458d2ed78b98180a98.html" target="_top" xlink:title="Utils">
<polygon fill="none" stroke="black" points="314,-108 260,-108 260,-72 314,-72 314,-108"/>
<text text-anchor="middle" x="287" y="-87.5" font-family="Helvetica,sans-Serif" font-size="10.00">Utils</text>
</a>
</g>
</g>
<!-- dir_fbaef1213b89c2c136e136e5f4a6fca1&#45;&gt;dir_74442ff3d05547458d2ed78b98180a98 -->
<g id="edge4" class="edge">
<title>dir_fbaef1213b89c2c136e136e5f4a6fca1&#45;&gt;dir_74442ff3d05547458d2ed78b98180a98</title>
<path fill="none" stroke="black" d="M92.11,-147.01C95.1,-145.94 98.09,-144.92 101,-144 163.44,-124.27 184.44,-130.15 250.15,-107.92"/>
<polygon fill="black" stroke="black" points="251.43,-111.18 259.73,-104.59 249.13,-104.57 251.43,-111.18"/>
<g id="a_edge4&#45;headlabel"><a xlink:href="dir_000009_000016.html" target="_top" xlink:title="2">
<text text-anchor="middle" x="248.97" y="-112.54" font-family="Helvetica,sans-Serif" font-size="10.00">2</text>
</a>
</g>
</g>
<!-- dir_df668b2fd7e51b77c1ffc27a8eba9bf3 -->
<g id="node5" class="node">
<title>dir_df668b2fd7e51b77c1ffc27a8eba9bf3</title>
<g id="a_node5"><a xlink:href="dir_df668b2fd7e51b77c1ffc27a8eba9bf3.html" target="_top" xlink:title="Exceptions">
<polygon fill="none" stroke="black" points="322,-36 252,-36 252,0 322,0 322,-36"/>
<text text-anchor="middle" x="287" y="-15.5" font-family="Helvetica,sans-Serif" font-size="10.00">Exceptions</text>
</a>
</g>
</g>
<!-- dir_ae3897dd83bb94b9cbd1cfd3ab0ec4e8&#45;&gt;dir_df668b2fd7e51b77c1ffc27a8eba9bf3 -->
<g id="edge1" class="edge">
<title>dir_ae3897dd83bb94b9cbd1cfd3ab0ec4e8&#45;&gt;dir_df668b2fd7e51b77c1ffc27a8eba9bf3</title>
<path fill="none" stroke="black" d="M124.19,-77.64C140.09,-71.1 160.59,-62.85 179,-56 199.66,-48.31 222.75,-40.32 242.26,-33.74"/>
<polygon fill="black" stroke="black" points="243.45,-37.03 251.81,-30.53 241.22,-30.4 243.45,-37.03"/>
<g id="a_edge1&#45;headlabel"><a xlink:href="dir_000010_000012.html" target="_top" xlink:title="1">
<text text-anchor="middle" x="240.94" y="-38.37" font-family="Helvetica,sans-Serif" font-size="10.00">1</text>
</a>
</g>
</g>
<!-- dir_ddc9688aedd3355ae1cfabfe7f2dfe6d -->
<g id="node3" class="node">
<title>dir_ddc9688aedd3355ae1cfabfe7f2dfe6d</title>
<g id="a_node3"><a xlink:href="dir_ddc9688aedd3355ae1cfabfe7f2dfe6d.html" target="_top" xlink:title="3D">
<polygon fill="white" stroke="black" points="164,-180 110,-180 110,-144 164,-144 164,-180"/>
<text text-anchor="middle" x="137" y="-159.5" font-family="Helvetica,sans-Serif" font-size="10.00">3D</text>
</a>
</g>
</g>
<!-- dir_ddc9688aedd3355ae1cfabfe7f2dfe6d&#45;&gt;dir_df668b2fd7e51b77c1ffc27a8eba9bf3 -->
<g id="edge5" class="edge">
<title>dir_ddc9688aedd3355ae1cfabfe7f2dfe6d&#45;&gt;dir_df668b2fd7e51b77c1ffc27a8eba9bf3</title>
<path fill="none" stroke="black" d="M164.25,-157.27C211.12,-150.23 303.83,-133.39 323,-108 336.92,-89.55 331.7,-77.41 323,-56 321.24,-51.68 318.72,-47.59 315.8,-43.81"/>
<polygon fill="black" stroke="black" points="318.2,-41.24 308.95,-36.07 312.96,-45.88 318.2,-41.24"/>
<g id="a_edge5&#45;headlabel"><a xlink:href="dir_000011_000012.html" target="_top" xlink:title="1">
<text text-anchor="middle" x="322.71" y="-39.55" font-family="Helvetica,sans-Serif" font-size="10.00">1</text>
</a>
</g>
</g>
<!-- dir_74442ff3d05547458d2ed78b98180a98&#45;&gt;dir_df668b2fd7e51b77c1ffc27a8eba9bf3 -->
<g id="edge6" class="edge">
<title>dir_74442ff3d05547458d2ed78b98180a98&#45;&gt;dir_df668b2fd7e51b77c1ffc27a8eba9bf3</title>
<path fill="none" stroke="black" d="M287,-71.7C287,-63.98 287,-54.71 287,-46.11"/>
<polygon fill="black" stroke="black" points="290.5,-46.1 287,-36.1 283.5,-46.1 290.5,-46.1"/>
<g id="a_edge6&#45;headlabel"><a xlink:href="dir_000016_000012.html" target="_top" xlink:title="1">
<text text-anchor="middle" x="293.34" y="-47.2" font-family="Helvetica,sans-Serif" font-size="10.00">1</text>
</a>
</g>
</g>
</g>
</svg>
