<?xml version="1.0" encoding="UTF-8" standalone="no"?>
<!DOCTYPE svg PUBLIC "-//W3C//DTD SVG 1.1//EN"
 "http://www.w3.org/Graphics/SVG/1.1/DTD/svg11.dtd">
<!-- Generated by graphviz version 2.43.0 (0)
 -->
<!-- Title: sources/Component/Shaders Pages: 1 -->
<svg width="184pt" height="231pt"
 viewBox="0.00 0.00 184.00 231.00" xmlns="http://www.w3.org/2000/svg" xmlns:xlink="http://www.w3.org/1999/xlink">
<g id="graph0" class="graph" transform="scale(1 1) rotate(0) translate(4 227)">
<title>sources/Component/Shaders</title>
<polygon fill="white" stroke="transparent" points="-4,4 -4,-227 180,-227 180,4 -4,4"/>
<g id="clust1" class="cluster">
<title>clusterdir_1625c0207da71ef5bcc742f7d87fc397</title>
<g id="a_clust1"><a xlink:href="dir_1625c0207da71ef5bcc742f7d87fc397.html" target="_top" xlink:title="Component">
<polygon fill="#ddddee" stroke="black" points="8,-128 8,-215 168,-215 168,-128 8,-128"/>
<text text-anchor="middle" x="88" y="-203" font-family="Helvetica,sans-Serif" font-size="10.00">Component</text>
</a>
</g>
</g>
<g id="clust2" class="cluster">
<title>clusterdir_1a5a9696754914815a50bf38eadd86ad</title>
<g id="a_clust2"><a xlink:href="dir_1a5a9696754914815a50bf38eadd86ad.html" target="_top">
<polygon fill="#eeeeff" stroke="black" points="16,-136 16,-188 160,-188 160,-136 16,-136"/>
</a>
</g>
</g>
<!-- dir_1a5a9696754914815a50bf38eadd86ad -->
<g id="node1" class="node">
<title>dir_1a5a9696754914815a50bf38eadd86ad</title>
<text text-anchor="middle" x="52" y="-159.5" font-family="Helvetica,sans-Serif" font-size="10.00">Shaders</text>
</g>
<!-- dir_0bdc1f114aa34b6ab2d85546a660ebf2 -->
<g id="node3" class="node">
<title>dir_0bdc1f114aa34b6ab2d85546a660ebf2</title>
<g id="a_node3"><a xlink:href="dir_0bdc1f114aa34b6ab2d85546a660ebf2.html" target="_top" xlink:title="Renderer">
<polygon fill="none" stroke="black" points="89.5,-108 28.5,-108 28.5,-72 89.5,-72 89.5,-108"/>
<text text-anchor="middle" x="59" y="-87.5" font-family="Helvetica,sans-Serif" font-size="10.00">Renderer</text>
</a>
</g>
</g>
<!-- dir_1a5a9696754914815a50bf38eadd86ad&#45;&gt;dir_0bdc1f114aa34b6ab2d85546a660ebf2 -->
<g id="edge2" class="edge">
<title>dir_1a5a9696754914815a50bf38eadd86ad&#45;&gt;dir_0bdc1f114aa34b6ab2d85546a660ebf2</title>
<path fill="none" stroke="black" d="M53.73,-143.7C54.5,-135.98 55.43,-126.71 56.29,-118.11"/>
<polygon fill="black" stroke="black" points="59.78,-118.4 57.29,-108.1 52.81,-117.71 59.78,-118.4"/>
<g id="a_edge2&#45;headlabel"><a xlink:href="dir_000053_000051.html" target="_top" xlink:title="1">
<text text-anchor="middle" x="62.24" y="-119.76" font-family="Helvetica,sans-Serif" font-size="10.00">1</text>
</a>
</g>
</g>
<!-- dir_81a60fb5e2c25716a6ba0c3da584bbd9 -->
<g id="node2" class="node">
<title>dir_81a60fb5e2c25716a6ba0c3da584bbd9</title>
<g id="a_node2"><a xlink:href="dir_81a60fb5e2c25716a6ba0c3da584bbd9.html" target="_top" xlink:title="Items">
<polygon fill="white" stroke="black" points="152,-180 98,-180 98,-144 152,-144 152,-180"/>
<text text-anchor="middle" x="125" y="-159.5" font-family="Helvetica,sans-Serif" font-size="10.00">Items</text>
</a>
</g>
</g>
<!-- dir_97aefd0d527b934f1d99a682da8fe6a9 -->
<g id="node4" class="node">
<title>dir_97aefd0d527b934f1d99a682da8fe6a9</title>
<g id="a_node4"><a xlink:href="dir_97aefd0d527b934f1d99a682da8fe6a9.html" target="_top" xlink:title="lib">
<polygon fill="white" stroke="red" points="115,-36 61,-36 61,0 115,0 115,-36"/>
<text text-anchor="middle" x="88" y="-15.5" font-family="Helvetica,sans-Serif" font-size="10.00">lib</text>
</a>
</g>
</g>
<!-- dir_81a60fb5e2c25716a6ba0c3da584bbd9&#45;&gt;dir_97aefd0d527b934f1d99a682da8fe6a9 -->
<g id="edge3" class="edge">
<title>dir_81a60fb5e2c25716a6ba0c3da584bbd9&#45;&gt;dir_97aefd0d527b934f1d99a682da8fe6a9</title>
<path fill="none" stroke="black" d="M120.54,-143.87C114.2,-119.56 102.54,-74.82 95.04,-46.01"/>
<polygon fill="black" stroke="black" points="98.39,-44.98 92.48,-36.19 91.61,-46.75 98.39,-44.98"/>
<g id="a_edge3&#45;headlabel"><a xlink:href="dir_000054_000000.html" target="_top" xlink:title="4">
<text text-anchor="middle" x="102.04" y="-45.25" font-family="Helvetica,sans-Serif" font-size="10.00">4</text>
</a>
</g>
</g>
<!-- dir_0bdc1f114aa34b6ab2d85546a660ebf2&#45;&gt;dir_97aefd0d527b934f1d99a682da8fe6a9 -->
<g id="edge1" class="edge">
<title>dir_0bdc1f114aa34b6ab2d85546a660ebf2&#45;&gt;dir_97aefd0d527b934f1d99a682da8fe6a9</title>
<path fill="none" stroke="black" d="M66.17,-71.7C69.43,-63.81 73.37,-54.3 77,-45.55"/>
<polygon fill="black" stroke="black" points="80.32,-46.68 80.91,-36.1 73.85,-44 80.32,-46.68"/>
<g id="a_edge1&#45;headlabel"><a xlink:href="dir_000051_000000.html" target="_top" xlink:title="9">
<text text-anchor="middle" x="81.57" y="-48.59" font-family="Helvetica,sans-Serif" font-size="10.00">9</text>
</a>
</g>
</g>
</g>
</svg>
