<?xml version="1.0" encoding="UTF-8" standalone="no"?>
<!DOCTYPE svg PUBLIC "-//W3C//DTD SVG 1.1//EN"
 "http://www.w3.org/Graphics/SVG/1.1/DTD/svg11.dtd">
<!-- Generated by graphviz version 2.43.0 (0)
 -->
<!-- Title: sources/System/MenuControllable Pages: 1 -->
<svg width="178pt" height="295pt"
 viewBox="0.00 0.00 177.50 295.00" xmlns="http://www.w3.org/2000/svg" xmlns:xlink="http://www.w3.org/1999/xlink">
<g id="graph0" class="graph" transform="scale(1 1) rotate(0) translate(4 291)">
<title>sources/System/MenuControllable</title>
<polygon fill="white" stroke="transparent" points="-4,4 -4,-291 173.5,-291 173.5,4 -4,4"/>
<g id="clust1" class="cluster">
<title>clusterdir_dbff9d19e82c23288cf26fa638b485e8</title>
<g id="a_clust1"><a xlink:href="dir_dbff9d19e82c23288cf26fa638b485e8.html" target="_top" xlink:title="System">
<polygon fill="#ddddee" stroke="black" points="8,-208 8,-279 128,-279 128,-208 8,-208"/>
<text text-anchor="middle" x="68" y="-267" font-family="Helvetica,sans-Serif" font-size="10.00">System</text>
</a>
</g>
</g>
<!-- dir_448203cd6cf96619aeebdd82741a2c6b -->
<g id="node1" class="node">
<title>dir_448203cd6cf96619aeebdd82741a2c6b</title>
<g id="a_node1"><a xlink:href="dir_448203cd6cf96619aeebdd82741a2c6b.html" target="_top" xlink:title="MenuControllable">
<polygon fill="#eeeeff" stroke="black" points="119.5,-252 16.5,-252 16.5,-216 119.5,-216 119.5,-252"/>
<text text-anchor="middle" x="68" y="-231.5" font-family="Helvetica,sans-Serif" font-size="10.00">MenuControllable</text>
</a>
</g>
</g>
<!-- dir_5cb6e1a8c8be2c39561c895666c60a3e -->
<g id="node2" class="node">
<title>dir_5cb6e1a8c8be2c39561c895666c60a3e</title>
<g id="a_node2"><a xlink:href="dir_5cb6e1a8c8be2c39561c895666c60a3e.html" target="_top" xlink:title="Models">
<polygon fill="none" stroke="black" points="109,-108 55,-108 55,-72 109,-72 109,-108"/>
<text text-anchor="middle" x="82" y="-87.5" font-family="Helvetica,sans-Serif" font-size="10.00">Models</text>
</a>
</g>
</g>
<!-- dir_448203cd6cf96619aeebdd82741a2c6b&#45;&gt;dir_5cb6e1a8c8be2c39561c895666c60a3e -->
<g id="edge2" class="edge">
<title>dir_448203cd6cf96619aeebdd82741a2c6b&#45;&gt;dir_5cb6e1a8c8be2c39561c895666c60a3e</title>
<path fill="none" stroke="black" d="M69.69,-215.87C72.07,-191.67 76.46,-147.21 79.3,-118.39"/>
<polygon fill="black" stroke="black" points="82.81,-118.48 80.31,-108.19 75.84,-117.8 82.81,-118.48"/>
<g id="a_edge2&#45;headlabel"><a xlink:href="dir_000085_000019.html" target="_top" xlink:title="1">
<text text-anchor="middle" x="85.28" y="-119.84" font-family="Helvetica,sans-Serif" font-size="10.00">1</text>
</a>
</g>
</g>
<!-- dir_97aefd0d527b934f1d99a682da8fe6a9 -->
<g id="node3" class="node">
<title>dir_97aefd0d527b934f1d99a682da8fe6a9</title>
<g id="a_node3"><a xlink:href="dir_97aefd0d527b934f1d99a682da8fe6a9.html" target="_top" xlink:title="lib">
<polygon fill="white" stroke="red" points="109,-36 55,-36 55,0 109,0 109,-36"/>
<text text-anchor="middle" x="82" y="-15.5" font-family="Helvetica,sans-Serif" font-size="10.00">lib</text>
</a>
</g>
</g>
<!-- dir_448203cd6cf96619aeebdd82741a2c6b&#45;&gt;dir_97aefd0d527b934f1d99a682da8fe6a9 -->
<g id="edge3" class="edge">
<title>dir_448203cd6cf96619aeebdd82741a2c6b&#45;&gt;dir_97aefd0d527b934f1d99a682da8fe6a9</title>
<path fill="none" stroke="black" d="M60.87,-215.69C49.58,-185.76 30.41,-122.69 46,-72 49.01,-62.22 54.51,-52.62 60.32,-44.33"/>
<polygon fill="black" stroke="black" points="63.19,-46.33 66.39,-36.23 57.59,-42.13 63.19,-46.33"/>
<g id="a_edge3&#45;headlabel"><a xlink:href="dir_000085_000000.html" target="_top" xlink:title="5">
<text text-anchor="middle" x="63.31" y="-48.41" font-family="Helvetica,sans-Serif" font-size="10.00">5</text>
</a>
</g>
</g>
<!-- dir_1625c0207da71ef5bcc742f7d87fc397 -->
<g id="node4" class="node">
<title>dir_1625c0207da71ef5bcc742f7d87fc397</title>
<g id="a_node4"><a xlink:href="dir_1625c0207da71ef5bcc742f7d87fc397.html" target="_top" xlink:title="Component">
<polygon fill="white" stroke="red" points="169.5,-180 96.5,-180 96.5,-144 169.5,-144 169.5,-180"/>
<text text-anchor="middle" x="133" y="-159.5" font-family="Helvetica,sans-Serif" font-size="10.00">Component</text>
</a>
</g>
</g>
<!-- dir_448203cd6cf96619aeebdd82741a2c6b&#45;&gt;dir_1625c0207da71ef5bcc742f7d87fc397 -->
<g id="edge4" class="edge">
<title>dir_448203cd6cf96619aeebdd82741a2c6b&#45;&gt;dir_1625c0207da71ef5bcc742f7d87fc397</title>
<path fill="none" stroke="black" d="M84.07,-215.7C91.94,-207.22 101.56,-196.86 110.17,-187.58"/>
<polygon fill="black" stroke="black" points="112.88,-189.81 117.12,-180.1 107.75,-185.05 112.88,-189.81"/>
<g id="a_edge4&#45;headlabel"><a xlink:href="dir_000085_000028.html" target="_top" xlink:title="6">
<text text-anchor="middle" x="112.51" y="-191.88" font-family="Helvetica,sans-Serif" font-size="10.00">6</text>
</a>
</g>
</g>
<!-- dir_5cb6e1a8c8be2c39561c895666c60a3e&#45;&gt;dir_97aefd0d527b934f1d99a682da8fe6a9 -->
<g id="edge1" class="edge">
<title>dir_5cb6e1a8c8be2c39561c895666c60a3e&#45;&gt;dir_97aefd0d527b934f1d99a682da8fe6a9</title>
<path fill="none" stroke="black" d="M82,-71.7C82,-63.98 82,-54.71 82,-46.11"/>
<polygon fill="black" stroke="black" points="85.5,-46.1 82,-36.1 78.5,-46.1 85.5,-46.1"/>
<g id="a_edge1&#45;headlabel"><a xlink:href="dir_000019_000000.html" target="_top" xlink:title="3">
<text text-anchor="middle" x="88.34" y="-47.2" font-family="Helvetica,sans-Serif" font-size="10.00">3</text>
</a>
</g>
</g>
<!-- dir_1625c0207da71ef5bcc742f7d87fc397&#45;&gt;dir_5cb6e1a8c8be2c39561c895666c60a3e -->
<g id="edge5" class="edge">
<title>dir_1625c0207da71ef5bcc742f7d87fc397&#45;&gt;dir_5cb6e1a8c8be2c39561c895666c60a3e</title>
<path fill="none" stroke="black" d="M120.39,-143.7C114.4,-135.47 107.12,-125.48 100.52,-116.42"/>
<polygon fill="black" stroke="black" points="103.18,-114.13 94.46,-108.1 97.52,-118.25 103.18,-114.13"/>
<g id="a_edge5&#45;headlabel"><a xlink:href="dir_000028_000019.html" target="_top" xlink:title="7">
<text text-anchor="middle" x="107.59" y="-112.86" font-family="Helvetica,sans-Serif" font-size="10.00">7</text>
</a>
</g>
</g>
<!-- dir_1625c0207da71ef5bcc742f7d87fc397&#45;&gt;dir_97aefd0d527b934f1d99a682da8fe6a9 -->
<g id="edge6" class="edge">
<title>dir_1625c0207da71ef5bcc742f7d87fc397&#45;&gt;dir_97aefd0d527b934f1d99a682da8fe6a9</title>
<path fill="none" stroke="black" d="M132.27,-143.68C131,-125.3 127.52,-95.7 118,-72 114.12,-62.35 108.28,-52.67 102.41,-44.28"/>
<polygon fill="black" stroke="black" points="105.12,-42.05 96.38,-36.06 99.47,-46.19 105.12,-42.05"/>
<g id="a_edge6&#45;headlabel"><a xlink:href="dir_000028_000000.html" target="_top" xlink:title="84">
<text text-anchor="middle" x="109.53" y="-40.77" font-family="Helvetica,sans-Serif" font-size="10.00">84</text>
</a>
</g>
</g>
</g>
</svg>
