<?xml version="1.0" encoding="UTF-8" standalone="no"?>
<!DOCTYPE svg PUBLIC "-//W3C//DTD SVG 1.1//EN"
 "http://www.w3.org/Graphics/SVG/1.1/DTD/svg11.dtd">
<!-- Generated by graphviz version 2.43.0 (0)
 -->
<!-- Title: sources/Component/IAControllable Pages: 1 -->
<svg width="230pt" height="295pt"
 viewBox="0.00 0.00 229.50 295.00" xmlns="http://www.w3.org/2000/svg" xmlns:xlink="http://www.w3.org/1999/xlink">
<g id="graph0" class="graph" transform="scale(1 1) rotate(0) translate(4 291)">
<title>sources/Component/IAControllable</title>
<polygon fill="white" stroke="transparent" points="-4,4 -4,-291 225.5,-291 225.5,4 -4,4"/>
<g id="clust1" class="cluster">
<title>clusterdir_1625c0207da71ef5bcc742f7d87fc397</title>
<g id="a_clust1"><a xlink:href="dir_1625c0207da71ef5bcc742f7d87fc397.html" target="_top" xlink:title="Component">
<polygon fill="#ddddee" stroke="black" points="49,-208 49,-279 151,-279 151,-208 49,-208"/>
<text text-anchor="middle" x="100" y="-267" font-family="Helvetica,sans-Serif" font-size="10.00">Component</text>
</a>
</g>
</g>
<!-- dir_7052eb868ccae7c58bf6a60982f984bc -->
<g id="node1" class="node">
<title>dir_7052eb868ccae7c58bf6a60982f984bc</title>
<g id="a_node1"><a xlink:href="dir_7052eb868ccae7c58bf6a60982f984bc.html" target="_top" xlink:title="IAControllable">
<polygon fill="#eeeeff" stroke="black" points="143,-252 57,-252 57,-216 143,-216 143,-252"/>
<text text-anchor="middle" x="100" y="-231.5" font-family="Helvetica,sans-Serif" font-size="10.00">IAControllable</text>
</a>
</g>
</g>
<!-- dir_a61a61d636d8fc46ea4cb7e95abb789e -->
<g id="node2" class="node">
<title>dir_a61a61d636d8fc46ea4cb7e95abb789e</title>
<g id="a_node2"><a xlink:href="dir_a61a61d636d8fc46ea4cb7e95abb789e.html" target="_top" xlink:title="Map">
<polygon fill="none" stroke="black" points="100,-180 46,-180 46,-144 100,-144 100,-180"/>
<text text-anchor="middle" x="73" y="-159.5" font-family="Helvetica,sans-Serif" font-size="10.00">Map</text>
</a>
</g>
</g>
<!-- dir_7052eb868ccae7c58bf6a60982f984bc&#45;&gt;dir_a61a61d636d8fc46ea4cb7e95abb789e -->
<g id="edge4" class="edge">
<title>dir_7052eb868ccae7c58bf6a60982f984bc&#45;&gt;dir_a61a61d636d8fc46ea4cb7e95abb789e</title>
<path fill="none" stroke="black" d="M93.33,-215.7C90.29,-207.81 86.62,-198.3 83.24,-189.55"/>
<polygon fill="black" stroke="black" points="86.46,-188.17 79.6,-180.1 79.93,-190.69 86.46,-188.17"/>
<g id="a_edge4&#45;headlabel"><a xlink:href="dir_000043_000062.html" target="_top" xlink:title="1">
<text text-anchor="middle" x="90.4" y="-188.01" font-family="Helvetica,sans-Serif" font-size="10.00">1</text>
</a>
</g>
</g>
<!-- dir_5cb6e1a8c8be2c39561c895666c60a3e -->
<g id="node3" class="node">
<title>dir_5cb6e1a8c8be2c39561c895666c60a3e</title>
<g id="a_node3"><a xlink:href="dir_5cb6e1a8c8be2c39561c895666c60a3e.html" target="_top" xlink:title="Models">
<polygon fill="none" stroke="black" points="54,-108 0,-108 0,-72 54,-72 54,-108"/>
<text text-anchor="middle" x="27" y="-87.5" font-family="Helvetica,sans-Serif" font-size="10.00">Models</text>
</a>
</g>
</g>
<!-- dir_7052eb868ccae7c58bf6a60982f984bc&#45;&gt;dir_5cb6e1a8c8be2c39561c895666c60a3e -->
<g id="edge5" class="edge">
<title>dir_7052eb868ccae7c58bf6a60982f984bc&#45;&gt;dir_5cb6e1a8c8be2c39561c895666c60a3e</title>
<path fill="none" stroke="black" d="M71.11,-215.9C58.5,-206.87 44.83,-194.62 37,-180 26.88,-161.09 24.76,-136.72 24.96,-118.27"/>
<polygon fill="black" stroke="black" points="28.46,-118.28 25.3,-108.17 21.46,-118.04 28.46,-118.28"/>
<g id="a_edge5&#45;headlabel"><a xlink:href="dir_000043_000019.html" target="_top" xlink:title="1">
<text text-anchor="middle" x="31.18" y="-119.47" font-family="Helvetica,sans-Serif" font-size="10.00">1</text>
</a>
</g>
</g>
<!-- dir_97aefd0d527b934f1d99a682da8fe6a9 -->
<g id="node4" class="node">
<title>dir_97aefd0d527b934f1d99a682da8fe6a9</title>
<g id="a_node4"><a xlink:href="dir_97aefd0d527b934f1d99a682da8fe6a9.html" target="_top" xlink:title="lib">
<polygon fill="white" stroke="red" points="109,-36 55,-36 55,0 109,0 109,-36"/>
<text text-anchor="middle" x="82" y="-15.5" font-family="Helvetica,sans-Serif" font-size="10.00">lib</text>
</a>
</g>
</g>
<!-- dir_7052eb868ccae7c58bf6a60982f984bc&#45;&gt;dir_97aefd0d527b934f1d99a682da8fe6a9 -->
<g id="edge6" class="edge">
<title>dir_7052eb868ccae7c58bf6a60982f984bc&#45;&gt;dir_97aefd0d527b934f1d99a682da8fe6a9</title>
<path fill="none" stroke="black" d="M103.65,-215.91C105.68,-205.57 107.98,-192.09 109,-180 113,-132.55 100.12,-78.04 90.79,-46.17"/>
<polygon fill="black" stroke="black" points="94.05,-44.83 87.8,-36.27 87.35,-46.86 94.05,-44.83"/>
<g id="a_edge6&#45;headlabel"><a xlink:href="dir_000043_000000.html" target="_top" xlink:title="3">
<text text-anchor="middle" x="97.8" y="-44.95" font-family="Helvetica,sans-Serif" font-size="10.00">3</text>
</a>
</g>
</g>
<!-- dir_e491b0d3ac4fed3c9fa700917290c7c5 -->
<g id="node5" class="node">
<title>dir_e491b0d3ac4fed3c9fa700917290c7c5</title>
<g id="a_node5"><a xlink:href="dir_e491b0d3ac4fed3c9fa700917290c7c5.html" target="_top" xlink:title="Exception">
<polygon fill="none" stroke="black" points="221.5,-180 156.5,-180 156.5,-144 221.5,-144 221.5,-180"/>
<text text-anchor="middle" x="189" y="-159.5" font-family="Helvetica,sans-Serif" font-size="10.00">Exception</text>
</a>
</g>
</g>
<!-- dir_7052eb868ccae7c58bf6a60982f984bc&#45;&gt;dir_e491b0d3ac4fed3c9fa700917290c7c5 -->
<g id="edge7" class="edge">
<title>dir_7052eb868ccae7c58bf6a60982f984bc&#45;&gt;dir_e491b0d3ac4fed3c9fa700917290c7c5</title>
<path fill="none" stroke="black" d="M122,-215.7C133.21,-206.88 147,-196.03 159.15,-186.47"/>
<polygon fill="black" stroke="black" points="161.56,-189.04 167.25,-180.1 157.23,-183.54 161.56,-189.04"/>
<g id="a_edge7&#45;headlabel"><a xlink:href="dir_000043_000060.html" target="_top" xlink:title="1">
<text text-anchor="middle" x="160.49" y="-190.99" font-family="Helvetica,sans-Serif" font-size="10.00">1</text>
</a>
</g>
</g>
<!-- dir_a61a61d636d8fc46ea4cb7e95abb789e&#45;&gt;dir_5cb6e1a8c8be2c39561c895666c60a3e -->
<g id="edge1" class="edge">
<title>dir_a61a61d636d8fc46ea4cb7e95abb789e&#45;&gt;dir_5cb6e1a8c8be2c39561c895666c60a3e</title>
<path fill="none" stroke="black" d="M61.63,-143.7C56.28,-135.56 49.8,-125.69 43.89,-116.7"/>
<polygon fill="black" stroke="black" points="46.66,-114.54 38.24,-108.1 40.81,-118.38 46.66,-114.54"/>
<g id="a_edge1&#45;headlabel"><a xlink:href="dir_000062_000019.html" target="_top" xlink:title="1">
<text text-anchor="middle" x="51" y="-113.48" font-family="Helvetica,sans-Serif" font-size="10.00">1</text>
</a>
</g>
</g>
<!-- dir_a61a61d636d8fc46ea4cb7e95abb789e&#45;&gt;dir_97aefd0d527b934f1d99a682da8fe6a9 -->
<g id="edge2" class="edge">
<title>dir_a61a61d636d8fc46ea4cb7e95abb789e&#45;&gt;dir_97aefd0d527b934f1d99a682da8fe6a9</title>
<path fill="none" stroke="black" d="M74.09,-143.87C75.62,-119.67 78.44,-75.21 80.26,-46.39"/>
<polygon fill="black" stroke="black" points="83.77,-46.39 80.91,-36.19 76.78,-45.95 83.77,-46.39"/>
<g id="a_edge2&#45;headlabel"><a xlink:href="dir_000062_000000.html" target="_top" xlink:title="4">
<text text-anchor="middle" x="86.38" y="-47.66" font-family="Helvetica,sans-Serif" font-size="10.00">4</text>
</a>
</g>
</g>
<!-- dir_5cb6e1a8c8be2c39561c895666c60a3e&#45;&gt;dir_97aefd0d527b934f1d99a682da8fe6a9 -->
<g id="edge3" class="edge">
<title>dir_5cb6e1a8c8be2c39561c895666c60a3e&#45;&gt;dir_97aefd0d527b934f1d99a682da8fe6a9</title>
<path fill="none" stroke="black" d="M40.6,-71.7C47.12,-63.39 55.07,-53.28 62.25,-44.14"/>
<polygon fill="black" stroke="black" points="65.13,-46.13 68.56,-36.1 59.63,-41.81 65.13,-46.13"/>
<g id="a_edge3&#45;headlabel"><a xlink:href="dir_000019_000000.html" target="_top" xlink:title="3">
<text text-anchor="middle" x="65.15" y="-48.21" font-family="Helvetica,sans-Serif" font-size="10.00">3</text>
</a>
</g>
</g>
</g>
</svg>
