<?xml version="1.0" encoding="UTF-8" standalone="no"?>
<!DOCTYPE svg PUBLIC "-//W3C//DTD SVG 1.1//EN"
 "http://www.w3.org/Graphics/SVG/1.1/DTD/svg11.dtd">
<!-- Generated by graphviz version 2.43.0 (0)
 -->
<!-- Title: sources/System/Renderer Pages: 1 -->
<svg width="185pt" height="295pt"
 viewBox="0.00 0.00 185.00 295.00" xmlns="http://www.w3.org/2000/svg" xmlns:xlink="http://www.w3.org/1999/xlink">
<g id="graph0" class="graph" transform="scale(1 1) rotate(0) translate(4 291)">
<title>sources/System/Renderer</title>
<polygon fill="white" stroke="transparent" points="-4,4 -4,-291 181,-291 181,4 -4,4"/>
<g id="clust1" class="cluster">
<title>clusterdir_dbff9d19e82c23288cf26fa638b485e8</title>
<g id="a_clust1"><a xlink:href="dir_dbff9d19e82c23288cf26fa638b485e8.html" target="_top" xlink:title="System">
<polygon fill="#ddddee" stroke="black" points="8,-208 8,-279 86,-279 86,-208 8,-208"/>
<text text-anchor="middle" x="47" y="-267" font-family="Helvetica,sans-Serif" font-size="10.00">System</text>
</a>
</g>
</g>
<!-- dir_060c2debc8a63700d8ac32f8579043cd -->
<g id="node1" class="node">
<title>dir_060c2debc8a63700d8ac32f8579043cd</title>
<g id="a_node1"><a xlink:href="dir_060c2debc8a63700d8ac32f8579043cd.html" target="_top" xlink:title="Renderer">
<polygon fill="#eeeeff" stroke="black" points="77.5,-252 16.5,-252 16.5,-216 77.5,-216 77.5,-252"/>
<text text-anchor="middle" x="47" y="-231.5" font-family="Helvetica,sans-Serif" font-size="10.00">Renderer</text>
</a>
</g>
</g>
<!-- dir_5cb6e1a8c8be2c39561c895666c60a3e -->
<g id="node2" class="node">
<title>dir_5cb6e1a8c8be2c39561c895666c60a3e</title>
<g id="a_node2"><a xlink:href="dir_5cb6e1a8c8be2c39561c895666c60a3e.html" target="_top" xlink:title="Models">
<polygon fill="none" stroke="black" points="150,-108 96,-108 96,-72 150,-72 150,-108"/>
<text text-anchor="middle" x="123" y="-87.5" font-family="Helvetica,sans-Serif" font-size="10.00">Models</text>
</a>
</g>
</g>
<!-- dir_060c2debc8a63700d8ac32f8579043cd&#45;&gt;dir_5cb6e1a8c8be2c39561c895666c60a3e -->
<g id="edge6" class="edge">
<title>dir_060c2debc8a63700d8ac32f8579043cd&#45;&gt;dir_5cb6e1a8c8be2c39561c895666c60a3e</title>
<path fill="none" stroke="black" d="M44.4,-215.78C42.42,-196.95 41.8,-166.48 54,-144 61.55,-130.08 74.48,-118.68 87.13,-110.06"/>
<polygon fill="black" stroke="black" points="89.22,-112.88 95.77,-104.54 85.45,-106.98 89.22,-112.88"/>
<g id="a_edge6&#45;headlabel"><a xlink:href="dir_000088_000019.html" target="_top" xlink:title="3">
<text text-anchor="middle" x="87.72" y="-114.7" font-family="Helvetica,sans-Serif" font-size="10.00">3</text>
</a>
</g>
</g>
<!-- dir_53b655bbb6a43e76304525ea68aac804 -->
<g id="node3" class="node">
<title>dir_53b655bbb6a43e76304525ea68aac804</title>
<g id="a_node3"><a xlink:href="dir_53b655bbb6a43e76304525ea68aac804.html" target="_top" xlink:title="Runner">
<polygon fill="none" stroke="black" points="177,-252 123,-252 123,-216 177,-216 177,-252"/>
<text text-anchor="middle" x="150" y="-231.5" font-family="Helvetica,sans-Serif" font-size="10.00">Runner</text>
</a>
</g>
</g>
<!-- dir_060c2debc8a63700d8ac32f8579043cd&#45;&gt;dir_53b655bbb6a43e76304525ea68aac804 -->
<g id="edge7" class="edge">
<title>dir_060c2debc8a63700d8ac32f8579043cd&#45;&gt;dir_53b655bbb6a43e76304525ea68aac804</title>
<path fill="none" stroke="black" d="M77.58,-234C89.25,-234 100.92,-234 112.59,-234"/>
<polygon fill="black" stroke="black" points="112.84,-237.5 122.84,-234 112.84,-230.5 112.84,-237.5"/>
<g id="a_edge7&#45;headlabel"><a xlink:href="dir_000088_000064.html" target="_top" xlink:title="1">
<text text-anchor="middle" x="109.25" y="-237.84" font-family="Helvetica,sans-Serif" font-size="10.00">1</text>
</a>
</g>
</g>
<!-- dir_97aefd0d527b934f1d99a682da8fe6a9 -->
<g id="node4" class="node">
<title>dir_97aefd0d527b934f1d99a682da8fe6a9</title>
<g id="a_node4"><a xlink:href="dir_97aefd0d527b934f1d99a682da8fe6a9.html" target="_top" xlink:title="lib">
<polygon fill="white" stroke="red" points="122,-36 68,-36 68,0 122,0 122,-36"/>
<text text-anchor="middle" x="95" y="-15.5" font-family="Helvetica,sans-Serif" font-size="10.00">lib</text>
</a>
</g>
</g>
<!-- dir_060c2debc8a63700d8ac32f8579043cd&#45;&gt;dir_97aefd0d527b934f1d99a682da8fe6a9 -->
<g id="edge8" class="edge">
<title>dir_060c2debc8a63700d8ac32f8579043cd&#45;&gt;dir_97aefd0d527b934f1d99a682da8fe6a9</title>
<path fill="none" stroke="black" d="M42.77,-215.75C39.01,-197.68 34.83,-168.57 40,-144 47.58,-107.95 66.22,-69.61 79.7,-45.05"/>
<polygon fill="black" stroke="black" points="82.92,-46.46 84.76,-36.03 76.81,-43.04 82.92,-46.46"/>
<g id="a_edge8&#45;headlabel"><a xlink:href="dir_000088_000000.html" target="_top" xlink:title="15">
<text text-anchor="middle" x="83.64" y="-48.49" font-family="Helvetica,sans-Serif" font-size="10.00">15</text>
</a>
</g>
</g>
<!-- dir_1625c0207da71ef5bcc742f7d87fc397 -->
<g id="node5" class="node">
<title>dir_1625c0207da71ef5bcc742f7d87fc397</title>
<g id="a_node5"><a xlink:href="dir_1625c0207da71ef5bcc742f7d87fc397.html" target="_top" xlink:title="Component">
<polygon fill="white" stroke="red" points="135.5,-180 62.5,-180 62.5,-144 135.5,-144 135.5,-180"/>
<text text-anchor="middle" x="99" y="-159.5" font-family="Helvetica,sans-Serif" font-size="10.00">Component</text>
</a>
</g>
</g>
<!-- dir_060c2debc8a63700d8ac32f8579043cd&#45;&gt;dir_1625c0207da71ef5bcc742f7d87fc397 -->
<g id="edge9" class="edge">
<title>dir_060c2debc8a63700d8ac32f8579043cd&#45;&gt;dir_1625c0207da71ef5bcc742f7d87fc397</title>
<path fill="none" stroke="black" d="M59.85,-215.7C66.03,-207.39 73.54,-197.28 80.32,-188.14"/>
<polygon fill="black" stroke="black" points="83.14,-190.22 86.29,-180.1 77.52,-186.04 83.14,-190.22"/>
<g id="a_edge9&#45;headlabel"><a xlink:href="dir_000088_000028.html" target="_top" xlink:title="18">
<text text-anchor="middle" x="83.28" y="-192.3" font-family="Helvetica,sans-Serif" font-size="10.00">18</text>
</a>
</g>
</g>
<!-- dir_5cb6e1a8c8be2c39561c895666c60a3e&#45;&gt;dir_97aefd0d527b934f1d99a682da8fe6a9 -->
<g id="edge1" class="edge">
<title>dir_5cb6e1a8c8be2c39561c895666c60a3e&#45;&gt;dir_97aefd0d527b934f1d99a682da8fe6a9</title>
<path fill="none" stroke="black" d="M116.08,-71.7C112.93,-63.81 109.12,-54.3 105.62,-45.55"/>
<polygon fill="black" stroke="black" points="108.81,-44.09 101.84,-36.1 102.31,-46.69 108.81,-44.09"/>
<g id="a_edge1&#45;headlabel"><a xlink:href="dir_000019_000000.html" target="_top" xlink:title="3">
<text text-anchor="middle" x="112.78" y="-43.87" font-family="Helvetica,sans-Serif" font-size="10.00">3</text>
</a>
</g>
</g>
<!-- dir_53b655bbb6a43e76304525ea68aac804&#45;&gt;dir_060c2debc8a63700d8ac32f8579043cd -->
<g id="edge4" class="edge">
<title>dir_53b655bbb6a43e76304525ea68aac804&#45;&gt;dir_060c2debc8a63700d8ac32f8579043cd</title>
<path fill="none" stroke="black" d="M122.84,-234C111.17,-234 99.5,-234 87.83,-234"/>
<polygon fill="black" stroke="black" points="87.58,-230.5 77.58,-234 87.58,-237.5 87.58,-230.5"/>
<g id="a_edge4&#45;headlabel"><a xlink:href="dir_000064_000088.html" target="_top" xlink:title="4">
<text text-anchor="middle" x="91.17" y="-225.16" font-family="Helvetica,sans-Serif" font-size="10.00">4</text>
</a>
</g>
</g>
<!-- dir_53b655bbb6a43e76304525ea68aac804&#45;&gt;dir_5cb6e1a8c8be2c39561c895666c60a3e -->
<g id="edge2" class="edge">
<title>dir_53b655bbb6a43e76304525ea68aac804&#45;&gt;dir_5cb6e1a8c8be2c39561c895666c60a3e</title>
<path fill="none" stroke="black" d="M150.73,-215.7C151.11,-197.59 150.59,-168.44 145,-144 142.96,-135.06 139.54,-125.71 136,-117.38"/>
<polygon fill="black" stroke="black" points="139.16,-115.87 131.87,-108.18 132.77,-118.73 139.16,-115.87"/>
<g id="a_edge2&#45;headlabel"><a xlink:href="dir_000064_000019.html" target="_top" xlink:title="4">
<text text-anchor="middle" x="143.22" y="-115.48" font-family="Helvetica,sans-Serif" font-size="10.00">4</text>
</a>
</g>
</g>
<!-- dir_53b655bbb6a43e76304525ea68aac804&#45;&gt;dir_97aefd0d527b934f1d99a682da8fe6a9 -->
<g id="edge3" class="edge">
<title>dir_53b655bbb6a43e76304525ea68aac804&#45;&gt;dir_97aefd0d527b934f1d99a682da8fe6a9</title>
<path fill="none" stroke="black" d="M156.13,-215.95C166.06,-185.34 182.3,-119.82 159,-72 152.76,-59.19 141.8,-48.37 130.69,-39.91"/>
<polygon fill="black" stroke="black" points="132.43,-36.85 122.25,-33.92 128.37,-42.56 132.43,-36.85"/>
<g id="a_edge3&#45;headlabel"><a xlink:href="dir_000064_000000.html" target="_top" xlink:title="37">
<text text-anchor="middle" x="137" y="-34.12" font-family="Helvetica,sans-Serif" font-size="10.00">37</text>
</a>
</g>
</g>
<!-- dir_53b655bbb6a43e76304525ea68aac804&#45;&gt;dir_1625c0207da71ef5bcc742f7d87fc397 -->
<g id="edge5" class="edge">
<title>dir_53b655bbb6a43e76304525ea68aac804&#45;&gt;dir_1625c0207da71ef5bcc742f7d87fc397</title>
<path fill="none" stroke="black" d="M137.39,-215.7C131.4,-207.47 124.12,-197.48 117.52,-188.42"/>
<polygon fill="black" stroke="black" points="120.18,-186.13 111.46,-180.1 114.52,-190.25 120.18,-186.13"/>
<g id="a_edge5&#45;headlabel"><a xlink:href="dir_000064_000028.html" target="_top" xlink:title="99">
<text text-anchor="middle" x="124.59" y="-184.86" font-family="Helvetica,sans-Serif" font-size="10.00">99</text>
</a>
</g>
</g>
<!-- dir_1625c0207da71ef5bcc742f7d87fc397&#45;&gt;dir_5cb6e1a8c8be2c39561c895666c60a3e -->
<g id="edge10" class="edge">
<title>dir_1625c0207da71ef5bcc742f7d87fc397&#45;&gt;dir_5cb6e1a8c8be2c39561c895666c60a3e</title>
<path fill="none" stroke="black" d="M104.93,-143.7C107.61,-135.9 110.83,-126.51 113.8,-117.83"/>
<polygon fill="black" stroke="black" points="117.2,-118.7 117.14,-108.1 110.58,-116.43 117.2,-118.7"/>
<g id="a_edge10&#45;headlabel"><a xlink:href="dir_000028_000019.html" target="_top" xlink:title="7">
<text text-anchor="middle" x="118.72" y="-120.52" font-family="Helvetica,sans-Serif" font-size="10.00">7</text>
</a>
</g>
</g>
<!-- dir_1625c0207da71ef5bcc742f7d87fc397&#45;&gt;dir_97aefd0d527b934f1d99a682da8fe6a9 -->
<g id="edge11" class="edge">
<title>dir_1625c0207da71ef5bcc742f7d87fc397&#45;&gt;dir_97aefd0d527b934f1d99a682da8fe6a9</title>
<path fill="none" stroke="black" d="M94.13,-143.98C91.44,-133.67 88.36,-120.19 87,-108 84.69,-87.32 87,-63.87 89.72,-46.24"/>
<polygon fill="black" stroke="black" points="93.22,-46.53 91.43,-36.08 86.31,-45.36 93.22,-46.53"/>
<g id="a_edge11&#45;headlabel"><a xlink:href="dir_000028_000000.html" target="_top" xlink:title="84">
<text text-anchor="middle" x="95.42" y="-48.04" font-family="Helvetica,sans-Serif" font-size="10.00">84</text>
</a>
</g>
</g>
</g>
</svg>
