<?xml version="1.0" encoding="UTF-8" standalone="no"?>
<!DOCTYPE svg PUBLIC "-//W3C//DTD SVG 1.1//EN"
 "http://www.w3.org/Graphics/SVG/1.1/DTD/svg11.dtd">
<!-- Generated by graphviz version 2.43.0 (0)
 -->
<!-- Title: sources/Component/Speed Pages: 1 -->
<svg width="97pt" height="151pt"
 viewBox="0.00 0.00 97.00 151.00" xmlns="http://www.w3.org/2000/svg" xmlns:xlink="http://www.w3.org/1999/xlink">
<g id="graph0" class="graph" transform="scale(1 1) rotate(0) translate(4 147)">
<title>sources/Component/Speed</title>
<polygon fill="white" stroke="transparent" points="-4,4 -4,-147 93,-147 93,4 -4,4"/>
<g id="clust1" class="cluster">
<title>clusterdir_1625c0207da71ef5bcc742f7d87fc397</title>
<g id="a_clust1"><a xlink:href="dir_1625c0207da71ef5bcc742f7d87fc397.html" target="_top" xlink:title="Component">
<polygon fill="#ddddee" stroke="black" points="8,-64 8,-135 81,-135 81,-64 8,-64"/>
<text text-anchor="middle" x="44.5" y="-123" font-family="Helvetica,sans-Serif" font-size="10.00">Component</text>
</a>
</g>
</g>
<!-- dir_e11b5833c46e209416f8c8cc42ef7894 -->
<g id="node1" class="node">
<title>dir_e11b5833c46e209416f8c8cc42ef7894</title>
<g id="a_node1"><a xlink:href="dir_e11b5833c46e209416f8c8cc42ef7894.html" target="_top" xlink:title="Speed">
<polygon fill="#eeeeff" stroke="black" points="71,-108 17,-108 17,-72 71,-72 71,-108"/>
<text text-anchor="middle" x="44" y="-87.5" font-family="Helvetica,sans-Serif" font-size="10.00">Speed</text>
</a>
</g>
</g>
<!-- dir_97aefd0d527b934f1d99a682da8fe6a9 -->
<g id="node2" class="node">
<title>dir_97aefd0d527b934f1d99a682da8fe6a9</title>
<g id="a_node2"><a xlink:href="dir_97aefd0d527b934f1d99a682da8fe6a9.html" target="_top" xlink:title="lib">
<polygon fill="white" stroke="red" points="71,-36 17,-36 17,0 71,0 71,-36"/>
<text text-anchor="middle" x="44" y="-15.5" font-family="Helvetica,sans-Serif" font-size="10.00">lib</text>
</a>
</g>
</g>
<!-- dir_e11b5833c46e209416f8c8cc42ef7894&#45;&gt;dir_97aefd0d527b934f1d99a682da8fe6a9 -->
<g id="edge1" class="edge">
<title>dir_e11b5833c46e209416f8c8cc42ef7894&#45;&gt;dir_97aefd0d527b934f1d99a682da8fe6a9</title>
<path fill="none" stroke="black" d="M44,-71.7C44,-63.98 44,-54.71 44,-46.11"/>
<polygon fill="black" stroke="black" points="47.5,-46.1 44,-36.1 40.5,-46.1 47.5,-46.1"/>
<g id="a_edge1&#45;headlabel"><a xlink:href="dir_000056_000000.html" target="_top" xlink:title="1">
<text text-anchor="middle" x="50.34" y="-47.2" font-family="Helvetica,sans-Serif" font-size="10.00">1</text>
</a>
</g>
</g>
</g>
</svg>
