<?xml version="1.0" encoding="UTF-8" standalone="no"?>
<!DOCTYPE svg PUBLIC "-//W3C//DTD SVG 1.1//EN"
 "http://www.w3.org/Graphics/SVG/1.1/DTD/svg11.dtd">
<!-- Generated by graphviz version 2.43.0 (0)
 -->
<!-- Title: lib/wal/sources/Scene Pages: 1 -->
<svg width="150pt" height="151pt"
 viewBox="0.00 0.00 150.00 151.00" xmlns="http://www.w3.org/2000/svg" xmlns:xlink="http://www.w3.org/1999/xlink">
<g id="graph0" class="graph" transform="scale(1 1) rotate(0) translate(4 147)">
<title>lib/wal/sources/Scene</title>
<polygon fill="white" stroke="transparent" points="-4,4 -4,-147 146,-147 146,4 -4,4"/>
<g id="clust1" class="cluster">
<title>clusterdir_d2f550de4c275647d2c0a50b557bd3a7</title>
<g id="a_clust1"><a xlink:href="dir_d2f550de4c275647d2c0a50b557bd3a7.html" target="_top" xlink:title="sources">
<polygon fill="#ddddee" stroke="black" points="8,-64 8,-135 78,-135 78,-64 8,-64"/>
<text text-anchor="middle" x="43" y="-123" font-family="Helvetica,sans-Serif" font-size="10.00">sources</text>
</a>
</g>
</g>
<!-- dir_f134669f632146674ebf9e530d01bfab -->
<g id="node1" class="node">
<title>dir_f134669f632146674ebf9e530d01bfab</title>
<g id="a_node1"><a xlink:href="dir_f134669f632146674ebf9e530d01bfab.html" target="_top" xlink:title="Scene">
<polygon fill="#eeeeff" stroke="black" points="70,-108 16,-108 16,-72 70,-72 70,-108"/>
<text text-anchor="middle" x="43" y="-87.5" font-family="Helvetica,sans-Serif" font-size="10.00">Scene</text>
</a>
</g>
</g>
<!-- dir_84d5ebf0d3ca7545f65093be754a2fd5 -->
<g id="node2" class="node">
<title>dir_84d5ebf0d3ca7545f65093be754a2fd5</title>
<g id="a_node2"><a xlink:href="dir_84d5ebf0d3ca7545f65093be754a2fd5.html" target="_top" xlink:title="Entity">
<polygon fill="none" stroke="black" points="106,-36 52,-36 52,0 106,0 106,-36"/>
<text text-anchor="middle" x="79" y="-15.5" font-family="Helvetica,sans-Serif" font-size="10.00">Entity</text>
</a>
</g>
</g>
<!-- dir_f134669f632146674ebf9e530d01bfab&#45;&gt;dir_84d5ebf0d3ca7545f65093be754a2fd5 -->
<g id="edge2" class="edge">
<title>dir_f134669f632146674ebf9e530d01bfab&#45;&gt;dir_84d5ebf0d3ca7545f65093be754a2fd5</title>
<path fill="none" stroke="black" d="M45.98,-71.7C49.29,-63.64 54.1,-53.89 59.09,-44.98"/>
<polygon fill="black" stroke="black" points="62.26,-46.5 64.31,-36.1 56.22,-42.95 62.26,-46.5"/>
<g id="a_edge2&#45;headlabel"><a xlink:href="dir_000025_000022.html" target="_top" xlink:title="1">
<text text-anchor="middle" x="62.89" y="-48.54" font-family="Helvetica,sans-Serif" font-size="10.00">1</text>
</a>
</g>
</g>
<!-- dir_d7de1389b1e6866c69aede661ee1e875 -->
<g id="node3" class="node">
<title>dir_d7de1389b1e6866c69aede661ee1e875</title>
<g id="a_node3"><a xlink:href="dir_d7de1389b1e6866c69aede661ee1e875.html" target="_top" xlink:title="View">
<polygon fill="none" stroke="black" points="142,-108 88,-108 88,-72 142,-72 142,-108"/>
<text text-anchor="middle" x="115" y="-87.5" font-family="Helvetica,sans-Serif" font-size="10.00">View</text>
</a>
</g>
</g>
<!-- dir_f134669f632146674ebf9e530d01bfab&#45;&gt;dir_d7de1389b1e6866c69aede661ee1e875 -->
<g id="edge3" class="edge">
<title>dir_f134669f632146674ebf9e530d01bfab&#45;&gt;dir_d7de1389b1e6866c69aede661ee1e875</title>
<path fill="none" stroke="black" d="M70.28,-90C72.74,-90 75.19,-90 77.65,-90"/>
<polygon fill="black" stroke="black" points="77.75,-93.5 87.75,-90 77.75,-86.5 77.75,-93.5"/>
<g id="a_edge3&#45;headlabel"><a xlink:href="dir_000025_000027.html" target="_top" xlink:title="1">
<text text-anchor="middle" x="74.15" y="-93.84" font-family="Helvetica,sans-Serif" font-size="10.00">1</text>
</a>
</g>
</g>
<!-- dir_84d5ebf0d3ca7545f65093be754a2fd5&#45;&gt;dir_f134669f632146674ebf9e530d01bfab -->
<g id="edge1" class="edge">
<title>dir_84d5ebf0d3ca7545f65093be754a2fd5&#45;&gt;dir_f134669f632146674ebf9e530d01bfab</title>
<path fill="none" stroke="black" d="M76.1,-36.1C72.81,-44.13 68.02,-53.87 63.03,-62.8"/>
<polygon fill="black" stroke="black" points="59.85,-61.3 57.81,-71.7 65.89,-64.84 59.85,-61.3"/>
<g id="a_edge1&#45;headlabel"><a xlink:href="dir_000022_000025.html" target="_top" xlink:title="1">
<text text-anchor="middle" x="59.22" y="-54.26" font-family="Helvetica,sans-Serif" font-size="10.00">1</text>
</a>
</g>
</g>
<!-- dir_d7de1389b1e6866c69aede661ee1e875&#45;&gt;dir_84d5ebf0d3ca7545f65093be754a2fd5 -->
<g id="edge4" class="edge">
<title>dir_d7de1389b1e6866c69aede661ee1e875&#45;&gt;dir_84d5ebf0d3ca7545f65093be754a2fd5</title>
<path fill="none" stroke="black" d="M106.1,-71.7C102,-63.73 97.05,-54.1 92.51,-45.26"/>
<polygon fill="black" stroke="black" points="95.48,-43.4 87.8,-36.1 89.26,-46.6 95.48,-43.4"/>
<g id="a_edge4&#45;headlabel"><a xlink:href="dir_000027_000022.html" target="_top" xlink:title="1">
<text text-anchor="middle" x="99.65" y="-42.79" font-family="Helvetica,sans-Serif" font-size="10.00">1</text>
</a>
</g>
</g>
</g>
</svg>
