<?xml version="1.0" encoding="UTF-8" standalone="no"?>
<!DOCTYPE svg PUBLIC "-//W3C//DTD SVG 1.1//EN"
 "http://www.w3.org/Graphics/SVG/1.1/DTD/svg11.dtd">
<!-- Generated by graphviz version 2.43.0 (0)
 -->
<!-- Title: sources/System/Collision Pages: 1 -->
<svg width="156pt" height="295pt"
 viewBox="0.00 0.00 155.50 295.00" xmlns="http://www.w3.org/2000/svg" xmlns:xlink="http://www.w3.org/1999/xlink">
<g id="graph0" class="graph" transform="scale(1 1) rotate(0) translate(4 291)">
<title>sources/System/Collision</title>
<polygon fill="white" stroke="transparent" points="-4,4 -4,-291 151.5,-291 151.5,4 -4,4"/>
<g id="clust1" class="cluster">
<title>clusterdir_dbff9d19e82c23288cf26fa638b485e8</title>
<g id="a_clust1"><a xlink:href="dir_dbff9d19e82c23288cf26fa638b485e8.html" target="_top" xlink:title="System">
<polygon fill="#ddddee" stroke="black" points="8,-208 8,-279 84,-279 84,-208 8,-208"/>
<text text-anchor="middle" x="46" y="-267" font-family="Helvetica,sans-Serif" font-size="10.00">System</text>
</a>
</g>
</g>
<!-- dir_ad2763e03afb839dc7cdbc8640971e8c -->
<g id="node1" class="node">
<title>dir_ad2763e03afb839dc7cdbc8640971e8c</title>
<g id="a_node1"><a xlink:href="dir_ad2763e03afb839dc7cdbc8640971e8c.html" target="_top" xlink:title="Collision">
<polygon fill="#eeeeff" stroke="black" points="75.5,-252 16.5,-252 16.5,-216 75.5,-216 75.5,-252"/>
<text text-anchor="middle" x="46" y="-231.5" font-family="Helvetica,sans-Serif" font-size="10.00">Collision</text>
</a>
</g>
</g>
<!-- dir_5cb6e1a8c8be2c39561c895666c60a3e -->
<g id="node2" class="node">
<title>dir_5cb6e1a8c8be2c39561c895666c60a3e</title>
<g id="a_node2"><a xlink:href="dir_5cb6e1a8c8be2c39561c895666c60a3e.html" target="_top" xlink:title="Models">
<polygon fill="none" stroke="black" points="87,-108 33,-108 33,-72 87,-72 87,-108"/>
<text text-anchor="middle" x="60" y="-87.5" font-family="Helvetica,sans-Serif" font-size="10.00">Models</text>
</a>
</g>
</g>
<!-- dir_ad2763e03afb839dc7cdbc8640971e8c&#45;&gt;dir_5cb6e1a8c8be2c39561c895666c60a3e -->
<g id="edge2" class="edge">
<title>dir_ad2763e03afb839dc7cdbc8640971e8c&#45;&gt;dir_5cb6e1a8c8be2c39561c895666c60a3e</title>
<path fill="none" stroke="black" d="M47.69,-215.87C50.07,-191.67 54.46,-147.21 57.3,-118.39"/>
<polygon fill="black" stroke="black" points="60.81,-118.48 58.31,-108.19 53.84,-117.8 60.81,-118.48"/>
<g id="a_edge2&#45;headlabel"><a xlink:href="dir_000072_000019.html" target="_top" xlink:title="1">
<text text-anchor="middle" x="63.28" y="-119.84" font-family="Helvetica,sans-Serif" font-size="10.00">1</text>
</a>
</g>
</g>
<!-- dir_97aefd0d527b934f1d99a682da8fe6a9 -->
<g id="node3" class="node">
<title>dir_97aefd0d527b934f1d99a682da8fe6a9</title>
<g id="a_node3"><a xlink:href="dir_97aefd0d527b934f1d99a682da8fe6a9.html" target="_top" xlink:title="lib">
<polygon fill="white" stroke="red" points="87,-36 33,-36 33,0 87,0 87,-36"/>
<text text-anchor="middle" x="60" y="-15.5" font-family="Helvetica,sans-Serif" font-size="10.00">lib</text>
</a>
</g>
</g>
<!-- dir_ad2763e03afb839dc7cdbc8640971e8c&#45;&gt;dir_97aefd0d527b934f1d99a682da8fe6a9 -->
<g id="edge3" class="edge">
<title>dir_ad2763e03afb839dc7cdbc8640971e8c&#45;&gt;dir_97aefd0d527b934f1d99a682da8fe6a9</title>
<path fill="none" stroke="black" d="M38.87,-215.69C27.58,-185.76 8.41,-122.69 24,-72 27.01,-62.22 32.51,-52.62 38.32,-44.33"/>
<polygon fill="black" stroke="black" points="41.19,-46.33 44.39,-36.23 35.59,-42.13 41.19,-46.33"/>
<g id="a_edge3&#45;headlabel"><a xlink:href="dir_000072_000000.html" target="_top" xlink:title="3">
<text text-anchor="middle" x="41.31" y="-48.41" font-family="Helvetica,sans-Serif" font-size="10.00">3</text>
</a>
</g>
</g>
<!-- dir_1625c0207da71ef5bcc742f7d87fc397 -->
<g id="node4" class="node">
<title>dir_1625c0207da71ef5bcc742f7d87fc397</title>
<g id="a_node4"><a xlink:href="dir_1625c0207da71ef5bcc742f7d87fc397.html" target="_top" xlink:title="Component">
<polygon fill="white" stroke="red" points="147.5,-180 74.5,-180 74.5,-144 147.5,-144 147.5,-180"/>
<text text-anchor="middle" x="111" y="-159.5" font-family="Helvetica,sans-Serif" font-size="10.00">Component</text>
</a>
</g>
</g>
<!-- dir_ad2763e03afb839dc7cdbc8640971e8c&#45;&gt;dir_1625c0207da71ef5bcc742f7d87fc397 -->
<g id="edge4" class="edge">
<title>dir_ad2763e03afb839dc7cdbc8640971e8c&#45;&gt;dir_1625c0207da71ef5bcc742f7d87fc397</title>
<path fill="none" stroke="black" d="M62.07,-215.7C69.94,-207.22 79.56,-196.86 88.17,-187.58"/>
<polygon fill="black" stroke="black" points="90.88,-189.81 95.12,-180.1 85.75,-185.05 90.88,-189.81"/>
<g id="a_edge4&#45;headlabel"><a xlink:href="dir_000072_000028.html" target="_top" xlink:title="6">
<text text-anchor="middle" x="90.51" y="-191.88" font-family="Helvetica,sans-Serif" font-size="10.00">6</text>
</a>
</g>
</g>
<!-- dir_5cb6e1a8c8be2c39561c895666c60a3e&#45;&gt;dir_97aefd0d527b934f1d99a682da8fe6a9 -->
<g id="edge1" class="edge">
<title>dir_5cb6e1a8c8be2c39561c895666c60a3e&#45;&gt;dir_97aefd0d527b934f1d99a682da8fe6a9</title>
<path fill="none" stroke="black" d="M60,-71.7C60,-63.98 60,-54.71 60,-46.11"/>
<polygon fill="black" stroke="black" points="63.5,-46.1 60,-36.1 56.5,-46.1 63.5,-46.1"/>
<g id="a_edge1&#45;headlabel"><a xlink:href="dir_000019_000000.html" target="_top" xlink:title="3">
<text text-anchor="middle" x="66.34" y="-47.2" font-family="Helvetica,sans-Serif" font-size="10.00">3</text>
</a>
</g>
</g>
<!-- dir_1625c0207da71ef5bcc742f7d87fc397&#45;&gt;dir_5cb6e1a8c8be2c39561c895666c60a3e -->
<g id="edge5" class="edge">
<title>dir_1625c0207da71ef5bcc742f7d87fc397&#45;&gt;dir_5cb6e1a8c8be2c39561c895666c60a3e</title>
<path fill="none" stroke="black" d="M98.39,-143.7C92.4,-135.47 85.12,-125.48 78.52,-116.42"/>
<polygon fill="black" stroke="black" points="81.18,-114.13 72.46,-108.1 75.52,-118.25 81.18,-114.13"/>
<g id="a_edge5&#45;headlabel"><a xlink:href="dir_000028_000019.html" target="_top" xlink:title="7">
<text text-anchor="middle" x="85.59" y="-112.86" font-family="Helvetica,sans-Serif" font-size="10.00">7</text>
</a>
</g>
</g>
<!-- dir_1625c0207da71ef5bcc742f7d87fc397&#45;&gt;dir_97aefd0d527b934f1d99a682da8fe6a9 -->
<g id="edge6" class="edge">
<title>dir_1625c0207da71ef5bcc742f7d87fc397&#45;&gt;dir_97aefd0d527b934f1d99a682da8fe6a9</title>
<path fill="none" stroke="black" d="M110.27,-143.68C109,-125.3 105.52,-95.7 96,-72 92.12,-62.35 86.28,-52.67 80.41,-44.28"/>
<polygon fill="black" stroke="black" points="83.12,-42.05 74.38,-36.06 77.47,-46.19 83.12,-42.05"/>
<g id="a_edge6&#45;headlabel"><a xlink:href="dir_000028_000000.html" target="_top" xlink:title="84">
<text text-anchor="middle" x="87.53" y="-40.77" font-family="Helvetica,sans-Serif" font-size="10.00">84</text>
</a>
</g>
</g>
</g>
</svg>
