<?xml version="1.0" encoding="UTF-8" standalone="no"?>
<!DOCTYPE svg PUBLIC "-//W3C//DTD SVG 1.1//EN"
 "http://www.w3.org/Graphics/SVG/1.1/DTD/svg11.dtd">
<!-- Generated by graphviz version 2.43.0 (0)
 -->
<!-- Title: sources/System/Animation Pages: 1 -->
<svg width="127pt" height="223pt"
 viewBox="0.00 0.00 126.50 223.00" xmlns="http://www.w3.org/2000/svg" xmlns:xlink="http://www.w3.org/1999/xlink">
<g id="graph0" class="graph" transform="scale(1 1) rotate(0) translate(4 219)">
<title>sources/System/Animation</title>
<polygon fill="white" stroke="transparent" points="-4,4 -4,-219 122.5,-219 122.5,4 -4,4"/>
<g id="clust1" class="cluster">
<title>clusterdir_dbff9d19e82c23288cf26fa638b485e8</title>
<g id="a_clust1"><a xlink:href="dir_dbff9d19e82c23288cf26fa638b485e8.html" target="_top" xlink:title="System">
<polygon fill="#ddddee" stroke="black" points="8,-136 8,-207 92,-207 92,-136 8,-136"/>
<text text-anchor="middle" x="50" y="-195" font-family="Helvetica,sans-Serif" font-size="10.00">System</text>
</a>
</g>
</g>
<!-- dir_86699960b2f60217724ca066fb0468fb -->
<g id="node1" class="node">
<title>dir_86699960b2f60217724ca066fb0468fb</title>
<g id="a_node1"><a xlink:href="dir_86699960b2f60217724ca066fb0468fb.html" target="_top" xlink:title="Animation">
<polygon fill="#eeeeff" stroke="black" points="83.5,-180 16.5,-180 16.5,-144 83.5,-144 83.5,-180"/>
<text text-anchor="middle" x="50" y="-159.5" font-family="Helvetica,sans-Serif" font-size="10.00">Animation</text>
</a>
</g>
</g>
<!-- dir_97aefd0d527b934f1d99a682da8fe6a9 -->
<g id="node2" class="node">
<title>dir_97aefd0d527b934f1d99a682da8fe6a9</title>
<g id="a_node2"><a xlink:href="dir_97aefd0d527b934f1d99a682da8fe6a9.html" target="_top" xlink:title="lib">
<polygon fill="white" stroke="red" points="76,-36 22,-36 22,0 76,0 76,-36"/>
<text text-anchor="middle" x="49" y="-15.5" font-family="Helvetica,sans-Serif" font-size="10.00">lib</text>
</a>
</g>
</g>
<!-- dir_86699960b2f60217724ca066fb0468fb&#45;&gt;dir_97aefd0d527b934f1d99a682da8fe6a9 -->
<g id="edge1" class="edge">
<title>dir_86699960b2f60217724ca066fb0468fb&#45;&gt;dir_97aefd0d527b934f1d99a682da8fe6a9</title>
<path fill="none" stroke="black" d="M44.59,-143.53C41.7,-133.29 38.45,-120.04 37,-108 35.08,-92.12 35.22,-87.9 37,-72 37.96,-63.43 39.76,-54.22 41.69,-45.93"/>
<polygon fill="black" stroke="black" points="45.13,-46.57 44.13,-36.02 38.34,-44.89 45.13,-46.57"/>
<g id="a_edge1&#45;headlabel"><a xlink:href="dir_000066_000000.html" target="_top" xlink:title="2">
<text text-anchor="middle" x="47.03" y="-48.24" font-family="Helvetica,sans-Serif" font-size="10.00">2</text>
</a>
</g>
</g>
<!-- dir_1625c0207da71ef5bcc742f7d87fc397 -->
<g id="node3" class="node">
<title>dir_1625c0207da71ef5bcc742f7d87fc397</title>
<g id="a_node3"><a xlink:href="dir_1625c0207da71ef5bcc742f7d87fc397.html" target="_top" xlink:title="Component">
<polygon fill="white" stroke="red" points="118.5,-108 45.5,-108 45.5,-72 118.5,-72 118.5,-108"/>
<text text-anchor="middle" x="82" y="-87.5" font-family="Helvetica,sans-Serif" font-size="10.00">Component</text>
</a>
</g>
</g>
<!-- dir_86699960b2f60217724ca066fb0468fb&#45;&gt;dir_1625c0207da71ef5bcc742f7d87fc397 -->
<g id="edge2" class="edge">
<title>dir_86699960b2f60217724ca066fb0468fb&#45;&gt;dir_1625c0207da71ef5bcc742f7d87fc397</title>
<path fill="none" stroke="black" d="M57.91,-143.7C61.55,-135.73 65.95,-126.1 69.99,-117.26"/>
<polygon fill="black" stroke="black" points="73.21,-118.65 74.18,-108.1 66.84,-115.74 73.21,-118.65"/>
<g id="a_edge2&#45;headlabel"><a xlink:href="dir_000066_000028.html" target="_top" xlink:title="6">
<text text-anchor="middle" x="74.29" y="-120.6" font-family="Helvetica,sans-Serif" font-size="10.00">6</text>
</a>
</g>
</g>
<!-- dir_1625c0207da71ef5bcc742f7d87fc397&#45;&gt;dir_97aefd0d527b934f1d99a682da8fe6a9 -->
<g id="edge3" class="edge">
<title>dir_1625c0207da71ef5bcc742f7d87fc397&#45;&gt;dir_97aefd0d527b934f1d99a682da8fe6a9</title>
<path fill="none" stroke="black" d="M73.84,-71.7C70.09,-63.73 65.55,-54.1 61.38,-45.26"/>
<polygon fill="black" stroke="black" points="64.49,-43.66 57.06,-36.1 58.16,-46.64 64.49,-43.66"/>
<g id="a_edge3&#45;headlabel"><a xlink:href="dir_000028_000000.html" target="_top" xlink:title="84">
<text text-anchor="middle" x="68.59" y="-43.2" font-family="Helvetica,sans-Serif" font-size="10.00">84</text>
</a>
</g>
</g>
</g>
</svg>
