<?xml version="1.0" encoding="UTF-8" standalone="no"?>
<!DOCTYPE svg PUBLIC "-//W3C//DTD SVG 1.1//EN"
 "http://www.w3.org/Graphics/SVG/1.1/DTD/svg11.dtd">
<!-- Generated by graphviz version 2.43.0 (0)
 -->
<!-- Title: sources/Runner Pages: 1 -->
<svg width="402pt" height="439pt"
 viewBox="0.00 0.00 402.00 439.00" xmlns="http://www.w3.org/2000/svg" xmlns:xlink="http://www.w3.org/1999/xlink">
<g id="graph0" class="graph" transform="scale(1 1) rotate(0) translate(4 435)">
<title>sources/Runner</title>
<polygon fill="white" stroke="transparent" points="-4,4 -4,-435 398,-435 398,4 -4,4"/>
<g id="clust1" class="cluster">
<title>clusterdir_08d237fc27d4ecd563f71c5d52f2fecc</title>
<g id="a_clust1"><a xlink:href="dir_08d237fc27d4ecd563f71c5d52f2fecc.html" target="_top" xlink:title="sources">
<polygon fill="#ddddee" stroke="black" points="79,-352 79,-423 149,-423 149,-352 79,-352"/>
<text text-anchor="middle" x="114" y="-411" font-family="Helvetica,sans-Serif" font-size="10.00">sources</text>
</a>
</g>
</g>
<!-- dir_53b655bbb6a43e76304525ea68aac804 -->
<g id="node1" class="node">
<title>dir_53b655bbb6a43e76304525ea68aac804</title>
<g id="a_node1"><a xlink:href="dir_53b655bbb6a43e76304525ea68aac804.html" target="_top" xlink:title="Runner">
<polygon fill="#eeeeff" stroke="black" points="141,-396 87,-396 87,-360 141,-360 141,-396"/>
<text text-anchor="middle" x="114" y="-375.5" font-family="Helvetica,sans-Serif" font-size="10.00">Runner</text>
</a>
</g>
</g>
<!-- dir_a61a61d636d8fc46ea4cb7e95abb789e -->
<g id="node2" class="node">
<title>dir_a61a61d636d8fc46ea4cb7e95abb789e</title>
<g id="a_node2"><a xlink:href="dir_a61a61d636d8fc46ea4cb7e95abb789e.html" target="_top" xlink:title="Map">
<polygon fill="none" stroke="black" points="304,-396 250,-396 250,-360 304,-360 304,-396"/>
<text text-anchor="middle" x="277" y="-375.5" font-family="Helvetica,sans-Serif" font-size="10.00">Map</text>
</a>
</g>
</g>
<!-- dir_53b655bbb6a43e76304525ea68aac804&#45;&gt;dir_a61a61d636d8fc46ea4cb7e95abb789e -->
<g id="edge6" class="edge">
<title>dir_53b655bbb6a43e76304525ea68aac804&#45;&gt;dir_a61a61d636d8fc46ea4cb7e95abb789e</title>
<path fill="none" stroke="black" d="M141.06,-378C173.94,-378 206.83,-378 239.71,-378"/>
<polygon fill="black" stroke="black" points="239.92,-381.5 249.92,-378 239.92,-374.5 239.92,-381.5"/>
<g id="a_edge6&#45;headlabel"><a xlink:href="dir_000064_000062.html" target="_top" xlink:title="1">
<text text-anchor="middle" x="236.32" y="-381.84" font-family="Helvetica,sans-Serif" font-size="10.00">1</text>
</a>
</g>
</g>
<!-- dir_5cb6e1a8c8be2c39561c895666c60a3e -->
<g id="node3" class="node">
<title>dir_5cb6e1a8c8be2c39561c895666c60a3e</title>
<g id="a_node3"><a xlink:href="dir_5cb6e1a8c8be2c39561c895666c60a3e.html" target="_top" xlink:title="Models">
<polygon fill="none" stroke="black" points="241,-108 187,-108 187,-72 241,-72 241,-108"/>
<text text-anchor="middle" x="214" y="-87.5" font-family="Helvetica,sans-Serif" font-size="10.00">Models</text>
</a>
</g>
</g>
<!-- dir_53b655bbb6a43e76304525ea68aac804&#45;&gt;dir_5cb6e1a8c8be2c39561c895666c60a3e -->
<g id="edge7" class="edge">
<title>dir_53b655bbb6a43e76304525ea68aac804&#45;&gt;dir_5cb6e1a8c8be2c39561c895666c60a3e</title>
<path fill="none" stroke="black" d="M100.92,-359.89C94.17,-349.98 86.6,-336.94 83,-324 70.12,-277.76 72.31,-263.01 82,-216 89.03,-181.88 89.33,-169.56 113,-144 130.5,-125.1 156.29,-111.72 177.43,-103.14"/>
<polygon fill="black" stroke="black" points="178.71,-106.4 186.77,-99.53 176.18,-99.87 178.71,-106.4"/>
<g id="a_edge7&#45;headlabel"><a xlink:href="dir_000064_000019.html" target="_top" xlink:title="4">
<text text-anchor="middle" x="176.38" y="-107.84" font-family="Helvetica,sans-Serif" font-size="10.00">4</text>
</a>
</g>
</g>
<!-- dir_97aefd0d527b934f1d99a682da8fe6a9 -->
<g id="node4" class="node">
<title>dir_97aefd0d527b934f1d99a682da8fe6a9</title>
<g id="a_node4"><a xlink:href="dir_97aefd0d527b934f1d99a682da8fe6a9.html" target="_top" xlink:title="lib">
<polygon fill="white" stroke="red" points="213,-36 159,-36 159,0 213,0 213,-36"/>
<text text-anchor="middle" x="186" y="-15.5" font-family="Helvetica,sans-Serif" font-size="10.00">lib</text>
</a>
</g>
</g>
<!-- dir_53b655bbb6a43e76304525ea68aac804&#45;&gt;dir_97aefd0d527b934f1d99a682da8fe6a9 -->
<g id="edge8" class="edge">
<title>dir_53b655bbb6a43e76304525ea68aac804&#45;&gt;dir_97aefd0d527b934f1d99a682da8fe6a9</title>
<path fill="none" stroke="black" d="M86.98,-359.96C53.27,-336.37 0,-290.33 0,-235 0,-235 0,-235 0,-161 0,-86.61 95.15,-45.99 149.34,-28.89"/>
<polygon fill="black" stroke="black" points="150.41,-32.23 158.95,-25.97 148.37,-25.53 150.41,-32.23"/>
<g id="a_edge8&#45;headlabel"><a xlink:href="dir_000064_000000.html" target="_top" xlink:title="37">
<text text-anchor="middle" x="147.79" y="-33.49" font-family="Helvetica,sans-Serif" font-size="10.00">37</text>
</a>
</g>
</g>
<!-- dir_1625c0207da71ef5bcc742f7d87fc397 -->
<g id="node5" class="node">
<title>dir_1625c0207da71ef5bcc742f7d87fc397</title>
<g id="a_node5"><a xlink:href="dir_1625c0207da71ef5bcc742f7d87fc397.html" target="_top" xlink:title="Component">
<polygon fill="white" stroke="red" points="195.5,-180 122.5,-180 122.5,-144 195.5,-144 195.5,-180"/>
<text text-anchor="middle" x="159" y="-159.5" font-family="Helvetica,sans-Serif" font-size="10.00">Component</text>
</a>
</g>
</g>
<!-- dir_53b655bbb6a43e76304525ea68aac804&#45;&gt;dir_1625c0207da71ef5bcc742f7d87fc397 -->
<g id="edge9" class="edge">
<title>dir_53b655bbb6a43e76304525ea68aac804&#45;&gt;dir_1625c0207da71ef5bcc742f7d87fc397</title>
<path fill="none" stroke="black" d="M106.13,-359.58C93.51,-328.95 72.36,-264.14 95,-216 100.52,-204.26 110.07,-194.22 120.12,-186.15"/>
<polygon fill="black" stroke="black" points="122.31,-188.88 128.23,-180.09 118.12,-183.27 122.31,-188.88"/>
<g id="a_edge9&#45;headlabel"><a xlink:href="dir_000064_000028.html" target="_top" xlink:title="99">
<text text-anchor="middle" x="121.13" y="-190.81" font-family="Helvetica,sans-Serif" font-size="10.00">99</text>
</a>
</g>
</g>
<!-- dir_3b87b6cb5e38832a25467a936126fed0 -->
<g id="node6" class="node">
<title>dir_3b87b6cb5e38832a25467a936126fed0</title>
<g id="a_node6"><a xlink:href="dir_3b87b6cb5e38832a25467a936126fed0.html" target="_top" xlink:title="Parser">
<polygon fill="none" stroke="black" points="158,-252 104,-252 104,-216 158,-216 158,-252"/>
<text text-anchor="middle" x="131" y="-231.5" font-family="Helvetica,sans-Serif" font-size="10.00">Parser</text>
</a>
</g>
</g>
<!-- dir_53b655bbb6a43e76304525ea68aac804&#45;&gt;dir_3b87b6cb5e38832a25467a936126fed0 -->
<g id="edge10" class="edge">
<title>dir_53b655bbb6a43e76304525ea68aac804&#45;&gt;dir_3b87b6cb5e38832a25467a936126fed0</title>
<path fill="none" stroke="black" d="M119.67,-359.54C122.73,-349.3 126.23,-336.05 128,-324 131.02,-303.48 131.7,-280.03 131.66,-262.35"/>
<polygon fill="black" stroke="black" points="135.16,-262.13 131.56,-252.16 128.16,-262.2 135.16,-262.13"/>
<g id="a_edge10&#45;headlabel"><a xlink:href="dir_000064_000063.html" target="_top" xlink:title="3">
<text text-anchor="middle" x="138.03" y="-263.19" font-family="Helvetica,sans-Serif" font-size="10.00">3</text>
</a>
</g>
</g>
<!-- dir_dbff9d19e82c23288cf26fa638b485e8 -->
<g id="node7" class="node">
<title>dir_dbff9d19e82c23288cf26fa638b485e8</title>
<g id="a_node7"><a xlink:href="dir_dbff9d19e82c23288cf26fa638b485e8.html" target="_top" xlink:title="System">
<polygon fill="white" stroke="red" points="272,-324 218,-324 218,-288 272,-288 272,-324"/>
<text text-anchor="middle" x="245" y="-303.5" font-family="Helvetica,sans-Serif" font-size="10.00">System</text>
</a>
</g>
</g>
<!-- dir_53b655bbb6a43e76304525ea68aac804&#45;&gt;dir_dbff9d19e82c23288cf26fa638b485e8 -->
<g id="edge11" class="edge">
<title>dir_53b655bbb6a43e76304525ea68aac804&#45;&gt;dir_dbff9d19e82c23288cf26fa638b485e8</title>
<path fill="none" stroke="black" d="M141.14,-362.5C160.82,-351.98 187.62,-337.66 209.06,-326.2"/>
<polygon fill="black" stroke="black" points="210.72,-329.29 217.89,-321.49 207.42,-323.11 210.72,-329.29"/>
<g id="a_edge11&#45;headlabel"><a xlink:href="dir_000064_000065.html" target="_top" xlink:title="42">
<text text-anchor="middle" x="208.89" y="-330.98" font-family="Helvetica,sans-Serif" font-size="10.00">42</text>
</a>
</g>
</g>
<!-- dir_a61a61d636d8fc46ea4cb7e95abb789e&#45;&gt;dir_5cb6e1a8c8be2c39561c895666c60a3e -->
<g id="edge1" class="edge">
<title>dir_a61a61d636d8fc46ea4cb7e95abb789e&#45;&gt;dir_5cb6e1a8c8be2c39561c895666c60a3e</title>
<path fill="none" stroke="black" d="M289.31,-359.78C295.65,-349.84 302.73,-336.8 306,-324 309.96,-308.5 309.46,-303.62 306,-288 291.53,-222.6 252.91,-153.2 230.58,-116.78"/>
<polygon fill="black" stroke="black" points="233.53,-114.9 225.28,-108.25 227.58,-118.59 233.53,-114.9"/>
<g id="a_edge1&#45;headlabel"><a xlink:href="dir_000062_000019.html" target="_top" xlink:title="1">
<text text-anchor="middle" x="237.84" y="-113.95" font-family="Helvetica,sans-Serif" font-size="10.00">1</text>
</a>
</g>
</g>
<!-- dir_a61a61d636d8fc46ea4cb7e95abb789e&#45;&gt;dir_97aefd0d527b934f1d99a682da8fe6a9 -->
<g id="edge2" class="edge">
<title>dir_a61a61d636d8fc46ea4cb7e95abb789e&#45;&gt;dir_97aefd0d527b934f1d99a682da8fe6a9</title>
<path fill="none" stroke="black" d="M304.14,-360.54C338.7,-337.25 394,-291.22 394,-235 394,-235 394,-235 394,-161 394,-79.16 282.81,-41.09 223.02,-26.53"/>
<polygon fill="black" stroke="black" points="223.73,-23.1 213.19,-24.23 222.13,-29.91 223.73,-23.1"/>
<g id="a_edge2&#45;headlabel"><a xlink:href="dir_000062_000000.html" target="_top" xlink:title="4">
<text text-anchor="middle" x="227.87" y="-18.65" font-family="Helvetica,sans-Serif" font-size="10.00">4</text>
</a>
</g>
</g>
<!-- dir_a61a61d636d8fc46ea4cb7e95abb789e&#45;&gt;dir_1625c0207da71ef5bcc742f7d87fc397 -->
<g id="edge3" class="edge">
<title>dir_a61a61d636d8fc46ea4cb7e95abb789e&#45;&gt;dir_1625c0207da71ef5bcc742f7d87fc397</title>
<path fill="none" stroke="black" d="M275.14,-359.92C277.03,-341.49 281.28,-311.61 272,-288 255.1,-245.03 215.15,-208.96 187.44,-186.78"/>
<polygon fill="black" stroke="black" points="189.29,-183.79 179.27,-180.35 184.96,-189.29 189.29,-183.79"/>
<g id="a_edge3&#45;headlabel"><a xlink:href="dir_000062_000028.html" target="_top" xlink:title="11">
<text text-anchor="middle" x="193.87" y="-181.28" font-family="Helvetica,sans-Serif" font-size="10.00">11</text>
</a>
</g>
</g>
<!-- dir_a61a61d636d8fc46ea4cb7e95abb789e&#45;&gt;dir_dbff9d19e82c23288cf26fa638b485e8 -->
<g id="edge4" class="edge">
<title>dir_a61a61d636d8fc46ea4cb7e95abb789e&#45;&gt;dir_dbff9d19e82c23288cf26fa638b485e8</title>
<path fill="none" stroke="black" d="M263.17,-359.7C258.76,-351.81 254.19,-342.3 250.56,-333.55"/>
<polygon fill="black" stroke="black" points="253.79,-332.18 246.92,-324.1 247.26,-334.69 253.79,-332.18"/>
<g id="a_edge4&#45;headlabel"><a xlink:href="dir_000062_000065.html" target="_top" xlink:title="1">
<text text-anchor="middle" x="257.73" y="-332.01" font-family="Helvetica,sans-Serif" font-size="10.00">1</text>
</a>
</g>
</g>
<!-- dir_5cb6e1a8c8be2c39561c895666c60a3e&#45;&gt;dir_97aefd0d527b934f1d99a682da8fe6a9 -->
<g id="edge5" class="edge">
<title>dir_5cb6e1a8c8be2c39561c895666c60a3e&#45;&gt;dir_97aefd0d527b934f1d99a682da8fe6a9</title>
<path fill="none" stroke="black" d="M207.08,-71.7C203.93,-63.81 200.12,-54.3 196.62,-45.55"/>
<polygon fill="black" stroke="black" points="199.81,-44.09 192.84,-36.1 193.31,-46.69 199.81,-44.09"/>
<g id="a_edge5&#45;headlabel"><a xlink:href="dir_000019_000000.html" target="_top" xlink:title="3">
<text text-anchor="middle" x="203.78" y="-43.87" font-family="Helvetica,sans-Serif" font-size="10.00">3</text>
</a>
</g>
</g>
<!-- dir_1625c0207da71ef5bcc742f7d87fc397&#45;&gt;dir_a61a61d636d8fc46ea4cb7e95abb789e -->
<g id="edge12" class="edge">
<title>dir_1625c0207da71ef5bcc742f7d87fc397&#45;&gt;dir_a61a61d636d8fc46ea4cb7e95abb789e</title>
<path fill="none" stroke="black" d="M191.89,-180.16C224.36,-201.34 271.3,-240.45 290,-288 297.8,-307.83 296.05,-332.08 291.36,-350.26"/>
<polygon fill="black" stroke="black" points="287.98,-349.34 288.41,-359.92 294.68,-351.38 287.98,-349.34"/>
<g id="a_edge12&#45;headlabel"><a xlink:href="dir_000028_000062.html" target="_top" xlink:title="1">
<text text-anchor="middle" x="286.32" y="-342.57" font-family="Helvetica,sans-Serif" font-size="10.00">1</text>
</a>
</g>
</g>
<!-- dir_1625c0207da71ef5bcc742f7d87fc397&#45;&gt;dir_5cb6e1a8c8be2c39561c895666c60a3e -->
<g id="edge13" class="edge">
<title>dir_1625c0207da71ef5bcc742f7d87fc397&#45;&gt;dir_5cb6e1a8c8be2c39561c895666c60a3e</title>
<path fill="none" stroke="black" d="M172.6,-143.7C179.12,-135.39 187.07,-125.28 194.25,-116.14"/>
<polygon fill="black" stroke="black" points="197.13,-118.13 200.56,-108.1 191.63,-113.81 197.13,-118.13"/>
<g id="a_edge13&#45;headlabel"><a xlink:href="dir_000028_000019.html" target="_top" xlink:title="7">
<text text-anchor="middle" x="197.15" y="-120.21" font-family="Helvetica,sans-Serif" font-size="10.00">7</text>
</a>
</g>
</g>
<!-- dir_1625c0207da71ef5bcc742f7d87fc397&#45;&gt;dir_97aefd0d527b934f1d99a682da8fe6a9 -->
<g id="edge14" class="edge">
<title>dir_1625c0207da71ef5bcc742f7d87fc397&#45;&gt;dir_97aefd0d527b934f1d99a682da8fe6a9</title>
<path fill="none" stroke="black" d="M162.26,-143.87C166.86,-119.67 175.31,-75.21 180.79,-46.39"/>
<polygon fill="black" stroke="black" points="184.3,-46.67 182.73,-36.19 177.43,-45.36 184.3,-46.67"/>
<g id="a_edge14&#45;headlabel"><a xlink:href="dir_000028_000000.html" target="_top" xlink:title="84">
<text text-anchor="middle" x="186.42" y="-48.23" font-family="Helvetica,sans-Serif" font-size="10.00">84</text>
</a>
</g>
</g>
<!-- dir_3b87b6cb5e38832a25467a936126fed0&#45;&gt;dir_53b655bbb6a43e76304525ea68aac804 -->
<g id="edge16" class="edge">
<title>dir_3b87b6cb5e38832a25467a936126fed0&#45;&gt;dir_53b655bbb6a43e76304525ea68aac804</title>
<path fill="none" stroke="black" d="M128.94,-252.19C126.04,-276.42 120.72,-320.89 117.27,-349.68"/>
<polygon fill="black" stroke="black" points="113.76,-349.53 116.05,-359.87 120.71,-350.36 113.76,-349.53"/>
<g id="a_edge16&#45;headlabel"><a xlink:href="dir_000063_000064.html" target="_top" xlink:title="1">
<text text-anchor="middle" x="111.37" y="-343.12" font-family="Helvetica,sans-Serif" font-size="10.00">1</text>
</a>
</g>
</g>
<!-- dir_3b87b6cb5e38832a25467a936126fed0&#45;&gt;dir_a61a61d636d8fc46ea4cb7e95abb789e -->
<g id="edge15" class="edge">
<title>dir_3b87b6cb5e38832a25467a936126fed0&#45;&gt;dir_a61a61d636d8fc46ea4cb7e95abb789e</title>
<path fill="none" stroke="black" d="M144.49,-252.26C159.38,-270.85 184.5,-300.87 209,-324 220.04,-334.42 233,-344.9 244.63,-353.76"/>
<polygon fill="black" stroke="black" points="242.71,-356.69 252.81,-359.89 246.91,-351.09 242.71,-356.69"/>
<g id="a_edge15&#45;headlabel"><a xlink:href="dir_000063_000062.html" target="_top" xlink:title="2">
<text text-anchor="middle" x="238.13" y="-354.31" font-family="Helvetica,sans-Serif" font-size="10.00">2</text>
</a>
</g>
</g>
<!-- dir_3b87b6cb5e38832a25467a936126fed0&#45;&gt;dir_97aefd0d527b934f1d99a682da8fe6a9 -->
<g id="edge17" class="edge">
<title>dir_3b87b6cb5e38832a25467a936126fed0&#45;&gt;dir_97aefd0d527b934f1d99a682da8fe6a9</title>
<path fill="none" stroke="black" d="M122.8,-215.78C115.31,-197.74 106.33,-168.65 113,-144 123.17,-106.41 147.78,-68.52 165.62,-44.47"/>
<polygon fill="black" stroke="black" points="168.59,-46.35 171.84,-36.27 163.01,-42.12 168.59,-46.35"/>
<g id="a_edge17&#45;headlabel"><a xlink:href="dir_000063_000000.html" target="_top" xlink:title="1">
<text text-anchor="middle" x="168.68" y="-48.43" font-family="Helvetica,sans-Serif" font-size="10.00">1</text>
</a>
</g>
</g>
<!-- dir_3b87b6cb5e38832a25467a936126fed0&#45;&gt;dir_1625c0207da71ef5bcc742f7d87fc397 -->
<g id="edge18" class="edge">
<title>dir_3b87b6cb5e38832a25467a936126fed0&#45;&gt;dir_1625c0207da71ef5bcc742f7d87fc397</title>
<path fill="none" stroke="black" d="M137.92,-215.7C141.07,-207.81 144.88,-198.3 148.38,-189.55"/>
<polygon fill="black" stroke="black" points="151.69,-190.69 152.16,-180.1 145.19,-188.09 151.69,-190.69"/>
<g id="a_edge18&#45;headlabel"><a xlink:href="dir_000063_000028.html" target="_top" xlink:title="17">
<text text-anchor="middle" x="153" y="-192.58" font-family="Helvetica,sans-Serif" font-size="10.00">17</text>
</a>
</g>
</g>
<!-- dir_3b87b6cb5e38832a25467a936126fed0&#45;&gt;dir_dbff9d19e82c23288cf26fa638b485e8 -->
<g id="edge19" class="edge">
<title>dir_3b87b6cb5e38832a25467a936126fed0&#45;&gt;dir_dbff9d19e82c23288cf26fa638b485e8</title>
<path fill="none" stroke="black" d="M158.34,-248.44C175.24,-258 196.84,-271.07 214.3,-282.24"/>
<polygon fill="black" stroke="black" points="212.71,-285.38 223.01,-287.88 216.52,-279.5 212.71,-285.38"/>
<g id="a_edge19&#45;headlabel"><a xlink:href="dir_000063_000065.html" target="_top" xlink:title="1">
<text text-anchor="middle" x="208.15" y="-283.31" font-family="Helvetica,sans-Serif" font-size="10.00">1</text>
</a>
</g>
</g>
<!-- dir_dbff9d19e82c23288cf26fa638b485e8&#45;&gt;dir_a61a61d636d8fc46ea4cb7e95abb789e -->
<g id="edge20" class="edge">
<title>dir_dbff9d19e82c23288cf26fa638b485e8&#45;&gt;dir_a61a61d636d8fc46ea4cb7e95abb789e</title>
<path fill="none" stroke="black" d="M258.71,-324.1C263.13,-331.96 267.7,-341.46 271.34,-350.23"/>
<polygon fill="black" stroke="black" points="268.13,-351.63 275.01,-359.7 274.66,-349.11 268.13,-351.63"/>
<g id="a_edge20&#45;headlabel"><a xlink:href="dir_000065_000062.html" target="_top" xlink:title="4">
<text text-anchor="middle" x="264.19" y="-346.8" font-family="Helvetica,sans-Serif" font-size="10.00">4</text>
</a>
</g>
</g>
<!-- dir_dbff9d19e82c23288cf26fa638b485e8&#45;&gt;dir_5cb6e1a8c8be2c39561c895666c60a3e -->
<g id="edge21" class="edge">
<title>dir_dbff9d19e82c23288cf26fa638b485e8&#45;&gt;dir_5cb6e1a8c8be2c39561c895666c60a3e</title>
<path fill="none" stroke="black" d="M242.52,-287.85C237.15,-250.83 224.46,-163.18 217.97,-118.39"/>
<polygon fill="black" stroke="black" points="221.39,-117.63 216.5,-108.23 214.47,-118.63 221.39,-117.63"/>
<g id="a_edge21&#45;headlabel"><a xlink:href="dir_000065_000019.html" target="_top" xlink:title="8">
<text text-anchor="middle" x="224.72" y="-118.28" font-family="Helvetica,sans-Serif" font-size="10.00">8</text>
</a>
</g>
</g>
<!-- dir_dbff9d19e82c23288cf26fa638b485e8&#45;&gt;dir_97aefd0d527b934f1d99a682da8fe6a9 -->
<g id="edge22" class="edge">
<title>dir_dbff9d19e82c23288cf26fa638b485e8&#45;&gt;dir_97aefd0d527b934f1d99a682da8fe6a9</title>
<path fill="none" stroke="black" d="M250.3,-287.85C261.67,-247.77 284.69,-145.78 250,-72 243.82,-58.87 232.62,-47.87 221.3,-39.36"/>
<polygon fill="black" stroke="black" points="223.29,-36.49 213.1,-33.61 219.27,-42.22 223.29,-36.49"/>
<g id="a_edge22&#45;headlabel"><a xlink:href="dir_000065_000000.html" target="_top" xlink:title="87">
<text text-anchor="middle" x="227.87" y="-33.73" font-family="Helvetica,sans-Serif" font-size="10.00">87</text>
</a>
</g>
</g>
<!-- dir_dbff9d19e82c23288cf26fa638b485e8&#45;&gt;dir_1625c0207da71ef5bcc742f7d87fc397 -->
<g id="edge23" class="edge">
<title>dir_dbff9d19e82c23288cf26fa638b485e8&#45;&gt;dir_1625c0207da71ef5bcc742f7d87fc397</title>
<path fill="none" stroke="black" d="M233.37,-287.99C226.43,-277.68 217.52,-264.21 210,-252 197.24,-231.27 183.56,-207.31 173.59,-189.47"/>
<polygon fill="black" stroke="black" points="176.38,-187.29 168.46,-180.25 170.26,-190.69 176.38,-187.29"/>
<g id="a_edge23&#45;headlabel"><a xlink:href="dir_000065_000028.html" target="_top" xlink:title="163">
<text text-anchor="middle" x="180.61" y="-186.55" font-family="Helvetica,sans-Serif" font-size="10.00">163</text>
</a>
</g>
</g>
<!-- dir_dbff9d19e82c23288cf26fa638b485e8&#45;&gt;dir_3b87b6cb5e38832a25467a936126fed0 -->
<g id="edge24" class="edge">
<title>dir_dbff9d19e82c23288cf26fa638b485e8&#45;&gt;dir_3b87b6cb5e38832a25467a936126fed0</title>
<path fill="none" stroke="black" d="M217.85,-291.67C200.88,-282.08 179.11,-268.9 161.56,-257.67"/>
<polygon fill="black" stroke="black" points="163.1,-254.5 152.81,-252 159.3,-260.38 163.1,-254.5"/>
<g id="a_edge24&#45;headlabel"><a xlink:href="dir_000065_000063.html" target="_top" xlink:title="1">
<text text-anchor="middle" x="167.66" y="-251.57" font-family="Helvetica,sans-Serif" font-size="10.00">1</text>
</a>
</g>
</g>
</g>
</svg>
