<?xml version="1.0" encoding="UTF-8" standalone="no"?>
<!DOCTYPE svg PUBLIC "-//W3C//DTD SVG 1.1//EN"
 "http://www.w3.org/Graphics/SVG/1.1/DTD/svg11.dtd">
<!-- Generated by graphviz version 2.43.0 (0)
 -->
<!-- Title: lib/Ray/sources Pages: 1 -->
<svg width="544pt" height="327pt"
 viewBox="0.00 0.00 544.00 327.00" xmlns="http://www.w3.org/2000/svg" xmlns:xlink="http://www.w3.org/1999/xlink">
<g id="graph0" class="graph" transform="scale(1 1) rotate(0) translate(4 323)">
<title>lib/Ray/sources</title>
<polygon fill="white" stroke="transparent" points="-4,4 -4,-323 540,-323 540,4 -4,4"/>
<g id="clust1" class="cluster">
<title>clusterdir_97e082ce3407cc227854e8f48930bd75</title>
<g id="a_clust1"><a xlink:href="dir_97e082ce3407cc227854e8f48930bd75.html" target="_top" xlink:title="Ray">
<polygon fill="#ddddee" stroke="black" points="8,-8 8,-311 528,-311 528,-8 8,-8"/>
<text text-anchor="middle" x="268" y="-299" font-family="Helvetica,sans-Serif" font-size="10.00">Ray</text>
</a>
</g>
</g>
<g id="clust2" class="cluster">
<title>clusterdir_6a062873ed3e64cc8025242d19396498</title>
<g id="a_clust2"><a xlink:href="dir_6a062873ed3e64cc8025242d19396498.html" target="_top">
<polygon fill="#eeeeff" stroke="black" points="16,-16 16,-284 520,-284 520,-16 16,-16"/>
</a>
</g>
</g>
<!-- dir_6a062873ed3e64cc8025242d19396498 -->
<g id="node1" class="node">
<title>dir_6a062873ed3e64cc8025242d19396498</title>
<text text-anchor="middle" x="436" y="-255.5" font-family="Helvetica,sans-Serif" font-size="10.00">sources</text>
</g>
<!-- dir_f6501572f7d761b2f0688e6cb6553813 -->
<g id="node3" class="node">
<title>dir_f6501572f7d761b2f0688e6cb6553813</title>
<g id="a_node3"><a xlink:href="dir_f6501572f7d761b2f0688e6cb6553813.html" target="_top" xlink:title="Camera">
<polygon fill="white" stroke="black" points="423.5,-204 368.5,-204 368.5,-168 423.5,-168 423.5,-204"/>
<text text-anchor="middle" x="396" y="-183.5" font-family="Helvetica,sans-Serif" font-size="10.00">Camera</text>
</a>
</g>
</g>
<!-- dir_6a062873ed3e64cc8025242d19396498&#45;&gt;dir_f6501572f7d761b2f0688e6cb6553813 -->
<g id="edge15" class="edge">
<title>dir_6a062873ed3e64cc8025242d19396498&#45;&gt;dir_f6501572f7d761b2f0688e6cb6553813</title>
<path fill="none" stroke="black" d="M426.11,-239.7C421.51,-231.64 415.94,-221.89 410.85,-212.98"/>
<polygon fill="black" stroke="black" points="413.77,-211.05 405.77,-204.1 407.7,-214.52 413.77,-211.05"/>
<g id="a_edge15&#45;headlabel"><a xlink:href="dir_000005_000007.html" target="_top" xlink:title="2">
<text text-anchor="middle" x="418.02" y="-210.26" font-family="Helvetica,sans-Serif" font-size="10.00">2</text>
</a>
</g>
</g>
<!-- dir_59a350bb1543496d810d785233c57fb9 -->
<g id="node4" class="node">
<title>dir_59a350bb1543496d810d785233c57fb9</title>
<g id="a_node4"><a xlink:href="dir_59a350bb1543496d810d785233c57fb9.html" target="_top" xlink:title="Controllers">
<polygon fill="white" stroke="black" points="512,-204 442,-204 442,-168 512,-168 512,-204"/>
<text text-anchor="middle" x="477" y="-183.5" font-family="Helvetica,sans-Serif" font-size="10.00">Controllers</text>
</a>
</g>
</g>
<!-- dir_6a062873ed3e64cc8025242d19396498&#45;&gt;dir_59a350bb1543496d810d785233c57fb9 -->
<g id="edge16" class="edge">
<title>dir_6a062873ed3e64cc8025242d19396498&#45;&gt;dir_59a350bb1543496d810d785233c57fb9</title>
<path fill="none" stroke="black" d="M446.13,-239.7C450.85,-231.64 456.56,-221.89 461.78,-212.98"/>
<polygon fill="black" stroke="black" points="464.95,-214.5 466.98,-204.1 458.91,-210.96 464.95,-214.5"/>
<g id="a_edge16&#45;headlabel"><a xlink:href="dir_000005_000008.html" target="_top" xlink:title="2">
<text text-anchor="middle" x="465.58" y="-216.54" font-family="Helvetica,sans-Serif" font-size="10.00">2</text>
</a>
</g>
</g>
<!-- dir_0919e1857922d4bbd9d3c7584667ce32 -->
<g id="node2" class="node">
<title>dir_0919e1857922d4bbd9d3c7584667ce32</title>
<g id="a_node2"><a xlink:href="dir_0919e1857922d4bbd9d3c7584667ce32.html" target="_top" xlink:title="Audio">
<polygon fill="white" stroke="black" points="78,-204 24,-204 24,-168 78,-168 78,-204"/>
<text text-anchor="middle" x="51" y="-183.5" font-family="Helvetica,sans-Serif" font-size="10.00">Audio</text>
</a>
</g>
</g>
<!-- dir_74442ff3d05547458d2ed78b98180a98 -->
<g id="node10" class="node">
<title>dir_74442ff3d05547458d2ed78b98180a98</title>
<g id="a_node10"><a xlink:href="dir_74442ff3d05547458d2ed78b98180a98.html" target="_top" xlink:title="Utils">
<polygon fill="white" stroke="black" points="242,-132 188,-132 188,-96 242,-96 242,-132"/>
<text text-anchor="middle" x="215" y="-111.5" font-family="Helvetica,sans-Serif" font-size="10.00">Utils</text>
</a>
</g>
</g>
<!-- dir_0919e1857922d4bbd9d3c7584667ce32&#45;&gt;dir_74442ff3d05547458d2ed78b98180a98 -->
<g id="edge14" class="edge">
<title>dir_0919e1857922d4bbd9d3c7584667ce32&#45;&gt;dir_74442ff3d05547458d2ed78b98180a98</title>
<path fill="none" stroke="black" d="M78.06,-172.05C81.07,-170.66 84.09,-169.29 87,-168 117.62,-154.44 152.79,-139.96 178.5,-129.56"/>
<polygon fill="black" stroke="black" points="179.9,-132.77 187.87,-125.79 177.29,-126.28 179.9,-132.77"/>
<g id="a_edge14&#45;headlabel"><a xlink:href="dir_000006_000016.html" target="_top" xlink:title="2">
<text text-anchor="middle" x="177.63" y="-134.25" font-family="Helvetica,sans-Serif" font-size="10.00">2</text>
</a>
</g>
</g>
<!-- dir_f5c1662545658e75a7dc6b962ca8f4b3 -->
<g id="node11" class="node">
<title>dir_f5c1662545658e75a7dc6b962ca8f4b3</title>
<g id="a_node11"><a xlink:href="dir_f5c1662545658e75a7dc6b962ca8f4b3.html" target="_top" xlink:title="Vector">
<polygon fill="white" stroke="black" points="397,-132 343,-132 343,-96 397,-96 397,-132"/>
<text text-anchor="middle" x="370" y="-111.5" font-family="Helvetica,sans-Serif" font-size="10.00">Vector</text>
</a>
</g>
</g>
<!-- dir_f6501572f7d761b2f0688e6cb6553813&#45;&gt;dir_f5c1662545658e75a7dc6b962ca8f4b3 -->
<g id="edge4" class="edge">
<title>dir_f6501572f7d761b2f0688e6cb6553813&#45;&gt;dir_f5c1662545658e75a7dc6b962ca8f4b3</title>
<path fill="none" stroke="black" d="M389.57,-167.7C386.64,-159.81 383.11,-150.3 379.86,-141.55"/>
<polygon fill="black" stroke="black" points="383.12,-140.26 376.35,-132.1 376.55,-142.7 383.12,-140.26"/>
<g id="a_edge4&#45;headlabel"><a xlink:href="dir_000007_000017.html" target="_top" xlink:title="2">
<text text-anchor="middle" x="387.03" y="-140.14" font-family="Helvetica,sans-Serif" font-size="10.00">2</text>
</a>
</g>
</g>
<!-- dir_59a350bb1543496d810d785233c57fb9&#45;&gt;dir_f5c1662545658e75a7dc6b962ca8f4b3 -->
<g id="edge5" class="edge">
<title>dir_59a350bb1543496d810d785233c57fb9&#45;&gt;dir_f5c1662545658e75a7dc6b962ca8f4b3</title>
<path fill="none" stroke="black" d="M450.82,-167.88C436.96,-158.81 419.76,-147.55 404.79,-137.76"/>
<polygon fill="black" stroke="black" points="406.56,-134.74 396.28,-132.19 402.73,-140.59 406.56,-134.74"/>
<g id="a_edge5&#45;headlabel"><a xlink:href="dir_000008_000017.html" target="_top" xlink:title="1">
<text text-anchor="middle" x="411.12" y="-131.83" font-family="Helvetica,sans-Serif" font-size="10.00">1</text>
</a>
</g>
</g>
<!-- dir_fbaef1213b89c2c136e136e5f4a6fca1 -->
<g id="node5" class="node">
<title>dir_fbaef1213b89c2c136e136e5f4a6fca1</title>
<g id="a_node5"><a xlink:href="dir_fbaef1213b89c2c136e136e5f4a6fca1.html" target="_top" xlink:title="Drawables">
<polygon fill="white" stroke="red" points="350,-204 282,-204 282,-168 350,-168 350,-204"/>
<text text-anchor="middle" x="316" y="-183.5" font-family="Helvetica,sans-Serif" font-size="10.00">Drawables</text>
</a>
</g>
</g>
<!-- dir_df668b2fd7e51b77c1ffc27a8eba9bf3 -->
<g id="node6" class="node">
<title>dir_df668b2fd7e51b77c1ffc27a8eba9bf3</title>
<g id="a_node6"><a xlink:href="dir_df668b2fd7e51b77c1ffc27a8eba9bf3.html" target="_top" xlink:title="Exceptions">
<polygon fill="white" stroke="black" points="273,-60 203,-60 203,-24 273,-24 273,-60"/>
<text text-anchor="middle" x="238" y="-39.5" font-family="Helvetica,sans-Serif" font-size="10.00">Exceptions</text>
</a>
</g>
</g>
<!-- dir_fbaef1213b89c2c136e136e5f4a6fca1&#45;&gt;dir_df668b2fd7e51b77c1ffc27a8eba9bf3 -->
<g id="edge2" class="edge">
<title>dir_fbaef1213b89c2c136e136e5f4a6fca1&#45;&gt;dir_df668b2fd7e51b77c1ffc27a8eba9bf3</title>
<path fill="none" stroke="black" d="M306.59,-167.87C293.12,-143.35 268.23,-98.03 252.42,-69.26"/>
<polygon fill="black" stroke="black" points="255.32,-67.27 247.44,-60.19 249.19,-70.64 255.32,-67.27"/>
<g id="a_edge2&#45;headlabel"><a xlink:href="dir_000009_000012.html" target="_top" xlink:title="3">
<text text-anchor="middle" x="259.54" y="-66.55" font-family="Helvetica,sans-Serif" font-size="10.00">3</text>
</a>
</g>
</g>
<!-- dir_fbaef1213b89c2c136e136e5f4a6fca1&#45;&gt;dir_74442ff3d05547458d2ed78b98180a98 -->
<g id="edge3" class="edge">
<title>dir_fbaef1213b89c2c136e136e5f4a6fca1&#45;&gt;dir_74442ff3d05547458d2ed78b98180a98</title>
<path fill="none" stroke="black" d="M291.29,-167.88C278.33,-158.89 262.27,-147.76 248.23,-138.03"/>
<polygon fill="black" stroke="black" points="250.02,-135.01 239.8,-132.19 246.03,-140.76 250.02,-135.01"/>
<g id="a_edge3&#45;headlabel"><a xlink:href="dir_000009_000016.html" target="_top" xlink:title="2">
<text text-anchor="middle" x="254.59" y="-132.22" font-family="Helvetica,sans-Serif" font-size="10.00">2</text>
</a>
</g>
</g>
<!-- dir_fbaef1213b89c2c136e136e5f4a6fca1&#45;&gt;dir_f5c1662545658e75a7dc6b962ca8f4b3 -->
<g id="edge1" class="edge">
<title>dir_fbaef1213b89c2c136e136e5f4a6fca1&#45;&gt;dir_f5c1662545658e75a7dc6b962ca8f4b3</title>
<path fill="none" stroke="black" d="M329.35,-167.7C335.76,-159.39 343.56,-149.28 350.61,-140.14"/>
<polygon fill="black" stroke="black" points="353.47,-142.16 356.81,-132.1 347.93,-137.88 353.47,-142.16"/>
<g id="a_edge1&#45;headlabel"><a xlink:href="dir_000009_000017.html" target="_top" xlink:title="1">
<text text-anchor="middle" x="353.52" y="-144.24" font-family="Helvetica,sans-Serif" font-size="10.00">1</text>
</a>
</g>
</g>
<!-- dir_edde1694d7c0a2c3a8d7e4cb4dd36c96 -->
<g id="node7" class="node">
<title>dir_edde1694d7c0a2c3a8d7e4cb4dd36c96</title>
<g id="a_node7"><a xlink:href="dir_edde1694d7c0a2c3a8d7e4cb4dd36c96.html" target="_top" xlink:title="Meshes">
<polygon fill="white" stroke="black" points="150,-204 96,-204 96,-168 150,-168 150,-204"/>
<text text-anchor="middle" x="123" y="-183.5" font-family="Helvetica,sans-Serif" font-size="10.00">Meshes</text>
</a>
</g>
</g>
<!-- dir_79ecb0ce0e948a3a1fecb8bbc85b6cc1 -->
<g id="node8" class="node">
<title>dir_79ecb0ce0e948a3a1fecb8bbc85b6cc1</title>
<g id="a_node8"><a xlink:href="dir_79ecb0ce0e948a3a1fecb8bbc85b6cc1.html" target="_top" xlink:title="Model">
<polygon fill="white" stroke="black" points="216,-276 162,-276 162,-240 216,-240 216,-276"/>
<text text-anchor="middle" x="189" y="-255.5" font-family="Helvetica,sans-Serif" font-size="10.00">Model</text>
</a>
</g>
</g>
<!-- dir_79ecb0ce0e948a3a1fecb8bbc85b6cc1&#45;&gt;dir_fbaef1213b89c2c136e136e5f4a6fca1 -->
<g id="edge6" class="edge">
<title>dir_79ecb0ce0e948a3a1fecb8bbc85b6cc1&#45;&gt;dir_fbaef1213b89c2c136e136e5f4a6fca1</title>
<path fill="none" stroke="black" d="M216.24,-241.98C233.61,-232.41 256.42,-219.84 275.84,-209.14"/>
<polygon fill="black" stroke="black" points="277.71,-212.1 284.78,-204.21 274.33,-205.97 277.71,-212.1"/>
<g id="a_edge6&#45;headlabel"><a xlink:href="dir_000014_000009.html" target="_top" xlink:title="2">
<text text-anchor="middle" x="275.93" y="-213.82" font-family="Helvetica,sans-Serif" font-size="10.00">2</text>
</a>
</g>
</g>
<!-- dir_79ecb0ce0e948a3a1fecb8bbc85b6cc1&#45;&gt;dir_df668b2fd7e51b77c1ffc27a8eba9bf3 -->
<g id="edge8" class="edge">
<title>dir_79ecb0ce0e948a3a1fecb8bbc85b6cc1&#45;&gt;dir_df668b2fd7e51b77c1ffc27a8eba9bf3</title>
<path fill="none" stroke="black" d="M182.87,-239.62C173.17,-209.06 157.44,-144.34 179,-96 184.08,-84.6 192.96,-74.63 202.31,-66.51"/>
<polygon fill="black" stroke="black" points="204.63,-69.14 210.2,-60.13 200.22,-63.69 204.63,-69.14"/>
<g id="a_edge8&#45;headlabel"><a xlink:href="dir_000014_000012.html" target="_top" xlink:title="1">
<text text-anchor="middle" x="203.62" y="-71.11" font-family="Helvetica,sans-Serif" font-size="10.00">1</text>
</a>
</g>
</g>
<!-- dir_79ecb0ce0e948a3a1fecb8bbc85b6cc1&#45;&gt;dir_edde1694d7c0a2c3a8d7e4cb4dd36c96 -->
<g id="edge7" class="edge">
<title>dir_79ecb0ce0e948a3a1fecb8bbc85b6cc1&#45;&gt;dir_edde1694d7c0a2c3a8d7e4cb4dd36c96</title>
<path fill="none" stroke="black" d="M172.69,-239.7C164.69,-231.22 154.93,-220.86 146.18,-211.58"/>
<polygon fill="black" stroke="black" points="148.53,-208.98 139.13,-204.1 143.44,-213.78 148.53,-208.98"/>
<g id="a_edge7&#45;headlabel"><a xlink:href="dir_000014_000013.html" target="_top" xlink:title="1">
<text text-anchor="middle" x="153.07" y="-207.15" font-family="Helvetica,sans-Serif" font-size="10.00">1</text>
</a>
</g>
</g>
<!-- dir_53ac126308d2a06f3d71168b91b771e2 -->
<g id="node9" class="node">
<title>dir_53ac126308d2a06f3d71168b91b771e2</title>
<g id="a_node9"><a xlink:href="dir_53ac126308d2a06f3d71168b91b771e2.html" target="_top" xlink:title="Shaders">
<polygon fill="white" stroke="black" points="264,-204 208,-204 208,-168 264,-168 264,-204"/>
<text text-anchor="middle" x="236" y="-183.5" font-family="Helvetica,sans-Serif" font-size="10.00">Shaders</text>
</a>
</g>
</g>
<!-- dir_79ecb0ce0e948a3a1fecb8bbc85b6cc1&#45;&gt;dir_53ac126308d2a06f3d71168b91b771e2 -->
<g id="edge9" class="edge">
<title>dir_79ecb0ce0e948a3a1fecb8bbc85b6cc1&#45;&gt;dir_53ac126308d2a06f3d71168b91b771e2</title>
<path fill="none" stroke="black" d="M200.62,-239.7C206.14,-231.47 212.85,-221.48 218.93,-212.42"/>
<polygon fill="black" stroke="black" points="221.85,-214.36 224.52,-204.1 216.04,-210.46 221.85,-214.36"/>
<g id="a_edge9&#45;headlabel"><a xlink:href="dir_000014_000015.html" target="_top" xlink:title="1">
<text text-anchor="middle" x="222.2" y="-216.42" font-family="Helvetica,sans-Serif" font-size="10.00">1</text>
</a>
</g>
</g>
<!-- dir_79ecb0ce0e948a3a1fecb8bbc85b6cc1&#45;&gt;dir_74442ff3d05547458d2ed78b98180a98 -->
<g id="edge10" class="edge">
<title>dir_79ecb0ce0e948a3a1fecb8bbc85b6cc1&#45;&gt;dir_74442ff3d05547458d2ed78b98180a98</title>
<path fill="none" stroke="black" d="M190.01,-239.79C191.27,-221.76 193.93,-192.67 199,-168 200.76,-159.43 203.29,-150.26 205.82,-141.99"/>
<polygon fill="black" stroke="black" points="209.16,-143.05 208.86,-132.46 202.49,-140.93 209.16,-143.05"/>
<g id="a_edge10&#45;headlabel"><a xlink:href="dir_000014_000016.html" target="_top" xlink:title="2">
<text text-anchor="middle" x="210.77" y="-144.84" font-family="Helvetica,sans-Serif" font-size="10.00">2</text>
</a>
</g>
</g>
<!-- dir_53ac126308d2a06f3d71168b91b771e2&#45;&gt;dir_df668b2fd7e51b77c1ffc27a8eba9bf3 -->
<g id="edge12" class="edge">
<title>dir_53ac126308d2a06f3d71168b91b771e2&#45;&gt;dir_df668b2fd7e51b77c1ffc27a8eba9bf3</title>
<path fill="none" stroke="black" d="M242.24,-167.59C245.57,-157.37 249.32,-144.12 251,-132 253.2,-116.15 252.92,-111.88 251,-96 249.98,-87.53 248.07,-78.47 246.02,-70.28"/>
<polygon fill="black" stroke="black" points="249.36,-69.23 243.41,-60.47 242.6,-71.03 249.36,-69.23"/>
<g id="a_edge12&#45;headlabel"><a xlink:href="dir_000015_000012.html" target="_top" xlink:title="1">
<text text-anchor="middle" x="253.03" y="-69.48" font-family="Helvetica,sans-Serif" font-size="10.00">1</text>
</a>
</g>
</g>
<!-- dir_53ac126308d2a06f3d71168b91b771e2&#45;&gt;dir_74442ff3d05547458d2ed78b98180a98 -->
<g id="edge13" class="edge">
<title>dir_53ac126308d2a06f3d71168b91b771e2&#45;&gt;dir_74442ff3d05547458d2ed78b98180a98</title>
<path fill="none" stroke="black" d="M230.81,-167.7C228.47,-159.9 225.65,-150.51 223.05,-141.83"/>
<polygon fill="black" stroke="black" points="226.36,-140.68 220.13,-132.1 219.65,-142.69 226.36,-140.68"/>
<g id="a_edge13&#45;headlabel"><a xlink:href="dir_000015_000016.html" target="_top" xlink:title="1">
<text text-anchor="middle" x="230.11" y="-140.8" font-family="Helvetica,sans-Serif" font-size="10.00">1</text>
</a>
</g>
</g>
<!-- dir_53ac126308d2a06f3d71168b91b771e2&#45;&gt;dir_f5c1662545658e75a7dc6b962ca8f4b3 -->
<g id="edge11" class="edge">
<title>dir_53ac126308d2a06f3d71168b91b771e2&#45;&gt;dir_f5c1662545658e75a7dc6b962ca8f4b3</title>
<path fill="none" stroke="black" d="M264.09,-170.33C284.37,-159.73 311.93,-145.34 333.85,-133.88"/>
<polygon fill="black" stroke="black" points="335.62,-136.91 342.86,-129.18 332.38,-130.7 335.62,-136.91"/>
<g id="a_edge11&#45;headlabel"><a xlink:href="dir_000015_000017.html" target="_top" xlink:title="2">
<text text-anchor="middle" x="333.75" y="-138.59" font-family="Helvetica,sans-Serif" font-size="10.00">2</text>
</a>
</g>
</g>
<!-- dir_74442ff3d05547458d2ed78b98180a98&#45;&gt;dir_df668b2fd7e51b77c1ffc27a8eba9bf3 -->
<g id="edge17" class="edge">
<title>dir_74442ff3d05547458d2ed78b98180a98&#45;&gt;dir_df668b2fd7e51b77c1ffc27a8eba9bf3</title>
<path fill="none" stroke="black" d="M220.69,-95.7C223.25,-87.9 226.33,-78.51 229.18,-69.83"/>
<polygon fill="black" stroke="black" points="232.58,-70.7 232.38,-60.1 225.93,-68.51 232.58,-70.7"/>
<g id="a_edge17&#45;headlabel"><a xlink:href="dir_000016_000012.html" target="_top" xlink:title="1">
<text text-anchor="middle" x="234.16" y="-72.5" font-family="Helvetica,sans-Serif" font-size="10.00">1</text>
</a>
</g>
</g>
</g>
</svg>
