<?xml version="1.0" encoding="UTF-8" standalone="no"?>
<!DOCTYPE svg PUBLIC "-//W3C//DTD SVG 1.1//EN"
 "http://www.w3.org/Graphics/SVG/1.1/DTD/svg11.dtd">
<!-- Generated by graphviz version 2.43.0 (0)
 -->
<!-- Title: sources/System/EndCondition Pages: 1 -->
<svg width="198pt" height="295pt"
 viewBox="0.00 0.00 198.44 295.00" xmlns="http://www.w3.org/2000/svg" xmlns:xlink="http://www.w3.org/1999/xlink">
<g id="graph0" class="graph" transform="scale(1 1) rotate(0) translate(4 291)">
<title>sources/System/EndCondition</title>
<polygon fill="white" stroke="transparent" points="-4,4 -4,-291 194.44,-291 194.44,4 -4,4"/>
<g id="clust1" class="cluster">
<title>clusterdir_dbff9d19e82c23288cf26fa638b485e8</title>
<g id="a_clust1"><a xlink:href="dir_dbff9d19e82c23288cf26fa638b485e8.html" target="_top" xlink:title="System">
<polygon fill="#ddddee" stroke="black" points="8,-208 8,-279 106,-279 106,-208 8,-208"/>
<text text-anchor="middle" x="57" y="-267" font-family="Helvetica,sans-Serif" font-size="10.00">System</text>
</a>
</g>
</g>
<!-- dir_888248c9b17e93c3124219e9949a03dc -->
<g id="node1" class="node">
<title>dir_888248c9b17e93c3124219e9949a03dc</title>
<g id="a_node1"><a xlink:href="dir_888248c9b17e93c3124219e9949a03dc.html" target="_top" xlink:title="EndCondition">
<polygon fill="#eeeeff" stroke="black" points="97.5,-252 16.5,-252 16.5,-216 97.5,-216 97.5,-252"/>
<text text-anchor="middle" x="57" y="-231.5" font-family="Helvetica,sans-Serif" font-size="10.00">EndCondition</text>
</a>
</g>
</g>
<!-- dir_53b655bbb6a43e76304525ea68aac804 -->
<g id="node2" class="node">
<title>dir_53b655bbb6a43e76304525ea68aac804</title>
<g id="a_node2"><a xlink:href="dir_53b655bbb6a43e76304525ea68aac804.html" target="_top" xlink:title="Runner">
<polygon fill="none" stroke="black" points="170,-252 116,-252 116,-216 170,-216 170,-252"/>
<text text-anchor="middle" x="143" y="-231.5" font-family="Helvetica,sans-Serif" font-size="10.00">Runner</text>
</a>
</g>
</g>
<!-- dir_888248c9b17e93c3124219e9949a03dc&#45;&gt;dir_53b655bbb6a43e76304525ea68aac804 -->
<g id="edge5" class="edge">
<title>dir_888248c9b17e93c3124219e9949a03dc&#45;&gt;dir_53b655bbb6a43e76304525ea68aac804</title>
<path fill="none" stroke="black" d="M97.65,-234C100.28,-234 102.92,-234 105.55,-234"/>
<polygon fill="black" stroke="black" points="105.72,-237.5 115.72,-234 105.72,-230.5 105.72,-237.5"/>
<g id="a_edge5&#45;headlabel"><a xlink:href="dir_000074_000064.html" target="_top" xlink:title="1">
<text text-anchor="middle" x="102.12" y="-237.84" font-family="Helvetica,sans-Serif" font-size="10.00">1</text>
</a>
</g>
</g>
<!-- dir_97aefd0d527b934f1d99a682da8fe6a9 -->
<g id="node3" class="node">
<title>dir_97aefd0d527b934f1d99a682da8fe6a9</title>
<g id="a_node3"><a xlink:href="dir_97aefd0d527b934f1d99a682da8fe6a9.html" target="_top" xlink:title="lib">
<polygon fill="white" stroke="red" points="129,-36 75,-36 75,0 129,0 129,-36"/>
<text text-anchor="middle" x="102" y="-15.5" font-family="Helvetica,sans-Serif" font-size="10.00">lib</text>
</a>
</g>
</g>
<!-- dir_888248c9b17e93c3124219e9949a03dc&#45;&gt;dir_97aefd0d527b934f1d99a682da8fe6a9 -->
<g id="edge6" class="edge">
<title>dir_888248c9b17e93c3124219e9949a03dc&#45;&gt;dir_97aefd0d527b934f1d99a682da8fe6a9</title>
<path fill="none" stroke="black" d="M55.88,-215.79C55.05,-197.76 54.71,-168.67 59,-144 64.78,-110.77 71.97,-103.88 83,-72 85.95,-63.46 89.25,-54.18 92.26,-45.81"/>
<polygon fill="black" stroke="black" points="95.64,-46.75 95.74,-36.15 89.06,-44.37 95.64,-46.75"/>
<g id="a_edge6&#45;headlabel"><a xlink:href="dir_000074_000000.html" target="_top" xlink:title="2">
<text text-anchor="middle" x="97.09" y="-48.59" font-family="Helvetica,sans-Serif" font-size="10.00">2</text>
</a>
</g>
</g>
<!-- dir_060c2debc8a63700d8ac32f8579043cd -->
<g id="node4" class="node">
<title>dir_060c2debc8a63700d8ac32f8579043cd</title>
<g id="a_node4"><a xlink:href="dir_060c2debc8a63700d8ac32f8579043cd.html" target="_top" xlink:title="Renderer">
<polygon fill="none" stroke="black" points="146.5,-180 85.5,-180 85.5,-144 146.5,-144 146.5,-180"/>
<text text-anchor="middle" x="116" y="-159.5" font-family="Helvetica,sans-Serif" font-size="10.00">Renderer</text>
</a>
</g>
</g>
<!-- dir_888248c9b17e93c3124219e9949a03dc&#45;&gt;dir_060c2debc8a63700d8ac32f8579043cd -->
<g id="edge7" class="edge">
<title>dir_888248c9b17e93c3124219e9949a03dc&#45;&gt;dir_060c2debc8a63700d8ac32f8579043cd</title>
<path fill="none" stroke="black" d="M71.58,-215.7C78.66,-207.3 87.28,-197.07 95.05,-187.86"/>
<polygon fill="black" stroke="black" points="97.81,-190.01 101.58,-180.1 92.46,-185.49 97.81,-190.01"/>
<g id="a_edge7&#45;headlabel"><a xlink:href="dir_000074_000088.html" target="_top" xlink:title="1">
<text text-anchor="middle" x="97.67" y="-192.08" font-family="Helvetica,sans-Serif" font-size="10.00">1</text>
</a>
</g>
</g>
<!-- dir_1625c0207da71ef5bcc742f7d87fc397 -->
<g id="node5" class="node">
<title>dir_1625c0207da71ef5bcc742f7d87fc397</title>
<g id="a_node5"><a xlink:href="dir_1625c0207da71ef5bcc742f7d87fc397.html" target="_top" xlink:title="Component">
<polygon fill="white" stroke="red" points="171.5,-108 98.5,-108 98.5,-72 171.5,-72 171.5,-108"/>
<text text-anchor="middle" x="135" y="-87.5" font-family="Helvetica,sans-Serif" font-size="10.00">Component</text>
</a>
</g>
</g>
<!-- dir_888248c9b17e93c3124219e9949a03dc&#45;&gt;dir_1625c0207da71ef5bcc742f7d87fc397 -->
<g id="edge8" class="edge">
<title>dir_888248c9b17e93c3124219e9949a03dc&#45;&gt;dir_1625c0207da71ef5bcc742f7d87fc397</title>
<path fill="none" stroke="black" d="M57.55,-215.81C58.82,-197.01 62.94,-166.56 76,-144 82.41,-132.92 91.95,-122.9 101.49,-114.63"/>
<polygon fill="black" stroke="black" points="103.93,-117.15 109.45,-108.11 99.49,-111.74 103.93,-117.15"/>
<g id="a_edge8&#45;headlabel"><a xlink:href="dir_000074_000028.html" target="_top" xlink:title="3">
<text text-anchor="middle" x="102.95" y="-119.13" font-family="Helvetica,sans-Serif" font-size="10.00">3</text>
</a>
</g>
</g>
<!-- dir_53b655bbb6a43e76304525ea68aac804&#45;&gt;dir_888248c9b17e93c3124219e9949a03dc -->
<g id="edge1" class="edge">
<title>dir_53b655bbb6a43e76304525ea68aac804&#45;&gt;dir_888248c9b17e93c3124219e9949a03dc</title>
<path fill="none" stroke="black" d="M115.72,-234C113.08,-234 110.45,-234 107.81,-234"/>
<polygon fill="black" stroke="black" points="107.65,-230.5 97.65,-234 107.65,-237.5 107.65,-230.5"/>
<g id="a_edge1&#45;headlabel"><a xlink:href="dir_000064_000074.html" target="_top" xlink:title="1">
<text text-anchor="middle" x="111.24" y="-225.16" font-family="Helvetica,sans-Serif" font-size="10.00">1</text>
</a>
</g>
</g>
<!-- dir_53b655bbb6a43e76304525ea68aac804&#45;&gt;dir_97aefd0d527b934f1d99a682da8fe6a9 -->
<g id="edge2" class="edge">
<title>dir_53b655bbb6a43e76304525ea68aac804&#45;&gt;dir_97aefd0d527b934f1d99a682da8fe6a9</title>
<path fill="none" stroke="black" d="M154.69,-215.53C173.66,-184.82 206.54,-119.89 181,-72 171.9,-54.95 154.61,-42.41 138.52,-33.82"/>
<polygon fill="black" stroke="black" points="139.77,-30.53 129.26,-29.22 136.66,-36.8 139.77,-30.53"/>
<g id="a_edge2&#45;headlabel"><a xlink:href="dir_000064_000000.html" target="_top" xlink:title="37">
<text text-anchor="middle" x="144.25" y="-27.09" font-family="Helvetica,sans-Serif" font-size="10.00">37</text>
</a>
</g>
</g>
<!-- dir_53b655bbb6a43e76304525ea68aac804&#45;&gt;dir_060c2debc8a63700d8ac32f8579043cd -->
<g id="edge3" class="edge">
<title>dir_53b655bbb6a43e76304525ea68aac804&#45;&gt;dir_060c2debc8a63700d8ac32f8579043cd</title>
<path fill="none" stroke="black" d="M130.41,-215.7C126.6,-207.9 122.75,-198.51 119.76,-189.83"/>
<polygon fill="black" stroke="black" points="123.04,-188.59 116.7,-180.1 116.37,-190.69 123.04,-188.59"/>
<g id="a_edge3&#45;headlabel"><a xlink:href="dir_000064_000088.html" target="_top" xlink:title="4">
<text text-anchor="middle" x="126.83" y="-188.67" font-family="Helvetica,sans-Serif" font-size="10.00">4</text>
</a>
</g>
</g>
<!-- dir_53b655bbb6a43e76304525ea68aac804&#45;&gt;dir_1625c0207da71ef5bcc742f7d87fc397 -->
<g id="edge4" class="edge">
<title>dir_53b655bbb6a43e76304525ea68aac804&#45;&gt;dir_1625c0207da71ef5bcc742f7d87fc397</title>
<path fill="none" stroke="black" d="M148.5,-215.86C153.52,-197.89 159.53,-168.85 155,-144 153.39,-135.2 150.4,-125.95 147.21,-117.7"/>
<polygon fill="black" stroke="black" points="150.35,-116.12 143.31,-108.21 143.88,-118.79 150.35,-116.12"/>
<g id="a_edge4&#45;headlabel"><a xlink:href="dir_000064_000028.html" target="_top" xlink:title="99">
<text text-anchor="middle" x="154.35" y="-115.87" font-family="Helvetica,sans-Serif" font-size="10.00">99</text>
</a>
</g>
</g>
<!-- dir_060c2debc8a63700d8ac32f8579043cd&#45;&gt;dir_53b655bbb6a43e76304525ea68aac804 -->
<g id="edge9" class="edge">
<title>dir_060c2debc8a63700d8ac32f8579043cd&#45;&gt;dir_53b655bbb6a43e76304525ea68aac804</title>
<path fill="none" stroke="black" d="M128.49,-180.1C132.3,-187.88 136.16,-197.26 139.16,-205.95"/>
<polygon fill="black" stroke="black" points="135.89,-207.22 142.24,-215.7 142.56,-205.11 135.89,-207.22"/>
<g id="a_edge9&#45;headlabel"><a xlink:href="dir_000088_000064.html" target="_top" xlink:title="1">
<text text-anchor="middle" x="132.1" y="-202.15" font-family="Helvetica,sans-Serif" font-size="10.00">1</text>
</a>
</g>
</g>
<!-- dir_060c2debc8a63700d8ac32f8579043cd&#45;&gt;dir_97aefd0d527b934f1d99a682da8fe6a9 -->
<g id="edge10" class="edge">
<title>dir_060c2debc8a63700d8ac32f8579043cd&#45;&gt;dir_97aefd0d527b934f1d99a682da8fe6a9</title>
<path fill="none" stroke="black" d="M104.53,-143.67C98.63,-133.69 92.04,-120.65 89,-108 84.06,-87.44 87.99,-63.72 92.78,-45.95"/>
<polygon fill="black" stroke="black" points="96.17,-46.82 95.64,-36.24 89.46,-44.84 96.17,-46.82"/>
<g id="a_edge10&#45;headlabel"><a xlink:href="dir_000088_000000.html" target="_top" xlink:title="15">
<text text-anchor="middle" x="97.88" y="-48.57" font-family="Helvetica,sans-Serif" font-size="10.00">15</text>
</a>
</g>
</g>
<!-- dir_060c2debc8a63700d8ac32f8579043cd&#45;&gt;dir_1625c0207da71ef5bcc742f7d87fc397 -->
<g id="edge11" class="edge">
<title>dir_060c2debc8a63700d8ac32f8579043cd&#45;&gt;dir_1625c0207da71ef5bcc742f7d87fc397</title>
<path fill="none" stroke="black" d="M120.7,-143.7C122.81,-135.9 125.36,-126.51 127.72,-117.83"/>
<polygon fill="black" stroke="black" points="131.12,-118.67 130.36,-108.1 124.36,-116.84 131.12,-118.67"/>
<g id="a_edge11&#45;headlabel"><a xlink:href="dir_000088_000028.html" target="_top" xlink:title="18">
<text text-anchor="middle" x="132.91" y="-120.38" font-family="Helvetica,sans-Serif" font-size="10.00">18</text>
</a>
</g>
</g>
<!-- dir_1625c0207da71ef5bcc742f7d87fc397&#45;&gt;dir_97aefd0d527b934f1d99a682da8fe6a9 -->
<g id="edge12" class="edge">
<title>dir_1625c0207da71ef5bcc742f7d87fc397&#45;&gt;dir_97aefd0d527b934f1d99a682da8fe6a9</title>
<path fill="none" stroke="black" d="M126.84,-71.7C123.09,-63.73 118.55,-54.1 114.38,-45.26"/>
<polygon fill="black" stroke="black" points="117.49,-43.66 110.06,-36.1 111.16,-46.64 117.49,-43.66"/>
<g id="a_edge12&#45;headlabel"><a xlink:href="dir_000028_000000.html" target="_top" xlink:title="84">
<text text-anchor="middle" x="121.59" y="-43.2" font-family="Helvetica,sans-Serif" font-size="10.00">84</text>
</a>
</g>
</g>
</g>
</svg>
