<?xml version="1.0" encoding="UTF-8" standalone="no"?>
<!DOCTYPE svg PUBLIC "-//W3C//DTD SVG 1.1//EN"
 "http://www.w3.org/Graphics/SVG/1.1/DTD/svg11.dtd">
<!-- Generated by graphviz version 2.43.0 (0)
 -->
<!-- Title: sources/System/Gamepad Pages: 1 -->
<svg width="125pt" height="223pt"
 viewBox="0.00 0.00 124.50 223.00" xmlns="http://www.w3.org/2000/svg" xmlns:xlink="http://www.w3.org/1999/xlink">
<g id="graph0" class="graph" transform="scale(1 1) rotate(0) translate(4 219)">
<title>sources/System/Gamepad</title>
<polygon fill="white" stroke="transparent" points="-4,4 -4,-219 120.5,-219 120.5,4 -4,4"/>
<g id="clust1" class="cluster">
<title>clusterdir_dbff9d19e82c23288cf26fa638b485e8</title>
<g id="a_clust1"><a xlink:href="dir_dbff9d19e82c23288cf26fa638b485e8.html" target="_top" xlink:title="System">
<polygon fill="#ddddee" stroke="black" points="8,-136 8,-207 88,-207 88,-136 8,-136"/>
<text text-anchor="middle" x="48" y="-195" font-family="Helvetica,sans-Serif" font-size="10.00">System</text>
</a>
</g>
</g>
<!-- dir_01e88308d7529b12ec40aaf0d88278cb -->
<g id="node1" class="node">
<title>dir_01e88308d7529b12ec40aaf0d88278cb</title>
<g id="a_node1"><a xlink:href="dir_01e88308d7529b12ec40aaf0d88278cb.html" target="_top" xlink:title="Gamepad">
<polygon fill="#eeeeff" stroke="black" points="80,-180 16,-180 16,-144 80,-144 80,-180"/>
<text text-anchor="middle" x="48" y="-159.5" font-family="Helvetica,sans-Serif" font-size="10.00">Gamepad</text>
</a>
</g>
</g>
<!-- dir_97aefd0d527b934f1d99a682da8fe6a9 -->
<g id="node2" class="node">
<title>dir_97aefd0d527b934f1d99a682da8fe6a9</title>
<g id="a_node2"><a xlink:href="dir_97aefd0d527b934f1d99a682da8fe6a9.html" target="_top" xlink:title="lib">
<polygon fill="white" stroke="red" points="74,-36 20,-36 20,0 74,0 74,-36"/>
<text text-anchor="middle" x="47" y="-15.5" font-family="Helvetica,sans-Serif" font-size="10.00">lib</text>
</a>
</g>
</g>
<!-- dir_01e88308d7529b12ec40aaf0d88278cb&#45;&gt;dir_97aefd0d527b934f1d99a682da8fe6a9 -->
<g id="edge2" class="edge">
<title>dir_01e88308d7529b12ec40aaf0d88278cb&#45;&gt;dir_97aefd0d527b934f1d99a682da8fe6a9</title>
<path fill="none" stroke="black" d="M42.59,-143.53C39.7,-133.29 36.45,-120.04 35,-108 33.08,-92.12 33.22,-87.9 35,-72 35.96,-63.43 37.76,-54.22 39.69,-45.93"/>
<polygon fill="black" stroke="black" points="43.13,-46.57 42.13,-36.02 36.34,-44.89 43.13,-46.57"/>
<g id="a_edge2&#45;headlabel"><a xlink:href="dir_000076_000000.html" target="_top" xlink:title="3">
<text text-anchor="middle" x="45.03" y="-48.24" font-family="Helvetica,sans-Serif" font-size="10.00">3</text>
</a>
</g>
</g>
<!-- dir_1625c0207da71ef5bcc742f7d87fc397 -->
<g id="node3" class="node">
<title>dir_1625c0207da71ef5bcc742f7d87fc397</title>
<g id="a_node3"><a xlink:href="dir_1625c0207da71ef5bcc742f7d87fc397.html" target="_top" xlink:title="Component">
<polygon fill="white" stroke="red" points="116.5,-108 43.5,-108 43.5,-72 116.5,-72 116.5,-108"/>
<text text-anchor="middle" x="80" y="-87.5" font-family="Helvetica,sans-Serif" font-size="10.00">Component</text>
</a>
</g>
</g>
<!-- dir_01e88308d7529b12ec40aaf0d88278cb&#45;&gt;dir_1625c0207da71ef5bcc742f7d87fc397 -->
<g id="edge3" class="edge">
<title>dir_01e88308d7529b12ec40aaf0d88278cb&#45;&gt;dir_1625c0207da71ef5bcc742f7d87fc397</title>
<path fill="none" stroke="black" d="M55.91,-143.7C59.55,-135.73 63.95,-126.1 67.99,-117.26"/>
<polygon fill="black" stroke="black" points="71.21,-118.65 72.18,-108.1 64.84,-115.74 71.21,-118.65"/>
<g id="a_edge3&#45;headlabel"><a xlink:href="dir_000076_000028.html" target="_top" xlink:title="4">
<text text-anchor="middle" x="72.29" y="-120.6" font-family="Helvetica,sans-Serif" font-size="10.00">4</text>
</a>
</g>
</g>
<!-- dir_1625c0207da71ef5bcc742f7d87fc397&#45;&gt;dir_97aefd0d527b934f1d99a682da8fe6a9 -->
<g id="edge1" class="edge">
<title>dir_1625c0207da71ef5bcc742f7d87fc397&#45;&gt;dir_97aefd0d527b934f1d99a682da8fe6a9</title>
<path fill="none" stroke="black" d="M71.84,-71.7C68.09,-63.73 63.55,-54.1 59.38,-45.26"/>
<polygon fill="black" stroke="black" points="62.49,-43.66 55.06,-36.1 56.16,-46.64 62.49,-43.66"/>
<g id="a_edge1&#45;headlabel"><a xlink:href="dir_000028_000000.html" target="_top" xlink:title="84">
<text text-anchor="middle" x="66.59" y="-43.2" font-family="Helvetica,sans-Serif" font-size="10.00">84</text>
</a>
</g>
</g>
</g>
</svg>
