<?xml version="1.0" encoding="UTF-8" standalone="no"?>
<!DOCTYPE svg PUBLIC "-//W3C//DTD SVG 1.1//EN"
 "http://www.w3.org/Graphics/SVG/1.1/DTD/svg11.dtd">
<!-- Generated by graphviz version 2.43.0 (0)
 -->
<!-- Title: sources/System/IntroAnimation Pages: 1 -->
<svg width="185pt" height="223pt"
 viewBox="0.00 0.00 185.00 223.00" xmlns="http://www.w3.org/2000/svg" xmlns:xlink="http://www.w3.org/1999/xlink">
<g id="graph0" class="graph" transform="scale(1 1) rotate(0) translate(4 219)">
<title>sources/System/IntroAnimation</title>
<polygon fill="white" stroke="transparent" points="-4,4 -4,-219 181,-219 181,4 -4,4"/>
<g id="clust1" class="cluster">
<title>clusterdir_dbff9d19e82c23288cf26fa638b485e8</title>
<g id="a_clust1"><a xlink:href="dir_dbff9d19e82c23288cf26fa638b485e8.html" target="_top" xlink:title="System">
<polygon fill="#ddddee" stroke="black" points="8,-136 8,-207 112,-207 112,-136 8,-136"/>
<text text-anchor="middle" x="60" y="-195" font-family="Helvetica,sans-Serif" font-size="10.00">System</text>
</a>
</g>
</g>
<!-- dir_729e331ca54f8d13bba9aeadbd704817 -->
<g id="node1" class="node">
<title>dir_729e331ca54f8d13bba9aeadbd704817</title>
<g id="a_node1"><a xlink:href="dir_729e331ca54f8d13bba9aeadbd704817.html" target="_top" xlink:title="IntroAnimation">
<polygon fill="#eeeeff" stroke="black" points="104.5,-180 15.5,-180 15.5,-144 104.5,-144 104.5,-180"/>
<text text-anchor="middle" x="60" y="-159.5" font-family="Helvetica,sans-Serif" font-size="10.00">IntroAnimation</text>
</a>
</g>
</g>
<!-- dir_53b655bbb6a43e76304525ea68aac804 -->
<g id="node2" class="node">
<title>dir_53b655bbb6a43e76304525ea68aac804</title>
<g id="a_node2"><a xlink:href="dir_53b655bbb6a43e76304525ea68aac804.html" target="_top" xlink:title="Runner">
<polygon fill="none" stroke="black" points="177,-180 123,-180 123,-144 177,-144 177,-180"/>
<text text-anchor="middle" x="150" y="-159.5" font-family="Helvetica,sans-Serif" font-size="10.00">Runner</text>
</a>
</g>
</g>
<!-- dir_729e331ca54f8d13bba9aeadbd704817&#45;&gt;dir_53b655bbb6a43e76304525ea68aac804 -->
<g id="edge4" class="edge">
<title>dir_729e331ca54f8d13bba9aeadbd704817&#45;&gt;dir_53b655bbb6a43e76304525ea68aac804</title>
<path fill="none" stroke="black" d="M104.65,-162C107.28,-162 109.92,-162 112.55,-162"/>
<polygon fill="black" stroke="black" points="112.72,-165.5 122.72,-162 112.72,-158.5 112.72,-165.5"/>
<g id="a_edge4&#45;headlabel"><a xlink:href="dir_000081_000064.html" target="_top" xlink:title="1">
<text text-anchor="middle" x="109.12" y="-165.84" font-family="Helvetica,sans-Serif" font-size="10.00">1</text>
</a>
</g>
</g>
<!-- dir_97aefd0d527b934f1d99a682da8fe6a9 -->
<g id="node3" class="node">
<title>dir_97aefd0d527b934f1d99a682da8fe6a9</title>
<g id="a_node3"><a xlink:href="dir_97aefd0d527b934f1d99a682da8fe6a9.html" target="_top" xlink:title="lib">
<polygon fill="white" stroke="red" points="132,-36 78,-36 78,0 132,0 132,-36"/>
<text text-anchor="middle" x="105" y="-15.5" font-family="Helvetica,sans-Serif" font-size="10.00">lib</text>
</a>
</g>
</g>
<!-- dir_729e331ca54f8d13bba9aeadbd704817&#45;&gt;dir_97aefd0d527b934f1d99a682da8fe6a9 -->
<g id="edge5" class="edge">
<title>dir_729e331ca54f8d13bba9aeadbd704817&#45;&gt;dir_97aefd0d527b934f1d99a682da8fe6a9</title>
<path fill="none" stroke="black" d="M56.62,-143.99C53.72,-125.62 51.26,-95.79 60,-72 63.78,-61.7 70.56,-52.02 77.72,-43.84"/>
<polygon fill="black" stroke="black" points="80.34,-46.16 84.62,-36.47 75.23,-41.38 80.34,-46.16"/>
<g id="a_edge5&#45;headlabel"><a xlink:href="dir_000081_000000.html" target="_top" xlink:title="5">
<text text-anchor="middle" x="79.96" y="-48.22" font-family="Helvetica,sans-Serif" font-size="10.00">5</text>
</a>
</g>
</g>
<!-- dir_1625c0207da71ef5bcc742f7d87fc397 -->
<g id="node4" class="node">
<title>dir_1625c0207da71ef5bcc742f7d87fc397</title>
<g id="a_node4"><a xlink:href="dir_1625c0207da71ef5bcc742f7d87fc397.html" target="_top" xlink:title="Component">
<polygon fill="white" stroke="red" points="141.5,-108 68.5,-108 68.5,-72 141.5,-72 141.5,-108"/>
<text text-anchor="middle" x="105" y="-87.5" font-family="Helvetica,sans-Serif" font-size="10.00">Component</text>
</a>
</g>
</g>
<!-- dir_729e331ca54f8d13bba9aeadbd704817&#45;&gt;dir_1625c0207da71ef5bcc742f7d87fc397 -->
<g id="edge6" class="edge">
<title>dir_729e331ca54f8d13bba9aeadbd704817&#45;&gt;dir_1625c0207da71ef5bcc742f7d87fc397</title>
<path fill="none" stroke="black" d="M71.12,-143.7C76.36,-135.56 82.7,-125.69 88.48,-116.7"/>
<polygon fill="black" stroke="black" points="91.54,-118.41 94,-108.1 85.65,-114.62 91.54,-118.41"/>
<g id="a_edge6&#45;headlabel"><a xlink:href="dir_000081_000028.html" target="_top" xlink:title="6">
<text text-anchor="middle" x="91.99" y="-120.47" font-family="Helvetica,sans-Serif" font-size="10.00">6</text>
</a>
</g>
</g>
<!-- dir_53b655bbb6a43e76304525ea68aac804&#45;&gt;dir_729e331ca54f8d13bba9aeadbd704817 -->
<g id="edge1" class="edge">
<title>dir_53b655bbb6a43e76304525ea68aac804&#45;&gt;dir_729e331ca54f8d13bba9aeadbd704817</title>
<path fill="none" stroke="black" d="M122.72,-162C120.08,-162 117.45,-162 114.81,-162"/>
<polygon fill="black" stroke="black" points="114.65,-158.5 104.65,-162 114.65,-165.5 114.65,-158.5"/>
<g id="a_edge1&#45;headlabel"><a xlink:href="dir_000064_000081.html" target="_top" xlink:title="1">
<text text-anchor="middle" x="118.24" y="-153.16" font-family="Helvetica,sans-Serif" font-size="10.00">1</text>
</a>
</g>
</g>
<!-- dir_53b655bbb6a43e76304525ea68aac804&#45;&gt;dir_97aefd0d527b934f1d99a682da8fe6a9 -->
<g id="edge2" class="edge">
<title>dir_53b655bbb6a43e76304525ea68aac804&#45;&gt;dir_97aefd0d527b934f1d99a682da8fe6a9</title>
<path fill="none" stroke="black" d="M153.73,-143.98C156.96,-125.59 159.87,-95.74 151,-72 147.12,-61.62 140.2,-51.93 132.88,-43.74"/>
<polygon fill="black" stroke="black" points="135.27,-41.18 125.82,-36.38 130.22,-46.03 135.27,-41.18"/>
<g id="a_edge2&#45;headlabel"><a xlink:href="dir_000064_000000.html" target="_top" xlink:title="37">
<text text-anchor="middle" x="139.81" y="-39.31" font-family="Helvetica,sans-Serif" font-size="10.00">37</text>
</a>
</g>
</g>
<!-- dir_53b655bbb6a43e76304525ea68aac804&#45;&gt;dir_1625c0207da71ef5bcc742f7d87fc397 -->
<g id="edge3" class="edge">
<title>dir_53b655bbb6a43e76304525ea68aac804&#45;&gt;dir_1625c0207da71ef5bcc742f7d87fc397</title>
<path fill="none" stroke="black" d="M138.88,-143.7C133.64,-135.56 127.3,-125.69 121.52,-116.7"/>
<polygon fill="black" stroke="black" points="124.35,-114.62 116,-108.1 118.46,-118.41 124.35,-114.62"/>
<g id="a_edge3&#45;headlabel"><a xlink:href="dir_000064_000028.html" target="_top" xlink:title="99">
<text text-anchor="middle" x="128.68" y="-113.61" font-family="Helvetica,sans-Serif" font-size="10.00">99</text>
</a>
</g>
</g>
<!-- dir_1625c0207da71ef5bcc742f7d87fc397&#45;&gt;dir_97aefd0d527b934f1d99a682da8fe6a9 -->
<g id="edge7" class="edge">
<title>dir_1625c0207da71ef5bcc742f7d87fc397&#45;&gt;dir_97aefd0d527b934f1d99a682da8fe6a9</title>
<path fill="none" stroke="black" d="M105,-71.7C105,-63.98 105,-54.71 105,-46.11"/>
<polygon fill="black" stroke="black" points="108.5,-46.1 105,-36.1 101.5,-46.1 108.5,-46.1"/>
<g id="a_edge7&#45;headlabel"><a xlink:href="dir_000028_000000.html" target="_top" xlink:title="84">
<text text-anchor="middle" x="111.34" y="-47.2" font-family="Helvetica,sans-Serif" font-size="10.00">84</text>
</a>
</g>
</g>
</g>
</svg>
