<?xml version="1.0" encoding="UTF-8" standalone="no"?>
<!DOCTYPE svg PUBLIC "-//W3C//DTD SVG 1.1//EN"
 "http://www.w3.org/Graphics/SVG/1.1/DTD/svg11.dtd">
<!-- Generated by graphviz version 2.43.0 (0)
 -->
<!-- Title: sources/Component/Stat Pages: 1 -->
<svg width="114pt" height="223pt"
 viewBox="0.00 0.00 113.50 223.00" xmlns="http://www.w3.org/2000/svg" xmlns:xlink="http://www.w3.org/1999/xlink">
<g id="graph0" class="graph" transform="scale(1 1) rotate(0) translate(4 219)">
<title>sources/Component/Stat</title>
<polygon fill="white" stroke="transparent" points="-4,4 -4,-219 109.5,-219 109.5,4 -4,4"/>
<g id="clust1" class="cluster">
<title>clusterdir_1625c0207da71ef5bcc742f7d87fc397</title>
<g id="a_clust1"><a xlink:href="dir_1625c0207da71ef5bcc742f7d87fc397.html" target="_top" xlink:title="Component">
<polygon fill="#ddddee" stroke="black" points="24.5,-136 24.5,-207 97.5,-207 97.5,-136 24.5,-136"/>
<text text-anchor="middle" x="61" y="-195" font-family="Helvetica,sans-Serif" font-size="10.00">Component</text>
</a>
</g>
</g>
<!-- dir_599580eb32a9614f8bbe2bff0efda0c2 -->
<g id="node1" class="node">
<title>dir_599580eb32a9614f8bbe2bff0efda0c2</title>
<g id="a_node1"><a xlink:href="dir_599580eb32a9614f8bbe2bff0efda0c2.html" target="_top" xlink:title="Stat">
<polygon fill="#eeeeff" stroke="black" points="87.5,-180 33.5,-180 33.5,-144 87.5,-144 87.5,-180"/>
<text text-anchor="middle" x="60.5" y="-159.5" font-family="Helvetica,sans-Serif" font-size="10.00">Stat</text>
</a>
</g>
</g>
<!-- dir_0bdc1f114aa34b6ab2d85546a660ebf2 -->
<g id="node2" class="node">
<title>dir_0bdc1f114aa34b6ab2d85546a660ebf2</title>
<g id="a_node2"><a xlink:href="dir_0bdc1f114aa34b6ab2d85546a660ebf2.html" target="_top" xlink:title="Renderer">
<polygon fill="none" stroke="black" points="61,-108 0,-108 0,-72 61,-72 61,-108"/>
<text text-anchor="middle" x="30.5" y="-87.5" font-family="Helvetica,sans-Serif" font-size="10.00">Renderer</text>
</a>
</g>
</g>
<!-- dir_599580eb32a9614f8bbe2bff0efda0c2&#45;&gt;dir_0bdc1f114aa34b6ab2d85546a660ebf2 -->
<g id="edge2" class="edge">
<title>dir_599580eb32a9614f8bbe2bff0efda0c2&#45;&gt;dir_0bdc1f114aa34b6ab2d85546a660ebf2</title>
<path fill="none" stroke="black" d="M53.08,-143.7C49.71,-135.81 45.63,-126.3 41.88,-117.55"/>
<polygon fill="black" stroke="black" points="44.99,-115.92 37.83,-108.1 38.55,-118.67 44.99,-115.92"/>
<g id="a_edge2&#45;headlabel"><a xlink:href="dir_000057_000051.html" target="_top" xlink:title="1">
<text text-anchor="middle" x="49.01" y="-115.6" font-family="Helvetica,sans-Serif" font-size="10.00">1</text>
</a>
</g>
</g>
<!-- dir_97aefd0d527b934f1d99a682da8fe6a9 -->
<g id="node3" class="node">
<title>dir_97aefd0d527b934f1d99a682da8fe6a9</title>
<g id="a_node3"><a xlink:href="dir_97aefd0d527b934f1d99a682da8fe6a9.html" target="_top" xlink:title="lib">
<polygon fill="white" stroke="red" points="86.5,-36 32.5,-36 32.5,0 86.5,0 86.5,-36"/>
<text text-anchor="middle" x="59.5" y="-15.5" font-family="Helvetica,sans-Serif" font-size="10.00">lib</text>
</a>
</g>
</g>
<!-- dir_599580eb32a9614f8bbe2bff0efda0c2&#45;&gt;dir_97aefd0d527b934f1d99a682da8fe6a9 -->
<g id="edge3" class="edge">
<title>dir_599580eb32a9614f8bbe2bff0efda0c2&#45;&gt;dir_97aefd0d527b934f1d99a682da8fe6a9</title>
<path fill="none" stroke="black" d="M64.56,-143.93C66.81,-133.6 69.37,-120.12 70.5,-108 71.99,-92.07 72.13,-87.92 70.5,-72 69.62,-63.46 67.97,-54.26 66.21,-45.96"/>
<polygon fill="black" stroke="black" points="69.58,-45.03 63.96,-36.05 62.76,-46.57 69.58,-45.03"/>
<g id="a_edge3&#45;headlabel"><a xlink:href="dir_000057_000000.html" target="_top" xlink:title="3">
<text text-anchor="middle" x="73.15" y="-45.41" font-family="Helvetica,sans-Serif" font-size="10.00">3</text>
</a>
</g>
</g>
<!-- dir_0bdc1f114aa34b6ab2d85546a660ebf2&#45;&gt;dir_97aefd0d527b934f1d99a682da8fe6a9 -->
<g id="edge1" class="edge">
<title>dir_0bdc1f114aa34b6ab2d85546a660ebf2&#45;&gt;dir_97aefd0d527b934f1d99a682da8fe6a9</title>
<path fill="none" stroke="black" d="M37.67,-71.7C40.93,-63.81 44.87,-54.3 48.5,-45.55"/>
<polygon fill="black" stroke="black" points="51.82,-46.68 52.41,-36.1 45.35,-44 51.82,-46.68"/>
<g id="a_edge1&#45;headlabel"><a xlink:href="dir_000051_000000.html" target="_top" xlink:title="9">
<text text-anchor="middle" x="53.07" y="-48.59" font-family="Helvetica,sans-Serif" font-size="10.00">9</text>
</a>
</g>
</g>
</g>
</svg>
