<?xml version="1.0" encoding="UTF-8" standalone="no"?>
<!DOCTYPE svg PUBLIC "-//W3C//DTD SVG 1.1//EN"
 "http://www.w3.org/Graphics/SVG/1.1/DTD/svg11.dtd">
<!-- Generated by graphviz version 2.43.0 (0)
 -->
<!-- Title: sources/Component/Renderer/Drawable2DComponent.hpp Pages: 1 -->
<svg width="2148pt" height="599pt"
 viewBox="0.00 0.00 2148.00 599.00" xmlns="http://www.w3.org/2000/svg" xmlns:xlink="http://www.w3.org/1999/xlink">
<g id="graph0" class="graph" transform="scale(1 1) rotate(0) translate(4 595)">
<title>sources/Component/Renderer/Drawable2DComponent.hpp</title>
<polygon fill="white" stroke="transparent" points="-4,4 -4,-595 2144,-595 2144,4 -4,4"/>
<!-- Node1 -->
<g id="node1" class="node">
<title>Node1</title>
<g id="a_node1"><a xlink:title=" ">
<polygon fill="#bfbfbf" stroke="black" points="501.5,-560.5 501.5,-590.5 662.5,-590.5 662.5,-560.5 501.5,-560.5"/>
<text text-anchor="start" x="509.5" y="-578.5" font-family="Helvetica,sans-Serif" font-size="10.00">sources/Component/Renderer</text>
<text text-anchor="middle" x="582" y="-567.5" font-family="Helvetica,sans-Serif" font-size="10.00">/Drawable2DComponent.hpp</text>
</a>
</g>
</g>
<!-- Node2 -->
<g id="node2" class="node">
<title>Node2</title>
<g id="a_node2"><a xlink:href="TypeHolder_8hpp.html" target="_top" xlink:title=" ">
<polygon fill="white" stroke="black" points="405,-504.5 405,-523.5 535,-523.5 535,-504.5 405,-504.5"/>
<text text-anchor="middle" x="470" y="-511.5" font-family="Helvetica,sans-Serif" font-size="10.00">Models/TypeHolder.hpp</text>
</a>
</g>
</g>
<!-- Node1&#45;&gt;Node2 -->
<g id="edge1" class="edge">
<title>Node1&#45;&gt;Node2</title>
<path fill="none" stroke="midnightblue" d="M555.46,-560.4C537.34,-550.77 513.46,-538.09 495.56,-528.58"/>
<polygon fill="midnightblue" stroke="midnightblue" points="496.77,-525.26 486.3,-523.66 493.49,-531.44 496.77,-525.26"/>
</g>
<!-- Node3 -->
<g id="node3" class="node">
<title>Node3</title>
<g id="a_node3"><a xlink:href="Component_8hpp.html" target="_top" xlink:title=" ">
<polygon fill="white" stroke="black" points="671.5,-224.5 671.5,-243.5 824.5,-243.5 824.5,-224.5 671.5,-224.5"/>
<text text-anchor="middle" x="748" y="-231.5" font-family="Helvetica,sans-Serif" font-size="10.00">Component/Component.hpp</text>
</a>
</g>
</g>
<!-- Node1&#45;&gt;Node3 -->
<g id="edge2" class="edge">
<title>Node1&#45;&gt;Node3</title>
<path fill="none" stroke="midnightblue" d="M585.84,-560.4C591.4,-538.76 601,-495.99 601,-459 601,-459 601,-459 601,-401 601,-328.53 680.5,-272.87 722.57,-248.49"/>
<polygon fill="midnightblue" stroke="midnightblue" points="724.43,-251.46 731.42,-243.51 720.99,-245.37 724.43,-251.46"/>
</g>
<!-- Node7 -->
<g id="node7" class="node">
<title>Node7</title>
<g id="a_node7"><a xlink:href="ADrawable2D_8hpp.html" target="_top" xlink:title=" ">
<polygon fill="white" stroke="black" points="351.5,-336.5 351.5,-355.5 510.5,-355.5 510.5,-336.5 351.5,-336.5"/>
<text text-anchor="middle" x="431" y="-343.5" font-family="Helvetica,sans-Serif" font-size="10.00">Drawables/ADrawable2D.hpp</text>
</a>
</g>
</g>
<!-- Node1&#45;&gt;Node7 -->
<g id="edge6" class="edge">
<title>Node1&#45;&gt;Node7</title>
<path fill="none" stroke="midnightblue" d="M575.09,-560.42C567.84,-545.97 555.87,-522.98 544,-504 510.73,-450.82 465.85,-391.67 444.02,-363.56"/>
<polygon fill="midnightblue" stroke="midnightblue" points="446.7,-361.3 437.78,-355.58 441.18,-365.61 446.7,-361.3"/>
</g>
<!-- Node22 -->
<g id="node22" class="node">
<title>Node22</title>
<g id="a_node22"><a xlink:href="Model_8hpp.html" target="_top" xlink:title=" ">
<polygon fill="white" stroke="black" points="1502.5,-504.5 1502.5,-523.5 1603.5,-523.5 1603.5,-504.5 1502.5,-504.5"/>
<text text-anchor="middle" x="1553" y="-511.5" font-family="Helvetica,sans-Serif" font-size="10.00">Model/Model.hpp</text>
</a>
</g>
</g>
<!-- Node1&#45;&gt;Node22 -->
<g id="edge38" class="edge">
<title>Node1&#45;&gt;Node22</title>
<path fill="none" stroke="midnightblue" d="M662.7,-569.55C852.59,-557.92 1324.29,-529.01 1492.34,-518.72"/>
<polygon fill="midnightblue" stroke="midnightblue" points="1492.72,-522.2 1502.49,-518.09 1492.3,-515.21 1492.72,-522.2"/>
</g>
<!-- Node4 -->
<g id="node4" class="node">
<title>Node4</title>
<g id="a_node4"><a xlink:title=" ">
<polygon fill="white" stroke="#bfbfbf" points="918.5,-112.5 918.5,-131.5 965.5,-131.5 965.5,-112.5 918.5,-112.5"/>
<text text-anchor="middle" x="942" y="-119.5" font-family="Helvetica,sans-Serif" font-size="10.00">vector</text>
</a>
</g>
</g>
<!-- Node3&#45;&gt;Node4 -->
<g id="edge3" class="edge">
<title>Node3&#45;&gt;Node4</title>
<path fill="none" stroke="midnightblue" d="M816.36,-224.48C845.36,-218.16 878.14,-207.15 903,-188 918.6,-175.98 929.29,-155.8 935.48,-141.1"/>
<polygon fill="midnightblue" stroke="midnightblue" points="938.82,-142.16 939.2,-131.57 932.3,-139.62 938.82,-142.16"/>
</g>
<!-- Node5 -->
<g id="node5" class="node">
<title>Node5</title>
<g id="a_node5"><a xlink:title=" ">
<polygon fill="white" stroke="#bfbfbf" points="1027,-168.5 1027,-187.5 1071,-187.5 1071,-168.5 1027,-168.5"/>
<text text-anchor="middle" x="1049" y="-175.5" font-family="Helvetica,sans-Serif" font-size="10.00">string</text>
</a>
</g>
</g>
<!-- Node3&#45;&gt;Node5 -->
<g id="edge4" class="edge">
<title>Node3&#45;&gt;Node5</title>
<path fill="none" stroke="midnightblue" d="M795.69,-224.44C857.55,-213.35 963.78,-194.29 1016.85,-184.77"/>
<polygon fill="midnightblue" stroke="midnightblue" points="1017.51,-188.21 1026.73,-183 1016.27,-181.32 1017.51,-188.21"/>
</g>
<!-- Node6 -->
<g id="node6" class="node">
<title>Node6</title>
<g id="a_node6"><a xlink:title=" ">
<polygon fill="white" stroke="#bfbfbf" points="829.5,-168.5 829.5,-187.5 894.5,-187.5 894.5,-168.5 829.5,-168.5"/>
<text text-anchor="middle" x="862" y="-175.5" font-family="Helvetica,sans-Serif" font-size="10.00">typeindex</text>
</a>
</g>
</g>
<!-- Node3&#45;&gt;Node6 -->
<g id="edge5" class="edge">
<title>Node3&#45;&gt;Node6</title>
<path fill="none" stroke="midnightblue" d="M766.06,-224.44C784.57,-215.68 813.58,-201.94 834.86,-191.86"/>
<polygon fill="midnightblue" stroke="midnightblue" points="836.48,-194.96 844.02,-187.52 833.49,-188.63 836.48,-194.96"/>
</g>
<!-- Node8 -->
<g id="node8" class="node">
<title>Node8</title>
<g id="a_node8"><a xlink:title=" ">
<polygon fill="white" stroke="#bfbfbf" points="723.5,-0.5 723.5,-19.5 776.5,-19.5 776.5,-0.5 723.5,-0.5"/>
<text text-anchor="middle" x="750" y="-7.5" font-family="Helvetica,sans-Serif" font-size="10.00">raylib.h</text>
</a>
</g>
</g>
<!-- Node7&#45;&gt;Node8 -->
<g id="edge7" class="edge">
<title>Node7&#45;&gt;Node8</title>
<path fill="none" stroke="midnightblue" d="M351.45,-340.9C226.91,-332.28 0,-306.72 0,-235 0,-235 0,-235 0,-121 0,-61.51 59.98,-72.96 117,-56 229.77,-22.47 594.98,-13.56 712.91,-11.53"/>
<polygon fill="midnightblue" stroke="midnightblue" points="713.28,-15.03 723.22,-11.36 713.16,-8.03 713.28,-15.03"/>
</g>
<!-- Node9 -->
<g id="node9" class="node">
<title>Node9</title>
<g id="a_node9"><a xlink:href="lib_2Ray_2sources_2Vector_2Vector2_8hpp.html" target="_top" xlink:title=" ">
<polygon fill="white" stroke="black" points="28,-112.5 28,-131.5 136,-131.5 136,-112.5 28,-112.5"/>
<text text-anchor="middle" x="82" y="-119.5" font-family="Helvetica,sans-Serif" font-size="10.00">Vector/Vector2.hpp</text>
</a>
</g>
</g>
<!-- Node7&#45;&gt;Node9 -->
<g id="edge8" class="edge">
<title>Node7&#45;&gt;Node9</title>
<path fill="none" stroke="midnightblue" d="M351.22,-336.9C262.26,-323.13 122.3,-286.23 57,-188 47.01,-172.97 57.17,-153.36 67.38,-139.63"/>
<polygon fill="midnightblue" stroke="midnightblue" points="70.34,-141.54 73.89,-131.56 64.89,-137.15 70.34,-141.54"/>
</g>
<!-- Node10 -->
<g id="node10" class="node">
<title>Node10</title>
<g id="a_node10"><a xlink:href="IDrawable_8hpp.html" target="_top" xlink:title=" ">
<polygon fill="white" stroke="black" points="435,-280.5 435,-299.5 577,-299.5 577,-280.5 435,-280.5"/>
<text text-anchor="middle" x="506" y="-287.5" font-family="Helvetica,sans-Serif" font-size="10.00">Drawables/IDrawable.hpp</text>
</a>
</g>
</g>
<!-- Node7&#45;&gt;Node10 -->
<g id="edge10" class="edge">
<title>Node7&#45;&gt;Node10</title>
<path fill="none" stroke="midnightblue" d="M443.05,-336.32C454.46,-328.11 471.83,-315.6 485.43,-305.81"/>
<polygon fill="midnightblue" stroke="midnightblue" points="487.66,-308.52 493.73,-299.83 483.57,-302.84 487.66,-308.52"/>
</g>
<!-- Node21 -->
<g id="node21" class="node">
<title>Node21</title>
<g id="a_node21"><a xlink:href="Color_8hpp.html" target="_top" xlink:title=" ">
<polygon fill="white" stroke="black" points="749,-168.5 749,-187.5 811,-187.5 811,-168.5 749,-168.5"/>
<text text-anchor="middle" x="780" y="-175.5" font-family="Helvetica,sans-Serif" font-size="10.00">Color.hpp</text>
</a>
</g>
</g>
<!-- Node7&#45;&gt;Node21 -->
<g id="edge37" class="edge">
<title>Node7&#45;&gt;Node21</title>
<path fill="none" stroke="midnightblue" d="M427.06,-336.41C421.53,-322.93 413.46,-296.62 426,-280 430.84,-273.58 646.75,-214.86 738.96,-190.02"/>
<polygon fill="midnightblue" stroke="midnightblue" points="740.04,-193.35 748.79,-187.37 738.22,-186.59 740.04,-193.35"/>
</g>
<!-- Node9&#45;&gt;Node8 -->
<g id="edge9" class="edge">
<title>Node9&#45;&gt;Node8</title>
<path fill="none" stroke="midnightblue" d="M87.91,-112.32C98.43,-97.69 121.95,-68.49 150,-56 251.56,-10.78 599.03,-9.65 713.27,-10.55"/>
<polygon fill="midnightblue" stroke="midnightblue" points="713.24,-14.05 723.27,-10.64 713.31,-7.05 713.24,-14.05"/>
</g>
<!-- Node11 -->
<g id="node11" class="node">
<title>Node11</title>
<g id="a_node11"><a xlink:href="Window_8hpp.html" target="_top" xlink:title=" ">
<polygon fill="white" stroke="black" points="454,-224.5 454,-243.5 530,-243.5 530,-224.5 454,-224.5"/>
<text text-anchor="middle" x="492" y="-231.5" font-family="Helvetica,sans-Serif" font-size="10.00">Window.hpp</text>
</a>
</g>
</g>
<!-- Node10&#45;&gt;Node11 -->
<g id="edge11" class="edge">
<title>Node10&#45;&gt;Node11</title>
<path fill="none" stroke="midnightblue" d="M503.69,-280.08C501.83,-272.93 499.16,-262.64 496.85,-253.69"/>
<polygon fill="midnightblue" stroke="midnightblue" points="500.17,-252.55 494.27,-243.75 493.39,-254.31 500.17,-252.55"/>
</g>
<!-- Node11&#45;&gt;Node5 -->
<g id="edge13" class="edge">
<title>Node11&#45;&gt;Node5</title>
<path fill="none" stroke="midnightblue" d="M530.28,-229.29C634.29,-219.21 920.67,-191.44 1016.95,-182.11"/>
<polygon fill="midnightblue" stroke="midnightblue" points="1017.34,-185.59 1026.95,-181.14 1016.66,-178.62 1017.34,-185.59"/>
</g>
<!-- Node11&#45;&gt;Node8 -->
<g id="edge12" class="edge">
<title>Node11&#45;&gt;Node8</title>
<path fill="none" stroke="midnightblue" d="M494.73,-224.2C499.19,-210.88 509.07,-185.35 524,-168 539.94,-149.47 674.84,-60.23 728.3,-25.17"/>
<polygon fill="midnightblue" stroke="midnightblue" points="730.27,-28.07 736.72,-19.66 726.44,-22.21 730.27,-28.07"/>
</g>
<!-- Node11&#45;&gt;Node9 -->
<g id="edge15" class="edge">
<title>Node11&#45;&gt;Node9</title>
<path fill="none" stroke="midnightblue" d="M453.96,-227.95C369.98,-216.77 175.56,-190.7 169,-188 141.38,-176.65 114.63,-154.46 98.25,-139.19"/>
<polygon fill="midnightblue" stroke="midnightblue" points="100.32,-136.33 90.68,-131.93 95.48,-141.38 100.32,-136.33"/>
</g>
<!-- Node12 -->
<g id="node12" class="node">
<title>Node12</title>
<g id="a_node12"><a xlink:title=" ">
<polygon fill="white" stroke="#bfbfbf" points="66,-168.5 66,-187.5 122,-187.5 122,-168.5 66,-168.5"/>
<text text-anchor="middle" x="94" y="-175.5" font-family="Helvetica,sans-Serif" font-size="10.00">optional</text>
</a>
</g>
</g>
<!-- Node11&#45;&gt;Node12 -->
<g id="edge14" class="edge">
<title>Node11&#45;&gt;Node12</title>
<path fill="none" stroke="midnightblue" d="M453.68,-228.14C443.09,-226.8 431.6,-225.34 421,-224 294.34,-207.97 261.87,-209.4 136,-188 134.76,-187.79 133.5,-187.57 132.23,-187.34"/>
<polygon fill="midnightblue" stroke="midnightblue" points="132.89,-183.9 122.4,-185.43 131.55,-190.77 132.89,-183.9"/>
</g>
<!-- Node13 -->
<g id="node13" class="node">
<title>Node13</title>
<g id="a_node13"><a xlink:href="lib_2Ray_2sources_2Vector_2Vector3_8hpp.html" target="_top" xlink:title=" ">
<polygon fill="white" stroke="black" points="614,-112.5 614,-131.5 722,-131.5 722,-112.5 614,-112.5"/>
<text text-anchor="middle" x="668" y="-119.5" font-family="Helvetica,sans-Serif" font-size="10.00">Vector/Vector3.hpp</text>
</a>
</g>
</g>
<!-- Node11&#45;&gt;Node13 -->
<g id="edge16" class="edge">
<title>Node11&#45;&gt;Node13</title>
<path fill="none" stroke="midnightblue" d="M497.6,-224.2C506.79,-210.43 526.3,-183.73 549,-168 571.16,-152.64 599.24,-141.7 622.56,-134.45"/>
<polygon fill="midnightblue" stroke="midnightblue" points="623.64,-137.78 632.23,-131.57 621.65,-131.07 623.64,-137.78"/>
</g>
<!-- Node14 -->
<g id="node14" class="node">
<title>Node14</title>
<g id="a_node14"><a xlink:href="Keyboard_8hpp.html" target="_top" xlink:title=" ">
<polygon fill="white" stroke="black" points="591,-168.5 591,-187.5 731,-187.5 731,-168.5 591,-168.5"/>
<text text-anchor="middle" x="661" y="-175.5" font-family="Helvetica,sans-Serif" font-size="10.00">Controllers/Keyboard.hpp</text>
</a>
</g>
</g>
<!-- Node11&#45;&gt;Node14 -->
<g id="edge18" class="edge">
<title>Node11&#45;&gt;Node14</title>
<path fill="none" stroke="midnightblue" d="M518.78,-224.44C547.33,-215.32 592.73,-200.81 624.54,-190.65"/>
<polygon fill="midnightblue" stroke="midnightblue" points="625.89,-193.89 634.35,-187.52 623.76,-187.23 625.89,-193.89"/>
</g>
<!-- Node15 -->
<g id="node15" class="node">
<title>Node15</title>
<g id="a_node15"><a xlink:href="Camera2D_8hpp.html" target="_top" xlink:title=" ">
<polygon fill="white" stroke="black" points="178.5,-168.5 178.5,-187.5 309.5,-187.5 309.5,-168.5 178.5,-168.5"/>
<text text-anchor="middle" x="244" y="-175.5" font-family="Helvetica,sans-Serif" font-size="10.00">Camera/Camera2D.hpp</text>
</a>
</g>
</g>
<!-- Node11&#45;&gt;Node15 -->
<g id="edge21" class="edge">
<title>Node11&#45;&gt;Node15</title>
<path fill="none" stroke="midnightblue" d="M453.79,-224.68C410.63,-215.28 340.26,-199.96 293.06,-189.68"/>
<polygon fill="midnightblue" stroke="midnightblue" points="293.58,-186.21 283.07,-187.51 292.1,-193.05 293.58,-186.21"/>
</g>
<!-- Node18 -->
<g id="node18" class="node">
<title>Node18</title>
<g id="a_node18"><a xlink:href="Camera3D_8hpp.html" target="_top" xlink:title=" ">
<polygon fill="white" stroke="black" points="327.5,-168.5 327.5,-187.5 458.5,-187.5 458.5,-168.5 327.5,-168.5"/>
<text text-anchor="middle" x="393" y="-175.5" font-family="Helvetica,sans-Serif" font-size="10.00">Camera/Camera3D.hpp</text>
</a>
</g>
</g>
<!-- Node11&#45;&gt;Node18 -->
<g id="edge27" class="edge">
<title>Node11&#45;&gt;Node18</title>
<path fill="none" stroke="midnightblue" d="M476.09,-224.32C460.36,-215.74 436.06,-202.49 417.79,-192.52"/>
<polygon fill="midnightblue" stroke="midnightblue" points="419.32,-189.37 408.87,-187.65 415.97,-195.52 419.32,-189.37"/>
</g>
<!-- Node11&#45;&gt;Node21 -->
<g id="edge35" class="edge">
<title>Node11&#45;&gt;Node21</title>
<path fill="none" stroke="midnightblue" d="M530.33,-226.56C577.14,-218.58 658.96,-204.26 738.41,-188.26"/>
<polygon fill="midnightblue" stroke="midnightblue" points="739.48,-191.62 748.58,-186.2 738.09,-184.75 739.48,-191.62"/>
</g>
<!-- Node13&#45;&gt;Node8 -->
<g id="edge17" class="edge">
<title>Node13&#45;&gt;Node8</title>
<path fill="none" stroke="midnightblue" d="M674.43,-112.37C688.03,-94.14 719.86,-51.43 737.57,-27.68"/>
<polygon fill="midnightblue" stroke="midnightblue" points="740.42,-29.7 743.6,-19.59 734.81,-25.52 740.42,-29.7"/>
</g>
<!-- Node14&#45;&gt;Node4 -->
<g id="edge20" class="edge">
<title>Node14&#45;&gt;Node4</title>
<path fill="none" stroke="midnightblue" d="M705.53,-168.44C761.87,-157.62 857.67,-139.21 908.31,-129.47"/>
<polygon fill="midnightblue" stroke="midnightblue" points="909.24,-132.86 918.4,-127.54 907.92,-125.99 909.24,-132.86"/>
</g>
<!-- Node14&#45;&gt;Node8 -->
<g id="edge19" class="edge">
<title>Node14&#45;&gt;Node8</title>
<path fill="none" stroke="midnightblue" d="M683.62,-168.4C699.49,-161.15 719.8,-149.19 731,-132 751.44,-100.64 752.75,-55.19 751.58,-29.86"/>
<polygon fill="midnightblue" stroke="midnightblue" points="755.06,-29.51 750.92,-19.76 748.08,-29.97 755.06,-29.51"/>
</g>
<!-- Node15&#45;&gt;Node8 -->
<g id="edge22" class="edge">
<title>Node15&#45;&gt;Node8</title>
<path fill="none" stroke="midnightblue" d="M224.09,-168.41C209.78,-161.04 191.54,-148.92 183,-132 167.77,-101.85 160.08,-80.81 183,-56 218.94,-17.1 592.81,-11.8 713.01,-11.1"/>
<polygon fill="midnightblue" stroke="midnightblue" points="713.2,-14.6 723.18,-11.05 713.16,-7.6 713.2,-14.6"/>
</g>
<!-- Node15&#45;&gt;Node9 -->
<g id="edge23" class="edge">
<title>Node15&#45;&gt;Node9</title>
<path fill="none" stroke="midnightblue" d="M218.33,-168.44C191.08,-159.36 147.82,-144.94 117.35,-134.78"/>
<polygon fill="midnightblue" stroke="midnightblue" points="118.14,-131.36 107.55,-131.52 115.93,-138 118.14,-131.36"/>
</g>
<!-- Node16 -->
<g id="node16" class="node">
<title>Node16</title>
<g id="a_node16"><a xlink:href="ICamera_8hpp.html" target="_top" xlink:title=" ">
<polygon fill="white" stroke="black" points="192,-112.5 192,-131.5 312,-131.5 312,-112.5 192,-112.5"/>
<text text-anchor="middle" x="252" y="-119.5" font-family="Helvetica,sans-Serif" font-size="10.00">Camera/ICamera.hpp</text>
</a>
</g>
</g>
<!-- Node15&#45;&gt;Node16 -->
<g id="edge24" class="edge">
<title>Node15&#45;&gt;Node16</title>
<path fill="none" stroke="midnightblue" d="M245.32,-168.08C246.38,-160.93 247.91,-150.64 249.23,-141.69"/>
<polygon fill="midnightblue" stroke="midnightblue" points="252.7,-142.16 250.7,-131.75 245.78,-141.13 252.7,-142.16"/>
</g>
<!-- Node17 -->
<g id="node17" class="node">
<title>Node17</title>
<g id="a_node17"><a xlink:href="Matrix_8hpp.html" target="_top" xlink:title=" ">
<polygon fill="white" stroke="black" points="192.5,-56.5 192.5,-75.5 261.5,-75.5 261.5,-56.5 192.5,-56.5"/>
<text text-anchor="middle" x="227" y="-63.5" font-family="Helvetica,sans-Serif" font-size="10.00">Matrix.hpp</text>
</a>
</g>
</g>
<!-- Node16&#45;&gt;Node17 -->
<g id="edge25" class="edge">
<title>Node16&#45;&gt;Node17</title>
<path fill="none" stroke="midnightblue" d="M247.87,-112.08C244.49,-104.77 239.58,-94.18 235.38,-85.1"/>
<polygon fill="midnightblue" stroke="midnightblue" points="238.43,-83.36 231.05,-75.75 232.08,-86.3 238.43,-83.36"/>
</g>
<!-- Node17&#45;&gt;Node8 -->
<g id="edge26" class="edge">
<title>Node17&#45;&gt;Node8</title>
<path fill="none" stroke="midnightblue" d="M261.52,-57.57C264.72,-56.99 267.92,-56.46 271,-56 435.06,-31.59 632.83,-17.97 713.28,-13.09"/>
<polygon fill="midnightblue" stroke="midnightblue" points="713.62,-16.58 723.4,-12.49 713.2,-9.59 713.62,-16.58"/>
</g>
<!-- Node18&#45;&gt;Node8 -->
<g id="edge28" class="edge">
<title>Node18&#45;&gt;Node8</title>
<path fill="none" stroke="midnightblue" d="M412.57,-168.42C451.61,-151.25 541.9,-111.27 617,-76 654.29,-58.48 697.03,-37.42 723.78,-24.11"/>
<polygon fill="midnightblue" stroke="midnightblue" points="725.48,-27.18 732.87,-19.59 722.35,-20.91 725.48,-27.18"/>
</g>
<!-- Node18&#45;&gt;Node13 -->
<g id="edge29" class="edge">
<title>Node18&#45;&gt;Node13</title>
<path fill="none" stroke="midnightblue" d="M436.57,-168.44C484.85,-158.96 562.71,-143.67 614.61,-133.48"/>
<polygon fill="midnightblue" stroke="midnightblue" points="615.49,-136.88 624.63,-131.52 614.14,-130.01 615.49,-136.88"/>
</g>
<!-- Node18&#45;&gt;Node16 -->
<g id="edge30" class="edge">
<title>Node18&#45;&gt;Node16</title>
<path fill="none" stroke="midnightblue" d="M370.66,-168.44C347.25,-159.48 310.26,-145.31 283.81,-135.18"/>
<polygon fill="midnightblue" stroke="midnightblue" points="284.83,-131.82 274.24,-131.52 282.32,-138.36 284.83,-131.82"/>
</g>
<!-- Node19 -->
<g id="node19" class="node">
<title>Node19</title>
<g id="a_node19"><a xlink:href="CameraProjection_8hpp.html" target="_top" xlink:title=" ">
<polygon fill="white" stroke="black" points="280,-56.5 280,-75.5 446,-75.5 446,-56.5 280,-56.5"/>
<text text-anchor="middle" x="363" y="-63.5" font-family="Helvetica,sans-Serif" font-size="10.00">Camera/CameraProjection.hpp</text>
</a>
</g>
</g>
<!-- Node18&#45;&gt;Node19 -->
<g id="edge31" class="edge">
<title>Node18&#45;&gt;Node19</title>
<path fill="none" stroke="midnightblue" d="M390.65,-168.37C385.78,-150.54 374.54,-109.3 367.98,-85.27"/>
<polygon fill="midnightblue" stroke="midnightblue" points="371.35,-84.32 365.34,-75.59 364.6,-86.16 371.35,-84.32"/>
</g>
<!-- Node20 -->
<g id="node20" class="node">
<title>Node20</title>
<g id="a_node20"><a xlink:href="CameraMode_8hpp.html" target="_top" xlink:title=" ">
<polygon fill="white" stroke="black" points="464,-56.5 464,-75.5 608,-75.5 608,-56.5 464,-56.5"/>
<text text-anchor="middle" x="536" y="-63.5" font-family="Helvetica,sans-Serif" font-size="10.00">Camera/CameraMode.hpp</text>
</a>
</g>
</g>
<!-- Node18&#45;&gt;Node20 -->
<g id="edge33" class="edge">
<title>Node18&#45;&gt;Node20</title>
<path fill="none" stroke="midnightblue" d="M404.22,-168.37C428.55,-149.65 486.4,-105.15 516.72,-81.83"/>
<polygon fill="midnightblue" stroke="midnightblue" points="519.04,-84.46 524.83,-75.59 514.77,-78.91 519.04,-84.46"/>
</g>
<!-- Node19&#45;&gt;Node8 -->
<g id="edge32" class="edge">
<title>Node19&#45;&gt;Node8</title>
<path fill="none" stroke="midnightblue" d="M424.32,-56.44C505.65,-45.1 646.65,-25.42 713.2,-16.13"/>
<polygon fill="midnightblue" stroke="midnightblue" points="713.81,-19.58 723.23,-14.74 712.84,-12.65 713.81,-19.58"/>
</g>
<!-- Node20&#45;&gt;Node8 -->
<g id="edge34" class="edge">
<title>Node20&#45;&gt;Node8</title>
<path fill="none" stroke="midnightblue" d="M569.91,-56.44C609.05,-46.57 673.18,-30.38 713.42,-20.23"/>
<polygon fill="midnightblue" stroke="midnightblue" points="714.51,-23.57 723.35,-17.73 712.8,-16.78 714.51,-23.57"/>
</g>
<!-- Node21&#45;&gt;Node8 -->
<g id="edge36" class="edge">
<title>Node21&#45;&gt;Node8</title>
<path fill="none" stroke="midnightblue" d="M779.37,-168.4C777.8,-148.47 773.15,-97.6 764,-56 762.02,-47 759.07,-37.21 756.39,-29.06"/>
<polygon fill="midnightblue" stroke="midnightblue" points="759.67,-27.84 753.12,-19.51 753.05,-30.1 759.67,-27.84"/>
</g>
<!-- Node22&#45;&gt;Node4 -->
<g id="edge76" class="edge">
<title>Node22&#45;&gt;Node4</title>
<path fill="none" stroke="midnightblue" d="M1502.38,-510.39C1341.58,-501.42 853,-468.78 853,-403 853,-403 853,-403 853,-289 853,-233.61 902.73,-238.26 926,-188 932.87,-173.17 937.02,-155.02 939.36,-141.67"/>
<polygon fill="midnightblue" stroke="midnightblue" points="942.82,-142.19 940.93,-131.77 935.91,-141.1 942.82,-142.19"/>
</g>
<!-- Node22&#45;&gt;Node8 -->
<g id="edge72" class="edge">
<title>Node22&#45;&gt;Node8</title>
<path fill="none" stroke="midnightblue" d="M1603.56,-508.85C1745.94,-496.49 2140,-457.37 2140,-403 2140,-403 2140,-403 2140,-121 2140,-26.27 2030.31,-72.39 1937,-56 1707.96,-15.77 961.24,-11.5 786.71,-11.05"/>
<polygon fill="midnightblue" stroke="midnightblue" points="786.52,-7.55 776.52,-11.03 786.51,-14.55 786.52,-7.55"/>
</g>
<!-- Node22&#45;&gt;Node12 -->
<g id="edge77" class="edge">
<title>Node22&#45;&gt;Node12</title>
<path fill="none" stroke="midnightblue" d="M1502.43,-511.96C1361.33,-508.72 965.46,-497.22 839,-468 689.1,-433.36 662.29,-392 519,-336 374.16,-279.4 199.56,-216.58 127.55,-190.91"/>
<polygon fill="midnightblue" stroke="midnightblue" points="128.68,-187.6 118.08,-187.54 126.33,-194.19 128.68,-187.6"/>
</g>
<!-- Node23 -->
<g id="node23" class="node">
<title>Node23</title>
<g id="a_node23"><a xlink:href="Texture_8hpp.html" target="_top" xlink:title=" ">
<polygon fill="white" stroke="black" points="1415,-448.5 1415,-467.5 1543,-467.5 1543,-448.5 1415,-448.5"/>
<text text-anchor="middle" x="1479" y="-455.5" font-family="Helvetica,sans-Serif" font-size="10.00">Drawables/Texture.hpp</text>
</a>
</g>
</g>
<!-- Node22&#45;&gt;Node23 -->
<g id="edge39" class="edge">
<title>Node22&#45;&gt;Node23</title>
<path fill="none" stroke="midnightblue" d="M1541.11,-504.32C1529.85,-496.11 1512.71,-483.6 1499.29,-473.81"/>
<polygon fill="midnightblue" stroke="midnightblue" points="1501.25,-470.9 1491.11,-467.83 1497.12,-476.56 1501.25,-470.9"/>
</g>
<!-- Node24 -->
<g id="node24" class="node">
<title>Node24</title>
<g id="a_node24"><a xlink:href="Cache_8hpp.html" target="_top" xlink:title=" ">
<polygon fill="white" stroke="black" points="1316.5,-280.5 1316.5,-299.5 1409.5,-299.5 1409.5,-280.5 1316.5,-280.5"/>
<text text-anchor="middle" x="1363" y="-287.5" font-family="Helvetica,sans-Serif" font-size="10.00">Utils/Cache.hpp</text>
</a>
</g>
</g>
<!-- Node22&#45;&gt;Node24 -->
<g id="edge78" class="edge">
<title>Node22&#45;&gt;Node24</title>
<path fill="none" stroke="midnightblue" d="M1557.46,-504.28C1567.57,-483.19 1589.64,-428.47 1567,-392 1535.02,-340.48 1468.1,-314.44 1419.6,-301.84"/>
<polygon fill="midnightblue" stroke="midnightblue" points="1420.41,-298.43 1409.86,-299.42 1418.72,-305.23 1420.41,-298.43"/>
</g>
<!-- Node34 -->
<g id="node34" class="node">
<title>Node34</title>
<g id="a_node34"><a xlink:href="ADrawable3D_8hpp.html" target="_top" xlink:title=" ">
<polygon fill="white" stroke="black" points="666.5,-336.5 666.5,-355.5 825.5,-355.5 825.5,-336.5 666.5,-336.5"/>
<text text-anchor="middle" x="746" y="-343.5" font-family="Helvetica,sans-Serif" font-size="10.00">Drawables/ADrawable3D.hpp</text>
</a>
</g>
</g>
<!-- Node22&#45;&gt;Node34 -->
<g id="edge58" class="edge">
<title>Node22&#45;&gt;Node34</title>
<path fill="none" stroke="midnightblue" d="M1502.21,-508.62C1393.17,-498.41 1129.19,-469.46 915,-412 863.82,-398.27 806.77,-374.44 773.77,-359.76"/>
<polygon fill="midnightblue" stroke="midnightblue" points="774.89,-356.43 764.33,-355.52 772.02,-362.81 774.89,-356.43"/>
</g>
<!-- Node35 -->
<g id="node35" class="node">
<title>Node35</title>
<g id="a_node35"><a xlink:href="ModelAnimation_8hpp.html" target="_top" xlink:title=" ">
<polygon fill="white" stroke="black" points="1831.5,-280.5 1831.5,-299.5 1982.5,-299.5 1982.5,-280.5 1831.5,-280.5"/>
<text text-anchor="middle" x="1907" y="-287.5" font-family="Helvetica,sans-Serif" font-size="10.00">Model/ModelAnimation.hpp</text>
</a>
</g>
</g>
<!-- Node22&#45;&gt;Node35 -->
<g id="edge62" class="edge">
<title>Node22&#45;&gt;Node35</title>
<path fill="none" stroke="midnightblue" d="M1578.7,-504.46C1601.51,-496.43 1635.42,-483.35 1663,-468 1753.55,-417.6 1850.01,-339.26 1889.06,-306.37"/>
<polygon fill="midnightblue" stroke="midnightblue" points="1891.54,-308.85 1896.9,-299.71 1887.01,-303.51 1891.54,-308.85"/>
</g>
<!-- Node36 -->
<g id="node36" class="node">
<title>Node36</title>
<g id="a_node36"><a xlink:href="Shaders_8hpp.html" target="_top" xlink:title=" ">
<polygon fill="white" stroke="black" points="1655.5,-336.5 1655.5,-355.5 1774.5,-355.5 1774.5,-336.5 1655.5,-336.5"/>
<text text-anchor="middle" x="1715" y="-343.5" font-family="Helvetica,sans-Serif" font-size="10.00">Shaders/Shaders.hpp</text>
</a>
</g>
</g>
<!-- Node22&#45;&gt;Node36 -->
<g id="edge65" class="edge">
<title>Node22&#45;&gt;Node36</title>
<path fill="none" stroke="midnightblue" d="M1577.99,-504.49C1596.94,-497.1 1622.75,-484.91 1641,-468 1673.39,-437.99 1696.71,-390.66 1707.77,-365"/>
<polygon fill="midnightblue" stroke="midnightblue" points="1711.02,-366.3 1711.64,-355.72 1704.56,-363.6 1711.02,-366.3"/>
</g>
<!-- Node38 -->
<g id="node38" class="node">
<title>Node38</title>
<g id="a_node38"><a xlink:href="AMesh_8hpp.html" target="_top" xlink:title=" ">
<polygon fill="white" stroke="black" points="2000.5,-280.5 2000.5,-299.5 2111.5,-299.5 2111.5,-280.5 2000.5,-280.5"/>
<text text-anchor="middle" x="2056" y="-287.5" font-family="Helvetica,sans-Serif" font-size="10.00">Meshes/AMesh.hpp</text>
</a>
</g>
</g>
<!-- Node22&#45;&gt;Node38 -->
<g id="edge73" class="edge">
<title>Node22&#45;&gt;Node38</title>
<path fill="none" stroke="midnightblue" d="M1583.53,-504.45C1611.99,-496.17 1655.41,-482.73 1692,-468 1823.25,-415.15 1973.22,-335.94 2031.26,-304.53"/>
<polygon fill="midnightblue" stroke="midnightblue" points="2033.27,-307.42 2040.39,-299.57 2029.93,-301.27 2033.27,-307.42"/>
</g>
<!-- Node23&#45;&gt;Node5 -->
<g id="edge41" class="edge">
<title>Node23&#45;&gt;Node5</title>
<path fill="none" stroke="midnightblue" d="M1414.7,-453.21C1298.19,-442.48 1054.42,-401.35 948,-244 927.93,-214.32 980.31,-195.2 1016.92,-185.83"/>
<polygon fill="midnightblue" stroke="midnightblue" points="1017.86,-189.21 1026.76,-183.45 1016.22,-182.4 1017.86,-189.21"/>
</g>
<!-- Node23&#45;&gt;Node8 -->
<g id="edge40" class="edge">
<title>Node23&#45;&gt;Node8</title>
<path fill="none" stroke="midnightblue" d="M1543.3,-452.85C1612.18,-444.97 1720.18,-422.12 1784,-356 1804.9,-334.34 1803,-321.1 1803,-291 1803,-291 1803,-291 1803,-121 1803,-66.87 1751.63,-72.26 1700,-56 1611.87,-28.24 951.58,-14.62 787.05,-11.64"/>
<polygon fill="midnightblue" stroke="midnightblue" points="787,-8.14 776.94,-11.46 786.87,-15.14 787,-8.14"/>
</g>
<!-- Node23&#45;&gt;Node24 -->
<g id="edge42" class="edge">
<title>Node23&#45;&gt;Node24</title>
<path fill="none" stroke="midnightblue" d="M1447.73,-448.43C1428.6,-441.61 1405.15,-430.13 1391,-412 1367.53,-381.93 1363.13,-335.64 1362.65,-309.9"/>
<polygon fill="midnightblue" stroke="midnightblue" points="1366.15,-309.66 1362.65,-299.66 1359.15,-309.66 1366.15,-309.66"/>
</g>
<!-- Node33 -->
<g id="node33" class="node">
<title>Node33</title>
<g id="a_node33"><a xlink:href="Rectangle_8hpp.html" target="_top" xlink:title=" ">
<polygon fill="white" stroke="black" points="1400,-392.5 1400,-411.5 1558,-411.5 1558,-392.5 1400,-392.5"/>
<text text-anchor="middle" x="1479" y="-399.5" font-family="Helvetica,sans-Serif" font-size="10.00">Drawables/2D/Rectangle.hpp</text>
</a>
</g>
</g>
<!-- Node23&#45;&gt;Node33 -->
<g id="edge55" class="edge">
<title>Node23&#45;&gt;Node33</title>
<path fill="none" stroke="midnightblue" d="M1479,-448.08C1479,-441.01 1479,-430.86 1479,-421.99"/>
<polygon fill="midnightblue" stroke="midnightblue" points="1482.5,-421.75 1479,-411.75 1475.5,-421.75 1482.5,-421.75"/>
</g>
<!-- Node24&#45;&gt;Node4 -->
<g id="edge51" class="edge">
<title>Node24&#45;&gt;Node4</title>
<path fill="none" stroke="midnightblue" d="M1316.36,-287.38C1213.08,-283.33 972.26,-271.04 948,-244 942.06,-237.38 945.19,-232.43 948,-224 954.32,-205.03 968.68,-206.97 975,-188 977.81,-179.57 977.77,-176.45 975,-168 971.51,-157.34 964.43,-147.12 957.71,-139.12"/>
<polygon fill="midnightblue" stroke="midnightblue" points="960.3,-136.76 951.02,-131.66 955.1,-141.44 960.3,-136.76"/>
</g>
<!-- Node24&#45;&gt;Node5 -->
<g id="edge53" class="edge">
<title>Node24&#45;&gt;Node5</title>
<path fill="none" stroke="midnightblue" d="M1316.4,-288.1C1241.97,-285.69 1100.95,-276.8 1065,-244 1052.28,-232.39 1048.92,-212.43 1048.35,-197.69"/>
<polygon fill="midnightblue" stroke="midnightblue" points="1051.85,-197.65 1048.35,-187.65 1044.85,-197.65 1051.85,-197.65"/>
</g>
<!-- Node24&#45;&gt;Node8 -->
<g id="edge47" class="edge">
<title>Node24&#45;&gt;Node8</title>
<path fill="none" stroke="midnightblue" d="M1409.67,-283.69C1460.35,-277 1536.9,-263.91 1558,-244 1579.89,-223.34 1577,-209.1 1577,-179 1577,-179 1577,-179 1577,-121 1577,-40.12 947.4,-16.64 786.89,-11.96"/>
<polygon fill="midnightblue" stroke="midnightblue" points="786.67,-8.46 776.58,-11.67 786.48,-15.45 786.67,-8.46"/>
</g>
<!-- Node25 -->
<g id="node25" class="node">
<title>Node25</title>
<g id="a_node25"><a xlink:title=" ">
<polygon fill="white" stroke="#bfbfbf" points="1831,-224.5 1831,-243.5 1889,-243.5 1889,-224.5 1831,-224.5"/>
<text text-anchor="middle" x="1860" y="-231.5" font-family="Helvetica,sans-Serif" font-size="10.00">memory</text>
</a>
</g>
</g>
<!-- Node24&#45;&gt;Node25 -->
<g id="edge43" class="edge">
<title>Node24&#45;&gt;Node25</title>
<path fill="none" stroke="midnightblue" d="M1409.76,-283.92C1507.15,-273.34 1730.21,-249.1 1820.74,-239.27"/>
<polygon fill="midnightblue" stroke="midnightblue" points="1821.29,-242.73 1830.85,-238.17 1820.53,-235.77 1821.29,-242.73"/>
</g>
<!-- Node26 -->
<g id="node26" class="node">
<title>Node26</title>
<g id="a_node26"><a xlink:title=" ">
<polygon fill="white" stroke="#bfbfbf" points="1073.5,-224.5 1073.5,-243.5 1166.5,-243.5 1166.5,-224.5 1073.5,-224.5"/>
<text text-anchor="middle" x="1120" y="-231.5" font-family="Helvetica,sans-Serif" font-size="10.00">unordered_map</text>
</a>
</g>
</g>
<!-- Node24&#45;&gt;Node26 -->
<g id="edge44" class="edge">
<title>Node24&#45;&gt;Node26</title>
<path fill="none" stroke="midnightblue" d="M1324.5,-280.44C1282.19,-271.04 1214.18,-255.93 1168.33,-245.74"/>
<polygon fill="midnightblue" stroke="midnightblue" points="1168.85,-242.27 1158.32,-243.52 1167.33,-249.1 1168.85,-242.27"/>
</g>
<!-- Node27 -->
<g id="node27" class="node">
<title>Node27</title>
<g id="a_node27"><a xlink:title=" ">
<polygon fill="white" stroke="#bfbfbf" points="1184.5,-224.5 1184.5,-243.5 1249.5,-243.5 1249.5,-224.5 1184.5,-224.5"/>
<text text-anchor="middle" x="1217" y="-231.5" font-family="Helvetica,sans-Serif" font-size="10.00">functional</text>
</a>
</g>
</g>
<!-- Node24&#45;&gt;Node27 -->
<g id="edge45" class="edge">
<title>Node24&#45;&gt;Node27</title>
<path fill="none" stroke="midnightblue" d="M1339.87,-280.44C1315.52,-271.44 1276.99,-257.19 1249.58,-247.05"/>
<polygon fill="midnightblue" stroke="midnightblue" points="1250.62,-243.7 1240.03,-243.52 1248.19,-250.27 1250.62,-243.7"/>
</g>
<!-- Node28 -->
<g id="node28" class="node">
<title>Node28</title>
<g id="a_node28"><a xlink:title=" ">
<polygon fill="white" stroke="#bfbfbf" points="1267.5,-224.5 1267.5,-243.5 1312.5,-243.5 1312.5,-224.5 1267.5,-224.5"/>
<text text-anchor="middle" x="1290" y="-231.5" font-family="Helvetica,sans-Serif" font-size="10.00">utility</text>
</a>
</g>
</g>
<!-- Node24&#45;&gt;Node28 -->
<g id="edge46" class="edge">
<title>Node24&#45;&gt;Node28</title>
<path fill="none" stroke="midnightblue" d="M1351.27,-280.32C1340.16,-272.11 1323.26,-259.6 1310.02,-249.81"/>
<polygon fill="midnightblue" stroke="midnightblue" points="1312.06,-246.97 1301.94,-243.83 1307.9,-252.59 1312.06,-246.97"/>
</g>
<!-- Node29 -->
<g id="node29" class="node">
<title>Node29</title>
<g id="a_node29"><a xlink:href="RayError_8hpp.html" target="_top" xlink:title=" ">
<polygon fill="white" stroke="black" points="1413.5,-224.5 1413.5,-243.5 1548.5,-243.5 1548.5,-224.5 1413.5,-224.5"/>
<text text-anchor="middle" x="1481" y="-231.5" font-family="Helvetica,sans-Serif" font-size="10.00">Exceptions/RayError.hpp</text>
</a>
</g>
</g>
<!-- Node24&#45;&gt;Node29 -->
<g id="edge48" class="edge">
<title>Node24&#45;&gt;Node29</title>
<path fill="none" stroke="midnightblue" d="M1381.7,-280.44C1400.94,-271.64 1431.15,-257.81 1453.2,-247.72"/>
<polygon fill="midnightblue" stroke="midnightblue" points="1454.75,-250.86 1462.39,-243.52 1451.84,-244.5 1454.75,-250.86"/>
</g>
<!-- Node31 -->
<g id="node31" class="node">
<title>Node31</title>
<g id="a_node31"><a xlink:title=" ">
<polygon fill="white" stroke="#bfbfbf" points="1331,-224.5 1331,-243.5 1395,-243.5 1395,-224.5 1331,-224.5"/>
<text text-anchor="middle" x="1363" y="-231.5" font-family="Helvetica,sans-Serif" font-size="10.00">algorithm</text>
</a>
</g>
</g>
<!-- Node24&#45;&gt;Node31 -->
<g id="edge52" class="edge">
<title>Node24&#45;&gt;Node31</title>
<path fill="none" stroke="midnightblue" d="M1363,-280.08C1363,-273.01 1363,-262.86 1363,-253.99"/>
<polygon fill="midnightblue" stroke="midnightblue" points="1366.5,-253.75 1363,-243.75 1359.5,-253.75 1366.5,-253.75"/>
</g>
<!-- Node32 -->
<g id="node32" class="node">
<title>Node32</title>
<g id="a_node32"><a xlink:title=" ">
<polygon fill="white" stroke="#bfbfbf" points="957,-224.5 957,-243.5 1017,-243.5 1017,-224.5 957,-224.5"/>
<text text-anchor="middle" x="987" y="-231.5" font-family="Helvetica,sans-Serif" font-size="10.00">iostream</text>
</a>
</g>
</g>
<!-- Node24&#45;&gt;Node32 -->
<g id="edge54" class="edge">
<title>Node24&#45;&gt;Node32</title>
<path fill="none" stroke="midnightblue" d="M1316.39,-283.68C1252.02,-276.11 1132.36,-261.22 1031,-244 1029.75,-243.79 1028.47,-243.56 1027.19,-243.33"/>
<polygon fill="midnightblue" stroke="midnightblue" points="1027.72,-239.87 1017.25,-241.46 1026.43,-246.75 1027.72,-239.87"/>
</g>
<!-- Node29&#45;&gt;Node5 -->
<g id="edge50" class="edge">
<title>Node29&#45;&gt;Node5</title>
<path fill="none" stroke="midnightblue" d="M1413.02,-224.5C1318.55,-212.69 1151.29,-191.79 1081.26,-183.03"/>
<polygon fill="midnightblue" stroke="midnightblue" points="1081.62,-179.55 1071.26,-181.78 1080.75,-186.5 1081.62,-179.55"/>
</g>
<!-- Node30 -->
<g id="node30" class="node">
<title>Node30</title>
<g id="a_node30"><a xlink:title=" ">
<polygon fill="white" stroke="#bfbfbf" points="1448.5,-168.5 1448.5,-187.5 1513.5,-187.5 1513.5,-168.5 1448.5,-168.5"/>
<text text-anchor="middle" x="1481" y="-175.5" font-family="Helvetica,sans-Serif" font-size="10.00">stdexcept</text>
</a>
</g>
</g>
<!-- Node29&#45;&gt;Node30 -->
<g id="edge49" class="edge">
<title>Node29&#45;&gt;Node30</title>
<path fill="none" stroke="midnightblue" d="M1481,-224.08C1481,-217.01 1481,-206.86 1481,-197.99"/>
<polygon fill="midnightblue" stroke="midnightblue" points="1484.5,-197.75 1481,-187.75 1477.5,-197.75 1484.5,-197.75"/>
</g>
<!-- Node33&#45;&gt;Node7 -->
<g id="edge57" class="edge">
<title>Node33&#45;&gt;Node7</title>
<path fill="none" stroke="midnightblue" d="M1399.8,-396.92C1208.57,-387.07 722.55,-362.02 520.86,-351.63"/>
<polygon fill="midnightblue" stroke="midnightblue" points="520.76,-348.12 510.6,-351.1 520.4,-355.11 520.76,-348.12"/>
</g>
<!-- Node33&#45;&gt;Node8 -->
<g id="edge56" class="edge">
<title>Node33&#45;&gt;Node8</title>
<path fill="none" stroke="midnightblue" d="M1493.24,-392.41C1534.8,-366.14 1653,-282.33 1653,-179 1653,-179 1653,-179 1653,-121 1653,-62.68 1594.93,-72.54 1539,-56 1395.37,-13.52 922.82,-10.77 786.88,-10.88"/>
<polygon fill="midnightblue" stroke="midnightblue" points="786.59,-7.38 776.59,-10.89 786.6,-14.38 786.59,-7.38"/>
</g>
<!-- Node34&#45;&gt;Node8 -->
<g id="edge59" class="edge">
<title>Node34&#45;&gt;Node8</title>
<path fill="none" stroke="midnightblue" d="M825.72,-342.36C978.61,-336.87 1307.72,-322.76 1419,-300 1519.3,-279.49 1615,-281.37 1615,-179 1615,-179 1615,-179 1615,-121 1615,-45.48 1531.57,-73.07 1458,-56 1328.45,-25.94 913.64,-14.57 787.04,-11.75"/>
<polygon fill="midnightblue" stroke="midnightblue" points="786.79,-8.25 776.72,-11.53 786.64,-15.24 786.79,-8.25"/>
</g>
<!-- Node34&#45;&gt;Node10 -->
<g id="edge60" class="edge">
<title>Node34&#45;&gt;Node10</title>
<path fill="none" stroke="midnightblue" d="M707.97,-336.44C666.19,-327.04 599.02,-311.93 553.73,-301.74"/>
<polygon fill="midnightblue" stroke="midnightblue" points="554.38,-298.3 543.85,-299.52 552.84,-305.13 554.38,-298.3"/>
</g>
<!-- Node34&#45;&gt;Node21 -->
<g id="edge61" class="edge">
<title>Node34&#45;&gt;Node21</title>
<path fill="none" stroke="midnightblue" d="M731.53,-336.21C700.58,-316.28 632.98,-266.12 662,-224 671.14,-210.74 708.64,-197.88 738.95,-189.33"/>
<polygon fill="midnightblue" stroke="midnightblue" points="740.18,-192.62 748.9,-186.6 738.33,-185.87 740.18,-192.62"/>
</g>
<!-- Node35&#45;&gt;Node8 -->
<g id="edge63" class="edge">
<title>Node35&#45;&gt;Node8</title>
<path fill="none" stroke="midnightblue" d="M1908.31,-280.47C1911.02,-262.01 1917,-216.97 1917,-179 1917,-179 1917,-179 1917,-121 1917,-67.99 1867.49,-72.13 1817,-56 1717.26,-24.13 962.8,-13.47 786.68,-11.4"/>
<polygon fill="midnightblue" stroke="midnightblue" points="786.66,-7.9 776.62,-11.28 786.58,-14.9 786.66,-7.9"/>
</g>
<!-- Node35&#45;&gt;Node25 -->
<g id="edge64" class="edge">
<title>Node35&#45;&gt;Node25</title>
<path fill="none" stroke="midnightblue" d="M1899.24,-280.08C1892.46,-272.3 1882.46,-260.8 1874.24,-251.37"/>
<polygon fill="midnightblue" stroke="midnightblue" points="1876.82,-249 1867.62,-243.75 1871.54,-253.59 1876.82,-249"/>
</g>
<!-- Node36&#45;&gt;Node5 -->
<g id="edge66" class="edge">
<title>Node36&#45;&gt;Node5</title>
<path fill="none" stroke="midnightblue" d="M1702.29,-336.25C1689.45,-327.34 1669.12,-313.02 1652,-300 1609.23,-267.48 1607.81,-244.13 1558,-224 1470.89,-188.8 1179.49,-181.04 1081.48,-179.41"/>
<polygon fill="midnightblue" stroke="midnightblue" points="1081.34,-175.91 1071.29,-179.25 1081.24,-182.91 1081.34,-175.91"/>
</g>
<!-- Node36&#45;&gt;Node8 -->
<g id="edge69" class="edge">
<title>Node36&#45;&gt;Node8</title>
<path fill="none" stroke="midnightblue" d="M1716.24,-336.38C1719.67,-311.84 1729,-239.45 1729,-179 1729,-179 1729,-179 1729,-121 1729,-81.08 1703.31,-72.61 1667,-56 1586.06,-18.97 948.24,-12.3 786.96,-11.2"/>
<polygon fill="midnightblue" stroke="midnightblue" points="786.63,-7.7 776.61,-11.14 786.58,-14.7 786.63,-7.7"/>
</g>
<!-- Node36&#45;&gt;Node13 -->
<g id="edge71" class="edge">
<title>Node36&#45;&gt;Node13</title>
<path fill="none" stroke="midnightblue" d="M1655.18,-343.26C1460.47,-336.97 846.7,-312.09 662,-244 615.98,-227.04 556.6,-209.95 582,-168 591.41,-152.46 608.15,-142.02 624.38,-135.15"/>
<polygon fill="midnightblue" stroke="midnightblue" points="625.75,-138.37 633.82,-131.51 623.23,-131.85 625.75,-138.37"/>
</g>
<!-- Node36&#45;&gt;Node24 -->
<g id="edge70" class="edge">
<title>Node36&#45;&gt;Node24</title>
<path fill="none" stroke="midnightblue" d="M1659.22,-336.44C1593.72,-326.39 1485.64,-309.81 1419.73,-299.7"/>
<polygon fill="midnightblue" stroke="midnightblue" points="1419.94,-296.19 1409.52,-298.14 1418.88,-303.11 1419.94,-296.19"/>
</g>
<!-- Node36&#45;&gt;Node25 -->
<g id="edge67" class="edge">
<title>Node36&#45;&gt;Node25</title>
<path fill="none" stroke="midnightblue" d="M1726.38,-336.37C1751.05,-317.65 1809.71,-273.15 1840.45,-249.83"/>
<polygon fill="midnightblue" stroke="midnightblue" points="1842.82,-252.42 1848.67,-243.59 1838.59,-246.85 1842.82,-252.42"/>
</g>
<!-- Node37 -->
<g id="node37" class="node">
<title>Node37</title>
<g id="a_node37"><a xlink:title=" ">
<polygon fill="white" stroke="#bfbfbf" points="1661,-280.5 1661,-299.5 1699,-299.5 1699,-280.5 1661,-280.5"/>
<text text-anchor="middle" x="1680" y="-287.5" font-family="Helvetica,sans-Serif" font-size="10.00">map</text>
</a>
</g>
</g>
<!-- Node36&#45;&gt;Node37 -->
<g id="edge68" class="edge">
<title>Node36&#45;&gt;Node37</title>
<path fill="none" stroke="midnightblue" d="M1709.22,-336.08C1704.33,-328.53 1697.17,-317.49 1691.17,-308.23"/>
<polygon fill="midnightblue" stroke="midnightblue" points="1694.05,-306.24 1685.67,-299.75 1688.17,-310.05 1694.05,-306.24"/>
</g>
<!-- Node38&#45;&gt;Node8 -->
<g id="edge74" class="edge">
<title>Node38&#45;&gt;Node8</title>
<path fill="none" stroke="midnightblue" d="M2049.05,-280.48C2035.31,-262.75 2006,-220.12 2006,-179 2006,-179 2006,-179 2006,-121 2006,-52.4 1932.68,-72.14 1866,-56 1759.29,-30.17 967.87,-14.82 786.82,-11.63"/>
<polygon fill="midnightblue" stroke="midnightblue" points="786.8,-8.13 776.74,-11.45 786.67,-15.12 786.8,-8.13"/>
</g>
<!-- Node38&#45;&gt;Node25 -->
<g id="edge75" class="edge">
<title>Node38&#45;&gt;Node25</title>
<path fill="none" stroke="midnightblue" d="M2024.94,-280.44C1990.9,-271.07 1936.22,-256 1899.24,-245.81"/>
<polygon fill="midnightblue" stroke="midnightblue" points="1899.88,-242.36 1889.31,-243.08 1898.02,-249.11 1899.88,-242.36"/>
</g>
</g>
</svg>
