<?xml version="1.0" encoding="UTF-8" standalone="no"?>
<!DOCTYPE svg PUBLIC "-//W3C//DTD SVG 1.1//EN"
 "http://www.w3.org/Graphics/SVG/1.1/DTD/svg11.dtd">
<!-- Generated by graphviz version 2.43.0 (0)
 -->
<!-- Title: sources/Component/Renderer/Drawable2DComponent.hpp Pages: 1 -->
<svg width="3578pt" height="240pt"
 viewBox="0.00 0.00 3578.00 240.00" xmlns="http://www.w3.org/2000/svg" xmlns:xlink="http://www.w3.org/1999/xlink">
<g id="graph0" class="graph" transform="scale(1 1) rotate(0) translate(4 236)">
<title>sources/Component/Renderer/Drawable2DComponent.hpp</title>
<polygon fill="white" stroke="transparent" points="-4,4 -4,-236 3574,-236 3574,4 -4,4"/>
<!-- Node1 -->
<g id="node1" class="node">
<title>Node1</title>
<g id="a_node1"><a xlink:title=" ">
<polygon fill="#bfbfbf" stroke="black" points="1619,-201.5 1619,-231.5 1780,-231.5 1780,-201.5 1619,-201.5"/>
<text text-anchor="start" x="1627" y="-219.5" font-family="Helvetica,sans-Serif" font-size="10.00">sources/Component/Renderer</text>
<text text-anchor="middle" x="1699.5" y="-208.5" font-family="Helvetica,sans-Serif" font-size="10.00">/Drawable2DComponent.hpp</text>
</a>
</g>
</g>
<!-- Node2 -->
<g id="node2" class="node">
<title>Node2</title>
<g id="a_node2"><a xlink:href="StatComponent_8hpp.html" target="_top" xlink:title=" ">
<polygon fill="white" stroke="black" points="329.5,-134.5 329.5,-164.5 465.5,-164.5 465.5,-134.5 329.5,-134.5"/>
<text text-anchor="start" x="337.5" y="-152.5" font-family="Helvetica,sans-Serif" font-size="10.00">sources/Component/Stat</text>
<text text-anchor="middle" x="397.5" y="-141.5" font-family="Helvetica,sans-Serif" font-size="10.00">/StatComponent.hpp</text>
</a>
</g>
</g>
<!-- Node1&#45;&gt;Node2 -->
<g id="edge1" class="edge">
<title>Node1&#45;&gt;Node2</title>
<path fill="none" stroke="midnightblue" d="M1608.7,-212.8C1415.88,-206.78 951.34,-190.71 562.5,-165 530.65,-162.89 495.4,-159.89 465.69,-157.16"/>
<polygon fill="midnightblue" stroke="midnightblue" points="1608.68,-216.3 1618.79,-213.12 1608.9,-209.31 1608.68,-216.3"/>
</g>
<!-- Node4 -->
<g id="node4" class="node">
<title>Node4</title>
<g id="a_node4"><a xlink:href="SettingsMenuScene_8cpp.html" target="_top" xlink:title=" ">
<polygon fill="white" stroke="black" points="0,-67.5 0,-97.5 161,-97.5 161,-67.5 0,-67.5"/>
<text text-anchor="start" x="8" y="-85.5" font-family="Helvetica,sans-Serif" font-size="10.00">sources/Runner/SettingsMenu</text>
<text text-anchor="middle" x="80.5" y="-74.5" font-family="Helvetica,sans-Serif" font-size="10.00">Scene.cpp</text>
</a>
</g>
</g>
<!-- Node1&#45;&gt;Node4 -->
<g id="edge16" class="edge">
<title>Node1&#45;&gt;Node4</title>
<path fill="none" stroke="midnightblue" d="M1608.5,-215.61C1342.38,-215.37 568.7,-210.67 320.5,-165 243.47,-150.82 157.53,-116.96 112.31,-97.64"/>
<polygon fill="midnightblue" stroke="midnightblue" points="1608.89,-219.11 1618.9,-215.61 1608.9,-212.11 1608.89,-219.11"/>
</g>
<!-- Node5 -->
<g id="node5" class="node">
<title>Node5</title>
<g id="a_node5"><a xlink:href="BonusUISystem_8hpp.html" target="_top" xlink:title=" ">
<polygon fill="white" stroke="black" points="334,-67.5 334,-97.5 461,-97.5 461,-67.5 334,-67.5"/>
<text text-anchor="start" x="342" y="-85.5" font-family="Helvetica,sans-Serif" font-size="10.00">sources/System/Bonus</text>
<text text-anchor="middle" x="397.5" y="-74.5" font-family="Helvetica,sans-Serif" font-size="10.00">/BonusUISystem.hpp</text>
</a>
</g>
</g>
<!-- Node1&#45;&gt;Node5 -->
<g id="edge19" class="edge">
<title>Node1&#45;&gt;Node5</title>
<path fill="none" stroke="midnightblue" d="M1608.76,-214.52C1386.44,-211.57 819.19,-200.7 633.5,-165 557.73,-150.43 473.23,-116.72 428.77,-97.53"/>
<polygon fill="midnightblue" stroke="midnightblue" points="1608.72,-218.02 1618.76,-214.65 1608.81,-211.02 1608.72,-218.02"/>
</g>
<!-- Node8 -->
<g id="node8" class="node">
<title>Node8</title>
<g id="a_node8"><a xlink:href="LobbySystem_8cpp.html" target="_top" xlink:title=" ">
<polygon fill="white" stroke="black" points="479.5,-67.5 479.5,-97.5 605.5,-97.5 605.5,-67.5 479.5,-67.5"/>
<text text-anchor="start" x="487.5" y="-85.5" font-family="Helvetica,sans-Serif" font-size="10.00">sources/System/Lobby</text>
<text text-anchor="middle" x="542.5" y="-74.5" font-family="Helvetica,sans-Serif" font-size="10.00">/LobbySystem.cpp</text>
</a>
</g>
</g>
<!-- Node1&#45;&gt;Node8 -->
<g id="edge21" class="edge">
<title>Node1&#45;&gt;Node8</title>
<path fill="none" stroke="midnightblue" d="M1608.81,-215.32C1398.56,-214.17 883.03,-207.02 715.5,-165 658.18,-150.62 596.93,-116.84 564.93,-97.58"/>
<polygon fill="midnightblue" stroke="midnightblue" points="1608.88,-218.82 1618.89,-215.37 1608.91,-211.82 1608.88,-218.82"/>
</g>
<!-- Node9 -->
<g id="node9" class="node">
<title>Node9</title>
<g id="a_node9"><a xlink:href="ParserYaml_8cpp.html" target="_top" xlink:title=" ">
<polygon fill="white" stroke="black" points="1251.5,-140 1251.5,-159 1415.5,-159 1415.5,-140 1251.5,-140"/>
<text text-anchor="middle" x="1333.5" y="-147" font-family="Helvetica,sans-Serif" font-size="10.00">sources/Parser/ParserYaml.cpp</text>
</a>
</g>
</g>
<!-- Node1&#45;&gt;Node9 -->
<g id="edge8" class="edge">
<title>Node1&#45;&gt;Node9</title>
<path fill="none" stroke="midnightblue" d="M1610.54,-199.7C1538.43,-186.9 1439.57,-169.34 1381.52,-159.03"/>
<polygon fill="midnightblue" stroke="midnightblue" points="1610.08,-203.17 1620.53,-201.48 1611.3,-196.28 1610.08,-203.17"/>
</g>
<!-- Node10 -->
<g id="node10" class="node">
<title>Node10</title>
<g id="a_node10"><a xlink:href="CreditScene_8cpp.html" target="_top" xlink:title=" ">
<polygon fill="white" stroke="black" points="1434,-140 1434,-159 1607,-159 1607,-140 1434,-140"/>
<text text-anchor="middle" x="1520.5" y="-147" font-family="Helvetica,sans-Serif" font-size="10.00">sources/Runner/CreditScene.cpp</text>
</a>
</g>
</g>
<!-- Node1&#45;&gt;Node10 -->
<g id="edge9" class="edge">
<title>Node1&#45;&gt;Node10</title>
<path fill="none" stroke="midnightblue" d="M1651.16,-197.95C1616.39,-185.32 1571.03,-168.85 1543.93,-159.01"/>
<polygon fill="midnightblue" stroke="midnightblue" points="1650.07,-201.27 1660.66,-201.4 1652.45,-194.69 1650.07,-201.27"/>
</g>
<!-- Node11 -->
<g id="node11" class="node">
<title>Node11</title>
<g id="a_node11"><a xlink:href="HowToPlayScene_8cpp.html" target="_top" xlink:title=" ">
<polygon fill="white" stroke="black" points="1625.5,-134.5 1625.5,-164.5 1773.5,-164.5 1773.5,-134.5 1625.5,-134.5"/>
<text text-anchor="start" x="1633.5" y="-152.5" font-family="Helvetica,sans-Serif" font-size="10.00">sources/Runner/HowToPlay</text>
<text text-anchor="middle" x="1699.5" y="-141.5" font-family="Helvetica,sans-Serif" font-size="10.00">Scene.cpp</text>
</a>
</g>
</g>
<!-- Node1&#45;&gt;Node11 -->
<g id="edge10" class="edge">
<title>Node1&#45;&gt;Node11</title>
<path fill="none" stroke="midnightblue" d="M1699.5,-191.11C1699.5,-182.15 1699.5,-172.32 1699.5,-164.58"/>
<polygon fill="midnightblue" stroke="midnightblue" points="1696,-191.4 1699.5,-201.4 1703,-191.4 1696,-191.4"/>
</g>
<!-- Node12 -->
<g id="node12" class="node">
<title>Node12</title>
<g id="a_node12"><a xlink:href="LobbyScene_8cpp.html" target="_top" xlink:title=" ">
<polygon fill="white" stroke="black" points="1792,-140 1792,-159 1965,-159 1965,-140 1792,-140"/>
<text text-anchor="middle" x="1878.5" y="-147" font-family="Helvetica,sans-Serif" font-size="10.00">sources/Runner/LobbyScene.cpp</text>
</a>
</g>
</g>
<!-- Node1&#45;&gt;Node12 -->
<g id="edge11" class="edge">
<title>Node1&#45;&gt;Node12</title>
<path fill="none" stroke="midnightblue" d="M1747.84,-197.95C1782.61,-185.32 1827.97,-168.85 1855.07,-159.01"/>
<polygon fill="midnightblue" stroke="midnightblue" points="1746.55,-194.69 1738.34,-201.4 1748.93,-201.27 1746.55,-194.69"/>
</g>
<!-- Node13 -->
<g id="node13" class="node">
<title>Node13</title>
<g id="a_node13"><a xlink:href="MainMenuScene_8cpp.html" target="_top" xlink:title=" ">
<polygon fill="white" stroke="black" points="1983,-140 1983,-159 2178,-159 2178,-140 1983,-140"/>
<text text-anchor="middle" x="2080.5" y="-147" font-family="Helvetica,sans-Serif" font-size="10.00">sources/Runner/MainMenuScene.cpp</text>
</a>
</g>
</g>
<!-- Node1&#45;&gt;Node13 -->
<g id="edge12" class="edge">
<title>Node1&#45;&gt;Node13</title>
<path fill="none" stroke="midnightblue" d="M1790.24,-200.02C1865.42,-187.19 1969.46,-169.44 2030.4,-159.05"/>
<polygon fill="midnightblue" stroke="midnightblue" points="1789.57,-196.58 1780.3,-201.72 1790.75,-203.48 1789.57,-196.58"/>
</g>
<!-- Node14 -->
<g id="node14" class="node">
<title>Node14</title>
<g id="a_node14"><a xlink:href="PauseMenuScene_8cpp.html" target="_top" xlink:title=" ">
<polygon fill="white" stroke="black" points="2195.5,-134.5 2195.5,-164.5 2345.5,-164.5 2345.5,-134.5 2195.5,-134.5"/>
<text text-anchor="start" x="2203.5" y="-152.5" font-family="Helvetica,sans-Serif" font-size="10.00">sources/Runner/PauseMenu</text>
<text text-anchor="middle" x="2270.5" y="-141.5" font-family="Helvetica,sans-Serif" font-size="10.00">Scene.cpp</text>
</a>
</g>
</g>
<!-- Node1&#45;&gt;Node14 -->
<g id="edge13" class="edge">
<title>Node1&#45;&gt;Node14</title>
<path fill="none" stroke="midnightblue" d="M1790.2,-208.02C1888.36,-199.49 2049.39,-184.19 2187.5,-165 2190.11,-164.64 2192.76,-164.25 2195.44,-163.86"/>
<polygon fill="midnightblue" stroke="midnightblue" points="1789.68,-204.55 1780.02,-208.9 1790.28,-211.53 1789.68,-204.55"/>
</g>
<!-- Node15 -->
<g id="node15" class="node">
<title>Node15</title>
<g id="a_node15"><a xlink:href="ResumeLobbyScene_8cpp.html" target="_top" xlink:title=" ">
<polygon fill="white" stroke="black" points="2363.5,-134.5 2363.5,-164.5 2527.5,-164.5 2527.5,-134.5 2363.5,-134.5"/>
<text text-anchor="start" x="2371.5" y="-152.5" font-family="Helvetica,sans-Serif" font-size="10.00">sources/Runner/ResumeLobby</text>
<text text-anchor="middle" x="2445.5" y="-141.5" font-family="Helvetica,sans-Serif" font-size="10.00">Scene.cpp</text>
</a>
</g>
</g>
<!-- Node1&#45;&gt;Node15 -->
<g id="edge14" class="edge">
<title>Node1&#45;&gt;Node15</title>
<path fill="none" stroke="midnightblue" d="M1790.16,-210.84C1916.78,-203.8 2153.65,-188.7 2354.5,-165 2357.36,-164.66 2360.27,-164.3 2363.2,-163.92"/>
<polygon fill="midnightblue" stroke="midnightblue" points="1789.91,-207.35 1780.12,-211.39 1790.3,-214.34 1789.91,-207.35"/>
</g>
<!-- Node16 -->
<g id="node16" class="node">
<title>Node16</title>
<g id="a_node16"><a xlink:href="ScoreScene_8cpp.html" target="_top" xlink:title=" ">
<polygon fill="white" stroke="black" points="2546,-140 2546,-159 2717,-159 2717,-140 2546,-140"/>
<text text-anchor="middle" x="2631.5" y="-147" font-family="Helvetica,sans-Serif" font-size="10.00">sources/Runner/ScoreScene.cpp</text>
</a>
</g>
</g>
<!-- Node1&#45;&gt;Node16 -->
<g id="edge15" class="edge">
<title>Node1&#45;&gt;Node16</title>
<path fill="none" stroke="midnightblue" d="M1790.56,-212.73C1944.54,-207.43 2266.04,-193.74 2536.5,-165 2551.1,-163.45 2566.89,-161.25 2581.32,-159.03"/>
<polygon fill="midnightblue" stroke="midnightblue" points="1790.08,-209.24 1780.21,-213.08 1790.32,-216.24 1790.08,-209.24"/>
</g>
<!-- Node17 -->
<g id="node17" class="node">
<title>Node17</title>
<g id="a_node17"><a xlink:href="SplashScreenScene_8cpp.html" target="_top" xlink:title=" ">
<polygon fill="white" stroke="black" points="2735.5,-134.5 2735.5,-164.5 2895.5,-164.5 2895.5,-134.5 2735.5,-134.5"/>
<text text-anchor="start" x="2743.5" y="-152.5" font-family="Helvetica,sans-Serif" font-size="10.00">sources/Runner/SplashScreen</text>
<text text-anchor="middle" x="2815.5" y="-141.5" font-family="Helvetica,sans-Serif" font-size="10.00">Scene.cpp</text>
</a>
</g>
</g>
<!-- Node1&#45;&gt;Node17 -->
<g id="edge17" class="edge">
<title>Node1&#45;&gt;Node17</title>
<path fill="none" stroke="midnightblue" d="M1790.48,-214.45C1969.96,-211.63 2382.13,-201.4 2726.5,-165 2729.3,-164.7 2732.15,-164.38 2735.02,-164.03"/>
<polygon fill="midnightblue" stroke="midnightblue" points="1790.24,-210.96 1780.29,-214.61 1790.34,-217.96 1790.24,-210.96"/>
</g>
<!-- Node18 -->
<g id="node18" class="node">
<title>Node18</title>
<g id="a_node18"><a xlink:href="TitleScreenScene_8cpp.html" target="_top" xlink:title=" ">
<polygon fill="white" stroke="black" points="2914,-134.5 2914,-164.5 3063,-164.5 3063,-134.5 2914,-134.5"/>
<text text-anchor="start" x="2922" y="-152.5" font-family="Helvetica,sans-Serif" font-size="10.00">sources/Runner/TitleScreen</text>
<text text-anchor="middle" x="2988.5" y="-141.5" font-family="Helvetica,sans-Serif" font-size="10.00">Scene.cpp</text>
</a>
</g>
</g>
<!-- Node1&#45;&gt;Node18 -->
<g id="edge18" class="edge">
<title>Node1&#45;&gt;Node18</title>
<path fill="none" stroke="midnightblue" d="M1790.37,-215.69C1991.66,-215.22 2490.1,-209.26 2904.5,-165 2907.59,-164.67 2910.74,-164.3 2913.92,-163.89"/>
<polygon fill="midnightblue" stroke="midnightblue" points="1790.14,-212.19 1780.15,-215.71 1790.15,-219.19 1790.14,-212.19"/>
</g>
<!-- Node19 -->
<g id="node19" class="node">
<title>Node19</title>
<g id="a_node19"><a xlink:href="IntroAnimationSystem_8cpp.html" target="_top" xlink:title=" ">
<polygon fill="white" stroke="black" points="3081.5,-134.5 3081.5,-164.5 3251.5,-164.5 3251.5,-134.5 3081.5,-134.5"/>
<text text-anchor="start" x="3089.5" y="-152.5" font-family="Helvetica,sans-Serif" font-size="10.00">sources/System/IntroAnimation</text>
<text text-anchor="middle" x="3166.5" y="-141.5" font-family="Helvetica,sans-Serif" font-size="10.00">/IntroAnimationSystem.cpp</text>
</a>
</g>
</g>
<!-- Node1&#45;&gt;Node19 -->
<g id="edge20" class="edge">
<title>Node1&#45;&gt;Node19</title>
<path fill="none" stroke="midnightblue" d="M1790.41,-215.8C2010.82,-215.74 2590.98,-210.84 3072.5,-165 3075.38,-164.73 3078.3,-164.42 3081.25,-164.09"/>
<polygon fill="midnightblue" stroke="midnightblue" points="1790.19,-212.3 1780.19,-215.8 1790.19,-219.3 1790.19,-212.3"/>
</g>
<!-- Node20 -->
<g id="node20" class="node">
<title>Node20</title>
<g id="a_node20"><a xlink:href="ResumeLobbySystem_8cpp.html" target="_top" xlink:title=" ">
<polygon fill="white" stroke="black" points="863.5,-67.5 863.5,-97.5 1009.5,-97.5 1009.5,-67.5 863.5,-67.5"/>
<text text-anchor="start" x="871.5" y="-85.5" font-family="Helvetica,sans-Serif" font-size="10.00">sources/System/Lobby</text>
<text text-anchor="middle" x="936.5" y="-74.5" font-family="Helvetica,sans-Serif" font-size="10.00">/ResumeLobbySystem.cpp</text>
</a>
</g>
</g>
<!-- Node1&#45;&gt;Node20 -->
<g id="edge22" class="edge">
<title>Node1&#45;&gt;Node20</title>
<path fill="none" stroke="midnightblue" d="M1608.82,-215.23C1421.54,-213.84 1005.39,-206.1 956.5,-165 936.87,-148.5 934.78,-116.17 935.39,-97.57"/>
<polygon fill="midnightblue" stroke="midnightblue" points="1608.89,-218.73 1618.92,-215.3 1608.94,-211.73 1608.89,-218.73"/>
</g>
<!-- Node21 -->
<g id="node21" class="node">
<title>Node21</title>
<g id="a_node21"><a xlink:href="MenuControllableSystem_8hpp.html" target="_top" xlink:title=" ">
<polygon fill="white" stroke="black" points="725,-134.5 725,-164.5 908,-164.5 908,-134.5 725,-134.5"/>
<text text-anchor="start" x="733" y="-152.5" font-family="Helvetica,sans-Serif" font-size="10.00">sources/System/MenuControllable</text>
<text text-anchor="middle" x="816.5" y="-141.5" font-family="Helvetica,sans-Serif" font-size="10.00">/MenuControllableSystem.hpp</text>
</a>
</g>
</g>
<!-- Node1&#45;&gt;Node21 -->
<g id="edge23" class="edge">
<title>Node1&#45;&gt;Node21</title>
<path fill="none" stroke="midnightblue" d="M1608.61,-211.69C1463.37,-205.13 1170.09,-189.95 922.5,-165 917.79,-164.53 912.96,-164 908.09,-163.44"/>
<polygon fill="midnightblue" stroke="midnightblue" points="1608.66,-215.2 1618.81,-212.15 1608.97,-208.2 1608.66,-215.2"/>
</g>
<!-- Node23 -->
<g id="node23" class="node">
<title>Node23</title>
<g id="a_node23"><a xlink:href="CameraSystem_8cpp.html" target="_top" xlink:title=" ">
<polygon fill="white" stroke="black" points="3270,-134.5 3270,-164.5 3411,-164.5 3411,-134.5 3270,-134.5"/>
<text text-anchor="start" x="3278" y="-152.5" font-family="Helvetica,sans-Serif" font-size="10.00">sources/System/Renderer</text>
<text text-anchor="middle" x="3340.5" y="-141.5" font-family="Helvetica,sans-Serif" font-size="10.00">/CameraSystem.cpp</text>
</a>
</g>
</g>
<!-- Node1&#45;&gt;Node23 -->
<g id="edge28" class="edge">
<title>Node1&#45;&gt;Node23</title>
<path fill="none" stroke="midnightblue" d="M1790.11,-214.32C2078.44,-210.29 2972.54,-195.59 3260.5,-165 3263.59,-164.67 3266.74,-164.29 3269.91,-163.88"/>
<polygon fill="midnightblue" stroke="midnightblue" points="1790.06,-210.82 1780.11,-214.46 1790.16,-217.82 1790.06,-210.82"/>
</g>
<!-- Node24 -->
<g id="node24" class="node">
<title>Node24</title>
<g id="a_node24"><a xlink:href="RenderSystem_8cpp.html" target="_top" xlink:title=" ">
<polygon fill="white" stroke="black" points="3429,-134.5 3429,-164.5 3570,-164.5 3570,-134.5 3429,-134.5"/>
<text text-anchor="start" x="3437" y="-152.5" font-family="Helvetica,sans-Serif" font-size="10.00">sources/System/Renderer</text>
<text text-anchor="middle" x="3499.5" y="-141.5" font-family="Helvetica,sans-Serif" font-size="10.00">/RenderSystem.cpp</text>
</a>
</g>
</g>
<!-- Node1&#45;&gt;Node24 -->
<g id="edge29" class="edge">
<title>Node1&#45;&gt;Node24</title>
<path fill="none" stroke="midnightblue" d="M1790.29,-214.66C2097.99,-211.53 3099.95,-198.92 3420.5,-165 3423.27,-164.71 3426.1,-164.37 3428.94,-164"/>
<polygon fill="midnightblue" stroke="midnightblue" points="1790.04,-211.16 1780.08,-214.76 1790.11,-218.16 1790.04,-211.16"/>
</g>
<!-- Node25 -->
<g id="node25" class="node">
<title>Node25</title>
<g id="a_node25"><a xlink:href="TimerSystem_8hpp.html" target="_top" xlink:title=" ">
<polygon fill="white" stroke="black" points="1108,-134.5 1108,-164.5 1233,-164.5 1233,-134.5 1108,-134.5"/>
<text text-anchor="start" x="1116" y="-152.5" font-family="Helvetica,sans-Serif" font-size="10.00">sources/System/Timer</text>
<text text-anchor="middle" x="1170.5" y="-141.5" font-family="Helvetica,sans-Serif" font-size="10.00">/TimerSystem.hpp</text>
</a>
</g>
</g>
<!-- Node1&#45;&gt;Node25 -->
<g id="edge30" class="edge">
<title>Node1&#45;&gt;Node25</title>
<path fill="none" stroke="midnightblue" d="M1608.56,-207.85C1516.11,-199.5 1368.89,-184.67 1242.5,-165 1239.48,-164.53 1236.39,-164.02 1233.27,-163.48"/>
<polygon fill="midnightblue" stroke="midnightblue" points="1608.45,-211.35 1618.73,-208.76 1609.08,-204.38 1608.45,-211.35"/>
</g>
<!-- Node27 -->
<g id="node27" class="node">
<title>Node27</title>
<g id="a_node27"><a xlink:href="TimerUISystem_8hpp.html" target="_top" xlink:title=" ">
<polygon fill="white" stroke="black" points="965,-134.5 965,-164.5 1090,-164.5 1090,-134.5 965,-134.5"/>
<text text-anchor="start" x="973" y="-152.5" font-family="Helvetica,sans-Serif" font-size="10.00">sources/System/Timer</text>
<text text-anchor="middle" x="1027.5" y="-141.5" font-family="Helvetica,sans-Serif" font-size="10.00">/TimerUISystem.hpp</text>
</a>
</g>
</g>
<!-- Node1&#45;&gt;Node27 -->
<g id="edge33" class="edge">
<title>Node1&#45;&gt;Node27</title>
<path fill="none" stroke="midnightblue" d="M1608.56,-211.1C1490.69,-204.66 1279,-190.54 1099.5,-165 1096.47,-164.57 1093.38,-164.09 1090.26,-163.58"/>
<polygon fill="midnightblue" stroke="midnightblue" points="1608.44,-214.6 1618.62,-211.65 1608.82,-207.61 1608.44,-214.6"/>
</g>
<!-- Node3 -->
<g id="node3" class="node">
<title>Node3</title>
<g id="a_node3"><a xlink:href="StatComponent_8cpp.html" target="_top" xlink:title=" ">
<polygon fill="white" stroke="black" points="179.5,-67.5 179.5,-97.5 315.5,-97.5 315.5,-67.5 179.5,-67.5"/>
<text text-anchor="start" x="187.5" y="-85.5" font-family="Helvetica,sans-Serif" font-size="10.00">sources/Component/Stat</text>
<text text-anchor="middle" x="247.5" y="-74.5" font-family="Helvetica,sans-Serif" font-size="10.00">/StatComponent.cpp</text>
</a>
</g>
</g>
<!-- Node2&#45;&gt;Node3 -->
<g id="edge2" class="edge">
<title>Node2&#45;&gt;Node3</title>
<path fill="none" stroke="midnightblue" d="M355.75,-130.41C331.8,-120.03 302.18,-107.2 279.98,-97.58"/>
<polygon fill="midnightblue" stroke="midnightblue" points="354.39,-133.63 364.95,-134.4 357.17,-127.21 354.39,-133.63"/>
</g>
<!-- Node2&#45;&gt;Node4 -->
<g id="edge3" class="edge">
<title>Node2&#45;&gt;Node4</title>
<path fill="none" stroke="midnightblue" d="M319.6,-132.53C267.33,-121.81 199.12,-107.82 148.94,-97.53"/>
<polygon fill="midnightblue" stroke="midnightblue" points="319,-135.98 329.5,-134.56 320.4,-129.12 319,-135.98"/>
</g>
<!-- Node2&#45;&gt;Node5 -->
<g id="edge4" class="edge">
<title>Node2&#45;&gt;Node5</title>
<path fill="none" stroke="midnightblue" d="M397.5,-124.11C397.5,-115.15 397.5,-105.32 397.5,-97.58"/>
<polygon fill="midnightblue" stroke="midnightblue" points="394,-124.4 397.5,-134.4 401,-124.4 394,-124.4"/>
</g>
<!-- Node2&#45;&gt;Node8 -->
<g id="edge7" class="edge">
<title>Node2&#45;&gt;Node8</title>
<path fill="none" stroke="midnightblue" d="M438.17,-130.27C461.26,-119.92 489.74,-107.15 511.1,-97.58"/>
<polygon fill="midnightblue" stroke="midnightblue" points="436.66,-127.11 428.96,-134.4 439.52,-133.5 436.66,-127.11"/>
</g>
<!-- Node6 -->
<g id="node6" class="node">
<title>Node6</title>
<g id="a_node6"><a xlink:href="Runner_8cpp.html" target="_top" xlink:title=" ">
<polygon fill="white" stroke="black" points="862,-6 862,-25 1011,-25 1011,-6 862,-6"/>
<text text-anchor="middle" x="936.5" y="-13" font-family="Helvetica,sans-Serif" font-size="10.00">sources/Runner/Runner.cpp</text>
</a>
</g>
</g>
<!-- Node5&#45;&gt;Node6 -->
<g id="edge5" class="edge">
<title>Node5&#45;&gt;Node6</title>
<path fill="none" stroke="midnightblue" d="M471.06,-67C615.28,-45.24 771.83,-30.3 861.99,-22.54"/>
<polygon fill="midnightblue" stroke="midnightblue" points="470.5,-63.55 461.14,-68.52 471.56,-70.47 470.5,-63.55"/>
</g>
<!-- Node7 -->
<g id="node7" class="node">
<title>Node7</title>
<g id="a_node7"><a xlink:href="BonusUISystem_8cpp.html" target="_top" xlink:title=" ">
<polygon fill="white" stroke="black" points="334,-0.5 334,-30.5 461,-30.5 461,-0.5 334,-0.5"/>
<text text-anchor="start" x="342" y="-18.5" font-family="Helvetica,sans-Serif" font-size="10.00">sources/System/Bonus</text>
<text text-anchor="middle" x="397.5" y="-7.5" font-family="Helvetica,sans-Serif" font-size="10.00">/BonusUISystem.cpp</text>
</a>
</g>
</g>
<!-- Node5&#45;&gt;Node7 -->
<g id="edge6" class="edge">
<title>Node5&#45;&gt;Node7</title>
<path fill="none" stroke="midnightblue" d="M397.5,-57.11C397.5,-48.15 397.5,-38.32 397.5,-30.58"/>
<polygon fill="midnightblue" stroke="midnightblue" points="394,-57.4 397.5,-67.4 401,-57.4 394,-57.4"/>
</g>
<!-- Node21&#45;&gt;Node6 -->
<g id="edge24" class="edge">
<title>Node21&#45;&gt;Node6</title>
<path fill="none" stroke="midnightblue" d="M823.57,-124.42C829.62,-106.96 839.71,-83.61 854.5,-67 871.62,-47.77 897.82,-33.4 915.98,-25"/>
<polygon fill="midnightblue" stroke="midnightblue" points="820.08,-123.82 820.32,-134.41 826.74,-125.98 820.08,-123.82"/>
</g>
<!-- Node21&#45;&gt;Node8 -->
<g id="edge25" class="edge">
<title>Node21&#45;&gt;Node8</title>
<path fill="none" stroke="midnightblue" d="M747.45,-132.12C702.61,-121.48 644.78,-107.76 601.98,-97.61"/>
<polygon fill="midnightblue" stroke="midnightblue" points="746.85,-135.57 757.38,-134.48 748.46,-128.76 746.85,-135.57"/>
</g>
<!-- Node21&#45;&gt;Node20 -->
<g id="edge26" class="edge">
<title>Node21&#45;&gt;Node20</title>
<path fill="none" stroke="midnightblue" d="M851.44,-129.57C870.32,-119.35 893.23,-106.94 910.51,-97.58"/>
<polygon fill="midnightblue" stroke="midnightblue" points="849.66,-126.56 842.54,-134.4 853,-132.71 849.66,-126.56"/>
</g>
<!-- Node22 -->
<g id="node22" class="node">
<title>Node22</title>
<g id="a_node22"><a xlink:href="MenuControllableSystem_8cpp.html" target="_top" xlink:title=" ">
<polygon fill="white" stroke="black" points="624,-67.5 624,-97.5 807,-97.5 807,-67.5 624,-67.5"/>
<text text-anchor="start" x="632" y="-85.5" font-family="Helvetica,sans-Serif" font-size="10.00">sources/System/MenuControllable</text>
<text text-anchor="middle" x="715.5" y="-74.5" font-family="Helvetica,sans-Serif" font-size="10.00">/MenuControllableSystem.cpp</text>
</a>
</g>
</g>
<!-- Node21&#45;&gt;Node22 -->
<g id="edge27" class="edge">
<title>Node21&#45;&gt;Node22</title>
<path fill="none" stroke="midnightblue" d="M785.79,-128.73C770.16,-118.68 751.53,-106.68 737.37,-97.58"/>
<polygon fill="midnightblue" stroke="midnightblue" points="784.28,-131.93 794.58,-134.4 788.07,-126.04 784.28,-131.93"/>
</g>
<!-- Node25&#45;&gt;Node6 -->
<g id="edge31" class="edge">
<title>Node25&#45;&gt;Node6</title>
<path fill="none" stroke="midnightblue" d="M1241.52,-132.02C1286.33,-120.9 1336.96,-106.72 1343.5,-98 1351.77,-86.98 1352.62,-77.32 1343.5,-67 1321.9,-42.56 1122.68,-27.23 1011.19,-20.49"/>
<polygon fill="midnightblue" stroke="midnightblue" points="1240.65,-128.63 1231.77,-134.41 1242.31,-135.42 1240.65,-128.63"/>
</g>
<!-- Node26 -->
<g id="node26" class="node">
<title>Node26</title>
<g id="a_node26"><a xlink:href="TimerSystem_8cpp.html" target="_top" xlink:title=" ">
<polygon fill="white" stroke="black" points="1209,-67.5 1209,-97.5 1334,-97.5 1334,-67.5 1209,-67.5"/>
<text text-anchor="start" x="1217" y="-85.5" font-family="Helvetica,sans-Serif" font-size="10.00">sources/System/Timer</text>
<text text-anchor="middle" x="1271.5" y="-74.5" font-family="Helvetica,sans-Serif" font-size="10.00">/TimerSystem.cpp</text>
</a>
</g>
</g>
<!-- Node25&#45;&gt;Node26 -->
<g id="edge32" class="edge">
<title>Node25&#45;&gt;Node26</title>
<path fill="none" stroke="midnightblue" d="M1201.21,-128.73C1216.84,-118.68 1235.47,-106.68 1249.63,-97.58"/>
<polygon fill="midnightblue" stroke="midnightblue" points="1198.93,-126.04 1192.42,-134.4 1202.72,-131.93 1198.93,-126.04"/>
</g>
<!-- Node27&#45;&gt;Node6 -->
<g id="edge34" class="edge">
<title>Node27&#45;&gt;Node6</title>
<path fill="none" stroke="midnightblue" d="M1030.19,-123.94C1030.86,-106.72 1029.18,-83.87 1018.5,-67 1005.44,-46.38 980.61,-32.85 961.68,-25.04"/>
<polygon fill="midnightblue" stroke="midnightblue" points="1026.67,-124.1 1029.49,-134.31 1033.66,-124.57 1026.67,-124.1"/>
</g>
<!-- Node28 -->
<g id="node28" class="node">
<title>Node28</title>
<g id="a_node28"><a xlink:href="TimerUISystem_8cpp.html" target="_top" xlink:title=" ">
<polygon fill="white" stroke="black" points="1066,-67.5 1066,-97.5 1191,-97.5 1191,-67.5 1066,-67.5"/>
<text text-anchor="start" x="1074" y="-85.5" font-family="Helvetica,sans-Serif" font-size="10.00">sources/System/Timer</text>
<text text-anchor="middle" x="1128.5" y="-74.5" font-family="Helvetica,sans-Serif" font-size="10.00">/TimerUISystem.cpp</text>
</a>
</g>
</g>
<!-- Node27&#45;&gt;Node28 -->
<g id="edge35" class="edge">
<title>Node27&#45;&gt;Node28</title>
<path fill="none" stroke="midnightblue" d="M1058.21,-128.73C1073.84,-118.68 1092.47,-106.68 1106.63,-97.58"/>
<polygon fill="midnightblue" stroke="midnightblue" points="1055.93,-126.04 1049.42,-134.4 1059.72,-131.93 1055.93,-126.04"/>
</g>
</g>
</svg>
