<?xml version="1.0" encoding="UTF-8" standalone="no"?>
<!DOCTYPE svg PUBLIC "-//W3C//DTD SVG 1.1//EN"
 "http://www.w3.org/Graphics/SVG/1.1/DTD/svg11.dtd">
<!-- Generated by graphviz version 2.43.0 (0)
 -->
<!-- Title: sources/Component/Renderer/Drawable3DComponent.hpp Pages: 1 -->
<svg width="2185pt" height="599pt"
 viewBox="0.00 0.00 2185.49 599.00" xmlns="http://www.w3.org/2000/svg" xmlns:xlink="http://www.w3.org/1999/xlink">
<g id="graph0" class="graph" transform="scale(1 1) rotate(0) translate(4 595)">
<title>sources/Component/Renderer/Drawable3DComponent.hpp</title>
<polygon fill="white" stroke="transparent" points="-4,4 -4,-595 2181.49,-595 2181.49,4 -4,4"/>
<!-- Node1 -->
<g id="node1" class="node">
<title>Node1</title>
<g id="a_node1"><a xlink:title=" ">
<polygon fill="#bfbfbf" stroke="black" points="628.99,-560.5 628.99,-590.5 789.99,-590.5 789.99,-560.5 628.99,-560.5"/>
<text text-anchor="start" x="636.99" y="-578.5" font-family="Helvetica,sans-Serif" font-size="10.00">sources/Component/Renderer</text>
<text text-anchor="middle" x="709.49" y="-567.5" font-family="Helvetica,sans-Serif" font-size="10.00">/Drawable3DComponent.hpp</text>
</a>
</g>
</g>
<!-- Node2 -->
<g id="node2" class="node">
<title>Node2</title>
<g id="a_node2"><a xlink:href="TypeHolder_8hpp.html" target="_top" xlink:title=" ">
<polygon fill="white" stroke="black" points="270.49,-504.5 270.49,-523.5 400.49,-523.5 400.49,-504.5 270.49,-504.5"/>
<text text-anchor="middle" x="335.49" y="-511.5" font-family="Helvetica,sans-Serif" font-size="10.00">Models/TypeHolder.hpp</text>
</a>
</g>
</g>
<!-- Node1&#45;&gt;Node2 -->
<g id="edge1" class="edge">
<title>Node1&#45;&gt;Node2</title>
<path fill="none" stroke="midnightblue" d="M628.8,-561.66C560.05,-550.72 462.58,-535.22 399.2,-525.14"/>
<polygon fill="midnightblue" stroke="midnightblue" points="399.37,-521.62 388.95,-523.5 398.27,-528.53 399.37,-521.62"/>
</g>
<!-- Node3 -->
<g id="node3" class="node">
<title>Node3</title>
<g id="a_node3"><a xlink:href="Component_8hpp.html" target="_top" xlink:title=" ">
<polygon fill="white" stroke="black" points="86.99,-224.5 86.99,-243.5 239.99,-243.5 239.99,-224.5 86.99,-224.5"/>
<text text-anchor="middle" x="163.49" y="-231.5" font-family="Helvetica,sans-Serif" font-size="10.00">Component/Component.hpp</text>
</a>
</g>
</g>
<!-- Node1&#45;&gt;Node3 -->
<g id="edge2" class="edge">
<title>Node1&#45;&gt;Node3</title>
<path fill="none" stroke="midnightblue" d="M628.97,-574.13C545.93,-568.99 428.49,-546.29 428.49,-459 428.49,-459 428.49,-459 428.49,-345 428.49,-299.53 293.74,-262.97 216.41,-245.74"/>
<polygon fill="midnightblue" stroke="midnightblue" points="216.88,-242.26 206.36,-243.54 215.38,-249.1 216.88,-242.26"/>
</g>
<!-- Node7 -->
<g id="node7" class="node">
<title>Node7</title>
<g id="a_node7"><a xlink:href="ADrawable3D_8hpp.html" target="_top" xlink:title=" ">
<polygon fill="white" stroke="black" points="1078.99,-336.5 1078.99,-355.5 1237.99,-355.5 1237.99,-336.5 1078.99,-336.5"/>
<text text-anchor="middle" x="1158.49" y="-343.5" font-family="Helvetica,sans-Serif" font-size="10.00">Drawables/ADrawable3D.hpp</text>
</a>
</g>
</g>
<!-- Node1&#45;&gt;Node7 -->
<g id="edge6" class="edge">
<title>Node1&#45;&gt;Node7</title>
<path fill="none" stroke="midnightblue" d="M751.13,-560.44C803.93,-541.99 897.15,-507.3 972.49,-468 1035.87,-434.94 1105.09,-386.24 1138.39,-361.94"/>
<polygon fill="midnightblue" stroke="midnightblue" points="1140.81,-364.5 1146.79,-355.76 1136.66,-358.86 1140.81,-364.5"/>
</g>
<!-- Node22 -->
<g id="node22" class="node">
<title>Node22</title>
<g id="a_node22"><a xlink:href="Model_8hpp.html" target="_top" xlink:title=" ">
<polygon fill="white" stroke="black" points="1303.99,-504.5 1303.99,-523.5 1404.99,-523.5 1404.99,-504.5 1303.99,-504.5"/>
<text text-anchor="middle" x="1354.49" y="-511.5" font-family="Helvetica,sans-Serif" font-size="10.00">Model/Model.hpp</text>
</a>
</g>
</g>
<!-- Node1&#45;&gt;Node22 -->
<g id="edge37" class="edge">
<title>Node1&#45;&gt;Node22</title>
<path fill="none" stroke="midnightblue" d="M790.2,-567.05C921.12,-554.98 1176.88,-531.38 1293.69,-520.61"/>
<polygon fill="midnightblue" stroke="midnightblue" points="1294.24,-524.07 1303.87,-519.67 1293.6,-517.1 1294.24,-524.07"/>
</g>
<!-- Node4 -->
<g id="node4" class="node">
<title>Node4</title>
<g id="a_node4"><a xlink:title=" ">
<polygon fill="white" stroke="#bfbfbf" points="746.99,-112.5 746.99,-131.5 793.99,-131.5 793.99,-112.5 746.99,-112.5"/>
<text text-anchor="middle" x="770.49" y="-119.5" font-family="Helvetica,sans-Serif" font-size="10.00">vector</text>
</a>
</g>
</g>
<!-- Node3&#45;&gt;Node4 -->
<g id="edge3" class="edge">
<title>Node3&#45;&gt;Node4</title>
<path fill="none" stroke="midnightblue" d="M210.62,-224.46C328.59,-203.08 634.47,-147.65 736.67,-129.13"/>
<polygon fill="midnightblue" stroke="midnightblue" points="737.53,-132.53 746.74,-127.3 736.28,-125.64 737.53,-132.53"/>
</g>
<!-- Node5 -->
<g id="node5" class="node">
<title>Node5</title>
<g id="a_node5"><a xlink:title=" ">
<polygon fill="white" stroke="#bfbfbf" points="797.49,-168.5 797.49,-187.5 841.49,-187.5 841.49,-168.5 797.49,-168.5"/>
<text text-anchor="middle" x="819.49" y="-175.5" font-family="Helvetica,sans-Serif" font-size="10.00">string</text>
</a>
</g>
</g>
<!-- Node3&#45;&gt;Node5 -->
<g id="edge4" class="edge">
<title>Node3&#45;&gt;Node5</title>
<path fill="none" stroke="midnightblue" d="M240.39,-224.72C243.12,-224.47 245.83,-224.23 248.49,-224 484.42,-203.64 549.12,-228.04 787.25,-187.61"/>
<polygon fill="midnightblue" stroke="midnightblue" points="787.99,-191.04 797.25,-185.89 786.8,-184.14 787.99,-191.04"/>
</g>
<!-- Node6 -->
<g id="node6" class="node">
<title>Node6</title>
<g id="a_node6"><a xlink:title=" ">
<polygon fill="white" stroke="#bfbfbf" points="130.99,-168.5 130.99,-187.5 195.99,-187.5 195.99,-168.5 130.99,-168.5"/>
<text text-anchor="middle" x="163.49" y="-175.5" font-family="Helvetica,sans-Serif" font-size="10.00">typeindex</text>
</a>
</g>
</g>
<!-- Node3&#45;&gt;Node6 -->
<g id="edge5" class="edge">
<title>Node3&#45;&gt;Node6</title>
<path fill="none" stroke="midnightblue" d="M163.49,-224.08C163.49,-217.01 163.49,-206.86 163.49,-197.99"/>
<polygon fill="midnightblue" stroke="midnightblue" points="166.99,-197.75 163.49,-187.75 159.99,-197.75 166.99,-197.75"/>
</g>
<!-- Node8 -->
<g id="node8" class="node">
<title>Node8</title>
<g id="a_node8"><a xlink:title=" ">
<polygon fill="white" stroke="#bfbfbf" points="1567.99,-0.5 1567.99,-19.5 1620.99,-19.5 1620.99,-0.5 1567.99,-0.5"/>
<text text-anchor="middle" x="1594.49" y="-7.5" font-family="Helvetica,sans-Serif" font-size="10.00">raylib.h</text>
</a>
</g>
</g>
<!-- Node7&#45;&gt;Node8 -->
<g id="edge7" class="edge">
<title>Node7&#45;&gt;Node8</title>
<path fill="none" stroke="midnightblue" d="M1144.17,-336.4C1095.5,-307.02 938.8,-211.2 926.49,-188 922.33,-180.15 922.93,-176.15 926.49,-168 955.84,-100.85 980.42,-85.51 1047.49,-56 1139.39,-15.57 1450.65,-11.21 1557.85,-10.93"/>
<polygon fill="midnightblue" stroke="midnightblue" points="1557.87,-14.43 1567.87,-10.92 1557.86,-7.43 1557.87,-14.43"/>
</g>
<!-- Node9 -->
<g id="node9" class="node">
<title>Node9</title>
<g id="a_node9"><a xlink:href="IDrawable_8hpp.html" target="_top" xlink:title=" ">
<polygon fill="white" stroke="black" points="1148.49,-280.5 1148.49,-299.5 1290.49,-299.5 1290.49,-280.5 1148.49,-280.5"/>
<text text-anchor="middle" x="1219.49" y="-287.5" font-family="Helvetica,sans-Serif" font-size="10.00">Drawables/IDrawable.hpp</text>
</a>
</g>
</g>
<!-- Node7&#45;&gt;Node9 -->
<g id="edge8" class="edge">
<title>Node7&#45;&gt;Node9</title>
<path fill="none" stroke="midnightblue" d="M1168.29,-336.32C1177.31,-328.34 1190.9,-316.31 1201.81,-306.65"/>
<polygon fill="midnightblue" stroke="midnightblue" points="1204.35,-309.08 1209.51,-299.83 1199.71,-303.84 1204.35,-309.08"/>
</g>
<!-- Node21 -->
<g id="node21" class="node">
<title>Node21</title>
<g id="a_node21"><a xlink:href="Color_8hpp.html" target="_top" xlink:title=" ">
<polygon fill="white" stroke="black" points="1618.49,-168.5 1618.49,-187.5 1680.49,-187.5 1680.49,-168.5 1618.49,-168.5"/>
<text text-anchor="middle" x="1649.49" y="-175.5" font-family="Helvetica,sans-Serif" font-size="10.00">Color.hpp</text>
</a>
</g>
</g>
<!-- Node7&#45;&gt;Node21 -->
<g id="edge36" class="edge">
<title>Node7&#45;&gt;Node21</title>
<path fill="none" stroke="midnightblue" d="M1185.85,-336.48C1214.3,-327.57 1260.11,-313.09 1299.49,-300 1415.95,-261.29 1553.32,-213.04 1615.67,-190.99"/>
<polygon fill="midnightblue" stroke="midnightblue" points="1617.11,-194.2 1625.37,-187.56 1614.78,-187.6 1617.11,-194.2"/>
</g>
<!-- Node10 -->
<g id="node10" class="node">
<title>Node10</title>
<g id="a_node10"><a xlink:href="Window_8hpp.html" target="_top" xlink:title=" ">
<polygon fill="white" stroke="black" points="1346.49,-224.5 1346.49,-243.5 1422.49,-243.5 1422.49,-224.5 1346.49,-224.5"/>
<text text-anchor="middle" x="1384.49" y="-231.5" font-family="Helvetica,sans-Serif" font-size="10.00">Window.hpp</text>
</a>
</g>
</g>
<!-- Node9&#45;&gt;Node10 -->
<g id="edge9" class="edge">
<title>Node9&#45;&gt;Node10</title>
<path fill="none" stroke="midnightblue" d="M1245.64,-280.44C1273.52,-271.32 1317.84,-256.81 1348.89,-246.65"/>
<polygon fill="midnightblue" stroke="midnightblue" points="1350.05,-249.95 1358.47,-243.52 1347.88,-243.3 1350.05,-249.95"/>
</g>
<!-- Node10&#45;&gt;Node5 -->
<g id="edge11" class="edge">
<title>Node10&#45;&gt;Node5</title>
<path fill="none" stroke="midnightblue" d="M1346.4,-229.15C1330.37,-227.54 1311.53,-225.66 1294.49,-224 1127.96,-207.78 928.49,-189.14 851.75,-182"/>
<polygon fill="midnightblue" stroke="midnightblue" points="852.04,-178.51 841.75,-181.07 851.39,-185.48 852.04,-178.51"/>
</g>
<!-- Node10&#45;&gt;Node8 -->
<g id="edge10" class="edge">
<title>Node10&#45;&gt;Node8</title>
<path fill="none" stroke="midnightblue" d="M1408.87,-224.34C1432.19,-215.83 1468.21,-202.1 1498.49,-188 1515.44,-180.11 1518.26,-175.25 1535.49,-168 1585.25,-147.07 1619.47,-175.46 1651.49,-132 1676.72,-97.75 1636.66,-50.57 1611.83,-26.49"/>
<polygon fill="midnightblue" stroke="midnightblue" points="1614.1,-23.82 1604.41,-19.53 1609.31,-28.92 1614.1,-23.82"/>
</g>
<!-- Node11 -->
<g id="node11" class="node">
<title>Node11</title>
<g id="a_node11"><a xlink:title=" ">
<polygon fill="white" stroke="#bfbfbf" points="1544.49,-168.5 1544.49,-187.5 1600.49,-187.5 1600.49,-168.5 1544.49,-168.5"/>
<text text-anchor="middle" x="1572.49" y="-175.5" font-family="Helvetica,sans-Serif" font-size="10.00">optional</text>
</a>
</g>
</g>
<!-- Node10&#45;&gt;Node11 -->
<g id="edge12" class="edge">
<title>Node10&#45;&gt;Node11</title>
<path fill="none" stroke="midnightblue" d="M1414.28,-224.44C1446.79,-215.11 1498.93,-200.13 1534.4,-189.94"/>
<polygon fill="midnightblue" stroke="midnightblue" points="1535.73,-193.2 1544.38,-187.08 1533.8,-186.47 1535.73,-193.2"/>
</g>
<!-- Node12 -->
<g id="node12" class="node">
<title>Node12</title>
<g id="a_node12"><a xlink:href="lib_2Ray_2sources_2Vector_2Vector2_8hpp.html" target="_top" xlink:title=" ">
<polygon fill="white" stroke="black" points="1031.49,-112.5 1031.49,-131.5 1139.49,-131.5 1139.49,-112.5 1031.49,-112.5"/>
<text text-anchor="middle" x="1085.49" y="-119.5" font-family="Helvetica,sans-Serif" font-size="10.00">Vector/Vector2.hpp</text>
</a>
</g>
</g>
<!-- Node10&#45;&gt;Node12 -->
<g id="edge13" class="edge">
<title>Node10&#45;&gt;Node12</title>
<path fill="none" stroke="midnightblue" d="M1346.34,-226.38C1287.06,-215.94 1177.91,-196 1161.49,-188 1137,-176.07 1113.97,-154.34 1099.82,-139.31"/>
<polygon fill="midnightblue" stroke="midnightblue" points="1102.25,-136.77 1092.92,-131.75 1097.08,-141.49 1102.25,-136.77"/>
</g>
<!-- Node13 -->
<g id="node13" class="node">
<title>Node13</title>
<g id="a_node13"><a xlink:href="lib_2Ray_2sources_2Vector_2Vector3_8hpp.html" target="_top" xlink:title=" ">
<polygon fill="white" stroke="black" points="1534.49,-112.5 1534.49,-131.5 1642.49,-131.5 1642.49,-112.5 1534.49,-112.5"/>
<text text-anchor="middle" x="1588.49" y="-119.5" font-family="Helvetica,sans-Serif" font-size="10.00">Vector/Vector3.hpp</text>
</a>
</g>
</g>
<!-- Node10&#45;&gt;Node13 -->
<g id="edge15" class="edge">
<title>Node10&#45;&gt;Node13</title>
<path fill="none" stroke="midnightblue" d="M1399.71,-224.48C1422.13,-211.96 1465.4,-187.92 1502.49,-168 1522.6,-157.2 1545.5,-145.24 1562.61,-136.36"/>
<polygon fill="midnightblue" stroke="midnightblue" points="1564.68,-139.23 1571.95,-131.52 1561.46,-133.01 1564.68,-139.23"/>
</g>
<!-- Node14 -->
<g id="node14" class="node">
<title>Node14</title>
<g id="a_node14"><a xlink:href="Keyboard_8hpp.html" target="_top" xlink:title=" ">
<polygon fill="white" stroke="black" points="935.49,-168.5 935.49,-187.5 1075.49,-187.5 1075.49,-168.5 935.49,-168.5"/>
<text text-anchor="middle" x="1005.49" y="-175.5" font-family="Helvetica,sans-Serif" font-size="10.00">Controllers/Keyboard.hpp</text>
</a>
</g>
</g>
<!-- Node10&#45;&gt;Node14 -->
<g id="edge17" class="edge">
<title>Node10&#45;&gt;Node14</title>
<path fill="none" stroke="midnightblue" d="M1346.42,-227.58C1283.05,-218.55 1155.05,-200.31 1075.18,-188.93"/>
<polygon fill="midnightblue" stroke="midnightblue" points="1075.6,-185.45 1065.21,-187.51 1074.61,-192.38 1075.6,-185.45"/>
</g>
<!-- Node15 -->
<g id="node15" class="node">
<title>Node15</title>
<g id="a_node15"><a xlink:href="Camera2D_8hpp.html" target="_top" xlink:title=" ">
<polygon fill="white" stroke="black" points="1169.99,-168.5 1169.99,-187.5 1300.99,-187.5 1300.99,-168.5 1169.99,-168.5"/>
<text text-anchor="middle" x="1235.49" y="-175.5" font-family="Helvetica,sans-Serif" font-size="10.00">Camera/Camera2D.hpp</text>
</a>
</g>
</g>
<!-- Node10&#45;&gt;Node15 -->
<g id="edge20" class="edge">
<title>Node10&#45;&gt;Node15</title>
<path fill="none" stroke="midnightblue" d="M1360.88,-224.44C1336.03,-215.44 1296.72,-201.19 1268.74,-191.05"/>
<polygon fill="midnightblue" stroke="midnightblue" points="1269.59,-187.63 1258.99,-187.52 1267.2,-194.21 1269.59,-187.63"/>
</g>
<!-- Node18 -->
<g id="node18" class="node">
<title>Node18</title>
<g id="a_node18"><a xlink:href="Camera3D_8hpp.html" target="_top" xlink:title=" ">
<polygon fill="white" stroke="black" points="1318.99,-168.5 1318.99,-187.5 1449.99,-187.5 1449.99,-168.5 1318.99,-168.5"/>
<text text-anchor="middle" x="1384.49" y="-175.5" font-family="Helvetica,sans-Serif" font-size="10.00">Camera/Camera3D.hpp</text>
</a>
</g>
</g>
<!-- Node10&#45;&gt;Node18 -->
<g id="edge26" class="edge">
<title>Node10&#45;&gt;Node18</title>
<path fill="none" stroke="midnightblue" d="M1384.49,-224.08C1384.49,-217.01 1384.49,-206.86 1384.49,-197.99"/>
<polygon fill="midnightblue" stroke="midnightblue" points="1387.99,-197.75 1384.49,-187.75 1380.99,-197.75 1387.99,-197.75"/>
</g>
<!-- Node10&#45;&gt;Node21 -->
<g id="edge34" class="edge">
<title>Node10&#45;&gt;Node21</title>
<path fill="none" stroke="midnightblue" d="M1422.77,-225.63C1465.57,-217.33 1537.23,-203.25 1608.08,-188.27"/>
<polygon fill="midnightblue" stroke="midnightblue" points="1609.01,-191.65 1618.07,-186.15 1607.56,-184.8 1609.01,-191.65"/>
</g>
<!-- Node12&#45;&gt;Node8 -->
<g id="edge14" class="edge">
<title>Node12&#45;&gt;Node8</title>
<path fill="none" stroke="midnightblue" d="M1085.77,-112.15C1086.74,-97.79 1090.92,-69.68 1108.49,-56 1143.76,-28.54 1450.98,-15.78 1557.95,-12.14"/>
<polygon fill="midnightblue" stroke="midnightblue" points="1558.08,-15.64 1567.96,-11.8 1557.84,-8.64 1558.08,-15.64"/>
</g>
<!-- Node13&#45;&gt;Node8 -->
<g id="edge16" class="edge">
<title>Node13&#45;&gt;Node8</title>
<path fill="none" stroke="midnightblue" d="M1593.62,-112.41C1598.55,-103.61 1605.65,-89.38 1608.49,-76 1611.82,-60.3 1607.41,-42.47 1602.67,-29.47"/>
<polygon fill="midnightblue" stroke="midnightblue" points="1605.77,-27.79 1598.79,-19.83 1599.28,-30.41 1605.77,-27.79"/>
</g>
<!-- Node14&#45;&gt;Node4 -->
<g id="edge19" class="edge">
<title>Node14&#45;&gt;Node4</title>
<path fill="none" stroke="midnightblue" d="M968.26,-168.44C923.09,-158.06 847.6,-140.72 804.12,-130.73"/>
<polygon fill="midnightblue" stroke="midnightblue" points="804.84,-127.3 794.31,-128.47 803.27,-134.12 804.84,-127.3"/>
</g>
<!-- Node14&#45;&gt;Node8 -->
<g id="edge18" class="edge">
<title>Node14&#45;&gt;Node8</title>
<path fill="none" stroke="midnightblue" d="M1006.08,-168.34C1007.33,-155.22 1011.12,-129.93 1022.49,-112 1043.28,-79.23 1053.63,-70.85 1089.49,-56 1174.32,-20.88 1456.25,-13.12 1557.71,-11.44"/>
<polygon fill="midnightblue" stroke="midnightblue" points="1557.85,-14.94 1567.79,-11.29 1557.74,-7.94 1557.85,-14.94"/>
</g>
<!-- Node15&#45;&gt;Node8 -->
<g id="edge21" class="edge">
<title>Node15&#45;&gt;Node8</title>
<path fill="none" stroke="midnightblue" d="M1225.36,-168.34C1197.66,-144.19 1123.91,-76.52 1142.49,-56 1170.19,-25.41 1454.84,-14.76 1557.68,-11.89"/>
<polygon fill="midnightblue" stroke="midnightblue" points="1558,-15.38 1567.9,-11.62 1557.81,-8.39 1558,-15.38"/>
</g>
<!-- Node15&#45;&gt;Node12 -->
<g id="edge22" class="edge">
<title>Node15&#45;&gt;Node12</title>
<path fill="none" stroke="midnightblue" d="M1211.72,-168.44C1186.6,-159.4 1146.78,-145.06 1118.59,-134.92"/>
<polygon fill="midnightblue" stroke="midnightblue" points="1119.74,-131.61 1109.15,-131.52 1117.37,-138.2 1119.74,-131.61"/>
</g>
<!-- Node16 -->
<g id="node16" class="node">
<title>Node16</title>
<g id="a_node16"><a xlink:href="ICamera_8hpp.html" target="_top" xlink:title=" ">
<polygon fill="white" stroke="black" points="1195.49,-112.5 1195.49,-131.5 1315.49,-131.5 1315.49,-112.5 1195.49,-112.5"/>
<text text-anchor="middle" x="1255.49" y="-119.5" font-family="Helvetica,sans-Serif" font-size="10.00">Camera/ICamera.hpp</text>
</a>
</g>
</g>
<!-- Node15&#45;&gt;Node16 -->
<g id="edge23" class="edge">
<title>Node15&#45;&gt;Node16</title>
<path fill="none" stroke="midnightblue" d="M1238.8,-168.08C1241.47,-160.85 1245.34,-150.41 1248.68,-141.4"/>
<polygon fill="midnightblue" stroke="midnightblue" points="1252.06,-142.34 1252.25,-131.75 1245.5,-139.91 1252.06,-142.34"/>
</g>
<!-- Node17 -->
<g id="node17" class="node">
<title>Node17</title>
<g id="a_node17"><a xlink:href="Matrix_8hpp.html" target="_top" xlink:title=" ">
<polygon fill="white" stroke="black" points="1150.99,-56.5 1150.99,-75.5 1219.99,-75.5 1219.99,-56.5 1150.99,-56.5"/>
<text text-anchor="middle" x="1185.49" y="-63.5" font-family="Helvetica,sans-Serif" font-size="10.00">Matrix.hpp</text>
</a>
</g>
</g>
<!-- Node16&#45;&gt;Node17 -->
<g id="edge24" class="edge">
<title>Node16&#45;&gt;Node17</title>
<path fill="none" stroke="midnightblue" d="M1244.25,-112.32C1233.7,-104.18 1217.69,-91.84 1205.05,-82.09"/>
<polygon fill="midnightblue" stroke="midnightblue" points="1207,-79.17 1196.94,-75.83 1202.72,-84.71 1207,-79.17"/>
</g>
<!-- Node17&#45;&gt;Node8 -->
<g id="edge25" class="edge">
<title>Node17&#45;&gt;Node8</title>
<path fill="none" stroke="midnightblue" d="M1220.03,-57.67C1223.22,-57.07 1226.41,-56.5 1229.49,-56 1348.87,-36.46 1491.46,-21.2 1557.52,-14.58"/>
<polygon fill="midnightblue" stroke="midnightblue" points="1558.22,-18.03 1567.83,-13.56 1557.53,-11.06 1558.22,-18.03"/>
</g>
<!-- Node18&#45;&gt;Node8 -->
<g id="edge27" class="edge">
<title>Node18&#45;&gt;Node8</title>
<path fill="none" stroke="midnightblue" d="M1405.51,-168.37C1450.08,-149.68 1551.96,-104.85 1575.49,-76 1586.28,-62.77 1590.95,-43.64 1592.96,-29.56"/>
<polygon fill="midnightblue" stroke="midnightblue" points="1596.45,-29.88 1594.07,-19.56 1589.49,-29.11 1596.45,-29.88"/>
</g>
<!-- Node18&#45;&gt;Node13 -->
<g id="edge28" class="edge">
<title>Node18&#45;&gt;Node13</title>
<path fill="none" stroke="midnightblue" d="M1416.82,-168.44C1451.88,-159.16 1507.99,-144.31 1546.46,-134.13"/>
<polygon fill="midnightblue" stroke="midnightblue" points="1547.55,-137.46 1556.32,-131.52 1545.76,-130.69 1547.55,-137.46"/>
</g>
<!-- Node18&#45;&gt;Node16 -->
<g id="edge29" class="edge">
<title>Node18&#45;&gt;Node16</title>
<path fill="none" stroke="midnightblue" d="M1364.05,-168.44C1342.82,-159.56 1309.39,-145.56 1285.24,-135.45"/>
<polygon fill="midnightblue" stroke="midnightblue" points="1286.41,-132.15 1275.84,-131.52 1283.71,-138.61 1286.41,-132.15"/>
</g>
<!-- Node19 -->
<g id="node19" class="node">
<title>Node19</title>
<g id="a_node19"><a xlink:href="CameraProjection_8hpp.html" target="_top" xlink:title=" ">
<polygon fill="white" stroke="black" points="1238.49,-56.5 1238.49,-75.5 1404.49,-75.5 1404.49,-56.5 1238.49,-56.5"/>
<text text-anchor="middle" x="1321.49" y="-63.5" font-family="Helvetica,sans-Serif" font-size="10.00">Camera/CameraProjection.hpp</text>
</a>
</g>
</g>
<!-- Node18&#45;&gt;Node19 -->
<g id="edge30" class="edge">
<title>Node18&#45;&gt;Node19</title>
<path fill="none" stroke="midnightblue" d="M1379.55,-168.37C1369.2,-150.3 1345.08,-108.18 1331.4,-84.31"/>
<polygon fill="midnightblue" stroke="midnightblue" points="1334.42,-82.53 1326.41,-75.59 1328.35,-86.01 1334.42,-82.53"/>
</g>
<!-- Node20 -->
<g id="node20" class="node">
<title>Node20</title>
<g id="a_node20"><a xlink:href="CameraMode_8hpp.html" target="_top" xlink:title=" ">
<polygon fill="white" stroke="black" points="1422.49,-56.5 1422.49,-75.5 1566.49,-75.5 1566.49,-56.5 1422.49,-56.5"/>
<text text-anchor="middle" x="1494.49" y="-63.5" font-family="Helvetica,sans-Serif" font-size="10.00">Camera/CameraMode.hpp</text>
</a>
</g>
</g>
<!-- Node18&#45;&gt;Node20 -->
<g id="edge32" class="edge">
<title>Node18&#45;&gt;Node20</title>
<path fill="none" stroke="midnightblue" d="M1393.12,-168.37C1411.6,-149.89 1455.2,-106.29 1478.75,-82.74"/>
<polygon fill="midnightblue" stroke="midnightblue" points="1481.3,-85.14 1485.9,-75.59 1476.36,-80.19 1481.3,-85.14"/>
</g>
<!-- Node19&#45;&gt;Node8 -->
<g id="edge31" class="edge">
<title>Node19&#45;&gt;Node8</title>
<path fill="none" stroke="midnightblue" d="M1364.75,-56.44C1418.09,-45.89 1507.81,-28.15 1557.89,-18.24"/>
<polygon fill="midnightblue" stroke="midnightblue" points="1558.82,-21.62 1567.95,-16.25 1557.46,-14.76 1558.82,-21.62"/>
</g>
<!-- Node20&#45;&gt;Node8 -->
<g id="edge33" class="edge">
<title>Node20&#45;&gt;Node8</title>
<path fill="none" stroke="midnightblue" d="M1510.56,-56.32C1526.45,-47.74 1551,-34.49 1569.45,-24.52"/>
<polygon fill="midnightblue" stroke="midnightblue" points="1571.33,-27.49 1578.47,-19.65 1568,-21.33 1571.33,-27.49"/>
</g>
<!-- Node21&#45;&gt;Node8 -->
<g id="edge35" class="edge">
<title>Node21&#45;&gt;Node8</title>
<path fill="none" stroke="midnightblue" d="M1659.05,-168.45C1667.58,-160.12 1679.48,-146.6 1684.49,-132 1695.45,-100.05 1702.25,-84.73 1684.49,-56 1672.79,-37.06 1650.42,-25.82 1630.92,-19.32"/>
<polygon fill="midnightblue" stroke="midnightblue" points="1631.93,-15.96 1621.35,-16.41 1629.9,-22.66 1631.93,-15.96"/>
</g>
<!-- Node22&#45;&gt;Node4 -->
<g id="edge76" class="edge">
<title>Node22&#45;&gt;Node4</title>
<path fill="none" stroke="midnightblue" d="M1310.05,-504.43C1205.64,-483.05 953.49,-423.48 953.49,-347 953.49,-347 953.49,-347 953.49,-289 953.49,-208.84 855.98,-157.26 803.32,-135.24"/>
<polygon fill="midnightblue" stroke="midnightblue" points="804.62,-131.99 794.04,-131.48 801.99,-138.48 804.62,-131.99"/>
</g>
<!-- Node22&#45;&gt;Node7 -->
<g id="edge61" class="edge">
<title>Node22&#45;&gt;Node7</title>
<path fill="none" stroke="midnightblue" d="M1344.23,-504.31C1312.61,-477.53 1216.39,-396.03 1176.31,-362.09"/>
<polygon fill="midnightblue" stroke="midnightblue" points="1178.55,-359.4 1168.65,-355.61 1174.02,-364.74 1178.55,-359.4"/>
</g>
<!-- Node22&#45;&gt;Node8 -->
<g id="edge72" class="edge">
<title>Node22&#45;&gt;Node8</title>
<path fill="none" stroke="midnightblue" d="M1405.04,-511.59C1584.1,-505.95 2177.49,-481.34 2177.49,-403 2177.49,-403 2177.49,-403 2177.49,-121 2177.49,-31.33 2073.98,-75.67 1986.49,-56 1858.08,-27.13 1701.61,-16.25 1631.53,-12.61"/>
<polygon fill="midnightblue" stroke="midnightblue" points="1631.6,-9.11 1621.44,-12.11 1631.25,-16.1 1631.6,-9.11"/>
</g>
<!-- Node22&#45;&gt;Node11 -->
<g id="edge77" class="edge">
<title>Node22&#45;&gt;Node11</title>
<path fill="none" stroke="midnightblue" d="M1378.79,-504.47C1415.4,-489.88 1480.49,-456.43 1480.49,-403 1480.49,-403 1480.49,-403 1480.49,-289 1480.49,-246.5 1521.4,-211.77 1548.66,-193.34"/>
<polygon fill="midnightblue" stroke="midnightblue" points="1550.82,-196.11 1557.3,-187.73 1547.01,-190.24 1550.82,-196.11"/>
</g>
<!-- Node23 -->
<g id="node23" class="node">
<title>Node23</title>
<g id="a_node23"><a xlink:href="Texture_8hpp.html" target="_top" xlink:title=" ">
<polygon fill="white" stroke="black" points="835.49,-448.5 835.49,-467.5 963.49,-467.5 963.49,-448.5 835.49,-448.5"/>
<text text-anchor="middle" x="899.49" y="-455.5" font-family="Helvetica,sans-Serif" font-size="10.00">Drawables/Texture.hpp</text>
</a>
</g>
</g>
<!-- Node22&#45;&gt;Node23 -->
<g id="edge38" class="edge">
<title>Node22&#45;&gt;Node23</title>
<path fill="none" stroke="midnightblue" d="M1303.62,-506.96C1223.27,-497.43 1066.57,-478.83 973.68,-467.8"/>
<polygon fill="midnightblue" stroke="midnightblue" points="973.85,-464.3 963.51,-466.6 973.02,-471.25 973.85,-464.3"/>
</g>
<!-- Node24 -->
<g id="node24" class="node">
<title>Node24</title>
<g id="a_node24"><a xlink:href="Cache_8hpp.html" target="_top" xlink:title=" ">
<polygon fill="white" stroke="black" points="580.99,-280.5 580.99,-299.5 673.99,-299.5 673.99,-280.5 580.99,-280.5"/>
<text text-anchor="middle" x="627.49" y="-287.5" font-family="Helvetica,sans-Serif" font-size="10.00">Utils/Cache.hpp</text>
</a>
</g>
</g>
<!-- Node22&#45;&gt;Node24 -->
<g id="edge78" class="edge">
<title>Node22&#45;&gt;Node24</title>
<path fill="none" stroke="midnightblue" d="M1303.64,-512.65C1188.58,-511.21 911.65,-504.01 826.49,-468 741.69,-432.15 668.41,-344.98 640.04,-308.02"/>
<polygon fill="midnightblue" stroke="midnightblue" points="642.63,-305.64 633.81,-299.76 637.04,-309.86 642.63,-305.64"/>
</g>
<!-- Node35 -->
<g id="node35" class="node">
<title>Node35</title>
<g id="a_node35"><a xlink:href="ModelAnimation_8hpp.html" target="_top" xlink:title=" ">
<polygon fill="white" stroke="black" points="1868.99,-280.5 1868.99,-299.5 2019.99,-299.5 2019.99,-280.5 1868.99,-280.5"/>
<text text-anchor="middle" x="1944.49" y="-287.5" font-family="Helvetica,sans-Serif" font-size="10.00">Model/ModelAnimation.hpp</text>
</a>
</g>
</g>
<!-- Node22&#45;&gt;Node35 -->
<g id="edge62" class="edge">
<title>Node22&#45;&gt;Node35</title>
<path fill="none" stroke="midnightblue" d="M1394.14,-504.44C1429.53,-496.38 1482.54,-483.29 1527.49,-468 1678.69,-416.56 1852.41,-335.35 1917.78,-303.97"/>
<polygon fill="midnightblue" stroke="midnightblue" points="1919.48,-307.04 1926.97,-299.54 1916.44,-300.73 1919.48,-307.04"/>
</g>
<!-- Node36 -->
<g id="node36" class="node">
<title>Node36</title>
<g id="a_node36"><a xlink:href="Shaders_8hpp.html" target="_top" xlink:title=" ">
<polygon fill="white" stroke="black" points="1648.99,-336.5 1648.99,-355.5 1767.99,-355.5 1767.99,-336.5 1648.99,-336.5"/>
<text text-anchor="middle" x="1708.49" y="-343.5" font-family="Helvetica,sans-Serif" font-size="10.00">Shaders/Shaders.hpp</text>
</a>
</g>
</g>
<!-- Node22&#45;&gt;Node36 -->
<g id="edge65" class="edge">
<title>Node22&#45;&gt;Node36</title>
<path fill="none" stroke="midnightblue" d="M1387.44,-504.46C1416.26,-496.51 1458.95,-483.57 1494.49,-468 1568.02,-435.8 1649,-385.61 1686.81,-361.24"/>
<polygon fill="midnightblue" stroke="midnightblue" points="1688.98,-364 1695.46,-355.63 1685.17,-358.13 1688.98,-364"/>
</g>
<!-- Node38 -->
<g id="node38" class="node">
<title>Node38</title>
<g id="a_node38"><a xlink:href="AMesh_8hpp.html" target="_top" xlink:title=" ">
<polygon fill="white" stroke="black" points="2037.99,-280.5 2037.99,-299.5 2148.99,-299.5 2148.99,-280.5 2037.99,-280.5"/>
<text text-anchor="middle" x="2093.49" y="-287.5" font-family="Helvetica,sans-Serif" font-size="10.00">Meshes/AMesh.hpp</text>
</a>
</g>
</g>
<!-- Node22&#45;&gt;Node38 -->
<g id="edge73" class="edge">
<title>Node22&#45;&gt;Node38</title>
<path fill="none" stroke="midnightblue" d="M1402.44,-504.45C1445.66,-496.36 1510.78,-483.22 1566.49,-468 1757.31,-415.89 1980.38,-333.77 2061.75,-303.09"/>
<polygon fill="midnightblue" stroke="midnightblue" points="2063.06,-306.34 2071.18,-299.53 2060.59,-299.79 2063.06,-306.34"/>
</g>
<!-- Node23&#45;&gt;Node5 -->
<g id="edge40" class="edge">
<title>Node23&#45;&gt;Node5</title>
<path fill="none" stroke="midnightblue" d="M901.65,-448.22C906.02,-429.66 915.49,-385.02 915.49,-347 915.49,-347 915.49,-347 915.49,-289 915.49,-245.54 872.44,-210.96 843.99,-192.85"/>
<polygon fill="midnightblue" stroke="midnightblue" points="845.7,-189.79 835.34,-187.56 842.05,-195.77 845.7,-189.79"/>
</g>
<!-- Node23&#45;&gt;Node8 -->
<g id="edge39" class="edge">
<title>Node23&#45;&gt;Node8</title>
<path fill="none" stroke="midnightblue" d="M835.21,-450.72C632.58,-429.18 20.49,-349.96 20.49,-179 20.49,-179 20.49,-179 20.49,-121 20.49,-109.99 -98.69,-108.91 245.49,-56 508.9,-15.51 1369.2,-11.45 1557.75,-11.04"/>
<polygon fill="midnightblue" stroke="midnightblue" points="1557.97,-14.54 1567.96,-11.02 1557.96,-7.54 1557.97,-14.54"/>
</g>
<!-- Node23&#45;&gt;Node24 -->
<g id="edge41" class="edge">
<title>Node23&#45;&gt;Node24</title>
<path fill="none" stroke="midnightblue" d="M885.25,-448.31C840.82,-421.19 704.47,-337.98 650.16,-304.83"/>
<polygon fill="midnightblue" stroke="midnightblue" points="651.95,-301.83 641.59,-299.61 648.3,-307.8 651.95,-301.83"/>
</g>
<!-- Node33 -->
<g id="node33" class="node">
<title>Node33</title>
<g id="a_node33"><a xlink:href="Rectangle_8hpp.html" target="_top" xlink:title=" ">
<polygon fill="white" stroke="black" points="1256.49,-392.5 1256.49,-411.5 1414.49,-411.5 1414.49,-392.5 1256.49,-392.5"/>
<text text-anchor="middle" x="1335.49" y="-399.5" font-family="Helvetica,sans-Serif" font-size="10.00">Drawables/2D/Rectangle.hpp</text>
</a>
</g>
</g>
<!-- Node23&#45;&gt;Node33 -->
<g id="edge54" class="edge">
<title>Node23&#45;&gt;Node33</title>
<path fill="none" stroke="midnightblue" d="M963.83,-449.03C1041.67,-439.39 1172.71,-423.16 1256.58,-412.77"/>
<polygon fill="midnightblue" stroke="midnightblue" points="1257.08,-416.24 1266.57,-411.54 1256.22,-409.29 1257.08,-416.24"/>
</g>
<!-- Node24&#45;&gt;Node4 -->
<g id="edge50" class="edge">
<title>Node24&#45;&gt;Node4</title>
<path fill="none" stroke="midnightblue" d="M636.27,-280.24C644.69,-271.54 657.42,-257.58 666.49,-244 687.47,-212.6 679.65,-196.44 704.49,-168 715.69,-155.19 731.31,-144.32 744.55,-136.48"/>
<polygon fill="midnightblue" stroke="midnightblue" points="746.27,-139.52 753.24,-131.54 742.82,-133.43 746.27,-139.52"/>
</g>
<!-- Node24&#45;&gt;Node5 -->
<g id="edge52" class="edge">
<title>Node24&#45;&gt;Node5</title>
<path fill="none" stroke="midnightblue" d="M674.17,-286.66C734.56,-282.55 834.73,-271.64 857.49,-244 870.37,-228.36 853.73,-207.83 838.59,-194.07"/>
<polygon fill="midnightblue" stroke="midnightblue" points="840.85,-191.39 830.97,-187.55 836.29,-196.71 840.85,-191.39"/>
</g>
<!-- Node24&#45;&gt;Node8 -->
<g id="edge46" class="edge">
<title>Node24&#45;&gt;Node8</title>
<path fill="none" stroke="midnightblue" d="M580.81,-288.17C455.06,-285.51 116.1,-275.48 77.49,-244 54.17,-224.98 58.49,-209.1 58.49,-179 58.49,-179 58.49,-179 58.49,-121 58.49,-43.33 1324.65,-16.02 1557.82,-11.65"/>
<polygon fill="midnightblue" stroke="midnightblue" points="1557.9,-15.15 1567.83,-11.47 1557.77,-8.15 1557.9,-15.15"/>
</g>
<!-- Node25 -->
<g id="node25" class="node">
<title>Node25</title>
<g id="a_node25"><a xlink:title=" ">
<polygon fill="white" stroke="#bfbfbf" points="1845.49,-224.5 1845.49,-243.5 1903.49,-243.5 1903.49,-224.5 1845.49,-224.5"/>
<text text-anchor="middle" x="1874.49" y="-231.5" font-family="Helvetica,sans-Serif" font-size="10.00">memory</text>
</a>
</g>
</g>
<!-- Node24&#45;&gt;Node25 -->
<g id="edge42" class="edge">
<title>Node24&#45;&gt;Node25</title>
<path fill="none" stroke="midnightblue" d="M674.1,-286.98C873.29,-278.36 1651.3,-244.66 1835.32,-236.7"/>
<polygon fill="midnightblue" stroke="midnightblue" points="1835.52,-240.19 1845.36,-236.26 1835.22,-233.2 1835.52,-240.19"/>
</g>
<!-- Node26 -->
<g id="node26" class="node">
<title>Node26</title>
<g id="a_node26"><a xlink:title=" ">
<polygon fill="white" stroke="#bfbfbf" points="257.99,-224.5 257.99,-243.5 350.99,-243.5 350.99,-224.5 257.99,-224.5"/>
<text text-anchor="middle" x="304.49" y="-231.5" font-family="Helvetica,sans-Serif" font-size="10.00">unordered_map</text>
</a>
</g>
</g>
<!-- Node24&#45;&gt;Node26 -->
<g id="edge43" class="edge">
<title>Node24&#45;&gt;Node26</title>
<path fill="none" stroke="midnightblue" d="M580.87,-281.21C522.78,-271.49 423.59,-254.91 361.17,-244.48"/>
<polygon fill="midnightblue" stroke="midnightblue" points="361.54,-240.99 351.1,-242.79 360.39,-247.89 361.54,-240.99"/>
</g>
<!-- Node27 -->
<g id="node27" class="node">
<title>Node27</title>
<g id="a_node27"><a xlink:title=" ">
<polygon fill="white" stroke="#bfbfbf" points="368.99,-224.5 368.99,-243.5 433.99,-243.5 433.99,-224.5 368.99,-224.5"/>
<text text-anchor="middle" x="401.49" y="-231.5" font-family="Helvetica,sans-Serif" font-size="10.00">functional</text>
</a>
</g>
</g>
<!-- Node24&#45;&gt;Node27 -->
<g id="edge44" class="edge">
<title>Node24&#45;&gt;Node27</title>
<path fill="none" stroke="midnightblue" d="M591.68,-280.44C551.58,-270.86 486.64,-255.35 444,-245.16"/>
<polygon fill="midnightblue" stroke="midnightblue" points="444.74,-241.73 434.2,-242.82 443.11,-248.54 444.74,-241.73"/>
</g>
<!-- Node28 -->
<g id="node28" class="node">
<title>Node28</title>
<g id="a_node28"><a xlink:title=" ">
<polygon fill="white" stroke="#bfbfbf" points="451.99,-224.5 451.99,-243.5 496.99,-243.5 496.99,-224.5 451.99,-224.5"/>
<text text-anchor="middle" x="474.49" y="-231.5" font-family="Helvetica,sans-Serif" font-size="10.00">utility</text>
</a>
</g>
</g>
<!-- Node24&#45;&gt;Node28 -->
<g id="edge45" class="edge">
<title>Node24&#45;&gt;Node28</title>
<path fill="none" stroke="midnightblue" d="M603.25,-280.44C577.17,-271.24 535.57,-256.56 506.74,-246.38"/>
<polygon fill="midnightblue" stroke="midnightblue" points="507.72,-243.02 497.13,-242.99 505.39,-249.62 507.72,-243.02"/>
</g>
<!-- Node29 -->
<g id="node29" class="node">
<title>Node29</title>
<g id="a_node29"><a xlink:href="RayError_8hpp.html" target="_top" xlink:title=" ">
<polygon fill="white" stroke="black" points="713.99,-224.5 713.99,-243.5 848.99,-243.5 848.99,-224.5 713.99,-224.5"/>
<text text-anchor="middle" x="781.49" y="-231.5" font-family="Helvetica,sans-Serif" font-size="10.00">Exceptions/RayError.hpp</text>
</a>
</g>
</g>
<!-- Node24&#45;&gt;Node29 -->
<g id="edge47" class="edge">
<title>Node24&#45;&gt;Node29</title>
<path fill="none" stroke="midnightblue" d="M651.89,-280.44C677.69,-271.4 718.57,-257.06 747.51,-246.92"/>
<polygon fill="midnightblue" stroke="midnightblue" points="748.93,-250.13 757.2,-243.52 746.61,-243.52 748.93,-250.13"/>
</g>
<!-- Node31 -->
<g id="node31" class="node">
<title>Node31</title>
<g id="a_node31"><a xlink:title=" ">
<polygon fill="white" stroke="#bfbfbf" points="515.49,-224.5 515.49,-243.5 579.49,-243.5 579.49,-224.5 515.49,-224.5"/>
<text text-anchor="middle" x="547.49" y="-231.5" font-family="Helvetica,sans-Serif" font-size="10.00">algorithm</text>
</a>
</g>
</g>
<!-- Node24&#45;&gt;Node31 -->
<g id="edge51" class="edge">
<title>Node24&#45;&gt;Node31</title>
<path fill="none" stroke="midnightblue" d="M614.64,-280.32C602.28,-271.98 583.36,-259.21 568.76,-249.35"/>
<polygon fill="midnightblue" stroke="midnightblue" points="570.56,-246.35 560.31,-243.65 566.64,-252.15 570.56,-246.35"/>
</g>
<!-- Node32 -->
<g id="node32" class="node">
<title>Node32</title>
<g id="a_node32"><a xlink:title=" ">
<polygon fill="white" stroke="#bfbfbf" points="597.49,-224.5 597.49,-243.5 657.49,-243.5 657.49,-224.5 597.49,-224.5"/>
<text text-anchor="middle" x="627.49" y="-231.5" font-family="Helvetica,sans-Serif" font-size="10.00">iostream</text>
</a>
</g>
</g>
<!-- Node24&#45;&gt;Node32 -->
<g id="edge53" class="edge">
<title>Node24&#45;&gt;Node32</title>
<path fill="none" stroke="midnightblue" d="M627.49,-280.08C627.49,-273.01 627.49,-262.86 627.49,-253.99"/>
<polygon fill="midnightblue" stroke="midnightblue" points="630.99,-253.75 627.49,-243.75 623.99,-253.75 630.99,-253.75"/>
</g>
<!-- Node29&#45;&gt;Node5 -->
<g id="edge49" class="edge">
<title>Node29&#45;&gt;Node5</title>
<path fill="none" stroke="midnightblue" d="M787.77,-224.08C793.13,-216.46 801.01,-205.26 807.57,-195.94"/>
<polygon fill="midnightblue" stroke="midnightblue" points="810.44,-197.94 813.33,-187.75 804.72,-193.91 810.44,-197.94"/>
</g>
<!-- Node30 -->
<g id="node30" class="node">
<title>Node30</title>
<g id="a_node30"><a xlink:title=" ">
<polygon fill="white" stroke="#bfbfbf" points="713.99,-168.5 713.99,-187.5 778.99,-187.5 778.99,-168.5 713.99,-168.5"/>
<text text-anchor="middle" x="746.49" y="-175.5" font-family="Helvetica,sans-Serif" font-size="10.00">stdexcept</text>
</a>
</g>
</g>
<!-- Node29&#45;&gt;Node30 -->
<g id="edge48" class="edge">
<title>Node29&#45;&gt;Node30</title>
<path fill="none" stroke="midnightblue" d="M775.71,-224.08C770.82,-216.53 763.66,-205.49 757.66,-196.23"/>
<polygon fill="midnightblue" stroke="midnightblue" points="760.54,-194.24 752.16,-187.75 754.67,-198.05 760.54,-194.24"/>
</g>
<!-- Node33&#45;&gt;Node8 -->
<g id="edge55" class="edge">
<title>Node33&#45;&gt;Node8</title>
<path fill="none" stroke="midnightblue" d="M1368.63,-392.5C1441.75,-371.77 1616.17,-311.09 1689.49,-188 1719.66,-137.35 1735.19,-105.05 1702.49,-56 1686.72,-32.34 1655.9,-21.1 1631.2,-15.77"/>
<polygon fill="midnightblue" stroke="midnightblue" points="1631.54,-12.27 1621.06,-13.83 1630.22,-19.15 1631.54,-12.27"/>
</g>
<!-- Node34 -->
<g id="node34" class="node">
<title>Node34</title>
<g id="a_node34"><a xlink:href="ADrawable2D_8hpp.html" target="_top" xlink:title=" ">
<polygon fill="white" stroke="black" points="1255.99,-336.5 1255.99,-355.5 1414.99,-355.5 1414.99,-336.5 1255.99,-336.5"/>
<text text-anchor="middle" x="1335.49" y="-343.5" font-family="Helvetica,sans-Serif" font-size="10.00">Drawables/ADrawable2D.hpp</text>
</a>
</g>
</g>
<!-- Node33&#45;&gt;Node34 -->
<g id="edge56" class="edge">
<title>Node33&#45;&gt;Node34</title>
<path fill="none" stroke="midnightblue" d="M1335.49,-392.08C1335.49,-385.01 1335.49,-374.86 1335.49,-365.99"/>
<polygon fill="midnightblue" stroke="midnightblue" points="1338.99,-365.75 1335.49,-355.75 1331.99,-365.75 1338.99,-365.75"/>
</g>
<!-- Node34&#45;&gt;Node8 -->
<g id="edge57" class="edge">
<title>Node34&#45;&gt;Node8</title>
<path fill="none" stroke="midnightblue" d="M1415.23,-343.42C1517.68,-336.42 1690.64,-306.61 1760.49,-188 1790.27,-137.45 1796.14,-102.6 1760.49,-56 1744.87,-35.58 1675.16,-22.27 1631.19,-15.75"/>
<polygon fill="midnightblue" stroke="midnightblue" points="1631.55,-12.26 1621.15,-14.31 1630.56,-19.19 1631.55,-12.26"/>
</g>
<!-- Node34&#45;&gt;Node9 -->
<g id="edge59" class="edge">
<title>Node34&#45;&gt;Node9</title>
<path fill="none" stroke="midnightblue" d="M1317.11,-336.44C1298.28,-327.68 1268.76,-313.94 1247.11,-303.86"/>
<polygon fill="midnightblue" stroke="midnightblue" points="1248.33,-300.56 1237.79,-299.52 1245.38,-306.91 1248.33,-300.56"/>
</g>
<!-- Node34&#45;&gt;Node12 -->
<g id="edge58" class="edge">
<title>Node34&#45;&gt;Node12</title>
<path fill="none" stroke="midnightblue" d="M1332.56,-336.42C1327.6,-322.95 1316.4,-296.66 1299.49,-280 1237.74,-219.15 1191.27,-246.72 1127.49,-188 1112.86,-174.53 1101.1,-154.89 1093.79,-140.74"/>
<polygon fill="midnightblue" stroke="midnightblue" points="1096.83,-138.99 1089.27,-131.56 1090.55,-142.08 1096.83,-138.99"/>
</g>
<!-- Node34&#45;&gt;Node21 -->
<g id="edge60" class="edge">
<title>Node34&#45;&gt;Node21</title>
<path fill="none" stroke="midnightblue" d="M1415.45,-338.16C1453.03,-332.18 1497.21,-320.98 1532.49,-300 1571.2,-276.99 1567.82,-256 1599.49,-224 1609.66,-213.73 1621.68,-202.87 1631.39,-194.4"/>
<polygon fill="midnightblue" stroke="midnightblue" points="1633.94,-196.82 1639.22,-187.64 1629.36,-191.52 1633.94,-196.82"/>
</g>
<!-- Node35&#45;&gt;Node8 -->
<g id="edge63" class="edge">
<title>Node35&#45;&gt;Node8</title>
<path fill="none" stroke="midnightblue" d="M1943.32,-280.46C1940.88,-261.99 1935.49,-216.94 1935.49,-179 1935.49,-179 1935.49,-179 1935.49,-121 1935.49,-57.64 1719.55,-25.46 1631.35,-14.96"/>
<polygon fill="midnightblue" stroke="midnightblue" points="1631.59,-11.47 1621.25,-13.79 1630.78,-18.42 1631.59,-11.47"/>
</g>
<!-- Node35&#45;&gt;Node25 -->
<g id="edge64" class="edge">
<title>Node35&#45;&gt;Node25</title>
<path fill="none" stroke="midnightblue" d="M1933.25,-280.32C1922.7,-272.18 1906.69,-259.84 1894.05,-250.09"/>
<polygon fill="midnightblue" stroke="midnightblue" points="1896,-247.17 1885.94,-243.83 1891.72,-252.71 1896,-247.17"/>
</g>
<!-- Node36&#45;&gt;Node5 -->
<g id="edge66" class="edge">
<title>Node36&#45;&gt;Node5</title>
<path fill="none" stroke="midnightblue" d="M1662.88,-336.48C1505.4,-307.08 986.86,-210.25 851.86,-185.04"/>
<polygon fill="midnightblue" stroke="midnightblue" points="852.22,-181.55 841.75,-183.16 850.94,-188.43 852.22,-181.55"/>
</g>
<!-- Node36&#45;&gt;Node8 -->
<g id="edge69" class="edge">
<title>Node36&#45;&gt;Node8</title>
<path fill="none" stroke="midnightblue" d="M1733.9,-336.44C1750.78,-329.39 1771.89,-317.63 1783.49,-300 1843.19,-209.22 1866.54,-140.7 1798.49,-56 1777.89,-30.36 1684.05,-18.46 1631.11,-13.7"/>
<polygon fill="midnightblue" stroke="midnightblue" points="1631.37,-10.21 1621.1,-12.85 1630.77,-17.19 1631.37,-10.21"/>
</g>
<!-- Node36&#45;&gt;Node13 -->
<g id="edge71" class="edge">
<title>Node36&#45;&gt;Node13</title>
<path fill="none" stroke="midnightblue" d="M1710.34,-336.2C1715.66,-308.41 1728.24,-221.22 1689.49,-168 1677.81,-151.95 1659.08,-141.53 1640.91,-134.8"/>
<polygon fill="midnightblue" stroke="midnightblue" points="1641.8,-131.41 1631.21,-131.52 1639.56,-138.04 1641.8,-131.41"/>
</g>
<!-- Node36&#45;&gt;Node24 -->
<g id="edge70" class="edge">
<title>Node36&#45;&gt;Node24</title>
<path fill="none" stroke="midnightblue" d="M1648.83,-342.02C1458.89,-332.53 869.85,-303.11 684.16,-293.83"/>
<polygon fill="midnightblue" stroke="midnightblue" points="684.23,-290.33 674.07,-293.33 683.88,-297.32 684.23,-290.33"/>
</g>
<!-- Node36&#45;&gt;Node25 -->
<g id="edge67" class="edge">
<title>Node36&#45;&gt;Node25</title>
<path fill="none" stroke="midnightblue" d="M1738.74,-336.44C1761.47,-329.08 1792.66,-316.96 1816.49,-300 1835.09,-286.76 1851.92,-266.54 1862.6,-252.17"/>
<polygon fill="midnightblue" stroke="midnightblue" points="1865.69,-253.87 1868.69,-243.7 1860.01,-249.78 1865.69,-253.87"/>
</g>
<!-- Node37 -->
<g id="node37" class="node">
<title>Node37</title>
<g id="a_node37"><a xlink:title=" ">
<polygon fill="white" stroke="#bfbfbf" points="1736.49,-280.5 1736.49,-299.5 1774.49,-299.5 1774.49,-280.5 1736.49,-280.5"/>
<text text-anchor="middle" x="1755.49" y="-287.5" font-family="Helvetica,sans-Serif" font-size="10.00">map</text>
</a>
</g>
</g>
<!-- Node36&#45;&gt;Node37 -->
<g id="edge68" class="edge">
<title>Node36&#45;&gt;Node37</title>
<path fill="none" stroke="midnightblue" d="M1716.25,-336.08C1723.03,-328.3 1733.04,-316.8 1741.25,-307.37"/>
<polygon fill="midnightblue" stroke="midnightblue" points="1743.95,-309.59 1747.88,-299.75 1738.67,-305 1743.95,-309.59"/>
</g>
<!-- Node38&#45;&gt;Node8 -->
<g id="edge74" class="edge">
<title>Node38&#45;&gt;Node8</title>
<path fill="none" stroke="midnightblue" d="M2084.9,-280.47C2068.31,-263.04 2033.49,-221.42 2033.49,-179 2033.49,-179 2033.49,-179 2033.49,-121 2033.49,-38.39 1737.3,-17.28 1631.5,-12.37"/>
<polygon fill="midnightblue" stroke="midnightblue" points="1631.44,-8.86 1621.29,-11.92 1631.13,-15.85 1631.44,-8.86"/>
</g>
<!-- Node38&#45;&gt;Node25 -->
<g id="edge75" class="edge">
<title>Node38&#45;&gt;Node25</title>
<path fill="none" stroke="midnightblue" d="M2058.79,-280.44C2019.32,-270.71 1955.01,-254.85 1913.74,-244.68"/>
<polygon fill="midnightblue" stroke="midnightblue" points="1914.32,-241.22 1903.77,-242.22 1912.65,-248.01 1914.32,-241.22"/>
</g>
</g>
</svg>
