<?xml version="1.0" encoding="UTF-8" standalone="no"?>
<!DOCTYPE svg PUBLIC "-//W3C//DTD SVG 1.1//EN"
 "http://www.w3.org/Graphics/SVG/1.1/DTD/svg11.dtd">
<!-- Generated by graphviz version 2.43.0 (0)
 -->
<!-- Title: sources/System/EndCondition/EndConditionSystem.hpp Pages: 1 -->
<svg width="1299pt" height="431pt"
 viewBox="0.00 0.00 1298.50 431.00" xmlns="http://www.w3.org/2000/svg" xmlns:xlink="http://www.w3.org/1999/xlink">
<g id="graph0" class="graph" transform="scale(1 1) rotate(0) translate(4 427)">
<title>sources/System/EndCondition/EndConditionSystem.hpp</title>
<polygon fill="white" stroke="transparent" points="-4,4 -4,-427 1294.5,-427 1294.5,4 -4,4"/>
<!-- Node1 -->
<g id="node1" class="node">
<title>Node1</title>
<g id="a_node1"><a xlink:title=" ">
<polygon fill="#bfbfbf" stroke="black" points="312.5,-392.5 312.5,-422.5 473.5,-422.5 473.5,-392.5 312.5,-392.5"/>
<text text-anchor="start" x="320.5" y="-410.5" font-family="Helvetica,sans-Serif" font-size="10.00">sources/System/EndCondition</text>
<text text-anchor="middle" x="393" y="-399.5" font-family="Helvetica,sans-Serif" font-size="10.00">/EndConditionSystem.hpp</text>
</a>
</g>
</g>
<!-- Node2 -->
<g id="node2" class="node">
<title>Node2</title>
<g id="a_node2"><a xlink:href="System_8hpp.html" target="_top" xlink:title=" ">
<polygon fill="white" stroke="black" points="336,-336.5 336,-355.5 450,-355.5 450,-336.5 336,-336.5"/>
<text text-anchor="middle" x="393" y="-343.5" font-family="Helvetica,sans-Serif" font-size="10.00">System/System.hpp</text>
</a>
</g>
</g>
<!-- Node1&#45;&gt;Node2 -->
<g id="edge1" class="edge">
<title>Node1&#45;&gt;Node2</title>
<path fill="none" stroke="midnightblue" d="M393,-392.4C393,-384.47 393,-374.46 393,-365.86"/>
<polygon fill="midnightblue" stroke="midnightblue" points="396.5,-365.66 393,-355.66 389.5,-365.66 396.5,-365.66"/>
</g>
<!-- Node3 -->
<g id="node3" class="node">
<title>Node3</title>
<g id="a_node3"><a xlink:title=" ">
<polygon fill="white" stroke="#bfbfbf" points="288,-168.5 288,-187.5 338,-187.5 338,-168.5 288,-168.5"/>
<text text-anchor="middle" x="313" y="-175.5" font-family="Helvetica,sans-Serif" font-size="10.00">chrono</text>
</a>
</g>
</g>
<!-- Node1&#45;&gt;Node3 -->
<g id="edge60" class="edge">
<title>Node1&#45;&gt;Node3</title>
<path fill="none" stroke="midnightblue" d="M369.57,-392.43C343.04,-374.79 301.83,-341.75 289,-300 277.99,-264.16 293.27,-220.74 304.02,-196.88"/>
<polygon fill="midnightblue" stroke="midnightblue" points="307.27,-198.19 308.4,-187.66 300.95,-195.19 307.27,-198.19"/>
</g>
<!-- Node16 -->
<g id="node16" class="node">
<title>Node16</title>
<g id="a_node16"><a xlink:href="Wal_8hpp.html" target="_top" xlink:title=" ">
<polygon fill="white" stroke="black" points="846,-280.5 846,-299.5 902,-299.5 902,-280.5 846,-280.5"/>
<text text-anchor="middle" x="874" y="-287.5" font-family="Helvetica,sans-Serif" font-size="10.00">Wal.hpp</text>
</a>
</g>
</g>
<!-- Node1&#45;&gt;Node16 -->
<g id="edge59" class="edge">
<title>Node1&#45;&gt;Node16</title>
<path fill="none" stroke="midnightblue" d="M473.55,-402.52C598.17,-395.65 826.42,-379.96 855,-356 868.35,-344.81 872.61,-324.78 873.83,-309.91"/>
<polygon fill="midnightblue" stroke="midnightblue" points="877.34,-309.91 874.27,-299.77 870.34,-309.61 877.34,-309.91"/>
</g>
<!-- Node27 -->
<g id="node27" class="node">
<title>Node27</title>
<g id="a_node27"><a xlink:href="ScoreComponent_8hpp.html" target="_top" xlink:title=" ">
<polygon fill="white" stroke="black" points="66,-224.5 66,-243.5 276,-243.5 276,-224.5 66,-224.5"/>
<text text-anchor="middle" x="171" y="-231.5" font-family="Helvetica,sans-Serif" font-size="10.00">Component/Score/ScoreComponent.hpp</text>
</a>
</g>
</g>
<!-- Node1&#45;&gt;Node27 -->
<g id="edge51" class="edge">
<title>Node1&#45;&gt;Node27</title>
<path fill="none" stroke="midnightblue" d="M312.09,-396.67C281.9,-389.53 249.12,-377.22 225,-356 194.02,-328.74 179.94,-280.28 174.29,-253.71"/>
<polygon fill="midnightblue" stroke="midnightblue" points="177.71,-252.93 172.36,-243.78 170.83,-254.27 177.71,-252.93"/>
</g>
<!-- Node28 -->
<g id="node28" class="node">
<title>Node28</title>
<g id="a_node28"><a xlink:href="HealthComponent_8hpp.html" target="_top" xlink:title=" ">
<polygon fill="white" stroke="black" points="624.5,-336.5 624.5,-355.5 845.5,-355.5 845.5,-336.5 624.5,-336.5"/>
<text text-anchor="middle" x="735" y="-343.5" font-family="Helvetica,sans-Serif" font-size="10.00">Component/Health/HealthComponent.hpp</text>
</a>
</g>
</g>
<!-- Node1&#45;&gt;Node28 -->
<g id="edge54" class="edge">
<title>Node1&#45;&gt;Node28</title>
<path fill="none" stroke="midnightblue" d="M473.62,-392.47C535.71,-381.67 620.12,-366.99 676.01,-357.26"/>
<polygon fill="midnightblue" stroke="midnightblue" points="676.85,-360.67 686.11,-355.51 675.65,-353.77 676.85,-360.67"/>
</g>
<!-- Node2&#45;&gt;Node3 -->
<g id="edge2" class="edge">
<title>Node2&#45;&gt;Node3</title>
<path fill="none" stroke="midnightblue" d="M350.61,-336.45C330.42,-330.02 308.09,-318.93 296,-300 281.61,-277.46 310.76,-269.74 318,-244 322.31,-228.68 320.38,-210.58 317.76,-197.37"/>
<polygon fill="midnightblue" stroke="midnightblue" points="321.16,-196.57 315.52,-187.6 314.34,-198.13 321.16,-196.57"/>
</g>
<!-- Node4 -->
<g id="node4" class="node">
<title>Node4</title>
<g id="a_node4"><a xlink:title=" ">
<polygon fill="white" stroke="#bfbfbf" points="484.5,-0.5 484.5,-19.5 531.5,-19.5 531.5,-0.5 484.5,-0.5"/>
<text text-anchor="middle" x="508" y="-7.5" font-family="Helvetica,sans-Serif" font-size="10.00">vector</text>
</a>
</g>
</g>
<!-- Node2&#45;&gt;Node4 -->
<g id="edge3" class="edge">
<title>Node2&#45;&gt;Node4</title>
<path fill="none" stroke="midnightblue" d="M335.96,-339.24C235.61,-327.52 38,-296.62 38,-235 38,-235 38,-235 38,-177 38,-84.35 366.8,-30.56 474.38,-15.44"/>
<polygon fill="midnightblue" stroke="midnightblue" points="474.94,-18.89 484.37,-14.05 473.99,-11.96 474.94,-18.89"/>
</g>
<!-- Node5 -->
<g id="node5" class="node">
<title>Node5</title>
<g id="a_node5"><a xlink:title=" ">
<polygon fill="white" stroke="#bfbfbf" points="813.5,-56.5 813.5,-75.5 870.5,-75.5 870.5,-56.5 813.5,-56.5"/>
<text text-anchor="middle" x="842" y="-63.5" font-family="Helvetica,sans-Serif" font-size="10.00">typeinfo</text>
</a>
</g>
</g>
<!-- Node2&#45;&gt;Node5 -->
<g id="edge4" class="edge">
<title>Node2&#45;&gt;Node5</title>
<path fill="none" stroke="midnightblue" d="M391.69,-336.29C386.17,-298.03 366.34,-145.22 397,-112 424.94,-81.73 725.04,-80.42 766,-76 778.06,-74.7 791.18,-73.18 803.07,-71.77"/>
<polygon fill="midnightblue" stroke="midnightblue" points="803.63,-75.22 813.14,-70.56 802.8,-68.27 803.63,-75.22"/>
</g>
<!-- Node6 -->
<g id="node6" class="node">
<title>Node6</title>
<g id="a_node6"><a xlink:title=" ">
<polygon fill="white" stroke="#bfbfbf" points="43.5,-0.5 43.5,-19.5 108.5,-19.5 108.5,-0.5 43.5,-0.5"/>
<text text-anchor="middle" x="76" y="-7.5" font-family="Helvetica,sans-Serif" font-size="10.00">typeindex</text>
</a>
</g>
</g>
<!-- Node2&#45;&gt;Node6 -->
<g id="edge5" class="edge">
<title>Node2&#45;&gt;Node6</title>
<path fill="none" stroke="midnightblue" d="M335.93,-340.6C258.05,-333.97 122.99,-320 78,-300 36.77,-281.67 0,-280.13 0,-235 0,-235 0,-235 0,-121 0,-81.28 33.96,-45.5 56.48,-26.15"/>
<polygon fill="midnightblue" stroke="midnightblue" points="58.98,-28.63 64.46,-19.57 54.52,-23.24 58.98,-28.63"/>
</g>
<!-- Node7 -->
<g id="node7" class="node">
<title>Node7</title>
<g id="a_node7"><a xlink:href="Entity_8hpp.html" target="_top" xlink:title=" ">
<polygon fill="white" stroke="black" points="712,-112.5 712,-131.5 808,-131.5 808,-112.5 712,-112.5"/>
<text text-anchor="middle" x="760" y="-119.5" font-family="Helvetica,sans-Serif" font-size="10.00">Entity/Entity.hpp</text>
</a>
</g>
</g>
<!-- Node2&#45;&gt;Node7 -->
<g id="edge6" class="edge">
<title>Node2&#45;&gt;Node7</title>
<path fill="none" stroke="midnightblue" d="M447.45,-336.44C535.25,-321.51 702.23,-288.02 741,-244 766.1,-215.5 765.43,-167.89 762.72,-141.69"/>
<polygon fill="midnightblue" stroke="midnightblue" points="766.18,-141.09 761.47,-131.6 759.23,-141.95 766.18,-141.09"/>
</g>
<!-- Node2&#45;&gt;Node16 -->
<g id="edge20" class="edge">
<title>Node2&#45;&gt;Node16</title>
<path fill="none" stroke="midnightblue" d="M450.07,-338.59C549.34,-327.45 751.29,-304.78 835.64,-295.31"/>
<polygon fill="midnightblue" stroke="midnightblue" points="836.25,-298.76 845.8,-294.17 835.47,-291.8 836.25,-298.76"/>
</g>
<!-- Node18 -->
<g id="node18" class="node">
<title>Node18</title>
<g id="a_node18"><a xlink:href="ISystem_8hpp.html" target="_top" xlink:title=" ">
<polygon fill="white" stroke="black" points="497.5,-224.5 497.5,-243.5 614.5,-243.5 614.5,-224.5 497.5,-224.5"/>
<text text-anchor="middle" x="556" y="-231.5" font-family="Helvetica,sans-Serif" font-size="10.00">System/ISystem.hpp</text>
</a>
</g>
</g>
<!-- Node2&#45;&gt;Node18 -->
<g id="edge49" class="edge">
<title>Node2&#45;&gt;Node18</title>
<path fill="none" stroke="midnightblue" d="M413.87,-336.45C432.68,-328.31 460.73,-315.09 483,-300 504.37,-285.52 526.12,-265.29 540.26,-251.26"/>
<polygon fill="midnightblue" stroke="midnightblue" points="543.09,-253.38 547.64,-243.81 538.11,-248.45 543.09,-253.38"/>
</g>
<!-- Node19 -->
<g id="node19" class="node">
<title>Node19</title>
<g id="a_node19"><a xlink:href="View_8hpp.html" target="_top" xlink:title=" ">
<polygon fill="white" stroke="black" points="454,-168.5 454,-187.5 542,-187.5 542,-168.5 454,-168.5"/>
<text text-anchor="middle" x="498" y="-175.5" font-family="Helvetica,sans-Serif" font-size="10.00">View/View.hpp</text>
</a>
</g>
</g>
<!-- Node2&#45;&gt;Node19 -->
<g id="edge48" class="edge">
<title>Node2&#45;&gt;Node19</title>
<path fill="none" stroke="midnightblue" d="M398.65,-336.08C415.39,-309.61 464.98,-231.21 487.11,-196.21"/>
<polygon fill="midnightblue" stroke="midnightblue" points="490.19,-197.89 492.58,-187.57 484.28,-194.15 490.19,-197.89"/>
</g>
<!-- Node26 -->
<g id="node26" class="node">
<title>Node26</title>
<g id="a_node26"><a xlink:title=" ">
<polygon fill="white" stroke="#bfbfbf" points="305,-280.5 305,-299.5 365,-299.5 365,-280.5 305,-280.5"/>
<text text-anchor="middle" x="335" y="-287.5" font-family="Helvetica,sans-Serif" font-size="10.00">iostream</text>
</a>
</g>
</g>
<!-- Node2&#45;&gt;Node26 -->
<g id="edge50" class="edge">
<title>Node2&#45;&gt;Node26</title>
<path fill="none" stroke="midnightblue" d="M383.68,-336.32C375.11,-328.34 362.19,-316.31 351.81,-306.65"/>
<polygon fill="midnightblue" stroke="midnightblue" points="354.19,-304.09 344.49,-299.83 349.42,-309.21 354.19,-304.09"/>
</g>
<!-- Node7&#45;&gt;Node5 -->
<g id="edge9" class="edge">
<title>Node7&#45;&gt;Node5</title>
<path fill="none" stroke="midnightblue" d="M773.17,-112.32C785.85,-103.98 805.23,-91.21 820.21,-81.35"/>
<polygon fill="midnightblue" stroke="midnightblue" points="822.43,-84.08 828.86,-75.65 818.58,-78.23 822.43,-84.08"/>
</g>
<!-- Node8 -->
<g id="node8" class="node">
<title>Node8</title>
<g id="a_node8"><a xlink:title=" ">
<polygon fill="white" stroke="#bfbfbf" points="901,-0.5 901,-19.5 945,-19.5 945,-0.5 901,-0.5"/>
<text text-anchor="middle" x="923" y="-7.5" font-family="Helvetica,sans-Serif" font-size="10.00">string</text>
</a>
</g>
</g>
<!-- Node7&#45;&gt;Node8 -->
<g id="edge7" class="edge">
<title>Node7&#45;&gt;Node8</title>
<path fill="none" stroke="midnightblue" d="M763.96,-112.16C770.57,-98.34 785.12,-71.58 805,-56 830.33,-36.15 865.4,-24.27 890.72,-17.74"/>
<polygon fill="midnightblue" stroke="midnightblue" points="891.69,-21.11 900.58,-15.34 890.04,-14.31 891.69,-21.11"/>
</g>
<!-- Node9 -->
<g id="node9" class="node">
<title>Node9</title>
<g id="a_node9"><a xlink:title=" ">
<polygon fill="white" stroke="#bfbfbf" points="888.5,-56.5 888.5,-75.5 981.5,-75.5 981.5,-56.5 888.5,-56.5"/>
<text text-anchor="middle" x="935" y="-63.5" font-family="Helvetica,sans-Serif" font-size="10.00">unordered_map</text>
</a>
</g>
</g>
<!-- Node7&#45;&gt;Node9 -->
<g id="edge8" class="edge">
<title>Node7&#45;&gt;Node9</title>
<path fill="none" stroke="midnightblue" d="M787.73,-112.44C817.43,-103.28 864.72,-88.69 897.67,-78.52"/>
<polygon fill="midnightblue" stroke="midnightblue" points="898.88,-81.81 907.4,-75.52 896.81,-75.12 898.88,-81.81"/>
</g>
<!-- Node10 -->
<g id="node10" class="node">
<title>Node10</title>
<g id="a_node10"><a xlink:title=" ">
<polygon fill="white" stroke="#bfbfbf" points="1000,-56.5 1000,-75.5 1058,-75.5 1058,-56.5 1000,-56.5"/>
<text text-anchor="middle" x="1029" y="-63.5" font-family="Helvetica,sans-Serif" font-size="10.00">memory</text>
</a>
</g>
</g>
<!-- Node7&#45;&gt;Node10 -->
<g id="edge10" class="edge">
<title>Node7&#45;&gt;Node10</title>
<path fill="none" stroke="midnightblue" d="M806.57,-112.5C851.2,-104.22 920.7,-91 990.18,-76.11"/>
<polygon fill="midnightblue" stroke="midnightblue" points="990.94,-79.53 999.98,-74 989.47,-72.68 990.94,-79.53"/>
</g>
<!-- Node11 -->
<g id="node11" class="node">
<title>Node11</title>
<g id="a_node11"><a xlink:href="Component_8hpp.html" target="_top" xlink:title=" ">
<polygon fill="white" stroke="black" points="340.5,-56.5 340.5,-75.5 493.5,-75.5 493.5,-56.5 340.5,-56.5"/>
<text text-anchor="middle" x="417" y="-63.5" font-family="Helvetica,sans-Serif" font-size="10.00">Component/Component.hpp</text>
</a>
</g>
</g>
<!-- Node7&#45;&gt;Node11 -->
<g id="edge11" class="edge">
<title>Node7&#45;&gt;Node11</title>
<path fill="none" stroke="midnightblue" d="M711.95,-113.43C651.71,-103.95 548.24,-87.66 481.25,-77.11"/>
<polygon fill="midnightblue" stroke="midnightblue" points="481.65,-73.64 471.23,-75.54 480.56,-80.55 481.65,-73.64"/>
</g>
<!-- Node12 -->
<g id="node12" class="node">
<title>Node12</title>
<g id="a_node12"><a xlink:href="WalError_8hpp.html" target="_top" xlink:title=" ">
<polygon fill="white" stroke="black" points="1152.5,-56.5 1152.5,-75.5 1281.5,-75.5 1281.5,-56.5 1152.5,-56.5"/>
<text text-anchor="middle" x="1217" y="-63.5" font-family="Helvetica,sans-Serif" font-size="10.00">Exception/WalError.hpp</text>
</a>
</g>
</g>
<!-- Node7&#45;&gt;Node12 -->
<g id="edge15" class="edge">
<title>Node7&#45;&gt;Node12</title>
<path fill="none" stroke="midnightblue" d="M808.04,-115.32C887.75,-105.9 1047.9,-86.98 1142.41,-75.81"/>
<polygon fill="midnightblue" stroke="midnightblue" points="1142.95,-79.27 1152.47,-74.62 1142.13,-72.32 1142.95,-79.27"/>
</g>
<!-- Node15 -->
<g id="node15" class="node">
<title>Node15</title>
<g id="a_node15"><a xlink:href="TypeHolder_8hpp.html" target="_top" xlink:title=" ">
<polygon fill="white" stroke="black" points="627,-56.5 627,-75.5 757,-75.5 757,-56.5 627,-56.5"/>
<text text-anchor="middle" x="692" y="-63.5" font-family="Helvetica,sans-Serif" font-size="10.00">Models/TypeHolder.hpp</text>
</a>
</g>
</g>
<!-- Node7&#45;&gt;Node15 -->
<g id="edge19" class="edge">
<title>Node7&#45;&gt;Node15</title>
<path fill="none" stroke="midnightblue" d="M749.07,-112.32C738.83,-104.18 723.28,-91.84 711,-82.09"/>
<polygon fill="midnightblue" stroke="midnightblue" points="713.13,-79.31 703.12,-75.83 708.78,-84.79 713.13,-79.31"/>
</g>
<!-- Node11&#45;&gt;Node4 -->
<g id="edge12" class="edge">
<title>Node11&#45;&gt;Node4</title>
<path fill="none" stroke="midnightblue" d="M431.62,-56.32C445.95,-47.82 468.01,-34.73 484.75,-24.8"/>
<polygon fill="midnightblue" stroke="midnightblue" points="486.6,-27.77 493.42,-19.65 483.03,-21.75 486.6,-27.77"/>
</g>
<!-- Node11&#45;&gt;Node6 -->
<g id="edge14" class="edge">
<title>Node11&#45;&gt;Node6</title>
<path fill="none" stroke="midnightblue" d="M362.97,-56.44C295.33,-45.73 180.85,-27.6 118.9,-17.79"/>
<polygon fill="midnightblue" stroke="midnightblue" points="119.12,-14.28 108.69,-16.18 118.02,-21.2 119.12,-14.28"/>
</g>
<!-- Node11&#45;&gt;Node8 -->
<g id="edge13" class="edge">
<title>Node11&#45;&gt;Node8</title>
<path fill="none" stroke="midnightblue" d="M493.58,-56.83C605.98,-44.83 810.91,-22.96 890.33,-14.49"/>
<polygon fill="midnightblue" stroke="midnightblue" points="891.11,-17.92 900.69,-13.38 890.37,-10.96 891.11,-17.92"/>
</g>
<!-- Node12&#45;&gt;Node8 -->
<g id="edge18" class="edge">
<title>Node12&#45;&gt;Node8</title>
<path fill="none" stroke="midnightblue" d="M1170.41,-56.44C1110.28,-45.4 1007.19,-26.46 955.12,-16.9"/>
<polygon fill="midnightblue" stroke="midnightblue" points="955.58,-13.43 945.11,-15.06 954.31,-20.31 955.58,-13.43"/>
</g>
<!-- Node13 -->
<g id="node13" class="node">
<title>Node13</title>
<g id="a_node13"><a xlink:title=" ">
<polygon fill="white" stroke="#bfbfbf" points="1225.5,-0.5 1225.5,-19.5 1290.5,-19.5 1290.5,-0.5 1225.5,-0.5"/>
<text text-anchor="middle" x="1258" y="-7.5" font-family="Helvetica,sans-Serif" font-size="10.00">exception</text>
</a>
</g>
</g>
<!-- Node12&#45;&gt;Node13 -->
<g id="edge16" class="edge">
<title>Node12&#45;&gt;Node13</title>
<path fill="none" stroke="midnightblue" d="M1223.77,-56.08C1229.56,-48.46 1238.06,-37.26 1245.14,-27.94"/>
<polygon fill="midnightblue" stroke="midnightblue" points="1248.1,-29.83 1251.36,-19.75 1242.52,-25.6 1248.1,-29.83"/>
</g>
<!-- Node14 -->
<g id="node14" class="node">
<title>Node14</title>
<g id="a_node14"><a xlink:title=" ">
<polygon fill="white" stroke="#bfbfbf" points="1142.5,-0.5 1142.5,-19.5 1207.5,-19.5 1207.5,-0.5 1142.5,-0.5"/>
<text text-anchor="middle" x="1175" y="-7.5" font-family="Helvetica,sans-Serif" font-size="10.00">stdexcept</text>
</a>
</g>
</g>
<!-- Node12&#45;&gt;Node14 -->
<g id="edge17" class="edge">
<title>Node12&#45;&gt;Node14</title>
<path fill="none" stroke="midnightblue" d="M1210.06,-56.08C1204.07,-48.38 1195.25,-37.03 1187.95,-27.65"/>
<polygon fill="midnightblue" stroke="midnightblue" points="1190.71,-25.5 1181.81,-19.75 1185.18,-29.79 1190.71,-25.5"/>
</g>
<!-- Node16&#45;&gt;Node4 -->
<g id="edge22" class="edge">
<title>Node16&#45;&gt;Node4</title>
<path fill="none" stroke="midnightblue" d="M902.15,-287.22C959.82,-281.9 1086,-260.89 1086,-179 1086,-179 1086,-179 1086,-121 1086,-90.9 1090.34,-75 1067,-56 1026.27,-22.84 657.02,-13.61 542.03,-11.53"/>
<polygon fill="midnightblue" stroke="midnightblue" points="541.77,-8.02 531.71,-11.35 541.65,-15.02 541.77,-8.02"/>
</g>
<!-- Node16&#45;&gt;Node5 -->
<g id="edge25" class="edge">
<title>Node16&#45;&gt;Node5</title>
<path fill="none" stroke="midnightblue" d="M872.75,-280.3C868.04,-247.63 851.35,-131.87 844.73,-85.96"/>
<polygon fill="midnightblue" stroke="midnightblue" points="848.17,-85.28 843.28,-75.88 841.24,-86.28 848.17,-85.28"/>
</g>
<!-- Node16&#45;&gt;Node8 -->
<g id="edge23" class="edge">
<title>Node16&#45;&gt;Node8</title>
<path fill="none" stroke="midnightblue" d="M902.15,-286.79C955.92,-282.05 1070.49,-269.2 1100,-244 1123.42,-224 1124,-209.8 1124,-179 1124,-179 1124,-179 1124,-121 1124,-90.2 1122.89,-76.61 1100,-56 1059.72,-19.74 994.32,-11.84 955.3,-10.59"/>
<polygon fill="midnightblue" stroke="midnightblue" points="955.11,-7.09 945.04,-10.4 954.97,-14.09 955.11,-7.09"/>
</g>
<!-- Node16&#45;&gt;Node10 -->
<g id="edge24" class="edge">
<title>Node16&#45;&gt;Node10</title>
<path fill="none" stroke="midnightblue" d="M901.12,-280.47C937.82,-267.29 1001.84,-238.12 1029,-188 1046.62,-155.49 1040.01,-110.47 1034.16,-85.52"/>
<polygon fill="midnightblue" stroke="midnightblue" points="1037.48,-84.41 1031.61,-75.59 1030.7,-86.15 1037.48,-84.41"/>
</g>
<!-- Node16&#45;&gt;Node12 -->
<g id="edge26" class="edge">
<title>Node16&#45;&gt;Node12</title>
<path fill="none" stroke="midnightblue" d="M902.46,-287.49C962.9,-283.76 1101.54,-272.29 1138,-244 1189.58,-203.98 1208.35,-122.96 1214.42,-86.07"/>
<polygon fill="midnightblue" stroke="midnightblue" points="1217.94,-86.16 1215.97,-75.75 1211.02,-85.12 1217.94,-86.16"/>
</g>
<!-- Node17 -->
<g id="node17" class="node">
<title>Node17</title>
<g id="a_node17"><a xlink:title=" ">
<polygon fill="white" stroke="#bfbfbf" points="864.5,-112.5 864.5,-131.5 909.5,-131.5 909.5,-112.5 864.5,-112.5"/>
<text text-anchor="middle" x="887" y="-119.5" font-family="Helvetica,sans-Serif" font-size="10.00">utility</text>
</a>
</g>
</g>
<!-- Node16&#45;&gt;Node17 -->
<g id="edge21" class="edge">
<title>Node16&#45;&gt;Node17</title>
<path fill="none" stroke="midnightblue" d="M874.7,-280.08C876.75,-253.95 882.75,-177.21 885.55,-141.58"/>
<polygon fill="midnightblue" stroke="midnightblue" points="889.04,-141.81 886.33,-131.57 882.06,-141.26 889.04,-141.81"/>
</g>
<!-- Node16&#45;&gt;Node18 -->
<g id="edge27" class="edge">
<title>Node16&#45;&gt;Node18</title>
<path fill="none" stroke="midnightblue" d="M845.78,-284.21C794.53,-275.5 685.1,-256.92 616.35,-245.25"/>
<polygon fill="midnightblue" stroke="midnightblue" points="616.54,-241.73 606.1,-243.51 615.37,-248.63 616.54,-241.73"/>
</g>
<!-- Node24 -->
<g id="node24" class="node">
<title>Node24</title>
<g id="a_node24"><a xlink:href="Callback_8hpp.html" target="_top" xlink:title=" ">
<polygon fill="white" stroke="black" points="902,-168.5 902,-187.5 1020,-187.5 1020,-168.5 902,-168.5"/>
<text text-anchor="middle" x="961" y="-175.5" font-family="Helvetica,sans-Serif" font-size="10.00">Models/Callback.hpp</text>
</a>
</g>
</g>
<!-- Node16&#45;&gt;Node24 -->
<g id="edge38" class="edge">
<title>Node16&#45;&gt;Node24</title>
<path fill="none" stroke="midnightblue" d="M880.83,-280.37C895.25,-262.14 929.03,-219.43 947.81,-195.68"/>
<polygon fill="midnightblue" stroke="midnightblue" points="950.75,-197.61 954.2,-187.59 945.26,-193.26 950.75,-197.61"/>
</g>
<!-- Node25 -->
<g id="node25" class="node">
<title>Node25</title>
<g id="a_node25"><a xlink:href="Scene_8hpp.html" target="_top" xlink:title=" ">
<polygon fill="white" stroke="black" points="632.5,-224.5 632.5,-243.5 731.5,-243.5 731.5,-224.5 632.5,-224.5"/>
<text text-anchor="middle" x="682" y="-231.5" font-family="Helvetica,sans-Serif" font-size="10.00">Scene/Scene.hpp</text>
</a>
</g>
</g>
<!-- Node16&#45;&gt;Node25 -->
<g id="edge42" class="edge">
<title>Node16&#45;&gt;Node25</title>
<path fill="none" stroke="midnightblue" d="M845.67,-281.03C813.06,-271.86 759.26,-256.73 722.3,-246.33"/>
<polygon fill="midnightblue" stroke="midnightblue" points="722.92,-242.87 712.35,-243.54 721.03,-249.61 722.92,-242.87"/>
</g>
<!-- Node18&#45;&gt;Node3 -->
<g id="edge37" class="edge">
<title>Node18&#45;&gt;Node3</title>
<path fill="none" stroke="midnightblue" d="M517.5,-224.44C470.94,-214.1 393.23,-196.83 348.21,-186.82"/>
<polygon fill="midnightblue" stroke="midnightblue" points="348.83,-183.38 338.31,-184.62 347.31,-190.21 348.83,-183.38"/>
</g>
<!-- Node18&#45;&gt;Node7 -->
<g id="edge28" class="edge">
<title>Node18&#45;&gt;Node7</title>
<path fill="none" stroke="midnightblue" d="M572.01,-224.37C607.46,-205.25 692.81,-159.23 735.22,-136.36"/>
<polygon fill="midnightblue" stroke="midnightblue" points="736.93,-139.42 744.07,-131.59 733.6,-133.26 736.93,-139.42"/>
</g>
<!-- Node18&#45;&gt;Node19 -->
<g id="edge29" class="edge">
<title>Node18&#45;&gt;Node19</title>
<path fill="none" stroke="midnightblue" d="M546.68,-224.32C538.11,-216.34 525.19,-204.31 514.81,-194.65"/>
<polygon fill="midnightblue" stroke="midnightblue" points="517.19,-192.09 507.49,-187.83 512.42,-197.21 517.19,-192.09"/>
</g>
<!-- Node19&#45;&gt;Node6 -->
<g id="edge32" class="edge">
<title>Node19&#45;&gt;Node6</title>
<path fill="none" stroke="midnightblue" d="M476.2,-168.42C406.45,-140.99 188.57,-55.28 107.13,-23.24"/>
<polygon fill="midnightblue" stroke="midnightblue" points="108.26,-19.93 97.67,-19.52 105.69,-26.44 108.26,-19.93"/>
</g>
<!-- Node19&#45;&gt;Node7 -->
<g id="edge36" class="edge">
<title>Node19&#45;&gt;Node7</title>
<path fill="none" stroke="midnightblue" d="M539.51,-168.44C585.41,-158.98 659.38,-143.74 708.83,-133.55"/>
<polygon fill="midnightblue" stroke="midnightblue" points="709.59,-136.96 718.68,-131.52 708.18,-130.11 709.59,-136.96"/>
</g>
<!-- Node19&#45;&gt;Node17 -->
<g id="edge34" class="edge">
<title>Node19&#45;&gt;Node17</title>
<path fill="none" stroke="midnightblue" d="M542.24,-170.86C621.23,-159.89 784.74,-137.2 854.41,-127.52"/>
<polygon fill="midnightblue" stroke="midnightblue" points="854.95,-130.98 864.37,-126.14 853.99,-124.05 854.95,-130.98"/>
</g>
<!-- Node20 -->
<g id="node20" class="node">
<title>Node20</title>
<g id="a_node20"><a xlink:title=" ">
<polygon fill="white" stroke="#bfbfbf" points="540,-112.5 540,-131.5 572,-131.5 572,-112.5 540,-112.5"/>
<text text-anchor="middle" x="556" y="-119.5" font-family="Helvetica,sans-Serif" font-size="10.00">list</text>
</a>
</g>
</g>
<!-- Node19&#45;&gt;Node20 -->
<g id="edge30" class="edge">
<title>Node19&#45;&gt;Node20</title>
<path fill="none" stroke="midnightblue" d="M507.32,-168.32C515.89,-160.34 528.81,-148.31 539.19,-138.65"/>
<polygon fill="midnightblue" stroke="midnightblue" points="541.58,-141.21 546.51,-131.83 536.81,-136.09 541.58,-141.21"/>
</g>
<!-- Node21 -->
<g id="node21" class="node">
<title>Node21</title>
<g id="a_node21"><a xlink:title=" ">
<polygon fill="white" stroke="#bfbfbf" points="480.5,-112.5 480.5,-131.5 521.5,-131.5 521.5,-112.5 480.5,-112.5"/>
<text text-anchor="middle" x="501" y="-119.5" font-family="Helvetica,sans-Serif" font-size="10.00">tuple</text>
</a>
</g>
</g>
<!-- Node19&#45;&gt;Node21 -->
<g id="edge31" class="edge">
<title>Node19&#45;&gt;Node21</title>
<path fill="none" stroke="midnightblue" d="M498.5,-168.08C498.89,-161.01 499.45,-150.86 499.95,-141.99"/>
<polygon fill="midnightblue" stroke="midnightblue" points="503.45,-141.93 500.51,-131.75 496.46,-141.54 503.45,-141.93"/>
</g>
<!-- Node22 -->
<g id="node22" class="node">
<title>Node22</title>
<g id="a_node22"><a xlink:title=" ">
<polygon fill="white" stroke="#bfbfbf" points="590.5,-112.5 590.5,-131.5 655.5,-131.5 655.5,-112.5 590.5,-112.5"/>
<text text-anchor="middle" x="623" y="-119.5" font-family="Helvetica,sans-Serif" font-size="10.00">functional</text>
</a>
</g>
</g>
<!-- Node19&#45;&gt;Node22 -->
<g id="edge33" class="edge">
<title>Node19&#45;&gt;Node22</title>
<path fill="none" stroke="midnightblue" d="M517.81,-168.44C538.29,-159.6 570.48,-145.69 593.86,-135.59"/>
<polygon fill="midnightblue" stroke="midnightblue" points="595.49,-138.7 603.29,-131.52 592.72,-132.27 595.49,-138.7"/>
</g>
<!-- Node23 -->
<g id="node23" class="node">
<title>Node23</title>
<g id="a_node23"><a xlink:title=" ">
<polygon fill="white" stroke="#bfbfbf" points="406,-112.5 406,-131.5 462,-131.5 462,-112.5 406,-112.5"/>
<text text-anchor="middle" x="434" y="-119.5" font-family="Helvetica,sans-Serif" font-size="10.00">optional</text>
</a>
</g>
</g>
<!-- Node19&#45;&gt;Node23 -->
<g id="edge35" class="edge">
<title>Node19&#45;&gt;Node23</title>
<path fill="none" stroke="midnightblue" d="M487.72,-168.32C478.16,-160.26 463.72,-148.08 452.22,-138.37"/>
<polygon fill="midnightblue" stroke="midnightblue" points="454.37,-135.61 444.47,-131.83 449.86,-140.96 454.37,-135.61"/>
</g>
<!-- Node24&#45;&gt;Node9 -->
<g id="edge41" class="edge">
<title>Node24&#45;&gt;Node9</title>
<path fill="none" stroke="midnightblue" d="M958.96,-168.37C954.76,-150.62 945.08,-109.67 939.4,-85.6"/>
<polygon fill="midnightblue" stroke="midnightblue" points="942.74,-84.52 937.03,-75.59 935.92,-86.13 942.74,-84.52"/>
</g>
<!-- Node24&#45;&gt;Node17 -->
<g id="edge40" class="edge">
<title>Node24&#45;&gt;Node17</title>
<path fill="none" stroke="midnightblue" d="M949.11,-168.32C937.85,-160.11 920.71,-147.6 907.29,-137.81"/>
<polygon fill="midnightblue" stroke="midnightblue" points="909.25,-134.9 899.11,-131.83 905.12,-140.56 909.25,-134.9"/>
</g>
<!-- Node24&#45;&gt;Node22 -->
<g id="edge39" class="edge">
<title>Node24&#45;&gt;Node22</title>
<path fill="none" stroke="midnightblue" d="M907.44,-168.44C840.58,-157.76 727.52,-139.7 666.01,-129.87"/>
<polygon fill="midnightblue" stroke="midnightblue" points="666.29,-126.37 655.87,-128.25 665.19,-133.28 666.29,-126.37"/>
</g>
<!-- Node25&#45;&gt;Node4 -->
<g id="edge43" class="edge">
<title>Node25&#45;&gt;Node4</title>
<path fill="none" stroke="midnightblue" d="M683.1,-224.25C685.3,-203.1 688.21,-148.27 665,-112 656.65,-98.96 573.32,-49.13 531.58,-24.69"/>
<polygon fill="midnightblue" stroke="midnightblue" points="533.27,-21.62 522.87,-19.6 529.74,-27.67 533.27,-21.62"/>
</g>
<!-- Node25&#45;&gt;Node7 -->
<g id="edge47" class="edge">
<title>Node25&#45;&gt;Node7</title>
<path fill="none" stroke="midnightblue" d="M688.12,-224.37C700.99,-206.22 731.07,-163.8 747.95,-139.99"/>
<polygon fill="midnightblue" stroke="midnightblue" points="750.98,-141.77 753.91,-131.59 745.27,-137.72 750.98,-141.77"/>
</g>
<!-- Node25&#45;&gt;Node19 -->
<g id="edge46" class="edge">
<title>Node25&#45;&gt;Node19</title>
<path fill="none" stroke="midnightblue" d="M652.84,-224.44C621.49,-215.24 571.47,-200.56 536.8,-190.39"/>
<polygon fill="midnightblue" stroke="midnightblue" points="537.6,-186.97 527.02,-187.52 535.63,-193.69 537.6,-186.97"/>
</g>
<!-- Node25&#45;&gt;Node20 -->
<g id="edge44" class="edge">
<title>Node25&#45;&gt;Node20</title>
<path fill="none" stroke="midnightblue" d="M672.11,-224.37C650.86,-205.81 600.57,-161.91 573.68,-138.44"/>
<polygon fill="midnightblue" stroke="midnightblue" points="575.68,-135.53 565.84,-131.59 571.07,-140.8 575.68,-135.53"/>
</g>
<!-- Node25&#45;&gt;Node22 -->
<g id="edge45" class="edge">
<title>Node25&#45;&gt;Node22</title>
<path fill="none" stroke="midnightblue" d="M677.37,-224.37C667.72,-206.38 645.29,-164.55 632.45,-140.63"/>
<polygon fill="midnightblue" stroke="midnightblue" points="635.42,-138.75 627.61,-131.59 629.25,-142.06 635.42,-138.75"/>
</g>
<!-- Node27&#45;&gt;Node3 -->
<g id="edge53" class="edge">
<title>Node27&#45;&gt;Node3</title>
<path fill="none" stroke="midnightblue" d="M193.5,-224.44C217.08,-215.48 254.32,-201.31 280.96,-191.18"/>
<polygon fill="midnightblue" stroke="midnightblue" points="282.5,-194.34 290.6,-187.52 280.01,-187.8 282.5,-194.34"/>
</g>
<!-- Node27&#45;&gt;Node11 -->
<g id="edge52" class="edge">
<title>Node27&#45;&gt;Node11</title>
<path fill="none" stroke="midnightblue" d="M180.63,-224.33C204.24,-203.35 267.32,-148.87 326,-112 345.73,-99.6 369.36,-88 387.59,-79.69"/>
<polygon fill="midnightblue" stroke="midnightblue" points="389.16,-82.82 396.85,-75.54 386.29,-76.44 389.16,-82.82"/>
</g>
<!-- Node28&#45;&gt;Node7 -->
<g id="edge57" class="edge">
<title>Node28&#45;&gt;Node7</title>
<path fill="none" stroke="midnightblue" d="M745.99,-336.37C755.45,-328.17 768.44,-314.92 774,-300 794.5,-245.03 782.81,-226 774,-168 772.63,-159 769.81,-149.33 767.05,-141.26"/>
<polygon fill="midnightblue" stroke="midnightblue" points="770.31,-139.98 763.6,-131.78 763.73,-142.37 770.31,-139.98"/>
</g>
<!-- Node28&#45;&gt;Node11 -->
<g id="edge56" class="edge">
<title>Node28&#45;&gt;Node11</title>
<path fill="none" stroke="midnightblue" d="M699.48,-336.5C648.82,-323.1 554.6,-293.41 488,-244 436.49,-205.78 418.46,-192.44 397,-132 391.4,-116.22 398.14,-97.97 405.27,-84.83"/>
<polygon fill="midnightblue" stroke="midnightblue" points="408.48,-86.29 410.6,-75.91 402.47,-82.7 408.48,-86.29"/>
</g>
<!-- Node28&#45;&gt;Node16 -->
<g id="edge58" class="edge">
<title>Node28&#45;&gt;Node16</title>
<path fill="none" stroke="midnightblue" d="M757.02,-336.44C780.1,-327.48 816.56,-313.31 842.64,-303.18"/>
<polygon fill="midnightblue" stroke="midnightblue" points="844.02,-306.4 852.08,-299.52 841.49,-299.88 844.02,-306.4"/>
</g>
<!-- Node28&#45;&gt;Node24 -->
<g id="edge55" class="edge">
<title>Node28&#45;&gt;Node24</title>
<path fill="none" stroke="midnightblue" d="M833.08,-336.46C860.82,-329.93 889.32,-318.81 911,-300 941.95,-273.15 954.1,-224.12 958.59,-197.46"/>
<polygon fill="midnightblue" stroke="midnightblue" points="962.05,-197.94 960.07,-187.53 955.13,-196.91 962.05,-197.94"/>
</g>
</g>
</svg>
