<?xml version="1.0" encoding="UTF-8" standalone="no"?>
<!DOCTYPE svg PUBLIC "-//W3C//DTD SVG 1.1//EN"
 "http://www.w3.org/Graphics/SVG/1.1/DTD/svg11.dtd">
<!-- Generated by graphviz version 2.43.0 (0)
 -->
<!-- Title: tests/EngineTests.cpp Pages: 1 -->
<svg width="1318pt" height="487pt"
 viewBox="0.00 0.00 1317.70 487.00" xmlns="http://www.w3.org/2000/svg" xmlns:xlink="http://www.w3.org/1999/xlink">
<g id="graph0" class="graph" transform="scale(1 1) rotate(0) translate(4 483)">
<title>tests/EngineTests.cpp</title>
<polygon fill="white" stroke="transparent" points="-4,4 -4,-483 1313.7,-483 1313.7,4 -4,4"/>
<!-- Node1 -->
<g id="node1" class="node">
<title>Node1</title>
<g id="a_node1"><a xlink:title=" ">
<polygon fill="#bfbfbf" stroke="black" points="788.7,-459.5 788.7,-478.5 910.7,-478.5 910.7,-459.5 788.7,-459.5"/>
<text text-anchor="middle" x="849.7" y="-466.5" font-family="Helvetica,sans-Serif" font-size="10.00">tests/EngineTests.cpp</text>
</a>
</g>
</g>
<!-- Node2 -->
<g id="node2" class="node">
<title>Node2</title>
<g id="a_node2"><a xlink:href="Wal_8hpp.html" target="_top" xlink:title=" ">
<polygon fill="white" stroke="black" points="408.7,-280.5 408.7,-299.5 464.7,-299.5 464.7,-280.5 408.7,-280.5"/>
<text text-anchor="middle" x="436.7" y="-287.5" font-family="Helvetica,sans-Serif" font-size="10.00">Wal.hpp</text>
</a>
</g>
</g>
<!-- Node1&#45;&gt;Node2 -->
<g id="edge1" class="edge">
<title>Node1&#45;&gt;Node2</title>
<path fill="none" stroke="midnightblue" d="M828.76,-459.49C806.78,-450.52 771.24,-435.93 740.7,-423 639.2,-380.01 519.37,-327.44 465.49,-303.7"/>
<polygon fill="midnightblue" stroke="midnightblue" points="466.77,-300.45 456.21,-299.62 463.95,-306.85 466.77,-300.45"/>
</g>
<!-- Node25 -->
<g id="node25" class="node">
<title>Node25</title>
<g id="a_node25"><a xlink:href="MovableSystem_8hpp.html" target="_top" xlink:title=" ">
<polygon fill="white" stroke="black" points="749.2,-403.5 749.2,-422.5 950.2,-422.5 950.2,-403.5 749.2,-403.5"/>
<text text-anchor="middle" x="849.7" y="-410.5" font-family="Helvetica,sans-Serif" font-size="10.00">System/Movable/MovableSystem.hpp</text>
</a>
</g>
</g>
<!-- Node1&#45;&gt;Node25 -->
<g id="edge42" class="edge">
<title>Node1&#45;&gt;Node25</title>
<path fill="none" stroke="midnightblue" d="M849.7,-459.08C849.7,-452.01 849.7,-441.86 849.7,-432.99"/>
<polygon fill="midnightblue" stroke="midnightblue" points="853.2,-432.75 849.7,-422.75 846.2,-432.75 853.2,-432.75"/>
</g>
<!-- Node34 -->
<g id="node34" class="node">
<title>Node34</title>
<g id="a_node34"><a xlink:title=" ">
<polygon fill="white" stroke="#bfbfbf" points="968.2,-403.5 968.2,-422.5 1067.2,-422.5 1067.2,-403.5 968.2,-403.5"/>
<text text-anchor="middle" x="1017.7" y="-410.5" font-family="Helvetica,sans-Serif" font-size="10.00">catch2/catch.hpp</text>
</a>
</g>
</g>
<!-- Node1&#45;&gt;Node34 -->
<g id="edge64" class="edge">
<title>Node1&#45;&gt;Node34</title>
<path fill="none" stroke="midnightblue" d="M876.32,-459.44C904.71,-450.32 949.84,-435.81 981.46,-425.65"/>
<polygon fill="midnightblue" stroke="midnightblue" points="982.76,-428.91 991.21,-422.52 980.62,-422.24 982.76,-428.91"/>
</g>
<!-- Node3 -->
<g id="node3" class="node">
<title>Node3</title>
<g id="a_node3"><a xlink:title=" ">
<polygon fill="white" stroke="#bfbfbf" points="274.2,-112.5 274.2,-131.5 319.2,-131.5 319.2,-112.5 274.2,-112.5"/>
<text text-anchor="middle" x="296.7" y="-119.5" font-family="Helvetica,sans-Serif" font-size="10.00">utility</text>
</a>
</g>
</g>
<!-- Node2&#45;&gt;Node3 -->
<g id="edge2" class="edge">
<title>Node2&#45;&gt;Node3</title>
<path fill="none" stroke="midnightblue" d="M409.58,-280.47C372.88,-267.29 308.87,-238.12 281.7,-188 273.62,-173.09 279.7,-153.96 286.37,-140.33"/>
<polygon fill="midnightblue" stroke="midnightblue" points="289.47,-141.97 291.15,-131.51 283.31,-138.64 289.47,-141.97"/>
</g>
<!-- Node4 -->
<g id="node4" class="node">
<title>Node4</title>
<g id="a_node4"><a xlink:title=" ">
<polygon fill="white" stroke="#bfbfbf" points="185.2,-0.5 185.2,-19.5 232.2,-19.5 232.2,-0.5 185.2,-0.5"/>
<text text-anchor="middle" x="208.7" y="-7.5" font-family="Helvetica,sans-Serif" font-size="10.00">vector</text>
</a>
</g>
</g>
<!-- Node2&#45;&gt;Node4 -->
<g id="edge3" class="edge">
<title>Node2&#45;&gt;Node4</title>
<path fill="none" stroke="midnightblue" d="M408.46,-287.45C375.53,-284.23 321.21,-274.34 286.7,-244 225.29,-190.01 230.58,-155.56 211.7,-76 208.07,-60.7 207.5,-42.82 207.74,-29.69"/>
<polygon fill="midnightblue" stroke="midnightblue" points="211.24,-29.67 208.1,-19.55 204.25,-29.42 211.24,-29.67"/>
</g>
<!-- Node5 -->
<g id="node5" class="node">
<title>Node5</title>
<g id="a_node5"><a xlink:title=" ">
<polygon fill="white" stroke="#bfbfbf" points="256.7,-0.5 256.7,-19.5 300.7,-19.5 300.7,-0.5 256.7,-0.5"/>
<text text-anchor="middle" x="278.7" y="-7.5" font-family="Helvetica,sans-Serif" font-size="10.00">string</text>
</a>
</g>
</g>
<!-- Node2&#45;&gt;Node5 -->
<g id="edge4" class="edge">
<title>Node2&#45;&gt;Node5</title>
<path fill="none" stroke="midnightblue" d="M408.57,-284.59C380.94,-279.08 338.8,-267.35 309.7,-244 286.81,-225.63 285.25,-215.39 274.7,-188 253.76,-133.63 266.03,-62.72 273.8,-29.59"/>
<polygon fill="midnightblue" stroke="midnightblue" points="277.2,-30.42 276.22,-19.87 270.41,-28.74 277.2,-30.42"/>
</g>
<!-- Node6 -->
<g id="node6" class="node">
<title>Node6</title>
<g id="a_node6"><a xlink:title=" ">
<polygon fill="white" stroke="#bfbfbf" points="412.7,-56.5 412.7,-75.5 470.7,-75.5 470.7,-56.5 412.7,-56.5"/>
<text text-anchor="middle" x="441.7" y="-63.5" font-family="Helvetica,sans-Serif" font-size="10.00">memory</text>
</a>
</g>
</g>
<!-- Node2&#45;&gt;Node6 -->
<g id="edge5" class="edge">
<title>Node2&#45;&gt;Node6</title>
<path fill="none" stroke="midnightblue" d="M435.92,-280.38C433.98,-260.38 428.33,-209.4 417.7,-168 411.35,-143.25 396.08,-136.05 404.7,-112 408.64,-101 416.56,-90.77 424.06,-82.85"/>
<polygon fill="midnightblue" stroke="midnightblue" points="426.6,-85.27 431.27,-75.76 421.68,-80.28 426.6,-85.27"/>
</g>
<!-- Node7 -->
<g id="node7" class="node">
<title>Node7</title>
<g id="a_node7"><a xlink:title=" ">
<polygon fill="white" stroke="#bfbfbf" points="675.2,-56.5 675.2,-75.5 732.2,-75.5 732.2,-56.5 675.2,-56.5"/>
<text text-anchor="middle" x="703.7" y="-63.5" font-family="Helvetica,sans-Serif" font-size="10.00">typeinfo</text>
</a>
</g>
</g>
<!-- Node2&#45;&gt;Node7 -->
<g id="edge6" class="edge">
<title>Node2&#45;&gt;Node7</title>
<path fill="none" stroke="midnightblue" d="M464.95,-286.65C535.03,-279.09 716.29,-248.58 786.7,-132 800.88,-108.53 770.03,-90.26 742,-79.15"/>
<polygon fill="midnightblue" stroke="midnightblue" points="742.88,-75.74 732.29,-75.53 740.43,-82.3 742.88,-75.74"/>
</g>
<!-- Node8 -->
<g id="node8" class="node">
<title>Node8</title>
<g id="a_node8"><a xlink:href="WalError_8hpp.html" target="_top" xlink:title=" ">
<polygon fill="white" stroke="black" points="29.2,-56.5 29.2,-75.5 158.2,-75.5 158.2,-56.5 29.2,-56.5"/>
<text text-anchor="middle" x="93.7" y="-63.5" font-family="Helvetica,sans-Serif" font-size="10.00">Exception/WalError.hpp</text>
</a>
</g>
</g>
<!-- Node2&#45;&gt;Node8 -->
<g id="edge7" class="edge">
<title>Node2&#45;&gt;Node8</title>
<path fill="none" stroke="midnightblue" d="M408.31,-288.71C340.97,-287.41 174.23,-280.5 134.7,-244 89.74,-202.49 89.38,-122.24 91.84,-85.81"/>
<polygon fill="midnightblue" stroke="midnightblue" points="95.35,-85.88 92.69,-75.63 88.37,-85.3 95.35,-85.88"/>
</g>
<!-- Node11 -->
<g id="node11" class="node">
<title>Node11</title>
<g id="a_node11"><a xlink:href="ISystem_8hpp.html" target="_top" xlink:title=" ">
<polygon fill="white" stroke="black" points="704.2,-224.5 704.2,-243.5 821.2,-243.5 821.2,-224.5 704.2,-224.5"/>
<text text-anchor="middle" x="762.7" y="-231.5" font-family="Helvetica,sans-Serif" font-size="10.00">System/ISystem.hpp</text>
</a>
</g>
</g>
<!-- Node2&#45;&gt;Node11 -->
<g id="edge11" class="edge">
<title>Node2&#45;&gt;Node11</title>
<path fill="none" stroke="midnightblue" d="M464.78,-284.35C517.04,-275.69 630.34,-256.93 701.18,-245.19"/>
<polygon fill="midnightblue" stroke="midnightblue" points="702.02,-248.6 711.31,-243.51 700.87,-241.69 702.02,-248.6"/>
</g>
<!-- Node23 -->
<g id="node23" class="node">
<title>Node23</title>
<g id="a_node23"><a xlink:href="Callback_8hpp.html" target="_top" xlink:title=" ">
<polygon fill="white" stroke="black" points="290.7,-168.5 290.7,-187.5 408.7,-187.5 408.7,-168.5 290.7,-168.5"/>
<text text-anchor="middle" x="349.7" y="-175.5" font-family="Helvetica,sans-Serif" font-size="10.00">Models/Callback.hpp</text>
</a>
</g>
</g>
<!-- Node2&#45;&gt;Node23 -->
<g id="edge32" class="edge">
<title>Node2&#45;&gt;Node23</title>
<path fill="none" stroke="midnightblue" d="M429.88,-280.37C415.46,-262.14 381.68,-219.43 362.89,-195.68"/>
<polygon fill="midnightblue" stroke="midnightblue" points="365.45,-193.26 356.5,-187.59 359.96,-197.61 365.45,-193.26"/>
</g>
<!-- Node24 -->
<g id="node24" class="node">
<title>Node24</title>
<g id="a_node24"><a xlink:href="Scene_8hpp.html" target="_top" xlink:title=" ">
<polygon fill="white" stroke="black" points="465.2,-224.5 465.2,-243.5 564.2,-243.5 564.2,-224.5 465.2,-224.5"/>
<text text-anchor="middle" x="514.7" y="-231.5" font-family="Helvetica,sans-Serif" font-size="10.00">Scene/Scene.hpp</text>
</a>
</g>
</g>
<!-- Node2&#45;&gt;Node24 -->
<g id="edge36" class="edge">
<title>Node2&#45;&gt;Node24</title>
<path fill="none" stroke="midnightblue" d="M449.24,-280.32C461.29,-271.98 479.73,-259.21 493.97,-249.35"/>
<polygon fill="midnightblue" stroke="midnightblue" points="495.97,-252.22 502.2,-243.65 491.99,-246.47 495.97,-252.22"/>
</g>
<!-- Node8&#45;&gt;Node5 -->
<g id="edge10" class="edge">
<title>Node8&#45;&gt;Node5</title>
<path fill="none" stroke="midnightblue" d="M123.02,-56.44C156.77,-46.59 212.03,-30.46 246.83,-20.3"/>
<polygon fill="midnightblue" stroke="midnightblue" points="247.88,-23.64 256.49,-17.48 245.91,-16.92 247.88,-23.64"/>
</g>
<!-- Node9 -->
<g id="node9" class="node">
<title>Node9</title>
<g id="a_node9"><a xlink:title=" ">
<polygon fill="white" stroke="#bfbfbf" points="4.2,-0.5 4.2,-19.5 69.2,-19.5 69.2,-0.5 4.2,-0.5"/>
<text text-anchor="middle" x="36.7" y="-7.5" font-family="Helvetica,sans-Serif" font-size="10.00">exception</text>
</a>
</g>
</g>
<!-- Node8&#45;&gt;Node9 -->
<g id="edge8" class="edge">
<title>Node8&#45;&gt;Node9</title>
<path fill="none" stroke="midnightblue" d="M84.55,-56.32C76.2,-48.42 63.67,-36.55 53.53,-26.94"/>
<polygon fill="midnightblue" stroke="midnightblue" points="55.69,-24.17 46.03,-19.83 50.88,-29.25 55.69,-24.17"/>
</g>
<!-- Node10 -->
<g id="node10" class="node">
<title>Node10</title>
<g id="a_node10"><a xlink:title=" ">
<polygon fill="white" stroke="#bfbfbf" points="87.2,-0.5 87.2,-19.5 152.2,-19.5 152.2,-0.5 87.2,-0.5"/>
<text text-anchor="middle" x="119.7" y="-7.5" font-family="Helvetica,sans-Serif" font-size="10.00">stdexcept</text>
</a>
</g>
</g>
<!-- Node8&#45;&gt;Node10 -->
<g id="edge9" class="edge">
<title>Node8&#45;&gt;Node10</title>
<path fill="none" stroke="midnightblue" d="M98,-56.08C101.56,-48.69 106.73,-37.95 111.13,-28.81"/>
<polygon fill="midnightblue" stroke="midnightblue" points="114.31,-30.28 115.49,-19.75 108,-27.24 114.31,-30.28"/>
</g>
<!-- Node12 -->
<g id="node12" class="node">
<title>Node12</title>
<g id="a_node12"><a xlink:href="Entity_8hpp.html" target="_top" xlink:title=" ">
<polygon fill="white" stroke="black" points="681.7,-112.5 681.7,-131.5 777.7,-131.5 777.7,-112.5 681.7,-112.5"/>
<text text-anchor="middle" x="729.7" y="-119.5" font-family="Helvetica,sans-Serif" font-size="10.00">Entity/Entity.hpp</text>
</a>
</g>
</g>
<!-- Node11&#45;&gt;Node12 -->
<g id="edge12" class="edge">
<title>Node11&#45;&gt;Node12</title>
<path fill="none" stroke="midnightblue" d="M760.95,-224.5C758.3,-212 752.91,-187.98 746.7,-168 743.88,-158.92 740.2,-149.01 736.99,-140.8"/>
<polygon fill="midnightblue" stroke="midnightblue" points="740.24,-139.5 733.27,-131.52 733.74,-142.1 740.24,-139.5"/>
</g>
<!-- Node17 -->
<g id="node17" class="node">
<title>Node17</title>
<g id="a_node17"><a xlink:href="View_8hpp.html" target="_top" xlink:title=" ">
<polygon fill="white" stroke="black" points="540.7,-168.5 540.7,-187.5 628.7,-187.5 628.7,-168.5 540.7,-168.5"/>
<text text-anchor="middle" x="584.7" y="-175.5" font-family="Helvetica,sans-Serif" font-size="10.00">View/View.hpp</text>
</a>
</g>
</g>
<!-- Node11&#45;&gt;Node17 -->
<g id="edge23" class="edge">
<title>Node11&#45;&gt;Node17</title>
<path fill="none" stroke="midnightblue" d="M734.5,-224.44C704.29,-215.28 656.19,-200.69 622.67,-190.52"/>
<polygon fill="midnightblue" stroke="midnightblue" points="623.36,-187.07 612.78,-187.52 621.33,-193.77 623.36,-187.07"/>
</g>
<!-- Node22 -->
<g id="node22" class="node">
<title>Node22</title>
<g id="a_node22"><a xlink:title=" ">
<polygon fill="white" stroke="#bfbfbf" points="804.7,-168.5 804.7,-187.5 854.7,-187.5 854.7,-168.5 804.7,-168.5"/>
<text text-anchor="middle" x="829.7" y="-175.5" font-family="Helvetica,sans-Serif" font-size="10.00">chrono</text>
</a>
</g>
</g>
<!-- Node11&#45;&gt;Node22 -->
<g id="edge31" class="edge">
<title>Node11&#45;&gt;Node22</title>
<path fill="none" stroke="midnightblue" d="M773.47,-224.32C783.47,-216.26 798.59,-204.08 810.63,-194.37"/>
<polygon fill="midnightblue" stroke="midnightblue" points="813.15,-196.83 818.74,-187.83 808.76,-191.38 813.15,-196.83"/>
</g>
<!-- Node12&#45;&gt;Node5 -->
<g id="edge13" class="edge">
<title>Node12&#45;&gt;Node5</title>
<path fill="none" stroke="midnightblue" d="M681.84,-112.42C628.95,-102.67 547.34,-86.71 517.7,-76 499.75,-69.51 497.62,-62.59 479.7,-56 422.09,-34.81 351.37,-21.81 311.02,-15.54"/>
<polygon fill="midnightblue" stroke="midnightblue" points="311.37,-12.05 300.96,-14.02 310.32,-18.97 311.37,-12.05"/>
</g>
<!-- Node12&#45;&gt;Node6 -->
<g id="edge16" class="edge">
<title>Node12&#45;&gt;Node6</title>
<path fill="none" stroke="midnightblue" d="M681.29,-112.47C631.82,-103.67 552.81,-89.38 484.7,-76 483.44,-75.75 482.16,-75.5 480.86,-75.24"/>
<polygon fill="midnightblue" stroke="midnightblue" points="481.33,-71.76 470.83,-73.2 479.93,-78.62 481.33,-71.76"/>
</g>
<!-- Node12&#45;&gt;Node7 -->
<g id="edge15" class="edge">
<title>Node12&#45;&gt;Node7</title>
<path fill="none" stroke="midnightblue" d="M725.41,-112.08C721.85,-104.69 716.68,-93.95 712.28,-84.81"/>
<polygon fill="midnightblue" stroke="midnightblue" points="715.41,-83.24 707.92,-75.75 709.1,-86.28 715.41,-83.24"/>
</g>
<!-- Node12&#45;&gt;Node8 -->
<g id="edge21" class="edge">
<title>Node12&#45;&gt;Node8</title>
<path fill="none" stroke="midnightblue" d="M681.54,-113.12C678.55,-112.72 675.59,-112.34 672.7,-112 492.34,-90.78 279.14,-77.15 168.6,-70.92"/>
<polygon fill="midnightblue" stroke="midnightblue" points="168.74,-67.43 158.56,-70.36 168.35,-74.42 168.74,-67.43"/>
</g>
<!-- Node13 -->
<g id="node13" class="node">
<title>Node13</title>
<g id="a_node13"><a xlink:title=" ">
<polygon fill="white" stroke="#bfbfbf" points="301.2,-56.5 301.2,-75.5 394.2,-75.5 394.2,-56.5 301.2,-56.5"/>
<text text-anchor="middle" x="347.7" y="-63.5" font-family="Helvetica,sans-Serif" font-size="10.00">unordered_map</text>
</a>
</g>
</g>
<!-- Node12&#45;&gt;Node13 -->
<g id="edge14" class="edge">
<title>Node12&#45;&gt;Node13</title>
<path fill="none" stroke="midnightblue" d="M681.51,-113.31C678.53,-112.86 675.58,-112.42 672.7,-112 556.49,-95.05 524.7,-93.64 404.41,-76.07"/>
<polygon fill="midnightblue" stroke="midnightblue" points="404.84,-72.59 394.44,-74.61 403.83,-79.52 404.84,-72.59"/>
</g>
<!-- Node14 -->
<g id="node14" class="node">
<title>Node14</title>
<g id="a_node14"><a xlink:href="Component_8hpp.html" target="_top" xlink:title=" ">
<polygon fill="white" stroke="black" points="750.2,-56.5 750.2,-75.5 903.2,-75.5 903.2,-56.5 750.2,-56.5"/>
<text text-anchor="middle" x="826.7" y="-63.5" font-family="Helvetica,sans-Serif" font-size="10.00">Component/Component.hpp</text>
</a>
</g>
</g>
<!-- Node12&#45;&gt;Node14 -->
<g id="edge17" class="edge">
<title>Node12&#45;&gt;Node14</title>
<path fill="none" stroke="midnightblue" d="M745.29,-112.32C760.7,-103.74 784.52,-90.49 802.41,-80.52"/>
<polygon fill="midnightblue" stroke="midnightblue" points="804.12,-83.58 811.16,-75.65 800.72,-77.46 804.12,-83.58"/>
</g>
<!-- Node16 -->
<g id="node16" class="node">
<title>Node16</title>
<g id="a_node16"><a xlink:href="TypeHolder_8hpp.html" target="_top" xlink:title=" ">
<polygon fill="white" stroke="black" points="526.7,-56.5 526.7,-75.5 656.7,-75.5 656.7,-56.5 526.7,-56.5"/>
<text text-anchor="middle" x="591.7" y="-63.5" font-family="Helvetica,sans-Serif" font-size="10.00">Models/TypeHolder.hpp</text>
</a>
</g>
</g>
<!-- Node12&#45;&gt;Node16 -->
<g id="edge22" class="edge">
<title>Node12&#45;&gt;Node16</title>
<path fill="none" stroke="midnightblue" d="M707.84,-112.44C684.92,-103.48 648.73,-89.31 622.84,-79.18"/>
<polygon fill="midnightblue" stroke="midnightblue" points="624.06,-75.9 613.47,-75.52 621.5,-82.42 624.06,-75.9"/>
</g>
<!-- Node14&#45;&gt;Node4 -->
<g id="edge18" class="edge">
<title>Node14&#45;&gt;Node4</title>
<path fill="none" stroke="midnightblue" d="M749.8,-56.74C747.07,-56.49 744.36,-56.24 741.7,-56 522.44,-36.41 465.38,-52.85 247.7,-20 246,-19.74 244.27,-19.45 242.52,-19.14"/>
<polygon fill="midnightblue" stroke="midnightblue" points="243.01,-15.67 232.52,-17.11 241.62,-22.53 243.01,-15.67"/>
</g>
<!-- Node14&#45;&gt;Node5 -->
<g id="edge19" class="edge">
<title>Node14&#45;&gt;Node5</title>
<path fill="none" stroke="midnightblue" d="M749.8,-56.83C747.06,-56.55 744.36,-56.27 741.7,-56 580.12,-39.59 386.67,-21.19 311.15,-14.06"/>
<polygon fill="midnightblue" stroke="midnightblue" points="311.16,-10.54 300.88,-13.09 310.5,-17.51 311.16,-10.54"/>
</g>
<!-- Node15 -->
<g id="node15" class="node">
<title>Node15</title>
<g id="a_node15"><a xlink:title=" ">
<polygon fill="white" stroke="#bfbfbf" points="899.2,-0.5 899.2,-19.5 964.2,-19.5 964.2,-0.5 899.2,-0.5"/>
<text text-anchor="middle" x="931.7" y="-7.5" font-family="Helvetica,sans-Serif" font-size="10.00">typeindex</text>
</a>
</g>
</g>
<!-- Node14&#45;&gt;Node15 -->
<g id="edge20" class="edge">
<title>Node14&#45;&gt;Node15</title>
<path fill="none" stroke="midnightblue" d="M843.57,-56.32C860.41,-47.66 886.51,-34.24 905.94,-24.25"/>
<polygon fill="midnightblue" stroke="midnightblue" points="907.58,-27.34 914.88,-19.65 904.38,-21.12 907.58,-27.34"/>
</g>
<!-- Node17&#45;&gt;Node3 -->
<g id="edge28" class="edge">
<title>Node17&#45;&gt;Node3</title>
<path fill="none" stroke="midnightblue" d="M540.65,-168.74C482.42,-157.82 381.17,-138.84 329.33,-129.12"/>
<polygon fill="midnightblue" stroke="midnightblue" points="329.82,-125.65 319.35,-127.25 328.53,-132.53 329.82,-125.65"/>
</g>
<!-- Node17&#45;&gt;Node12 -->
<g id="edge30" class="edge">
<title>Node17&#45;&gt;Node12</title>
<path fill="none" stroke="midnightblue" d="M607.68,-168.44C631.86,-159.44 670.12,-145.19 697.35,-135.05"/>
<polygon fill="midnightblue" stroke="midnightblue" points="698.69,-138.29 706.84,-131.52 696.24,-131.73 698.69,-138.29"/>
</g>
<!-- Node17&#45;&gt;Node15 -->
<g id="edge26" class="edge">
<title>Node17&#45;&gt;Node15</title>
<path fill="none" stroke="midnightblue" d="M628.79,-177.18C700.04,-174.9 839.85,-159.32 912.7,-76 923.94,-63.15 928.54,-43.97 930.42,-29.77"/>
<polygon fill="midnightblue" stroke="midnightblue" points="933.92,-29.96 931.42,-19.67 926.95,-29.28 933.92,-29.96"/>
</g>
<!-- Node18 -->
<g id="node18" class="node">
<title>Node18</title>
<g id="a_node18"><a xlink:title=" ">
<polygon fill="white" stroke="#bfbfbf" points="497.7,-112.5 497.7,-131.5 529.7,-131.5 529.7,-112.5 497.7,-112.5"/>
<text text-anchor="middle" x="513.7" y="-119.5" font-family="Helvetica,sans-Serif" font-size="10.00">list</text>
</a>
</g>
</g>
<!-- Node17&#45;&gt;Node18 -->
<g id="edge24" class="edge">
<title>Node17&#45;&gt;Node18</title>
<path fill="none" stroke="midnightblue" d="M573.3,-168.32C562.59,-160.18 546.36,-147.84 533.54,-138.09"/>
<polygon fill="midnightblue" stroke="midnightblue" points="535.4,-135.1 525.32,-131.83 531.16,-140.67 535.4,-135.1"/>
</g>
<!-- Node19 -->
<g id="node19" class="node">
<title>Node19</title>
<g id="a_node19"><a xlink:title=" ">
<polygon fill="white" stroke="#bfbfbf" points="622.2,-112.5 622.2,-131.5 663.2,-131.5 663.2,-112.5 622.2,-112.5"/>
<text text-anchor="middle" x="642.7" y="-119.5" font-family="Helvetica,sans-Serif" font-size="10.00">tuple</text>
</a>
</g>
</g>
<!-- Node17&#45;&gt;Node19 -->
<g id="edge25" class="edge">
<title>Node17&#45;&gt;Node19</title>
<path fill="none" stroke="midnightblue" d="M594.02,-168.32C602.6,-160.34 615.52,-148.31 625.89,-138.65"/>
<polygon fill="midnightblue" stroke="midnightblue" points="628.28,-141.21 633.22,-131.83 623.51,-136.09 628.28,-141.21"/>
</g>
<!-- Node20 -->
<g id="node20" class="node">
<title>Node20</title>
<g id="a_node20"><a xlink:title=" ">
<polygon fill="white" stroke="#bfbfbf" points="414.2,-112.5 414.2,-131.5 479.2,-131.5 479.2,-112.5 414.2,-112.5"/>
<text text-anchor="middle" x="446.7" y="-119.5" font-family="Helvetica,sans-Serif" font-size="10.00">functional</text>
</a>
</g>
</g>
<!-- Node17&#45;&gt;Node20 -->
<g id="edge27" class="edge">
<title>Node17&#45;&gt;Node20</title>
<path fill="none" stroke="midnightblue" d="M562.84,-168.44C539.92,-159.48 503.73,-145.31 477.84,-135.18"/>
<polygon fill="midnightblue" stroke="midnightblue" points="479.06,-131.9 468.47,-131.52 476.5,-138.42 479.06,-131.9"/>
</g>
<!-- Node21 -->
<g id="node21" class="node">
<title>Node21</title>
<g id="a_node21"><a xlink:title=" ">
<polygon fill="white" stroke="#bfbfbf" points="547.7,-112.5 547.7,-131.5 603.7,-131.5 603.7,-112.5 547.7,-112.5"/>
<text text-anchor="middle" x="575.7" y="-119.5" font-family="Helvetica,sans-Serif" font-size="10.00">optional</text>
</a>
</g>
</g>
<!-- Node17&#45;&gt;Node21 -->
<g id="edge29" class="edge">
<title>Node17&#45;&gt;Node21</title>
<path fill="none" stroke="midnightblue" d="M583.22,-168.08C582.02,-160.93 580.31,-150.64 578.82,-141.69"/>
<polygon fill="midnightblue" stroke="midnightblue" points="582.26,-141.04 577.16,-131.75 575.35,-142.19 582.26,-141.04"/>
</g>
<!-- Node23&#45;&gt;Node3 -->
<g id="edge34" class="edge">
<title>Node23&#45;&gt;Node3</title>
<path fill="none" stroke="midnightblue" d="M340.95,-168.08C333.23,-160.22 321.8,-148.57 312.49,-139.08"/>
<polygon fill="midnightblue" stroke="midnightblue" points="314.8,-136.44 305.29,-131.75 309.8,-141.34 314.8,-136.44"/>
</g>
<!-- Node23&#45;&gt;Node13 -->
<g id="edge35" class="edge">
<title>Node23&#45;&gt;Node13</title>
<path fill="none" stroke="midnightblue" d="M349.55,-168.37C349.22,-150.62 348.48,-109.67 348.04,-85.6"/>
<polygon fill="midnightblue" stroke="midnightblue" points="351.54,-85.53 347.86,-75.59 344.54,-85.65 351.54,-85.53"/>
</g>
<!-- Node23&#45;&gt;Node20 -->
<g id="edge33" class="edge">
<title>Node23&#45;&gt;Node20</title>
<path fill="none" stroke="midnightblue" d="M365.29,-168.32C380.7,-159.74 404.52,-146.49 422.41,-136.52"/>
<polygon fill="midnightblue" stroke="midnightblue" points="424.12,-139.58 431.16,-131.65 420.72,-133.46 424.12,-139.58"/>
</g>
<!-- Node24&#45;&gt;Node4 -->
<g id="edge37" class="edge">
<title>Node24&#45;&gt;Node4</title>
<path fill="none" stroke="midnightblue" d="M465.03,-228.91C405.17,-223.06 309.18,-210.45 281.7,-188 231.77,-147.19 215.6,-66.58 210.69,-29.93"/>
<polygon fill="midnightblue" stroke="midnightblue" points="214.13,-29.2 209.46,-19.69 207.18,-30.03 214.13,-29.2"/>
</g>
<!-- Node24&#45;&gt;Node12 -->
<g id="edge41" class="edge">
<title>Node24&#45;&gt;Node12</title>
<path fill="none" stroke="midnightblue" d="M544.71,-224.47C570.21,-216.65 607.4,-203.89 637.7,-188 665.09,-173.64 693.75,-152.22 711.65,-137.94"/>
<polygon fill="midnightblue" stroke="midnightblue" points="713.96,-140.58 719.53,-131.57 709.55,-135.14 713.96,-140.58"/>
</g>
<!-- Node24&#45;&gt;Node17 -->
<g id="edge40" class="edge">
<title>Node24&#45;&gt;Node17</title>
<path fill="none" stroke="midnightblue" d="M525.95,-224.32C536.5,-216.18 552.5,-203.84 565.15,-194.09"/>
<polygon fill="midnightblue" stroke="midnightblue" points="567.47,-196.71 573.25,-187.83 563.2,-191.17 567.47,-196.71"/>
</g>
<!-- Node24&#45;&gt;Node18 -->
<g id="edge38" class="edge">
<title>Node24&#45;&gt;Node18</title>
<path fill="none" stroke="midnightblue" d="M514.63,-224.37C514.46,-206.62 514.09,-165.67 513.87,-141.6"/>
<polygon fill="midnightblue" stroke="midnightblue" points="517.37,-141.56 513.78,-131.59 510.37,-141.62 517.37,-141.56"/>
</g>
<!-- Node24&#45;&gt;Node20 -->
<g id="edge39" class="edge">
<title>Node24&#45;&gt;Node20</title>
<path fill="none" stroke="midnightblue" d="M509.37,-224.37C498.2,-206.3 472.16,-164.18 457.4,-140.31"/>
<polygon fill="midnightblue" stroke="midnightblue" points="460.25,-138.26 452.01,-131.59 454.3,-141.94 460.25,-138.26"/>
</g>
<!-- Node25&#45;&gt;Node12 -->
<g id="edge63" class="edge">
<title>Node25&#45;&gt;Node12</title>
<path fill="none" stroke="midnightblue" d="M833.89,-403.37C819.76,-395.18 798.98,-381.93 783.7,-367 735.64,-320.01 716.24,-308 695.7,-244 683.93,-207.3 704.59,-163.63 718.54,-140.09"/>
<polygon fill="midnightblue" stroke="midnightblue" points="721.52,-141.92 723.81,-131.57 715.57,-138.23 721.52,-141.92"/>
</g>
<!-- Node26 -->
<g id="node26" class="node">
<title>Node26</title>
<g id="a_node26"><a xlink:href="MovableComponent_8hpp.html" target="_top" xlink:title=" ">
<polygon fill="white" stroke="black" points="942.2,-336.5 942.2,-366.5 1105.2,-366.5 1105.2,-336.5 942.2,-336.5"/>
<text text-anchor="start" x="950.2" y="-354.5" font-family="Helvetica,sans-Serif" font-size="10.00">Component/Movable/Movable</text>
<text text-anchor="middle" x="1023.7" y="-343.5" font-family="Helvetica,sans-Serif" font-size="10.00">Component.hpp</text>
</a>
</g>
</g>
<!-- Node25&#45;&gt;Node26 -->
<g id="edge43" class="edge">
<title>Node25&#45;&gt;Node26</title>
<path fill="none" stroke="midnightblue" d="M874.63,-403.48C900.18,-394.74 940.63,-380.91 972.95,-369.86"/>
<polygon fill="midnightblue" stroke="midnightblue" points="974.37,-373.07 982.7,-366.52 972.1,-366.45 974.37,-373.07"/>
</g>
<!-- Node32 -->
<g id="node32" class="node">
<title>Node32</title>
<g id="a_node32"><a xlink:href="PositionComponent_8hpp.html" target="_top" xlink:title=" ">
<polygon fill="white" stroke="black" points="1123.7,-336.5 1123.7,-366.5 1259.7,-366.5 1259.7,-336.5 1123.7,-336.5"/>
<text text-anchor="start" x="1131.7" y="-354.5" font-family="Helvetica,sans-Serif" font-size="10.00">Component/Position</text>
<text text-anchor="middle" x="1191.7" y="-343.5" font-family="Helvetica,sans-Serif" font-size="10.00">/PositionComponent.hpp</text>
</a>
</g>
</g>
<!-- Node25&#45;&gt;Node32 -->
<g id="edge50" class="edge">
<title>Node25&#45;&gt;Node32</title>
<path fill="none" stroke="midnightblue" d="M901.55,-403.48C952.81,-394.99 1033.77,-381.41 1113.48,-367.2"/>
<polygon fill="midnightblue" stroke="midnightblue" points="1114.47,-370.58 1123.7,-365.38 1113.24,-363.69 1114.47,-370.58"/>
</g>
<!-- Node33 -->
<g id="node33" class="node">
<title>Node33</title>
<g id="a_node33"><a xlink:href="System_8hpp.html" target="_top" xlink:title=" ">
<polygon fill="white" stroke="black" points="792.7,-342 792.7,-361 906.7,-361 906.7,-342 792.7,-342"/>
<text text-anchor="middle" x="849.7" y="-349" font-family="Helvetica,sans-Serif" font-size="10.00">System/System.hpp</text>
</a>
</g>
</g>
<!-- Node25&#45;&gt;Node33 -->
<g id="edge53" class="edge">
<title>Node25&#45;&gt;Node33</title>
<path fill="none" stroke="midnightblue" d="M849.7,-403.48C849.7,-395.08 849.7,-381.98 849.7,-371.16"/>
<polygon fill="midnightblue" stroke="midnightblue" points="853.2,-371.01 849.7,-361.01 846.2,-371.01 853.2,-371.01"/>
</g>
<!-- Node26&#45;&gt;Node12 -->
<g id="edge49" class="edge">
<title>Node26&#45;&gt;Node12</title>
<path fill="none" stroke="midnightblue" d="M1028.23,-336.48C1035.39,-311.45 1046.23,-258.46 1022.7,-224 970.9,-148.13 857.87,-128.54 788.32,-123.9"/>
<polygon fill="midnightblue" stroke="midnightblue" points="788.16,-120.39 777.97,-123.3 787.75,-127.37 788.16,-120.39"/>
</g>
<!-- Node27 -->
<g id="node27" class="node">
<title>Node27</title>
<g id="a_node27"><a xlink:href="sources_2Models_2Vector3_8hpp.html" target="_top" xlink:title=" ">
<polygon fill="white" stroke="black" points="1070.2,-280.5 1070.2,-299.5 1183.2,-299.5 1183.2,-280.5 1070.2,-280.5"/>
<text text-anchor="middle" x="1126.7" y="-287.5" font-family="Helvetica,sans-Serif" font-size="10.00">Models/Vector3.hpp</text>
</a>
</g>
</g>
<!-- Node26&#45;&gt;Node27 -->
<g id="edge44" class="edge">
<title>Node26&#45;&gt;Node27</title>
<path fill="none" stroke="midnightblue" d="M1048.11,-336.4C1064.62,-326.86 1086.33,-314.32 1102.74,-304.84"/>
<polygon fill="midnightblue" stroke="midnightblue" points="1104.81,-307.69 1111.72,-299.66 1101.31,-301.63 1104.81,-307.69"/>
</g>
<!-- Node28 -->
<g id="node28" class="node">
<title>Node28</title>
<g id="a_node28"><a xlink:title=" ">
<polygon fill="white" stroke="#bfbfbf" points="953.7,-224.5 953.7,-243.5 1013.7,-243.5 1013.7,-224.5 953.7,-224.5"/>
<text text-anchor="middle" x="983.7" y="-231.5" font-family="Helvetica,sans-Serif" font-size="10.00">iostream</text>
</a>
</g>
</g>
<!-- Node27&#45;&gt;Node28 -->
<g id="edge45" class="edge">
<title>Node27&#45;&gt;Node28</title>
<path fill="none" stroke="midnightblue" d="M1104.04,-280.44C1080.3,-271.48 1042.79,-257.31 1015.97,-247.18"/>
<polygon fill="midnightblue" stroke="midnightblue" points="1016.85,-243.77 1006.26,-243.52 1014.38,-250.32 1016.85,-243.77"/>
</g>
<!-- Node29 -->
<g id="node29" class="node">
<title>Node29</title>
<g id="a_node29"><a xlink:title=" ">
<polygon fill="white" stroke="#bfbfbf" points="1196.2,-224.5 1196.2,-243.5 1243.2,-243.5 1243.2,-224.5 1196.2,-224.5"/>
<text text-anchor="middle" x="1219.7" y="-231.5" font-family="Helvetica,sans-Serif" font-size="10.00">cmath</text>
</a>
</g>
</g>
<!-- Node27&#45;&gt;Node29 -->
<g id="edge46" class="edge">
<title>Node27&#45;&gt;Node29</title>
<path fill="none" stroke="midnightblue" d="M1141.65,-280.32C1156.29,-271.82 1178.84,-258.73 1195.94,-248.8"/>
<polygon fill="midnightblue" stroke="midnightblue" points="1197.91,-251.7 1204.8,-243.65 1194.39,-245.65 1197.91,-251.7"/>
</g>
<!-- Node30 -->
<g id="node30" class="node">
<title>Node30</title>
<g id="a_node30"><a xlink:href="lib_2Ray_2sources_2Vector_2Vector3_8hpp.html" target="_top" xlink:title=" ">
<polygon fill="white" stroke="black" points="1069.7,-224.5 1069.7,-243.5 1177.7,-243.5 1177.7,-224.5 1069.7,-224.5"/>
<text text-anchor="middle" x="1123.7" y="-231.5" font-family="Helvetica,sans-Serif" font-size="10.00">Vector/Vector3.hpp</text>
</a>
</g>
</g>
<!-- Node27&#45;&gt;Node30 -->
<g id="edge47" class="edge">
<title>Node27&#45;&gt;Node30</title>
<path fill="none" stroke="midnightblue" d="M1126.21,-280.08C1125.82,-273.01 1125.25,-262.86 1124.76,-253.99"/>
<polygon fill="midnightblue" stroke="midnightblue" points="1128.24,-253.54 1124.19,-243.75 1121.25,-253.93 1128.24,-253.54"/>
</g>
<!-- Node31 -->
<g id="node31" class="node">
<title>Node31</title>
<g id="a_node31"><a xlink:title=" ">
<polygon fill="white" stroke="#bfbfbf" points="1097.2,-168.5 1097.2,-187.5 1150.2,-187.5 1150.2,-168.5 1097.2,-168.5"/>
<text text-anchor="middle" x="1123.7" y="-175.5" font-family="Helvetica,sans-Serif" font-size="10.00">raylib.h</text>
</a>
</g>
</g>
<!-- Node30&#45;&gt;Node31 -->
<g id="edge48" class="edge">
<title>Node30&#45;&gt;Node31</title>
<path fill="none" stroke="midnightblue" d="M1123.7,-224.08C1123.7,-217.01 1123.7,-206.86 1123.7,-197.99"/>
<polygon fill="midnightblue" stroke="midnightblue" points="1127.2,-197.75 1123.7,-187.75 1120.2,-197.75 1127.2,-197.75"/>
</g>
<!-- Node32&#45;&gt;Node14 -->
<g id="edge52" class="edge">
<title>Node32&#45;&gt;Node14</title>
<path fill="none" stroke="midnightblue" d="M1210.26,-336.29C1233.89,-316.42 1271.7,-277.93 1271.7,-235 1271.7,-235 1271.7,-235 1271.7,-177 1271.7,-104.02 1043.29,-79.15 913.76,-70.91"/>
<polygon fill="midnightblue" stroke="midnightblue" points="913.65,-67.4 903.46,-70.28 913.22,-74.39 913.65,-67.4"/>
</g>
<!-- Node32&#45;&gt;Node27 -->
<g id="edge51" class="edge">
<title>Node32&#45;&gt;Node27</title>
<path fill="none" stroke="midnightblue" d="M1176.3,-336.4C1166.46,-327.4 1153.71,-315.72 1143.6,-306.47"/>
<polygon fill="midnightblue" stroke="midnightblue" points="1145.9,-303.83 1136.16,-299.66 1141.17,-308.99 1145.9,-303.83"/>
</g>
<!-- Node33&#45;&gt;Node2 -->
<g id="edge59" class="edge">
<title>Node33&#45;&gt;Node2</title>
<path fill="none" stroke="midnightblue" d="M792.28,-342.23C706.72,-329.9 548.06,-307.04 475.15,-296.54"/>
<polygon fill="midnightblue" stroke="midnightblue" points="475.44,-293.04 465.04,-295.08 474.44,-299.97 475.44,-293.04"/>
</g>
<!-- Node33&#45;&gt;Node4 -->
<g id="edge55" class="edge">
<title>Node33&#45;&gt;Node4</title>
<path fill="none" stroke="midnightblue" d="M792.68,-348.76C602.32,-342.2 0.7,-315.14 0.7,-235 0.7,-235 0.7,-235 0.7,-121 0.7,-90.9 -2.11,-76.74 19.7,-56 25.38,-50.61 122.19,-29.38 174.99,-18.11"/>
<polygon fill="midnightblue" stroke="midnightblue" points="175.87,-21.5 184.93,-16 174.42,-14.65 175.87,-21.5"/>
</g>
<!-- Node33&#45;&gt;Node7 -->
<g id="edge56" class="edge">
<title>Node33&#45;&gt;Node7</title>
<path fill="none" stroke="midnightblue" d="M860.59,-341.92C881.61,-324.32 925.7,-281.81 925.7,-235 925.7,-235 925.7,-235 925.7,-177 925.7,-136.48 805.44,-96.02 741.95,-77.48"/>
<polygon fill="midnightblue" stroke="midnightblue" points="742.85,-74.1 732.27,-74.69 740.91,-80.82 742.85,-74.1"/>
</g>
<!-- Node33&#45;&gt;Node11 -->
<g id="edge61" class="edge">
<title>Node33&#45;&gt;Node11</title>
<path fill="none" stroke="midnightblue" d="M843.16,-341.82C828.8,-322.76 794.3,-276.95 775.48,-251.96"/>
<polygon fill="midnightblue" stroke="midnightblue" points="778.13,-249.66 769.32,-243.78 772.54,-253.88 778.13,-249.66"/>
</g>
<!-- Node33&#45;&gt;Node12 -->
<g id="edge58" class="edge">
<title>Node33&#45;&gt;Node12</title>
<path fill="none" stroke="midnightblue" d="M853.92,-341.83C866.95,-313.65 903.4,-223.21 863.7,-168 846.41,-143.96 815.65,-132.58 787.95,-127.27"/>
<polygon fill="midnightblue" stroke="midnightblue" points="788.36,-123.79 777.92,-125.58 787.2,-130.69 788.36,-123.79"/>
</g>
<!-- Node33&#45;&gt;Node15 -->
<g id="edge57" class="edge">
<title>Node33&#45;&gt;Node15</title>
<path fill="none" stroke="midnightblue" d="M897.63,-341.95C909.42,-339.92 922.01,-337.82 933.7,-336 1019.19,-322.68 1309.7,-321.52 1309.7,-235 1309.7,-235 1309.7,-235 1309.7,-121 1309.7,-51.84 1073.48,-23.28 974.51,-14.35"/>
<polygon fill="midnightblue" stroke="midnightblue" points="974.53,-10.84 964.26,-13.46 973.91,-17.82 974.53,-10.84"/>
</g>
<!-- Node33&#45;&gt;Node17 -->
<g id="edge60" class="edge">
<title>Node33&#45;&gt;Node17</title>
<path fill="none" stroke="midnightblue" d="M836.56,-342C794,-314.45 659.63,-227.49 606.57,-193.15"/>
<polygon fill="midnightblue" stroke="midnightblue" points="608.22,-190.05 597.92,-187.56 604.42,-195.93 608.22,-190.05"/>
</g>
<!-- Node33&#45;&gt;Node22 -->
<g id="edge54" class="edge">
<title>Node33&#45;&gt;Node22</title>
<path fill="none" stroke="midnightblue" d="M848.68,-341.76C845.58,-315.15 836.2,-234.71 831.9,-197.84"/>
<polygon fill="midnightblue" stroke="midnightblue" points="835.33,-197.05 830.7,-187.52 828.38,-197.86 835.33,-197.05"/>
</g>
<!-- Node33&#45;&gt;Node28 -->
<g id="edge62" class="edge">
<title>Node33&#45;&gt;Node28</title>
<path fill="none" stroke="midnightblue" d="M871.13,-341.9C890.58,-333.35 919.26,-318.8 939.7,-300 954.56,-286.34 966.95,-266.74 974.75,-252.64"/>
<polygon fill="midnightblue" stroke="midnightblue" points="978,-253.98 979.6,-243.51 971.82,-250.7 978,-253.98"/>
</g>
</g>
</svg>
