<?xml version="1.0" encoding="UTF-8" standalone="no"?>
<!DOCTYPE svg PUBLIC "-//W3C//DTD SVG 1.1//EN"
 "http://www.w3.org/Graphics/SVG/1.1/DTD/svg11.dtd">
<!-- Generated by graphviz version 2.43.0 (0)
 -->
<!-- Title: tests/EntityTests.cpp Pages: 1 -->
<svg width="1162pt" height="375pt"
 viewBox="0.00 0.00 1162.13 375.00" xmlns="http://www.w3.org/2000/svg" xmlns:xlink="http://www.w3.org/1999/xlink">
<g id="graph0" class="graph" transform="scale(1 1) rotate(0) translate(4 371)">
<title>tests/EntityTests.cpp</title>
<polygon fill="white" stroke="transparent" points="-4,4 -4,-371 1158.13,-371 1158.13,4 -4,4"/>
<!-- Node1 -->
<g id="node1" class="node">
<title>Node1</title>
<g id="a_node1"><a xlink:title=" ">
<polygon fill="#bfbfbf" stroke="black" points="655.63,-347.5 655.63,-366.5 772.63,-366.5 772.63,-347.5 655.63,-347.5"/>
<text text-anchor="middle" x="714.13" y="-354.5" font-family="Helvetica,sans-Serif" font-size="10.00">tests/EntityTests.cpp</text>
</a>
</g>
</g>
<!-- Node2 -->
<g id="node2" class="node">
<title>Node2</title>
<g id="a_node2"><a xlink:href="Entity_8hpp.html" target="_top" xlink:title=" ">
<polygon fill="white" stroke="black" points="562.13,-112.5 562.13,-131.5 658.13,-131.5 658.13,-112.5 562.13,-112.5"/>
<text text-anchor="middle" x="610.13" y="-119.5" font-family="Helvetica,sans-Serif" font-size="10.00">Entity/Entity.hpp</text>
</a>
</g>
</g>
<!-- Node1&#45;&gt;Node2 -->
<g id="edge1" class="edge">
<title>Node1&#45;&gt;Node2</title>
<path fill="none" stroke="midnightblue" d="M714.36,-347.3C714.69,-318.96 712.47,-227.69 673.13,-168 664.39,-154.72 650.27,-144.11 637.62,-136.53"/>
<polygon fill="midnightblue" stroke="midnightblue" points="639.19,-133.4 628.76,-131.55 635.76,-139.5 639.19,-133.4"/>
</g>
<!-- Node14 -->
<g id="node14" class="node">
<title>Node14</title>
<g id="a_node14"><a xlink:href="PositionComponent_8hpp.html" target="_top" xlink:title=" ">
<polygon fill="white" stroke="black" points="751.13,-280.5 751.13,-310.5 887.13,-310.5 887.13,-280.5 751.13,-280.5"/>
<text text-anchor="start" x="759.13" y="-298.5" font-family="Helvetica,sans-Serif" font-size="10.00">Component/Position</text>
<text text-anchor="middle" x="819.13" y="-287.5" font-family="Helvetica,sans-Serif" font-size="10.00">/PositionComponent.hpp</text>
</a>
</g>
</g>
<!-- Node1&#45;&gt;Node14 -->
<g id="edge15" class="edge">
<title>Node1&#45;&gt;Node14</title>
<path fill="none" stroke="midnightblue" d="M729.18,-347.48C743.8,-339.19 766.5,-326.32 785.44,-315.59"/>
<polygon fill="midnightblue" stroke="midnightblue" points="787.41,-318.5 794.39,-310.52 783.96,-312.41 787.41,-318.5"/>
</g>
<!-- Node20 -->
<g id="node20" class="node">
<title>Node20</title>
<g id="a_node20"><a xlink:title=" ">
<polygon fill="white" stroke="#bfbfbf" points="905.63,-286 905.63,-305 1004.63,-305 1004.63,-286 905.63,-286"/>
<text text-anchor="middle" x="955.13" y="-293" font-family="Helvetica,sans-Serif" font-size="10.00">catch2/catch.hpp</text>
</a>
</g>
</g>
<!-- Node1&#45;&gt;Node20 -->
<g id="edge22" class="edge">
<title>Node1&#45;&gt;Node20</title>
<path fill="none" stroke="midnightblue" d="M748.66,-347.48C791.35,-336.94 864.06,-318.99 910.82,-307.44"/>
<polygon fill="midnightblue" stroke="midnightblue" points="911.8,-310.8 920.67,-305.01 910.12,-304.01 911.8,-310.8"/>
</g>
<!-- Node21 -->
<g id="node21" class="node">
<title>Node21</title>
<g id="a_node21"><a xlink:href="Wal_8hpp.html" target="_top" xlink:title=" ">
<polygon fill="white" stroke="black" points="416.13,-286 416.13,-305 472.13,-305 472.13,-286 416.13,-286"/>
<text text-anchor="middle" x="444.13" y="-293" font-family="Helvetica,sans-Serif" font-size="10.00">Wal.hpp</text>
</a>
</g>
</g>
<!-- Node1&#45;&gt;Node21 -->
<g id="edge23" class="edge">
<title>Node1&#45;&gt;Node21</title>
<path fill="none" stroke="midnightblue" d="M675.45,-347.48C624.02,-336.14 533.68,-316.23 482.44,-304.94"/>
<polygon fill="midnightblue" stroke="midnightblue" points="482.95,-301.47 472.43,-302.74 481.45,-308.31 482.95,-301.47"/>
</g>
<!-- Node31 -->
<g id="node31" class="node">
<title>Node31</title>
<g id="a_node31"><a xlink:href="Scene_8hpp.html" target="_top" xlink:title=" ">
<polygon fill="white" stroke="black" points="268.63,-224.5 268.63,-243.5 367.63,-243.5 367.63,-224.5 268.63,-224.5"/>
<text text-anchor="middle" x="318.13" y="-231.5" font-family="Helvetica,sans-Serif" font-size="10.00">Scene/Scene.hpp</text>
</a>
</g>
</g>
<!-- Node1&#45;&gt;Node31 -->
<g id="edge51" class="edge">
<title>Node1&#45;&gt;Node31</title>
<path fill="none" stroke="midnightblue" d="M655.58,-351.3C579.22,-344.52 450.3,-330.6 407.13,-311 376.61,-297.14 348.46,-269.58 332.3,-251.73"/>
<polygon fill="midnightblue" stroke="midnightblue" points="334.61,-249.05 325.38,-243.85 329.35,-253.67 334.61,-249.05"/>
</g>
<!-- Node3 -->
<g id="node3" class="node">
<title>Node3</title>
<g id="a_node3"><a xlink:title=" ">
<polygon fill="white" stroke="#bfbfbf" points="818.13,-0.5 818.13,-19.5 862.13,-19.5 862.13,-0.5 818.13,-0.5"/>
<text text-anchor="middle" x="840.13" y="-7.5" font-family="Helvetica,sans-Serif" font-size="10.00">string</text>
</a>
</g>
</g>
<!-- Node2&#45;&gt;Node3 -->
<g id="edge2" class="edge">
<title>Node2&#45;&gt;Node3</title>
<path fill="none" stroke="midnightblue" d="M658.29,-116.91C714.25,-111.16 801.91,-98.75 825.13,-76 837.28,-64.1 840.43,-44.48 840.9,-29.91"/>
<polygon fill="midnightblue" stroke="midnightblue" points="844.4,-29.52 840.83,-19.54 837.4,-29.56 844.4,-29.52"/>
</g>
<!-- Node4 -->
<g id="node4" class="node">
<title>Node4</title>
<g id="a_node4"><a xlink:title=" ">
<polygon fill="white" stroke="#bfbfbf" points="256.63,-56.5 256.63,-75.5 349.63,-75.5 349.63,-56.5 256.63,-56.5"/>
<text text-anchor="middle" x="303.13" y="-63.5" font-family="Helvetica,sans-Serif" font-size="10.00">unordered_map</text>
</a>
</g>
</g>
<!-- Node2&#45;&gt;Node4 -->
<g id="edge3" class="edge">
<title>Node2&#45;&gt;Node4</title>
<path fill="none" stroke="midnightblue" d="M561.83,-112.5C507.03,-102.86 417.77,-87.16 359.75,-76.96"/>
<polygon fill="midnightblue" stroke="midnightblue" points="360.11,-73.47 349.65,-75.18 358.89,-80.36 360.11,-73.47"/>
</g>
<!-- Node5 -->
<g id="node5" class="node">
<title>Node5</title>
<g id="a_node5"><a xlink:title=" ">
<polygon fill="white" stroke="#bfbfbf" points="28.63,-56.5 28.63,-75.5 85.63,-75.5 85.63,-56.5 28.63,-56.5"/>
<text text-anchor="middle" x="57.13" y="-63.5" font-family="Helvetica,sans-Serif" font-size="10.00">typeinfo</text>
</a>
</g>
</g>
<!-- Node2&#45;&gt;Node5 -->
<g id="edge4" class="edge">
<title>Node2&#45;&gt;Node5</title>
<path fill="none" stroke="midnightblue" d="M562.13,-116.5C445.31,-105.55 154.25,-78.25 133.13,-76 121.08,-74.72 107.96,-73.21 96.06,-71.79"/>
<polygon fill="midnightblue" stroke="midnightblue" points="96.33,-68.3 85.99,-70.58 95.5,-75.25 96.33,-68.3"/>
</g>
<!-- Node6 -->
<g id="node6" class="node">
<title>Node6</title>
<g id="a_node6"><a xlink:title=" ">
<polygon fill="white" stroke="#bfbfbf" points="142.13,-56.5 142.13,-75.5 200.13,-75.5 200.13,-56.5 142.13,-56.5"/>
<text text-anchor="middle" x="171.13" y="-63.5" font-family="Helvetica,sans-Serif" font-size="10.00">memory</text>
</a>
</g>
</g>
<!-- Node2&#45;&gt;Node6 -->
<g id="edge5" class="edge">
<title>Node2&#45;&gt;Node6</title>
<path fill="none" stroke="midnightblue" d="M561.9,-115.07C474.39,-104.3 291.11,-81.76 210.55,-71.85"/>
<polygon fill="midnightblue" stroke="midnightblue" points="210.69,-68.34 200.34,-70.59 209.83,-75.29 210.69,-68.34"/>
</g>
<!-- Node7 -->
<g id="node7" class="node">
<title>Node7</title>
<g id="a_node7"><a xlink:href="Component_8hpp.html" target="_top" xlink:title=" ">
<polygon fill="white" stroke="black" points="516.63,-56.5 516.63,-75.5 669.63,-75.5 669.63,-56.5 516.63,-56.5"/>
<text text-anchor="middle" x="593.13" y="-63.5" font-family="Helvetica,sans-Serif" font-size="10.00">Component/Component.hpp</text>
</a>
</g>
</g>
<!-- Node2&#45;&gt;Node7 -->
<g id="edge6" class="edge">
<title>Node2&#45;&gt;Node7</title>
<path fill="none" stroke="midnightblue" d="M607.33,-112.08C605.05,-104.85 601.76,-94.41 598.93,-85.4"/>
<polygon fill="midnightblue" stroke="midnightblue" points="602.23,-84.24 595.89,-75.75 595.55,-86.34 602.23,-84.24"/>
</g>
<!-- Node10 -->
<g id="node10" class="node">
<title>Node10</title>
<g id="a_node10"><a xlink:href="WalError_8hpp.html" target="_top" xlink:title=" ">
<polygon fill="white" stroke="black" points="687.63,-56.5 687.63,-75.5 816.63,-75.5 816.63,-56.5 687.63,-56.5"/>
<text text-anchor="middle" x="752.13" y="-63.5" font-family="Helvetica,sans-Serif" font-size="10.00">Exception/WalError.hpp</text>
</a>
</g>
</g>
<!-- Node2&#45;&gt;Node10 -->
<g id="edge10" class="edge">
<title>Node2&#45;&gt;Node10</title>
<path fill="none" stroke="midnightblue" d="M632.63,-112.44C656.21,-103.48 693.46,-89.31 720.1,-79.18"/>
<polygon fill="midnightblue" stroke="midnightblue" points="721.64,-82.34 729.74,-75.52 719.15,-75.8 721.64,-82.34"/>
</g>
<!-- Node13 -->
<g id="node13" class="node">
<title>Node13</title>
<g id="a_node13"><a xlink:href="TypeHolder_8hpp.html" target="_top" xlink:title=" ">
<polygon fill="white" stroke="black" points="368.13,-56.5 368.13,-75.5 498.13,-75.5 498.13,-56.5 368.13,-56.5"/>
<text text-anchor="middle" x="433.13" y="-63.5" font-family="Helvetica,sans-Serif" font-size="10.00">Models/TypeHolder.hpp</text>
</a>
</g>
</g>
<!-- Node2&#45;&gt;Node13 -->
<g id="edge14" class="edge">
<title>Node2&#45;&gt;Node13</title>
<path fill="none" stroke="midnightblue" d="M582.09,-112.44C552.05,-103.28 504.22,-88.69 470.89,-78.52"/>
<polygon fill="midnightblue" stroke="midnightblue" points="471.64,-75.09 461.05,-75.52 469.59,-81.78 471.64,-75.09"/>
</g>
<!-- Node7&#45;&gt;Node3 -->
<g id="edge8" class="edge">
<title>Node7&#45;&gt;Node3</title>
<path fill="none" stroke="midnightblue" d="M632.27,-56.44C680.99,-45.79 763.24,-27.81 808.29,-17.96"/>
<polygon fill="midnightblue" stroke="midnightblue" points="809.08,-21.37 818.1,-15.82 807.59,-14.53 809.08,-21.37"/>
</g>
<!-- Node8 -->
<g id="node8" class="node">
<title>Node8</title>
<g id="a_node8"><a xlink:title=" ">
<polygon fill="white" stroke="#bfbfbf" points="90.63,-0.5 90.63,-19.5 137.63,-19.5 137.63,-0.5 90.63,-0.5"/>
<text text-anchor="middle" x="114.13" y="-7.5" font-family="Helvetica,sans-Serif" font-size="10.00">vector</text>
</a>
</g>
</g>
<!-- Node7&#45;&gt;Node8 -->
<g id="edge7" class="edge">
<title>Node7&#45;&gt;Node8</title>
<path fill="none" stroke="midnightblue" d="M517.5,-56.47C411.75,-44.55 224.11,-23.4 147.81,-14.8"/>
<polygon fill="midnightblue" stroke="midnightblue" points="148.13,-11.31 137.8,-13.67 147.34,-18.27 148.13,-11.31"/>
</g>
<!-- Node9 -->
<g id="node9" class="node">
<title>Node9</title>
<g id="a_node9"><a xlink:title=" ">
<polygon fill="white" stroke="#bfbfbf" points="376.63,-0.5 376.63,-19.5 441.63,-19.5 441.63,-0.5 376.63,-0.5"/>
<text text-anchor="middle" x="409.13" y="-7.5" font-family="Helvetica,sans-Serif" font-size="10.00">typeindex</text>
</a>
</g>
</g>
<!-- Node7&#45;&gt;Node9 -->
<g id="edge9" class="edge">
<title>Node7&#45;&gt;Node9</title>
<path fill="none" stroke="midnightblue" d="M563.98,-56.44C532.62,-47.24 482.6,-32.56 447.94,-22.39"/>
<polygon fill="midnightblue" stroke="midnightblue" points="448.73,-18.97 438.15,-19.52 446.76,-25.69 448.73,-18.97"/>
</g>
<!-- Node10&#45;&gt;Node3 -->
<g id="edge13" class="edge">
<title>Node10&#45;&gt;Node3</title>
<path fill="none" stroke="midnightblue" d="M766.27,-56.32C780,-47.9 801.07,-34.97 817.2,-25.07"/>
<polygon fill="midnightblue" stroke="midnightblue" points="819.34,-27.87 826.03,-19.65 815.68,-21.9 819.34,-27.87"/>
</g>
<!-- Node11 -->
<g id="node11" class="node">
<title>Node11</title>
<g id="a_node11"><a xlink:title=" ">
<polygon fill="white" stroke="#bfbfbf" points="724.63,-0.5 724.63,-19.5 789.63,-19.5 789.63,-0.5 724.63,-0.5"/>
<text text-anchor="middle" x="757.13" y="-7.5" font-family="Helvetica,sans-Serif" font-size="10.00">exception</text>
</a>
</g>
</g>
<!-- Node10&#45;&gt;Node11 -->
<g id="edge11" class="edge">
<title>Node10&#45;&gt;Node11</title>
<path fill="none" stroke="midnightblue" d="M752.96,-56.08C753.62,-49.01 754.55,-38.86 755.38,-29.99"/>
<polygon fill="midnightblue" stroke="midnightblue" points="758.89,-30.03 756.32,-19.75 751.92,-29.39 758.89,-30.03"/>
</g>
<!-- Node12 -->
<g id="node12" class="node">
<title>Node12</title>
<g id="a_node12"><a xlink:title=" ">
<polygon fill="white" stroke="#bfbfbf" points="641.63,-0.5 641.63,-19.5 706.63,-19.5 706.63,-0.5 641.63,-0.5"/>
<text text-anchor="middle" x="674.13" y="-7.5" font-family="Helvetica,sans-Serif" font-size="10.00">stdexcept</text>
</a>
</g>
</g>
<!-- Node10&#45;&gt;Node12 -->
<g id="edge12" class="edge">
<title>Node10&#45;&gt;Node12</title>
<path fill="none" stroke="midnightblue" d="M739.6,-56.32C727.55,-47.98 709.11,-35.21 694.87,-25.35"/>
<polygon fill="midnightblue" stroke="midnightblue" points="696.85,-22.47 686.64,-19.65 692.86,-28.22 696.85,-22.47"/>
</g>
<!-- Node14&#45;&gt;Node7 -->
<g id="edge21" class="edge">
<title>Node14&#45;&gt;Node7</title>
<path fill="none" stroke="midnightblue" d="M809.79,-280.34C787.81,-247.76 729.91,-166.11 667.13,-112 652.75,-99.6 634.54,-88.48 619.78,-80.4"/>
<polygon fill="midnightblue" stroke="midnightblue" points="621.13,-77.15 610.66,-75.54 617.84,-83.33 621.13,-77.15"/>
</g>
<!-- Node15 -->
<g id="node15" class="node">
<title>Node15</title>
<g id="a_node15"><a xlink:href="sources_2Models_2Vector3_8hpp.html" target="_top" xlink:title=" ">
<polygon fill="white" stroke="black" points="905.63,-224.5 905.63,-243.5 1018.63,-243.5 1018.63,-224.5 905.63,-224.5"/>
<text text-anchor="middle" x="962.13" y="-231.5" font-family="Helvetica,sans-Serif" font-size="10.00">Models/Vector3.hpp</text>
</a>
</g>
</g>
<!-- Node14&#45;&gt;Node15 -->
<g id="edge16" class="edge">
<title>Node14&#45;&gt;Node15</title>
<path fill="none" stroke="midnightblue" d="M853.02,-280.4C877.02,-270.42 908.91,-257.15 932.01,-247.53"/>
<polygon fill="midnightblue" stroke="midnightblue" points="933.44,-250.73 941.33,-243.66 930.75,-244.27 933.44,-250.73"/>
</g>
<!-- Node16 -->
<g id="node16" class="node">
<title>Node16</title>
<g id="a_node16"><a xlink:title=" ">
<polygon fill="white" stroke="#bfbfbf" points="968.13,-168.5 968.13,-187.5 1028.13,-187.5 1028.13,-168.5 968.13,-168.5"/>
<text text-anchor="middle" x="998.13" y="-175.5" font-family="Helvetica,sans-Serif" font-size="10.00">iostream</text>
</a>
</g>
</g>
<!-- Node15&#45;&gt;Node16 -->
<g id="edge17" class="edge">
<title>Node15&#45;&gt;Node16</title>
<path fill="none" stroke="midnightblue" d="M968.08,-224.08C973.11,-216.53 980.47,-205.49 986.65,-196.23"/>
<polygon fill="midnightblue" stroke="midnightblue" points="989.67,-198.01 992.3,-187.75 983.84,-194.13 989.67,-198.01"/>
</g>
<!-- Node17 -->
<g id="node17" class="node">
<title>Node17</title>
<g id="a_node17"><a xlink:title=" ">
<polygon fill="white" stroke="#bfbfbf" points="902.63,-168.5 902.63,-187.5 949.63,-187.5 949.63,-168.5 902.63,-168.5"/>
<text text-anchor="middle" x="926.13" y="-175.5" font-family="Helvetica,sans-Serif" font-size="10.00">cmath</text>
</a>
</g>
</g>
<!-- Node15&#45;&gt;Node17 -->
<g id="edge18" class="edge">
<title>Node15&#45;&gt;Node17</title>
<path fill="none" stroke="midnightblue" d="M956.19,-224.08C951.16,-216.53 943.8,-205.49 937.62,-196.23"/>
<polygon fill="midnightblue" stroke="midnightblue" points="940.43,-194.13 931.97,-187.75 934.6,-198.01 940.43,-194.13"/>
</g>
<!-- Node18 -->
<g id="node18" class="node">
<title>Node18</title>
<g id="a_node18"><a xlink:href="lib_2Ray_2sources_2Vector_2Vector3_8hpp.html" target="_top" xlink:title=" ">
<polygon fill="white" stroke="black" points="1046.13,-168.5 1046.13,-187.5 1154.13,-187.5 1154.13,-168.5 1046.13,-168.5"/>
<text text-anchor="middle" x="1100.13" y="-175.5" font-family="Helvetica,sans-Serif" font-size="10.00">Vector/Vector3.hpp</text>
</a>
</g>
</g>
<!-- Node15&#45;&gt;Node18 -->
<g id="edge19" class="edge">
<title>Node15&#45;&gt;Node18</title>
<path fill="none" stroke="midnightblue" d="M984,-224.44C1006.91,-215.48 1043.11,-201.31 1069,-191.18"/>
<polygon fill="midnightblue" stroke="midnightblue" points="1070.33,-194.42 1078.37,-187.52 1067.78,-187.9 1070.33,-194.42"/>
</g>
<!-- Node19 -->
<g id="node19" class="node">
<title>Node19</title>
<g id="a_node19"><a xlink:title=" ">
<polygon fill="white" stroke="#bfbfbf" points="1073.63,-112.5 1073.63,-131.5 1126.63,-131.5 1126.63,-112.5 1073.63,-112.5"/>
<text text-anchor="middle" x="1100.13" y="-119.5" font-family="Helvetica,sans-Serif" font-size="10.00">raylib.h</text>
</a>
</g>
</g>
<!-- Node18&#45;&gt;Node19 -->
<g id="edge20" class="edge">
<title>Node18&#45;&gt;Node19</title>
<path fill="none" stroke="midnightblue" d="M1100.13,-168.08C1100.13,-161.01 1100.13,-150.86 1100.13,-141.99"/>
<polygon fill="midnightblue" stroke="midnightblue" points="1103.63,-141.75 1100.13,-131.75 1096.63,-141.75 1103.63,-141.75"/>
</g>
<!-- Node21&#45;&gt;Node3 -->
<g id="edge26" class="edge">
<title>Node21&#45;&gt;Node3</title>
<path fill="none" stroke="midnightblue" d="M472.29,-292.45C515.08,-288.36 598.08,-276.58 660.13,-244 758.47,-192.37 800.17,-177.56 845.13,-76 851.58,-61.45 849.43,-43.27 846.19,-29.84"/>
<polygon fill="midnightblue" stroke="midnightblue" points="849.46,-28.53 843.37,-19.86 842.72,-30.43 849.46,-28.53"/>
</g>
<!-- Node21&#45;&gt;Node5 -->
<g id="edge28" class="edge">
<title>Node21&#45;&gt;Node5</title>
<path fill="none" stroke="midnightblue" d="M416.1,-292.84C372.18,-289.25 285.51,-278.08 221.13,-244 148.03,-205.31 90.14,-121.02 67.48,-84.48"/>
<polygon fill="midnightblue" stroke="midnightblue" points="70.22,-82.24 62.04,-75.51 64.23,-85.88 70.22,-82.24"/>
</g>
<!-- Node21&#45;&gt;Node6 -->
<g id="edge27" class="edge">
<title>Node21&#45;&gt;Node6</title>
<path fill="none" stroke="midnightblue" d="M416.09,-291.37C378.29,-286.18 309.88,-273.3 259.13,-244 197.9,-208.64 173.34,-197.27 146.13,-132 139.41,-115.86 148.26,-97.21 157.24,-84.04"/>
<polygon fill="midnightblue" stroke="midnightblue" points="160.13,-86.01 163.28,-75.89 154.51,-81.84 160.13,-86.01"/>
</g>
<!-- Node21&#45;&gt;Node8 -->
<g id="edge25" class="edge">
<title>Node21&#45;&gt;Node8</title>
<path fill="none" stroke="midnightblue" d="M416.02,-293.27C318.42,-288.27 0.13,-265.32 0.13,-179 0.13,-179 0.13,-179 0.13,-121 0.13,-90.9 -0.4,-78.9 19.13,-56 35.02,-37.39 60.32,-25.93 80.82,-19.24"/>
<polygon fill="midnightblue" stroke="midnightblue" points="81.88,-22.57 90.43,-16.32 79.85,-15.87 81.88,-22.57"/>
</g>
<!-- Node21&#45;&gt;Node10 -->
<g id="edge29" class="edge">
<title>Node21&#45;&gt;Node10</title>
<path fill="none" stroke="midnightblue" d="M472.32,-293.15C512.03,-289.99 585.18,-279.4 635.13,-244 693.69,-202.5 730.89,-121.64 745.32,-85.37"/>
<polygon fill="midnightblue" stroke="midnightblue" points="748.74,-86.23 749.06,-75.64 742.21,-83.72 748.74,-86.23"/>
</g>
<!-- Node22 -->
<g id="node22" class="node">
<title>Node22</title>
<g id="a_node22"><a xlink:title=" ">
<polygon fill="white" stroke="#bfbfbf" points="460.63,-112.5 460.63,-131.5 505.63,-131.5 505.63,-112.5 460.63,-112.5"/>
<text text-anchor="middle" x="483.13" y="-119.5" font-family="Helvetica,sans-Serif" font-size="10.00">utility</text>
</a>
</g>
</g>
<!-- Node21&#45;&gt;Node22 -->
<g id="edge24" class="edge">
<title>Node21&#45;&gt;Node22</title>
<path fill="none" stroke="midnightblue" d="M438.34,-285.97C424.71,-264.78 393.38,-208.49 415.13,-168 422.87,-153.61 437.44,-143.05 451.12,-135.79"/>
<polygon fill="midnightblue" stroke="midnightblue" points="452.9,-138.82 460.35,-131.29 449.83,-132.53 452.9,-138.82"/>
</g>
<!-- Node23 -->
<g id="node23" class="node">
<title>Node23</title>
<g id="a_node23"><a xlink:href="ISystem_8hpp.html" target="_top" xlink:title=" ">
<polygon fill="white" stroke="black" points="509.63,-224.5 509.63,-243.5 626.63,-243.5 626.63,-224.5 509.63,-224.5"/>
<text text-anchor="middle" x="568.13" y="-231.5" font-family="Helvetica,sans-Serif" font-size="10.00">System/ISystem.hpp</text>
</a>
</g>
</g>
<!-- Node21&#45;&gt;Node23 -->
<g id="edge30" class="edge">
<title>Node21&#45;&gt;Node23</title>
<path fill="none" stroke="midnightblue" d="M461.9,-285.98C482.62,-276.03 517.09,-259.49 541.12,-247.96"/>
<polygon fill="midnightblue" stroke="midnightblue" points="542.9,-250.99 550.4,-243.51 539.87,-244.68 542.9,-250.99"/>
</g>
<!-- Node30 -->
<g id="node30" class="node">
<title>Node30</title>
<g id="a_node30"><a xlink:href="Callback_8hpp.html" target="_top" xlink:title=" ">
<polygon fill="white" stroke="black" points="424.13,-168.5 424.13,-187.5 542.13,-187.5 542.13,-168.5 424.13,-168.5"/>
<text text-anchor="middle" x="483.13" y="-175.5" font-family="Helvetica,sans-Serif" font-size="10.00">Models/Callback.hpp</text>
</a>
</g>
</g>
<!-- Node21&#45;&gt;Node30 -->
<g id="edge41" class="edge">
<title>Node21&#45;&gt;Node30</title>
<path fill="none" stroke="midnightblue" d="M447.07,-285.82C453.39,-267.09 468.43,-222.55 476.96,-197.29"/>
<polygon fill="midnightblue" stroke="midnightblue" points="480.29,-198.38 480.17,-187.78 473.65,-196.14 480.29,-198.38"/>
</g>
<!-- Node21&#45;&gt;Node31 -->
<g id="edge45" class="edge">
<title>Node21&#45;&gt;Node31</title>
<path fill="none" stroke="midnightblue" d="M426.08,-285.98C404.94,-275.99 369.69,-259.35 345.26,-247.81"/>
<polygon fill="midnightblue" stroke="midnightblue" points="346.69,-244.61 336.15,-243.51 343.7,-250.94 346.69,-244.61"/>
</g>
<!-- Node23&#45;&gt;Node2 -->
<g id="edge31" class="edge">
<title>Node23&#45;&gt;Node2</title>
<path fill="none" stroke="midnightblue" d="M604.84,-224.35C623.97,-217.77 645.71,-206.58 657.13,-188 668.19,-170.02 649.68,-150.54 632.73,-137.65"/>
<polygon fill="midnightblue" stroke="midnightblue" points="634.35,-134.5 624.18,-131.55 630.29,-140.2 634.35,-134.5"/>
</g>
<!-- Node24 -->
<g id="node24" class="node">
<title>Node24</title>
<g id="a_node24"><a xlink:href="View_8hpp.html" target="_top" xlink:title=" ">
<polygon fill="white" stroke="black" points="242.13,-168.5 242.13,-187.5 330.13,-187.5 330.13,-168.5 242.13,-168.5"/>
<text text-anchor="middle" x="286.13" y="-175.5" font-family="Helvetica,sans-Serif" font-size="10.00">View/View.hpp</text>
</a>
</g>
</g>
<!-- Node23&#45;&gt;Node24 -->
<g id="edge32" class="edge">
<title>Node23&#45;&gt;Node24</title>
<path fill="none" stroke="midnightblue" d="M523.45,-224.44C473.7,-214.92 393.3,-199.52 340.08,-189.33"/>
<polygon fill="midnightblue" stroke="midnightblue" points="340.62,-185.87 330.14,-187.43 339.31,-192.75 340.62,-185.87"/>
</g>
<!-- Node29 -->
<g id="node29" class="node">
<title>Node29</title>
<g id="a_node29"><a xlink:title=" ">
<polygon fill="white" stroke="#bfbfbf" points="598.13,-168.5 598.13,-187.5 648.13,-187.5 648.13,-168.5 598.13,-168.5"/>
<text text-anchor="middle" x="623.13" y="-175.5" font-family="Helvetica,sans-Serif" font-size="10.00">chrono</text>
</a>
</g>
</g>
<!-- Node23&#45;&gt;Node29 -->
<g id="edge40" class="edge">
<title>Node23&#45;&gt;Node29</title>
<path fill="none" stroke="midnightblue" d="M577.22,-224.08C585.31,-216.14 597.33,-204.34 607.04,-194.8"/>
<polygon fill="midnightblue" stroke="midnightblue" points="609.54,-197.25 614.22,-187.75 604.63,-192.26 609.54,-197.25"/>
</g>
<!-- Node24&#45;&gt;Node2 -->
<g id="edge39" class="edge">
<title>Node24&#45;&gt;Node2</title>
<path fill="none" stroke="midnightblue" d="M330.17,-169.66C387.65,-160.08 488.41,-143.29 552.09,-132.67"/>
<polygon fill="midnightblue" stroke="midnightblue" points="552.69,-136.12 561.97,-131.03 551.53,-129.22 552.69,-136.12"/>
</g>
<!-- Node24&#45;&gt;Node9 -->
<g id="edge35" class="edge">
<title>Node24&#45;&gt;Node9</title>
<path fill="none" stroke="midnightblue" d="M270.35,-168.47C257.93,-160.77 241.53,-148.18 234.13,-132 224.77,-111.52 239.57,-63.9 247.13,-56 277.92,-23.87 329.49,-14.05 366.17,-11.36"/>
<polygon fill="midnightblue" stroke="midnightblue" points="366.78,-14.83 376.57,-10.76 366.38,-7.84 366.78,-14.83"/>
</g>
<!-- Node24&#45;&gt;Node22 -->
<g id="edge37" class="edge">
<title>Node24&#45;&gt;Node22</title>
<path fill="none" stroke="midnightblue" d="M317.79,-168.45C349.07,-159.98 398.55,-146.53 450.66,-132.12"/>
<polygon fill="midnightblue" stroke="midnightblue" points="451.71,-135.46 460.41,-129.41 449.84,-128.71 451.71,-135.46"/>
</g>
<!-- Node25 -->
<g id="node25" class="node">
<title>Node25</title>
<g id="a_node25"><a xlink:title=" ">
<polygon fill="white" stroke="#bfbfbf" points="155.13,-112.5 155.13,-131.5 187.13,-131.5 187.13,-112.5 155.13,-112.5"/>
<text text-anchor="middle" x="171.13" y="-119.5" font-family="Helvetica,sans-Serif" font-size="10.00">list</text>
</a>
</g>
</g>
<!-- Node24&#45;&gt;Node25 -->
<g id="edge33" class="edge">
<title>Node24&#45;&gt;Node25</title>
<path fill="none" stroke="midnightblue" d="M267.91,-168.44C248.69,-159.42 218.25,-145.12 196.64,-134.98"/>
<polygon fill="midnightblue" stroke="midnightblue" points="197.95,-131.73 187.41,-130.64 194.98,-138.06 197.95,-131.73"/>
</g>
<!-- Node26 -->
<g id="node26" class="node">
<title>Node26</title>
<g id="a_node26"><a xlink:title=" ">
<polygon fill="white" stroke="#bfbfbf" points="243.63,-112.5 243.63,-131.5 284.63,-131.5 284.63,-112.5 243.63,-112.5"/>
<text text-anchor="middle" x="264.13" y="-119.5" font-family="Helvetica,sans-Serif" font-size="10.00">tuple</text>
</a>
</g>
</g>
<!-- Node24&#45;&gt;Node26 -->
<g id="edge34" class="edge">
<title>Node24&#45;&gt;Node26</title>
<path fill="none" stroke="midnightblue" d="M282.5,-168.08C279.52,-160.77 275.21,-150.18 271.51,-141.1"/>
<polygon fill="midnightblue" stroke="midnightblue" points="274.71,-139.69 267.7,-131.75 268.23,-142.33 274.71,-139.69"/>
</g>
<!-- Node27 -->
<g id="node27" class="node">
<title>Node27</title>
<g id="a_node27"><a xlink:title=" ">
<polygon fill="white" stroke="#bfbfbf" points="377.63,-112.5 377.63,-131.5 442.63,-131.5 442.63,-112.5 377.63,-112.5"/>
<text text-anchor="middle" x="410.13" y="-119.5" font-family="Helvetica,sans-Serif" font-size="10.00">functional</text>
</a>
</g>
</g>
<!-- Node24&#45;&gt;Node27 -->
<g id="edge36" class="edge">
<title>Node24&#45;&gt;Node27</title>
<path fill="none" stroke="midnightblue" d="M305.78,-168.44C326.1,-159.6 358.04,-145.69 381.23,-135.59"/>
<polygon fill="midnightblue" stroke="midnightblue" points="382.81,-138.72 390.58,-131.52 380.01,-132.3 382.81,-138.72"/>
</g>
<!-- Node28 -->
<g id="node28" class="node">
<title>Node28</title>
<g id="a_node28"><a xlink:title=" ">
<polygon fill="white" stroke="#bfbfbf" points="303.13,-112.5 303.13,-131.5 359.13,-131.5 359.13,-112.5 303.13,-112.5"/>
<text text-anchor="middle" x="331.13" y="-119.5" font-family="Helvetica,sans-Serif" font-size="10.00">optional</text>
</a>
</g>
</g>
<!-- Node24&#45;&gt;Node28 -->
<g id="edge38" class="edge">
<title>Node24&#45;&gt;Node28</title>
<path fill="none" stroke="midnightblue" d="M293.56,-168.08C299.99,-160.38 309.44,-149.03 317.26,-139.65"/>
<polygon fill="midnightblue" stroke="midnightblue" points="320.13,-141.67 323.84,-131.75 314.75,-137.19 320.13,-141.67"/>
</g>
<!-- Node30&#45;&gt;Node4 -->
<g id="edge44" class="edge">
<title>Node30&#45;&gt;Node4</title>
<path fill="none" stroke="midnightblue" d="M493,-168.28C506.74,-155.08 528.45,-129.69 514.13,-112 509.2,-105.91 420.47,-88.53 359.66,-77.24"/>
<polygon fill="midnightblue" stroke="midnightblue" points="360.25,-73.79 349.78,-75.42 358.98,-80.68 360.25,-73.79"/>
</g>
<!-- Node30&#45;&gt;Node22 -->
<g id="edge43" class="edge">
<title>Node30&#45;&gt;Node22</title>
<path fill="none" stroke="midnightblue" d="M483.13,-168.08C483.13,-161.01 483.13,-150.86 483.13,-141.99"/>
<polygon fill="midnightblue" stroke="midnightblue" points="486.63,-141.75 483.13,-131.75 479.63,-141.75 486.63,-141.75"/>
</g>
<!-- Node30&#45;&gt;Node27 -->
<g id="edge42" class="edge">
<title>Node30&#45;&gt;Node27</title>
<path fill="none" stroke="midnightblue" d="M471.41,-168.32C460.3,-160.11 443.39,-147.6 430.15,-137.81"/>
<polygon fill="midnightblue" stroke="midnightblue" points="432.2,-134.97 422.08,-131.83 428.03,-140.59 432.2,-134.97"/>
</g>
<!-- Node31&#45;&gt;Node2 -->
<g id="edge50" class="edge">
<title>Node31&#45;&gt;Node2</title>
<path fill="none" stroke="midnightblue" d="M368.08,-232.37C417.5,-229.75 493.86,-220.21 551.13,-188 571.6,-176.49 588.79,-155.3 599.25,-140.25"/>
<polygon fill="midnightblue" stroke="midnightblue" points="602.24,-142.07 604.85,-131.81 596.41,-138.2 602.24,-142.07"/>
</g>
<!-- Node31&#45;&gt;Node8 -->
<g id="edge46" class="edge">
<title>Node31&#45;&gt;Node8</title>
<path fill="none" stroke="midnightblue" d="M286.09,-224.43C245.55,-211.7 177.28,-183.58 146.13,-132 126.45,-99.4 118.72,-54.73 115.8,-29.79"/>
<polygon fill="midnightblue" stroke="midnightblue" points="119.25,-29.15 114.75,-19.56 112.29,-29.86 119.25,-29.15"/>
</g>
<!-- Node31&#45;&gt;Node24 -->
<g id="edge49" class="edge">
<title>Node31&#45;&gt;Node24</title>
<path fill="none" stroke="midnightblue" d="M312.85,-224.08C308.42,-216.61 301.97,-205.72 296.52,-196.52"/>
<polygon fill="midnightblue" stroke="midnightblue" points="299.43,-194.57 291.32,-187.75 293.41,-198.14 299.43,-194.57"/>
</g>
<!-- Node31&#45;&gt;Node25 -->
<g id="edge47" class="edge">
<title>Node31&#45;&gt;Node25</title>
<path fill="none" stroke="midnightblue" d="M297.82,-224.5C279.89,-216.48 253.5,-203.42 233.13,-188 214.39,-173.81 196.23,-153.8 184.46,-139.74"/>
<polygon fill="midnightblue" stroke="midnightblue" points="187.05,-137.38 178.01,-131.86 181.63,-141.81 187.05,-137.38"/>
</g>
<!-- Node31&#45;&gt;Node27 -->
<g id="edge48" class="edge">
<title>Node31&#45;&gt;Node27</title>
<path fill="none" stroke="midnightblue" d="M325.35,-224.37C340.67,-206.05 376.64,-163.05 396.45,-139.36"/>
<polygon fill="midnightblue" stroke="midnightblue" points="399.22,-141.51 402.95,-131.59 393.85,-137.02 399.22,-141.51"/>
</g>
</g>
</svg>
