<?xml version="1.0" encoding="UTF-8" standalone="no"?>
<!DOCTYPE svg PUBLIC "-//W3C//DTD SVG 1.1//EN"
 "http://www.w3.org/Graphics/SVG/1.1/DTD/svg11.dtd">
<!-- Generated by graphviz version 2.43.0 (0)
 -->
<!-- Title: lib/wal/sources/Entity/Entity.hpp Pages: 1 -->
<svg width="758pt" height="151pt"
 viewBox="0.00 0.00 757.50 151.00" xmlns="http://www.w3.org/2000/svg" xmlns:xlink="http://www.w3.org/1999/xlink">
<g id="graph0" class="graph" transform="scale(1 1) rotate(0) translate(4 147)">
<title>lib/wal/sources/Entity/Entity.hpp</title>
<polygon fill="white" stroke="transparent" points="-4,4 -4,-147 753.5,-147 753.5,4 -4,4"/>
<!-- Node1 -->
<g id="node1" class="node">
<title>Node1</title>
<g id="a_node1"><a xlink:title=" ">
<polygon fill="#bfbfbf" stroke="black" points="326,-112.5 326,-142.5 447,-142.5 447,-112.5 326,-112.5"/>
<text text-anchor="start" x="334" y="-130.5" font-family="Helvetica,sans-Serif" font-size="10.00">lib/wal/sources/Entity</text>
<text text-anchor="middle" x="386.5" y="-119.5" font-family="Helvetica,sans-Serif" font-size="10.00">/Entity.hpp</text>
</a>
</g>
</g>
<!-- Node2 -->
<g id="node2" class="node">
<title>Node2</title>
<g id="a_node2"><a xlink:title=" ">
<polygon fill="white" stroke="#bfbfbf" points="421.5,-0.5 421.5,-19.5 465.5,-19.5 465.5,-0.5 421.5,-0.5"/>
<text text-anchor="middle" x="443.5" y="-7.5" font-family="Helvetica,sans-Serif" font-size="10.00">string</text>
</a>
</g>
</g>
<!-- Node1&#45;&gt;Node2 -->
<g id="edge1" class="edge">
<title>Node1&#45;&gt;Node2</title>
<path fill="none" stroke="midnightblue" d="M399.31,-112.41C407.51,-102.76 417.81,-89.34 424.5,-76 431.91,-61.22 436.91,-43.06 439.92,-29.7"/>
<polygon fill="midnightblue" stroke="midnightblue" points="443.37,-30.29 441.98,-19.78 436.52,-28.86 443.37,-30.29"/>
</g>
<!-- Node3 -->
<g id="node3" class="node">
<title>Node3</title>
<g id="a_node3"><a xlink:title=" ">
<polygon fill="white" stroke="#bfbfbf" points="171,-56.5 171,-75.5 264,-75.5 264,-56.5 171,-56.5"/>
<text text-anchor="middle" x="217.5" y="-63.5" font-family="Helvetica,sans-Serif" font-size="10.00">unordered_map</text>
</a>
</g>
</g>
<!-- Node1&#45;&gt;Node3 -->
<g id="edge2" class="edge">
<title>Node1&#45;&gt;Node3</title>
<path fill="none" stroke="midnightblue" d="M346.45,-112.4C317.59,-102.24 279.05,-88.67 251.65,-79.02"/>
<polygon fill="midnightblue" stroke="midnightblue" points="252.69,-75.68 242.09,-75.66 250.36,-82.28 252.69,-75.68"/>
</g>
<!-- Node4 -->
<g id="node4" class="node">
<title>Node4</title>
<g id="a_node4"><a xlink:title=" ">
<polygon fill="white" stroke="#bfbfbf" points="282,-56.5 282,-75.5 339,-75.5 339,-56.5 282,-56.5"/>
<text text-anchor="middle" x="310.5" y="-63.5" font-family="Helvetica,sans-Serif" font-size="10.00">typeinfo</text>
</a>
</g>
</g>
<!-- Node1&#45;&gt;Node4 -->
<g id="edge3" class="edge">
<title>Node1&#45;&gt;Node4</title>
<path fill="none" stroke="midnightblue" d="M368.49,-112.4C356.76,-103.22 341.48,-91.26 329.56,-81.92"/>
<polygon fill="midnightblue" stroke="midnightblue" points="331.59,-79.07 321.56,-75.66 327.28,-84.58 331.59,-79.07"/>
</g>
<!-- Node5 -->
<g id="node5" class="node">
<title>Node5</title>
<g id="a_node5"><a xlink:title=" ">
<polygon fill="white" stroke="#bfbfbf" points="357.5,-56.5 357.5,-75.5 415.5,-75.5 415.5,-56.5 357.5,-56.5"/>
<text text-anchor="middle" x="386.5" y="-63.5" font-family="Helvetica,sans-Serif" font-size="10.00">memory</text>
</a>
</g>
</g>
<!-- Node1&#45;&gt;Node5 -->
<g id="edge4" class="edge">
<title>Node1&#45;&gt;Node5</title>
<path fill="none" stroke="midnightblue" d="M386.5,-112.4C386.5,-104.47 386.5,-94.46 386.5,-85.86"/>
<polygon fill="midnightblue" stroke="midnightblue" points="390,-85.66 386.5,-75.66 383,-85.66 390,-85.66"/>
</g>
<!-- Node6 -->
<g id="node6" class="node">
<title>Node6</title>
<g id="a_node6"><a xlink:href="Component_8hpp.html" target="_top" xlink:title=" ">
<polygon fill="white" stroke="black" points="0,-56.5 0,-75.5 153,-75.5 153,-56.5 0,-56.5"/>
<text text-anchor="middle" x="76.5" y="-63.5" font-family="Helvetica,sans-Serif" font-size="10.00">Component/Component.hpp</text>
</a>
</g>
</g>
<!-- Node1&#45;&gt;Node6 -->
<g id="edge5" class="edge">
<title>Node1&#45;&gt;Node6</title>
<path fill="none" stroke="midnightblue" d="M325.99,-114.89C269.26,-104 185.22,-87.87 130.65,-77.39"/>
<polygon fill="midnightblue" stroke="midnightblue" points="131.3,-73.95 120.82,-75.51 129.98,-80.83 131.3,-73.95"/>
</g>
<!-- Node9 -->
<g id="node9" class="node">
<title>Node9</title>
<g id="a_node9"><a xlink:href="WalError_8hpp.html" target="_top" xlink:title=" ">
<polygon fill="white" stroke="black" points="472,-56.5 472,-75.5 601,-75.5 601,-56.5 472,-56.5"/>
<text text-anchor="middle" x="536.5" y="-63.5" font-family="Helvetica,sans-Serif" font-size="10.00">Exception/WalError.hpp</text>
</a>
</g>
</g>
<!-- Node1&#45;&gt;Node9 -->
<g id="edge9" class="edge">
<title>Node1&#45;&gt;Node9</title>
<path fill="none" stroke="midnightblue" d="M422.05,-112.4C447.33,-102.37 480.97,-89.03 505.23,-79.4"/>
<polygon fill="midnightblue" stroke="midnightblue" points="506.67,-82.6 514.67,-75.66 504.09,-76.09 506.67,-82.6"/>
</g>
<!-- Node12 -->
<g id="node12" class="node">
<title>Node12</title>
<g id="a_node12"><a xlink:href="TypeHolder_8hpp.html" target="_top" xlink:title=" ">
<polygon fill="white" stroke="black" points="619.5,-56.5 619.5,-75.5 749.5,-75.5 749.5,-56.5 619.5,-56.5"/>
<text text-anchor="middle" x="684.5" y="-63.5" font-family="Helvetica,sans-Serif" font-size="10.00">Models/TypeHolder.hpp</text>
</a>
</g>
</g>
<!-- Node1&#45;&gt;Node12 -->
<g id="edge13" class="edge">
<title>Node1&#45;&gt;Node12</title>
<path fill="none" stroke="midnightblue" d="M447.16,-114.39C501.41,-103.56 580.1,-87.85 631.77,-77.53"/>
<polygon fill="midnightblue" stroke="midnightblue" points="632.61,-80.93 641.73,-75.54 631.24,-74.07 632.61,-80.93"/>
</g>
<!-- Node6&#45;&gt;Node2 -->
<g id="edge7" class="edge">
<title>Node6&#45;&gt;Node2</title>
<path fill="none" stroke="midnightblue" d="M134.65,-56.44C212.99,-44.92 349.7,-24.8 411.53,-15.7"/>
<polygon fill="midnightblue" stroke="midnightblue" points="412.09,-19.16 421.48,-14.24 411.07,-12.23 412.09,-19.16"/>
</g>
<!-- Node7 -->
<g id="node7" class="node">
<title>Node7</title>
<g id="a_node7"><a xlink:title=" ">
<polygon fill="white" stroke="#bfbfbf" points="90,-0.5 90,-19.5 137,-19.5 137,-0.5 90,-0.5"/>
<text text-anchor="middle" x="113.5" y="-7.5" font-family="Helvetica,sans-Serif" font-size="10.00">vector</text>
</a>
</g>
</g>
<!-- Node6&#45;&gt;Node7 -->
<g id="edge6" class="edge">
<title>Node6&#45;&gt;Node7</title>
<path fill="none" stroke="midnightblue" d="M82.61,-56.08C87.78,-48.53 95.35,-37.49 101.69,-28.23"/>
<polygon fill="midnightblue" stroke="midnightblue" points="104.74,-29.98 107.5,-19.75 98.96,-26.02 104.74,-29.98"/>
</g>
<!-- Node8 -->
<g id="node8" class="node">
<title>Node8</title>
<g id="a_node8"><a xlink:title=" ">
<polygon fill="white" stroke="#bfbfbf" points="7,-0.5 7,-19.5 72,-19.5 72,-0.5 7,-0.5"/>
<text text-anchor="middle" x="39.5" y="-7.5" font-family="Helvetica,sans-Serif" font-size="10.00">typeindex</text>
</a>
</g>
</g>
<!-- Node6&#45;&gt;Node8 -->
<g id="edge8" class="edge">
<title>Node6&#45;&gt;Node8</title>
<path fill="none" stroke="midnightblue" d="M70.39,-56.08C65.22,-48.53 57.65,-37.49 51.31,-28.23"/>
<polygon fill="midnightblue" stroke="midnightblue" points="54.04,-26.02 45.5,-19.75 48.26,-29.98 54.04,-26.02"/>
</g>
<!-- Node9&#45;&gt;Node2 -->
<g id="edge12" class="edge">
<title>Node9&#45;&gt;Node2</title>
<path fill="none" stroke="midnightblue" d="M521.56,-56.32C506.91,-47.82 484.37,-34.73 467.26,-24.8"/>
<polygon fill="midnightblue" stroke="midnightblue" points="468.81,-21.65 458.4,-19.65 465.3,-27.7 468.81,-21.65"/>
</g>
<!-- Node10 -->
<g id="node10" class="node">
<title>Node10</title>
<g id="a_node10"><a xlink:title=" ">
<polygon fill="white" stroke="#bfbfbf" points="577,-0.5 577,-19.5 642,-19.5 642,-0.5 577,-0.5"/>
<text text-anchor="middle" x="609.5" y="-7.5" font-family="Helvetica,sans-Serif" font-size="10.00">exception</text>
</a>
</g>
</g>
<!-- Node9&#45;&gt;Node10 -->
<g id="edge10" class="edge">
<title>Node9&#45;&gt;Node10</title>
<path fill="none" stroke="midnightblue" d="M548.23,-56.32C559.34,-48.11 576.24,-35.6 589.48,-25.81"/>
<polygon fill="midnightblue" stroke="midnightblue" points="591.6,-28.59 597.56,-19.83 587.44,-22.97 591.6,-28.59"/>
</g>
<!-- Node11 -->
<g id="node11" class="node">
<title>Node11</title>
<g id="a_node11"><a xlink:title=" ">
<polygon fill="white" stroke="#bfbfbf" points="494,-0.5 494,-19.5 559,-19.5 559,-0.5 494,-0.5"/>
<text text-anchor="middle" x="526.5" y="-7.5" font-family="Helvetica,sans-Serif" font-size="10.00">stdexcept</text>
</a>
</g>
</g>
<!-- Node9&#45;&gt;Node11 -->
<g id="edge11" class="edge">
<title>Node9&#45;&gt;Node11</title>
<path fill="none" stroke="midnightblue" d="M534.85,-56.08C533.52,-48.93 531.62,-38.64 529.96,-29.69"/>
<polygon fill="midnightblue" stroke="midnightblue" points="533.38,-28.95 528.12,-19.75 526.5,-30.22 533.38,-28.95"/>
</g>
</g>
</svg>
