<?xml version="1.0" encoding="UTF-8" standalone="no"?>
<!DOCTYPE svg PUBLIC "-//W3C//DTD SVG 1.1//EN"
 "http://www.w3.org/Graphics/SVG/1.1/DTD/svg11.dtd">
<!-- Generated by graphviz version 2.43.0 (0)
 -->
<!-- Title: lib/wal/sources/Entity/Entity.cpp Pages: 1 -->
<svg width="976pt" height="319pt"
 viewBox="0.00 0.00 975.79 319.00" xmlns="http://www.w3.org/2000/svg" xmlns:xlink="http://www.w3.org/1999/xlink">
<g id="graph0" class="graph" transform="scale(1 1) rotate(0) translate(4 315)">
<title>lib/wal/sources/Entity/Entity.cpp</title>
<polygon fill="white" stroke="transparent" points="-4,4 -4,-315 971.79,-315 971.79,4 -4,4"/>
<!-- Node1 -->
<g id="node1" class="node">
<title>Node1</title>
<g id="a_node1"><a xlink:title=" ">
<polygon fill="#bfbfbf" stroke="black" points="559,-280.5 559,-310.5 680,-310.5 680,-280.5 559,-280.5"/>
<text text-anchor="start" x="567" y="-298.5" font-family="Helvetica,sans-Serif" font-size="10.00">lib/wal/sources/Entity</text>
<text text-anchor="middle" x="619.5" y="-287.5" font-family="Helvetica,sans-Serif" font-size="10.00">/Entity.cpp</text>
</a>
</g>
</g>
<!-- Node2 -->
<g id="node2" class="node">
<title>Node2</title>
<g id="a_node2"><a xlink:href="Entity_8hpp.html" target="_top" xlink:title=" ">
<polygon fill="white" stroke="black" points="485.5,-112.5 485.5,-131.5 581.5,-131.5 581.5,-112.5 485.5,-112.5"/>
<text text-anchor="middle" x="533.5" y="-119.5" font-family="Helvetica,sans-Serif" font-size="10.00">Entity/Entity.hpp</text>
</a>
</g>
</g>
<!-- Node1&#45;&gt;Node2 -->
<g id="edge1" class="edge">
<title>Node1&#45;&gt;Node2</title>
<path fill="none" stroke="midnightblue" d="M612.46,-280.47C596.9,-249.44 559.6,-175.05 542.43,-140.81"/>
<polygon fill="midnightblue" stroke="midnightblue" points="545.4,-138.93 537.79,-131.56 539.15,-142.07 545.4,-138.93"/>
</g>
<!-- Node3 -->
<g id="node3" class="node">
<title>Node3</title>
<g id="a_node3"><a xlink:title=" ">
<polygon fill="white" stroke="#bfbfbf" points="212.5,-0.5 212.5,-19.5 256.5,-19.5 256.5,-0.5 212.5,-0.5"/>
<text text-anchor="middle" x="234.5" y="-7.5" font-family="Helvetica,sans-Serif" font-size="10.00">string</text>
</a>
</g>
</g>
<!-- Node1&#45;&gt;Node3 -->
<g id="edge28" class="edge">
<title>Node1&#45;&gt;Node3</title>
<path fill="none" stroke="midnightblue" d="M558.88,-291.69C435.44,-284.31 166.5,-259.05 166.5,-179 166.5,-179 166.5,-179 166.5,-121 166.5,-90.9 169.61,-81.56 185.5,-56 192.76,-44.32 203.87,-33.76 213.68,-25.82"/>
<polygon fill="midnightblue" stroke="midnightblue" points="216.04,-28.42 221.83,-19.54 211.77,-22.87 216.04,-28.42"/>
</g>
<!-- Node14 -->
<g id="node14" class="node">
<title>Node14</title>
<g id="a_node14"><a xlink:href="Scene_8hpp.html" target="_top" xlink:title=" ">
<polygon fill="white" stroke="black" points="652,-224.5 652,-243.5 751,-243.5 751,-224.5 652,-224.5"/>
<text text-anchor="middle" x="701.5" y="-231.5" font-family="Helvetica,sans-Serif" font-size="10.00">Scene/Scene.hpp</text>
</a>
</g>
</g>
<!-- Node1&#45;&gt;Node14 -->
<g id="edge15" class="edge">
<title>Node1&#45;&gt;Node14</title>
<path fill="none" stroke="midnightblue" d="M638.93,-280.4C651.71,-271.13 668.39,-259.03 681.31,-249.65"/>
<polygon fill="midnightblue" stroke="midnightblue" points="683.53,-252.36 689.57,-243.66 679.42,-246.7 683.53,-252.36"/>
</g>
<!-- Node19 -->
<g id="node19" class="node">
<title>Node19</title>
<g id="a_node19"><a xlink:title=" ">
<polygon fill="white" stroke="#bfbfbf" points="906,-112.5 906,-131.5 951,-131.5 951,-112.5 906,-112.5"/>
<text text-anchor="middle" x="928.5" y="-119.5" font-family="Helvetica,sans-Serif" font-size="10.00">utility</text>
</a>
</g>
</g>
<!-- Node1&#45;&gt;Node19 -->
<g id="edge29" class="edge">
<title>Node1&#45;&gt;Node19</title>
<path fill="none" stroke="midnightblue" d="M669.22,-280.45C696.89,-271.72 731.5,-259.25 760.5,-244 819.57,-212.94 881.33,-163.29 910.8,-138.35"/>
<polygon fill="midnightblue" stroke="midnightblue" points="913.22,-140.88 918.55,-131.73 908.68,-135.56 913.22,-140.88"/>
</g>
<!-- Node2&#45;&gt;Node3 -->
<g id="edge2" class="edge">
<title>Node2&#45;&gt;Node3</title>
<path fill="none" stroke="midnightblue" d="M485.05,-119.9C435.72,-116.96 358.34,-107.21 299.5,-76 277.58,-64.37 258.31,-42.89 246.55,-27.82"/>
<polygon fill="midnightblue" stroke="midnightblue" points="249.34,-25.7 240.54,-19.8 243.74,-29.9 249.34,-25.7"/>
</g>
<!-- Node4 -->
<g id="node4" class="node">
<title>Node4</title>
<g id="a_node4"><a xlink:title=" ">
<polygon fill="white" stroke="#bfbfbf" points="628,-56.5 628,-75.5 721,-75.5 721,-56.5 628,-56.5"/>
<text text-anchor="middle" x="674.5" y="-63.5" font-family="Helvetica,sans-Serif" font-size="10.00">unordered_map</text>
</a>
</g>
</g>
<!-- Node2&#45;&gt;Node4 -->
<g id="edge3" class="edge">
<title>Node2&#45;&gt;Node4</title>
<path fill="none" stroke="midnightblue" d="M555.84,-112.44C579.25,-103.48 616.24,-89.31 642.69,-79.18"/>
<polygon fill="midnightblue" stroke="midnightblue" points="644.18,-82.36 652.26,-75.52 641.67,-75.82 644.18,-82.36"/>
</g>
<!-- Node5 -->
<g id="node5" class="node">
<title>Node5</title>
<g id="a_node5"><a xlink:title=" ">
<polygon fill="white" stroke="#bfbfbf" points="739,-56.5 739,-75.5 796,-75.5 796,-56.5 739,-56.5"/>
<text text-anchor="middle" x="767.5" y="-63.5" font-family="Helvetica,sans-Serif" font-size="10.00">typeinfo</text>
</a>
</g>
</g>
<!-- Node2&#45;&gt;Node5 -->
<g id="edge4" class="edge">
<title>Node2&#45;&gt;Node5</title>
<path fill="none" stroke="midnightblue" d="M571.67,-112.45C609.29,-103.98 668.68,-90.52 728.78,-76.38"/>
<polygon fill="midnightblue" stroke="midnightblue" points="729.9,-79.72 738.83,-74.02 728.29,-72.9 729.9,-79.72"/>
</g>
<!-- Node6 -->
<g id="node6" class="node">
<title>Node6</title>
<g id="a_node6"><a xlink:title=" ">
<polygon fill="white" stroke="#bfbfbf" points="194.5,-56.5 194.5,-75.5 252.5,-75.5 252.5,-56.5 194.5,-56.5"/>
<text text-anchor="middle" x="223.5" y="-63.5" font-family="Helvetica,sans-Serif" font-size="10.00">memory</text>
</a>
</g>
</g>
<!-- Node2&#45;&gt;Node6 -->
<g id="edge5" class="edge">
<title>Node2&#45;&gt;Node6</title>
<path fill="none" stroke="midnightblue" d="M485.16,-113.44C431.6,-104.93 342.72,-90.39 266.5,-76 265.24,-75.76 263.95,-75.51 262.65,-75.26"/>
<polygon fill="midnightblue" stroke="midnightblue" points="263.11,-71.78 252.61,-73.26 261.73,-78.65 263.11,-71.78"/>
</g>
<!-- Node7 -->
<g id="node7" class="node">
<title>Node7</title>
<g id="a_node7"><a xlink:href="Component_8hpp.html" target="_top" xlink:title=" ">
<polygon fill="white" stroke="black" points="457,-56.5 457,-75.5 610,-75.5 610,-56.5 457,-56.5"/>
<text text-anchor="middle" x="533.5" y="-63.5" font-family="Helvetica,sans-Serif" font-size="10.00">Component/Component.hpp</text>
</a>
</g>
</g>
<!-- Node2&#45;&gt;Node7 -->
<g id="edge6" class="edge">
<title>Node2&#45;&gt;Node7</title>
<path fill="none" stroke="midnightblue" d="M533.5,-112.08C533.5,-105.01 533.5,-94.86 533.5,-85.99"/>
<polygon fill="midnightblue" stroke="midnightblue" points="537,-85.75 533.5,-75.75 530,-85.75 537,-85.75"/>
</g>
<!-- Node10 -->
<g id="node10" class="node">
<title>Node10</title>
<g id="a_node10"><a xlink:href="WalError_8hpp.html" target="_top" xlink:title=" ">
<polygon fill="white" stroke="black" points="9,-56.5 9,-75.5 138,-75.5 138,-56.5 9,-56.5"/>
<text text-anchor="middle" x="73.5" y="-63.5" font-family="Helvetica,sans-Serif" font-size="10.00">Exception/WalError.hpp</text>
</a>
</g>
</g>
<!-- Node2&#45;&gt;Node10 -->
<g id="edge10" class="edge">
<title>Node2&#45;&gt;Node10</title>
<path fill="none" stroke="midnightblue" d="M485.14,-115.32C404.8,-105.89 243.26,-86.93 148.19,-75.77"/>
<polygon fill="midnightblue" stroke="midnightblue" points="148.4,-72.27 138.06,-74.58 147.59,-79.22 148.4,-72.27"/>
</g>
<!-- Node13 -->
<g id="node13" class="node">
<title>Node13</title>
<g id="a_node13"><a xlink:href="TypeHolder_8hpp.html" target="_top" xlink:title=" ">
<polygon fill="white" stroke="black" points="308.5,-56.5 308.5,-75.5 438.5,-75.5 438.5,-56.5 308.5,-56.5"/>
<text text-anchor="middle" x="373.5" y="-63.5" font-family="Helvetica,sans-Serif" font-size="10.00">Models/TypeHolder.hpp</text>
</a>
</g>
</g>
<!-- Node2&#45;&gt;Node13 -->
<g id="edge14" class="edge">
<title>Node2&#45;&gt;Node13</title>
<path fill="none" stroke="midnightblue" d="M508.15,-112.44C481.23,-103.36 438.5,-88.94 408.41,-78.78"/>
<polygon fill="midnightblue" stroke="midnightblue" points="409.33,-75.4 398.73,-75.52 407.09,-82.03 409.33,-75.4"/>
</g>
<!-- Node7&#45;&gt;Node3 -->
<g id="edge8" class="edge">
<title>Node7&#45;&gt;Node3</title>
<path fill="none" stroke="midnightblue" d="M486.12,-56.44C424.81,-45.37 319.6,-26.37 266.76,-16.83"/>
<polygon fill="midnightblue" stroke="midnightblue" points="267.08,-13.33 256.62,-15 265.84,-20.22 267.08,-13.33"/>
</g>
<!-- Node8 -->
<g id="node8" class="node">
<title>Node8</title>
<g id="a_node8"><a xlink:title=" ">
<polygon fill="white" stroke="#bfbfbf" points="863,-0.5 863,-19.5 910,-19.5 910,-0.5 863,-0.5"/>
<text text-anchor="middle" x="886.5" y="-7.5" font-family="Helvetica,sans-Serif" font-size="10.00">vector</text>
</a>
</g>
</g>
<!-- Node7&#45;&gt;Node8 -->
<g id="edge7" class="edge">
<title>Node7&#45;&gt;Node8</title>
<path fill="none" stroke="midnightblue" d="M589.43,-56.44C663.53,-45.11 791.91,-25.47 852.71,-16.17"/>
<polygon fill="midnightblue" stroke="midnightblue" points="853.55,-19.58 862.91,-14.61 852.49,-12.66 853.55,-19.58"/>
</g>
<!-- Node9 -->
<g id="node9" class="node">
<title>Node9</title>
<g id="a_node9"><a xlink:title=" ">
<polygon fill="white" stroke="#bfbfbf" points="594,-0.5 594,-19.5 659,-19.5 659,-0.5 594,-0.5"/>
<text text-anchor="middle" x="626.5" y="-7.5" font-family="Helvetica,sans-Serif" font-size="10.00">typeindex</text>
</a>
</g>
</g>
<!-- Node7&#45;&gt;Node9 -->
<g id="edge9" class="edge">
<title>Node7&#45;&gt;Node9</title>
<path fill="none" stroke="midnightblue" d="M548.44,-56.32C563.09,-47.82 585.63,-34.73 602.74,-24.8"/>
<polygon fill="midnightblue" stroke="midnightblue" points="604.7,-27.7 611.6,-19.65 601.19,-21.65 604.7,-27.7"/>
</g>
<!-- Node10&#45;&gt;Node3 -->
<g id="edge13" class="edge">
<title>Node10&#45;&gt;Node3</title>
<path fill="none" stroke="midnightblue" d="M99.01,-56.44C127.05,-47.04 172.14,-31.91 202.53,-21.72"/>
<polygon fill="midnightblue" stroke="midnightblue" points="203.85,-24.97 212.22,-18.47 201.63,-18.33 203.85,-24.97"/>
</g>
<!-- Node11 -->
<g id="node11" class="node">
<title>Node11</title>
<g id="a_node11"><a xlink:title=" ">
<polygon fill="white" stroke="#bfbfbf" points="83,-0.5 83,-19.5 148,-19.5 148,-0.5 83,-0.5"/>
<text text-anchor="middle" x="115.5" y="-7.5" font-family="Helvetica,sans-Serif" font-size="10.00">exception</text>
</a>
</g>
</g>
<!-- Node10&#45;&gt;Node11 -->
<g id="edge11" class="edge">
<title>Node10&#45;&gt;Node11</title>
<path fill="none" stroke="midnightblue" d="M80.44,-56.08C86.43,-48.38 95.25,-37.03 102.55,-27.65"/>
<polygon fill="midnightblue" stroke="midnightblue" points="105.32,-29.79 108.69,-19.75 99.79,-25.5 105.32,-29.79"/>
</g>
<!-- Node12 -->
<g id="node12" class="node">
<title>Node12</title>
<g id="a_node12"><a xlink:title=" ">
<polygon fill="white" stroke="#bfbfbf" points="0,-0.5 0,-19.5 65,-19.5 65,-0.5 0,-0.5"/>
<text text-anchor="middle" x="32.5" y="-7.5" font-family="Helvetica,sans-Serif" font-size="10.00">stdexcept</text>
</a>
</g>
</g>
<!-- Node10&#45;&gt;Node12 -->
<g id="edge12" class="edge">
<title>Node10&#45;&gt;Node12</title>
<path fill="none" stroke="midnightblue" d="M66.73,-56.08C60.94,-48.46 52.44,-37.26 45.36,-27.94"/>
<polygon fill="midnightblue" stroke="midnightblue" points="47.98,-25.6 39.14,-19.75 42.4,-29.83 47.98,-25.6"/>
</g>
<!-- Node14&#45;&gt;Node2 -->
<g id="edge27" class="edge">
<title>Node14&#45;&gt;Node2</title>
<path fill="none" stroke="midnightblue" d="M688.32,-224.37C659.49,-205.49 590.6,-160.38 555.24,-137.24"/>
<polygon fill="midnightblue" stroke="midnightblue" points="556.9,-134.14 546.62,-131.59 553.07,-140 556.9,-134.14"/>
</g>
<!-- Node14&#45;&gt;Node8 -->
<g id="edge16" class="edge">
<title>Node14&#45;&gt;Node8</title>
<path fill="none" stroke="midnightblue" d="M751.26,-229.76C812.4,-222.79 913.74,-200.88 960.5,-132 985.8,-94.73 937.15,-48.93 907.32,-25.83"/>
<polygon fill="midnightblue" stroke="midnightblue" points="909.23,-22.89 899.13,-19.68 905.03,-28.49 909.23,-22.89"/>
</g>
<!-- Node15 -->
<g id="node15" class="node">
<title>Node15</title>
<g id="a_node15"><a xlink:title=" ">
<polygon fill="white" stroke="#bfbfbf" points="855.5,-112.5 855.5,-131.5 887.5,-131.5 887.5,-112.5 855.5,-112.5"/>
<text text-anchor="middle" x="871.5" y="-119.5" font-family="Helvetica,sans-Serif" font-size="10.00">list</text>
</a>
</g>
</g>
<!-- Node14&#45;&gt;Node15 -->
<g id="edge17" class="edge">
<title>Node14&#45;&gt;Node15</title>
<path fill="none" stroke="midnightblue" d="M722.1,-224.44C741.04,-216.2 769.56,-202.83 792.5,-188 815.41,-173.19 839.26,-152.76 854.68,-138.78"/>
<polygon fill="midnightblue" stroke="midnightblue" points="857.33,-141.1 862.32,-131.75 852.59,-135.95 857.33,-141.1"/>
</g>
<!-- Node16 -->
<g id="node16" class="node">
<title>Node16</title>
<g id="a_node16"><a xlink:title=" ">
<polygon fill="white" stroke="#bfbfbf" points="600,-112.5 600,-131.5 665,-131.5 665,-112.5 600,-112.5"/>
<text text-anchor="middle" x="632.5" y="-119.5" font-family="Helvetica,sans-Serif" font-size="10.00">functional</text>
</a>
</g>
</g>
<!-- Node14&#45;&gt;Node16 -->
<g id="edge18" class="edge">
<title>Node14&#45;&gt;Node16</title>
<path fill="none" stroke="midnightblue" d="M696.09,-224.37C684.75,-206.3 658.33,-164.18 643.36,-140.31"/>
<polygon fill="midnightblue" stroke="midnightblue" points="646.17,-138.2 637.89,-131.59 640.24,-141.92 646.17,-138.2"/>
</g>
<!-- Node17 -->
<g id="node17" class="node">
<title>Node17</title>
<g id="a_node17"><a xlink:href="View_8hpp.html" target="_top" xlink:title=" ">
<polygon fill="white" stroke="black" points="695.5,-168.5 695.5,-187.5 783.5,-187.5 783.5,-168.5 695.5,-168.5"/>
<text text-anchor="middle" x="739.5" y="-175.5" font-family="Helvetica,sans-Serif" font-size="10.00">View/View.hpp</text>
</a>
</g>
</g>
<!-- Node14&#45;&gt;Node17 -->
<g id="edge19" class="edge">
<title>Node14&#45;&gt;Node17</title>
<path fill="none" stroke="midnightblue" d="M707.77,-224.08C713.14,-216.46 721.02,-205.26 727.58,-195.94"/>
<polygon fill="midnightblue" stroke="midnightblue" points="730.45,-197.94 733.34,-187.75 724.72,-193.91 730.45,-197.94"/>
</g>
<!-- Node17&#45;&gt;Node2 -->
<g id="edge26" class="edge">
<title>Node17&#45;&gt;Node2</title>
<path fill="none" stroke="midnightblue" d="M706.86,-168.44C671.45,-159.16 614.79,-144.31 575.95,-134.13"/>
<polygon fill="midnightblue" stroke="midnightblue" points="576.55,-130.67 565.99,-131.52 574.77,-137.44 576.55,-130.67"/>
</g>
<!-- Node17&#45;&gt;Node9 -->
<g id="edge22" class="edge">
<title>Node17&#45;&gt;Node9</title>
<path fill="none" stroke="midnightblue" d="M746.04,-168.43C761.49,-147.95 799.43,-96.38 805.5,-76 808.04,-67.48 810.97,-63.01 805.5,-56 788.93,-34.75 716.89,-22 669.41,-15.75"/>
<polygon fill="midnightblue" stroke="midnightblue" points="669.75,-12.27 659.38,-14.48 668.86,-19.21 669.75,-12.27"/>
</g>
<!-- Node17&#45;&gt;Node15 -->
<g id="edge20" class="edge">
<title>Node17&#45;&gt;Node15</title>
<path fill="none" stroke="midnightblue" d="M760.42,-168.44C783.55,-158.98 820.82,-143.73 845.74,-133.54"/>
<polygon fill="midnightblue" stroke="midnightblue" points="847.33,-136.67 855.26,-129.64 844.68,-130.19 847.33,-136.67"/>
</g>
<!-- Node17&#45;&gt;Node16 -->
<g id="edge23" class="edge">
<title>Node17&#45;&gt;Node16</title>
<path fill="none" stroke="midnightblue" d="M722.31,-168.32C705.15,-159.66 678.55,-146.24 658.75,-136.25"/>
<polygon fill="midnightblue" stroke="midnightblue" points="660.15,-133.04 649.65,-131.65 657,-139.28 660.15,-133.04"/>
</g>
<!-- Node18 -->
<g id="node18" class="node">
<title>Node18</title>
<g id="a_node18"><a xlink:title=" ">
<polygon fill="white" stroke="#bfbfbf" points="796,-112.5 796,-131.5 837,-131.5 837,-112.5 796,-112.5"/>
<text text-anchor="middle" x="816.5" y="-119.5" font-family="Helvetica,sans-Serif" font-size="10.00">tuple</text>
</a>
</g>
</g>
<!-- Node17&#45;&gt;Node18 -->
<g id="edge21" class="edge">
<title>Node17&#45;&gt;Node18</title>
<path fill="none" stroke="midnightblue" d="M751.87,-168.32C763.66,-160.06 781.63,-147.45 795.64,-137.63"/>
<polygon fill="midnightblue" stroke="midnightblue" points="797.98,-140.26 804.16,-131.65 793.96,-134.53 797.98,-140.26"/>
</g>
<!-- Node17&#45;&gt;Node19 -->
<g id="edge24" class="edge">
<title>Node17&#45;&gt;Node19</title>
<path fill="none" stroke="midnightblue" d="M769.45,-168.44C803.93,-158.59 860.38,-142.46 895.93,-132.3"/>
<polygon fill="midnightblue" stroke="midnightblue" points="897.16,-135.6 905.81,-129.48 895.23,-128.86 897.16,-135.6"/>
</g>
<!-- Node20 -->
<g id="node20" class="node">
<title>Node20</title>
<g id="a_node20"><a xlink:title=" ">
<polygon fill="white" stroke="#bfbfbf" points="683.5,-112.5 683.5,-131.5 739.5,-131.5 739.5,-112.5 683.5,-112.5"/>
<text text-anchor="middle" x="711.5" y="-119.5" font-family="Helvetica,sans-Serif" font-size="10.00">optional</text>
</a>
</g>
</g>
<!-- Node17&#45;&gt;Node20 -->
<g id="edge25" class="edge">
<title>Node17&#45;&gt;Node20</title>
<path fill="none" stroke="midnightblue" d="M734.88,-168.08C731.04,-160.69 725.48,-149.95 720.74,-140.81"/>
<polygon fill="midnightblue" stroke="midnightblue" points="723.75,-139.02 716.04,-131.75 717.53,-142.24 723.75,-139.02"/>
</g>
</g>
</svg>
