<?xml version="1.0" encoding="UTF-8" standalone="no"?>
<!DOCTYPE svg PUBLIC "-//W3C//DTD SVG 1.1//EN"
 "http://www.w3.org/Graphics/SVG/1.1/DTD/svg11.dtd">
<!-- Generated by graphviz version 2.43.0 (0)
 -->
<!-- Title: sources/System/Event/EventSystem.hpp Pages: 1 -->
<svg width="1059pt" height="431pt"
 viewBox="0.00 0.00 1058.63 431.00" xmlns="http://www.w3.org/2000/svg" xmlns:xlink="http://www.w3.org/1999/xlink">
<g id="graph0" class="graph" transform="scale(1 1) rotate(0) translate(4 427)">
<title>sources/System/Event/EventSystem.hpp</title>
<polygon fill="white" stroke="transparent" points="-4,4 -4,-427 1054.63,-427 1054.63,4 -4,4"/>
<!-- Node1 -->
<g id="node1" class="node">
<title>Node1</title>
<g id="a_node1"><a xlink:title=" ">
<polygon fill="#bfbfbf" stroke="black" points="925.63,-392.5 925.63,-422.5 1050.63,-422.5 1050.63,-392.5 925.63,-392.5"/>
<text text-anchor="start" x="933.63" y="-410.5" font-family="Helvetica,sans-Serif" font-size="10.00">sources/System/Event</text>
<text text-anchor="middle" x="988.13" y="-399.5" font-family="Helvetica,sans-Serif" font-size="10.00">/EventSystem.hpp</text>
</a>
</g>
</g>
<!-- Node2 -->
<g id="node2" class="node">
<title>Node2</title>
<g id="a_node2"><a xlink:href="System_8hpp.html" target="_top" xlink:title=" ">
<polygon fill="white" stroke="black" points="240.13,-336.5 240.13,-355.5 354.13,-355.5 354.13,-336.5 240.13,-336.5"/>
<text text-anchor="middle" x="297.13" y="-343.5" font-family="Helvetica,sans-Serif" font-size="10.00">System/System.hpp</text>
</a>
</g>
</g>
<!-- Node1&#45;&gt;Node2 -->
<g id="edge1" class="edge">
<title>Node1&#45;&gt;Node2</title>
<path fill="none" stroke="midnightblue" d="M925.59,-401.11C795.76,-389.93 497.96,-364.29 364.27,-352.78"/>
<polygon fill="midnightblue" stroke="midnightblue" points="364.42,-349.28 354.16,-351.91 363.82,-356.26 364.42,-349.28"/>
</g>
<!-- Node4 -->
<g id="node4" class="node">
<title>Node4</title>
<g id="a_node4"><a xlink:title=" ">
<polygon fill="white" stroke="#bfbfbf" points="897.63,-0.5 897.63,-19.5 944.63,-19.5 944.63,-0.5 897.63,-0.5"/>
<text text-anchor="middle" x="921.13" y="-7.5" font-family="Helvetica,sans-Serif" font-size="10.00">vector</text>
</a>
</g>
</g>
<!-- Node1&#45;&gt;Node4 -->
<g id="edge51" class="edge">
<title>Node1&#45;&gt;Node4</title>
<path fill="none" stroke="midnightblue" d="M996.01,-392.41C1007.14,-371.13 1026.13,-329.21 1026.13,-291 1026.13,-291 1026.13,-291 1026.13,-121 1026.13,-76.02 979.63,-42.19 948.52,-24.59"/>
<polygon fill="midnightblue" stroke="midnightblue" points="949.88,-21.35 939.42,-19.65 946.54,-27.5 949.88,-21.35"/>
</g>
<!-- Node22 -->
<g id="node22" class="node">
<title>Node22</title>
<g id="a_node22"><a xlink:title=" ">
<polygon fill="white" stroke="#bfbfbf" points="729.63,-112.5 729.63,-131.5 794.63,-131.5 794.63,-112.5 729.63,-112.5"/>
<text text-anchor="middle" x="762.13" y="-119.5" font-family="Helvetica,sans-Serif" font-size="10.00">functional</text>
</a>
</g>
</g>
<!-- Node1&#45;&gt;Node22 -->
<g id="edge52" class="edge">
<title>Node1&#45;&gt;Node22</title>
<path fill="none" stroke="midnightblue" d="M976.93,-392.44C939.12,-345.01 816.35,-191.01 775.49,-139.76"/>
<polygon fill="midnightblue" stroke="midnightblue" points="778.03,-137.32 769.06,-131.68 772.55,-141.69 778.03,-137.32"/>
</g>
<!-- Node3 -->
<g id="node3" class="node">
<title>Node3</title>
<g id="a_node3"><a xlink:title=" ">
<polygon fill="white" stroke="#bfbfbf" points="118.13,-168.5 118.13,-187.5 168.13,-187.5 168.13,-168.5 118.13,-168.5"/>
<text text-anchor="middle" x="143.13" y="-175.5" font-family="Helvetica,sans-Serif" font-size="10.00">chrono</text>
</a>
</g>
</g>
<!-- Node2&#45;&gt;Node3 -->
<g id="edge2" class="edge">
<title>Node2&#45;&gt;Node3</title>
<path fill="none" stroke="midnightblue" d="M278.65,-336.36C249.23,-321.64 191.9,-288.87 161.13,-244 151.72,-230.27 147.21,-211.74 145.06,-197.98"/>
<polygon fill="midnightblue" stroke="midnightblue" points="148.49,-197.22 143.76,-187.75 141.55,-198.11 148.49,-197.22"/>
</g>
<!-- Node2&#45;&gt;Node4 -->
<g id="edge3" class="edge">
<title>Node2&#45;&gt;Node4</title>
<path fill="none" stroke="midnightblue" d="M354.42,-342.94C448.93,-337.46 641.29,-317.41 784.13,-244 870.58,-199.57 902.48,-170.75 924.13,-76 927.64,-60.67 926.44,-42.79 924.62,-29.67"/>
<polygon fill="midnightblue" stroke="midnightblue" points="928.04,-28.85 922.97,-19.54 921.13,-29.98 928.04,-28.85"/>
</g>
<!-- Node5 -->
<g id="node5" class="node">
<title>Node5</title>
<g id="a_node5"><a xlink:title=" ">
<polygon fill="white" stroke="#bfbfbf" points="28.63,-56.5 28.63,-75.5 85.63,-75.5 85.63,-56.5 28.63,-56.5"/>
<text text-anchor="middle" x="57.13" y="-63.5" font-family="Helvetica,sans-Serif" font-size="10.00">typeinfo</text>
</a>
</g>
</g>
<!-- Node2&#45;&gt;Node5 -->
<g id="edge4" class="edge">
<title>Node2&#45;&gt;Node5</title>
<path fill="none" stroke="midnightblue" d="M240.01,-340.56C180.31,-334.78 91.93,-322.63 67.13,-300 44.9,-279.71 48.13,-265.1 48.13,-235 48.13,-235 48.13,-235 48.13,-177 48.13,-144.84 52,-107.57 54.67,-85.71"/>
<polygon fill="midnightblue" stroke="midnightblue" points="58.17,-85.9 55.96,-75.54 51.23,-85.02 58.17,-85.9"/>
</g>
<!-- Node6 -->
<g id="node6" class="node">
<title>Node6</title>
<g id="a_node6"><a xlink:title=" ">
<polygon fill="white" stroke="#bfbfbf" points="81.63,-0.5 81.63,-19.5 146.63,-19.5 146.63,-0.5 81.63,-0.5"/>
<text text-anchor="middle" x="114.13" y="-7.5" font-family="Helvetica,sans-Serif" font-size="10.00">typeindex</text>
</a>
</g>
</g>
<!-- Node2&#45;&gt;Node6 -->
<g id="edge5" class="edge">
<title>Node2&#45;&gt;Node6</title>
<path fill="none" stroke="midnightblue" d="M239.9,-339.48C176.88,-332.56 80.34,-319.22 49.13,-300 18.33,-281.02 0.13,-271.18 0.13,-235 0.13,-235 0.13,-235 0.13,-121 0.13,-90.9 -0.4,-78.9 19.13,-56 32.75,-40.04 53.3,-29.34 71.8,-22.39"/>
<polygon fill="midnightblue" stroke="midnightblue" points="72.96,-25.7 81.24,-19.1 70.65,-19.09 72.96,-25.7"/>
</g>
<!-- Node7 -->
<g id="node7" class="node">
<title>Node7</title>
<g id="a_node7"><a xlink:href="Entity_8hpp.html" target="_top" xlink:title=" ">
<polygon fill="white" stroke="black" points="344.13,-112.5 344.13,-131.5 440.13,-131.5 440.13,-112.5 344.13,-112.5"/>
<text text-anchor="middle" x="392.13" y="-119.5" font-family="Helvetica,sans-Serif" font-size="10.00">Entity/Entity.hpp</text>
</a>
</g>
</g>
<!-- Node2&#45;&gt;Node7 -->
<g id="edge6" class="edge">
<title>Node2&#45;&gt;Node7</title>
<path fill="none" stroke="midnightblue" d="M301.38,-336.39C305.84,-327.34 313.03,-312.7 319.13,-300 343.01,-250.37 352.21,-239.34 372.13,-188 378.14,-172.52 383.58,-154.43 387.27,-141.28"/>
<polygon fill="midnightblue" stroke="midnightblue" points="390.67,-142.12 389.93,-131.55 383.92,-140.27 390.67,-142.12"/>
</g>
<!-- Node16 -->
<g id="node16" class="node">
<title>Node16</title>
<g id="a_node16"><a xlink:href="Wal_8hpp.html" target="_top" xlink:title=" ">
<polygon fill="white" stroke="black" points="539.13,-280.5 539.13,-299.5 595.13,-299.5 595.13,-280.5 539.13,-280.5"/>
<text text-anchor="middle" x="567.13" y="-287.5" font-family="Helvetica,sans-Serif" font-size="10.00">Wal.hpp</text>
</a>
</g>
</g>
<!-- Node2&#45;&gt;Node16 -->
<g id="edge20" class="edge">
<title>Node2&#45;&gt;Node16</title>
<path fill="none" stroke="midnightblue" d="M339.92,-336.44C391.97,-326.03 479.08,-308.61 528.96,-298.63"/>
<polygon fill="midnightblue" stroke="midnightblue" points="529.89,-302.02 539.01,-296.62 528.52,-295.15 529.89,-302.02"/>
</g>
<!-- Node18 -->
<g id="node18" class="node">
<title>Node18</title>
<g id="a_node18"><a xlink:href="ISystem_8hpp.html" target="_top" xlink:title=" ">
<polygon fill="white" stroke="black" points="170.63,-224.5 170.63,-243.5 287.63,-243.5 287.63,-224.5 170.63,-224.5"/>
<text text-anchor="middle" x="229.13" y="-231.5" font-family="Helvetica,sans-Serif" font-size="10.00">System/ISystem.hpp</text>
</a>
</g>
</g>
<!-- Node2&#45;&gt;Node18 -->
<g id="edge49" class="edge">
<title>Node2&#45;&gt;Node18</title>
<path fill="none" stroke="midnightblue" d="M291.8,-336.37C280.63,-318.3 254.59,-276.18 239.83,-252.31"/>
<polygon fill="midnightblue" stroke="midnightblue" points="242.68,-250.26 234.45,-243.59 236.73,-253.94 242.68,-250.26"/>
</g>
<!-- Node19 -->
<g id="node19" class="node">
<title>Node19</title>
<g id="a_node19"><a xlink:href="View_8hpp.html" target="_top" xlink:title=" ">
<polygon fill="white" stroke="black" points="275.13,-168.5 275.13,-187.5 363.13,-187.5 363.13,-168.5 275.13,-168.5"/>
<text text-anchor="middle" x="319.13" y="-175.5" font-family="Helvetica,sans-Serif" font-size="10.00">View/View.hpp</text>
</a>
</g>
</g>
<!-- Node2&#45;&gt;Node19 -->
<g id="edge48" class="edge">
<title>Node2&#45;&gt;Node19</title>
<path fill="none" stroke="midnightblue" d="M298.32,-336.08C301.78,-309.95 311.95,-233.21 316.67,-197.58"/>
<polygon fill="midnightblue" stroke="midnightblue" points="320.15,-197.94 318,-187.57 313.22,-197.02 320.15,-197.94"/>
</g>
<!-- Node26 -->
<g id="node26" class="node">
<title>Node26</title>
<g id="a_node26"><a xlink:title=" ">
<polygon fill="white" stroke="#bfbfbf" points="76.13,-280.5 76.13,-299.5 136.13,-299.5 136.13,-280.5 76.13,-280.5"/>
<text text-anchor="middle" x="106.13" y="-287.5" font-family="Helvetica,sans-Serif" font-size="10.00">iostream</text>
</a>
</g>
</g>
<!-- Node2&#45;&gt;Node26 -->
<g id="edge50" class="edge">
<title>Node2&#45;&gt;Node26</title>
<path fill="none" stroke="midnightblue" d="M266.87,-336.44C234.18,-327.2 181.95,-312.44 145.95,-302.26"/>
<polygon fill="midnightblue" stroke="midnightblue" points="146.83,-298.87 136.26,-299.52 144.93,-305.61 146.83,-298.87"/>
</g>
<!-- Node7&#45;&gt;Node5 -->
<g id="edge9" class="edge">
<title>Node7&#45;&gt;Node5</title>
<path fill="none" stroke="midnightblue" d="M343.78,-113.21C276.81,-102.41 157.14,-83.12 95.77,-73.23"/>
<polygon fill="midnightblue" stroke="midnightblue" points="96.15,-69.74 85.72,-71.61 95.04,-76.66 96.15,-69.74"/>
</g>
<!-- Node8 -->
<g id="node8" class="node">
<title>Node8</title>
<g id="a_node8"><a xlink:title=" ">
<polygon fill="white" stroke="#bfbfbf" points="473.13,-0.5 473.13,-19.5 517.13,-19.5 517.13,-0.5 473.13,-0.5"/>
<text text-anchor="middle" x="495.13" y="-7.5" font-family="Helvetica,sans-Serif" font-size="10.00">string</text>
</a>
</g>
</g>
<!-- Node7&#45;&gt;Node8 -->
<g id="edge7" class="edge">
<title>Node7&#45;&gt;Node8</title>
<path fill="none" stroke="midnightblue" d="M368.89,-112.44C341.26,-100.97 301.03,-79.32 319.13,-56 336.63,-33.47 417.29,-20.31 463.1,-14.53"/>
<polygon fill="midnightblue" stroke="midnightblue" points="463.62,-17.99 473.13,-13.31 462.78,-11.04 463.62,-17.99"/>
</g>
<!-- Node9 -->
<g id="node9" class="node">
<title>Node9</title>
<g id="a_node9"><a xlink:title=" ">
<polygon fill="white" stroke="#bfbfbf" points="614.63,-56.5 614.63,-75.5 707.63,-75.5 707.63,-56.5 614.63,-56.5"/>
<text text-anchor="middle" x="661.13" y="-63.5" font-family="Helvetica,sans-Serif" font-size="10.00">unordered_map</text>
</a>
</g>
</g>
<!-- Node7&#45;&gt;Node9 -->
<g id="edge8" class="edge">
<title>Node7&#45;&gt;Node9</title>
<path fill="none" stroke="midnightblue" d="M434.76,-112.44C481.88,-102.98 557.83,-87.74 608.59,-77.55"/>
<polygon fill="midnightblue" stroke="midnightblue" points="609.59,-80.92 618.71,-75.52 608.22,-74.05 609.59,-80.92"/>
</g>
<!-- Node10 -->
<g id="node10" class="node">
<title>Node10</title>
<g id="a_node10"><a xlink:title=" ">
<polygon fill="white" stroke="#bfbfbf" points="500.13,-56.5 500.13,-75.5 558.13,-75.5 558.13,-56.5 500.13,-56.5"/>
<text text-anchor="middle" x="529.13" y="-63.5" font-family="Helvetica,sans-Serif" font-size="10.00">memory</text>
</a>
</g>
</g>
<!-- Node7&#45;&gt;Node10 -->
<g id="edge10" class="edge">
<title>Node7&#45;&gt;Node10</title>
<path fill="none" stroke="midnightblue" d="M413.84,-112.44C436.49,-103.52 472.21,-89.44 497.89,-79.32"/>
<polygon fill="midnightblue" stroke="midnightblue" points="499.51,-82.44 507.53,-75.52 496.94,-75.93 499.51,-82.44"/>
</g>
<!-- Node11 -->
<g id="node11" class="node">
<title>Node11</title>
<g id="a_node11"><a xlink:href="Component_8hpp.html" target="_top" xlink:title=" ">
<polygon fill="white" stroke="black" points="328.63,-56.5 328.63,-75.5 481.63,-75.5 481.63,-56.5 328.63,-56.5"/>
<text text-anchor="middle" x="405.13" y="-63.5" font-family="Helvetica,sans-Serif" font-size="10.00">Component/Component.hpp</text>
</a>
</g>
</g>
<!-- Node7&#45;&gt;Node11 -->
<g id="edge11" class="edge">
<title>Node7&#45;&gt;Node11</title>
<path fill="none" stroke="midnightblue" d="M394.28,-112.08C396,-104.93 398.48,-94.64 400.63,-85.69"/>
<polygon fill="midnightblue" stroke="midnightblue" points="404.09,-86.29 403.03,-75.75 397.28,-84.65 404.09,-86.29"/>
</g>
<!-- Node12 -->
<g id="node12" class="node">
<title>Node12</title>
<g id="a_node12"><a xlink:href="WalError_8hpp.html" target="_top" xlink:title=" ">
<polygon fill="white" stroke="black" points="725.63,-56.5 725.63,-75.5 854.63,-75.5 854.63,-56.5 725.63,-56.5"/>
<text text-anchor="middle" x="790.13" y="-63.5" font-family="Helvetica,sans-Serif" font-size="10.00">Exception/WalError.hpp</text>
</a>
</g>
</g>
<!-- Node7&#45;&gt;Node12 -->
<g id="edge15" class="edge">
<title>Node7&#45;&gt;Node12</title>
<path fill="none" stroke="midnightblue" d="M440.32,-113.3C443.3,-112.85 446.26,-112.42 449.13,-112 540.67,-98.74 646.26,-85.05 715.4,-76.31"/>
<polygon fill="midnightblue" stroke="midnightblue" points="715.85,-79.78 725.33,-75.05 714.97,-72.83 715.85,-79.78"/>
</g>
<!-- Node15 -->
<g id="node15" class="node">
<title>Node15</title>
<g id="a_node15"><a xlink:href="TypeHolder_8hpp.html" target="_top" xlink:title=" ">
<polygon fill="white" stroke="black" points="142.13,-56.5 142.13,-75.5 272.13,-75.5 272.13,-56.5 142.13,-56.5"/>
<text text-anchor="middle" x="207.13" y="-63.5" font-family="Helvetica,sans-Serif" font-size="10.00">Models/TypeHolder.hpp</text>
</a>
</g>
</g>
<!-- Node7&#45;&gt;Node15 -->
<g id="edge19" class="edge">
<title>Node7&#45;&gt;Node15</title>
<path fill="none" stroke="midnightblue" d="M362.82,-112.44C331.29,-103.24 281,-88.56 246.15,-78.39"/>
<polygon fill="midnightblue" stroke="midnightblue" points="246.89,-74.96 236.31,-75.52 244.93,-81.68 246.89,-74.96"/>
</g>
<!-- Node11&#45;&gt;Node4 -->
<g id="edge12" class="edge">
<title>Node11&#45;&gt;Node4</title>
<path fill="none" stroke="midnightblue" d="M482.03,-56.93C485.1,-56.61 488.15,-56.3 491.13,-56 655.08,-39.42 696.58,-40.03 860.13,-20 868.99,-18.91 878.55,-17.58 887.42,-16.28"/>
<polygon fill="midnightblue" stroke="midnightblue" points="888.05,-19.72 897.42,-14.78 887.01,-12.8 888.05,-19.72"/>
</g>
<!-- Node11&#45;&gt;Node6 -->
<g id="edge14" class="edge">
<title>Node11&#45;&gt;Node6</title>
<path fill="none" stroke="midnightblue" d="M359.02,-56.44C303.47,-46.13 210.88,-28.95 156.87,-18.93"/>
<polygon fill="midnightblue" stroke="midnightblue" points="157.4,-15.47 146.93,-17.09 156.13,-22.35 157.4,-15.47"/>
</g>
<!-- Node11&#45;&gt;Node8 -->
<g id="edge13" class="edge">
<title>Node11&#45;&gt;Node8</title>
<path fill="none" stroke="midnightblue" d="M419.59,-56.32C433.63,-47.9 455.18,-34.97 471.68,-25.07"/>
<polygon fill="midnightblue" stroke="midnightblue" points="473.94,-27.8 480.71,-19.65 470.33,-21.8 473.94,-27.8"/>
</g>
<!-- Node12&#45;&gt;Node8 -->
<g id="edge18" class="edge">
<title>Node12&#45;&gt;Node8</title>
<path fill="none" stroke="midnightblue" d="M743.39,-56.44C683.05,-45.4 579.61,-26.46 527.36,-16.9"/>
<polygon fill="midnightblue" stroke="midnightblue" points="527.79,-13.42 517.32,-15.06 526.53,-20.3 527.79,-13.42"/>
</g>
<!-- Node13 -->
<g id="node13" class="node">
<title>Node13</title>
<g id="a_node13"><a xlink:title=" ">
<polygon fill="white" stroke="#bfbfbf" points="785.63,-0.5 785.63,-19.5 850.63,-19.5 850.63,-0.5 785.63,-0.5"/>
<text text-anchor="middle" x="818.13" y="-7.5" font-family="Helvetica,sans-Serif" font-size="10.00">exception</text>
</a>
</g>
</g>
<!-- Node12&#45;&gt;Node13 -->
<g id="edge16" class="edge">
<title>Node12&#45;&gt;Node13</title>
<path fill="none" stroke="midnightblue" d="M794.76,-56.08C798.59,-48.69 804.16,-37.95 808.9,-28.81"/>
<polygon fill="midnightblue" stroke="midnightblue" points="812.1,-30.24 813.6,-19.75 805.89,-27.02 812.1,-30.24"/>
</g>
<!-- Node14 -->
<g id="node14" class="node">
<title>Node14</title>
<g id="a_node14"><a xlink:title=" ">
<polygon fill="white" stroke="#bfbfbf" points="702.63,-0.5 702.63,-19.5 767.63,-19.5 767.63,-0.5 702.63,-0.5"/>
<text text-anchor="middle" x="735.13" y="-7.5" font-family="Helvetica,sans-Serif" font-size="10.00">stdexcept</text>
</a>
</g>
</g>
<!-- Node12&#45;&gt;Node14 -->
<g id="edge17" class="edge">
<title>Node12&#45;&gt;Node14</title>
<path fill="none" stroke="midnightblue" d="M781.05,-56.08C772.96,-48.14 760.94,-36.34 751.22,-26.8"/>
<polygon fill="midnightblue" stroke="midnightblue" points="753.64,-24.26 744.05,-19.75 748.73,-29.25 753.64,-24.26"/>
</g>
<!-- Node16&#45;&gt;Node4 -->
<g id="edge22" class="edge">
<title>Node16&#45;&gt;Node4</title>
<path fill="none" stroke="midnightblue" d="M595.38,-286.78C633.47,-282.81 702.49,-272.06 754.13,-244 842.87,-195.78 862.74,-166.71 907.13,-76 914.27,-61.42 917.79,-43.24 919.52,-29.82"/>
<polygon fill="midnightblue" stroke="midnightblue" points="923,-30.17 920.58,-19.85 916.04,-29.42 923,-30.17"/>
</g>
<!-- Node16&#45;&gt;Node5 -->
<g id="edge25" class="edge">
<title>Node16&#45;&gt;Node5</title>
<path fill="none" stroke="midnightblue" d="M538.91,-281.57C507.68,-273.17 455.96,-258.74 412.13,-244 297.12,-205.32 268.2,-192.72 163.13,-132 133.83,-115.06 100.66,-94.49 79.35,-81.09"/>
<polygon fill="midnightblue" stroke="midnightblue" points="81.04,-78.02 70.72,-75.64 77.31,-83.94 81.04,-78.02"/>
</g>
<!-- Node16&#45;&gt;Node8 -->
<g id="edge23" class="edge">
<title>Node16&#45;&gt;Node8</title>
<path fill="none" stroke="midnightblue" d="M569.7,-280.25C574.88,-261.74 586.13,-217.18 586.13,-179 586.13,-179 586.13,-179 586.13,-121 586.13,-90.9 585.31,-79.99 567.13,-56 556.62,-42.12 540.48,-31.47 526.14,-24.02"/>
<polygon fill="midnightblue" stroke="midnightblue" points="527.58,-20.83 517.06,-19.59 524.51,-27.12 527.58,-20.83"/>
</g>
<!-- Node16&#45;&gt;Node10 -->
<g id="edge24" class="edge">
<title>Node16&#45;&gt;Node10</title>
<path fill="none" stroke="midnightblue" d="M565.64,-280.3C560.05,-247.63 540.24,-131.87 532.38,-85.96"/>
<polygon fill="midnightblue" stroke="midnightblue" points="535.79,-85.15 530.65,-75.88 528.89,-86.33 535.79,-85.15"/>
</g>
<!-- Node16&#45;&gt;Node12 -->
<g id="edge26" class="edge">
<title>Node16&#45;&gt;Node12</title>
<path fill="none" stroke="midnightblue" d="M595.16,-285.25C644.19,-277.1 745.06,-252.98 795.13,-188 818.04,-158.27 806.57,-111.17 797.53,-85.38"/>
<polygon fill="midnightblue" stroke="midnightblue" points="800.7,-83.87 793.91,-75.74 794.15,-86.34 800.7,-83.87"/>
</g>
<!-- Node17 -->
<g id="node17" class="node">
<title>Node17</title>
<g id="a_node17"><a xlink:title=" ">
<polygon fill="white" stroke="#bfbfbf" points="614.63,-112.5 614.63,-131.5 659.63,-131.5 659.63,-112.5 614.63,-112.5"/>
<text text-anchor="middle" x="637.13" y="-119.5" font-family="Helvetica,sans-Serif" font-size="10.00">utility</text>
</a>
</g>
</g>
<!-- Node16&#45;&gt;Node17 -->
<g id="edge21" class="edge">
<title>Node16&#45;&gt;Node17</title>
<path fill="none" stroke="midnightblue" d="M574.92,-280.28C582.31,-271.62 593.27,-257.68 600.13,-244 617.3,-209.76 628.25,-166.02 633.49,-141.61"/>
<polygon fill="midnightblue" stroke="midnightblue" points="636.96,-142.09 635.54,-131.59 630.1,-140.68 636.96,-142.09"/>
</g>
<!-- Node16&#45;&gt;Node18 -->
<g id="edge27" class="edge">
<title>Node16&#45;&gt;Node18</title>
<path fill="none" stroke="midnightblue" d="M538.9,-284.49C485.03,-275.88 366.38,-256.93 292.56,-245.13"/>
<polygon fill="midnightblue" stroke="midnightblue" points="292.88,-241.64 282.46,-243.52 291.78,-248.55 292.88,-241.64"/>
</g>
<!-- Node24 -->
<g id="node24" class="node">
<title>Node24</title>
<g id="a_node24"><a xlink:href="Callback_8hpp.html" target="_top" xlink:title=" ">
<polygon fill="white" stroke="black" points="652.13,-168.5 652.13,-187.5 770.13,-187.5 770.13,-168.5 652.13,-168.5"/>
<text text-anchor="middle" x="711.13" y="-175.5" font-family="Helvetica,sans-Serif" font-size="10.00">Models/Callback.hpp</text>
</a>
</g>
</g>
<!-- Node16&#45;&gt;Node24 -->
<g id="edge38" class="edge">
<title>Node16&#45;&gt;Node24</title>
<path fill="none" stroke="midnightblue" d="M582.29,-280.37C596.99,-271.77 619.73,-257.88 638.13,-244 658.52,-228.62 680.16,-208.87 694.54,-195.19"/>
<polygon fill="midnightblue" stroke="midnightblue" points="697.32,-197.38 702.1,-187.92 692.47,-192.33 697.32,-197.38"/>
</g>
<!-- Node25 -->
<g id="node25" class="node">
<title>Node25</title>
<g id="a_node25"><a xlink:href="Scene_8hpp.html" target="_top" xlink:title=" ">
<polygon fill="white" stroke="black" points="420.63,-224.5 420.63,-243.5 519.63,-243.5 519.63,-224.5 420.63,-224.5"/>
<text text-anchor="middle" x="470.13" y="-231.5" font-family="Helvetica,sans-Serif" font-size="10.00">Scene/Scene.hpp</text>
</a>
</g>
</g>
<!-- Node16&#45;&gt;Node25 -->
<g id="edge42" class="edge">
<title>Node16&#45;&gt;Node25</title>
<path fill="none" stroke="midnightblue" d="M551.55,-280.32C536.14,-271.74 512.32,-258.49 494.42,-248.52"/>
<polygon fill="midnightblue" stroke="midnightblue" points="496.12,-245.46 485.68,-243.65 492.72,-251.58 496.12,-245.46"/>
</g>
<!-- Node18&#45;&gt;Node3 -->
<g id="edge37" class="edge">
<title>Node18&#45;&gt;Node3</title>
<path fill="none" stroke="midnightblue" d="M215.32,-224.32C201.9,-215.9 181.31,-202.97 165.55,-193.07"/>
<polygon fill="midnightblue" stroke="midnightblue" points="167.25,-190.01 156.92,-187.65 163.52,-195.94 167.25,-190.01"/>
</g>
<!-- Node18&#45;&gt;Node7 -->
<g id="edge28" class="edge">
<title>Node18&#45;&gt;Node7</title>
<path fill="none" stroke="midnightblue" d="M231.92,-224.11C236.73,-210.22 247.83,-183.36 266.13,-168 285.67,-151.6 311.63,-140.99 334.91,-134.22"/>
<polygon fill="midnightblue" stroke="midnightblue" points="335.97,-137.56 344.7,-131.55 334.13,-130.81 335.97,-137.56"/>
</g>
<!-- Node18&#45;&gt;Node19 -->
<g id="edge29" class="edge">
<title>Node18&#45;&gt;Node19</title>
<path fill="none" stroke="midnightblue" d="M243.59,-224.32C257.63,-215.9 279.18,-202.97 295.68,-193.07"/>
<polygon fill="midnightblue" stroke="midnightblue" points="297.94,-195.8 304.71,-187.65 294.33,-189.8 297.94,-195.8"/>
</g>
<!-- Node19&#45;&gt;Node6 -->
<g id="edge32" class="edge">
<title>Node19&#45;&gt;Node6</title>
<path fill="none" stroke="midnightblue" d="M318.8,-168.39C317.78,-154.4 313.64,-126.78 297.13,-112 241.54,-62.22 187.67,-126.93 133.13,-76 120.52,-64.22 116.13,-44.59 114.67,-29.97"/>
<polygon fill="midnightblue" stroke="midnightblue" points="118.14,-29.34 114.03,-19.57 111.15,-29.77 118.14,-29.34"/>
</g>
<!-- Node19&#45;&gt;Node7 -->
<g id="edge36" class="edge">
<title>Node19&#45;&gt;Node7</title>
<path fill="none" stroke="midnightblue" d="M330.86,-168.32C341.97,-160.11 358.88,-147.6 372.12,-137.81"/>
<polygon fill="midnightblue" stroke="midnightblue" points="374.23,-140.59 380.19,-131.83 370.07,-134.97 374.23,-140.59"/>
</g>
<!-- Node19&#45;&gt;Node17 -->
<g id="edge34" class="edge">
<title>Node19&#45;&gt;Node17</title>
<path fill="none" stroke="midnightblue" d="M363.35,-169.49C428.1,-158.5 547.22,-138.27 604.58,-128.53"/>
<polygon fill="midnightblue" stroke="midnightblue" points="605.27,-131.96 614.54,-126.84 604.1,-125.06 605.27,-131.96"/>
</g>
<!-- Node20 -->
<g id="node20" class="node">
<title>Node20</title>
<g id="a_node20"><a xlink:title=" ">
<polygon fill="white" stroke="#bfbfbf" points="458.13,-112.5 458.13,-131.5 490.13,-131.5 490.13,-112.5 458.13,-112.5"/>
<text text-anchor="middle" x="474.13" y="-119.5" font-family="Helvetica,sans-Serif" font-size="10.00">list</text>
</a>
</g>
</g>
<!-- Node19&#45;&gt;Node20 -->
<g id="edge30" class="edge">
<title>Node19&#45;&gt;Node20</title>
<path fill="none" stroke="midnightblue" d="M344.09,-168.46C368.44,-160.11 406.77,-146.91 448.49,-132.2"/>
<polygon fill="midnightblue" stroke="midnightblue" points="449.74,-135.47 458.01,-128.84 447.41,-128.87 449.74,-135.47"/>
</g>
<!-- Node21 -->
<g id="node21" class="node">
<title>Node21</title>
<g id="a_node21"><a xlink:title=" ">
<polygon fill="white" stroke="#bfbfbf" points="172.63,-112.5 172.63,-131.5 213.63,-131.5 213.63,-112.5 172.63,-112.5"/>
<text text-anchor="middle" x="193.13" y="-119.5" font-family="Helvetica,sans-Serif" font-size="10.00">tuple</text>
</a>
</g>
</g>
<!-- Node19&#45;&gt;Node21 -->
<g id="edge31" class="edge">
<title>Node19&#45;&gt;Node21</title>
<path fill="none" stroke="midnightblue" d="M299.17,-168.44C278.53,-159.6 246.07,-145.69 222.5,-135.59"/>
<polygon fill="midnightblue" stroke="midnightblue" points="223.58,-132.24 213.01,-131.52 220.82,-138.67 223.58,-132.24"/>
</g>
<!-- Node19&#45;&gt;Node22 -->
<g id="edge33" class="edge">
<title>Node19&#45;&gt;Node22</title>
<path fill="none" stroke="midnightblue" d="M363.23,-171.62C448.53,-161.23 635.11,-138.48 719.35,-128.21"/>
<polygon fill="midnightblue" stroke="midnightblue" points="719.84,-131.68 729.35,-127 719,-124.73 719.84,-131.68"/>
</g>
<!-- Node23 -->
<g id="node23" class="node">
<title>Node23</title>
<g id="a_node23"><a xlink:title=" ">
<polygon fill="white" stroke="#bfbfbf" points="232.13,-112.5 232.13,-131.5 288.13,-131.5 288.13,-112.5 232.13,-112.5"/>
<text text-anchor="middle" x="260.13" y="-119.5" font-family="Helvetica,sans-Serif" font-size="10.00">optional</text>
</a>
</g>
</g>
<!-- Node19&#45;&gt;Node23 -->
<g id="edge35" class="edge">
<title>Node19&#45;&gt;Node23</title>
<path fill="none" stroke="midnightblue" d="M309.65,-168.32C300.93,-160.34 287.79,-148.31 277.24,-138.65"/>
<polygon fill="midnightblue" stroke="midnightblue" points="279.53,-136 269.79,-131.83 274.8,-141.17 279.53,-136"/>
</g>
<!-- Node24&#45;&gt;Node9 -->
<g id="edge41" class="edge">
<title>Node24&#45;&gt;Node9</title>
<path fill="none" stroke="midnightblue" d="M707.21,-168.37C699.07,-150.46 680.19,-108.92 669.29,-84.95"/>
<polygon fill="midnightblue" stroke="midnightblue" points="672.36,-83.25 665.04,-75.59 665.99,-86.14 672.36,-83.25"/>
</g>
<!-- Node24&#45;&gt;Node17 -->
<g id="edge40" class="edge">
<title>Node24&#45;&gt;Node17</title>
<path fill="none" stroke="midnightblue" d="M699.24,-168.32C687.98,-160.11 670.85,-147.6 657.43,-137.81"/>
<polygon fill="midnightblue" stroke="midnightblue" points="659.38,-134.9 649.24,-131.83 655.25,-140.56 659.38,-134.9"/>
</g>
<!-- Node24&#45;&gt;Node22 -->
<g id="edge39" class="edge">
<title>Node24&#45;&gt;Node22</title>
<path fill="none" stroke="midnightblue" d="M719.56,-168.08C726.98,-160.22 737.99,-148.57 746.95,-139.08"/>
<polygon fill="midnightblue" stroke="midnightblue" points="749.55,-141.42 753.87,-131.75 744.46,-136.62 749.55,-141.42"/>
</g>
<!-- Node25&#45;&gt;Node4 -->
<g id="edge43" class="edge">
<title>Node25&#45;&gt;Node4</title>
<path fill="none" stroke="midnightblue" d="M519.9,-230.89C599.2,-226.74 749.89,-215.42 795.13,-188 858.55,-149.56 898.87,-65.78 914.17,-28.96"/>
<polygon fill="midnightblue" stroke="midnightblue" points="917.49,-30.1 917.97,-19.52 910.99,-27.49 917.49,-30.1"/>
</g>
<!-- Node25&#45;&gt;Node7 -->
<g id="edge47" class="edge">
<title>Node25&#45;&gt;Node7</title>
<path fill="none" stroke="midnightblue" d="M464.01,-224.37C451.14,-206.22 421.07,-163.8 404.18,-139.99"/>
<polygon fill="midnightblue" stroke="midnightblue" points="406.87,-137.72 398.23,-131.59 401.16,-141.77 406.87,-137.72"/>
</g>
<!-- Node25&#45;&gt;Node19 -->
<g id="edge46" class="edge">
<title>Node25&#45;&gt;Node19</title>
<path fill="none" stroke="midnightblue" d="M446.21,-224.44C420.92,-215.4 380.83,-201.06 352.45,-190.92"/>
<polygon fill="midnightblue" stroke="midnightblue" points="353.54,-187.59 342.95,-187.52 351.19,-194.18 353.54,-187.59"/>
</g>
<!-- Node25&#45;&gt;Node20 -->
<g id="edge44" class="edge">
<title>Node25&#45;&gt;Node20</title>
<path fill="none" stroke="midnightblue" d="M470.45,-224.37C471.09,-206.62 472.58,-165.67 473.46,-141.6"/>
<polygon fill="midnightblue" stroke="midnightblue" points="476.96,-141.71 473.82,-131.59 469.96,-141.46 476.96,-141.71"/>
</g>
<!-- Node25&#45;&gt;Node22 -->
<g id="edge45" class="edge">
<title>Node25&#45;&gt;Node22</title>
<path fill="none" stroke="midnightblue" d="M519.73,-233.3C598.38,-232.59 746.2,-226.08 779.13,-188 790.65,-174.68 782.68,-154.47 774.19,-140.13"/>
<polygon fill="midnightblue" stroke="midnightblue" points="777.11,-138.19 768.74,-131.68 771.22,-141.98 777.11,-138.19"/>
</g>
</g>
</svg>
