<?xml version="1.0" encoding="UTF-8" standalone="no"?>
<!DOCTYPE svg PUBLIC "-//W3C//DTD SVG 1.1//EN"
 "http://www.w3.org/Graphics/SVG/1.1/DTD/svg11.dtd">
<!-- Generated by graphviz version 2.43.0 (0)
 -->
<!-- Title: lib/Ray/sources/Font.cpp Pages: 1 -->
<svg width="854pt" height="252pt"
 viewBox="0.00 0.00 853.50 252.00" xmlns="http://www.w3.org/2000/svg" xmlns:xlink="http://www.w3.org/1999/xlink">
<g id="graph0" class="graph" transform="scale(1 1) rotate(0) translate(4 248)">
<title>lib/Ray/sources/Font.cpp</title>
<polygon fill="white" stroke="transparent" points="-4,4 -4,-248 849.5,-248 849.5,4 -4,4"/>
<!-- Node1 -->
<g id="node1" class="node">
<title>Node1</title>
<g id="a_node1"><a xlink:title=" ">
<polygon fill="#bfbfbf" stroke="black" points="0,-224.5 0,-243.5 135,-243.5 135,-224.5 0,-224.5"/>
<text text-anchor="middle" x="67.5" y="-231.5" font-family="Helvetica,sans-Serif" font-size="10.00">lib/Ray/sources/Font.cpp</text>
</a>
</g>
</g>
<!-- Node2 -->
<g id="node2" class="node">
<title>Node2</title>
<g id="a_node2"><a xlink:href="Font_8hpp.html" target="_top" xlink:title=" ">
<polygon fill="white" stroke="black" points="38,-168.5 38,-187.5 97,-187.5 97,-168.5 38,-168.5"/>
<text text-anchor="middle" x="67.5" y="-175.5" font-family="Helvetica,sans-Serif" font-size="10.00">Font.hpp</text>
</a>
</g>
</g>
<!-- Node1&#45;&gt;Node2 -->
<g id="edge1" class="edge">
<title>Node1&#45;&gt;Node2</title>
<path fill="none" stroke="midnightblue" d="M67.5,-224.08C67.5,-217.01 67.5,-206.86 67.5,-197.99"/>
<polygon fill="midnightblue" stroke="midnightblue" points="71,-197.75 67.5,-187.75 64,-197.75 71,-197.75"/>
</g>
<!-- Node3 -->
<g id="node3" class="node">
<title>Node3</title>
<g id="a_node3"><a xlink:title=" ">
<polygon fill="white" stroke="#bfbfbf" points="41,-56.5 41,-75.5 94,-75.5 94,-56.5 41,-56.5"/>
<text text-anchor="middle" x="67.5" y="-63.5" font-family="Helvetica,sans-Serif" font-size="10.00">raylib.h</text>
</a>
</g>
</g>
<!-- Node2&#45;&gt;Node3 -->
<g id="edge2" class="edge">
<title>Node2&#45;&gt;Node3</title>
<path fill="none" stroke="midnightblue" d="M67.5,-168.37C67.5,-150.62 67.5,-109.67 67.5,-85.6"/>
<polygon fill="midnightblue" stroke="midnightblue" points="71,-85.59 67.5,-75.59 64,-85.59 71,-85.59"/>
</g>
<!-- Node4 -->
<g id="node4" class="node">
<title>Node4</title>
<g id="a_node4"><a xlink:title=" ">
<polygon fill="white" stroke="#bfbfbf" points="357.5,-0.5 357.5,-19.5 401.5,-19.5 401.5,-0.5 357.5,-0.5"/>
<text text-anchor="middle" x="379.5" y="-7.5" font-family="Helvetica,sans-Serif" font-size="10.00">string</text>
</a>
</g>
</g>
<!-- Node2&#45;&gt;Node4 -->
<g id="edge3" class="edge">
<title>Node2&#45;&gt;Node4</title>
<path fill="none" stroke="midnightblue" d="M59.99,-168.21C42.37,-146.48 1.98,-89.58 31.5,-56 52.23,-32.41 265.37,-17.63 347.48,-12.77"/>
<polygon fill="midnightblue" stroke="midnightblue" points="347.72,-16.26 357.5,-12.19 347.31,-9.27 347.72,-16.26"/>
</g>
<!-- Node5 -->
<g id="node5" class="node">
<title>Node5</title>
<g id="a_node5"><a xlink:href="Cache_8hpp.html" target="_top" xlink:title=" ">
<polygon fill="white" stroke="black" points="333,-112.5 333,-131.5 426,-131.5 426,-112.5 333,-112.5"/>
<text text-anchor="middle" x="379.5" y="-119.5" font-family="Helvetica,sans-Serif" font-size="10.00">Utils/Cache.hpp</text>
</a>
</g>
</g>
<!-- Node2&#45;&gt;Node5 -->
<g id="edge4" class="edge">
<title>Node2&#45;&gt;Node5</title>
<path fill="none" stroke="midnightblue" d="M97.13,-171.87C148.86,-162.92 256.43,-144.3 322.85,-132.81"/>
<polygon fill="midnightblue" stroke="midnightblue" points="323.48,-136.25 332.74,-131.09 322.29,-129.35 323.48,-136.25"/>
</g>
<!-- Node5&#45;&gt;Node3 -->
<g id="edge9" class="edge">
<title>Node5&#45;&gt;Node3</title>
<path fill="none" stroke="midnightblue" d="M332.7,-114.72C279.48,-107.28 189.82,-93.86 104.09,-76.19"/>
<polygon fill="midnightblue" stroke="midnightblue" points="104.7,-72.74 94.19,-74.13 103.27,-79.6 104.7,-72.74"/>
</g>
<!-- Node5&#45;&gt;Node4 -->
<g id="edge15" class="edge">
<title>Node5&#45;&gt;Node4</title>
<path fill="none" stroke="midnightblue" d="M379.5,-112.37C379.5,-94.62 379.5,-53.67 379.5,-29.6"/>
<polygon fill="midnightblue" stroke="midnightblue" points="383,-29.59 379.5,-19.59 376,-29.59 383,-29.59"/>
</g>
<!-- Node6 -->
<g id="node6" class="node">
<title>Node6</title>
<g id="a_node6"><a xlink:title=" ">
<polygon fill="white" stroke="#bfbfbf" points="787.5,-56.5 787.5,-75.5 845.5,-75.5 845.5,-56.5 787.5,-56.5"/>
<text text-anchor="middle" x="816.5" y="-63.5" font-family="Helvetica,sans-Serif" font-size="10.00">memory</text>
</a>
</g>
</g>
<!-- Node5&#45;&gt;Node6 -->
<g id="edge5" class="edge">
<title>Node5&#45;&gt;Node6</title>
<path fill="none" stroke="midnightblue" d="M426.14,-117.57C499.06,-111.81 644.63,-98.7 777.19,-76.05"/>
<polygon fill="midnightblue" stroke="midnightblue" points="777.86,-79.48 787.11,-74.33 776.66,-72.59 777.86,-79.48"/>
</g>
<!-- Node7 -->
<g id="node7" class="node">
<title>Node7</title>
<g id="a_node7"><a xlink:title=" ">
<polygon fill="white" stroke="#bfbfbf" points="112,-56.5 112,-75.5 205,-75.5 205,-56.5 112,-56.5"/>
<text text-anchor="middle" x="158.5" y="-63.5" font-family="Helvetica,sans-Serif" font-size="10.00">unordered_map</text>
</a>
</g>
</g>
<!-- Node5&#45;&gt;Node7 -->
<g id="edge6" class="edge">
<title>Node5&#45;&gt;Node7</title>
<path fill="none" stroke="midnightblue" d="M344.48,-112.44C306.25,-103.1 244.93,-88.12 203.24,-77.93"/>
<polygon fill="midnightblue" stroke="midnightblue" points="203.9,-74.49 193.35,-75.52 202.24,-81.29 203.9,-74.49"/>
</g>
<!-- Node8 -->
<g id="node8" class="node">
<title>Node8</title>
<g id="a_node8"><a xlink:title=" ">
<polygon fill="white" stroke="#bfbfbf" points="223,-56.5 223,-75.5 288,-75.5 288,-56.5 223,-56.5"/>
<text text-anchor="middle" x="255.5" y="-63.5" font-family="Helvetica,sans-Serif" font-size="10.00">functional</text>
</a>
</g>
</g>
<!-- Node5&#45;&gt;Node8 -->
<g id="edge7" class="edge">
<title>Node5&#45;&gt;Node8</title>
<path fill="none" stroke="midnightblue" d="M359.85,-112.44C339.54,-103.6 307.6,-89.69 284.4,-79.59"/>
<polygon fill="midnightblue" stroke="midnightblue" points="285.62,-76.3 275.06,-75.52 282.83,-82.72 285.62,-76.3"/>
</g>
<!-- Node9 -->
<g id="node9" class="node">
<title>Node9</title>
<g id="a_node9"><a xlink:title=" ">
<polygon fill="white" stroke="#bfbfbf" points="306,-56.5 306,-75.5 351,-75.5 351,-56.5 306,-56.5"/>
<text text-anchor="middle" x="328.5" y="-63.5" font-family="Helvetica,sans-Serif" font-size="10.00">utility</text>
</a>
</g>
</g>
<!-- Node5&#45;&gt;Node9 -->
<g id="edge8" class="edge">
<title>Node5&#45;&gt;Node9</title>
<path fill="none" stroke="midnightblue" d="M371.08,-112.08C363.65,-104.22 352.65,-92.57 343.69,-83.08"/>
<polygon fill="midnightblue" stroke="midnightblue" points="346.18,-80.62 336.76,-75.75 341.09,-85.42 346.18,-80.62"/>
</g>
<!-- Node10 -->
<g id="node10" class="node">
<title>Node10</title>
<g id="a_node10"><a xlink:href="RayError_8hpp.html" target="_top" xlink:title=" ">
<polygon fill="white" stroke="black" points="634,-56.5 634,-75.5 769,-75.5 769,-56.5 634,-56.5"/>
<text text-anchor="middle" x="701.5" y="-63.5" font-family="Helvetica,sans-Serif" font-size="10.00">Exceptions/RayError.hpp</text>
</a>
</g>
</g>
<!-- Node5&#45;&gt;Node10 -->
<g id="edge10" class="edge">
<title>Node5&#45;&gt;Node10</title>
<path fill="none" stroke="midnightblue" d="M426.32,-113.15C482.91,-103.66 578.28,-87.66 640.55,-77.22"/>
<polygon fill="midnightblue" stroke="midnightblue" points="641.35,-80.64 650.63,-75.53 640.19,-73.73 641.35,-80.64"/>
</g>
<!-- Node12 -->
<g id="node12" class="node">
<title>Node12</title>
<g id="a_node12"><a xlink:title=" ">
<polygon fill="white" stroke="#bfbfbf" points="408,-56.5 408,-75.5 455,-75.5 455,-56.5 408,-56.5"/>
<text text-anchor="middle" x="431.5" y="-63.5" font-family="Helvetica,sans-Serif" font-size="10.00">vector</text>
</a>
</g>
</g>
<!-- Node5&#45;&gt;Node12 -->
<g id="edge13" class="edge">
<title>Node5&#45;&gt;Node12</title>
<path fill="none" stroke="midnightblue" d="M388.09,-112.08C395.66,-104.22 406.88,-92.57 416.01,-83.08"/>
<polygon fill="midnightblue" stroke="midnightblue" points="418.66,-85.38 423.07,-75.75 413.62,-80.53 418.66,-85.38"/>
</g>
<!-- Node13 -->
<g id="node13" class="node">
<title>Node13</title>
<g id="a_node13"><a xlink:title=" ">
<polygon fill="white" stroke="#bfbfbf" points="473.5,-56.5 473.5,-75.5 537.5,-75.5 537.5,-56.5 473.5,-56.5"/>
<text text-anchor="middle" x="505.5" y="-63.5" font-family="Helvetica,sans-Serif" font-size="10.00">algorithm</text>
</a>
</g>
</g>
<!-- Node5&#45;&gt;Node13 -->
<g id="edge14" class="edge">
<title>Node5&#45;&gt;Node13</title>
<path fill="none" stroke="midnightblue" d="M399.47,-112.44C420.11,-103.6 452.56,-89.69 476.13,-79.59"/>
<polygon fill="midnightblue" stroke="midnightblue" points="477.82,-82.67 485.63,-75.52 475.06,-76.24 477.82,-82.67"/>
</g>
<!-- Node14 -->
<g id="node14" class="node">
<title>Node14</title>
<g id="a_node14"><a xlink:title=" ">
<polygon fill="white" stroke="#bfbfbf" points="555.5,-56.5 555.5,-75.5 615.5,-75.5 615.5,-56.5 555.5,-56.5"/>
<text text-anchor="middle" x="585.5" y="-63.5" font-family="Helvetica,sans-Serif" font-size="10.00">iostream</text>
</a>
</g>
</g>
<!-- Node5&#45;&gt;Node14 -->
<g id="edge16" class="edge">
<title>Node5&#45;&gt;Node14</title>
<path fill="none" stroke="midnightblue" d="M412.14,-112.44C448.28,-102.97 506.55,-87.7 545.43,-77.5"/>
<polygon fill="midnightblue" stroke="midnightblue" points="546.57,-80.82 555.36,-74.9 544.8,-74.05 546.57,-80.82"/>
</g>
<!-- Node10&#45;&gt;Node4 -->
<g id="edge12" class="edge">
<title>Node10&#45;&gt;Node4</title>
<path fill="none" stroke="midnightblue" d="M650.48,-56.44C583.51,-45.21 467.9,-25.82 411.84,-16.42"/>
<polygon fill="midnightblue" stroke="midnightblue" points="412.22,-12.94 401.78,-14.74 411.06,-19.84 412.22,-12.94"/>
</g>
<!-- Node11 -->
<g id="node11" class="node">
<title>Node11</title>
<g id="a_node11"><a xlink:title=" ">
<polygon fill="white" stroke="#bfbfbf" points="669,-0.5 669,-19.5 734,-19.5 734,-0.5 669,-0.5"/>
<text text-anchor="middle" x="701.5" y="-7.5" font-family="Helvetica,sans-Serif" font-size="10.00">stdexcept</text>
</a>
</g>
</g>
<!-- Node10&#45;&gt;Node11 -->
<g id="edge11" class="edge">
<title>Node10&#45;&gt;Node11</title>
<path fill="none" stroke="midnightblue" d="M701.5,-56.08C701.5,-49.01 701.5,-38.86 701.5,-29.99"/>
<polygon fill="midnightblue" stroke="midnightblue" points="705,-29.75 701.5,-19.75 698,-29.75 705,-29.75"/>
</g>
</g>
</svg>
