<?xml version="1.0" encoding="UTF-8" standalone="no"?>
<!DOCTYPE svg PUBLIC "-//W3C//DTD SVG 1.1//EN"
 "http://www.w3.org/Graphics/SVG/1.1/DTD/svg11.dtd">
<!-- Generated by graphviz version 2.43.0 (0)
 -->
<!-- Title: lib/Ray/sources/Font.hpp Pages: 1 -->
<svg width="854pt" height="196pt"
 viewBox="0.00 0.00 854.00 196.00" xmlns="http://www.w3.org/2000/svg" xmlns:xlink="http://www.w3.org/1999/xlink">
<g id="graph0" class="graph" transform="scale(1 1) rotate(0) translate(4 192)">
<title>lib/Ray/sources/Font.hpp</title>
<polygon fill="white" stroke="transparent" points="-4,4 -4,-192 850,-192 850,4 -4,4"/>
<!-- Node1 -->
<g id="node1" class="node">
<title>Node1</title>
<g id="a_node1"><a xlink:title=" ">
<polygon fill="#bfbfbf" stroke="black" points="0,-168.5 0,-187.5 136,-187.5 136,-168.5 0,-168.5"/>
<text text-anchor="middle" x="68" y="-175.5" font-family="Helvetica,sans-Serif" font-size="10.00">lib/Ray/sources/Font.hpp</text>
</a>
</g>
</g>
<!-- Node2 -->
<g id="node2" class="node">
<title>Node2</title>
<g id="a_node2"><a xlink:title=" ">
<polygon fill="white" stroke="#bfbfbf" points="41.5,-56.5 41.5,-75.5 94.5,-75.5 94.5,-56.5 41.5,-56.5"/>
<text text-anchor="middle" x="68" y="-63.5" font-family="Helvetica,sans-Serif" font-size="10.00">raylib.h</text>
</a>
</g>
</g>
<!-- Node1&#45;&gt;Node2 -->
<g id="edge1" class="edge">
<title>Node1&#45;&gt;Node2</title>
<path fill="none" stroke="midnightblue" d="M68,-168.37C68,-150.62 68,-109.67 68,-85.6"/>
<polygon fill="midnightblue" stroke="midnightblue" points="71.5,-85.59 68,-75.59 64.5,-85.59 71.5,-85.59"/>
</g>
<!-- Node3 -->
<g id="node3" class="node">
<title>Node3</title>
<g id="a_node3"><a xlink:title=" ">
<polygon fill="white" stroke="#bfbfbf" points="358,-0.5 358,-19.5 402,-19.5 402,-0.5 358,-0.5"/>
<text text-anchor="middle" x="380" y="-7.5" font-family="Helvetica,sans-Serif" font-size="10.00">string</text>
</a>
</g>
</g>
<!-- Node1&#45;&gt;Node3 -->
<g id="edge2" class="edge">
<title>Node1&#45;&gt;Node3</title>
<path fill="none" stroke="midnightblue" d="M60.49,-168.21C42.87,-146.48 2.48,-89.58 32,-56 52.73,-32.41 265.87,-17.63 347.98,-12.77"/>
<polygon fill="midnightblue" stroke="midnightblue" points="348.22,-16.26 358,-12.19 347.81,-9.27 348.22,-16.26"/>
</g>
<!-- Node4 -->
<g id="node4" class="node">
<title>Node4</title>
<g id="a_node4"><a xlink:href="Cache_8hpp.html" target="_top" xlink:title=" ">
<polygon fill="white" stroke="black" points="333.5,-112.5 333.5,-131.5 426.5,-131.5 426.5,-112.5 333.5,-112.5"/>
<text text-anchor="middle" x="380" y="-119.5" font-family="Helvetica,sans-Serif" font-size="10.00">Utils/Cache.hpp</text>
</a>
</g>
</g>
<!-- Node1&#45;&gt;Node4 -->
<g id="edge3" class="edge">
<title>Node1&#45;&gt;Node4</title>
<path fill="none" stroke="midnightblue" d="M117.44,-168.44C173.48,-158.74 264.66,-142.96 323.47,-132.78"/>
<polygon fill="midnightblue" stroke="midnightblue" points="324.09,-136.23 333.34,-131.08 322.89,-129.33 324.09,-136.23"/>
</g>
<!-- Node4&#45;&gt;Node2 -->
<g id="edge8" class="edge">
<title>Node4&#45;&gt;Node2</title>
<path fill="none" stroke="midnightblue" d="M333.2,-114.72C279.98,-107.28 190.32,-93.86 104.59,-76.19"/>
<polygon fill="midnightblue" stroke="midnightblue" points="105.2,-72.74 94.69,-74.13 103.77,-79.6 105.2,-72.74"/>
</g>
<!-- Node4&#45;&gt;Node3 -->
<g id="edge14" class="edge">
<title>Node4&#45;&gt;Node3</title>
<path fill="none" stroke="midnightblue" d="M380,-112.37C380,-94.62 380,-53.67 380,-29.6"/>
<polygon fill="midnightblue" stroke="midnightblue" points="383.5,-29.59 380,-19.59 376.5,-29.59 383.5,-29.59"/>
</g>
<!-- Node5 -->
<g id="node5" class="node">
<title>Node5</title>
<g id="a_node5"><a xlink:title=" ">
<polygon fill="white" stroke="#bfbfbf" points="788,-56.5 788,-75.5 846,-75.5 846,-56.5 788,-56.5"/>
<text text-anchor="middle" x="817" y="-63.5" font-family="Helvetica,sans-Serif" font-size="10.00">memory</text>
</a>
</g>
</g>
<!-- Node4&#45;&gt;Node5 -->
<g id="edge4" class="edge">
<title>Node4&#45;&gt;Node5</title>
<path fill="none" stroke="midnightblue" d="M426.64,-117.57C499.56,-111.81 645.13,-98.7 777.69,-76.05"/>
<polygon fill="midnightblue" stroke="midnightblue" points="778.36,-79.48 787.61,-74.33 777.16,-72.59 778.36,-79.48"/>
</g>
<!-- Node6 -->
<g id="node6" class="node">
<title>Node6</title>
<g id="a_node6"><a xlink:title=" ">
<polygon fill="white" stroke="#bfbfbf" points="112.5,-56.5 112.5,-75.5 205.5,-75.5 205.5,-56.5 112.5,-56.5"/>
<text text-anchor="middle" x="159" y="-63.5" font-family="Helvetica,sans-Serif" font-size="10.00">unordered_map</text>
</a>
</g>
</g>
<!-- Node4&#45;&gt;Node6 -->
<g id="edge5" class="edge">
<title>Node4&#45;&gt;Node6</title>
<path fill="none" stroke="midnightblue" d="M344.98,-112.44C306.75,-103.1 245.43,-88.12 203.74,-77.93"/>
<polygon fill="midnightblue" stroke="midnightblue" points="204.4,-74.49 193.85,-75.52 202.74,-81.29 204.4,-74.49"/>
</g>
<!-- Node7 -->
<g id="node7" class="node">
<title>Node7</title>
<g id="a_node7"><a xlink:title=" ">
<polygon fill="white" stroke="#bfbfbf" points="223.5,-56.5 223.5,-75.5 288.5,-75.5 288.5,-56.5 223.5,-56.5"/>
<text text-anchor="middle" x="256" y="-63.5" font-family="Helvetica,sans-Serif" font-size="10.00">functional</text>
</a>
</g>
</g>
<!-- Node4&#45;&gt;Node7 -->
<g id="edge6" class="edge">
<title>Node4&#45;&gt;Node7</title>
<path fill="none" stroke="midnightblue" d="M360.35,-112.44C340.04,-103.6 308.1,-89.69 284.9,-79.59"/>
<polygon fill="midnightblue" stroke="midnightblue" points="286.12,-76.3 275.56,-75.52 283.33,-82.72 286.12,-76.3"/>
</g>
<!-- Node8 -->
<g id="node8" class="node">
<title>Node8</title>
<g id="a_node8"><a xlink:title=" ">
<polygon fill="white" stroke="#bfbfbf" points="306.5,-56.5 306.5,-75.5 351.5,-75.5 351.5,-56.5 306.5,-56.5"/>
<text text-anchor="middle" x="329" y="-63.5" font-family="Helvetica,sans-Serif" font-size="10.00">utility</text>
</a>
</g>
</g>
<!-- Node4&#45;&gt;Node8 -->
<g id="edge7" class="edge">
<title>Node4&#45;&gt;Node8</title>
<path fill="none" stroke="midnightblue" d="M371.58,-112.08C364.15,-104.22 353.15,-92.57 344.19,-83.08"/>
<polygon fill="midnightblue" stroke="midnightblue" points="346.68,-80.62 337.26,-75.75 341.59,-85.42 346.68,-80.62"/>
</g>
<!-- Node9 -->
<g id="node9" class="node">
<title>Node9</title>
<g id="a_node9"><a xlink:href="RayError_8hpp.html" target="_top" xlink:title=" ">
<polygon fill="white" stroke="black" points="634.5,-56.5 634.5,-75.5 769.5,-75.5 769.5,-56.5 634.5,-56.5"/>
<text text-anchor="middle" x="702" y="-63.5" font-family="Helvetica,sans-Serif" font-size="10.00">Exceptions/RayError.hpp</text>
</a>
</g>
</g>
<!-- Node4&#45;&gt;Node9 -->
<g id="edge9" class="edge">
<title>Node4&#45;&gt;Node9</title>
<path fill="none" stroke="midnightblue" d="M426.82,-113.15C483.41,-103.66 578.78,-87.66 641.05,-77.22"/>
<polygon fill="midnightblue" stroke="midnightblue" points="641.85,-80.64 651.13,-75.53 640.69,-73.73 641.85,-80.64"/>
</g>
<!-- Node11 -->
<g id="node11" class="node">
<title>Node11</title>
<g id="a_node11"><a xlink:title=" ">
<polygon fill="white" stroke="#bfbfbf" points="408.5,-56.5 408.5,-75.5 455.5,-75.5 455.5,-56.5 408.5,-56.5"/>
<text text-anchor="middle" x="432" y="-63.5" font-family="Helvetica,sans-Serif" font-size="10.00">vector</text>
</a>
</g>
</g>
<!-- Node4&#45;&gt;Node11 -->
<g id="edge12" class="edge">
<title>Node4&#45;&gt;Node11</title>
<path fill="none" stroke="midnightblue" d="M388.59,-112.08C396.16,-104.22 407.38,-92.57 416.51,-83.08"/>
<polygon fill="midnightblue" stroke="midnightblue" points="419.16,-85.38 423.57,-75.75 414.12,-80.53 419.16,-85.38"/>
</g>
<!-- Node12 -->
<g id="node12" class="node">
<title>Node12</title>
<g id="a_node12"><a xlink:title=" ">
<polygon fill="white" stroke="#bfbfbf" points="474,-56.5 474,-75.5 538,-75.5 538,-56.5 474,-56.5"/>
<text text-anchor="middle" x="506" y="-63.5" font-family="Helvetica,sans-Serif" font-size="10.00">algorithm</text>
</a>
</g>
</g>
<!-- Node4&#45;&gt;Node12 -->
<g id="edge13" class="edge">
<title>Node4&#45;&gt;Node12</title>
<path fill="none" stroke="midnightblue" d="M399.97,-112.44C420.61,-103.6 453.06,-89.69 476.63,-79.59"/>
<polygon fill="midnightblue" stroke="midnightblue" points="478.32,-82.67 486.13,-75.52 475.56,-76.24 478.32,-82.67"/>
</g>
<!-- Node13 -->
<g id="node13" class="node">
<title>Node13</title>
<g id="a_node13"><a xlink:title=" ">
<polygon fill="white" stroke="#bfbfbf" points="556,-56.5 556,-75.5 616,-75.5 616,-56.5 556,-56.5"/>
<text text-anchor="middle" x="586" y="-63.5" font-family="Helvetica,sans-Serif" font-size="10.00">iostream</text>
</a>
</g>
</g>
<!-- Node4&#45;&gt;Node13 -->
<g id="edge15" class="edge">
<title>Node4&#45;&gt;Node13</title>
<path fill="none" stroke="midnightblue" d="M412.64,-112.44C448.78,-102.97 507.05,-87.7 545.93,-77.5"/>
<polygon fill="midnightblue" stroke="midnightblue" points="547.07,-80.82 555.86,-74.9 545.3,-74.05 547.07,-80.82"/>
</g>
<!-- Node9&#45;&gt;Node3 -->
<g id="edge11" class="edge">
<title>Node9&#45;&gt;Node3</title>
<path fill="none" stroke="midnightblue" d="M650.98,-56.44C584.01,-45.21 468.4,-25.82 412.34,-16.42"/>
<polygon fill="midnightblue" stroke="midnightblue" points="412.72,-12.94 402.28,-14.74 411.56,-19.84 412.72,-12.94"/>
</g>
<!-- Node10 -->
<g id="node10" class="node">
<title>Node10</title>
<g id="a_node10"><a xlink:title=" ">
<polygon fill="white" stroke="#bfbfbf" points="669.5,-0.5 669.5,-19.5 734.5,-19.5 734.5,-0.5 669.5,-0.5"/>
<text text-anchor="middle" x="702" y="-7.5" font-family="Helvetica,sans-Serif" font-size="10.00">stdexcept</text>
</a>
</g>
</g>
<!-- Node9&#45;&gt;Node10 -->
<g id="edge10" class="edge">
<title>Node9&#45;&gt;Node10</title>
<path fill="none" stroke="midnightblue" d="M702,-56.08C702,-49.01 702,-38.86 702,-29.99"/>
<polygon fill="midnightblue" stroke="midnightblue" points="705.5,-29.75 702,-19.75 698.5,-29.75 705.5,-29.75"/>
</g>
</g>
</svg>
