<?xml version="1.0" encoding="UTF-8" standalone="no"?>
<!DOCTYPE svg PUBLIC "-//W3C//DTD SVG 1.1//EN"
 "http://www.w3.org/Graphics/SVG/1.1/DTD/svg11.dtd">
<!-- Generated by graphviz version 2.43.0 (0)
 -->
<!-- Title: sources/Models/GameState.hpp Pages: 1 -->
<svg width="3312pt" height="151pt"
 viewBox="0.00 0.00 3312.00 151.00" xmlns="http://www.w3.org/2000/svg" xmlns:xlink="http://www.w3.org/1999/xlink">
<g id="graph0" class="graph" transform="scale(1 1) rotate(0) translate(4 147)">
<title>sources/Models/GameState.hpp</title>
<polygon fill="white" stroke="transparent" points="-4,4 -4,-147 3308,-147 3308,4 -4,4"/>
<!-- Node1 -->
<g id="node1" class="node">
<title>Node1</title>
<g id="a_node1"><a xlink:title=" ">
<polygon fill="#bfbfbf" stroke="black" points="1117,-123.5 1117,-142.5 1288,-142.5 1288,-123.5 1117,-123.5"/>
<text text-anchor="middle" x="1202.5" y="-130.5" font-family="Helvetica,sans-Serif" font-size="10.00">sources/Models/GameState.hpp</text>
</a>
</g>
</g>
<!-- Node2 -->
<g id="node2" class="node">
<title>Node2</title>
<g id="a_node2"><a xlink:href="Runner_8hpp.html" target="_top" xlink:title=" ">
<polygon fill="white" stroke="black" points="1461,-67.5 1461,-86.5 1610,-86.5 1610,-67.5 1461,-67.5"/>
<text text-anchor="middle" x="1535.5" y="-74.5" font-family="Helvetica,sans-Serif" font-size="10.00">sources/Runner/Runner.hpp</text>
</a>
</g>
</g>
<!-- Node1&#45;&gt;Node2 -->
<g id="edge1" class="edge">
<title>Node1&#45;&gt;Node2</title>
<path fill="none" stroke="midnightblue" d="M1265.46,-121.79C1328.38,-111.59 1424.02,-96.08 1482.98,-86.52"/>
<polygon fill="midnightblue" stroke="midnightblue" points="1264.58,-118.39 1255.26,-123.44 1265.7,-125.3 1264.58,-118.39"/>
</g>
<!-- Node8 -->
<g id="node8" class="node">
<title>Node8</title>
<g id="a_node8"><a xlink:href="LobbyScene_8cpp.html" target="_top" xlink:title=" ">
<polygon fill="white" stroke="black" points="0,-6 0,-25 173,-25 173,-6 0,-6"/>
<text text-anchor="middle" x="86.5" y="-13" font-family="Helvetica,sans-Serif" font-size="10.00">sources/Runner/LobbyScene.cpp</text>
</a>
</g>
</g>
<!-- Node1&#45;&gt;Node8 -->
<g id="edge21" class="edge">
<title>Node1&#45;&gt;Node8</title>
<path fill="none" stroke="midnightblue" d="M1106.43,-125.61C993.91,-117.84 801.98,-103.66 637.5,-87 434.79,-66.46 384.36,-58.66 182.5,-31 169.06,-29.16 154.58,-27.04 141.04,-25"/>
<polygon fill="midnightblue" stroke="midnightblue" points="1106.51,-129.13 1116.73,-126.32 1106.99,-122.14 1106.51,-129.13"/>
</g>
<!-- Node11 -->
<g id="node11" class="node">
<title>Node11</title>
<g id="a_node11"><a xlink:href="ResumeLobbyScene_8cpp.html" target="_top" xlink:title=" ">
<polygon fill="white" stroke="black" points="191.5,-0.5 191.5,-30.5 355.5,-30.5 355.5,-0.5 191.5,-0.5"/>
<text text-anchor="start" x="199.5" y="-18.5" font-family="Helvetica,sans-Serif" font-size="10.00">sources/Runner/ResumeLobby</text>
<text text-anchor="middle" x="273.5" y="-7.5" font-family="Helvetica,sans-Serif" font-size="10.00">Scene.cpp</text>
</a>
</g>
</g>
<!-- Node1&#45;&gt;Node11 -->
<g id="edge22" class="edge">
<title>Node1&#45;&gt;Node11</title>
<path fill="none" stroke="midnightblue" d="M1113.22,-122.37C959.89,-105.58 636.71,-69.08 364.5,-31 361.65,-30.6 358.75,-30.19 355.82,-29.76"/>
<polygon fill="midnightblue" stroke="midnightblue" points="1113.2,-125.89 1123.52,-123.5 1113.96,-118.93 1113.2,-125.89"/>
</g>
<!-- Node12 -->
<g id="node12" class="node">
<title>Node12</title>
<g id="a_node12"><a xlink:href="Runner_8cpp.html" target="_top" xlink:title=" ">
<polygon fill="white" stroke="black" points="3155,-6 3155,-25 3304,-25 3304,-6 3155,-6"/>
<text text-anchor="middle" x="3229.5" y="-13" font-family="Helvetica,sans-Serif" font-size="10.00">sources/Runner/Runner.cpp</text>
</a>
</g>
</g>
<!-- Node1&#45;&gt;Node12 -->
<g id="edge23" class="edge">
<title>Node1&#45;&gt;Node12</title>
<path fill="none" stroke="midnightblue" d="M1298.31,-131.12C1581.66,-127.64 2439.93,-110.78 3146.5,-31 3159.58,-29.52 3173.72,-27.29 3186.56,-25.02"/>
<polygon fill="midnightblue" stroke="midnightblue" points="1298.03,-127.62 1288.07,-131.24 1298.11,-134.62 1298.03,-127.62"/>
</g>
<!-- Node3 -->
<g id="node3" class="node">
<title>Node3</title>
<g id="a_node3"><a xlink:href="main_8cpp.html" target="_top" xlink:title=" ">
<polygon fill="white" stroke="black" points="1554.5,-6 1554.5,-25 1656.5,-25 1656.5,-6 1554.5,-6"/>
<text text-anchor="middle" x="1605.5" y="-13" font-family="Helvetica,sans-Serif" font-size="10.00">sources/main.cpp</text>
</a>
</g>
</g>
<!-- Node2&#45;&gt;Node3 -->
<g id="edge2" class="edge">
<title>Node2&#45;&gt;Node3</title>
<path fill="none" stroke="midnightblue" d="M1553.18,-60.97C1566.57,-49.59 1584.48,-34.37 1595.49,-25.01"/>
<polygon fill="midnightblue" stroke="midnightblue" points="1550.88,-58.33 1545.53,-67.48 1555.42,-63.67 1550.88,-58.33"/>
</g>
<!-- Node4 -->
<g id="node4" class="node">
<title>Node4</title>
<g id="a_node4"><a xlink:href="ParserYaml_8cpp.html" target="_top" xlink:title=" ">
<polygon fill="white" stroke="black" points="1674.5,-6 1674.5,-25 1838.5,-25 1838.5,-6 1674.5,-6"/>
<text text-anchor="middle" x="1756.5" y="-13" font-family="Helvetica,sans-Serif" font-size="10.00">sources/Parser/ParserYaml.cpp</text>
</a>
</g>
</g>
<!-- Node2&#45;&gt;Node4 -->
<g id="edge3" class="edge">
<title>Node2&#45;&gt;Node4</title>
<path fill="none" stroke="midnightblue" d="M1577.02,-64.82C1619.95,-53.26 1686.03,-35.47 1724.89,-25.01"/>
<polygon fill="midnightblue" stroke="midnightblue" points="1575.91,-61.5 1567.16,-67.48 1577.73,-68.25 1575.91,-61.5"/>
</g>
<!-- Node5 -->
<g id="node5" class="node">
<title>Node5</title>
<g id="a_node5"><a xlink:href="CreditScene_8cpp.html" target="_top" xlink:title=" ">
<polygon fill="white" stroke="black" points="1857,-6 1857,-25 2030,-25 2030,-6 1857,-6"/>
<text text-anchor="middle" x="1943.5" y="-13" font-family="Helvetica,sans-Serif" font-size="10.00">sources/Runner/CreditScene.cpp</text>
</a>
</g>
</g>
<!-- Node2&#45;&gt;Node5 -->
<g id="edge4" class="edge">
<title>Node2&#45;&gt;Node5</title>
<path fill="none" stroke="midnightblue" d="M1605.58,-66.03C1668.83,-57 1764.42,-43.27 1847.5,-31 1860.42,-29.09 1874.32,-27.01 1887.42,-25.04"/>
<polygon fill="midnightblue" stroke="midnightblue" points="1604.73,-62.61 1595.33,-67.49 1605.72,-69.54 1604.73,-62.61"/>
</g>
<!-- Node6 -->
<g id="node6" class="node">
<title>Node6</title>
<g id="a_node6"><a xlink:href="GameScene_8cpp.html" target="_top" xlink:title=" ">
<polygon fill="white" stroke="black" points="2048,-6 2048,-25 2221,-25 2221,-6 2048,-6"/>
<text text-anchor="middle" x="2134.5" y="-13" font-family="Helvetica,sans-Serif" font-size="10.00">sources/Runner/GameScene.cpp</text>
</a>
</g>
</g>
<!-- Node2&#45;&gt;Node6 -->
<g id="edge5" class="edge">
<title>Node2&#45;&gt;Node6</title>
<path fill="none" stroke="midnightblue" d="M1620.28,-69.99C1720.39,-62.54 1891.85,-48.62 2038.5,-31 2052.56,-29.31 2067.73,-27.17 2081.76,-25.05"/>
<polygon fill="midnightblue" stroke="midnightblue" points="1619.93,-66.51 1610.22,-70.74 1620.45,-73.49 1619.93,-66.51"/>
</g>
<!-- Node7 -->
<g id="node7" class="node">
<title>Node7</title>
<g id="a_node7"><a xlink:href="HowToPlayScene_8cpp.html" target="_top" xlink:title=" ">
<polygon fill="white" stroke="black" points="2239.5,-0.5 2239.5,-30.5 2387.5,-30.5 2387.5,-0.5 2239.5,-0.5"/>
<text text-anchor="start" x="2247.5" y="-18.5" font-family="Helvetica,sans-Serif" font-size="10.00">sources/Runner/HowToPlay</text>
<text text-anchor="middle" x="2313.5" y="-7.5" font-family="Helvetica,sans-Serif" font-size="10.00">Scene.cpp</text>
</a>
</g>
</g>
<!-- Node2&#45;&gt;Node7 -->
<g id="edge6" class="edge">
<title>Node2&#45;&gt;Node7</title>
<path fill="none" stroke="midnightblue" d="M1620.56,-73.39C1751.68,-68.72 2010.9,-56.88 2229.5,-31 2232.73,-30.62 2236.03,-30.19 2239.36,-29.74"/>
<polygon fill="midnightblue" stroke="midnightblue" points="1620.07,-69.91 1610.2,-73.76 1620.31,-76.9 1620.07,-69.91"/>
</g>
<!-- Node2&#45;&gt;Node8 -->
<g id="edge7" class="edge">
<title>Node2&#45;&gt;Node8</title>
<path fill="none" stroke="midnightblue" d="M1450.68,-76.61C1237.21,-77.39 660.6,-74.91 182.5,-31 167.23,-29.6 150.68,-27.36 135.7,-25.06"/>
<polygon fill="midnightblue" stroke="midnightblue" points="1450.89,-80.11 1460.88,-76.57 1450.86,-73.11 1450.89,-80.11"/>
</g>
<!-- Node9 -->
<g id="node9" class="node">
<title>Node9</title>
<g id="a_node9"><a xlink:href="MainMenuScene_8cpp.html" target="_top" xlink:title=" ">
<polygon fill="white" stroke="black" points="2406,-6 2406,-25 2601,-25 2601,-6 2406,-6"/>
<text text-anchor="middle" x="2503.5" y="-13" font-family="Helvetica,sans-Serif" font-size="10.00">sources/Runner/MainMenuScene.cpp</text>
</a>
</g>
</g>
<!-- Node2&#45;&gt;Node9 -->
<g id="edge8" class="edge">
<title>Node2&#45;&gt;Node9</title>
<path fill="none" stroke="midnightblue" d="M1620.6,-73.88C1775.32,-69.5 2112.97,-57.58 2396.5,-31 2413.02,-29.45 2430.9,-27.24 2447.24,-25.01"/>
<polygon fill="midnightblue" stroke="midnightblue" points="1620.12,-70.39 1610.22,-74.17 1620.32,-77.39 1620.12,-70.39"/>
</g>
<!-- Node10 -->
<g id="node10" class="node">
<title>Node10</title>
<g id="a_node10"><a xlink:href="PauseMenuScene_8cpp.html" target="_top" xlink:title=" ">
<polygon fill="white" stroke="black" points="2618.5,-0.5 2618.5,-30.5 2768.5,-30.5 2768.5,-0.5 2618.5,-0.5"/>
<text text-anchor="start" x="2626.5" y="-18.5" font-family="Helvetica,sans-Serif" font-size="10.00">sources/Runner/PauseMenu</text>
<text text-anchor="middle" x="2693.5" y="-7.5" font-family="Helvetica,sans-Serif" font-size="10.00">Scene.cpp</text>
</a>
</g>
</g>
<!-- Node2&#45;&gt;Node10 -->
<g id="edge9" class="edge">
<title>Node2&#45;&gt;Node10</title>
<path fill="none" stroke="midnightblue" d="M1620.07,-76.22C1801.87,-75.87 2243.22,-70.6 2610.5,-31 2613.12,-30.72 2615.78,-30.4 2618.46,-30.06"/>
<polygon fill="midnightblue" stroke="midnightblue" points="1620.03,-72.72 1610.04,-76.24 1620.04,-79.72 1620.03,-72.72"/>
</g>
<!-- Node2&#45;&gt;Node11 -->
<g id="edge10" class="edge">
<title>Node2&#45;&gt;Node11</title>
<path fill="none" stroke="midnightblue" d="M1450.89,-76.21C1257.8,-75.94 770.03,-70.96 364.5,-31 361.63,-30.72 358.72,-30.4 355.78,-30.06"/>
<polygon fill="midnightblue" stroke="midnightblue" points="1450.96,-79.71 1460.97,-76.22 1450.97,-72.71 1450.96,-79.71"/>
</g>
<!-- Node2&#45;&gt;Node12 -->
<g id="edge11" class="edge">
<title>Node2&#45;&gt;Node12</title>
<path fill="none" stroke="midnightblue" d="M1620.84,-75.25C1909.25,-72.46 2846.42,-61.24 3146.5,-31 3159.89,-29.65 3174.38,-27.4 3187.44,-25.07"/>
<polygon fill="midnightblue" stroke="midnightblue" points="1620.41,-71.75 1610.44,-75.35 1620.48,-78.75 1620.41,-71.75"/>
</g>
<!-- Node13 -->
<g id="node13" class="node">
<title>Node13</title>
<g id="a_node13"><a xlink:href="ScoreScene_8cpp.html" target="_top" xlink:title=" ">
<polygon fill="white" stroke="black" points="2787,-6 2787,-25 2958,-25 2958,-6 2787,-6"/>
<text text-anchor="middle" x="2872.5" y="-13" font-family="Helvetica,sans-Serif" font-size="10.00">sources/Runner/ScoreScene.cpp</text>
</a>
</g>
</g>
<!-- Node2&#45;&gt;Node13 -->
<g id="edge12" class="edge">
<title>Node2&#45;&gt;Node13</title>
<path fill="none" stroke="midnightblue" d="M1620.45,-76.29C1821.84,-76.24 2343.86,-71.81 2777.5,-31 2792.62,-29.58 2808.99,-27.33 2823.82,-25.03"/>
<polygon fill="midnightblue" stroke="midnightblue" points="1620.24,-72.79 1610.24,-76.29 1620.24,-79.79 1620.24,-72.79"/>
</g>
<!-- Node14 -->
<g id="node14" class="node">
<title>Node14</title>
<g id="a_node14"><a xlink:href="SettingsMenuScene_8cpp.html" target="_top" xlink:title=" ">
<polygon fill="white" stroke="black" points="2976,-0.5 2976,-30.5 3137,-30.5 3137,-0.5 2976,-0.5"/>
<text text-anchor="start" x="2984" y="-18.5" font-family="Helvetica,sans-Serif" font-size="10.00">sources/Runner/SettingsMenu</text>
<text text-anchor="middle" x="3056.5" y="-7.5" font-family="Helvetica,sans-Serif" font-size="10.00">Scene.cpp</text>
</a>
</g>
</g>
<!-- Node2&#45;&gt;Node14 -->
<g id="edge13" class="edge">
<title>Node2&#45;&gt;Node14</title>
<path fill="none" stroke="midnightblue" d="M1620.71,-74.78C1887.36,-70.73 2703.79,-56.52 2967.5,-31 2970.15,-30.74 2972.84,-30.46 2975.55,-30.15"/>
<polygon fill="midnightblue" stroke="midnightblue" points="1620.26,-71.28 1610.32,-74.94 1620.37,-78.28 1620.26,-71.28"/>
</g>
<!-- Node15 -->
<g id="node15" class="node">
<title>Node15</title>
<g id="a_node15"><a xlink:href="SplashScreenScene_8cpp.html" target="_top" xlink:title=" ">
<polygon fill="white" stroke="black" points="373.5,-0.5 373.5,-30.5 533.5,-30.5 533.5,-0.5 373.5,-0.5"/>
<text text-anchor="start" x="381.5" y="-18.5" font-family="Helvetica,sans-Serif" font-size="10.00">sources/Runner/SplashScreen</text>
<text text-anchor="middle" x="453.5" y="-7.5" font-family="Helvetica,sans-Serif" font-size="10.00">Scene.cpp</text>
</a>
</g>
</g>
<!-- Node2&#45;&gt;Node15 -->
<g id="edge14" class="edge">
<title>Node2&#45;&gt;Node15</title>
<path fill="none" stroke="midnightblue" d="M1450.61,-75.47C1278.74,-73.67 877.46,-65.76 542.5,-31 539.7,-30.71 536.85,-30.39 533.97,-30.04"/>
<polygon fill="midnightblue" stroke="midnightblue" points="1450.82,-78.97 1460.85,-75.58 1450.89,-71.97 1450.82,-78.97"/>
</g>
<!-- Node16 -->
<g id="node16" class="node">
<title>Node16</title>
<g id="a_node16"><a xlink:href="TitleScreenScene_8cpp.html" target="_top" xlink:title=" ">
<polygon fill="white" stroke="black" points="552,-0.5 552,-30.5 701,-30.5 701,-0.5 552,-0.5"/>
<text text-anchor="start" x="560" y="-18.5" font-family="Helvetica,sans-Serif" font-size="10.00">sources/Runner/TitleScreen</text>
<text text-anchor="middle" x="626.5" y="-7.5" font-family="Helvetica,sans-Serif" font-size="10.00">Scene.cpp</text>
</a>
</g>
</g>
<!-- Node2&#45;&gt;Node16 -->
<g id="edge15" class="edge">
<title>Node2&#45;&gt;Node16</title>
<path fill="none" stroke="midnightblue" d="M1450.87,-74.7C1300.99,-71.65 979.23,-61.8 709.5,-31 706.74,-30.68 703.93,-30.34 701.1,-29.96"/>
<polygon fill="midnightblue" stroke="midnightblue" points="1450.86,-78.2 1460.93,-74.89 1451,-71.2 1450.86,-78.2"/>
</g>
<!-- Node17 -->
<g id="node17" class="node">
<title>Node17</title>
<g id="a_node17"><a xlink:href="EndConditionSystem_8cpp.html" target="_top" xlink:title=" ">
<polygon fill="white" stroke="black" points="719,-0.5 719,-30.5 880,-30.5 880,-0.5 719,-0.5"/>
<text text-anchor="start" x="727" y="-18.5" font-family="Helvetica,sans-Serif" font-size="10.00">sources/System/EndCondition</text>
<text text-anchor="middle" x="799.5" y="-7.5" font-family="Helvetica,sans-Serif" font-size="10.00">/EndConditionSystem.cpp</text>
</a>
</g>
</g>
<!-- Node2&#45;&gt;Node17 -->
<g id="edge16" class="edge">
<title>Node2&#45;&gt;Node17</title>
<path fill="none" stroke="midnightblue" d="M1450.53,-72.53C1326.8,-66.91 1089.93,-54.08 889.5,-31 886.51,-30.66 883.47,-30.28 880.41,-29.89"/>
<polygon fill="midnightblue" stroke="midnightblue" points="1450.55,-76.03 1460.69,-72.98 1450.86,-69.04 1450.55,-76.03"/>
</g>
<!-- Node18 -->
<g id="node18" class="node">
<title>Node18</title>
<g id="a_node18"><a xlink:href="IntroAnimationSystem_8cpp.html" target="_top" xlink:title=" ">
<polygon fill="white" stroke="black" points="898.5,-0.5 898.5,-30.5 1068.5,-30.5 1068.5,-0.5 898.5,-0.5"/>
<text text-anchor="start" x="906.5" y="-18.5" font-family="Helvetica,sans-Serif" font-size="10.00">sources/System/IntroAnimation</text>
<text text-anchor="middle" x="983.5" y="-7.5" font-family="Helvetica,sans-Serif" font-size="10.00">/IntroAnimationSystem.cpp</text>
</a>
</g>
</g>
<!-- Node2&#45;&gt;Node18 -->
<g id="edge17" class="edge">
<title>Node2&#45;&gt;Node18</title>
<path fill="none" stroke="midnightblue" d="M1450.69,-69.08C1358.64,-61.23 1207.39,-47.39 1077.5,-31 1074.55,-30.63 1071.55,-30.24 1068.52,-29.83"/>
<polygon fill="midnightblue" stroke="midnightblue" points="1450.53,-72.57 1460.79,-69.93 1451.12,-65.6 1450.53,-72.57"/>
</g>
<!-- Node19 -->
<g id="node19" class="node">
<title>Node19</title>
<g id="a_node19"><a xlink:href="LobbySystem_8cpp.html" target="_top" xlink:title=" ">
<polygon fill="white" stroke="black" points="1086.5,-0.5 1086.5,-30.5 1212.5,-30.5 1212.5,-0.5 1086.5,-0.5"/>
<text text-anchor="start" x="1094.5" y="-18.5" font-family="Helvetica,sans-Serif" font-size="10.00">sources/System/Lobby</text>
<text text-anchor="middle" x="1149.5" y="-7.5" font-family="Helvetica,sans-Serif" font-size="10.00">/LobbySystem.cpp</text>
</a>
</g>
</g>
<!-- Node2&#45;&gt;Node19 -->
<g id="edge18" class="edge">
<title>Node2&#45;&gt;Node19</title>
<path fill="none" stroke="midnightblue" d="M1458.29,-66.17C1394.61,-57.77 1301.99,-44.86 1221.5,-31 1218.61,-30.5 1215.66,-29.98 1212.68,-29.43"/>
<polygon fill="midnightblue" stroke="midnightblue" points="1457.89,-69.65 1468.26,-67.48 1458.8,-62.71 1457.89,-69.65"/>
</g>
<!-- Node20 -->
<g id="node20" class="node">
<title>Node20</title>
<g id="a_node20"><a xlink:href="ResumeLobbySystem_8cpp.html" target="_top" xlink:title=" ">
<polygon fill="white" stroke="black" points="1230.5,-0.5 1230.5,-30.5 1376.5,-30.5 1376.5,-0.5 1230.5,-0.5"/>
<text text-anchor="start" x="1238.5" y="-18.5" font-family="Helvetica,sans-Serif" font-size="10.00">sources/System/Lobby</text>
<text text-anchor="middle" x="1303.5" y="-7.5" font-family="Helvetica,sans-Serif" font-size="10.00">/ResumeLobbySystem.cpp</text>
</a>
</g>
</g>
<!-- Node2&#45;&gt;Node20 -->
<g id="edge19" class="edge">
<title>Node2&#45;&gt;Node20</title>
<path fill="none" stroke="midnightblue" d="M1492.54,-64.98C1454.65,-55.27 1399.23,-41.05 1358.18,-30.52"/>
<polygon fill="midnightblue" stroke="midnightblue" points="1491.7,-68.38 1502.26,-67.48 1493.44,-61.6 1491.7,-68.38"/>
</g>
<!-- Node21 -->
<g id="node21" class="node">
<title>Node21</title>
<g id="a_node21"><a xlink:href="CameraSystem_8cpp.html" target="_top" xlink:title=" ">
<polygon fill="white" stroke="black" points="1395,-0.5 1395,-30.5 1536,-30.5 1536,-0.5 1395,-0.5"/>
<text text-anchor="start" x="1403" y="-18.5" font-family="Helvetica,sans-Serif" font-size="10.00">sources/System/Renderer</text>
<text text-anchor="middle" x="1465.5" y="-7.5" font-family="Helvetica,sans-Serif" font-size="10.00">/CameraSystem.cpp</text>
</a>
</g>
</g>
<!-- Node2&#45;&gt;Node21 -->
<g id="edge20" class="edge">
<title>Node2&#45;&gt;Node21</title>
<path fill="none" stroke="midnightblue" d="M1517.76,-60.92C1506.77,-51.58 1492.75,-39.66 1482,-30.52"/>
<polygon fill="midnightblue" stroke="midnightblue" points="1515.58,-63.67 1525.47,-67.48 1520.12,-58.33 1515.58,-63.67"/>
</g>
</g>
</svg>
