<?xml version="1.0" encoding="UTF-8" standalone="no"?>
<!DOCTYPE svg PUBLIC "-//W3C//DTD SVG 1.1//EN"
 "http://www.w3.org/Graphics/SVG/1.1/DTD/svg11.dtd">
<!-- Generated by graphviz version 2.43.0 (0)
 -->
<!-- Title: sources/System/Gamepad/GamepadSystem.hpp Pages: 1 -->
<svg width="1356pt" height="453pt"
 viewBox="0.00 0.00 1355.74 453.00" xmlns="http://www.w3.org/2000/svg" xmlns:xlink="http://www.w3.org/1999/xlink">
<g id="graph0" class="graph" transform="scale(1 1) rotate(0) translate(4 449)">
<title>sources/System/Gamepad/GamepadSystem.hpp</title>
<polygon fill="white" stroke="transparent" points="-4,4 -4,-449 1351.74,-449 1351.74,4 -4,4"/>
<!-- Node1 -->
<g id="node1" class="node">
<title>Node1</title>
<g id="a_node1"><a xlink:title=" ">
<polygon fill="#bfbfbf" stroke="black" points="307.74,-414.5 307.74,-444.5 451.74,-444.5 451.74,-414.5 307.74,-414.5"/>
<text text-anchor="start" x="315.74" y="-432.5" font-family="Helvetica,sans-Serif" font-size="10.00">sources/System/Gamepad</text>
<text text-anchor="middle" x="379.74" y="-421.5" font-family="Helvetica,sans-Serif" font-size="10.00">/GamepadSystem.hpp</text>
</a>
</g>
</g>
<!-- Node2 -->
<g id="node2" class="node">
<title>Node2</title>
<g id="a_node2"><a xlink:href="System_8hpp.html" target="_top" xlink:title=" ">
<polygon fill="white" stroke="black" points="504.74,-358.5 504.74,-377.5 618.74,-377.5 618.74,-358.5 504.74,-358.5"/>
<text text-anchor="middle" x="561.74" y="-365.5" font-family="Helvetica,sans-Serif" font-size="10.00">System/System.hpp</text>
</a>
</g>
</g>
<!-- Node1&#45;&gt;Node2 -->
<g id="edge1" class="edge">
<title>Node1&#45;&gt;Node2</title>
<path fill="none" stroke="midnightblue" d="M422.87,-414.4C454.32,-404.12 496.43,-390.35 526,-380.68"/>
<polygon fill="midnightblue" stroke="midnightblue" points="527.1,-384.01 535.52,-377.57 524.93,-377.35 527.1,-384.01"/>
</g>
<!-- Node27 -->
<g id="node27" class="node">
<title>Node27</title>
<g id="a_node27"><a xlink:title=" ">
<polygon fill="white" stroke="#bfbfbf" points="636.74,-358.5 636.74,-377.5 674.74,-377.5 674.74,-358.5 636.74,-358.5"/>
<text text-anchor="middle" x="655.74" y="-365.5" font-family="Helvetica,sans-Serif" font-size="10.00">map</text>
</a>
</g>
</g>
<!-- Node1&#45;&gt;Node27 -->
<g id="edge51" class="edge">
<title>Node1&#45;&gt;Node27</title>
<path fill="none" stroke="midnightblue" d="M451.84,-415.99C499.16,-407.27 562.53,-394.66 626.66,-378.06"/>
<polygon fill="midnightblue" stroke="midnightblue" points="627.75,-381.4 636.54,-375.48 625.98,-374.62 627.75,-381.4"/>
</g>
<!-- Node28 -->
<g id="node28" class="node">
<title>Node28</title>
<g id="a_node28"><a xlink:href="GamepadComponent_8hpp.html" target="_top" xlink:title=" ">
<polygon fill="white" stroke="black" points="303.24,-168.5 303.24,-198.5 476.24,-198.5 476.24,-168.5 303.24,-168.5"/>
<text text-anchor="start" x="311.24" y="-186.5" font-family="Helvetica,sans-Serif" font-size="10.00">Component/Gamepad/Gamepad</text>
<text text-anchor="middle" x="389.74" y="-175.5" font-family="Helvetica,sans-Serif" font-size="10.00">Component.hpp</text>
</a>
</g>
</g>
<!-- Node1&#45;&gt;Node28 -->
<g id="edge52" class="edge">
<title>Node1&#45;&gt;Node28</title>
<path fill="none" stroke="midnightblue" d="M380.32,-414.33C381.96,-374.15 386.68,-259.17 388.74,-208.72"/>
<polygon fill="midnightblue" stroke="midnightblue" points="392.24,-208.85 389.15,-198.71 385.25,-208.56 392.24,-208.85"/>
</g>
<!-- Node31 -->
<g id="node31" class="node">
<title>Node31</title>
<g id="a_node31"><a xlink:href="ControllableComponent_8hpp.html" target="_top" xlink:title=" ">
<polygon fill="white" stroke="black" points="52.74,-235.5 52.74,-265.5 208.74,-265.5 208.74,-235.5 52.74,-235.5"/>
<text text-anchor="start" x="60.74" y="-253.5" font-family="Helvetica,sans-Serif" font-size="10.00">Component/Controllable</text>
<text text-anchor="middle" x="130.74" y="-242.5" font-family="Helvetica,sans-Serif" font-size="10.00">/ControllableComponent.hpp</text>
</a>
</g>
</g>
<!-- Node1&#45;&gt;Node31 -->
<g id="edge58" class="edge">
<title>Node1&#45;&gt;Node31</title>
<path fill="none" stroke="midnightblue" d="M307.69,-425.14C267.42,-419.82 218.67,-407.19 184.74,-378 153.91,-351.49 140.21,-304.29 134.48,-275.65"/>
<polygon fill="midnightblue" stroke="midnightblue" points="137.89,-274.87 132.66,-265.66 131.01,-276.13 137.89,-274.87"/>
</g>
<!-- Node3 -->
<g id="node3" class="node">
<title>Node3</title>
<g id="a_node3"><a xlink:title=" ">
<polygon fill="white" stroke="#bfbfbf" points="532.74,-174 532.74,-193 582.74,-193 582.74,-174 532.74,-174"/>
<text text-anchor="middle" x="557.74" y="-181" font-family="Helvetica,sans-Serif" font-size="10.00">chrono</text>
</a>
</g>
</g>
<!-- Node2&#45;&gt;Node3 -->
<g id="edge2" class="edge">
<title>Node2&#45;&gt;Node3</title>
<path fill="none" stroke="midnightblue" d="M553.33,-358.5C537.91,-342.22 505.59,-304.82 493.74,-266 489.71,-252.82 487.73,-247.4 493.74,-235 501.43,-219.12 516.82,-206.73 530.57,-198.2"/>
<polygon fill="midnightblue" stroke="midnightblue" points="532.38,-201.19 539.28,-193.15 528.87,-195.14 532.38,-201.19"/>
</g>
<!-- Node4 -->
<g id="node4" class="node">
<title>Node4</title>
<g id="a_node4"><a xlink:title=" ">
<polygon fill="white" stroke="#bfbfbf" points="1172.24,-0.5 1172.24,-19.5 1219.24,-19.5 1219.24,-0.5 1172.24,-0.5"/>
<text text-anchor="middle" x="1195.74" y="-7.5" font-family="Helvetica,sans-Serif" font-size="10.00">vector</text>
</a>
</g>
</g>
<!-- Node2&#45;&gt;Node4 -->
<g id="edge3" class="edge">
<title>Node2&#45;&gt;Node4</title>
<path fill="none" stroke="midnightblue" d="M618.94,-358.93C621.91,-358.59 624.86,-358.28 627.74,-358 762.44,-344.85 1106.86,-363.35 1235.74,-322 1291.74,-304.03 1347.74,-310.32 1347.74,-251.5 1347.74,-251.5 1347.74,-251.5 1347.74,-121 1347.74,-87.76 1335.88,-77.75 1310.74,-56 1287.47,-35.87 1254.15,-24.17 1229.36,-17.77"/>
<polygon fill="midnightblue" stroke="midnightblue" points="1229.86,-14.29 1219.31,-15.35 1228.21,-21.1 1229.86,-14.29"/>
</g>
<!-- Node5 -->
<g id="node5" class="node">
<title>Node5</title>
<g id="a_node5"><a xlink:title=" ">
<polygon fill="white" stroke="#bfbfbf" points="1224.24,-56.5 1224.24,-75.5 1281.24,-75.5 1281.24,-56.5 1224.24,-56.5"/>
<text text-anchor="middle" x="1252.74" y="-63.5" font-family="Helvetica,sans-Serif" font-size="10.00">typeinfo</text>
</a>
</g>
</g>
<!-- Node2&#45;&gt;Node5 -->
<g id="edge4" class="edge">
<title>Node2&#45;&gt;Node5</title>
<path fill="none" stroke="midnightblue" d="M618.96,-359.06C621.92,-358.69 624.86,-358.33 627.74,-358 771.82,-341.25 1271.74,-396.55 1271.74,-251.5 1271.74,-251.5 1271.74,-251.5 1271.74,-182.5 1271.74,-147.9 1263.33,-108.24 1257.7,-85.55"/>
<polygon fill="midnightblue" stroke="midnightblue" points="1261.03,-84.42 1255.14,-75.61 1254.25,-86.17 1261.03,-84.42"/>
</g>
<!-- Node6 -->
<g id="node6" class="node">
<title>Node6</title>
<g id="a_node6"><a xlink:title=" ">
<polygon fill="white" stroke="#bfbfbf" points="351.24,-0.5 351.24,-19.5 416.24,-19.5 416.24,-0.5 351.24,-0.5"/>
<text text-anchor="middle" x="383.74" y="-7.5" font-family="Helvetica,sans-Serif" font-size="10.00">typeindex</text>
</a>
</g>
</g>
<!-- Node2&#45;&gt;Node6 -->
<g id="edge5" class="edge">
<title>Node2&#45;&gt;Node6</title>
<path fill="none" stroke="midnightblue" d="M504.43,-363.11C384.24,-353.82 111.34,-326.48 43.74,-266 -2.78,-224.39 11.18,-193.69 1.74,-132 -12.15,-41.28 105,-79.43 193.74,-56 244.13,-42.69 302.53,-29.14 341.14,-20.43"/>
<polygon fill="midnightblue" stroke="midnightblue" points="342.01,-23.82 351,-18.22 340.47,-16.99 342.01,-23.82"/>
</g>
<!-- Node7 -->
<g id="node7" class="node">
<title>Node7</title>
<g id="a_node7"><a xlink:href="Entity_8hpp.html" target="_top" xlink:title=" ">
<polygon fill="white" stroke="black" points="592.74,-112.5 592.74,-131.5 688.74,-131.5 688.74,-112.5 592.74,-112.5"/>
<text text-anchor="middle" x="640.74" y="-119.5" font-family="Helvetica,sans-Serif" font-size="10.00">Entity/Entity.hpp</text>
</a>
</g>
</g>
<!-- Node2&#45;&gt;Node7 -->
<g id="edge6" class="edge">
<title>Node2&#45;&gt;Node7</title>
<path fill="none" stroke="midnightblue" d="M569.86,-358.41C584.82,-341.98 616.4,-304.33 629.74,-266 644.48,-223.61 643.91,-170.02 642.29,-142.02"/>
<polygon fill="midnightblue" stroke="midnightblue" points="645.76,-141.42 641.57,-131.69 638.77,-141.91 645.76,-141.42"/>
</g>
<!-- Node16 -->
<g id="node16" class="node">
<title>Node16</title>
<g id="a_node16"><a xlink:href="Wal_8hpp.html" target="_top" xlink:title=" ">
<polygon fill="white" stroke="black" points="936.74,-302.5 936.74,-321.5 992.74,-321.5 992.74,-302.5 936.74,-302.5"/>
<text text-anchor="middle" x="964.74" y="-309.5" font-family="Helvetica,sans-Serif" font-size="10.00">Wal.hpp</text>
</a>
</g>
</g>
<!-- Node2&#45;&gt;Node16 -->
<g id="edge20" class="edge">
<title>Node2&#45;&gt;Node16</title>
<path fill="none" stroke="midnightblue" d="M618.97,-359.19C621.94,-358.78 624.87,-358.39 627.74,-358 735.84,-343.41 863.49,-326.43 926.13,-318.12"/>
<polygon fill="midnightblue" stroke="midnightblue" points="926.88,-321.55 936.33,-316.77 925.95,-314.61 926.88,-321.55"/>
</g>
<!-- Node18 -->
<g id="node18" class="node">
<title>Node18</title>
<g id="a_node18"><a xlink:href="ISystem_8hpp.html" target="_top" xlink:title=" ">
<polygon fill="white" stroke="black" points="503.24,-241 503.24,-260 620.24,-260 620.24,-241 503.24,-241"/>
<text text-anchor="middle" x="561.74" y="-248" font-family="Helvetica,sans-Serif" font-size="10.00">System/ISystem.hpp</text>
</a>
</g>
</g>
<!-- Node2&#45;&gt;Node18 -->
<g id="edge49" class="edge">
<title>Node2&#45;&gt;Node18</title>
<path fill="none" stroke="midnightblue" d="M561.74,-358.32C561.74,-339.76 561.74,-295.84 561.74,-270.47"/>
<polygon fill="midnightblue" stroke="midnightblue" points="565.24,-270.28 561.74,-260.28 558.24,-270.28 565.24,-270.28"/>
</g>
<!-- Node19 -->
<g id="node19" class="node">
<title>Node19</title>
<g id="a_node19"><a xlink:href="View_8hpp.html" target="_top" xlink:title=" ">
<polygon fill="white" stroke="black" points="752.74,-174 752.74,-193 840.74,-193 840.74,-174 752.74,-174"/>
<text text-anchor="middle" x="796.74" y="-181" font-family="Helvetica,sans-Serif" font-size="10.00">View/View.hpp</text>
</a>
</g>
</g>
<!-- Node2&#45;&gt;Node19 -->
<g id="edge48" class="edge">
<title>Node2&#45;&gt;Node19</title>
<path fill="none" stroke="midnightblue" d="M588.05,-358.4C609.31,-350.75 639.43,-338.25 662.74,-322 714.06,-286.23 762.15,-229 784.17,-201.01"/>
<polygon fill="midnightblue" stroke="midnightblue" points="787.01,-203.06 790.37,-193.01 781.47,-198.77 787.01,-203.06"/>
</g>
<!-- Node26 -->
<g id="node26" class="node">
<title>Node26</title>
<g id="a_node26"><a xlink:title=" ">
<polygon fill="white" stroke="#bfbfbf" points="202.74,-112.5 202.74,-131.5 262.74,-131.5 262.74,-112.5 202.74,-112.5"/>
<text text-anchor="middle" x="232.74" y="-119.5" font-family="Helvetica,sans-Serif" font-size="10.00">iostream</text>
</a>
</g>
</g>
<!-- Node2&#45;&gt;Node26 -->
<g id="edge50" class="edge">
<title>Node2&#45;&gt;Node26</title>
<path fill="none" stroke="midnightblue" d="M543.75,-358.4C498.51,-336.24 377.63,-273.65 293.74,-199 273.87,-181.32 255.41,-156.71 244.11,-140.34"/>
<polygon fill="midnightblue" stroke="midnightblue" points="246.82,-138.1 238.33,-131.76 241.02,-142.01 246.82,-138.1"/>
</g>
<!-- Node7&#45;&gt;Node5 -->
<g id="edge9" class="edge">
<title>Node7&#45;&gt;Node5</title>
<path fill="none" stroke="midnightblue" d="M688.8,-113.24C692.16,-112.79 695.5,-112.37 698.74,-112 909.94,-87.68 964.11,-96.35 1175.74,-76 1188.07,-74.81 1201.48,-73.32 1213.61,-71.89"/>
<polygon fill="midnightblue" stroke="midnightblue" points="1214.37,-75.32 1223.88,-70.66 1213.53,-68.37 1214.37,-75.32"/>
</g>
<!-- Node8 -->
<g id="node8" class="node">
<title>Node8</title>
<g id="a_node8"><a xlink:title=" ">
<polygon fill="white" stroke="#bfbfbf" points="590.74,-0.5 590.74,-19.5 634.74,-19.5 634.74,-0.5 590.74,-0.5"/>
<text text-anchor="middle" x="612.74" y="-7.5" font-family="Helvetica,sans-Serif" font-size="10.00">string</text>
</a>
</g>
</g>
<!-- Node7&#45;&gt;Node8 -->
<g id="edge7" class="edge">
<title>Node7&#45;&gt;Node8</title>
<path fill="none" stroke="midnightblue" d="M638.54,-112.37C634.02,-94.62 623.6,-53.67 617.47,-29.6"/>
<polygon fill="midnightblue" stroke="midnightblue" points="620.78,-28.42 614.92,-19.59 614,-30.15 620.78,-28.42"/>
</g>
<!-- Node9 -->
<g id="node9" class="node">
<title>Node9</title>
<g id="a_node9"><a xlink:title=" ">
<polygon fill="white" stroke="#bfbfbf" points="1073.24,-56.5 1073.24,-75.5 1166.24,-75.5 1166.24,-56.5 1073.24,-56.5"/>
<text text-anchor="middle" x="1119.74" y="-63.5" font-family="Helvetica,sans-Serif" font-size="10.00">unordered_map</text>
</a>
</g>
</g>
<!-- Node7&#45;&gt;Node9 -->
<g id="edge8" class="edge">
<title>Node7&#45;&gt;Node9</title>
<path fill="none" stroke="midnightblue" d="M688.81,-113.34C692.17,-112.86 695.5,-112.41 698.74,-112 857.36,-91.73 897.99,-95.31 1056.74,-76 1058.79,-75.75 1060.89,-75.49 1063,-75.22"/>
<polygon fill="midnightblue" stroke="midnightblue" points="1063.52,-78.68 1072.98,-73.9 1062.6,-71.74 1063.52,-78.68"/>
</g>
<!-- Node10 -->
<g id="node10" class="node">
<title>Node10</title>
<g id="a_node10"><a xlink:title=" ">
<polygon fill="white" stroke="#bfbfbf" points="807.74,-56.5 807.74,-75.5 865.74,-75.5 865.74,-56.5 807.74,-56.5"/>
<text text-anchor="middle" x="836.74" y="-63.5" font-family="Helvetica,sans-Serif" font-size="10.00">memory</text>
</a>
</g>
</g>
<!-- Node7&#45;&gt;Node10 -->
<g id="edge10" class="edge">
<title>Node7&#45;&gt;Node10</title>
<path fill="none" stroke="midnightblue" d="M671.79,-112.44C705.83,-103.07 760.51,-88 797.49,-77.81"/>
<polygon fill="midnightblue" stroke="midnightblue" points="798.71,-81.11 807.42,-75.08 796.85,-74.36 798.71,-81.11"/>
</g>
<!-- Node11 -->
<g id="node11" class="node">
<title>Node11</title>
<g id="a_node11"><a xlink:href="Component_8hpp.html" target="_top" xlink:title=" ">
<polygon fill="white" stroke="black" points="412.24,-56.5 412.24,-75.5 565.24,-75.5 565.24,-56.5 412.24,-56.5"/>
<text text-anchor="middle" x="488.74" y="-63.5" font-family="Helvetica,sans-Serif" font-size="10.00">Component/Component.hpp</text>
</a>
</g>
</g>
<!-- Node7&#45;&gt;Node11 -->
<g id="edge11" class="edge">
<title>Node7&#45;&gt;Node11</title>
<path fill="none" stroke="midnightblue" d="M616.65,-112.44C591.19,-103.4 550.84,-89.06 522.28,-78.92"/>
<polygon fill="midnightblue" stroke="midnightblue" points="523.3,-75.57 512.71,-75.52 520.96,-82.16 523.3,-75.57"/>
</g>
<!-- Node12 -->
<g id="node12" class="node">
<title>Node12</title>
<g id="a_node12"><a xlink:href="WalError_8hpp.html" target="_top" xlink:title=" ">
<polygon fill="white" stroke="black" points="884.24,-56.5 884.24,-75.5 1013.24,-75.5 1013.24,-56.5 884.24,-56.5"/>
<text text-anchor="middle" x="948.74" y="-63.5" font-family="Helvetica,sans-Serif" font-size="10.00">Exception/WalError.hpp</text>
</a>
</g>
</g>
<!-- Node7&#45;&gt;Node12 -->
<g id="edge15" class="edge">
<title>Node7&#45;&gt;Node12</title>
<path fill="none" stroke="midnightblue" d="M688.86,-112.56C743.21,-103.03 831.65,-87.53 890.01,-77.3"/>
<polygon fill="midnightblue" stroke="midnightblue" points="890.94,-80.69 900.19,-75.51 889.73,-73.79 890.94,-80.69"/>
</g>
<!-- Node15 -->
<g id="node15" class="node">
<title>Node15</title>
<g id="a_node15"><a xlink:href="TypeHolder_8hpp.html" target="_top" xlink:title=" ">
<polygon fill="white" stroke="black" points="659.74,-56.5 659.74,-75.5 789.74,-75.5 789.74,-56.5 659.74,-56.5"/>
<text text-anchor="middle" x="724.74" y="-63.5" font-family="Helvetica,sans-Serif" font-size="10.00">Models/TypeHolder.hpp</text>
</a>
</g>
</g>
<!-- Node7&#45;&gt;Node15 -->
<g id="edge19" class="edge">
<title>Node7&#45;&gt;Node15</title>
<path fill="none" stroke="midnightblue" d="M654.23,-112.32C667.34,-103.9 687.45,-90.97 702.84,-81.07"/>
<polygon fill="midnightblue" stroke="midnightblue" points="704.75,-84.01 711.27,-75.65 700.97,-78.12 704.75,-84.01"/>
</g>
<!-- Node11&#45;&gt;Node4 -->
<g id="edge12" class="edge">
<title>Node11&#45;&gt;Node4</title>
<path fill="none" stroke="midnightblue" d="M565.41,-59.14C717.99,-47.49 1054.25,-21.81 1161.89,-13.59"/>
<polygon fill="midnightblue" stroke="midnightblue" points="1162.45,-17.05 1172.15,-12.8 1161.91,-10.07 1162.45,-17.05"/>
</g>
<!-- Node11&#45;&gt;Node6 -->
<g id="edge14" class="edge">
<title>Node11&#45;&gt;Node6</title>
<path fill="none" stroke="midnightblue" d="M471.87,-56.32C455.03,-47.66 428.93,-34.24 409.5,-24.25"/>
<polygon fill="midnightblue" stroke="midnightblue" points="411.06,-21.12 400.56,-19.65 407.86,-27.34 411.06,-21.12"/>
</g>
<!-- Node11&#45;&gt;Node8 -->
<g id="edge13" class="edge">
<title>Node11&#45;&gt;Node8</title>
<path fill="none" stroke="midnightblue" d="M508.38,-56.44C528.7,-47.6 560.64,-33.69 583.83,-23.59"/>
<polygon fill="midnightblue" stroke="midnightblue" points="585.41,-26.72 593.18,-19.52 582.61,-20.3 585.41,-26.72"/>
</g>
<!-- Node12&#45;&gt;Node8 -->
<g id="edge18" class="edge">
<title>Node12&#45;&gt;Node8</title>
<path fill="none" stroke="midnightblue" d="M895.5,-56.44C824.94,-45.1 702.67,-25.45 644.83,-16.16"/>
<polygon fill="midnightblue" stroke="midnightblue" points="645.23,-12.68 634.8,-14.55 644.12,-19.59 645.23,-12.68"/>
</g>
<!-- Node13 -->
<g id="node13" class="node">
<title>Node13</title>
<g id="a_node13"><a xlink:title=" ">
<polygon fill="white" stroke="#bfbfbf" points="957.24,-0.5 957.24,-19.5 1022.24,-19.5 1022.24,-0.5 957.24,-0.5"/>
<text text-anchor="middle" x="989.74" y="-7.5" font-family="Helvetica,sans-Serif" font-size="10.00">exception</text>
</a>
</g>
</g>
<!-- Node12&#45;&gt;Node13 -->
<g id="edge16" class="edge">
<title>Node12&#45;&gt;Node13</title>
<path fill="none" stroke="midnightblue" d="M955.51,-56.08C961.3,-48.46 969.79,-37.26 976.87,-27.94"/>
<polygon fill="midnightblue" stroke="midnightblue" points="979.83,-29.83 983.09,-19.75 974.26,-25.6 979.83,-29.83"/>
</g>
<!-- Node14 -->
<g id="node14" class="node">
<title>Node14</title>
<g id="a_node14"><a xlink:title=" ">
<polygon fill="white" stroke="#bfbfbf" points="874.24,-0.5 874.24,-19.5 939.24,-19.5 939.24,-0.5 874.24,-0.5"/>
<text text-anchor="middle" x="906.74" y="-7.5" font-family="Helvetica,sans-Serif" font-size="10.00">stdexcept</text>
</a>
</g>
</g>
<!-- Node12&#45;&gt;Node14 -->
<g id="edge17" class="edge">
<title>Node12&#45;&gt;Node14</title>
<path fill="none" stroke="midnightblue" d="M941.8,-56.08C935.81,-48.38 926.98,-37.03 919.69,-27.65"/>
<polygon fill="midnightblue" stroke="midnightblue" points="922.44,-25.5 913.54,-19.75 916.92,-29.79 922.44,-25.5"/>
</g>
<!-- Node16&#45;&gt;Node4 -->
<g id="edge22" class="edge">
<title>Node16&#45;&gt;Node4</title>
<path fill="none" stroke="midnightblue" d="M992.97,-306.89C1075.36,-294.1 1309.74,-251.8 1309.74,-184.5 1309.74,-184.5 1309.74,-184.5 1309.74,-121 1309.74,-90.9 1310.27,-78.9 1290.74,-56 1274.85,-37.39 1249.55,-25.93 1229.05,-19.24"/>
<polygon fill="midnightblue" stroke="midnightblue" points="1230.02,-15.87 1219.44,-16.32 1227.99,-22.57 1230.02,-15.87"/>
</g>
<!-- Node16&#45;&gt;Node5 -->
<g id="edge25" class="edge">
<title>Node16&#45;&gt;Node5</title>
<path fill="none" stroke="midnightblue" d="M993.02,-305.84C1043.79,-295.1 1150.56,-265.6 1209.74,-199 1238.86,-166.22 1248.31,-113.36 1251.33,-85.52"/>
<polygon fill="midnightblue" stroke="midnightblue" points="1254.82,-85.84 1252.25,-75.56 1247.85,-85.19 1254.82,-85.84"/>
</g>
<!-- Node16&#45;&gt;Node8 -->
<g id="edge23" class="edge">
<title>Node16&#45;&gt;Node8</title>
<path fill="none" stroke="midnightblue" d="M936.7,-308.32C862,-299.44 658.71,-263.61 583.74,-132 564.57,-98.36 586.45,-52.52 601.3,-28.05"/>
<polygon fill="midnightblue" stroke="midnightblue" points="604.32,-29.83 606.73,-19.51 598.41,-26.07 604.32,-29.83"/>
</g>
<!-- Node16&#45;&gt;Node10 -->
<g id="edge24" class="edge">
<title>Node16&#45;&gt;Node10</title>
<path fill="none" stroke="midnightblue" d="M966.09,-302.14C971.19,-267.68 987.74,-142.98 965.74,-112 960.26,-104.29 911.53,-88.72 875.57,-78.07"/>
<polygon fill="midnightblue" stroke="midnightblue" points="876.39,-74.67 865.81,-75.21 874.42,-81.39 876.39,-74.67"/>
</g>
<!-- Node16&#45;&gt;Node12 -->
<g id="edge26" class="edge">
<title>Node16&#45;&gt;Node12</title>
<path fill="none" stroke="midnightblue" d="M969.64,-302.22C984.99,-273.54 1029.25,-180.52 998.74,-112 993.17,-99.5 982.22,-89.01 971.98,-81.32"/>
<polygon fill="midnightblue" stroke="midnightblue" points="973.89,-78.38 963.69,-75.53 969.88,-84.12 973.89,-78.38"/>
</g>
<!-- Node17 -->
<g id="node17" class="node">
<title>Node17</title>
<g id="a_node17"><a xlink:title=" ">
<polygon fill="white" stroke="#bfbfbf" points="1051.24,-112.5 1051.24,-131.5 1096.24,-131.5 1096.24,-112.5 1051.24,-112.5"/>
<text text-anchor="middle" x="1073.74" y="-119.5" font-family="Helvetica,sans-Serif" font-size="10.00">utility</text>
</a>
</g>
</g>
<!-- Node16&#45;&gt;Node17 -->
<g id="edge21" class="edge">
<title>Node16&#45;&gt;Node17</title>
<path fill="none" stroke="midnightblue" d="M971.91,-302.43C979.04,-293.65 989.99,-279.43 997.74,-266 1021.5,-224.8 1016.97,-209.2 1040.74,-168 1046.42,-158.14 1053.84,-147.85 1060.2,-139.6"/>
<polygon fill="midnightblue" stroke="midnightblue" points="1063.1,-141.59 1066.56,-131.57 1057.61,-137.24 1063.1,-141.59"/>
</g>
<!-- Node16&#45;&gt;Node18 -->
<g id="edge27" class="edge">
<title>Node16&#45;&gt;Node18</title>
<path fill="none" stroke="midnightblue" d="M936.72,-306.86C873.73,-297.56 719.42,-274.78 629.61,-261.52"/>
<polygon fill="midnightblue" stroke="midnightblue" points="629.93,-258.03 619.52,-260.03 628.9,-264.96 629.93,-258.03"/>
</g>
<!-- Node24 -->
<g id="node24" class="node">
<title>Node24</title>
<g id="a_node24"><a xlink:href="Callback_8hpp.html" target="_top" xlink:title=" ">
<polygon fill="white" stroke="black" points="1049.74,-174 1049.74,-193 1167.74,-193 1167.74,-174 1049.74,-174"/>
<text text-anchor="middle" x="1108.74" y="-181" font-family="Helvetica,sans-Serif" font-size="10.00">Models/Callback.hpp</text>
</a>
</g>
</g>
<!-- Node16&#45;&gt;Node24 -->
<g id="edge38" class="edge">
<title>Node16&#45;&gt;Node24</title>
<path fill="none" stroke="midnightblue" d="M980.82,-302.5C995.8,-294.2 1018.36,-280.71 1035.74,-266 1059.31,-246.03 1082.4,-218.54 1096.1,-201.14"/>
<polygon fill="midnightblue" stroke="midnightblue" points="1099,-203.11 1102.36,-193.06 1093.47,-198.82 1099,-203.11"/>
</g>
<!-- Node25 -->
<g id="node25" class="node">
<title>Node25</title>
<g id="a_node25"><a xlink:href="Scene_8hpp.html" target="_top" xlink:title=" ">
<polygon fill="white" stroke="black" points="818.24,-241 818.24,-260 917.24,-260 917.24,-241 818.24,-241"/>
<text text-anchor="middle" x="867.74" y="-248" font-family="Helvetica,sans-Serif" font-size="10.00">Scene/Scene.hpp</text>
</a>
</g>
</g>
<!-- Node16&#45;&gt;Node25 -->
<g id="edge42" class="edge">
<title>Node16&#45;&gt;Node25</title>
<path fill="none" stroke="midnightblue" d="M950.84,-302.48C935.06,-292.8 909.1,-276.87 890.39,-265.39"/>
<polygon fill="midnightblue" stroke="midnightblue" points="891.96,-262.25 881.61,-260.01 888.3,-268.22 891.96,-262.25"/>
</g>
<!-- Node18&#45;&gt;Node3 -->
<g id="edge37" class="edge">
<title>Node18&#45;&gt;Node3</title>
<path fill="none" stroke="midnightblue" d="M561.2,-240.73C560.61,-231.18 559.65,-215.62 558.89,-203.28"/>
<polygon fill="midnightblue" stroke="midnightblue" points="562.37,-202.89 558.27,-193.13 555.39,-203.32 562.37,-202.89"/>
</g>
<!-- Node18&#45;&gt;Node7 -->
<g id="edge28" class="edge">
<title>Node18&#45;&gt;Node7</title>
<path fill="none" stroke="midnightblue" d="M567.17,-240.81C580.08,-220.13 612.8,-167.73 629.92,-140.32"/>
<polygon fill="midnightblue" stroke="midnightblue" points="632.94,-142.09 635.27,-131.76 627,-138.38 632.94,-142.09"/>
</g>
<!-- Node18&#45;&gt;Node19 -->
<g id="edge29" class="edge">
<title>Node18&#45;&gt;Node19</title>
<path fill="none" stroke="midnightblue" d="M592.94,-240.87C634.93,-229.25 709.69,-208.58 756.05,-195.75"/>
<polygon fill="midnightblue" stroke="midnightblue" points="757.07,-199.1 765.77,-193.06 755.2,-192.36 757.07,-199.1"/>
</g>
<!-- Node19&#45;&gt;Node6 -->
<g id="edge32" class="edge">
<title>Node19&#45;&gt;Node6</title>
<path fill="none" stroke="midnightblue" d="M756.31,-173.99C660.93,-153.58 427.96,-101.63 402.74,-76 390.76,-63.84 386.26,-44.56 384.6,-30.16"/>
<polygon fill="midnightblue" stroke="midnightblue" points="388.07,-29.57 383.8,-19.87 381.09,-30.12 388.07,-29.57"/>
</g>
<!-- Node19&#45;&gt;Node7 -->
<g id="edge36" class="edge">
<title>Node19&#45;&gt;Node7</title>
<path fill="none" stroke="midnightblue" d="M774.38,-173.98C747.74,-163.81 703.02,-146.76 672.72,-135.2"/>
<polygon fill="midnightblue" stroke="midnightblue" points="673.64,-131.8 663.05,-131.51 671.14,-138.34 673.64,-131.8"/>
</g>
<!-- Node19&#45;&gt;Node17 -->
<g id="edge34" class="edge">
<title>Node19&#45;&gt;Node17</title>
<path fill="none" stroke="midnightblue" d="M836.42,-173.98C891.56,-162.13 990.31,-140.92 1041.29,-129.97"/>
<polygon fill="midnightblue" stroke="midnightblue" points="1042.08,-133.38 1051.12,-127.86 1040.61,-126.54 1042.08,-133.38"/>
</g>
<!-- Node20 -->
<g id="node20" class="node">
<title>Node20</title>
<g id="a_node20"><a xlink:title=" ">
<polygon fill="white" stroke="#bfbfbf" points="840.74,-112.5 840.74,-131.5 872.74,-131.5 872.74,-112.5 840.74,-112.5"/>
<text text-anchor="middle" x="856.74" y="-119.5" font-family="Helvetica,sans-Serif" font-size="10.00">list</text>
</a>
</g>
</g>
<!-- Node19&#45;&gt;Node20 -->
<g id="edge30" class="edge">
<title>Node19&#45;&gt;Node20</title>
<path fill="none" stroke="midnightblue" d="M805.33,-173.98C814.6,-164.78 829.55,-149.96 840.95,-138.66"/>
<polygon fill="midnightblue" stroke="midnightblue" points="843.52,-141.04 848.15,-131.51 838.59,-136.07 843.52,-141.04"/>
</g>
<!-- Node21 -->
<g id="node21" class="node">
<title>Node21</title>
<g id="a_node21"><a xlink:title=" ">
<polygon fill="white" stroke="#bfbfbf" points="707.24,-112.5 707.24,-131.5 748.24,-131.5 748.24,-112.5 707.24,-112.5"/>
<text text-anchor="middle" x="727.74" y="-119.5" font-family="Helvetica,sans-Serif" font-size="10.00">tuple</text>
</a>
</g>
</g>
<!-- Node19&#45;&gt;Node21 -->
<g id="edge31" class="edge">
<title>Node19&#45;&gt;Node21</title>
<path fill="none" stroke="midnightblue" d="M786.85,-173.98C776.09,-164.7 758.66,-149.67 745.51,-138.33"/>
<polygon fill="midnightblue" stroke="midnightblue" points="747.46,-135.39 737.6,-131.51 742.89,-140.69 747.46,-135.39"/>
</g>
<!-- Node22 -->
<g id="node22" class="node">
<title>Node22</title>
<g id="a_node22"><a xlink:title=" ">
<polygon fill="white" stroke="#bfbfbf" points="891.24,-112.5 891.24,-131.5 956.24,-131.5 956.24,-112.5 891.24,-112.5"/>
<text text-anchor="middle" x="923.74" y="-119.5" font-family="Helvetica,sans-Serif" font-size="10.00">functional</text>
</a>
</g>
</g>
<!-- Node19&#45;&gt;Node22 -->
<g id="edge33" class="edge">
<title>Node19&#45;&gt;Node22</title>
<path fill="none" stroke="midnightblue" d="M814.93,-173.98C836.24,-163.99 871.77,-147.35 896.4,-135.81"/>
<polygon fill="midnightblue" stroke="midnightblue" points="898,-138.92 905.57,-131.51 895.03,-132.58 898,-138.92"/>
</g>
<!-- Node23 -->
<g id="node23" class="node">
<title>Node23</title>
<g id="a_node23"><a xlink:title=" ">
<polygon fill="white" stroke="#bfbfbf" points="766.74,-112.5 766.74,-131.5 822.74,-131.5 822.74,-112.5 766.74,-112.5"/>
<text text-anchor="middle" x="794.74" y="-119.5" font-family="Helvetica,sans-Serif" font-size="10.00">optional</text>
</a>
</g>
</g>
<!-- Node19&#45;&gt;Node23 -->
<g id="edge35" class="edge">
<title>Node19&#45;&gt;Node23</title>
<path fill="none" stroke="midnightblue" d="M796.45,-173.98C796.17,-165.58 795.73,-152.48 795.36,-141.66"/>
<polygon fill="midnightblue" stroke="midnightblue" points="798.86,-141.39 795.02,-131.51 791.86,-141.62 798.86,-141.39"/>
</g>
<!-- Node24&#45;&gt;Node9 -->
<g id="edge41" class="edge">
<title>Node24&#45;&gt;Node9</title>
<path fill="none" stroke="midnightblue" d="M1109.56,-173.82C1111.33,-155.26 1115.51,-111.34 1117.93,-85.97"/>
<polygon fill="midnightblue" stroke="midnightblue" points="1121.44,-86.07 1118.9,-75.78 1114.47,-85.41 1121.44,-86.07"/>
</g>
<!-- Node24&#45;&gt;Node17 -->
<g id="edge40" class="edge">
<title>Node24&#45;&gt;Node17</title>
<path fill="none" stroke="midnightblue" d="M1103.72,-173.98C1098.57,-165.23 1090.42,-151.37 1083.92,-140.31"/>
<polygon fill="midnightblue" stroke="midnightblue" points="1086.83,-138.35 1078.74,-131.51 1080.79,-141.9 1086.83,-138.35"/>
</g>
<!-- Node24&#45;&gt;Node22 -->
<g id="edge39" class="edge">
<title>Node24&#45;&gt;Node22</title>
<path fill="none" stroke="midnightblue" d="M1082.23,-173.98C1050.08,-163.64 995.75,-146.16 959.81,-134.6"/>
<polygon fill="midnightblue" stroke="midnightblue" points="960.78,-131.24 950.19,-131.51 958.64,-137.9 960.78,-131.24"/>
</g>
<!-- Node25&#45;&gt;Node4 -->
<g id="edge43" class="edge">
<title>Node25&#45;&gt;Node4</title>
<path fill="none" stroke="midnightblue" d="M917.27,-248.48C995.47,-245.74 1142.19,-235.73 1176.74,-199 1220.73,-152.22 1208.55,-67.06 1200.38,-29.57"/>
<polygon fill="midnightblue" stroke="midnightblue" points="1203.73,-28.5 1198.04,-19.55 1196.91,-30.09 1203.73,-28.5"/>
</g>
<!-- Node25&#45;&gt;Node7 -->
<g id="edge47" class="edge">
<title>Node25&#45;&gt;Node7</title>
<path fill="none" stroke="midnightblue" d="M841.22,-240.86C815.49,-231.99 775.77,-216.97 743.74,-199 739.32,-196.52 689.04,-159.09 660.4,-137.7"/>
<polygon fill="midnightblue" stroke="midnightblue" points="662.39,-134.82 652.28,-131.64 658.2,-140.43 662.39,-134.82"/>
</g>
<!-- Node25&#45;&gt;Node19 -->
<g id="edge46" class="edge">
<title>Node25&#45;&gt;Node19</title>
<path fill="none" stroke="midnightblue" d="M858.16,-240.73C846.77,-230.31 827.55,-212.71 813.64,-199.97"/>
<polygon fill="midnightblue" stroke="midnightblue" points="815.9,-197.3 806.16,-193.13 811.17,-202.46 815.9,-197.3"/>
</g>
<!-- Node25&#45;&gt;Node20 -->
<g id="edge44" class="edge">
<title>Node25&#45;&gt;Node20</title>
<path fill="none" stroke="midnightblue" d="M866.98,-240.81C865.21,-220.49 860.78,-169.55 858.37,-141.78"/>
<polygon fill="midnightblue" stroke="midnightblue" points="861.85,-141.41 857.5,-131.76 854.88,-142.02 861.85,-141.41"/>
</g>
<!-- Node25&#45;&gt;Node22 -->
<g id="edge45" class="edge">
<title>Node25&#45;&gt;Node22</title>
<path fill="none" stroke="midnightblue" d="M871.58,-240.81C880.66,-220.31 903.53,-168.65 915.75,-141.04"/>
<polygon fill="midnightblue" stroke="midnightblue" points="919.01,-142.32 919.86,-131.76 912.61,-139.48 919.01,-142.32"/>
</g>
<!-- Node28&#45;&gt;Node7 -->
<g id="edge57" class="edge">
<title>Node28&#45;&gt;Node7</title>
<path fill="none" stroke="midnightblue" d="M448.9,-168.47C493.53,-157.9 553.86,-143.59 594.86,-133.87"/>
<polygon fill="midnightblue" stroke="midnightblue" points="595.93,-137.22 604.85,-131.51 594.31,-130.41 595.93,-137.22"/>
</g>
<!-- Node28&#45;&gt;Node11 -->
<g id="edge56" class="edge">
<title>Node28&#45;&gt;Node11</title>
<path fill="none" stroke="midnightblue" d="M422.13,-168.47C438.21,-160.02 456.71,-147.81 468.74,-132 479,-118.5 484.04,-99.7 486.49,-85.78"/>
<polygon fill="midnightblue" stroke="midnightblue" points="489.96,-86.27 487.95,-75.87 483.03,-85.25 489.96,-86.27"/>
</g>
<!-- Node29 -->
<g id="node29" class="node">
<title>Node29</title>
<g id="a_node29"><a xlink:href="Gamepad_8hpp.html" target="_top" xlink:title=" ">
<polygon fill="white" stroke="black" points="319.24,-112.5 319.24,-131.5 460.24,-131.5 460.24,-112.5 319.24,-112.5"/>
<text text-anchor="middle" x="389.74" y="-119.5" font-family="Helvetica,sans-Serif" font-size="10.00">Controllers/Gamepad.hpp</text>
</a>
</g>
</g>
<!-- Node28&#45;&gt;Node29 -->
<g id="edge53" class="edge">
<title>Node28&#45;&gt;Node29</title>
<path fill="none" stroke="midnightblue" d="M389.74,-168.4C389.74,-160.47 389.74,-150.46 389.74,-141.86"/>
<polygon fill="midnightblue" stroke="midnightblue" points="393.24,-141.66 389.74,-131.66 386.24,-141.66 393.24,-141.66"/>
</g>
<!-- Node29&#45;&gt;Node4 -->
<g id="edge55" class="edge">
<title>Node29&#45;&gt;Node4</title>
<path fill="none" stroke="midnightblue" d="M460.28,-117.47C613.97,-109.56 969.53,-90.02 1022.74,-76 1042.73,-70.73 1045.59,-63.82 1064.74,-56 1097.31,-42.7 1135.44,-29.9 1162.13,-21.38"/>
<polygon fill="midnightblue" stroke="midnightblue" points="1163.29,-24.68 1171.77,-18.33 1161.18,-18.01 1163.29,-24.68"/>
</g>
<!-- Node30 -->
<g id="node30" class="node">
<title>Node30</title>
<g id="a_node30"><a xlink:title=" ">
<polygon fill="white" stroke="#bfbfbf" points="203.24,-56.5 203.24,-75.5 256.24,-75.5 256.24,-56.5 203.24,-56.5"/>
<text text-anchor="middle" x="229.74" y="-63.5" font-family="Helvetica,sans-Serif" font-size="10.00">raylib.h</text>
</a>
</g>
</g>
<!-- Node29&#45;&gt;Node30 -->
<g id="edge54" class="edge">
<title>Node29&#45;&gt;Node30</title>
<path fill="none" stroke="midnightblue" d="M364.38,-112.44C337.47,-103.36 294.74,-88.94 264.65,-78.78"/>
<polygon fill="midnightblue" stroke="midnightblue" points="265.56,-75.4 254.97,-75.52 263.33,-82.03 265.56,-75.4"/>
</g>
<!-- Node31&#45;&gt;Node3 -->
<g id="edge66" class="edge">
<title>Node31&#45;&gt;Node3</title>
<path fill="none" stroke="midnightblue" d="M208.99,-244.54C288.05,-238.32 413.23,-225.12 518.74,-199 521.72,-198.26 524.8,-197.36 527.85,-196.39"/>
<polygon fill="midnightblue" stroke="midnightblue" points="529.08,-199.66 537.36,-193.06 526.77,-193.06 529.08,-199.66"/>
</g>
<!-- Node31&#45;&gt;Node7 -->
<g id="edge65" class="edge">
<title>Node31&#45;&gt;Node7</title>
<path fill="none" stroke="midnightblue" d="M208.8,-249.97C282.71,-247.78 395.36,-237.49 484.74,-199 505.07,-190.24 504.51,-178.99 523.74,-168 548.37,-153.92 578.26,-142.51 601.66,-134.7"/>
<polygon fill="midnightblue" stroke="midnightblue" points="602.83,-138 611.26,-131.58 600.66,-131.34 602.83,-138"/>
</g>
<!-- Node31&#45;&gt;Node11 -->
<g id="edge64" class="edge">
<title>Node31&#45;&gt;Node11</title>
<path fill="none" stroke="midnightblue" d="M149.01,-235.31C193.7,-200.62 305.23,-114.18 309.74,-112 344.26,-95.3 385.63,-84.37 419.89,-77.48"/>
<polygon fill="midnightblue" stroke="midnightblue" points="420.67,-80.9 429.82,-75.56 419.34,-74.02 420.67,-80.9"/>
</g>
<!-- Node32 -->
<g id="node32" class="node">
<title>Node32</title>
<g id="a_node32"><a xlink:href="sources_2Models_2Vector2_8hpp.html" target="_top" xlink:title=" ">
<polygon fill="white" stroke="black" points="74.24,-174 74.24,-193 187.24,-193 187.24,-174 74.24,-174"/>
<text text-anchor="middle" x="130.74" y="-181" font-family="Helvetica,sans-Serif" font-size="10.00">Models/Vector2.hpp</text>
</a>
</g>
</g>
<!-- Node31&#45;&gt;Node32 -->
<g id="edge59" class="edge">
<title>Node31&#45;&gt;Node32</title>
<path fill="none" stroke="midnightblue" d="M130.74,-235.4C130.74,-226.06 130.74,-213.71 130.74,-203.52"/>
<polygon fill="midnightblue" stroke="midnightblue" points="134.24,-203.19 130.74,-193.19 127.24,-203.19 134.24,-203.19"/>
</g>
<!-- Node32&#45;&gt;Node26 -->
<g id="edge60" class="edge">
<title>Node32&#45;&gt;Node26</title>
<path fill="none" stroke="midnightblue" d="M145.35,-173.98C162.09,-164.21 189.74,-148.08 209.45,-136.58"/>
<polygon fill="midnightblue" stroke="midnightblue" points="211.27,-139.57 218.15,-131.51 207.75,-133.52 211.27,-139.57"/>
</g>
<!-- Node33 -->
<g id="node33" class="node">
<title>Node33</title>
<g id="a_node33"><a xlink:title=" ">
<polygon fill="white" stroke="#bfbfbf" points="11.24,-112.5 11.24,-131.5 58.24,-131.5 58.24,-112.5 11.24,-112.5"/>
<text text-anchor="middle" x="34.74" y="-119.5" font-family="Helvetica,sans-Serif" font-size="10.00">cmath</text>
</a>
</g>
</g>
<!-- Node32&#45;&gt;Node33 -->
<g id="edge61" class="edge">
<title>Node32&#45;&gt;Node33</title>
<path fill="none" stroke="midnightblue" d="M116.98,-173.98C101.37,-164.3 75.67,-148.37 57.15,-136.89"/>
<polygon fill="midnightblue" stroke="midnightblue" points="58.81,-133.8 48.46,-131.51 55.12,-139.75 58.81,-133.8"/>
</g>
<!-- Node34 -->
<g id="node34" class="node">
<title>Node34</title>
<g id="a_node34"><a xlink:href="lib_2Ray_2sources_2Vector_2Vector2_8hpp.html" target="_top" xlink:title=" ">
<polygon fill="white" stroke="black" points="76.74,-112.5 76.74,-131.5 184.74,-131.5 184.74,-112.5 76.74,-112.5"/>
<text text-anchor="middle" x="130.74" y="-119.5" font-family="Helvetica,sans-Serif" font-size="10.00">Vector/Vector2.hpp</text>
</a>
</g>
</g>
<!-- Node32&#45;&gt;Node34 -->
<g id="edge62" class="edge">
<title>Node32&#45;&gt;Node34</title>
<path fill="none" stroke="midnightblue" d="M130.74,-173.98C130.74,-165.58 130.74,-152.48 130.74,-141.66"/>
<polygon fill="midnightblue" stroke="midnightblue" points="134.24,-141.51 130.74,-131.51 127.24,-141.51 134.24,-141.51"/>
</g>
<!-- Node34&#45;&gt;Node30 -->
<g id="edge63" class="edge">
<title>Node34&#45;&gt;Node30</title>
<path fill="none" stroke="midnightblue" d="M146.64,-112.32C162.37,-103.74 186.68,-90.49 204.94,-80.52"/>
<polygon fill="midnightblue" stroke="midnightblue" points="206.77,-83.52 213.87,-75.65 203.41,-77.37 206.77,-83.52"/>
</g>
</g>
</svg>
