<?xml version="1.0" encoding="UTF-8" standalone="no"?>
<!DOCTYPE svg PUBLIC "-//W3C//DTD SVG 1.1//EN"
 "http://www.w3.org/Graphics/SVG/1.1/DTD/svg11.dtd">
<!-- Generated by graphviz version 2.43.0 (0)
 -->
<!-- Title: sources/Models/GameState.hpp Pages: 1 -->
<svg width="1069pt" height="308pt"
 viewBox="0.00 0.00 1069.00 308.00" xmlns="http://www.w3.org/2000/svg" xmlns:xlink="http://www.w3.org/1999/xlink">
<g id="graph0" class="graph" transform="scale(1 1) rotate(0) translate(4 304)">
<title>sources/Models/GameState.hpp</title>
<polygon fill="white" stroke="transparent" points="-4,4 -4,-304 1065,-304 1065,4 -4,4"/>
<!-- Node1 -->
<g id="node1" class="node">
<title>Node1</title>
<g id="a_node1"><a xlink:title=" ">
<polygon fill="#bfbfbf" stroke="black" points="349,-280.5 349,-299.5 520,-299.5 520,-280.5 349,-280.5"/>
<text text-anchor="middle" x="434.5" y="-287.5" font-family="Helvetica,sans-Serif" font-size="10.00">sources/Models/GameState.hpp</text>
</a>
</g>
</g>
<!-- Node2 -->
<g id="node2" class="node">
<title>Node2</title>
<g id="a_node2"><a xlink:title=" ">
<polygon fill="white" stroke="#bfbfbf" points="968,-56.5 968,-75.5 1061,-75.5 1061,-56.5 968,-56.5"/>
<text text-anchor="middle" x="1014.5" y="-63.5" font-family="Helvetica,sans-Serif" font-size="10.00">unordered_map</text>
</a>
</g>
</g>
<!-- Node1&#45;&gt;Node2 -->
<g id="edge1" class="edge">
<title>Node1&#45;&gt;Node2</title>
<path fill="none" stroke="midnightblue" d="M456.88,-280.43C546.33,-246.2 878.31,-119.13 982.8,-79.13"/>
<polygon fill="midnightblue" stroke="midnightblue" points="984.1,-82.38 992.19,-75.54 981.59,-75.85 984.1,-82.38"/>
</g>
<!-- Node3 -->
<g id="node3" class="node">
<title>Node3</title>
<g id="a_node3"><a xlink:href="Scene_8hpp.html" target="_top" xlink:title=" ">
<polygon fill="white" stroke="black" points="309,-224.5 309,-243.5 408,-243.5 408,-224.5 309,-224.5"/>
<text text-anchor="middle" x="358.5" y="-231.5" font-family="Helvetica,sans-Serif" font-size="10.00">Scene/Scene.hpp</text>
</a>
</g>
</g>
<!-- Node1&#45;&gt;Node3 -->
<g id="edge2" class="edge">
<title>Node1&#45;&gt;Node3</title>
<path fill="none" stroke="midnightblue" d="M422.29,-280.32C410.72,-272.11 393.12,-259.6 379.34,-249.81"/>
<polygon fill="midnightblue" stroke="midnightblue" points="381.11,-246.77 370.93,-243.83 377.06,-252.48 381.11,-246.77"/>
</g>
<!-- Node4 -->
<g id="node4" class="node">
<title>Node4</title>
<g id="a_node4"><a xlink:title=" ">
<polygon fill="white" stroke="#bfbfbf" points="312,-0.5 312,-19.5 359,-19.5 359,-0.5 312,-0.5"/>
<text text-anchor="middle" x="335.5" y="-7.5" font-family="Helvetica,sans-Serif" font-size="10.00">vector</text>
</a>
</g>
</g>
<!-- Node3&#45;&gt;Node4 -->
<g id="edge3" class="edge">
<title>Node3&#45;&gt;Node4</title>
<path fill="none" stroke="midnightblue" d="M361.32,-224.36C367.59,-203.44 380.56,-149.08 359.5,-112 344.51,-85.62 316.25,-102.51 301.5,-76 292.29,-59.44 305.27,-40.17 317.76,-26.94"/>
<polygon fill="midnightblue" stroke="midnightblue" points="320.22,-29.42 324.89,-19.91 315.31,-24.44 320.22,-29.42"/>
</g>
<!-- Node5 -->
<g id="node5" class="node">
<title>Node5</title>
<g id="a_node5"><a xlink:title=" ">
<polygon fill="white" stroke="#bfbfbf" points="318.5,-112.5 318.5,-131.5 350.5,-131.5 350.5,-112.5 318.5,-112.5"/>
<text text-anchor="middle" x="334.5" y="-119.5" font-family="Helvetica,sans-Serif" font-size="10.00">list</text>
</a>
</g>
</g>
<!-- Node3&#45;&gt;Node5 -->
<g id="edge4" class="edge">
<title>Node3&#45;&gt;Node5</title>
<path fill="none" stroke="midnightblue" d="M356.62,-224.37C352.74,-206.62 343.81,-165.67 338.56,-141.6"/>
<polygon fill="midnightblue" stroke="midnightblue" points="341.93,-140.62 336.37,-131.59 335.09,-142.11 341.93,-140.62"/>
</g>
<!-- Node6 -->
<g id="node6" class="node">
<title>Node6</title>
<g id="a_node6"><a xlink:title=" ">
<polygon fill="white" stroke="#bfbfbf" points="0,-112.5 0,-131.5 65,-131.5 65,-112.5 0,-112.5"/>
<text text-anchor="middle" x="32.5" y="-119.5" font-family="Helvetica,sans-Serif" font-size="10.00">functional</text>
</a>
</g>
</g>
<!-- Node3&#45;&gt;Node6 -->
<g id="edge5" class="edge">
<title>Node3&#45;&gt;Node6</title>
<path fill="none" stroke="midnightblue" d="M316.57,-224.47C280.13,-216.56 226.17,-203.68 180.5,-188 136.62,-172.94 87.7,-150.22 58.54,-136.02"/>
<polygon fill="midnightblue" stroke="midnightblue" points="59.97,-132.82 49.45,-131.55 56.88,-139.1 59.97,-132.82"/>
</g>
<!-- Node7 -->
<g id="node7" class="node">
<title>Node7</title>
<g id="a_node7"><a xlink:href="View_8hpp.html" target="_top" xlink:title=" ">
<polygon fill="white" stroke="black" points="189.5,-168.5 189.5,-187.5 277.5,-187.5 277.5,-168.5 189.5,-168.5"/>
<text text-anchor="middle" x="233.5" y="-175.5" font-family="Helvetica,sans-Serif" font-size="10.00">View/View.hpp</text>
</a>
</g>
</g>
<!-- Node3&#45;&gt;Node7 -->
<g id="edge6" class="edge">
<title>Node3&#45;&gt;Node7</title>
<path fill="none" stroke="midnightblue" d="M338.69,-224.44C318.21,-215.6 286.02,-201.69 262.64,-191.59"/>
<polygon fill="midnightblue" stroke="midnightblue" points="263.78,-188.27 253.21,-187.52 261.01,-194.7 263.78,-188.27"/>
</g>
<!-- Node12 -->
<g id="node12" class="node">
<title>Node12</title>
<g id="a_node12"><a xlink:href="Entity_8hpp.html" target="_top" xlink:title=" ">
<polygon fill="white" stroke="black" points="501.5,-112.5 501.5,-131.5 597.5,-131.5 597.5,-112.5 501.5,-112.5"/>
<text text-anchor="middle" x="549.5" y="-119.5" font-family="Helvetica,sans-Serif" font-size="10.00">Entity/Entity.hpp</text>
</a>
</g>
</g>
<!-- Node3&#45;&gt;Node12 -->
<g id="edge27" class="edge">
<title>Node3&#45;&gt;Node12</title>
<path fill="none" stroke="midnightblue" d="M373.49,-224.37C406.54,-205.33 485.92,-159.62 525.8,-136.65"/>
<polygon fill="midnightblue" stroke="midnightblue" points="527.66,-139.62 534.58,-131.59 524.17,-133.55 527.66,-139.62"/>
</g>
<!-- Node7&#45;&gt;Node5 -->
<g id="edge7" class="edge">
<title>Node7&#45;&gt;Node5</title>
<path fill="none" stroke="midnightblue" d="M249.73,-168.32C265.85,-159.7 290.8,-146.36 309.46,-136.39"/>
<polygon fill="midnightblue" stroke="midnightblue" points="311.14,-139.46 318.31,-131.65 307.84,-133.28 311.14,-139.46"/>
</g>
<!-- Node7&#45;&gt;Node6 -->
<g id="edge10" class="edge">
<title>Node7&#45;&gt;Node6</title>
<path fill="none" stroke="midnightblue" d="M201.65,-168.44C167.1,-159.16 111.82,-144.31 73.92,-134.13"/>
<polygon fill="midnightblue" stroke="midnightblue" points="74.77,-130.73 64.2,-131.52 72.95,-137.49 74.77,-130.73"/>
</g>
<!-- Node8 -->
<g id="node8" class="node">
<title>Node8</title>
<g id="a_node8"><a xlink:title=" ">
<polygon fill="white" stroke="#bfbfbf" points="122,-112.5 122,-131.5 163,-131.5 163,-112.5 122,-112.5"/>
<text text-anchor="middle" x="142.5" y="-119.5" font-family="Helvetica,sans-Serif" font-size="10.00">tuple</text>
</a>
</g>
</g>
<!-- Node7&#45;&gt;Node8 -->
<g id="edge8" class="edge">
<title>Node7&#45;&gt;Node8</title>
<path fill="none" stroke="midnightblue" d="M218.88,-168.32C204.55,-159.82 182.49,-146.73 165.75,-136.8"/>
<polygon fill="midnightblue" stroke="midnightblue" points="167.47,-133.75 157.08,-131.65 163.9,-139.77 167.47,-133.75"/>
</g>
<!-- Node9 -->
<g id="node9" class="node">
<title>Node9</title>
<g id="a_node9"><a xlink:title=" ">
<polygon fill="white" stroke="#bfbfbf" points="167,-0.5 167,-19.5 232,-19.5 232,-0.5 167,-0.5"/>
<text text-anchor="middle" x="199.5" y="-7.5" font-family="Helvetica,sans-Serif" font-size="10.00">typeindex</text>
</a>
</g>
</g>
<!-- Node7&#45;&gt;Node9 -->
<g id="edge9" class="edge">
<title>Node7&#45;&gt;Node9</title>
<path fill="none" stroke="midnightblue" d="M197.71,-168.5C165.78,-160.1 122.54,-146.45 112.5,-132 85.39,-92.99 141.91,-47.7 176.05,-25.2"/>
<polygon fill="midnightblue" stroke="midnightblue" points="178.06,-28.08 184.59,-19.74 174.28,-22.18 178.06,-28.08"/>
</g>
<!-- Node10 -->
<g id="node10" class="node">
<title>Node10</title>
<g id="a_node10"><a xlink:title=" ">
<polygon fill="white" stroke="#bfbfbf" points="181,-112.5 181,-131.5 226,-131.5 226,-112.5 181,-112.5"/>
<text text-anchor="middle" x="203.5" y="-119.5" font-family="Helvetica,sans-Serif" font-size="10.00">utility</text>
</a>
</g>
</g>
<!-- Node7&#45;&gt;Node10 -->
<g id="edge11" class="edge">
<title>Node7&#45;&gt;Node10</title>
<path fill="none" stroke="midnightblue" d="M228.55,-168.08C224.4,-160.61 218.35,-149.72 213.23,-140.52"/>
<polygon fill="midnightblue" stroke="midnightblue" points="216.28,-138.79 208.36,-131.75 210.16,-142.19 216.28,-138.79"/>
</g>
<!-- Node11 -->
<g id="node11" class="node">
<title>Node11</title>
<g id="a_node11"><a xlink:title=" ">
<polygon fill="white" stroke="#bfbfbf" points="244.5,-112.5 244.5,-131.5 300.5,-131.5 300.5,-112.5 244.5,-112.5"/>
<text text-anchor="middle" x="272.5" y="-119.5" font-family="Helvetica,sans-Serif" font-size="10.00">optional</text>
</a>
</g>
</g>
<!-- Node7&#45;&gt;Node11 -->
<g id="edge12" class="edge">
<title>Node7&#45;&gt;Node11</title>
<path fill="none" stroke="midnightblue" d="M239.94,-168.08C245.45,-160.46 253.53,-149.26 260.26,-139.94"/>
<polygon fill="midnightblue" stroke="midnightblue" points="263.16,-141.91 266.18,-131.75 257.49,-137.81 263.16,-141.91"/>
</g>
<!-- Node7&#45;&gt;Node12 -->
<g id="edge13" class="edge">
<title>Node7&#45;&gt;Node12</title>
<path fill="none" stroke="midnightblue" d="M277.77,-169.43C333.6,-159.89 429.74,-143.46 491.42,-132.92"/>
<polygon fill="midnightblue" stroke="midnightblue" points="492.12,-136.36 501.39,-131.22 490.94,-129.46 492.12,-136.36"/>
</g>
<!-- Node12&#45;&gt;Node2 -->
<g id="edge15" class="edge">
<title>Node12&#45;&gt;Node2</title>
<path fill="none" stroke="midnightblue" d="M597.57,-116.56C672.39,-109.46 821.45,-94.58 957.53,-76.21"/>
<polygon fill="midnightblue" stroke="midnightblue" points="958.28,-79.64 967.72,-74.83 957.34,-72.71 958.28,-79.64"/>
</g>
<!-- Node13 -->
<g id="node13" class="node">
<title>Node13</title>
<g id="a_node13"><a xlink:title=" ">
<polygon fill="white" stroke="#bfbfbf" points="470.5,-0.5 470.5,-19.5 514.5,-19.5 514.5,-0.5 470.5,-0.5"/>
<text text-anchor="middle" x="492.5" y="-7.5" font-family="Helvetica,sans-Serif" font-size="10.00">string</text>
</a>
</g>
</g>
<!-- Node12&#45;&gt;Node13 -->
<g id="edge14" class="edge">
<title>Node12&#45;&gt;Node13</title>
<path fill="none" stroke="midnightblue" d="M540.09,-112.2C531.51,-103.69 519.05,-90.05 511.5,-76 503.68,-61.43 498.72,-43.26 495.83,-29.83"/>
<polygon fill="midnightblue" stroke="midnightblue" points="499.24,-29 493.88,-19.86 492.37,-30.34 499.24,-29"/>
</g>
<!-- Node14 -->
<g id="node14" class="node">
<title>Node14</title>
<g id="a_node14"><a xlink:title=" ">
<polygon fill="white" stroke="#bfbfbf" points="521,-56.5 521,-75.5 578,-75.5 578,-56.5 521,-56.5"/>
<text text-anchor="middle" x="549.5" y="-63.5" font-family="Helvetica,sans-Serif" font-size="10.00">typeinfo</text>
</a>
</g>
</g>
<!-- Node12&#45;&gt;Node14 -->
<g id="edge16" class="edge">
<title>Node12&#45;&gt;Node14</title>
<path fill="none" stroke="midnightblue" d="M549.5,-112.08C549.5,-105.01 549.5,-94.86 549.5,-85.99"/>
<polygon fill="midnightblue" stroke="midnightblue" points="553,-85.75 549.5,-75.75 546,-85.75 553,-85.75"/>
</g>
<!-- Node15 -->
<g id="node15" class="node">
<title>Node15</title>
<g id="a_node15"><a xlink:title=" ">
<polygon fill="white" stroke="#bfbfbf" points="596.5,-56.5 596.5,-75.5 654.5,-75.5 654.5,-56.5 596.5,-56.5"/>
<text text-anchor="middle" x="625.5" y="-63.5" font-family="Helvetica,sans-Serif" font-size="10.00">memory</text>
</a>
</g>
</g>
<!-- Node12&#45;&gt;Node15 -->
<g id="edge17" class="edge">
<title>Node12&#45;&gt;Node15</title>
<path fill="none" stroke="midnightblue" d="M561.71,-112.32C573.28,-104.11 590.88,-91.6 604.66,-81.81"/>
<polygon fill="midnightblue" stroke="midnightblue" points="606.94,-84.48 613.07,-75.83 602.89,-78.77 606.94,-84.48"/>
</g>
<!-- Node16 -->
<g id="node16" class="node">
<title>Node16</title>
<g id="a_node16"><a xlink:href="Component_8hpp.html" target="_top" xlink:title=" ">
<polygon fill="white" stroke="black" points="311,-56.5 311,-75.5 464,-75.5 464,-56.5 311,-56.5"/>
<text text-anchor="middle" x="387.5" y="-63.5" font-family="Helvetica,sans-Serif" font-size="10.00">Component/Component.hpp</text>
</a>
</g>
</g>
<!-- Node12&#45;&gt;Node16 -->
<g id="edge18" class="edge">
<title>Node12&#45;&gt;Node16</title>
<path fill="none" stroke="midnightblue" d="M523.83,-112.44C496.58,-103.36 453.32,-88.94 422.85,-78.78"/>
<polygon fill="midnightblue" stroke="midnightblue" points="423.64,-75.36 413.05,-75.52 421.43,-82 423.64,-75.36"/>
</g>
<!-- Node17 -->
<g id="node17" class="node">
<title>Node17</title>
<g id="a_node17"><a xlink:href="WalError_8hpp.html" target="_top" xlink:title=" ">
<polygon fill="white" stroke="black" points="821,-56.5 821,-75.5 950,-75.5 950,-56.5 821,-56.5"/>
<text text-anchor="middle" x="885.5" y="-63.5" font-family="Helvetica,sans-Serif" font-size="10.00">Exception/WalError.hpp</text>
</a>
</g>
</g>
<!-- Node12&#45;&gt;Node17 -->
<g id="edge22" class="edge">
<title>Node12&#45;&gt;Node17</title>
<path fill="none" stroke="midnightblue" d="M597.64,-113.26C656.72,-103.77 757.06,-87.64 822.3,-77.16"/>
<polygon fill="midnightblue" stroke="midnightblue" points="823.14,-80.57 832.46,-75.52 822.03,-73.66 823.14,-80.57"/>
</g>
<!-- Node20 -->
<g id="node20" class="node">
<title>Node20</title>
<g id="a_node20"><a xlink:href="TypeHolder_8hpp.html" target="_top" xlink:title=" ">
<polygon fill="white" stroke="black" points="672.5,-56.5 672.5,-75.5 802.5,-75.5 802.5,-56.5 672.5,-56.5"/>
<text text-anchor="middle" x="737.5" y="-63.5" font-family="Helvetica,sans-Serif" font-size="10.00">Models/TypeHolder.hpp</text>
</a>
</g>
</g>
<!-- Node12&#45;&gt;Node20 -->
<g id="edge26" class="edge">
<title>Node12&#45;&gt;Node20</title>
<path fill="none" stroke="midnightblue" d="M579.29,-112.44C611.33,-103.24 662.43,-88.56 697.85,-78.39"/>
<polygon fill="midnightblue" stroke="midnightblue" points="699.21,-81.64 707.85,-75.52 697.27,-74.91 699.21,-81.64"/>
</g>
<!-- Node16&#45;&gt;Node4 -->
<g id="edge19" class="edge">
<title>Node16&#45;&gt;Node4</title>
<path fill="none" stroke="midnightblue" d="M378.91,-56.08C371.34,-48.22 360.12,-36.57 350.99,-27.08"/>
<polygon fill="midnightblue" stroke="midnightblue" points="353.38,-24.53 343.93,-19.75 348.34,-29.38 353.38,-24.53"/>
</g>
<!-- Node16&#45;&gt;Node9 -->
<g id="edge21" class="edge">
<title>Node16&#45;&gt;Node9</title>
<path fill="none" stroke="midnightblue" d="M357.71,-56.44C325.67,-47.24 274.57,-32.56 239.15,-22.39"/>
<polygon fill="midnightblue" stroke="midnightblue" points="239.73,-18.91 229.15,-19.52 237.79,-25.64 239.73,-18.91"/>
</g>
<!-- Node16&#45;&gt;Node13 -->
<g id="edge20" class="edge">
<title>Node16&#45;&gt;Node13</title>
<path fill="none" stroke="midnightblue" d="M404.37,-56.32C421.21,-47.66 447.31,-34.24 466.74,-24.25"/>
<polygon fill="midnightblue" stroke="midnightblue" points="468.38,-27.34 475.67,-19.65 465.18,-21.12 468.38,-27.34"/>
</g>
<!-- Node17&#45;&gt;Node13 -->
<g id="edge25" class="edge">
<title>Node17&#45;&gt;Node13</title>
<path fill="none" stroke="midnightblue" d="M823.23,-56.44C738.55,-44.81 590.18,-24.42 524.89,-15.45"/>
<polygon fill="midnightblue" stroke="midnightblue" points="525.17,-11.96 514.79,-14.06 524.22,-18.89 525.17,-11.96"/>
</g>
<!-- Node18 -->
<g id="node18" class="node">
<title>Node18</title>
<g id="a_node18"><a xlink:title=" ">
<polygon fill="white" stroke="#bfbfbf" points="811,-0.5 811,-19.5 876,-19.5 876,-0.5 811,-0.5"/>
<text text-anchor="middle" x="843.5" y="-7.5" font-family="Helvetica,sans-Serif" font-size="10.00">exception</text>
</a>
</g>
</g>
<!-- Node17&#45;&gt;Node18 -->
<g id="edge23" class="edge">
<title>Node17&#45;&gt;Node18</title>
<path fill="none" stroke="midnightblue" d="M878.56,-56.08C872.57,-48.38 863.75,-37.03 856.45,-27.65"/>
<polygon fill="midnightblue" stroke="midnightblue" points="859.21,-25.5 850.31,-19.75 853.68,-29.79 859.21,-25.5"/>
</g>
<!-- Node19 -->
<g id="node19" class="node">
<title>Node19</title>
<g id="a_node19"><a xlink:title=" ">
<polygon fill="white" stroke="#bfbfbf" points="894,-0.5 894,-19.5 959,-19.5 959,-0.5 894,-0.5"/>
<text text-anchor="middle" x="926.5" y="-7.5" font-family="Helvetica,sans-Serif" font-size="10.00">stdexcept</text>
</a>
</g>
</g>
<!-- Node17&#45;&gt;Node19 -->
<g id="edge24" class="edge">
<title>Node17&#45;&gt;Node19</title>
<path fill="none" stroke="midnightblue" d="M892.27,-56.08C898.06,-48.46 906.56,-37.26 913.64,-27.94"/>
<polygon fill="midnightblue" stroke="midnightblue" points="916.6,-29.83 919.86,-19.75 911.02,-25.6 916.6,-29.83"/>
</g>
</g>
</svg>
