<?xml version="1.0" encoding="UTF-8" standalone="no"?>
<!DOCTYPE svg PUBLIC "-//W3C//DTD SVG 1.1//EN"
 "http://www.w3.org/Graphics/SVG/1.1/DTD/svg11.dtd">
<!-- Generated by graphviz version 2.43.0 (0)
 -->
<!-- Title: sources/System/Gamepad/GamepadSystem.cpp Pages: 1 -->
<svg width="1463pt" height="509pt"
 viewBox="0.00 0.00 1463.34 509.00" xmlns="http://www.w3.org/2000/svg" xmlns:xlink="http://www.w3.org/1999/xlink">
<g id="graph0" class="graph" transform="scale(1 1) rotate(0) translate(4 505)">
<title>sources/System/Gamepad/GamepadSystem.cpp</title>
<polygon fill="white" stroke="transparent" points="-4,4 -4,-505 1459.34,-505 1459.34,4 -4,4"/>
<!-- Node1 -->
<g id="node1" class="node">
<title>Node1</title>
<g id="a_node1"><a xlink:title=" ">
<polygon fill="#bfbfbf" stroke="black" points="1083,-470.5 1083,-500.5 1227,-500.5 1227,-470.5 1083,-470.5"/>
<text text-anchor="start" x="1091" y="-488.5" font-family="Helvetica,sans-Serif" font-size="10.00">sources/System/Gamepad</text>
<text text-anchor="middle" x="1155" y="-477.5" font-family="Helvetica,sans-Serif" font-size="10.00">/GamepadSystem.cpp</text>
</a>
</g>
</g>
<!-- Node2 -->
<g id="node2" class="node">
<title>Node2</title>
<g id="a_node2"><a xlink:href="GamepadSystem_8hpp.html" target="_top" xlink:title=" ">
<polygon fill="white" stroke="black" points="904,-414.5 904,-433.5 1026,-433.5 1026,-414.5 904,-414.5"/>
<text text-anchor="middle" x="965" y="-421.5" font-family="Helvetica,sans-Serif" font-size="10.00">GamepadSystem.hpp</text>
</a>
</g>
</g>
<!-- Node1&#45;&gt;Node2 -->
<g id="edge1" class="edge">
<title>Node1&#45;&gt;Node2</title>
<path fill="none" stroke="midnightblue" d="M1109.97,-470.4C1077.14,-460.12 1033.18,-446.35 1002.3,-436.68"/>
<polygon fill="midnightblue" stroke="midnightblue" points="1002.96,-433.22 992.37,-433.57 1000.87,-439.9 1002.96,-433.22"/>
</g>
<!-- Node8 -->
<g id="node8" class="node">
<title>Node8</title>
<g id="a_node8"><a xlink:href="Entity_8hpp.html" target="_top" xlink:title=" ">
<polygon fill="white" stroke="black" points="750,-112.5 750,-131.5 846,-131.5 846,-112.5 750,-112.5"/>
<text text-anchor="middle" x="798" y="-119.5" font-family="Helvetica,sans-Serif" font-size="10.00">Entity/Entity.hpp</text>
</a>
</g>
</g>
<!-- Node1&#45;&gt;Node8 -->
<g id="edge70" class="edge">
<title>Node1&#45;&gt;Node8</title>
<path fill="none" stroke="midnightblue" d="M1227.36,-483.38C1310.62,-477.8 1436,-454.33 1436,-363.5 1436,-363.5 1436,-363.5 1436,-233 1436,-221.91 1543.09,-230.82 1247,-168 1108.74,-138.67 942.35,-128.33 856.15,-124.78"/>
<polygon fill="midnightblue" stroke="midnightblue" points="856.17,-121.28 846.04,-124.38 855.9,-128.27 856.17,-121.28"/>
</g>
<!-- Node29 -->
<g id="node29" class="node">
<title>Node29</title>
<g id="a_node29"><a xlink:href="GamepadComponent_8hpp.html" target="_top" xlink:title=" ">
<polygon fill="white" stroke="black" points="878.5,-280.5 878.5,-310.5 1051.5,-310.5 1051.5,-280.5 878.5,-280.5"/>
<text text-anchor="start" x="886.5" y="-298.5" font-family="Helvetica,sans-Serif" font-size="10.00">Component/Gamepad/Gamepad</text>
<text text-anchor="middle" x="965" y="-287.5" font-family="Helvetica,sans-Serif" font-size="10.00">Component.hpp</text>
</a>
</g>
</g>
<!-- Node1&#45;&gt;Node29 -->
<g id="edge68" class="edge">
<title>Node1&#45;&gt;Node29</title>
<path fill="none" stroke="midnightblue" d="M1140.72,-470.37C1107.63,-437.63 1025.55,-356.41 986.41,-317.69"/>
<polygon fill="midnightblue" stroke="midnightblue" points="988.76,-315.08 979.19,-310.54 983.83,-320.06 988.76,-315.08"/>
</g>
<!-- Node30 -->
<g id="node30" class="node">
<title>Node30</title>
<g id="a_node30"><a xlink:href="Gamepad_8hpp.html" target="_top" xlink:title=" ">
<polygon fill="white" stroke="black" points="996.5,-224.5 996.5,-243.5 1137.5,-243.5 1137.5,-224.5 996.5,-224.5"/>
<text text-anchor="middle" x="1067" y="-231.5" font-family="Helvetica,sans-Serif" font-size="10.00">Controllers/Gamepad.hpp</text>
</a>
</g>
</g>
<!-- Node1&#45;&gt;Node30 -->
<g id="edge71" class="edge">
<title>Node1&#45;&gt;Node30</title>
<path fill="none" stroke="midnightblue" d="M1150.02,-470.37C1135.04,-427.91 1090.43,-301.43 1073.56,-253.6"/>
<polygon fill="midnightblue" stroke="midnightblue" points="1076.78,-252.2 1070.15,-243.93 1070.18,-254.53 1076.78,-252.2"/>
</g>
<!-- Node32 -->
<g id="node32" class="node">
<title>Node32</title>
<g id="a_node32"><a xlink:href="ControllableComponent_8hpp.html" target="_top" xlink:title=" ">
<polygon fill="white" stroke="black" points="1183,-347.5 1183,-377.5 1339,-377.5 1339,-347.5 1183,-347.5"/>
<text text-anchor="start" x="1191" y="-365.5" font-family="Helvetica,sans-Serif" font-size="10.00">Component/Controllable</text>
<text text-anchor="middle" x="1261" y="-354.5" font-family="Helvetica,sans-Serif" font-size="10.00">/ControllableComponent.hpp</text>
</a>
</g>
</g>
<!-- Node1&#45;&gt;Node32 -->
<g id="edge69" class="edge">
<title>Node1&#45;&gt;Node32</title>
<path fill="none" stroke="midnightblue" d="M1167.58,-470.14C1185.9,-449.22 1220.11,-410.17 1241.66,-385.58"/>
<polygon fill="midnightblue" stroke="midnightblue" points="1244.48,-387.67 1248.44,-377.84 1239.22,-383.05 1244.48,-387.67"/>
</g>
<!-- Node3 -->
<g id="node3" class="node">
<title>Node3</title>
<g id="a_node3"><a xlink:href="System_8hpp.html" target="_top" xlink:title=" ">
<polygon fill="white" stroke="black" points="679,-353 679,-372 793,-372 793,-353 679,-353"/>
<text text-anchor="middle" x="736" y="-360" font-family="Helvetica,sans-Serif" font-size="10.00">System/System.hpp</text>
</a>
</g>
</g>
<!-- Node2&#45;&gt;Node3 -->
<g id="edge2" class="edge">
<title>Node2&#45;&gt;Node3</title>
<path fill="none" stroke="midnightblue" d="M932.19,-414.48C891.8,-403.98 823.12,-386.14 778.67,-374.59"/>
<polygon fill="midnightblue" stroke="midnightblue" points="779.31,-371.14 768.75,-372.01 777.55,-377.91 779.31,-371.14"/>
</g>
<!-- Node28 -->
<g id="node28" class="node">
<title>Node28</title>
<g id="a_node28"><a xlink:title=" ">
<polygon fill="white" stroke="#bfbfbf" points="623,-353 623,-372 661,-372 661,-353 623,-353"/>
<text text-anchor="middle" x="642" y="-360" font-family="Helvetica,sans-Serif" font-size="10.00">map</text>
</a>
</g>
</g>
<!-- Node2&#45;&gt;Node28 -->
<g id="edge52" class="edge">
<title>Node2&#45;&gt;Node28</title>
<path fill="none" stroke="midnightblue" d="M903.77,-419.49C843.16,-414.68 748.33,-403.49 670,-378 668.57,-377.53 667.12,-377 665.68,-376.42"/>
<polygon fill="midnightblue" stroke="midnightblue" points="666.97,-373.16 656.43,-372.11 664.02,-379.51 666.97,-373.16"/>
</g>
<!-- Node2&#45;&gt;Node29 -->
<g id="edge53" class="edge">
<title>Node2&#45;&gt;Node29</title>
<path fill="none" stroke="midnightblue" d="M965,-414.31C965,-395.3 965,-349.47 965,-320.9"/>
<polygon fill="midnightblue" stroke="midnightblue" points="968.5,-320.89 965,-310.89 961.5,-320.89 968.5,-320.89"/>
</g>
<!-- Node2&#45;&gt;Node32 -->
<g id="edge59" class="edge">
<title>Node2&#45;&gt;Node32</title>
<path fill="none" stroke="midnightblue" d="M1007.41,-414.48C1052.65,-405.38 1125.36,-390.77 1181.34,-379.51"/>
<polygon fill="midnightblue" stroke="midnightblue" points="1182.12,-382.93 1191.24,-377.52 1180.74,-376.06 1182.12,-382.93"/>
</g>
<!-- Node4 -->
<g id="node4" class="node">
<title>Node4</title>
<g id="a_node4"><a xlink:title=" ">
<polygon fill="white" stroke="#bfbfbf" points="764,-168.5 764,-187.5 814,-187.5 814,-168.5 764,-168.5"/>
<text text-anchor="middle" x="789" y="-175.5" font-family="Helvetica,sans-Serif" font-size="10.00">chrono</text>
</a>
</g>
</g>
<!-- Node3&#45;&gt;Node4 -->
<g id="edge3" class="edge">
<title>Node3&#45;&gt;Node4</title>
<path fill="none" stroke="midnightblue" d="M738.56,-352.7C746.72,-324.57 772.31,-236.46 783.58,-197.66"/>
<polygon fill="midnightblue" stroke="midnightblue" points="787.04,-198.29 786.47,-187.71 780.32,-196.34 787.04,-198.29"/>
</g>
<!-- Node5 -->
<g id="node5" class="node">
<title>Node5</title>
<g id="a_node5"><a xlink:title=" ">
<polygon fill="white" stroke="#bfbfbf" points="128.5,-0.5 128.5,-19.5 175.5,-19.5 175.5,-0.5 128.5,-0.5"/>
<text text-anchor="middle" x="152" y="-7.5" font-family="Helvetica,sans-Serif" font-size="10.00">vector</text>
</a>
</g>
</g>
<!-- Node3&#45;&gt;Node5 -->
<g id="edge4" class="edge">
<title>Node3&#45;&gt;Node5</title>
<path fill="none" stroke="midnightblue" d="M701.57,-352.97C691.46,-350.73 680.33,-348.51 670,-347 458.33,-315.97 398.41,-359.29 190,-311 101.4,-290.47 0,-325.95 0,-235 0,-235 0,-235 0,-121 0,-62.98 73.59,-32.44 118.36,-19.24"/>
<polygon fill="midnightblue" stroke="midnightblue" points="119.57,-22.53 128.25,-16.46 117.68,-15.79 119.57,-22.53"/>
</g>
<!-- Node6 -->
<g id="node6" class="node">
<title>Node6</title>
<g id="a_node6"><a xlink:title=" ">
<polygon fill="white" stroke="#bfbfbf" points="66.5,-56.5 66.5,-75.5 123.5,-75.5 123.5,-56.5 66.5,-56.5"/>
<text text-anchor="middle" x="95" y="-63.5" font-family="Helvetica,sans-Serif" font-size="10.00">typeinfo</text>
</a>
</g>
</g>
<!-- Node3&#45;&gt;Node6 -->
<g id="edge5" class="edge">
<title>Node3&#45;&gt;Node6</title>
<path fill="none" stroke="midnightblue" d="M701.22,-352.97C691.19,-350.75 680.21,-348.55 670,-347 485.22,-318.89 424.2,-381.26 251,-311 177.59,-281.22 161.95,-256.41 122,-188 108.6,-165.05 106.94,-157.91 101,-132 97.47,-116.62 96.01,-98.75 95.41,-85.64"/>
<polygon fill="midnightblue" stroke="midnightblue" points="98.9,-85.41 95.07,-75.53 91.9,-85.64 98.9,-85.41"/>
</g>
<!-- Node7 -->
<g id="node7" class="node">
<title>Node7</title>
<g id="a_node7"><a xlink:title=" ">
<polygon fill="white" stroke="#bfbfbf" points="931.5,-0.5 931.5,-19.5 996.5,-19.5 996.5,-0.5 931.5,-0.5"/>
<text text-anchor="middle" x="964" y="-7.5" font-family="Helvetica,sans-Serif" font-size="10.00">typeindex</text>
</a>
</g>
</g>
<!-- Node3&#45;&gt;Node7 -->
<g id="edge6" class="edge">
<title>Node3&#45;&gt;Node7</title>
<path fill="none" stroke="midnightblue" d="M753.04,-352.82C808.83,-323.3 986.07,-220.53 1050,-76 1061,-51.12 1031.78,-33.54 1004.47,-22.99"/>
<polygon fill="midnightblue" stroke="midnightblue" points="1005.55,-19.66 994.96,-19.55 1003.17,-26.24 1005.55,-19.66"/>
</g>
<!-- Node3&#45;&gt;Node8 -->
<g id="edge7" class="edge">
<title>Node3&#45;&gt;Node8</title>
<path fill="none" stroke="midnightblue" d="M734.93,-352.89C731.84,-324.76 724.87,-233.65 755,-168 760.31,-156.42 769.85,-145.96 778.6,-138.05"/>
<polygon fill="midnightblue" stroke="midnightblue" points="780.91,-140.68 786.27,-131.54 776.38,-135.34 780.91,-140.68"/>
</g>
<!-- Node17 -->
<g id="node17" class="node">
<title>Node17</title>
<g id="a_node17"><a xlink:href="Wal_8hpp.html" target="_top" xlink:title=" ">
<polygon fill="white" stroke="black" points="260,-286 260,-305 316,-305 316,-286 260,-286"/>
<text text-anchor="middle" x="288" y="-293" font-family="Helvetica,sans-Serif" font-size="10.00">Wal.hpp</text>
</a>
</g>
</g>
<!-- Node3&#45;&gt;Node17 -->
<g id="edge21" class="edge">
<title>Node3&#45;&gt;Node17</title>
<path fill="none" stroke="midnightblue" d="M699.8,-352.97C690.15,-350.85 679.71,-348.7 670,-347 544.97,-325.04 395.41,-307.89 326.38,-300.48"/>
<polygon fill="midnightblue" stroke="midnightblue" points="326.71,-297 316.4,-299.42 325.97,-303.96 326.71,-297"/>
</g>
<!-- Node19 -->
<g id="node19" class="node">
<title>Node19</title>
<g id="a_node19"><a xlink:href="ISystem_8hpp.html" target="_top" xlink:title=" ">
<polygon fill="white" stroke="black" points="590.5,-224.5 590.5,-243.5 707.5,-243.5 707.5,-224.5 590.5,-224.5"/>
<text text-anchor="middle" x="649" y="-231.5" font-family="Helvetica,sans-Serif" font-size="10.00">System/ISystem.hpp</text>
</a>
</g>
</g>
<!-- Node3&#45;&gt;Node19 -->
<g id="edge50" class="edge">
<title>Node3&#45;&gt;Node19</title>
<path fill="none" stroke="midnightblue" d="M730.02,-352.81C715.8,-332.13 679.76,-279.73 660.91,-252.32"/>
<polygon fill="midnightblue" stroke="midnightblue" points="663.57,-250.01 655.02,-243.76 657.8,-253.98 663.57,-250.01"/>
</g>
<!-- Node20 -->
<g id="node20" class="node">
<title>Node20</title>
<g id="a_node20"><a xlink:href="View_8hpp.html" target="_top" xlink:title=" ">
<polygon fill="white" stroke="black" points="544,-168.5 544,-187.5 632,-187.5 632,-168.5 544,-168.5"/>
<text text-anchor="middle" x="588" y="-175.5" font-family="Helvetica,sans-Serif" font-size="10.00">View/View.hpp</text>
</a>
</g>
</g>
<!-- Node3&#45;&gt;Node20 -->
<g id="edge49" class="edge">
<title>Node3&#45;&gt;Node20</title>
<path fill="none" stroke="midnightblue" d="M714.7,-352.94C679.22,-337.38 609.17,-300.7 581,-244 573.75,-229.4 576.84,-210.73 580.94,-197.14"/>
<polygon fill="midnightblue" stroke="midnightblue" points="584.31,-198.11 584.28,-187.52 577.7,-195.82 584.31,-198.11"/>
</g>
<!-- Node27 -->
<g id="node27" class="node">
<title>Node27</title>
<g id="a_node27"><a xlink:title=" ">
<polygon fill="white" stroke="#bfbfbf" points="1156,-224.5 1156,-243.5 1216,-243.5 1216,-224.5 1156,-224.5"/>
<text text-anchor="middle" x="1186" y="-231.5" font-family="Helvetica,sans-Serif" font-size="10.00">iostream</text>
</a>
</g>
</g>
<!-- Node3&#45;&gt;Node27 -->
<g id="edge51" class="edge">
<title>Node3&#45;&gt;Node27</title>
<path fill="none" stroke="midnightblue" d="M793.16,-359.35C859.42,-355.34 971.03,-343.86 1061,-311 1101.61,-296.16 1143.49,-267.45 1166.99,-249.88"/>
<polygon fill="midnightblue" stroke="midnightblue" points="1169.22,-252.58 1175.06,-243.74 1164.98,-247.01 1169.22,-252.58"/>
</g>
<!-- Node8&#45;&gt;Node6 -->
<g id="edge10" class="edge">
<title>Node8&#45;&gt;Node6</title>
<path fill="none" stroke="midnightblue" d="M749.84,-113.07C746.85,-112.68 743.89,-112.32 741,-112 488.69,-84.17 423.8,-98.93 171,-76 158.92,-74.9 145.8,-73.45 133.91,-72.02"/>
<polygon fill="midnightblue" stroke="midnightblue" points="134.18,-68.53 123.83,-70.79 133.33,-75.48 134.18,-68.53"/>
</g>
<!-- Node9 -->
<g id="node9" class="node">
<title>Node9</title>
<g id="a_node9"><a xlink:title=" ">
<polygon fill="white" stroke="#bfbfbf" points="614,-0.5 614,-19.5 658,-19.5 658,-0.5 614,-0.5"/>
<text text-anchor="middle" x="636" y="-7.5" font-family="Helvetica,sans-Serif" font-size="10.00">string</text>
</a>
</g>
</g>
<!-- Node8&#45;&gt;Node9 -->
<g id="edge8" class="edge">
<title>Node8&#45;&gt;Node9</title>
<path fill="none" stroke="midnightblue" d="M801.77,-112.39C807.04,-98.87 814.64,-72.52 802,-56 785.83,-34.86 711.66,-21.34 668.12,-15.08"/>
<polygon fill="midnightblue" stroke="midnightblue" points="668.42,-11.58 658.03,-13.68 667.45,-18.52 668.42,-11.58"/>
</g>
<!-- Node10 -->
<g id="node10" class="node">
<title>Node10</title>
<g id="a_node10"><a xlink:title=" ">
<polygon fill="white" stroke="#bfbfbf" points="551.5,-56.5 551.5,-75.5 644.5,-75.5 644.5,-56.5 551.5,-56.5"/>
<text text-anchor="middle" x="598" y="-63.5" font-family="Helvetica,sans-Serif" font-size="10.00">unordered_map</text>
</a>
</g>
</g>
<!-- Node8&#45;&gt;Node10 -->
<g id="edge9" class="edge">
<title>Node8&#45;&gt;Node10</title>
<path fill="none" stroke="midnightblue" d="M766.31,-112.44C731.93,-103.16 676.92,-88.31 639.21,-78.13"/>
<polygon fill="midnightblue" stroke="midnightblue" points="640.11,-74.74 629.54,-75.52 638.28,-81.5 640.11,-74.74"/>
</g>
<!-- Node11 -->
<g id="node11" class="node">
<title>Node11</title>
<g id="a_node11"><a xlink:title=" ">
<polygon fill="white" stroke="#bfbfbf" points="180,-56.5 180,-75.5 238,-75.5 238,-56.5 180,-56.5"/>
<text text-anchor="middle" x="209" y="-63.5" font-family="Helvetica,sans-Serif" font-size="10.00">memory</text>
</a>
</g>
</g>
<!-- Node8&#45;&gt;Node11 -->
<g id="edge11" class="edge">
<title>Node8&#45;&gt;Node11</title>
<path fill="none" stroke="midnightblue" d="M749.84,-113.1C746.85,-112.71 743.89,-112.33 741,-112 525.62,-87.19 466.36,-108.8 248.52,-76"/>
<polygon fill="midnightblue" stroke="midnightblue" points="248.78,-72.5 238.37,-74.45 247.72,-79.41 248.78,-72.5"/>
</g>
<!-- Node12 -->
<g id="node12" class="node">
<title>Node12</title>
<g id="a_node12"><a xlink:href="Component_8hpp.html" target="_top" xlink:title=" ">
<polygon fill="white" stroke="black" points="887.5,-56.5 887.5,-75.5 1040.5,-75.5 1040.5,-56.5 887.5,-56.5"/>
<text text-anchor="middle" x="964" y="-63.5" font-family="Helvetica,sans-Serif" font-size="10.00">Component/Component.hpp</text>
</a>
</g>
</g>
<!-- Node8&#45;&gt;Node12 -->
<g id="edge12" class="edge">
<title>Node8&#45;&gt;Node12</title>
<path fill="none" stroke="midnightblue" d="M824.3,-112.44C852.35,-103.32 896.94,-88.81 928.18,-78.65"/>
<polygon fill="midnightblue" stroke="midnightblue" points="929.39,-81.94 937.82,-75.52 927.23,-75.28 929.39,-81.94"/>
</g>
<!-- Node13 -->
<g id="node13" class="node">
<title>Node13</title>
<g id="a_node13"><a xlink:href="WalError_8hpp.html" target="_top" xlink:title=" ">
<polygon fill="white" stroke="black" points="256.5,-56.5 256.5,-75.5 385.5,-75.5 385.5,-56.5 256.5,-56.5"/>
<text text-anchor="middle" x="321" y="-63.5" font-family="Helvetica,sans-Serif" font-size="10.00">Exception/WalError.hpp</text>
</a>
</g>
</g>
<!-- Node8&#45;&gt;Node13 -->
<g id="edge16" class="edge">
<title>Node8&#45;&gt;Node13</title>
<path fill="none" stroke="midnightblue" d="M749.82,-113.22C746.84,-112.79 743.88,-112.38 741,-112 620.32,-96.02 479.55,-81.84 395.48,-73.85"/>
<polygon fill="midnightblue" stroke="midnightblue" points="395.8,-70.36 385.52,-72.9 395.14,-77.33 395.8,-70.36"/>
</g>
<!-- Node16 -->
<g id="node16" class="node">
<title>Node16</title>
<g id="a_node16"><a xlink:href="TypeHolder_8hpp.html" target="_top" xlink:title=" ">
<polygon fill="white" stroke="black" points="663,-56.5 663,-75.5 793,-75.5 793,-56.5 663,-56.5"/>
<text text-anchor="middle" x="728" y="-63.5" font-family="Helvetica,sans-Serif" font-size="10.00">Models/TypeHolder.hpp</text>
</a>
</g>
</g>
<!-- Node8&#45;&gt;Node16 -->
<g id="edge20" class="edge">
<title>Node8&#45;&gt;Node16</title>
<path fill="none" stroke="midnightblue" d="M786.75,-112.32C776.2,-104.18 760.2,-91.84 747.56,-82.09"/>
<polygon fill="midnightblue" stroke="midnightblue" points="749.51,-79.17 739.45,-75.83 745.23,-84.71 749.51,-79.17"/>
</g>
<!-- Node12&#45;&gt;Node5 -->
<g id="edge13" class="edge">
<title>Node12&#45;&gt;Node5</title>
<path fill="none" stroke="midnightblue" d="M887.27,-59.49C870.07,-58.3 851.92,-57.07 835,-56 555.55,-38.26 484.28,-51.06 206,-20 199.43,-19.27 192.44,-18.27 185.75,-17.2"/>
<polygon fill="midnightblue" stroke="midnightblue" points="186.02,-13.7 175.58,-15.5 184.86,-20.6 186.02,-13.7"/>
</g>
<!-- Node12&#45;&gt;Node7 -->
<g id="edge15" class="edge">
<title>Node12&#45;&gt;Node7</title>
<path fill="none" stroke="midnightblue" d="M964,-56.08C964,-49.01 964,-38.86 964,-29.99"/>
<polygon fill="midnightblue" stroke="midnightblue" points="967.5,-29.75 964,-19.75 960.5,-29.75 967.5,-29.75"/>
</g>
<!-- Node12&#45;&gt;Node9 -->
<g id="edge14" class="edge">
<title>Node12&#45;&gt;Node9</title>
<path fill="none" stroke="midnightblue" d="M912.03,-56.44C843.64,-45.18 725.46,-25.73 668.52,-16.35"/>
<polygon fill="midnightblue" stroke="midnightblue" points="668.74,-12.84 658.31,-14.67 667.6,-19.75 668.74,-12.84"/>
</g>
<!-- Node13&#45;&gt;Node9 -->
<g id="edge19" class="edge">
<title>Node13&#45;&gt;Node9</title>
<path fill="none" stroke="midnightblue" d="M370.91,-56.44C436.27,-45.24 548.96,-25.92 603.95,-16.49"/>
<polygon fill="midnightblue" stroke="midnightblue" points="604.57,-19.94 613.83,-14.8 603.39,-13.04 604.57,-19.94"/>
</g>
<!-- Node14 -->
<g id="node14" class="node">
<title>Node14</title>
<g id="a_node14"><a xlink:title=" ">
<polygon fill="white" stroke="#bfbfbf" points="298.5,-0.5 298.5,-19.5 363.5,-19.5 363.5,-0.5 298.5,-0.5"/>
<text text-anchor="middle" x="331" y="-7.5" font-family="Helvetica,sans-Serif" font-size="10.00">exception</text>
</a>
</g>
</g>
<!-- Node13&#45;&gt;Node14 -->
<g id="edge17" class="edge">
<title>Node13&#45;&gt;Node14</title>
<path fill="none" stroke="midnightblue" d="M322.65,-56.08C323.98,-48.93 325.88,-38.64 327.54,-29.69"/>
<polygon fill="midnightblue" stroke="midnightblue" points="331,-30.22 329.38,-19.75 324.12,-28.95 331,-30.22"/>
</g>
<!-- Node15 -->
<g id="node15" class="node">
<title>Node15</title>
<g id="a_node15"><a xlink:title=" ">
<polygon fill="white" stroke="#bfbfbf" points="215.5,-0.5 215.5,-19.5 280.5,-19.5 280.5,-0.5 215.5,-0.5"/>
<text text-anchor="middle" x="248" y="-7.5" font-family="Helvetica,sans-Serif" font-size="10.00">stdexcept</text>
</a>
</g>
</g>
<!-- Node13&#45;&gt;Node15 -->
<g id="edge18" class="edge">
<title>Node13&#45;&gt;Node15</title>
<path fill="none" stroke="midnightblue" d="M309.27,-56.32C298.16,-48.11 281.26,-35.6 268.02,-25.81"/>
<polygon fill="midnightblue" stroke="midnightblue" points="270.06,-22.97 259.94,-19.83 265.9,-28.59 270.06,-22.97"/>
</g>
<!-- Node17&#45;&gt;Node5 -->
<g id="edge23" class="edge">
<title>Node17&#45;&gt;Node5</title>
<path fill="none" stroke="midnightblue" d="M259.61,-286.63C234.2,-278.66 196.79,-264.56 169,-244 96.86,-190.63 80.32,-162.65 57,-76 54.69,-67.42 52.25,-63.51 57,-56 70.4,-34.83 96.74,-23.43 118.29,-17.4"/>
<polygon fill="midnightblue" stroke="midnightblue" points="119.26,-20.77 128.1,-14.93 117.55,-13.98 119.26,-20.77"/>
</g>
<!-- Node17&#45;&gt;Node6 -->
<g id="edge26" class="edge">
<title>Node17&#45;&gt;Node6</title>
<path fill="none" stroke="midnightblue" d="M269.29,-285.96C237.79,-270.69 174.12,-235.77 138,-188 114.33,-156.7 102.88,-111.23 98.04,-85.88"/>
<polygon fill="midnightblue" stroke="midnightblue" points="101.44,-85.01 96.26,-75.77 94.54,-86.23 101.44,-85.01"/>
</g>
<!-- Node17&#45;&gt;Node9 -->
<g id="edge24" class="edge">
<title>Node17&#45;&gt;Node9</title>
<path fill="none" stroke="midnightblue" d="M305.59,-285.81C334.73,-270.42 392.61,-235.48 421,-188 438.63,-158.52 415.13,-140.02 435,-112 464.02,-71.08 488.17,-78.52 533,-56 556.78,-44.05 584.46,-32.06 605.14,-23.47"/>
<polygon fill="midnightblue" stroke="midnightblue" points="606.48,-26.7 614.39,-19.65 603.81,-20.23 606.48,-26.7"/>
</g>
<!-- Node17&#45;&gt;Node11 -->
<g id="edge25" class="edge">
<title>Node17&#45;&gt;Node11</title>
<path fill="none" stroke="midnightblue" d="M284.69,-285.95C280.82,-275.94 274.3,-258.82 269,-244 248.38,-186.33 225.55,-117.48 214.98,-85.29"/>
<polygon fill="midnightblue" stroke="midnightblue" points="218.21,-83.92 211.77,-75.51 211.56,-86.1 218.21,-83.92"/>
</g>
<!-- Node17&#45;&gt;Node13 -->
<g id="edge27" class="edge">
<title>Node17&#45;&gt;Node13</title>
<path fill="none" stroke="midnightblue" d="M284.55,-285.73C280.84,-275.8 275.18,-259.02 273,-244 270.51,-226.86 273.49,-181.05 276,-168 280.97,-142.19 284.15,-135.94 295,-112 299.28,-102.55 304.96,-92.51 309.92,-84.31"/>
<polygon fill="midnightblue" stroke="midnightblue" points="312.98,-86.03 315.29,-75.69 307.03,-82.33 312.98,-86.03"/>
</g>
<!-- Node18 -->
<g id="node18" class="node">
<title>Node18</title>
<g id="a_node18"><a xlink:title=" ">
<polygon fill="white" stroke="#bfbfbf" points="304.5,-112.5 304.5,-131.5 349.5,-131.5 349.5,-112.5 304.5,-112.5"/>
<text text-anchor="middle" x="327" y="-119.5" font-family="Helvetica,sans-Serif" font-size="10.00">utility</text>
</a>
</g>
</g>
<!-- Node17&#45;&gt;Node18 -->
<g id="edge22" class="edge">
<title>Node17&#45;&gt;Node18</title>
<path fill="none" stroke="midnightblue" d="M285.56,-285.81C280.12,-264.72 268.65,-209.49 285,-168 289.51,-156.55 298.47,-146.29 306.95,-138.47"/>
<polygon fill="midnightblue" stroke="midnightblue" points="309.47,-140.93 314.79,-131.76 304.91,-135.61 309.47,-140.93"/>
</g>
<!-- Node17&#45;&gt;Node19 -->
<g id="edge28" class="edge">
<title>Node17&#45;&gt;Node19</title>
<path fill="none" stroke="midnightblue" d="M316.03,-289.88C373.89,-280.34 507.79,-258.27 587.04,-245.21"/>
<polygon fill="midnightblue" stroke="midnightblue" points="588.07,-248.59 597.37,-243.51 586.94,-241.68 588.07,-248.59"/>
</g>
<!-- Node25 -->
<g id="node25" class="node">
<title>Node25</title>
<g id="a_node25"><a xlink:href="Callback_8hpp.html" target="_top" xlink:title=" ">
<polygon fill="white" stroke="black" points="294,-168.5 294,-187.5 412,-187.5 412,-168.5 294,-168.5"/>
<text text-anchor="middle" x="353" y="-175.5" font-family="Helvetica,sans-Serif" font-size="10.00">Models/Callback.hpp</text>
</a>
</g>
</g>
<!-- Node17&#45;&gt;Node25 -->
<g id="edge39" class="edge">
<title>Node17&#45;&gt;Node25</title>
<path fill="none" stroke="midnightblue" d="M292.89,-285.82C303.52,-266.92 328.94,-221.75 343.08,-196.62"/>
<polygon fill="midnightblue" stroke="midnightblue" points="346.2,-198.21 348.06,-187.78 340.1,-194.78 346.2,-198.21"/>
</g>
<!-- Node26 -->
<g id="node26" class="node">
<title>Node26</title>
<g id="a_node26"><a xlink:href="Scene_8hpp.html" target="_top" xlink:title=" ">
<polygon fill="white" stroke="black" points="434.5,-224.5 434.5,-243.5 533.5,-243.5 533.5,-224.5 434.5,-224.5"/>
<text text-anchor="middle" x="484" y="-231.5" font-family="Helvetica,sans-Serif" font-size="10.00">Scene/Scene.hpp</text>
</a>
</g>
</g>
<!-- Node17&#45;&gt;Node26 -->
<g id="edge43" class="edge">
<title>Node17&#45;&gt;Node26</title>
<path fill="none" stroke="midnightblue" d="M316.08,-285.98C350.29,-275.59 408.2,-258.01 446.27,-246.45"/>
<polygon fill="midnightblue" stroke="midnightblue" points="447.42,-249.76 455.97,-243.51 445.38,-243.06 447.42,-249.76"/>
</g>
<!-- Node19&#45;&gt;Node4 -->
<g id="edge38" class="edge">
<title>Node19&#45;&gt;Node4</title>
<path fill="none" stroke="midnightblue" d="M671.18,-224.44C694.43,-215.48 731.15,-201.31 757.42,-191.18"/>
<polygon fill="midnightblue" stroke="midnightblue" points="758.85,-194.38 766.92,-187.52 756.33,-187.85 758.85,-194.38"/>
</g>
<!-- Node19&#45;&gt;Node8 -->
<g id="edge29" class="edge">
<title>Node19&#45;&gt;Node8</title>
<path fill="none" stroke="midnightblue" d="M657.52,-224.41C670.69,-211.39 697.06,-186.22 722,-168 738.1,-156.24 757.45,-144.82 772.59,-136.42"/>
<polygon fill="midnightblue" stroke="midnightblue" points="774.31,-139.47 781.41,-131.61 770.96,-133.33 774.31,-139.47"/>
</g>
<!-- Node19&#45;&gt;Node20 -->
<g id="edge30" class="edge">
<title>Node19&#45;&gt;Node20</title>
<path fill="none" stroke="midnightblue" d="M639.2,-224.32C630.18,-216.34 616.59,-204.31 605.68,-194.65"/>
<polygon fill="midnightblue" stroke="midnightblue" points="607.79,-191.84 597.98,-187.83 603.15,-197.08 607.79,-191.84"/>
</g>
<!-- Node20&#45;&gt;Node7 -->
<g id="edge33" class="edge">
<title>Node20&#45;&gt;Node7</title>
<path fill="none" stroke="midnightblue" d="M586.47,-168.22C584.02,-155.37 578.47,-130.93 569,-112 556.64,-87.29 523.53,-76.55 542,-56 567.04,-28.15 818.46,-16.15 920.9,-12.4"/>
<polygon fill="midnightblue" stroke="midnightblue" points="921.33,-15.88 931.2,-12.03 921.08,-8.89 921.33,-15.88"/>
</g>
<!-- Node20&#45;&gt;Node8 -->
<g id="edge37" class="edge">
<title>Node20&#45;&gt;Node8</title>
<path fill="none" stroke="midnightblue" d="M621.28,-168.44C657.45,-159.14 715.38,-144.25 754.98,-134.06"/>
<polygon fill="midnightblue" stroke="midnightblue" points="756.07,-137.4 764.88,-131.52 754.32,-130.62 756.07,-137.4"/>
</g>
<!-- Node20&#45;&gt;Node18 -->
<g id="edge35" class="edge">
<title>Node20&#45;&gt;Node18</title>
<path fill="none" stroke="midnightblue" d="M546.64,-168.44C494.79,-157.72 406.98,-139.55 359.62,-129.75"/>
<polygon fill="midnightblue" stroke="midnightblue" points="360.1,-126.27 349.6,-127.67 358.68,-133.13 360.1,-126.27"/>
</g>
<!-- Node21 -->
<g id="node21" class="node">
<title>Node21</title>
<g id="a_node21"><a xlink:title=" ">
<polygon fill="white" stroke="#bfbfbf" points="528,-112.5 528,-131.5 560,-131.5 560,-112.5 528,-112.5"/>
<text text-anchor="middle" x="544" y="-119.5" font-family="Helvetica,sans-Serif" font-size="10.00">list</text>
</a>
</g>
</g>
<!-- Node20&#45;&gt;Node21 -->
<g id="edge31" class="edge">
<title>Node20&#45;&gt;Node21</title>
<path fill="none" stroke="midnightblue" d="M580.73,-168.08C574.46,-160.38 565.21,-149.03 557.57,-139.65"/>
<polygon fill="midnightblue" stroke="midnightblue" points="560.16,-137.29 551.13,-131.75 554.73,-141.71 560.16,-137.29"/>
</g>
<!-- Node22 -->
<g id="node22" class="node">
<title>Node22</title>
<g id="a_node22"><a xlink:title=" ">
<polygon fill="white" stroke="#bfbfbf" points="616.5,-112.5 616.5,-131.5 657.5,-131.5 657.5,-112.5 616.5,-112.5"/>
<text text-anchor="middle" x="637" y="-119.5" font-family="Helvetica,sans-Serif" font-size="10.00">tuple</text>
</a>
</g>
</g>
<!-- Node20&#45;&gt;Node22 -->
<g id="edge32" class="edge">
<title>Node20&#45;&gt;Node22</title>
<path fill="none" stroke="midnightblue" d="M596.09,-168.08C603.16,-160.3 613.59,-148.8 622.15,-139.37"/>
<polygon fill="midnightblue" stroke="midnightblue" points="624.93,-141.51 629.06,-131.75 619.75,-136.8 624.93,-141.51"/>
</g>
<!-- Node23 -->
<g id="node23" class="node">
<title>Node23</title>
<g id="a_node23"><a xlink:title=" ">
<polygon fill="white" stroke="#bfbfbf" points="444.5,-112.5 444.5,-131.5 509.5,-131.5 509.5,-112.5 444.5,-112.5"/>
<text text-anchor="middle" x="477" y="-119.5" font-family="Helvetica,sans-Serif" font-size="10.00">functional</text>
</a>
</g>
</g>
<!-- Node20&#45;&gt;Node23 -->
<g id="edge34" class="edge">
<title>Node20&#45;&gt;Node23</title>
<path fill="none" stroke="midnightblue" d="M570.17,-168.32C552.28,-159.62 524.52,-146.12 503.95,-136.11"/>
<polygon fill="midnightblue" stroke="midnightblue" points="505.31,-132.88 494.79,-131.65 502.25,-139.18 505.31,-132.88"/>
</g>
<!-- Node24 -->
<g id="node24" class="node">
<title>Node24</title>
<g id="a_node24"><a xlink:title=" ">
<polygon fill="white" stroke="#bfbfbf" points="676,-112.5 676,-131.5 732,-131.5 732,-112.5 676,-112.5"/>
<text text-anchor="middle" x="704" y="-119.5" font-family="Helvetica,sans-Serif" font-size="10.00">optional</text>
</a>
</g>
</g>
<!-- Node20&#45;&gt;Node24 -->
<g id="edge36" class="edge">
<title>Node20&#45;&gt;Node24</title>
<path fill="none" stroke="midnightblue" d="M606.38,-168.44C625.22,-159.68 654.73,-145.94 676.38,-135.86"/>
<polygon fill="midnightblue" stroke="midnightblue" points="678.12,-138.91 685.71,-131.52 675.16,-132.56 678.12,-138.91"/>
</g>
<!-- Node25&#45;&gt;Node10 -->
<g id="edge42" class="edge">
<title>Node25&#45;&gt;Node10</title>
<path fill="none" stroke="midnightblue" d="M361.74,-168.06C375.87,-154.09 405.2,-127.13 435,-112 468.3,-95.09 508.77,-83.87 541.04,-76.87"/>
<polygon fill="midnightblue" stroke="midnightblue" points="542.15,-80.21 551.22,-74.74 540.71,-73.36 542.15,-80.21"/>
</g>
<!-- Node25&#45;&gt;Node18 -->
<g id="edge41" class="edge">
<title>Node25&#45;&gt;Node18</title>
<path fill="none" stroke="midnightblue" d="M348.71,-168.08C345.15,-160.69 339.98,-149.95 335.58,-140.81"/>
<polygon fill="midnightblue" stroke="midnightblue" points="338.71,-139.24 331.21,-131.75 332.4,-142.28 338.71,-139.24"/>
</g>
<!-- Node25&#45;&gt;Node23 -->
<g id="edge40" class="edge">
<title>Node25&#45;&gt;Node23</title>
<path fill="none" stroke="midnightblue" d="M372.65,-168.44C392.96,-159.6 424.9,-145.69 448.1,-135.59"/>
<polygon fill="midnightblue" stroke="midnightblue" points="449.67,-138.72 457.44,-131.52 446.88,-132.3 449.67,-138.72"/>
</g>
<!-- Node26&#45;&gt;Node5 -->
<g id="edge44" class="edge">
<title>Node26&#45;&gt;Node5</title>
<path fill="none" stroke="midnightblue" d="M434.31,-229.38C392.35,-224.6 331.8,-213.53 285,-188 222.65,-153.98 207.48,-136.95 171,-76 162.42,-61.66 157.51,-43.19 154.84,-29.61"/>
<polygon fill="midnightblue" stroke="midnightblue" points="158.25,-28.81 153.09,-19.55 151.35,-30 158.25,-28.81"/>
</g>
<!-- Node26&#45;&gt;Node8 -->
<g id="edge48" class="edge">
<title>Node26&#45;&gt;Node8</title>
<path fill="none" stroke="midnightblue" d="M518.04,-224.44C550.07,-216.1 599.24,-202.58 641,-188 686.99,-171.95 738.97,-149.56 770.08,-135.69"/>
<polygon fill="midnightblue" stroke="midnightblue" points="771.72,-138.79 779.42,-131.5 768.86,-132.4 771.72,-138.79"/>
</g>
<!-- Node26&#45;&gt;Node20 -->
<g id="edge47" class="edge">
<title>Node26&#45;&gt;Node20</title>
<path fill="none" stroke="midnightblue" d="M500.71,-224.32C517.31,-215.7 543,-202.36 562.22,-192.39"/>
<polygon fill="midnightblue" stroke="midnightblue" points="564.07,-195.37 571.33,-187.65 560.84,-189.16 564.07,-195.37"/>
</g>
<!-- Node26&#45;&gt;Node21 -->
<g id="edge45" class="edge">
<title>Node26&#45;&gt;Node21</title>
<path fill="none" stroke="midnightblue" d="M488.71,-224.37C498.52,-206.38 521.34,-164.55 534.39,-140.63"/>
<polygon fill="midnightblue" stroke="midnightblue" points="537.6,-142.05 539.31,-131.59 531.45,-138.69 537.6,-142.05"/>
</g>
<!-- Node26&#45;&gt;Node23 -->
<g id="edge46" class="edge">
<title>Node26&#45;&gt;Node23</title>
<path fill="none" stroke="midnightblue" d="M483.45,-224.37C482.32,-206.62 479.72,-165.67 478.18,-141.6"/>
<polygon fill="midnightblue" stroke="midnightblue" points="481.67,-141.35 477.55,-131.59 474.69,-141.79 481.67,-141.35"/>
</g>
<!-- Node29&#45;&gt;Node8 -->
<g id="edge58" class="edge">
<title>Node29&#45;&gt;Node8</title>
<path fill="none" stroke="midnightblue" d="M951.33,-280.47C920.6,-248.9 846.17,-172.47 813.65,-139.07"/>
<polygon fill="midnightblue" stroke="midnightblue" points="815.82,-136.28 806.34,-131.56 810.8,-141.17 815.82,-136.28"/>
</g>
<!-- Node29&#45;&gt;Node12 -->
<g id="edge57" class="edge">
<title>Node29&#45;&gt;Node12</title>
<path fill="none" stroke="midnightblue" d="M964.94,-280.27C964.76,-240.89 964.28,-130.49 964.08,-85.97"/>
<polygon fill="midnightblue" stroke="midnightblue" points="967.58,-85.91 964.04,-75.93 960.58,-85.94 967.58,-85.91"/>
</g>
<!-- Node29&#45;&gt;Node30 -->
<g id="edge54" class="edge">
<title>Node29&#45;&gt;Node30</title>
<path fill="none" stroke="midnightblue" d="M989.17,-280.4C1005.52,-270.86 1027.01,-258.32 1043.27,-248.84"/>
<polygon fill="midnightblue" stroke="midnightblue" points="1045.28,-251.72 1052.16,-243.66 1041.76,-245.67 1045.28,-251.72"/>
</g>
<!-- Node30&#45;&gt;Node5 -->
<g id="edge56" class="edge">
<title>Node30&#45;&gt;Node5</title>
<path fill="none" stroke="midnightblue" d="M1057.91,-224.18C1026.05,-193.92 915.26,-94.11 802,-56 676.24,-13.68 337.84,-34.93 206,-20 199.43,-19.26 192.44,-18.25 185.75,-17.18"/>
<polygon fill="midnightblue" stroke="midnightblue" points="186.02,-13.68 175.58,-15.48 184.87,-20.58 186.02,-13.68"/>
</g>
<!-- Node31 -->
<g id="node31" class="node">
<title>Node31</title>
<g id="a_node31"><a xlink:title=" ">
<polygon fill="white" stroke="#bfbfbf" points="1184.5,-168.5 1184.5,-187.5 1237.5,-187.5 1237.5,-168.5 1184.5,-168.5"/>
<text text-anchor="middle" x="1211" y="-175.5" font-family="Helvetica,sans-Serif" font-size="10.00">raylib.h</text>
</a>
</g>
</g>
<!-- Node30&#45;&gt;Node31 -->
<g id="edge55" class="edge">
<title>Node30&#45;&gt;Node31</title>
<path fill="none" stroke="midnightblue" d="M1089.82,-224.44C1113.83,-215.44 1151.83,-201.19 1178.87,-191.05"/>
<polygon fill="midnightblue" stroke="midnightblue" points="1180.16,-194.3 1188.29,-187.52 1177.7,-187.75 1180.16,-194.3"/>
</g>
<!-- Node32&#45;&gt;Node4 -->
<g id="edge67" class="edge">
<title>Node32&#45;&gt;Node4</title>
<path fill="none" stroke="midnightblue" d="M1182.59,-359.27C1083.59,-355.12 920.13,-343.45 870,-311 828.17,-283.93 804.45,-226.87 794.55,-197.44"/>
<polygon fill="midnightblue" stroke="midnightblue" points="797.79,-196.09 791.42,-187.63 791.12,-198.22 797.79,-196.09"/>
</g>
<!-- Node32&#45;&gt;Node8 -->
<g id="edge66" class="edge">
<title>Node32&#45;&gt;Node8</title>
<path fill="none" stroke="midnightblue" d="M1223.02,-347.39C1169.45,-326.99 1069.18,-286.96 988,-244 954.27,-226.15 861.53,-165.18 819.37,-137.22"/>
<polygon fill="midnightblue" stroke="midnightblue" points="821.21,-134.25 810.95,-131.63 817.34,-140.08 821.21,-134.25"/>
</g>
<!-- Node32&#45;&gt;Node12 -->
<g id="edge65" class="edge">
<title>Node32&#45;&gt;Node12</title>
<path fill="none" stroke="midnightblue" d="M1301.17,-347.46C1359.13,-324.96 1455.31,-277.82 1417,-224 1333.77,-107.07 1157.13,-76.43 1050.68,-68.89"/>
<polygon fill="midnightblue" stroke="midnightblue" points="1050.82,-65.39 1040.61,-68.23 1050.36,-72.37 1050.82,-65.39"/>
</g>
<!-- Node33 -->
<g id="node33" class="node">
<title>Node33</title>
<g id="a_node33"><a xlink:href="sources_2Models_2Vector2_8hpp.html" target="_top" xlink:title=" ">
<polygon fill="white" stroke="black" points="1203.5,-286 1203.5,-305 1316.5,-305 1316.5,-286 1203.5,-286"/>
<text text-anchor="middle" x="1260" y="-293" font-family="Helvetica,sans-Serif" font-size="10.00">Models/Vector2.hpp</text>
</a>
</g>
</g>
<!-- Node32&#45;&gt;Node33 -->
<g id="edge60" class="edge">
<title>Node32&#45;&gt;Node33</title>
<path fill="none" stroke="midnightblue" d="M1260.78,-347.4C1260.64,-338.06 1260.45,-325.71 1260.29,-315.52"/>
<polygon fill="midnightblue" stroke="midnightblue" points="1263.79,-315.14 1260.13,-305.19 1256.79,-315.25 1263.79,-315.14"/>
</g>
<!-- Node33&#45;&gt;Node27 -->
<g id="edge61" class="edge">
<title>Node33&#45;&gt;Node27</title>
<path fill="none" stroke="midnightblue" d="M1249.4,-285.98C1237.75,-276.61 1218.81,-261.38 1204.67,-250.01"/>
<polygon fill="midnightblue" stroke="midnightblue" points="1206.57,-247.05 1196.58,-243.51 1202.18,-252.5 1206.57,-247.05"/>
</g>
<!-- Node34 -->
<g id="node34" class="node">
<title>Node34</title>
<g id="a_node34"><a xlink:title=" ">
<polygon fill="white" stroke="#bfbfbf" points="1234.5,-224.5 1234.5,-243.5 1281.5,-243.5 1281.5,-224.5 1234.5,-224.5"/>
<text text-anchor="middle" x="1258" y="-231.5" font-family="Helvetica,sans-Serif" font-size="10.00">cmath</text>
</a>
</g>
</g>
<!-- Node33&#45;&gt;Node34 -->
<g id="edge62" class="edge">
<title>Node33&#45;&gt;Node34</title>
<path fill="none" stroke="midnightblue" d="M1259.71,-285.98C1259.43,-277.58 1258.99,-264.48 1258.63,-253.66"/>
<polygon fill="midnightblue" stroke="midnightblue" points="1262.12,-253.39 1258.29,-243.51 1255.12,-253.62 1262.12,-253.39"/>
</g>
<!-- Node35 -->
<g id="node35" class="node">
<title>Node35</title>
<g id="a_node35"><a xlink:href="lib_2Ray_2sources_2Vector_2Vector2_8hpp.html" target="_top" xlink:title=" ">
<polygon fill="white" stroke="black" points="1300,-224.5 1300,-243.5 1408,-243.5 1408,-224.5 1300,-224.5"/>
<text text-anchor="middle" x="1354" y="-231.5" font-family="Helvetica,sans-Serif" font-size="10.00">Vector/Vector2.hpp</text>
</a>
</g>
</g>
<!-- Node33&#45;&gt;Node35 -->
<g id="edge63" class="edge">
<title>Node33&#45;&gt;Node35</title>
<path fill="none" stroke="midnightblue" d="M1273.47,-285.98C1288.68,-276.34 1313.69,-260.52 1331.8,-249.05"/>
<polygon fill="midnightblue" stroke="midnightblue" points="1333.98,-251.81 1340.56,-243.51 1330.24,-245.9 1333.98,-251.81"/>
</g>
<!-- Node35&#45;&gt;Node31 -->
<g id="edge64" class="edge">
<title>Node35&#45;&gt;Node31</title>
<path fill="none" stroke="midnightblue" d="M1331.34,-224.44C1307.6,-215.48 1270.09,-201.31 1243.26,-191.18"/>
<polygon fill="midnightblue" stroke="midnightblue" points="1244.14,-187.77 1233.55,-187.52 1241.67,-194.32 1244.14,-187.77"/>
</g>
</g>
</svg>
