<?xml version="1.0" encoding="UTF-8" standalone="no"?>
<!DOCTYPE svg PUBLIC "-//W3C//DTD SVG 1.1//EN"
 "http://www.w3.org/Graphics/SVG/1.1/DTD/svg11.dtd">
<!-- Generated by graphviz version 2.43.0 (0)
 -->
<!-- Title: sources/Component/Gamepad/GamepadComponent.cpp Pages: 1 -->
<svg width="1187pt" height="274pt"
 viewBox="0.00 0.00 1187.00 274.00" xmlns="http://www.w3.org/2000/svg" xmlns:xlink="http://www.w3.org/1999/xlink">
<g id="graph0" class="graph" transform="scale(1 1) rotate(0) translate(4 270)">
<title>sources/Component/Gamepad/GamepadComponent.cpp</title>
<polygon fill="white" stroke="transparent" points="-4,4 -4,-270 1183,-270 1183,4 -4,4"/>
<!-- Node1 -->
<g id="node1" class="node">
<title>Node1</title>
<g id="a_node1"><a xlink:title=" ">
<polygon fill="#bfbfbf" stroke="black" points="451,-235.5 451,-265.5 615,-265.5 615,-235.5 451,-235.5"/>
<text text-anchor="start" x="459" y="-253.5" font-family="Helvetica,sans-Serif" font-size="10.00">sources/Component/Gamepad</text>
<text text-anchor="middle" x="533" y="-242.5" font-family="Helvetica,sans-Serif" font-size="10.00">/GamepadComponent.cpp</text>
</a>
</g>
</g>
<!-- Node2 -->
<g id="node2" class="node">
<title>Node2</title>
<g id="a_node2"><a xlink:href="ControllableComponent_8hpp.html" target="_top" xlink:title=" ">
<polygon fill="white" stroke="black" points="372,-168.5 372,-198.5 528,-198.5 528,-168.5 372,-168.5"/>
<text text-anchor="start" x="380" y="-186.5" font-family="Helvetica,sans-Serif" font-size="10.00">Component/Controllable</text>
<text text-anchor="middle" x="450" y="-175.5" font-family="Helvetica,sans-Serif" font-size="10.00">/ControllableComponent.hpp</text>
</a>
</g>
</g>
<!-- Node1&#45;&gt;Node2 -->
<g id="edge1" class="edge">
<title>Node1&#45;&gt;Node2</title>
<path fill="none" stroke="midnightblue" d="M514.99,-235.4C503.57,-226.45 488.61,-214.74 475.92,-204.8"/>
<polygon fill="midnightblue" stroke="midnightblue" points="478.01,-201.99 467.97,-198.58 473.69,-207.5 478.01,-201.99"/>
</g>
<!-- Node21 -->
<g id="node21" class="node">
<title>Node21</title>
<g id="a_node21"><a xlink:href="GamepadComponent_8hpp.html" target="_top" xlink:title=" ">
<polygon fill="white" stroke="black" points="546.5,-174 546.5,-193 687.5,-193 687.5,-174 546.5,-174"/>
<text text-anchor="middle" x="617" y="-181" font-family="Helvetica,sans-Serif" font-size="10.00">GamepadComponent.hpp</text>
</a>
</g>
</g>
<!-- Node1&#45;&gt;Node21 -->
<g id="edge23" class="edge">
<title>Node1&#45;&gt;Node21</title>
<path fill="none" stroke="midnightblue" d="M551.23,-235.4C564.97,-224.76 583.78,-210.2 597.77,-199.38"/>
<polygon fill="midnightblue" stroke="midnightblue" points="600,-202.08 605.76,-193.19 595.71,-196.55 600,-202.08"/>
</g>
<!-- Node3 -->
<g id="node3" class="node">
<title>Node3</title>
<g id="a_node3"><a xlink:href="sources_2Models_2Vector2_8hpp.html" target="_top" xlink:title=" ">
<polygon fill="white" stroke="black" points="93.5,-112.5 93.5,-131.5 206.5,-131.5 206.5,-112.5 93.5,-112.5"/>
<text text-anchor="middle" x="150" y="-119.5" font-family="Helvetica,sans-Serif" font-size="10.00">Models/Vector2.hpp</text>
</a>
</g>
</g>
<!-- Node2&#45;&gt;Node3 -->
<g id="edge2" class="edge">
<title>Node2&#45;&gt;Node3</title>
<path fill="none" stroke="midnightblue" d="M379.28,-168.47C325.27,-157.76 252,-143.23 202.97,-133.51"/>
<polygon fill="midnightblue" stroke="midnightblue" points="203.38,-130.02 192.89,-131.51 202.02,-136.89 203.38,-130.02"/>
</g>
<!-- Node8 -->
<g id="node8" class="node">
<title>Node8</title>
<g id="a_node8"><a xlink:href="Component_8hpp.html" target="_top" xlink:title=" ">
<polygon fill="white" stroke="black" points="429.5,-56.5 429.5,-75.5 582.5,-75.5 582.5,-56.5 429.5,-56.5"/>
<text text-anchor="middle" x="506" y="-63.5" font-family="Helvetica,sans-Serif" font-size="10.00">Component/Component.hpp</text>
</a>
</g>
</g>
<!-- Node2&#45;&gt;Node8 -->
<g id="edge7" class="edge">
<title>Node2&#45;&gt;Node8</title>
<path fill="none" stroke="midnightblue" d="M452,-168.35C454.49,-153.64 459.6,-130.26 469,-112 474.42,-101.48 482.61,-91.18 489.91,-83.09"/>
<polygon fill="midnightblue" stroke="midnightblue" points="492.46,-85.49 496.78,-75.81 487.37,-80.68 492.46,-85.49"/>
</g>
<!-- Node12 -->
<g id="node12" class="node">
<title>Node12</title>
<g id="a_node12"><a xlink:href="Entity_8hpp.html" target="_top" xlink:title=" ">
<polygon fill="white" stroke="black" points="656,-112.5 656,-131.5 752,-131.5 752,-112.5 656,-112.5"/>
<text text-anchor="middle" x="704" y="-119.5" font-family="Helvetica,sans-Serif" font-size="10.00">Entity/Entity.hpp</text>
</a>
</g>
</g>
<!-- Node2&#45;&gt;Node12 -->
<g id="edge11" class="edge">
<title>Node2&#45;&gt;Node12</title>
<path fill="none" stroke="midnightblue" d="M509.87,-168.47C555.13,-157.87 616.34,-143.53 657.84,-133.81"/>
<polygon fill="midnightblue" stroke="midnightblue" points="658.75,-137.19 667.69,-131.51 657.15,-130.38 658.75,-137.19"/>
</g>
<!-- Node20 -->
<g id="node20" class="node">
<title>Node20</title>
<g id="a_node20"><a xlink:title=" ">
<polygon fill="white" stroke="#bfbfbf" points="478,-112.5 478,-131.5 528,-131.5 528,-112.5 478,-112.5"/>
<text text-anchor="middle" x="503" y="-119.5" font-family="Helvetica,sans-Serif" font-size="10.00">chrono</text>
</a>
</g>
</g>
<!-- Node2&#45;&gt;Node20 -->
<g id="edge22" class="edge">
<title>Node2&#45;&gt;Node20</title>
<path fill="none" stroke="midnightblue" d="M462.56,-168.4C470.34,-159.66 480.36,-148.41 488.48,-139.3"/>
<polygon fill="midnightblue" stroke="midnightblue" points="491.25,-141.45 495.29,-131.66 486.02,-136.8 491.25,-141.45"/>
</g>
<!-- Node4 -->
<g id="node4" class="node">
<title>Node4</title>
<g id="a_node4"><a xlink:title=" ">
<polygon fill="white" stroke="#bfbfbf" points="0,-56.5 0,-75.5 60,-75.5 60,-56.5 0,-56.5"/>
<text text-anchor="middle" x="30" y="-63.5" font-family="Helvetica,sans-Serif" font-size="10.00">iostream</text>
</a>
</g>
</g>
<!-- Node3&#45;&gt;Node4 -->
<g id="edge3" class="edge">
<title>Node3&#45;&gt;Node4</title>
<path fill="none" stroke="midnightblue" d="M130.99,-112.44C111.41,-103.64 80.69,-89.81 58.27,-79.72"/>
<polygon fill="midnightblue" stroke="midnightblue" points="59.48,-76.43 48.93,-75.52 56.61,-82.81 59.48,-76.43"/>
</g>
<!-- Node5 -->
<g id="node5" class="node">
<title>Node5</title>
<g id="a_node5"><a xlink:title=" ">
<polygon fill="white" stroke="#bfbfbf" points="78.5,-56.5 78.5,-75.5 125.5,-75.5 125.5,-56.5 78.5,-56.5"/>
<text text-anchor="middle" x="102" y="-63.5" font-family="Helvetica,sans-Serif" font-size="10.00">cmath</text>
</a>
</g>
</g>
<!-- Node3&#45;&gt;Node5 -->
<g id="edge4" class="edge">
<title>Node3&#45;&gt;Node5</title>
<path fill="none" stroke="midnightblue" d="M142.07,-112.08C135.15,-104.3 124.93,-92.8 116.55,-83.37"/>
<polygon fill="midnightblue" stroke="midnightblue" points="119.04,-80.9 109.78,-75.75 113.81,-85.55 119.04,-80.9"/>
</g>
<!-- Node6 -->
<g id="node6" class="node">
<title>Node6</title>
<g id="a_node6"><a xlink:href="lib_2Ray_2sources_2Vector_2Vector2_8hpp.html" target="_top" xlink:title=" ">
<polygon fill="white" stroke="black" points="144,-56.5 144,-75.5 252,-75.5 252,-56.5 144,-56.5"/>
<text text-anchor="middle" x="198" y="-63.5" font-family="Helvetica,sans-Serif" font-size="10.00">Vector/Vector2.hpp</text>
</a>
</g>
</g>
<!-- Node3&#45;&gt;Node6 -->
<g id="edge5" class="edge">
<title>Node3&#45;&gt;Node6</title>
<path fill="none" stroke="midnightblue" d="M157.93,-112.08C164.85,-104.3 175.07,-92.8 183.45,-83.37"/>
<polygon fill="midnightblue" stroke="midnightblue" points="186.19,-85.55 190.22,-75.75 180.96,-80.9 186.19,-85.55"/>
</g>
<!-- Node7 -->
<g id="node7" class="node">
<title>Node7</title>
<g id="a_node7"><a xlink:title=" ">
<polygon fill="white" stroke="#bfbfbf" points="254.5,-0.5 254.5,-19.5 307.5,-19.5 307.5,-0.5 254.5,-0.5"/>
<text text-anchor="middle" x="281" y="-7.5" font-family="Helvetica,sans-Serif" font-size="10.00">raylib.h</text>
</a>
</g>
</g>
<!-- Node6&#45;&gt;Node7 -->
<g id="edge6" class="edge">
<title>Node6&#45;&gt;Node7</title>
<path fill="none" stroke="midnightblue" d="M211.34,-56.32C224.16,-47.98 243.78,-35.21 258.94,-25.35"/>
<polygon fill="midnightblue" stroke="midnightblue" points="261.22,-28.04 267.7,-19.65 257.41,-22.17 261.22,-28.04"/>
</g>
<!-- Node9 -->
<g id="node9" class="node">
<title>Node9</title>
<g id="a_node9"><a xlink:title=" ">
<polygon fill="white" stroke="#bfbfbf" points="362.5,-0.5 362.5,-19.5 409.5,-19.5 409.5,-0.5 362.5,-0.5"/>
<text text-anchor="middle" x="386" y="-7.5" font-family="Helvetica,sans-Serif" font-size="10.00">vector</text>
</a>
</g>
</g>
<!-- Node8&#45;&gt;Node9 -->
<g id="edge8" class="edge">
<title>Node8&#45;&gt;Node9</title>
<path fill="none" stroke="midnightblue" d="M486.99,-56.44C467.41,-47.64 436.69,-33.81 414.27,-23.72"/>
<polygon fill="midnightblue" stroke="midnightblue" points="415.48,-20.43 404.93,-19.52 412.61,-26.81 415.48,-20.43"/>
</g>
<!-- Node10 -->
<g id="node10" class="node">
<title>Node10</title>
<g id="a_node10"><a xlink:title=" ">
<polygon fill="white" stroke="#bfbfbf" points="589,-0.5 589,-19.5 633,-19.5 633,-0.5 589,-0.5"/>
<text text-anchor="middle" x="611" y="-7.5" font-family="Helvetica,sans-Serif" font-size="10.00">string</text>
</a>
</g>
</g>
<!-- Node8&#45;&gt;Node10 -->
<g id="edge9" class="edge">
<title>Node8&#45;&gt;Node10</title>
<path fill="none" stroke="midnightblue" d="M522.87,-56.32C539.71,-47.66 565.81,-34.24 585.24,-24.25"/>
<polygon fill="midnightblue" stroke="midnightblue" points="586.88,-27.34 594.17,-19.65 583.68,-21.12 586.88,-27.34"/>
</g>
<!-- Node11 -->
<g id="node11" class="node">
<title>Node11</title>
<g id="a_node11"><a xlink:title=" ">
<polygon fill="white" stroke="#bfbfbf" points="473.5,-0.5 473.5,-19.5 538.5,-19.5 538.5,-0.5 473.5,-0.5"/>
<text text-anchor="middle" x="506" y="-7.5" font-family="Helvetica,sans-Serif" font-size="10.00">typeindex</text>
</a>
</g>
</g>
<!-- Node8&#45;&gt;Node11 -->
<g id="edge10" class="edge">
<title>Node8&#45;&gt;Node11</title>
<path fill="none" stroke="midnightblue" d="M506,-56.08C506,-49.01 506,-38.86 506,-29.99"/>
<polygon fill="midnightblue" stroke="midnightblue" points="509.5,-29.75 506,-19.75 502.5,-29.75 509.5,-29.75"/>
</g>
<!-- Node12&#45;&gt;Node8 -->
<g id="edge16" class="edge">
<title>Node12&#45;&gt;Node8</title>
<path fill="none" stroke="midnightblue" d="M672.63,-112.44C638.74,-103.2 584.6,-88.44 547.28,-78.26"/>
<polygon fill="midnightblue" stroke="midnightblue" points="547.8,-74.77 537.23,-75.52 545.95,-81.52 547.8,-74.77"/>
</g>
<!-- Node12&#45;&gt;Node10 -->
<g id="edge12" class="edge">
<title>Node12&#45;&gt;Node10</title>
<path fill="none" stroke="midnightblue" d="M681.84,-112.43C665.58,-105.08 644.12,-92.96 631,-76 620.63,-62.59 615.6,-43.77 613.18,-29.83"/>
<polygon fill="midnightblue" stroke="midnightblue" points="616.64,-29.29 611.75,-19.89 609.71,-30.29 616.64,-29.29"/>
</g>
<!-- Node13 -->
<g id="node13" class="node">
<title>Node13</title>
<g id="a_node13"><a xlink:title=" ">
<polygon fill="white" stroke="#bfbfbf" points="786.5,-56.5 786.5,-75.5 879.5,-75.5 879.5,-56.5 786.5,-56.5"/>
<text text-anchor="middle" x="833" y="-63.5" font-family="Helvetica,sans-Serif" font-size="10.00">unordered_map</text>
</a>
</g>
</g>
<!-- Node12&#45;&gt;Node13 -->
<g id="edge13" class="edge">
<title>Node12&#45;&gt;Node13</title>
<path fill="none" stroke="midnightblue" d="M724.44,-112.44C745.67,-103.56 779.1,-89.56 803.25,-79.45"/>
<polygon fill="midnightblue" stroke="midnightblue" points="804.78,-82.61 812.66,-75.52 802.08,-76.15 804.78,-82.61"/>
</g>
<!-- Node14 -->
<g id="node14" class="node">
<title>Node14</title>
<g id="a_node14"><a xlink:title=" ">
<polygon fill="white" stroke="#bfbfbf" points="897.5,-56.5 897.5,-75.5 954.5,-75.5 954.5,-56.5 897.5,-56.5"/>
<text text-anchor="middle" x="926" y="-63.5" font-family="Helvetica,sans-Serif" font-size="10.00">typeinfo</text>
</a>
</g>
</g>
<!-- Node12&#45;&gt;Node14 -->
<g id="edge14" class="edge">
<title>Node12&#45;&gt;Node14</title>
<path fill="none" stroke="midnightblue" d="M739.18,-112.44C779.61,-102.61 845.76,-86.52 887.53,-76.36"/>
<polygon fill="midnightblue" stroke="midnightblue" points="888.45,-79.74 897.34,-73.97 886.8,-72.93 888.45,-79.74"/>
</g>
<!-- Node15 -->
<g id="node15" class="node">
<title>Node15</title>
<g id="a_node15"><a xlink:title=" ">
<polygon fill="white" stroke="#bfbfbf" points="973,-56.5 973,-75.5 1031,-75.5 1031,-56.5 973,-56.5"/>
<text text-anchor="middle" x="1002" y="-63.5" font-family="Helvetica,sans-Serif" font-size="10.00">memory</text>
</a>
</g>
</g>
<!-- Node12&#45;&gt;Node15 -->
<g id="edge15" class="edge">
<title>Node12&#45;&gt;Node15</title>
<path fill="none" stroke="midnightblue" d="M752.09,-113.58C802.25,-105.64 883.4,-92.23 962.82,-76.14"/>
<polygon fill="midnightblue" stroke="midnightblue" points="963.9,-79.49 972.99,-74.06 962.5,-72.63 963.9,-79.49"/>
</g>
<!-- Node16 -->
<g id="node16" class="node">
<title>Node16</title>
<g id="a_node16"><a xlink:href="WalError_8hpp.html" target="_top" xlink:title=" ">
<polygon fill="white" stroke="black" points="639.5,-56.5 639.5,-75.5 768.5,-75.5 768.5,-56.5 639.5,-56.5"/>
<text text-anchor="middle" x="704" y="-63.5" font-family="Helvetica,sans-Serif" font-size="10.00">Exception/WalError.hpp</text>
</a>
</g>
</g>
<!-- Node12&#45;&gt;Node16 -->
<g id="edge17" class="edge">
<title>Node12&#45;&gt;Node16</title>
<path fill="none" stroke="midnightblue" d="M704,-112.08C704,-105.01 704,-94.86 704,-85.99"/>
<polygon fill="midnightblue" stroke="midnightblue" points="707.5,-85.75 704,-75.75 700.5,-85.75 707.5,-85.75"/>
</g>
<!-- Node19 -->
<g id="node19" class="node">
<title>Node19</title>
<g id="a_node19"><a xlink:href="TypeHolder_8hpp.html" target="_top" xlink:title=" ">
<polygon fill="white" stroke="black" points="1049,-56.5 1049,-75.5 1179,-75.5 1179,-56.5 1049,-56.5"/>
<text text-anchor="middle" x="1114" y="-63.5" font-family="Helvetica,sans-Serif" font-size="10.00">Models/TypeHolder.hpp</text>
</a>
</g>
</g>
<!-- Node12&#45;&gt;Node19 -->
<g id="edge21" class="edge">
<title>Node12&#45;&gt;Node19</title>
<path fill="none" stroke="midnightblue" d="M752.24,-114.65C823.13,-105.31 956.05,-87.8 1039.53,-76.81"/>
<polygon fill="midnightblue" stroke="midnightblue" points="1040,-80.28 1049.46,-75.5 1039.09,-73.34 1040,-80.28"/>
</g>
<!-- Node16&#45;&gt;Node10 -->
<g id="edge20" class="edge">
<title>Node16&#45;&gt;Node10</title>
<path fill="none" stroke="midnightblue" d="M689.06,-56.32C674.41,-47.82 651.87,-34.73 634.76,-24.8"/>
<polygon fill="midnightblue" stroke="midnightblue" points="636.31,-21.65 625.9,-19.65 632.8,-27.7 636.31,-21.65"/>
</g>
<!-- Node17 -->
<g id="node17" class="node">
<title>Node17</title>
<g id="a_node17"><a xlink:title=" ">
<polygon fill="white" stroke="#bfbfbf" points="661.5,-0.5 661.5,-19.5 726.5,-19.5 726.5,-0.5 661.5,-0.5"/>
<text text-anchor="middle" x="694" y="-7.5" font-family="Helvetica,sans-Serif" font-size="10.00">exception</text>
</a>
</g>
</g>
<!-- Node16&#45;&gt;Node17 -->
<g id="edge18" class="edge">
<title>Node16&#45;&gt;Node17</title>
<path fill="none" stroke="midnightblue" d="M702.35,-56.08C701.02,-48.93 699.12,-38.64 697.46,-29.69"/>
<polygon fill="midnightblue" stroke="midnightblue" points="700.88,-28.95 695.62,-19.75 694,-30.22 700.88,-28.95"/>
</g>
<!-- Node18 -->
<g id="node18" class="node">
<title>Node18</title>
<g id="a_node18"><a xlink:title=" ">
<polygon fill="white" stroke="#bfbfbf" points="744.5,-0.5 744.5,-19.5 809.5,-19.5 809.5,-0.5 744.5,-0.5"/>
<text text-anchor="middle" x="777" y="-7.5" font-family="Helvetica,sans-Serif" font-size="10.00">stdexcept</text>
</a>
</g>
</g>
<!-- Node16&#45;&gt;Node18 -->
<g id="edge19" class="edge">
<title>Node16&#45;&gt;Node18</title>
<path fill="none" stroke="midnightblue" d="M715.73,-56.32C726.84,-48.11 743.74,-35.6 756.98,-25.81"/>
<polygon fill="midnightblue" stroke="midnightblue" points="759.1,-28.59 765.06,-19.83 754.94,-22.97 759.1,-28.59"/>
</g>
<!-- Node21&#45;&gt;Node8 -->
<g id="edge27" class="edge">
<title>Node21&#45;&gt;Node8</title>
<path fill="none" stroke="midnightblue" d="M608.66,-173.82C590.18,-154.59 545.54,-108.14 521.67,-83.31"/>
<polygon fill="midnightblue" stroke="midnightblue" points="523.89,-80.57 514.44,-75.78 518.85,-85.42 523.89,-80.57"/>
</g>
<!-- Node21&#45;&gt;Node12 -->
<g id="edge28" class="edge">
<title>Node21&#45;&gt;Node12</title>
<path fill="none" stroke="midnightblue" d="M629.46,-173.98C643.42,-164.43 666.26,-148.81 682.99,-137.37"/>
<polygon fill="midnightblue" stroke="midnightblue" points="685.28,-140.04 691.56,-131.51 681.33,-134.27 685.28,-140.04"/>
</g>
<!-- Node22 -->
<g id="node22" class="node">
<title>Node22</title>
<g id="a_node22"><a xlink:href="Gamepad_8hpp.html" target="_top" xlink:title=" ">
<polygon fill="white" stroke="black" points="270.5,-56.5 270.5,-75.5 411.5,-75.5 411.5,-56.5 270.5,-56.5"/>
<text text-anchor="middle" x="341" y="-63.5" font-family="Helvetica,sans-Serif" font-size="10.00">Controllers/Gamepad.hpp</text>
</a>
</g>
</g>
<!-- Node21&#45;&gt;Node22 -->
<g id="edge24" class="edge">
<title>Node21&#45;&gt;Node22</title>
<path fill="none" stroke="midnightblue" d="M588.18,-173.99C558.02,-164.78 509.52,-149.1 469,-132 431.74,-116.27 390.29,-94.37 364.93,-80.44"/>
<polygon fill="midnightblue" stroke="midnightblue" points="366.48,-77.3 356.04,-75.52 363.09,-83.42 366.48,-77.3"/>
</g>
<!-- Node22&#45;&gt;Node7 -->
<g id="edge25" class="edge">
<title>Node22&#45;&gt;Node7</title>
<path fill="none" stroke="midnightblue" d="M331.36,-56.32C322.49,-48.34 309.13,-36.31 298.39,-26.65"/>
<polygon fill="midnightblue" stroke="midnightblue" points="300.59,-23.92 290.82,-19.83 295.91,-29.13 300.59,-23.92"/>
</g>
<!-- Node22&#45;&gt;Node9 -->
<g id="edge26" class="edge">
<title>Node22&#45;&gt;Node9</title>
<path fill="none" stroke="midnightblue" d="M348.43,-56.08C354.85,-48.38 364.31,-37.03 372.12,-27.65"/>
<polygon fill="midnightblue" stroke="midnightblue" points="374.99,-29.67 378.71,-19.75 369.62,-25.19 374.99,-29.67"/>
</g>
</g>
</svg>
