<?xml version="1.0" encoding="UTF-8" standalone="no"?>
<!DOCTYPE svg PUBLIC "-//W3C//DTD SVG 1.1//EN"
 "http://www.w3.org/Graphics/SVG/1.1/DTD/svg11.dtd">
<!-- Generated by graphviz version 2.43.0 (0)
 -->
<!-- Title: lib/Ray/sources/Controllers/Gamepad.hpp Pages: 1 -->
<svg width="713pt" height="240pt"
 viewBox="0.00 0.00 712.65 240.00" xmlns="http://www.w3.org/2000/svg" xmlns:xlink="http://www.w3.org/1999/xlink">
<g id="graph0" class="graph" transform="scale(1 1) rotate(0) translate(4 236)">
<title>lib/Ray/sources/Controllers/Gamepad.hpp</title>
<polygon fill="white" stroke="transparent" points="-4,4 -4,-236 708.65,-236 708.65,4 -4,4"/>
<!-- Node1 -->
<g id="node1" class="node">
<title>Node1</title>
<g id="a_node1"><a xlink:title=" ">
<polygon fill="#bfbfbf" stroke="black" points="412.5,-201.5 412.5,-231.5 559.5,-231.5 559.5,-201.5 412.5,-201.5"/>
<text text-anchor="start" x="420.5" y="-219.5" font-family="Helvetica,sans-Serif" font-size="10.00">lib/Ray/sources/Controllers</text>
<text text-anchor="middle" x="486" y="-208.5" font-family="Helvetica,sans-Serif" font-size="10.00">/Gamepad.hpp</text>
</a>
</g>
</g>
<!-- Node2 -->
<g id="node2" class="node">
<title>Node2</title>
<g id="a_node2"><a xlink:href="Gamepad_8cpp.html" target="_top" xlink:title=" ">
<polygon fill="white" stroke="black" points="238.5,-134.5 238.5,-164.5 385.5,-164.5 385.5,-134.5 238.5,-134.5"/>
<text text-anchor="start" x="246.5" y="-152.5" font-family="Helvetica,sans-Serif" font-size="10.00">lib/Ray/sources/Controllers</text>
<text text-anchor="middle" x="312" y="-141.5" font-family="Helvetica,sans-Serif" font-size="10.00">/Gamepad.cpp</text>
</a>
</g>
</g>
<!-- Node1&#45;&gt;Node2 -->
<g id="edge1" class="edge">
<title>Node1&#45;&gt;Node2</title>
<path fill="none" stroke="midnightblue" d="M438.67,-197.82C410.7,-187.37 375.77,-174.32 349.68,-164.58"/>
<polygon fill="midnightblue" stroke="midnightblue" points="437.65,-201.18 448.24,-201.4 440.1,-194.62 437.65,-201.18"/>
</g>
<!-- Node3 -->
<g id="node3" class="node">
<title>Node3</title>
<g id="a_node3"><a xlink:href="GamepadComponent_8hpp.html" target="_top" xlink:title=" ">
<polygon fill="white" stroke="black" points="404,-134.5 404,-164.5 568,-164.5 568,-134.5 404,-134.5"/>
<text text-anchor="start" x="412" y="-152.5" font-family="Helvetica,sans-Serif" font-size="10.00">sources/Component/Gamepad</text>
<text text-anchor="middle" x="486" y="-141.5" font-family="Helvetica,sans-Serif" font-size="10.00">/GamepadComponent.hpp</text>
</a>
</g>
</g>
<!-- Node1&#45;&gt;Node3 -->
<g id="edge2" class="edge">
<title>Node1&#45;&gt;Node3</title>
<path fill="none" stroke="midnightblue" d="M486,-191.11C486,-182.15 486,-172.32 486,-164.58"/>
<polygon fill="midnightblue" stroke="midnightblue" points="482.5,-191.4 486,-201.4 489.5,-191.4 482.5,-191.4"/>
</g>
<!-- Node8 -->
<g id="node8" class="node">
<title>Node8</title>
<g id="a_node8"><a xlink:href="GamepadSystem_8cpp.html" target="_top" xlink:title=" ">
<polygon fill="white" stroke="black" points="496,-0.5 496,-30.5 640,-30.5 640,-0.5 496,-0.5"/>
<text text-anchor="start" x="504" y="-18.5" font-family="Helvetica,sans-Serif" font-size="10.00">sources/System/Gamepad</text>
<text text-anchor="middle" x="568" y="-7.5" font-family="Helvetica,sans-Serif" font-size="10.00">/GamepadSystem.cpp</text>
</a>
</g>
</g>
<!-- Node1&#45;&gt;Node8 -->
<g id="edge10" class="edge">
<title>Node1&#45;&gt;Node8</title>
<path fill="none" stroke="midnightblue" d="M553.53,-198.23C603.39,-181.56 667.8,-150.85 699,-98 706,-86.14 706.8,-78.36 699,-67 685.42,-47.2 662.89,-35.17 640.32,-27.85"/>
<polygon fill="midnightblue" stroke="midnightblue" points="552.2,-194.98 543.76,-201.39 554.35,-201.65 552.2,-194.98"/>
</g>
<!-- Node4 -->
<g id="node4" class="node">
<title>Node4</title>
<g id="a_node4"><a xlink:href="GamepadComponent_8cpp.html" target="_top" xlink:title=" ">
<polygon fill="white" stroke="black" points="0,-67.5 0,-97.5 164,-97.5 164,-67.5 0,-67.5"/>
<text text-anchor="start" x="8" y="-85.5" font-family="Helvetica,sans-Serif" font-size="10.00">sources/Component/Gamepad</text>
<text text-anchor="middle" x="82" y="-74.5" font-family="Helvetica,sans-Serif" font-size="10.00">/GamepadComponent.cpp</text>
</a>
</g>
</g>
<!-- Node3&#45;&gt;Node4 -->
<g id="edge3" class="edge">
<title>Node3&#45;&gt;Node4</title>
<path fill="none" stroke="midnightblue" d="M393.74,-133.66C324.56,-122.53 230.72,-107.43 164.13,-96.71"/>
<polygon fill="midnightblue" stroke="midnightblue" points="393.33,-137.13 403.76,-135.27 394.44,-130.22 393.33,-137.13"/>
</g>
<!-- Node5 -->
<g id="node5" class="node">
<title>Node5</title>
<g id="a_node5"><a xlink:href="ParserYaml_8cpp.html" target="_top" xlink:title=" ">
<polygon fill="white" stroke="black" points="182,-73 182,-92 346,-92 346,-73 182,-73"/>
<text text-anchor="middle" x="264" y="-80" font-family="Helvetica,sans-Serif" font-size="10.00">sources/Parser/ParserYaml.cpp</text>
</a>
</g>
</g>
<!-- Node3&#45;&gt;Node5 -->
<g id="edge4" class="edge">
<title>Node3&#45;&gt;Node5</title>
<path fill="none" stroke="midnightblue" d="M428.25,-131.59C384.89,-118.9 327.33,-102.04 293.13,-92.03"/>
<polygon fill="midnightblue" stroke="midnightblue" points="427.52,-135.02 438.1,-134.48 429.49,-128.31 427.52,-135.02"/>
</g>
<!-- Node6 -->
<g id="node6" class="node">
<title>Node6</title>
<g id="a_node6"><a xlink:href="GamepadSystem_8hpp.html" target="_top" xlink:title=" ">
<polygon fill="white" stroke="black" points="364,-67.5 364,-97.5 508,-97.5 508,-67.5 364,-67.5"/>
<text text-anchor="start" x="372" y="-85.5" font-family="Helvetica,sans-Serif" font-size="10.00">sources/System/Gamepad</text>
<text text-anchor="middle" x="436" y="-74.5" font-family="Helvetica,sans-Serif" font-size="10.00">/GamepadSystem.hpp</text>
</a>
</g>
</g>
<!-- Node3&#45;&gt;Node6 -->
<g id="edge5" class="edge">
<title>Node3&#45;&gt;Node6</title>
<path fill="none" stroke="midnightblue" d="M469.04,-126.45C461.69,-116.9 453.31,-106 446.83,-97.58"/>
<polygon fill="midnightblue" stroke="midnightblue" points="466.28,-128.6 475.15,-134.4 471.83,-124.34 466.28,-128.6"/>
</g>
<!-- Node3&#45;&gt;Node8 -->
<g id="edge8" class="edge">
<title>Node3&#45;&gt;Node8</title>
<path fill="none" stroke="midnightblue" d="M500.08,-125.83C517.08,-98.47 545.15,-53.28 559.29,-30.52"/>
<polygon fill="midnightblue" stroke="midnightblue" points="497.08,-124.03 494.78,-134.37 503.03,-127.73 497.08,-124.03"/>
</g>
<!-- Node9 -->
<g id="node9" class="node">
<title>Node9</title>
<g id="a_node9"><a xlink:href="LobbySystem_8cpp.html" target="_top" xlink:title=" ">
<polygon fill="white" stroke="black" points="564,-67.5 564,-97.5 690,-97.5 690,-67.5 564,-67.5"/>
<text text-anchor="start" x="572" y="-85.5" font-family="Helvetica,sans-Serif" font-size="10.00">sources/System/Lobby</text>
<text text-anchor="middle" x="627" y="-74.5" font-family="Helvetica,sans-Serif" font-size="10.00">/LobbySystem.cpp</text>
</a>
</g>
</g>
<!-- Node3&#45;&gt;Node9 -->
<g id="edge9" class="edge">
<title>Node3&#45;&gt;Node9</title>
<path fill="none" stroke="midnightblue" d="M525.85,-130.13C548.25,-119.8 575.78,-107.11 596.46,-97.58"/>
<polygon fill="midnightblue" stroke="midnightblue" points="524.21,-127.03 516.59,-134.4 527.14,-133.39 524.21,-127.03"/>
</g>
<!-- Node7 -->
<g id="node7" class="node">
<title>Node7</title>
<g id="a_node7"><a xlink:href="Runner_8cpp.html" target="_top" xlink:title=" ">
<polygon fill="white" stroke="black" points="328.5,-6 328.5,-25 477.5,-25 477.5,-6 328.5,-6"/>
<text text-anchor="middle" x="403" y="-13" font-family="Helvetica,sans-Serif" font-size="10.00">sources/Runner/Runner.cpp</text>
</a>
</g>
</g>
<!-- Node6&#45;&gt;Node7 -->
<g id="edge6" class="edge">
<title>Node6&#45;&gt;Node7</title>
<path fill="none" stroke="midnightblue" d="M424.22,-58.29C418.38,-46.8 411.7,-33.63 407.41,-25.19"/>
<polygon fill="midnightblue" stroke="midnightblue" points="421.19,-60.06 428.84,-67.4 427.43,-56.89 421.19,-60.06"/>
</g>
<!-- Node6&#45;&gt;Node8 -->
<g id="edge7" class="edge">
<title>Node6&#45;&gt;Node8</title>
<path fill="none" stroke="midnightblue" d="M473.87,-62.85C494.74,-52.58 520.23,-40.03 539.41,-30.58"/>
<polygon fill="midnightblue" stroke="midnightblue" points="472.07,-59.84 464.64,-67.4 475.16,-66.12 472.07,-59.84"/>
</g>
</g>
</svg>
