<?xml version="1.0" encoding="UTF-8" standalone="no"?>
<!DOCTYPE svg PUBLIC "-//W3C//DTD SVG 1.1//EN"
 "http://www.w3.org/Graphics/SVG/1.1/DTD/svg11.dtd">
<!-- Generated by graphviz version 2.43.0 (0)
 -->
<!-- Title: sources/Component/Gamepad/GamepadComponent.hpp Pages: 1 -->
<svg width="869pt" height="207pt"
 viewBox="0.00 0.00 868.50 207.00" xmlns="http://www.w3.org/2000/svg" xmlns:xlink="http://www.w3.org/1999/xlink">
<g id="graph0" class="graph" transform="scale(1 1) rotate(0) translate(4 203)">
<title>sources/Component/Gamepad/GamepadComponent.hpp</title>
<polygon fill="white" stroke="transparent" points="-4,4 -4,-203 864.5,-203 864.5,4 -4,4"/>
<!-- Node1 -->
<g id="node1" class="node">
<title>Node1</title>
<g id="a_node1"><a xlink:title=" ">
<polygon fill="#bfbfbf" stroke="black" points="104.5,-168.5 104.5,-198.5 268.5,-198.5 268.5,-168.5 104.5,-168.5"/>
<text text-anchor="start" x="112.5" y="-186.5" font-family="Helvetica,sans-Serif" font-size="10.00">sources/Component/Gamepad</text>
<text text-anchor="middle" x="186.5" y="-175.5" font-family="Helvetica,sans-Serif" font-size="10.00">/GamepadComponent.hpp</text>
</a>
</g>
</g>
<!-- Node2 -->
<g id="node2" class="node">
<title>Node2</title>
<g id="a_node2"><a xlink:href="Gamepad_8hpp.html" target="_top" xlink:title=" ">
<polygon fill="white" stroke="black" points="11,-112.5 11,-131.5 152,-131.5 152,-112.5 11,-112.5"/>
<text text-anchor="middle" x="81.5" y="-119.5" font-family="Helvetica,sans-Serif" font-size="10.00">Controllers/Gamepad.hpp</text>
</a>
</g>
</g>
<!-- Node1&#45;&gt;Node2 -->
<g id="edge1" class="edge">
<title>Node1&#45;&gt;Node2</title>
<path fill="none" stroke="midnightblue" d="M161.62,-168.4C144.79,-158.86 122.66,-146.32 105.93,-136.84"/>
<polygon fill="midnightblue" stroke="midnightblue" points="107.2,-133.54 96.78,-131.66 103.75,-139.63 107.2,-133.54"/>
</g>
<!-- Node5 -->
<g id="node5" class="node">
<title>Node5</title>
<g id="a_node5"><a xlink:href="Component_8hpp.html" target="_top" xlink:title=" ">
<polygon fill="white" stroke="black" points="110,-56.5 110,-75.5 263,-75.5 263,-56.5 110,-56.5"/>
<text text-anchor="middle" x="186.5" y="-63.5" font-family="Helvetica,sans-Serif" font-size="10.00">Component/Component.hpp</text>
</a>
</g>
</g>
<!-- Node1&#45;&gt;Node5 -->
<g id="edge4" class="edge">
<title>Node1&#45;&gt;Node5</title>
<path fill="none" stroke="midnightblue" d="M186.5,-168.34C186.5,-147.62 186.5,-109.02 186.5,-85.9"/>
<polygon fill="midnightblue" stroke="midnightblue" points="190,-85.67 186.5,-75.67 183,-85.67 190,-85.67"/>
</g>
<!-- Node8 -->
<g id="node8" class="node">
<title>Node8</title>
<g id="a_node8"><a xlink:href="Entity_8hpp.html" target="_top" xlink:title=" ">
<polygon fill="white" stroke="black" points="364.5,-112.5 364.5,-131.5 460.5,-131.5 460.5,-112.5 364.5,-112.5"/>
<text text-anchor="middle" x="412.5" y="-119.5" font-family="Helvetica,sans-Serif" font-size="10.00">Entity/Entity.hpp</text>
</a>
</g>
</g>
<!-- Node1&#45;&gt;Node8 -->
<g id="edge8" class="edge">
<title>Node1&#45;&gt;Node8</title>
<path fill="none" stroke="midnightblue" d="M239.77,-168.47C279.61,-157.99 333.36,-143.84 370.25,-134.12"/>
<polygon fill="midnightblue" stroke="midnightblue" points="371.41,-137.44 380.19,-131.51 369.63,-130.67 371.41,-137.44"/>
</g>
<!-- Node3 -->
<g id="node3" class="node">
<title>Node3</title>
<g id="a_node3"><a xlink:title=" ">
<polygon fill="white" stroke="#bfbfbf" points="0,-56.5 0,-75.5 53,-75.5 53,-56.5 0,-56.5"/>
<text text-anchor="middle" x="26.5" y="-63.5" font-family="Helvetica,sans-Serif" font-size="10.00">raylib.h</text>
</a>
</g>
</g>
<!-- Node2&#45;&gt;Node3 -->
<g id="edge2" class="edge">
<title>Node2&#45;&gt;Node3</title>
<path fill="none" stroke="midnightblue" d="M72.42,-112.08C64.33,-104.14 52.3,-92.34 42.59,-82.8"/>
<polygon fill="midnightblue" stroke="midnightblue" points="45,-80.26 35.41,-75.75 40.1,-85.25 45,-80.26"/>
</g>
<!-- Node4 -->
<g id="node4" class="node">
<title>Node4</title>
<g id="a_node4"><a xlink:title=" ">
<polygon fill="white" stroke="#bfbfbf" points="74,-0.5 74,-19.5 121,-19.5 121,-0.5 74,-0.5"/>
<text text-anchor="middle" x="97.5" y="-7.5" font-family="Helvetica,sans-Serif" font-size="10.00">vector</text>
</a>
</g>
</g>
<!-- Node2&#45;&gt;Node4 -->
<g id="edge3" class="edge">
<title>Node2&#45;&gt;Node4</title>
<path fill="none" stroke="midnightblue" d="M82.76,-112.37C85.34,-94.62 91.29,-53.67 94.79,-29.6"/>
<polygon fill="midnightblue" stroke="midnightblue" points="98.27,-29.99 96.25,-19.59 91.35,-28.98 98.27,-29.99"/>
</g>
<!-- Node5&#45;&gt;Node4 -->
<g id="edge5" class="edge">
<title>Node5&#45;&gt;Node4</title>
<path fill="none" stroke="midnightblue" d="M172.2,-56.32C158.32,-47.9 137.01,-34.97 120.7,-25.07"/>
<polygon fill="midnightblue" stroke="midnightblue" points="122.13,-21.85 111.76,-19.65 118.5,-27.83 122.13,-21.85"/>
</g>
<!-- Node6 -->
<g id="node6" class="node">
<title>Node6</title>
<g id="a_node6"><a xlink:title=" ">
<polygon fill="white" stroke="#bfbfbf" points="269.5,-0.5 269.5,-19.5 313.5,-19.5 313.5,-0.5 269.5,-0.5"/>
<text text-anchor="middle" x="291.5" y="-7.5" font-family="Helvetica,sans-Serif" font-size="10.00">string</text>
</a>
</g>
</g>
<!-- Node5&#45;&gt;Node6 -->
<g id="edge6" class="edge">
<title>Node5&#45;&gt;Node6</title>
<path fill="none" stroke="midnightblue" d="M203.37,-56.32C220.21,-47.66 246.31,-34.24 265.74,-24.25"/>
<polygon fill="midnightblue" stroke="midnightblue" points="267.38,-27.34 274.67,-19.65 264.18,-21.12 267.38,-27.34"/>
</g>
<!-- Node7 -->
<g id="node7" class="node">
<title>Node7</title>
<g id="a_node7"><a xlink:title=" ">
<polygon fill="white" stroke="#bfbfbf" points="154,-0.5 154,-19.5 219,-19.5 219,-0.5 154,-0.5"/>
<text text-anchor="middle" x="186.5" y="-7.5" font-family="Helvetica,sans-Serif" font-size="10.00">typeindex</text>
</a>
</g>
</g>
<!-- Node5&#45;&gt;Node7 -->
<g id="edge7" class="edge">
<title>Node5&#45;&gt;Node7</title>
<path fill="none" stroke="midnightblue" d="M186.5,-56.08C186.5,-49.01 186.5,-38.86 186.5,-29.99"/>
<polygon fill="midnightblue" stroke="midnightblue" points="190,-29.75 186.5,-19.75 183,-29.75 190,-29.75"/>
</g>
<!-- Node8&#45;&gt;Node5 -->
<g id="edge13" class="edge">
<title>Node8&#45;&gt;Node5</title>
<path fill="none" stroke="midnightblue" d="M376.69,-112.44C337.51,-103.08 274.62,-88.06 231.98,-77.87"/>
<polygon fill="midnightblue" stroke="midnightblue" points="232.68,-74.44 222.14,-75.52 231.06,-81.24 232.68,-74.44"/>
</g>
<!-- Node8&#45;&gt;Node6 -->
<g id="edge9" class="edge">
<title>Node8&#45;&gt;Node6</title>
<path fill="none" stroke="midnightblue" d="M373.75,-112.47C352.33,-105.88 326.83,-94.63 310.5,-76 299.25,-63.17 294.65,-43.98 292.77,-29.78"/>
<polygon fill="midnightblue" stroke="midnightblue" points="296.24,-29.28 291.78,-19.67 289.27,-29.97 296.24,-29.28"/>
</g>
<!-- Node9 -->
<g id="node9" class="node">
<title>Node9</title>
<g id="a_node9"><a xlink:title=" ">
<polygon fill="white" stroke="#bfbfbf" points="320,-56.5 320,-75.5 413,-75.5 413,-56.5 320,-56.5"/>
<text text-anchor="middle" x="366.5" y="-63.5" font-family="Helvetica,sans-Serif" font-size="10.00">unordered_map</text>
</a>
</g>
</g>
<!-- Node8&#45;&gt;Node9 -->
<g id="edge10" class="edge">
<title>Node8&#45;&gt;Node9</title>
<path fill="none" stroke="midnightblue" d="M404.9,-112.08C398.27,-104.3 388.48,-92.8 380.44,-83.37"/>
<polygon fill="midnightblue" stroke="midnightblue" points="383.1,-81.09 373.95,-75.75 377.77,-85.63 383.1,-81.09"/>
</g>
<!-- Node10 -->
<g id="node10" class="node">
<title>Node10</title>
<g id="a_node10"><a xlink:title=" ">
<polygon fill="white" stroke="#bfbfbf" points="431,-56.5 431,-75.5 488,-75.5 488,-56.5 431,-56.5"/>
<text text-anchor="middle" x="459.5" y="-63.5" font-family="Helvetica,sans-Serif" font-size="10.00">typeinfo</text>
</a>
</g>
</g>
<!-- Node8&#45;&gt;Node10 -->
<g id="edge11" class="edge">
<title>Node8&#45;&gt;Node10</title>
<path fill="none" stroke="midnightblue" d="M420.26,-112.08C427.04,-104.3 437.04,-92.8 445.26,-83.37"/>
<polygon fill="midnightblue" stroke="midnightblue" points="447.96,-85.59 451.88,-75.75 442.68,-81 447.96,-85.59"/>
</g>
<!-- Node11 -->
<g id="node11" class="node">
<title>Node11</title>
<g id="a_node11"><a xlink:title=" ">
<polygon fill="white" stroke="#bfbfbf" points="506.5,-56.5 506.5,-75.5 564.5,-75.5 564.5,-56.5 506.5,-56.5"/>
<text text-anchor="middle" x="535.5" y="-63.5" font-family="Helvetica,sans-Serif" font-size="10.00">memory</text>
</a>
</g>
</g>
<!-- Node8&#45;&gt;Node11 -->
<g id="edge12" class="edge">
<title>Node8&#45;&gt;Node11</title>
<path fill="none" stroke="midnightblue" d="M431.99,-112.44C452.14,-103.6 483.82,-89.69 506.83,-79.59"/>
<polygon fill="midnightblue" stroke="midnightblue" points="508.35,-82.74 516.1,-75.52 505.54,-76.33 508.35,-82.74"/>
</g>
<!-- Node12 -->
<g id="node12" class="node">
<title>Node12</title>
<g id="a_node12"><a xlink:href="WalError_8hpp.html" target="_top" xlink:title=" ">
<polygon fill="white" stroke="black" points="583,-56.5 583,-75.5 712,-75.5 712,-56.5 583,-56.5"/>
<text text-anchor="middle" x="647.5" y="-63.5" font-family="Helvetica,sans-Serif" font-size="10.00">Exception/WalError.hpp</text>
</a>
</g>
</g>
<!-- Node8&#45;&gt;Node12 -->
<g id="edge14" class="edge">
<title>Node8&#45;&gt;Node12</title>
<path fill="none" stroke="midnightblue" d="M449.74,-112.44C490.56,-103.06 556.14,-87.99 600.48,-77.8"/>
<polygon fill="midnightblue" stroke="midnightblue" points="601.48,-81.17 610.44,-75.52 599.91,-74.34 601.48,-81.17"/>
</g>
<!-- Node15 -->
<g id="node15" class="node">
<title>Node15</title>
<g id="a_node15"><a xlink:href="TypeHolder_8hpp.html" target="_top" xlink:title=" ">
<polygon fill="white" stroke="black" points="730.5,-56.5 730.5,-75.5 860.5,-75.5 860.5,-56.5 730.5,-56.5"/>
<text text-anchor="middle" x="795.5" y="-63.5" font-family="Helvetica,sans-Serif" font-size="10.00">Models/TypeHolder.hpp</text>
</a>
</g>
</g>
<!-- Node8&#45;&gt;Node15 -->
<g id="edge18" class="edge">
<title>Node8&#45;&gt;Node15</title>
<path fill="none" stroke="midnightblue" d="M460.62,-114.22C527.24,-104.82 648.04,-87.79 724.89,-76.95"/>
<polygon fill="midnightblue" stroke="midnightblue" points="725.56,-80.4 734.97,-75.53 724.58,-73.46 725.56,-80.4"/>
</g>
<!-- Node12&#45;&gt;Node6 -->
<g id="edge17" class="edge">
<title>Node12&#45;&gt;Node6</title>
<path fill="none" stroke="midnightblue" d="M591.09,-56.44C515.63,-45 384.32,-25.08 323.77,-15.9"/>
<polygon fill="midnightblue" stroke="midnightblue" points="324.07,-12.4 313.66,-14.36 323.02,-19.32 324.07,-12.4"/>
</g>
<!-- Node13 -->
<g id="node13" class="node">
<title>Node13</title>
<g id="a_node13"><a xlink:title=" ">
<polygon fill="white" stroke="#bfbfbf" points="573,-0.5 573,-19.5 638,-19.5 638,-0.5 573,-0.5"/>
<text text-anchor="middle" x="605.5" y="-7.5" font-family="Helvetica,sans-Serif" font-size="10.00">exception</text>
</a>
</g>
</g>
<!-- Node12&#45;&gt;Node13 -->
<g id="edge15" class="edge">
<title>Node12&#45;&gt;Node13</title>
<path fill="none" stroke="midnightblue" d="M640.56,-56.08C634.57,-48.38 625.75,-37.03 618.45,-27.65"/>
<polygon fill="midnightblue" stroke="midnightblue" points="621.21,-25.5 612.31,-19.75 615.68,-29.79 621.21,-25.5"/>
</g>
<!-- Node14 -->
<g id="node14" class="node">
<title>Node14</title>
<g id="a_node14"><a xlink:title=" ">
<polygon fill="white" stroke="#bfbfbf" points="656,-0.5 656,-19.5 721,-19.5 721,-0.5 656,-0.5"/>
<text text-anchor="middle" x="688.5" y="-7.5" font-family="Helvetica,sans-Serif" font-size="10.00">stdexcept</text>
</a>
</g>
</g>
<!-- Node12&#45;&gt;Node14 -->
<g id="edge16" class="edge">
<title>Node12&#45;&gt;Node14</title>
<path fill="none" stroke="midnightblue" d="M654.27,-56.08C660.06,-48.46 668.56,-37.26 675.64,-27.94"/>
<polygon fill="midnightblue" stroke="midnightblue" points="678.6,-29.83 681.86,-19.75 673.02,-25.6 678.6,-29.83"/>
</g>
</g>
</svg>
