<?xml version="1.0" encoding="UTF-8" standalone="no"?>
<!DOCTYPE svg PUBLIC "-//W3C//DTD SVG 1.1//EN"
 "http://www.w3.org/Graphics/SVG/1.1/DTD/svg11.dtd">
<!-- Generated by graphviz version 2.43.0 (0)
 -->
<!-- Title: sources/System/Gravity/GravitySystem.cpp Pages: 1 -->
<svg width="1329pt" height="509pt"
 viewBox="0.00 0.00 1329.00 509.00" xmlns="http://www.w3.org/2000/svg" xmlns:xlink="http://www.w3.org/1999/xlink">
<g id="graph0" class="graph" transform="scale(1 1) rotate(0) translate(4 505)">
<title>sources/System/Gravity/GravitySystem.cpp</title>
<polygon fill="white" stroke="transparent" points="-4,4 -4,-505 1325,-505 1325,4 -4,4"/>
<!-- Node1 -->
<g id="node1" class="node">
<title>Node1</title>
<g id="a_node1"><a xlink:title=" ">
<polygon fill="#bfbfbf" stroke="black" points="224.5,-470.5 224.5,-500.5 357.5,-500.5 357.5,-470.5 224.5,-470.5"/>
<text text-anchor="start" x="232.5" y="-488.5" font-family="Helvetica,sans-Serif" font-size="10.00">sources/System/Gravity</text>
<text text-anchor="middle" x="291" y="-477.5" font-family="Helvetica,sans-Serif" font-size="10.00">/GravitySystem.cpp</text>
</a>
</g>
</g>
<!-- Node2 -->
<g id="node2" class="node">
<title>Node2</title>
<g id="a_node2"><a xlink:href="GravitySystem_8hpp.html" target="_top" xlink:title=" ">
<polygon fill="white" stroke="black" points="236,-414.5 236,-433.5 346,-433.5 346,-414.5 236,-414.5"/>
<text text-anchor="middle" x="291" y="-421.5" font-family="Helvetica,sans-Serif" font-size="10.00">GravitySystem.hpp</text>
</a>
</g>
</g>
<!-- Node1&#45;&gt;Node2 -->
<g id="edge1" class="edge">
<title>Node1&#45;&gt;Node2</title>
<path fill="none" stroke="midnightblue" d="M291,-470.4C291,-462.47 291,-452.46 291,-443.86"/>
<polygon fill="midnightblue" stroke="midnightblue" points="294.5,-443.66 291,-433.66 287.5,-443.66 294.5,-443.66"/>
</g>
<!-- Node3 -->
<g id="node3" class="node">
<title>Node3</title>
<g id="a_node3"><a xlink:href="MovableComponent_8hpp.html" target="_top" xlink:title=" ">
<polygon fill="white" stroke="black" points="154.5,-347.5 154.5,-377.5 317.5,-377.5 317.5,-347.5 154.5,-347.5"/>
<text text-anchor="start" x="162.5" y="-365.5" font-family="Helvetica,sans-Serif" font-size="10.00">Component/Movable/Movable</text>
<text text-anchor="middle" x="236" y="-354.5" font-family="Helvetica,sans-Serif" font-size="10.00">Component.hpp</text>
</a>
</g>
</g>
<!-- Node2&#45;&gt;Node3 -->
<g id="edge2" class="edge">
<title>Node2&#45;&gt;Node3</title>
<path fill="none" stroke="midnightblue" d="M283.12,-414.48C276.02,-406.79 265.28,-395.17 255.84,-384.96"/>
<polygon fill="midnightblue" stroke="midnightblue" points="258.32,-382.49 248.96,-377.52 253.18,-387.24 258.32,-382.49"/>
</g>
<!-- Node21 -->
<g id="node21" class="node">
<title>Node21</title>
<g id="a_node21"><a xlink:href="PositionComponent_8hpp.html" target="_top" xlink:title=" ">
<polygon fill="white" stroke="black" points="0,-347.5 0,-377.5 136,-377.5 136,-347.5 0,-347.5"/>
<text text-anchor="start" x="8" y="-365.5" font-family="Helvetica,sans-Serif" font-size="10.00">Component/Position</text>
<text text-anchor="middle" x="68" y="-354.5" font-family="Helvetica,sans-Serif" font-size="10.00">/PositionComponent.hpp</text>
</a>
</g>
</g>
<!-- Node2&#45;&gt;Node21 -->
<g id="edge22" class="edge">
<title>Node2&#45;&gt;Node21</title>
<path fill="none" stroke="midnightblue" d="M259.05,-414.48C225.6,-405.55 172.22,-391.31 130.38,-380.14"/>
<polygon fill="midnightblue" stroke="midnightblue" points="131.12,-376.72 120.56,-377.52 129.32,-383.48 131.12,-376.72"/>
</g>
<!-- Node22 -->
<g id="node22" class="node">
<title>Node22</title>
<g id="a_node22"><a xlink:href="GravityComponent_8hpp.html" target="_top" xlink:title=" ">
<polygon fill="white" stroke="black" points="277.5,-168.5 277.5,-198.5 428.5,-198.5 428.5,-168.5 277.5,-168.5"/>
<text text-anchor="start" x="285.5" y="-186.5" font-family="Helvetica,sans-Serif" font-size="10.00">Component/Gravity/Gravity</text>
<text text-anchor="middle" x="353" y="-175.5" font-family="Helvetica,sans-Serif" font-size="10.00">Component.hpp</text>
</a>
</g>
</g>
<!-- Node2&#45;&gt;Node22 -->
<g id="edge25" class="edge">
<title>Node2&#45;&gt;Node22</title>
<path fill="none" stroke="midnightblue" d="M300.38,-414.33C308.84,-405.92 320.86,-392.35 327,-378 351.38,-320.99 354.2,-246.64 353.81,-208.85"/>
<polygon fill="midnightblue" stroke="midnightblue" points="357.31,-208.72 353.63,-198.78 350.31,-208.85 357.31,-208.72"/>
</g>
<!-- Node23 -->
<g id="node23" class="node">
<title>Node23</title>
<g id="a_node23"><a xlink:href="System_8hpp.html" target="_top" xlink:title=" ">
<polygon fill="white" stroke="black" points="500,-353 500,-372 614,-372 614,-353 500,-353"/>
<text text-anchor="middle" x="557" y="-360" font-family="Helvetica,sans-Serif" font-size="10.00">System/System.hpp</text>
</a>
</g>
</g>
<!-- Node2&#45;&gt;Node23 -->
<g id="edge28" class="edge">
<title>Node2&#45;&gt;Node23</title>
<path fill="none" stroke="midnightblue" d="M329.11,-414.48C376.52,-403.87 457.48,-385.76 509.06,-374.22"/>
<polygon fill="midnightblue" stroke="midnightblue" points="509.96,-377.61 518.96,-372.01 508.44,-370.78 509.96,-377.61"/>
</g>
<!-- Node4 -->
<g id="node4" class="node">
<title>Node4</title>
<g id="a_node4"><a xlink:href="sources_2Models_2Vector3_8hpp.html" target="_top" xlink:title=" ">
<polygon fill="white" stroke="black" points="166.5,-291.5 166.5,-310.5 279.5,-310.5 279.5,-291.5 166.5,-291.5"/>
<text text-anchor="middle" x="223" y="-298.5" font-family="Helvetica,sans-Serif" font-size="10.00">Models/Vector3.hpp</text>
</a>
</g>
</g>
<!-- Node3&#45;&gt;Node4 -->
<g id="edge3" class="edge">
<title>Node3&#45;&gt;Node4</title>
<path fill="none" stroke="midnightblue" d="M232.92,-347.4C231.17,-339.38 228.95,-329.23 227.06,-320.57"/>
<polygon fill="midnightblue" stroke="midnightblue" points="230.45,-319.68 224.89,-310.66 223.61,-321.17 230.45,-319.68"/>
</g>
<!-- Node9 -->
<g id="node9" class="node">
<title>Node9</title>
<g id="a_node9"><a xlink:href="Entity_8hpp.html" target="_top" xlink:title=" ">
<polygon fill="white" stroke="black" points="489,-112.5 489,-131.5 585,-131.5 585,-112.5 489,-112.5"/>
<text text-anchor="middle" x="537" y="-119.5" font-family="Helvetica,sans-Serif" font-size="10.00">Entity/Entity.hpp</text>
</a>
</g>
</g>
<!-- Node3&#45;&gt;Node9 -->
<g id="edge8" class="edge">
<title>Node3&#45;&gt;Node9</title>
<path fill="none" stroke="midnightblue" d="M250.6,-347.38C261.04,-337.27 275.41,-323.33 288,-311 322.36,-277.36 325.82,-262.88 365,-235 394.47,-214.02 407.28,-218.11 438,-199 468.13,-180.26 500.23,-154.39 519.44,-138.19"/>
<polygon fill="midnightblue" stroke="midnightblue" points="521.73,-140.83 527.08,-131.68 517.2,-135.5 521.73,-140.83"/>
</g>
<!-- Node5 -->
<g id="node5" class="node">
<title>Node5</title>
<g id="a_node5"><a xlink:title=" ">
<polygon fill="white" stroke="#bfbfbf" points="374,-235.5 374,-254.5 434,-254.5 434,-235.5 374,-235.5"/>
<text text-anchor="middle" x="404" y="-242.5" font-family="Helvetica,sans-Serif" font-size="10.00">iostream</text>
</a>
</g>
</g>
<!-- Node4&#45;&gt;Node5 -->
<g id="edge4" class="edge">
<title>Node4&#45;&gt;Node5</title>
<path fill="none" stroke="midnightblue" d="M251.68,-291.44C282.53,-282.24 331.73,-267.56 365.83,-257.39"/>
<polygon fill="midnightblue" stroke="midnightblue" points="366.87,-260.73 375.45,-254.52 364.87,-254.02 366.87,-260.73"/>
</g>
<!-- Node6 -->
<g id="node6" class="node">
<title>Node6</title>
<g id="a_node6"><a xlink:title=" ">
<polygon fill="white" stroke="#bfbfbf" points="106.5,-235.5 106.5,-254.5 153.5,-254.5 153.5,-235.5 106.5,-235.5"/>
<text text-anchor="middle" x="130" y="-242.5" font-family="Helvetica,sans-Serif" font-size="10.00">cmath</text>
</a>
</g>
</g>
<!-- Node4&#45;&gt;Node6 -->
<g id="edge5" class="edge">
<title>Node4&#45;&gt;Node6</title>
<path fill="none" stroke="midnightblue" d="M208.06,-291.32C193.41,-282.82 170.87,-269.73 153.76,-259.8"/>
<polygon fill="midnightblue" stroke="midnightblue" points="155.31,-256.65 144.9,-254.65 151.8,-262.7 155.31,-256.65"/>
</g>
<!-- Node7 -->
<g id="node7" class="node">
<title>Node7</title>
<g id="a_node7"><a xlink:href="lib_2Ray_2sources_2Vector_2Vector3_8hpp.html" target="_top" xlink:title=" ">
<polygon fill="white" stroke="black" points="172,-235.5 172,-254.5 280,-254.5 280,-235.5 172,-235.5"/>
<text text-anchor="middle" x="226" y="-242.5" font-family="Helvetica,sans-Serif" font-size="10.00">Vector/Vector3.hpp</text>
</a>
</g>
</g>
<!-- Node4&#45;&gt;Node7 -->
<g id="edge6" class="edge">
<title>Node4&#45;&gt;Node7</title>
<path fill="none" stroke="midnightblue" d="M223.5,-291.08C223.89,-284.01 224.45,-273.86 224.95,-264.99"/>
<polygon fill="midnightblue" stroke="midnightblue" points="228.45,-264.93 225.51,-254.75 221.46,-264.54 228.45,-264.93"/>
</g>
<!-- Node8 -->
<g id="node8" class="node">
<title>Node8</title>
<g id="a_node8"><a xlink:title=" ">
<polygon fill="white" stroke="#bfbfbf" points="167.5,-174 167.5,-193 220.5,-193 220.5,-174 167.5,-174"/>
<text text-anchor="middle" x="194" y="-181" font-family="Helvetica,sans-Serif" font-size="10.00">raylib.h</text>
</a>
</g>
</g>
<!-- Node7&#45;&gt;Node8 -->
<g id="edge7" class="edge">
<title>Node7&#45;&gt;Node8</title>
<path fill="none" stroke="midnightblue" d="M221.42,-235.48C216.76,-226.82 209.41,-213.15 203.49,-202.15"/>
<polygon fill="midnightblue" stroke="midnightblue" points="206.4,-200.16 198.58,-193.01 200.23,-203.47 206.4,-200.16"/>
</g>
<!-- Node10 -->
<g id="node10" class="node">
<title>Node10</title>
<g id="a_node10"><a xlink:title=" ">
<polygon fill="white" stroke="#bfbfbf" points="582,-0.5 582,-19.5 626,-19.5 626,-0.5 582,-0.5"/>
<text text-anchor="middle" x="604" y="-7.5" font-family="Helvetica,sans-Serif" font-size="10.00">string</text>
</a>
</g>
</g>
<!-- Node9&#45;&gt;Node10 -->
<g id="edge9" class="edge">
<title>Node9&#45;&gt;Node10</title>
<path fill="none" stroke="midnightblue" d="M538.22,-112.43C540.37,-99.43 545.72,-74.29 557,-56 564.07,-44.55 574.73,-34.01 584.12,-26.02"/>
<polygon fill="midnightblue" stroke="midnightblue" points="586.36,-28.71 591.91,-19.69 581.94,-23.27 586.36,-28.71"/>
</g>
<!-- Node11 -->
<g id="node11" class="node">
<title>Node11</title>
<g id="a_node11"><a xlink:title=" ">
<polygon fill="white" stroke="#bfbfbf" points="1059.5,-56.5 1059.5,-75.5 1152.5,-75.5 1152.5,-56.5 1059.5,-56.5"/>
<text text-anchor="middle" x="1106" y="-63.5" font-family="Helvetica,sans-Serif" font-size="10.00">unordered_map</text>
</a>
</g>
</g>
<!-- Node9&#45;&gt;Node11 -->
<g id="edge10" class="edge">
<title>Node9&#45;&gt;Node11</title>
<path fill="none" stroke="midnightblue" d="M585.02,-116.44C689.47,-106.53 936.88,-83.05 1049.01,-72.41"/>
<polygon fill="midnightblue" stroke="midnightblue" points="1049.48,-75.88 1059.11,-71.45 1048.82,-68.91 1049.48,-75.88"/>
</g>
<!-- Node12 -->
<g id="node12" class="node">
<title>Node12</title>
<g id="a_node12"><a xlink:title=" ">
<polygon fill="white" stroke="#bfbfbf" points="565.5,-56.5 565.5,-75.5 622.5,-75.5 622.5,-56.5 565.5,-56.5"/>
<text text-anchor="middle" x="594" y="-63.5" font-family="Helvetica,sans-Serif" font-size="10.00">typeinfo</text>
</a>
</g>
</g>
<!-- Node9&#45;&gt;Node12 -->
<g id="edge11" class="edge">
<title>Node9&#45;&gt;Node12</title>
<path fill="none" stroke="midnightblue" d="M546.16,-112.32C554.5,-104.42 567.03,-92.55 577.18,-82.94"/>
<polygon fill="midnightblue" stroke="midnightblue" points="579.82,-85.25 584.68,-75.83 575.01,-80.17 579.82,-85.25"/>
</g>
<!-- Node13 -->
<g id="node13" class="node">
<title>Node13</title>
<g id="a_node13"><a xlink:title=" ">
<polygon fill="white" stroke="#bfbfbf" points="906,-56.5 906,-75.5 964,-75.5 964,-56.5 906,-56.5"/>
<text text-anchor="middle" x="935" y="-63.5" font-family="Helvetica,sans-Serif" font-size="10.00">memory</text>
</a>
</g>
</g>
<!-- Node9&#45;&gt;Node13 -->
<g id="edge12" class="edge">
<title>Node9&#45;&gt;Node13</title>
<path fill="none" stroke="midnightblue" d="M585.01,-114.49C664.52,-103.7 822.05,-82.32 895.54,-72.35"/>
<polygon fill="midnightblue" stroke="midnightblue" points="896.31,-75.78 905.75,-70.97 895.37,-68.85 896.31,-75.78"/>
</g>
<!-- Node14 -->
<g id="node14" class="node">
<title>Node14</title>
<g id="a_node14"><a xlink:href="Component_8hpp.html" target="_top" xlink:title=" ">
<polygon fill="white" stroke="black" points="207.5,-56.5 207.5,-75.5 360.5,-75.5 360.5,-56.5 207.5,-56.5"/>
<text text-anchor="middle" x="284" y="-63.5" font-family="Helvetica,sans-Serif" font-size="10.00">Component/Component.hpp</text>
</a>
</g>
</g>
<!-- Node9&#45;&gt;Node14 -->
<g id="edge13" class="edge">
<title>Node9&#45;&gt;Node14</title>
<path fill="none" stroke="midnightblue" d="M496.91,-112.44C452.68,-103 381.46,-87.8 333.72,-77.61"/>
<polygon fill="midnightblue" stroke="midnightblue" points="334.41,-74.18 323.9,-75.52 332.95,-81.03 334.41,-74.18"/>
</g>
<!-- Node17 -->
<g id="node17" class="node">
<title>Node17</title>
<g id="a_node17"><a xlink:href="WalError_8hpp.html" target="_top" xlink:title=" ">
<polygon fill="white" stroke="black" points="679.5,-56.5 679.5,-75.5 808.5,-75.5 808.5,-56.5 679.5,-56.5"/>
<text text-anchor="middle" x="744" y="-63.5" font-family="Helvetica,sans-Serif" font-size="10.00">Exception/WalError.hpp</text>
</a>
</g>
</g>
<!-- Node9&#45;&gt;Node17 -->
<g id="edge17" class="edge">
<title>Node9&#45;&gt;Node17</title>
<path fill="none" stroke="midnightblue" d="M569.8,-112.44C605.38,-103.16 662.31,-88.31 701.35,-78.13"/>
<polygon fill="midnightblue" stroke="midnightblue" points="702.56,-81.43 711.35,-75.52 700.79,-74.65 702.56,-81.43"/>
</g>
<!-- Node20 -->
<g id="node20" class="node">
<title>Node20</title>
<g id="a_node20"><a xlink:href="TypeHolder_8hpp.html" target="_top" xlink:title=" ">
<polygon fill="white" stroke="black" points="379,-56.5 379,-75.5 509,-75.5 509,-56.5 379,-56.5"/>
<text text-anchor="middle" x="444" y="-63.5" font-family="Helvetica,sans-Serif" font-size="10.00">Models/TypeHolder.hpp</text>
</a>
</g>
</g>
<!-- Node9&#45;&gt;Node20 -->
<g id="edge21" class="edge">
<title>Node9&#45;&gt;Node20</title>
<path fill="none" stroke="midnightblue" d="M522.06,-112.32C507.41,-103.82 484.87,-90.73 467.76,-80.8"/>
<polygon fill="midnightblue" stroke="midnightblue" points="469.31,-77.65 458.9,-75.65 465.8,-83.7 469.31,-77.65"/>
</g>
<!-- Node14&#45;&gt;Node10 -->
<g id="edge15" class="edge">
<title>Node14&#45;&gt;Node10</title>
<path fill="none" stroke="midnightblue" d="M334.7,-56.44C401.26,-45.21 516.15,-25.82 571.86,-16.42"/>
<polygon fill="midnightblue" stroke="midnightblue" points="572.58,-19.85 581.86,-14.74 571.42,-12.95 572.58,-19.85"/>
</g>
<!-- Node15 -->
<g id="node15" class="node">
<title>Node15</title>
<g id="a_node15"><a xlink:title=" ">
<polygon fill="white" stroke="#bfbfbf" points="1208.5,-0.5 1208.5,-19.5 1255.5,-19.5 1255.5,-0.5 1208.5,-0.5"/>
<text text-anchor="middle" x="1232" y="-7.5" font-family="Helvetica,sans-Serif" font-size="10.00">vector</text>
</a>
</g>
</g>
<!-- Node14&#45;&gt;Node15 -->
<g id="edge14" class="edge">
<title>Node14&#45;&gt;Node15</title>
<path fill="none" stroke="midnightblue" d="M360.88,-56.75C363.96,-56.49 367.01,-56.23 370,-56 691.99,-30.76 1082.78,-16.13 1198.31,-12.13"/>
<polygon fill="midnightblue" stroke="midnightblue" points="1198.44,-15.62 1208.32,-11.78 1198.2,-8.63 1198.44,-15.62"/>
</g>
<!-- Node16 -->
<g id="node16" class="node">
<title>Node16</title>
<g id="a_node16"><a xlink:title=" ">
<polygon fill="white" stroke="#bfbfbf" points="251.5,-0.5 251.5,-19.5 316.5,-19.5 316.5,-0.5 251.5,-0.5"/>
<text text-anchor="middle" x="284" y="-7.5" font-family="Helvetica,sans-Serif" font-size="10.00">typeindex</text>
</a>
</g>
</g>
<!-- Node14&#45;&gt;Node16 -->
<g id="edge16" class="edge">
<title>Node14&#45;&gt;Node16</title>
<path fill="none" stroke="midnightblue" d="M284,-56.08C284,-49.01 284,-38.86 284,-29.99"/>
<polygon fill="midnightblue" stroke="midnightblue" points="287.5,-29.75 284,-19.75 280.5,-29.75 287.5,-29.75"/>
</g>
<!-- Node17&#45;&gt;Node10 -->
<g id="edge20" class="edge">
<title>Node17&#45;&gt;Node10</title>
<path fill="none" stroke="midnightblue" d="M721.82,-56.44C698.57,-47.48 661.85,-33.31 635.58,-23.18"/>
<polygon fill="midnightblue" stroke="midnightblue" points="636.67,-19.85 626.08,-19.52 634.15,-26.38 636.67,-19.85"/>
</g>
<!-- Node18 -->
<g id="node18" class="node">
<title>Node18</title>
<g id="a_node18"><a xlink:title=" ">
<polygon fill="white" stroke="#bfbfbf" points="761.5,-0.5 761.5,-19.5 826.5,-19.5 826.5,-0.5 761.5,-0.5"/>
<text text-anchor="middle" x="794" y="-7.5" font-family="Helvetica,sans-Serif" font-size="10.00">exception</text>
</a>
</g>
</g>
<!-- Node17&#45;&gt;Node18 -->
<g id="edge18" class="edge">
<title>Node17&#45;&gt;Node18</title>
<path fill="none" stroke="midnightblue" d="M752.26,-56.08C759.46,-48.3 770.11,-36.8 778.85,-27.37"/>
<polygon fill="midnightblue" stroke="midnightblue" points="781.67,-29.47 785.9,-19.75 776.53,-24.71 781.67,-29.47"/>
</g>
<!-- Node19 -->
<g id="node19" class="node">
<title>Node19</title>
<g id="a_node19"><a xlink:title=" ">
<polygon fill="white" stroke="#bfbfbf" points="678.5,-0.5 678.5,-19.5 743.5,-19.5 743.5,-0.5 678.5,-0.5"/>
<text text-anchor="middle" x="711" y="-7.5" font-family="Helvetica,sans-Serif" font-size="10.00">stdexcept</text>
</a>
</g>
</g>
<!-- Node17&#45;&gt;Node19 -->
<g id="edge19" class="edge">
<title>Node17&#45;&gt;Node19</title>
<path fill="none" stroke="midnightblue" d="M738.55,-56.08C733.99,-48.61 727.33,-37.72 721.71,-28.52"/>
<polygon fill="midnightblue" stroke="midnightblue" points="724.55,-26.46 716.35,-19.75 718.58,-30.11 724.55,-26.46"/>
</g>
<!-- Node21&#45;&gt;Node4 -->
<g id="edge23" class="edge">
<title>Node21&#45;&gt;Node4</title>
<path fill="none" stroke="midnightblue" d="M104.73,-347.4C130.97,-337.33 165.93,-323.91 191.02,-314.28"/>
<polygon fill="midnightblue" stroke="midnightblue" points="192.36,-317.51 200.45,-310.66 189.86,-310.97 192.36,-317.51"/>
</g>
<!-- Node21&#45;&gt;Node14 -->
<g id="edge24" class="edge">
<title>Node21&#45;&gt;Node14</title>
<path fill="none" stroke="midnightblue" d="M68.9,-347.41C70.93,-323.16 77.37,-272.53 97,-235 135.1,-162.17 218.35,-105.58 259.69,-80.74"/>
<polygon fill="midnightblue" stroke="midnightblue" points="261.71,-83.62 268.55,-75.53 258.16,-77.59 261.71,-83.62"/>
</g>
<!-- Node22&#45;&gt;Node9 -->
<g id="edge27" class="edge">
<title>Node22&#45;&gt;Node9</title>
<path fill="none" stroke="midnightblue" d="M396.61,-168.4C428.4,-158.12 470.97,-144.35 500.87,-134.68"/>
<polygon fill="midnightblue" stroke="midnightblue" points="502.06,-137.98 510.49,-131.57 499.9,-131.32 502.06,-137.98"/>
</g>
<!-- Node22&#45;&gt;Node14 -->
<g id="edge26" class="edge">
<title>Node22&#45;&gt;Node14</title>
<path fill="none" stroke="midnightblue" d="M344.54,-168.34C331.88,-147.15 308.04,-107.24 294.36,-84.34"/>
<polygon fill="midnightblue" stroke="midnightblue" points="297.31,-82.46 289.18,-75.67 291.3,-86.05 297.31,-82.46"/>
</g>
<!-- Node23&#45;&gt;Node5 -->
<g id="edge64" class="edge">
<title>Node23&#45;&gt;Node5</title>
<path fill="none" stroke="midnightblue" d="M528.2,-352.96C504.71,-344.94 471.67,-331.13 448,-311 432.63,-297.93 420.32,-278.23 412.67,-263.95"/>
<polygon fill="midnightblue" stroke="midnightblue" points="415.61,-262 407.95,-254.68 409.37,-265.18 415.61,-262"/>
</g>
<!-- Node23&#45;&gt;Node9 -->
<g id="edge33" class="edge">
<title>Node23&#45;&gt;Node9</title>
<path fill="none" stroke="midnightblue" d="M556.26,-352.73C553.35,-318.03 542.61,-189.89 538.56,-141.59"/>
<polygon fill="midnightblue" stroke="midnightblue" points="542.04,-141.27 537.72,-131.6 535.07,-141.86 542.04,-141.27"/>
</g>
<!-- Node23&#45;&gt;Node12 -->
<g id="edge31" class="edge">
<title>Node23&#45;&gt;Node12</title>
<path fill="none" stroke="midnightblue" d="M549.53,-352.98C521.09,-319.45 423.9,-194.46 480,-112 496.8,-87.31 529.45,-76.16 555.52,-71.13"/>
<polygon fill="midnightblue" stroke="midnightblue" points="556.23,-74.56 565.5,-69.44 555.05,-67.66 556.23,-74.56"/>
</g>
<!-- Node23&#45;&gt;Node15 -->
<g id="edge30" class="edge">
<title>Node23&#45;&gt;Node15</title>
<path fill="none" stroke="midnightblue" d="M614.11,-358.88C791.48,-349.99 1321,-317.47 1321,-246 1321,-246 1321,-246 1321,-121 1321,-78.85 1281.01,-43.78 1254.64,-25.24"/>
<polygon fill="midnightblue" stroke="midnightblue" points="1256.54,-22.3 1246.3,-19.6 1252.62,-28.1 1256.54,-22.3"/>
</g>
<!-- Node23&#45;&gt;Node16 -->
<g id="edge32" class="edge">
<title>Node23&#45;&gt;Node16</title>
<path fill="none" stroke="midnightblue" d="M545.9,-352.8C533.95,-343.18 514.69,-326.94 500,-311 471.39,-279.95 478.66,-257.61 443,-235 375.94,-192.48 332.25,-245.66 268,-199 239.37,-178.21 179.68,-86.27 198,-56 207.63,-40.09 224.94,-29.54 241.51,-22.68"/>
<polygon fill="midnightblue" stroke="midnightblue" points="243,-25.86 251.12,-19.05 240.53,-19.31 243,-25.86"/>
</g>
<!-- Node24 -->
<g id="node24" class="node">
<title>Node24</title>
<g id="a_node24"><a xlink:title=" ">
<polygon fill="white" stroke="#bfbfbf" points="565,-174 565,-193 615,-193 615,-174 565,-174"/>
<text text-anchor="middle" x="590" y="-181" font-family="Helvetica,sans-Serif" font-size="10.00">chrono</text>
</a>
</g>
</g>
<!-- Node23&#45;&gt;Node24 -->
<g id="edge29" class="edge">
<title>Node23&#45;&gt;Node24</title>
<path fill="none" stroke="midnightblue" d="M558.59,-352.96C563.63,-325.93 579.33,-241.74 586.44,-203.61"/>
<polygon fill="midnightblue" stroke="midnightblue" points="589.95,-203.84 588.35,-193.37 583.07,-202.56 589.95,-203.84"/>
</g>
<!-- Node25 -->
<g id="node25" class="node">
<title>Node25</title>
<g id="a_node25"><a xlink:href="Wal_8hpp.html" target="_top" xlink:title=" ">
<polygon fill="white" stroke="black" points="986,-291.5 986,-310.5 1042,-310.5 1042,-291.5 986,-291.5"/>
<text text-anchor="middle" x="1014" y="-298.5" font-family="Helvetica,sans-Serif" font-size="10.00">Wal.hpp</text>
</a>
</g>
</g>
<!-- Node23&#45;&gt;Node25 -->
<g id="edge34" class="edge">
<title>Node23&#45;&gt;Node25</title>
<path fill="none" stroke="midnightblue" d="M614.42,-354.02C709.06,-341.7 895.31,-317.45 975.64,-306.99"/>
<polygon fill="midnightblue" stroke="midnightblue" points="976.33,-310.43 985.8,-305.67 975.43,-303.49 976.33,-310.43"/>
</g>
<!-- Node27 -->
<g id="node27" class="node">
<title>Node27</title>
<g id="a_node27"><a xlink:href="ISystem_8hpp.html" target="_top" xlink:title=" ">
<polygon fill="white" stroke="black" points="604.5,-235.5 604.5,-254.5 721.5,-254.5 721.5,-235.5 604.5,-235.5"/>
<text text-anchor="middle" x="663" y="-242.5" font-family="Helvetica,sans-Serif" font-size="10.00">System/ISystem.hpp</text>
</a>
</g>
</g>
<!-- Node23&#45;&gt;Node27 -->
<g id="edge63" class="edge">
<title>Node23&#45;&gt;Node27</title>
<path fill="none" stroke="midnightblue" d="M564.97,-352.82C582.62,-333.59 625.24,-287.14 648.04,-262.31"/>
<polygon fill="midnightblue" stroke="midnightblue" points="650.76,-264.52 654.94,-254.78 645.6,-259.78 650.76,-264.52"/>
</g>
<!-- Node28 -->
<g id="node28" class="node">
<title>Node28</title>
<g id="a_node28"><a xlink:href="View_8hpp.html" target="_top" xlink:title=" ">
<polygon fill="white" stroke="black" points="709,-174 709,-193 797,-193 797,-174 709,-174"/>
<text text-anchor="middle" x="753" y="-181" font-family="Helvetica,sans-Serif" font-size="10.00">View/View.hpp</text>
</a>
</g>
</g>
<!-- Node23&#45;&gt;Node28 -->
<g id="edge62" class="edge">
<title>Node23&#45;&gt;Node28</title>
<path fill="none" stroke="midnightblue" d="M581.66,-352.93C619.36,-338.58 691.16,-306.12 731,-255 742.68,-240.01 748.21,-218.75 750.8,-203.5"/>
<polygon fill="midnightblue" stroke="midnightblue" points="754.32,-203.6 752.25,-193.21 747.39,-202.62 754.32,-203.6"/>
</g>
<!-- Node25&#45;&gt;Node10 -->
<g id="edge37" class="edge">
<title>Node25&#45;&gt;Node10</title>
<path fill="none" stroke="midnightblue" d="M1018.62,-291.34C1023.06,-282.49 1029.45,-268.22 1032,-255 1033.68,-246.27 1032.4,-243.88 1032,-235 1028.26,-151.32 1041,-104.91 973,-56 917.95,-16.41 737.26,-28.58 670,-20 659.07,-18.61 647.14,-17 636.46,-15.54"/>
<polygon fill="midnightblue" stroke="midnightblue" points="636.67,-12.04 626.29,-14.14 635.72,-18.97 636.67,-12.04"/>
</g>
<!-- Node25&#45;&gt;Node12 -->
<g id="edge39" class="edge">
<title>Node25&#45;&gt;Node12</title>
<path fill="none" stroke="midnightblue" d="M1009.95,-291.27C994.03,-257.37 934.99,-135.22 900,-112 888.95,-104.67 712.6,-81.84 632.75,-71.81"/>
<polygon fill="midnightblue" stroke="midnightblue" points="632.96,-68.31 622.6,-70.54 632.09,-75.25 632.96,-68.31"/>
</g>
<!-- Node25&#45;&gt;Node13 -->
<g id="edge38" class="edge">
<title>Node25&#45;&gt;Node13</title>
<path fill="none" stroke="midnightblue" d="M1015.27,-291.38C1018.1,-269.88 1023.58,-212.45 1009,-168 997.73,-133.64 969.85,-101.28 951.71,-82.83"/>
<polygon fill="midnightblue" stroke="midnightblue" points="953.96,-80.13 944.39,-75.6 949.04,-85.11 953.96,-80.13"/>
</g>
<!-- Node25&#45;&gt;Node15 -->
<g id="edge36" class="edge">
<title>Node25&#45;&gt;Node15</title>
<path fill="none" stroke="midnightblue" d="M1042.03,-300.48C1110.92,-300.05 1283,-288.56 1283,-184.5 1283,-184.5 1283,-184.5 1283,-121 1283,-85.24 1260.55,-48.51 1245.44,-27.84"/>
<polygon fill="midnightblue" stroke="midnightblue" points="1248.14,-25.61 1239.31,-19.77 1242.57,-29.85 1248.14,-25.61"/>
</g>
<!-- Node25&#45;&gt;Node17 -->
<g id="edge40" class="edge">
<title>Node25&#45;&gt;Node17</title>
<path fill="none" stroke="midnightblue" d="M1012.99,-291.28C1009.03,-261.27 991.77,-161.39 933,-112 901.35,-85.41 856.7,-73.96 818.73,-69.26"/>
<polygon fill="midnightblue" stroke="midnightblue" points="819.06,-65.77 808.73,-68.15 818.29,-72.73 819.06,-65.77"/>
</g>
<!-- Node26 -->
<g id="node26" class="node">
<title>Node26</title>
<g id="a_node26"><a xlink:title=" ">
<polygon fill="white" stroke="#bfbfbf" points="1099.5,-112.5 1099.5,-131.5 1144.5,-131.5 1144.5,-112.5 1099.5,-112.5"/>
<text text-anchor="middle" x="1122" y="-119.5" font-family="Helvetica,sans-Serif" font-size="10.00">utility</text>
</a>
</g>
</g>
<!-- Node25&#45;&gt;Node26 -->
<g id="edge35" class="edge">
<title>Node25&#45;&gt;Node26</title>
<path fill="none" stroke="midnightblue" d="M1042.3,-296.15C1090.02,-287.96 1185.25,-263.92 1226,-199 1233.32,-187.33 1233.56,-179.52 1226,-168 1210.31,-144.12 1178.95,-132.85 1154.74,-127.57"/>
<polygon fill="midnightblue" stroke="midnightblue" points="1155.36,-124.12 1144.88,-125.65 1154.03,-131 1155.36,-124.12"/>
</g>
<!-- Node25&#45;&gt;Node27 -->
<g id="edge41" class="edge">
<title>Node25&#45;&gt;Node27</title>
<path fill="none" stroke="midnightblue" d="M985.87,-295.67C930.44,-287.15 805.82,-267.97 728.63,-256.1"/>
<polygon fill="midnightblue" stroke="midnightblue" points="728.94,-252.6 718.53,-254.54 727.88,-259.52 728.94,-252.6"/>
</g>
<!-- Node33 -->
<g id="node33" class="node">
<title>Node33</title>
<g id="a_node33"><a xlink:href="Callback_8hpp.html" target="_top" xlink:title=" ">
<polygon fill="white" stroke="black" points="1099,-174 1099,-193 1217,-193 1217,-174 1099,-174"/>
<text text-anchor="middle" x="1158" y="-181" font-family="Helvetica,sans-Serif" font-size="10.00">Models/Callback.hpp</text>
</a>
</g>
</g>
<!-- Node25&#45;&gt;Node33 -->
<g id="edge52" class="edge">
<title>Node25&#45;&gt;Node33</title>
<path fill="none" stroke="midnightblue" d="M1029.56,-291.37C1044.37,-282.88 1066.99,-269.16 1085,-255 1106.5,-238.09 1128.77,-215.76 1142.97,-200.81"/>
<polygon fill="midnightblue" stroke="midnightblue" points="1145.69,-203.03 1149.97,-193.34 1140.58,-198.24 1145.69,-203.03"/>
</g>
<!-- Node34 -->
<g id="node34" class="node">
<title>Node34</title>
<g id="a_node34"><a xlink:href="Scene_8hpp.html" target="_top" xlink:title=" ">
<polygon fill="white" stroke="black" points="786.5,-235.5 786.5,-254.5 885.5,-254.5 885.5,-235.5 786.5,-235.5"/>
<text text-anchor="middle" x="836" y="-242.5" font-family="Helvetica,sans-Serif" font-size="10.00">Scene/Scene.hpp</text>
</a>
</g>
</g>
<!-- Node25&#45;&gt;Node34 -->
<g id="edge56" class="edge">
<title>Node25&#45;&gt;Node34</title>
<path fill="none" stroke="midnightblue" d="M985.8,-291.44C955.59,-282.28 907.49,-267.69 873.97,-257.52"/>
<polygon fill="midnightblue" stroke="midnightblue" points="874.66,-254.07 864.07,-254.52 872.63,-260.77 874.66,-254.07"/>
</g>
<!-- Node27&#45;&gt;Node9 -->
<g id="edge42" class="edge">
<title>Node27&#45;&gt;Node9</title>
<path fill="none" stroke="midnightblue" d="M660.53,-235.43C655.74,-220.15 643.89,-187.96 624,-168 609.75,-153.7 590.01,-142.99 572.93,-135.61"/>
<polygon fill="midnightblue" stroke="midnightblue" points="573.83,-132.2 563.25,-131.65 571.18,-138.67 573.83,-132.2"/>
</g>
<!-- Node27&#45;&gt;Node24 -->
<g id="edge51" class="edge">
<title>Node27&#45;&gt;Node24</title>
<path fill="none" stroke="midnightblue" d="M652.54,-235.48C641.05,-226.11 622.37,-210.88 608.41,-199.51"/>
<polygon fill="midnightblue" stroke="midnightblue" points="610.4,-196.61 600.44,-193.01 605.98,-202.04 610.4,-196.61"/>
</g>
<!-- Node27&#45;&gt;Node28 -->
<g id="edge43" class="edge">
<title>Node27&#45;&gt;Node28</title>
<path fill="none" stroke="midnightblue" d="M675.89,-235.48C690.46,-225.84 714.4,-210.02 731.75,-198.55"/>
<polygon fill="midnightblue" stroke="midnightblue" points="733.72,-201.44 740.13,-193.01 729.86,-195.6 733.72,-201.44"/>
</g>
<!-- Node28&#45;&gt;Node9 -->
<g id="edge50" class="edge">
<title>Node28&#45;&gt;Node9</title>
<path fill="none" stroke="midnightblue" d="M722.05,-173.98C684.12,-163.53 619.72,-145.79 577.78,-134.23"/>
<polygon fill="midnightblue" stroke="midnightblue" points="578.46,-130.79 567.89,-131.51 576.6,-137.54 578.46,-130.79"/>
</g>
<!-- Node28&#45;&gt;Node16 -->
<g id="edge46" class="edge">
<title>Node28&#45;&gt;Node16</title>
<path fill="none" stroke="midnightblue" d="M722.82,-173.93C690.83,-164.17 643.48,-147.56 633,-132 614.13,-103.98 654.47,-81.22 632,-56 611.97,-33.52 415.31,-18.92 326.79,-13.44"/>
<polygon fill="midnightblue" stroke="midnightblue" points="326.75,-9.93 316.55,-12.82 326.32,-16.92 326.75,-9.93"/>
</g>
<!-- Node28&#45;&gt;Node26 -->
<g id="edge48" class="edge">
<title>Node28&#45;&gt;Node26</title>
<path fill="none" stroke="midnightblue" d="M797.14,-175.38C872.14,-163.29 1022.74,-139.01 1089.2,-128.29"/>
<polygon fill="midnightblue" stroke="midnightblue" points="1089.81,-131.74 1099.12,-126.69 1088.69,-124.83 1089.81,-131.74"/>
</g>
<!-- Node29 -->
<g id="node29" class="node">
<title>Node29</title>
<g id="a_node29"><a xlink:title=" ">
<polygon fill="white" stroke="#bfbfbf" points="775,-112.5 775,-131.5 807,-131.5 807,-112.5 775,-112.5"/>
<text text-anchor="middle" x="791" y="-119.5" font-family="Helvetica,sans-Serif" font-size="10.00">list</text>
</a>
</g>
</g>
<!-- Node28&#45;&gt;Node29 -->
<g id="edge44" class="edge">
<title>Node28&#45;&gt;Node29</title>
<path fill="none" stroke="midnightblue" d="M758.44,-173.98C764.09,-165.14 773.06,-151.09 780.16,-139.98"/>
<polygon fill="midnightblue" stroke="midnightblue" points="783.13,-141.82 785.57,-131.51 777.23,-138.05 783.13,-141.82"/>
</g>
<!-- Node30 -->
<g id="node30" class="node">
<title>Node30</title>
<g id="a_node30"><a xlink:title=" ">
<polygon fill="white" stroke="#bfbfbf" points="641.5,-112.5 641.5,-131.5 682.5,-131.5 682.5,-112.5 641.5,-112.5"/>
<text text-anchor="middle" x="662" y="-119.5" font-family="Helvetica,sans-Serif" font-size="10.00">tuple</text>
</a>
</g>
</g>
<!-- Node28&#45;&gt;Node30 -->
<g id="edge45" class="edge">
<title>Node28&#45;&gt;Node30</title>
<path fill="none" stroke="midnightblue" d="M739.96,-173.98C725.23,-164.34 701.03,-148.52 683.49,-137.05"/>
<polygon fill="midnightblue" stroke="midnightblue" points="685.3,-134.05 675.01,-131.51 681.47,-139.91 685.3,-134.05"/>
</g>
<!-- Node31 -->
<g id="node31" class="node">
<title>Node31</title>
<g id="a_node31"><a xlink:title=" ">
<polygon fill="white" stroke="#bfbfbf" points="825.5,-112.5 825.5,-131.5 890.5,-131.5 890.5,-112.5 825.5,-112.5"/>
<text text-anchor="middle" x="858" y="-119.5" font-family="Helvetica,sans-Serif" font-size="10.00">functional</text>
</a>
</g>
</g>
<!-- Node28&#45;&gt;Node31 -->
<g id="edge47" class="edge">
<title>Node28&#45;&gt;Node31</title>
<path fill="none" stroke="midnightblue" d="M768.04,-173.98C785.28,-164.21 813.74,-148.08 834.03,-136.58"/>
<polygon fill="midnightblue" stroke="midnightblue" points="836.01,-139.48 842.98,-131.51 832.56,-133.39 836.01,-139.48"/>
</g>
<!-- Node32 -->
<g id="node32" class="node">
<title>Node32</title>
<g id="a_node32"><a xlink:title=" ">
<polygon fill="white" stroke="#bfbfbf" points="701,-112.5 701,-131.5 757,-131.5 757,-112.5 701,-112.5"/>
<text text-anchor="middle" x="729" y="-119.5" font-family="Helvetica,sans-Serif" font-size="10.00">optional</text>
</a>
</g>
</g>
<!-- Node28&#45;&gt;Node32 -->
<g id="edge49" class="edge">
<title>Node28&#45;&gt;Node32</title>
<path fill="none" stroke="midnightblue" d="M749.56,-173.98C746.1,-165.4 740.67,-151.93 736.25,-140.98"/>
<polygon fill="midnightblue" stroke="midnightblue" points="739.42,-139.47 732.43,-131.51 732.93,-142.09 739.42,-139.47"/>
</g>
<!-- Node33&#45;&gt;Node11 -->
<g id="edge55" class="edge">
<title>Node33&#45;&gt;Node11</title>
<path fill="none" stroke="midnightblue" d="M1159.5,-173.76C1161.44,-159.92 1163.55,-132.44 1154,-112 1148.39,-99.99 1138.01,-89.63 1128.33,-81.88"/>
<polygon fill="midnightblue" stroke="midnightblue" points="1130.25,-78.95 1120.14,-75.77 1126.06,-84.56 1130.25,-78.95"/>
</g>
<!-- Node33&#45;&gt;Node26 -->
<g id="edge54" class="edge">
<title>Node33&#45;&gt;Node26</title>
<path fill="none" stroke="midnightblue" d="M1152.84,-173.98C1147.55,-165.23 1139.16,-151.37 1132.47,-140.31"/>
<polygon fill="midnightblue" stroke="midnightblue" points="1135.32,-138.25 1127.15,-131.51 1129.33,-141.88 1135.32,-138.25"/>
</g>
<!-- Node33&#45;&gt;Node31 -->
<g id="edge53" class="edge">
<title>Node33&#45;&gt;Node31</title>
<path fill="none" stroke="midnightblue" d="M1115.02,-173.98C1057.97,-162.66 957.84,-142.8 900.86,-131.5"/>
<polygon fill="midnightblue" stroke="midnightblue" points="901.23,-128.01 890.74,-129.49 899.87,-134.87 901.23,-128.01"/>
</g>
<!-- Node34&#45;&gt;Node9 -->
<g id="edge61" class="edge">
<title>Node34&#45;&gt;Node9</title>
<path fill="none" stroke="midnightblue" d="M803.65,-235.45C775.61,-227.54 734.27,-214.66 700,-199 675.53,-187.82 672.09,-179.98 648,-168 622.7,-155.42 592.98,-143.52 570.66,-135.11"/>
<polygon fill="midnightblue" stroke="midnightblue" points="571.88,-131.83 561.28,-131.62 569.43,-138.39 571.88,-131.83"/>
</g>
<!-- Node34&#45;&gt;Node15 -->
<g id="edge57" class="edge">
<title>Node34&#45;&gt;Node15</title>
<path fill="none" stroke="midnightblue" d="M852.38,-235.46C892.83,-214.38 1000.71,-158.26 1091,-112 1122.49,-95.87 1132.98,-96.23 1162,-76 1182.7,-61.57 1203.52,-41.33 1217,-27.29"/>
<polygon fill="midnightblue" stroke="midnightblue" points="1219.73,-29.5 1224.04,-19.83 1214.63,-24.7 1219.73,-29.5"/>
</g>
<!-- Node34&#45;&gt;Node28 -->
<g id="edge60" class="edge">
<title>Node34&#45;&gt;Node28</title>
<path fill="none" stroke="midnightblue" d="M824.11,-235.48C810.8,-225.93 789,-210.31 773.04,-198.87"/>
<polygon fill="midnightblue" stroke="midnightblue" points="775.04,-195.99 764.87,-193.01 770.96,-201.68 775.04,-195.99"/>
</g>
<!-- Node34&#45;&gt;Node29 -->
<g id="edge58" class="edge">
<title>Node34&#45;&gt;Node29</title>
<path fill="none" stroke="midnightblue" d="M832.76,-235.3C825.47,-215.68 807.6,-167.64 797.77,-141.19"/>
<polygon fill="midnightblue" stroke="midnightblue" points="800.97,-139.78 794.21,-131.62 794.41,-142.22 800.97,-139.78"/>
</g>
<!-- Node34&#45;&gt;Node31 -->
<g id="edge59" class="edge">
<title>Node34&#45;&gt;Node31</title>
<path fill="none" stroke="midnightblue" d="M837.58,-235.3C841.13,-215.76 849.81,-168.06 854.63,-141.55"/>
<polygon fill="midnightblue" stroke="midnightblue" points="858.09,-142.09 856.43,-131.62 851.2,-140.84 858.09,-142.09"/>
</g>
</g>
</svg>
