<?xml version="1.0" encoding="UTF-8" standalone="no"?>
<!DOCTYPE svg PUBLIC "-//W3C//DTD SVG 1.1//EN"
 "http://www.w3.org/Graphics/SVG/1.1/DTD/svg11.dtd">
<!-- Generated by graphviz version 2.43.0 (0)
 -->
<!-- Title: sources/Component/GridCentered/GridCenteredComponent.hpp Pages: 1 -->
<svg width="204pt" height="151pt"
 viewBox="0.00 0.00 204.00 151.00" xmlns="http://www.w3.org/2000/svg" xmlns:xlink="http://www.w3.org/1999/xlink">
<g id="graph0" class="graph" transform="scale(1 1) rotate(0) translate(4 147)">
<title>sources/Component/GridCentered/GridCenteredComponent.hpp</title>
<polygon fill="white" stroke="transparent" points="-4,4 -4,-147 200,-147 200,4 -4,4"/>
<!-- Node1 -->
<g id="node1" class="node">
<title>Node1</title>
<g id="a_node1"><a xlink:title=" ">
<polygon fill="#bfbfbf" stroke="black" points="0,-112.5 0,-142.5 181,-142.5 181,-112.5 0,-112.5"/>
<text text-anchor="start" x="8" y="-130.5" font-family="Helvetica,sans-Serif" font-size="10.00">sources/Component/GridCentered</text>
<text text-anchor="middle" x="90.5" y="-119.5" font-family="Helvetica,sans-Serif" font-size="10.00">/GridCenteredComponent.hpp</text>
</a>
</g>
</g>
<!-- Node2 -->
<g id="node2" class="node">
<title>Node2</title>
<g id="a_node2"><a xlink:href="Component_8hpp.html" target="_top" xlink:title=" ">
<polygon fill="white" stroke="black" points="14,-56.5 14,-75.5 167,-75.5 167,-56.5 14,-56.5"/>
<text text-anchor="middle" x="90.5" y="-63.5" font-family="Helvetica,sans-Serif" font-size="10.00">Component/Component.hpp</text>
</a>
</g>
</g>
<!-- Node1&#45;&gt;Node2 -->
<g id="edge1" class="edge">
<title>Node1&#45;&gt;Node2</title>
<path fill="none" stroke="midnightblue" d="M90.5,-112.4C90.5,-104.47 90.5,-94.46 90.5,-85.86"/>
<polygon fill="midnightblue" stroke="midnightblue" points="94,-85.66 90.5,-75.66 87,-85.66 94,-85.66"/>
</g>
<!-- Node3 -->
<g id="node3" class="node">
<title>Node3</title>
<g id="a_node3"><a xlink:title=" ">
<polygon fill="white" stroke="#bfbfbf" points="3,-0.5 3,-19.5 50,-19.5 50,-0.5 3,-0.5"/>
<text text-anchor="middle" x="26.5" y="-7.5" font-family="Helvetica,sans-Serif" font-size="10.00">vector</text>
</a>
</g>
</g>
<!-- Node2&#45;&gt;Node3 -->
<g id="edge2" class="edge">
<title>Node2&#45;&gt;Node3</title>
<path fill="none" stroke="midnightblue" d="M80.22,-56.32C70.66,-48.26 56.22,-36.08 44.72,-26.37"/>
<polygon fill="midnightblue" stroke="midnightblue" points="46.87,-23.61 36.97,-19.83 42.36,-28.96 46.87,-23.61"/>
</g>
<!-- Node4 -->
<g id="node4" class="node">
<title>Node4</title>
<g id="a_node4"><a xlink:title=" ">
<polygon fill="white" stroke="#bfbfbf" points="68.5,-0.5 68.5,-19.5 112.5,-19.5 112.5,-0.5 68.5,-0.5"/>
<text text-anchor="middle" x="90.5" y="-7.5" font-family="Helvetica,sans-Serif" font-size="10.00">string</text>
</a>
</g>
</g>
<!-- Node2&#45;&gt;Node4 -->
<g id="edge3" class="edge">
<title>Node2&#45;&gt;Node4</title>
<path fill="none" stroke="midnightblue" d="M90.5,-56.08C90.5,-49.01 90.5,-38.86 90.5,-29.99"/>
<polygon fill="midnightblue" stroke="midnightblue" points="94,-29.75 90.5,-19.75 87,-29.75 94,-29.75"/>
</g>
<!-- Node5 -->
<g id="node5" class="node">
<title>Node5</title>
<g id="a_node5"><a xlink:title=" ">
<polygon fill="white" stroke="#bfbfbf" points="131,-0.5 131,-19.5 196,-19.5 196,-0.5 131,-0.5"/>
<text text-anchor="middle" x="163.5" y="-7.5" font-family="Helvetica,sans-Serif" font-size="10.00">typeindex</text>
</a>
</g>
</g>
<!-- Node2&#45;&gt;Node5 -->
<g id="edge4" class="edge">
<title>Node2&#45;&gt;Node5</title>
<path fill="none" stroke="midnightblue" d="M102.23,-56.32C113.34,-48.11 130.24,-35.6 143.48,-25.81"/>
<polygon fill="midnightblue" stroke="midnightblue" points="145.6,-28.59 151.56,-19.83 141.44,-22.97 145.6,-28.59"/>
</g>
</g>
</svg>
