<?xml version="1.0" encoding="UTF-8" standalone="no"?>
<!DOCTYPE svg PUBLIC "-//W3C//DTD SVG 1.1//EN"
 "http://www.w3.org/Graphics/SVG/1.1/DTD/svg11.dtd">
<!-- Generated by graphviz version 2.43.0 (0)
 -->
<!-- Title: sources/System/GridCentered/GridCenteredSystem.cpp Pages: 1 -->
<svg width="1222pt" height="509pt"
 viewBox="0.00 0.00 1221.50 509.00" xmlns="http://www.w3.org/2000/svg" xmlns:xlink="http://www.w3.org/1999/xlink">
<g id="graph0" class="graph" transform="scale(1 1) rotate(0) translate(4 505)">
<title>sources/System/GridCentered/GridCenteredSystem.cpp</title>
<polygon fill="white" stroke="transparent" points="-4,4 -4,-505 1217.5,-505 1217.5,4 -4,4"/>
<!-- Node1 -->
<g id="node1" class="node">
<title>Node1</title>
<g id="a_node1"><a xlink:title=" ">
<polygon fill="#bfbfbf" stroke="black" points="306.5,-470.5 306.5,-500.5 467.5,-500.5 467.5,-470.5 306.5,-470.5"/>
<text text-anchor="start" x="314.5" y="-488.5" font-family="Helvetica,sans-Serif" font-size="10.00">sources/System/GridCentered</text>
<text text-anchor="middle" x="387" y="-477.5" font-family="Helvetica,sans-Serif" font-size="10.00">/GridCenteredSystem.cpp</text>
</a>
</g>
</g>
<!-- Node2 -->
<g id="node2" class="node">
<title>Node2</title>
<g id="a_node2"><a xlink:href="MovableComponent_8hpp.html" target="_top" xlink:title=" ">
<polygon fill="white" stroke="black" points="967.5,-336.5 967.5,-366.5 1130.5,-366.5 1130.5,-336.5 967.5,-336.5"/>
<text text-anchor="start" x="975.5" y="-354.5" font-family="Helvetica,sans-Serif" font-size="10.00">Component/Movable/Movable</text>
<text text-anchor="middle" x="1049" y="-343.5" font-family="Helvetica,sans-Serif" font-size="10.00">Component.hpp</text>
</a>
</g>
</g>
<!-- Node1&#45;&gt;Node2 -->
<g id="edge1" class="edge">
<title>Node1&#45;&gt;Node2</title>
<path fill="none" stroke="midnightblue" d="M457.22,-470.5C581.11,-445.8 837.73,-394.63 968.54,-368.54"/>
<polygon fill="midnightblue" stroke="midnightblue" points="969.38,-371.94 978.5,-366.56 968.01,-365.08 969.38,-371.94"/>
</g>
<!-- Node20 -->
<g id="node20" class="node">
<title>Node20</title>
<g id="a_node20"><a xlink:href="GridCenteredComponent_8hpp.html" target="_top" xlink:title=" ">
<polygon fill="white" stroke="black" points="84.5,-403.5 84.5,-433.5 245.5,-433.5 245.5,-403.5 84.5,-403.5"/>
<text text-anchor="start" x="92.5" y="-421.5" font-family="Helvetica,sans-Serif" font-size="10.00">Component/GridCentered</text>
<text text-anchor="middle" x="165" y="-410.5" font-family="Helvetica,sans-Serif" font-size="10.00">/GridCenteredComponent.hpp</text>
</a>
</g>
</g>
<!-- Node1&#45;&gt;Node20 -->
<g id="edge21" class="edge">
<title>Node1&#45;&gt;Node20</title>
<path fill="none" stroke="midnightblue" d="M339.1,-470.48C305.08,-460.51 259.22,-447.09 223.1,-436.51"/>
<polygon fill="midnightblue" stroke="midnightblue" points="223.77,-433.06 213.19,-433.61 221.81,-439.78 223.77,-433.06"/>
</g>
<!-- Node21 -->
<g id="node21" class="node">
<title>Node21</title>
<g id="a_node21"><a xlink:href="GridCenteredSystem_8hpp.html" target="_top" xlink:title=" ">
<polygon fill="white" stroke="black" points="317.5,-409 317.5,-428 456.5,-428 456.5,-409 317.5,-409"/>
<text text-anchor="middle" x="387" y="-416" font-family="Helvetica,sans-Serif" font-size="10.00">GridCenteredSystem.hpp</text>
</a>
</g>
</g>
<!-- Node1&#45;&gt;Node21 -->
<g id="edge23" class="edge">
<title>Node1&#45;&gt;Node21</title>
<path fill="none" stroke="midnightblue" d="M387,-470.4C387,-461.06 387,-448.71 387,-438.52"/>
<polygon fill="midnightblue" stroke="midnightblue" points="390.5,-438.19 387,-428.19 383.5,-438.19 390.5,-438.19"/>
</g>
<!-- Node3 -->
<g id="node3" class="node">
<title>Node3</title>
<g id="a_node3"><a xlink:href="sources_2Models_2Vector3_8hpp.html" target="_top" xlink:title=" ">
<polygon fill="white" stroke="black" points="992.5,-280.5 992.5,-299.5 1105.5,-299.5 1105.5,-280.5 992.5,-280.5"/>
<text text-anchor="middle" x="1049" y="-287.5" font-family="Helvetica,sans-Serif" font-size="10.00">Models/Vector3.hpp</text>
</a>
</g>
</g>
<!-- Node2&#45;&gt;Node3 -->
<g id="edge2" class="edge">
<title>Node2&#45;&gt;Node3</title>
<path fill="none" stroke="midnightblue" d="M1049,-336.4C1049,-328.47 1049,-318.46 1049,-309.86"/>
<polygon fill="midnightblue" stroke="midnightblue" points="1052.5,-309.66 1049,-299.66 1045.5,-309.66 1052.5,-309.66"/>
</g>
<!-- Node8 -->
<g id="node8" class="node">
<title>Node8</title>
<g id="a_node8"><a xlink:href="Entity_8hpp.html" target="_top" xlink:title=" ">
<polygon fill="white" stroke="black" points="702,-112.5 702,-131.5 798,-131.5 798,-112.5 702,-112.5"/>
<text text-anchor="middle" x="750" y="-119.5" font-family="Helvetica,sans-Serif" font-size="10.00">Entity/Entity.hpp</text>
</a>
</g>
</g>
<!-- Node2&#45;&gt;Node8 -->
<g id="edge7" class="edge">
<title>Node2&#45;&gt;Node8</title>
<path fill="none" stroke="midnightblue" d="M1089.96,-336.43C1128.78,-320.65 1184.77,-290.94 1210,-244 1224.32,-217.35 1187.66,-171.28 1183,-168 1123.98,-126.52 912.22,-121.88 808.32,-122.2"/>
<polygon fill="midnightblue" stroke="midnightblue" points="808.29,-118.7 798.31,-122.25 808.33,-125.7 808.29,-118.7"/>
</g>
<!-- Node4 -->
<g id="node4" class="node">
<title>Node4</title>
<g id="a_node4"><a xlink:title=" ">
<polygon fill="white" stroke="#bfbfbf" points="949,-224.5 949,-243.5 1009,-243.5 1009,-224.5 949,-224.5"/>
<text text-anchor="middle" x="979" y="-231.5" font-family="Helvetica,sans-Serif" font-size="10.00">iostream</text>
</a>
</g>
</g>
<!-- Node3&#45;&gt;Node4 -->
<g id="edge3" class="edge">
<title>Node3&#45;&gt;Node4</title>
<path fill="none" stroke="midnightblue" d="M1037.75,-280.32C1027.2,-272.18 1011.2,-259.84 998.56,-250.09"/>
<polygon fill="midnightblue" stroke="midnightblue" points="1000.51,-247.17 990.45,-243.83 996.23,-252.71 1000.51,-247.17"/>
</g>
<!-- Node5 -->
<g id="node5" class="node">
<title>Node5</title>
<g id="a_node5"><a xlink:title=" ">
<polygon fill="white" stroke="#bfbfbf" points="1027.5,-224.5 1027.5,-243.5 1074.5,-243.5 1074.5,-224.5 1027.5,-224.5"/>
<text text-anchor="middle" x="1051" y="-231.5" font-family="Helvetica,sans-Serif" font-size="10.00">cmath</text>
</a>
</g>
</g>
<!-- Node3&#45;&gt;Node5 -->
<g id="edge4" class="edge">
<title>Node3&#45;&gt;Node5</title>
<path fill="none" stroke="midnightblue" d="M1049.33,-280.08C1049.59,-273.01 1049.97,-262.86 1050.3,-253.99"/>
<polygon fill="midnightblue" stroke="midnightblue" points="1053.8,-253.87 1050.68,-243.75 1046.81,-253.61 1053.8,-253.87"/>
</g>
<!-- Node6 -->
<g id="node6" class="node">
<title>Node6</title>
<g id="a_node6"><a xlink:href="lib_2Ray_2sources_2Vector_2Vector3_8hpp.html" target="_top" xlink:title=" ">
<polygon fill="white" stroke="black" points="1093,-224.5 1093,-243.5 1201,-243.5 1201,-224.5 1093,-224.5"/>
<text text-anchor="middle" x="1147" y="-231.5" font-family="Helvetica,sans-Serif" font-size="10.00">Vector/Vector3.hpp</text>
</a>
</g>
</g>
<!-- Node3&#45;&gt;Node6 -->
<g id="edge5" class="edge">
<title>Node3&#45;&gt;Node6</title>
<path fill="none" stroke="midnightblue" d="M1064.75,-280.32C1080.32,-271.74 1104.38,-258.49 1122.46,-248.52"/>
<polygon fill="midnightblue" stroke="midnightblue" points="1124.22,-251.55 1131.29,-243.65 1120.85,-245.42 1124.22,-251.55"/>
</g>
<!-- Node7 -->
<g id="node7" class="node">
<title>Node7</title>
<g id="a_node7"><a xlink:title=" ">
<polygon fill="white" stroke="#bfbfbf" points="1120.5,-168.5 1120.5,-187.5 1173.5,-187.5 1173.5,-168.5 1120.5,-168.5"/>
<text text-anchor="middle" x="1147" y="-175.5" font-family="Helvetica,sans-Serif" font-size="10.00">raylib.h</text>
</a>
</g>
</g>
<!-- Node6&#45;&gt;Node7 -->
<g id="edge6" class="edge">
<title>Node6&#45;&gt;Node7</title>
<path fill="none" stroke="midnightblue" d="M1147,-224.08C1147,-217.01 1147,-206.86 1147,-197.99"/>
<polygon fill="midnightblue" stroke="midnightblue" points="1150.5,-197.75 1147,-187.75 1143.5,-197.75 1150.5,-197.75"/>
</g>
<!-- Node9 -->
<g id="node9" class="node">
<title>Node9</title>
<g id="a_node9"><a xlink:title=" ">
<polygon fill="white" stroke="#bfbfbf" points="648,-0.5 648,-19.5 692,-19.5 692,-0.5 648,-0.5"/>
<text text-anchor="middle" x="670" y="-7.5" font-family="Helvetica,sans-Serif" font-size="10.00">string</text>
</a>
</g>
</g>
<!-- Node8&#45;&gt;Node9 -->
<g id="edge8" class="edge">
<title>Node8&#45;&gt;Node9</title>
<path fill="none" stroke="midnightblue" d="M752.6,-112.29C755.99,-99.1 760.37,-73.73 750,-56 739.64,-38.29 719.47,-27.01 701.98,-20.18"/>
<polygon fill="midnightblue" stroke="midnightblue" points="702.67,-16.71 692.08,-16.65 700.32,-23.3 702.67,-16.71"/>
</g>
<!-- Node10 -->
<g id="node10" class="node">
<title>Node10</title>
<g id="a_node10"><a xlink:title=" ">
<polygon fill="white" stroke="#bfbfbf" points="499.5,-56.5 499.5,-75.5 592.5,-75.5 592.5,-56.5 499.5,-56.5"/>
<text text-anchor="middle" x="546" y="-63.5" font-family="Helvetica,sans-Serif" font-size="10.00">unordered_map</text>
</a>
</g>
</g>
<!-- Node8&#45;&gt;Node10 -->
<g id="edge9" class="edge">
<title>Node8&#45;&gt;Node10</title>
<path fill="none" stroke="midnightblue" d="M717.68,-112.44C682.61,-103.16 626.5,-88.31 588.04,-78.13"/>
<polygon fill="midnightblue" stroke="midnightblue" points="588.74,-74.69 578.17,-75.52 586.94,-81.46 588.74,-74.69"/>
</g>
<!-- Node11 -->
<g id="node11" class="node">
<title>Node11</title>
<g id="a_node11"><a xlink:title=" ">
<polygon fill="white" stroke="#bfbfbf" points="873.5,-56.5 873.5,-75.5 930.5,-75.5 930.5,-56.5 873.5,-56.5"/>
<text text-anchor="middle" x="902" y="-63.5" font-family="Helvetica,sans-Serif" font-size="10.00">typeinfo</text>
</a>
</g>
</g>
<!-- Node8&#45;&gt;Node11 -->
<g id="edge10" class="edge">
<title>Node8&#45;&gt;Node11</title>
<path fill="none" stroke="midnightblue" d="M774.08,-112.44C799.54,-103.4 839.89,-89.06 868.46,-78.92"/>
<polygon fill="midnightblue" stroke="midnightblue" points="869.78,-82.16 878.03,-75.52 867.43,-75.57 869.78,-82.16"/>
</g>
<!-- Node12 -->
<g id="node12" class="node">
<title>Node12</title>
<g id="a_node12"><a xlink:title=" ">
<polygon fill="white" stroke="#bfbfbf" points="797,-56.5 797,-75.5 855,-75.5 855,-56.5 797,-56.5"/>
<text text-anchor="middle" x="826" y="-63.5" font-family="Helvetica,sans-Serif" font-size="10.00">memory</text>
</a>
</g>
</g>
<!-- Node8&#45;&gt;Node12 -->
<g id="edge11" class="edge">
<title>Node8&#45;&gt;Node12</title>
<path fill="none" stroke="midnightblue" d="M762.21,-112.32C773.78,-104.11 791.38,-91.6 805.16,-81.81"/>
<polygon fill="midnightblue" stroke="midnightblue" points="807.44,-84.48 813.57,-75.83 803.39,-78.77 807.44,-84.48"/>
</g>
<!-- Node13 -->
<g id="node13" class="node">
<title>Node13</title>
<g id="a_node13"><a xlink:href="Component_8hpp.html" target="_top" xlink:title=" ">
<polygon fill="white" stroke="black" points="142.5,-56.5 142.5,-75.5 295.5,-75.5 295.5,-56.5 142.5,-56.5"/>
<text text-anchor="middle" x="219" y="-63.5" font-family="Helvetica,sans-Serif" font-size="10.00">Component/Component.hpp</text>
</a>
</g>
</g>
<!-- Node8&#45;&gt;Node13 -->
<g id="edge12" class="edge">
<title>Node8&#45;&gt;Node13</title>
<path fill="none" stroke="midnightblue" d="M701.94,-116.11C612.36,-107 418.72,-87.31 305.73,-75.82"/>
<polygon fill="midnightblue" stroke="midnightblue" points="306.03,-72.33 295.73,-74.8 305.32,-79.3 306.03,-72.33"/>
</g>
<!-- Node16 -->
<g id="node16" class="node">
<title>Node16</title>
<g id="a_node16"><a xlink:href="WalError_8hpp.html" target="_top" xlink:title=" ">
<polygon fill="white" stroke="black" points="352.5,-56.5 352.5,-75.5 481.5,-75.5 481.5,-56.5 352.5,-56.5"/>
<text text-anchor="middle" x="417" y="-63.5" font-family="Helvetica,sans-Serif" font-size="10.00">Exception/WalError.hpp</text>
</a>
</g>
</g>
<!-- Node8&#45;&gt;Node16 -->
<g id="edge16" class="edge">
<title>Node8&#45;&gt;Node16</title>
<path fill="none" stroke="midnightblue" d="M701.93,-113.21C643.29,-103.7 544.01,-87.6 479.49,-77.13"/>
<polygon fill="midnightblue" stroke="midnightblue" points="479.88,-73.65 469.45,-75.5 478.76,-80.56 479.88,-73.65"/>
</g>
<!-- Node19 -->
<g id="node19" class="node">
<title>Node19</title>
<g id="a_node19"><a xlink:href="TypeHolder_8hpp.html" target="_top" xlink:title=" ">
<polygon fill="white" stroke="black" points="611,-56.5 611,-75.5 741,-75.5 741,-56.5 611,-56.5"/>
<text text-anchor="middle" x="676" y="-63.5" font-family="Helvetica,sans-Serif" font-size="10.00">Models/TypeHolder.hpp</text>
</a>
</g>
</g>
<!-- Node8&#45;&gt;Node19 -->
<g id="edge20" class="edge">
<title>Node8&#45;&gt;Node19</title>
<path fill="none" stroke="midnightblue" d="M738.11,-112.32C726.85,-104.11 709.71,-91.6 696.29,-81.81"/>
<polygon fill="midnightblue" stroke="midnightblue" points="698.25,-78.9 688.11,-75.83 694.12,-84.56 698.25,-78.9"/>
</g>
<!-- Node13&#45;&gt;Node9 -->
<g id="edge14" class="edge">
<title>Node13&#45;&gt;Node9</title>
<path fill="none" stroke="midnightblue" d="M290.46,-56.44C389.69,-44.56 565.13,-23.56 637.45,-14.9"/>
<polygon fill="midnightblue" stroke="midnightblue" points="638.23,-18.33 647.75,-13.66 637.4,-11.38 638.23,-18.33"/>
</g>
<!-- Node14 -->
<g id="node14" class="node">
<title>Node14</title>
<g id="a_node14"><a xlink:title=" ">
<polygon fill="white" stroke="#bfbfbf" points="52.5,-0.5 52.5,-19.5 99.5,-19.5 99.5,-0.5 52.5,-0.5"/>
<text text-anchor="middle" x="76" y="-7.5" font-family="Helvetica,sans-Serif" font-size="10.00">vector</text>
</a>
</g>
</g>
<!-- Node13&#45;&gt;Node14 -->
<g id="edge13" class="edge">
<title>Node13&#45;&gt;Node14</title>
<path fill="none" stroke="midnightblue" d="M196.34,-56.44C172.6,-47.48 135.09,-33.31 108.26,-23.18"/>
<polygon fill="midnightblue" stroke="midnightblue" points="109.14,-19.77 98.55,-19.52 106.67,-26.32 109.14,-19.77"/>
</g>
<!-- Node15 -->
<g id="node15" class="node">
<title>Node15</title>
<g id="a_node15"><a xlink:title=" ">
<polygon fill="white" stroke="#bfbfbf" points="186.5,-0.5 186.5,-19.5 251.5,-19.5 251.5,-0.5 186.5,-0.5"/>
<text text-anchor="middle" x="219" y="-7.5" font-family="Helvetica,sans-Serif" font-size="10.00">typeindex</text>
</a>
</g>
</g>
<!-- Node13&#45;&gt;Node15 -->
<g id="edge15" class="edge">
<title>Node13&#45;&gt;Node15</title>
<path fill="none" stroke="midnightblue" d="M219,-56.08C219,-49.01 219,-38.86 219,-29.99"/>
<polygon fill="midnightblue" stroke="midnightblue" points="222.5,-29.75 219,-19.75 215.5,-29.75 222.5,-29.75"/>
</g>
<!-- Node16&#45;&gt;Node9 -->
<g id="edge19" class="edge">
<title>Node16&#45;&gt;Node9</title>
<path fill="none" stroke="midnightblue" d="M457.09,-56.44C507.11,-45.77 591.68,-27.72 637.74,-17.89"/>
<polygon fill="midnightblue" stroke="midnightblue" points="638.72,-21.26 647.77,-15.75 637.26,-14.41 638.72,-21.26"/>
</g>
<!-- Node17 -->
<g id="node17" class="node">
<title>Node17</title>
<g id="a_node17"><a xlink:title=" ">
<polygon fill="white" stroke="#bfbfbf" points="342.5,-0.5 342.5,-19.5 407.5,-19.5 407.5,-0.5 342.5,-0.5"/>
<text text-anchor="middle" x="375" y="-7.5" font-family="Helvetica,sans-Serif" font-size="10.00">exception</text>
</a>
</g>
</g>
<!-- Node16&#45;&gt;Node17 -->
<g id="edge17" class="edge">
<title>Node16&#45;&gt;Node17</title>
<path fill="none" stroke="midnightblue" d="M410.06,-56.08C404.07,-48.38 395.25,-37.03 387.95,-27.65"/>
<polygon fill="midnightblue" stroke="midnightblue" points="390.71,-25.5 381.81,-19.75 385.18,-29.79 390.71,-25.5"/>
</g>
<!-- Node18 -->
<g id="node18" class="node">
<title>Node18</title>
<g id="a_node18"><a xlink:title=" ">
<polygon fill="white" stroke="#bfbfbf" points="425.5,-0.5 425.5,-19.5 490.5,-19.5 490.5,-0.5 425.5,-0.5"/>
<text text-anchor="middle" x="458" y="-7.5" font-family="Helvetica,sans-Serif" font-size="10.00">stdexcept</text>
</a>
</g>
</g>
<!-- Node16&#45;&gt;Node18 -->
<g id="edge18" class="edge">
<title>Node16&#45;&gt;Node18</title>
<path fill="none" stroke="midnightblue" d="M423.77,-56.08C429.56,-48.46 438.06,-37.26 445.14,-27.94"/>
<polygon fill="midnightblue" stroke="midnightblue" points="448.1,-29.83 451.36,-19.75 442.52,-25.6 448.1,-29.83"/>
</g>
<!-- Node20&#45;&gt;Node13 -->
<g id="edge22" class="edge">
<title>Node20&#45;&gt;Node13</title>
<path fill="none" stroke="midnightblue" d="M134.5,-403.48C97.21,-383.99 39,-344.94 39,-291 39,-291 39,-291 39,-233 39,-153.73 134.51,-101.86 186.39,-79.54"/>
<polygon fill="midnightblue" stroke="midnightblue" points="187.96,-82.67 195.84,-75.59 185.26,-76.22 187.96,-82.67"/>
</g>
<!-- Node22 -->
<g id="node22" class="node">
<title>Node22</title>
<g id="a_node22"><a xlink:href="System_8hpp.html" target="_top" xlink:title=" ">
<polygon fill="white" stroke="black" points="259,-342 259,-361 373,-361 373,-342 259,-342"/>
<text text-anchor="middle" x="316" y="-349" font-family="Helvetica,sans-Serif" font-size="10.00">System/System.hpp</text>
</a>
</g>
</g>
<!-- Node21&#45;&gt;Node22 -->
<g id="edge24" class="edge">
<title>Node21&#45;&gt;Node22</title>
<path fill="none" stroke="midnightblue" d="M377.42,-408.73C366.03,-398.31 346.81,-380.71 332.9,-367.97"/>
<polygon fill="midnightblue" stroke="midnightblue" points="335.16,-365.3 325.42,-361.13 330.44,-370.46 335.16,-365.3"/>
</g>
<!-- Node34 -->
<g id="node34" class="node">
<title>Node34</title>
<g id="a_node34"><a xlink:href="PositionComponent_8hpp.html" target="_top" xlink:title=" ">
<polygon fill="white" stroke="black" points="391,-336.5 391,-366.5 527,-366.5 527,-336.5 391,-336.5"/>
<text text-anchor="start" x="399" y="-354.5" font-family="Helvetica,sans-Serif" font-size="10.00">Component/Position</text>
<text text-anchor="middle" x="459" y="-343.5" font-family="Helvetica,sans-Serif" font-size="10.00">/PositionComponent.hpp</text>
</a>
</g>
</g>
<!-- Node21&#45;&gt;Node34 -->
<g id="edge61" class="edge">
<title>Node21&#45;&gt;Node34</title>
<path fill="none" stroke="midnightblue" d="M396.71,-408.73C406.72,-399.7 422.7,-385.27 435.96,-373.3"/>
<polygon fill="midnightblue" stroke="midnightblue" points="438.32,-375.89 443.39,-366.59 433.63,-370.69 438.32,-375.89"/>
</g>
<!-- Node22&#45;&gt;Node4 -->
<g id="edge60" class="edge">
<title>Node22&#45;&gt;Node4</title>
<path fill="none" stroke="midnightblue" d="M350.08,-341.98C360.28,-339.71 371.55,-337.48 382,-336 503.93,-318.74 828.15,-361.23 935,-300 953.06,-289.65 965.23,-268.51 972.11,-253.14"/>
<polygon fill="midnightblue" stroke="midnightblue" points="975.46,-254.2 976.04,-243.63 968.99,-251.53 975.46,-254.2"/>
</g>
<!-- Node22&#45;&gt;Node8 -->
<g id="edge29" class="edge">
<title>Node22&#45;&gt;Node8</title>
<path fill="none" stroke="midnightblue" d="M354.37,-341.98C363.43,-339.99 373.05,-337.9 382,-336 459.67,-319.48 482.39,-327.19 557,-300 655.28,-264.19 710.45,-277.86 764,-188 772.65,-173.48 766.82,-154.3 760.25,-140.54"/>
<polygon fill="midnightblue" stroke="midnightblue" points="763.3,-138.83 755.53,-131.63 757.12,-142.1 763.3,-138.83"/>
</g>
<!-- Node22&#45;&gt;Node11 -->
<g id="edge27" class="edge">
<title>Node22&#45;&gt;Node11</title>
<path fill="none" stroke="midnightblue" d="M353.27,-341.93C362.63,-339.89 372.67,-337.78 382,-336 501.7,-313.16 921,-356.86 921,-235 921,-235 921,-235 921,-177 921,-144.49 912.84,-107.35 907.22,-85.61"/>
<polygon fill="midnightblue" stroke="midnightblue" points="910.54,-84.5 904.56,-75.75 903.78,-86.32 910.54,-84.5"/>
</g>
<!-- Node22&#45;&gt;Node14 -->
<g id="edge26" class="edge">
<title>Node22&#45;&gt;Node14</title>
<path fill="none" stroke="midnightblue" d="M260.6,-341.94C169.97,-326.36 0,-289.83 0,-235 0,-235 0,-235 0,-121 0,-81.28 33.96,-45.5 56.48,-26.15"/>
<polygon fill="midnightblue" stroke="midnightblue" points="58.98,-28.63 64.46,-19.57 54.52,-23.24 58.98,-28.63"/>
</g>
<!-- Node22&#45;&gt;Node15 -->
<g id="edge28" class="edge">
<title>Node22&#45;&gt;Node15</title>
<path fill="none" stroke="midnightblue" d="M258.92,-346.31C225.91,-340.76 186.4,-328.2 163,-300 93.24,-215.91 76.42,-149.47 133,-56 142.63,-40.09 159.94,-29.54 176.51,-22.68"/>
<polygon fill="midnightblue" stroke="midnightblue" points="178,-25.86 186.12,-19.05 175.53,-19.31 178,-25.86"/>
</g>
<!-- Node23 -->
<g id="node23" class="node">
<title>Node23</title>
<g id="a_node23"><a xlink:title=" ">
<polygon fill="white" stroke="#bfbfbf" points="219,-168.5 219,-187.5 269,-187.5 269,-168.5 219,-168.5"/>
<text text-anchor="middle" x="244" y="-175.5" font-family="Helvetica,sans-Serif" font-size="10.00">chrono</text>
</a>
</g>
</g>
<!-- Node22&#45;&gt;Node23 -->
<g id="edge25" class="edge">
<title>Node22&#45;&gt;Node23</title>
<path fill="none" stroke="midnightblue" d="M258.88,-345.08C229.26,-339.04 195.49,-326.39 177,-300 157.62,-272.34 161.11,-253.81 177,-224 184.55,-209.83 198.76,-199.33 212.16,-192.06"/>
<polygon fill="midnightblue" stroke="midnightblue" points="213.83,-195.13 221.21,-187.53 210.7,-188.87 213.83,-195.13"/>
</g>
<!-- Node24 -->
<g id="node24" class="node">
<title>Node24</title>
<g id="a_node24"><a xlink:href="Wal_8hpp.html" target="_top" xlink:title=" ">
<polygon fill="white" stroke="black" points="492,-280.5 492,-299.5 548,-299.5 548,-280.5 492,-280.5"/>
<text text-anchor="middle" x="520" y="-287.5" font-family="Helvetica,sans-Serif" font-size="10.00">Wal.hpp</text>
</a>
</g>
</g>
<!-- Node22&#45;&gt;Node24 -->
<g id="edge30" class="edge">
<title>Node22&#45;&gt;Node24</title>
<path fill="none" stroke="midnightblue" d="M345.23,-341.98C381.21,-331.48 442.39,-313.64 481.99,-302.09"/>
<polygon fill="midnightblue" stroke="midnightblue" points="483.19,-305.38 491.81,-299.22 481.23,-298.66 483.19,-305.38"/>
</g>
<!-- Node26 -->
<g id="node26" class="node">
<title>Node26</title>
<g id="a_node26"><a xlink:href="ISystem_8hpp.html" target="_top" xlink:title=" ">
<polygon fill="white" stroke="black" points="257.5,-224.5 257.5,-243.5 374.5,-243.5 374.5,-224.5 257.5,-224.5"/>
<text text-anchor="middle" x="316" y="-231.5" font-family="Helvetica,sans-Serif" font-size="10.00">System/ISystem.hpp</text>
</a>
</g>
</g>
<!-- Node22&#45;&gt;Node26 -->
<g id="edge59" class="edge">
<title>Node22&#45;&gt;Node26</title>
<path fill="none" stroke="midnightblue" d="M316,-341.82C316,-323.26 316,-279.34 316,-253.97"/>
<polygon fill="midnightblue" stroke="midnightblue" points="319.5,-253.78 316,-243.78 312.5,-253.78 319.5,-253.78"/>
</g>
<!-- Node27 -->
<g id="node27" class="node">
<title>Node27</title>
<g id="a_node27"><a xlink:href="View_8hpp.html" target="_top" xlink:title=" ">
<polygon fill="white" stroke="black" points="365,-168.5 365,-187.5 453,-187.5 453,-168.5 365,-168.5"/>
<text text-anchor="middle" x="409" y="-175.5" font-family="Helvetica,sans-Serif" font-size="10.00">View/View.hpp</text>
</a>
</g>
</g>
<!-- Node22&#45;&gt;Node27 -->
<g id="edge58" class="edge">
<title>Node22&#45;&gt;Node27</title>
<path fill="none" stroke="midnightblue" d="M304.92,-341.98C278.69,-320.79 217.25,-264.52 248,-224 261.05,-206.81 313.28,-194.4 354.76,-187.02"/>
<polygon fill="midnightblue" stroke="midnightblue" points="355.51,-190.45 364.78,-185.3 354.33,-183.55 355.51,-190.45"/>
</g>
<!-- Node24&#45;&gt;Node9 -->
<g id="edge33" class="edge">
<title>Node24&#45;&gt;Node9</title>
<path fill="none" stroke="midnightblue" d="M548.32,-286.65C590.2,-282.39 670.42,-271.16 733,-244 841.69,-196.83 891.25,-183.99 940,-76 943.66,-67.9 945.75,-62.78 940,-56 909.88,-20.45 767.5,-12.96 702.5,-11.4"/>
<polygon fill="midnightblue" stroke="midnightblue" points="702.46,-7.9 692.39,-11.19 702.32,-14.9 702.46,-7.9"/>
</g>
<!-- Node24&#45;&gt;Node11 -->
<g id="edge35" class="edge">
<title>Node24&#45;&gt;Node11</title>
<path fill="none" stroke="midnightblue" d="M548.21,-284.93C584.62,-279.03 649.43,-266.28 701,-244 786,-207.28 860.38,-120.6 889.23,-83.89"/>
<polygon fill="midnightblue" stroke="midnightblue" points="892.22,-85.75 895.56,-75.7 886.68,-81.47 892.22,-85.75"/>
</g>
<!-- Node24&#45;&gt;Node12 -->
<g id="edge34" class="edge">
<title>Node24&#45;&gt;Node12</title>
<path fill="none" stroke="midnightblue" d="M548.02,-282.51C596.07,-270.33 695.6,-240.45 764,-188 788.9,-168.9 792.8,-159.98 807,-132 814.48,-117.26 819.48,-99.1 822.46,-85.72"/>
<polygon fill="midnightblue" stroke="midnightblue" points="825.92,-86.3 824.5,-75.8 819.06,-84.88 825.92,-86.3"/>
</g>
<!-- Node24&#45;&gt;Node14 -->
<g id="edge32" class="edge">
<title>Node24&#45;&gt;Node14</title>
<path fill="none" stroke="midnightblue" d="M491.7,-286.82C430.76,-281.73 289.33,-267.66 248,-244 158.73,-192.89 102.29,-74.65 83.22,-29.23"/>
<polygon fill="midnightblue" stroke="midnightblue" points="86.38,-27.71 79.36,-19.78 79.9,-30.36 86.38,-27.71"/>
</g>
<!-- Node24&#45;&gt;Node16 -->
<g id="edge36" class="edge">
<title>Node24&#45;&gt;Node16</title>
<path fill="none" stroke="midnightblue" d="M495.27,-280.36C447.6,-262.01 345.77,-213.96 324,-132 321.72,-123.41 319.28,-119.53 324,-112 333.88,-96.25 351,-85.87 367.89,-79.11"/>
<polygon fill="midnightblue" stroke="midnightblue" points="369.54,-82.23 377.75,-75.52 367.15,-75.65 369.54,-82.23"/>
</g>
<!-- Node25 -->
<g id="node25" class="node">
<title>Node25</title>
<g id="a_node25"><a xlink:title=" ">
<polygon fill="white" stroke="#bfbfbf" points="600.5,-112.5 600.5,-131.5 645.5,-131.5 645.5,-112.5 600.5,-112.5"/>
<text text-anchor="middle" x="623" y="-119.5" font-family="Helvetica,sans-Serif" font-size="10.00">utility</text>
</a>
</g>
</g>
<!-- Node24&#45;&gt;Node25 -->
<g id="edge31" class="edge">
<title>Node24&#45;&gt;Node25</title>
<path fill="none" stroke="midnightblue" d="M523.76,-280.39C535.14,-254.41 568.87,-177.98 576,-168 583.92,-156.91 594.82,-146.28 604.12,-138.13"/>
<polygon fill="midnightblue" stroke="midnightblue" points="606.4,-140.8 611.78,-131.67 601.88,-135.45 606.4,-140.8"/>
</g>
<!-- Node24&#45;&gt;Node26 -->
<g id="edge37" class="edge">
<title>Node24&#45;&gt;Node26</title>
<path fill="none" stroke="midnightblue" d="M491.63,-281.49C456.92,-272.3 397.83,-256.66 357.87,-246.08"/>
<polygon fill="midnightblue" stroke="midnightblue" points="358.72,-242.69 348.16,-243.51 356.93,-249.45 358.72,-242.69"/>
</g>
<!-- Node32 -->
<g id="node32" class="node">
<title>Node32</title>
<g id="a_node32"><a xlink:href="Callback_8hpp.html" target="_top" xlink:title=" ">
<polygon fill="white" stroke="black" points="585,-168.5 585,-187.5 703,-187.5 703,-168.5 585,-168.5"/>
<text text-anchor="middle" x="644" y="-175.5" font-family="Helvetica,sans-Serif" font-size="10.00">Models/Callback.hpp</text>
</a>
</g>
</g>
<!-- Node24&#45;&gt;Node32 -->
<g id="edge48" class="edge">
<title>Node24&#45;&gt;Node32</title>
<path fill="none" stroke="midnightblue" d="M530.26,-280.48C541,-271.52 558.33,-256.93 573,-244 591.86,-227.37 613.08,-207.83 627.37,-194.55"/>
<polygon fill="midnightblue" stroke="midnightblue" points="629.98,-196.9 634.91,-187.52 625.21,-191.78 629.98,-196.9"/>
</g>
<!-- Node33 -->
<g id="node33" class="node">
<title>Node33</title>
<g id="a_node33"><a xlink:href="Scene_8hpp.html" target="_top" xlink:title=" ">
<polygon fill="white" stroke="black" points="431.5,-224.5 431.5,-243.5 530.5,-243.5 530.5,-224.5 431.5,-224.5"/>
<text text-anchor="middle" x="481" y="-231.5" font-family="Helvetica,sans-Serif" font-size="10.00">Scene/Scene.hpp</text>
</a>
</g>
</g>
<!-- Node24&#45;&gt;Node33 -->
<g id="edge52" class="edge">
<title>Node24&#45;&gt;Node33</title>
<path fill="none" stroke="midnightblue" d="M513.56,-280.08C508.05,-272.46 499.97,-261.26 493.24,-251.94"/>
<polygon fill="midnightblue" stroke="midnightblue" points="496.01,-249.81 487.32,-243.75 490.34,-253.91 496.01,-249.81"/>
</g>
<!-- Node26&#45;&gt;Node8 -->
<g id="edge38" class="edge">
<title>Node26&#45;&gt;Node8</title>
<path fill="none" stroke="midnightblue" d="M374.85,-227.71C481.73,-217.9 698.07,-197.08 712,-188 728.39,-177.32 738.61,-156.91 744.26,-141.8"/>
<polygon fill="midnightblue" stroke="midnightblue" points="747.71,-142.54 747.6,-131.94 741.08,-140.29 747.71,-142.54"/>
</g>
<!-- Node26&#45;&gt;Node23 -->
<g id="edge47" class="edge">
<title>Node26&#45;&gt;Node23</title>
<path fill="none" stroke="midnightblue" d="M304.43,-224.32C293.58,-216.18 277.12,-203.84 264.12,-194.09"/>
<polygon fill="midnightblue" stroke="midnightblue" points="265.88,-191.03 255.78,-187.83 261.68,-196.63 265.88,-191.03"/>
</g>
<!-- Node26&#45;&gt;Node27 -->
<g id="edge39" class="edge">
<title>Node26&#45;&gt;Node27</title>
<path fill="none" stroke="midnightblue" d="M330.94,-224.32C345.59,-215.82 368.13,-202.73 385.24,-192.8"/>
<polygon fill="midnightblue" stroke="midnightblue" points="387.2,-195.7 394.1,-187.65 383.69,-189.65 387.2,-195.7"/>
</g>
<!-- Node27&#45;&gt;Node8 -->
<g id="edge46" class="edge">
<title>Node27&#45;&gt;Node8</title>
<path fill="none" stroke="midnightblue" d="M453.23,-170C514.17,-160.35 624.06,-142.94 691.66,-132.24"/>
<polygon fill="midnightblue" stroke="midnightblue" points="692.4,-135.67 701.72,-130.64 691.3,-128.75 692.4,-135.67"/>
</g>
<!-- Node27&#45;&gt;Node15 -->
<g id="edge42" class="edge">
<title>Node27&#45;&gt;Node15</title>
<path fill="none" stroke="midnightblue" d="M380.19,-168.49C361.56,-161.55 338.22,-149.92 324,-132 302.29,-104.64 325.71,-83.36 304,-56 292.12,-41.02 273.85,-30.44 257.3,-23.31"/>
<polygon fill="midnightblue" stroke="midnightblue" points="258.39,-19.98 247.81,-19.51 255.79,-26.48 258.39,-19.98"/>
</g>
<!-- Node27&#45;&gt;Node25 -->
<g id="edge44" class="edge">
<title>Node27&#45;&gt;Node25</title>
<path fill="none" stroke="midnightblue" d="M445,-168.46C479.77,-160.13 534.14,-146.89 590.5,-132.07"/>
<polygon fill="midnightblue" stroke="midnightblue" points="591.52,-135.42 600.3,-129.48 589.74,-128.65 591.52,-135.42"/>
</g>
<!-- Node28 -->
<g id="node28" class="node">
<title>Node28</title>
<g id="a_node28"><a xlink:title=" ">
<polygon fill="white" stroke="#bfbfbf" points="467,-112.5 467,-131.5 499,-131.5 499,-112.5 467,-112.5"/>
<text text-anchor="middle" x="483" y="-119.5" font-family="Helvetica,sans-Serif" font-size="10.00">list</text>
</a>
</g>
</g>
<!-- Node27&#45;&gt;Node28 -->
<g id="edge40" class="edge">
<title>Node27&#45;&gt;Node28</title>
<path fill="none" stroke="midnightblue" d="M420.89,-168.32C432.15,-160.11 449.29,-147.6 462.71,-137.81"/>
<polygon fill="midnightblue" stroke="midnightblue" points="464.88,-140.56 470.89,-131.83 460.75,-134.9 464.88,-140.56"/>
</g>
<!-- Node29 -->
<g id="node29" class="node">
<title>Node29</title>
<g id="a_node29"><a xlink:title=" ">
<polygon fill="white" stroke="#bfbfbf" points="333.5,-112.5 333.5,-131.5 374.5,-131.5 374.5,-112.5 333.5,-112.5"/>
<text text-anchor="middle" x="354" y="-119.5" font-family="Helvetica,sans-Serif" font-size="10.00">tuple</text>
</a>
</g>
</g>
<!-- Node27&#45;&gt;Node29 -->
<g id="edge41" class="edge">
<title>Node27&#45;&gt;Node29</title>
<path fill="none" stroke="midnightblue" d="M399.92,-168.08C391.83,-160.14 379.8,-148.34 370.09,-138.8"/>
<polygon fill="midnightblue" stroke="midnightblue" points="372.5,-136.26 362.91,-131.75 367.6,-141.25 372.5,-136.26"/>
</g>
<!-- Node30 -->
<g id="node30" class="node">
<title>Node30</title>
<g id="a_node30"><a xlink:title=" ">
<polygon fill="white" stroke="#bfbfbf" points="517.5,-112.5 517.5,-131.5 582.5,-131.5 582.5,-112.5 517.5,-112.5"/>
<text text-anchor="middle" x="550" y="-119.5" font-family="Helvetica,sans-Serif" font-size="10.00">functional</text>
</a>
</g>
</g>
<!-- Node27&#45;&gt;Node30 -->
<g id="edge43" class="edge">
<title>Node27&#45;&gt;Node30</title>
<path fill="none" stroke="midnightblue" d="M431.34,-168.44C454.75,-159.48 491.74,-145.31 518.19,-135.18"/>
<polygon fill="midnightblue" stroke="midnightblue" points="519.68,-138.36 527.76,-131.52 517.17,-131.82 519.68,-138.36"/>
</g>
<!-- Node31 -->
<g id="node31" class="node">
<title>Node31</title>
<g id="a_node31"><a xlink:title=" ">
<polygon fill="white" stroke="#bfbfbf" points="393,-112.5 393,-131.5 449,-131.5 449,-112.5 393,-112.5"/>
<text text-anchor="middle" x="421" y="-119.5" font-family="Helvetica,sans-Serif" font-size="10.00">optional</text>
</a>
</g>
</g>
<!-- Node27&#45;&gt;Node31 -->
<g id="edge45" class="edge">
<title>Node27&#45;&gt;Node31</title>
<path fill="none" stroke="midnightblue" d="M410.98,-168.08C412.57,-160.93 414.86,-150.64 416.85,-141.69"/>
<polygon fill="midnightblue" stroke="midnightblue" points="420.3,-142.27 419.06,-131.75 413.47,-140.75 420.3,-142.27"/>
</g>
<!-- Node32&#45;&gt;Node10 -->
<g id="edge51" class="edge">
<title>Node32&#45;&gt;Node10</title>
<path fill="none" stroke="midnightblue" d="M648.91,-168.18C655.61,-154.85 665.53,-129.29 654,-112 642.24,-94.35 622.1,-83.62 602.38,-77.09"/>
<polygon fill="midnightblue" stroke="midnightblue" points="603.36,-73.72 592.77,-74.21 601.35,-80.43 603.36,-73.72"/>
</g>
<!-- Node32&#45;&gt;Node25 -->
<g id="edge50" class="edge">
<title>Node32&#45;&gt;Node25</title>
<path fill="none" stroke="midnightblue" d="M640.53,-168.08C637.69,-160.77 633.57,-150.18 630.04,-141.1"/>
<polygon fill="midnightblue" stroke="midnightblue" points="633.29,-139.8 626.4,-131.75 626.77,-142.34 633.29,-139.8"/>
</g>
<!-- Node32&#45;&gt;Node30 -->
<g id="edge49" class="edge">
<title>Node32&#45;&gt;Node30</title>
<path fill="none" stroke="midnightblue" d="M628.9,-168.32C614.1,-159.82 591.31,-146.73 574.02,-136.8"/>
<polygon fill="midnightblue" stroke="midnightblue" points="575.48,-133.6 565.07,-131.65 571.99,-139.67 575.48,-133.6"/>
</g>
<!-- Node33&#45;&gt;Node8 -->
<g id="edge57" class="edge">
<title>Node33&#45;&gt;Node8</title>
<path fill="none" stroke="midnightblue" d="M530.67,-231.58C599.06,-228.5 716.96,-218.75 745,-188 756.18,-175.74 756.2,-156.2 754.17,-141.74"/>
<polygon fill="midnightblue" stroke="midnightblue" points="757.6,-141.09 752.37,-131.88 750.72,-142.35 757.6,-141.09"/>
</g>
<!-- Node33&#45;&gt;Node14 -->
<g id="edge53" class="edge">
<title>Node33&#45;&gt;Node14</title>
<path fill="none" stroke="midnightblue" d="M450.04,-224.41C385.93,-205.53 236.04,-155.66 133,-76 115.08,-62.14 98.47,-42.03 87.87,-27.86"/>
<polygon fill="midnightblue" stroke="midnightblue" points="90.52,-25.55 81.81,-19.52 84.86,-29.67 90.52,-25.55"/>
</g>
<!-- Node33&#45;&gt;Node27 -->
<g id="edge56" class="edge">
<title>Node33&#45;&gt;Node27</title>
<path fill="none" stroke="midnightblue" d="M469.43,-224.32C458.58,-216.18 442.12,-203.84 429.12,-194.09"/>
<polygon fill="midnightblue" stroke="midnightblue" points="430.88,-191.03 420.78,-187.83 426.68,-196.63 430.88,-191.03"/>
</g>
<!-- Node33&#45;&gt;Node28 -->
<g id="edge54" class="edge">
<title>Node33&#45;&gt;Node28</title>
<path fill="none" stroke="midnightblue" d="M481.16,-224.37C481.48,-206.62 482.22,-165.67 482.66,-141.6"/>
<polygon fill="midnightblue" stroke="midnightblue" points="486.16,-141.65 482.84,-131.59 479.16,-141.53 486.16,-141.65"/>
</g>
<!-- Node33&#45;&gt;Node30 -->
<g id="edge55" class="edge">
<title>Node33&#45;&gt;Node30</title>
<path fill="none" stroke="midnightblue" d="M486.41,-224.37C497.75,-206.3 524.17,-164.18 539.14,-140.31"/>
<polygon fill="midnightblue" stroke="midnightblue" points="542.26,-141.92 544.61,-131.59 536.33,-138.2 542.26,-141.92"/>
</g>
<!-- Node34&#45;&gt;Node3 -->
<g id="edge62" class="edge">
<title>Node34&#45;&gt;Node3</title>
<path fill="none" stroke="midnightblue" d="M527.22,-344.39C626.18,-335.4 815.32,-317.75 976,-300 978.08,-299.77 980.2,-299.53 982.33,-299.29"/>
<polygon fill="midnightblue" stroke="midnightblue" points="982.9,-302.75 992.43,-298.12 982.09,-295.79 982.9,-302.75"/>
</g>
<!-- Node34&#45;&gt;Node13 -->
<g id="edge63" class="edge">
<title>Node34&#45;&gt;Node13</title>
<path fill="none" stroke="midnightblue" d="M416.83,-336.49C371.37,-319.83 298.7,-288.56 248,-244 225.41,-224.14 218.83,-216.75 210,-188 199.26,-153.06 207.22,-109.89 213.46,-85.71"/>
<polygon fill="midnightblue" stroke="midnightblue" points="216.92,-86.32 216.21,-75.75 210.17,-84.46 216.92,-86.32"/>
</g>
</g>
</svg>
