<?xml version="1.0" encoding="UTF-8" standalone="no"?>
<!DOCTYPE svg PUBLIC "-//W3C//DTD SVG 1.1//EN"
 "http://www.w3.org/Graphics/SVG/1.1/DTD/svg11.dtd">
<!-- Generated by graphviz version 2.43.0 (0)
 -->
<!-- Title: sources/System/GridCentered/GridCenteredSystem.hpp Pages: 1 -->
<svg width="1301pt" height="442pt"
 viewBox="0.00 0.00 1300.50 442.00" xmlns="http://www.w3.org/2000/svg" xmlns:xlink="http://www.w3.org/1999/xlink">
<g id="graph0" class="graph" transform="scale(1 1) rotate(0) translate(4 438)">
<title>sources/System/GridCentered/GridCenteredSystem.hpp</title>
<polygon fill="white" stroke="transparent" points="-4,4 -4,-438 1296.5,-438 1296.5,4 -4,4"/>
<!-- Node1 -->
<g id="node1" class="node">
<title>Node1</title>
<g id="a_node1"><a xlink:title=" ">
<polygon fill="#bfbfbf" stroke="black" points="723,-403.5 723,-433.5 884,-433.5 884,-403.5 723,-403.5"/>
<text text-anchor="start" x="731" y="-421.5" font-family="Helvetica,sans-Serif" font-size="10.00">sources/System/GridCentered</text>
<text text-anchor="middle" x="803.5" y="-410.5" font-family="Helvetica,sans-Serif" font-size="10.00">/GridCenteredSystem.hpp</text>
</a>
</g>
</g>
<!-- Node2 -->
<g id="node2" class="node">
<title>Node2</title>
<g id="a_node2"><a xlink:href="System_8hpp.html" target="_top" xlink:title=" ">
<polygon fill="white" stroke="black" points="675.5,-342 675.5,-361 789.5,-361 789.5,-342 675.5,-342"/>
<text text-anchor="middle" x="732.5" y="-349" font-family="Helvetica,sans-Serif" font-size="10.00">System/System.hpp</text>
</a>
</g>
</g>
<!-- Node1&#45;&gt;Node2 -->
<g id="edge1" class="edge">
<title>Node1&#45;&gt;Node2</title>
<path fill="none" stroke="midnightblue" d="M788.09,-403.4C776.69,-392.96 761.17,-378.75 749.43,-368"/>
<polygon fill="midnightblue" stroke="midnightblue" points="751.74,-365.37 742,-361.19 747.01,-370.53 751.74,-365.37"/>
</g>
<!-- Node27 -->
<g id="node27" class="node">
<title>Node27</title>
<g id="a_node27"><a xlink:href="PositionComponent_8hpp.html" target="_top" xlink:title=" ">
<polygon fill="white" stroke="black" points="830.5,-336.5 830.5,-366.5 966.5,-366.5 966.5,-336.5 830.5,-336.5"/>
<text text-anchor="start" x="838.5" y="-354.5" font-family="Helvetica,sans-Serif" font-size="10.00">Component/Position</text>
<text text-anchor="middle" x="898.5" y="-343.5" font-family="Helvetica,sans-Serif" font-size="10.00">/PositionComponent.hpp</text>
</a>
</g>
</g>
<!-- Node1&#45;&gt;Node27 -->
<g id="edge51" class="edge">
<title>Node1&#45;&gt;Node27</title>
<path fill="none" stroke="midnightblue" d="M824.11,-403.4C837.43,-394.28 854.96,-382.29 869.66,-372.24"/>
<polygon fill="midnightblue" stroke="midnightblue" points="871.65,-375.11 877.93,-366.58 867.7,-369.33 871.65,-375.11"/>
</g>
<!-- Node3 -->
<g id="node3" class="node">
<title>Node3</title>
<g id="a_node3"><a xlink:title=" ">
<polygon fill="white" stroke="#bfbfbf" points="122.5,-168.5 122.5,-187.5 172.5,-187.5 172.5,-168.5 122.5,-168.5"/>
<text text-anchor="middle" x="147.5" y="-175.5" font-family="Helvetica,sans-Serif" font-size="10.00">chrono</text>
</a>
</g>
</g>
<!-- Node2&#45;&gt;Node3 -->
<g id="edge2" class="edge">
<title>Node2&#45;&gt;Node3</title>
<path fill="none" stroke="midnightblue" d="M675.4,-347.62C597.06,-342.69 452.33,-330.08 332.5,-300 265.09,-283.08 239.73,-288.68 186.5,-244 171.58,-231.47 160.87,-211.69 154.49,-197.24"/>
<polygon fill="midnightblue" stroke="midnightblue" points="157.67,-195.75 150.62,-187.84 151.19,-198.42 157.67,-195.75"/>
</g>
<!-- Node4 -->
<g id="node4" class="node">
<title>Node4</title>
<g id="a_node4"><a xlink:title=" ">
<polygon fill="white" stroke="#bfbfbf" points="897,-0.5 897,-19.5 944,-19.5 944,-0.5 897,-0.5"/>
<text text-anchor="middle" x="920.5" y="-7.5" font-family="Helvetica,sans-Serif" font-size="10.00">vector</text>
</a>
</g>
</g>
<!-- Node2&#45;&gt;Node4 -->
<g id="edge3" class="edge">
<title>Node2&#45;&gt;Node4</title>
<path fill="none" stroke="midnightblue" d="M775.94,-341.98C854.59,-325.31 1012.5,-285.55 1012.5,-235 1012.5,-235 1012.5,-235 1012.5,-121 1012.5,-78.5 971.59,-43.77 944.33,-25.34"/>
<polygon fill="midnightblue" stroke="midnightblue" points="945.99,-22.24 935.69,-19.73 942.17,-28.11 945.99,-22.24"/>
</g>
<!-- Node5 -->
<g id="node5" class="node">
<title>Node5</title>
<g id="a_node5"><a xlink:title=" ">
<polygon fill="white" stroke="#bfbfbf" points="607,-56.5 607,-75.5 664,-75.5 664,-56.5 607,-56.5"/>
<text text-anchor="middle" x="635.5" y="-63.5" font-family="Helvetica,sans-Serif" font-size="10.00">typeinfo</text>
</a>
</g>
</g>
<!-- Node2&#45;&gt;Node5 -->
<g id="edge4" class="edge">
<title>Node2&#45;&gt;Node5</title>
<path fill="none" stroke="midnightblue" d="M746.17,-341.87C771.35,-324.8 822.5,-284.06 822.5,-235 822.5,-235 822.5,-235 822.5,-177 822.5,-142.61 807.9,-132.79 780.5,-112 771.81,-105.41 713.77,-88.54 673.81,-77.43"/>
<polygon fill="midnightblue" stroke="midnightblue" points="674.65,-74.03 664.08,-74.74 672.79,-80.78 674.65,-74.03"/>
</g>
<!-- Node6 -->
<g id="node6" class="node">
<title>Node6</title>
<g id="a_node6"><a xlink:title=" ">
<polygon fill="white" stroke="#bfbfbf" points="726,-0.5 726,-19.5 791,-19.5 791,-0.5 726,-0.5"/>
<text text-anchor="middle" x="758.5" y="-7.5" font-family="Helvetica,sans-Serif" font-size="10.00">typeindex</text>
</a>
</g>
</g>
<!-- Node2&#45;&gt;Node6 -->
<g id="edge5" class="edge">
<title>Node2&#45;&gt;Node6</title>
<path fill="none" stroke="midnightblue" d="M766.15,-341.96C832.64,-324.09 974.5,-280.62 974.5,-235 974.5,-235 974.5,-235 974.5,-177 974.5,-90.36 863.88,-42.71 800.97,-22.62"/>
<polygon fill="midnightblue" stroke="midnightblue" points="801.89,-19.24 791.31,-19.63 799.82,-25.93 801.89,-19.24"/>
</g>
<!-- Node7 -->
<g id="node7" class="node">
<title>Node7</title>
<g id="a_node7"><a xlink:href="Entity_8hpp.html" target="_top" xlink:title=" ">
<polygon fill="white" stroke="black" points="176.5,-112.5 176.5,-131.5 272.5,-131.5 272.5,-112.5 176.5,-112.5"/>
<text text-anchor="middle" x="224.5" y="-119.5" font-family="Helvetica,sans-Serif" font-size="10.00">Entity/Entity.hpp</text>
</a>
</g>
</g>
<!-- Node2&#45;&gt;Node7 -->
<g id="edge6" class="edge">
<title>Node2&#45;&gt;Node7</title>
<path fill="none" stroke="midnightblue" d="M675.13,-348.33C563.29,-343.48 320.27,-329.78 242.5,-300 171.59,-272.84 141.25,-258.67 113.5,-188 102.48,-159.93 133.97,-143.39 166.19,-134.02"/>
<polygon fill="midnightblue" stroke="midnightblue" points="167.41,-137.32 176.16,-131.34 165.6,-130.56 167.41,-137.32"/>
</g>
<!-- Node16 -->
<g id="node16" class="node">
<title>Node16</title>
<g id="a_node16"><a xlink:href="Wal_8hpp.html" target="_top" xlink:title=" ">
<polygon fill="white" stroke="black" points="661.5,-280.5 661.5,-299.5 717.5,-299.5 717.5,-280.5 661.5,-280.5"/>
<text text-anchor="middle" x="689.5" y="-287.5" font-family="Helvetica,sans-Serif" font-size="10.00">Wal.hpp</text>
</a>
</g>
</g>
<!-- Node2&#45;&gt;Node16 -->
<g id="edge20" class="edge">
<title>Node2&#45;&gt;Node16</title>
<path fill="none" stroke="midnightblue" d="M726.34,-341.98C719.89,-333.05 709.6,-318.81 701.53,-307.64"/>
<polygon fill="midnightblue" stroke="midnightblue" points="704.34,-305.56 695.65,-299.51 698.67,-309.66 704.34,-305.56"/>
</g>
<!-- Node18 -->
<g id="node18" class="node">
<title>Node18</title>
<g id="a_node18"><a xlink:href="ISystem_8hpp.html" target="_top" xlink:title=" ">
<polygon fill="white" stroke="black" points="235,-224.5 235,-243.5 352,-243.5 352,-224.5 235,-224.5"/>
<text text-anchor="middle" x="293.5" y="-231.5" font-family="Helvetica,sans-Serif" font-size="10.00">System/ISystem.hpp</text>
</a>
</g>
</g>
<!-- Node2&#45;&gt;Node18 -->
<g id="edge49" class="edge">
<title>Node2&#45;&gt;Node18</title>
<path fill="none" stroke="midnightblue" d="M675.37,-346.68C586.62,-340.08 420.23,-324.79 366.5,-300 342.32,-288.84 320.35,-266.94 306.97,-251.65"/>
<polygon fill="midnightblue" stroke="midnightblue" points="309.59,-249.33 300.46,-243.96 304.25,-253.85 309.59,-249.33"/>
</g>
<!-- Node19 -->
<g id="node19" class="node">
<title>Node19</title>
<g id="a_node19"><a xlink:href="View_8hpp.html" target="_top" xlink:title=" ">
<polygon fill="white" stroke="black" points="304.5,-168.5 304.5,-187.5 392.5,-187.5 392.5,-168.5 304.5,-168.5"/>
<text text-anchor="middle" x="348.5" y="-175.5" font-family="Helvetica,sans-Serif" font-size="10.00">View/View.hpp</text>
</a>
</g>
</g>
<!-- Node2&#45;&gt;Node19 -->
<g id="edge48" class="edge">
<title>Node2&#45;&gt;Node19</title>
<path fill="none" stroke="midnightblue" d="M675.19,-342.49C605.24,-330.51 485.74,-302.72 400.5,-244 382.34,-231.49 367.36,-210.8 358.21,-196.13"/>
<polygon fill="midnightblue" stroke="midnightblue" points="361.2,-194.3 353.07,-187.5 355.18,-197.88 361.2,-194.3"/>
</g>
<!-- Node26 -->
<g id="node26" class="node">
<title>Node26</title>
<g id="a_node26"><a xlink:title=" ">
<polygon fill="white" stroke="#bfbfbf" points="1040.5,-224.5 1040.5,-243.5 1100.5,-243.5 1100.5,-224.5 1040.5,-224.5"/>
<text text-anchor="middle" x="1070.5" y="-231.5" font-family="Helvetica,sans-Serif" font-size="10.00">iostream</text>
</a>
</g>
</g>
<!-- Node2&#45;&gt;Node26 -->
<g id="edge50" class="edge">
<title>Node2&#45;&gt;Node26</title>
<path fill="none" stroke="midnightblue" d="M783.5,-342C867,-328.04 1023.95,-301.65 1026.5,-300 1043.81,-288.84 1056.01,-268.2 1063.11,-253.17"/>
<polygon fill="midnightblue" stroke="midnightblue" points="1066.39,-254.4 1067.21,-243.84 1059.98,-251.59 1066.39,-254.4"/>
</g>
<!-- Node7&#45;&gt;Node5 -->
<g id="edge9" class="edge">
<title>Node7&#45;&gt;Node5</title>
<path fill="none" stroke="midnightblue" d="M272.69,-113.29C275.67,-112.84 278.62,-112.41 281.5,-112 395.66,-95.73 530.96,-79.33 596.3,-71.59"/>
<polygon fill="midnightblue" stroke="midnightblue" points="597.03,-75.03 606.55,-70.38 596.21,-68.08 597.03,-75.03"/>
</g>
<!-- Node8 -->
<g id="node8" class="node">
<title>Node8</title>
<g id="a_node8"><a xlink:title=" ">
<polygon fill="white" stroke="#bfbfbf" points="405.5,-0.5 405.5,-19.5 449.5,-19.5 449.5,-0.5 405.5,-0.5"/>
<text text-anchor="middle" x="427.5" y="-7.5" font-family="Helvetica,sans-Serif" font-size="10.00">string</text>
</a>
</g>
</g>
<!-- Node7&#45;&gt;Node8 -->
<g id="edge7" class="edge">
<title>Node7&#45;&gt;Node8</title>
<path fill="none" stroke="midnightblue" d="M238.18,-112.42C258.78,-99.61 299.12,-74.97 334.5,-56 356.04,-44.45 380.99,-32.45 399.63,-23.75"/>
<polygon fill="midnightblue" stroke="midnightblue" points="401.15,-26.9 408.74,-19.52 398.2,-20.55 401.15,-26.9"/>
</g>
<!-- Node9 -->
<g id="node9" class="node">
<title>Node9</title>
<g id="a_node9"><a xlink:title=" ">
<polygon fill="white" stroke="#bfbfbf" points="343,-56.5 343,-75.5 436,-75.5 436,-56.5 343,-56.5"/>
<text text-anchor="middle" x="389.5" y="-63.5" font-family="Helvetica,sans-Serif" font-size="10.00">unordered_map</text>
</a>
</g>
</g>
<!-- Node7&#45;&gt;Node9 -->
<g id="edge8" class="edge">
<title>Node7&#45;&gt;Node9</title>
<path fill="none" stroke="midnightblue" d="M250.64,-112.44C278.52,-103.32 322.85,-88.81 353.9,-78.65"/>
<polygon fill="midnightblue" stroke="midnightblue" points="355.06,-81.95 363.48,-75.52 352.88,-75.3 355.06,-81.95"/>
</g>
<!-- Node10 -->
<g id="node10" class="node">
<title>Node10</title>
<g id="a_node10"><a xlink:title=" ">
<polygon fill="white" stroke="#bfbfbf" points="454.5,-56.5 454.5,-75.5 512.5,-75.5 512.5,-56.5 454.5,-56.5"/>
<text text-anchor="middle" x="483.5" y="-63.5" font-family="Helvetica,sans-Serif" font-size="10.00">memory</text>
</a>
</g>
</g>
<!-- Node7&#45;&gt;Node10 -->
<g id="edge10" class="edge">
<title>Node7&#45;&gt;Node10</title>
<path fill="none" stroke="midnightblue" d="M268.61,-112.44C311.19,-104.09 377.72,-90.79 444.61,-76.14"/>
<polygon fill="midnightblue" stroke="midnightblue" points="445.46,-79.54 454.48,-73.97 443.96,-72.7 445.46,-79.54"/>
</g>
<!-- Node11 -->
<g id="node11" class="node">
<title>Node11</title>
<g id="a_node11"><a xlink:href="Component_8hpp.html" target="_top" xlink:title=" ">
<polygon fill="white" stroke="black" points="682,-56.5 682,-75.5 835,-75.5 835,-56.5 682,-56.5"/>
<text text-anchor="middle" x="758.5" y="-63.5" font-family="Helvetica,sans-Serif" font-size="10.00">Component/Component.hpp</text>
</a>
</g>
</g>
<!-- Node7&#45;&gt;Node11 -->
<g id="edge11" class="edge">
<title>Node7&#45;&gt;Node11</title>
<path fill="none" stroke="midnightblue" d="M272.67,-113.17C275.66,-112.75 278.62,-112.36 281.5,-112 451.89,-90.75 497.71,-93.11 671.59,-76.17"/>
<polygon fill="midnightblue" stroke="midnightblue" points="671.98,-79.65 681.59,-75.19 671.3,-72.69 671.98,-79.65"/>
</g>
<!-- Node12 -->
<g id="node12" class="node">
<title>Node12</title>
<g id="a_node12"><a xlink:href="WalError_8hpp.html" target="_top" xlink:title=" ">
<polygon fill="white" stroke="black" points="9,-56.5 9,-75.5 138,-75.5 138,-56.5 9,-56.5"/>
<text text-anchor="middle" x="73.5" y="-63.5" font-family="Helvetica,sans-Serif" font-size="10.00">Exception/WalError.hpp</text>
</a>
</g>
</g>
<!-- Node7&#45;&gt;Node12 -->
<g id="edge15" class="edge">
<title>Node7&#45;&gt;Node12</title>
<path fill="none" stroke="midnightblue" d="M200.57,-112.44C175.28,-103.4 135.2,-89.06 106.82,-78.92"/>
<polygon fill="midnightblue" stroke="midnightblue" points="107.91,-75.59 97.31,-75.52 105.55,-82.18 107.91,-75.59"/>
</g>
<!-- Node15 -->
<g id="node15" class="node">
<title>Node15</title>
<g id="a_node15"><a xlink:href="TypeHolder_8hpp.html" target="_top" xlink:title=" ">
<polygon fill="white" stroke="black" points="156.5,-56.5 156.5,-75.5 286.5,-75.5 286.5,-56.5 156.5,-56.5"/>
<text text-anchor="middle" x="221.5" y="-63.5" font-family="Helvetica,sans-Serif" font-size="10.00">Models/TypeHolder.hpp</text>
</a>
</g>
</g>
<!-- Node7&#45;&gt;Node15 -->
<g id="edge19" class="edge">
<title>Node7&#45;&gt;Node15</title>
<path fill="none" stroke="midnightblue" d="M224,-112.08C223.61,-105.01 223.05,-94.86 222.55,-85.99"/>
<polygon fill="midnightblue" stroke="midnightblue" points="226.04,-85.54 221.99,-75.75 219.05,-85.93 226.04,-85.54"/>
</g>
<!-- Node11&#45;&gt;Node4 -->
<g id="edge12" class="edge">
<title>Node11&#45;&gt;Node4</title>
<path fill="none" stroke="midnightblue" d="M784.17,-56.44C811.98,-47.17 856.47,-32.34 887.02,-22.16"/>
<polygon fill="midnightblue" stroke="midnightblue" points="888.42,-25.38 896.8,-18.9 886.2,-18.74 888.42,-25.38"/>
</g>
<!-- Node11&#45;&gt;Node6 -->
<g id="edge14" class="edge">
<title>Node11&#45;&gt;Node6</title>
<path fill="none" stroke="midnightblue" d="M758.5,-56.08C758.5,-49.01 758.5,-38.86 758.5,-29.99"/>
<polygon fill="midnightblue" stroke="midnightblue" points="762,-29.75 758.5,-19.75 755,-29.75 762,-29.75"/>
</g>
<!-- Node11&#45;&gt;Node8 -->
<g id="edge13" class="edge">
<title>Node11&#45;&gt;Node8</title>
<path fill="none" stroke="midnightblue" d="M706.05,-56.44C636.72,-45.13 516.69,-25.55 459.54,-16.23"/>
<polygon fill="midnightblue" stroke="midnightblue" points="460.06,-12.77 449.62,-14.61 458.93,-19.67 460.06,-12.77"/>
</g>
<!-- Node12&#45;&gt;Node8 -->
<g id="edge18" class="edge">
<title>Node12&#45;&gt;Node8</title>
<path fill="none" stroke="midnightblue" d="M129.59,-56.44C204.63,-45 335.2,-25.08 395.41,-15.9"/>
<polygon fill="midnightblue" stroke="midnightblue" points="396.11,-19.33 405.46,-14.36 395.05,-12.41 396.11,-19.33"/>
</g>
<!-- Node13 -->
<g id="node13" class="node">
<title>Node13</title>
<g id="a_node13"><a xlink:title=" ">
<polygon fill="white" stroke="#bfbfbf" points="83,-0.5 83,-19.5 148,-19.5 148,-0.5 83,-0.5"/>
<text text-anchor="middle" x="115.5" y="-7.5" font-family="Helvetica,sans-Serif" font-size="10.00">exception</text>
</a>
</g>
</g>
<!-- Node12&#45;&gt;Node13 -->
<g id="edge16" class="edge">
<title>Node12&#45;&gt;Node13</title>
<path fill="none" stroke="midnightblue" d="M80.44,-56.08C86.43,-48.38 95.25,-37.03 102.55,-27.65"/>
<polygon fill="midnightblue" stroke="midnightblue" points="105.32,-29.79 108.69,-19.75 99.79,-25.5 105.32,-29.79"/>
</g>
<!-- Node14 -->
<g id="node14" class="node">
<title>Node14</title>
<g id="a_node14"><a xlink:title=" ">
<polygon fill="white" stroke="#bfbfbf" points="0,-0.5 0,-19.5 65,-19.5 65,-0.5 0,-0.5"/>
<text text-anchor="middle" x="32.5" y="-7.5" font-family="Helvetica,sans-Serif" font-size="10.00">stdexcept</text>
</a>
</g>
</g>
<!-- Node12&#45;&gt;Node14 -->
<g id="edge17" class="edge">
<title>Node12&#45;&gt;Node14</title>
<path fill="none" stroke="midnightblue" d="M66.73,-56.08C60.94,-48.46 52.44,-37.26 45.36,-27.94"/>
<polygon fill="midnightblue" stroke="midnightblue" points="47.98,-25.6 39.14,-19.75 42.4,-29.83 47.98,-25.6"/>
</g>
<!-- Node16&#45;&gt;Node4 -->
<g id="edge22" class="edge">
<title>Node16&#45;&gt;Node4</title>
<path fill="none" stroke="midnightblue" d="M715.49,-280.49C734.85,-273.16 761.01,-261.06 779.5,-244 849.66,-179.27 896.85,-71.73 913.67,-29.15"/>
<polygon fill="midnightblue" stroke="midnightblue" points="916.95,-30.38 917.28,-19.79 910.42,-27.86 916.95,-30.38"/>
</g>
<!-- Node16&#45;&gt;Node5 -->
<g id="edge25" class="edge">
<title>Node16&#45;&gt;Node5</title>
<path fill="none" stroke="midnightblue" d="M714.66,-280.38C730.92,-273.34 750.79,-261.65 760.5,-244 788.78,-192.6 794.23,-160 760.5,-112 755.26,-104.55 708.93,-89.17 674.18,-78.48"/>
<polygon fill="midnightblue" stroke="midnightblue" points="674.87,-75.03 664.29,-75.46 672.83,-81.72 674.87,-75.03"/>
</g>
<!-- Node16&#45;&gt;Node8 -->
<g id="edge23" class="edge">
<title>Node16&#45;&gt;Node8</title>
<path fill="none" stroke="midnightblue" d="M697.16,-280.42C704.3,-271.86 714.57,-257.99 719.5,-244 739.04,-188.5 750.01,-154.67 709.5,-112 673.79,-74.39 647.42,-93.22 598.5,-76 549.15,-58.63 492.5,-36.7 458.38,-23.27"/>
<polygon fill="midnightblue" stroke="midnightblue" points="459.56,-19.97 448.97,-19.55 456.99,-26.48 459.56,-19.97"/>
</g>
<!-- Node16&#45;&gt;Node10 -->
<g id="edge24" class="edge">
<title>Node16&#45;&gt;Node10</title>
<path fill="none" stroke="midnightblue" d="M692.89,-280.36C703.26,-252.31 731.42,-162.66 689.5,-112 688.16,-110.38 581.94,-87.76 522.58,-75.22"/>
<polygon fill="midnightblue" stroke="midnightblue" points="523.28,-71.79 512.77,-73.15 521.83,-78.64 523.28,-71.79"/>
</g>
<!-- Node16&#45;&gt;Node12 -->
<g id="edge26" class="edge">
<title>Node16&#45;&gt;Node12</title>
<path fill="none" stroke="midnightblue" d="M661.47,-289.52C572.68,-290.66 299.24,-290.27 226.5,-244 193.38,-222.93 206.08,-198.6 181.5,-168 154.13,-133.93 115.4,-100.5 92.52,-81.94"/>
<polygon fill="midnightblue" stroke="midnightblue" points="94.58,-79.1 84.59,-75.58 90.2,-84.56 94.58,-79.1"/>
</g>
<!-- Node17 -->
<g id="node17" class="node">
<title>Node17</title>
<g id="a_node17"><a xlink:title=" ">
<polygon fill="white" stroke="#bfbfbf" points="635,-112.5 635,-131.5 680,-131.5 680,-112.5 635,-112.5"/>
<text text-anchor="middle" x="657.5" y="-119.5" font-family="Helvetica,sans-Serif" font-size="10.00">utility</text>
</a>
</g>
</g>
<!-- Node16&#45;&gt;Node17 -->
<g id="edge21" class="edge">
<title>Node16&#45;&gt;Node17</title>
<path fill="none" stroke="midnightblue" d="M687.78,-280.08C682.74,-253.95 667.95,-177.21 661.08,-141.58"/>
<polygon fill="midnightblue" stroke="midnightblue" points="664.48,-140.72 659.15,-131.57 657.61,-142.05 664.48,-140.72"/>
</g>
<!-- Node16&#45;&gt;Node18 -->
<g id="edge27" class="edge">
<title>Node16&#45;&gt;Node18</title>
<path fill="none" stroke="midnightblue" d="M661.34,-285.16C599.49,-276.73 450.3,-256.38 362.09,-244.35"/>
<polygon fill="midnightblue" stroke="midnightblue" points="362.55,-240.88 352.17,-243 361.61,-247.82 362.55,-240.88"/>
</g>
<!-- Node24 -->
<g id="node24" class="node">
<title>Node24</title>
<g id="a_node24"><a xlink:href="Callback_8hpp.html" target="_top" xlink:title=" ">
<polygon fill="white" stroke="black" points="486.5,-168.5 486.5,-187.5 604.5,-187.5 604.5,-168.5 486.5,-168.5"/>
<text text-anchor="middle" x="545.5" y="-175.5" font-family="Helvetica,sans-Serif" font-size="10.00">Models/Callback.hpp</text>
</a>
</g>
</g>
<!-- Node16&#45;&gt;Node24 -->
<g id="edge38" class="edge">
<title>Node16&#45;&gt;Node24</title>
<path fill="none" stroke="midnightblue" d="M678.2,-280.37C653.7,-261.65 595.44,-217.15 564.92,-193.83"/>
<polygon fill="midnightblue" stroke="midnightblue" points="566.82,-190.88 556.75,-187.59 562.57,-196.44 566.82,-190.88"/>
</g>
<!-- Node25 -->
<g id="node25" class="node">
<title>Node25</title>
<g id="a_node25"><a xlink:href="Scene_8hpp.html" target="_top" xlink:title=" ">
<polygon fill="white" stroke="black" points="409,-224.5 409,-243.5 508,-243.5 508,-224.5 409,-224.5"/>
<text text-anchor="middle" x="458.5" y="-231.5" font-family="Helvetica,sans-Serif" font-size="10.00">Scene/Scene.hpp</text>
</a>
</g>
</g>
<!-- Node16&#45;&gt;Node25 -->
<g id="edge42" class="edge">
<title>Node16&#45;&gt;Node25</title>
<path fill="none" stroke="midnightblue" d="M661.17,-282.38C622.23,-273.27 551.66,-256.78 504.93,-245.85"/>
<polygon fill="midnightblue" stroke="midnightblue" points="505.59,-242.41 495.05,-243.55 504,-249.23 505.59,-242.41"/>
</g>
<!-- Node18&#45;&gt;Node3 -->
<g id="edge37" class="edge">
<title>Node18&#45;&gt;Node3</title>
<path fill="none" stroke="midnightblue" d="M270.37,-224.44C246.02,-215.44 207.49,-201.19 180.08,-191.05"/>
<polygon fill="midnightblue" stroke="midnightblue" points="181.12,-187.7 170.53,-187.52 178.69,-194.27 181.12,-187.7"/>
</g>
<!-- Node18&#45;&gt;Node7 -->
<g id="edge28" class="edge">
<title>Node18&#45;&gt;Node7</title>
<path fill="none" stroke="midnightblue" d="M287.13,-224.17C280.72,-215.19 270.64,-200.81 262.5,-188 252.44,-172.18 241.73,-153.68 234.25,-140.47"/>
<polygon fill="midnightblue" stroke="midnightblue" points="237.17,-138.54 229.22,-131.53 231.07,-141.97 237.17,-138.54"/>
</g>
<!-- Node18&#45;&gt;Node19 -->
<g id="edge29" class="edge">
<title>Node18&#45;&gt;Node19</title>
<path fill="none" stroke="midnightblue" d="M302.58,-224.08C310.67,-216.14 322.7,-204.34 332.41,-194.8"/>
<polygon fill="midnightblue" stroke="midnightblue" points="334.9,-197.25 339.59,-187.75 330,-192.26 334.9,-197.25"/>
</g>
<!-- Node19&#45;&gt;Node6 -->
<g id="edge32" class="edge">
<title>Node19&#45;&gt;Node6</title>
<path fill="none" stroke="midnightblue" d="M360.67,-168.42C379.81,-155.18 418.37,-129.47 453.5,-112 542.5,-67.75 655.37,-36.16 715.77,-21.05"/>
<polygon fill="midnightblue" stroke="midnightblue" points="716.84,-24.4 725.7,-18.6 715.16,-17.6 716.84,-24.4"/>
</g>
<!-- Node19&#45;&gt;Node7 -->
<g id="edge36" class="edge">
<title>Node19&#45;&gt;Node7</title>
<path fill="none" stroke="midnightblue" d="M328.85,-168.44C308.54,-159.6 276.6,-145.69 253.4,-135.59"/>
<polygon fill="midnightblue" stroke="midnightblue" points="254.62,-132.3 244.06,-131.52 251.83,-138.72 254.62,-132.3"/>
</g>
<!-- Node19&#45;&gt;Node17 -->
<g id="edge34" class="edge">
<title>Node19&#45;&gt;Node17</title>
<path fill="none" stroke="midnightblue" d="M392.77,-169.26C455.48,-158.3 568.74,-138.51 624.57,-128.75"/>
<polygon fill="midnightblue" stroke="midnightblue" points="625.37,-132.17 634.62,-127 624.17,-125.27 625.37,-132.17"/>
</g>
<!-- Node20 -->
<g id="node20" class="node">
<title>Node20</title>
<g id="a_node20"><a xlink:title=" ">
<polygon fill="white" stroke="#bfbfbf" points="462.5,-112.5 462.5,-131.5 494.5,-131.5 494.5,-112.5 462.5,-112.5"/>
<text text-anchor="middle" x="478.5" y="-119.5" font-family="Helvetica,sans-Serif" font-size="10.00">list</text>
</a>
</g>
</g>
<!-- Node19&#45;&gt;Node20 -->
<g id="edge30" class="edge">
<title>Node19&#45;&gt;Node20</title>
<path fill="none" stroke="midnightblue" d="M369.1,-168.44C391.75,-159.03 428.19,-143.9 452.72,-133.71"/>
<polygon fill="midnightblue" stroke="midnightblue" points="454.22,-136.88 462.11,-129.81 451.54,-130.41 454.22,-136.88"/>
</g>
<!-- Node21 -->
<g id="node21" class="node">
<title>Node21</title>
<g id="a_node21"><a xlink:title=" ">
<polygon fill="white" stroke="#bfbfbf" points="365,-112.5 365,-131.5 406,-131.5 406,-112.5 365,-112.5"/>
<text text-anchor="middle" x="385.5" y="-119.5" font-family="Helvetica,sans-Serif" font-size="10.00">tuple</text>
</a>
</g>
</g>
<!-- Node19&#45;&gt;Node21 -->
<g id="edge31" class="edge">
<title>Node19&#45;&gt;Node21</title>
<path fill="none" stroke="midnightblue" d="M354.61,-168.08C359.78,-160.53 367.35,-149.49 373.69,-140.23"/>
<polygon fill="midnightblue" stroke="midnightblue" points="376.74,-141.98 379.5,-131.75 370.96,-138.02 376.74,-141.98"/>
</g>
<!-- Node22 -->
<g id="node22" class="node">
<title>Node22</title>
<g id="a_node22"><a xlink:title=" ">
<polygon fill="white" stroke="#bfbfbf" points="513,-112.5 513,-131.5 578,-131.5 578,-112.5 513,-112.5"/>
<text text-anchor="middle" x="545.5" y="-119.5" font-family="Helvetica,sans-Serif" font-size="10.00">functional</text>
</a>
</g>
</g>
<!-- Node19&#45;&gt;Node22 -->
<g id="edge33" class="edge">
<title>Node19&#45;&gt;Node22</title>
<path fill="none" stroke="midnightblue" d="M379.72,-168.44C413.43,-159.2 467.3,-144.44 504.43,-134.26"/>
<polygon fill="midnightblue" stroke="midnightblue" points="505.71,-137.54 514.43,-131.52 503.86,-130.78 505.71,-137.54"/>
</g>
<!-- Node23 -->
<g id="node23" class="node">
<title>Node23</title>
<g id="a_node23"><a xlink:title=" ">
<polygon fill="white" stroke="#bfbfbf" points="290.5,-112.5 290.5,-131.5 346.5,-131.5 346.5,-112.5 290.5,-112.5"/>
<text text-anchor="middle" x="318.5" y="-119.5" font-family="Helvetica,sans-Serif" font-size="10.00">optional</text>
</a>
</g>
</g>
<!-- Node19&#45;&gt;Node23 -->
<g id="edge35" class="edge">
<title>Node19&#45;&gt;Node23</title>
<path fill="none" stroke="midnightblue" d="M343.55,-168.08C339.4,-160.61 333.35,-149.72 328.23,-140.52"/>
<polygon fill="midnightblue" stroke="midnightblue" points="331.28,-138.79 323.36,-131.75 325.16,-142.19 331.28,-138.79"/>
</g>
<!-- Node24&#45;&gt;Node9 -->
<g id="edge41" class="edge">
<title>Node24&#45;&gt;Node9</title>
<path fill="none" stroke="midnightblue" d="M558.11,-168.43C575.39,-155.63 602.67,-131.01 587.5,-112 578.6,-100.85 501.74,-85.8 446.46,-76.25"/>
<polygon fill="midnightblue" stroke="midnightblue" points="446.86,-72.76 436.41,-74.53 445.68,-79.66 446.86,-72.76"/>
</g>
<!-- Node24&#45;&gt;Node17 -->
<g id="edge40" class="edge">
<title>Node24&#45;&gt;Node17</title>
<path fill="none" stroke="midnightblue" d="M563.49,-168.32C581.54,-159.62 609.55,-146.12 630.3,-136.11"/>
<polygon fill="midnightblue" stroke="midnightblue" points="632.06,-139.15 639.55,-131.65 629.02,-132.84 632.06,-139.15"/>
</g>
<!-- Node24&#45;&gt;Node22 -->
<g id="edge39" class="edge">
<title>Node24&#45;&gt;Node22</title>
<path fill="none" stroke="midnightblue" d="M545.5,-168.08C545.5,-161.01 545.5,-150.86 545.5,-141.99"/>
<polygon fill="midnightblue" stroke="midnightblue" points="549,-141.75 545.5,-131.75 542,-141.75 549,-141.75"/>
</g>
<!-- Node25&#45;&gt;Node4 -->
<g id="edge43" class="edge">
<title>Node25&#45;&gt;Node4</title>
<path fill="none" stroke="midnightblue" d="M494.15,-224.48C525.93,-216.45 573.48,-203.38 613.5,-188 720,-147.06 749.03,-138.48 844.5,-76 866.81,-61.4 889.7,-40.93 904.45,-26.88"/>
<polygon fill="midnightblue" stroke="midnightblue" points="907,-29.29 911.75,-19.82 902.13,-24.26 907,-29.29"/>
</g>
<!-- Node25&#45;&gt;Node7 -->
<g id="edge47" class="edge">
<title>Node25&#45;&gt;Node7</title>
<path fill="none" stroke="midnightblue" d="M408.76,-225.56C375.22,-219.07 330.82,-207.54 295.5,-188 272.76,-175.42 251.45,-154.14 238.23,-139.38"/>
<polygon fill="midnightblue" stroke="midnightblue" points="240.62,-136.8 231.42,-131.55 235.34,-141.39 240.62,-136.8"/>
</g>
<!-- Node25&#45;&gt;Node19 -->
<g id="edge46" class="edge">
<title>Node25&#45;&gt;Node19</title>
<path fill="none" stroke="midnightblue" d="M440.83,-224.32C423.11,-215.62 395.6,-202.12 375.21,-192.11"/>
<polygon fill="midnightblue" stroke="midnightblue" points="376.65,-188.92 366.13,-187.65 373.56,-195.2 376.65,-188.92"/>
</g>
<!-- Node25&#45;&gt;Node20 -->
<g id="edge44" class="edge">
<title>Node25&#45;&gt;Node20</title>
<path fill="none" stroke="midnightblue" d="M453.78,-224.42C447.5,-211.83 437.89,-187.7 444.5,-168 448.1,-157.25 455.4,-147.02 462.32,-139.04"/>
<polygon fill="midnightblue" stroke="midnightblue" points="464.98,-141.32 469.21,-131.61 459.85,-136.56 464.98,-141.32"/>
</g>
<!-- Node25&#45;&gt;Node22 -->
<g id="edge45" class="edge">
<title>Node25&#45;&gt;Node22</title>
<path fill="none" stroke="midnightblue" d="M459.16,-224.16C460.56,-210.81 464.8,-185.22 477.5,-168 487.47,-154.48 502.8,-143.83 516.38,-136.29"/>
<polygon fill="midnightblue" stroke="midnightblue" points="518.17,-139.3 525.42,-131.57 514.93,-133.1 518.17,-139.3"/>
</g>
<!-- Node27&#45;&gt;Node11 -->
<g id="edge57" class="edge">
<title>Node27&#45;&gt;Node11</title>
<path fill="none" stroke="midnightblue" d="M895.99,-336.49C888.44,-297.44 862.85,-185.4 806.5,-112 798.11,-101.07 786.96,-90.44 777.53,-82.27"/>
<polygon fill="midnightblue" stroke="midnightblue" points="779.69,-79.52 769.78,-75.76 775.19,-84.88 779.69,-79.52"/>
</g>
<!-- Node28 -->
<g id="node28" class="node">
<title>Node28</title>
<g id="a_node28"><a xlink:href="sources_2Models_2Vector3_8hpp.html" target="_top" xlink:title=" ">
<polygon fill="white" stroke="black" points="1084,-280.5 1084,-299.5 1197,-299.5 1197,-280.5 1084,-280.5"/>
<text text-anchor="middle" x="1140.5" y="-287.5" font-family="Helvetica,sans-Serif" font-size="10.00">Models/Vector3.hpp</text>
</a>
</g>
</g>
<!-- Node27&#45;&gt;Node28 -->
<g id="edge52" class="edge">
<title>Node27&#45;&gt;Node28</title>
<path fill="none" stroke="midnightblue" d="M955.54,-336.47C998.48,-325.92 1056.49,-311.66 1096.02,-301.94"/>
<polygon fill="midnightblue" stroke="midnightblue" points="1097.03,-305.29 1105.9,-299.51 1095.36,-298.5 1097.03,-305.29"/>
</g>
<!-- Node28&#45;&gt;Node26 -->
<g id="edge53" class="edge">
<title>Node28&#45;&gt;Node26</title>
<path fill="none" stroke="midnightblue" d="M1129.25,-280.32C1118.7,-272.18 1102.7,-259.84 1090.06,-250.09"/>
<polygon fill="midnightblue" stroke="midnightblue" points="1092.01,-247.17 1081.95,-243.83 1087.73,-252.71 1092.01,-247.17"/>
</g>
<!-- Node29 -->
<g id="node29" class="node">
<title>Node29</title>
<g id="a_node29"><a xlink:title=" ">
<polygon fill="white" stroke="#bfbfbf" points="1119,-224.5 1119,-243.5 1166,-243.5 1166,-224.5 1119,-224.5"/>
<text text-anchor="middle" x="1142.5" y="-231.5" font-family="Helvetica,sans-Serif" font-size="10.00">cmath</text>
</a>
</g>
</g>
<!-- Node28&#45;&gt;Node29 -->
<g id="edge54" class="edge">
<title>Node28&#45;&gt;Node29</title>
<path fill="none" stroke="midnightblue" d="M1140.83,-280.08C1141.09,-273.01 1141.47,-262.86 1141.8,-253.99"/>
<polygon fill="midnightblue" stroke="midnightblue" points="1145.3,-253.87 1142.18,-243.75 1138.31,-253.61 1145.3,-253.87"/>
</g>
<!-- Node30 -->
<g id="node30" class="node">
<title>Node30</title>
<g id="a_node30"><a xlink:href="lib_2Ray_2sources_2Vector_2Vector3_8hpp.html" target="_top" xlink:title=" ">
<polygon fill="white" stroke="black" points="1184.5,-224.5 1184.5,-243.5 1292.5,-243.5 1292.5,-224.5 1184.5,-224.5"/>
<text text-anchor="middle" x="1238.5" y="-231.5" font-family="Helvetica,sans-Serif" font-size="10.00">Vector/Vector3.hpp</text>
</a>
</g>
</g>
<!-- Node28&#45;&gt;Node30 -->
<g id="edge55" class="edge">
<title>Node28&#45;&gt;Node30</title>
<path fill="none" stroke="midnightblue" d="M1156.25,-280.32C1171.82,-271.74 1195.88,-258.49 1213.96,-248.52"/>
<polygon fill="midnightblue" stroke="midnightblue" points="1215.72,-251.55 1222.79,-243.65 1212.35,-245.42 1215.72,-251.55"/>
</g>
<!-- Node31 -->
<g id="node31" class="node">
<title>Node31</title>
<g id="a_node31"><a xlink:title=" ">
<polygon fill="white" stroke="#bfbfbf" points="1212,-168.5 1212,-187.5 1265,-187.5 1265,-168.5 1212,-168.5"/>
<text text-anchor="middle" x="1238.5" y="-175.5" font-family="Helvetica,sans-Serif" font-size="10.00">raylib.h</text>
</a>
</g>
</g>
<!-- Node30&#45;&gt;Node31 -->
<g id="edge56" class="edge">
<title>Node30&#45;&gt;Node31</title>
<path fill="none" stroke="midnightblue" d="M1238.5,-224.08C1238.5,-217.01 1238.5,-206.86 1238.5,-197.99"/>
<polygon fill="midnightblue" stroke="midnightblue" points="1242,-197.75 1238.5,-187.75 1235,-197.75 1242,-197.75"/>
</g>
</g>
</svg>
