<?xml version="1.0" encoding="UTF-8" standalone="no"?>
<!DOCTYPE svg PUBLIC "-//W3C//DTD SVG 1.1//EN"
 "http://www.w3.org/Graphics/SVG/1.1/DTD/svg11.dtd">
<!-- Generated by graphviz version 2.43.0 (0)
 -->
<!-- Title: sources/Component/Health/HealthComponent.cpp Pages: 1 -->
<svg width="989pt" height="431pt"
 viewBox="0.00 0.00 988.96 431.00" xmlns="http://www.w3.org/2000/svg" xmlns:xlink="http://www.w3.org/1999/xlink">
<g id="graph0" class="graph" transform="scale(1 1) rotate(0) translate(4 427)">
<title>sources/Component/Health/HealthComponent.cpp</title>
<polygon fill="white" stroke="transparent" points="-4,4 -4,-427 984.96,-427 984.96,4 -4,4"/>
<!-- Node1 -->
<g id="node1" class="node">
<title>Node1</title>
<g id="a_node1"><a xlink:title=" ">
<polygon fill="#bfbfbf" stroke="black" points="784.46,-392.5 784.46,-422.5 933.46,-422.5 933.46,-392.5 784.46,-392.5"/>
<text text-anchor="start" x="792.46" y="-410.5" font-family="Helvetica,sans-Serif" font-size="10.00">sources/Component/Health</text>
<text text-anchor="middle" x="858.96" y="-399.5" font-family="Helvetica,sans-Serif" font-size="10.00">/HealthComponent.cpp</text>
</a>
</g>
</g>
<!-- Node2 -->
<g id="node2" class="node">
<title>Node2</title>
<g id="a_node2"><a xlink:href="HealthComponent_8hpp.html" target="_top" xlink:title=" ">
<polygon fill="white" stroke="black" points="750.96,-336.5 750.96,-355.5 876.96,-355.5 876.96,-336.5 750.96,-336.5"/>
<text text-anchor="middle" x="813.96" y="-343.5" font-family="Helvetica,sans-Serif" font-size="10.00">HealthComponent.hpp</text>
</a>
</g>
</g>
<!-- Node1&#45;&gt;Node2 -->
<g id="edge1" class="edge">
<title>Node1&#45;&gt;Node2</title>
<path fill="none" stroke="midnightblue" d="M848.3,-392.4C841.83,-383.84 833.53,-372.87 826.71,-363.86"/>
<polygon fill="midnightblue" stroke="midnightblue" points="829.33,-361.52 820.51,-355.66 823.75,-365.74 829.33,-361.52"/>
</g>
<!-- Node5 -->
<g id="node5" class="node">
<title>Node5</title>
<g id="a_node5"><a xlink:title=" ">
<polygon fill="white" stroke="#bfbfbf" points="795.46,-112.5 795.46,-131.5 840.46,-131.5 840.46,-112.5 795.46,-112.5"/>
<text text-anchor="middle" x="817.96" y="-119.5" font-family="Helvetica,sans-Serif" font-size="10.00">utility</text>
</a>
</g>
</g>
<!-- Node1&#45;&gt;Node5 -->
<g id="edge46" class="edge">
<title>Node1&#45;&gt;Node5</title>
<path fill="none" stroke="midnightblue" d="M868.72,-392.28C882.22,-371.17 904.96,-329.85 904.96,-291 904.96,-291 904.96,-291 904.96,-233 904.96,-202.9 903.82,-192.23 885.96,-168 876,-154.48 860.67,-143.83 847.08,-136.29"/>
<polygon fill="midnightblue" stroke="midnightblue" points="848.53,-133.1 838.04,-131.57 845.29,-139.3 848.53,-133.1"/>
</g>
<!-- Node3 -->
<g id="node3" class="node">
<title>Node3</title>
<g id="a_node3"><a xlink:href="Callback_8hpp.html" target="_top" xlink:title=" ">
<polygon fill="white" stroke="black" points="758.96,-168.5 758.96,-187.5 876.96,-187.5 876.96,-168.5 758.96,-168.5"/>
<text text-anchor="middle" x="817.96" y="-175.5" font-family="Helvetica,sans-Serif" font-size="10.00">Models/Callback.hpp</text>
</a>
</g>
</g>
<!-- Node2&#45;&gt;Node3 -->
<g id="edge2" class="edge">
<title>Node2&#45;&gt;Node3</title>
<path fill="none" stroke="midnightblue" d="M814.18,-336.08C814.81,-309.95 816.65,-233.21 817.51,-197.58"/>
<polygon fill="midnightblue" stroke="midnightblue" points="821.01,-197.65 817.75,-187.57 814.01,-197.48 821.01,-197.65"/>
</g>
<!-- Node7 -->
<g id="node7" class="node">
<title>Node7</title>
<g id="a_node7"><a xlink:href="Component_8hpp.html" target="_top" xlink:title=" ">
<polygon fill="white" stroke="black" points="664.46,-56.5 664.46,-75.5 817.46,-75.5 817.46,-56.5 664.46,-56.5"/>
<text text-anchor="middle" x="740.96" y="-63.5" font-family="Helvetica,sans-Serif" font-size="10.00">Component/Component.hpp</text>
</a>
</g>
</g>
<!-- Node2&#45;&gt;Node7 -->
<g id="edge6" class="edge">
<title>Node2&#45;&gt;Node7</title>
<path fill="none" stroke="midnightblue" d="M856.53,-336.42C906.01,-323.67 980.96,-294.54 980.96,-235 980.96,-235 980.96,-235 980.96,-177 980.96,-107.32 896.33,-81.61 827.57,-72.21"/>
<polygon fill="midnightblue" stroke="midnightblue" points="827.92,-68.73 817.56,-70.94 827.04,-75.67 827.92,-68.73"/>
</g>
<!-- Node11 -->
<g id="node11" class="node">
<title>Node11</title>
<g id="a_node11"><a xlink:href="Entity_8hpp.html" target="_top" xlink:title=" ">
<polygon fill="white" stroke="black" points="336.96,-112.5 336.96,-131.5 432.96,-131.5 432.96,-112.5 336.96,-112.5"/>
<text text-anchor="middle" x="384.96" y="-119.5" font-family="Helvetica,sans-Serif" font-size="10.00">Entity/Entity.hpp</text>
</a>
</g>
</g>
<!-- Node2&#45;&gt;Node11 -->
<g id="edge10" class="edge">
<title>Node2&#45;&gt;Node11</title>
<path fill="none" stroke="midnightblue" d="M750.74,-341.23C637.87,-332.9 409.7,-308.3 369.96,-244 350.19,-212.02 365.08,-166.16 376.05,-141.09"/>
<polygon fill="midnightblue" stroke="midnightblue" points="379.36,-142.26 380.39,-131.71 373.01,-139.31 379.36,-142.26"/>
</g>
<!-- Node18 -->
<g id="node18" class="node">
<title>Node18</title>
<g id="a_node18"><a xlink:href="Wal_8hpp.html" target="_top" xlink:title=" ">
<polygon fill="white" stroke="black" points="490.96,-280.5 490.96,-299.5 546.96,-299.5 546.96,-280.5 490.96,-280.5"/>
<text text-anchor="middle" x="518.96" y="-287.5" font-family="Helvetica,sans-Serif" font-size="10.00">Wal.hpp</text>
</a>
</g>
</g>
<!-- Node2&#45;&gt;Node18 -->
<g id="edge21" class="edge">
<title>Node2&#45;&gt;Node18</title>
<path fill="none" stroke="midnightblue" d="M767.22,-336.44C709.19,-325.82 611.3,-307.9 557.41,-298.04"/>
<polygon fill="midnightblue" stroke="midnightblue" points="557.71,-294.54 547.24,-296.18 556.45,-301.42 557.71,-294.54"/>
</g>
<!-- Node4 -->
<g id="node4" class="node">
<title>Node4</title>
<g id="a_node4"><a xlink:title=" ">
<polygon fill="white" stroke="#bfbfbf" points="673.46,-112.5 673.46,-131.5 738.46,-131.5 738.46,-112.5 673.46,-112.5"/>
<text text-anchor="middle" x="705.96" y="-119.5" font-family="Helvetica,sans-Serif" font-size="10.00">functional</text>
</a>
</g>
</g>
<!-- Node3&#45;&gt;Node4 -->
<g id="edge3" class="edge">
<title>Node3&#45;&gt;Node4</title>
<path fill="none" stroke="midnightblue" d="M799.97,-168.32C781.92,-159.62 753.91,-146.12 733.16,-136.11"/>
<polygon fill="midnightblue" stroke="midnightblue" points="734.44,-132.84 723.91,-131.65 731.4,-139.15 734.44,-132.84"/>
</g>
<!-- Node3&#45;&gt;Node5 -->
<g id="edge4" class="edge">
<title>Node3&#45;&gt;Node5</title>
<path fill="none" stroke="midnightblue" d="M817.96,-168.08C817.96,-161.01 817.96,-150.86 817.96,-141.99"/>
<polygon fill="midnightblue" stroke="midnightblue" points="821.46,-141.75 817.96,-131.75 814.46,-141.75 821.46,-141.75"/>
</g>
<!-- Node6 -->
<g id="node6" class="node">
<title>Node6</title>
<g id="a_node6"><a xlink:title=" ">
<polygon fill="white" stroke="#bfbfbf" points="553.46,-56.5 553.46,-75.5 646.46,-75.5 646.46,-56.5 553.46,-56.5"/>
<text text-anchor="middle" x="599.96" y="-63.5" font-family="Helvetica,sans-Serif" font-size="10.00">unordered_map</text>
</a>
</g>
</g>
<!-- Node3&#45;&gt;Node6 -->
<g id="edge5" class="edge">
<title>Node3&#45;&gt;Node6</title>
<path fill="none" stroke="midnightblue" d="M827.89,-168.22C841.73,-154.95 863.55,-129.46 848.96,-112 845.86,-108.29 729.05,-88.36 656.54,-76.31"/>
<polygon fill="midnightblue" stroke="midnightblue" points="657.06,-72.85 646.62,-74.66 655.91,-79.75 657.06,-72.85"/>
</g>
<!-- Node8 -->
<g id="node8" class="node">
<title>Node8</title>
<g id="a_node8"><a xlink:title=" ">
<polygon fill="white" stroke="#bfbfbf" points="822.46,-0.5 822.46,-19.5 869.46,-19.5 869.46,-0.5 822.46,-0.5"/>
<text text-anchor="middle" x="845.96" y="-7.5" font-family="Helvetica,sans-Serif" font-size="10.00">vector</text>
</a>
</g>
</g>
<!-- Node7&#45;&gt;Node8 -->
<g id="edge7" class="edge">
<title>Node7&#45;&gt;Node8</title>
<path fill="none" stroke="midnightblue" d="M757.83,-56.32C774.67,-47.66 800.77,-34.24 820.2,-24.25"/>
<polygon fill="midnightblue" stroke="midnightblue" points="821.84,-27.34 829.13,-19.65 818.64,-21.12 821.84,-27.34"/>
</g>
<!-- Node9 -->
<g id="node9" class="node">
<title>Node9</title>
<g id="a_node9"><a xlink:title=" ">
<polygon fill="white" stroke="#bfbfbf" points="311.96,-0.5 311.96,-19.5 355.96,-19.5 355.96,-0.5 311.96,-0.5"/>
<text text-anchor="middle" x="333.96" y="-7.5" font-family="Helvetica,sans-Serif" font-size="10.00">string</text>
</a>
</g>
</g>
<!-- Node7&#45;&gt;Node9 -->
<g id="edge8" class="edge">
<title>Node7&#45;&gt;Node9</title>
<path fill="none" stroke="midnightblue" d="M676.47,-56.44C588.17,-44.73 433,-24.14 366.12,-15.27"/>
<polygon fill="midnightblue" stroke="midnightblue" points="366.54,-11.79 356.17,-13.95 365.62,-18.73 366.54,-11.79"/>
</g>
<!-- Node10 -->
<g id="node10" class="node">
<title>Node10</title>
<g id="a_node10"><a xlink:title=" ">
<polygon fill="white" stroke="#bfbfbf" points="600.46,-0.5 600.46,-19.5 665.46,-19.5 665.46,-0.5 600.46,-0.5"/>
<text text-anchor="middle" x="632.96" y="-7.5" font-family="Helvetica,sans-Serif" font-size="10.00">typeindex</text>
</a>
</g>
</g>
<!-- Node7&#45;&gt;Node10 -->
<g id="edge9" class="edge">
<title>Node7&#45;&gt;Node10</title>
<path fill="none" stroke="midnightblue" d="M723.61,-56.32C706.29,-47.66 679.45,-34.24 659.46,-24.25"/>
<polygon fill="midnightblue" stroke="midnightblue" points="660.78,-21 650.27,-19.65 657.65,-27.26 660.78,-21"/>
</g>
<!-- Node11&#45;&gt;Node6 -->
<g id="edge12" class="edge">
<title>Node11&#45;&gt;Node6</title>
<path fill="none" stroke="midnightblue" d="M419.03,-112.44C456.14,-103.12 515.62,-88.18 556.18,-78"/>
<polygon fill="midnightblue" stroke="midnightblue" points="557.21,-81.35 566.05,-75.52 555.5,-74.56 557.21,-81.35"/>
</g>
<!-- Node11&#45;&gt;Node7 -->
<g id="edge15" class="edge">
<title>Node11&#45;&gt;Node7</title>
<path fill="none" stroke="midnightblue" d="M432.97,-113.72C495.29,-104.26 604.35,-87.72 674.57,-77.07"/>
<polygon fill="midnightblue" stroke="midnightblue" points="675.27,-80.5 684.63,-75.54 674.22,-73.58 675.27,-80.5"/>
</g>
<!-- Node11&#45;&gt;Node9 -->
<g id="edge11" class="edge">
<title>Node11&#45;&gt;Node9</title>
<path fill="none" stroke="midnightblue" d="M379.08,-112.31C373.23,-103.44 364.26,-89.14 357.96,-76 350.65,-60.75 344.13,-42.64 339.74,-29.41"/>
<polygon fill="midnightblue" stroke="midnightblue" points="342.98,-28.06 336.58,-19.62 336.32,-30.21 342.98,-28.06"/>
</g>
<!-- Node12 -->
<g id="node12" class="node">
<title>Node12</title>
<g id="a_node12"><a xlink:title=" ">
<polygon fill="white" stroke="#bfbfbf" points="29.46,-56.5 29.46,-75.5 86.46,-75.5 86.46,-56.5 29.46,-56.5"/>
<text text-anchor="middle" x="57.96" y="-63.5" font-family="Helvetica,sans-Serif" font-size="10.00">typeinfo</text>
</a>
</g>
</g>
<!-- Node11&#45;&gt;Node12 -->
<g id="edge13" class="edge">
<title>Node11&#45;&gt;Node12</title>
<path fill="none" stroke="midnightblue" d="M336.95,-114.69C281.46,-107.15 187.22,-93.53 96.45,-75.96"/>
<polygon fill="midnightblue" stroke="midnightblue" points="97.03,-72.51 86.54,-74.02 95.69,-79.38 97.03,-72.51"/>
</g>
<!-- Node13 -->
<g id="node13" class="node">
<title>Node13</title>
<g id="a_node13"><a xlink:title=" ">
<polygon fill="white" stroke="#bfbfbf" points="104.96,-56.5 104.96,-75.5 162.96,-75.5 162.96,-56.5 104.96,-56.5"/>
<text text-anchor="middle" x="133.96" y="-63.5" font-family="Helvetica,sans-Serif" font-size="10.00">memory</text>
</a>
</g>
</g>
<!-- Node11&#45;&gt;Node13 -->
<g id="edge14" class="edge">
<title>Node11&#45;&gt;Node13</title>
<path fill="none" stroke="midnightblue" d="M342.86,-112.42C301.95,-104.01 237.8,-90.65 172.98,-76.19"/>
<polygon fill="midnightblue" stroke="midnightblue" points="173.51,-72.72 162.99,-73.95 171.98,-79.55 173.51,-72.72"/>
</g>
<!-- Node14 -->
<g id="node14" class="node">
<title>Node14</title>
<g id="a_node14"><a xlink:href="WalError_8hpp.html" target="_top" xlink:title=" ">
<polygon fill="white" stroke="black" points="181.46,-56.5 181.46,-75.5 310.46,-75.5 310.46,-56.5 181.46,-56.5"/>
<text text-anchor="middle" x="245.96" y="-63.5" font-family="Helvetica,sans-Serif" font-size="10.00">Exception/WalError.hpp</text>
</a>
</g>
</g>
<!-- Node11&#45;&gt;Node14 -->
<g id="edge16" class="edge">
<title>Node11&#45;&gt;Node14</title>
<path fill="none" stroke="midnightblue" d="M362.94,-112.44C339.86,-103.48 303.4,-89.31 277.32,-79.18"/>
<polygon fill="midnightblue" stroke="midnightblue" points="278.47,-75.88 267.88,-75.52 275.94,-82.4 278.47,-75.88"/>
</g>
<!-- Node17 -->
<g id="node17" class="node">
<title>Node17</title>
<g id="a_node17"><a xlink:href="TypeHolder_8hpp.html" target="_top" xlink:title=" ">
<polygon fill="white" stroke="black" points="366.96,-56.5 366.96,-75.5 496.96,-75.5 496.96,-56.5 366.96,-56.5"/>
<text text-anchor="middle" x="431.96" y="-63.5" font-family="Helvetica,sans-Serif" font-size="10.00">Models/TypeHolder.hpp</text>
</a>
</g>
</g>
<!-- Node11&#45;&gt;Node17 -->
<g id="edge20" class="edge">
<title>Node11&#45;&gt;Node17</title>
<path fill="none" stroke="midnightblue" d="M392.72,-112.08C399.5,-104.3 409.5,-92.8 417.72,-83.37"/>
<polygon fill="midnightblue" stroke="midnightblue" points="420.42,-85.59 424.34,-75.75 415.14,-81 420.42,-85.59"/>
</g>
<!-- Node14&#45;&gt;Node9 -->
<g id="edge19" class="edge">
<title>Node14&#45;&gt;Node9</title>
<path fill="none" stroke="midnightblue" d="M260.1,-56.32C273.83,-47.9 294.9,-34.97 311.03,-25.07"/>
<polygon fill="midnightblue" stroke="midnightblue" points="313.16,-27.87 319.86,-19.65 309.5,-21.9 313.16,-27.87"/>
</g>
<!-- Node15 -->
<g id="node15" class="node">
<title>Node15</title>
<g id="a_node15"><a xlink:title=" ">
<polygon fill="white" stroke="#bfbfbf" points="135.46,-0.5 135.46,-19.5 200.46,-19.5 200.46,-0.5 135.46,-0.5"/>
<text text-anchor="middle" x="167.96" y="-7.5" font-family="Helvetica,sans-Serif" font-size="10.00">exception</text>
</a>
</g>
</g>
<!-- Node14&#45;&gt;Node15 -->
<g id="edge17" class="edge">
<title>Node14&#45;&gt;Node15</title>
<path fill="none" stroke="midnightblue" d="M233.43,-56.32C221.38,-47.98 202.93,-35.21 188.69,-25.35"/>
<polygon fill="midnightblue" stroke="midnightblue" points="190.68,-22.47 180.46,-19.65 186.69,-28.22 190.68,-22.47"/>
</g>
<!-- Node16 -->
<g id="node16" class="node">
<title>Node16</title>
<g id="a_node16"><a xlink:title=" ">
<polygon fill="white" stroke="#bfbfbf" points="218.46,-0.5 218.46,-19.5 283.46,-19.5 283.46,-0.5 218.46,-0.5"/>
<text text-anchor="middle" x="250.96" y="-7.5" font-family="Helvetica,sans-Serif" font-size="10.00">stdexcept</text>
</a>
</g>
</g>
<!-- Node14&#45;&gt;Node16 -->
<g id="edge18" class="edge">
<title>Node14&#45;&gt;Node16</title>
<path fill="none" stroke="midnightblue" d="M246.79,-56.08C247.44,-49.01 248.38,-38.86 249.2,-29.99"/>
<polygon fill="midnightblue" stroke="midnightblue" points="252.71,-30.03 250.15,-19.75 245.74,-29.39 252.71,-30.03"/>
</g>
<!-- Node18&#45;&gt;Node3 -->
<g id="edge39" class="edge">
<title>Node18&#45;&gt;Node3</title>
<path fill="none" stroke="midnightblue" d="M547.26,-288.09C591.62,-285.66 679.25,-276.72 744.96,-244 768.8,-232.13 790.85,-210.38 804.34,-195.33"/>
<polygon fill="midnightblue" stroke="midnightblue" points="806.99,-197.61 810.91,-187.77 801.71,-193.02 806.99,-197.61"/>
</g>
<!-- Node18&#45;&gt;Node5 -->
<g id="edge22" class="edge">
<title>Node18&#45;&gt;Node5</title>
<path fill="none" stroke="midnightblue" d="M547.16,-283.05C575.96,-276.24 621.36,-263.46 656.96,-244 703.8,-218.4 706.98,-199.66 749.96,-168 764.78,-157.09 782.08,-145.65 795.53,-137.04"/>
<polygon fill="midnightblue" stroke="midnightblue" points="797.57,-139.89 804.14,-131.57 793.82,-133.98 797.57,-139.89"/>
</g>
<!-- Node18&#45;&gt;Node8 -->
<g id="edge23" class="edge">
<title>Node18&#45;&gt;Node8</title>
<path fill="none" stroke="midnightblue" d="M547,-286.07C626.42,-277.1 849.53,-246.95 885.96,-188 917.92,-136.29 878.98,-61.98 857.86,-28.51"/>
<polygon fill="midnightblue" stroke="midnightblue" points="860.61,-26.32 852.21,-19.85 854.75,-30.14 860.61,-26.32"/>
</g>
<!-- Node18&#45;&gt;Node9 -->
<g id="edge24" class="edge">
<title>Node18&#45;&gt;Node9</title>
<path fill="none" stroke="midnightblue" d="M490.74,-289.08C382.65,-288.66 0.96,-280.01 0.96,-179 0.96,-179 0.96,-179 0.96,-121 0.96,-90.9 -2.88,-75.6 19.96,-56 66.24,-16.3 231.88,-30.4 291.96,-20 295.19,-19.44 298.56,-18.81 301.91,-18.14"/>
<polygon fill="midnightblue" stroke="midnightblue" points="302.71,-21.55 311.79,-16.1 301.29,-14.7 302.71,-21.55"/>
</g>
<!-- Node18&#45;&gt;Node12 -->
<g id="edge26" class="edge">
<title>Node18&#45;&gt;Node12</title>
<path fill="none" stroke="midnightblue" d="M490.89,-286.65C449.38,-282.38 369.88,-271.14 307.96,-244 210.61,-201.33 112.87,-117.39 74.7,-82.64"/>
<polygon fill="midnightblue" stroke="midnightblue" points="76.82,-79.83 67.09,-75.63 72.08,-84.98 76.82,-79.83"/>
</g>
<!-- Node18&#45;&gt;Node13 -->
<g id="edge25" class="edge">
<title>Node18&#45;&gt;Node13</title>
<path fill="none" stroke="midnightblue" d="M490.91,-285.72C455.16,-280.68 392.2,-268.87 343.96,-244 259.96,-200.69 180.15,-118.35 148.4,-83.37"/>
<polygon fill="midnightblue" stroke="midnightblue" points="150.67,-80.66 141.38,-75.55 145.45,-85.33 150.67,-80.66"/>
</g>
<!-- Node18&#45;&gt;Node14 -->
<g id="edge27" class="edge">
<title>Node18&#45;&gt;Node14</title>
<path fill="none" stroke="midnightblue" d="M490.71,-286.06C458.79,-281.55 406.52,-270.46 369.96,-244 310.74,-201.14 269.83,-120.99 253.67,-85.14"/>
<polygon fill="midnightblue" stroke="midnightblue" points="256.68,-83.28 249.46,-75.53 250.27,-86.09 256.68,-83.28"/>
</g>
<!-- Node19 -->
<g id="node19" class="node">
<title>Node19</title>
<g id="a_node19"><a xlink:href="ISystem_8hpp.html" target="_top" xlink:title=" ">
<polygon fill="white" stroke="black" points="379.46,-224.5 379.46,-243.5 496.46,-243.5 496.46,-224.5 379.46,-224.5"/>
<text text-anchor="middle" x="437.96" y="-231.5" font-family="Helvetica,sans-Serif" font-size="10.00">System/ISystem.hpp</text>
</a>
</g>
</g>
<!-- Node18&#45;&gt;Node19 -->
<g id="edge28" class="edge">
<title>Node18&#45;&gt;Node19</title>
<path fill="none" stroke="midnightblue" d="M505.95,-280.32C493.43,-271.98 474.28,-259.21 459.49,-249.35"/>
<polygon fill="midnightblue" stroke="midnightblue" points="461.2,-246.29 450.94,-243.65 457.32,-252.11 461.2,-246.29"/>
</g>
<!-- Node25 -->
<g id="node25" class="node">
<title>Node25</title>
<g id="a_node25"><a xlink:href="Scene_8hpp.html" target="_top" xlink:title=" ">
<polygon fill="white" stroke="black" points="549.46,-224.5 549.46,-243.5 648.46,-243.5 648.46,-224.5 549.46,-224.5"/>
<text text-anchor="middle" x="598.96" y="-231.5" font-family="Helvetica,sans-Serif" font-size="10.00">Scene/Scene.hpp</text>
</a>
</g>
</g>
<!-- Node18&#45;&gt;Node25 -->
<g id="edge40" class="edge">
<title>Node18&#45;&gt;Node25</title>
<path fill="none" stroke="midnightblue" d="M531.81,-280.32C544.18,-271.98 563.09,-259.21 577.7,-249.35"/>
<polygon fill="midnightblue" stroke="midnightblue" points="579.81,-252.15 586.14,-243.65 575.89,-246.35 579.81,-252.15"/>
</g>
<!-- Node19&#45;&gt;Node11 -->
<g id="edge29" class="edge">
<title>Node19&#45;&gt;Node11</title>
<path fill="none" stroke="midnightblue" d="M421.99,-224.28C409.64,-216.55 393.43,-204.01 385.96,-188 379.25,-173.62 379.61,-155.42 381.3,-141.94"/>
<polygon fill="midnightblue" stroke="midnightblue" points="384.78,-142.34 382.9,-131.92 377.87,-141.24 384.78,-142.34"/>
</g>
<!-- Node20 -->
<g id="node20" class="node">
<title>Node20</title>
<g id="a_node20"><a xlink:href="View_8hpp.html" target="_top" xlink:title=" ">
<polygon fill="white" stroke="black" points="500.96,-168.5 500.96,-187.5 588.96,-187.5 588.96,-168.5 500.96,-168.5"/>
<text text-anchor="middle" x="544.96" y="-175.5" font-family="Helvetica,sans-Serif" font-size="10.00">View/View.hpp</text>
</a>
</g>
</g>
<!-- Node19&#45;&gt;Node20 -->
<g id="edge30" class="edge">
<title>Node19&#45;&gt;Node20</title>
<path fill="none" stroke="midnightblue" d="M455.15,-224.32C472.31,-215.66 498.91,-202.24 518.71,-192.25"/>
<polygon fill="midnightblue" stroke="midnightblue" points="520.46,-195.28 527.81,-187.65 517.31,-189.04 520.46,-195.28"/>
</g>
<!-- Node24 -->
<g id="node24" class="node">
<title>Node24</title>
<g id="a_node24"><a xlink:title=" ">
<polygon fill="white" stroke="#bfbfbf" points="394.96,-168.5 394.96,-187.5 444.96,-187.5 444.96,-168.5 394.96,-168.5"/>
<text text-anchor="middle" x="419.96" y="-175.5" font-family="Helvetica,sans-Serif" font-size="10.00">chrono</text>
</a>
</g>
</g>
<!-- Node19&#45;&gt;Node24 -->
<g id="edge38" class="edge">
<title>Node19&#45;&gt;Node24</title>
<path fill="none" stroke="midnightblue" d="M434.99,-224.08C432.58,-216.85 429.1,-206.41 426.09,-197.4"/>
<polygon fill="midnightblue" stroke="midnightblue" points="429.36,-196.13 422.88,-187.75 422.72,-198.34 429.36,-196.13"/>
</g>
<!-- Node20&#45;&gt;Node4 -->
<g id="edge34" class="edge">
<title>Node20&#45;&gt;Node4</title>
<path fill="none" stroke="midnightblue" d="M570.47,-168.44C597.56,-159.36 640.55,-144.94 670.83,-134.78"/>
<polygon fill="midnightblue" stroke="midnightblue" points="672.2,-138.01 680.57,-131.52 669.98,-131.38 672.2,-138.01"/>
</g>
<!-- Node20&#45;&gt;Node5 -->
<g id="edge35" class="edge">
<title>Node20&#45;&gt;Node5</title>
<path fill="none" stroke="midnightblue" d="M588.22,-168.44C642.99,-157.61 736.12,-139.19 785.3,-129.46"/>
<polygon fill="midnightblue" stroke="midnightblue" points="786.25,-132.84 795.38,-127.47 784.89,-125.97 786.25,-132.84"/>
</g>
<!-- Node20&#45;&gt;Node10 -->
<g id="edge33" class="edge">
<title>Node20&#45;&gt;Node10</title>
<path fill="none" stroke="midnightblue" d="M524.49,-168.48C501.47,-157.5 468.68,-136.85 479.96,-112 495.58,-77.58 512.63,-77.14 543.96,-56 562.61,-43.42 585.26,-32.02 603.04,-23.84"/>
<polygon fill="midnightblue" stroke="midnightblue" points="604.68,-26.94 612.36,-19.64 601.81,-20.55 604.68,-26.94"/>
</g>
<!-- Node20&#45;&gt;Node11 -->
<g id="edge37" class="edge">
<title>Node20&#45;&gt;Node11</title>
<path fill="none" stroke="midnightblue" d="M519.61,-168.44C492.69,-159.36 449.96,-144.94 419.87,-134.78"/>
<polygon fill="midnightblue" stroke="midnightblue" points="420.79,-131.4 410.2,-131.52 418.55,-138.03 420.79,-131.4"/>
</g>
<!-- Node21 -->
<g id="node21" class="node">
<title>Node21</title>
<g id="a_node21"><a xlink:title=" ">
<polygon fill="white" stroke="#bfbfbf" points="622.96,-112.5 622.96,-131.5 654.96,-131.5 654.96,-112.5 622.96,-112.5"/>
<text text-anchor="middle" x="638.96" y="-119.5" font-family="Helvetica,sans-Serif" font-size="10.00">list</text>
</a>
</g>
</g>
<!-- Node20&#45;&gt;Node21 -->
<g id="edge31" class="edge">
<title>Node20&#45;&gt;Node21</title>
<path fill="none" stroke="midnightblue" d="M560.06,-168.32C574.86,-159.82 597.66,-146.73 614.94,-136.8"/>
<polygon fill="midnightblue" stroke="midnightblue" points="616.97,-139.67 623.9,-131.65 613.48,-133.6 616.97,-139.67"/>
</g>
<!-- Node22 -->
<g id="node22" class="node">
<title>Node22</title>
<g id="a_node22"><a xlink:title=" ">
<polygon fill="white" stroke="#bfbfbf" points="563.46,-112.5 563.46,-131.5 604.46,-131.5 604.46,-112.5 563.46,-112.5"/>
<text text-anchor="middle" x="583.96" y="-119.5" font-family="Helvetica,sans-Serif" font-size="10.00">tuple</text>
</a>
</g>
</g>
<!-- Node20&#45;&gt;Node22 -->
<g id="edge32" class="edge">
<title>Node20&#45;&gt;Node22</title>
<path fill="none" stroke="midnightblue" d="M551.4,-168.08C556.91,-160.46 564.99,-149.26 571.73,-139.94"/>
<polygon fill="midnightblue" stroke="midnightblue" points="574.62,-141.91 577.64,-131.75 568.95,-137.81 574.62,-141.91"/>
</g>
<!-- Node23 -->
<g id="node23" class="node">
<title>Node23</title>
<g id="a_node23"><a xlink:title=" ">
<polygon fill="white" stroke="#bfbfbf" points="488.96,-112.5 488.96,-131.5 544.96,-131.5 544.96,-112.5 488.96,-112.5"/>
<text text-anchor="middle" x="516.96" y="-119.5" font-family="Helvetica,sans-Serif" font-size="10.00">optional</text>
</a>
</g>
</g>
<!-- Node20&#45;&gt;Node23 -->
<g id="edge36" class="edge">
<title>Node20&#45;&gt;Node23</title>
<path fill="none" stroke="midnightblue" d="M540.34,-168.08C536.5,-160.69 530.94,-149.95 526.2,-140.81"/>
<polygon fill="midnightblue" stroke="midnightblue" points="529.21,-139.02 521.5,-131.75 522.99,-142.24 529.21,-139.02"/>
</g>
<!-- Node25&#45;&gt;Node4 -->
<g id="edge43" class="edge">
<title>Node25&#45;&gt;Node4</title>
<path fill="none" stroke="midnightblue" d="M607.36,-224.37C625.25,-205.97 667.37,-162.67 690.35,-139.05"/>
<polygon fill="midnightblue" stroke="midnightblue" points="693.14,-141.2 697.6,-131.59 688.12,-136.32 693.14,-141.2"/>
</g>
<!-- Node25&#45;&gt;Node8 -->
<g id="edge41" class="edge">
<title>Node25&#45;&gt;Node8</title>
<path fill="none" stroke="midnightblue" d="M612.42,-224.44C658.92,-194.77 810.76,-97.01 825.96,-76 835.8,-62.4 840.88,-43.85 843.45,-30.05"/>
<polygon fill="midnightblue" stroke="midnightblue" points="846.97,-30.21 845.07,-19.79 840.06,-29.12 846.97,-30.21"/>
</g>
<!-- Node25&#45;&gt;Node11 -->
<g id="edge45" class="edge">
<title>Node25&#45;&gt;Node11</title>
<path fill="none" stroke="midnightblue" d="M575.97,-224.47C554,-216.05 520.14,-202.39 491.96,-188 461.27,-172.33 427.56,-151.14 406.33,-137.28"/>
<polygon fill="midnightblue" stroke="midnightblue" points="408.06,-134.22 397.78,-131.65 404.21,-140.07 408.06,-134.22"/>
</g>
<!-- Node25&#45;&gt;Node20 -->
<g id="edge44" class="edge">
<title>Node25&#45;&gt;Node20</title>
<path fill="none" stroke="midnightblue" d="M590.04,-224.08C582.18,-216.22 570.53,-204.57 561.04,-195.08"/>
<polygon fill="midnightblue" stroke="midnightblue" points="563.26,-192.35 553.71,-187.75 558.31,-197.3 563.26,-192.35"/>
</g>
<!-- Node25&#45;&gt;Node21 -->
<g id="edge42" class="edge">
<title>Node25&#45;&gt;Node21</title>
<path fill="none" stroke="midnightblue" d="M602.1,-224.37C608.58,-206.54 623.58,-165.3 632.32,-141.27"/>
<polygon fill="midnightblue" stroke="midnightblue" points="635.71,-142.19 635.84,-131.59 629.13,-139.79 635.71,-142.19"/>
</g>
</g>
</svg>
