<?xml version="1.0" encoding="UTF-8" standalone="no"?>
<!DOCTYPE svg PUBLIC "-//W3C//DTD SVG 1.1//EN"
 "http://www.w3.org/Graphics/SVG/1.1/DTD/svg11.dtd">
<!-- Generated by graphviz version 2.43.0 (0)
 -->
<!-- Title: sources/Component/Health/HealthComponent.hpp Pages: 1 -->
<svg width="1112pt" height="375pt"
 viewBox="0.00 0.00 1111.50 375.00" xmlns="http://www.w3.org/2000/svg" xmlns:xlink="http://www.w3.org/1999/xlink">
<g id="graph0" class="graph" transform="scale(1 1) rotate(0) translate(4 371)">
<title>sources/Component/Health/HealthComponent.hpp</title>
<polygon fill="white" stroke="transparent" points="-4,4 -4,-371 1107.5,-371 1107.5,4 -4,4"/>
<!-- Node1 -->
<g id="node1" class="node">
<title>Node1</title>
<g id="a_node1"><a xlink:title=" ">
<polygon fill="#bfbfbf" stroke="black" points="553.5,-336.5 553.5,-366.5 702.5,-366.5 702.5,-336.5 553.5,-336.5"/>
<text text-anchor="start" x="561.5" y="-354.5" font-family="Helvetica,sans-Serif" font-size="10.00">sources/Component/Health</text>
<text text-anchor="middle" x="628" y="-343.5" font-family="Helvetica,sans-Serif" font-size="10.00">/HealthComponent.hpp</text>
</a>
</g>
</g>
<!-- Node2 -->
<g id="node2" class="node">
<title>Node2</title>
<g id="a_node2"><a xlink:href="Callback_8hpp.html" target="_top" xlink:title=" ">
<polygon fill="white" stroke="black" points="66,-168.5 66,-187.5 184,-187.5 184,-168.5 66,-168.5"/>
<text text-anchor="middle" x="125" y="-175.5" font-family="Helvetica,sans-Serif" font-size="10.00">Models/Callback.hpp</text>
</a>
</g>
</g>
<!-- Node1&#45;&gt;Node2 -->
<g id="edge1" class="edge">
<title>Node1&#45;&gt;Node2</title>
<path fill="none" stroke="midnightblue" d="M553.32,-340.72C438.79,-324.52 226.66,-289.34 166,-244 150,-232.04 138.7,-211.85 132.07,-197.14"/>
<polygon fill="midnightblue" stroke="midnightblue" points="135.16,-195.46 128.06,-187.59 128.7,-198.17 135.16,-195.46"/>
</g>
<!-- Node6 -->
<g id="node6" class="node">
<title>Node6</title>
<g id="a_node6"><a xlink:href="Component_8hpp.html" target="_top" xlink:title=" ">
<polygon fill="white" stroke="black" points="690.5,-56.5 690.5,-75.5 843.5,-75.5 843.5,-56.5 690.5,-56.5"/>
<text text-anchor="middle" x="767" y="-63.5" font-family="Helvetica,sans-Serif" font-size="10.00">Component/Component.hpp</text>
</a>
</g>
</g>
<!-- Node1&#45;&gt;Node6 -->
<g id="edge5" class="edge">
<title>Node1&#45;&gt;Node6</title>
<path fill="none" stroke="midnightblue" d="M634.89,-336.44C658,-289.31 732.72,-136.91 758.31,-84.73"/>
<polygon fill="midnightblue" stroke="midnightblue" points="761.48,-86.2 762.74,-75.68 755.2,-83.12 761.48,-86.2"/>
</g>
<!-- Node10 -->
<g id="node10" class="node">
<title>Node10</title>
<g id="a_node10"><a xlink:href="Entity_8hpp.html" target="_top" xlink:title=" ">
<polygon fill="white" stroke="black" points="519,-112.5 519,-131.5 615,-131.5 615,-112.5 519,-112.5"/>
<text text-anchor="middle" x="567" y="-119.5" font-family="Helvetica,sans-Serif" font-size="10.00">Entity/Entity.hpp</text>
</a>
</g>
</g>
<!-- Node1&#45;&gt;Node10 -->
<g id="edge9" class="edge">
<title>Node1&#45;&gt;Node10</title>
<path fill="none" stroke="midnightblue" d="M624.18,-336.27C613.6,-296.81 583.9,-186.02 572.01,-141.68"/>
<polygon fill="midnightblue" stroke="midnightblue" points="575.36,-140.68 569.39,-131.93 568.6,-142.49 575.36,-140.68"/>
</g>
<!-- Node17 -->
<g id="node17" class="node">
<title>Node17</title>
<g id="a_node17"><a xlink:href="Wal_8hpp.html" target="_top" xlink:title=" ">
<polygon fill="white" stroke="black" points="373,-280.5 373,-299.5 429,-299.5 429,-280.5 373,-280.5"/>
<text text-anchor="middle" x="401" y="-287.5" font-family="Helvetica,sans-Serif" font-size="10.00">Wal.hpp</text>
</a>
</g>
</g>
<!-- Node1&#45;&gt;Node17 -->
<g id="edge20" class="edge">
<title>Node1&#45;&gt;Node17</title>
<path fill="none" stroke="midnightblue" d="M574.49,-336.47C532.92,-325.58 476.27,-310.73 439.18,-301.01"/>
<polygon fill="midnightblue" stroke="midnightblue" points="439.83,-297.56 429.27,-298.41 438.06,-304.33 439.83,-297.56"/>
</g>
<!-- Node3 -->
<g id="node3" class="node">
<title>Node3</title>
<g id="a_node3"><a xlink:title=" ">
<polygon fill="white" stroke="#bfbfbf" points="175.5,-112.5 175.5,-131.5 240.5,-131.5 240.5,-112.5 175.5,-112.5"/>
<text text-anchor="middle" x="208" y="-119.5" font-family="Helvetica,sans-Serif" font-size="10.00">functional</text>
</a>
</g>
</g>
<!-- Node2&#45;&gt;Node3 -->
<g id="edge2" class="edge">
<title>Node2&#45;&gt;Node3</title>
<path fill="none" stroke="midnightblue" d="M138.34,-168.32C151.16,-159.98 170.78,-147.21 185.94,-137.35"/>
<polygon fill="midnightblue" stroke="midnightblue" points="188.22,-140.04 194.7,-131.65 184.41,-134.17 188.22,-140.04"/>
</g>
<!-- Node4 -->
<g id="node4" class="node">
<title>Node4</title>
<g id="a_node4"><a xlink:title=" ">
<polygon fill="white" stroke="#bfbfbf" points="112.5,-112.5 112.5,-131.5 157.5,-131.5 157.5,-112.5 112.5,-112.5"/>
<text text-anchor="middle" x="135" y="-119.5" font-family="Helvetica,sans-Serif" font-size="10.00">utility</text>
</a>
</g>
</g>
<!-- Node2&#45;&gt;Node4 -->
<g id="edge3" class="edge">
<title>Node2&#45;&gt;Node4</title>
<path fill="none" stroke="midnightblue" d="M126.65,-168.08C127.98,-160.93 129.88,-150.64 131.54,-141.69"/>
<polygon fill="midnightblue" stroke="midnightblue" points="135,-142.22 133.38,-131.75 128.12,-140.95 135,-142.22"/>
</g>
<!-- Node5 -->
<g id="node5" class="node">
<title>Node5</title>
<g id="a_node5"><a xlink:title=" ">
<polygon fill="white" stroke="#bfbfbf" points="354.5,-56.5 354.5,-75.5 447.5,-75.5 447.5,-56.5 354.5,-56.5"/>
<text text-anchor="middle" x="401" y="-63.5" font-family="Helvetica,sans-Serif" font-size="10.00">unordered_map</text>
</a>
</g>
</g>
<!-- Node2&#45;&gt;Node5 -->
<g id="edge4" class="edge">
<title>Node2&#45;&gt;Node5</title>
<path fill="none" stroke="midnightblue" d="M117.36,-168.41C106.31,-154.92 88.69,-128.6 103,-112 136.7,-72.91 276.06,-83.08 343.99,-75.87"/>
<polygon fill="midnightblue" stroke="midnightblue" points="344.78,-79.3 354.26,-74.55 343.89,-72.36 344.78,-79.3"/>
</g>
<!-- Node7 -->
<g id="node7" class="node">
<title>Node7</title>
<g id="a_node7"><a xlink:title=" ">
<polygon fill="white" stroke="#bfbfbf" points="189.5,-0.5 189.5,-19.5 236.5,-19.5 236.5,-0.5 189.5,-0.5"/>
<text text-anchor="middle" x="213" y="-7.5" font-family="Helvetica,sans-Serif" font-size="10.00">vector</text>
</a>
</g>
</g>
<!-- Node6&#45;&gt;Node7 -->
<g id="edge6" class="edge">
<title>Node6&#45;&gt;Node7</title>
<path fill="none" stroke="midnightblue" d="M690.11,-56.92C687.03,-56.61 683.99,-56.3 681,-56 518.49,-39.68 324.12,-21.38 246.97,-14.17"/>
<polygon fill="midnightblue" stroke="midnightblue" points="247.15,-10.67 236.87,-13.22 246.5,-17.64 247.15,-10.67"/>
</g>
<!-- Node8 -->
<g id="node8" class="node">
<title>Node8</title>
<g id="a_node8"><a xlink:title=" ">
<polygon fill="white" stroke="#bfbfbf" points="864,-0.5 864,-19.5 908,-19.5 908,-0.5 864,-0.5"/>
<text text-anchor="middle" x="886" y="-7.5" font-family="Helvetica,sans-Serif" font-size="10.00">string</text>
</a>
</g>
</g>
<!-- Node6&#45;&gt;Node8 -->
<g id="edge7" class="edge">
<title>Node6&#45;&gt;Node8</title>
<path fill="none" stroke="midnightblue" d="M785.86,-56.44C805.27,-47.64 835.73,-33.81 857.96,-23.72"/>
<polygon fill="midnightblue" stroke="midnightblue" points="859.57,-26.84 867.23,-19.52 856.68,-20.46 859.57,-26.84"/>
</g>
<!-- Node9 -->
<g id="node9" class="node">
<title>Node9</title>
<g id="a_node9"><a xlink:title=" ">
<polygon fill="white" stroke="#bfbfbf" points="494.5,-0.5 494.5,-19.5 559.5,-19.5 559.5,-0.5 494.5,-0.5"/>
<text text-anchor="middle" x="527" y="-7.5" font-family="Helvetica,sans-Serif" font-size="10.00">typeindex</text>
</a>
</g>
</g>
<!-- Node6&#45;&gt;Node9 -->
<g id="edge8" class="edge">
<title>Node6&#45;&gt;Node9</title>
<path fill="none" stroke="midnightblue" d="M728.97,-56.44C685.59,-46.68 614.84,-30.77 569.63,-20.59"/>
<polygon fill="midnightblue" stroke="midnightblue" points="570.36,-17.17 559.84,-18.39 568.83,-24 570.36,-17.17"/>
</g>
<!-- Node10&#45;&gt;Node5 -->
<g id="edge11" class="edge">
<title>Node10&#45;&gt;Node5</title>
<path fill="none" stroke="midnightblue" d="M540.7,-112.44C512.65,-103.32 468.06,-88.81 436.82,-78.65"/>
<polygon fill="midnightblue" stroke="midnightblue" points="437.77,-75.28 427.18,-75.52 435.61,-81.94 437.77,-75.28"/>
</g>
<!-- Node10&#45;&gt;Node6 -->
<g id="edge14" class="edge">
<title>Node10&#45;&gt;Node6</title>
<path fill="none" stroke="midnightblue" d="M598.69,-112.44C633.07,-103.16 688.08,-88.31 725.79,-78.13"/>
<polygon fill="midnightblue" stroke="midnightblue" points="726.72,-81.5 735.46,-75.52 724.89,-74.74 726.72,-81.5"/>
</g>
<!-- Node10&#45;&gt;Node8 -->
<g id="edge10" class="edge">
<title>Node10&#45;&gt;Node8</title>
<path fill="none" stroke="midnightblue" d="M615.1,-118.58C686.19,-114.15 814.92,-102.62 852,-76 867.48,-64.88 876.48,-44.55 881.29,-29.57"/>
<polygon fill="midnightblue" stroke="midnightblue" points="884.69,-30.4 884.08,-19.82 877.96,-28.47 884.69,-30.4"/>
</g>
<!-- Node11 -->
<g id="node11" class="node">
<title>Node11</title>
<g id="a_node11"><a xlink:title=" ">
<polygon fill="white" stroke="#bfbfbf" points="279.5,-56.5 279.5,-75.5 336.5,-75.5 336.5,-56.5 279.5,-56.5"/>
<text text-anchor="middle" x="308" y="-63.5" font-family="Helvetica,sans-Serif" font-size="10.00">typeinfo</text>
</a>
</g>
</g>
<!-- Node10&#45;&gt;Node11 -->
<g id="edge12" class="edge">
<title>Node10&#45;&gt;Node11</title>
<path fill="none" stroke="midnightblue" d="M522.25,-112.45C479.44,-104.16 412.83,-90.96 346.45,-76.26"/>
<polygon fill="midnightblue" stroke="midnightblue" points="347.18,-72.84 336.66,-74.09 345.66,-79.67 347.18,-72.84"/>
</g>
<!-- Node12 -->
<g id="node12" class="node">
<title>Node12</title>
<g id="a_node12"><a xlink:title=" ">
<polygon fill="white" stroke="#bfbfbf" points="614,-56.5 614,-75.5 672,-75.5 672,-56.5 614,-56.5"/>
<text text-anchor="middle" x="643" y="-63.5" font-family="Helvetica,sans-Serif" font-size="10.00">memory</text>
</a>
</g>
</g>
<!-- Node10&#45;&gt;Node12 -->
<g id="edge13" class="edge">
<title>Node10&#45;&gt;Node12</title>
<path fill="none" stroke="midnightblue" d="M579.21,-112.32C590.78,-104.11 608.38,-91.6 622.16,-81.81"/>
<polygon fill="midnightblue" stroke="midnightblue" points="624.44,-84.48 630.57,-75.83 620.39,-78.77 624.44,-84.48"/>
</g>
<!-- Node13 -->
<g id="node13" class="node">
<title>Node13</title>
<g id="a_node13"><a xlink:href="WalError_8hpp.html" target="_top" xlink:title=" ">
<polygon fill="white" stroke="black" points="938.5,-56.5 938.5,-75.5 1067.5,-75.5 1067.5,-56.5 938.5,-56.5"/>
<text text-anchor="middle" x="1003" y="-63.5" font-family="Helvetica,sans-Serif" font-size="10.00">Exception/WalError.hpp</text>
</a>
</g>
</g>
<!-- Node10&#45;&gt;Node13 -->
<g id="edge15" class="edge">
<title>Node10&#45;&gt;Node13</title>
<path fill="none" stroke="midnightblue" d="M615.33,-115.01C691.11,-105.63 838.5,-87.37 928.11,-76.28"/>
<polygon fill="midnightblue" stroke="midnightblue" points="928.71,-79.73 938.2,-75.03 927.85,-72.78 928.71,-79.73"/>
</g>
<!-- Node16 -->
<g id="node16" class="node">
<title>Node16</title>
<g id="a_node16"><a xlink:href="TypeHolder_8hpp.html" target="_top" xlink:title=" ">
<polygon fill="white" stroke="black" points="466,-56.5 466,-75.5 596,-75.5 596,-56.5 466,-56.5"/>
<text text-anchor="middle" x="531" y="-63.5" font-family="Helvetica,sans-Serif" font-size="10.00">Models/TypeHolder.hpp</text>
</a>
</g>
</g>
<!-- Node10&#45;&gt;Node16 -->
<g id="edge19" class="edge">
<title>Node10&#45;&gt;Node16</title>
<path fill="none" stroke="midnightblue" d="M561.06,-112.08C556.02,-104.53 548.66,-93.49 542.49,-84.23"/>
<polygon fill="midnightblue" stroke="midnightblue" points="545.29,-82.13 536.83,-75.75 539.47,-86.01 545.29,-82.13"/>
</g>
<!-- Node13&#45;&gt;Node8 -->
<g id="edge18" class="edge">
<title>Node13&#45;&gt;Node8</title>
<path fill="none" stroke="midnightblue" d="M984.46,-56.44C965.38,-47.64 935.43,-33.81 913.56,-23.72"/>
<polygon fill="midnightblue" stroke="midnightblue" points="915,-20.53 904.45,-19.52 912.07,-26.88 915,-20.53"/>
</g>
<!-- Node14 -->
<g id="node14" class="node">
<title>Node14</title>
<g id="a_node14"><a xlink:title=" ">
<polygon fill="white" stroke="#bfbfbf" points="955.5,-0.5 955.5,-19.5 1020.5,-19.5 1020.5,-0.5 955.5,-0.5"/>
<text text-anchor="middle" x="988" y="-7.5" font-family="Helvetica,sans-Serif" font-size="10.00">exception</text>
</a>
</g>
</g>
<!-- Node13&#45;&gt;Node14 -->
<g id="edge16" class="edge">
<title>Node13&#45;&gt;Node14</title>
<path fill="none" stroke="midnightblue" d="M1000.52,-56.08C998.51,-48.85 995.61,-38.41 993.11,-29.4"/>
<polygon fill="midnightblue" stroke="midnightblue" points="996.48,-28.45 990.43,-19.75 989.74,-30.32 996.48,-28.45"/>
</g>
<!-- Node15 -->
<g id="node15" class="node">
<title>Node15</title>
<g id="a_node15"><a xlink:title=" ">
<polygon fill="white" stroke="#bfbfbf" points="1038.5,-0.5 1038.5,-19.5 1103.5,-19.5 1103.5,-0.5 1038.5,-0.5"/>
<text text-anchor="middle" x="1071" y="-7.5" font-family="Helvetica,sans-Serif" font-size="10.00">stdexcept</text>
</a>
</g>
</g>
<!-- Node13&#45;&gt;Node15 -->
<g id="edge17" class="edge">
<title>Node13&#45;&gt;Node15</title>
<path fill="none" stroke="midnightblue" d="M1013.93,-56.32C1024.17,-48.18 1039.72,-35.84 1052,-26.09"/>
<polygon fill="midnightblue" stroke="midnightblue" points="1054.22,-28.79 1059.88,-19.83 1049.87,-23.31 1054.22,-28.79"/>
</g>
<!-- Node17&#45;&gt;Node2 -->
<g id="edge38" class="edge">
<title>Node17&#45;&gt;Node2</title>
<path fill="none" stroke="midnightblue" d="M372.91,-287.25C332.28,-283.76 255.69,-273.51 198,-244 174.29,-231.87 152.22,-210.19 138.68,-195.22"/>
<polygon fill="midnightblue" stroke="midnightblue" points="141.31,-192.91 132.09,-187.7 136.05,-197.52 141.31,-192.91"/>
</g>
<!-- Node17&#45;&gt;Node4 -->
<g id="edge21" class="edge">
<title>Node17&#45;&gt;Node4</title>
<path fill="none" stroke="midnightblue" d="M372.83,-283.19C345.16,-276.62 302.5,-264.14 270,-244 229.13,-218.67 229.17,-199.68 193,-168 180.78,-157.29 166.34,-146.09 154.93,-137.54"/>
<polygon fill="midnightblue" stroke="midnightblue" points="157,-134.71 146.88,-131.57 152.83,-140.34 157,-134.71"/>
</g>
<!-- Node17&#45;&gt;Node7 -->
<g id="edge22" class="edge">
<title>Node17&#45;&gt;Node7</title>
<path fill="none" stroke="midnightblue" d="M372.8,-287.37C281.53,-281.33 0,-256.42 0,-179 0,-179 0,-179 0,-121 0,-41.3 119.19,-19.28 179.25,-13.25"/>
<polygon fill="midnightblue" stroke="midnightblue" points="179.75,-16.72 189.39,-12.33 179.12,-9.75 179.75,-16.72"/>
</g>
<!-- Node17&#45;&gt;Node8 -->
<g id="edge23" class="edge">
<title>Node17&#45;&gt;Node8</title>
<path fill="none" stroke="midnightblue" d="M429.26,-282.12C459.63,-274.35 509.06,-260.6 550,-244 700.69,-182.9 779.12,-207.32 875,-76 884.6,-62.86 886.93,-44.26 887.1,-30.33"/>
<polygon fill="midnightblue" stroke="midnightblue" points="890.59,-29.85 886.85,-19.94 883.59,-30.02 890.59,-29.85"/>
</g>
<!-- Node17&#45;&gt;Node11 -->
<g id="edge25" class="edge">
<title>Node17&#45;&gt;Node11</title>
<path fill="none" stroke="midnightblue" d="M372.81,-285.51C296.74,-275.39 90.73,-243.25 57,-188 6.72,-105.64 187.18,-78.17 269.33,-70.05"/>
<polygon fill="midnightblue" stroke="midnightblue" points="269.68,-73.53 279.31,-69.11 269.02,-66.56 269.68,-73.53"/>
</g>
<!-- Node17&#45;&gt;Node12 -->
<g id="edge24" class="edge">
<title>Node17&#45;&gt;Node12</title>
<path fill="none" stroke="midnightblue" d="M429.2,-282.59C454.93,-275.84 493.21,-263.45 522,-244 577.79,-206.31 591.04,-190.71 624,-132 632.09,-117.58 637.03,-99.39 639.83,-85.92"/>
<polygon fill="midnightblue" stroke="midnightblue" points="643.31,-86.38 641.71,-75.91 636.43,-85.09 643.31,-86.38"/>
</g>
<!-- Node17&#45;&gt;Node13 -->
<g id="edge26" class="edge">
<title>Node17&#45;&gt;Node13</title>
<path fill="none" stroke="midnightblue" d="M429.39,-288.11C482.84,-285.69 601.43,-276.76 695,-244 812.85,-202.75 936.93,-116.04 983.68,-81.58"/>
<polygon fill="midnightblue" stroke="midnightblue" points="985.79,-84.37 991.73,-75.59 981.62,-78.75 985.79,-84.37"/>
</g>
<!-- Node18 -->
<g id="node18" class="node">
<title>Node18</title>
<g id="a_node18"><a xlink:href="ISystem_8hpp.html" target="_top" xlink:title=" ">
<polygon fill="white" stroke="black" points="279.5,-224.5 279.5,-243.5 396.5,-243.5 396.5,-224.5 279.5,-224.5"/>
<text text-anchor="middle" x="338" y="-231.5" font-family="Helvetica,sans-Serif" font-size="10.00">System/ISystem.hpp</text>
</a>
</g>
</g>
<!-- Node17&#45;&gt;Node18 -->
<g id="edge27" class="edge">
<title>Node17&#45;&gt;Node18</title>
<path fill="none" stroke="midnightblue" d="M390.88,-280.32C381.47,-272.26 367.26,-260.08 355.93,-250.37"/>
<polygon fill="midnightblue" stroke="midnightblue" points="358.18,-247.68 348.31,-243.83 353.62,-253 358.18,-247.68"/>
</g>
<!-- Node24 -->
<g id="node24" class="node">
<title>Node24</title>
<g id="a_node24"><a xlink:href="Scene_8hpp.html" target="_top" xlink:title=" ">
<polygon fill="white" stroke="black" points="414.5,-224.5 414.5,-243.5 513.5,-243.5 513.5,-224.5 414.5,-224.5"/>
<text text-anchor="middle" x="464" y="-231.5" font-family="Helvetica,sans-Serif" font-size="10.00">Scene/Scene.hpp</text>
</a>
</g>
</g>
<!-- Node17&#45;&gt;Node24 -->
<g id="edge39" class="edge">
<title>Node17&#45;&gt;Node24</title>
<path fill="none" stroke="midnightblue" d="M411.12,-280.32C420.53,-272.26 434.74,-260.08 446.07,-250.37"/>
<polygon fill="midnightblue" stroke="midnightblue" points="448.38,-253 453.69,-243.83 443.82,-247.68 448.38,-253"/>
</g>
<!-- Node18&#45;&gt;Node10 -->
<g id="edge28" class="edge">
<title>Node18&#45;&gt;Node10</title>
<path fill="none" stroke="midnightblue" d="M377.34,-224.48C406.89,-217.18 447.8,-205.12 481,-188 507.06,-174.56 533.44,-153.22 549.98,-138.69"/>
<polygon fill="midnightblue" stroke="midnightblue" points="552.57,-141.07 557.68,-131.79 547.9,-135.86 552.57,-141.07"/>
</g>
<!-- Node19 -->
<g id="node19" class="node">
<title>Node19</title>
<g id="a_node19"><a xlink:href="View_8hpp.html" target="_top" xlink:title=" ">
<polygon fill="white" stroke="black" points="384,-168.5 384,-187.5 472,-187.5 472,-168.5 384,-168.5"/>
<text text-anchor="middle" x="428" y="-175.5" font-family="Helvetica,sans-Serif" font-size="10.00">View/View.hpp</text>
</a>
</g>
</g>
<!-- Node18&#45;&gt;Node19 -->
<g id="edge29" class="edge">
<title>Node18&#45;&gt;Node19</title>
<path fill="none" stroke="midnightblue" d="M352.46,-224.32C366.5,-215.9 388.05,-202.97 404.54,-193.07"/>
<polygon fill="midnightblue" stroke="midnightblue" points="406.8,-195.8 413.58,-187.65 403.2,-189.8 406.8,-195.8"/>
</g>
<!-- Node23 -->
<g id="node23" class="node">
<title>Node23</title>
<g id="a_node23"><a xlink:title=" ">
<polygon fill="white" stroke="#bfbfbf" points="240,-168.5 240,-187.5 290,-187.5 290,-168.5 240,-168.5"/>
<text text-anchor="middle" x="265" y="-175.5" font-family="Helvetica,sans-Serif" font-size="10.00">chrono</text>
</a>
</g>
</g>
<!-- Node18&#45;&gt;Node23 -->
<g id="edge37" class="edge">
<title>Node18&#45;&gt;Node23</title>
<path fill="none" stroke="midnightblue" d="M326.27,-224.32C315.16,-216.11 298.26,-203.6 285.02,-193.81"/>
<polygon fill="midnightblue" stroke="midnightblue" points="287.06,-190.97 276.94,-187.83 282.9,-196.59 287.06,-190.97"/>
</g>
<!-- Node19&#45;&gt;Node3 -->
<g id="edge33" class="edge">
<title>Node19&#45;&gt;Node3</title>
<path fill="none" stroke="midnightblue" d="M393.14,-168.44C354.41,-158.94 291.88,-143.59 250.36,-133.4"/>
<polygon fill="midnightblue" stroke="midnightblue" points="251.09,-129.97 240.54,-130.99 249.42,-136.77 251.09,-129.97"/>
</g>
<!-- Node19&#45;&gt;Node4 -->
<g id="edge34" class="edge">
<title>Node19&#45;&gt;Node4</title>
<path fill="none" stroke="midnightblue" d="M383.66,-170.94C333.36,-163.72 248.72,-150.53 167.5,-132.15"/>
<polygon fill="midnightblue" stroke="midnightblue" points="168.14,-128.71 157.61,-129.88 166.57,-135.53 168.14,-128.71"/>
</g>
<!-- Node19&#45;&gt;Node9 -->
<g id="edge32" class="edge">
<title>Node19&#45;&gt;Node9</title>
<path fill="none" stroke="midnightblue" d="M430.09,-168.2C432.79,-154.43 435.67,-127.74 422,-112 374.79,-57.64 223.69,-111.12 270,-56 296.83,-24.07 418.04,-14.79 483.97,-12.1"/>
<polygon fill="midnightblue" stroke="midnightblue" points="484.19,-15.59 494.05,-11.72 483.93,-8.6 484.19,-15.59"/>
</g>
<!-- Node19&#45;&gt;Node10 -->
<g id="edge36" class="edge">
<title>Node19&#45;&gt;Node10</title>
<path fill="none" stroke="midnightblue" d="M450.02,-168.44C473.1,-159.48 509.56,-145.31 535.64,-135.18"/>
<polygon fill="midnightblue" stroke="midnightblue" points="537.02,-138.4 545.08,-131.52 534.49,-131.88 537.02,-138.4"/>
</g>
<!-- Node20 -->
<g id="node20" class="node">
<title>Node20</title>
<g id="a_node20"><a xlink:title=" ">
<polygon fill="white" stroke="#bfbfbf" points="469,-112.5 469,-131.5 501,-131.5 501,-112.5 469,-112.5"/>
<text text-anchor="middle" x="485" y="-119.5" font-family="Helvetica,sans-Serif" font-size="10.00">list</text>
</a>
</g>
</g>
<!-- Node19&#45;&gt;Node20 -->
<g id="edge30" class="edge">
<title>Node19&#45;&gt;Node20</title>
<path fill="none" stroke="midnightblue" d="M437.16,-168.32C445.5,-160.42 458.03,-148.55 468.18,-138.94"/>
<polygon fill="midnightblue" stroke="midnightblue" points="470.82,-141.25 475.68,-131.83 466.01,-136.17 470.82,-141.25"/>
</g>
<!-- Node21 -->
<g id="node21" class="node">
<title>Node21</title>
<g id="a_node21"><a xlink:title=" ">
<polygon fill="white" stroke="#bfbfbf" points="297.5,-112.5 297.5,-131.5 338.5,-131.5 338.5,-112.5 297.5,-112.5"/>
<text text-anchor="middle" x="318" y="-119.5" font-family="Helvetica,sans-Serif" font-size="10.00">tuple</text>
</a>
</g>
</g>
<!-- Node19&#45;&gt;Node21 -->
<g id="edge31" class="edge">
<title>Node19&#45;&gt;Node21</title>
<path fill="none" stroke="midnightblue" d="M410.33,-168.32C392.61,-159.62 365.1,-146.12 344.71,-136.11"/>
<polygon fill="midnightblue" stroke="midnightblue" points="346.15,-132.92 335.63,-131.65 343.06,-139.2 346.15,-132.92"/>
</g>
<!-- Node22 -->
<g id="node22" class="node">
<title>Node22</title>
<g id="a_node22"><a xlink:title=" ">
<polygon fill="white" stroke="#bfbfbf" points="357,-112.5 357,-131.5 413,-131.5 413,-112.5 357,-112.5"/>
<text text-anchor="middle" x="385" y="-119.5" font-family="Helvetica,sans-Serif" font-size="10.00">optional</text>
</a>
</g>
</g>
<!-- Node19&#45;&gt;Node22 -->
<g id="edge35" class="edge">
<title>Node19&#45;&gt;Node22</title>
<path fill="none" stroke="midnightblue" d="M420.9,-168.08C414.76,-160.38 405.73,-149.03 398.26,-139.65"/>
<polygon fill="midnightblue" stroke="midnightblue" points="400.94,-137.39 391.97,-131.75 395.46,-141.75 400.94,-137.39"/>
</g>
<!-- Node24&#45;&gt;Node3 -->
<g id="edge42" class="edge">
<title>Node24&#45;&gt;Node3</title>
<path fill="none" stroke="midnightblue" d="M438.48,-224.41C413.6,-215.84 374.82,-201.97 342,-188 321.32,-179.2 266.94,-152.38 234.16,-136.07"/>
<polygon fill="midnightblue" stroke="midnightblue" points="235.65,-132.9 225.14,-131.57 232.53,-139.16 235.65,-132.9"/>
</g>
<!-- Node24&#45;&gt;Node7 -->
<g id="edge40" class="edge">
<title>Node24&#45;&gt;Node7</title>
<path fill="none" stroke="midnightblue" d="M445.64,-224.41C427.44,-215.73 398.89,-201.68 375,-188 335.09,-165.15 320.24,-164.79 288,-132 257.09,-100.55 232.83,-54.17 220.97,-28.94"/>
<polygon fill="midnightblue" stroke="midnightblue" points="224.14,-27.44 216.79,-19.81 217.77,-30.36 224.14,-27.44"/>
</g>
<!-- Node24&#45;&gt;Node10 -->
<g id="edge44" class="edge">
<title>Node24&#45;&gt;Node10</title>
<path fill="none" stroke="midnightblue" d="M495.27,-224.43C514.41,-217.61 537.86,-206.13 552,-188 562.34,-174.74 565.78,-155.62 566.81,-141.54"/>
<polygon fill="midnightblue" stroke="midnightblue" points="570.31,-141.68 567.22,-131.55 563.32,-141.4 570.31,-141.68"/>
</g>
<!-- Node24&#45;&gt;Node19 -->
<g id="edge43" class="edge">
<title>Node24&#45;&gt;Node19</title>
<path fill="none" stroke="midnightblue" d="M458.06,-224.08C453.02,-216.53 445.66,-205.49 439.49,-196.23"/>
<polygon fill="midnightblue" stroke="midnightblue" points="442.29,-194.13 433.83,-187.75 436.47,-198.01 442.29,-194.13"/>
</g>
<!-- Node24&#45;&gt;Node20 -->
<g id="edge41" class="edge">
<title>Node24&#45;&gt;Node20</title>
<path fill="none" stroke="midnightblue" d="M468.2,-224.27C472.26,-215.38 478.2,-201.06 481,-188 484.3,-172.61 485.2,-154.74 485.32,-141.63"/>
<polygon fill="midnightblue" stroke="midnightblue" points="488.82,-141.51 485.28,-131.52 481.82,-141.54 488.82,-141.51"/>
</g>
</g>
</svg>
