<?xml version="1.0" encoding="UTF-8" standalone="no"?>
<!DOCTYPE svg PUBLIC "-//W3C//DTD SVG 1.1//EN"
 "http://www.w3.org/Graphics/SVG/1.1/DTD/svg11.dtd">
<!-- Generated by graphviz version 2.43.0 (0)
 -->
<!-- Title: sources/Component/Health/HealthComponent.hpp Pages: 1 -->
<svg width="3350pt" height="307pt"
 viewBox="0.00 0.00 3350.00 307.00" xmlns="http://www.w3.org/2000/svg" xmlns:xlink="http://www.w3.org/1999/xlink">
<g id="graph0" class="graph" transform="scale(1 1) rotate(0) translate(4 303)">
<title>sources/Component/Health/HealthComponent.hpp</title>
<polygon fill="white" stroke="transparent" points="-4,4 -4,-303 3346,-303 3346,4 -4,4"/>
<!-- Node1 -->
<g id="node1" class="node">
<title>Node1</title>
<g id="a_node1"><a xlink:title=" ">
<polygon fill="#bfbfbf" stroke="black" points="2110.5,-268.5 2110.5,-298.5 2259.5,-298.5 2259.5,-268.5 2110.5,-268.5"/>
<text text-anchor="start" x="2118.5" y="-286.5" font-family="Helvetica,sans-Serif" font-size="10.00">sources/Component/Health</text>
<text text-anchor="middle" x="2185" y="-275.5" font-family="Helvetica,sans-Serif" font-size="10.00">/HealthComponent.hpp</text>
</a>
</g>
</g>
<!-- Node2 -->
<g id="node2" class="node">
<title>Node2</title>
<g id="a_node2"><a xlink:href="HealthComponent_8cpp.html" target="_top" xlink:title=" ">
<polygon fill="white" stroke="black" points="586.5,-201.5 586.5,-231.5 735.5,-231.5 735.5,-201.5 586.5,-201.5"/>
<text text-anchor="start" x="594.5" y="-219.5" font-family="Helvetica,sans-Serif" font-size="10.00">sources/Component/Health</text>
<text text-anchor="middle" x="661" y="-208.5" font-family="Helvetica,sans-Serif" font-size="10.00">/HealthComponent.cpp</text>
</a>
</g>
</g>
<!-- Node1&#45;&gt;Node2 -->
<g id="edge1" class="edge">
<title>Node1&#45;&gt;Node2</title>
<path fill="none" stroke="midnightblue" d="M2100.11,-281.06C1832.64,-276.3 1009.48,-259.71 744,-232 741.24,-231.71 738.42,-231.39 735.59,-231.03"/>
<polygon fill="midnightblue" stroke="midnightblue" points="2100.09,-284.56 2110.15,-281.24 2100.21,-277.57 2100.09,-284.56"/>
</g>
<!-- Node3 -->
<g id="node3" class="node">
<title>Node3</title>
<g id="a_node3"><a xlink:href="Map_8hpp.html" target="_top" xlink:title=" ">
<polygon fill="white" stroke="black" points="753.5,-207 753.5,-226 876.5,-226 876.5,-207 753.5,-207"/>
<text text-anchor="middle" x="815" y="-214" font-family="Helvetica,sans-Serif" font-size="10.00">sources/Map/Map.hpp</text>
</a>
</g>
</g>
<!-- Node1&#45;&gt;Node3 -->
<g id="edge2" class="edge">
<title>Node1&#45;&gt;Node3</title>
<path fill="none" stroke="midnightblue" d="M2100.11,-278.47C1846.33,-266.43 1097.45,-230.9 876.83,-220.43"/>
<polygon fill="midnightblue" stroke="midnightblue" points="2100.22,-281.98 2110.37,-278.96 2100.55,-274.99 2100.22,-281.98"/>
</g>
<!-- Node15 -->
<g id="node15" class="node">
<title>Node15</title>
<g id="a_node15"><a xlink:href="PauseMenuScene_8cpp.html" target="_top" xlink:title=" ">
<polygon fill="white" stroke="black" points="1288,-67.5 1288,-97.5 1438,-97.5 1438,-67.5 1288,-67.5"/>
<text text-anchor="start" x="1296" y="-85.5" font-family="Helvetica,sans-Serif" font-size="10.00">sources/Runner/PauseMenu</text>
<text text-anchor="middle" x="1363" y="-74.5" font-family="Helvetica,sans-Serif" font-size="10.00">Scene.cpp</text>
</a>
</g>
</g>
<!-- Node1&#45;&gt;Node15 -->
<g id="edge22" class="edge">
<title>Node1&#45;&gt;Node15</title>
<path fill="none" stroke="midnightblue" d="M2100.24,-281.22C1942.72,-278.02 1610.98,-267.21 1502,-232 1447.89,-214.52 1429.03,-208.99 1393,-165 1376.57,-144.94 1368.67,-115.04 1365.26,-97.59"/>
<polygon fill="midnightblue" stroke="midnightblue" points="2100.29,-284.72 2110.35,-281.42 2100.43,-277.72 2100.29,-284.72"/>
</g>
<!-- Node17 -->
<g id="node17" class="node">
<title>Node17</title>
<g id="a_node17"><a xlink:href="GameScene_8cpp.html" target="_top" xlink:title=" ">
<polygon fill="white" stroke="black" points="995.5,-140 995.5,-159 1168.5,-159 1168.5,-140 995.5,-140"/>
<text text-anchor="middle" x="1082" y="-147" font-family="Helvetica,sans-Serif" font-size="10.00">sources/Runner/GameScene.cpp</text>
</a>
</g>
</g>
<!-- Node1&#45;&gt;Node17 -->
<g id="edge21" class="edge">
<title>Node1&#45;&gt;Node17</title>
<path fill="none" stroke="midnightblue" d="M2100.26,-280.71C1910.94,-276.2 1458.59,-262.5 1309,-232 1228.58,-215.6 1138.24,-176.54 1100.31,-159.13"/>
<polygon fill="midnightblue" stroke="midnightblue" points="2100.35,-284.21 2110.43,-280.95 2100.52,-277.21 2100.35,-284.21"/>
</g>
<!-- Node18 -->
<g id="node18" class="node">
<title>Node18</title>
<g id="a_node18"><a xlink:href="BombHolderSystem_8cpp.html" target="_top" xlink:title=" ">
<polygon fill="white" stroke="black" points="1187,-134.5 1187,-164.5 1345,-164.5 1345,-134.5 1187,-134.5"/>
<text text-anchor="start" x="1195" y="-152.5" font-family="Helvetica,sans-Serif" font-size="10.00">sources/System/BombHolder</text>
<text text-anchor="middle" x="1266" y="-141.5" font-family="Helvetica,sans-Serif" font-size="10.00">/BombHolderSystem.cpp</text>
</a>
</g>
</g>
<!-- Node1&#45;&gt;Node18 -->
<g id="edge24" class="edge">
<title>Node1&#45;&gt;Node18</title>
<path fill="none" stroke="midnightblue" d="M2100.25,-280.42C1903.27,-275.14 1426.21,-259.65 1359,-232 1323.66,-217.46 1292.5,-183.74 1276.8,-164.54"/>
<polygon fill="midnightblue" stroke="midnightblue" points="2100.18,-283.92 2110.26,-280.69 2100.36,-276.92 2100.18,-283.92"/>
</g>
<!-- Node20 -->
<g id="node20" class="node">
<title>Node20</title>
<g id="a_node20"><a xlink:href="AnimatorSystem_8cpp.html" target="_top" xlink:title=" ">
<polygon fill="white" stroke="black" points="2870,-201.5 2870,-231.5 3012,-231.5 3012,-201.5 2870,-201.5"/>
<text text-anchor="start" x="2878" y="-219.5" font-family="Helvetica,sans-Serif" font-size="10.00">sources/System/Animator</text>
<text text-anchor="middle" x="2941" y="-208.5" font-family="Helvetica,sans-Serif" font-size="10.00">/AnimatorSystem.cpp</text>
</a>
</g>
</g>
<!-- Node1&#45;&gt;Node20 -->
<g id="edge23" class="edge">
<title>Node1&#45;&gt;Node20</title>
<path fill="none" stroke="midnightblue" d="M2269.68,-279.03C2397.99,-273.12 2649.16,-259.04 2861,-232 2863.94,-231.62 2866.94,-231.21 2869.96,-230.77"/>
<polygon fill="midnightblue" stroke="midnightblue" points="2269.36,-275.54 2259.53,-279.49 2269.68,-282.53 2269.36,-275.54"/>
</g>
<!-- Node21 -->
<g id="node21" class="node">
<title>Node21</title>
<g id="a_node21"><a xlink:href="PlayerBonusSystem_8cpp.html" target="_top" xlink:title=" ">
<polygon fill="white" stroke="black" points="3030.5,-201.5 3030.5,-231.5 3167.5,-231.5 3167.5,-201.5 3030.5,-201.5"/>
<text text-anchor="start" x="3038.5" y="-219.5" font-family="Helvetica,sans-Serif" font-size="10.00">sources/System/Bonus</text>
<text text-anchor="middle" x="3099" y="-208.5" font-family="Helvetica,sans-Serif" font-size="10.00">/PlayerBonusSystem.cpp</text>
</a>
</g>
</g>
<!-- Node1&#45;&gt;Node21 -->
<g id="edge25" class="edge">
<title>Node1&#45;&gt;Node21</title>
<path fill="none" stroke="midnightblue" d="M2269.81,-280.83C2421.18,-277.09 2747.66,-265.53 3021,-232 3024.01,-231.63 3027.07,-231.22 3030.17,-230.77"/>
<polygon fill="midnightblue" stroke="midnightblue" points="2269.57,-277.34 2259.65,-281.08 2269.74,-284.34 2269.57,-277.34"/>
</g>
<!-- Node22 -->
<g id="node22" class="node">
<title>Node22</title>
<g id="a_node22"><a xlink:href="ControllableSystem_8cpp.html" target="_top" xlink:title=" ">
<polygon fill="white" stroke="black" points="3186,-201.5 3186,-231.5 3342,-231.5 3342,-201.5 3186,-201.5"/>
<text text-anchor="start" x="3194" y="-219.5" font-family="Helvetica,sans-Serif" font-size="10.00">sources/System/Controllable</text>
<text text-anchor="middle" x="3264" y="-208.5" font-family="Helvetica,sans-Serif" font-size="10.00">/ControllableSystem.cpp</text>
</a>
</g>
</g>
<!-- Node1&#45;&gt;Node22 -->
<g id="edge26" class="edge">
<title>Node1&#45;&gt;Node22</title>
<path fill="none" stroke="midnightblue" d="M2269.82,-281.45C2441.54,-278.59 2842.45,-268.27 3177,-232 3179.89,-231.69 3182.83,-231.34 3185.8,-230.97"/>
<polygon fill="midnightblue" stroke="midnightblue" points="2269.53,-277.95 2259.58,-281.61 2269.64,-284.95 2269.53,-277.95"/>
</g>
<!-- Node23 -->
<g id="node23" class="node">
<title>Node23</title>
<g id="a_node23"><a xlink:href="EndConditionSystem_8hpp.html" target="_top" xlink:title=" ">
<polygon fill="white" stroke="black" points="1510.5,-201.5 1510.5,-231.5 1671.5,-231.5 1671.5,-201.5 1510.5,-201.5"/>
<text text-anchor="start" x="1518.5" y="-219.5" font-family="Helvetica,sans-Serif" font-size="10.00">sources/System/EndCondition</text>
<text text-anchor="middle" x="1591" y="-208.5" font-family="Helvetica,sans-Serif" font-size="10.00">/EndConditionSystem.hpp</text>
</a>
</g>
</g>
<!-- Node1&#45;&gt;Node23 -->
<g id="edge27" class="edge">
<title>Node1&#45;&gt;Node23</title>
<path fill="none" stroke="midnightblue" d="M2100.28,-273.23C1986.08,-260.73 1784.2,-238.64 1671.97,-226.36"/>
<polygon fill="midnightblue" stroke="midnightblue" points="2100.05,-276.72 2110.37,-274.33 2100.81,-269.77 2100.05,-276.72"/>
</g>
<!-- Node25 -->
<g id="node25" class="node">
<title>Node25</title>
<g id="a_node25"><a xlink:href="HealthSystem_8hpp.html" target="_top" xlink:title=" ">
<polygon fill="white" stroke="black" points="2120.5,-201.5 2120.5,-231.5 2249.5,-231.5 2249.5,-201.5 2120.5,-201.5"/>
<text text-anchor="start" x="2128.5" y="-219.5" font-family="Helvetica,sans-Serif" font-size="10.00">sources/System/Health</text>
<text text-anchor="middle" x="2185" y="-208.5" font-family="Helvetica,sans-Serif" font-size="10.00">/HealthSystem.hpp</text>
</a>
</g>
</g>
<!-- Node1&#45;&gt;Node25 -->
<g id="edge30" class="edge">
<title>Node1&#45;&gt;Node25</title>
<path fill="none" stroke="midnightblue" d="M2185,-258.11C2185,-249.15 2185,-239.32 2185,-231.58"/>
<polygon fill="midnightblue" stroke="midnightblue" points="2181.5,-258.4 2185,-268.4 2188.5,-258.4 2181.5,-258.4"/>
</g>
<!-- Node26 -->
<g id="node26" class="node">
<title>Node26</title>
<g id="a_node26"><a xlink:href="HealthSystem_8cpp.html" target="_top" xlink:title=" ">
<polygon fill="white" stroke="black" points="2213.5,-134.5 2213.5,-164.5 2342.5,-164.5 2342.5,-134.5 2213.5,-134.5"/>
<text text-anchor="start" x="2221.5" y="-152.5" font-family="Helvetica,sans-Serif" font-size="10.00">sources/System/Health</text>
<text text-anchor="middle" x="2278" y="-141.5" font-family="Helvetica,sans-Serif" font-size="10.00">/HealthSystem.cpp</text>
</a>
</g>
</g>
<!-- Node1&#45;&gt;Node26 -->
<g id="edge33" class="edge">
<title>Node1&#45;&gt;Node26</title>
<path fill="none" stroke="midnightblue" d="M2224.49,-263.18C2237.23,-255.16 2250.29,-244.72 2259,-232 2273.04,-211.5 2276.8,-182.02 2277.75,-164.71"/>
<polygon fill="midnightblue" stroke="midnightblue" points="2222.6,-260.23 2215.79,-268.34 2226.17,-266.25 2222.6,-260.23"/>
</g>
<!-- Node27 -->
<g id="node27" class="node">
<title>Node27</title>
<g id="a_node27"><a xlink:href="MusicSystem_8hpp.html" target="_top" xlink:title=" ">
<polygon fill="white" stroke="black" points="1868.5,-201.5 1868.5,-231.5 1993.5,-231.5 1993.5,-201.5 1868.5,-201.5"/>
<text text-anchor="start" x="1876.5" y="-219.5" font-family="Helvetica,sans-Serif" font-size="10.00">sources/System/Music</text>
<text text-anchor="middle" x="1931" y="-208.5" font-family="Helvetica,sans-Serif" font-size="10.00">/MusicSystem.hpp</text>
</a>
</g>
</g>
<!-- Node1&#45;&gt;Node27 -->
<g id="edge34" class="edge">
<title>Node1&#45;&gt;Node27</title>
<path fill="none" stroke="midnightblue" d="M2120.46,-265.98C2078.97,-255.37 2025.64,-241.72 1986.14,-231.61"/>
<polygon fill="midnightblue" stroke="midnightblue" points="2119.64,-269.39 2130.2,-268.48 2121.38,-262.61 2119.64,-269.39"/>
</g>
<!-- Node31 -->
<g id="node31" class="node">
<title>Node31</title>
<g id="a_node31"><a xlink:href="ScoreSystem_8hpp.html" target="_top" xlink:title=" ">
<polygon fill="white" stroke="black" points="2333,-201.5 2333,-231.5 2457,-231.5 2457,-201.5 2333,-201.5"/>
<text text-anchor="start" x="2341" y="-219.5" font-family="Helvetica,sans-Serif" font-size="10.00">sources/System/Score</text>
<text text-anchor="middle" x="2395" y="-208.5" font-family="Helvetica,sans-Serif" font-size="10.00">/ScoreSystem.hpp</text>
</a>
</g>
</g>
<!-- Node1&#45;&gt;Node31 -->
<g id="edge39" class="edge">
<title>Node1&#45;&gt;Node31</title>
<path fill="none" stroke="midnightblue" d="M2240.1,-265.44C2274.14,-254.91 2317.3,-241.55 2349.41,-231.61"/>
<polygon fill="midnightblue" stroke="midnightblue" points="2238.83,-262.18 2230.31,-268.48 2240.9,-268.86 2238.83,-262.18"/>
</g>
<!-- Node33 -->
<g id="node33" class="node">
<title>Node33</title>
<g id="a_node33"><a xlink:href="MenuSoundManagerSystem_8hpp.html" target="_top" xlink:title=" ">
<polygon fill="white" stroke="black" points="2475.5,-201.5 2475.5,-231.5 2652.5,-231.5 2652.5,-201.5 2475.5,-201.5"/>
<text text-anchor="start" x="2483.5" y="-219.5" font-family="Helvetica,sans-Serif" font-size="10.00">sources/System/Sound</text>
<text text-anchor="middle" x="2564" y="-208.5" font-family="Helvetica,sans-Serif" font-size="10.00">/MenuSoundManagerSystem.hpp</text>
</a>
</g>
</g>
<!-- Node1&#45;&gt;Node33 -->
<g id="edge42" class="edge">
<title>Node1&#45;&gt;Node33</title>
<path fill="none" stroke="midnightblue" d="M2269.85,-267.95C2333.23,-257.08 2419.37,-242.3 2482.05,-231.55"/>
<polygon fill="midnightblue" stroke="midnightblue" points="2269.14,-264.52 2259.88,-269.66 2270.33,-271.42 2269.14,-264.52"/>
</g>
<!-- Node35 -->
<g id="node35" class="node">
<title>Node35</title>
<g id="a_node35"><a xlink:href="PlayerSoundManagerSystem_8hpp.html" target="_top" xlink:title=" ">
<polygon fill="white" stroke="black" points="2670.5,-201.5 2670.5,-231.5 2851.5,-231.5 2851.5,-201.5 2670.5,-201.5"/>
<text text-anchor="start" x="2678.5" y="-219.5" font-family="Helvetica,sans-Serif" font-size="10.00">sources/System/Sound</text>
<text text-anchor="middle" x="2761" y="-208.5" font-family="Helvetica,sans-Serif" font-size="10.00">/PlayerSoundManagerSystem.hpp</text>
</a>
</g>
</g>
<!-- Node1&#45;&gt;Node35 -->
<g id="edge45" class="edge">
<title>Node1&#45;&gt;Node35</title>
<path fill="none" stroke="midnightblue" d="M2270.06,-274.53C2365.56,-265.34 2525.09,-249.27 2662,-232 2664.76,-231.65 2667.56,-231.29 2670.38,-230.92"/>
<polygon fill="midnightblue" stroke="midnightblue" points="2269.5,-271.07 2259.88,-275.51 2270.17,-278.04 2269.5,-271.07"/>
</g>
<!-- Node4 -->
<g id="node4" class="node">
<title>Node4</title>
<g id="a_node4"><a xlink:href="LuaMap_8cpp.html" target="_top" xlink:title=" ">
<polygon fill="white" stroke="black" points="515,-140 515,-159 655,-159 655,-140 515,-140"/>
<text text-anchor="middle" x="585" y="-147" font-family="Helvetica,sans-Serif" font-size="10.00">sources/Map/LuaMap.cpp</text>
</a>
</g>
</g>
<!-- Node3&#45;&gt;Node4 -->
<g id="edge3" class="edge">
<title>Node3&#45;&gt;Node4</title>
<path fill="none" stroke="midnightblue" d="M774.63,-204.09C729.13,-191.23 656.19,-170.62 615.3,-159.06"/>
<polygon fill="midnightblue" stroke="midnightblue" points="773.88,-207.52 784.46,-206.87 775.79,-200.78 773.88,-207.52"/>
</g>
<!-- Node5 -->
<g id="node5" class="node">
<title>Node5</title>
<g id="a_node5"><a xlink:href="Map_8cpp.html" target="_top" xlink:title=" ">
<polygon fill="white" stroke="black" points="673,-140 673,-159 795,-159 795,-140 673,-140"/>
<text text-anchor="middle" x="734" y="-147" font-family="Helvetica,sans-Serif" font-size="10.00">sources/Map/Map.cpp</text>
</a>
</g>
</g>
<!-- Node3&#45;&gt;Node5 -->
<g id="edge4" class="edge">
<title>Node3&#45;&gt;Node5</title>
<path fill="none" stroke="midnightblue" d="M795.95,-200.21C779.99,-187.41 757.79,-169.59 744.75,-159.13"/>
<polygon fill="midnightblue" stroke="midnightblue" points="794.09,-203.2 804.08,-206.73 798.47,-197.75 794.09,-203.2"/>
</g>
<!-- Node6 -->
<g id="node6" class="node">
<title>Node6</title>
<g id="a_node6"><a xlink:href="MapInfo_8hpp.html" target="_top" xlink:title=" ">
<polygon fill="white" stroke="black" points="173,-140 173,-159 315,-159 315,-140 173,-140"/>
<text text-anchor="middle" x="244" y="-147" font-family="Helvetica,sans-Serif" font-size="10.00">sources/Map/MapInfo.hpp</text>
</a>
</g>
</g>
<!-- Node3&#45;&gt;Node6 -->
<g id="edge5" class="edge">
<title>Node3&#45;&gt;Node6</title>
<path fill="none" stroke="midnightblue" d="M767.2,-204.96C759.47,-203.48 751.53,-202.09 744,-201 560.78,-174.43 512.63,-188.59 329,-165 316.23,-163.36 302.45,-161.19 289.77,-159.02"/>
<polygon fill="midnightblue" stroke="midnightblue" points="766.7,-208.43 777.19,-206.94 768.06,-201.56 766.7,-208.43"/>
</g>
<!-- Node12 -->
<g id="node12" class="node">
<title>Node12</title>
<g id="a_node12"><a xlink:href="ParserYaml_8cpp.html" target="_top" xlink:title=" ">
<polygon fill="white" stroke="black" points="629,-73 629,-92 793,-92 793,-73 629,-73"/>
<text text-anchor="middle" x="711" y="-80" font-family="Helvetica,sans-Serif" font-size="10.00">sources/Parser/ParserYaml.cpp</text>
</a>
</g>
</g>
<!-- Node3&#45;&gt;Node12 -->
<g id="edge11" class="edge">
<title>Node3&#45;&gt;Node12</title>
<path fill="none" stroke="midnightblue" d="M767.19,-205.01C759.46,-203.52 751.53,-202.12 744,-201 701.83,-194.73 390.7,-196.53 362,-165 352.73,-154.81 352.98,-144.42 362,-134 379.26,-114.07 531.29,-98.1 628.92,-89.78"/>
<polygon fill="midnightblue" stroke="midnightblue" points="766.69,-208.47 777.18,-206.99 768.06,-201.61 766.69,-208.47"/>
</g>
<!-- Node13 -->
<g id="node13" class="node">
<title>Node13</title>
<g id="a_node13"><a xlink:href="ParserYaml_8hpp.html" target="_top" xlink:title=" ">
<polygon fill="white" stroke="black" points="813,-140 813,-159 977,-159 977,-140 813,-140"/>
<text text-anchor="middle" x="895" y="-147" font-family="Helvetica,sans-Serif" font-size="10.00">sources/Parser/ParserYaml.hpp</text>
</a>
</g>
</g>
<!-- Node3&#45;&gt;Node13 -->
<g id="edge12" class="edge">
<title>Node3&#45;&gt;Node13</title>
<path fill="none" stroke="midnightblue" d="M833.81,-200.21C849.58,-187.41 871.51,-169.59 884.38,-159.13"/>
<polygon fill="midnightblue" stroke="midnightblue" points="831.34,-197.71 825.79,-206.73 835.76,-203.14 831.34,-197.71"/>
</g>
<!-- Node3&#45;&gt;Node17 -->
<g id="edge18" class="edge">
<title>Node3&#45;&gt;Node17</title>
<path fill="none" stroke="midnightblue" d="M859.92,-204.56C912.56,-191.75 998.68,-170.78 1046.74,-159.08"/>
<polygon fill="midnightblue" stroke="midnightblue" points="859.07,-201.17 850.18,-206.94 860.72,-207.97 859.07,-201.17"/>
</g>
<!-- Node3&#45;&gt;Node18 -->
<g id="edge19" class="edge">
<title>Node3&#45;&gt;Node18</title>
<path fill="none" stroke="midnightblue" d="M886.57,-206.01C959.64,-196.2 1076.33,-180.22 1177,-165 1180.25,-164.51 1183.57,-164 1186.92,-163.48"/>
<polygon fill="midnightblue" stroke="midnightblue" points="886,-202.55 876.55,-207.35 886.93,-209.49 886,-202.55"/>
</g>
<!-- Node19 -->
<g id="node19" class="node">
<title>Node19</title>
<g id="a_node19"><a xlink:href="LobbySystem_8cpp.html" target="_top" xlink:title=" ">
<polygon fill="white" stroke="black" points="371,-134.5 371,-164.5 497,-164.5 497,-134.5 371,-134.5"/>
<text text-anchor="start" x="379" y="-152.5" font-family="Helvetica,sans-Serif" font-size="10.00">sources/System/Lobby</text>
<text text-anchor="middle" x="434" y="-141.5" font-family="Helvetica,sans-Serif" font-size="10.00">/LobbySystem.cpp</text>
</a>
</g>
</g>
<!-- Node3&#45;&gt;Node19 -->
<g id="edge20" class="edge">
<title>Node3&#45;&gt;Node19</title>
<path fill="none" stroke="midnightblue" d="M764.8,-204.91C757.82,-203.54 750.74,-202.2 744,-201 638.67,-182.29 611.36,-183.57 506,-165 503.11,-164.49 500.16,-163.96 497.18,-163.41"/>
<polygon fill="midnightblue" stroke="midnightblue" points="764.4,-208.4 774.89,-206.93 765.77,-201.54 764.4,-208.4"/>
</g>
<!-- Node7 -->
<g id="node7" class="node">
<title>Node7</title>
<g id="a_node7"><a xlink:href="IAControllableComponent_8cpp.html" target="_top" xlink:title=" ">
<polygon fill="white" stroke="black" points="343.5,-67.5 343.5,-97.5 528.5,-97.5 528.5,-67.5 343.5,-67.5"/>
<text text-anchor="start" x="351.5" y="-85.5" font-family="Helvetica,sans-Serif" font-size="10.00">sources/Component/IAControllable</text>
<text text-anchor="middle" x="436" y="-74.5" font-family="Helvetica,sans-Serif" font-size="10.00">/IAControllableComponent.cpp</text>
</a>
</g>
</g>
<!-- Node6&#45;&gt;Node7 -->
<g id="edge6" class="edge">
<title>Node6&#45;&gt;Node7</title>
<path fill="none" stroke="midnightblue" d="M279.05,-136.63C311.61,-125.61 360.11,-109.19 394.56,-97.53"/>
<polygon fill="midnightblue" stroke="midnightblue" points="277.85,-133.35 269.5,-139.87 280.09,-139.98 277.85,-133.35"/>
</g>
<!-- Node8 -->
<g id="node8" class="node">
<title>Node8</title>
<g id="a_node8"><a xlink:href="MapInfo_8cpp.html" target="_top" xlink:title=" ">
<polygon fill="white" stroke="black" points="184.5,-73 184.5,-92 325.5,-92 325.5,-73 184.5,-73"/>
<text text-anchor="middle" x="255" y="-80" font-family="Helvetica,sans-Serif" font-size="10.00">sources/Map/MapInfo.cpp</text>
</a>
</g>
</g>
<!-- Node6&#45;&gt;Node8 -->
<g id="edge7" class="edge">
<title>Node6&#45;&gt;Node8</title>
<path fill="none" stroke="midnightblue" d="M247.21,-129.54C249.3,-117.17 251.93,-101.62 253.54,-92.13"/>
<polygon fill="midnightblue" stroke="midnightblue" points="243.7,-129.29 245.48,-139.73 250.6,-130.46 243.7,-129.29"/>
</g>
<!-- Node9 -->
<g id="node9" class="node">
<title>Node9</title>
<g id="a_node9"><a xlink:href="IAControllableSystem_8hpp.html" target="_top" xlink:title=" ">
<polygon fill="white" stroke="black" points="0,-67.5 0,-97.5 166,-97.5 166,-67.5 0,-67.5"/>
<text text-anchor="start" x="8" y="-85.5" font-family="Helvetica,sans-Serif" font-size="10.00">sources/System/IAControllable</text>
<text text-anchor="middle" x="83" y="-74.5" font-family="Helvetica,sans-Serif" font-size="10.00">/IAControllableSystem.hpp</text>
</a>
</g>
</g>
<!-- Node6&#45;&gt;Node9 -->
<g id="edge8" class="edge">
<title>Node6&#45;&gt;Node9</title>
<path fill="none" stroke="midnightblue" d="M213.18,-136.06C185.91,-125.05 146.14,-108.99 117.75,-97.53"/>
<polygon fill="midnightblue" stroke="midnightblue" points="212.04,-139.37 222.62,-139.87 214.66,-132.88 212.04,-139.37"/>
</g>
<!-- Node10 -->
<g id="node10" class="node">
<title>Node10</title>
<g id="a_node10"><a xlink:href="Runner_8cpp.html" target="_top" xlink:title=" ">
<polygon fill="white" stroke="black" points="1928.5,-6 1928.5,-25 2077.5,-25 2077.5,-6 1928.5,-6"/>
<text text-anchor="middle" x="2003" y="-13" font-family="Helvetica,sans-Serif" font-size="10.00">sources/Runner/Runner.cpp</text>
</a>
</g>
</g>
<!-- Node9&#45;&gt;Node10 -->
<g id="edge9" class="edge">
<title>Node9&#45;&gt;Node10</title>
<path fill="none" stroke="midnightblue" d="M176.33,-66.98C544.4,-34.55 1633.1,-20.56 1928.42,-17.28"/>
<polygon fill="midnightblue" stroke="midnightblue" points="175.83,-63.51 166.18,-67.9 176.46,-70.49 175.83,-63.51"/>
</g>
<!-- Node11 -->
<g id="node11" class="node">
<title>Node11</title>
<g id="a_node11"><a xlink:href="IAControllableSystem_8cpp.html" target="_top" xlink:title=" ">
<polygon fill="white" stroke="black" points="0,-0.5 0,-30.5 166,-30.5 166,-0.5 0,-0.5"/>
<text text-anchor="start" x="8" y="-18.5" font-family="Helvetica,sans-Serif" font-size="10.00">sources/System/IAControllable</text>
<text text-anchor="middle" x="83" y="-7.5" font-family="Helvetica,sans-Serif" font-size="10.00">/IAControllableSystem.cpp</text>
</a>
</g>
</g>
<!-- Node9&#45;&gt;Node11 -->
<g id="edge10" class="edge">
<title>Node9&#45;&gt;Node11</title>
<path fill="none" stroke="midnightblue" d="M83,-57.11C83,-48.15 83,-38.32 83,-30.58"/>
<polygon fill="midnightblue" stroke="midnightblue" points="79.5,-57.4 83,-67.4 86.5,-57.4 79.5,-57.4"/>
</g>
<!-- Node13&#45;&gt;Node10 -->
<g id="edge16" class="edge">
<title>Node13&#45;&gt;Node10</title>
<path fill="none" stroke="midnightblue" d="M884.19,-130.96C874.38,-112.57 863.74,-84.01 880,-67 916.22,-29.11 1682.81,-19.25 1928.17,-17.06"/>
<polygon fill="midnightblue" stroke="midnightblue" points="881.23,-132.83 889.24,-139.77 887.3,-129.35 881.23,-132.83"/>
</g>
<!-- Node13&#45;&gt;Node12 -->
<g id="edge13" class="edge">
<title>Node13&#45;&gt;Node12</title>
<path fill="none" stroke="midnightblue" d="M860.85,-136.44C824.35,-123.54 767.4,-103.42 735.24,-92.06"/>
<polygon fill="midnightblue" stroke="midnightblue" points="859.97,-139.84 870.57,-139.87 862.3,-133.24 859.97,-139.84"/>
</g>
<!-- Node14 -->
<g id="node14" class="node">
<title>Node14</title>
<g id="a_node14"><a xlink:href="MainMenuScene_8cpp.html" target="_top" xlink:title=" ">
<polygon fill="white" stroke="black" points="889.5,-73 889.5,-92 1084.5,-92 1084.5,-73 889.5,-73"/>
<text text-anchor="middle" x="987" y="-80" font-family="Helvetica,sans-Serif" font-size="10.00">sources/Runner/MainMenuScene.cpp</text>
</a>
</g>
</g>
<!-- Node13&#45;&gt;Node14 -->
<g id="edge14" class="edge">
<title>Node13&#45;&gt;Node14</title>
<path fill="none" stroke="midnightblue" d="M915.64,-133.92C933.82,-121.07 959.71,-102.78 974.79,-92.13"/>
<polygon fill="midnightblue" stroke="midnightblue" points="913.56,-131.1 907.41,-139.73 917.59,-136.82 913.56,-131.1"/>
</g>
<!-- Node13&#45;&gt;Node15 -->
<g id="edge15" class="edge">
<title>Node13&#45;&gt;Node15</title>
<path fill="none" stroke="midnightblue" d="M956.95,-138.4C966.67,-136.89 976.6,-135.37 986,-134 1106.67,-116.4 1137.16,-114.34 1258,-98 1267.67,-96.69 1277.83,-95.31 1287.87,-93.93"/>
<polygon fill="midnightblue" stroke="midnightblue" points="956.27,-134.97 946.94,-139.98 957.36,-141.88 956.27,-134.97"/>
</g>
<!-- Node16 -->
<g id="node16" class="node">
<title>Node16</title>
<g id="a_node16"><a xlink:href="ResumeLobbySystem_8cpp.html" target="_top" xlink:title=" ">
<polygon fill="white" stroke="black" points="1103,-67.5 1103,-97.5 1249,-97.5 1249,-67.5 1103,-67.5"/>
<text text-anchor="start" x="1111" y="-85.5" font-family="Helvetica,sans-Serif" font-size="10.00">sources/System/Lobby</text>
<text text-anchor="middle" x="1176" y="-74.5" font-family="Helvetica,sans-Serif" font-size="10.00">/ResumeLobbySystem.cpp</text>
</a>
</g>
</g>
<!-- Node13&#45;&gt;Node16 -->
<g id="edge17" class="edge">
<title>Node13&#45;&gt;Node16</title>
<path fill="none" stroke="midnightblue" d="M942.05,-137.62C989.6,-126.62 1063.28,-109.58 1115.22,-97.56"/>
<polygon fill="midnightblue" stroke="midnightblue" points="940.98,-134.27 932.02,-139.94 942.56,-141.09 940.98,-134.27"/>
</g>
<!-- Node23&#45;&gt;Node10 -->
<g id="edge28" class="edge">
<title>Node23&#45;&gt;Node10</title>
<path fill="none" stroke="midnightblue" d="M1590.82,-191.37C1591.98,-173.35 1596.47,-149.29 1611,-134 1694.22,-46.46 1839.78,-23.37 1928.18,-17.74"/>
<polygon fill="midnightblue" stroke="midnightblue" points="1587.32,-191.31 1590.47,-201.43 1594.31,-191.55 1587.32,-191.31"/>
</g>
<!-- Node24 -->
<g id="node24" class="node">
<title>Node24</title>
<g id="a_node24"><a xlink:href="EndConditionSystem_8cpp.html" target="_top" xlink:title=" ">
<polygon fill="white" stroke="black" points="1401.5,-134.5 1401.5,-164.5 1562.5,-164.5 1562.5,-134.5 1401.5,-134.5"/>
<text text-anchor="start" x="1409.5" y="-152.5" font-family="Helvetica,sans-Serif" font-size="10.00">sources/System/EndCondition</text>
<text text-anchor="middle" x="1482" y="-141.5" font-family="Helvetica,sans-Serif" font-size="10.00">/EndConditionSystem.cpp</text>
</a>
</g>
</g>
<!-- Node23&#45;&gt;Node24 -->
<g id="edge29" class="edge">
<title>Node23&#45;&gt;Node24</title>
<path fill="none" stroke="midnightblue" d="M1558.33,-196.02C1541.36,-185.9 1521.02,-173.77 1505.61,-164.58"/>
<polygon fill="midnightblue" stroke="midnightblue" points="1556.97,-199.28 1567.35,-201.4 1560.55,-193.27 1556.97,-199.28"/>
</g>
<!-- Node25&#45;&gt;Node10 -->
<g id="edge31" class="edge">
<title>Node25&#45;&gt;Node10</title>
<path fill="none" stroke="midnightblue" d="M2183.79,-190.99C2181.92,-173.8 2177.3,-150.96 2166,-134 2129.35,-78.98 2057.64,-41.03 2022.86,-25.03"/>
<polygon fill="midnightblue" stroke="midnightblue" points="2180.33,-191.68 2184.66,-201.35 2187.31,-191.09 2180.33,-191.68"/>
</g>
<!-- Node25&#45;&gt;Node26 -->
<g id="edge32" class="edge">
<title>Node25&#45;&gt;Node26</title>
<path fill="none" stroke="midnightblue" d="M2213.69,-195.45C2227.99,-185.45 2244.95,-173.6 2257.86,-164.58"/>
<polygon fill="midnightblue" stroke="midnightblue" points="2211.37,-192.8 2205.18,-201.4 2215.38,-198.54 2211.37,-192.8"/>
</g>
<!-- Node27&#45;&gt;Node10 -->
<g id="edge37" class="edge">
<title>Node27&#45;&gt;Node10</title>
<path fill="none" stroke="midnightblue" d="M1875.96,-196.86C1861.77,-189.28 1848.2,-178.92 1840,-165 1833.01,-153.13 1833.72,-146.26 1840,-134 1869.57,-76.24 1942.22,-40.39 1979.73,-25.1"/>
<polygon fill="midnightblue" stroke="midnightblue" points="1874.81,-200.2 1885.33,-201.46 1877.89,-193.91 1874.81,-200.2"/>
</g>
<!-- Node28 -->
<g id="node28" class="node">
<title>Node28</title>
<g id="a_node28"><a xlink:href="LobbyScene_8cpp.html" target="_top" xlink:title=" ">
<polygon fill="white" stroke="black" points="1619.5,-140 1619.5,-159 1792.5,-159 1792.5,-140 1619.5,-140"/>
<text text-anchor="middle" x="1706" y="-147" font-family="Helvetica,sans-Serif" font-size="10.00">sources/Runner/LobbyScene.cpp</text>
</a>
</g>
</g>
<!-- Node27&#45;&gt;Node28 -->
<g id="edge35" class="edge">
<title>Node27&#45;&gt;Node28</title>
<path fill="none" stroke="midnightblue" d="M1872.74,-198.67C1828.77,-185.97 1770.26,-169.06 1735.52,-159.03"/>
<polygon fill="midnightblue" stroke="midnightblue" points="1871.88,-202.06 1882.46,-201.48 1873.82,-195.34 1871.88,-202.06"/>
</g>
<!-- Node29 -->
<g id="node29" class="node">
<title>Node29</title>
<g id="a_node29"><a xlink:href="ResumeLobbyScene_8cpp.html" target="_top" xlink:title=" ">
<polygon fill="white" stroke="black" points="1849,-134.5 1849,-164.5 2013,-164.5 2013,-134.5 1849,-134.5"/>
<text text-anchor="start" x="1857" y="-152.5" font-family="Helvetica,sans-Serif" font-size="10.00">sources/Runner/ResumeLobby</text>
<text text-anchor="middle" x="1931" y="-141.5" font-family="Helvetica,sans-Serif" font-size="10.00">Scene.cpp</text>
</a>
</g>
</g>
<!-- Node27&#45;&gt;Node29 -->
<g id="edge36" class="edge">
<title>Node27&#45;&gt;Node29</title>
<path fill="none" stroke="midnightblue" d="M1931,-191.11C1931,-182.15 1931,-172.32 1931,-164.58"/>
<polygon fill="midnightblue" stroke="midnightblue" points="1927.5,-191.4 1931,-201.4 1934.5,-191.4 1927.5,-191.4"/>
</g>
<!-- Node30 -->
<g id="node30" class="node">
<title>Node30</title>
<g id="a_node30"><a xlink:href="MusicSystem_8cpp.html" target="_top" xlink:title=" ">
<polygon fill="white" stroke="black" points="2031.5,-134.5 2031.5,-164.5 2156.5,-164.5 2156.5,-134.5 2031.5,-134.5"/>
<text text-anchor="start" x="2039.5" y="-152.5" font-family="Helvetica,sans-Serif" font-size="10.00">sources/System/Music</text>
<text text-anchor="middle" x="2094" y="-141.5" font-family="Helvetica,sans-Serif" font-size="10.00">/MusicSystem.cpp</text>
</a>
</g>
</g>
<!-- Node27&#45;&gt;Node30 -->
<g id="edge38" class="edge">
<title>Node27&#45;&gt;Node30</title>
<path fill="none" stroke="midnightblue" d="M1975.68,-197.68C2001.83,-187.26 2034.37,-174.28 2058.7,-164.58"/>
<polygon fill="midnightblue" stroke="midnightblue" points="1974.36,-194.44 1966.37,-201.4 1976.95,-200.94 1974.36,-194.44"/>
</g>
<!-- Node31&#45;&gt;Node10 -->
<g id="edge40" class="edge">
<title>Node31&#45;&gt;Node10</title>
<path fill="none" stroke="midnightblue" d="M2456.25,-197.13C2471.14,-189.62 2485.28,-179.24 2494,-165 2501.2,-153.25 2502.53,-144.82 2494,-134 2442.97,-69.32 2202.09,-36.27 2077.72,-23.28"/>
<polygon fill="midnightblue" stroke="midnightblue" points="2454.52,-194.07 2446.91,-201.44 2457.46,-200.42 2454.52,-194.07"/>
</g>
<!-- Node32 -->
<g id="node32" class="node">
<title>Node32</title>
<g id="a_node32"><a xlink:href="ScoreSystem_8cpp.html" target="_top" xlink:title=" ">
<polygon fill="white" stroke="black" points="2361,-134.5 2361,-164.5 2485,-164.5 2485,-134.5 2361,-134.5"/>
<text text-anchor="start" x="2369" y="-152.5" font-family="Helvetica,sans-Serif" font-size="10.00">sources/System/Score</text>
<text text-anchor="middle" x="2423" y="-141.5" font-family="Helvetica,sans-Serif" font-size="10.00">/ScoreSystem.cpp</text>
</a>
</g>
</g>
<!-- Node31&#45;&gt;Node32 -->
<g id="edge41" class="edge">
<title>Node31&#45;&gt;Node32</title>
<path fill="none" stroke="midnightblue" d="M2405.13,-191.99C2409.08,-182.8 2413.49,-172.58 2416.94,-164.58"/>
<polygon fill="midnightblue" stroke="midnightblue" points="2401.82,-190.83 2401.08,-201.4 2408.25,-193.6 2401.82,-190.83"/>
</g>
<!-- Node33&#45;&gt;Node10 -->
<g id="edge43" class="edge">
<title>Node33&#45;&gt;Node10</title>
<path fill="none" stroke="midnightblue" d="M2661.03,-199.01C2709.13,-186.53 2751.94,-165.96 2726,-134 2645.45,-34.78 2245.68,-18.93 2077.62,-16.7"/>
<polygon fill="midnightblue" stroke="midnightblue" points="2659.9,-195.68 2651.03,-201.48 2661.58,-202.48 2659.9,-195.68"/>
</g>
<!-- Node34 -->
<g id="node34" class="node">
<title>Node34</title>
<g id="a_node34"><a xlink:href="MenuSoundManagerSystem_8cpp.html" target="_top" xlink:title=" ">
<polygon fill="white" stroke="black" points="2541,-134.5 2541,-164.5 2717,-164.5 2717,-134.5 2541,-134.5"/>
<text text-anchor="start" x="2549" y="-152.5" font-family="Helvetica,sans-Serif" font-size="10.00">sources/System/Sound</text>
<text text-anchor="middle" x="2629" y="-141.5" font-family="Helvetica,sans-Serif" font-size="10.00">/MenuSoundManagerSystem.cpp</text>
</a>
</g>
</g>
<!-- Node33&#45;&gt;Node34 -->
<g id="edge44" class="edge">
<title>Node33&#45;&gt;Node34</title>
<path fill="none" stroke="midnightblue" d="M2585.19,-194.31C2594.94,-184.56 2606.24,-173.26 2614.92,-164.58"/>
<polygon fill="midnightblue" stroke="midnightblue" points="2582.7,-191.85 2578.1,-201.4 2587.65,-196.8 2582.7,-191.85"/>
</g>
<!-- Node35&#45;&gt;Node10 -->
<g id="edge46" class="edge">
<title>Node35&#45;&gt;Node10</title>
<path fill="none" stroke="midnightblue" d="M2845.03,-199.41C2896.67,-188.67 2954.37,-174.78 2962,-165 2970.47,-154.14 2970.66,-144.72 2962,-134 2906.52,-65.34 2293.88,-30.15 2077.86,-19.81"/>
<polygon fill="midnightblue" stroke="midnightblue" points="2844.23,-196 2835.14,-201.45 2845.64,-202.86 2844.23,-196"/>
</g>
<!-- Node36 -->
<g id="node36" class="node">
<title>Node36</title>
<g id="a_node36"><a xlink:href="PlayerSoundManagerSystem_8cpp.html" target="_top" xlink:title=" ">
<polygon fill="white" stroke="black" points="2773,-134.5 2773,-164.5 2953,-164.5 2953,-134.5 2773,-134.5"/>
<text text-anchor="start" x="2781" y="-152.5" font-family="Helvetica,sans-Serif" font-size="10.00">sources/System/Sound</text>
<text text-anchor="middle" x="2863" y="-141.5" font-family="Helvetica,sans-Serif" font-size="10.00">/PlayerSoundManagerSystem.cpp</text>
</a>
</g>
</g>
<!-- Node35&#45;&gt;Node36 -->
<g id="edge47" class="edge">
<title>Node35&#45;&gt;Node36</title>
<path fill="none" stroke="midnightblue" d="M2791.58,-196.02C2807.45,-185.9 2826.48,-173.77 2840.91,-164.58"/>
<polygon fill="midnightblue" stroke="midnightblue" points="2789.68,-193.07 2783.13,-201.4 2793.45,-198.97 2789.68,-193.07"/>
</g>
</g>
</svg>
