<?xml version="1.0" encoding="UTF-8" standalone="no"?>
<!DOCTYPE svg PUBLIC "-//W3C//DTD SVG 1.1//EN"
 "http://www.w3.org/Graphics/SVG/1.1/DTD/svg11.dtd">
<!-- Generated by graphviz version 2.43.0 (0)
 -->
<!-- Title: sources/Component/IAControllable/IAControllableComponent.hpp Pages: 1 -->
<svg width="689pt" height="106pt"
 viewBox="0.00 0.00 688.50 106.00" xmlns="http://www.w3.org/2000/svg" xmlns:xlink="http://www.w3.org/1999/xlink">
<g id="graph0" class="graph" transform="scale(1 1) rotate(0) translate(4 102)">
<title>sources/Component/IAControllable/IAControllableComponent.hpp</title>
<polygon fill="white" stroke="transparent" points="-4,4 -4,-102 684.5,-102 684.5,4 -4,4"/>
<!-- Node1 -->
<g id="node1" class="node">
<title>Node1</title>
<g id="a_node1"><a xlink:title=" ">
<polygon fill="#bfbfbf" stroke="black" points="273,-67.5 273,-97.5 458,-97.5 458,-67.5 273,-67.5"/>
<text text-anchor="start" x="281" y="-85.5" font-family="Helvetica,sans-Serif" font-size="10.00">sources/Component/IAControllable</text>
<text text-anchor="middle" x="365.5" y="-74.5" font-family="Helvetica,sans-Serif" font-size="10.00">/IAControllableComponent.hpp</text>
</a>
</g>
</g>
<!-- Node2 -->
<g id="node2" class="node">
<title>Node2</title>
<g id="a_node2"><a xlink:href="IAControllableComponent_8cpp.html" target="_top" xlink:title=" ">
<polygon fill="white" stroke="black" points="0,-0.5 0,-30.5 185,-30.5 185,-0.5 0,-0.5"/>
<text text-anchor="start" x="8" y="-18.5" font-family="Helvetica,sans-Serif" font-size="10.00">sources/Component/IAControllable</text>
<text text-anchor="middle" x="92.5" y="-7.5" font-family="Helvetica,sans-Serif" font-size="10.00">/IAControllableComponent.cpp</text>
</a>
</g>
</g>
<!-- Node1&#45;&gt;Node2 -->
<g id="edge1" class="edge">
<title>Node1&#45;&gt;Node2</title>
<path fill="none" stroke="midnightblue" d="M296.7,-65.12C252.03,-54.48 194.4,-40.76 151.77,-30.61"/>
<polygon fill="midnightblue" stroke="midnightblue" points="296.06,-68.56 306.6,-67.48 297.68,-61.75 296.06,-68.56"/>
</g>
<!-- Node3 -->
<g id="node3" class="node">
<title>Node3</title>
<g id="a_node3"><a xlink:href="Runner_8cpp.html" target="_top" xlink:title=" ">
<polygon fill="white" stroke="black" points="203,-6 203,-25 352,-25 352,-6 203,-6"/>
<text text-anchor="middle" x="277.5" y="-13" font-family="Helvetica,sans-Serif" font-size="10.00">sources/Runner/Runner.cpp</text>
</a>
</g>
</g>
<!-- Node1&#45;&gt;Node3 -->
<g id="edge2" class="edge">
<title>Node1&#45;&gt;Node3</title>
<path fill="none" stroke="midnightblue" d="M338.16,-61.31C321.64,-49.1 301.43,-34.18 289.02,-25.01"/>
<polygon fill="midnightblue" stroke="midnightblue" points="336.28,-64.27 346.41,-67.4 340.44,-58.64 336.28,-64.27"/>
</g>
<!-- Node4 -->
<g id="node4" class="node">
<title>Node4</title>
<g id="a_node4"><a xlink:href="IAControllableSystem_8cpp.html" target="_top" xlink:title=" ">
<polygon fill="white" stroke="black" points="370.5,-0.5 370.5,-30.5 536.5,-30.5 536.5,-0.5 370.5,-0.5"/>
<text text-anchor="start" x="378.5" y="-18.5" font-family="Helvetica,sans-Serif" font-size="10.00">sources/System/IAControllable</text>
<text text-anchor="middle" x="453.5" y="-7.5" font-family="Helvetica,sans-Serif" font-size="10.00">/IAControllableSystem.cpp</text>
</a>
</g>
</g>
<!-- Node1&#45;&gt;Node4 -->
<g id="edge3" class="edge">
<title>Node1&#45;&gt;Node4</title>
<path fill="none" stroke="midnightblue" d="M392.64,-61.45C406.18,-51.45 422.23,-39.6 434.44,-30.58"/>
<polygon fill="midnightblue" stroke="midnightblue" points="390.56,-58.64 384.59,-67.4 394.72,-64.27 390.56,-58.64"/>
</g>
<!-- Node5 -->
<g id="node5" class="node">
<title>Node5</title>
<g id="a_node5"><a xlink:href="LobbySystem_8cpp.html" target="_top" xlink:title=" ">
<polygon fill="white" stroke="black" points="554.5,-0.5 554.5,-30.5 680.5,-30.5 680.5,-0.5 554.5,-0.5"/>
<text text-anchor="start" x="562.5" y="-18.5" font-family="Helvetica,sans-Serif" font-size="10.00">sources/System/Lobby</text>
<text text-anchor="middle" x="617.5" y="-7.5" font-family="Helvetica,sans-Serif" font-size="10.00">/LobbySystem.cpp</text>
</a>
</g>
</g>
<!-- Node1&#45;&gt;Node5 -->
<g id="edge4" class="edge">
<title>Node1&#45;&gt;Node5</title>
<path fill="none" stroke="midnightblue" d="M429.79,-64.92C470.91,-54.31 523.68,-40.7 562.79,-30.61"/>
<polygon fill="midnightblue" stroke="midnightblue" points="428.68,-61.59 419.87,-67.48 430.43,-68.37 428.68,-61.59"/>
</g>
</g>
</svg>
