<?xml version="1.0" encoding="UTF-8" standalone="no"?>
<!DOCTYPE svg PUBLIC "-//W3C//DTD SVG 1.1//EN"
 "http://www.w3.org/Graphics/SVG/1.1/DTD/svg11.dtd">
<!-- Generated by graphviz version 2.43.0 (0)
 -->
<!-- Title: lib/Ray/sources/Audio/IAudio.hpp Pages: 1 -->
<svg width="3586pt" height="374pt"
 viewBox="0.00 0.00 3585.50 374.00" xmlns="http://www.w3.org/2000/svg" xmlns:xlink="http://www.w3.org/1999/xlink">
<g id="graph0" class="graph" transform="scale(1 1) rotate(0) translate(4 370)">
<title>lib/Ray/sources/Audio/IAudio.hpp</title>
<polygon fill="white" stroke="transparent" points="-4,4 -4,-370 3581.5,-370 3581.5,4 -4,4"/>
<!-- Node1 -->
<g id="node1" class="node">
<title>Node1</title>
<g id="a_node1"><a xlink:title=" ">
<polygon fill="#bfbfbf" stroke="black" points="1207,-335.5 1207,-365.5 1329,-365.5 1329,-335.5 1207,-335.5"/>
<text text-anchor="start" x="1215" y="-353.5" font-family="Helvetica,sans-Serif" font-size="10.00">lib/Ray/sources/Audio</text>
<text text-anchor="middle" x="1268" y="-342.5" font-family="Helvetica,sans-Serif" font-size="10.00">/IAudio.hpp</text>
</a>
</g>
</g>
<!-- Node2 -->
<g id="node2" class="node">
<title>Node2</title>
<g id="a_node2"><a xlink:href="Music_8hpp.html" target="_top" xlink:title=" ">
<polygon fill="white" stroke="black" points="1137,-268.5 1137,-298.5 1259,-298.5 1259,-268.5 1137,-268.5"/>
<text text-anchor="start" x="1145" y="-286.5" font-family="Helvetica,sans-Serif" font-size="10.00">lib/Ray/sources/Audio</text>
<text text-anchor="middle" x="1198" y="-275.5" font-family="Helvetica,sans-Serif" font-size="10.00">/Music.hpp</text>
</a>
</g>
</g>
<!-- Node1&#45;&gt;Node2 -->
<g id="edge1" class="edge">
<title>Node1&#45;&gt;Node2</title>
<path fill="none" stroke="midnightblue" d="M1245.18,-328.31C1234.68,-318.56 1222.51,-307.26 1213.16,-298.58"/>
<polygon fill="midnightblue" stroke="midnightblue" points="1243.1,-331.16 1252.81,-335.4 1247.86,-326.03 1243.1,-331.16"/>
</g>
<!-- Node23 -->
<g id="node23" class="node">
<title>Node23</title>
<g id="a_node23"><a xlink:href="Sound_8hpp.html" target="_top" xlink:title=" ">
<polygon fill="white" stroke="black" points="1315,-268.5 1315,-298.5 1437,-298.5 1437,-268.5 1315,-268.5"/>
<text text-anchor="start" x="1323" y="-286.5" font-family="Helvetica,sans-Serif" font-size="10.00">lib/Ray/sources/Audio</text>
<text text-anchor="middle" x="1376" y="-275.5" font-family="Helvetica,sans-Serif" font-size="10.00">/Sound.hpp</text>
</a>
</g>
</g>
<!-- Node1&#45;&gt;Node23 -->
<g id="edge22" class="edge">
<title>Node1&#45;&gt;Node23</title>
<path fill="none" stroke="midnightblue" d="M1300.37,-330.02C1317.18,-319.9 1337.34,-307.77 1352.61,-298.58"/>
<polygon fill="midnightblue" stroke="midnightblue" points="1298.2,-327.24 1291.43,-335.4 1301.81,-333.24 1298.2,-327.24"/>
</g>
<!-- Node3 -->
<g id="node3" class="node">
<title>Node3</title>
<g id="a_node3"><a xlink:href="Music_8cpp.html" target="_top" xlink:title=" ">
<polygon fill="white" stroke="black" points="1069,-201.5 1069,-231.5 1191,-231.5 1191,-201.5 1069,-201.5"/>
<text text-anchor="start" x="1077" y="-219.5" font-family="Helvetica,sans-Serif" font-size="10.00">lib/Ray/sources/Audio</text>
<text text-anchor="middle" x="1130" y="-208.5" font-family="Helvetica,sans-Serif" font-size="10.00">/Music.cpp</text>
</a>
</g>
</g>
<!-- Node2&#45;&gt;Node3 -->
<g id="edge2" class="edge">
<title>Node2&#45;&gt;Node3</title>
<path fill="none" stroke="midnightblue" d="M1175.83,-261.31C1165.63,-251.56 1153.81,-240.26 1144.73,-231.58"/>
<polygon fill="midnightblue" stroke="midnightblue" points="1173.6,-264.02 1183.25,-268.4 1178.43,-258.96 1173.6,-264.02"/>
</g>
<!-- Node4 -->
<g id="node4" class="node">
<title>Node4</title>
<g id="a_node4"><a xlink:href="MusicComponent_8hpp.html" target="_top" xlink:title=" ">
<polygon fill="white" stroke="black" points="1001.5,-134.5 1001.5,-164.5 1146.5,-164.5 1146.5,-134.5 1001.5,-134.5"/>
<text text-anchor="start" x="1009.5" y="-152.5" font-family="Helvetica,sans-Serif" font-size="10.00">sources/Component/Music</text>
<text text-anchor="middle" x="1074" y="-141.5" font-family="Helvetica,sans-Serif" font-size="10.00">/MusicComponent.hpp</text>
</a>
</g>
</g>
<!-- Node2&#45;&gt;Node4 -->
<g id="edge3" class="edge">
<title>Node2&#45;&gt;Node4</title>
<path fill="none" stroke="midnightblue" d="M1126.66,-273.45C1101.35,-266.41 1075.35,-253.97 1060,-232 1045.85,-211.76 1057.04,-181.93 1065.9,-164.53"/>
<polygon fill="midnightblue" stroke="midnightblue" points="1126.13,-276.92 1136.68,-275.97 1127.84,-270.13 1126.13,-276.92"/>
</g>
<!-- Node22 -->
<g id="node22" class="node">
<title>Node22</title>
<g id="a_node22"><a xlink:href="CacheTest_8cpp.html" target="_top" xlink:title=" ">
<polygon fill="white" stroke="black" points="1209.5,-207 1209.5,-226 1322.5,-226 1322.5,-207 1209.5,-207"/>
<text text-anchor="middle" x="1266" y="-214" font-family="Helvetica,sans-Serif" font-size="10.00">tests/CacheTest.cpp</text>
</a>
</g>
</g>
<!-- Node2&#45;&gt;Node22 -->
<g id="edge21" class="edge">
<title>Node2&#45;&gt;Node22</title>
<path fill="none" stroke="midnightblue" d="M1220.14,-261.34C1232.63,-249.4 1247.55,-235.14 1256.9,-226.19"/>
<polygon fill="midnightblue" stroke="midnightblue" points="1217.57,-258.96 1212.75,-268.4 1222.4,-264.02 1217.57,-258.96"/>
</g>
<!-- Node5 -->
<g id="node5" class="node">
<title>Node5</title>
<g id="a_node5"><a xlink:href="MusicComponent_8cpp.html" target="_top" xlink:title=" ">
<polygon fill="white" stroke="black" points="736.5,-67.5 736.5,-97.5 881.5,-97.5 881.5,-67.5 736.5,-67.5"/>
<text text-anchor="start" x="744.5" y="-85.5" font-family="Helvetica,sans-Serif" font-size="10.00">sources/Component/Music</text>
<text text-anchor="middle" x="809" y="-74.5" font-family="Helvetica,sans-Serif" font-size="10.00">/MusicComponent.cpp</text>
</a>
</g>
</g>
<!-- Node4&#45;&gt;Node5 -->
<g id="edge4" class="edge">
<title>Node4&#45;&gt;Node5</title>
<path fill="none" stroke="midnightblue" d="M1006.94,-132.05C963.62,-121.43 907.83,-107.74 866.53,-97.61"/>
<polygon fill="midnightblue" stroke="midnightblue" points="1006.28,-135.49 1016.83,-134.48 1007.95,-128.69 1006.28,-135.49"/>
</g>
<!-- Node6 -->
<g id="node6" class="node">
<title>Node6</title>
<g id="a_node6"><a xlink:href="ParserYaml_8cpp.html" target="_top" xlink:title=" ">
<polygon fill="white" stroke="black" points="1389,-73 1389,-92 1553,-92 1553,-73 1389,-73"/>
<text text-anchor="middle" x="1471" y="-80" font-family="Helvetica,sans-Serif" font-size="10.00">sources/Parser/ParserYaml.cpp</text>
</a>
</g>
</g>
<!-- Node4&#45;&gt;Node6 -->
<g id="edge5" class="edge">
<title>Node4&#45;&gt;Node6</title>
<path fill="none" stroke="midnightblue" d="M1156.73,-134.95C1235.67,-122.03 1352.15,-102.96 1418.9,-92.03"/>
<polygon fill="midnightblue" stroke="midnightblue" points="1156.12,-131.51 1146.82,-136.58 1157.25,-138.42 1156.12,-131.51"/>
</g>
<!-- Node7 -->
<g id="node7" class="node">
<title>Node7</title>
<g id="a_node7"><a xlink:href="CreditScene_8cpp.html" target="_top" xlink:title=" ">
<polygon fill="white" stroke="black" points="1975.5,-73 1975.5,-92 2148.5,-92 2148.5,-73 1975.5,-73"/>
<text text-anchor="middle" x="2062" y="-80" font-family="Helvetica,sans-Serif" font-size="10.00">sources/Runner/CreditScene.cpp</text>
</a>
</g>
</g>
<!-- Node4&#45;&gt;Node7 -->
<g id="edge6" class="edge">
<title>Node4&#45;&gt;Node7</title>
<path fill="none" stroke="midnightblue" d="M1156.53,-143.5C1203.07,-140.7 1262.28,-137.13 1315,-134 1587.43,-117.8 1656.03,-120.69 1928,-98 1947.94,-96.34 1969.5,-94.17 1989.39,-92.01"/>
<polygon fill="midnightblue" stroke="midnightblue" points="1156.27,-140.01 1146.5,-144.11 1156.69,-147 1156.27,-140.01"/>
</g>
<!-- Node8 -->
<g id="node8" class="node">
<title>Node8</title>
<g id="a_node8"><a xlink:href="GameScene_8cpp.html" target="_top" xlink:title=" ">
<polygon fill="white" stroke="black" points="2484.5,-73 2484.5,-92 2657.5,-92 2657.5,-73 2484.5,-73"/>
<text text-anchor="middle" x="2571" y="-80" font-family="Helvetica,sans-Serif" font-size="10.00">sources/Runner/GameScene.cpp</text>
</a>
</g>
</g>
<!-- Node4&#45;&gt;Node8 -->
<g id="edge7" class="edge">
<title>Node4&#45;&gt;Node8</title>
<path fill="none" stroke="midnightblue" d="M1156.76,-142.92C1203.25,-139.94 1262.34,-136.4 1315,-134 1830.27,-110.51 1961.31,-144.6 2475,-98 2490.44,-96.6 2507.19,-94.33 2522.3,-92"/>
<polygon fill="midnightblue" stroke="midnightblue" points="1156.49,-139.43 1146.74,-143.57 1156.94,-146.42 1156.49,-139.43"/>
</g>
<!-- Node9 -->
<g id="node9" class="node">
<title>Node9</title>
<g id="a_node9"><a xlink:href="HowToPlayScene_8cpp.html" target="_top" xlink:title=" ">
<polygon fill="white" stroke="black" points="0,-67.5 0,-97.5 148,-97.5 148,-67.5 0,-67.5"/>
<text text-anchor="start" x="8" y="-85.5" font-family="Helvetica,sans-Serif" font-size="10.00">sources/Runner/HowToPlay</text>
<text text-anchor="middle" x="74" y="-74.5" font-family="Helvetica,sans-Serif" font-size="10.00">Scene.cpp</text>
</a>
</g>
</g>
<!-- Node4&#45;&gt;Node9 -->
<g id="edge8" class="edge">
<title>Node4&#45;&gt;Node9</title>
<path fill="none" stroke="midnightblue" d="M990.92,-147.2C829.65,-143.96 463.13,-133.05 157,-98 154.09,-97.67 151.13,-97.3 148.15,-96.9"/>
<polygon fill="midnightblue" stroke="midnightblue" points="991.17,-150.71 1001.24,-147.4 991.31,-143.71 991.17,-150.71"/>
</g>
<!-- Node10 -->
<g id="node10" class="node">
<title>Node10</title>
<g id="a_node10"><a xlink:href="MainMenuScene_8cpp.html" target="_top" xlink:title=" ">
<polygon fill="white" stroke="black" points="166.5,-73 166.5,-92 361.5,-92 361.5,-73 166.5,-73"/>
<text text-anchor="middle" x="264" y="-80" font-family="Helvetica,sans-Serif" font-size="10.00">sources/Runner/MainMenuScene.cpp</text>
</a>
</g>
</g>
<!-- Node4&#45;&gt;Node10 -->
<g id="edge9" class="edge">
<title>Node4&#45;&gt;Node10</title>
<path fill="none" stroke="midnightblue" d="M991.39,-144.3C859.71,-137.22 594.2,-121.35 370,-98 354.11,-96.35 336.94,-94.17 321.13,-92"/>
<polygon fill="midnightblue" stroke="midnightblue" points="991.23,-147.8 1001.4,-144.84 991.6,-140.81 991.23,-147.8"/>
</g>
<!-- Node11 -->
<g id="node11" class="node">
<title>Node11</title>
<g id="a_node11"><a xlink:href="PauseMenuScene_8cpp.html" target="_top" xlink:title=" ">
<polygon fill="white" stroke="black" points="379,-67.5 379,-97.5 529,-97.5 529,-67.5 379,-67.5"/>
<text text-anchor="start" x="387" y="-85.5" font-family="Helvetica,sans-Serif" font-size="10.00">sources/Runner/PauseMenu</text>
<text text-anchor="middle" x="454" y="-74.5" font-family="Helvetica,sans-Serif" font-size="10.00">Scene.cpp</text>
</a>
</g>
</g>
<!-- Node4&#45;&gt;Node11 -->
<g id="edge10" class="edge">
<title>Node4&#45;&gt;Node11</title>
<path fill="none" stroke="midnightblue" d="M991.15,-142.68C885.64,-134.82 697.83,-119.29 538,-98 535.07,-97.61 532.08,-97.19 529.06,-96.75"/>
<polygon fill="midnightblue" stroke="midnightblue" points="991.18,-146.19 1001.41,-143.44 991.69,-139.21 991.18,-146.19"/>
</g>
<!-- Node12 -->
<g id="node12" class="node">
<title>Node12</title>
<g id="a_node12"><a xlink:href="ScoreScene_8cpp.html" target="_top" xlink:title=" ">
<polygon fill="white" stroke="black" points="547.5,-73 547.5,-92 718.5,-92 718.5,-73 547.5,-73"/>
<text text-anchor="middle" x="633" y="-80" font-family="Helvetica,sans-Serif" font-size="10.00">sources/Runner/ScoreScene.cpp</text>
</a>
</g>
</g>
<!-- Node4&#45;&gt;Node12 -->
<g id="edge11" class="edge">
<title>Node4&#45;&gt;Node12</title>
<path fill="none" stroke="midnightblue" d="M991.07,-136.63C920.75,-126.52 817.23,-111.53 727,-98 714.26,-96.09 700.56,-94 687.66,-92.01"/>
<polygon fill="midnightblue" stroke="midnightblue" points="990.8,-140.13 1001.2,-138.09 991.8,-133.2 990.8,-140.13"/>
</g>
<!-- Node13 -->
<g id="node13" class="node">
<title>Node13</title>
<g id="a_node13"><a xlink:href="SettingsMenuScene_8cpp.html" target="_top" xlink:title=" ">
<polygon fill="white" stroke="black" points="1042.5,-67.5 1042.5,-97.5 1203.5,-97.5 1203.5,-67.5 1042.5,-67.5"/>
<text text-anchor="start" x="1050.5" y="-85.5" font-family="Helvetica,sans-Serif" font-size="10.00">sources/Runner/SettingsMenu</text>
<text text-anchor="middle" x="1123" y="-74.5" font-family="Helvetica,sans-Serif" font-size="10.00">Scene.cpp</text>
</a>
</g>
</g>
<!-- Node4&#45;&gt;Node13 -->
<g id="edge12" class="edge">
<title>Node4&#45;&gt;Node13</title>
<path fill="none" stroke="midnightblue" d="M1090.84,-126.16C1097.99,-116.68 1106.1,-105.92 1112.39,-97.58"/>
<polygon fill="midnightblue" stroke="midnightblue" points="1087.86,-124.3 1084.63,-134.4 1093.45,-128.52 1087.86,-124.3"/>
</g>
<!-- Node14 -->
<g id="node14" class="node">
<title>Node14</title>
<g id="a_node14"><a xlink:href="SplashScreenScene_8cpp.html" target="_top" xlink:title=" ">
<polygon fill="white" stroke="black" points="1571,-67.5 1571,-97.5 1731,-97.5 1731,-67.5 1571,-67.5"/>
<text text-anchor="start" x="1579" y="-85.5" font-family="Helvetica,sans-Serif" font-size="10.00">sources/Runner/SplashScreen</text>
<text text-anchor="middle" x="1651" y="-74.5" font-family="Helvetica,sans-Serif" font-size="10.00">Scene.cpp</text>
</a>
</g>
</g>
<!-- Node4&#45;&gt;Node14 -->
<g id="edge13" class="edge">
<title>Node4&#45;&gt;Node14</title>
<path fill="none" stroke="midnightblue" d="M1156.56,-141.44C1253.74,-132.78 1419.91,-116.91 1562,-98 1564.95,-97.61 1567.95,-97.19 1570.98,-96.76"/>
<polygon fill="midnightblue" stroke="midnightblue" points="1156.15,-137.96 1146.5,-142.33 1156.77,-144.93 1156.15,-137.96"/>
</g>
<!-- Node15 -->
<g id="node15" class="node">
<title>Node15</title>
<g id="a_node15"><a xlink:href="TitleScreenScene_8cpp.html" target="_top" xlink:title=" ">
<polygon fill="white" stroke="black" points="1221.5,-67.5 1221.5,-97.5 1370.5,-97.5 1370.5,-67.5 1221.5,-67.5"/>
<text text-anchor="start" x="1229.5" y="-85.5" font-family="Helvetica,sans-Serif" font-size="10.00">sources/Runner/TitleScreen</text>
<text text-anchor="middle" x="1296" y="-74.5" font-family="Helvetica,sans-Serif" font-size="10.00">Scene.cpp</text>
</a>
</g>
</g>
<!-- Node4&#45;&gt;Node15 -->
<g id="edge14" class="edge">
<title>Node4&#45;&gt;Node15</title>
<path fill="none" stroke="midnightblue" d="M1131.79,-131.58C1167.85,-121.02 1213.72,-107.59 1247.81,-97.61"/>
<polygon fill="midnightblue" stroke="midnightblue" points="1130.51,-128.31 1121.9,-134.48 1132.48,-135.02 1130.51,-128.31"/>
</g>
<!-- Node16 -->
<g id="node16" class="node">
<title>Node16</title>
<g id="a_node16"><a xlink:href="IntroAnimationSystem_8cpp.html" target="_top" xlink:title=" ">
<polygon fill="white" stroke="black" points="1749,-67.5 1749,-97.5 1919,-97.5 1919,-67.5 1749,-67.5"/>
<text text-anchor="start" x="1757" y="-85.5" font-family="Helvetica,sans-Serif" font-size="10.00">sources/System/IntroAnimation</text>
<text text-anchor="middle" x="1834" y="-74.5" font-family="Helvetica,sans-Serif" font-size="10.00">/IntroAnimationSystem.cpp</text>
</a>
</g>
</g>
<!-- Node4&#45;&gt;Node16 -->
<g id="edge15" class="edge">
<title>Node4&#45;&gt;Node16</title>
<path fill="none" stroke="midnightblue" d="M1156.83,-143.02C1309.39,-132.81 1629.29,-110.72 1740,-98 1742.95,-97.66 1745.96,-97.3 1748.99,-96.92"/>
<polygon fill="midnightblue" stroke="midnightblue" points="1156.33,-139.55 1146.58,-143.71 1156.79,-146.53 1156.33,-139.55"/>
</g>
<!-- Node17 -->
<g id="node17" class="node">
<title>Node17</title>
<g id="a_node17"><a xlink:href="MusicSystem_8hpp.html" target="_top" xlink:title=" ">
<polygon fill="white" stroke="black" points="899.5,-67.5 899.5,-97.5 1024.5,-97.5 1024.5,-67.5 899.5,-67.5"/>
<text text-anchor="start" x="907.5" y="-85.5" font-family="Helvetica,sans-Serif" font-size="10.00">sources/System/Music</text>
<text text-anchor="middle" x="962" y="-74.5" font-family="Helvetica,sans-Serif" font-size="10.00">/MusicSystem.hpp</text>
</a>
</g>
</g>
<!-- Node4&#45;&gt;Node17 -->
<g id="edge16" class="edge">
<title>Node4&#45;&gt;Node17</title>
<path fill="none" stroke="midnightblue" d="M1040.91,-129.3C1023.38,-119.12 1002.24,-106.85 986.25,-97.58"/>
<polygon fill="midnightblue" stroke="midnightblue" points="1039.29,-132.4 1049.7,-134.4 1042.81,-126.35 1039.29,-132.4"/>
</g>
<!-- Node18 -->
<g id="node18" class="node">
<title>Node18</title>
<g id="a_node18"><a xlink:href="LobbyScene_8cpp.html" target="_top" xlink:title=" ">
<polygon fill="white" stroke="black" points="1943.5,-6 1943.5,-25 2116.5,-25 2116.5,-6 1943.5,-6"/>
<text text-anchor="middle" x="2030" y="-13" font-family="Helvetica,sans-Serif" font-size="10.00">sources/Runner/LobbyScene.cpp</text>
</a>
</g>
</g>
<!-- Node17&#45;&gt;Node18 -->
<g id="edge17" class="edge">
<title>Node17&#45;&gt;Node18</title>
<path fill="none" stroke="midnightblue" d="M1034.81,-67.01C1157.59,-54.18 1724.32,-29.44 1943.37,-20.14"/>
<polygon fill="midnightblue" stroke="midnightblue" points="1034.17,-63.56 1024.63,-68.17 1034.97,-70.51 1034.17,-63.56"/>
</g>
<!-- Node19 -->
<g id="node19" class="node">
<title>Node19</title>
<g id="a_node19"><a xlink:href="ResumeLobbyScene_8cpp.html" target="_top" xlink:title=" ">
<polygon fill="white" stroke="black" points="1454,-0.5 1454,-30.5 1618,-30.5 1618,-0.5 1454,-0.5"/>
<text text-anchor="start" x="1462" y="-18.5" font-family="Helvetica,sans-Serif" font-size="10.00">sources/Runner/ResumeLobby</text>
<text text-anchor="middle" x="1536" y="-7.5" font-family="Helvetica,sans-Serif" font-size="10.00">Scene.cpp</text>
</a>
</g>
</g>
<!-- Node17&#45;&gt;Node19 -->
<g id="edge18" class="edge">
<title>Node17&#45;&gt;Node19</title>
<path fill="none" stroke="midnightblue" d="M1034.73,-66.83C1187.93,-43.95 1356.07,-29.51 1453.78,-22.18"/>
<polygon fill="midnightblue" stroke="midnightblue" points="1034.02,-63.39 1024.66,-68.34 1035.07,-70.31 1034.02,-63.39"/>
</g>
<!-- Node20 -->
<g id="node20" class="node">
<title>Node20</title>
<g id="a_node20"><a xlink:href="Runner_8cpp.html" target="_top" xlink:title=" ">
<polygon fill="white" stroke="black" points="2984.5,-6 2984.5,-25 3133.5,-25 3133.5,-6 2984.5,-6"/>
<text text-anchor="middle" x="3059" y="-13" font-family="Helvetica,sans-Serif" font-size="10.00">sources/Runner/Runner.cpp</text>
</a>
</g>
</g>
<!-- Node17&#45;&gt;Node20 -->
<g id="edge19" class="edge">
<title>Node17&#45;&gt;Node20</title>
<path fill="none" stroke="midnightblue" d="M1034.74,-67.02C1271.89,-44.01 2646.92,-22.56 2984.3,-17.58"/>
<polygon fill="midnightblue" stroke="midnightblue" points="1034.2,-63.56 1024.62,-68.09 1034.93,-70.52 1034.2,-63.56"/>
</g>
<!-- Node21 -->
<g id="node21" class="node">
<title>Node21</title>
<g id="a_node21"><a xlink:href="MusicSystem_8cpp.html" target="_top" xlink:title=" ">
<polygon fill="white" stroke="black" points="899.5,-0.5 899.5,-30.5 1024.5,-30.5 1024.5,-0.5 899.5,-0.5"/>
<text text-anchor="start" x="907.5" y="-18.5" font-family="Helvetica,sans-Serif" font-size="10.00">sources/System/Music</text>
<text text-anchor="middle" x="962" y="-7.5" font-family="Helvetica,sans-Serif" font-size="10.00">/MusicSystem.cpp</text>
</a>
</g>
</g>
<!-- Node17&#45;&gt;Node21 -->
<g id="edge20" class="edge">
<title>Node17&#45;&gt;Node21</title>
<path fill="none" stroke="midnightblue" d="M962,-57.11C962,-48.15 962,-38.32 962,-30.58"/>
<polygon fill="midnightblue" stroke="midnightblue" points="958.5,-57.4 962,-67.4 965.5,-57.4 958.5,-57.4"/>
</g>
<!-- Node23&#45;&gt;Node22 -->
<g id="edge61" class="edge">
<title>Node23&#45;&gt;Node22</title>
<path fill="none" stroke="midnightblue" d="M1343.52,-263.31C1322.57,-250.93 1296.34,-235.43 1280.4,-226.01"/>
<polygon fill="midnightblue" stroke="midnightblue" points="1341.74,-266.32 1352.13,-268.4 1345.3,-260.3 1341.74,-266.32"/>
</g>
<!-- Node24 -->
<g id="node24" class="node">
<title>Node24</title>
<g id="a_node24"><a xlink:href="Sound_8cpp.html" target="_top" xlink:title=" ">
<polygon fill="white" stroke="black" points="1505,-201.5 1505,-231.5 1627,-231.5 1627,-201.5 1505,-201.5"/>
<text text-anchor="start" x="1513" y="-219.5" font-family="Helvetica,sans-Serif" font-size="10.00">lib/Ray/sources/Audio</text>
<text text-anchor="middle" x="1566" y="-208.5" font-family="Helvetica,sans-Serif" font-size="10.00">/Sound.cpp</text>
</a>
</g>
</g>
<!-- Node23&#45;&gt;Node24 -->
<g id="edge23" class="edge">
<title>Node23&#45;&gt;Node24</title>
<path fill="none" stroke="midnightblue" d="M1426.89,-265.09C1457.56,-254.6 1496.11,-241.41 1524.85,-231.58"/>
<polygon fill="midnightblue" stroke="midnightblue" points="1425.56,-261.85 1417.23,-268.4 1427.82,-268.47 1425.56,-261.85"/>
</g>
<!-- Node25 -->
<g id="node25" class="node">
<title>Node25</title>
<g id="a_node25"><a xlink:href="SoundComponent_8hpp.html" target="_top" xlink:title=" ">
<polygon fill="white" stroke="black" points="1341,-201.5 1341,-231.5 1487,-231.5 1487,-201.5 1341,-201.5"/>
<text text-anchor="start" x="1349" y="-219.5" font-family="Helvetica,sans-Serif" font-size="10.00">sources/Component/Sound</text>
<text text-anchor="middle" x="1414" y="-208.5" font-family="Helvetica,sans-Serif" font-size="10.00">/SoundComponent.hpp</text>
</a>
</g>
</g>
<!-- Node23&#45;&gt;Node25 -->
<g id="edge24" class="edge">
<title>Node23&#45;&gt;Node25</title>
<path fill="none" stroke="midnightblue" d="M1389.4,-259.58C1394.86,-250.24 1400.99,-239.75 1405.77,-231.58"/>
<polygon fill="midnightblue" stroke="midnightblue" points="1386.27,-258 1384.25,-268.4 1392.31,-261.53 1386.27,-258"/>
</g>
<!-- Node25&#45;&gt;Node6 -->
<g id="edge46" class="edge">
<title>Node25&#45;&gt;Node6</title>
<path fill="none" stroke="midnightblue" d="M1450.95,-195.72C1462.05,-187.76 1472.89,-177.48 1479,-165 1490.87,-140.74 1480.72,-107.6 1474.69,-92.12"/>
<polygon fill="midnightblue" stroke="midnightblue" points="1448.87,-192.9 1442.48,-201.35 1452.75,-198.72 1448.87,-192.9"/>
</g>
<!-- Node25&#45;&gt;Node7 -->
<g id="edge47" class="edge">
<title>Node25&#45;&gt;Node7</title>
<path fill="none" stroke="midnightblue" d="M1497.26,-200.96C1698.4,-177.26 1762.48,-233.52 1949,-165 1993.5,-148.65 2036.1,-109.56 2053.62,-92.14"/>
<polygon fill="midnightblue" stroke="midnightblue" points="1496.76,-197.49 1487.26,-202.19 1497.62,-204.44 1496.76,-197.49"/>
</g>
<!-- Node25&#45;&gt;Node8 -->
<g id="edge48" class="edge">
<title>Node25&#45;&gt;Node8</title>
<path fill="none" stroke="midnightblue" d="M1497.44,-200.91C1715.76,-174.26 1773.82,-187.67 1989,-165 2205.84,-142.16 2259.2,-129.17 2475,-98 2488.1,-96.11 2502.19,-94.01 2515.43,-92.02"/>
<polygon fill="midnightblue" stroke="midnightblue" points="1496.76,-197.46 1487.26,-202.16 1497.62,-204.41 1496.76,-197.46"/>
</g>
<!-- Node25&#45;&gt;Node9 -->
<g id="edge49" class="edge">
<title>Node25&#45;&gt;Node9</title>
<path fill="none" stroke="midnightblue" d="M1330.7,-201.09C955.09,-161.39 855.39,-209.34 485,-165 356.98,-149.67 209.2,-116.5 130.4,-97.54"/>
<polygon fill="midnightblue" stroke="midnightblue" points="1330.44,-204.59 1340.75,-202.17 1331.18,-197.63 1330.44,-204.59"/>
</g>
<!-- Node25&#45;&gt;Node10 -->
<g id="edge50" class="edge">
<title>Node25&#45;&gt;Node10</title>
<path fill="none" stroke="midnightblue" d="M1330.6,-201.07C1035.15,-168.25 956.31,-202.08 666,-165 527.9,-147.36 366.28,-109.13 297.61,-92.05"/>
<polygon fill="midnightblue" stroke="midnightblue" points="1330.42,-204.57 1340.75,-202.22 1331.2,-197.62 1330.42,-204.57"/>
</g>
<!-- Node25&#45;&gt;Node11 -->
<g id="edge51" class="edge">
<title>Node25&#45;&gt;Node11</title>
<path fill="none" stroke="midnightblue" d="M1330.55,-201.05C1112.08,-174.78 1053.37,-195.21 840,-165 720.81,-148.13 583.35,-116.01 508.88,-97.53"/>
<polygon fill="midnightblue" stroke="midnightblue" points="1330.39,-204.55 1340.74,-202.29 1331.24,-197.61 1330.39,-204.55"/>
</g>
<!-- Node25&#45;&gt;Node12 -->
<g id="edge52" class="edge">
<title>Node25&#45;&gt;Node12</title>
<path fill="none" stroke="midnightblue" d="M1330.59,-201.02C1179.21,-180.36 1138.26,-189.28 992,-165 870,-144.75 727.32,-108.55 664.93,-92.08"/>
<polygon fill="midnightblue" stroke="midnightblue" points="1330.34,-204.52 1340.72,-202.42 1331.3,-197.58 1330.34,-204.52"/>
</g>
<!-- Node25&#45;&gt;Node13 -->
<g id="edge53" class="edge">
<title>Node25&#45;&gt;Node13</title>
<path fill="none" stroke="midnightblue" d="M1371.12,-197.36C1348.92,-187.88 1321.43,-175.99 1297,-165 1245.89,-142.01 1186.93,-114.09 1152.43,-97.62"/>
<polygon fill="midnightblue" stroke="midnightblue" points="1370.02,-200.7 1380.6,-201.4 1372.77,-194.26 1370.02,-200.7"/>
</g>
<!-- Node25&#45;&gt;Node15 -->
<g id="edge54" class="edge">
<title>Node25&#45;&gt;Node15</title>
<path fill="none" stroke="midnightblue" d="M1358.05,-197.29C1342.08,-189.61 1326.03,-179.1 1315,-165 1299.6,-145.32 1296.32,-115.3 1295.82,-97.71"/>
<polygon fill="midnightblue" stroke="midnightblue" points="1356.84,-200.58 1367.4,-201.48 1359.71,-194.2 1356.84,-200.58"/>
</g>
<!-- Node26 -->
<g id="node26" class="node">
<title>Node26</title>
<g id="a_node26"><a xlink:href="SoundComponent_8cpp.html" target="_top" xlink:title=" ">
<polygon fill="white" stroke="black" points="1324,-134.5 1324,-164.5 1470,-164.5 1470,-134.5 1324,-134.5"/>
<text text-anchor="start" x="1332" y="-152.5" font-family="Helvetica,sans-Serif" font-size="10.00">sources/Component/Sound</text>
<text text-anchor="middle" x="1397" y="-141.5" font-family="Helvetica,sans-Serif" font-size="10.00">/SoundComponent.cpp</text>
</a>
</g>
</g>
<!-- Node25&#45;&gt;Node26 -->
<g id="edge25" class="edge">
<title>Node25&#45;&gt;Node26</title>
<path fill="none" stroke="midnightblue" d="M1407.77,-191.7C1405.39,-182.59 1402.75,-172.49 1400.68,-164.58"/>
<polygon fill="midnightblue" stroke="midnightblue" points="1404.39,-192.61 1410.31,-201.4 1411.17,-190.84 1404.39,-192.61"/>
</g>
<!-- Node27 -->
<g id="node27" class="node">
<title>Node27</title>
<g id="a_node27"><a xlink:href="Runner_8hpp.html" target="_top" xlink:title=" ">
<polygon fill="white" stroke="black" points="1790.5,-140 1790.5,-159 1939.5,-159 1939.5,-140 1790.5,-140"/>
<text text-anchor="middle" x="1865" y="-147" font-family="Helvetica,sans-Serif" font-size="10.00">sources/Runner/Runner.hpp</text>
</a>
</g>
</g>
<!-- Node25&#45;&gt;Node27 -->
<g id="edge26" class="edge">
<title>Node25&#45;&gt;Node27</title>
<path fill="none" stroke="midnightblue" d="M1497.29,-200.83C1607.87,-183.64 1724.91,-168.19 1796.87,-159.01"/>
<polygon fill="midnightblue" stroke="midnightblue" points="1496.63,-197.39 1487.29,-202.39 1497.71,-204.31 1496.63,-197.39"/>
</g>
<!-- Node33 -->
<g id="node33" class="node">
<title>Node33</title>
<g id="a_node33"><a xlink:href="MenuSoundManagerSystem_8hpp.html" target="_top" xlink:title=" ">
<polygon fill="white" stroke="black" points="3201.5,-67.5 3201.5,-97.5 3378.5,-97.5 3378.5,-67.5 3201.5,-67.5"/>
<text text-anchor="start" x="3209.5" y="-85.5" font-family="Helvetica,sans-Serif" font-size="10.00">sources/System/Sound</text>
<text text-anchor="middle" x="3290" y="-74.5" font-family="Helvetica,sans-Serif" font-size="10.00">/MenuSoundManagerSystem.hpp</text>
</a>
</g>
</g>
<!-- Node25&#45;&gt;Node33 -->
<g id="edge55" class="edge">
<title>Node25&#45;&gt;Node33</title>
<path fill="none" stroke="midnightblue" d="M1497.24,-200.95C1775.38,-168.91 1848.2,-181.56 2124,-165 2598.75,-136.5 2719.01,-147.74 3192,-98 3195.08,-97.68 3198.21,-97.33 3201.37,-96.96"/>
<polygon fill="midnightblue" stroke="midnightblue" points="1496.78,-197.48 1487.25,-202.11 1497.59,-204.43 1496.78,-197.48"/>
</g>
<!-- Node35 -->
<g id="node35" class="node">
<title>Node35</title>
<g id="a_node35"><a xlink:href="PlayerSoundManagerSystem_8hpp.html" target="_top" xlink:title=" ">
<polygon fill="white" stroke="black" points="3396.5,-67.5 3396.5,-97.5 3577.5,-97.5 3577.5,-67.5 3396.5,-67.5"/>
<text text-anchor="start" x="3404.5" y="-85.5" font-family="Helvetica,sans-Serif" font-size="10.00">sources/System/Sound</text>
<text text-anchor="middle" x="3487" y="-74.5" font-family="Helvetica,sans-Serif" font-size="10.00">/PlayerSoundManagerSystem.hpp</text>
</a>
</g>
</g>
<!-- Node25&#45;&gt;Node35 -->
<g id="edge58" class="edge">
<title>Node25&#45;&gt;Node35</title>
<path fill="none" stroke="midnightblue" d="M1497.28,-200.97C1919.62,-156.45 2029.64,-187.94 2450,-165 2867.33,-142.23 2972.5,-143.2 3388,-98 3390.76,-97.7 3393.57,-97.38 3396.4,-97.04"/>
<polygon fill="midnightblue" stroke="midnightblue" points="1496.82,-197.5 1487.25,-202.03 1497.56,-204.46 1496.82,-197.5"/>
</g>
<!-- Node27&#45;&gt;Node6 -->
<g id="edge28" class="edge">
<title>Node27&#45;&gt;Node6</title>
<path fill="none" stroke="midnightblue" d="M1803.01,-138.27C1725.68,-125.52 1594.9,-103.94 1522.72,-92.03"/>
<polygon fill="midnightblue" stroke="midnightblue" points="1802.65,-141.76 1813.09,-139.94 1803.79,-134.85 1802.65,-141.76"/>
</g>
<!-- Node27&#45;&gt;Node7 -->
<g id="edge29" class="edge">
<title>Node27&#45;&gt;Node7</title>
<path fill="none" stroke="midnightblue" d="M1901.06,-136.6C1940.12,-123.71 2001.47,-103.47 2036.05,-92.06"/>
<polygon fill="midnightblue" stroke="midnightblue" points="1899.56,-133.41 1891.16,-139.87 1901.75,-140.06 1899.56,-133.41"/>
</g>
<!-- Node27&#45;&gt;Node8 -->
<g id="edge30" class="edge">
<title>Node27&#45;&gt;Node8</title>
<path fill="none" stroke="midnightblue" d="M1949.87,-143.29C2067.87,-135.62 2288.09,-119.83 2475,-98 2489.23,-96.34 2504.59,-94.18 2518.77,-92.04"/>
<polygon fill="midnightblue" stroke="midnightblue" points="1949.57,-139.8 1939.81,-143.93 1950.02,-146.78 1949.57,-139.8"/>
</g>
<!-- Node27&#45;&gt;Node9 -->
<g id="edge31" class="edge">
<title>Node27&#45;&gt;Node9</title>
<path fill="none" stroke="midnightblue" d="M1780.01,-145.06C1701.8,-141.95 1582.6,-137.36 1479,-134 891.53,-114.97 741.83,-156.73 157,-98 154.09,-97.71 151.13,-97.37 148.14,-97"/>
<polygon fill="midnightblue" stroke="midnightblue" points="1780.16,-148.56 1790.29,-145.46 1780.44,-141.57 1780.16,-148.56"/>
</g>
<!-- Node27&#45;&gt;Node10 -->
<g id="edge33" class="edge">
<title>Node27&#45;&gt;Node10</title>
<path fill="none" stroke="midnightblue" d="M1780,-145.18C1701.8,-142.16 1582.59,-137.63 1479,-134 986.15,-116.74 861.4,-139.47 370,-98 353.16,-96.58 334.89,-94.34 318.35,-92.03"/>
<polygon fill="midnightblue" stroke="midnightblue" points="1780.16,-148.69 1790.28,-145.58 1780.43,-141.7 1780.16,-148.69"/>
</g>
<!-- Node27&#45;&gt;Node11 -->
<g id="edge34" class="edge">
<title>Node27&#45;&gt;Node11</title>
<path fill="none" stroke="midnightblue" d="M1780.26,-145.31C1488.9,-134.35 545.75,-98.81 538,-98 535.06,-97.69 532.06,-97.34 529.04,-96.96"/>
<polygon fill="midnightblue" stroke="midnightblue" points="1780.22,-148.81 1790.34,-145.69 1780.48,-141.82 1780.22,-148.81"/>
</g>
<!-- Node27&#45;&gt;Node12 -->
<g id="edge37" class="edge">
<title>Node27&#45;&gt;Node12</title>
<path fill="none" stroke="midnightblue" d="M1780.1,-145.27C1533.91,-135.82 830.62,-108.26 727,-98 712.21,-96.54 696.2,-94.31 681.66,-92.04"/>
<polygon fill="midnightblue" stroke="midnightblue" points="1780.29,-148.78 1790.42,-145.66 1780.56,-141.78 1780.29,-148.78"/>
</g>
<!-- Node27&#45;&gt;Node13 -->
<g id="edge38" class="edge">
<title>Node27&#45;&gt;Node13</title>
<path fill="none" stroke="midnightblue" d="M1780.12,-144.23C1655.34,-137.43 1415.15,-122.36 1212,-98 1209.36,-97.68 1206.67,-97.34 1203.97,-96.99"/>
<polygon fill="midnightblue" stroke="midnightblue" points="1780.2,-147.74 1790.37,-144.78 1780.58,-140.75 1780.2,-147.74"/>
</g>
<!-- Node27&#45;&gt;Node14 -->
<g id="edge39" class="edge">
<title>Node27&#45;&gt;Node14</title>
<path fill="none" stroke="midnightblue" d="M1826.86,-136.92C1790.58,-125.9 1735.92,-109.29 1697.18,-97.53"/>
<polygon fill="midnightblue" stroke="midnightblue" points="1826,-140.31 1836.58,-139.87 1828.03,-133.61 1826,-140.31"/>
</g>
<!-- Node27&#45;&gt;Node15 -->
<g id="edge40" class="edge">
<title>Node27&#45;&gt;Node15</title>
<path fill="none" stroke="midnightblue" d="M1780.41,-141.43C1683.47,-132.92 1519.92,-117.34 1380,-98 1376.92,-97.57 1373.78,-97.12 1370.61,-96.65"/>
<polygon fill="midnightblue" stroke="midnightblue" points="1780.18,-144.92 1790.45,-142.3 1780.79,-137.95 1780.18,-144.92"/>
</g>
<!-- Node27&#45;&gt;Node16 -->
<g id="edge42" class="edge">
<title>Node27&#45;&gt;Node16</title>
<path fill="none" stroke="midnightblue" d="M1856.36,-130.39C1851.42,-120.02 1845.3,-107.2 1840.72,-97.59"/>
<polygon fill="midnightblue" stroke="midnightblue" points="1853.36,-132.21 1860.82,-139.73 1859.67,-129.2 1853.36,-132.21"/>
</g>
<!-- Node27&#45;&gt;Node18 -->
<g id="edge32" class="edge">
<title>Node27&#45;&gt;Node18</title>
<path fill="none" stroke="midnightblue" d="M1950.2,-145.01C2074.39,-139.03 2293.03,-124.8 2317,-98 2326.19,-87.73 2325.86,-77.55 2317,-67 2291.75,-36.92 2191.57,-24.75 2116.64,-19.83"/>
<polygon fill="midnightblue" stroke="midnightblue" points="1949.78,-141.52 1939.96,-145.49 1950.11,-148.51 1949.78,-141.52"/>
</g>
<!-- Node27&#45;&gt;Node19 -->
<g id="edge35" class="edge">
<title>Node27&#45;&gt;Node19</title>
<path fill="none" stroke="midnightblue" d="M1888.77,-134.54C1914.08,-117.97 1947.97,-89.7 1928,-67 1907.89,-44.13 1727.22,-28.7 1618.3,-21.38"/>
<polygon fill="midnightblue" stroke="midnightblue" points="1886.87,-131.6 1880.27,-139.89 1890.6,-137.52 1886.87,-131.6"/>
</g>
<!-- Node27&#45;&gt;Node20 -->
<g id="edge36" class="edge">
<title>Node27&#45;&gt;Node20</title>
<path fill="none" stroke="midnightblue" d="M1949.88,-148.58C2195.87,-148.27 2897.61,-143.38 2990,-98 3022.62,-81.98 3045.73,-42.72 3054.78,-25.19"/>
<polygon fill="midnightblue" stroke="midnightblue" points="1949.56,-145.08 1939.56,-148.59 1949.57,-152.08 1949.56,-145.08"/>
</g>
<!-- Node28 -->
<g id="node28" class="node">
<title>Node28</title>
<g id="a_node28"><a xlink:href="main_8cpp.html" target="_top" xlink:title=" ">
<polygon fill="white" stroke="black" points="2364,-73 2364,-92 2466,-92 2466,-73 2364,-73"/>
<text text-anchor="middle" x="2415" y="-80" font-family="Helvetica,sans-Serif" font-size="10.00">sources/main.cpp</text>
</a>
</g>
</g>
<!-- Node27&#45;&gt;Node28 -->
<g id="edge27" class="edge">
<title>Node27&#45;&gt;Node28</title>
<path fill="none" stroke="midnightblue" d="M1949.77,-142.66C2046.89,-135.28 2210.59,-120.73 2350,-98 2359.81,-96.4 2370.37,-94.24 2380.06,-92.07"/>
<polygon fill="midnightblue" stroke="midnightblue" points="1949.43,-139.18 1939.72,-143.42 1949.95,-146.16 1949.43,-139.18"/>
</g>
<!-- Node29 -->
<g id="node29" class="node">
<title>Node29</title>
<g id="a_node29"><a xlink:href="EndConditionSystem_8cpp.html" target="_top" xlink:title=" ">
<polygon fill="white" stroke="black" points="2675.5,-67.5 2675.5,-97.5 2836.5,-97.5 2836.5,-67.5 2675.5,-67.5"/>
<text text-anchor="start" x="2683.5" y="-85.5" font-family="Helvetica,sans-Serif" font-size="10.00">sources/System/EndCondition</text>
<text text-anchor="middle" x="2756" y="-74.5" font-family="Helvetica,sans-Serif" font-size="10.00">/EndConditionSystem.cpp</text>
</a>
</g>
</g>
<!-- Node27&#45;&gt;Node29 -->
<g id="edge41" class="edge">
<title>Node27&#45;&gt;Node29</title>
<path fill="none" stroke="midnightblue" d="M1949.84,-145.91C2096.46,-140.82 2406.55,-127.34 2667,-98 2669.64,-97.7 2672.33,-97.38 2675.04,-97.04"/>
<polygon fill="midnightblue" stroke="midnightblue" points="1949.45,-142.42 1939.57,-146.26 1949.69,-149.42 1949.45,-142.42"/>
</g>
<!-- Node30 -->
<g id="node30" class="node">
<title>Node30</title>
<g id="a_node30"><a xlink:href="LobbySystem_8cpp.html" target="_top" xlink:title=" ">
<polygon fill="white" stroke="black" points="2855,-67.5 2855,-97.5 2981,-97.5 2981,-67.5 2855,-67.5"/>
<text text-anchor="start" x="2863" y="-85.5" font-family="Helvetica,sans-Serif" font-size="10.00">sources/System/Lobby</text>
<text text-anchor="middle" x="2918" y="-74.5" font-family="Helvetica,sans-Serif" font-size="10.00">/LobbySystem.cpp</text>
</a>
</g>
</g>
<!-- Node27&#45;&gt;Node30 -->
<g id="edge43" class="edge">
<title>Node27&#45;&gt;Node30</title>
<path fill="none" stroke="midnightblue" d="M1949.95,-148.33C2120.5,-147.05 2516.44,-139.44 2846,-98 2848.91,-97.63 2851.88,-97.22 2854.87,-96.76"/>
<polygon fill="midnightblue" stroke="midnightblue" points="1949.76,-144.83 1939.78,-148.4 1949.81,-151.83 1949.76,-144.83"/>
</g>
<!-- Node31 -->
<g id="node31" class="node">
<title>Node31</title>
<g id="a_node31"><a xlink:href="ResumeLobbySystem_8cpp.html" target="_top" xlink:title=" ">
<polygon fill="white" stroke="black" points="3037,-67.5 3037,-97.5 3183,-97.5 3183,-67.5 3037,-67.5"/>
<text text-anchor="start" x="3045" y="-85.5" font-family="Helvetica,sans-Serif" font-size="10.00">sources/System/Lobby</text>
<text text-anchor="middle" x="3110" y="-74.5" font-family="Helvetica,sans-Serif" font-size="10.00">/ResumeLobbySystem.cpp</text>
</a>
</g>
</g>
<!-- Node27&#45;&gt;Node31 -->
<g id="edge44" class="edge">
<title>Node27&#45;&gt;Node31</title>
<path fill="none" stroke="midnightblue" d="M1949.75,-148.33C2141.46,-147.16 2622.88,-139.91 3023,-98 3027.57,-97.52 3032.26,-96.96 3036.99,-96.33"/>
<polygon fill="midnightblue" stroke="midnightblue" points="1949.72,-144.83 1939.74,-148.38 1949.76,-151.83 1949.72,-144.83"/>
</g>
<!-- Node32 -->
<g id="node32" class="node">
<title>Node32</title>
<g id="a_node32"><a xlink:href="CameraSystem_8cpp.html" target="_top" xlink:title=" ">
<polygon fill="white" stroke="black" points="2166.5,-67.5 2166.5,-97.5 2307.5,-97.5 2307.5,-67.5 2166.5,-67.5"/>
<text text-anchor="start" x="2174.5" y="-85.5" font-family="Helvetica,sans-Serif" font-size="10.00">sources/System/Renderer</text>
<text text-anchor="middle" x="2237" y="-74.5" font-family="Helvetica,sans-Serif" font-size="10.00">/CameraSystem.cpp</text>
</a>
</g>
</g>
<!-- Node27&#45;&gt;Node32 -->
<g id="edge45" class="edge">
<title>Node27&#45;&gt;Node32</title>
<path fill="none" stroke="midnightblue" d="M1925.26,-138.31C1984.52,-128.24 2077.53,-112.32 2158,-98 2160.75,-97.51 2163.54,-97.01 2166.37,-96.5"/>
<polygon fill="midnightblue" stroke="midnightblue" points="1924.59,-134.87 1915.32,-140 1925.76,-141.77 1924.59,-134.87"/>
</g>
<!-- Node33&#45;&gt;Node20 -->
<g id="edge56" class="edge">
<title>Node33&#45;&gt;Node20</title>
<path fill="none" stroke="midnightblue" d="M3230.47,-64.75C3185.3,-52.04 3125.05,-35.09 3089.31,-25.03"/>
<polygon fill="midnightblue" stroke="midnightblue" points="3229.59,-68.14 3240.16,-67.48 3231.48,-61.4 3229.59,-68.14"/>
</g>
<!-- Node34 -->
<g id="node34" class="node">
<title>Node34</title>
<g id="a_node34"><a xlink:href="MenuSoundManagerSystem_8cpp.html" target="_top" xlink:title=" ">
<polygon fill="white" stroke="black" points="3202,-0.5 3202,-30.5 3378,-30.5 3378,-0.5 3202,-0.5"/>
<text text-anchor="start" x="3210" y="-18.5" font-family="Helvetica,sans-Serif" font-size="10.00">sources/System/Sound</text>
<text text-anchor="middle" x="3290" y="-7.5" font-family="Helvetica,sans-Serif" font-size="10.00">/MenuSoundManagerSystem.cpp</text>
</a>
</g>
</g>
<!-- Node33&#45;&gt;Node34 -->
<g id="edge57" class="edge">
<title>Node33&#45;&gt;Node34</title>
<path fill="none" stroke="midnightblue" d="M3290,-57.11C3290,-48.15 3290,-38.32 3290,-30.58"/>
<polygon fill="midnightblue" stroke="midnightblue" points="3286.5,-57.4 3290,-67.4 3293.5,-57.4 3286.5,-57.4"/>
</g>
<!-- Node35&#45;&gt;Node20 -->
<g id="edge59" class="edge">
<title>Node35&#45;&gt;Node20</title>
<path fill="none" stroke="midnightblue" d="M3386.6,-66.25C3301.94,-53.4 3183.88,-35.47 3115.04,-25.01"/>
<polygon fill="midnightblue" stroke="midnightblue" points="3386.08,-69.71 3396.49,-67.75 3387.13,-62.79 3386.08,-69.71"/>
</g>
<!-- Node36 -->
<g id="node36" class="node">
<title>Node36</title>
<g id="a_node36"><a xlink:href="PlayerSoundManagerSystem_8cpp.html" target="_top" xlink:title=" ">
<polygon fill="white" stroke="black" points="3397,-0.5 3397,-30.5 3577,-30.5 3577,-0.5 3397,-0.5"/>
<text text-anchor="start" x="3405" y="-18.5" font-family="Helvetica,sans-Serif" font-size="10.00">sources/System/Sound</text>
<text text-anchor="middle" x="3487" y="-7.5" font-family="Helvetica,sans-Serif" font-size="10.00">/PlayerSoundManagerSystem.cpp</text>
</a>
</g>
</g>
<!-- Node35&#45;&gt;Node36 -->
<g id="edge60" class="edge">
<title>Node35&#45;&gt;Node36</title>
<path fill="none" stroke="midnightblue" d="M3487,-57.11C3487,-48.15 3487,-38.32 3487,-30.58"/>
<polygon fill="midnightblue" stroke="midnightblue" points="3483.5,-57.4 3487,-67.4 3490.5,-57.4 3483.5,-57.4"/>
</g>
</g>
</svg>
