<?xml version="1.0" encoding="UTF-8" standalone="no"?>
<!DOCTYPE svg PUBLIC "-//W3C//DTD SVG 1.1//EN"
 "http://www.w3.org/Graphics/SVG/1.1/DTD/svg11.dtd">
<!-- Generated by graphviz version 2.43.0 (0)
 -->
<!-- Title: lib/Ray/sources/Drawables/IDrawable.hpp Pages: 1 -->
<svg width="916pt" height="319pt"
 viewBox="0.00 0.00 915.77 319.00" xmlns="http://www.w3.org/2000/svg" xmlns:xlink="http://www.w3.org/1999/xlink">
<g id="graph0" class="graph" transform="scale(1 1) rotate(0) translate(4 315)">
<title>lib/Ray/sources/Drawables/IDrawable.hpp</title>
<polygon fill="white" stroke="transparent" points="-4,4 -4,-315 911.77,-315 911.77,4 -4,4"/>
<!-- Node1 -->
<g id="node1" class="node">
<title>Node1</title>
<g id="a_node1"><a xlink:title=" ">
<polygon fill="#bfbfbf" stroke="black" points="399.77,-280.5 399.77,-310.5 545.77,-310.5 545.77,-280.5 399.77,-280.5"/>
<text text-anchor="start" x="407.77" y="-298.5" font-family="Helvetica,sans-Serif" font-size="10.00">lib/Ray/sources/Drawables</text>
<text text-anchor="middle" x="472.77" y="-287.5" font-family="Helvetica,sans-Serif" font-size="10.00">/IDrawable.hpp</text>
</a>
</g>
</g>
<!-- Node2 -->
<g id="node2" class="node">
<title>Node2</title>
<g id="a_node2"><a xlink:href="Window_8hpp.html" target="_top" xlink:title=" ">
<polygon fill="white" stroke="black" points="434.77,-224.5 434.77,-243.5 510.77,-243.5 510.77,-224.5 434.77,-224.5"/>
<text text-anchor="middle" x="472.77" y="-231.5" font-family="Helvetica,sans-Serif" font-size="10.00">Window.hpp</text>
</a>
</g>
</g>
<!-- Node1&#45;&gt;Node2 -->
<g id="edge1" class="edge">
<title>Node1&#45;&gt;Node2</title>
<path fill="none" stroke="midnightblue" d="M472.77,-280.4C472.77,-272.47 472.77,-262.46 472.77,-253.86"/>
<polygon fill="midnightblue" stroke="midnightblue" points="476.27,-253.66 472.77,-243.66 469.27,-253.66 476.27,-253.66"/>
</g>
<!-- Node3 -->
<g id="node3" class="node">
<title>Node3</title>
<g id="a_node3"><a xlink:title=" ">
<polygon fill="white" stroke="#bfbfbf" points="264.27,-0.5 264.27,-19.5 317.27,-19.5 317.27,-0.5 264.27,-0.5"/>
<text text-anchor="middle" x="290.77" y="-7.5" font-family="Helvetica,sans-Serif" font-size="10.00">raylib.h</text>
</a>
</g>
</g>
<!-- Node2&#45;&gt;Node3 -->
<g id="edge2" class="edge">
<title>Node2&#45;&gt;Node3</title>
<path fill="none" stroke="midnightblue" d="M434.63,-233.64C365.9,-233.66 217.56,-228.47 100.77,-188 55.54,-172.33 32.22,-173.73 8.77,-132 -44.47,-37.28 166.13,-16.68 253.95,-12.22"/>
<polygon fill="midnightblue" stroke="midnightblue" points="254.19,-15.72 264.02,-11.76 253.87,-8.72 254.19,-15.72"/>
</g>
<!-- Node4 -->
<g id="node4" class="node">
<title>Node4</title>
<g id="a_node4"><a xlink:title=" ">
<polygon fill="white" stroke="#bfbfbf" points="789.77,-168.5 789.77,-187.5 833.77,-187.5 833.77,-168.5 789.77,-168.5"/>
<text text-anchor="middle" x="811.77" y="-175.5" font-family="Helvetica,sans-Serif" font-size="10.00">string</text>
</a>
</g>
</g>
<!-- Node2&#45;&gt;Node4 -->
<g id="edge3" class="edge">
<title>Node2&#45;&gt;Node4</title>
<path fill="none" stroke="midnightblue" d="M511.24,-228.51C568.98,-221.49 681.36,-206.77 775.77,-188 777.05,-187.75 778.35,-187.48 779.66,-187.19"/>
<polygon fill="midnightblue" stroke="midnightblue" points="780.8,-190.52 789.76,-184.86 779.23,-183.7 780.8,-190.52"/>
</g>
<!-- Node5 -->
<g id="node5" class="node">
<title>Node5</title>
<g id="a_node5"><a xlink:title=" ">
<polygon fill="white" stroke="#bfbfbf" points="851.77,-168.5 851.77,-187.5 907.77,-187.5 907.77,-168.5 851.77,-168.5"/>
<text text-anchor="middle" x="879.77" y="-175.5" font-family="Helvetica,sans-Serif" font-size="10.00">optional</text>
</a>
</g>
</g>
<!-- Node2&#45;&gt;Node5 -->
<g id="edge4" class="edge">
<title>Node2&#45;&gt;Node5</title>
<path fill="none" stroke="midnightblue" d="M510.81,-229.86C576.4,-224.13 715.16,-210.58 841.7,-188.01"/>
<polygon fill="midnightblue" stroke="midnightblue" points="842.34,-191.45 851.56,-186.22 841.1,-184.56 842.34,-191.45"/>
</g>
<!-- Node6 -->
<g id="node6" class="node">
<title>Node6</title>
<g id="a_node6"><a xlink:href="lib_2Ray_2sources_2Vector_2Vector2_8hpp.html" target="_top" xlink:title=" ">
<polygon fill="white" stroke="black" points="17.77,-112.5 17.77,-131.5 125.77,-131.5 125.77,-112.5 17.77,-112.5"/>
<text text-anchor="middle" x="71.77" y="-119.5" font-family="Helvetica,sans-Serif" font-size="10.00">Vector/Vector2.hpp</text>
</a>
</g>
</g>
<!-- Node2&#45;&gt;Node6 -->
<g id="edge5" class="edge">
<title>Node2&#45;&gt;Node6</title>
<path fill="none" stroke="midnightblue" d="M434.71,-231.38C356.6,-227.53 181.1,-215.95 128.77,-188 108.16,-176.99 91.53,-155.33 81.67,-140.05"/>
<polygon fill="midnightblue" stroke="midnightblue" points="84.64,-138.2 76.43,-131.51 78.68,-141.86 84.64,-138.2"/>
</g>
<!-- Node7 -->
<g id="node7" class="node">
<title>Node7</title>
<g id="a_node7"><a xlink:href="lib_2Ray_2sources_2Vector_2Vector3_8hpp.html" target="_top" xlink:title=" ">
<polygon fill="white" stroke="black" points="324.77,-112.5 324.77,-131.5 432.77,-131.5 432.77,-112.5 324.77,-112.5"/>
<text text-anchor="middle" x="378.77" y="-119.5" font-family="Helvetica,sans-Serif" font-size="10.00">Vector/Vector3.hpp</text>
</a>
</g>
</g>
<!-- Node2&#45;&gt;Node7 -->
<g id="edge7" class="edge">
<title>Node2&#45;&gt;Node7</title>
<path fill="none" stroke="midnightblue" d="M449.59,-224.48C432.88,-217.22 411.04,-205.19 397.77,-188 387.45,-174.63 382.73,-155.81 380.57,-141.86"/>
<polygon fill="midnightblue" stroke="midnightblue" points="384.04,-141.4 379.34,-131.91 377.1,-142.26 384.04,-141.4"/>
</g>
<!-- Node8 -->
<g id="node8" class="node">
<title>Node8</title>
<g id="a_node8"><a xlink:href="Keyboard_8hpp.html" target="_top" xlink:title=" ">
<polygon fill="white" stroke="black" points="587.77,-168.5 587.77,-187.5 727.77,-187.5 727.77,-168.5 587.77,-168.5"/>
<text text-anchor="middle" x="657.77" y="-175.5" font-family="Helvetica,sans-Serif" font-size="10.00">Controllers/Keyboard.hpp</text>
</a>
</g>
</g>
<!-- Node2&#45;&gt;Node8 -->
<g id="edge9" class="edge">
<title>Node2&#45;&gt;Node8</title>
<path fill="none" stroke="midnightblue" d="M502.08,-224.44C533.61,-215.24 583.9,-200.56 618.75,-190.39"/>
<polygon fill="midnightblue" stroke="midnightblue" points="619.97,-193.68 628.59,-187.52 618.01,-186.96 619.97,-193.68"/>
</g>
<!-- Node10 -->
<g id="node10" class="node">
<title>Node10</title>
<g id="a_node10"><a xlink:href="Camera2D_8hpp.html" target="_top" xlink:title=" ">
<polygon fill="white" stroke="black" points="138.27,-168.5 138.27,-187.5 269.27,-187.5 269.27,-168.5 138.27,-168.5"/>
<text text-anchor="middle" x="203.77" y="-175.5" font-family="Helvetica,sans-Serif" font-size="10.00">Camera/Camera2D.hpp</text>
</a>
</g>
</g>
<!-- Node2&#45;&gt;Node10 -->
<g id="edge12" class="edge">
<title>Node2&#45;&gt;Node10</title>
<path fill="none" stroke="midnightblue" d="M434.51,-225.32C387.87,-215.96 308.8,-200.08 256.43,-189.57"/>
<polygon fill="midnightblue" stroke="midnightblue" points="256.82,-186.08 246.33,-187.54 255.45,-192.94 256.82,-186.08"/>
</g>
<!-- Node13 -->
<g id="node13" class="node">
<title>Node13</title>
<g id="a_node13"><a xlink:href="Camera3D_8hpp.html" target="_top" xlink:title=" ">
<polygon fill="white" stroke="black" points="407.27,-168.5 407.27,-187.5 538.27,-187.5 538.27,-168.5 407.27,-168.5"/>
<text text-anchor="middle" x="472.77" y="-175.5" font-family="Helvetica,sans-Serif" font-size="10.00">Camera/Camera3D.hpp</text>
</a>
</g>
</g>
<!-- Node2&#45;&gt;Node13 -->
<g id="edge18" class="edge">
<title>Node2&#45;&gt;Node13</title>
<path fill="none" stroke="midnightblue" d="M472.77,-224.08C472.77,-217.01 472.77,-206.86 472.77,-197.99"/>
<polygon fill="midnightblue" stroke="midnightblue" points="476.27,-197.75 472.77,-187.75 469.27,-197.75 476.27,-197.75"/>
</g>
<!-- Node16 -->
<g id="node16" class="node">
<title>Node16</title>
<g id="a_node16"><a xlink:href="Color_8hpp.html" target="_top" xlink:title=" ">
<polygon fill="white" stroke="black" points="707.77,-56.5 707.77,-75.5 769.77,-75.5 769.77,-56.5 707.77,-56.5"/>
<text text-anchor="middle" x="738.77" y="-63.5" font-family="Helvetica,sans-Serif" font-size="10.00">Color.hpp</text>
</a>
</g>
</g>
<!-- Node2&#45;&gt;Node16 -->
<g id="edge26" class="edge">
<title>Node2&#45;&gt;Node16</title>
<path fill="none" stroke="midnightblue" d="M510.91,-232.02C576.59,-229.47 706.89,-220.37 736.77,-188 762.33,-160.31 753.05,-112.02 745.21,-85.59"/>
<polygon fill="midnightblue" stroke="midnightblue" points="748.43,-84.18 742.04,-75.73 741.77,-86.32 748.43,-84.18"/>
</g>
<!-- Node6&#45;&gt;Node3 -->
<g id="edge6" class="edge">
<title>Node6&#45;&gt;Node3</title>
<path fill="none" stroke="midnightblue" d="M72.4,-112.39C73.92,-98.4 78.98,-70.79 95.77,-56 119.02,-35.53 204.49,-21.74 254.22,-15.26"/>
<polygon fill="midnightblue" stroke="midnightblue" points="254.77,-18.72 264.25,-13.99 253.89,-11.77 254.77,-18.72"/>
</g>
<!-- Node7&#45;&gt;Node3 -->
<g id="edge8" class="edge">
<title>Node7&#45;&gt;Node3</title>
<path fill="none" stroke="midnightblue" d="M324.64,-115.52C299.01,-109.89 270.61,-98.6 254.77,-76 243.52,-59.96 258.29,-40.07 272.17,-26.55"/>
<polygon fill="midnightblue" stroke="midnightblue" points="274.58,-29.08 279.61,-19.76 269.86,-23.91 274.58,-29.08"/>
</g>
<!-- Node8&#45;&gt;Node3 -->
<g id="edge10" class="edge">
<title>Node8&#45;&gt;Node3</title>
<path fill="none" stroke="midnightblue" d="M657.95,-168.3C657.91,-145.78 654.43,-85.26 619.77,-56 576.23,-19.23 403.72,-12.42 327.41,-11.22"/>
<polygon fill="midnightblue" stroke="midnightblue" points="327.35,-7.72 317.3,-11.08 327.26,-14.72 327.35,-7.72"/>
</g>
<!-- Node9 -->
<g id="node9" class="node">
<title>Node9</title>
<g id="a_node9"><a xlink:title=" ">
<polygon fill="white" stroke="#bfbfbf" points="686.27,-112.5 686.27,-131.5 733.27,-131.5 733.27,-112.5 686.27,-112.5"/>
<text text-anchor="middle" x="709.77" y="-119.5" font-family="Helvetica,sans-Serif" font-size="10.00">vector</text>
</a>
</g>
</g>
<!-- Node8&#45;&gt;Node9 -->
<g id="edge11" class="edge">
<title>Node8&#45;&gt;Node9</title>
<path fill="none" stroke="midnightblue" d="M666.36,-168.08C673.93,-160.22 685.15,-148.57 694.28,-139.08"/>
<polygon fill="midnightblue" stroke="midnightblue" points="696.93,-141.38 701.34,-131.75 691.88,-136.53 696.93,-141.38"/>
</g>
<!-- Node10&#45;&gt;Node3 -->
<g id="edge13" class="edge">
<title>Node10&#45;&gt;Node3</title>
<path fill="none" stroke="midnightblue" d="M195.53,-168.34C173.02,-144.2 113.14,-76.56 128.77,-56 143.86,-36.14 211.01,-22.74 253.98,-16.03"/>
<polygon fill="midnightblue" stroke="midnightblue" points="254.7,-19.46 264.07,-14.5 253.66,-12.54 254.7,-19.46"/>
</g>
<!-- Node10&#45;&gt;Node6 -->
<g id="edge14" class="edge">
<title>Node10&#45;&gt;Node6</title>
<path fill="none" stroke="midnightblue" d="M182.85,-168.44C161.03,-159.52 126.62,-145.44 101.88,-135.32"/>
<polygon fill="midnightblue" stroke="midnightblue" points="103.17,-132.06 92.59,-131.52 100.52,-138.54 103.17,-132.06"/>
</g>
<!-- Node11 -->
<g id="node11" class="node">
<title>Node11</title>
<g id="a_node11"><a xlink:href="ICamera_8hpp.html" target="_top" xlink:title=" ">
<polygon fill="white" stroke="black" points="181.77,-112.5 181.77,-131.5 301.77,-131.5 301.77,-112.5 181.77,-112.5"/>
<text text-anchor="middle" x="241.77" y="-119.5" font-family="Helvetica,sans-Serif" font-size="10.00">Camera/ICamera.hpp</text>
</a>
</g>
</g>
<!-- Node10&#45;&gt;Node11 -->
<g id="edge15" class="edge">
<title>Node10&#45;&gt;Node11</title>
<path fill="none" stroke="midnightblue" d="M210.04,-168.08C215.41,-160.46 223.29,-149.26 229.85,-139.94"/>
<polygon fill="midnightblue" stroke="midnightblue" points="232.72,-141.94 235.61,-131.75 226.99,-137.91 232.72,-141.94"/>
</g>
<!-- Node12 -->
<g id="node12" class="node">
<title>Node12</title>
<g id="a_node12"><a xlink:href="Matrix_8hpp.html" target="_top" xlink:title=" ">
<polygon fill="white" stroke="black" points="138.27,-56.5 138.27,-75.5 207.27,-75.5 207.27,-56.5 138.27,-56.5"/>
<text text-anchor="middle" x="172.77" y="-63.5" font-family="Helvetica,sans-Serif" font-size="10.00">Matrix.hpp</text>
</a>
</g>
</g>
<!-- Node11&#45;&gt;Node12 -->
<g id="edge16" class="edge">
<title>Node11&#45;&gt;Node12</title>
<path fill="none" stroke="midnightblue" d="M230.68,-112.32C220.28,-104.18 204.51,-91.84 192.05,-82.09"/>
<polygon fill="midnightblue" stroke="midnightblue" points="194.09,-79.24 184.06,-75.83 189.77,-84.75 194.09,-79.24"/>
</g>
<!-- Node12&#45;&gt;Node3 -->
<g id="edge17" class="edge">
<title>Node12&#45;&gt;Node3</title>
<path fill="none" stroke="midnightblue" d="M191.47,-56.44C210.71,-47.64 240.92,-33.81 262.97,-23.72"/>
<polygon fill="midnightblue" stroke="midnightblue" points="264.52,-26.86 272.16,-19.52 261.61,-20.5 264.52,-26.86"/>
</g>
<!-- Node13&#45;&gt;Node3 -->
<g id="edge19" class="edge">
<title>Node13&#45;&gt;Node3</title>
<path fill="none" stroke="midnightblue" d="M495.25,-168.38C541.65,-149.37 640.49,-101.9 600.77,-56 565.83,-15.63 402.13,-10.71 327.73,-10.61"/>
<polygon fill="midnightblue" stroke="midnightblue" points="327.43,-7.12 317.43,-10.63 327.44,-14.12 327.43,-7.12"/>
</g>
<!-- Node13&#45;&gt;Node7 -->
<g id="edge20" class="edge">
<title>Node13&#45;&gt;Node7</title>
<path fill="none" stroke="midnightblue" d="M457.67,-168.32C442.87,-159.82 420.07,-146.73 402.79,-136.8"/>
<polygon fill="midnightblue" stroke="midnightblue" points="404.25,-133.6 393.83,-131.65 400.76,-139.67 404.25,-133.6"/>
</g>
<!-- Node13&#45;&gt;Node11 -->
<g id="edge21" class="edge">
<title>Node13&#45;&gt;Node11</title>
<path fill="none" stroke="midnightblue" d="M436.17,-168.44C396.04,-159.06 331.57,-143.99 287.98,-133.8"/>
<polygon fill="midnightblue" stroke="midnightblue" points="288.73,-130.38 278.2,-131.52 287.14,-137.2 288.73,-130.38"/>
</g>
<!-- Node14 -->
<g id="node14" class="node">
<title>Node14</title>
<g id="a_node14"><a xlink:href="CameraProjection_8hpp.html" target="_top" xlink:title=" ">
<polygon fill="white" stroke="black" points="263.77,-56.5 263.77,-75.5 429.77,-75.5 429.77,-56.5 263.77,-56.5"/>
<text text-anchor="middle" x="346.77" y="-63.5" font-family="Helvetica,sans-Serif" font-size="10.00">Camera/CameraProjection.hpp</text>
</a>
</g>
</g>
<!-- Node13&#45;&gt;Node14 -->
<g id="edge22" class="edge">
<title>Node13&#45;&gt;Node14</title>
<path fill="none" stroke="midnightblue" d="M470.66,-168.32C466.95,-154.72 458.06,-128.25 441.77,-112 426.58,-96.86 405.32,-86.13 386.76,-78.96"/>
<polygon fill="midnightblue" stroke="midnightblue" points="387.94,-75.67 377.35,-75.53 385.55,-82.24 387.94,-75.67"/>
</g>
<!-- Node15 -->
<g id="node15" class="node">
<title>Node15</title>
<g id="a_node15"><a xlink:href="CameraMode_8hpp.html" target="_top" xlink:title=" ">
<polygon fill="white" stroke="black" points="447.77,-56.5 447.77,-75.5 591.77,-75.5 591.77,-56.5 447.77,-56.5"/>
<text text-anchor="middle" x="519.77" y="-63.5" font-family="Helvetica,sans-Serif" font-size="10.00">Camera/CameraMode.hpp</text>
</a>
</g>
</g>
<!-- Node13&#45;&gt;Node15 -->
<g id="edge24" class="edge">
<title>Node13&#45;&gt;Node15</title>
<path fill="none" stroke="midnightblue" d="M476.46,-168.37C484.11,-150.46 501.86,-108.92 512.1,-84.95"/>
<polygon fill="midnightblue" stroke="midnightblue" points="515.39,-86.16 516.1,-75.59 508.95,-83.41 515.39,-86.16"/>
</g>
<!-- Node14&#45;&gt;Node3 -->
<g id="edge23" class="edge">
<title>Node14&#45;&gt;Node3</title>
<path fill="none" stroke="midnightblue" d="M337.77,-56.32C329.57,-48.42 317.26,-36.55 307.3,-26.94"/>
<polygon fill="midnightblue" stroke="midnightblue" points="309.56,-24.26 299.93,-19.83 304.7,-29.29 309.56,-24.26"/>
</g>
<!-- Node15&#45;&gt;Node3 -->
<g id="edge25" class="edge">
<title>Node15&#45;&gt;Node3</title>
<path fill="none" stroke="midnightblue" d="M483.48,-56.44C440.75,-46.37 370.18,-29.72 327.33,-19.62"/>
<polygon fill="midnightblue" stroke="midnightblue" points="328.12,-16.21 317.58,-17.32 326.51,-23.02 328.12,-16.21"/>
</g>
<!-- Node16&#45;&gt;Node3 -->
<g id="edge27" class="edge">
<title>Node16&#45;&gt;Node3</title>
<path fill="none" stroke="midnightblue" d="M707.76,-60.73C696.44,-59.2 683.53,-57.48 671.77,-56 545.69,-40.09 395.91,-22.9 327.79,-15.17"/>
<polygon fill="midnightblue" stroke="midnightblue" points="327.91,-11.66 317.58,-14.02 327.12,-18.62 327.91,-11.66"/>
</g>
</g>
</svg>
