<?xml version="1.0" encoding="UTF-8" standalone="no"?>
<!DOCTYPE svg PUBLIC "-//W3C//DTD SVG 1.1//EN"
 "http://www.w3.org/Graphics/SVG/1.1/DTD/svg11.dtd">
<!-- Generated by graphviz version 2.43.0 (0)
 -->
<!-- Title: lib/Ray/sources/Drawables/Image.hpp Pages: 1 -->
<svg width="1690pt" height="543pt"
 viewBox="0.00 0.00 1690.00 543.00" xmlns="http://www.w3.org/2000/svg" xmlns:xlink="http://www.w3.org/1999/xlink">
<g id="graph0" class="graph" transform="scale(1 1) rotate(0) translate(4 539)">
<title>lib/Ray/sources/Drawables/Image.hpp</title>
<polygon fill="white" stroke="transparent" points="-4,4 -4,-539 1686,-539 1686,4 -4,4"/>
<!-- Node1 -->
<g id="node1" class="node">
<title>Node1</title>
<g id="a_node1"><a xlink:title=" ">
<polygon fill="#bfbfbf" stroke="black" points="667,-504.5 667,-534.5 813,-534.5 813,-504.5 667,-504.5"/>
<text text-anchor="start" x="675" y="-522.5" font-family="Helvetica,sans-Serif" font-size="10.00">lib/Ray/sources/Drawables</text>
<text text-anchor="middle" x="740" y="-511.5" font-family="Helvetica,sans-Serif" font-size="10.00">/Image.hpp</text>
</a>
</g>
</g>
<!-- Node2 -->
<g id="node2" class="node">
<title>Node2</title>
<g id="a_node2"><a xlink:title=" ">
<polygon fill="white" stroke="#bfbfbf" points="1048.5,-0.5 1048.5,-19.5 1101.5,-19.5 1101.5,-0.5 1048.5,-0.5"/>
<text text-anchor="middle" x="1075" y="-7.5" font-family="Helvetica,sans-Serif" font-size="10.00">raylib.h</text>
</a>
</g>
</g>
<!-- Node1&#45;&gt;Node2 -->
<g id="edge1" class="edge">
<title>Node1&#45;&gt;Node2</title>
<path fill="none" stroke="midnightblue" d="M666.68,-514.69C479.75,-503.99 0,-470 0,-403 0,-403 0,-403 0,-121 0,-87.08 10.76,-73.19 40,-56 83.85,-30.23 858.63,-14.86 1038.1,-11.64"/>
<polygon fill="midnightblue" stroke="midnightblue" points="1038.41,-15.13 1048.34,-11.46 1038.28,-8.13 1038.41,-15.13"/>
</g>
<!-- Node3 -->
<g id="node3" class="node">
<title>Node3</title>
<g id="a_node3"><a xlink:title=" ">
<polygon fill="white" stroke="#bfbfbf" points="778,-168.5 778,-187.5 822,-187.5 822,-168.5 778,-168.5"/>
<text text-anchor="middle" x="800" y="-175.5" font-family="Helvetica,sans-Serif" font-size="10.00">string</text>
</a>
</g>
</g>
<!-- Node1&#45;&gt;Node3 -->
<g id="edge2" class="edge">
<title>Node1&#45;&gt;Node3</title>
<path fill="none" stroke="midnightblue" d="M779.34,-504.47C819.5,-487.32 876,-454.11 876,-403 876,-403 876,-403 876,-289 876,-249.28 842.04,-213.5 819.52,-194.15"/>
<polygon fill="midnightblue" stroke="midnightblue" points="821.48,-191.24 811.54,-187.57 817.02,-196.63 821.48,-191.24"/>
</g>
<!-- Node4 -->
<g id="node4" class="node">
<title>Node4</title>
<g id="a_node4"><a xlink:href="Texture_8hpp.html" target="_top" xlink:title=" ">
<polygon fill="white" stroke="black" points="703,-448.5 703,-467.5 777,-467.5 777,-448.5 703,-448.5"/>
<text text-anchor="middle" x="740" y="-455.5" font-family="Helvetica,sans-Serif" font-size="10.00">Texture.hpp</text>
</a>
</g>
</g>
<!-- Node1&#45;&gt;Node4 -->
<g id="edge3" class="edge">
<title>Node1&#45;&gt;Node4</title>
<path fill="none" stroke="midnightblue" d="M740,-504.4C740,-496.47 740,-486.46 740,-477.86"/>
<polygon fill="midnightblue" stroke="midnightblue" points="743.5,-477.66 740,-467.66 736.5,-477.66 743.5,-477.66"/>
</g>
<!-- Node5 -->
<g id="node5" class="node">
<title>Node5</title>
<g id="a_node5"><a xlink:href="Cache_8hpp.html" target="_top" xlink:title=" ">
<polygon fill="white" stroke="black" points="386.5,-280.5 386.5,-299.5 479.5,-299.5 479.5,-280.5 386.5,-280.5"/>
<text text-anchor="middle" x="433" y="-287.5" font-family="Helvetica,sans-Serif" font-size="10.00">Utils/Cache.hpp</text>
</a>
</g>
</g>
<!-- Node1&#45;&gt;Node5 -->
<g id="edge53" class="edge">
<title>Node1&#45;&gt;Node5</title>
<path fill="none" stroke="midnightblue" d="M719.35,-504.34C679.1,-476.62 587.56,-412.89 513,-356 491.39,-339.51 467.27,-319.71 451.21,-306.33"/>
<polygon fill="midnightblue" stroke="midnightblue" points="453.11,-303.35 443.2,-299.62 448.62,-308.72 453.11,-303.35"/>
</g>
<!-- Node15 -->
<g id="node15" class="node">
<title>Node15</title>
<g id="a_node15"><a xlink:href="Rectangle_8hpp.html" target="_top" xlink:title=" ">
<polygon fill="white" stroke="black" points="904,-392.5 904,-411.5 1062,-411.5 1062,-392.5 904,-392.5"/>
<text text-anchor="middle" x="983" y="-399.5" font-family="Helvetica,sans-Serif" font-size="10.00">Drawables/2D/Rectangle.hpp</text>
</a>
</g>
</g>
<!-- Node1&#45;&gt;Node15 -->
<g id="edge54" class="edge">
<title>Node1&#45;&gt;Node15</title>
<path fill="none" stroke="midnightblue" d="M793.9,-504.42C823.15,-495.78 859.46,-483.41 890,-468 917.81,-453.97 946.74,-432.47 964.81,-418.08"/>
<polygon fill="midnightblue" stroke="midnightblue" points="967.18,-420.67 972.75,-411.66 962.77,-415.23 967.18,-420.67"/>
</g>
<!-- Node4&#45;&gt;Node2 -->
<g id="edge4" class="edge">
<title>Node4&#45;&gt;Node2</title>
<path fill="none" stroke="midnightblue" d="M702.88,-455.77C563.04,-450.16 76,-421.26 76,-291 76,-291 76,-291 76,-121 76,-22.2 857.95,-12.12 1038.23,-11.11"/>
<polygon fill="midnightblue" stroke="midnightblue" points="1038.3,-14.61 1048.28,-11.06 1038.26,-7.61 1038.3,-14.61"/>
</g>
<!-- Node4&#45;&gt;Node3 -->
<g id="edge5" class="edge">
<title>Node4&#45;&gt;Node3</title>
<path fill="none" stroke="midnightblue" d="M756.62,-448.27C784.58,-432.26 838,-395.34 838,-347 838,-347 838,-347 838,-289 838,-254.81 821.4,-217.76 810.14,-196.57"/>
<polygon fill="midnightblue" stroke="midnightblue" points="813.18,-194.83 805.28,-187.77 807.05,-198.22 813.18,-194.83"/>
</g>
<!-- Node4&#45;&gt;Node5 -->
<g id="edge6" class="edge">
<title>Node4&#45;&gt;Node5</title>
<path fill="none" stroke="midnightblue" d="M723.93,-448.31C673.57,-421.08 518.61,-337.29 457.83,-304.43"/>
<polygon fill="midnightblue" stroke="midnightblue" points="459.38,-301.28 448.91,-299.61 456.05,-307.44 459.38,-301.28"/>
</g>
<!-- Node4&#45;&gt;Node15 -->
<g id="edge19" class="edge">
<title>Node4&#45;&gt;Node15</title>
<path fill="none" stroke="midnightblue" d="M777.17,-448.74C819.41,-439.35 888.48,-424.01 934.82,-413.71"/>
<polygon fill="midnightblue" stroke="midnightblue" points="935.63,-417.11 944.63,-411.53 934.11,-410.28 935.63,-417.11"/>
</g>
<!-- Node5&#45;&gt;Node2 -->
<g id="edge11" class="edge">
<title>Node5&#45;&gt;Node2</title>
<path fill="none" stroke="midnightblue" d="M386.44,-286.83C305.9,-282.41 144.45,-270.48 95,-244 61.13,-225.86 38,-217.42 38,-179 38,-179 38,-179 38,-121 38,-90.2 37.13,-74.16 62,-56 102.16,-26.67 860.96,-14.05 1038.2,-11.5"/>
<polygon fill="midnightblue" stroke="midnightblue" points="1038.37,-15 1048.32,-11.36 1038.27,-8 1038.37,-15"/>
</g>
<!-- Node5&#45;&gt;Node3 -->
<g id="edge17" class="edge">
<title>Node5&#45;&gt;Node3</title>
<path fill="none" stroke="midnightblue" d="M479.7,-289.09C563.93,-288.28 736.67,-281.91 781,-244 794.24,-232.67 798.52,-212.67 799.77,-197.84"/>
<polygon fill="midnightblue" stroke="midnightblue" points="803.28,-197.89 800.24,-187.73 796.28,-197.56 803.28,-197.89"/>
</g>
<!-- Node6 -->
<g id="node6" class="node">
<title>Node6</title>
<g id="a_node6"><a xlink:title=" ">
<polygon fill="white" stroke="#bfbfbf" points="104,-224.5 104,-243.5 162,-243.5 162,-224.5 104,-224.5"/>
<text text-anchor="middle" x="133" y="-231.5" font-family="Helvetica,sans-Serif" font-size="10.00">memory</text>
</a>
</g>
</g>
<!-- Node5&#45;&gt;Node6 -->
<g id="edge7" class="edge">
<title>Node5&#45;&gt;Node6</title>
<path fill="none" stroke="midnightblue" d="M386.46,-281.91C335.99,-274.01 252.88,-260.43 171.87,-244.08"/>
<polygon fill="midnightblue" stroke="midnightblue" points="172.5,-240.63 162,-242.07 171.11,-247.49 172.5,-240.63"/>
</g>
<!-- Node7 -->
<g id="node7" class="node">
<title>Node7</title>
<g id="a_node7"><a xlink:title=" ">
<polygon fill="white" stroke="#bfbfbf" points="180.5,-224.5 180.5,-243.5 273.5,-243.5 273.5,-224.5 180.5,-224.5"/>
<text text-anchor="middle" x="227" y="-231.5" font-family="Helvetica,sans-Serif" font-size="10.00">unordered_map</text>
</a>
</g>
</g>
<!-- Node5&#45;&gt;Node7 -->
<g id="edge8" class="edge">
<title>Node5&#45;&gt;Node7</title>
<path fill="none" stroke="midnightblue" d="M400.36,-280.44C364.95,-271.16 308.29,-256.31 269.45,-246.13"/>
<polygon fill="midnightblue" stroke="midnightblue" points="270.05,-242.67 259.49,-243.52 268.27,-249.44 270.05,-242.67"/>
</g>
<!-- Node8 -->
<g id="node8" class="node">
<title>Node8</title>
<g id="a_node8"><a xlink:title=" ">
<polygon fill="white" stroke="#bfbfbf" points="291.5,-224.5 291.5,-243.5 356.5,-243.5 356.5,-224.5 291.5,-224.5"/>
<text text-anchor="middle" x="324" y="-231.5" font-family="Helvetica,sans-Serif" font-size="10.00">functional</text>
</a>
</g>
</g>
<!-- Node5&#45;&gt;Node8 -->
<g id="edge9" class="edge">
<title>Node5&#45;&gt;Node8</title>
<path fill="none" stroke="midnightblue" d="M415.49,-280.32C397.93,-271.62 370.67,-258.12 350.47,-248.11"/>
<polygon fill="midnightblue" stroke="midnightblue" points="351.98,-244.96 341.47,-243.65 348.88,-251.23 351.98,-244.96"/>
</g>
<!-- Node9 -->
<g id="node9" class="node">
<title>Node9</title>
<g id="a_node9"><a xlink:title=" ">
<polygon fill="white" stroke="#bfbfbf" points="374.5,-224.5 374.5,-243.5 419.5,-243.5 419.5,-224.5 374.5,-224.5"/>
<text text-anchor="middle" x="397" y="-231.5" font-family="Helvetica,sans-Serif" font-size="10.00">utility</text>
</a>
</g>
</g>
<!-- Node5&#45;&gt;Node9 -->
<g id="edge10" class="edge">
<title>Node5&#45;&gt;Node9</title>
<path fill="none" stroke="midnightblue" d="M427.06,-280.08C422.02,-272.53 414.66,-261.49 408.49,-252.23"/>
<polygon fill="midnightblue" stroke="midnightblue" points="411.29,-250.13 402.83,-243.75 405.47,-254.01 411.29,-250.13"/>
</g>
<!-- Node10 -->
<g id="node10" class="node">
<title>Node10</title>
<g id="a_node10"><a xlink:href="RayError_8hpp.html" target="_top" xlink:title=" ">
<polygon fill="white" stroke="black" points="636.5,-224.5 636.5,-243.5 771.5,-243.5 771.5,-224.5 636.5,-224.5"/>
<text text-anchor="middle" x="704" y="-231.5" font-family="Helvetica,sans-Serif" font-size="10.00">Exceptions/RayError.hpp</text>
</a>
</g>
</g>
<!-- Node5&#45;&gt;Node10 -->
<g id="edge12" class="edge">
<title>Node5&#45;&gt;Node10</title>
<path fill="none" stroke="midnightblue" d="M475.94,-280.44C523.51,-270.96 600.24,-255.67 651.39,-245.48"/>
<polygon fill="midnightblue" stroke="midnightblue" points="652.14,-248.9 661.26,-243.52 650.77,-242.04 652.14,-248.9"/>
</g>
<!-- Node12 -->
<g id="node12" class="node">
<title>Node12</title>
<g id="a_node12"><a xlink:title=" ">
<polygon fill="white" stroke="#bfbfbf" points="679.5,-112.5 679.5,-131.5 726.5,-131.5 726.5,-112.5 679.5,-112.5"/>
<text text-anchor="middle" x="703" y="-119.5" font-family="Helvetica,sans-Serif" font-size="10.00">vector</text>
</a>
</g>
</g>
<!-- Node5&#45;&gt;Node12 -->
<g id="edge15" class="edge">
<title>Node5&#45;&gt;Node12</title>
<path fill="none" stroke="midnightblue" d="M479.66,-282.25C512.13,-276.01 555.44,-264.49 589,-244 600.99,-236.68 660.63,-170.57 688.54,-139.28"/>
<polygon fill="midnightblue" stroke="midnightblue" points="691.18,-141.58 695.21,-131.79 685.95,-136.93 691.18,-141.58"/>
</g>
<!-- Node13 -->
<g id="node13" class="node">
<title>Node13</title>
<g id="a_node13"><a xlink:title=" ">
<polygon fill="white" stroke="#bfbfbf" points="438,-224.5 438,-243.5 502,-243.5 502,-224.5 438,-224.5"/>
<text text-anchor="middle" x="470" y="-231.5" font-family="Helvetica,sans-Serif" font-size="10.00">algorithm</text>
</a>
</g>
</g>
<!-- Node5&#45;&gt;Node13 -->
<g id="edge16" class="edge">
<title>Node5&#45;&gt;Node13</title>
<path fill="none" stroke="midnightblue" d="M439.11,-280.08C444.28,-272.53 451.85,-261.49 458.19,-252.23"/>
<polygon fill="midnightblue" stroke="midnightblue" points="461.24,-253.98 464,-243.75 455.46,-250.02 461.24,-253.98"/>
</g>
<!-- Node14 -->
<g id="node14" class="node">
<title>Node14</title>
<g id="a_node14"><a xlink:title=" ">
<polygon fill="white" stroke="#bfbfbf" points="520,-224.5 520,-243.5 580,-243.5 580,-224.5 520,-224.5"/>
<text text-anchor="middle" x="550" y="-231.5" font-family="Helvetica,sans-Serif" font-size="10.00">iostream</text>
</a>
</g>
</g>
<!-- Node5&#45;&gt;Node14 -->
<g id="edge18" class="edge">
<title>Node5&#45;&gt;Node14</title>
<path fill="none" stroke="midnightblue" d="M451.54,-280.44C470.62,-271.64 500.57,-257.81 522.44,-247.72"/>
<polygon fill="midnightblue" stroke="midnightblue" points="523.93,-250.88 531.55,-243.52 521,-244.53 523.93,-250.88"/>
</g>
<!-- Node10&#45;&gt;Node3 -->
<g id="edge14" class="edge">
<title>Node10&#45;&gt;Node3</title>
<path fill="none" stroke="midnightblue" d="M719.42,-224.32C734.54,-215.82 757.82,-202.73 775.47,-192.8"/>
<polygon fill="midnightblue" stroke="midnightblue" points="777.61,-195.61 784.61,-187.65 774.18,-189.51 777.61,-195.61"/>
</g>
<!-- Node11 -->
<g id="node11" class="node">
<title>Node11</title>
<g id="a_node11"><a xlink:title=" ">
<polygon fill="white" stroke="#bfbfbf" points="671.5,-168.5 671.5,-187.5 736.5,-187.5 736.5,-168.5 671.5,-168.5"/>
<text text-anchor="middle" x="704" y="-175.5" font-family="Helvetica,sans-Serif" font-size="10.00">stdexcept</text>
</a>
</g>
</g>
<!-- Node10&#45;&gt;Node11 -->
<g id="edge13" class="edge">
<title>Node10&#45;&gt;Node11</title>
<path fill="none" stroke="midnightblue" d="M704,-224.08C704,-217.01 704,-206.86 704,-197.99"/>
<polygon fill="midnightblue" stroke="midnightblue" points="707.5,-197.75 704,-187.75 700.5,-197.75 707.5,-197.75"/>
</g>
<!-- Node15&#45;&gt;Node2 -->
<g id="edge20" class="edge">
<title>Node15&#45;&gt;Node2</title>
<path fill="none" stroke="midnightblue" d="M974.19,-392.37C945.36,-363.09 856.37,-263.99 869,-168 875.72,-116.91 862.35,-92.23 899,-56 918.51,-36.71 992.77,-22.86 1038.36,-15.96"/>
<polygon fill="midnightblue" stroke="midnightblue" points="1039.07,-19.39 1048.46,-14.48 1038.05,-12.47 1039.07,-19.39"/>
</g>
<!-- Node16 -->
<g id="node16" class="node">
<title>Node16</title>
<g id="a_node16"><a xlink:href="ADrawable2D_8hpp.html" target="_top" xlink:title=" ">
<polygon fill="white" stroke="black" points="1484.5,-336.5 1484.5,-355.5 1643.5,-355.5 1643.5,-336.5 1484.5,-336.5"/>
<text text-anchor="middle" x="1564" y="-343.5" font-family="Helvetica,sans-Serif" font-size="10.00">Drawables/ADrawable2D.hpp</text>
</a>
</g>
</g>
<!-- Node15&#45;&gt;Node16 -->
<g id="edge21" class="edge">
<title>Node15&#45;&gt;Node16</title>
<path fill="none" stroke="midnightblue" d="M1062.26,-393.63C1169.87,-383.63 1361.66,-365.81 1474.39,-355.33"/>
<polygon fill="midnightblue" stroke="midnightblue" points="1474.74,-358.81 1484.37,-354.4 1474.09,-351.84 1474.74,-358.81"/>
</g>
<!-- Node16&#45;&gt;Node2 -->
<g id="edge22" class="edge">
<title>Node16&#45;&gt;Node2</title>
<path fill="none" stroke="midnightblue" d="M1585.92,-336.39C1620.04,-321.37 1682,-286.95 1682,-235 1682,-235 1682,-235 1682,-121 1682,-59.95 1619.45,-73.61 1561,-56 1476.85,-30.65 1209.96,-16.83 1111.74,-12.51"/>
<polygon fill="midnightblue" stroke="midnightblue" points="1111.84,-9.01 1101.69,-12.07 1111.53,-16 1111.84,-9.01"/>
</g>
<!-- Node17 -->
<g id="node17" class="node">
<title>Node17</title>
<g id="a_node17"><a xlink:href="lib_2Ray_2sources_2Vector_2Vector2_8hpp.html" target="_top" xlink:title=" ">
<polygon fill="white" stroke="black" points="1502,-112.5 1502,-131.5 1610,-131.5 1610,-112.5 1502,-112.5"/>
<text text-anchor="middle" x="1556" y="-119.5" font-family="Helvetica,sans-Serif" font-size="10.00">Vector/Vector2.hpp</text>
</a>
</g>
</g>
<!-- Node16&#45;&gt;Node17 -->
<g id="edge23" class="edge">
<title>Node16&#45;&gt;Node17</title>
<path fill="none" stroke="midnightblue" d="M1563.69,-336.3C1562.51,-303.63 1558.34,-187.87 1556.68,-141.96"/>
<polygon fill="midnightblue" stroke="midnightblue" points="1560.18,-141.75 1556.32,-131.88 1553.18,-142 1560.18,-141.75"/>
</g>
<!-- Node18 -->
<g id="node18" class="node">
<title>Node18</title>
<g id="a_node18"><a xlink:href="IDrawable_8hpp.html" target="_top" xlink:title=" ">
<polygon fill="white" stroke="black" points="1266,-280.5 1266,-299.5 1408,-299.5 1408,-280.5 1266,-280.5"/>
<text text-anchor="middle" x="1337" y="-287.5" font-family="Helvetica,sans-Serif" font-size="10.00">Drawables/IDrawable.hpp</text>
</a>
</g>
</g>
<!-- Node16&#45;&gt;Node18 -->
<g id="edge25" class="edge">
<title>Node16&#45;&gt;Node18</title>
<path fill="none" stroke="midnightblue" d="M1528.03,-336.44C1488.68,-327.08 1425.51,-312.06 1382.69,-301.87"/>
<polygon fill="midnightblue" stroke="midnightblue" points="1383.34,-298.43 1372.8,-299.52 1381.72,-305.24 1383.34,-298.43"/>
</g>
<!-- Node29 -->
<g id="node29" class="node">
<title>Node29</title>
<g id="a_node29"><a xlink:href="Color_8hpp.html" target="_top" xlink:title=" ">
<polygon fill="white" stroke="black" points="1592,-168.5 1592,-187.5 1654,-187.5 1654,-168.5 1592,-168.5"/>
<text text-anchor="middle" x="1623" y="-175.5" font-family="Helvetica,sans-Serif" font-size="10.00">Color.hpp</text>
</a>
</g>
</g>
<!-- Node16&#45;&gt;Node29 -->
<g id="edge52" class="edge">
<title>Node16&#45;&gt;Node29</title>
<path fill="none" stroke="midnightblue" d="M1567.17,-336.08C1576.5,-309.83 1603.97,-232.55 1616.56,-197.12"/>
<polygon fill="midnightblue" stroke="midnightblue" points="1619.9,-198.16 1619.95,-187.57 1613.31,-195.82 1619.9,-198.16"/>
</g>
<!-- Node17&#45;&gt;Node2 -->
<g id="edge24" class="edge">
<title>Node17&#45;&gt;Node2</title>
<path fill="none" stroke="midnightblue" d="M1550.05,-112.42C1539.46,-97.94 1515.83,-68.96 1488,-56 1421.47,-25.03 1199.78,-14.86 1111.62,-11.99"/>
<polygon fill="midnightblue" stroke="midnightblue" points="1111.65,-8.49 1101.55,-11.68 1111.43,-15.49 1111.65,-8.49"/>
</g>
<!-- Node19 -->
<g id="node19" class="node">
<title>Node19</title>
<g id="a_node19"><a xlink:href="Window_8hpp.html" target="_top" xlink:title=" ">
<polygon fill="white" stroke="black" points="1235,-224.5 1235,-243.5 1311,-243.5 1311,-224.5 1235,-224.5"/>
<text text-anchor="middle" x="1273" y="-231.5" font-family="Helvetica,sans-Serif" font-size="10.00">Window.hpp</text>
</a>
</g>
</g>
<!-- Node18&#45;&gt;Node19 -->
<g id="edge26" class="edge">
<title>Node18&#45;&gt;Node19</title>
<path fill="none" stroke="midnightblue" d="M1326.72,-280.32C1317.16,-272.26 1302.72,-260.08 1291.22,-250.37"/>
<polygon fill="midnightblue" stroke="midnightblue" points="1293.37,-247.61 1283.47,-243.83 1288.86,-252.96 1293.37,-247.61"/>
</g>
<!-- Node19&#45;&gt;Node2 -->
<g id="edge27" class="edge">
<title>Node19&#45;&gt;Node2</title>
<path fill="none" stroke="midnightblue" d="M1234.78,-227.27C1165.88,-214.54 1023.43,-176.65 974,-76 959.07,-45.59 1003.76,-27.6 1038.42,-18.51"/>
<polygon fill="midnightblue" stroke="midnightblue" points="1039.45,-21.87 1048.32,-16.08 1037.78,-15.07 1039.45,-21.87"/>
</g>
<!-- Node19&#45;&gt;Node3 -->
<g id="edge28" class="edge">
<title>Node19&#45;&gt;Node3</title>
<path fill="none" stroke="midnightblue" d="M1234.82,-228.99C1163.09,-221.4 1003.34,-204.24 869,-188 856.97,-186.55 843.78,-184.85 832.18,-183.32"/>
<polygon fill="midnightblue" stroke="midnightblue" points="832.42,-179.83 822.05,-181.98 831.5,-186.77 832.42,-179.83"/>
</g>
<!-- Node19&#45;&gt;Node17 -->
<g id="edge30" class="edge">
<title>Node19&#45;&gt;Node17</title>
<path fill="none" stroke="midnightblue" d="M1311.27,-233.82C1360.26,-233.14 1446.09,-225.97 1507,-188 1525.12,-176.7 1538.93,-156.09 1547.19,-141.1"/>
<polygon fill="midnightblue" stroke="midnightblue" points="1550.52,-142.29 1552.02,-131.8 1544.3,-139.07 1550.52,-142.29"/>
</g>
<!-- Node20 -->
<g id="node20" class="node">
<title>Node20</title>
<g id="a_node20"><a xlink:title=" ">
<polygon fill="white" stroke="#bfbfbf" points="1442,-168.5 1442,-187.5 1498,-187.5 1498,-168.5 1442,-168.5"/>
<text text-anchor="middle" x="1470" y="-175.5" font-family="Helvetica,sans-Serif" font-size="10.00">optional</text>
</a>
</g>
</g>
<!-- Node19&#45;&gt;Node20 -->
<g id="edge29" class="edge">
<title>Node19&#45;&gt;Node20</title>
<path fill="none" stroke="midnightblue" d="M1304.22,-224.44C1338.83,-214.96 1394.67,-199.65 1431.84,-189.46"/>
<polygon fill="midnightblue" stroke="midnightblue" points="1433.08,-192.75 1441.8,-186.73 1431.23,-186 1433.08,-192.75"/>
</g>
<!-- Node21 -->
<g id="node21" class="node">
<title>Node21</title>
<g id="a_node21"><a xlink:href="lib_2Ray_2sources_2Vector_2Vector3_8hpp.html" target="_top" xlink:title=" ">
<polygon fill="white" stroke="black" points="1061,-112.5 1061,-131.5 1169,-131.5 1169,-112.5 1061,-112.5"/>
<text text-anchor="middle" x="1115" y="-119.5" font-family="Helvetica,sans-Serif" font-size="10.00">Vector/Vector3.hpp</text>
</a>
</g>
</g>
<!-- Node19&#45;&gt;Node21 -->
<g id="edge31" class="edge">
<title>Node19&#45;&gt;Node21</title>
<path fill="none" stroke="midnightblue" d="M1234.94,-230.06C1204.04,-225.7 1161.42,-214.86 1135,-188 1122.98,-175.78 1118.16,-156.51 1116.24,-142.12"/>
<polygon fill="midnightblue" stroke="midnightblue" points="1119.69,-141.47 1115.24,-131.86 1112.73,-142.15 1119.69,-141.47"/>
</g>
<!-- Node22 -->
<g id="node22" class="node">
<title>Node22</title>
<g id="a_node22"><a xlink:href="Keyboard_8hpp.html" target="_top" xlink:title=" ">
<polygon fill="white" stroke="black" points="878,-168.5 878,-187.5 1018,-187.5 1018,-168.5 878,-168.5"/>
<text text-anchor="middle" x="948" y="-175.5" font-family="Helvetica,sans-Serif" font-size="10.00">Controllers/Keyboard.hpp</text>
</a>
</g>
</g>
<!-- Node19&#45;&gt;Node22 -->
<g id="edge33" class="edge">
<title>Node19&#45;&gt;Node22</title>
<path fill="none" stroke="midnightblue" d="M1234.76,-226.65C1179.14,-217.41 1075.34,-200.16 1009.06,-189.15"/>
<polygon fill="midnightblue" stroke="midnightblue" points="1009.6,-185.69 999.16,-187.5 1008.45,-192.59 1009.6,-185.69"/>
</g>
<!-- Node23 -->
<g id="node23" class="node">
<title>Node23</title>
<g id="a_node23"><a xlink:href="Camera2D_8hpp.html" target="_top" xlink:title=" ">
<polygon fill="white" stroke="black" points="1292.5,-168.5 1292.5,-187.5 1423.5,-187.5 1423.5,-168.5 1292.5,-168.5"/>
<text text-anchor="middle" x="1358" y="-175.5" font-family="Helvetica,sans-Serif" font-size="10.00">Camera/Camera2D.hpp</text>
</a>
</g>
</g>
<!-- Node19&#45;&gt;Node23 -->
<g id="edge36" class="edge">
<title>Node19&#45;&gt;Node23</title>
<path fill="none" stroke="midnightblue" d="M1286.66,-224.32C1299.92,-215.9 1320.27,-202.97 1335.85,-193.07"/>
<polygon fill="midnightblue" stroke="midnightblue" points="1337.81,-195.97 1344.38,-187.65 1334.06,-190.06 1337.81,-195.97"/>
</g>
<!-- Node26 -->
<g id="node26" class="node">
<title>Node26</title>
<g id="a_node26"><a xlink:href="Camera3D_8hpp.html" target="_top" xlink:title=" ">
<polygon fill="white" stroke="black" points="1143.5,-168.5 1143.5,-187.5 1274.5,-187.5 1274.5,-168.5 1143.5,-168.5"/>
<text text-anchor="middle" x="1209" y="-175.5" font-family="Helvetica,sans-Serif" font-size="10.00">Camera/Camera3D.hpp</text>
</a>
</g>
</g>
<!-- Node19&#45;&gt;Node26 -->
<g id="edge42" class="edge">
<title>Node19&#45;&gt;Node26</title>
<path fill="none" stroke="midnightblue" d="M1262.72,-224.32C1253.16,-216.26 1238.72,-204.08 1227.22,-194.37"/>
<polygon fill="midnightblue" stroke="midnightblue" points="1229.37,-191.61 1219.47,-187.83 1224.86,-196.96 1229.37,-191.61"/>
</g>
<!-- Node19&#45;&gt;Node29 -->
<g id="edge50" class="edge">
<title>Node19&#45;&gt;Node29</title>
<path fill="none" stroke="midnightblue" d="M1311.12,-227.12C1377.35,-216.9 1513.12,-195.95 1581.58,-185.39"/>
<polygon fill="midnightblue" stroke="midnightblue" points="1582.22,-188.83 1591.57,-183.85 1581.16,-181.91 1582.22,-188.83"/>
</g>
<!-- Node21&#45;&gt;Node2 -->
<g id="edge32" class="edge">
<title>Node21&#45;&gt;Node2</title>
<path fill="none" stroke="midnightblue" d="M1060.85,-117.1C1032.75,-112.01 1000.68,-100.71 983,-76 964.74,-50.49 1005.49,-31.43 1038.46,-20.75"/>
<polygon fill="midnightblue" stroke="midnightblue" points="1039.84,-23.99 1048.37,-17.71 1037.78,-17.3 1039.84,-23.99"/>
</g>
<!-- Node22&#45;&gt;Node2 -->
<g id="edge34" class="edge">
<title>Node22&#45;&gt;Node2</title>
<path fill="none" stroke="midnightblue" d="M940.79,-168.45C923.86,-147.29 884.92,-91.57 912,-56 927.24,-35.99 995.12,-22.6 1038.33,-15.94"/>
<polygon fill="midnightblue" stroke="midnightblue" points="1039.1,-19.36 1048.48,-14.43 1038.07,-12.44 1039.1,-19.36"/>
</g>
<!-- Node22&#45;&gt;Node12 -->
<g id="edge35" class="edge">
<title>Node22&#45;&gt;Node12</title>
<path fill="none" stroke="midnightblue" d="M909.18,-168.44C861.61,-157.96 781.8,-140.37 736.7,-130.43"/>
<polygon fill="midnightblue" stroke="midnightblue" points="737.34,-126.99 726.82,-128.25 735.83,-133.82 737.34,-126.99"/>
</g>
<!-- Node23&#45;&gt;Node2 -->
<g id="edge37" class="edge">
<title>Node23&#45;&gt;Node2</title>
<path fill="none" stroke="midnightblue" d="M1400.39,-168.45C1420.58,-162.02 1442.91,-150.93 1455,-132 1473.18,-103.53 1477.44,-81.25 1455,-56 1432.4,-30.56 1202.57,-17.02 1111.69,-12.62"/>
<polygon fill="midnightblue" stroke="midnightblue" points="1111.73,-9.12 1101.57,-12.14 1111.4,-16.11 1111.73,-9.12"/>
</g>
<!-- Node23&#45;&gt;Node17 -->
<g id="edge38" class="edge">
<title>Node23&#45;&gt;Node17</title>
<path fill="none" stroke="midnightblue" d="M1389.37,-168.44C1423.26,-159.2 1477.4,-144.44 1514.72,-134.26"/>
<polygon fill="midnightblue" stroke="midnightblue" points="1516.05,-137.52 1524.77,-131.52 1514.2,-130.77 1516.05,-137.52"/>
</g>
<!-- Node24 -->
<g id="node24" class="node">
<title>Node24</title>
<g id="a_node24"><a xlink:href="ICamera_8hpp.html" target="_top" xlink:title=" ">
<polygon fill="white" stroke="black" points="1326,-112.5 1326,-131.5 1446,-131.5 1446,-112.5 1326,-112.5"/>
<text text-anchor="middle" x="1386" y="-119.5" font-family="Helvetica,sans-Serif" font-size="10.00">Camera/ICamera.hpp</text>
</a>
</g>
</g>
<!-- Node23&#45;&gt;Node24 -->
<g id="edge39" class="edge">
<title>Node23&#45;&gt;Node24</title>
<path fill="none" stroke="midnightblue" d="M1362.62,-168.08C1366.46,-160.69 1372.02,-149.95 1376.76,-140.81"/>
<polygon fill="midnightblue" stroke="midnightblue" points="1379.97,-142.24 1381.46,-131.75 1373.75,-139.02 1379.97,-142.24"/>
</g>
<!-- Node25 -->
<g id="node25" class="node">
<title>Node25</title>
<g id="a_node25"><a xlink:href="Matrix_8hpp.html" target="_top" xlink:title=" ">
<polygon fill="white" stroke="black" points="1376.5,-56.5 1376.5,-75.5 1445.5,-75.5 1445.5,-56.5 1376.5,-56.5"/>
<text text-anchor="middle" x="1411" y="-63.5" font-family="Helvetica,sans-Serif" font-size="10.00">Matrix.hpp</text>
</a>
</g>
</g>
<!-- Node24&#45;&gt;Node25 -->
<g id="edge40" class="edge">
<title>Node24&#45;&gt;Node25</title>
<path fill="none" stroke="midnightblue" d="M1390.13,-112.08C1393.51,-104.77 1398.42,-94.18 1402.62,-85.1"/>
<polygon fill="midnightblue" stroke="midnightblue" points="1405.92,-86.3 1406.95,-75.75 1399.57,-83.36 1405.92,-86.3"/>
</g>
<!-- Node25&#45;&gt;Node2 -->
<g id="edge41" class="edge">
<title>Node25&#45;&gt;Node2</title>
<path fill="none" stroke="midnightblue" d="M1376.49,-58.54C1371.63,-57.67 1366.69,-56.8 1362,-56 1272.27,-40.73 1166.42,-24.62 1111.78,-16.45"/>
<polygon fill="midnightblue" stroke="midnightblue" points="1111.96,-12.94 1101.55,-14.93 1110.92,-19.86 1111.96,-12.94"/>
</g>
<!-- Node26&#45;&gt;Node2 -->
<g id="edge43" class="edge">
<title>Node26&#45;&gt;Node2</title>
<path fill="none" stroke="midnightblue" d="M1227.12,-168.31C1255.12,-153.73 1307.86,-121.43 1329,-76 1332.75,-67.94 1334.71,-62.81 1329,-56 1301.68,-23.41 1175.09,-14.41 1111.57,-11.93"/>
<polygon fill="midnightblue" stroke="midnightblue" points="1111.69,-8.44 1101.57,-11.58 1111.44,-15.43 1111.69,-8.44"/>
</g>
<!-- Node26&#45;&gt;Node21 -->
<g id="edge44" class="edge">
<title>Node26&#45;&gt;Node21</title>
<path fill="none" stroke="midnightblue" d="M1193.9,-168.32C1179.1,-159.82 1156.31,-146.73 1139.02,-136.8"/>
<polygon fill="midnightblue" stroke="midnightblue" points="1140.48,-133.6 1130.07,-131.65 1136.99,-139.67 1140.48,-133.6"/>
</g>
<!-- Node26&#45;&gt;Node24 -->
<g id="edge45" class="edge">
<title>Node26&#45;&gt;Node24</title>
<path fill="none" stroke="midnightblue" d="M1237.05,-168.44C1267.08,-159.28 1314.91,-144.69 1348.24,-134.52"/>
<polygon fill="midnightblue" stroke="midnightblue" points="1349.54,-137.78 1358.09,-131.52 1347.5,-131.09 1349.54,-137.78"/>
</g>
<!-- Node27 -->
<g id="node27" class="node">
<title>Node27</title>
<g id="a_node27"><a xlink:href="CameraProjection_8hpp.html" target="_top" xlink:title=" ">
<polygon fill="white" stroke="black" points="992,-56.5 992,-75.5 1158,-75.5 1158,-56.5 992,-56.5"/>
<text text-anchor="middle" x="1075" y="-63.5" font-family="Helvetica,sans-Serif" font-size="10.00">Camera/CameraProjection.hpp</text>
</a>
</g>
</g>
<!-- Node26&#45;&gt;Node27 -->
<g id="edge46" class="edge">
<title>Node26&#45;&gt;Node27</title>
<path fill="none" stroke="midnightblue" d="M1206.95,-168.26C1203.31,-154.58 1194.53,-128 1178,-112 1161.92,-96.45 1139.59,-85.8 1119.83,-78.78"/>
<polygon fill="midnightblue" stroke="midnightblue" points="1120.67,-75.37 1110.08,-75.53 1118.46,-82.01 1120.67,-75.37"/>
</g>
<!-- Node28 -->
<g id="node28" class="node">
<title>Node28</title>
<g id="a_node28"><a xlink:href="CameraMode_8hpp.html" target="_top" xlink:title=" ">
<polygon fill="white" stroke="black" points="1176,-56.5 1176,-75.5 1320,-75.5 1320,-56.5 1176,-56.5"/>
<text text-anchor="middle" x="1248" y="-63.5" font-family="Helvetica,sans-Serif" font-size="10.00">Camera/CameraMode.hpp</text>
</a>
</g>
</g>
<!-- Node26&#45;&gt;Node28 -->
<g id="edge48" class="edge">
<title>Node26&#45;&gt;Node28</title>
<path fill="none" stroke="midnightblue" d="M1212.06,-168.37C1218.38,-150.54 1233,-109.3 1241.52,-85.27"/>
<polygon fill="midnightblue" stroke="midnightblue" points="1244.91,-86.19 1244.95,-75.59 1238.31,-83.85 1244.91,-86.19"/>
</g>
<!-- Node27&#45;&gt;Node2 -->
<g id="edge47" class="edge">
<title>Node27&#45;&gt;Node2</title>
<path fill="none" stroke="midnightblue" d="M1075,-56.08C1075,-49.01 1075,-38.86 1075,-29.99"/>
<polygon fill="midnightblue" stroke="midnightblue" points="1078.5,-29.75 1075,-19.75 1071.5,-29.75 1078.5,-29.75"/>
</g>
<!-- Node28&#45;&gt;Node2 -->
<g id="edge49" class="edge">
<title>Node28&#45;&gt;Node2</title>
<path fill="none" stroke="midnightblue" d="M1220.59,-56.44C1191.06,-47.23 1143.93,-32.52 1111.33,-22.34"/>
<polygon fill="midnightblue" stroke="midnightblue" points="1112.3,-18.98 1101.72,-19.34 1110.22,-25.66 1112.3,-18.98"/>
</g>
<!-- Node29&#45;&gt;Node2 -->
<g id="edge51" class="edge">
<title>Node29&#45;&gt;Node2</title>
<path fill="none" stroke="midnightblue" d="M1624.97,-168.19C1627.43,-154.87 1630.09,-129.33 1619,-112 1590.71,-67.78 1565.18,-71.41 1515,-56 1439.89,-32.94 1203.69,-17.99 1111.95,-12.92"/>
<polygon fill="midnightblue" stroke="midnightblue" points="1111.92,-9.42 1101.75,-12.37 1111.54,-16.4 1111.92,-9.42"/>
</g>
</g>
</svg>
