<?xml version="1.0" encoding="UTF-8" standalone="no"?>
<!DOCTYPE svg PUBLIC "-//W3C//DTD SVG 1.1//EN"
 "http://www.w3.org/Graphics/SVG/1.1/DTD/svg11.dtd">
<!-- Generated by graphviz version 2.43.0 (0)
 -->
<!-- Title: lib/Ray/sources/Drawables/Image.cpp Pages: 1 -->
<svg width="1680pt" height="599pt"
 viewBox="0.00 0.00 1680.00 599.00" xmlns="http://www.w3.org/2000/svg" xmlns:xlink="http://www.w3.org/1999/xlink">
<g id="graph0" class="graph" transform="scale(1 1) rotate(0) translate(4 595)">
<title>lib/Ray/sources/Drawables/Image.cpp</title>
<polygon fill="white" stroke="transparent" points="-4,4 -4,-595 1676,-595 1676,4 -4,4"/>
<!-- Node1 -->
<g id="node1" class="node">
<title>Node1</title>
<g id="a_node1"><a xlink:title=" ">
<polygon fill="#bfbfbf" stroke="black" points="852,-560.5 852,-590.5 998,-590.5 998,-560.5 852,-560.5"/>
<text text-anchor="start" x="860" y="-578.5" font-family="Helvetica,sans-Serif" font-size="10.00">lib/Ray/sources/Drawables</text>
<text text-anchor="middle" x="925" y="-567.5" font-family="Helvetica,sans-Serif" font-size="10.00">/Image.cpp</text>
</a>
</g>
</g>
<!-- Node2 -->
<g id="node2" class="node">
<title>Node2</title>
<g id="a_node2"><a xlink:href="Image_8hpp.html" target="_top" xlink:title=" ">
<polygon fill="white" stroke="black" points="586.5,-504.5 586.5,-523.5 709.5,-523.5 709.5,-504.5 586.5,-504.5"/>
<text text-anchor="middle" x="648" y="-511.5" font-family="Helvetica,sans-Serif" font-size="10.00">Drawables/Image.hpp</text>
</a>
</g>
</g>
<!-- Node1&#45;&gt;Node2 -->
<g id="edge1" class="edge">
<title>Node1&#45;&gt;Node2</title>
<path fill="none" stroke="midnightblue" d="M859.71,-560.47C810.04,-549.81 742.75,-535.35 697.48,-525.63"/>
<polygon fill="midnightblue" stroke="midnightblue" points="698.11,-522.18 687.6,-523.51 696.64,-529.03 698.11,-522.18"/>
</g>
<!-- Node11 -->
<g id="node11" class="node">
<title>Node11</title>
<g id="a_node11"><a xlink:href="RayError_8hpp.html" target="_top" xlink:title=" ">
<polygon fill="white" stroke="black" points="750.5,-224.5 750.5,-243.5 885.5,-243.5 885.5,-224.5 750.5,-224.5"/>
<text text-anchor="middle" x="818" y="-231.5" font-family="Helvetica,sans-Serif" font-size="10.00">Exceptions/RayError.hpp</text>
</a>
</g>
</g>
<!-- Node1&#45;&gt;Node11 -->
<g id="edge58" class="edge">
<title>Node1&#45;&gt;Node11</title>
<path fill="none" stroke="midnightblue" d="M930.59,-560.17C938.5,-538.58 952,-496.27 952,-459 952,-459 952,-459 952,-345 952,-294.39 894.2,-262.81 854.52,-247.09"/>
<polygon fill="midnightblue" stroke="midnightblue" points="855.71,-243.8 845.12,-243.53 853.23,-250.35 855.71,-243.8"/>
</g>
<!-- Node16 -->
<g id="node16" class="node">
<title>Node16</title>
<g id="a_node16"><a xlink:href="Rectangle_8hpp.html" target="_top" xlink:title=" ">
<polygon fill="white" stroke="black" points="766,-392.5 766,-411.5 924,-411.5 924,-392.5 766,-392.5"/>
<text text-anchor="middle" x="845" y="-399.5" font-family="Helvetica,sans-Serif" font-size="10.00">Drawables/2D/Rectangle.hpp</text>
</a>
</g>
</g>
<!-- Node1&#45;&gt;Node16 -->
<g id="edge57" class="edge">
<title>Node1&#45;&gt;Node16</title>
<path fill="none" stroke="midnightblue" d="M918.45,-560.47C903.98,-529.44 869.28,-455.05 853.31,-420.81"/>
<polygon fill="midnightblue" stroke="midnightblue" points="856.39,-419.14 848.99,-411.56 850.05,-422.1 856.39,-419.14"/>
</g>
<!-- Node17 -->
<g id="node17" class="node">
<title>Node17</title>
<g id="a_node17"><a xlink:href="ADrawable2D_8hpp.html" target="_top" xlink:title=" ">
<polygon fill="white" stroke="black" points="1012.5,-336.5 1012.5,-355.5 1171.5,-355.5 1171.5,-336.5 1012.5,-336.5"/>
<text text-anchor="middle" x="1092" y="-343.5" font-family="Helvetica,sans-Serif" font-size="10.00">Drawables/ADrawable2D.hpp</text>
</a>
</g>
</g>
<!-- Node1&#45;&gt;Node17 -->
<g id="edge56" class="edge">
<title>Node1&#45;&gt;Node17</title>
<path fill="none" stroke="midnightblue" d="M937.09,-560.11C945.39,-550.11 956.56,-536.4 966,-524 1009.67,-466.59 1058.4,-396.19 1080.27,-364.24"/>
<polygon fill="midnightblue" stroke="midnightblue" points="1083.41,-365.85 1086.16,-355.61 1077.63,-361.9 1083.41,-365.85"/>
</g>
<!-- Node3 -->
<g id="node3" class="node">
<title>Node3</title>
<g id="a_node3"><a xlink:title=" ">
<polygon fill="white" stroke="#bfbfbf" points="1074.5,-0.5 1074.5,-19.5 1127.5,-19.5 1127.5,-0.5 1074.5,-0.5"/>
<text text-anchor="middle" x="1101" y="-7.5" font-family="Helvetica,sans-Serif" font-size="10.00">raylib.h</text>
</a>
</g>
</g>
<!-- Node2&#45;&gt;Node3 -->
<g id="edge2" class="edge">
<title>Node2&#45;&gt;Node3</title>
<path fill="none" stroke="midnightblue" d="M586.45,-508.98C424.7,-497.61 0,-462.12 0,-403 0,-403 0,-403 0,-121 0,-80.77 26.3,-72.48 63,-56 155.77,-14.33 890.68,-11.15 1064.32,-10.99"/>
<polygon fill="midnightblue" stroke="midnightblue" points="1064.48,-14.49 1074.48,-10.98 1064.48,-7.49 1064.48,-14.49"/>
</g>
<!-- Node4 -->
<g id="node4" class="node">
<title>Node4</title>
<g id="a_node4"><a xlink:title=" ">
<polygon fill="white" stroke="#bfbfbf" points="674,-168.5 674,-187.5 718,-187.5 718,-168.5 674,-168.5"/>
<text text-anchor="middle" x="696" y="-175.5" font-family="Helvetica,sans-Serif" font-size="10.00">string</text>
</a>
</g>
</g>
<!-- Node2&#45;&gt;Node4 -->
<g id="edge3" class="edge">
<title>Node2&#45;&gt;Node4</title>
<path fill="none" stroke="midnightblue" d="M659.24,-504.36C679.94,-487.38 722,-447.42 722,-403 722,-403 722,-403 722,-289 722,-255.93 710.73,-218.73 703.03,-197.17"/>
<polygon fill="midnightblue" stroke="midnightblue" points="706.27,-195.83 699.51,-187.68 699.71,-198.27 706.27,-195.83"/>
</g>
<!-- Node5 -->
<g id="node5" class="node">
<title>Node5</title>
<g id="a_node5"><a xlink:href="Texture_8hpp.html" target="_top" xlink:title=" ">
<polygon fill="white" stroke="black" points="471,-448.5 471,-467.5 545,-467.5 545,-448.5 471,-448.5"/>
<text text-anchor="middle" x="508" y="-455.5" font-family="Helvetica,sans-Serif" font-size="10.00">Texture.hpp</text>
</a>
</g>
</g>
<!-- Node2&#45;&gt;Node5 -->
<g id="edge4" class="edge">
<title>Node2&#45;&gt;Node5</title>
<path fill="none" stroke="midnightblue" d="M625.82,-504.44C602.57,-495.48 565.85,-481.31 539.58,-471.18"/>
<polygon fill="midnightblue" stroke="midnightblue" points="540.67,-467.85 530.08,-467.52 538.15,-474.38 540.67,-467.85"/>
</g>
<!-- Node6 -->
<g id="node6" class="node">
<title>Node6</title>
<g id="a_node6"><a xlink:href="Cache_8hpp.html" target="_top" xlink:title=" ">
<polygon fill="white" stroke="black" points="461.5,-280.5 461.5,-299.5 554.5,-299.5 554.5,-280.5 461.5,-280.5"/>
<text text-anchor="middle" x="508" y="-287.5" font-family="Helvetica,sans-Serif" font-size="10.00">Utils/Cache.hpp</text>
</a>
</g>
</g>
<!-- Node2&#45;&gt;Node6 -->
<g id="edge54" class="edge">
<title>Node2&#45;&gt;Node6</title>
<path fill="none" stroke="midnightblue" d="M642.51,-504.3C621.69,-471.29 547.35,-353.4 519.05,-308.52"/>
<polygon fill="midnightblue" stroke="midnightblue" points="521.9,-306.48 513.6,-299.88 515.98,-310.21 521.9,-306.48"/>
</g>
<!-- Node2&#45;&gt;Node16 -->
<g id="edge55" class="edge">
<title>Node2&#45;&gt;Node16</title>
<path fill="none" stroke="midnightblue" d="M665.71,-504.37C683.61,-495.54 711.97,-481.29 736,-468 766.37,-451.2 800.63,-430.47 822.49,-417"/>
<polygon fill="midnightblue" stroke="midnightblue" points="824.39,-419.94 831.06,-411.71 820.71,-413.99 824.39,-419.94"/>
</g>
<!-- Node5&#45;&gt;Node3 -->
<g id="edge5" class="edge">
<title>Node5&#45;&gt;Node3</title>
<path fill="none" stroke="midnightblue" d="M470.73,-456.23C359.56,-452.93 38,-435.73 38,-347 38,-347 38,-347 38,-121 38,-66.12 90.58,-72.25 143,-56 232.09,-28.38 899.21,-14.63 1064.19,-11.64"/>
<polygon fill="midnightblue" stroke="midnightblue" points="1064.38,-15.13 1074.32,-11.45 1064.26,-8.13 1064.38,-15.13"/>
</g>
<!-- Node5&#45;&gt;Node4 -->
<g id="edge6" class="edge">
<title>Node5&#45;&gt;Node4</title>
<path fill="none" stroke="midnightblue" d="M470.93,-454.59C372.85,-447.19 114,-420.68 114,-347 114,-347 114,-347 114,-289 114,-258.9 109.66,-243 133,-224 174.26,-190.42 550.1,-181.44 663.65,-179.48"/>
<polygon fill="midnightblue" stroke="midnightblue" points="663.86,-182.97 673.81,-179.31 663.75,-175.98 663.86,-182.97"/>
</g>
<!-- Node5&#45;&gt;Node6 -->
<g id="edge7" class="edge">
<title>Node5&#45;&gt;Node6</title>
<path fill="none" stroke="midnightblue" d="M508,-448.08C508,-421.95 508,-345.21 508,-309.58"/>
<polygon fill="midnightblue" stroke="midnightblue" points="511.5,-309.57 508,-299.57 504.5,-309.57 511.5,-309.57"/>
</g>
<!-- Node5&#45;&gt;Node16 -->
<g id="edge20" class="edge">
<title>Node5&#45;&gt;Node16</title>
<path fill="none" stroke="midnightblue" d="M545.03,-451.07C602.07,-441.93 712.12,-424.29 781.89,-413.11"/>
<polygon fill="midnightblue" stroke="midnightblue" points="782.56,-416.55 791.88,-411.51 781.46,-409.64 782.56,-416.55"/>
</g>
<!-- Node6&#45;&gt;Node3 -->
<g id="edge12" class="edge">
<title>Node6&#45;&gt;Node3</title>
<path fill="none" stroke="midnightblue" d="M461.22,-287.53C373.69,-284.1 188.97,-273.51 133,-244 99.01,-226.08 76,-217.42 76,-179 76,-179 76,-179 76,-121 76,-19.5 880.9,-11.51 1064.17,-11.01"/>
<polygon fill="midnightblue" stroke="midnightblue" points="1064.38,-14.51 1074.37,-10.98 1064.36,-7.51 1064.38,-14.51"/>
</g>
<!-- Node6&#45;&gt;Node4 -->
<g id="edge18" class="edge">
<title>Node6&#45;&gt;Node4</title>
<path fill="none" stroke="midnightblue" d="M554.84,-284.51C587.31,-279.32 629.95,-268.12 660,-244 675.06,-231.91 684.81,-211.74 690.32,-197.07"/>
<polygon fill="midnightblue" stroke="midnightblue" points="693.65,-198.15 693.59,-187.55 687.03,-195.87 693.65,-198.15"/>
</g>
<!-- Node7 -->
<g id="node7" class="node">
<title>Node7</title>
<g id="a_node7"><a xlink:title=" ">
<polygon fill="white" stroke="#bfbfbf" points="142,-224.5 142,-243.5 200,-243.5 200,-224.5 142,-224.5"/>
<text text-anchor="middle" x="171" y="-231.5" font-family="Helvetica,sans-Serif" font-size="10.00">memory</text>
</a>
</g>
</g>
<!-- Node6&#45;&gt;Node7 -->
<g id="edge8" class="edge">
<title>Node6&#45;&gt;Node7</title>
<path fill="none" stroke="midnightblue" d="M461.44,-283.21C404.47,-275.86 304.88,-262.14 210.41,-244.15"/>
<polygon fill="midnightblue" stroke="midnightblue" points="210.89,-240.67 200.41,-242.22 209.56,-247.55 210.89,-240.67"/>
</g>
<!-- Node8 -->
<g id="node8" class="node">
<title>Node8</title>
<g id="a_node8"><a xlink:title=" ">
<polygon fill="white" stroke="#bfbfbf" points="218.5,-224.5 218.5,-243.5 311.5,-243.5 311.5,-224.5 218.5,-224.5"/>
<text text-anchor="middle" x="265" y="-231.5" font-family="Helvetica,sans-Serif" font-size="10.00">unordered_map</text>
</a>
</g>
</g>
<!-- Node6&#45;&gt;Node8 -->
<g id="edge9" class="edge">
<title>Node6&#45;&gt;Node8</title>
<path fill="none" stroke="midnightblue" d="M469.5,-280.44C427.19,-271.04 359.18,-255.93 313.33,-245.74"/>
<polygon fill="midnightblue" stroke="midnightblue" points="313.85,-242.27 303.32,-243.52 312.33,-249.1 313.85,-242.27"/>
</g>
<!-- Node9 -->
<g id="node9" class="node">
<title>Node9</title>
<g id="a_node9"><a xlink:title=" ">
<polygon fill="white" stroke="#bfbfbf" points="329.5,-224.5 329.5,-243.5 394.5,-243.5 394.5,-224.5 329.5,-224.5"/>
<text text-anchor="middle" x="362" y="-231.5" font-family="Helvetica,sans-Serif" font-size="10.00">functional</text>
</a>
</g>
</g>
<!-- Node6&#45;&gt;Node9 -->
<g id="edge10" class="edge">
<title>Node6&#45;&gt;Node9</title>
<path fill="none" stroke="midnightblue" d="M484.87,-280.44C460.52,-271.44 421.99,-257.19 394.58,-247.05"/>
<polygon fill="midnightblue" stroke="midnightblue" points="395.62,-243.7 385.03,-243.52 393.19,-250.27 395.62,-243.7"/>
</g>
<!-- Node10 -->
<g id="node10" class="node">
<title>Node10</title>
<g id="a_node10"><a xlink:title=" ">
<polygon fill="white" stroke="#bfbfbf" points="412.5,-224.5 412.5,-243.5 457.5,-243.5 457.5,-224.5 412.5,-224.5"/>
<text text-anchor="middle" x="435" y="-231.5" font-family="Helvetica,sans-Serif" font-size="10.00">utility</text>
</a>
</g>
</g>
<!-- Node6&#45;&gt;Node10 -->
<g id="edge11" class="edge">
<title>Node6&#45;&gt;Node10</title>
<path fill="none" stroke="midnightblue" d="M496.27,-280.32C485.16,-272.11 468.26,-259.6 455.02,-249.81"/>
<polygon fill="midnightblue" stroke="midnightblue" points="457.06,-246.97 446.94,-243.83 452.9,-252.59 457.06,-246.97"/>
</g>
<!-- Node6&#45;&gt;Node11 -->
<g id="edge13" class="edge">
<title>Node6&#45;&gt;Node11</title>
<path fill="none" stroke="midnightblue" d="M554.75,-280.86C609.35,-271.35 699.75,-255.6 759.1,-245.26"/>
<polygon fill="midnightblue" stroke="midnightblue" points="759.83,-248.69 769.08,-243.52 758.63,-241.79 759.83,-248.69"/>
</g>
<!-- Node13 -->
<g id="node13" class="node">
<title>Node13</title>
<g id="a_node13"><a xlink:title=" ">
<polygon fill="white" stroke="#bfbfbf" points="855.5,-112.5 855.5,-131.5 902.5,-131.5 902.5,-112.5 855.5,-112.5"/>
<text text-anchor="middle" x="879" y="-119.5" font-family="Helvetica,sans-Serif" font-size="10.00">vector</text>
</a>
</g>
</g>
<!-- Node6&#45;&gt;Node13 -->
<g id="edge16" class="edge">
<title>Node6&#45;&gt;Node13</title>
<path fill="none" stroke="midnightblue" d="M552.62,-280.48C576.96,-273.93 606.26,-262.72 627,-244 655.03,-218.69 635.1,-191.07 665,-168 692.77,-146.57 791.93,-132.63 844.97,-126.54"/>
<polygon fill="midnightblue" stroke="midnightblue" points="845.68,-129.98 855.23,-125.39 844.91,-123.02 845.68,-129.98"/>
</g>
<!-- Node14 -->
<g id="node14" class="node">
<title>Node14</title>
<g id="a_node14"><a xlink:title=" ">
<polygon fill="white" stroke="#bfbfbf" points="476,-224.5 476,-243.5 540,-243.5 540,-224.5 476,-224.5"/>
<text text-anchor="middle" x="508" y="-231.5" font-family="Helvetica,sans-Serif" font-size="10.00">algorithm</text>
</a>
</g>
</g>
<!-- Node6&#45;&gt;Node14 -->
<g id="edge17" class="edge">
<title>Node6&#45;&gt;Node14</title>
<path fill="none" stroke="midnightblue" d="M508,-280.08C508,-273.01 508,-262.86 508,-253.99"/>
<polygon fill="midnightblue" stroke="midnightblue" points="511.5,-253.75 508,-243.75 504.5,-253.75 511.5,-253.75"/>
</g>
<!-- Node15 -->
<g id="node15" class="node">
<title>Node15</title>
<g id="a_node15"><a xlink:title=" ">
<polygon fill="white" stroke="#bfbfbf" points="558,-224.5 558,-243.5 618,-243.5 618,-224.5 558,-224.5"/>
<text text-anchor="middle" x="588" y="-231.5" font-family="Helvetica,sans-Serif" font-size="10.00">iostream</text>
</a>
</g>
</g>
<!-- Node6&#45;&gt;Node15 -->
<g id="edge19" class="edge">
<title>Node6&#45;&gt;Node15</title>
<path fill="none" stroke="midnightblue" d="M520.85,-280.32C533.22,-271.98 552.13,-259.21 566.74,-249.35"/>
<polygon fill="midnightblue" stroke="midnightblue" points="568.85,-252.15 575.18,-243.65 564.93,-246.35 568.85,-252.15"/>
</g>
<!-- Node11&#45;&gt;Node4 -->
<g id="edge15" class="edge">
<title>Node11&#45;&gt;Node4</title>
<path fill="none" stroke="midnightblue" d="M798.67,-224.44C778.68,-215.6 747.26,-201.69 724.44,-191.59"/>
<polygon fill="midnightblue" stroke="midnightblue" points="725.8,-188.36 715.24,-187.52 722.97,-194.76 725.8,-188.36"/>
</g>
<!-- Node12 -->
<g id="node12" class="node">
<title>Node12</title>
<g id="a_node12"><a xlink:title=" ">
<polygon fill="white" stroke="#bfbfbf" points="736.5,-168.5 736.5,-187.5 801.5,-187.5 801.5,-168.5 736.5,-168.5"/>
<text text-anchor="middle" x="769" y="-175.5" font-family="Helvetica,sans-Serif" font-size="10.00">stdexcept</text>
</a>
</g>
</g>
<!-- Node11&#45;&gt;Node12 -->
<g id="edge14" class="edge">
<title>Node11&#45;&gt;Node12</title>
<path fill="none" stroke="midnightblue" d="M809.91,-224.08C802.84,-216.3 792.41,-204.8 783.85,-195.37"/>
<polygon fill="midnightblue" stroke="midnightblue" points="786.25,-192.8 776.94,-187.75 781.07,-197.51 786.25,-192.8"/>
</g>
<!-- Node16&#45;&gt;Node3 -->
<g id="edge21" class="edge">
<title>Node16&#45;&gt;Node3</title>
<path fill="none" stroke="midnightblue" d="M848.79,-392.38C858.83,-369.05 885.91,-302.51 895,-244 896.36,-235.22 898.89,-231.99 895,-224 883.63,-200.66 860.79,-211.13 849,-188 833.66,-157.89 828.39,-140.2 847,-112 895.24,-38.92 1005.89,-18.72 1063.93,-13.13"/>
<polygon fill="midnightblue" stroke="midnightblue" points="1064.47,-16.6 1074.13,-12.25 1063.86,-9.63 1064.47,-16.6"/>
</g>
<!-- Node16&#45;&gt;Node17 -->
<g id="edge22" class="edge">
<title>Node16&#45;&gt;Node17</title>
<path fill="none" stroke="midnightblue" d="M884.14,-392.44C927.23,-383.02 996.56,-367.87 1043.17,-357.68"/>
<polygon fill="midnightblue" stroke="midnightblue" points="1044.02,-361.07 1053.05,-355.52 1042.53,-354.23 1044.02,-361.07"/>
</g>
<!-- Node17&#45;&gt;Node3 -->
<g id="edge23" class="edge">
<title>Node17&#45;&gt;Node3</title>
<path fill="none" stroke="midnightblue" d="M1171.73,-338.07C1330.71,-323.17 1672,-285.32 1672,-235 1672,-235 1672,-235 1672,-121 1672,-84 1652.62,-73.45 1620,-56 1536.44,-11.3 1241.92,-9.63 1137.8,-10.49"/>
<polygon fill="midnightblue" stroke="midnightblue" points="1137.73,-6.99 1127.76,-10.59 1137.8,-13.99 1137.73,-6.99"/>
</g>
<!-- Node18 -->
<g id="node18" class="node">
<title>Node18</title>
<g id="a_node18"><a xlink:href="lib_2Ray_2sources_2Vector_2Vector2_8hpp.html" target="_top" xlink:title=" ">
<polygon fill="white" stroke="black" points="959,-112.5 959,-131.5 1067,-131.5 1067,-112.5 959,-112.5"/>
<text text-anchor="middle" x="1013" y="-119.5" font-family="Helvetica,sans-Serif" font-size="10.00">Vector/Vector2.hpp</text>
</a>
</g>
</g>
<!-- Node17&#45;&gt;Node18 -->
<g id="edge24" class="edge">
<title>Node17&#45;&gt;Node18</title>
<path fill="none" stroke="midnightblue" d="M1088.9,-336.3C1077.23,-303.49 1035.73,-186.88 1019.54,-141.38"/>
<polygon fill="midnightblue" stroke="midnightblue" points="1022.81,-140.13 1016.16,-131.88 1016.22,-142.48 1022.81,-140.13"/>
</g>
<!-- Node19 -->
<g id="node19" class="node">
<title>Node19</title>
<g id="a_node19"><a xlink:href="IDrawable_8hpp.html" target="_top" xlink:title=" ">
<polygon fill="white" stroke="black" points="1110,-280.5 1110,-299.5 1252,-299.5 1252,-280.5 1110,-280.5"/>
<text text-anchor="middle" x="1181" y="-287.5" font-family="Helvetica,sans-Serif" font-size="10.00">Drawables/IDrawable.hpp</text>
</a>
</g>
</g>
<!-- Node17&#45;&gt;Node19 -->
<g id="edge26" class="edge">
<title>Node17&#45;&gt;Node19</title>
<path fill="none" stroke="midnightblue" d="M1106.3,-336.32C1120.18,-327.9 1141.49,-314.97 1157.8,-305.07"/>
<polygon fill="midnightblue" stroke="midnightblue" points="1160,-307.83 1166.74,-299.65 1156.37,-301.85 1160,-307.83"/>
</g>
<!-- Node30 -->
<g id="node30" class="node">
<title>Node30</title>
<g id="a_node30"><a xlink:href="Color_8hpp.html" target="_top" xlink:title=" ">
<polygon fill="white" stroke="black" points="1582,-168.5 1582,-187.5 1644,-187.5 1644,-168.5 1582,-168.5"/>
<text text-anchor="middle" x="1613" y="-175.5" font-family="Helvetica,sans-Serif" font-size="10.00">Color.hpp</text>
</a>
</g>
</g>
<!-- Node17&#45;&gt;Node30 -->
<g id="edge53" class="edge">
<title>Node17&#45;&gt;Node30</title>
<path fill="none" stroke="midnightblue" d="M1126.84,-336.49C1161.15,-327.93 1214.96,-314.02 1261,-300 1379.58,-263.88 1518.09,-213.95 1580.08,-191.19"/>
<polygon fill="midnightblue" stroke="midnightblue" points="1581.53,-194.39 1589.71,-187.65 1579.11,-187.82 1581.53,-194.39"/>
</g>
<!-- Node18&#45;&gt;Node3 -->
<g id="edge25" class="edge">
<title>Node18&#45;&gt;Node3</title>
<path fill="none" stroke="midnightblue" d="M1012.26,-112.14C1011.59,-98.76 1012.16,-73.14 1024,-56 1034.13,-41.34 1050.72,-30.76 1065.91,-23.56"/>
<polygon fill="midnightblue" stroke="midnightblue" points="1067.38,-26.74 1075.12,-19.51 1064.56,-20.34 1067.38,-26.74"/>
</g>
<!-- Node20 -->
<g id="node20" class="node">
<title>Node20</title>
<g id="a_node20"><a xlink:href="Window_8hpp.html" target="_top" xlink:title=" ">
<polygon fill="white" stroke="black" points="1174,-224.5 1174,-243.5 1250,-243.5 1250,-224.5 1174,-224.5"/>
<text text-anchor="middle" x="1212" y="-231.5" font-family="Helvetica,sans-Serif" font-size="10.00">Window.hpp</text>
</a>
</g>
</g>
<!-- Node19&#45;&gt;Node20 -->
<g id="edge27" class="edge">
<title>Node19&#45;&gt;Node20</title>
<path fill="none" stroke="midnightblue" d="M1186.12,-280.08C1190.41,-272.61 1196.66,-261.72 1201.94,-252.52"/>
<polygon fill="midnightblue" stroke="midnightblue" points="1205.03,-254.17 1206.98,-243.75 1198.96,-250.68 1205.03,-254.17"/>
</g>
<!-- Node20&#45;&gt;Node3 -->
<g id="edge28" class="edge">
<title>Node20&#45;&gt;Node3</title>
<path fill="none" stroke="midnightblue" d="M1250.45,-233.09C1303.89,-231.79 1402.47,-224.13 1477,-188 1536.38,-159.21 1589.25,-104.96 1545,-56 1517.87,-25.99 1239.48,-14.99 1137.86,-11.96"/>
<polygon fill="midnightblue" stroke="midnightblue" points="1137.86,-8.46 1127.76,-11.67 1137.65,-15.46 1137.86,-8.46"/>
</g>
<!-- Node20&#45;&gt;Node4 -->
<g id="edge29" class="edge">
<title>Node20&#45;&gt;Node4</title>
<path fill="none" stroke="midnightblue" d="M1173.71,-231.8C1093.04,-228.76 899.63,-218.83 728.22,-187.66"/>
<polygon fill="midnightblue" stroke="midnightblue" points="728.73,-184.19 718.26,-185.82 727.46,-191.08 728.73,-184.19"/>
</g>
<!-- Node20&#45;&gt;Node18 -->
<g id="edge31" class="edge">
<title>Node20&#45;&gt;Node18</title>
<path fill="none" stroke="midnightblue" d="M1175.81,-224.48C1149.19,-217.24 1112.8,-205.25 1084,-188 1061.95,-174.79 1040.76,-153.99 1027.37,-139.49"/>
<polygon fill="midnightblue" stroke="midnightblue" points="1029.72,-136.87 1020.43,-131.78 1024.52,-141.56 1029.72,-136.87"/>
</g>
<!-- Node21 -->
<g id="node21" class="node">
<title>Node21</title>
<g id="a_node21"><a xlink:title=" ">
<polygon fill="white" stroke="#bfbfbf" points="1242,-168.5 1242,-187.5 1298,-187.5 1298,-168.5 1242,-168.5"/>
<text text-anchor="middle" x="1270" y="-175.5" font-family="Helvetica,sans-Serif" font-size="10.00">optional</text>
</a>
</g>
</g>
<!-- Node20&#45;&gt;Node21 -->
<g id="edge30" class="edge">
<title>Node20&#45;&gt;Node21</title>
<path fill="none" stroke="midnightblue" d="M1221.32,-224.32C1229.89,-216.34 1242.81,-204.31 1253.19,-194.65"/>
<polygon fill="midnightblue" stroke="midnightblue" points="1255.58,-197.21 1260.51,-187.83 1250.81,-192.09 1255.58,-197.21"/>
</g>
<!-- Node22 -->
<g id="node22" class="node">
<title>Node22</title>
<g id="a_node22"><a xlink:href="lib_2Ray_2sources_2Vector_2Vector3_8hpp.html" target="_top" xlink:title=" ">
<polygon fill="white" stroke="black" points="1422,-112.5 1422,-131.5 1530,-131.5 1530,-112.5 1422,-112.5"/>
<text text-anchor="middle" x="1476" y="-119.5" font-family="Helvetica,sans-Serif" font-size="10.00">Vector/Vector3.hpp</text>
</a>
</g>
</g>
<!-- Node20&#45;&gt;Node22 -->
<g id="edge32" class="edge">
<title>Node20&#45;&gt;Node22</title>
<path fill="none" stroke="midnightblue" d="M1250.19,-228.21C1315.18,-219.74 1441.81,-201.71 1457,-188 1469.94,-176.33 1474.26,-156.38 1475.61,-141.66"/>
<polygon fill="midnightblue" stroke="midnightblue" points="1479.11,-141.81 1476.16,-131.64 1472.12,-141.43 1479.11,-141.81"/>
</g>
<!-- Node23 -->
<g id="node23" class="node">
<title>Node23</title>
<g id="a_node23"><a xlink:href="Keyboard_8hpp.html" target="_top" xlink:title=" ">
<polygon fill="white" stroke="black" points="858,-168.5 858,-187.5 998,-187.5 998,-168.5 858,-168.5"/>
<text text-anchor="middle" x="928" y="-175.5" font-family="Helvetica,sans-Serif" font-size="10.00">Controllers/Keyboard.hpp</text>
</a>
</g>
</g>
<!-- Node20&#45;&gt;Node23 -->
<g id="edge34" class="edge">
<title>Node20&#45;&gt;Node23</title>
<path fill="none" stroke="midnightblue" d="M1173.99,-225.77C1124.9,-216.44 1039.11,-200.13 982.93,-189.44"/>
<polygon fill="midnightblue" stroke="midnightblue" points="983.27,-185.95 972.8,-187.52 981.97,-192.82 983.27,-185.95"/>
</g>
<!-- Node24 -->
<g id="node24" class="node">
<title>Node24</title>
<g id="a_node24"><a xlink:href="Camera2D_8hpp.html" target="_top" xlink:title=" ">
<polygon fill="white" stroke="black" points="1092.5,-168.5 1092.5,-187.5 1223.5,-187.5 1223.5,-168.5 1092.5,-168.5"/>
<text text-anchor="middle" x="1158" y="-175.5" font-family="Helvetica,sans-Serif" font-size="10.00">Camera/Camera2D.hpp</text>
</a>
</g>
</g>
<!-- Node20&#45;&gt;Node24 -->
<g id="edge37" class="edge">
<title>Node20&#45;&gt;Node24</title>
<path fill="none" stroke="midnightblue" d="M1203.08,-224.08C1195.22,-216.22 1183.57,-204.57 1174.08,-195.08"/>
<polygon fill="midnightblue" stroke="midnightblue" points="1176.3,-192.35 1166.75,-187.75 1171.35,-197.3 1176.3,-192.35"/>
</g>
<!-- Node27 -->
<g id="node27" class="node">
<title>Node27</title>
<g id="a_node27"><a xlink:href="Camera3D_8hpp.html" target="_top" xlink:title=" ">
<polygon fill="white" stroke="black" points="1316.5,-168.5 1316.5,-187.5 1447.5,-187.5 1447.5,-168.5 1316.5,-168.5"/>
<text text-anchor="middle" x="1382" y="-175.5" font-family="Helvetica,sans-Serif" font-size="10.00">Camera/Camera3D.hpp</text>
</a>
</g>
</g>
<!-- Node20&#45;&gt;Node27 -->
<g id="edge43" class="edge">
<title>Node20&#45;&gt;Node27</title>
<path fill="none" stroke="midnightblue" d="M1238.94,-224.44C1267.66,-215.32 1313.33,-200.81 1345.32,-190.65"/>
<polygon fill="midnightblue" stroke="midnightblue" points="1346.72,-193.88 1355.19,-187.52 1344.6,-187.21 1346.72,-193.88"/>
</g>
<!-- Node20&#45;&gt;Node30 -->
<g id="edge51" class="edge">
<title>Node20&#45;&gt;Node30</title>
<path fill="none" stroke="midnightblue" d="M1250.06,-228.54C1328.82,-219.25 1507.36,-197.88 1568,-188 1569.1,-187.82 1570.22,-187.63 1571.34,-187.44"/>
<polygon fill="midnightblue" stroke="midnightblue" points="1572.37,-190.81 1581.58,-185.58 1571.12,-183.92 1572.37,-190.81"/>
</g>
<!-- Node22&#45;&gt;Node3 -->
<g id="edge33" class="edge">
<title>Node22&#45;&gt;Node3</title>
<path fill="none" stroke="midnightblue" d="M1491.88,-112.37C1513.21,-99.7 1546.54,-75.48 1529,-56 1503.01,-27.14 1236.9,-15.47 1137.87,-12.11"/>
<polygon fill="midnightblue" stroke="midnightblue" points="1137.83,-8.61 1127.72,-11.78 1137.6,-15.6 1137.83,-8.61"/>
</g>
<!-- Node23&#45;&gt;Node3 -->
<g id="edge35" class="edge">
<title>Node23&#45;&gt;Node3</title>
<path fill="none" stroke="midnightblue" d="M929.49,-168.4C932.04,-155.36 938.17,-130.17 950,-112 978.47,-68.27 1033.21,-38.88 1068.37,-23.56"/>
<polygon fill="midnightblue" stroke="midnightblue" points="1069.88,-26.72 1077.73,-19.61 1067.16,-20.27 1069.88,-26.72"/>
</g>
<!-- Node23&#45;&gt;Node13 -->
<g id="edge36" class="edge">
<title>Node23&#45;&gt;Node13</title>
<path fill="none" stroke="midnightblue" d="M919.91,-168.08C912.84,-160.3 902.41,-148.8 893.85,-139.37"/>
<polygon fill="midnightblue" stroke="midnightblue" points="896.25,-136.8 886.94,-131.75 891.07,-141.51 896.25,-136.8"/>
</g>
<!-- Node24&#45;&gt;Node3 -->
<g id="edge38" class="edge">
<title>Node24&#45;&gt;Node3</title>
<path fill="none" stroke="midnightblue" d="M1144.32,-168.49C1121.31,-153.26 1075.65,-118.9 1058,-76 1050.36,-57.42 1066.05,-38.52 1080.58,-25.93"/>
<polygon fill="midnightblue" stroke="midnightblue" points="1082.8,-28.63 1088.37,-19.62 1078.4,-23.19 1082.8,-28.63"/>
</g>
<!-- Node24&#45;&gt;Node18 -->
<g id="edge39" class="edge">
<title>Node24&#45;&gt;Node18</title>
<path fill="none" stroke="midnightblue" d="M1135.02,-168.44C1110.84,-159.44 1072.58,-145.19 1045.35,-135.05"/>
<polygon fill="midnightblue" stroke="midnightblue" points="1046.46,-131.73 1035.87,-131.52 1044.02,-138.29 1046.46,-131.73"/>
</g>
<!-- Node25 -->
<g id="node25" class="node">
<title>Node25</title>
<g id="a_node25"><a xlink:href="ICamera_8hpp.html" target="_top" xlink:title=" ">
<polygon fill="white" stroke="black" points="1123,-112.5 1123,-131.5 1243,-131.5 1243,-112.5 1123,-112.5"/>
<text text-anchor="middle" x="1183" y="-119.5" font-family="Helvetica,sans-Serif" font-size="10.00">Camera/ICamera.hpp</text>
</a>
</g>
</g>
<!-- Node24&#45;&gt;Node25 -->
<g id="edge40" class="edge">
<title>Node24&#45;&gt;Node25</title>
<path fill="none" stroke="midnightblue" d="M1162.13,-168.08C1165.51,-160.77 1170.42,-150.18 1174.62,-141.1"/>
<polygon fill="midnightblue" stroke="midnightblue" points="1177.92,-142.3 1178.95,-131.75 1171.57,-139.36 1177.92,-142.3"/>
</g>
<!-- Node26 -->
<g id="node26" class="node">
<title>Node26</title>
<g id="a_node26"><a xlink:href="Matrix_8hpp.html" target="_top" xlink:title=" ">
<polygon fill="white" stroke="black" points="1066.5,-56.5 1066.5,-75.5 1135.5,-75.5 1135.5,-56.5 1066.5,-56.5"/>
<text text-anchor="middle" x="1101" y="-63.5" font-family="Helvetica,sans-Serif" font-size="10.00">Matrix.hpp</text>
</a>
</g>
</g>
<!-- Node25&#45;&gt;Node26 -->
<g id="edge41" class="edge">
<title>Node25&#45;&gt;Node26</title>
<path fill="none" stroke="midnightblue" d="M1169.83,-112.32C1157.15,-103.98 1137.77,-91.21 1122.79,-81.35"/>
<polygon fill="midnightblue" stroke="midnightblue" points="1124.42,-78.23 1114.14,-75.65 1120.57,-84.08 1124.42,-78.23"/>
</g>
<!-- Node26&#45;&gt;Node3 -->
<g id="edge42" class="edge">
<title>Node26&#45;&gt;Node3</title>
<path fill="none" stroke="midnightblue" d="M1101,-56.08C1101,-49.01 1101,-38.86 1101,-29.99"/>
<polygon fill="midnightblue" stroke="midnightblue" points="1104.5,-29.75 1101,-19.75 1097.5,-29.75 1104.5,-29.75"/>
</g>
<!-- Node27&#45;&gt;Node3 -->
<g id="edge44" class="edge">
<title>Node27&#45;&gt;Node3</title>
<path fill="none" stroke="midnightblue" d="M1364.87,-168.42C1318.16,-145.02 1191.5,-81.45 1183,-76 1159.3,-60.81 1134.24,-40.19 1118.15,-26.28"/>
<polygon fill="midnightblue" stroke="midnightblue" points="1120.45,-23.63 1110.62,-19.68 1115.84,-28.9 1120.45,-23.63"/>
</g>
<!-- Node27&#45;&gt;Node22 -->
<g id="edge45" class="edge">
<title>Node27&#45;&gt;Node22</title>
<path fill="none" stroke="midnightblue" d="M1397.1,-168.32C1411.9,-159.82 1434.69,-146.73 1451.98,-136.8"/>
<polygon fill="midnightblue" stroke="midnightblue" points="1454.01,-139.67 1460.93,-131.65 1450.52,-133.6 1454.01,-139.67"/>
</g>
<!-- Node27&#45;&gt;Node25 -->
<g id="edge46" class="edge">
<title>Node27&#45;&gt;Node25</title>
<path fill="none" stroke="midnightblue" d="M1350.47,-168.44C1316.41,-159.2 1261.99,-144.44 1224.48,-134.26"/>
<polygon fill="midnightblue" stroke="midnightblue" points="1224.95,-130.76 1214.38,-131.52 1223.12,-137.51 1224.95,-130.76"/>
</g>
<!-- Node28 -->
<g id="node28" class="node">
<title>Node28</title>
<g id="a_node28"><a xlink:href="CameraProjection_8hpp.html" target="_top" xlink:title=" ">
<polygon fill="white" stroke="black" points="1192,-56.5 1192,-75.5 1358,-75.5 1358,-56.5 1192,-56.5"/>
<text text-anchor="middle" x="1275" y="-63.5" font-family="Helvetica,sans-Serif" font-size="10.00">Camera/CameraProjection.hpp</text>
</a>
</g>
</g>
<!-- Node27&#45;&gt;Node28 -->
<g id="edge47" class="edge">
<title>Node27&#45;&gt;Node28</title>
<path fill="none" stroke="midnightblue" d="M1373.6,-168.37C1355.71,-149.97 1313.59,-106.67 1290.61,-83.05"/>
<polygon fill="midnightblue" stroke="midnightblue" points="1292.84,-80.32 1283.36,-75.59 1287.82,-85.2 1292.84,-80.32"/>
</g>
<!-- Node29 -->
<g id="node29" class="node">
<title>Node29</title>
<g id="a_node29"><a xlink:href="CameraMode_8hpp.html" target="_top" xlink:title=" ">
<polygon fill="white" stroke="black" points="1376,-56.5 1376,-75.5 1520,-75.5 1520,-56.5 1376,-56.5"/>
<text text-anchor="middle" x="1448" y="-63.5" font-family="Helvetica,sans-Serif" font-size="10.00">Camera/CameraMode.hpp</text>
</a>
</g>
</g>
<!-- Node27&#45;&gt;Node29 -->
<g id="edge49" class="edge">
<title>Node27&#45;&gt;Node29</title>
<path fill="none" stroke="midnightblue" d="M1385.45,-168.28C1390.66,-155.51 1401.18,-131.15 1413,-112 1419.17,-102 1427.15,-91.59 1433.93,-83.31"/>
<polygon fill="midnightblue" stroke="midnightblue" points="1436.69,-85.46 1440.43,-75.55 1431.33,-80.97 1436.69,-85.46"/>
</g>
<!-- Node28&#45;&gt;Node3 -->
<g id="edge48" class="edge">
<title>Node28&#45;&gt;Node3</title>
<path fill="none" stroke="midnightblue" d="M1247.43,-56.44C1217.64,-47.2 1170.05,-32.43 1137.25,-22.25"/>
<polygon fill="midnightblue" stroke="midnightblue" points="1138.17,-18.87 1127.59,-19.25 1136.1,-25.56 1138.17,-18.87"/>
</g>
<!-- Node29&#45;&gt;Node3 -->
<g id="edge50" class="edge">
<title>Node29&#45;&gt;Node3</title>
<path fill="none" stroke="midnightblue" d="M1393.02,-56.44C1321.48,-45.31 1198.45,-26.16 1137.46,-16.67"/>
<polygon fill="midnightblue" stroke="midnightblue" points="1137.94,-13.21 1127.52,-15.13 1136.87,-20.12 1137.94,-13.21"/>
</g>
<!-- Node30&#45;&gt;Node3 -->
<g id="edge52" class="edge">
<title>Node30&#45;&gt;Node3</title>
<path fill="none" stroke="midnightblue" d="M1615.26,-168.45C1620.54,-146.27 1631.04,-86.51 1600,-56 1567.21,-23.76 1248.13,-14.08 1138.08,-11.69"/>
<polygon fill="midnightblue" stroke="midnightblue" points="1137.88,-8.18 1127.8,-11.47 1137.73,-15.18 1137.88,-8.18"/>
</g>
</g>
</svg>
