<?xml version="1.0" encoding="UTF-8" standalone="no"?>
<!DOCTYPE svg PUBLIC "-//W3C//DTD SVG 1.1//EN"
 "http://www.w3.org/Graphics/SVG/1.1/DTD/svg11.dtd">
<!-- Generated by graphviz version 2.43.0 (0)
 -->
<!-- Title: lib/Ray/sources/Drawables/Image.hpp Pages: 1 -->
<svg width="1959pt" height="106pt"
 viewBox="0.00 0.00 1958.50 106.00" xmlns="http://www.w3.org/2000/svg" xmlns:xlink="http://www.w3.org/1999/xlink">
<g id="graph0" class="graph" transform="scale(1 1) rotate(0) translate(4 102)">
<title>lib/Ray/sources/Drawables/Image.hpp</title>
<polygon fill="white" stroke="transparent" points="-4,4 -4,-102 1954.5,-102 1954.5,4 -4,4"/>
<!-- Node1 -->
<g id="node1" class="node">
<title>Node1</title>
<g id="a_node1"><a xlink:title=" ">
<polygon fill="#bfbfbf" stroke="black" points="902,-67.5 902,-97.5 1048,-97.5 1048,-67.5 902,-67.5"/>
<text text-anchor="start" x="910" y="-85.5" font-family="Helvetica,sans-Serif" font-size="10.00">lib/Ray/sources/Drawables</text>
<text text-anchor="middle" x="975" y="-74.5" font-family="Helvetica,sans-Serif" font-size="10.00">/Image.hpp</text>
</a>
</g>
</g>
<!-- Node2 -->
<g id="node2" class="node">
<title>Node2</title>
<g id="a_node2"><a xlink:href="2D_2Circle_8cpp.html" target="_top" xlink:title=" ">
<polygon fill="white" stroke="black" points="0,-0.5 0,-30.5 146,-30.5 146,-0.5 0,-0.5"/>
<text text-anchor="start" x="8" y="-18.5" font-family="Helvetica,sans-Serif" font-size="10.00">lib/Ray/sources/Drawables</text>
<text text-anchor="middle" x="73" y="-7.5" font-family="Helvetica,sans-Serif" font-size="10.00">/2D/Circle.cpp</text>
</a>
</g>
</g>
<!-- Node1&#45;&gt;Node2 -->
<g id="edge1" class="edge">
<title>Node1&#45;&gt;Node2</title>
<path fill="none" stroke="midnightblue" d="M891.4,-79.48C742.77,-75.2 422.99,-62.84 155,-31 152.13,-30.66 149.21,-30.28 146.26,-29.88"/>
<polygon fill="midnightblue" stroke="midnightblue" points="891.71,-82.99 901.8,-79.78 891.9,-76 891.71,-82.99"/>
</g>
<!-- Node3 -->
<g id="node3" class="node">
<title>Node3</title>
<g id="a_node3"><a xlink:href="2D_2Line_8cpp.html" target="_top" xlink:title=" ">
<polygon fill="white" stroke="black" points="164,-0.5 164,-30.5 310,-30.5 310,-0.5 164,-0.5"/>
<text text-anchor="start" x="172" y="-18.5" font-family="Helvetica,sans-Serif" font-size="10.00">lib/Ray/sources/Drawables</text>
<text text-anchor="middle" x="237" y="-7.5" font-family="Helvetica,sans-Serif" font-size="10.00">/2D/Line.cpp</text>
</a>
</g>
</g>
<!-- Node1&#45;&gt;Node3 -->
<g id="edge2" class="edge">
<title>Node1&#45;&gt;Node3</title>
<path fill="none" stroke="midnightblue" d="M891.71,-77.71C766.88,-71.45 524.01,-56.95 319,-31 316.13,-30.64 313.21,-30.24 310.26,-29.82"/>
<polygon fill="midnightblue" stroke="midnightblue" points="891.8,-81.22 901.96,-78.22 892.14,-74.23 891.8,-81.22"/>
</g>
<!-- Node4 -->
<g id="node4" class="node">
<title>Node4</title>
<g id="a_node4"><a xlink:href="2D_2Point_8cpp.html" target="_top" xlink:title=" ">
<polygon fill="white" stroke="black" points="328,-0.5 328,-30.5 474,-30.5 474,-0.5 328,-0.5"/>
<text text-anchor="start" x="336" y="-18.5" font-family="Helvetica,sans-Serif" font-size="10.00">lib/Ray/sources/Drawables</text>
<text text-anchor="middle" x="401" y="-7.5" font-family="Helvetica,sans-Serif" font-size="10.00">/2D/Point.cpp</text>
</a>
</g>
</g>
<!-- Node1&#45;&gt;Node4 -->
<g id="edge3" class="edge">
<title>Node1&#45;&gt;Node4</title>
<path fill="none" stroke="midnightblue" d="M891.72,-74.81C793.7,-66.51 626.12,-50.97 483,-31 480.14,-30.6 477.22,-30.17 474.28,-29.73"/>
<polygon fill="midnightblue" stroke="midnightblue" points="891.6,-78.31 901.86,-75.67 892.19,-71.34 891.6,-78.31"/>
</g>
<!-- Node5 -->
<g id="node5" class="node">
<title>Node5</title>
<g id="a_node5"><a xlink:href="Rectangle_8cpp.html" target="_top" xlink:title=" ">
<polygon fill="white" stroke="black" points="492,-0.5 492,-30.5 638,-30.5 638,-0.5 492,-0.5"/>
<text text-anchor="start" x="500" y="-18.5" font-family="Helvetica,sans-Serif" font-size="10.00">lib/Ray/sources/Drawables</text>
<text text-anchor="middle" x="565" y="-7.5" font-family="Helvetica,sans-Serif" font-size="10.00">/2D/Rectangle.cpp</text>
</a>
</g>
</g>
<!-- Node1&#45;&gt;Node5 -->
<g id="edge4" class="edge">
<title>Node1&#45;&gt;Node5</title>
<path fill="none" stroke="midnightblue" d="M891.99,-69.24C825.63,-59.32 730.26,-44.77 647,-31 644.15,-30.53 641.24,-30.04 638.3,-29.55"/>
<polygon fill="midnightblue" stroke="midnightblue" points="891.57,-72.72 901.97,-70.73 892.6,-65.79 891.57,-72.72"/>
</g>
<!-- Node6 -->
<g id="node6" class="node">
<title>Node6</title>
<g id="a_node6"><a xlink:href="Text_8cpp.html" target="_top" xlink:title=" ">
<polygon fill="white" stroke="black" points="656,-0.5 656,-30.5 802,-30.5 802,-0.5 656,-0.5"/>
<text text-anchor="start" x="664" y="-18.5" font-family="Helvetica,sans-Serif" font-size="10.00">lib/Ray/sources/Drawables</text>
<text text-anchor="middle" x="729" y="-7.5" font-family="Helvetica,sans-Serif" font-size="10.00">/2D/Text.cpp</text>
</a>
</g>
</g>
<!-- Node1&#45;&gt;Node6 -->
<g id="edge5" class="edge">
<title>Node1&#45;&gt;Node6</title>
<path fill="none" stroke="midnightblue" d="M912.24,-64.92C872.1,-54.31 820.58,-40.7 782.4,-30.61"/>
<polygon fill="midnightblue" stroke="midnightblue" points="911.36,-68.31 921.92,-67.48 913.15,-61.54 911.36,-68.31"/>
</g>
<!-- Node7 -->
<g id="node7" class="node">
<title>Node7</title>
<g id="a_node7"><a xlink:href="2D_2Triangle_8cpp.html" target="_top" xlink:title=" ">
<polygon fill="white" stroke="black" points="820,-0.5 820,-30.5 966,-30.5 966,-0.5 820,-0.5"/>
<text text-anchor="start" x="828" y="-18.5" font-family="Helvetica,sans-Serif" font-size="10.00">lib/Ray/sources/Drawables</text>
<text text-anchor="middle" x="893" y="-7.5" font-family="Helvetica,sans-Serif" font-size="10.00">/2D/Triangle.cpp</text>
</a>
</g>
</g>
<!-- Node1&#45;&gt;Node7 -->
<g id="edge6" class="edge">
<title>Node1&#45;&gt;Node7</title>
<path fill="none" stroke="midnightblue" d="M949.35,-61.17C936.81,-51.23 922.03,-39.51 910.76,-30.58"/>
<polygon fill="midnightblue" stroke="midnightblue" points="947.2,-63.93 957.21,-67.4 951.54,-58.44 947.2,-63.93"/>
</g>
<!-- Node8 -->
<g id="node8" class="node">
<title>Node8</title>
<g id="a_node8"><a xlink:href="ADrawable2D_8cpp.html" target="_top" xlink:title=" ">
<polygon fill="white" stroke="black" points="984,-0.5 984,-30.5 1130,-30.5 1130,-0.5 984,-0.5"/>
<text text-anchor="start" x="992" y="-18.5" font-family="Helvetica,sans-Serif" font-size="10.00">lib/Ray/sources/Drawables</text>
<text text-anchor="middle" x="1057" y="-7.5" font-family="Helvetica,sans-Serif" font-size="10.00">/ADrawable2D.cpp</text>
</a>
</g>
</g>
<!-- Node1&#45;&gt;Node8 -->
<g id="edge7" class="edge">
<title>Node1&#45;&gt;Node8</title>
<path fill="none" stroke="midnightblue" d="M1000.65,-61.17C1013.19,-51.23 1027.97,-39.51 1039.24,-30.58"/>
<polygon fill="midnightblue" stroke="midnightblue" points="998.46,-58.44 992.79,-67.4 1002.8,-63.93 998.46,-58.44"/>
</g>
<!-- Node9 -->
<g id="node9" class="node">
<title>Node9</title>
<g id="a_node9"><a xlink:href="Image_8cpp.html" target="_top" xlink:title=" ">
<polygon fill="white" stroke="black" points="1148,-0.5 1148,-30.5 1294,-30.5 1294,-0.5 1148,-0.5"/>
<text text-anchor="start" x="1156" y="-18.5" font-family="Helvetica,sans-Serif" font-size="10.00">lib/Ray/sources/Drawables</text>
<text text-anchor="middle" x="1221" y="-7.5" font-family="Helvetica,sans-Serif" font-size="10.00">/Image.cpp</text>
</a>
</g>
</g>
<!-- Node1&#45;&gt;Node9 -->
<g id="edge8" class="edge">
<title>Node1&#45;&gt;Node9</title>
<path fill="none" stroke="midnightblue" d="M1037.76,-64.92C1077.9,-54.31 1129.42,-40.7 1167.6,-30.61"/>
<polygon fill="midnightblue" stroke="midnightblue" points="1036.85,-61.54 1028.08,-67.48 1038.64,-68.31 1036.85,-61.54"/>
</g>
<!-- Node10 -->
<g id="node10" class="node">
<title>Node10</title>
<g id="a_node10"><a xlink:href="Texture_8cpp.html" target="_top" xlink:title=" ">
<polygon fill="white" stroke="black" points="1312,-0.5 1312,-30.5 1458,-30.5 1458,-0.5 1312,-0.5"/>
<text text-anchor="start" x="1320" y="-18.5" font-family="Helvetica,sans-Serif" font-size="10.00">lib/Ray/sources/Drawables</text>
<text text-anchor="middle" x="1385" y="-7.5" font-family="Helvetica,sans-Serif" font-size="10.00">/Texture.cpp</text>
</a>
</g>
</g>
<!-- Node1&#45;&gt;Node10 -->
<g id="edge9" class="edge">
<title>Node1&#45;&gt;Node10</title>
<path fill="none" stroke="midnightblue" d="M1058.01,-69.24C1124.37,-59.32 1219.74,-44.77 1303,-31 1305.85,-30.53 1308.76,-30.04 1311.7,-29.55"/>
<polygon fill="midnightblue" stroke="midnightblue" points="1057.4,-65.79 1048.03,-70.73 1058.43,-72.72 1057.4,-65.79"/>
</g>
<!-- Node11 -->
<g id="node11" class="node">
<title>Node11</title>
<g id="a_node11"><a xlink:href="Window_8cpp.html" target="_top" xlink:title=" ">
<polygon fill="white" stroke="black" points="1476,-6 1476,-25 1628,-25 1628,-6 1476,-6"/>
<text text-anchor="middle" x="1552" y="-13" font-family="Helvetica,sans-Serif" font-size="10.00">lib/Ray/sources/Window.cpp</text>
</a>
</g>
</g>
<!-- Node1&#45;&gt;Node11 -->
<g id="edge10" class="edge">
<title>Node1&#45;&gt;Node11</title>
<path fill="none" stroke="midnightblue" d="M1058.26,-74.66C1156.26,-66.21 1323.82,-50.54 1467,-31 1479.46,-29.3 1492.89,-27.15 1505.32,-25.04"/>
<polygon fill="midnightblue" stroke="midnightblue" points="1057.78,-71.19 1048.12,-75.53 1058.38,-78.16 1057.78,-71.19"/>
</g>
<!-- Node12 -->
<g id="node12" class="node">
<title>Node12</title>
<g id="a_node12"><a xlink:href="GameScene_8cpp.html" target="_top" xlink:title=" ">
<polygon fill="white" stroke="black" points="1646.5,-6 1646.5,-25 1819.5,-25 1819.5,-6 1646.5,-6"/>
<text text-anchor="middle" x="1733" y="-13" font-family="Helvetica,sans-Serif" font-size="10.00">sources/Runner/GameScene.cpp</text>
</a>
</g>
</g>
<!-- Node1&#45;&gt;Node12 -->
<g id="edge11" class="edge">
<title>Node1&#45;&gt;Node12</title>
<path fill="none" stroke="midnightblue" d="M1058.46,-77.11C1184.18,-70.06 1429.52,-54.55 1637,-31 1651.4,-29.37 1666.96,-27.19 1681.28,-25.03"/>
<polygon fill="midnightblue" stroke="midnightblue" points="1057.94,-73.64 1048.15,-77.69 1058.33,-80.63 1057.94,-73.64"/>
</g>
<!-- Node13 -->
<g id="node13" class="node">
<title>Node13</title>
<g id="a_node13"><a xlink:href="CacheTest_8cpp.html" target="_top" xlink:title=" ">
<polygon fill="white" stroke="black" points="1837.5,-6 1837.5,-25 1950.5,-25 1950.5,-6 1837.5,-6"/>
<text text-anchor="middle" x="1894" y="-13" font-family="Helvetica,sans-Serif" font-size="10.00">tests/CacheTest.cpp</text>
</a>
</g>
</g>
<!-- Node1&#45;&gt;Node13 -->
<g id="edge12" class="edge">
<title>Node1&#45;&gt;Node13</title>
<path fill="none" stroke="midnightblue" d="M1058.5,-81C1211.86,-79.09 1548.45,-70.33 1829,-31 1839.31,-29.56 1850.4,-27.33 1860.45,-25.06"/>
<polygon fill="midnightblue" stroke="midnightblue" points="1058.18,-77.5 1048.22,-81.12 1058.26,-84.5 1058.18,-77.5"/>
</g>
</g>
</svg>
