<?xml version="1.0" encoding="UTF-8" standalone="no"?>
<!DOCTYPE svg PUBLIC "-//W3C//DTD SVG 1.1//EN"
 "http://www.w3.org/Graphics/SVG/1.1/DTD/svg11.dtd">
<!-- Generated by graphviz version 2.43.0 (0)
 -->
<!-- Title: Graphical Class Hierarchy Pages: 1 -->
<svg width="658pt" height="823pt"
 viewBox="0.00 0.00 658.00 823.00" xmlns="http://www.w3.org/2000/svg" xmlns:xlink="http://www.w3.org/1999/xlink">
<g id="graph0" class="graph" transform="scale(1 1) rotate(0) translate(4 819)">
<title>Graphical Class Hierarchy</title>
<polygon fill="white" stroke="transparent" points="-4,4 -4,-819 654,-819 654,4 -4,4"/>
<!-- Node0 -->
<g id="node1" class="node">
<title>Node0</title>
<g id="a_node1"><a xlink:href="classRAY_1_1Drawables_1_1IDrawable.html" target="_top" xlink:title="Interface for any drawable.">
<polygon fill="white" stroke="black" points="0,-447 0,-466 147,-466 147,-447 0,-447"/>
<text text-anchor="middle" x="73.5" y="-454" font-family="Helvetica,sans-Serif" font-size="10.00">RAY::Drawables::IDrawable</text>
</a>
</g>
</g>
<!-- Node1 -->
<g id="node2" class="node">
<title>Node1</title>
<g id="a_node2"><a xlink:href="classRAY_1_1Drawables_1_1ADrawable2D.html" target="_top" xlink:title="Abstraction of any two&#45;dimensionnal drawable.">
<polygon fill="white" stroke="black" points="183,-643 183,-662 347,-662 347,-643 183,-643"/>
<text text-anchor="middle" x="265" y="-650" font-family="Helvetica,sans-Serif" font-size="10.00">RAY::Drawables::ADrawable2D</text>
</a>
</g>
</g>
<!-- Node0&#45;&gt;Node1 -->
<g id="edge1" class="edge">
<title>Node0&#45;&gt;Node1</title>
<path fill="none" stroke="midnightblue" d="M91.02,-473.58C129.52,-513.41 224.28,-611.42 254.55,-642.72"/>
<polygon fill="midnightblue" stroke="midnightblue" points="93.36,-470.98 83.9,-466.22 88.33,-475.84 93.36,-470.98"/>
</g>
<!-- Node10 -->
<g id="node11" class="node">
<title>Node10</title>
<g id="a_node11"><a xlink:href="classRAY_1_1Drawables_1_1ADrawable3D.html" target="_top" xlink:title="Abstraction of any three&#45;dimensionnal drawable.">
<polygon fill="white" stroke="black" points="183,-276 183,-295 347,-295 347,-276 183,-276"/>
<text text-anchor="middle" x="265" y="-283" font-family="Helvetica,sans-Serif" font-size="10.00">RAY::Drawables::ADrawable3D</text>
</a>
</g>
</g>
<!-- Node0&#45;&gt;Node10 -->
<g id="edge10" class="edge">
<title>Node0&#45;&gt;Node10</title>
<path fill="none" stroke="midnightblue" d="M92.74,-440.04C131.78,-404.81 222.4,-323.04 253.39,-295.08"/>
<polygon fill="midnightblue" stroke="midnightblue" points="90.31,-437.52 85.23,-446.82 95,-442.72 90.31,-437.52"/>
</g>
<!-- Node2 -->
<g id="node3" class="node">
<title>Node2</title>
<g id="a_node3"><a xlink:href="classRAY_1_1Drawables_1_1Drawables2D_1_1Circle.html" target="_top" xlink:title="Circle in a two&#45;dimensionnal space.">
<polygon fill="white" stroke="black" points="383,-784.5 383,-814.5 538,-814.5 538,-784.5 383,-784.5"/>
<text text-anchor="start" x="391" y="-802.5" font-family="Helvetica,sans-Serif" font-size="10.00">RAY::Drawables::Drawables2</text>
<text text-anchor="middle" x="460.5" y="-791.5" font-family="Helvetica,sans-Serif" font-size="10.00">D::Circle</text>
</a>
</g>
</g>
<!-- Node1&#45;&gt;Node2 -->
<g id="edge2" class="edge">
<title>Node1&#45;&gt;Node2</title>
<path fill="none" stroke="midnightblue" d="M278.4,-670.46C297.72,-697.16 337.58,-747.2 383,-775.5 388.43,-778.89 394.39,-781.83 400.49,-784.38"/>
<polygon fill="midnightblue" stroke="midnightblue" points="281.08,-668.2 272.44,-662.06 275.37,-672.25 281.08,-668.2"/>
</g>
<!-- Node3 -->
<g id="node4" class="node">
<title>Node3</title>
<g id="a_node4"><a xlink:href="classRAY_1_1Drawables_1_1Drawables2D_1_1Line.html" target="_top" xlink:title="Line in a two&#45;dimensionnal space.">
<polygon fill="white" stroke="black" points="383,-735.5 383,-765.5 538,-765.5 538,-735.5 383,-735.5"/>
<text text-anchor="start" x="391" y="-753.5" font-family="Helvetica,sans-Serif" font-size="10.00">RAY::Drawables::Drawables2</text>
<text text-anchor="middle" x="460.5" y="-742.5" font-family="Helvetica,sans-Serif" font-size="10.00">D::Line</text>
</a>
</g>
</g>
<!-- Node1&#45;&gt;Node3 -->
<g id="edge3" class="edge">
<title>Node1&#45;&gt;Node3</title>
<path fill="none" stroke="midnightblue" d="M286.9,-668.08C309.59,-684.43 347.39,-709.99 383,-726.5 390.07,-729.78 397.71,-732.77 405.33,-735.44"/>
<polygon fill="midnightblue" stroke="midnightblue" points="288.84,-665.17 278.7,-662.1 284.72,-670.82 288.84,-665.17"/>
</g>
<!-- Node4 -->
<g id="node5" class="node">
<title>Node4</title>
<g id="a_node5"><a xlink:href="classRAY_1_1Drawables_1_1Drawables2D_1_1Point.html" target="_top" xlink:title="Point in a two&#45;dimensionnal space.">
<polygon fill="white" stroke="black" points="383,-686.5 383,-716.5 538,-716.5 538,-686.5 383,-686.5"/>
<text text-anchor="start" x="391" y="-704.5" font-family="Helvetica,sans-Serif" font-size="10.00">RAY::Drawables::Drawables2</text>
<text text-anchor="middle" x="460.5" y="-693.5" font-family="Helvetica,sans-Serif" font-size="10.00">D::Point</text>
</a>
</g>
</g>
<!-- Node1&#45;&gt;Node4 -->
<g id="edge4" class="edge">
<title>Node1&#45;&gt;Node4</title>
<path fill="none" stroke="midnightblue" d="M313.79,-664.6C339.88,-671.21 372.41,-679.45 400.12,-686.46"/>
<polygon fill="midnightblue" stroke="midnightblue" points="314.32,-661.13 303.77,-662.06 312.6,-667.91 314.32,-661.13"/>
</g>
<!-- Node5 -->
<g id="node6" class="node">
<title>Node5</title>
<g id="a_node6"><a xlink:href="classRAY_1_1Drawables_1_1Drawables2D_1_1Rectangle.html" target="_top" xlink:title="Rectangle in a two&#45;dimensional space.">
<polygon fill="white" stroke="black" points="383,-637.5 383,-667.5 538,-667.5 538,-637.5 383,-637.5"/>
<text text-anchor="start" x="391" y="-655.5" font-family="Helvetica,sans-Serif" font-size="10.00">RAY::Drawables::Drawables2</text>
<text text-anchor="middle" x="460.5" y="-644.5" font-family="Helvetica,sans-Serif" font-size="10.00">D::Rectangle</text>
</a>
</g>
</g>
<!-- Node1&#45;&gt;Node5 -->
<g id="edge5" class="edge">
<title>Node1&#45;&gt;Node5</title>
<path fill="none" stroke="midnightblue" d="M357.23,-652.5C365.79,-652.5 374.41,-652.5 382.81,-652.5"/>
<polygon fill="midnightblue" stroke="midnightblue" points="357.22,-649 347.22,-652.5 357.22,-656 357.22,-649"/>
</g>
<!-- Node8 -->
<g id="node9" class="node">
<title>Node8</title>
<g id="a_node9"><a xlink:href="classRAY_1_1Drawables_1_1Drawables2D_1_1Text.html" target="_top" xlink:title="Text in a two&#45;dimensionnal space.">
<polygon fill="white" stroke="black" points="383,-588.5 383,-618.5 538,-618.5 538,-588.5 383,-588.5"/>
<text text-anchor="start" x="391" y="-606.5" font-family="Helvetica,sans-Serif" font-size="10.00">RAY::Drawables::Drawables2</text>
<text text-anchor="middle" x="460.5" y="-595.5" font-family="Helvetica,sans-Serif" font-size="10.00">D::Text</text>
</a>
</g>
</g>
<!-- Node1&#45;&gt;Node8 -->
<g id="edge8" class="edge">
<title>Node1&#45;&gt;Node8</title>
<path fill="none" stroke="midnightblue" d="M313.79,-640.4C339.88,-633.79 372.41,-625.55 400.12,-618.54"/>
<polygon fill="midnightblue" stroke="midnightblue" points="312.6,-637.09 303.77,-642.94 314.32,-643.87 312.6,-637.09"/>
</g>
<!-- Node9 -->
<g id="node10" class="node">
<title>Node9</title>
<g id="a_node10"><a xlink:href="classRAY_1_1Drawables_1_1Drawables2D_1_1Triangle.html" target="_top" xlink:title="Triangle in a two&#45;dimensionnal space.">
<polygon fill="white" stroke="black" points="383,-539.5 383,-569.5 538,-569.5 538,-539.5 383,-539.5"/>
<text text-anchor="start" x="391" y="-557.5" font-family="Helvetica,sans-Serif" font-size="10.00">RAY::Drawables::Drawables2</text>
<text text-anchor="middle" x="460.5" y="-546.5" font-family="Helvetica,sans-Serif" font-size="10.00">D::Triangle</text>
</a>
</g>
</g>
<!-- Node1&#45;&gt;Node9 -->
<g id="edge9" class="edge">
<title>Node1&#45;&gt;Node9</title>
<path fill="none" stroke="midnightblue" d="M286.9,-636.92C309.59,-620.57 347.39,-595.01 383,-578.5 390.07,-575.22 397.71,-572.23 405.33,-569.56"/>
<polygon fill="midnightblue" stroke="midnightblue" points="284.72,-634.18 278.7,-642.9 288.84,-639.83 284.72,-634.18"/>
</g>
<!-- Node6 -->
<g id="node7" class="node">
<title>Node6</title>
<g id="a_node7"><a xlink:href="classRAY_1_1Image.html" target="_top" xlink:title="Object representation of a framebuffer.">
<polygon fill="white" stroke="black" points="576.5,-662 576.5,-681 647.5,-681 647.5,-662 576.5,-662"/>
<text text-anchor="middle" x="612" y="-669" font-family="Helvetica,sans-Serif" font-size="10.00">RAY::Image</text>
</a>
</g>
</g>
<!-- Node5&#45;&gt;Node6 -->
<g id="edge6" class="edge">
<title>Node5&#45;&gt;Node6</title>
<path fill="none" stroke="midnightblue" d="M547.98,-663.49C557.9,-664.75 567.53,-665.98 576.16,-667.07"/>
<polygon fill="midnightblue" stroke="midnightblue" points="548.36,-660.01 538,-662.22 547.48,-666.96 548.36,-660.01"/>
</g>
<!-- Node7 -->
<g id="node8" class="node">
<title>Node7</title>
<g id="a_node8"><a xlink:href="classRAY_1_1Texture.html" target="_top" xlink:title="Object representation of a texture.">
<polygon fill="white" stroke="black" points="574,-624 574,-643 650,-643 650,-624 574,-624"/>
<text text-anchor="middle" x="612" y="-631" font-family="Helvetica,sans-Serif" font-size="10.00">RAY::Texture</text>
</a>
</g>
</g>
<!-- Node5&#45;&gt;Node7 -->
<g id="edge7" class="edge">
<title>Node5&#45;&gt;Node7</title>
<path fill="none" stroke="midnightblue" d="M547.92,-641.52C557,-640.36 565.85,-639.24 573.91,-638.21"/>
<polygon fill="midnightblue" stroke="midnightblue" points="547.48,-638.04 538,-642.78 548.36,-644.99 547.48,-638.04"/>
</g>
<!-- Node11 -->
<g id="node12" class="node">
<title>Node11</title>
<g id="a_node12"><a xlink:href="classRAY_1_1Drawables_1_1Drawables3D_1_1Circle.html" target="_top" xlink:title="Circle in a three&#45;dimensionnal space.">
<polygon fill="white" stroke="black" points="383,-490.5 383,-520.5 538,-520.5 538,-490.5 383,-490.5"/>
<text text-anchor="start" x="391" y="-508.5" font-family="Helvetica,sans-Serif" font-size="10.00">RAY::Drawables::Drawables3</text>
<text text-anchor="middle" x="460.5" y="-497.5" font-family="Helvetica,sans-Serif" font-size="10.00">D::Circle</text>
</a>
</g>
</g>
<!-- Node10&#45;&gt;Node11 -->
<g id="edge11" class="edge">
<title>Node10&#45;&gt;Node11</title>
<path fill="none" stroke="midnightblue" d="M272.38,-304.9C286.2,-343.93 322.62,-432.35 383,-480.5 387.81,-484.33 393.22,-487.59 398.89,-490.35"/>
<polygon fill="midnightblue" stroke="midnightblue" points="275.63,-303.6 269.08,-295.27 269.01,-305.87 275.63,-303.6"/>
</g>
<!-- Node12 -->
<g id="node13" class="node">
<title>Node12</title>
<g id="a_node13"><a xlink:href="classRAY_1_1Drawables_1_1Drawables3D_1_1Cube.html" target="_top" xlink:title="Cube in a three&#45;dimensionnal space.">
<polygon fill="white" stroke="black" points="383,-441.5 383,-471.5 538,-471.5 538,-441.5 383,-441.5"/>
<text text-anchor="start" x="391" y="-459.5" font-family="Helvetica,sans-Serif" font-size="10.00">RAY::Drawables::Drawables3</text>
<text text-anchor="middle" x="460.5" y="-448.5" font-family="Helvetica,sans-Serif" font-size="10.00">D::Cube</text>
</a>
</g>
</g>
<!-- Node10&#45;&gt;Node12 -->
<g id="edge12" class="edge">
<title>Node10&#45;&gt;Node12</title>
<path fill="none" stroke="midnightblue" d="M276.09,-304.17C293.74,-335.1 333.12,-396.97 383,-431.5 388.51,-435.32 394.65,-438.58 400.98,-441.37"/>
<polygon fill="midnightblue" stroke="midnightblue" points="279.07,-302.32 271.14,-295.29 272.96,-305.73 279.07,-302.32"/>
</g>
<!-- Node13 -->
<g id="node14" class="node">
<title>Node13</title>
<g id="a_node14"><a xlink:href="classRAY_1_1Drawables_1_1Drawables3D_1_1Cylinder.html" target="_top" xlink:title="Cylinder in a three&#45;dimensionnal space.">
<polygon fill="white" stroke="black" points="383,-392.5 383,-422.5 538,-422.5 538,-392.5 383,-392.5"/>
<text text-anchor="start" x="391" y="-410.5" font-family="Helvetica,sans-Serif" font-size="10.00">RAY::Drawables::Drawables3</text>
<text text-anchor="middle" x="460.5" y="-399.5" font-family="Helvetica,sans-Serif" font-size="10.00">D::Cylinder</text>
</a>
</g>
</g>
<!-- Node10&#45;&gt;Node13 -->
<g id="edge13" class="edge">
<title>Node10&#45;&gt;Node13</title>
<path fill="none" stroke="midnightblue" d="M282.35,-302.56C303.69,-323.94 343.05,-360.47 383,-382.5 389.85,-386.28 397.37,-389.6 404.93,-392.48"/>
<polygon fill="midnightblue" stroke="midnightblue" points="284.59,-299.85 275.09,-295.17 279.6,-304.75 284.59,-299.85"/>
</g>
<!-- Node14 -->
<g id="node15" class="node">
<title>Node14</title>
<g id="a_node15"><a xlink:href="classRAY_1_1Drawables_1_1Drawables3D_1_1Grid.html" target="_top" xlink:title="a grid (centered at (0, 0, 0))">
<polygon fill="white" stroke="black" points="383,-343.5 383,-373.5 538,-373.5 538,-343.5 383,-343.5"/>
<text text-anchor="start" x="391" y="-361.5" font-family="Helvetica,sans-Serif" font-size="10.00">RAY::Drawables::Drawables3</text>
<text text-anchor="middle" x="460.5" y="-350.5" font-family="Helvetica,sans-Serif" font-size="10.00">D::Grid</text>
</a>
</g>
</g>
<!-- Node10&#45;&gt;Node14 -->
<g id="edge14" class="edge">
<title>Node10&#45;&gt;Node14</title>
<path fill="none" stroke="midnightblue" d="M297.23,-299.04C320.65,-309.02 353.61,-322.69 383,-333.5 392.18,-336.88 402.06,-340.28 411.57,-343.43"/>
<polygon fill="midnightblue" stroke="midnightblue" points="298.38,-295.73 287.81,-295.01 295.62,-302.16 298.38,-295.73"/>
</g>
<!-- Node15 -->
<g id="node16" class="node">
<title>Node15</title>
<g id="a_node16"><a xlink:href="classRAY_1_1Drawables_1_1Drawables3D_1_1Line.html" target="_top" xlink:title="Line in a three&#45;dimensionnal space.">
<polygon fill="white" stroke="black" points="383,-294.5 383,-324.5 538,-324.5 538,-294.5 383,-294.5"/>
<text text-anchor="start" x="391" y="-312.5" font-family="Helvetica,sans-Serif" font-size="10.00">RAY::Drawables::Drawables3</text>
<text text-anchor="middle" x="460.5" y="-301.5" font-family="Helvetica,sans-Serif" font-size="10.00">D::Line</text>
</a>
</g>
</g>
<!-- Node10&#45;&gt;Node15 -->
<g id="edge15" class="edge">
<title>Node10&#45;&gt;Node15</title>
<path fill="none" stroke="midnightblue" d="M352.73,-296.26C362.77,-297.5 372.95,-298.76 382.84,-299.99"/>
<polygon fill="midnightblue" stroke="midnightblue" points="353.11,-292.78 342.75,-295.02 352.25,-299.72 353.11,-292.78"/>
</g>
<!-- Node16 -->
<g id="node17" class="node">
<title>Node16</title>
<g id="a_node17"><a xlink:href="classRAY_1_1Drawables_1_1Drawables3D_1_1Model.html" target="_top" xlink:title="Basic 3D Model type.">
<polygon fill="white" stroke="black" points="383,-245.5 383,-275.5 538,-275.5 538,-245.5 383,-245.5"/>
<text text-anchor="start" x="391" y="-263.5" font-family="Helvetica,sans-Serif" font-size="10.00">RAY::Drawables::Drawables3</text>
<text text-anchor="middle" x="460.5" y="-252.5" font-family="Helvetica,sans-Serif" font-size="10.00">D::Model</text>
</a>
</g>
</g>
<!-- Node10&#45;&gt;Node16 -->
<g id="edge16" class="edge">
<title>Node10&#45;&gt;Node16</title>
<path fill="none" stroke="midnightblue" d="M349.72,-274.68C360.7,-273.26 371.92,-271.82 382.78,-270.41"/>
<polygon fill="midnightblue" stroke="midnightblue" points="349.18,-271.22 339.71,-275.98 350.07,-278.17 349.18,-271.22"/>
</g>
<!-- Node17 -->
<g id="node18" class="node">
<title>Node17</title>
<g id="a_node18"><a xlink:href="classRAY_1_1Drawables_1_1Drawables3D_1_1Plane.html" target="_top" xlink:title="Plane in a three&#45;dimensionnal space.">
<polygon fill="white" stroke="black" points="383,-196.5 383,-226.5 538,-226.5 538,-196.5 383,-196.5"/>
<text text-anchor="start" x="391" y="-214.5" font-family="Helvetica,sans-Serif" font-size="10.00">RAY::Drawables::Drawables3</text>
<text text-anchor="middle" x="460.5" y="-203.5" font-family="Helvetica,sans-Serif" font-size="10.00">D::Plane</text>
</a>
</g>
</g>
<!-- Node10&#45;&gt;Node17 -->
<g id="edge17" class="edge">
<title>Node10&#45;&gt;Node17</title>
<path fill="none" stroke="midnightblue" d="M296.27,-271.58C319.7,-261.04 353.08,-246.55 383,-235.5 391.36,-232.41 400.32,-229.37 409.05,-226.54"/>
<polygon fill="midnightblue" stroke="midnightblue" points="294.55,-268.51 286.88,-275.83 297.43,-274.89 294.55,-268.51"/>
</g>
<!-- Node18 -->
<g id="node19" class="node">
<title>Node18</title>
<g id="a_node19"><a xlink:href="classRAY_1_1Drawables_1_1Drawables3D_1_1Point.html" target="_top" xlink:title="Point in a three&#45;dimensionnal space.">
<polygon fill="white" stroke="black" points="383,-147.5 383,-177.5 538,-177.5 538,-147.5 383,-147.5"/>
<text text-anchor="start" x="391" y="-165.5" font-family="Helvetica,sans-Serif" font-size="10.00">RAY::Drawables::Drawables3</text>
<text text-anchor="middle" x="460.5" y="-154.5" font-family="Helvetica,sans-Serif" font-size="10.00">D::Point</text>
</a>
</g>
</g>
<!-- Node10&#45;&gt;Node18 -->
<g id="edge18" class="edge">
<title>Node10&#45;&gt;Node18</title>
<path fill="none" stroke="midnightblue" d="M281.63,-268.62C302.71,-246.78 342.31,-208.9 383,-186.5 389.1,-183.14 395.73,-180.18 402.46,-177.59"/>
<polygon fill="midnightblue" stroke="midnightblue" points="279.09,-266.22 274.74,-275.88 284.16,-271.04 279.09,-266.22"/>
</g>
<!-- Node19 -->
<g id="node20" class="node">
<title>Node19</title>
<g id="a_node20"><a xlink:href="classRAY_1_1Drawables_1_1Drawables3D_1_1Ray.html" target="_top" xlink:title="Ray in a three&#45;dimensionnal space.">
<polygon fill="white" stroke="black" points="383,-98.5 383,-128.5 538,-128.5 538,-98.5 383,-98.5"/>
<text text-anchor="start" x="391" y="-116.5" font-family="Helvetica,sans-Serif" font-size="10.00">RAY::Drawables::Drawables3</text>
<text text-anchor="middle" x="460.5" y="-105.5" font-family="Helvetica,sans-Serif" font-size="10.00">D::Ray</text>
</a>
</g>
</g>
<!-- Node10&#45;&gt;Node19 -->
<g id="edge19" class="edge">
<title>Node10&#45;&gt;Node19</title>
<path fill="none" stroke="midnightblue" d="M275.73,-266.96C293.09,-235.66 332.36,-172.36 383,-137.5 387.93,-134.11 393.36,-131.17 398.99,-128.65"/>
<polygon fill="midnightblue" stroke="midnightblue" points="272.56,-265.46 270.88,-275.92 278.72,-268.79 272.56,-265.46"/>
</g>
<!-- Node20 -->
<g id="node21" class="node">
<title>Node20</title>
<g id="a_node21"><a xlink:href="classRAY_1_1Drawables_1_1Drawables3D_1_1Sphere.html" target="_top" xlink:title="Sphere in a three&#45;dimensionnal space.">
<polygon fill="white" stroke="black" points="383,-49.5 383,-79.5 538,-79.5 538,-49.5 383,-49.5"/>
<text text-anchor="start" x="391" y="-67.5" font-family="Helvetica,sans-Serif" font-size="10.00">RAY::Drawables::Drawables3</text>
<text text-anchor="middle" x="460.5" y="-56.5" font-family="Helvetica,sans-Serif" font-size="10.00">D::Sphere</text>
</a>
</g>
</g>
<!-- Node10&#45;&gt;Node20 -->
<g id="edge20" class="edge">
<title>Node10&#45;&gt;Node20</title>
<path fill="none" stroke="midnightblue" d="M272.19,-266.1C285.75,-226.68 321.85,-136.89 383,-88.5 387.37,-85.04 392.24,-82.08 397.34,-79.55"/>
<polygon fill="midnightblue" stroke="midnightblue" points="268.86,-265 269.02,-275.6 275.5,-267.22 268.86,-265"/>
</g>
<!-- Node21 -->
<g id="node22" class="node">
<title>Node21</title>
<g id="a_node22"><a xlink:href="classRAY_1_1Drawables_1_1Drawables3D_1_1Triangle.html" target="_top" xlink:title="Triangle in a three&#45;dimensionnal space.">
<polygon fill="white" stroke="black" points="383,-0.5 383,-30.5 538,-30.5 538,-0.5 383,-0.5"/>
<text text-anchor="start" x="391" y="-18.5" font-family="Helvetica,sans-Serif" font-size="10.00">RAY::Drawables::Drawables3</text>
<text text-anchor="middle" x="460.5" y="-7.5" font-family="Helvetica,sans-Serif" font-size="10.00">D::Triangle</text>
</a>
</g>
</g>
<!-- Node10&#45;&gt;Node21 -->
<g id="edge21" class="edge">
<title>Node10&#45;&gt;Node21</title>
<path fill="none" stroke="midnightblue" d="M269.75,-265.86C279.63,-219.47 310.78,-102.26 383,-39.5 386.99,-36.03 391.49,-33.06 396.24,-30.52"/>
<polygon fill="midnightblue" stroke="midnightblue" points="266.29,-265.33 267.73,-275.83 273.15,-266.72 266.29,-265.33"/>
</g>
</g>
</svg>
