<?xml version="1.0" encoding="UTF-8" standalone="no"?>
<!DOCTYPE svg PUBLIC "-//W3C//DTD SVG 1.1//EN"
 "http://www.w3.org/Graphics/SVG/1.1/DTD/svg11.dtd">
<!-- Generated by graphviz version 2.43.0 (0)
 -->
<!-- Title: Graphical Class Hierarchy Pages: 1 -->
<svg width="305pt" height="66pt"
 viewBox="0.00 0.00 305.00 66.00" xmlns="http://www.w3.org/2000/svg" xmlns:xlink="http://www.w3.org/1999/xlink">
<g id="graph0" class="graph" transform="scale(1 1) rotate(0) translate(4 62)">
<title>Graphical Class Hierarchy</title>
<polygon fill="white" stroke="transparent" points="-4,4 -4,-62 301,-62 301,4 -4,4"/>
<!-- Node0 -->
<g id="node1" class="node">
<title>Node0</title>
<g id="a_node1"><a xlink:href="classRAY_1_1Camera_1_1ICamera.html" target="_top" xlink:title="Interface for Cameras.">
<polygon fill="white" stroke="black" points="0,-19.5 0,-38.5 125,-38.5 125,-19.5 0,-19.5"/>
<text text-anchor="middle" x="62.5" y="-26.5" font-family="Helvetica,sans-Serif" font-size="10.00">RAY::Camera::ICamera</text>
</a>
</g>
</g>
<!-- Node1 -->
<g id="node2" class="node">
<title>Node1</title>
<g id="a_node2"><a xlink:href="classRAY_1_1Camera_1_1Camera2D.html" target="_top" xlink:title="Entity representing a Camera in 2D space.">
<polygon fill="white" stroke="black" points="161,-38.5 161,-57.5 297,-57.5 297,-38.5 161,-38.5"/>
<text text-anchor="middle" x="229" y="-45.5" font-family="Helvetica,sans-Serif" font-size="10.00">RAY::Camera::Camera2D</text>
</a>
</g>
</g>
<!-- Node0&#45;&gt;Node1 -->
<g id="edge1" class="edge">
<title>Node0&#45;&gt;Node1</title>
<path fill="none" stroke="midnightblue" d="M135.18,-37.28C143.75,-38.27 152.47,-39.28 160.97,-40.26"/>
<polygon fill="midnightblue" stroke="midnightblue" points="135.56,-33.8 125.22,-36.13 134.75,-40.75 135.56,-33.8"/>
</g>
<!-- Node2 -->
<g id="node3" class="node">
<title>Node2</title>
<g id="a_node3"><a xlink:href="classRAY_1_1Camera_1_1Camera3D.html" target="_top" xlink:title="Entity representing a Camera in 3D space.">
<polygon fill="white" stroke="black" points="161,-0.5 161,-19.5 297,-19.5 297,-0.5 161,-0.5"/>
<text text-anchor="middle" x="229" y="-7.5" font-family="Helvetica,sans-Serif" font-size="10.00">RAY::Camera::Camera3D</text>
</a>
</g>
</g>
<!-- Node0&#45;&gt;Node2 -->
<g id="edge2" class="edge">
<title>Node0&#45;&gt;Node2</title>
<path fill="none" stroke="midnightblue" d="M135.18,-20.72C143.75,-19.73 152.47,-18.72 160.97,-17.74"/>
<polygon fill="midnightblue" stroke="midnightblue" points="134.75,-17.25 125.22,-21.87 135.56,-24.2 134.75,-17.25"/>
</g>
</g>
</svg>
