<?xml version="1.0" encoding="UTF-8" standalone="no"?>
<!DOCTYPE svg PUBLIC "-//W3C//DTD SVG 1.1//EN"
 "http://www.w3.org/Graphics/SVG/1.1/DTD/svg11.dtd">
<!-- Generated by graphviz version 2.43.0 (0)
 -->
<!-- Title: Graphical Class Hierarchy Pages: 1 -->
<svg width="466pt" height="301pt"
 viewBox="0.00 0.00 466.00 301.00" xmlns="http://www.w3.org/2000/svg" xmlns:xlink="http://www.w3.org/1999/xlink">
<g id="graph0" class="graph" transform="scale(1 1) rotate(0) translate(4 297)">
<title>Graphical Class Hierarchy</title>
<polygon fill="white" stroke="transparent" points="-4,4 -4,-297 462,-297 462,4 -4,4"/>
<!-- Node20 -->
<g id="node1" class="node">
<title>Node20</title>
<g id="a_node1"><a xlink:title=" ">
<polygon fill="white" stroke="#bfbfbf" points="0,-155.5 0,-174.5 83,-174.5 83,-155.5 0,-155.5"/>
<text text-anchor="middle" x="41.5" y="-162.5" font-family="Helvetica,sans-Serif" font-size="10.00">runtime_error</text>
</a>
</g>
</g>
<!-- Node0 -->
<g id="node2" class="node">
<title>Node0</title>
<g id="a_node2"><a xlink:href="classBBM_1_1Error.html" target="_top" xlink:title=" ">
<polygon fill="white" stroke="black" points="153,-245.5 153,-264.5 221,-264.5 221,-245.5 153,-245.5"/>
<text text-anchor="middle" x="187" y="-252.5" font-family="Helvetica,sans-Serif" font-size="10.00">BBM::Error</text>
</a>
</g>
</g>
<!-- Node20&#45;&gt;Node0 -->
<g id="edge1" class="edge">
<title>Node20&#45;&gt;Node0</title>
<path fill="none" stroke="midnightblue" d="M66.37,-179.97C96.04,-198.58 145.8,-229.78 170.75,-245.44"/>
<polygon fill="midnightblue" stroke="midnightblue" points="68.19,-176.98 57.86,-174.63 64.47,-182.91 68.19,-176.98"/>
</g>
<!-- Node23 -->
<g id="node4" class="node">
<title>Node23</title>
<g id="a_node4"><a xlink:href="classRAY_1_1Exception_1_1RayError.html" target="_top" xlink:title="base exception class for RAY lib">
<polygon fill="white" stroke="black" points="119,-155.5 119,-174.5 255,-174.5 255,-155.5 119,-155.5"/>
<text text-anchor="middle" x="187" y="-162.5" font-family="Helvetica,sans-Serif" font-size="10.00">RAY::Exception::RayError</text>
</a>
</g>
</g>
<!-- Node20&#45;&gt;Node23 -->
<g id="edge3" class="edge">
<title>Node20&#45;&gt;Node23</title>
<path fill="none" stroke="midnightblue" d="M93.41,-165C101.65,-165 110.28,-165 118.83,-165"/>
<polygon fill="midnightblue" stroke="midnightblue" points="93.24,-161.5 83.24,-165 93.24,-168.5 93.24,-161.5"/>
</g>
<!-- Node28 -->
<g id="node9" class="node">
<title>Node28</title>
<g id="a_node9"><a xlink:href="classWAL_1_1WalError.html" target="_top" xlink:title="The base class for WAL&#39;s exceptions.">
<polygon fill="white" stroke="black" points="144.5,-38.5 144.5,-57.5 229.5,-57.5 229.5,-38.5 144.5,-38.5"/>
<text text-anchor="middle" x="187" y="-45.5" font-family="Helvetica,sans-Serif" font-size="10.00">WAL::WalError</text>
</a>
</g>
</g>
<!-- Node20&#45;&gt;Node28 -->
<g id="edge8" class="edge">
<title>Node20&#45;&gt;Node28</title>
<path fill="none" stroke="midnightblue" d="M61.99,-149.11C92.19,-124.49 149.36,-77.88 174.09,-57.71"/>
<polygon fill="midnightblue" stroke="midnightblue" points="59.78,-146.39 54.24,-155.43 64.21,-151.82 59.78,-146.39"/>
</g>
<!-- Node1 -->
<g id="node3" class="node">
<title>Node1</title>
<g id="a_node3"><a xlink:href="classBBM_1_1ParserError.html" target="_top" xlink:title=" ">
<polygon fill="white" stroke="black" points="325.5,-273.5 325.5,-292.5 423.5,-292.5 423.5,-273.5 325.5,-273.5"/>
<text text-anchor="middle" x="374.5" y="-280.5" font-family="Helvetica,sans-Serif" font-size="10.00">BBM::ParserError</text>
</a>
</g>
</g>
<!-- Node0&#45;&gt;Node1 -->
<g id="edge2" class="edge">
<title>Node0&#45;&gt;Node1</title>
<path fill="none" stroke="midnightblue" d="M231.12,-261.51C259.3,-265.76 296.14,-271.32 325.28,-275.72"/>
<polygon fill="midnightblue" stroke="midnightblue" points="231.57,-258.04 221.16,-260.01 230.53,-264.96 231.57,-258.04"/>
</g>
<!-- Node24 -->
<g id="node5" class="node">
<title>Node24</title>
<g id="a_node5"><a xlink:href="classRAY_1_1Exception_1_1NotCompatibleError.html" target="_top" xlink:title="exception used when an incompatibility occurs">
<polygon fill="white" stroke="black" points="291,-224 291,-254 458,-254 458,-224 291,-224"/>
<text text-anchor="start" x="299" y="-242" font-family="Helvetica,sans-Serif" font-size="10.00">RAY::Exception::NotCompatible</text>
<text text-anchor="middle" x="374.5" y="-231" font-family="Helvetica,sans-Serif" font-size="10.00">Error</text>
</a>
</g>
</g>
<!-- Node23&#45;&gt;Node24 -->
<g id="edge4" class="edge">
<title>Node23&#45;&gt;Node24</title>
<path fill="none" stroke="midnightblue" d="M214.48,-179.39C234.97,-190.15 264.26,-204.7 291,-215 299.35,-218.22 308.32,-221.24 317.16,-223.99"/>
<polygon fill="midnightblue" stroke="midnightblue" points="215.93,-176.2 205.46,-174.6 212.65,-182.38 215.93,-176.2"/>
</g>
<!-- Node25 -->
<g id="node6" class="node">
<title>Node25</title>
<g id="a_node6"><a xlink:href="classRAY_1_1Exception_1_1NotSupportedError.html" target="_top" xlink:title="exception used when an non&#45;supported operation is done">
<polygon fill="white" stroke="black" points="294,-175 294,-205 455,-205 455,-175 294,-175"/>
<text text-anchor="start" x="302" y="-193" font-family="Helvetica,sans-Serif" font-size="10.00">RAY::Exception::NotSupported</text>
<text text-anchor="middle" x="374.5" y="-182" font-family="Helvetica,sans-Serif" font-size="10.00">Error</text>
</a>
</g>
</g>
<!-- Node23&#45;&gt;Node25 -->
<g id="edge5" class="edge">
<title>Node23&#45;&gt;Node25</title>
<path fill="none" stroke="midnightblue" d="M265.35,-175.42C274.78,-176.7 284.42,-177.99 293.88,-179.27"/>
<polygon fill="midnightblue" stroke="midnightblue" points="265.61,-171.93 255.23,-174.06 264.67,-178.87 265.61,-171.93"/>
</g>
<!-- Node26 -->
<g id="node7" class="node">
<title>Node26</title>
<g id="a_node7"><a xlink:href="classRAY_1_1Exception_1_1ResourceNotFound.html" target="_top" xlink:title="exception used when a resource is not found">
<polygon fill="white" stroke="black" points="305,-126 305,-156 444,-156 444,-126 305,-126"/>
<text text-anchor="start" x="313" y="-144" font-family="Helvetica,sans-Serif" font-size="10.00">RAY::Exception::Resource</text>
<text text-anchor="middle" x="374.5" y="-133" font-family="Helvetica,sans-Serif" font-size="10.00">NotFound</text>
</a>
</g>
</g>
<!-- Node23&#45;&gt;Node26 -->
<g id="edge6" class="edge">
<title>Node23&#45;&gt;Node26</title>
<path fill="none" stroke="midnightblue" d="M265.21,-155.01C278.39,-153.31 292,-151.54 304.94,-149.87"/>
<polygon fill="midnightblue" stroke="midnightblue" points="264.7,-151.55 255.23,-156.3 265.6,-158.49 264.7,-151.55"/>
</g>
<!-- Node27 -->
<g id="node8" class="node">
<title>Node27</title>
<g id="a_node8"><a xlink:href="classRAY_1_1Exception_1_1WrongInputError.html" target="_top" xlink:title="exception used when an non&#45;supported operation is done">
<polygon fill="white" stroke="black" points="299.5,-77 299.5,-107 449.5,-107 449.5,-77 299.5,-77"/>
<text text-anchor="start" x="307.5" y="-95" font-family="Helvetica,sans-Serif" font-size="10.00">RAY::Exception::WrongInput</text>
<text text-anchor="middle" x="374.5" y="-84" font-family="Helvetica,sans-Serif" font-size="10.00">Error</text>
</a>
</g>
</g>
<!-- Node23&#45;&gt;Node27 -->
<g id="edge7" class="edge">
<title>Node23&#45;&gt;Node27</title>
<path fill="none" stroke="midnightblue" d="M215.7,-150.78C236.18,-140.6 264.91,-126.97 291,-117 300.23,-113.47 310.18,-110.1 319.87,-107.04"/>
<polygon fill="midnightblue" stroke="midnightblue" points="214,-147.72 206.64,-155.33 217.14,-153.97 214,-147.72"/>
</g>
<!-- Node29 -->
<g id="node10" class="node">
<title>Node29</title>
<g id="a_node10"><a xlink:href="classWAL_1_1DuplicateError.html" target="_top" xlink:title="An exception informing the user that something already exists.">
<polygon fill="white" stroke="black" points="318,-38.5 318,-57.5 431,-57.5 431,-38.5 318,-38.5"/>
<text text-anchor="middle" x="374.5" y="-45.5" font-family="Helvetica,sans-Serif" font-size="10.00">WAL::DuplicateError</text>
</a>
</g>
</g>
<!-- Node28&#45;&gt;Node29 -->
<g id="edge9" class="edge">
<title>Node28&#45;&gt;Node29</title>
<path fill="none" stroke="midnightblue" d="M239.74,-48C264.08,-48 293.13,-48 317.93,-48"/>
<polygon fill="midnightblue" stroke="midnightblue" points="239.63,-44.5 229.63,-48 239.63,-51.5 239.63,-44.5"/>
</g>
<!-- Node30 -->
<g id="node11" class="node">
<title>Node30</title>
<g id="a_node11"><a xlink:href="classWAL_1_1NotFoundError.html" target="_top" xlink:title="An exception informing the user that something could not be found.">
<polygon fill="white" stroke="black" points="318,-0.5 318,-19.5 431,-19.5 431,-0.5 318,-0.5"/>
<text text-anchor="middle" x="374.5" y="-7.5" font-family="Helvetica,sans-Serif" font-size="10.00">WAL::NotFoundError</text>
</a>
</g>
</g>
<!-- Node28&#45;&gt;Node30 -->
<g id="edge10" class="edge">
<title>Node28&#45;&gt;Node30</title>
<path fill="none" stroke="midnightblue" d="M239.45,-37.46C266.92,-31.83 300.46,-24.96 327.12,-19.5"/>
<polygon fill="midnightblue" stroke="midnightblue" points="238.72,-34.04 229.63,-39.47 240.13,-40.89 238.72,-34.04"/>
</g>
</g>
</svg>
