<?xml version="1.0" encoding="UTF-8" standalone="no"?>
<!DOCTYPE svg PUBLIC "-//W3C//DTD SVG 1.1//EN"
 "http://www.w3.org/Graphics/SVG/1.1/DTD/svg11.dtd">
<!-- Generated by graphviz version 2.43.0 (0)
 -->
<!-- Title: sources/System/IntroAnimation/IntroAnimationSystem.hpp Pages: 1 -->
<svg width="1125pt" height="442pt"
 viewBox="0.00 0.00 1124.50 442.00" xmlns="http://www.w3.org/2000/svg" xmlns:xlink="http://www.w3.org/1999/xlink">
<g id="graph0" class="graph" transform="scale(1 1) rotate(0) translate(4 438)">
<title>sources/System/IntroAnimation/IntroAnimationSystem.hpp</title>
<polygon fill="white" stroke="transparent" points="-4,4 -4,-438 1120.5,-438 1120.5,4 -4,4"/>
<!-- Node1 -->
<g id="node1" class="node">
<title>Node1</title>
<g id="a_node1"><a xlink:title=" ">
<polygon fill="#bfbfbf" stroke="black" points="290,-403.5 290,-433.5 460,-433.5 460,-403.5 290,-403.5"/>
<text text-anchor="start" x="298" y="-421.5" font-family="Helvetica,sans-Serif" font-size="10.00">sources/System/IntroAnimation</text>
<text text-anchor="middle" x="375" y="-410.5" font-family="Helvetica,sans-Serif" font-size="10.00">/IntroAnimationSystem.hpp</text>
</a>
</g>
</g>
<!-- Node2 -->
<g id="node2" class="node">
<title>Node2</title>
<g id="a_node2"><a xlink:href="IntroAnimationComponent_8hpp.html" target="_top" xlink:title=" ">
<polygon fill="white" stroke="black" points="210,-336.5 210,-366.5 380,-366.5 380,-336.5 210,-336.5"/>
<text text-anchor="start" x="218" y="-354.5" font-family="Helvetica,sans-Serif" font-size="10.00">Component/IntroAnimation</text>
<text text-anchor="middle" x="295" y="-343.5" font-family="Helvetica,sans-Serif" font-size="10.00">/IntroAnimationComponent.hpp</text>
</a>
</g>
</g>
<!-- Node1&#45;&gt;Node2 -->
<g id="edge1" class="edge">
<title>Node1&#45;&gt;Node2</title>
<path fill="none" stroke="midnightblue" d="M357.64,-403.4C346.74,-394.54 332.49,-382.96 320.34,-373.09"/>
<polygon fill="midnightblue" stroke="midnightblue" points="322.29,-370.17 312.32,-366.58 317.88,-375.6 322.29,-370.17"/>
</g>
<!-- Node7 -->
<g id="node7" class="node">
<title>Node7</title>
<g id="a_node7"><a xlink:href="System_8hpp.html" target="_top" xlink:title=" ">
<polygon fill="white" stroke="black" points="591,-342 591,-361 705,-361 705,-342 591,-342"/>
<text text-anchor="middle" x="648" y="-349" font-family="Helvetica,sans-Serif" font-size="10.00">System/System.hpp</text>
</a>
</g>
</g>
<!-- Node1&#45;&gt;Node7 -->
<g id="edge6" class="edge">
<title>Node1&#45;&gt;Node7</title>
<path fill="none" stroke="midnightblue" d="M433.9,-403.48C484.43,-391.45 556.2,-374.36 602.43,-363.35"/>
<polygon fill="midnightblue" stroke="midnightblue" points="603.26,-366.75 612.18,-361.03 601.64,-359.94 603.26,-366.75"/>
</g>
<!-- Node3 -->
<g id="node3" class="node">
<title>Node3</title>
<g id="a_node3"><a xlink:href="Component_8hpp.html" target="_top" xlink:title=" ">
<polygon fill="white" stroke="black" points="235.5,-56.5 235.5,-75.5 388.5,-75.5 388.5,-56.5 235.5,-56.5"/>
<text text-anchor="middle" x="312" y="-63.5" font-family="Helvetica,sans-Serif" font-size="10.00">Component/Component.hpp</text>
</a>
</g>
</g>
<!-- Node2&#45;&gt;Node3 -->
<g id="edge2" class="edge">
<title>Node2&#45;&gt;Node3</title>
<path fill="none" stroke="midnightblue" d="M280.37,-336.32C242.37,-297.74 147.02,-188.65 199,-112 210.05,-95.7 228.04,-85.31 246.46,-78.68"/>
<polygon fill="midnightblue" stroke="midnightblue" points="247.66,-81.97 256.09,-75.54 245.49,-75.31 247.66,-81.97"/>
</g>
<!-- Node4 -->
<g id="node4" class="node">
<title>Node4</title>
<g id="a_node4"><a xlink:title=" ">
<polygon fill="white" stroke="#bfbfbf" points="33.5,-0.5 33.5,-19.5 80.5,-19.5 80.5,-0.5 33.5,-0.5"/>
<text text-anchor="middle" x="57" y="-7.5" font-family="Helvetica,sans-Serif" font-size="10.00">vector</text>
</a>
</g>
</g>
<!-- Node3&#45;&gt;Node4 -->
<g id="edge3" class="edge">
<title>Node3&#45;&gt;Node4</title>
<path fill="none" stroke="midnightblue" d="M271.59,-56.44C221.59,-45.85 137.35,-28.01 90.67,-18.13"/>
<polygon fill="midnightblue" stroke="midnightblue" points="91.27,-14.68 80.76,-16.03 89.82,-21.53 91.27,-14.68"/>
</g>
<!-- Node5 -->
<g id="node5" class="node">
<title>Node5</title>
<g id="a_node5"><a xlink:title=" ">
<polygon fill="white" stroke="#bfbfbf" points="601,-0.5 601,-19.5 645,-19.5 645,-0.5 601,-0.5"/>
<text text-anchor="middle" x="623" y="-7.5" font-family="Helvetica,sans-Serif" font-size="10.00">string</text>
</a>
</g>
</g>
<!-- Node3&#45;&gt;Node5 -->
<g id="edge4" class="edge">
<title>Node3&#45;&gt;Node5</title>
<path fill="none" stroke="midnightblue" d="M361.28,-56.44C425.51,-45.29 536.05,-26.1 590.61,-16.62"/>
<polygon fill="midnightblue" stroke="midnightblue" points="591.49,-20.02 600.74,-14.86 590.29,-13.13 591.49,-20.02"/>
</g>
<!-- Node6 -->
<g id="node6" class="node">
<title>Node6</title>
<g id="a_node6"><a xlink:title=" ">
<polygon fill="white" stroke="#bfbfbf" points="279.5,-0.5 279.5,-19.5 344.5,-19.5 344.5,-0.5 279.5,-0.5"/>
<text text-anchor="middle" x="312" y="-7.5" font-family="Helvetica,sans-Serif" font-size="10.00">typeindex</text>
</a>
</g>
</g>
<!-- Node3&#45;&gt;Node6 -->
<g id="edge5" class="edge">
<title>Node3&#45;&gt;Node6</title>
<path fill="none" stroke="midnightblue" d="M312,-56.08C312,-49.01 312,-38.86 312,-29.99"/>
<polygon fill="midnightblue" stroke="midnightblue" points="315.5,-29.75 312,-19.75 308.5,-29.75 315.5,-29.75"/>
</g>
<!-- Node7&#45;&gt;Node4 -->
<g id="edge8" class="edge">
<title>Node7&#45;&gt;Node4</title>
<path fill="none" stroke="midnightblue" d="M590.78,-346.31C432.42,-333.95 0,-294.74 0,-235 0,-235 0,-235 0,-121 0,-84.3 25.32,-47.66 42.21,-27.3"/>
<polygon fill="midnightblue" stroke="midnightblue" points="44.95,-29.48 48.83,-19.62 39.65,-24.9 44.95,-29.48"/>
</g>
<!-- Node7&#45;&gt;Node6 -->
<g id="edge10" class="edge">
<title>Node7&#45;&gt;Node6</title>
<path fill="none" stroke="midnightblue" d="M590.9,-344.16C501.76,-331.18 329.94,-293.3 235,-188 215.19,-166.02 207.34,-160.39 199,-132 188.9,-97.61 201.07,-81.76 226,-56 239.91,-41.63 259.41,-30.91 276.33,-23.54"/>
<polygon fill="midnightblue" stroke="midnightblue" points="278.01,-26.64 285.93,-19.59 275.35,-20.16 278.01,-26.64"/>
</g>
<!-- Node8 -->
<g id="node8" class="node">
<title>Node8</title>
<g id="a_node8"><a xlink:title=" ">
<polygon fill="white" stroke="#bfbfbf" points="726,-168.5 726,-187.5 776,-187.5 776,-168.5 726,-168.5"/>
<text text-anchor="middle" x="751" y="-175.5" font-family="Helvetica,sans-Serif" font-size="10.00">chrono</text>
</a>
</g>
</g>
<!-- Node7&#45;&gt;Node8 -->
<g id="edge7" class="edge">
<title>Node7&#45;&gt;Node8</title>
<path fill="none" stroke="midnightblue" d="M666.5,-341.93C696.31,-326.94 753.98,-292.87 777,-244 784.58,-227.92 775.01,-209 765.42,-195.73"/>
<polygon fill="midnightblue" stroke="midnightblue" points="767.91,-193.25 758.98,-187.55 762.41,-197.57 767.91,-193.25"/>
</g>
<!-- Node9 -->
<g id="node9" class="node">
<title>Node9</title>
<g id="a_node9"><a xlink:title=" ">
<polygon fill="white" stroke="#bfbfbf" points="1059.5,-56.5 1059.5,-75.5 1116.5,-75.5 1116.5,-56.5 1059.5,-56.5"/>
<text text-anchor="middle" x="1088" y="-63.5" font-family="Helvetica,sans-Serif" font-size="10.00">typeinfo</text>
</a>
</g>
</g>
<!-- Node7&#45;&gt;Node9 -->
<g id="edge9" class="edge">
<title>Node7&#45;&gt;Node9</title>
<path fill="none" stroke="midnightblue" d="M705.35,-347.68C793.39,-342.48 956.96,-329.14 1007,-300 1038.49,-281.66 1057,-271.45 1057,-235 1057,-235 1057,-235 1057,-177 1057,-143.41 1070.56,-106.14 1079.74,-84.75"/>
<polygon fill="midnightblue" stroke="midnightblue" points="1082.94,-86.17 1083.82,-75.61 1076.55,-83.31 1082.94,-86.17"/>
</g>
<!-- Node10 -->
<g id="node10" class="node">
<title>Node10</title>
<g id="a_node10"><a xlink:href="Entity_8hpp.html" target="_top" xlink:title=" ">
<polygon fill="white" stroke="black" points="688,-112.5 688,-131.5 784,-131.5 784,-112.5 688,-112.5"/>
<text text-anchor="middle" x="736" y="-119.5" font-family="Helvetica,sans-Serif" font-size="10.00">Entity/Entity.hpp</text>
</a>
</g>
</g>
<!-- Node7&#45;&gt;Node10 -->
<g id="edge11" class="edge">
<title>Node7&#45;&gt;Node10</title>
<path fill="none" stroke="midnightblue" d="M677.13,-341.89C700.44,-333.89 732.94,-320.16 756,-300 778.28,-280.53 783.66,-272.39 792,-244 797.49,-225.31 790.05,-177.8 785,-168 778.78,-155.93 767.94,-145.46 758.03,-137.66"/>
<polygon fill="midnightblue" stroke="midnightblue" points="759.83,-134.64 749.71,-131.52 755.68,-140.27 759.83,-134.64"/>
</g>
<!-- Node17 -->
<g id="node17" class="node">
<title>Node17</title>
<g id="a_node17"><a xlink:href="Wal_8hpp.html" target="_top" xlink:title=" ">
<polygon fill="white" stroke="black" points="575,-280.5 575,-299.5 631,-299.5 631,-280.5 575,-280.5"/>
<text text-anchor="middle" x="603" y="-287.5" font-family="Helvetica,sans-Serif" font-size="10.00">Wal.hpp</text>
</a>
</g>
</g>
<!-- Node7&#45;&gt;Node17 -->
<g id="edge22" class="edge">
<title>Node7&#45;&gt;Node17</title>
<path fill="none" stroke="midnightblue" d="M641.55,-341.98C634.8,-333.05 624.03,-318.81 615.59,-307.64"/>
<polygon fill="midnightblue" stroke="midnightblue" points="618.26,-305.37 609.44,-299.51 612.68,-309.6 618.26,-305.37"/>
</g>
<!-- Node19 -->
<g id="node19" class="node">
<title>Node19</title>
<g id="a_node19"><a xlink:href="ISystem_8hpp.html" target="_top" xlink:title=" ">
<polygon fill="white" stroke="black" points="650.5,-224.5 650.5,-243.5 767.5,-243.5 767.5,-224.5 650.5,-224.5"/>
<text text-anchor="middle" x="709" y="-231.5" font-family="Helvetica,sans-Serif" font-size="10.00">System/ISystem.hpp</text>
</a>
</g>
</g>
<!-- Node7&#45;&gt;Node19 -->
<g id="edge51" class="edge">
<title>Node7&#45;&gt;Node19</title>
<path fill="none" stroke="midnightblue" d="M652.58,-341.82C662.52,-323.01 686.21,-278.15 699.52,-252.96"/>
<polygon fill="midnightblue" stroke="midnightblue" points="702.79,-254.26 704.36,-243.78 696.6,-250.99 702.79,-254.26"/>
</g>
<!-- Node20 -->
<g id="node20" class="node">
<title>Node20</title>
<g id="a_node20"><a xlink:href="View_8hpp.html" target="_top" xlink:title=" ">
<polygon fill="white" stroke="black" points="430,-168.5 430,-187.5 518,-187.5 518,-168.5 430,-168.5"/>
<text text-anchor="middle" x="474" y="-175.5" font-family="Helvetica,sans-Serif" font-size="10.00">View/View.hpp</text>
</a>
</g>
</g>
<!-- Node7&#45;&gt;Node20 -->
<g id="edge50" class="edge">
<title>Node7&#45;&gt;Node20</title>
<path fill="none" stroke="midnightblue" d="M606.91,-341.99C558.9,-329.61 481.62,-301.52 447,-244 437.7,-228.54 448.11,-209.29 458.59,-195.77"/>
<polygon fill="midnightblue" stroke="midnightblue" points="461.52,-197.71 465.28,-187.8 456.16,-193.21 461.52,-197.71"/>
</g>
<!-- Node27 -->
<g id="node27" class="node">
<title>Node27</title>
<g id="a_node27"><a xlink:title=" ">
<polygon fill="white" stroke="#bfbfbf" points="938,-280.5 938,-299.5 998,-299.5 998,-280.5 938,-280.5"/>
<text text-anchor="middle" x="968" y="-287.5" font-family="Helvetica,sans-Serif" font-size="10.00">iostream</text>
</a>
</g>
</g>
<!-- Node7&#45;&gt;Node27 -->
<g id="edge52" class="edge">
<title>Node7&#45;&gt;Node27</title>
<path fill="none" stroke="midnightblue" d="M696.42,-341.96C751.57,-332.15 844.37,-315.43 924,-300 925.25,-299.76 926.52,-299.51 927.8,-299.26"/>
<polygon fill="midnightblue" stroke="midnightblue" points="928.6,-302.67 937.72,-297.28 927.23,-295.8 928.6,-302.67"/>
</g>
<!-- Node10&#45;&gt;Node3 -->
<g id="edge16" class="edge">
<title>Node10&#45;&gt;Node3</title>
<path fill="none" stroke="midnightblue" d="M687.77,-114.86C614.91,-105.58 476.04,-87.89 389.06,-76.81"/>
<polygon fill="midnightblue" stroke="midnightblue" points="389.34,-73.32 378.97,-75.53 388.45,-80.27 389.34,-73.32"/>
</g>
<!-- Node10&#45;&gt;Node5 -->
<g id="edge12" class="edge">
<title>Node10&#45;&gt;Node5</title>
<path fill="none" stroke="midnightblue" d="M735.66,-112.38C734.69,-98.85 731.01,-72.48 717,-56 701.06,-37.25 675.53,-25.72 655.09,-19.03"/>
<polygon fill="midnightblue" stroke="midnightblue" points="655.82,-15.6 645.24,-16.04 653.79,-22.29 655.82,-15.6"/>
</g>
<!-- Node10&#45;&gt;Node9 -->
<g id="edge14" class="edge">
<title>Node10&#45;&gt;Node9</title>
<path fill="none" stroke="midnightblue" d="M784,-115.61C843.98,-108.55 949.91,-95.01 1049.46,-76.15"/>
<polygon fill="midnightblue" stroke="midnightblue" points="1050.21,-79.57 1059.38,-74.25 1048.9,-72.7 1050.21,-79.57"/>
</g>
<!-- Node11 -->
<g id="node11" class="node">
<title>Node11</title>
<g id="a_node11"><a xlink:title=" ">
<polygon fill="white" stroke="#bfbfbf" points="538.5,-56.5 538.5,-75.5 631.5,-75.5 631.5,-56.5 538.5,-56.5"/>
<text text-anchor="middle" x="585" y="-63.5" font-family="Helvetica,sans-Serif" font-size="10.00">unordered_map</text>
</a>
</g>
</g>
<!-- Node10&#45;&gt;Node11 -->
<g id="edge13" class="edge">
<title>Node10&#45;&gt;Node11</title>
<path fill="none" stroke="midnightblue" d="M712.07,-112.44C686.78,-103.4 646.7,-89.06 618.32,-78.92"/>
<polygon fill="midnightblue" stroke="midnightblue" points="619.41,-75.59 608.81,-75.52 617.05,-82.18 619.41,-75.59"/>
</g>
<!-- Node12 -->
<g id="node12" class="node">
<title>Node12</title>
<g id="a_node12"><a xlink:title=" ">
<polygon fill="white" stroke="#bfbfbf" points="650,-56.5 650,-75.5 708,-75.5 708,-56.5 650,-56.5"/>
<text text-anchor="middle" x="679" y="-63.5" font-family="Helvetica,sans-Serif" font-size="10.00">memory</text>
</a>
</g>
</g>
<!-- Node10&#45;&gt;Node12 -->
<g id="edge15" class="edge">
<title>Node10&#45;&gt;Node12</title>
<path fill="none" stroke="midnightblue" d="M726.84,-112.32C718.5,-104.42 705.97,-92.55 695.82,-82.94"/>
<polygon fill="midnightblue" stroke="midnightblue" points="697.99,-80.17 688.32,-75.83 693.18,-85.25 697.99,-80.17"/>
</g>
<!-- Node13 -->
<g id="node13" class="node">
<title>Node13</title>
<g id="a_node13"><a xlink:href="WalError_8hpp.html" target="_top" xlink:title=" ">
<polygon fill="white" stroke="black" points="912.5,-56.5 912.5,-75.5 1041.5,-75.5 1041.5,-56.5 912.5,-56.5"/>
<text text-anchor="middle" x="977" y="-63.5" font-family="Helvetica,sans-Serif" font-size="10.00">Exception/WalError.hpp</text>
</a>
</g>
</g>
<!-- Node10&#45;&gt;Node13 -->
<g id="edge17" class="edge">
<title>Node10&#45;&gt;Node13</title>
<path fill="none" stroke="midnightblue" d="M774.19,-112.44C816.14,-103.04 883.59,-87.93 929.07,-77.74"/>
<polygon fill="midnightblue" stroke="midnightblue" points="930,-81.12 938.99,-75.52 928.47,-74.29 930,-81.12"/>
</g>
<!-- Node16 -->
<g id="node16" class="node">
<title>Node16</title>
<g id="a_node16"><a xlink:href="TypeHolder_8hpp.html" target="_top" xlink:title=" ">
<polygon fill="white" stroke="black" points="764,-56.5 764,-75.5 894,-75.5 894,-56.5 764,-56.5"/>
<text text-anchor="middle" x="829" y="-63.5" font-family="Helvetica,sans-Serif" font-size="10.00">Models/TypeHolder.hpp</text>
</a>
</g>
</g>
<!-- Node10&#45;&gt;Node16 -->
<g id="edge21" class="edge">
<title>Node10&#45;&gt;Node16</title>
<path fill="none" stroke="midnightblue" d="M750.94,-112.32C765.59,-103.82 788.13,-90.73 805.24,-80.8"/>
<polygon fill="midnightblue" stroke="midnightblue" points="807.2,-83.7 814.1,-75.65 803.69,-77.65 807.2,-83.7"/>
</g>
<!-- Node13&#45;&gt;Node5 -->
<g id="edge20" class="edge">
<title>Node13&#45;&gt;Node5</title>
<path fill="none" stroke="midnightblue" d="M920.91,-56.44C845.87,-45 715.3,-25.08 655.09,-15.9"/>
<polygon fill="midnightblue" stroke="midnightblue" points="655.45,-12.41 645.04,-14.36 654.39,-19.33 655.45,-12.41"/>
</g>
<!-- Node14 -->
<g id="node14" class="node">
<title>Node14</title>
<g id="a_node14"><a xlink:title=" ">
<polygon fill="white" stroke="#bfbfbf" points="985.5,-0.5 985.5,-19.5 1050.5,-19.5 1050.5,-0.5 985.5,-0.5"/>
<text text-anchor="middle" x="1018" y="-7.5" font-family="Helvetica,sans-Serif" font-size="10.00">exception</text>
</a>
</g>
</g>
<!-- Node13&#45;&gt;Node14 -->
<g id="edge18" class="edge">
<title>Node13&#45;&gt;Node14</title>
<path fill="none" stroke="midnightblue" d="M983.77,-56.08C989.56,-48.46 998.06,-37.26 1005.14,-27.94"/>
<polygon fill="midnightblue" stroke="midnightblue" points="1008.1,-29.83 1011.36,-19.75 1002.52,-25.6 1008.1,-29.83"/>
</g>
<!-- Node15 -->
<g id="node15" class="node">
<title>Node15</title>
<g id="a_node15"><a xlink:title=" ">
<polygon fill="white" stroke="#bfbfbf" points="902.5,-0.5 902.5,-19.5 967.5,-19.5 967.5,-0.5 902.5,-0.5"/>
<text text-anchor="middle" x="935" y="-7.5" font-family="Helvetica,sans-Serif" font-size="10.00">stdexcept</text>
</a>
</g>
</g>
<!-- Node13&#45;&gt;Node15 -->
<g id="edge19" class="edge">
<title>Node13&#45;&gt;Node15</title>
<path fill="none" stroke="midnightblue" d="M970.06,-56.08C964.07,-48.38 955.25,-37.03 947.95,-27.65"/>
<polygon fill="midnightblue" stroke="midnightblue" points="950.71,-25.5 941.81,-19.75 945.18,-29.79 950.71,-25.5"/>
</g>
<!-- Node17&#45;&gt;Node4 -->
<g id="edge24" class="edge">
<title>Node17&#45;&gt;Node4</title>
<path fill="none" stroke="midnightblue" d="M574.61,-288.29C520.58,-286.17 399.91,-277.71 305,-244 190.39,-203.3 158.91,-175.52 89,-76 78.73,-61.38 70.01,-42.98 64.27,-29.49"/>
<polygon fill="midnightblue" stroke="midnightblue" points="67.37,-27.82 60.35,-19.89 60.89,-30.47 67.37,-27.82"/>
</g>
<!-- Node17&#45;&gt;Node5 -->
<g id="edge25" class="edge">
<title>Node17&#45;&gt;Node5</title>
<path fill="none" stroke="midnightblue" d="M604.01,-280.13C606.65,-252.85 611.48,-168.64 578,-112 564.43,-89.04 541.93,-99.85 530,-76 526.02,-68.05 525.28,-63.53 530,-56 543.27,-34.84 569.61,-23.39 590.88,-17.34"/>
<polygon fill="midnightblue" stroke="midnightblue" points="592.02,-20.66 600.84,-14.79 590.28,-13.88 592.02,-20.66"/>
</g>
<!-- Node17&#45;&gt;Node9 -->
<g id="edge27" class="edge">
<title>Node17&#45;&gt;Node9</title>
<path fill="none" stroke="midnightblue" d="M631.1,-285.58C670.29,-280.15 743.08,-267.68 801,-244 909.99,-199.45 1024.89,-115.63 1069.13,-81.76"/>
<polygon fill="midnightblue" stroke="midnightblue" points="1071.46,-84.38 1077.24,-75.5 1067.18,-78.84 1071.46,-84.38"/>
</g>
<!-- Node17&#45;&gt;Node12 -->
<g id="edge26" class="edge">
<title>Node17&#45;&gt;Node12</title>
<path fill="none" stroke="midnightblue" d="M605.98,-280.3C617.21,-247.49 657.13,-130.88 672.71,-85.38"/>
<polygon fill="midnightblue" stroke="midnightblue" points="676.03,-86.48 675.96,-75.88 669.41,-84.21 676.03,-86.48"/>
</g>
<!-- Node17&#45;&gt;Node13 -->
<g id="edge28" class="edge">
<title>Node17&#45;&gt;Node13</title>
<path fill="none" stroke="midnightblue" d="M631.16,-287.78C667.84,-284.92 732.54,-275.43 777,-244 834.78,-203.16 811.04,-156.57 866,-112 885.12,-96.5 910.29,-85.71 931.83,-78.59"/>
<polygon fill="midnightblue" stroke="midnightblue" points="932.94,-81.91 941.43,-75.58 930.84,-75.23 932.94,-81.91"/>
</g>
<!-- Node18 -->
<g id="node18" class="node">
<title>Node18</title>
<g id="a_node18"><a xlink:title=" ">
<polygon fill="white" stroke="#bfbfbf" points="218.5,-112.5 218.5,-131.5 263.5,-131.5 263.5,-112.5 218.5,-112.5"/>
<text text-anchor="middle" x="241" y="-119.5" font-family="Helvetica,sans-Serif" font-size="10.00">utility</text>
</a>
</g>
</g>
<!-- Node17&#45;&gt;Node18 -->
<g id="edge23" class="edge">
<title>Node17&#45;&gt;Node18</title>
<path fill="none" stroke="midnightblue" d="M574.99,-285.34C498.29,-274.71 287.79,-241.12 247,-188 236.98,-174.95 236.39,-155.8 237.77,-141.66"/>
<polygon fill="midnightblue" stroke="midnightblue" points="241.25,-141.99 239.14,-131.61 234.32,-141.04 241.25,-141.99"/>
</g>
<!-- Node17&#45;&gt;Node19 -->
<g id="edge29" class="edge">
<title>Node17&#45;&gt;Node19</title>
<path fill="none" stroke="midnightblue" d="M620.03,-280.32C637.03,-271.66 663.38,-258.24 682.99,-248.25"/>
<polygon fill="midnightblue" stroke="midnightblue" points="684.69,-251.31 692.01,-243.65 681.51,-245.08 684.69,-251.31"/>
</g>
<!-- Node25 -->
<g id="node25" class="node">
<title>Node25</title>
<g id="a_node25"><a xlink:href="Callback_8hpp.html" target="_top" xlink:title=" ">
<polygon fill="white" stroke="black" points="256,-168.5 256,-187.5 374,-187.5 374,-168.5 256,-168.5"/>
<text text-anchor="middle" x="315" y="-175.5" font-family="Helvetica,sans-Serif" font-size="10.00">Models/Callback.hpp</text>
</a>
</g>
</g>
<!-- Node17&#45;&gt;Node25 -->
<g id="edge40" class="edge">
<title>Node17&#45;&gt;Node25</title>
<path fill="none" stroke="midnightblue" d="M574.89,-282.49C543.28,-274.79 490.64,-260.89 447,-244 407.96,-228.89 364.81,-206.49 338.81,-192.33"/>
<polygon fill="midnightblue" stroke="midnightblue" points="340.5,-189.26 330.05,-187.51 337.13,-195.39 340.5,-189.26"/>
</g>
<!-- Node26 -->
<g id="node26" class="node">
<title>Node26</title>
<g id="a_node26"><a xlink:href="Scene_8hpp.html" target="_top" xlink:title=" ">
<polygon fill="white" stroke="black" points="456.5,-224.5 456.5,-243.5 555.5,-243.5 555.5,-224.5 456.5,-224.5"/>
<text text-anchor="middle" x="506" y="-231.5" font-family="Helvetica,sans-Serif" font-size="10.00">Scene/Scene.hpp</text>
</a>
</g>
</g>
<!-- Node17&#45;&gt;Node26 -->
<g id="edge44" class="edge">
<title>Node17&#45;&gt;Node26</title>
<path fill="none" stroke="midnightblue" d="M587.42,-280.32C572,-271.74 548.19,-258.49 530.29,-248.52"/>
<polygon fill="midnightblue" stroke="midnightblue" points="531.99,-245.46 521.55,-243.65 528.58,-251.58 531.99,-245.46"/>
</g>
<!-- Node19&#45;&gt;Node8 -->
<g id="edge39" class="edge">
<title>Node19&#45;&gt;Node8</title>
<path fill="none" stroke="midnightblue" d="M715.94,-224.08C721.93,-216.38 730.75,-205.03 738.05,-195.65"/>
<polygon fill="midnightblue" stroke="midnightblue" points="740.82,-197.79 744.19,-187.75 735.29,-193.5 740.82,-197.79"/>
</g>
<!-- Node19&#45;&gt;Node10 -->
<g id="edge30" class="edge">
<title>Node19&#45;&gt;Node10</title>
<path fill="none" stroke="midnightblue" d="M709.3,-224.44C709.91,-211.88 711.72,-187.77 717,-168 719.46,-158.78 723.43,-148.98 727.1,-140.88"/>
<polygon fill="midnightblue" stroke="midnightblue" points="730.33,-142.24 731.47,-131.71 724.01,-139.24 730.33,-142.24"/>
</g>
<!-- Node19&#45;&gt;Node20 -->
<g id="edge31" class="edge">
<title>Node19&#45;&gt;Node20</title>
<path fill="none" stroke="midnightblue" d="M671.76,-224.44C630.94,-215.06 565.36,-199.99 521.02,-189.8"/>
<polygon fill="midnightblue" stroke="midnightblue" points="521.59,-186.34 511.06,-187.52 520.02,-193.17 521.59,-186.34"/>
</g>
<!-- Node20&#45;&gt;Node6 -->
<g id="edge34" class="edge">
<title>Node20&#45;&gt;Node6</title>
<path fill="none" stroke="midnightblue" d="M479.62,-168.45C487.39,-155.48 499.33,-130.38 489,-112 460.86,-61.93 397.22,-34.74 354.43,-21.56"/>
<polygon fill="midnightblue" stroke="midnightblue" points="355.42,-18.2 344.84,-18.72 353.44,-24.91 355.42,-18.2"/>
</g>
<!-- Node20&#45;&gt;Node10 -->
<g id="edge38" class="edge">
<title>Node20&#45;&gt;Node10</title>
<path fill="none" stroke="midnightblue" d="M515.51,-168.44C561.41,-158.98 635.38,-143.74 684.83,-133.55"/>
<polygon fill="midnightblue" stroke="midnightblue" points="685.59,-136.96 694.68,-131.52 684.18,-130.11 685.59,-136.96"/>
</g>
<!-- Node20&#45;&gt;Node18 -->
<g id="edge36" class="edge">
<title>Node20&#45;&gt;Node18</title>
<path fill="none" stroke="midnightblue" d="M432.03,-168.46C393.21,-160.38 333.68,-147.54 273.67,-132.32"/>
<polygon fill="midnightblue" stroke="midnightblue" points="274.2,-128.84 263.64,-129.75 272.46,-135.62 274.2,-128.84"/>
</g>
<!-- Node21 -->
<g id="node21" class="node">
<title>Node21</title>
<g id="a_node21"><a xlink:title=" ">
<polygon fill="white" stroke="#bfbfbf" points="537,-112.5 537,-131.5 569,-131.5 569,-112.5 537,-112.5"/>
<text text-anchor="middle" x="553" y="-119.5" font-family="Helvetica,sans-Serif" font-size="10.00">list</text>
</a>
</g>
</g>
<!-- Node20&#45;&gt;Node21 -->
<g id="edge32" class="edge">
<title>Node20&#45;&gt;Node21</title>
<path fill="none" stroke="midnightblue" d="M486.69,-168.32C498.9,-159.98 517.58,-147.21 532,-137.35"/>
<polygon fill="midnightblue" stroke="midnightblue" points="534.06,-140.19 540.34,-131.65 530.11,-134.41 534.06,-140.19"/>
</g>
<!-- Node22 -->
<g id="node22" class="node">
<title>Node22</title>
<g id="a_node22"><a xlink:title=" ">
<polygon fill="white" stroke="#bfbfbf" points="439.5,-112.5 439.5,-131.5 480.5,-131.5 480.5,-112.5 439.5,-112.5"/>
<text text-anchor="middle" x="460" y="-119.5" font-family="Helvetica,sans-Serif" font-size="10.00">tuple</text>
</a>
</g>
</g>
<!-- Node20&#45;&gt;Node22 -->
<g id="edge33" class="edge">
<title>Node20&#45;&gt;Node22</title>
<path fill="none" stroke="midnightblue" d="M471.69,-168.08C469.83,-160.93 467.16,-150.64 464.85,-141.69"/>
<polygon fill="midnightblue" stroke="midnightblue" points="468.17,-140.55 462.27,-131.75 461.39,-142.31 468.17,-140.55"/>
</g>
<!-- Node23 -->
<g id="node23" class="node">
<title>Node23</title>
<g id="a_node23"><a xlink:title=" ">
<polygon fill="white" stroke="#bfbfbf" points="281.5,-112.5 281.5,-131.5 346.5,-131.5 346.5,-112.5 281.5,-112.5"/>
<text text-anchor="middle" x="314" y="-119.5" font-family="Helvetica,sans-Serif" font-size="10.00">functional</text>
</a>
</g>
</g>
<!-- Node20&#45;&gt;Node23 -->
<g id="edge35" class="edge">
<title>Node20&#45;&gt;Node23</title>
<path fill="none" stroke="midnightblue" d="M448.65,-168.44C421.73,-159.36 379,-144.94 348.91,-134.78"/>
<polygon fill="midnightblue" stroke="midnightblue" points="349.83,-131.4 339.23,-131.52 347.59,-138.03 349.83,-131.4"/>
</g>
<!-- Node24 -->
<g id="node24" class="node">
<title>Node24</title>
<g id="a_node24"><a xlink:title=" ">
<polygon fill="white" stroke="#bfbfbf" points="365,-112.5 365,-131.5 421,-131.5 421,-112.5 365,-112.5"/>
<text text-anchor="middle" x="393" y="-119.5" font-family="Helvetica,sans-Serif" font-size="10.00">optional</text>
</a>
</g>
</g>
<!-- Node20&#45;&gt;Node24 -->
<g id="edge37" class="edge">
<title>Node20&#45;&gt;Node24</title>
<path fill="none" stroke="midnightblue" d="M460.99,-168.32C448.47,-159.98 429.32,-147.21 414.53,-137.35"/>
<polygon fill="midnightblue" stroke="midnightblue" points="416.24,-134.29 405.98,-131.65 412.36,-140.11 416.24,-134.29"/>
</g>
<!-- Node25&#45;&gt;Node11 -->
<g id="edge43" class="edge">
<title>Node25&#45;&gt;Node11</title>
<path fill="none" stroke="midnightblue" d="M276.09,-168.49C236.85,-158.18 185.21,-138.8 209,-112 229.81,-88.55 428.36,-75.06 528.23,-69.71"/>
<polygon fill="midnightblue" stroke="midnightblue" points="528.64,-73.19 538.45,-69.17 528.28,-66.2 528.64,-73.19"/>
</g>
<!-- Node25&#45;&gt;Node18 -->
<g id="edge42" class="edge">
<title>Node25&#45;&gt;Node18</title>
<path fill="none" stroke="midnightblue" d="M303.11,-168.32C291.85,-160.11 274.71,-147.6 261.29,-137.81"/>
<polygon fill="midnightblue" stroke="midnightblue" points="263.25,-134.9 253.11,-131.83 259.12,-140.56 263.25,-134.9"/>
</g>
<!-- Node25&#45;&gt;Node23 -->
<g id="edge41" class="edge">
<title>Node25&#45;&gt;Node23</title>
<path fill="none" stroke="midnightblue" d="M314.83,-168.08C314.7,-161.01 314.52,-150.86 314.35,-141.99"/>
<polygon fill="midnightblue" stroke="midnightblue" points="317.85,-141.68 314.16,-131.75 310.85,-141.81 317.85,-141.68"/>
</g>
<!-- Node26&#45;&gt;Node4 -->
<g id="edge45" class="edge">
<title>Node26&#45;&gt;Node4</title>
<path fill="none" stroke="midnightblue" d="M456.16,-232.66C402.01,-230.45 314.24,-221.4 247,-188 166.97,-148.25 96.97,-63.95 69.44,-27.91"/>
<polygon fill="midnightblue" stroke="midnightblue" points="72.19,-25.74 63.38,-19.85 66.59,-29.94 72.19,-25.74"/>
</g>
<!-- Node26&#45;&gt;Node10 -->
<g id="edge49" class="edge">
<title>Node26&#45;&gt;Node10</title>
<path fill="none" stroke="midnightblue" d="M524.05,-224.37C564.27,-205.13 661.46,-158.65 708.96,-135.93"/>
<polygon fill="midnightblue" stroke="midnightblue" points="710.52,-139.06 718.04,-131.59 707.5,-132.75 710.52,-139.06"/>
</g>
<!-- Node26&#45;&gt;Node20 -->
<g id="edge48" class="edge">
<title>Node26&#45;&gt;Node20</title>
<path fill="none" stroke="midnightblue" d="M500.72,-224.08C496.29,-216.61 489.84,-205.72 484.38,-196.52"/>
<polygon fill="midnightblue" stroke="midnightblue" points="487.29,-194.57 479.19,-187.75 481.27,-198.14 487.29,-194.57"/>
</g>
<!-- Node26&#45;&gt;Node21 -->
<g id="edge46" class="edge">
<title>Node26&#45;&gt;Node21</title>
<path fill="none" stroke="midnightblue" d="M510.17,-224.44C514.52,-215.43 521.45,-200.82 527,-188 533.71,-172.49 540.81,-154.65 545.88,-141.59"/>
<polygon fill="midnightblue" stroke="midnightblue" points="549.29,-142.49 549.62,-131.9 542.76,-139.97 549.29,-142.49"/>
</g>
<!-- Node26&#45;&gt;Node23 -->
<g id="edge47" class="edge">
<title>Node26&#45;&gt;Node23</title>
<path fill="none" stroke="midnightblue" d="M489.23,-224.49C471.97,-215.65 444.38,-201.27 421,-188 391.36,-171.17 357.89,-150.57 336.4,-137.14"/>
<polygon fill="midnightblue" stroke="midnightblue" points="338.03,-134.03 327.7,-131.68 334.31,-139.96 338.03,-134.03"/>
</g>
</g>
</svg>
