<?xml version="1.0" encoding="UTF-8" standalone="no"?>
<!DOCTYPE svg PUBLIC "-//W3C//DTD SVG 1.1//EN"
 "http://www.w3.org/Graphics/SVG/1.1/DTD/svg11.dtd">
<!-- Generated by graphviz version 2.43.0 (0)
 -->
<!-- Title: lib/Ray/sources/Controllers/Keyboard.cpp Pages: 1 -->
<svg width="155pt" height="151pt"
 viewBox="0.00 0.00 155.00 151.00" xmlns="http://www.w3.org/2000/svg" xmlns:xlink="http://www.w3.org/1999/xlink">
<g id="graph0" class="graph" transform="scale(1 1) rotate(0) translate(4 147)">
<title>lib/Ray/sources/Controllers/Keyboard.cpp</title>
<polygon fill="white" stroke="transparent" points="-4,4 -4,-147 151,-147 151,4 -4,4"/>
<!-- Node1 -->
<g id="node1" class="node">
<title>Node1</title>
<g id="a_node1"><a xlink:title=" ">
<polygon fill="#bfbfbf" stroke="black" points="0,-112.5 0,-142.5 147,-142.5 147,-112.5 0,-112.5"/>
<text text-anchor="start" x="8" y="-130.5" font-family="Helvetica,sans-Serif" font-size="10.00">lib/Ray/sources/Controllers</text>
<text text-anchor="middle" x="73.5" y="-119.5" font-family="Helvetica,sans-Serif" font-size="10.00">/Keyboard.cpp</text>
</a>
</g>
</g>
<!-- Node2 -->
<g id="node2" class="node">
<title>Node2</title>
<g id="a_node2"><a xlink:href="Keyboard_8hpp.html" target="_top" xlink:title=" ">
<polygon fill="white" stroke="black" points="3.5,-56.5 3.5,-75.5 143.5,-75.5 143.5,-56.5 3.5,-56.5"/>
<text text-anchor="middle" x="73.5" y="-63.5" font-family="Helvetica,sans-Serif" font-size="10.00">Controllers/Keyboard.hpp</text>
</a>
</g>
</g>
<!-- Node1&#45;&gt;Node2 -->
<g id="edge1" class="edge">
<title>Node1&#45;&gt;Node2</title>
<path fill="none" stroke="midnightblue" d="M73.5,-112.4C73.5,-104.47 73.5,-94.46 73.5,-85.86"/>
<polygon fill="midnightblue" stroke="midnightblue" points="77,-85.66 73.5,-75.66 70,-85.66 77,-85.66"/>
</g>
<!-- Node3 -->
<g id="node3" class="node">
<title>Node3</title>
<g id="a_node3"><a xlink:title=" ">
<polygon fill="white" stroke="#bfbfbf" points="13,-0.5 13,-19.5 66,-19.5 66,-0.5 13,-0.5"/>
<text text-anchor="middle" x="39.5" y="-7.5" font-family="Helvetica,sans-Serif" font-size="10.00">raylib.h</text>
</a>
</g>
</g>
<!-- Node2&#45;&gt;Node3 -->
<g id="edge2" class="edge">
<title>Node2&#45;&gt;Node3</title>
<path fill="none" stroke="midnightblue" d="M67.89,-56.08C63.13,-48.53 56.18,-37.49 50.35,-28.23"/>
<polygon fill="midnightblue" stroke="midnightblue" points="53.3,-26.35 45.01,-19.75 47.38,-30.08 53.3,-26.35"/>
</g>
<!-- Node4 -->
<g id="node4" class="node">
<title>Node4</title>
<g id="a_node4"><a xlink:title=" ">
<polygon fill="white" stroke="#bfbfbf" points="84,-0.5 84,-19.5 131,-19.5 131,-0.5 84,-0.5"/>
<text text-anchor="middle" x="107.5" y="-7.5" font-family="Helvetica,sans-Serif" font-size="10.00">vector</text>
</a>
</g>
</g>
<!-- Node2&#45;&gt;Node4 -->
<g id="edge3" class="edge">
<title>Node2&#45;&gt;Node4</title>
<path fill="none" stroke="midnightblue" d="M79.11,-56.08C83.87,-48.53 90.82,-37.49 96.65,-28.23"/>
<polygon fill="midnightblue" stroke="midnightblue" points="99.62,-30.08 101.99,-19.75 93.7,-26.35 99.62,-30.08"/>
</g>
</g>
</svg>
