<?xml version="1.0" encoding="UTF-8" standalone="no"?>
<!DOCTYPE svg PUBLIC "-//W3C//DTD SVG 1.1//EN"
 "http://www.w3.org/Graphics/SVG/1.1/DTD/svg11.dtd">
<!-- Generated by graphviz version 2.43.0 (0)
 -->
<!-- Title: sources/Component/Keyboard/KeyboardComponent.hpp Pages: 1 -->
<svg width="1186pt" height="274pt"
 viewBox="0.00 0.00 1185.50 274.00" xmlns="http://www.w3.org/2000/svg" xmlns:xlink="http://www.w3.org/1999/xlink">
<g id="graph0" class="graph" transform="scale(1 1) rotate(0) translate(4 270)">
<title>sources/Component/Keyboard/KeyboardComponent.hpp</title>
<polygon fill="white" stroke="transparent" points="-4,4 -4,-270 1181.5,-270 1181.5,4 -4,4"/>
<!-- Node1 -->
<g id="node1" class="node">
<title>Node1</title>
<g id="a_node1"><a xlink:title=" ">
<polygon fill="#bfbfbf" stroke="black" points="435,-235.5 435,-265.5 597,-265.5 597,-235.5 435,-235.5"/>
<text text-anchor="start" x="443" y="-253.5" font-family="Helvetica,sans-Serif" font-size="10.00">sources/Component/Keyboard</text>
<text text-anchor="middle" x="516" y="-242.5" font-family="Helvetica,sans-Serif" font-size="10.00">/KeyboardComponent.hpp</text>
</a>
</g>
</g>
<!-- Node2 -->
<g id="node2" class="node">
<title>Node2</title>
<g id="a_node2"><a xlink:href="Keyboard_8hpp.html" target="_top" xlink:title=" ">
<polygon fill="white" stroke="black" points="0,-56.5 0,-75.5 140,-75.5 140,-56.5 0,-56.5"/>
<text text-anchor="middle" x="70" y="-63.5" font-family="Helvetica,sans-Serif" font-size="10.00">Controllers/Keyboard.hpp</text>
</a>
</g>
</g>
<!-- Node1&#45;&gt;Node2 -->
<g id="edge1" class="edge">
<title>Node1&#45;&gt;Node2</title>
<path fill="none" stroke="midnightblue" d="M481.74,-235.48C397.44,-200.98 180.92,-112.39 100.59,-79.52"/>
<polygon fill="midnightblue" stroke="midnightblue" points="101.63,-76.16 91.05,-75.62 98.98,-82.64 101.63,-76.16"/>
</g>
<!-- Node5 -->
<g id="node5" class="node">
<title>Node5</title>
<g id="a_node5"><a xlink:href="Component_8hpp.html" target="_top" xlink:title=" ">
<polygon fill="white" stroke="black" points="428.5,-56.5 428.5,-75.5 581.5,-75.5 581.5,-56.5 428.5,-56.5"/>
<text text-anchor="middle" x="505" y="-63.5" font-family="Helvetica,sans-Serif" font-size="10.00">Component/Component.hpp</text>
</a>
</g>
</g>
<!-- Node1&#45;&gt;Node5 -->
<g id="edge4" class="edge">
<title>Node1&#45;&gt;Node5</title>
<path fill="none" stroke="midnightblue" d="M503.01,-235.25C495.26,-225.75 486.14,-212.55 482,-199 469.82,-159.11 485.99,-110.35 496.76,-84.71"/>
<polygon fill="midnightblue" stroke="midnightblue" points="499.99,-86.07 500.82,-75.51 493.58,-83.24 499.99,-86.07"/>
</g>
<!-- Node8 -->
<g id="node8" class="node">
<title>Node8</title>
<g id="a_node8"><a xlink:href="ControllableComponent_8hpp.html" target="_top" xlink:title=" ">
<polygon fill="white" stroke="black" points="491,-168.5 491,-198.5 647,-198.5 647,-168.5 491,-168.5"/>
<text text-anchor="start" x="499" y="-186.5" font-family="Helvetica,sans-Serif" font-size="10.00">Component/Controllable</text>
<text text-anchor="middle" x="569" y="-175.5" font-family="Helvetica,sans-Serif" font-size="10.00">/ControllableComponent.hpp</text>
</a>
</g>
</g>
<!-- Node1&#45;&gt;Node8 -->
<g id="edge8" class="edge">
<title>Node1&#45;&gt;Node8</title>
<path fill="none" stroke="midnightblue" d="M527.5,-235.4C534.38,-226.96 543.26,-216.07 551.04,-206.52"/>
<polygon fill="midnightblue" stroke="midnightblue" points="553.92,-208.54 557.52,-198.58 548.49,-204.11 553.92,-208.54"/>
</g>
<!-- Node13 -->
<g id="node13" class="node">
<title>Node13</title>
<g id="a_node13"><a xlink:href="Entity_8hpp.html" target="_top" xlink:title=" ">
<polygon fill="white" stroke="black" points="656,-112.5 656,-131.5 752,-131.5 752,-112.5 656,-112.5"/>
<text text-anchor="middle" x="704" y="-119.5" font-family="Helvetica,sans-Serif" font-size="10.00">Entity/Entity.hpp</text>
</a>
</g>
</g>
<!-- Node1&#45;&gt;Node13 -->
<g id="edge27" class="edge">
<title>Node1&#45;&gt;Node13</title>
<path fill="none" stroke="midnightblue" d="M581.88,-235.47C606.98,-227.76 634.65,-216.15 656,-199 675.24,-183.54 689.03,-158.17 696.76,-141.04"/>
<polygon fill="midnightblue" stroke="midnightblue" points="700.08,-142.17 700.78,-131.6 693.64,-139.43 700.08,-142.17"/>
</g>
<!-- Node3 -->
<g id="node3" class="node">
<title>Node3</title>
<g id="a_node3"><a xlink:title=" ">
<polygon fill="white" stroke="#bfbfbf" points="114.5,-0.5 114.5,-19.5 167.5,-19.5 167.5,-0.5 114.5,-0.5"/>
<text text-anchor="middle" x="141" y="-7.5" font-family="Helvetica,sans-Serif" font-size="10.00">raylib.h</text>
</a>
</g>
</g>
<!-- Node2&#45;&gt;Node3 -->
<g id="edge2" class="edge">
<title>Node2&#45;&gt;Node3</title>
<path fill="none" stroke="midnightblue" d="M81.41,-56.32C92.11,-48.18 108.34,-35.84 121.16,-26.09"/>
<polygon fill="midnightblue" stroke="midnightblue" points="123.54,-28.67 129.39,-19.83 119.31,-23.1 123.54,-28.67"/>
</g>
<!-- Node4 -->
<g id="node4" class="node">
<title>Node4</title>
<g id="a_node4"><a xlink:title=" ">
<polygon fill="white" stroke="#bfbfbf" points="296.5,-0.5 296.5,-19.5 343.5,-19.5 343.5,-0.5 296.5,-0.5"/>
<text text-anchor="middle" x="320" y="-7.5" font-family="Helvetica,sans-Serif" font-size="10.00">vector</text>
</a>
</g>
</g>
<!-- Node2&#45;&gt;Node4 -->
<g id="edge3" class="edge">
<title>Node2&#45;&gt;Node4</title>
<path fill="none" stroke="midnightblue" d="M109.61,-56.44C158.41,-45.9 240.45,-28.18 286.34,-18.27"/>
<polygon fill="midnightblue" stroke="midnightblue" points="287.33,-21.64 296.37,-16.1 285.86,-14.79 287.33,-21.64"/>
</g>
<!-- Node5&#45;&gt;Node4 -->
<g id="edge5" class="edge">
<title>Node5&#45;&gt;Node4</title>
<path fill="none" stroke="midnightblue" d="M475.69,-56.44C442.4,-46.73 388.19,-30.9 353.32,-20.73"/>
<polygon fill="midnightblue" stroke="midnightblue" points="354.18,-17.33 343.6,-17.89 352.22,-24.05 354.18,-17.33"/>
</g>
<!-- Node6 -->
<g id="node6" class="node">
<title>Node6</title>
<g id="a_node6"><a xlink:title=" ">
<polygon fill="white" stroke="#bfbfbf" points="887,-0.5 887,-19.5 931,-19.5 931,-0.5 887,-0.5"/>
<text text-anchor="middle" x="909" y="-7.5" font-family="Helvetica,sans-Serif" font-size="10.00">string</text>
</a>
</g>
</g>
<!-- Node5&#45;&gt;Node6 -->
<g id="edge6" class="edge">
<title>Node5&#45;&gt;Node6</title>
<path fill="none" stroke="midnightblue" d="M569.02,-56.44C656.48,-44.75 810.06,-24.22 876.67,-15.32"/>
<polygon fill="midnightblue" stroke="midnightblue" points="877.51,-18.74 886.96,-13.95 876.58,-11.8 877.51,-18.74"/>
</g>
<!-- Node7 -->
<g id="node7" class="node">
<title>Node7</title>
<g id="a_node7"><a xlink:title=" ">
<polygon fill="white" stroke="#bfbfbf" points="472.5,-0.5 472.5,-19.5 537.5,-19.5 537.5,-0.5 472.5,-0.5"/>
<text text-anchor="middle" x="505" y="-7.5" font-family="Helvetica,sans-Serif" font-size="10.00">typeindex</text>
</a>
</g>
</g>
<!-- Node5&#45;&gt;Node7 -->
<g id="edge7" class="edge">
<title>Node5&#45;&gt;Node7</title>
<path fill="none" stroke="midnightblue" d="M505,-56.08C505,-49.01 505,-38.86 505,-29.99"/>
<polygon fill="midnightblue" stroke="midnightblue" points="508.5,-29.75 505,-19.75 501.5,-29.75 508.5,-29.75"/>
</g>
<!-- Node8&#45;&gt;Node5 -->
<g id="edge14" class="edge">
<title>Node8&#45;&gt;Node5</title>
<path fill="none" stroke="midnightblue" d="M558.55,-168.31C551.47,-158.39 542.15,-144.71 535,-132 526.34,-116.62 518.06,-98.29 512.4,-85.03"/>
<polygon fill="midnightblue" stroke="midnightblue" points="515.55,-83.5 508.46,-75.63 509.09,-86.21 515.55,-83.5"/>
</g>
<!-- Node9 -->
<g id="node9" class="node">
<title>Node9</title>
<g id="a_node9"><a xlink:href="sources_2Models_2Vector2_8hpp.html" target="_top" xlink:title=" ">
<polygon fill="white" stroke="black" points="320.5,-112.5 320.5,-131.5 433.5,-131.5 433.5,-112.5 320.5,-112.5"/>
<text text-anchor="middle" x="377" y="-119.5" font-family="Helvetica,sans-Serif" font-size="10.00">Models/Vector2.hpp</text>
</a>
</g>
</g>
<!-- Node8&#45;&gt;Node9 -->
<g id="edge9" class="edge">
<title>Node8&#45;&gt;Node9</title>
<path fill="none" stroke="midnightblue" d="M523.5,-168.4C490.18,-158.07 445.51,-144.23 414.29,-134.56"/>
<polygon fill="midnightblue" stroke="midnightblue" points="415.25,-131.19 404.66,-131.57 413.17,-137.87 415.25,-131.19"/>
</g>
<!-- Node8&#45;&gt;Node13 -->
<g id="edge15" class="edge">
<title>Node8&#45;&gt;Node13</title>
<path fill="none" stroke="midnightblue" d="M600.99,-168.4C623.44,-158.51 653.21,-145.38 674.98,-135.79"/>
<polygon fill="midnightblue" stroke="midnightblue" points="676.62,-138.89 684.36,-131.66 673.79,-132.49 676.62,-138.89"/>
</g>
<!-- Node21 -->
<g id="node21" class="node">
<title>Node21</title>
<g id="a_node21"><a xlink:title=" ">
<polygon fill="white" stroke="#bfbfbf" points="544,-112.5 544,-131.5 594,-131.5 594,-112.5 544,-112.5"/>
<text text-anchor="middle" x="569" y="-119.5" font-family="Helvetica,sans-Serif" font-size="10.00">chrono</text>
</a>
</g>
</g>
<!-- Node8&#45;&gt;Node21 -->
<g id="edge26" class="edge">
<title>Node8&#45;&gt;Node21</title>
<path fill="none" stroke="midnightblue" d="M569,-168.4C569,-160.47 569,-150.46 569,-141.86"/>
<polygon fill="midnightblue" stroke="midnightblue" points="572.5,-141.66 569,-131.66 565.5,-141.66 572.5,-141.66"/>
</g>
<!-- Node10 -->
<g id="node10" class="node">
<title>Node10</title>
<g id="a_node10"><a xlink:title=" ">
<polygon fill="white" stroke="#bfbfbf" points="350,-56.5 350,-75.5 410,-75.5 410,-56.5 350,-56.5"/>
<text text-anchor="middle" x="380" y="-63.5" font-family="Helvetica,sans-Serif" font-size="10.00">iostream</text>
</a>
</g>
</g>
<!-- Node9&#45;&gt;Node10 -->
<g id="edge10" class="edge">
<title>Node9&#45;&gt;Node10</title>
<path fill="none" stroke="midnightblue" d="M377.5,-112.08C377.89,-105.01 378.45,-94.86 378.95,-85.99"/>
<polygon fill="midnightblue" stroke="midnightblue" points="382.45,-85.93 379.51,-75.75 375.46,-85.54 382.45,-85.93"/>
</g>
<!-- Node11 -->
<g id="node11" class="node">
<title>Node11</title>
<g id="a_node11"><a xlink:title=" ">
<polygon fill="white" stroke="#bfbfbf" points="284.5,-56.5 284.5,-75.5 331.5,-75.5 331.5,-56.5 284.5,-56.5"/>
<text text-anchor="middle" x="308" y="-63.5" font-family="Helvetica,sans-Serif" font-size="10.00">cmath</text>
</a>
</g>
</g>
<!-- Node9&#45;&gt;Node11 -->
<g id="edge11" class="edge">
<title>Node9&#45;&gt;Node11</title>
<path fill="none" stroke="midnightblue" d="M365.91,-112.32C355.51,-104.18 339.74,-91.84 327.28,-82.09"/>
<polygon fill="midnightblue" stroke="midnightblue" points="329.32,-79.24 319.29,-75.83 325.01,-84.75 329.32,-79.24"/>
</g>
<!-- Node12 -->
<g id="node12" class="node">
<title>Node12</title>
<g id="a_node12"><a xlink:href="lib_2Ray_2sources_2Vector_2Vector2_8hpp.html" target="_top" xlink:title=" ">
<polygon fill="white" stroke="black" points="158,-56.5 158,-75.5 266,-75.5 266,-56.5 158,-56.5"/>
<text text-anchor="middle" x="212" y="-63.5" font-family="Helvetica,sans-Serif" font-size="10.00">Vector/Vector2.hpp</text>
</a>
</g>
</g>
<!-- Node9&#45;&gt;Node12 -->
<g id="edge12" class="edge">
<title>Node9&#45;&gt;Node12</title>
<path fill="none" stroke="midnightblue" d="M350.86,-112.44C322.98,-103.32 278.65,-88.81 247.6,-78.65"/>
<polygon fill="midnightblue" stroke="midnightblue" points="248.62,-75.3 238.02,-75.52 246.44,-81.95 248.62,-75.3"/>
</g>
<!-- Node12&#45;&gt;Node3 -->
<g id="edge13" class="edge">
<title>Node12&#45;&gt;Node3</title>
<path fill="none" stroke="midnightblue" d="M200.59,-56.32C189.89,-48.18 173.66,-35.84 160.84,-26.09"/>
<polygon fill="midnightblue" stroke="midnightblue" points="162.69,-23.1 152.61,-19.83 158.46,-28.67 162.69,-23.1"/>
</g>
<!-- Node13&#45;&gt;Node5 -->
<g id="edge20" class="edge">
<title>Node13&#45;&gt;Node5</title>
<path fill="none" stroke="midnightblue" d="M672.47,-112.44C638.41,-103.2 583.99,-88.44 546.48,-78.26"/>
<polygon fill="midnightblue" stroke="midnightblue" points="546.95,-74.76 536.38,-75.52 545.12,-81.51 546.95,-74.76"/>
</g>
<!-- Node13&#45;&gt;Node6 -->
<g id="edge16" class="edge">
<title>Node13&#45;&gt;Node6</title>
<path fill="none" stroke="midnightblue" d="M752.05,-114.9C800.36,-107.82 870.41,-94.69 890,-76 902.48,-64.09 906.9,-44.47 908.39,-29.9"/>
<polygon fill="midnightblue" stroke="midnightblue" points="911.91,-29.74 909.06,-19.54 904.93,-29.29 911.91,-29.74"/>
</g>
<!-- Node14 -->
<g id="node14" class="node">
<title>Node14</title>
<g id="a_node14"><a xlink:title=" ">
<polygon fill="white" stroke="#bfbfbf" points="1084.5,-56.5 1084.5,-75.5 1177.5,-75.5 1177.5,-56.5 1084.5,-56.5"/>
<text text-anchor="middle" x="1131" y="-63.5" font-family="Helvetica,sans-Serif" font-size="10.00">unordered_map</text>
</a>
</g>
</g>
<!-- Node13&#45;&gt;Node14 -->
<g id="edge17" class="edge">
<title>Node13&#45;&gt;Node14</title>
<path fill="none" stroke="midnightblue" d="M752.24,-115.82C821.31,-108.25 952.64,-93.33 1074,-76.24"/>
<polygon fill="midnightblue" stroke="midnightblue" points="1074.8,-79.66 1084.21,-74.79 1073.82,-72.73 1074.8,-79.66"/>
</g>
<!-- Node15 -->
<g id="node15" class="node">
<title>Node15</title>
<g id="a_node15"><a xlink:title=" ">
<polygon fill="white" stroke="#bfbfbf" points="599.5,-56.5 599.5,-75.5 656.5,-75.5 656.5,-56.5 599.5,-56.5"/>
<text text-anchor="middle" x="628" y="-63.5" font-family="Helvetica,sans-Serif" font-size="10.00">typeinfo</text>
</a>
</g>
</g>
<!-- Node13&#45;&gt;Node15 -->
<g id="edge18" class="edge">
<title>Node13&#45;&gt;Node15</title>
<path fill="none" stroke="midnightblue" d="M691.79,-112.32C680.22,-104.11 662.62,-91.6 648.84,-81.81"/>
<polygon fill="midnightblue" stroke="midnightblue" points="650.61,-78.77 640.43,-75.83 646.56,-84.48 650.61,-78.77"/>
</g>
<!-- Node16 -->
<g id="node16" class="node">
<title>Node16</title>
<g id="a_node16"><a xlink:title=" ">
<polygon fill="white" stroke="#bfbfbf" points="675,-56.5 675,-75.5 733,-75.5 733,-56.5 675,-56.5"/>
<text text-anchor="middle" x="704" y="-63.5" font-family="Helvetica,sans-Serif" font-size="10.00">memory</text>
</a>
</g>
</g>
<!-- Node13&#45;&gt;Node16 -->
<g id="edge19" class="edge">
<title>Node13&#45;&gt;Node16</title>
<path fill="none" stroke="midnightblue" d="M704,-112.08C704,-105.01 704,-94.86 704,-85.99"/>
<polygon fill="midnightblue" stroke="midnightblue" points="707.5,-85.75 704,-75.75 700.5,-85.75 707.5,-85.75"/>
</g>
<!-- Node17 -->
<g id="node17" class="node">
<title>Node17</title>
<g id="a_node17"><a xlink:href="WalError_8hpp.html" target="_top" xlink:title=" ">
<polygon fill="white" stroke="black" points="937.5,-56.5 937.5,-75.5 1066.5,-75.5 1066.5,-56.5 937.5,-56.5"/>
<text text-anchor="middle" x="1002" y="-63.5" font-family="Helvetica,sans-Serif" font-size="10.00">Exception/WalError.hpp</text>
</a>
</g>
</g>
<!-- Node13&#45;&gt;Node17 -->
<g id="edge21" class="edge">
<title>Node13&#45;&gt;Node17</title>
<path fill="none" stroke="midnightblue" d="M751.22,-112.44C803.75,-102.92 888.61,-87.55 944.85,-77.36"/>
<polygon fill="midnightblue" stroke="midnightblue" points="945.79,-80.74 955,-75.52 944.54,-73.86 945.79,-80.74"/>
</g>
<!-- Node20 -->
<g id="node20" class="node">
<title>Node20</title>
<g id="a_node20"><a xlink:href="TypeHolder_8hpp.html" target="_top" xlink:title=" ">
<polygon fill="white" stroke="black" points="751,-56.5 751,-75.5 881,-75.5 881,-56.5 751,-56.5"/>
<text text-anchor="middle" x="816" y="-63.5" font-family="Helvetica,sans-Serif" font-size="10.00">Models/TypeHolder.hpp</text>
</a>
</g>
</g>
<!-- Node13&#45;&gt;Node20 -->
<g id="edge25" class="edge">
<title>Node13&#45;&gt;Node20</title>
<path fill="none" stroke="midnightblue" d="M721.99,-112.32C740.04,-103.62 768.05,-90.12 788.8,-80.11"/>
<polygon fill="midnightblue" stroke="midnightblue" points="790.56,-83.15 798.05,-75.65 787.52,-76.84 790.56,-83.15"/>
</g>
<!-- Node17&#45;&gt;Node6 -->
<g id="edge24" class="edge">
<title>Node17&#45;&gt;Node6</title>
<path fill="none" stroke="midnightblue" d="M987.06,-56.32C972.41,-47.82 949.87,-34.73 932.76,-24.8"/>
<polygon fill="midnightblue" stroke="midnightblue" points="934.31,-21.65 923.9,-19.65 930.8,-27.7 934.31,-21.65"/>
</g>
<!-- Node18 -->
<g id="node18" class="node">
<title>Node18</title>
<g id="a_node18"><a xlink:title=" ">
<polygon fill="white" stroke="#bfbfbf" points="959.5,-0.5 959.5,-19.5 1024.5,-19.5 1024.5,-0.5 959.5,-0.5"/>
<text text-anchor="middle" x="992" y="-7.5" font-family="Helvetica,sans-Serif" font-size="10.00">exception</text>
</a>
</g>
</g>
<!-- Node17&#45;&gt;Node18 -->
<g id="edge22" class="edge">
<title>Node17&#45;&gt;Node18</title>
<path fill="none" stroke="midnightblue" d="M1000.35,-56.08C999.02,-48.93 997.12,-38.64 995.46,-29.69"/>
<polygon fill="midnightblue" stroke="midnightblue" points="998.88,-28.95 993.62,-19.75 992,-30.22 998.88,-28.95"/>
</g>
<!-- Node19 -->
<g id="node19" class="node">
<title>Node19</title>
<g id="a_node19"><a xlink:title=" ">
<polygon fill="white" stroke="#bfbfbf" points="1042.5,-0.5 1042.5,-19.5 1107.5,-19.5 1107.5,-0.5 1042.5,-0.5"/>
<text text-anchor="middle" x="1075" y="-7.5" font-family="Helvetica,sans-Serif" font-size="10.00">stdexcept</text>
</a>
</g>
</g>
<!-- Node17&#45;&gt;Node19 -->
<g id="edge23" class="edge">
<title>Node17&#45;&gt;Node19</title>
<path fill="none" stroke="midnightblue" d="M1013.73,-56.32C1024.84,-48.11 1041.74,-35.6 1054.98,-25.81"/>
<polygon fill="midnightblue" stroke="midnightblue" points="1057.1,-28.59 1063.06,-19.83 1052.94,-22.97 1057.1,-28.59"/>
</g>
</g>
</svg>
