<?xml version="1.0" encoding="UTF-8" standalone="no"?>
<!DOCTYPE svg PUBLIC "-//W3C//DTD SVG 1.1//EN"
 "http://www.w3.org/Graphics/SVG/1.1/DTD/svg11.dtd">
<!-- Generated by graphviz version 2.43.0 (0)
 -->
<!-- Title: sources/Component/Keyboard/KeyboardComponent.cpp Pages: 1 -->
<svg width="1186pt" height="330pt"
 viewBox="0.00 0.00 1185.50 330.00" xmlns="http://www.w3.org/2000/svg" xmlns:xlink="http://www.w3.org/1999/xlink">
<g id="graph0" class="graph" transform="scale(1 1) rotate(0) translate(4 326)">
<title>sources/Component/Keyboard/KeyboardComponent.cpp</title>
<polygon fill="white" stroke="transparent" points="-4,4 -4,-326 1181.5,-326 1181.5,4 -4,4"/>
<!-- Node1 -->
<g id="node1" class="node">
<title>Node1</title>
<g id="a_node1"><a xlink:title=" ">
<polygon fill="#bfbfbf" stroke="black" points="372.5,-291.5 372.5,-321.5 534.5,-321.5 534.5,-291.5 372.5,-291.5"/>
<text text-anchor="start" x="380.5" y="-309.5" font-family="Helvetica,sans-Serif" font-size="10.00">sources/Component/Keyboard</text>
<text text-anchor="middle" x="453.5" y="-298.5" font-family="Helvetica,sans-Serif" font-size="10.00">/KeyboardComponent.cpp</text>
</a>
</g>
</g>
<!-- Node2 -->
<g id="node2" class="node">
<title>Node2</title>
<g id="a_node2"><a xlink:href="ControllableComponent_8hpp.html" target="_top" xlink:title=" ">
<polygon fill="white" stroke="black" points="322.5,-168.5 322.5,-198.5 478.5,-198.5 478.5,-168.5 322.5,-168.5"/>
<text text-anchor="start" x="330.5" y="-186.5" font-family="Helvetica,sans-Serif" font-size="10.00">Component/Controllable</text>
<text text-anchor="middle" x="400.5" y="-175.5" font-family="Helvetica,sans-Serif" font-size="10.00">/ControllableComponent.hpp</text>
</a>
</g>
</g>
<!-- Node1&#45;&gt;Node2 -->
<g id="edge1" class="edge">
<title>Node1&#45;&gt;Node2</title>
<path fill="none" stroke="midnightblue" d="M445.56,-291.12C440.18,-281.13 433.06,-267.42 427.5,-255 420.68,-239.75 413.95,-222.2 408.92,-208.43"/>
<polygon fill="midnightblue" stroke="midnightblue" points="412.11,-206.95 405.43,-198.73 405.53,-209.33 412.11,-206.95"/>
</g>
<!-- Node21 -->
<g id="node21" class="node">
<title>Node21</title>
<g id="a_node21"><a xlink:href="KeyboardComponent_8hpp.html" target="_top" xlink:title=" ">
<polygon fill="white" stroke="black" points="436.5,-235.5 436.5,-254.5 576.5,-254.5 576.5,-235.5 436.5,-235.5"/>
<text text-anchor="middle" x="506.5" y="-242.5" font-family="Helvetica,sans-Serif" font-size="10.00">KeyboardComponent.hpp</text>
</a>
</g>
</g>
<!-- Node1&#45;&gt;Node21 -->
<g id="edge23" class="edge">
<title>Node1&#45;&gt;Node21</title>
<path fill="none" stroke="midnightblue" d="M466.06,-291.4C473.84,-282.66 483.86,-271.41 491.98,-262.3"/>
<polygon fill="midnightblue" stroke="midnightblue" points="494.75,-264.45 498.79,-254.66 489.52,-259.8 494.75,-264.45"/>
</g>
<!-- Node3 -->
<g id="node3" class="node">
<title>Node3</title>
<g id="a_node3"><a xlink:href="sources_2Models_2Vector2_8hpp.html" target="_top" xlink:title=" ">
<polygon fill="white" stroke="black" points="114,-112.5 114,-131.5 227,-131.5 227,-112.5 114,-112.5"/>
<text text-anchor="middle" x="170.5" y="-119.5" font-family="Helvetica,sans-Serif" font-size="10.00">Models/Vector2.hpp</text>
</a>
</g>
</g>
<!-- Node2&#45;&gt;Node3 -->
<g id="edge2" class="edge">
<title>Node2&#45;&gt;Node3</title>
<path fill="none" stroke="midnightblue" d="M346.28,-168.47C305.74,-157.99 251.05,-143.84 213.49,-134.12"/>
<polygon fill="midnightblue" stroke="midnightblue" points="213.94,-130.62 203.38,-131.51 212.19,-137.4 213.94,-130.62"/>
</g>
<!-- Node8 -->
<g id="node8" class="node">
<title>Node8</title>
<g id="a_node8"><a xlink:href="Component_8hpp.html" target="_top" xlink:title=" ">
<polygon fill="white" stroke="black" points="428,-56.5 428,-75.5 581,-75.5 581,-56.5 428,-56.5"/>
<text text-anchor="middle" x="504.5" y="-63.5" font-family="Helvetica,sans-Serif" font-size="10.00">Component/Component.hpp</text>
</a>
</g>
</g>
<!-- Node2&#45;&gt;Node8 -->
<g id="edge7" class="edge">
<title>Node2&#45;&gt;Node8</title>
<path fill="none" stroke="midnightblue" d="M413.25,-168.34C432.67,-146.77 469.55,-105.81 489.98,-83.13"/>
<polygon fill="midnightblue" stroke="midnightblue" points="492.6,-85.44 496.69,-75.67 487.4,-80.76 492.6,-85.44"/>
</g>
<!-- Node12 -->
<g id="node12" class="node">
<title>Node12</title>
<g id="a_node12"><a xlink:href="Entity_8hpp.html" target="_top" xlink:title=" ">
<polygon fill="white" stroke="black" points="654.5,-112.5 654.5,-131.5 750.5,-131.5 750.5,-112.5 654.5,-112.5"/>
<text text-anchor="middle" x="702.5" y="-119.5" font-family="Helvetica,sans-Serif" font-size="10.00">Entity/Entity.hpp</text>
</a>
</g>
</g>
<!-- Node2&#45;&gt;Node12 -->
<g id="edge11" class="edge">
<title>Node2&#45;&gt;Node12</title>
<path fill="none" stroke="midnightblue" d="M471.69,-168.47C526.18,-157.74 600.13,-143.17 649.49,-133.44"/>
<polygon fill="midnightblue" stroke="midnightblue" points="650.19,-136.87 659.32,-131.51 648.84,-130.01 650.19,-136.87"/>
</g>
<!-- Node20 -->
<g id="node20" class="node">
<title>Node20</title>
<g id="a_node20"><a xlink:title=" ">
<polygon fill="white" stroke="#bfbfbf" points="375.5,-112.5 375.5,-131.5 425.5,-131.5 425.5,-112.5 375.5,-112.5"/>
<text text-anchor="middle" x="400.5" y="-119.5" font-family="Helvetica,sans-Serif" font-size="10.00">chrono</text>
</a>
</g>
</g>
<!-- Node2&#45;&gt;Node20 -->
<g id="edge22" class="edge">
<title>Node2&#45;&gt;Node20</title>
<path fill="none" stroke="midnightblue" d="M400.5,-168.4C400.5,-160.47 400.5,-150.46 400.5,-141.86"/>
<polygon fill="midnightblue" stroke="midnightblue" points="404,-141.66 400.5,-131.66 397,-141.66 404,-141.66"/>
</g>
<!-- Node4 -->
<g id="node4" class="node">
<title>Node4</title>
<g id="a_node4"><a xlink:title=" ">
<polygon fill="white" stroke="#bfbfbf" points="191.5,-56.5 191.5,-75.5 251.5,-75.5 251.5,-56.5 191.5,-56.5"/>
<text text-anchor="middle" x="221.5" y="-63.5" font-family="Helvetica,sans-Serif" font-size="10.00">iostream</text>
</a>
</g>
</g>
<!-- Node3&#45;&gt;Node4 -->
<g id="edge3" class="edge">
<title>Node3&#45;&gt;Node4</title>
<path fill="none" stroke="midnightblue" d="M178.92,-112.08C186.35,-104.22 197.35,-92.57 206.31,-83.08"/>
<polygon fill="midnightblue" stroke="midnightblue" points="208.91,-85.42 213.24,-75.75 203.82,-80.62 208.91,-85.42"/>
</g>
<!-- Node5 -->
<g id="node5" class="node">
<title>Node5</title>
<g id="a_node5"><a xlink:title=" ">
<polygon fill="white" stroke="#bfbfbf" points="0,-56.5 0,-75.5 47,-75.5 47,-56.5 0,-56.5"/>
<text text-anchor="middle" x="23.5" y="-63.5" font-family="Helvetica,sans-Serif" font-size="10.00">cmath</text>
</a>
</g>
</g>
<!-- Node3&#45;&gt;Node5 -->
<g id="edge4" class="edge">
<title>Node3&#45;&gt;Node5</title>
<path fill="none" stroke="midnightblue" d="M147.21,-112.44C122.69,-103.44 83.9,-89.19 56.3,-79.05"/>
<polygon fill="midnightblue" stroke="midnightblue" points="57.28,-75.68 46.68,-75.52 54.86,-82.25 57.28,-75.68"/>
</g>
<!-- Node6 -->
<g id="node6" class="node">
<title>Node6</title>
<g id="a_node6"><a xlink:href="lib_2Ray_2sources_2Vector_2Vector2_8hpp.html" target="_top" xlink:title=" ">
<polygon fill="white" stroke="black" points="65.5,-56.5 65.5,-75.5 173.5,-75.5 173.5,-56.5 65.5,-56.5"/>
<text text-anchor="middle" x="119.5" y="-63.5" font-family="Helvetica,sans-Serif" font-size="10.00">Vector/Vector2.hpp</text>
</a>
</g>
</g>
<!-- Node3&#45;&gt;Node6 -->
<g id="edge5" class="edge">
<title>Node3&#45;&gt;Node6</title>
<path fill="none" stroke="midnightblue" d="M162.08,-112.08C154.65,-104.22 143.65,-92.57 134.69,-83.08"/>
<polygon fill="midnightblue" stroke="midnightblue" points="137.18,-80.62 127.76,-75.75 132.09,-85.42 137.18,-80.62"/>
</g>
<!-- Node7 -->
<g id="node7" class="node">
<title>Node7</title>
<g id="a_node7"><a xlink:title=" ">
<polygon fill="white" stroke="#bfbfbf" points="214,-0.5 214,-19.5 267,-19.5 267,-0.5 214,-0.5"/>
<text text-anchor="middle" x="240.5" y="-7.5" font-family="Helvetica,sans-Serif" font-size="10.00">raylib.h</text>
</a>
</g>
</g>
<!-- Node6&#45;&gt;Node7 -->
<g id="edge6" class="edge">
<title>Node6&#45;&gt;Node7</title>
<path fill="none" stroke="midnightblue" d="M138.67,-56.44C158.41,-47.64 189.39,-33.81 211.99,-23.72"/>
<polygon fill="midnightblue" stroke="midnightblue" points="213.71,-26.79 221.42,-19.52 210.86,-20.4 213.71,-26.79"/>
</g>
<!-- Node9 -->
<g id="node9" class="node">
<title>Node9</title>
<g id="a_node9"><a xlink:title=" ">
<polygon fill="white" stroke="#bfbfbf" points="361,-0.5 361,-19.5 408,-19.5 408,-0.5 361,-0.5"/>
<text text-anchor="middle" x="384.5" y="-7.5" font-family="Helvetica,sans-Serif" font-size="10.00">vector</text>
</a>
</g>
</g>
<!-- Node8&#45;&gt;Node9 -->
<g id="edge8" class="edge">
<title>Node8&#45;&gt;Node9</title>
<path fill="none" stroke="midnightblue" d="M485.49,-56.44C465.91,-47.64 435.19,-33.81 412.77,-23.72"/>
<polygon fill="midnightblue" stroke="midnightblue" points="413.98,-20.43 403.43,-19.52 411.11,-26.81 413.98,-20.43"/>
</g>
<!-- Node10 -->
<g id="node10" class="node">
<title>Node10</title>
<g id="a_node10"><a xlink:title=" ">
<polygon fill="white" stroke="#bfbfbf" points="587.5,-0.5 587.5,-19.5 631.5,-19.5 631.5,-0.5 587.5,-0.5"/>
<text text-anchor="middle" x="609.5" y="-7.5" font-family="Helvetica,sans-Serif" font-size="10.00">string</text>
</a>
</g>
</g>
<!-- Node8&#45;&gt;Node10 -->
<g id="edge9" class="edge">
<title>Node8&#45;&gt;Node10</title>
<path fill="none" stroke="midnightblue" d="M521.37,-56.32C538.21,-47.66 564.31,-34.24 583.74,-24.25"/>
<polygon fill="midnightblue" stroke="midnightblue" points="585.38,-27.34 592.67,-19.65 582.18,-21.12 585.38,-27.34"/>
</g>
<!-- Node11 -->
<g id="node11" class="node">
<title>Node11</title>
<g id="a_node11"><a xlink:title=" ">
<polygon fill="white" stroke="#bfbfbf" points="472,-0.5 472,-19.5 537,-19.5 537,-0.5 472,-0.5"/>
<text text-anchor="middle" x="504.5" y="-7.5" font-family="Helvetica,sans-Serif" font-size="10.00">typeindex</text>
</a>
</g>
</g>
<!-- Node8&#45;&gt;Node11 -->
<g id="edge10" class="edge">
<title>Node8&#45;&gt;Node11</title>
<path fill="none" stroke="midnightblue" d="M504.5,-56.08C504.5,-49.01 504.5,-38.86 504.5,-29.99"/>
<polygon fill="midnightblue" stroke="midnightblue" points="508,-29.75 504.5,-19.75 501,-29.75 508,-29.75"/>
</g>
<!-- Node12&#45;&gt;Node8 -->
<g id="edge16" class="edge">
<title>Node12&#45;&gt;Node8</title>
<path fill="none" stroke="midnightblue" d="M671.13,-112.44C637.24,-103.2 583.1,-88.44 545.78,-78.26"/>
<polygon fill="midnightblue" stroke="midnightblue" points="546.3,-74.77 535.73,-75.52 544.45,-81.52 546.3,-74.77"/>
</g>
<!-- Node12&#45;&gt;Node10 -->
<g id="edge12" class="edge">
<title>Node12&#45;&gt;Node10</title>
<path fill="none" stroke="midnightblue" d="M680.34,-112.43C664.08,-105.08 642.62,-92.96 629.5,-76 619.13,-62.59 614.1,-43.77 611.68,-29.83"/>
<polygon fill="midnightblue" stroke="midnightblue" points="615.14,-29.29 610.25,-19.89 608.21,-30.29 615.14,-29.29"/>
</g>
<!-- Node13 -->
<g id="node13" class="node">
<title>Node13</title>
<g id="a_node13"><a xlink:title=" ">
<polygon fill="white" stroke="#bfbfbf" points="785,-56.5 785,-75.5 878,-75.5 878,-56.5 785,-56.5"/>
<text text-anchor="middle" x="831.5" y="-63.5" font-family="Helvetica,sans-Serif" font-size="10.00">unordered_map</text>
</a>
</g>
</g>
<!-- Node12&#45;&gt;Node13 -->
<g id="edge13" class="edge">
<title>Node12&#45;&gt;Node13</title>
<path fill="none" stroke="midnightblue" d="M722.94,-112.44C744.17,-103.56 777.6,-89.56 801.75,-79.45"/>
<polygon fill="midnightblue" stroke="midnightblue" points="803.28,-82.61 811.16,-75.52 800.58,-76.15 803.28,-82.61"/>
</g>
<!-- Node14 -->
<g id="node14" class="node">
<title>Node14</title>
<g id="a_node14"><a xlink:title=" ">
<polygon fill="white" stroke="#bfbfbf" points="896,-56.5 896,-75.5 953,-75.5 953,-56.5 896,-56.5"/>
<text text-anchor="middle" x="924.5" y="-63.5" font-family="Helvetica,sans-Serif" font-size="10.00">typeinfo</text>
</a>
</g>
</g>
<!-- Node12&#45;&gt;Node14 -->
<g id="edge14" class="edge">
<title>Node12&#45;&gt;Node14</title>
<path fill="none" stroke="midnightblue" d="M737.68,-112.44C778.11,-102.61 844.26,-86.52 886.03,-76.36"/>
<polygon fill="midnightblue" stroke="midnightblue" points="886.95,-79.74 895.84,-73.97 885.3,-72.93 886.95,-79.74"/>
</g>
<!-- Node15 -->
<g id="node15" class="node">
<title>Node15</title>
<g id="a_node15"><a xlink:title=" ">
<polygon fill="white" stroke="#bfbfbf" points="971.5,-56.5 971.5,-75.5 1029.5,-75.5 1029.5,-56.5 971.5,-56.5"/>
<text text-anchor="middle" x="1000.5" y="-63.5" font-family="Helvetica,sans-Serif" font-size="10.00">memory</text>
</a>
</g>
</g>
<!-- Node12&#45;&gt;Node15 -->
<g id="edge15" class="edge">
<title>Node12&#45;&gt;Node15</title>
<path fill="none" stroke="midnightblue" d="M750.59,-113.58C800.75,-105.64 881.9,-92.23 961.32,-76.14"/>
<polygon fill="midnightblue" stroke="midnightblue" points="962.4,-79.49 971.49,-74.06 961,-72.63 962.4,-79.49"/>
</g>
<!-- Node16 -->
<g id="node16" class="node">
<title>Node16</title>
<g id="a_node16"><a xlink:href="WalError_8hpp.html" target="_top" xlink:title=" ">
<polygon fill="white" stroke="black" points="638,-56.5 638,-75.5 767,-75.5 767,-56.5 638,-56.5"/>
<text text-anchor="middle" x="702.5" y="-63.5" font-family="Helvetica,sans-Serif" font-size="10.00">Exception/WalError.hpp</text>
</a>
</g>
</g>
<!-- Node12&#45;&gt;Node16 -->
<g id="edge17" class="edge">
<title>Node12&#45;&gt;Node16</title>
<path fill="none" stroke="midnightblue" d="M702.5,-112.08C702.5,-105.01 702.5,-94.86 702.5,-85.99"/>
<polygon fill="midnightblue" stroke="midnightblue" points="706,-85.75 702.5,-75.75 699,-85.75 706,-85.75"/>
</g>
<!-- Node19 -->
<g id="node19" class="node">
<title>Node19</title>
<g id="a_node19"><a xlink:href="TypeHolder_8hpp.html" target="_top" xlink:title=" ">
<polygon fill="white" stroke="black" points="1047.5,-56.5 1047.5,-75.5 1177.5,-75.5 1177.5,-56.5 1047.5,-56.5"/>
<text text-anchor="middle" x="1112.5" y="-63.5" font-family="Helvetica,sans-Serif" font-size="10.00">Models/TypeHolder.hpp</text>
</a>
</g>
</g>
<!-- Node12&#45;&gt;Node19 -->
<g id="edge21" class="edge">
<title>Node12&#45;&gt;Node19</title>
<path fill="none" stroke="midnightblue" d="M750.74,-114.65C821.63,-105.31 954.55,-87.8 1038.03,-76.81"/>
<polygon fill="midnightblue" stroke="midnightblue" points="1038.5,-80.28 1047.96,-75.5 1037.59,-73.34 1038.5,-80.28"/>
</g>
<!-- Node16&#45;&gt;Node10 -->
<g id="edge20" class="edge">
<title>Node16&#45;&gt;Node10</title>
<path fill="none" stroke="midnightblue" d="M687.56,-56.32C672.91,-47.82 650.37,-34.73 633.26,-24.8"/>
<polygon fill="midnightblue" stroke="midnightblue" points="634.81,-21.65 624.4,-19.65 631.3,-27.7 634.81,-21.65"/>
</g>
<!-- Node17 -->
<g id="node17" class="node">
<title>Node17</title>
<g id="a_node17"><a xlink:title=" ">
<polygon fill="white" stroke="#bfbfbf" points="660,-0.5 660,-19.5 725,-19.5 725,-0.5 660,-0.5"/>
<text text-anchor="middle" x="692.5" y="-7.5" font-family="Helvetica,sans-Serif" font-size="10.00">exception</text>
</a>
</g>
</g>
<!-- Node16&#45;&gt;Node17 -->
<g id="edge18" class="edge">
<title>Node16&#45;&gt;Node17</title>
<path fill="none" stroke="midnightblue" d="M700.85,-56.08C699.52,-48.93 697.62,-38.64 695.96,-29.69"/>
<polygon fill="midnightblue" stroke="midnightblue" points="699.38,-28.95 694.12,-19.75 692.5,-30.22 699.38,-28.95"/>
</g>
<!-- Node18 -->
<g id="node18" class="node">
<title>Node18</title>
<g id="a_node18"><a xlink:title=" ">
<polygon fill="white" stroke="#bfbfbf" points="743,-0.5 743,-19.5 808,-19.5 808,-0.5 743,-0.5"/>
<text text-anchor="middle" x="775.5" y="-7.5" font-family="Helvetica,sans-Serif" font-size="10.00">stdexcept</text>
</a>
</g>
</g>
<!-- Node16&#45;&gt;Node18 -->
<g id="edge19" class="edge">
<title>Node16&#45;&gt;Node18</title>
<path fill="none" stroke="midnightblue" d="M714.23,-56.32C725.34,-48.11 742.24,-35.6 755.48,-25.81"/>
<polygon fill="midnightblue" stroke="midnightblue" points="757.6,-28.59 763.56,-19.83 753.44,-22.97 757.6,-28.59"/>
</g>
<!-- Node21&#45;&gt;Node2 -->
<g id="edge28" class="edge">
<title>Node21&#45;&gt;Node2</title>
<path fill="none" stroke="midnightblue" d="M491.31,-235.48C476.49,-227.15 453.42,-214.21 434.25,-203.45"/>
<polygon fill="midnightblue" stroke="midnightblue" points="435.92,-200.37 425.48,-198.52 432.49,-206.47 435.92,-200.37"/>
</g>
<!-- Node21&#45;&gt;Node8 -->
<g id="edge27" class="edge">
<title>Node21&#45;&gt;Node8</title>
<path fill="none" stroke="midnightblue" d="M510.1,-235.22C513.56,-226.28 518.53,-211.94 520.5,-199 526.31,-160.77 527.07,-150.1 520.5,-112 518.93,-102.91 515.71,-93.22 512.56,-85.17"/>
<polygon fill="midnightblue" stroke="midnightblue" points="515.69,-83.6 508.61,-75.72 509.24,-86.3 515.69,-83.6"/>
</g>
<!-- Node21&#45;&gt;Node12 -->
<g id="edge29" class="edge">
<title>Node21&#45;&gt;Node12</title>
<path fill="none" stroke="midnightblue" d="M520.28,-235.49C553.59,-214.93 638.72,-162.38 679.73,-137.05"/>
<polygon fill="midnightblue" stroke="midnightblue" points="681.8,-139.89 688.47,-131.66 678.12,-133.94 681.8,-139.89"/>
</g>
<!-- Node22 -->
<g id="node22" class="node">
<title>Node22</title>
<g id="a_node22"><a xlink:href="Keyboard_8hpp.html" target="_top" xlink:title=" ">
<polygon fill="white" stroke="black" points="269.5,-56.5 269.5,-75.5 409.5,-75.5 409.5,-56.5 269.5,-56.5"/>
<text text-anchor="middle" x="339.5" y="-63.5" font-family="Helvetica,sans-Serif" font-size="10.00">Controllers/Keyboard.hpp</text>
</a>
</g>
</g>
<!-- Node21&#45;&gt;Node22 -->
<g id="edge24" class="edge">
<title>Node21&#45;&gt;Node22</title>
<path fill="none" stroke="midnightblue" d="M505.74,-235.04C504.18,-220.25 499.66,-190.18 487.5,-168 471.03,-137.95 462.24,-132.12 434.5,-112 415.76,-98.4 392.26,-87.23 373.32,-79.42"/>
<polygon fill="midnightblue" stroke="midnightblue" points="374.46,-76.11 363.88,-75.64 371.87,-82.61 374.46,-76.11"/>
</g>
<!-- Node22&#45;&gt;Node7 -->
<g id="edge25" class="edge">
<title>Node22&#45;&gt;Node7</title>
<path fill="none" stroke="midnightblue" d="M323.59,-56.32C307.86,-47.74 283.56,-34.49 265.29,-24.52"/>
<polygon fill="midnightblue" stroke="midnightblue" points="266.82,-21.37 256.37,-19.65 263.47,-27.52 266.82,-21.37"/>
</g>
<!-- Node22&#45;&gt;Node9 -->
<g id="edge26" class="edge">
<title>Node22&#45;&gt;Node9</title>
<path fill="none" stroke="midnightblue" d="M346.93,-56.08C353.35,-48.38 362.81,-37.03 370.62,-27.65"/>
<polygon fill="midnightblue" stroke="midnightblue" points="373.49,-29.67 377.21,-19.75 368.12,-25.19 373.49,-29.67"/>
</g>
</g>
</svg>
