<?xml version="1.0" encoding="UTF-8" standalone="no"?>
<!DOCTYPE svg PUBLIC "-//W3C//DTD SVG 1.1//EN"
 "http://www.w3.org/Graphics/SVG/1.1/DTD/svg11.dtd">
<!-- Generated by graphviz version 2.43.0 (0)
 -->
<!-- Title: sources/Component/Keyboard/KeyboardComponent.hpp Pages: 1 -->
<svg width="1991pt" height="173pt"
 viewBox="0.00 0.00 1991.00 173.00" xmlns="http://www.w3.org/2000/svg" xmlns:xlink="http://www.w3.org/1999/xlink">
<g id="graph0" class="graph" transform="scale(1 1) rotate(0) translate(4 169)">
<title>sources/Component/Keyboard/KeyboardComponent.hpp</title>
<polygon fill="white" stroke="transparent" points="-4,4 -4,-169 1987,-169 1987,4 -4,4"/>
<!-- Node1 -->
<g id="node1" class="node">
<title>Node1</title>
<g id="a_node1"><a xlink:title=" ">
<polygon fill="#bfbfbf" stroke="black" points="971,-134.5 971,-164.5 1133,-164.5 1133,-134.5 971,-134.5"/>
<text text-anchor="start" x="979" y="-152.5" font-family="Helvetica,sans-Serif" font-size="10.00">sources/Component/Keyboard</text>
<text text-anchor="middle" x="1052" y="-141.5" font-family="Helvetica,sans-Serif" font-size="10.00">/KeyboardComponent.hpp</text>
</a>
</g>
</g>
<!-- Node2 -->
<g id="node2" class="node">
<title>Node2</title>
<g id="a_node2"><a xlink:href="KeyboardComponent_8cpp.html" target="_top" xlink:title=" ">
<polygon fill="white" stroke="black" points="0,-67.5 0,-97.5 162,-97.5 162,-67.5 0,-67.5"/>
<text text-anchor="start" x="8" y="-85.5" font-family="Helvetica,sans-Serif" font-size="10.00">sources/Component/Keyboard</text>
<text text-anchor="middle" x="81" y="-74.5" font-family="Helvetica,sans-Serif" font-size="10.00">/KeyboardComponent.cpp</text>
</a>
</g>
</g>
<!-- Node1&#45;&gt;Node2 -->
<g id="edge1" class="edge">
<title>Node1&#45;&gt;Node2</title>
<path fill="none" stroke="midnightblue" d="M960.71,-146.35C800.45,-141.89 458.25,-129.29 171,-98 168.17,-97.69 165.29,-97.35 162.38,-97"/>
<polygon fill="midnightblue" stroke="midnightblue" points="960.9,-149.86 971,-146.63 961.1,-142.86 960.9,-149.86"/>
</g>
<!-- Node3 -->
<g id="node3" class="node">
<title>Node3</title>
<g id="a_node3"><a xlink:href="ParserYaml_8cpp.html" target="_top" xlink:title=" ">
<polygon fill="white" stroke="black" points="180,-73 180,-92 344,-92 344,-73 180,-73"/>
<text text-anchor="middle" x="262" y="-80" font-family="Helvetica,sans-Serif" font-size="10.00">sources/Parser/ParserYaml.cpp</text>
</a>
</g>
</g>
<!-- Node1&#45;&gt;Node3 -->
<g id="edge2" class="edge">
<title>Node1&#45;&gt;Node3</title>
<path fill="none" stroke="midnightblue" d="M960.6,-144.41C826.87,-137.85 570.19,-123.1 353,-98 339.17,-96.4 324.24,-94.22 310.54,-92.03"/>
<polygon fill="midnightblue" stroke="midnightblue" points="960.64,-147.91 970.8,-144.9 960.98,-140.92 960.64,-147.91"/>
</g>
<!-- Node4 -->
<g id="node4" class="node">
<title>Node4</title>
<g id="a_node4"><a xlink:href="CreditScene_8cpp.html" target="_top" xlink:title=" ">
<polygon fill="white" stroke="black" points="362.5,-73 362.5,-92 535.5,-92 535.5,-73 362.5,-73"/>
<text text-anchor="middle" x="449" y="-80" font-family="Helvetica,sans-Serif" font-size="10.00">sources/Runner/CreditScene.cpp</text>
</a>
</g>
</g>
<!-- Node1&#45;&gt;Node4 -->
<g id="edge3" class="edge">
<title>Node1&#45;&gt;Node4</title>
<path fill="none" stroke="midnightblue" d="M960.4,-140.78C858.74,-131.89 689.89,-116.15 545,-98 531.12,-96.26 516.15,-94.13 502.25,-92.03"/>
<polygon fill="midnightblue" stroke="midnightblue" points="960.37,-144.29 970.63,-141.67 960.98,-137.32 960.37,-144.29"/>
</g>
<!-- Node5 -->
<g id="node5" class="node">
<title>Node5</title>
<g id="a_node5"><a xlink:href="HowToPlayScene_8cpp.html" target="_top" xlink:title=" ">
<polygon fill="white" stroke="black" points="554,-67.5 554,-97.5 702,-97.5 702,-67.5 554,-67.5"/>
<text text-anchor="start" x="562" y="-85.5" font-family="Helvetica,sans-Serif" font-size="10.00">sources/Runner/HowToPlay</text>
<text text-anchor="middle" x="628" y="-74.5" font-family="Helvetica,sans-Serif" font-size="10.00">Scene.cpp</text>
</a>
</g>
</g>
<!-- Node1&#45;&gt;Node5 -->
<g id="edge4" class="edge">
<title>Node1&#45;&gt;Node5</title>
<path fill="none" stroke="midnightblue" d="M961.02,-135.68C892.27,-125.83 795.61,-111.65 711,-98 708.11,-97.53 705.17,-97.05 702.2,-96.56"/>
<polygon fill="midnightblue" stroke="midnightblue" points="960.56,-139.15 970.95,-137.1 961.55,-132.22 960.56,-139.15"/>
</g>
<!-- Node6 -->
<g id="node6" class="node">
<title>Node6</title>
<g id="a_node6"><a xlink:href="MainMenuScene_8cpp.html" target="_top" xlink:title=" ">
<polygon fill="white" stroke="black" points="720.5,-73 720.5,-92 915.5,-92 915.5,-73 720.5,-73"/>
<text text-anchor="middle" x="818" y="-80" font-family="Helvetica,sans-Serif" font-size="10.00">sources/Runner/MainMenuScene.cpp</text>
</a>
</g>
</g>
<!-- Node1&#45;&gt;Node6 -->
<g id="edge5" class="edge">
<title>Node1&#45;&gt;Node6</title>
<path fill="none" stroke="midnightblue" d="M991.7,-131.75C945.94,-119.04 884.91,-102.09 848.7,-92.03"/>
<polygon fill="midnightblue" stroke="midnightblue" points="990.94,-135.17 1001.51,-134.48 992.82,-128.43 990.94,-135.17"/>
</g>
<!-- Node7 -->
<g id="node7" class="node">
<title>Node7</title>
<g id="a_node7"><a xlink:href="Runner_8cpp.html" target="_top" xlink:title=" ">
<polygon fill="white" stroke="black" points="1229.5,-6 1229.5,-25 1378.5,-25 1378.5,-6 1229.5,-6"/>
<text text-anchor="middle" x="1304" y="-13" font-family="Helvetica,sans-Serif" font-size="10.00">sources/Runner/Runner.cpp</text>
</a>
</g>
</g>
<!-- Node1&#45;&gt;Node7 -->
<g id="edge6" class="edge">
<title>Node1&#45;&gt;Node7</title>
<path fill="none" stroke="midnightblue" d="M1007.1,-130.09C975.25,-114.42 941.5,-90.75 962,-67 995.83,-27.81 1139.35,-18.51 1229.38,-16.61"/>
<polygon fill="midnightblue" stroke="midnightblue" points="1005.88,-133.39 1016.42,-134.49 1008.87,-127.06 1005.88,-133.39"/>
</g>
<!-- Node8 -->
<g id="node8" class="node">
<title>Node8</title>
<g id="a_node8"><a xlink:href="SettingsMenuScene_8cpp.html" target="_top" xlink:title=" ">
<polygon fill="white" stroke="black" points="971.5,-67.5 971.5,-97.5 1132.5,-97.5 1132.5,-67.5 971.5,-67.5"/>
<text text-anchor="start" x="979.5" y="-85.5" font-family="Helvetica,sans-Serif" font-size="10.00">sources/Runner/SettingsMenu</text>
<text text-anchor="middle" x="1052" y="-74.5" font-family="Helvetica,sans-Serif" font-size="10.00">Scene.cpp</text>
</a>
</g>
</g>
<!-- Node1&#45;&gt;Node8 -->
<g id="edge7" class="edge">
<title>Node1&#45;&gt;Node8</title>
<path fill="none" stroke="midnightblue" d="M1052,-124.11C1052,-115.15 1052,-105.32 1052,-97.58"/>
<polygon fill="midnightblue" stroke="midnightblue" points="1048.5,-124.4 1052,-134.4 1055.5,-124.4 1048.5,-124.4"/>
</g>
<!-- Node9 -->
<g id="node9" class="node">
<title>Node9</title>
<g id="a_node9"><a xlink:href="SplashScreenScene_8cpp.html" target="_top" xlink:title=" ">
<polygon fill="white" stroke="black" points="1151,-67.5 1151,-97.5 1311,-97.5 1311,-67.5 1151,-67.5"/>
<text text-anchor="start" x="1159" y="-85.5" font-family="Helvetica,sans-Serif" font-size="10.00">sources/Runner/SplashScreen</text>
<text text-anchor="middle" x="1231" y="-74.5" font-family="Helvetica,sans-Serif" font-size="10.00">Scene.cpp</text>
</a>
</g>
</g>
<!-- Node1&#45;&gt;Node9 -->
<g id="edge8" class="edge">
<title>Node1&#45;&gt;Node9</title>
<path fill="none" stroke="midnightblue" d="M1100.32,-130.96C1129.15,-120.48 1165.28,-107.37 1192.24,-97.58"/>
<polygon fill="midnightblue" stroke="midnightblue" points="1099.05,-127.69 1090.84,-134.4 1101.43,-134.27 1099.05,-127.69"/>
</g>
<!-- Node10 -->
<g id="node10" class="node">
<title>Node10</title>
<g id="a_node10"><a xlink:href="TitleScreenScene_8cpp.html" target="_top" xlink:title=" ">
<polygon fill="white" stroke="black" points="1329.5,-67.5 1329.5,-97.5 1478.5,-97.5 1478.5,-67.5 1329.5,-67.5"/>
<text text-anchor="start" x="1337.5" y="-85.5" font-family="Helvetica,sans-Serif" font-size="10.00">sources/Runner/TitleScreen</text>
<text text-anchor="middle" x="1404" y="-74.5" font-family="Helvetica,sans-Serif" font-size="10.00">Scene.cpp</text>
</a>
</g>
</g>
<!-- Node1&#45;&gt;Node10 -->
<g id="edge9" class="edge">
<title>Node1&#45;&gt;Node10</title>
<path fill="none" stroke="midnightblue" d="M1137.93,-132.63C1196.53,-121.81 1273.37,-107.62 1329.4,-97.28"/>
<polygon fill="midnightblue" stroke="midnightblue" points="1137.14,-129.22 1127.95,-134.48 1138.41,-136.1 1137.14,-129.22"/>
</g>
<!-- Node11 -->
<g id="node11" class="node">
<title>Node11</title>
<g id="a_node11"><a xlink:href="AnimatorSystem_8cpp.html" target="_top" xlink:title=" ">
<polygon fill="white" stroke="black" points="1497,-67.5 1497,-97.5 1639,-97.5 1639,-67.5 1497,-67.5"/>
<text text-anchor="start" x="1505" y="-85.5" font-family="Helvetica,sans-Serif" font-size="10.00">sources/System/Animator</text>
<text text-anchor="middle" x="1568" y="-74.5" font-family="Helvetica,sans-Serif" font-size="10.00">/AnimatorSystem.cpp</text>
</a>
</g>
</g>
<!-- Node1&#45;&gt;Node11 -->
<g id="edge10" class="edge">
<title>Node1&#45;&gt;Node11</title>
<path fill="none" stroke="midnightblue" d="M1143.14,-139.57C1231.3,-130.54 1368.59,-115.46 1487,-98 1490.25,-97.52 1493.57,-97.01 1496.92,-96.48"/>
<polygon fill="midnightblue" stroke="midnightblue" points="1142.76,-136.09 1133.17,-140.59 1143.47,-143.05 1142.76,-136.09"/>
</g>
<!-- Node12 -->
<g id="node12" class="node">
<title>Node12</title>
<g id="a_node12"><a xlink:href="KeyboardSystem_8hpp.html" target="_top" xlink:title=" ">
<polygon fill="white" stroke="black" points="1657.5,-67.5 1657.5,-97.5 1800.5,-97.5 1800.5,-67.5 1657.5,-67.5"/>
<text text-anchor="start" x="1665.5" y="-85.5" font-family="Helvetica,sans-Serif" font-size="10.00">sources/System/Keyboard</text>
<text text-anchor="middle" x="1729" y="-74.5" font-family="Helvetica,sans-Serif" font-size="10.00">/KeyboardSystem.hpp</text>
</a>
</g>
</g>
<!-- Node1&#45;&gt;Node12 -->
<g id="edge11" class="edge">
<title>Node1&#45;&gt;Node12</title>
<path fill="none" stroke="midnightblue" d="M1143.24,-143.4C1260.42,-136.25 1469.93,-121.43 1648,-98 1650.97,-97.61 1654.01,-97.18 1657.07,-96.73"/>
<polygon fill="midnightblue" stroke="midnightblue" points="1143,-139.91 1133.23,-144.01 1143.43,-146.9 1143,-139.91"/>
</g>
<!-- Node13 -->
<g id="node13" class="node">
<title>Node13</title>
<g id="a_node13"><a xlink:href="KeyboardSystem_8cpp.html" target="_top" xlink:title=" ">
<polygon fill="white" stroke="black" points="1707.5,-0.5 1707.5,-30.5 1850.5,-30.5 1850.5,-0.5 1707.5,-0.5"/>
<text text-anchor="start" x="1715.5" y="-18.5" font-family="Helvetica,sans-Serif" font-size="10.00">sources/System/Keyboard</text>
<text text-anchor="middle" x="1779" y="-7.5" font-family="Helvetica,sans-Serif" font-size="10.00">/KeyboardSystem.cpp</text>
</a>
</g>
</g>
<!-- Node1&#45;&gt;Node13 -->
<g id="edge14" class="edge">
<title>Node1&#45;&gt;Node13</title>
<path fill="none" stroke="midnightblue" d="M1143.28,-149.24C1334.93,-149.82 1765.32,-145.75 1810,-98 1827.89,-78.88 1807.45,-48.38 1792.31,-30.62"/>
<polygon fill="midnightblue" stroke="midnightblue" points="1143.24,-145.74 1133.22,-149.2 1143.21,-152.74 1143.24,-145.74"/>
</g>
<!-- Node14 -->
<g id="node14" class="node">
<title>Node14</title>
<g id="a_node14"><a xlink:href="LobbySystem_8cpp.html" target="_top" xlink:title=" ">
<polygon fill="white" stroke="black" points="1857,-67.5 1857,-97.5 1983,-97.5 1983,-67.5 1857,-67.5"/>
<text text-anchor="start" x="1865" y="-85.5" font-family="Helvetica,sans-Serif" font-size="10.00">sources/System/Lobby</text>
<text text-anchor="middle" x="1920" y="-74.5" font-family="Helvetica,sans-Serif" font-size="10.00">/LobbySystem.cpp</text>
</a>
</g>
</g>
<!-- Node1&#45;&gt;Node14 -->
<g id="edge15" class="edge">
<title>Node1&#45;&gt;Node14</title>
<path fill="none" stroke="midnightblue" d="M1143.52,-146.29C1291.2,-141.91 1591,-129.65 1843,-98 1847.45,-97.44 1852.04,-96.78 1856.65,-96.07"/>
<polygon fill="midnightblue" stroke="midnightblue" points="1143.05,-142.8 1133.16,-146.59 1143.25,-149.8 1143.05,-142.8"/>
</g>
<!-- Node12&#45;&gt;Node7 -->
<g id="edge12" class="edge">
<title>Node12&#45;&gt;Node7</title>
<path fill="none" stroke="midnightblue" d="M1647.35,-66.92C1542.59,-49.97 1433.05,-34.34 1366.24,-25.04"/>
<polygon fill="midnightblue" stroke="midnightblue" points="1647.04,-70.42 1657.47,-68.57 1648.16,-63.51 1647.04,-70.42"/>
</g>
<!-- Node12&#45;&gt;Node13 -->
<g id="edge13" class="edge">
<title>Node12&#45;&gt;Node13</title>
<path fill="none" stroke="midnightblue" d="M1745.96,-59.45C1753.31,-49.9 1761.69,-39 1768.17,-30.58"/>
<polygon fill="midnightblue" stroke="midnightblue" points="1743.17,-57.34 1739.85,-67.4 1748.72,-61.6 1743.17,-57.34"/>
</g>
</g>
</svg>
