<?xml version="1.0" encoding="UTF-8" standalone="no"?>
<!DOCTYPE svg PUBLIC "-//W3C//DTD SVG 1.1//EN"
 "http://www.w3.org/Graphics/SVG/1.1/DTD/svg11.dtd">
<!-- Generated by graphviz version 2.43.0 (0)
 -->
<!-- Title: sources/System/Keyboard/KeyboardSystem.hpp Pages: 1 -->
<svg width="1497pt" height="453pt"
 viewBox="0.00 0.00 1496.50 453.00" xmlns="http://www.w3.org/2000/svg" xmlns:xlink="http://www.w3.org/1999/xlink">
<g id="graph0" class="graph" transform="scale(1 1) rotate(0) translate(4 449)">
<title>sources/System/Keyboard/KeyboardSystem.hpp</title>
<polygon fill="white" stroke="transparent" points="-4,4 -4,-449 1492.5,-449 1492.5,4 -4,4"/>
<!-- Node1 -->
<g id="node1" class="node">
<title>Node1</title>
<g id="a_node1"><a xlink:title=" ">
<polygon fill="#bfbfbf" stroke="black" points="874,-414.5 874,-444.5 1017,-444.5 1017,-414.5 874,-414.5"/>
<text text-anchor="start" x="882" y="-432.5" font-family="Helvetica,sans-Serif" font-size="10.00">sources/System/Keyboard</text>
<text text-anchor="middle" x="945.5" y="-421.5" font-family="Helvetica,sans-Serif" font-size="10.00">/KeyboardSystem.hpp</text>
</a>
</g>
</g>
<!-- Node2 -->
<g id="node2" class="node">
<title>Node2</title>
<g id="a_node2"><a xlink:href="System_8hpp.html" target="_top" xlink:title=" ">
<polygon fill="white" stroke="black" points="935.5,-358.5 935.5,-377.5 1049.5,-377.5 1049.5,-358.5 935.5,-358.5"/>
<text text-anchor="middle" x="992.5" y="-365.5" font-family="Helvetica,sans-Serif" font-size="10.00">System/System.hpp</text>
</a>
</g>
</g>
<!-- Node1&#45;&gt;Node2 -->
<g id="edge1" class="edge">
<title>Node1&#45;&gt;Node2</title>
<path fill="none" stroke="midnightblue" d="M956.64,-414.4C963.47,-405.75 972.24,-394.64 979.41,-385.58"/>
<polygon fill="midnightblue" stroke="midnightblue" points="982.21,-387.67 985.66,-377.66 976.72,-383.34 982.21,-387.67"/>
</g>
<!-- Node27 -->
<g id="node27" class="node">
<title>Node27</title>
<g id="a_node27"><a xlink:title=" ">
<polygon fill="white" stroke="#bfbfbf" points="879.5,-358.5 879.5,-377.5 917.5,-377.5 917.5,-358.5 879.5,-358.5"/>
<text text-anchor="middle" x="898.5" y="-365.5" font-family="Helvetica,sans-Serif" font-size="10.00">map</text>
</a>
</g>
</g>
<!-- Node1&#45;&gt;Node27 -->
<g id="edge51" class="edge">
<title>Node1&#45;&gt;Node27</title>
<path fill="none" stroke="midnightblue" d="M934.36,-414.4C927.53,-405.75 918.76,-394.64 911.59,-385.58"/>
<polygon fill="midnightblue" stroke="midnightblue" points="914.28,-383.34 905.34,-377.66 908.79,-387.67 914.28,-383.34"/>
</g>
<!-- Node28 -->
<g id="node28" class="node">
<title>Node28</title>
<g id="a_node28"><a xlink:href="KeyboardComponent_8hpp.html" target="_top" xlink:title=" ">
<polygon fill="white" stroke="black" points="1171,-291.5 1171,-321.5 1314,-321.5 1314,-291.5 1171,-291.5"/>
<text text-anchor="start" x="1179" y="-309.5" font-family="Helvetica,sans-Serif" font-size="10.00">Component/Keyboard</text>
<text text-anchor="middle" x="1242.5" y="-298.5" font-family="Helvetica,sans-Serif" font-size="10.00">/KeyboardComponent.hpp</text>
</a>
</g>
</g>
<!-- Node1&#45;&gt;Node28 -->
<g id="edge52" class="edge">
<title>Node1&#45;&gt;Node28</title>
<path fill="none" stroke="midnightblue" d="M980.15,-414.38C1034.36,-392.3 1139.16,-349.6 1198.58,-325.39"/>
<polygon fill="midnightblue" stroke="midnightblue" points="1200.13,-328.54 1208.07,-321.53 1197.49,-322.06 1200.13,-328.54"/>
</g>
<!-- Node31 -->
<g id="node31" class="node">
<title>Node31</title>
<g id="a_node31"><a xlink:href="ControllableComponent_8hpp.html" target="_top" xlink:title=" ">
<polygon fill="white" stroke="black" points="966.5,-224.5 966.5,-254.5 1122.5,-254.5 1122.5,-224.5 966.5,-224.5"/>
<text text-anchor="start" x="974.5" y="-242.5" font-family="Helvetica,sans-Serif" font-size="10.00">Component/Controllable</text>
<text text-anchor="middle" x="1044.5" y="-231.5" font-family="Helvetica,sans-Serif" font-size="10.00">/ControllableComponent.hpp</text>
</a>
</g>
</g>
<!-- Node1&#45;&gt;Node31 -->
<g id="edge67" class="edge">
<title>Node1&#45;&gt;Node31</title>
<path fill="none" stroke="midnightblue" d="M911.1,-414.42C885.83,-401.81 857.92,-381.67 870.5,-358 896.6,-308.88 953.42,-276.56 995.06,-258.48"/>
<polygon fill="midnightblue" stroke="midnightblue" points="996.63,-261.61 1004.49,-254.51 993.91,-255.16 996.63,-261.61"/>
</g>
<!-- Node3 -->
<g id="node3" class="node">
<title>Node3</title>
<g id="a_node3"><a xlink:title=" ">
<polygon fill="white" stroke="#bfbfbf" points="802.5,-168.5 802.5,-187.5 852.5,-187.5 852.5,-168.5 802.5,-168.5"/>
<text text-anchor="middle" x="827.5" y="-175.5" font-family="Helvetica,sans-Serif" font-size="10.00">chrono</text>
</a>
</g>
</g>
<!-- Node2&#45;&gt;Node3 -->
<g id="edge2" class="edge">
<title>Node2&#45;&gt;Node3</title>
<path fill="none" stroke="midnightblue" d="M973.91,-358.44C958.89,-350.73 938.09,-338.14 924.5,-322 893.86,-285.62 910.09,-262.01 881.5,-224 872.59,-212.15 859.97,-201.41 849.17,-193.4"/>
<polygon fill="midnightblue" stroke="midnightblue" points="851.18,-190.53 841.01,-187.59 847.12,-196.24 851.18,-190.53"/>
</g>
<!-- Node4 -->
<g id="node4" class="node">
<title>Node4</title>
<g id="a_node4"><a xlink:title=" ">
<polygon fill="white" stroke="#bfbfbf" points="1053,-0.5 1053,-19.5 1100,-19.5 1100,-0.5 1053,-0.5"/>
<text text-anchor="middle" x="1076.5" y="-7.5" font-family="Helvetica,sans-Serif" font-size="10.00">vector</text>
</a>
</g>
</g>
<!-- Node2&#45;&gt;Node4 -->
<g id="edge3" class="edge">
<title>Node2&#45;&gt;Node4</title>
<path fill="none" stroke="midnightblue" d="M1049.73,-367.86C1134.87,-367.77 1288.64,-361.92 1323.5,-322 1409.3,-223.75 1309.13,-126.67 1199.5,-56 1184.32,-46.22 1140.64,-31.25 1109.66,-21.3"/>
<polygon fill="midnightblue" stroke="midnightblue" points="1110.69,-17.96 1100.1,-18.26 1108.57,-24.63 1110.69,-17.96"/>
</g>
<!-- Node5 -->
<g id="node5" class="node">
<title>Node5</title>
<g id="a_node5"><a xlink:title=" ">
<polygon fill="white" stroke="#bfbfbf" points="813,-56.5 813,-75.5 870,-75.5 870,-56.5 813,-56.5"/>
<text text-anchor="middle" x="841.5" y="-63.5" font-family="Helvetica,sans-Serif" font-size="10.00">typeinfo</text>
</a>
</g>
</g>
<!-- Node2&#45;&gt;Node5 -->
<g id="edge4" class="edge">
<title>Node2&#45;&gt;Node5</title>
<path fill="none" stroke="midnightblue" d="M989.63,-358.19C978.46,-324.6 935.76,-201.89 879.5,-112 873.07,-101.73 864.45,-91.32 857.05,-83.11"/>
<polygon fill="midnightblue" stroke="midnightblue" points="859.55,-80.66 850.17,-75.71 854.42,-85.42 859.55,-80.66"/>
</g>
<!-- Node6 -->
<g id="node6" class="node">
<title>Node6</title>
<g id="a_node6"><a xlink:title=" ">
<polygon fill="white" stroke="#bfbfbf" points="1118,-0.5 1118,-19.5 1183,-19.5 1183,-0.5 1118,-0.5"/>
<text text-anchor="middle" x="1150.5" y="-7.5" font-family="Helvetica,sans-Serif" font-size="10.00">typeindex</text>
</a>
</g>
</g>
<!-- Node2&#45;&gt;Node6 -->
<g id="edge5" class="edge">
<title>Node2&#45;&gt;Node6</title>
<path fill="none" stroke="midnightblue" d="M1049.88,-364.44C1180.44,-357.06 1488.5,-330.15 1488.5,-240.5 1488.5,-240.5 1488.5,-240.5 1488.5,-121 1488.5,-72.73 1445.78,-75.22 1401.5,-56 1332.54,-26.07 1244.63,-16.05 1193.25,-12.69"/>
<polygon fill="midnightblue" stroke="midnightblue" points="1193.36,-9.19 1183.17,-12.09 1192.95,-16.18 1193.36,-9.19"/>
</g>
<!-- Node7 -->
<g id="node7" class="node">
<title>Node7</title>
<g id="a_node7"><a xlink:href="Entity_8hpp.html" target="_top" xlink:title=" ">
<polygon fill="white" stroke="black" points="774.5,-112.5 774.5,-131.5 870.5,-131.5 870.5,-112.5 774.5,-112.5"/>
<text text-anchor="middle" x="822.5" y="-119.5" font-family="Helvetica,sans-Serif" font-size="10.00">Entity/Entity.hpp</text>
</a>
</g>
</g>
<!-- Node2&#45;&gt;Node7 -->
<g id="edge6" class="edge">
<title>Node2&#45;&gt;Node7</title>
<path fill="none" stroke="midnightblue" d="M955.66,-358.47C925.94,-350.88 883.46,-338.45 848.5,-322 799.09,-298.75 771.54,-303 745.5,-255 722.13,-211.91 772.6,-162.26 802.5,-137.97"/>
<polygon fill="midnightblue" stroke="midnightblue" points="804.97,-140.48 810.66,-131.54 800.64,-134.98 804.97,-140.48"/>
</g>
<!-- Node16 -->
<g id="node16" class="node">
<title>Node16</title>
<g id="a_node16"><a xlink:href="Wal_8hpp.html" target="_top" xlink:title=" ">
<polygon fill="white" stroke="black" points="331.5,-297 331.5,-316 387.5,-316 387.5,-297 331.5,-297"/>
<text text-anchor="middle" x="359.5" y="-304" font-family="Helvetica,sans-Serif" font-size="10.00">Wal.hpp</text>
</a>
</g>
</g>
<!-- Node2&#45;&gt;Node16 -->
<g id="edge20" class="edge">
<title>Node2&#45;&gt;Node16</title>
<path fill="none" stroke="midnightblue" d="M935.28,-359.03C932.31,-358.67 929.37,-358.32 926.5,-358 727.89,-335.63 489.21,-317.09 397.73,-310.29"/>
<polygon fill="midnightblue" stroke="midnightblue" points="397.8,-306.78 387.57,-309.53 397.28,-313.76 397.8,-306.78"/>
</g>
<!-- Node18 -->
<g id="node18" class="node">
<title>Node18</title>
<g id="a_node18"><a xlink:href="ISystem_8hpp.html" target="_top" xlink:title=" ">
<polygon fill="white" stroke="black" points="755,-230 755,-249 872,-249 872,-230 755,-230"/>
<text text-anchor="middle" x="813.5" y="-237" font-family="Helvetica,sans-Serif" font-size="10.00">System/ISystem.hpp</text>
</a>
</g>
</g>
<!-- Node2&#45;&gt;Node18 -->
<g id="edge49" class="edge">
<title>Node2&#45;&gt;Node18</title>
<path fill="none" stroke="midnightblue" d="M963.29,-358.47C940.95,-351.06 910.08,-338.87 886.5,-322 861.24,-303.93 838.47,-275.7 825.31,-257.66"/>
<polygon fill="midnightblue" stroke="midnightblue" points="827.99,-255.38 819.34,-249.26 822.28,-259.44 827.99,-255.38"/>
</g>
<!-- Node19 -->
<g id="node19" class="node">
<title>Node19</title>
<g id="a_node19"><a xlink:href="View_8hpp.html" target="_top" xlink:title=" ">
<polygon fill="white" stroke="black" points="582.5,-168.5 582.5,-187.5 670.5,-187.5 670.5,-168.5 582.5,-168.5"/>
<text text-anchor="middle" x="626.5" y="-175.5" font-family="Helvetica,sans-Serif" font-size="10.00">View/View.hpp</text>
</a>
</g>
</g>
<!-- Node2&#45;&gt;Node19 -->
<g id="edge48" class="edge">
<title>Node2&#45;&gt;Node19</title>
<path fill="none" stroke="midnightblue" d="M935.22,-359.05C856,-347.88 721.67,-328.19 712.5,-322 667.2,-291.38 641.95,-228.18 631.81,-197.08"/>
<polygon fill="midnightblue" stroke="midnightblue" points="635.15,-196.04 628.84,-187.53 628.46,-198.12 635.15,-196.04"/>
</g>
<!-- Node26 -->
<g id="node26" class="node">
<title>Node26</title>
<g id="a_node26"><a xlink:title=" ">
<polygon fill="white" stroke="#bfbfbf" points="1166.5,-112.5 1166.5,-131.5 1226.5,-131.5 1226.5,-112.5 1166.5,-112.5"/>
<text text-anchor="middle" x="1196.5" y="-119.5" font-family="Helvetica,sans-Serif" font-size="10.00">iostream</text>
</a>
</g>
</g>
<!-- Node2&#45;&gt;Node26 -->
<g id="edge50" class="edge">
<title>Node2&#45;&gt;Node26</title>
<path fill="none" stroke="midnightblue" d="M1006.82,-358.47C1034.1,-341.64 1094.12,-301.69 1131.5,-255 1160.26,-219.07 1180.74,-168.33 1190.34,-141.42"/>
<polygon fill="midnightblue" stroke="midnightblue" points="1193.72,-142.36 1193.69,-131.76 1187.11,-140.07 1193.72,-142.36"/>
</g>
<!-- Node7&#45;&gt;Node5 -->
<g id="edge9" class="edge">
<title>Node7&#45;&gt;Node5</title>
<path fill="none" stroke="midnightblue" d="M825.64,-112.08C828.18,-104.85 831.86,-94.41 835.03,-85.4"/>
<polygon fill="midnightblue" stroke="midnightblue" points="838.4,-86.35 838.42,-75.75 831.8,-84.02 838.4,-86.35"/>
</g>
<!-- Node8 -->
<g id="node8" class="node">
<title>Node8</title>
<g id="a_node8"><a xlink:title=" ">
<polygon fill="white" stroke="#bfbfbf" points="464.5,-0.5 464.5,-19.5 508.5,-19.5 508.5,-0.5 464.5,-0.5"/>
<text text-anchor="middle" x="486.5" y="-7.5" font-family="Helvetica,sans-Serif" font-size="10.00">string</text>
</a>
</g>
</g>
<!-- Node7&#45;&gt;Node8 -->
<g id="edge7" class="edge">
<title>Node7&#45;&gt;Node8</title>
<path fill="none" stroke="midnightblue" d="M796.41,-112.46C735.68,-92.58 584.94,-43.23 518.65,-21.53"/>
<polygon fill="midnightblue" stroke="midnightblue" points="519.36,-18.07 508.77,-18.29 517.18,-24.73 519.36,-18.07"/>
</g>
<!-- Node9 -->
<g id="node9" class="node">
<title>Node9</title>
<g id="a_node9"><a xlink:title=" ">
<polygon fill="white" stroke="#bfbfbf" points="469,-56.5 469,-75.5 562,-75.5 562,-56.5 469,-56.5"/>
<text text-anchor="middle" x="515.5" y="-63.5" font-family="Helvetica,sans-Serif" font-size="10.00">unordered_map</text>
</a>
</g>
</g>
<!-- Node7&#45;&gt;Node9 -->
<g id="edge8" class="edge">
<title>Node7&#45;&gt;Node9</title>
<path fill="none" stroke="midnightblue" d="M774.19,-112.5C719.4,-102.86 630.14,-87.16 572.12,-76.96"/>
<polygon fill="midnightblue" stroke="midnightblue" points="572.47,-73.47 562.02,-75.18 571.26,-80.36 572.47,-73.47"/>
</g>
<!-- Node10 -->
<g id="node10" class="node">
<title>Node10</title>
<g id="a_node10"><a xlink:title=" ">
<polygon fill="white" stroke="#bfbfbf" points="392.5,-56.5 392.5,-75.5 450.5,-75.5 450.5,-56.5 392.5,-56.5"/>
<text text-anchor="middle" x="421.5" y="-63.5" font-family="Helvetica,sans-Serif" font-size="10.00">memory</text>
</a>
</g>
</g>
<!-- Node7&#45;&gt;Node10 -->
<g id="edge10" class="edge">
<title>Node7&#45;&gt;Node10</title>
<path fill="none" stroke="midnightblue" d="M774.4,-115.7C694.02,-106.73 534.73,-88.5 461.11,-76.08"/>
<polygon fill="midnightblue" stroke="midnightblue" points="461.35,-72.57 450.89,-74.3 460.14,-79.47 461.35,-72.57"/>
</g>
<!-- Node11 -->
<g id="node11" class="node">
<title>Node11</title>
<g id="a_node11"><a xlink:href="Component_8hpp.html" target="_top" xlink:title=" ">
<polygon fill="white" stroke="black" points="1037,-56.5 1037,-75.5 1190,-75.5 1190,-56.5 1037,-56.5"/>
<text text-anchor="middle" x="1113.5" y="-63.5" font-family="Helvetica,sans-Serif" font-size="10.00">Component/Component.hpp</text>
</a>
</g>
</g>
<!-- Node7&#45;&gt;Node11 -->
<g id="edge11" class="edge">
<title>Node7&#45;&gt;Node11</title>
<path fill="none" stroke="midnightblue" d="M868.61,-112.44C919.91,-102.92 1002.77,-87.55 1057.69,-77.36"/>
<polygon fill="midnightblue" stroke="midnightblue" points="1058.41,-80.78 1067.61,-75.52 1057.14,-73.9 1058.41,-80.78"/>
</g>
<!-- Node12 -->
<g id="node12" class="node">
<title>Node12</title>
<g id="a_node12"><a xlink:href="WalError_8hpp.html" target="_top" xlink:title=" ">
<polygon fill="white" stroke="black" points="9,-56.5 9,-75.5 138,-75.5 138,-56.5 9,-56.5"/>
<text text-anchor="middle" x="73.5" y="-63.5" font-family="Helvetica,sans-Serif" font-size="10.00">Exception/WalError.hpp</text>
</a>
</g>
</g>
<!-- Node7&#45;&gt;Node12 -->
<g id="edge15" class="edge">
<title>Node7&#45;&gt;Node12</title>
<path fill="none" stroke="midnightblue" d="M774.19,-116.18C759.23,-114.75 742.69,-113.24 727.5,-112 517.81,-94.86 269.93,-79.01 148.36,-71.52"/>
<polygon fill="midnightblue" stroke="midnightblue" points="148.25,-68.01 138.06,-70.89 147.82,-75 148.25,-68.01"/>
</g>
<!-- Node15 -->
<g id="node15" class="node">
<title>Node15</title>
<g id="a_node15"><a xlink:href="TypeHolder_8hpp.html" target="_top" xlink:title=" ">
<polygon fill="white" stroke="black" points="888.5,-56.5 888.5,-75.5 1018.5,-75.5 1018.5,-56.5 888.5,-56.5"/>
<text text-anchor="middle" x="953.5" y="-63.5" font-family="Helvetica,sans-Serif" font-size="10.00">Models/TypeHolder.hpp</text>
</a>
</g>
</g>
<!-- Node7&#45;&gt;Node15 -->
<g id="edge19" class="edge">
<title>Node7&#45;&gt;Node15</title>
<path fill="none" stroke="midnightblue" d="M843.26,-112.44C864.82,-103.56 898.76,-89.56 923.29,-79.45"/>
<polygon fill="midnightblue" stroke="midnightblue" points="924.93,-82.56 932.84,-75.52 922.26,-76.09 924.93,-82.56"/>
</g>
<!-- Node11&#45;&gt;Node4 -->
<g id="edge12" class="edge">
<title>Node11&#45;&gt;Node4</title>
<path fill="none" stroke="midnightblue" d="M1107.39,-56.08C1102.22,-48.53 1094.65,-37.49 1088.31,-28.23"/>
<polygon fill="midnightblue" stroke="midnightblue" points="1091.04,-26.02 1082.5,-19.75 1085.26,-29.98 1091.04,-26.02"/>
</g>
<!-- Node11&#45;&gt;Node6 -->
<g id="edge14" class="edge">
<title>Node11&#45;&gt;Node6</title>
<path fill="none" stroke="midnightblue" d="M1119.61,-56.08C1124.78,-48.53 1132.35,-37.49 1138.69,-28.23"/>
<polygon fill="midnightblue" stroke="midnightblue" points="1141.74,-29.98 1144.5,-19.75 1135.96,-26.02 1141.74,-29.98"/>
</g>
<!-- Node11&#45;&gt;Node8 -->
<g id="edge13" class="edge">
<title>Node11&#45;&gt;Node8</title>
<path fill="none" stroke="midnightblue" d="M1036.61,-56.87C1033.54,-56.57 1030.49,-56.28 1027.5,-56 834.68,-37.89 602.83,-19.86 518.85,-13.45"/>
<polygon fill="midnightblue" stroke="midnightblue" points="518.91,-9.94 508.67,-12.67 518.38,-16.92 518.91,-9.94"/>
</g>
<!-- Node12&#45;&gt;Node8 -->
<g id="edge18" class="edge">
<title>Node12&#45;&gt;Node8</title>
<path fill="none" stroke="midnightblue" d="M138.03,-56.56C227.62,-44.85 386.29,-24.1 454.2,-15.22"/>
<polygon fill="midnightblue" stroke="midnightblue" points="454.83,-18.67 464.3,-13.9 453.93,-11.73 454.83,-18.67"/>
</g>
<!-- Node13 -->
<g id="node13" class="node">
<title>Node13</title>
<g id="a_node13"><a xlink:title=" ">
<polygon fill="white" stroke="#bfbfbf" points="83,-0.5 83,-19.5 148,-19.5 148,-0.5 83,-0.5"/>
<text text-anchor="middle" x="115.5" y="-7.5" font-family="Helvetica,sans-Serif" font-size="10.00">exception</text>
</a>
</g>
</g>
<!-- Node12&#45;&gt;Node13 -->
<g id="edge16" class="edge">
<title>Node12&#45;&gt;Node13</title>
<path fill="none" stroke="midnightblue" d="M80.44,-56.08C86.43,-48.38 95.25,-37.03 102.55,-27.65"/>
<polygon fill="midnightblue" stroke="midnightblue" points="105.32,-29.79 108.69,-19.75 99.79,-25.5 105.32,-29.79"/>
</g>
<!-- Node14 -->
<g id="node14" class="node">
<title>Node14</title>
<g id="a_node14"><a xlink:title=" ">
<polygon fill="white" stroke="#bfbfbf" points="0,-0.5 0,-19.5 65,-19.5 65,-0.5 0,-0.5"/>
<text text-anchor="middle" x="32.5" y="-7.5" font-family="Helvetica,sans-Serif" font-size="10.00">stdexcept</text>
</a>
</g>
</g>
<!-- Node12&#45;&gt;Node14 -->
<g id="edge17" class="edge">
<title>Node12&#45;&gt;Node14</title>
<path fill="none" stroke="midnightblue" d="M66.73,-56.08C60.94,-48.46 52.44,-37.26 45.36,-27.94"/>
<polygon fill="midnightblue" stroke="midnightblue" points="47.98,-25.6 39.14,-19.75 42.4,-29.83 47.98,-25.6"/>
</g>
<!-- Node16&#45;&gt;Node4 -->
<g id="edge22" class="edge">
<title>Node16&#45;&gt;Node4</title>
<path fill="none" stroke="midnightblue" d="M361.92,-296.75C367.14,-277.36 379.33,-229.22 383.5,-188 389.4,-129.63 343.38,-98.81 383.5,-56 428.91,-7.55 909.39,-9.16 1042.49,-10.55"/>
<polygon fill="midnightblue" stroke="midnightblue" points="1042.84,-14.06 1052.87,-10.67 1042.91,-7.06 1042.84,-14.06"/>
</g>
<!-- Node16&#45;&gt;Node5 -->
<g id="edge25" class="edge">
<title>Node16&#45;&gt;Node5</title>
<path fill="none" stroke="midnightblue" d="M361.05,-296.55C367.25,-261.8 391.42,-136.51 421.5,-112 450.74,-88.17 704.29,-73.58 802.69,-68.77"/>
<polygon fill="midnightblue" stroke="midnightblue" points="802.99,-72.26 812.81,-68.28 802.65,-65.26 802.99,-72.26"/>
</g>
<!-- Node16&#45;&gt;Node8 -->
<g id="edge23" class="edge">
<title>Node16&#45;&gt;Node8</title>
<path fill="none" stroke="midnightblue" d="M331.49,-300.94C304.04,-295.03 262.86,-282.07 238.5,-255 195.84,-207.59 188.19,-162.99 226.5,-112 281.56,-38.71 397.35,-18.58 453.96,-13.07"/>
<polygon fill="midnightblue" stroke="midnightblue" points="454.48,-16.54 464.13,-12.18 453.87,-9.56 454.48,-16.54"/>
</g>
<!-- Node16&#45;&gt;Node10 -->
<g id="edge24" class="edge">
<title>Node16&#45;&gt;Node10</title>
<path fill="none" stroke="midnightblue" d="M332.12,-296.89C311.24,-289.04 283.15,-275.5 265.5,-255 223.54,-206.27 203.09,-162.02 243.5,-112 260.72,-90.68 335.15,-77.69 382.14,-71.47"/>
<polygon fill="midnightblue" stroke="midnightblue" points="382.82,-74.91 392.29,-70.17 381.93,-67.97 382.82,-74.91"/>
</g>
<!-- Node16&#45;&gt;Node12 -->
<g id="edge26" class="edge">
<title>Node16&#45;&gt;Node12</title>
<path fill="none" stroke="midnightblue" d="M331.48,-302.49C278.6,-296.27 166.84,-280.43 138.5,-255 88.18,-209.85 76.81,-123.83 74.25,-85.84"/>
<polygon fill="midnightblue" stroke="midnightblue" points="77.73,-85.48 73.7,-75.69 70.74,-85.86 77.73,-85.48"/>
</g>
<!-- Node17 -->
<g id="node17" class="node">
<title>Node17</title>
<g id="a_node17"><a xlink:title=" ">
<polygon fill="white" stroke="#bfbfbf" points="253,-112.5 253,-131.5 298,-131.5 298,-112.5 253,-112.5"/>
<text text-anchor="middle" x="275.5" y="-119.5" font-family="Helvetica,sans-Serif" font-size="10.00">utility</text>
</a>
</g>
</g>
<!-- Node16&#45;&gt;Node17 -->
<g id="edge21" class="edge">
<title>Node16&#45;&gt;Node17</title>
<path fill="none" stroke="midnightblue" d="M346.16,-296.83C321.11,-279.64 267.71,-238.5 247.5,-188 240.9,-171.5 250.69,-152.9 260.46,-139.84"/>
<polygon fill="midnightblue" stroke="midnightblue" points="263.43,-141.74 267.02,-131.77 258,-137.32 263.43,-141.74"/>
</g>
<!-- Node16&#45;&gt;Node18 -->
<g id="edge27" class="edge">
<title>Node16&#45;&gt;Node18</title>
<path fill="none" stroke="midnightblue" d="M387.56,-301.48C457.83,-291.42 643.03,-264.91 744.54,-250.37"/>
<polygon fill="midnightblue" stroke="midnightblue" points="745.29,-253.8 754.69,-248.92 744.3,-246.87 745.29,-253.8"/>
</g>
<!-- Node24 -->
<g id="node24" class="node">
<title>Node24</title>
<g id="a_node24"><a xlink:href="Callback_8hpp.html" target="_top" xlink:title=" ">
<polygon fill="white" stroke="black" points="256.5,-168.5 256.5,-187.5 374.5,-187.5 374.5,-168.5 256.5,-168.5"/>
<text text-anchor="middle" x="315.5" y="-175.5" font-family="Helvetica,sans-Serif" font-size="10.00">Models/Callback.hpp</text>
</a>
</g>
</g>
<!-- Node16&#45;&gt;Node24 -->
<g id="edge38" class="edge">
<title>Node16&#45;&gt;Node24</title>
<path fill="none" stroke="midnightblue" d="M356.48,-296.81C349.38,-276.4 331.53,-225.1 321.9,-197.41"/>
<polygon fill="midnightblue" stroke="midnightblue" points="325.14,-196.05 318.55,-187.76 318.52,-198.35 325.14,-196.05"/>
</g>
<!-- Node25 -->
<g id="node25" class="node">
<title>Node25</title>
<g id="a_node25"><a xlink:href="Scene_8hpp.html" target="_top" xlink:title=" ">
<polygon fill="white" stroke="black" points="487,-230 487,-249 586,-249 586,-230 487,-230"/>
<text text-anchor="middle" x="536.5" y="-237" font-family="Helvetica,sans-Serif" font-size="10.00">Scene/Scene.hpp</text>
</a>
</g>
</g>
<!-- Node16&#45;&gt;Node25 -->
<g id="edge42" class="edge">
<title>Node16&#45;&gt;Node25</title>
<path fill="none" stroke="midnightblue" d="M383,-296.87C413.9,-285.52 468.36,-265.52 503.41,-252.65"/>
<polygon fill="midnightblue" stroke="midnightblue" points="505,-255.8 513.18,-249.06 502.59,-249.23 505,-255.8"/>
</g>
<!-- Node18&#45;&gt;Node3 -->
<g id="edge37" class="edge">
<title>Node18&#45;&gt;Node3</title>
<path fill="none" stroke="midnightblue" d="M815.51,-229.98C817.5,-221.49 820.63,-208.2 823.19,-197.32"/>
<polygon fill="midnightblue" stroke="midnightblue" points="826.61,-198.04 825.5,-187.51 819.8,-196.44 826.61,-198.04"/>
</g>
<!-- Node18&#45;&gt;Node7 -->
<g id="edge28" class="edge">
<title>Node18&#45;&gt;Node7</title>
<path fill="none" stroke="midnightblue" d="M807.81,-229.8C799.83,-216.47 786.96,-190.21 793.5,-168 796.51,-157.76 802.65,-147.66 808.51,-139.63"/>
<polygon fill="midnightblue" stroke="midnightblue" points="811.43,-141.58 814.83,-131.54 805.91,-137.27 811.43,-141.58"/>
</g>
<!-- Node18&#45;&gt;Node19 -->
<g id="edge29" class="edge">
<title>Node18&#45;&gt;Node19</title>
<path fill="none" stroke="midnightblue" d="M786.71,-229.98C754.21,-219.64 699.29,-202.16 662.96,-190.6"/>
<polygon fill="midnightblue" stroke="midnightblue" points="663.83,-187.21 653.24,-187.51 661.71,-193.88 663.83,-187.21"/>
</g>
<!-- Node19&#45;&gt;Node6 -->
<g id="edge32" class="edge">
<title>Node19&#45;&gt;Node6</title>
<path fill="none" stroke="midnightblue" d="M652.3,-168.44C673.54,-160.73 703.88,-148.13 727.5,-132 767.21,-104.89 761.16,-76.84 804.5,-56 924.63,1.76 972.64,-40.57 1107.98,-20.05"/>
<polygon fill="midnightblue" stroke="midnightblue" points="1108.56,-23.5 1117.88,-18.46 1107.45,-16.59 1108.56,-23.5"/>
</g>
<!-- Node19&#45;&gt;Node7 -->
<g id="edge36" class="edge">
<title>Node19&#45;&gt;Node7</title>
<path fill="none" stroke="midnightblue" d="M657.56,-168.44C691.1,-159.2 744.7,-144.44 781.64,-134.26"/>
<polygon fill="midnightblue" stroke="midnightblue" points="782.88,-137.55 791.59,-131.52 781.02,-130.8 782.88,-137.55"/>
</g>
<!-- Node19&#45;&gt;Node17 -->
<g id="edge34" class="edge">
<title>Node19&#45;&gt;Node17</title>
<path fill="none" stroke="midnightblue" d="M582.4,-170.22C511.04,-159.24 371.85,-137.82 308.42,-128.06"/>
<polygon fill="midnightblue" stroke="midnightblue" points="308.62,-124.55 298.2,-126.49 307.55,-131.47 308.62,-124.55"/>
</g>
<!-- Node20 -->
<g id="node20" class="node">
<title>Node20</title>
<g id="a_node20"><a xlink:title=" ">
<polygon fill="white" stroke="#bfbfbf" points="552.5,-112.5 552.5,-131.5 584.5,-131.5 584.5,-112.5 552.5,-112.5"/>
<text text-anchor="middle" x="568.5" y="-119.5" font-family="Helvetica,sans-Serif" font-size="10.00">list</text>
</a>
</g>
</g>
<!-- Node19&#45;&gt;Node20 -->
<g id="edge30" class="edge">
<title>Node19&#45;&gt;Node20</title>
<path fill="none" stroke="midnightblue" d="M617.18,-168.32C608.61,-160.34 595.69,-148.31 585.31,-138.65"/>
<polygon fill="midnightblue" stroke="midnightblue" points="587.69,-136.09 577.99,-131.83 582.92,-141.21 587.69,-136.09"/>
</g>
<!-- Node21 -->
<g id="node21" class="node">
<title>Node21</title>
<g id="a_node21"><a xlink:title=" ">
<polygon fill="white" stroke="#bfbfbf" points="603,-112.5 603,-131.5 644,-131.5 644,-112.5 603,-112.5"/>
<text text-anchor="middle" x="623.5" y="-119.5" font-family="Helvetica,sans-Serif" font-size="10.00">tuple</text>
</a>
</g>
</g>
<!-- Node19&#45;&gt;Node21 -->
<g id="edge31" class="edge">
<title>Node19&#45;&gt;Node21</title>
<path fill="none" stroke="midnightblue" d="M626,-168.08C625.61,-161.01 625.05,-150.86 624.55,-141.99"/>
<polygon fill="midnightblue" stroke="midnightblue" points="628.04,-141.54 623.99,-131.75 621.05,-141.93 628.04,-141.54"/>
</g>
<!-- Node22 -->
<g id="node22" class="node">
<title>Node22</title>
<g id="a_node22"><a xlink:title=" ">
<polygon fill="white" stroke="#bfbfbf" points="431,-112.5 431,-131.5 496,-131.5 496,-112.5 431,-112.5"/>
<text text-anchor="middle" x="463.5" y="-119.5" font-family="Helvetica,sans-Serif" font-size="10.00">functional</text>
</a>
</g>
</g>
<!-- Node19&#45;&gt;Node22 -->
<g id="edge33" class="edge">
<title>Node19&#45;&gt;Node22</title>
<path fill="none" stroke="midnightblue" d="M600.67,-168.44C573.25,-159.36 529.72,-144.94 499.07,-134.78"/>
<polygon fill="midnightblue" stroke="midnightblue" points="499.8,-131.34 489.21,-131.52 497.6,-137.98 499.8,-131.34"/>
</g>
<!-- Node23 -->
<g id="node23" class="node">
<title>Node23</title>
<g id="a_node23"><a xlink:title=" ">
<polygon fill="white" stroke="#bfbfbf" points="662.5,-112.5 662.5,-131.5 718.5,-131.5 718.5,-112.5 662.5,-112.5"/>
<text text-anchor="middle" x="690.5" y="-119.5" font-family="Helvetica,sans-Serif" font-size="10.00">optional</text>
</a>
</g>
</g>
<!-- Node19&#45;&gt;Node23 -->
<g id="edge35" class="edge">
<title>Node19&#45;&gt;Node23</title>
<path fill="none" stroke="midnightblue" d="M636.78,-168.32C646.34,-160.26 660.78,-148.08 672.28,-138.37"/>
<polygon fill="midnightblue" stroke="midnightblue" points="674.64,-140.96 680.03,-131.83 670.13,-135.61 674.64,-140.96"/>
</g>
<!-- Node24&#45;&gt;Node9 -->
<g id="edge41" class="edge">
<title>Node24&#45;&gt;Node9</title>
<path fill="none" stroke="midnightblue" d="M323.2,-168.24C335.67,-154.52 361.62,-127.89 388.5,-112 414.01,-96.92 445.37,-85.74 470.55,-78.3"/>
<polygon fill="midnightblue" stroke="midnightblue" points="471.57,-81.65 480.22,-75.53 469.64,-74.92 471.57,-81.65"/>
</g>
<!-- Node24&#45;&gt;Node17 -->
<g id="edge40" class="edge">
<title>Node24&#45;&gt;Node17</title>
<path fill="none" stroke="midnightblue" d="M308.89,-168.08C303.24,-160.46 294.96,-149.26 288.05,-139.94"/>
<polygon fill="midnightblue" stroke="midnightblue" points="290.75,-137.7 281.98,-131.75 285.12,-141.87 290.75,-137.7"/>
</g>
<!-- Node24&#45;&gt;Node22 -->
<g id="edge39" class="edge">
<title>Node24&#45;&gt;Node22</title>
<path fill="none" stroke="midnightblue" d="M338.95,-168.44C363.63,-159.44 402.69,-145.19 430.48,-135.05"/>
<polygon fill="midnightblue" stroke="midnightblue" points="431.96,-138.23 440.16,-131.52 429.56,-131.66 431.96,-138.23"/>
</g>
<!-- Node25&#45;&gt;Node4 -->
<g id="edge43" class="edge">
<title>Node25&#45;&gt;Node4</title>
<path fill="none" stroke="midnightblue" d="M533.88,-229.9C527.66,-207.53 514.55,-146.86 543.5,-112 607.71,-34.69 935.3,-16.09 1042.5,-12.04"/>
<polygon fill="midnightblue" stroke="midnightblue" points="1042.88,-15.53 1052.74,-11.67 1042.62,-8.53 1042.88,-15.53"/>
</g>
<!-- Node25&#45;&gt;Node7 -->
<g id="edge47" class="edge">
<title>Node25&#45;&gt;Node7</title>
<path fill="none" stroke="midnightblue" d="M563.14,-229.94C592.08,-220.45 639.52,-204.31 679.5,-188 699.02,-180.04 703.33,-176.77 722.5,-168 746.6,-156.97 774.06,-144.63 794.1,-135.67"/>
<polygon fill="midnightblue" stroke="midnightblue" points="795.6,-138.83 803.3,-131.56 792.74,-132.44 795.6,-138.83"/>
</g>
<!-- Node25&#45;&gt;Node19 -->
<g id="edge46" class="edge">
<title>Node25&#45;&gt;Node19</title>
<path fill="none" stroke="midnightblue" d="M549.39,-229.98C563.96,-220.34 587.9,-204.52 605.25,-193.05"/>
<polygon fill="midnightblue" stroke="midnightblue" points="607.22,-195.94 613.63,-187.51 603.36,-190.1 607.22,-195.94"/>
</g>
<!-- Node25&#45;&gt;Node20 -->
<g id="edge44" class="edge">
<title>Node25&#45;&gt;Node20</title>
<path fill="none" stroke="midnightblue" d="M538.91,-229.82C544.07,-211.17 556.33,-166.94 563.34,-141.63"/>
<polygon fill="midnightblue" stroke="midnightblue" points="566.77,-142.35 566.07,-131.78 560.02,-140.48 566.77,-142.35"/>
</g>
<!-- Node25&#45;&gt;Node22 -->
<g id="edge45" class="edge">
<title>Node25&#45;&gt;Node22</title>
<path fill="none" stroke="midnightblue" d="M530.34,-229.65C523.42,-219.64 511.92,-202.8 502.5,-188 492.48,-172.25 481.59,-154 473.87,-140.85"/>
<polygon fill="midnightblue" stroke="midnightblue" points="476.72,-138.79 468.65,-131.92 470.68,-142.32 476.72,-138.79"/>
</g>
<!-- Node28&#45;&gt;Node7 -->
<g id="edge66" class="edge">
<title>Node28&#45;&gt;Node7</title>
<path fill="none" stroke="midnightblue" d="M1226.66,-291.31C1206.05,-273.48 1168.29,-242.9 1131.5,-224 1128.34,-222.38 939.38,-160.95 858.55,-134.7"/>
<polygon fill="midnightblue" stroke="midnightblue" points="859.38,-131.29 848.79,-131.53 857.22,-137.95 859.38,-131.29"/>
</g>
<!-- Node28&#45;&gt;Node11 -->
<g id="edge56" class="edge">
<title>Node28&#45;&gt;Node11</title>
<path fill="none" stroke="midnightblue" d="M1246.8,-291.41C1256.38,-257 1275.62,-167.4 1235.5,-112 1223.66,-95.65 1205.22,-85.24 1186.22,-78.6"/>
<polygon fill="midnightblue" stroke="midnightblue" points="1187.16,-75.23 1176.57,-75.55 1185.05,-81.9 1187.16,-75.23"/>
</g>
<!-- Node29 -->
<g id="node29" class="node">
<title>Node29</title>
<g id="a_node29"><a xlink:href="Keyboard_8hpp.html" target="_top" xlink:title=" ">
<polygon fill="white" stroke="black" points="1320.5,-112.5 1320.5,-131.5 1460.5,-131.5 1460.5,-112.5 1320.5,-112.5"/>
<text text-anchor="middle" x="1390.5" y="-119.5" font-family="Helvetica,sans-Serif" font-size="10.00">Controllers/Keyboard.hpp</text>
</a>
</g>
</g>
<!-- Node28&#45;&gt;Node29 -->
<g id="edge53" class="edge">
<title>Node28&#45;&gt;Node29</title>
<path fill="none" stroke="midnightblue" d="M1253.87,-291.48C1280.7,-258.4 1347.89,-175.55 1376.85,-139.83"/>
<polygon fill="midnightblue" stroke="midnightblue" points="1379.77,-141.79 1383.35,-131.82 1374.33,-137.38 1379.77,-141.79"/>
</g>
<!-- Node28&#45;&gt;Node31 -->
<g id="edge57" class="edge">
<title>Node28&#45;&gt;Node31</title>
<path fill="none" stroke="midnightblue" d="M1199.54,-291.4C1169.44,-281.52 1129.04,-268.25 1097.02,-257.74"/>
<polygon fill="midnightblue" stroke="midnightblue" points="1097.97,-254.37 1087.38,-254.58 1095.79,-261.02 1097.97,-254.37"/>
</g>
<!-- Node29&#45;&gt;Node4 -->
<g id="edge55" class="edge">
<title>Node29&#45;&gt;Node4</title>
<path fill="none" stroke="midnightblue" d="M1392.53,-112.47C1395.26,-98.57 1398.25,-71.1 1383.5,-56 1342.51,-14.04 1184.8,-30.44 1110.16,-19.6"/>
<polygon fill="midnightblue" stroke="midnightblue" points="1110.65,-16.13 1100.2,-17.88 1109.46,-23.03 1110.65,-16.13"/>
</g>
<!-- Node30 -->
<g id="node30" class="node">
<title>Node30</title>
<g id="a_node30"><a xlink:title=" ">
<polygon fill="white" stroke="#bfbfbf" points="1321,-56.5 1321,-75.5 1374,-75.5 1374,-56.5 1321,-56.5"/>
<text text-anchor="middle" x="1347.5" y="-63.5" font-family="Helvetica,sans-Serif" font-size="10.00">raylib.h</text>
</a>
</g>
</g>
<!-- Node29&#45;&gt;Node30 -->
<g id="edge54" class="edge">
<title>Node29&#45;&gt;Node30</title>
<path fill="none" stroke="midnightblue" d="M1383.4,-112.08C1377.26,-104.38 1368.23,-93.03 1360.76,-83.65"/>
<polygon fill="midnightblue" stroke="midnightblue" points="1363.44,-81.39 1354.47,-75.75 1357.96,-85.75 1363.44,-81.39"/>
</g>
<!-- Node31&#45;&gt;Node3 -->
<g id="edge65" class="edge">
<title>Node31&#45;&gt;Node3</title>
<path fill="none" stroke="midnightblue" d="M993.35,-224.47C953.09,-213.44 898.05,-198.34 862.63,-188.63"/>
<polygon fill="midnightblue" stroke="midnightblue" points="863.32,-185.19 852.75,-185.92 861.47,-191.94 863.32,-185.19"/>
</g>
<!-- Node31&#45;&gt;Node7 -->
<g id="edge64" class="edge">
<title>Node31&#45;&gt;Node7</title>
<path fill="none" stroke="midnightblue" d="M993.21,-224.4C965.94,-215.83 932.38,-203.53 904.5,-188 879.63,-174.15 854.49,-152.9 838.72,-138.5"/>
<polygon fill="midnightblue" stroke="midnightblue" points="841.09,-135.92 831.38,-131.67 836.32,-141.05 841.09,-135.92"/>
</g>
<!-- Node31&#45;&gt;Node11 -->
<g id="edge63" class="edge">
<title>Node31&#45;&gt;Node11</title>
<path fill="none" stroke="midnightblue" d="M1031.18,-224.26C1005.17,-195.68 951.46,-132.33 966.5,-112 977.34,-97.34 1018.5,-85.51 1054.51,-77.66"/>
<polygon fill="midnightblue" stroke="midnightblue" points="1055.44,-81.04 1064.5,-75.56 1054,-74.19 1055.44,-81.04"/>
</g>
<!-- Node32 -->
<g id="node32" class="node">
<title>Node32</title>
<g id="a_node32"><a xlink:href="sources_2Models_2Vector2_8hpp.html" target="_top" xlink:title=" ">
<polygon fill="white" stroke="black" points="1031,-168.5 1031,-187.5 1144,-187.5 1144,-168.5 1031,-168.5"/>
<text text-anchor="middle" x="1087.5" y="-175.5" font-family="Helvetica,sans-Serif" font-size="10.00">Models/Vector2.hpp</text>
</a>
</g>
</g>
<!-- Node31&#45;&gt;Node32 -->
<g id="edge58" class="edge">
<title>Node31&#45;&gt;Node32</title>
<path fill="none" stroke="midnightblue" d="M1054.69,-224.4C1060.87,-215.84 1068.8,-204.87 1075.32,-195.86"/>
<polygon fill="midnightblue" stroke="midnightblue" points="1078.22,-197.81 1081.24,-187.66 1072.55,-193.71 1078.22,-197.81"/>
</g>
<!-- Node32&#45;&gt;Node26 -->
<g id="edge59" class="edge">
<title>Node32&#45;&gt;Node26</title>
<path fill="none" stroke="midnightblue" d="M1105.01,-168.32C1122.57,-159.62 1149.83,-146.12 1170.03,-136.11"/>
<polygon fill="midnightblue" stroke="midnightblue" points="1171.62,-139.23 1179.03,-131.65 1168.52,-132.96 1171.62,-139.23"/>
</g>
<!-- Node33 -->
<g id="node33" class="node">
<title>Node33</title>
<g id="a_node33"><a xlink:title=" ">
<polygon fill="white" stroke="#bfbfbf" points="975,-112.5 975,-131.5 1022,-131.5 1022,-112.5 975,-112.5"/>
<text text-anchor="middle" x="998.5" y="-119.5" font-family="Helvetica,sans-Serif" font-size="10.00">cmath</text>
</a>
</g>
</g>
<!-- Node32&#45;&gt;Node33 -->
<g id="edge60" class="edge">
<title>Node32&#45;&gt;Node33</title>
<path fill="none" stroke="midnightblue" d="M1073.2,-168.32C1059.32,-159.9 1038.01,-146.97 1021.7,-137.07"/>
<polygon fill="midnightblue" stroke="midnightblue" points="1023.13,-133.85 1012.76,-131.65 1019.5,-139.83 1023.13,-133.85"/>
</g>
<!-- Node34 -->
<g id="node34" class="node">
<title>Node34</title>
<g id="a_node34"><a xlink:href="lib_2Ray_2sources_2Vector_2Vector2_8hpp.html" target="_top" xlink:title=" ">
<polygon fill="white" stroke="black" points="1040.5,-112.5 1040.5,-131.5 1148.5,-131.5 1148.5,-112.5 1040.5,-112.5"/>
<text text-anchor="middle" x="1094.5" y="-119.5" font-family="Helvetica,sans-Serif" font-size="10.00">Vector/Vector2.hpp</text>
</a>
</g>
</g>
<!-- Node32&#45;&gt;Node34 -->
<g id="edge61" class="edge">
<title>Node32&#45;&gt;Node34</title>
<path fill="none" stroke="midnightblue" d="M1088.66,-168.08C1089.58,-160.93 1090.92,-150.64 1092.08,-141.69"/>
<polygon fill="midnightblue" stroke="midnightblue" points="1095.55,-142.12 1093.37,-131.75 1088.61,-141.22 1095.55,-142.12"/>
</g>
<!-- Node34&#45;&gt;Node30 -->
<g id="edge62" class="edge">
<title>Node34&#45;&gt;Node30</title>
<path fill="none" stroke="midnightblue" d="M1134.59,-112.44C1183.04,-102.1 1263.87,-84.85 1310.76,-74.84"/>
<polygon fill="midnightblue" stroke="midnightblue" points="1311.74,-78.21 1320.79,-72.7 1310.28,-71.36 1311.74,-78.21"/>
</g>
</g>
</svg>
