<?xml version="1.0" encoding="UTF-8" standalone="no"?>
<!DOCTYPE svg PUBLIC "-//W3C//DTD SVG 1.1//EN"
 "http://www.w3.org/Graphics/SVG/1.1/DTD/svg11.dtd">
<!-- Generated by graphviz version 2.43.0 (0)
 -->
<!-- Title: sources/System/Keyboard/KeyboardSystem.cpp Pages: 1 -->
<svg width="1516pt" height="509pt"
 viewBox="0.00 0.00 1515.68 509.00" xmlns="http://www.w3.org/2000/svg" xmlns:xlink="http://www.w3.org/1999/xlink">
<g id="graph0" class="graph" transform="scale(1 1) rotate(0) translate(4 505)">
<title>sources/System/Keyboard/KeyboardSystem.cpp</title>
<polygon fill="white" stroke="transparent" points="-4,4 -4,-505 1511.68,-505 1511.68,4 -4,4"/>
<!-- Node1 -->
<g id="node1" class="node">
<title>Node1</title>
<g id="a_node1"><a xlink:title=" ">
<polygon fill="#bfbfbf" stroke="black" points="1180.18,-470.5 1180.18,-500.5 1323.18,-500.5 1323.18,-470.5 1180.18,-470.5"/>
<text text-anchor="start" x="1188.18" y="-488.5" font-family="Helvetica,sans-Serif" font-size="10.00">sources/System/Keyboard</text>
<text text-anchor="middle" x="1251.68" y="-477.5" font-family="Helvetica,sans-Serif" font-size="10.00">/KeyboardSystem.cpp</text>
</a>
</g>
</g>
<!-- Node2 -->
<g id="node2" class="node">
<title>Node2</title>
<g id="a_node2"><a xlink:href="KeyboardSystem_8hpp.html" target="_top" xlink:title=" ">
<polygon fill="white" stroke="black" points="1053.68,-414.5 1053.68,-433.5 1173.68,-433.5 1173.68,-414.5 1053.68,-414.5"/>
<text text-anchor="middle" x="1113.68" y="-421.5" font-family="Helvetica,sans-Serif" font-size="10.00">KeyboardSystem.hpp</text>
</a>
</g>
</g>
<!-- Node1&#45;&gt;Node2 -->
<g id="edge1" class="edge">
<title>Node1&#45;&gt;Node2</title>
<path fill="none" stroke="midnightblue" d="M1218.98,-470.4C1195.92,-460.46 1165.32,-447.26 1143.05,-437.66"/>
<polygon fill="midnightblue" stroke="midnightblue" points="1144.33,-434.4 1133.76,-433.66 1141.56,-440.83 1144.33,-434.4"/>
</g>
<!-- Node29 -->
<g id="node29" class="node">
<title>Node29</title>
<g id="a_node29"><a xlink:href="KeyboardComponent_8hpp.html" target="_top" xlink:title=" ">
<polygon fill="white" stroke="black" points="1230.18,-347.5 1230.18,-377.5 1373.18,-377.5 1373.18,-347.5 1230.18,-347.5"/>
<text text-anchor="start" x="1238.18" y="-365.5" font-family="Helvetica,sans-Serif" font-size="10.00">Component/Keyboard</text>
<text text-anchor="middle" x="1301.68" y="-354.5" font-family="Helvetica,sans-Serif" font-size="10.00">/KeyboardComponent.hpp</text>
</a>
</g>
</g>
<!-- Node1&#45;&gt;Node29 -->
<g id="edge69" class="edge">
<title>Node1&#45;&gt;Node29</title>
<path fill="none" stroke="midnightblue" d="M1257.61,-470.14C1266.07,-449.68 1281.69,-411.86 1291.89,-387.2"/>
<polygon fill="midnightblue" stroke="midnightblue" points="1295.17,-388.42 1295.75,-377.84 1288.7,-385.74 1295.17,-388.42"/>
</g>
<!-- Node30 -->
<g id="node30" class="node">
<title>Node30</title>
<g id="a_node30"><a xlink:href="Keyboard_8hpp.html" target="_top" xlink:title=" ">
<polygon fill="white" stroke="black" points="1367.68,-286 1367.68,-305 1507.68,-305 1507.68,-286 1367.68,-286"/>
<text text-anchor="middle" x="1437.68" y="-293" font-family="Helvetica,sans-Serif" font-size="10.00">Controllers/Keyboard.hpp</text>
</a>
</g>
</g>
<!-- Node1&#45;&gt;Node30 -->
<g id="edge71" class="edge">
<title>Node1&#45;&gt;Node30</title>
<path fill="none" stroke="midnightblue" d="M1272.8,-470.3C1300.11,-451.31 1348.26,-415.63 1382.68,-378 1400.98,-358 1417.74,-331.44 1427.83,-314.17"/>
<polygon fill="midnightblue" stroke="midnightblue" points="1431.04,-315.61 1432.96,-305.19 1424.96,-312.13 1431.04,-315.61"/>
</g>
<!-- Node32 -->
<g id="node32" class="node">
<title>Node32</title>
<g id="a_node32"><a xlink:href="ControllableComponent_8hpp.html" target="_top" xlink:title=" ">
<polygon fill="white" stroke="black" points="1011.68,-280.5 1011.68,-310.5 1167.68,-310.5 1167.68,-280.5 1011.68,-280.5"/>
<text text-anchor="start" x="1019.68" y="-298.5" font-family="Helvetica,sans-Serif" font-size="10.00">Component/Controllable</text>
<text text-anchor="middle" x="1089.68" y="-287.5" font-family="Helvetica,sans-Serif" font-size="10.00">/ControllableComponent.hpp</text>
</a>
</g>
</g>
<!-- Node1&#45;&gt;Node32 -->
<g id="edge70" class="edge">
<title>Node1&#45;&gt;Node32</title>
<path fill="none" stroke="midnightblue" d="M1245.17,-470.31C1232.52,-443.79 1202.48,-385.89 1164.68,-347 1153.01,-335 1138.05,-324.23 1124.56,-315.75"/>
<polygon fill="midnightblue" stroke="midnightblue" points="1126.33,-312.73 1115.96,-310.52 1122.69,-318.71 1126.33,-312.73"/>
</g>
<!-- Node3 -->
<g id="node3" class="node">
<title>Node3</title>
<g id="a_node3"><a xlink:href="System_8hpp.html" target="_top" xlink:title=" ">
<polygon fill="white" stroke="black" points="735.68,-353 735.68,-372 849.68,-372 849.68,-353 735.68,-353"/>
<text text-anchor="middle" x="792.68" y="-360" font-family="Helvetica,sans-Serif" font-size="10.00">System/System.hpp</text>
</a>
</g>
</g>
<!-- Node2&#45;&gt;Node3 -->
<g id="edge2" class="edge">
<title>Node2&#45;&gt;Node3</title>
<path fill="none" stroke="midnightblue" d="M1067.69,-414.48C1009.88,-403.76 910.73,-385.38 848.6,-373.87"/>
<polygon fill="midnightblue" stroke="midnightblue" points="849.06,-370.39 838.59,-372.01 847.78,-377.27 849.06,-370.39"/>
</g>
<!-- Node28 -->
<g id="node28" class="node">
<title>Node28</title>
<g id="a_node28"><a xlink:title=" ">
<polygon fill="white" stroke="#bfbfbf" points="1117.68,-353 1117.68,-372 1155.68,-372 1155.68,-353 1117.68,-353"/>
<text text-anchor="middle" x="1136.68" y="-360" font-family="Helvetica,sans-Serif" font-size="10.00">map</text>
</a>
</g>
</g>
<!-- Node2&#45;&gt;Node28 -->
<g id="edge52" class="edge">
<title>Node2&#45;&gt;Node28</title>
<path fill="none" stroke="midnightblue" d="M1116.97,-414.48C1120.29,-405.9 1125.5,-392.43 1129.73,-381.48"/>
<polygon fill="midnightblue" stroke="midnightblue" points="1133.05,-382.6 1133.39,-372.01 1126.52,-380.07 1133.05,-382.6"/>
</g>
<!-- Node2&#45;&gt;Node29 -->
<g id="edge53" class="edge">
<title>Node2&#45;&gt;Node29</title>
<path fill="none" stroke="midnightblue" d="M1140.61,-414.48C1168.46,-405.66 1212.68,-391.67 1247.74,-380.57"/>
<polygon fill="midnightblue" stroke="midnightblue" points="1248.89,-383.88 1257.37,-377.52 1246.78,-377.2 1248.89,-383.88"/>
</g>
<!-- Node2&#45;&gt;Node32 -->
<g id="edge68" class="edge">
<title>Node2&#45;&gt;Node32</title>
<path fill="none" stroke="midnightblue" d="M1112.03,-414.31C1108.42,-395.3 1099.73,-349.47 1094.31,-320.9"/>
<polygon fill="midnightblue" stroke="midnightblue" points="1097.71,-320.06 1092.41,-310.89 1090.83,-321.37 1097.71,-320.06"/>
</g>
<!-- Node4 -->
<g id="node4" class="node">
<title>Node4</title>
<g id="a_node4"><a xlink:title=" ">
<polygon fill="white" stroke="#bfbfbf" points="839.68,-168.5 839.68,-187.5 889.68,-187.5 889.68,-168.5 839.68,-168.5"/>
<text text-anchor="middle" x="864.68" y="-175.5" font-family="Helvetica,sans-Serif" font-size="10.00">chrono</text>
</a>
</g>
</g>
<!-- Node3&#45;&gt;Node4 -->
<g id="edge3" class="edge">
<title>Node3&#45;&gt;Node4</title>
<path fill="none" stroke="midnightblue" d="M799.61,-352.66C806.96,-342.93 818.47,-326.59 825.68,-311 843.5,-272.46 855.37,-223.82 860.97,-197.67"/>
<polygon fill="midnightblue" stroke="midnightblue" points="864.44,-198.15 863.04,-187.65 857.59,-196.73 864.44,-198.15"/>
</g>
<!-- Node5 -->
<g id="node5" class="node">
<title>Node5</title>
<g id="a_node5"><a xlink:title=" ">
<polygon fill="white" stroke="#bfbfbf" points="943.18,-0.5 943.18,-19.5 990.18,-19.5 990.18,-0.5 943.18,-0.5"/>
<text text-anchor="middle" x="966.68" y="-7.5" font-family="Helvetica,sans-Serif" font-size="10.00">vector</text>
</a>
</g>
</g>
<!-- Node3&#45;&gt;Node5 -->
<g id="edge4" class="edge">
<title>Node3&#45;&gt;Node5</title>
<path fill="none" stroke="midnightblue" d="M802.3,-352.8C813.11,-342.93 831.06,-326.21 845.68,-311 851.71,-304.73 1049.61,-84.14 1052.68,-76 1055.82,-67.68 1057.28,-63.6 1052.68,-56 1041.24,-37.1 1018.95,-25.75 999.93,-19.18"/>
<polygon fill="midnightblue" stroke="midnightblue" points="1000.95,-15.83 990.36,-16.17 998.84,-22.51 1000.95,-15.83"/>
</g>
<!-- Node6 -->
<g id="node6" class="node">
<title>Node6</title>
<g id="a_node6"><a xlink:title=" ">
<polygon fill="white" stroke="#bfbfbf" points="776.18,-56.5 776.18,-75.5 833.18,-75.5 833.18,-56.5 776.18,-56.5"/>
<text text-anchor="middle" x="804.68" y="-63.5" font-family="Helvetica,sans-Serif" font-size="10.00">typeinfo</text>
</a>
</g>
</g>
<!-- Node3&#45;&gt;Node6 -->
<g id="edge5" class="edge">
<title>Node3&#45;&gt;Node6</title>
<path fill="none" stroke="midnightblue" d="M790.5,-352.98C785.51,-332.69 773.68,-279.86 773.68,-235 773.68,-235 773.68,-235 773.68,-177 773.68,-143.41 787.24,-106.14 796.42,-84.75"/>
<polygon fill="midnightblue" stroke="midnightblue" points="799.62,-86.17 800.5,-75.61 793.23,-83.31 799.62,-86.17"/>
</g>
<!-- Node7 -->
<g id="node7" class="node">
<title>Node7</title>
<g id="a_node7"><a xlink:title=" ">
<polygon fill="white" stroke="#bfbfbf" points="829.18,-0.5 829.18,-19.5 894.18,-19.5 894.18,-0.5 829.18,-0.5"/>
<text text-anchor="middle" x="861.68" y="-7.5" font-family="Helvetica,sans-Serif" font-size="10.00">typeindex</text>
</a>
</g>
</g>
<!-- Node3&#45;&gt;Node7 -->
<g id="edge6" class="edge">
<title>Node3&#45;&gt;Node7</title>
<path fill="none" stroke="midnightblue" d="M794.42,-352.63C799.8,-325.18 816.66,-239.21 830.68,-168 840.54,-117.94 852.2,-58.92 858.01,-29.55"/>
<polygon fill="midnightblue" stroke="midnightblue" points="861.49,-30 860,-19.51 854.62,-28.64 861.49,-30"/>
</g>
<!-- Node8 -->
<g id="node8" class="node">
<title>Node8</title>
<g id="a_node8"><a xlink:href="Entity_8hpp.html" target="_top" xlink:title=" ">
<polygon fill="white" stroke="black" points="551.68,-112.5 551.68,-131.5 647.68,-131.5 647.68,-112.5 551.68,-112.5"/>
<text text-anchor="middle" x="599.68" y="-119.5" font-family="Helvetica,sans-Serif" font-size="10.00">Entity/Entity.hpp</text>
</a>
</g>
</g>
<!-- Node3&#45;&gt;Node8 -->
<g id="edge7" class="edge">
<title>Node3&#45;&gt;Node8</title>
<path fill="none" stroke="midnightblue" d="M769.23,-352.91C730.83,-337.51 655.15,-301.37 618.68,-244 598.6,-212.41 597.15,-167.05 598.2,-141.79"/>
<polygon fill="midnightblue" stroke="midnightblue" points="601.7,-141.92 598.81,-131.73 594.72,-141.5 601.7,-141.92"/>
</g>
<!-- Node17 -->
<g id="node17" class="node">
<title>Node17</title>
<g id="a_node17"><a xlink:href="Wal_8hpp.html" target="_top" xlink:title=" ">
<polygon fill="white" stroke="black" points="438.68,-286 438.68,-305 494.68,-305 494.68,-286 438.68,-286"/>
<text text-anchor="middle" x="466.68" y="-293" font-family="Helvetica,sans-Serif" font-size="10.00">Wal.hpp</text>
</a>
</g>
</g>
<!-- Node3&#45;&gt;Node17 -->
<g id="edge21" class="edge">
<title>Node3&#45;&gt;Node17</title>
<path fill="none" stroke="midnightblue" d="M749.73,-352.94C685.66,-340.16 566.06,-316.32 504.88,-304.12"/>
<polygon fill="midnightblue" stroke="midnightblue" points="505.36,-300.64 494.87,-302.12 503.99,-307.51 505.36,-300.64"/>
</g>
<!-- Node19 -->
<g id="node19" class="node">
<title>Node19</title>
<g id="a_node19"><a xlink:href="ISystem_8hpp.html" target="_top" xlink:title=" ">
<polygon fill="white" stroke="black" points="628.18,-224.5 628.18,-243.5 745.18,-243.5 745.18,-224.5 628.18,-224.5"/>
<text text-anchor="middle" x="686.68" y="-231.5" font-family="Helvetica,sans-Serif" font-size="10.00">System/ISystem.hpp</text>
</a>
</g>
</g>
<!-- Node3&#45;&gt;Node19 -->
<g id="edge50" class="edge">
<title>Node3&#45;&gt;Node19</title>
<path fill="none" stroke="midnightblue" d="M785.39,-352.81C767.92,-331.95 723.39,-278.81 700.59,-251.61"/>
<polygon fill="midnightblue" stroke="midnightblue" points="703.12,-249.17 694.02,-243.76 697.76,-253.67 703.12,-249.17"/>
</g>
<!-- Node20 -->
<g id="node20" class="node">
<title>Node20</title>
<g id="a_node20"><a xlink:href="View_8hpp.html" target="_top" xlink:title=" ">
<polygon fill="white" stroke="black" points="217.68,-168.5 217.68,-187.5 305.68,-187.5 305.68,-168.5 217.68,-168.5"/>
<text text-anchor="middle" x="261.68" y="-175.5" font-family="Helvetica,sans-Serif" font-size="10.00">View/View.hpp</text>
</a>
</g>
</g>
<!-- Node3&#45;&gt;Node20 -->
<g id="edge49" class="edge">
<title>Node3&#45;&gt;Node20</title>
<path fill="none" stroke="midnightblue" d="M735.47,-359.27C662.88,-355.15 534.5,-343.53 429.68,-311 366.09,-291.26 343.19,-290.65 295.68,-244 282.36,-230.92 273.14,-211.5 267.7,-197.29"/>
<polygon fill="midnightblue" stroke="midnightblue" points="270.91,-195.89 264.27,-187.64 264.32,-198.23 270.91,-195.89"/>
</g>
<!-- Node27 -->
<g id="node27" class="node">
<title>Node27</title>
<g id="a_node27"><a xlink:title=" ">
<polygon fill="white" stroke="#bfbfbf" points="983.68,-168.5 983.68,-187.5 1043.68,-187.5 1043.68,-168.5 983.68,-168.5"/>
<text text-anchor="middle" x="1013.68" y="-175.5" font-family="Helvetica,sans-Serif" font-size="10.00">iostream</text>
</a>
</g>
</g>
<!-- Node3&#45;&gt;Node27 -->
<g id="edge51" class="edge">
<title>Node3&#45;&gt;Node27</title>
<path fill="none" stroke="midnightblue" d="M832.86,-352.95C860.83,-345.47 897.79,-332.37 924.68,-311 964.4,-279.44 992.91,-225.28 1005.87,-197.15"/>
<polygon fill="midnightblue" stroke="midnightblue" points="1009.19,-198.3 1010.07,-187.74 1002.8,-195.45 1009.19,-198.3"/>
</g>
<!-- Node8&#45;&gt;Node6 -->
<g id="edge10" class="edge">
<title>Node8&#45;&gt;Node6</title>
<path fill="none" stroke="midnightblue" d="M632.16,-112.44C668.54,-102.86 727.45,-87.34 766.13,-77.15"/>
<polygon fill="midnightblue" stroke="midnightblue" points="767.21,-80.49 775.99,-74.56 765.43,-73.72 767.21,-80.49"/>
</g>
<!-- Node9 -->
<g id="node9" class="node">
<title>Node9</title>
<g id="a_node9"><a xlink:title=" ">
<polygon fill="white" stroke="#bfbfbf" points="482.68,-0.5 482.68,-19.5 526.68,-19.5 526.68,-0.5 482.68,-0.5"/>
<text text-anchor="middle" x="504.68" y="-7.5" font-family="Helvetica,sans-Serif" font-size="10.00">string</text>
</a>
</g>
</g>
<!-- Node8&#45;&gt;Node9 -->
<g id="edge8" class="edge">
<title>Node8&#45;&gt;Node9</title>
<path fill="none" stroke="midnightblue" d="M599.12,-112.08C597.87,-98.62 593.8,-72.9 580.68,-56 569.23,-41.26 551.48,-30.36 536.02,-22.98"/>
<polygon fill="midnightblue" stroke="midnightblue" points="537.32,-19.73 526.76,-18.84 534.46,-26.12 537.32,-19.73"/>
</g>
<!-- Node10 -->
<g id="node10" class="node">
<title>Node10</title>
<g id="a_node10"><a xlink:title=" ">
<polygon fill="white" stroke="#bfbfbf" points="288.18,-56.5 288.18,-75.5 381.18,-75.5 381.18,-56.5 288.18,-56.5"/>
<text text-anchor="middle" x="334.68" y="-63.5" font-family="Helvetica,sans-Serif" font-size="10.00">unordered_map</text>
</a>
</g>
</g>
<!-- Node8&#45;&gt;Node10 -->
<g id="edge9" class="edge">
<title>Node8&#45;&gt;Node10</title>
<path fill="none" stroke="midnightblue" d="M557.69,-112.44C511.27,-102.98 436.45,-87.74 386.44,-77.55"/>
<polygon fill="midnightblue" stroke="midnightblue" points="386.97,-74.08 376.47,-75.52 385.57,-80.94 386.97,-74.08"/>
</g>
<!-- Node11 -->
<g id="node11" class="node">
<title>Node11</title>
<g id="a_node11"><a xlink:title=" ">
<polygon fill="white" stroke="#bfbfbf" points="513.68,-56.5 513.68,-75.5 571.68,-75.5 571.68,-56.5 513.68,-56.5"/>
<text text-anchor="middle" x="542.68" y="-63.5" font-family="Helvetica,sans-Serif" font-size="10.00">memory</text>
</a>
</g>
</g>
<!-- Node8&#45;&gt;Node11 -->
<g id="edge11" class="edge">
<title>Node8&#45;&gt;Node11</title>
<path fill="none" stroke="midnightblue" d="M590.52,-112.32C582.18,-104.42 569.65,-92.55 559.5,-82.94"/>
<polygon fill="midnightblue" stroke="midnightblue" points="561.67,-80.17 552,-75.83 556.86,-85.25 561.67,-80.17"/>
</g>
<!-- Node12 -->
<g id="node12" class="node">
<title>Node12</title>
<g id="a_node12"><a xlink:href="Component_8hpp.html" target="_top" xlink:title=" ">
<polygon fill="white" stroke="black" points="890.18,-56.5 890.18,-75.5 1043.18,-75.5 1043.18,-56.5 890.18,-56.5"/>
<text text-anchor="middle" x="966.68" y="-63.5" font-family="Helvetica,sans-Serif" font-size="10.00">Component/Component.hpp</text>
</a>
</g>
</g>
<!-- Node8&#45;&gt;Node12 -->
<g id="edge12" class="edge">
<title>Node8&#45;&gt;Node12</title>
<path fill="none" stroke="midnightblue" d="M648.04,-113.88C712.26,-104.43 826.06,-87.69 898.85,-76.98"/>
<polygon fill="midnightblue" stroke="midnightblue" points="899.45,-80.43 908.84,-75.51 898.44,-73.5 899.45,-80.43"/>
</g>
<!-- Node13 -->
<g id="node13" class="node">
<title>Node13</title>
<g id="a_node13"><a xlink:href="WalError_8hpp.html" target="_top" xlink:title=" ">
<polygon fill="white" stroke="black" points="102.18,-56.5 102.18,-75.5 231.18,-75.5 231.18,-56.5 102.18,-56.5"/>
<text text-anchor="middle" x="166.68" y="-63.5" font-family="Helvetica,sans-Serif" font-size="10.00">Exception/WalError.hpp</text>
</a>
</g>
</g>
<!-- Node8&#45;&gt;Node13 -->
<g id="edge16" class="edge">
<title>Node8&#45;&gt;Node13</title>
<path fill="none" stroke="midnightblue" d="M551.27,-114.96C475.94,-105.57 330.11,-87.38 241.27,-76.3"/>
<polygon fill="midnightblue" stroke="midnightblue" points="241.62,-72.82 231.26,-75.05 240.75,-79.76 241.62,-72.82"/>
</g>
<!-- Node16 -->
<g id="node16" class="node">
<title>Node16</title>
<g id="a_node16"><a xlink:href="TypeHolder_8hpp.html" target="_top" xlink:title=" ">
<polygon fill="white" stroke="black" points="627.68,-56.5 627.68,-75.5 757.68,-75.5 757.68,-56.5 627.68,-56.5"/>
<text text-anchor="middle" x="692.68" y="-63.5" font-family="Helvetica,sans-Serif" font-size="10.00">Models/TypeHolder.hpp</text>
</a>
</g>
</g>
<!-- Node8&#45;&gt;Node16 -->
<g id="edge20" class="edge">
<title>Node8&#45;&gt;Node16</title>
<path fill="none" stroke="midnightblue" d="M614.62,-112.32C629.26,-103.82 651.81,-90.73 668.92,-80.8"/>
<polygon fill="midnightblue" stroke="midnightblue" points="670.88,-83.7 677.77,-75.65 667.37,-77.65 670.88,-83.7"/>
</g>
<!-- Node12&#45;&gt;Node5 -->
<g id="edge13" class="edge">
<title>Node12&#45;&gt;Node5</title>
<path fill="none" stroke="midnightblue" d="M966.68,-56.08C966.68,-49.01 966.68,-38.86 966.68,-29.99"/>
<polygon fill="midnightblue" stroke="midnightblue" points="970.18,-29.75 966.68,-19.75 963.18,-29.75 970.18,-29.75"/>
</g>
<!-- Node12&#45;&gt;Node7 -->
<g id="edge15" class="edge">
<title>Node12&#45;&gt;Node7</title>
<path fill="none" stroke="midnightblue" d="M949.81,-56.32C932.97,-47.66 906.87,-34.24 887.44,-24.25"/>
<polygon fill="midnightblue" stroke="midnightblue" points="889,-21.12 878.51,-19.65 885.8,-27.34 889,-21.12"/>
</g>
<!-- Node12&#45;&gt;Node9 -->
<g id="edge14" class="edge">
<title>Node12&#45;&gt;Node9</title>
<path fill="none" stroke="midnightblue" d="M893.73,-56.47C791.7,-44.55 610.63,-23.38 537.08,-14.79"/>
<polygon fill="midnightblue" stroke="midnightblue" points="537.37,-11.3 527.04,-13.61 536.56,-18.25 537.37,-11.3"/>
</g>
<!-- Node13&#45;&gt;Node9 -->
<g id="edge19" class="edge">
<title>Node13&#45;&gt;Node9</title>
<path fill="none" stroke="midnightblue" d="M220.24,-56.44C291.21,-45.1 414.21,-25.45 472.4,-16.16"/>
<polygon fill="midnightblue" stroke="midnightblue" points="473.16,-19.58 482.48,-14.55 472.05,-12.67 473.16,-19.58"/>
</g>
<!-- Node14 -->
<g id="node14" class="node">
<title>Node14</title>
<g id="a_node14"><a xlink:title=" ">
<polygon fill="white" stroke="#bfbfbf" points="176.18,-0.5 176.18,-19.5 241.18,-19.5 241.18,-0.5 176.18,-0.5"/>
<text text-anchor="middle" x="208.68" y="-7.5" font-family="Helvetica,sans-Serif" font-size="10.00">exception</text>
</a>
</g>
</g>
<!-- Node13&#45;&gt;Node14 -->
<g id="edge17" class="edge">
<title>Node13&#45;&gt;Node14</title>
<path fill="none" stroke="midnightblue" d="M173.61,-56.08C179.61,-48.38 188.43,-37.03 195.73,-27.65"/>
<polygon fill="midnightblue" stroke="midnightblue" points="198.5,-29.79 201.87,-19.75 192.97,-25.5 198.5,-29.79"/>
</g>
<!-- Node15 -->
<g id="node15" class="node">
<title>Node15</title>
<g id="a_node15"><a xlink:title=" ">
<polygon fill="white" stroke="#bfbfbf" points="93.18,-0.5 93.18,-19.5 158.18,-19.5 158.18,-0.5 93.18,-0.5"/>
<text text-anchor="middle" x="125.68" y="-7.5" font-family="Helvetica,sans-Serif" font-size="10.00">stdexcept</text>
</a>
</g>
</g>
<!-- Node13&#45;&gt;Node15 -->
<g id="edge18" class="edge">
<title>Node13&#45;&gt;Node15</title>
<path fill="none" stroke="midnightblue" d="M159.91,-56.08C154.12,-48.46 145.62,-37.26 138.54,-27.94"/>
<polygon fill="midnightblue" stroke="midnightblue" points="141.16,-25.6 132.32,-19.75 135.58,-29.83 141.16,-25.6"/>
</g>
<!-- Node17&#45;&gt;Node5 -->
<g id="edge23" class="edge">
<title>Node17&#45;&gt;Node5</title>
<path fill="none" stroke="midnightblue" d="M469.09,-285.89C474.2,-266.8 485.68,-219.44 485.68,-179 485.68,-179 485.68,-179 485.68,-121 485.68,-90.9 481.43,-75.12 504.68,-56 573.44,0.54 815.25,-30.3 903.68,-20 913.27,-18.88 923.65,-17.48 933.17,-16.12"/>
<polygon fill="midnightblue" stroke="midnightblue" points="933.69,-19.58 943.08,-14.67 932.68,-12.65 933.69,-19.58"/>
</g>
<!-- Node17&#45;&gt;Node6 -->
<g id="edge26" class="edge">
<title>Node17&#45;&gt;Node6</title>
<path fill="none" stroke="midnightblue" d="M479.52,-285.86C530.55,-251.51 719.36,-124.43 783.33,-81.37"/>
<polygon fill="midnightblue" stroke="midnightblue" points="785.49,-84.14 791.83,-75.65 781.58,-78.33 785.49,-84.14"/>
</g>
<!-- Node17&#45;&gt;Node9 -->
<g id="edge24" class="edge">
<title>Node17&#45;&gt;Node9</title>
<path fill="none" stroke="midnightblue" d="M465.06,-285.95C459.45,-254.33 442.69,-141.51 471.68,-56 475.28,-45.38 482.37,-35.16 489.07,-27.15"/>
<polygon fill="midnightblue" stroke="midnightblue" points="491.68,-29.47 495.73,-19.68 486.46,-24.81 491.68,-29.47"/>
</g>
<!-- Node17&#45;&gt;Node11 -->
<g id="edge25" class="edge">
<title>Node17&#45;&gt;Node11</title>
<path fill="none" stroke="midnightblue" d="M473.76,-285.73C481.23,-276.05 492.86,-259.76 499.68,-244 523.39,-189.23 535.51,-119 540.25,-85.89"/>
<polygon fill="midnightblue" stroke="midnightblue" points="543.74,-86.19 541.62,-75.81 536.8,-85.24 543.74,-86.19"/>
</g>
<!-- Node17&#45;&gt;Node13 -->
<g id="edge27" class="edge">
<title>Node17&#45;&gt;Node13</title>
<path fill="none" stroke="midnightblue" d="M438.41,-292.98C361.24,-288.49 148.5,-273.68 85.68,-244 52.7,-228.42 44.72,-219.11 25.68,-188 7.66,-158.56 -11.1,-139.57 9.68,-112 21.15,-96.77 63.9,-85.13 101.89,-77.5"/>
<polygon fill="midnightblue" stroke="midnightblue" points="102.79,-80.89 111.94,-75.55 101.46,-74.02 102.79,-80.89"/>
</g>
<!-- Node18 -->
<g id="node18" class="node">
<title>Node18</title>
<g id="a_node18"><a xlink:title=" ">
<polygon fill="white" stroke="#bfbfbf" points="28.18,-112.5 28.18,-131.5 73.18,-131.5 73.18,-112.5 28.18,-112.5"/>
<text text-anchor="middle" x="50.68" y="-119.5" font-family="Helvetica,sans-Serif" font-size="10.00">utility</text>
</a>
</g>
</g>
<!-- Node17&#45;&gt;Node18 -->
<g id="edge22" class="edge">
<title>Node17&#45;&gt;Node18</title>
<path fill="none" stroke="midnightblue" d="M438.41,-292.05C350.43,-283.76 84.35,-253.58 34.68,-188 24.3,-174.3 31.25,-154.74 38.97,-140.66"/>
<polygon fill="midnightblue" stroke="midnightblue" points="42.07,-142.3 44.24,-131.93 36.08,-138.68 42.07,-142.3"/>
</g>
<!-- Node17&#45;&gt;Node19 -->
<g id="edge28" class="edge">
<title>Node17&#45;&gt;Node19</title>
<path fill="none" stroke="midnightblue" d="M494.99,-286.84C533.1,-276.54 601.19,-258.12 645.12,-246.24"/>
<polygon fill="midnightblue" stroke="midnightblue" points="646.18,-249.58 654.92,-243.59 644.35,-242.82 646.18,-249.58"/>
</g>
<!-- Node25 -->
<g id="node25" class="node">
<title>Node25</title>
<g id="a_node25"><a xlink:href="Callback_8hpp.html" target="_top" xlink:title=" ">
<polygon fill="white" stroke="black" points="43.68,-168.5 43.68,-187.5 161.68,-187.5 161.68,-168.5 43.68,-168.5"/>
<text text-anchor="middle" x="102.68" y="-175.5" font-family="Helvetica,sans-Serif" font-size="10.00">Models/Callback.hpp</text>
</a>
</g>
</g>
<!-- Node17&#45;&gt;Node25 -->
<g id="edge39" class="edge">
<title>Node17&#45;&gt;Node25</title>
<path fill="none" stroke="midnightblue" d="M438.44,-286.51C404.45,-276.82 345.71,-259.81 295.68,-244 239.66,-226.3 175.06,-204.2 136.61,-190.86"/>
<polygon fill="midnightblue" stroke="midnightblue" points="137.55,-187.48 126.96,-187.5 135.25,-194.09 137.55,-187.48"/>
</g>
<!-- Node26 -->
<g id="node26" class="node">
<title>Node26</title>
<g id="a_node26"><a xlink:href="Scene_8hpp.html" target="_top" xlink:title=" ">
<polygon fill="white" stroke="black" points="305.18,-224.5 305.18,-243.5 404.18,-243.5 404.18,-224.5 305.18,-224.5"/>
<text text-anchor="middle" x="354.68" y="-231.5" font-family="Helvetica,sans-Serif" font-size="10.00">Scene/Scene.hpp</text>
</a>
</g>
</g>
<!-- Node17&#45;&gt;Node26 -->
<g id="edge43" class="edge">
<title>Node17&#45;&gt;Node26</title>
<path fill="none" stroke="midnightblue" d="M450.63,-285.98C432.09,-276.12 401.34,-259.79 379.66,-248.27"/>
<polygon fill="midnightblue" stroke="midnightblue" points="381.17,-245.11 370.7,-243.51 377.89,-251.29 381.17,-245.11"/>
</g>
<!-- Node19&#45;&gt;Node4 -->
<g id="edge38" class="edge">
<title>Node19&#45;&gt;Node4</title>
<path fill="none" stroke="midnightblue" d="M714.88,-224.44C745.98,-215.01 796.04,-199.82 829.63,-189.63"/>
<polygon fill="midnightblue" stroke="midnightblue" points="830.93,-192.9 839.48,-186.64 828.9,-186.2 830.93,-192.9"/>
</g>
<!-- Node19&#45;&gt;Node8 -->
<g id="edge29" class="edge">
<title>Node19&#45;&gt;Node8</title>
<path fill="none" stroke="midnightblue" d="M679.85,-224.37C665.43,-206.14 631.65,-163.43 612.87,-139.68"/>
<polygon fill="midnightblue" stroke="midnightblue" points="615.42,-137.26 606.47,-131.59 609.93,-141.61 615.42,-137.26"/>
</g>
<!-- Node19&#45;&gt;Node20 -->
<g id="edge30" class="edge">
<title>Node19&#45;&gt;Node20</title>
<path fill="none" stroke="midnightblue" d="M628.03,-225.55C545.55,-215.07 396.4,-196.12 316.2,-185.93"/>
<polygon fill="midnightblue" stroke="midnightblue" points="316.19,-182.4 305.83,-184.61 315.31,-189.34 316.19,-182.4"/>
</g>
<!-- Node20&#45;&gt;Node7 -->
<g id="edge33" class="edge">
<title>Node20&#45;&gt;Node7</title>
<path fill="none" stroke="midnightblue" d="M272.12,-168.24C281.1,-159.97 293.43,-146.66 298.68,-132 307.59,-107.12 285.31,-101.58 278.68,-76 276.45,-67.4 272.64,-62.52 278.68,-56 297.02,-36.19 687.49,-18.23 818.93,-12.72"/>
<polygon fill="midnightblue" stroke="midnightblue" points="819.18,-16.22 829.03,-12.3 818.89,-9.22 819.18,-16.22"/>
</g>
<!-- Node20&#45;&gt;Node8 -->
<g id="edge37" class="edge">
<title>Node20&#45;&gt;Node8</title>
<path fill="none" stroke="midnightblue" d="M305.87,-169.94C366.29,-160.29 474.81,-142.95 541.7,-132.26"/>
<polygon fill="midnightblue" stroke="midnightblue" points="542.34,-135.71 551.66,-130.67 541.23,-128.79 542.34,-135.71"/>
</g>
<!-- Node20&#45;&gt;Node18 -->
<g id="edge35" class="edge">
<title>Node20&#45;&gt;Node18</title>
<path fill="none" stroke="midnightblue" d="M225.72,-168.43C191.37,-160.15 137.92,-147.03 83.2,-132.35"/>
<polygon fill="midnightblue" stroke="midnightblue" points="83.9,-128.91 73.34,-129.68 82.08,-135.67 83.9,-128.91"/>
</g>
<!-- Node21 -->
<g id="node21" class="node">
<title>Node21</title>
<g id="a_node21"><a xlink:title=" ">
<polygon fill="white" stroke="#bfbfbf" points="345.68,-112.5 345.68,-131.5 377.68,-131.5 377.68,-112.5 345.68,-112.5"/>
<text text-anchor="middle" x="361.68" y="-119.5" font-family="Helvetica,sans-Serif" font-size="10.00">list</text>
</a>
</g>
</g>
<!-- Node20&#45;&gt;Node21 -->
<g id="edge31" class="edge">
<title>Node20&#45;&gt;Node21</title>
<path fill="none" stroke="midnightblue" d="M277.75,-168.32C293.64,-159.74 318.19,-146.49 336.64,-136.52"/>
<polygon fill="midnightblue" stroke="midnightblue" points="338.52,-139.49 345.65,-131.65 335.19,-133.33 338.52,-139.49"/>
</g>
<!-- Node22 -->
<g id="node22" class="node">
<title>Node22</title>
<g id="a_node22"><a xlink:title=" ">
<polygon fill="white" stroke="#bfbfbf" points="174.18,-112.5 174.18,-131.5 215.18,-131.5 215.18,-112.5 174.18,-112.5"/>
<text text-anchor="middle" x="194.68" y="-119.5" font-family="Helvetica,sans-Serif" font-size="10.00">tuple</text>
</a>
</g>
</g>
<!-- Node20&#45;&gt;Node22 -->
<g id="edge32" class="edge">
<title>Node20&#45;&gt;Node22</title>
<path fill="none" stroke="midnightblue" d="M250.91,-168.32C240.91,-160.26 225.79,-148.08 213.75,-138.37"/>
<polygon fill="midnightblue" stroke="midnightblue" points="215.62,-135.38 205.64,-131.83 211.23,-140.83 215.62,-135.38"/>
</g>
<!-- Node23 -->
<g id="node23" class="node">
<title>Node23</title>
<g id="a_node23"><a xlink:title=" ">
<polygon fill="white" stroke="#bfbfbf" points="91.18,-112.5 91.18,-131.5 156.18,-131.5 156.18,-112.5 91.18,-112.5"/>
<text text-anchor="middle" x="123.68" y="-119.5" font-family="Helvetica,sans-Serif" font-size="10.00">functional</text>
</a>
</g>
</g>
<!-- Node20&#45;&gt;Node23 -->
<g id="edge34" class="edge">
<title>Node20&#45;&gt;Node23</title>
<path fill="none" stroke="midnightblue" d="M239.81,-168.44C216.9,-159.48 180.7,-145.31 154.81,-135.18"/>
<polygon fill="midnightblue" stroke="midnightblue" points="156.03,-131.9 145.44,-131.52 153.48,-138.42 156.03,-131.9"/>
</g>
<!-- Node24 -->
<g id="node24" class="node">
<title>Node24</title>
<g id="a_node24"><a xlink:title=" ">
<polygon fill="white" stroke="#bfbfbf" points="233.68,-112.5 233.68,-131.5 289.68,-131.5 289.68,-112.5 233.68,-112.5"/>
<text text-anchor="middle" x="261.68" y="-119.5" font-family="Helvetica,sans-Serif" font-size="10.00">optional</text>
</a>
</g>
</g>
<!-- Node20&#45;&gt;Node24 -->
<g id="edge36" class="edge">
<title>Node20&#45;&gt;Node24</title>
<path fill="none" stroke="midnightblue" d="M261.68,-168.08C261.68,-161.01 261.68,-150.86 261.68,-141.99"/>
<polygon fill="midnightblue" stroke="midnightblue" points="265.18,-141.75 261.68,-131.75 258.18,-141.75 265.18,-141.75"/>
</g>
<!-- Node25&#45;&gt;Node10 -->
<g id="edge42" class="edge">
<title>Node25&#45;&gt;Node10</title>
<path fill="none" stroke="midnightblue" d="M75.05,-168.43C43.22,-157.19 -2.17,-136.03 18.68,-112 27.1,-102.3 189.08,-83.05 277.77,-73.17"/>
<polygon fill="midnightblue" stroke="midnightblue" points="278.39,-76.62 287.94,-72.04 277.62,-69.66 278.39,-76.62"/>
</g>
<!-- Node25&#45;&gt;Node18 -->
<g id="edge41" class="edge">
<title>Node25&#45;&gt;Node18</title>
<path fill="none" stroke="midnightblue" d="M94.09,-168.08C86.52,-160.22 75.3,-148.57 66.16,-139.08"/>
<polygon fill="midnightblue" stroke="midnightblue" points="68.56,-136.53 59.11,-131.75 63.52,-141.38 68.56,-136.53"/>
</g>
<!-- Node25&#45;&gt;Node23 -->
<g id="edge40" class="edge">
<title>Node25&#45;&gt;Node23</title>
<path fill="none" stroke="midnightblue" d="M106.15,-168.08C108.99,-160.77 113.11,-150.18 116.64,-141.1"/>
<polygon fill="midnightblue" stroke="midnightblue" points="119.91,-142.34 120.28,-131.75 113.39,-139.8 119.91,-142.34"/>
</g>
<!-- Node26&#45;&gt;Node5 -->
<g id="edge44" class="edge">
<title>Node26&#45;&gt;Node5</title>
<path fill="none" stroke="midnightblue" d="M357.34,-224.36C366.99,-194.68 403.23,-96.56 471.68,-56 554.55,-6.89 807.96,-30.82 903.68,-20 913.27,-18.92 923.66,-17.52 933.18,-16.16"/>
<polygon fill="midnightblue" stroke="midnightblue" points="933.7,-19.62 943.09,-14.71 932.69,-12.69 933.7,-19.62"/>
</g>
<!-- Node26&#45;&gt;Node8 -->
<g id="edge48" class="edge">
<title>Node26&#45;&gt;Node8</title>
<path fill="none" stroke="midnightblue" d="M373.9,-224.37C416.84,-205.09 520.71,-158.45 571.19,-135.79"/>
<polygon fill="midnightblue" stroke="midnightblue" points="572.85,-138.88 580.54,-131.59 569.99,-132.49 572.85,-138.88"/>
</g>
<!-- Node26&#45;&gt;Node20 -->
<g id="edge47" class="edge">
<title>Node26&#45;&gt;Node20</title>
<path fill="none" stroke="midnightblue" d="M339.74,-224.32C325.09,-215.82 302.55,-202.73 285.44,-192.8"/>
<polygon fill="midnightblue" stroke="midnightblue" points="286.99,-189.65 276.58,-187.65 283.47,-195.7 286.99,-189.65"/>
</g>
<!-- Node26&#45;&gt;Node21 -->
<g id="edge45" class="edge">
<title>Node26&#45;&gt;Node21</title>
<path fill="none" stroke="midnightblue" d="M354.97,-224.16C355.4,-211.65 356.33,-188.06 357.68,-168 358.26,-159.38 359.08,-149.85 359.83,-141.79"/>
<polygon fill="midnightblue" stroke="midnightblue" points="363.33,-141.91 360.8,-131.62 356.37,-141.24 363.33,-141.91"/>
</g>
<!-- Node26&#45;&gt;Node23 -->
<g id="edge46" class="edge">
<title>Node26&#45;&gt;Node23</title>
<path fill="none" stroke="midnightblue" d="M313.52,-224.44C283.42,-217.21 242.16,-205.26 208.68,-188 182.81,-174.66 156.76,-153.3 140.45,-138.74"/>
<polygon fill="midnightblue" stroke="midnightblue" points="142.61,-135.97 132.86,-131.82 137.89,-141.14 142.61,-135.97"/>
</g>
<!-- Node29&#45;&gt;Node8 -->
<g id="edge67" class="edge">
<title>Node29&#45;&gt;Node8</title>
<path fill="none" stroke="midnightblue" d="M1305.64,-347.25C1314.67,-311.26 1332.39,-216.14 1282.68,-168 1238.3,-125.02 815.26,-122.17 658.09,-122.62"/>
<polygon fill="midnightblue" stroke="midnightblue" points="657.68,-119.12 647.69,-122.65 657.7,-126.12 657.68,-119.12"/>
</g>
<!-- Node29&#45;&gt;Node12 -->
<g id="edge57" class="edge">
<title>Node29&#45;&gt;Node12</title>
<path fill="none" stroke="midnightblue" d="M1310.58,-347.09C1316.09,-337.31 1322.68,-323.86 1325.68,-311 1345.87,-224.48 1370.9,-173.39 1306.68,-112 1271.4,-78.28 1141.88,-69.29 1053.29,-67.19"/>
<polygon fill="midnightblue" stroke="midnightblue" points="1053.31,-63.69 1043.23,-66.98 1053.16,-70.69 1053.31,-63.69"/>
</g>
<!-- Node29&#45;&gt;Node30 -->
<g id="edge54" class="edge">
<title>Node29&#45;&gt;Node30</title>
<path fill="none" stroke="midnightblue" d="M1331.19,-347.4C1354.84,-336.09 1387.76,-320.36 1410.71,-309.39"/>
<polygon fill="midnightblue" stroke="midnightblue" points="1412.37,-312.48 1419.88,-305.01 1409.35,-306.16 1412.37,-312.48"/>
</g>
<!-- Node29&#45;&gt;Node32 -->
<g id="edge58" class="edge">
<title>Node29&#45;&gt;Node32</title>
<path fill="none" stroke="midnightblue" d="M1255.94,-347.48C1223.59,-337.56 1180.03,-324.2 1145.61,-313.65"/>
<polygon fill="midnightblue" stroke="midnightblue" points="1146.29,-310.2 1135.7,-310.61 1144.24,-316.89 1146.29,-310.2"/>
</g>
<!-- Node30&#45;&gt;Node5 -->
<g id="edge56" class="edge">
<title>Node30&#45;&gt;Node5</title>
<path fill="none" stroke="midnightblue" d="M1436.29,-285.83C1433.33,-266.64 1426.68,-219.08 1426.68,-179 1426.68,-179 1426.68,-179 1426.68,-121 1426.68,-33.38 1106.97,-15.4 1000.62,-11.84"/>
<polygon fill="midnightblue" stroke="midnightblue" points="1000.55,-8.34 990.44,-11.53 1000.33,-15.34 1000.55,-8.34"/>
</g>
<!-- Node31 -->
<g id="node31" class="node">
<title>Node31</title>
<g id="a_node31"><a xlink:title=" ">
<polygon fill="white" stroke="#bfbfbf" points="1244.18,-112.5 1244.18,-131.5 1297.18,-131.5 1297.18,-112.5 1244.18,-112.5"/>
<text text-anchor="middle" x="1270.68" y="-119.5" font-family="Helvetica,sans-Serif" font-size="10.00">raylib.h</text>
</a>
</g>
</g>
<!-- Node30&#45;&gt;Node31 -->
<g id="edge55" class="edge">
<title>Node30&#45;&gt;Node31</title>
<path fill="none" stroke="midnightblue" d="M1429.45,-285.86C1409.86,-265.31 1358.86,-211.97 1315.68,-168 1306.08,-158.22 1295.22,-147.36 1286.57,-138.75"/>
<polygon fill="midnightblue" stroke="midnightblue" points="1288.91,-136.15 1279.35,-131.58 1283.98,-141.11 1288.91,-136.15"/>
</g>
<!-- Node32&#45;&gt;Node4 -->
<g id="edge66" class="edge">
<title>Node32&#45;&gt;Node4</title>
<path fill="none" stroke="midnightblue" d="M1062.09,-280.34C1018.12,-257.77 932.79,-213.97 890.18,-192.09"/>
<polygon fill="midnightblue" stroke="midnightblue" points="891.78,-188.98 881.28,-187.52 888.58,-195.2 891.78,-188.98"/>
</g>
<!-- Node32&#45;&gt;Node8 -->
<g id="edge65" class="edge">
<title>Node32&#45;&gt;Node8</title>
<path fill="none" stroke="midnightblue" d="M1073.74,-280.14C1042.66,-253.05 970.64,-194.72 898.68,-168 818.66,-138.29 719.67,-128.17 658.09,-124.74"/>
<polygon fill="midnightblue" stroke="midnightblue" points="657.96,-121.22 647.79,-124.2 657.6,-128.21 657.96,-121.22"/>
</g>
<!-- Node32&#45;&gt;Node12 -->
<g id="edge64" class="edge">
<title>Node32&#45;&gt;Node12</title>
<path fill="none" stroke="midnightblue" d="M1087.56,-280.48C1083.49,-256.33 1073.11,-205.86 1052.68,-168 1034.4,-134.13 1003.33,-101.44 983.97,-82.82"/>
<polygon fill="midnightblue" stroke="midnightblue" points="986.13,-80.05 976.46,-75.74 981.33,-85.15 986.13,-80.05"/>
</g>
<!-- Node33 -->
<g id="node33" class="node">
<title>Node33</title>
<g id="a_node33"><a xlink:href="sources_2Models_2Vector2_8hpp.html" target="_top" xlink:title=" ">
<polygon fill="white" stroke="black" points="1100.18,-224.5 1100.18,-243.5 1213.18,-243.5 1213.18,-224.5 1100.18,-224.5"/>
<text text-anchor="middle" x="1156.68" y="-231.5" font-family="Helvetica,sans-Serif" font-size="10.00">Models/Vector2.hpp</text>
</a>
</g>
</g>
<!-- Node32&#45;&gt;Node33 -->
<g id="edge59" class="edge">
<title>Node32&#45;&gt;Node33</title>
<path fill="none" stroke="midnightblue" d="M1105.56,-280.4C1115.69,-271.4 1128.84,-259.72 1139.26,-250.47"/>
<polygon fill="midnightblue" stroke="midnightblue" points="1141.78,-252.92 1146.93,-243.66 1137.13,-247.68 1141.78,-252.92"/>
</g>
<!-- Node33&#45;&gt;Node27 -->
<g id="edge60" class="edge">
<title>Node33&#45;&gt;Node27</title>
<path fill="none" stroke="midnightblue" d="M1134.02,-224.44C1110.28,-215.48 1072.77,-201.31 1045.94,-191.18"/>
<polygon fill="midnightblue" stroke="midnightblue" points="1046.82,-187.77 1036.23,-187.52 1044.35,-194.32 1046.82,-187.77"/>
</g>
<!-- Node34 -->
<g id="node34" class="node">
<title>Node34</title>
<g id="a_node34"><a xlink:title=" ">
<polygon fill="white" stroke="#bfbfbf" points="1100.18,-168.5 1100.18,-187.5 1147.18,-187.5 1147.18,-168.5 1100.18,-168.5"/>
<text text-anchor="middle" x="1123.68" y="-175.5" font-family="Helvetica,sans-Serif" font-size="10.00">cmath</text>
</a>
</g>
</g>
<!-- Node33&#45;&gt;Node34 -->
<g id="edge61" class="edge">
<title>Node33&#45;&gt;Node34</title>
<path fill="none" stroke="midnightblue" d="M1151.23,-224.08C1146.66,-216.61 1140.01,-205.72 1134.39,-196.52"/>
<polygon fill="midnightblue" stroke="midnightblue" points="1137.23,-194.46 1129.03,-187.75 1131.26,-198.11 1137.23,-194.46"/>
</g>
<!-- Node35 -->
<g id="node35" class="node">
<title>Node35</title>
<g id="a_node35"><a xlink:href="lib_2Ray_2sources_2Vector_2Vector2_8hpp.html" target="_top" xlink:title=" ">
<polygon fill="white" stroke="black" points="1165.68,-168.5 1165.68,-187.5 1273.68,-187.5 1273.68,-168.5 1165.68,-168.5"/>
<text text-anchor="middle" x="1219.68" y="-175.5" font-family="Helvetica,sans-Serif" font-size="10.00">Vector/Vector2.hpp</text>
</a>
</g>
</g>
<!-- Node33&#45;&gt;Node35 -->
<g id="edge62" class="edge">
<title>Node33&#45;&gt;Node35</title>
<path fill="none" stroke="midnightblue" d="M1166.8,-224.32C1176.21,-216.26 1190.42,-204.08 1201.75,-194.37"/>
<polygon fill="midnightblue" stroke="midnightblue" points="1204.06,-197 1209.37,-187.83 1199.5,-191.68 1204.06,-197"/>
</g>
<!-- Node35&#45;&gt;Node31 -->
<g id="edge63" class="edge">
<title>Node35&#45;&gt;Node31</title>
<path fill="none" stroke="midnightblue" d="M1228.1,-168.08C1235.53,-160.22 1246.53,-148.57 1255.49,-139.08"/>
<polygon fill="midnightblue" stroke="midnightblue" points="1258.09,-141.42 1262.41,-131.75 1253,-136.62 1258.09,-141.42"/>
</g>
</g>
</svg>
