<?xml version="1.0" encoding="UTF-8" standalone="no"?>
<!DOCTYPE svg PUBLIC "-//W3C//DTD SVG 1.1//EN"
 "http://www.w3.org/Graphics/SVG/1.1/DTD/svg11.dtd">
<!-- Generated by graphviz version 2.43.0 (0)
 -->
<!-- Title: sources/Component/Levitate/LevitateComponent.hpp Pages: 1 -->
<svg width="722pt" height="173pt"
 viewBox="0.00 0.00 721.50 173.00" xmlns="http://www.w3.org/2000/svg" xmlns:xlink="http://www.w3.org/1999/xlink">
<g id="graph0" class="graph" transform="scale(1 1) rotate(0) translate(4 169)">
<title>sources/Component/Levitate/LevitateComponent.hpp</title>
<polygon fill="white" stroke="transparent" points="-4,4 -4,-169 717.5,-169 717.5,4 -4,4"/>
<!-- Node1 -->
<g id="node1" class="node">
<title>Node1</title>
<g id="a_node1"><a xlink:title=" ">
<polygon fill="#bfbfbf" stroke="black" points="237,-134.5 237,-164.5 393,-164.5 393,-134.5 237,-134.5"/>
<text text-anchor="start" x="245" y="-152.5" font-family="Helvetica,sans-Serif" font-size="10.00">sources/Component/Levitate</text>
<text text-anchor="middle" x="315" y="-141.5" font-family="Helvetica,sans-Serif" font-size="10.00">/LevitateComponent.hpp</text>
</a>
</g>
</g>
<!-- Node2 -->
<g id="node2" class="node">
<title>Node2</title>
<g id="a_node2"><a xlink:href="LevitateComponent_8cpp.html" target="_top" xlink:title=" ">
<polygon fill="white" stroke="black" points="0,-67.5 0,-97.5 156,-97.5 156,-67.5 0,-67.5"/>
<text text-anchor="start" x="8" y="-85.5" font-family="Helvetica,sans-Serif" font-size="10.00">sources/Component/Levitate</text>
<text text-anchor="middle" x="78" y="-74.5" font-family="Helvetica,sans-Serif" font-size="10.00">/LevitateComponent.cpp</text>
</a>
</g>
</g>
<!-- Node1&#45;&gt;Node2 -->
<g id="edge1" class="edge">
<title>Node1&#45;&gt;Node2</title>
<path fill="none" stroke="midnightblue" d="M253.8,-131.71C215.23,-121.14 166,-107.63 129.45,-97.61"/>
<polygon fill="midnightblue" stroke="midnightblue" points="253.3,-135.21 263.87,-134.48 255.15,-128.46 253.3,-135.21"/>
</g>
<!-- Node3 -->
<g id="node3" class="node">
<title>Node3</title>
<g id="a_node3"><a xlink:href="Map_8cpp.html" target="_top" xlink:title=" ">
<polygon fill="white" stroke="black" points="174,-73 174,-92 296,-92 296,-73 174,-73"/>
<text text-anchor="middle" x="235" y="-80" font-family="Helvetica,sans-Serif" font-size="10.00">sources/Map/Map.cpp</text>
</a>
</g>
</g>
<!-- Node1&#45;&gt;Node3 -->
<g id="edge2" class="edge">
<title>Node1&#45;&gt;Node3</title>
<path fill="none" stroke="midnightblue" d="M289.78,-128.01C274.93,-115.94 256.91,-101.3 245.7,-92.19"/>
<polygon fill="midnightblue" stroke="midnightblue" points="287.67,-130.81 297.64,-134.4 292.09,-125.37 287.67,-130.81"/>
</g>
<!-- Node4 -->
<g id="node4" class="node">
<title>Node4</title>
<g id="a_node4"><a xlink:href="ParserYaml_8cpp.html" target="_top" xlink:title=" ">
<polygon fill="white" stroke="black" points="314,-73 314,-92 478,-92 478,-73 314,-73"/>
<text text-anchor="middle" x="396" y="-80" font-family="Helvetica,sans-Serif" font-size="10.00">sources/Parser/ParserYaml.cpp</text>
</a>
</g>
</g>
<!-- Node1&#45;&gt;Node4 -->
<g id="edge3" class="edge">
<title>Node1&#45;&gt;Node4</title>
<path fill="none" stroke="midnightblue" d="M340.54,-128.01C355.57,-115.94 373.81,-101.3 385.17,-92.19"/>
<polygon fill="midnightblue" stroke="midnightblue" points="338.18,-125.41 332.58,-134.4 342.57,-130.87 338.18,-125.41"/>
</g>
<!-- Node5 -->
<g id="node5" class="node">
<title>Node5</title>
<g id="a_node5"><a xlink:href="LevitateSystem_8hpp.html" target="_top" xlink:title=" ">
<polygon fill="white" stroke="black" points="496.5,-67.5 496.5,-97.5 633.5,-97.5 633.5,-67.5 496.5,-67.5"/>
<text text-anchor="start" x="504.5" y="-85.5" font-family="Helvetica,sans-Serif" font-size="10.00">sources/System/Levitate</text>
<text text-anchor="middle" x="565" y="-74.5" font-family="Helvetica,sans-Serif" font-size="10.00">/LevitateSystem.hpp</text>
</a>
</g>
</g>
<!-- Node1&#45;&gt;Node5 -->
<g id="edge4" class="edge">
<title>Node1&#45;&gt;Node5</title>
<path fill="none" stroke="midnightblue" d="M378.78,-131.92C419.58,-121.31 471.93,-107.7 510.73,-97.61"/>
<polygon fill="midnightblue" stroke="midnightblue" points="377.74,-128.57 368.94,-134.48 379.5,-135.35 377.74,-128.57"/>
</g>
<!-- Node6 -->
<g id="node6" class="node">
<title>Node6</title>
<g id="a_node6"><a xlink:href="Runner_8cpp.html" target="_top" xlink:title=" ">
<polygon fill="white" stroke="black" points="409.5,-6 409.5,-25 558.5,-25 558.5,-6 409.5,-6"/>
<text text-anchor="middle" x="484" y="-13" font-family="Helvetica,sans-Serif" font-size="10.00">sources/Runner/Runner.cpp</text>
</a>
</g>
</g>
<!-- Node5&#45;&gt;Node6 -->
<g id="edge5" class="edge">
<title>Node5&#45;&gt;Node6</title>
<path fill="none" stroke="midnightblue" d="M539.46,-61.01C524.43,-48.94 506.19,-34.3 494.83,-25.19"/>
<polygon fill="midnightblue" stroke="midnightblue" points="537.43,-63.87 547.42,-67.4 541.82,-58.41 537.43,-63.87"/>
</g>
<!-- Node7 -->
<g id="node7" class="node">
<title>Node7</title>
<g id="a_node7"><a xlink:href="LevitateSystem_8cpp.html" target="_top" xlink:title=" ">
<polygon fill="white" stroke="black" points="576.5,-0.5 576.5,-30.5 713.5,-30.5 713.5,-0.5 576.5,-0.5"/>
<text text-anchor="start" x="584.5" y="-18.5" font-family="Helvetica,sans-Serif" font-size="10.00">sources/System/Levitate</text>
<text text-anchor="middle" x="645" y="-7.5" font-family="Helvetica,sans-Serif" font-size="10.00">/LevitateSystem.cpp</text>
</a>
</g>
</g>
<!-- Node5&#45;&gt;Node7 -->
<g id="edge6" class="edge">
<title>Node5&#45;&gt;Node7</title>
<path fill="none" stroke="midnightblue" d="M590.37,-60.88C602.53,-51.01 616.78,-39.43 627.68,-30.58"/>
<polygon fill="midnightblue" stroke="midnightblue" points="587.91,-58.37 582.36,-67.4 592.33,-63.81 587.91,-58.37"/>
</g>
</g>
</svg>
