<?xml version="1.0" encoding="UTF-8" standalone="no"?>
<!DOCTYPE svg PUBLIC "-//W3C//DTD SVG 1.1//EN"
 "http://www.w3.org/Graphics/SVG/1.1/DTD/svg11.dtd">
<!-- Generated by graphviz version 2.43.0 (0)
 -->
<!-- Title: sources/System/Levitate/LevitateSystem.hpp Pages: 1 -->
<svg width="1238pt" height="442pt"
 viewBox="0.00 0.00 1238.00 442.00" xmlns="http://www.w3.org/2000/svg" xmlns:xlink="http://www.w3.org/1999/xlink">
<g id="graph0" class="graph" transform="scale(1 1) rotate(0) translate(4 438)">
<title>sources/System/Levitate/LevitateSystem.hpp</title>
<polygon fill="white" stroke="transparent" points="-4,4 -4,-438 1234,-438 1234,4 -4,4"/>
<!-- Node1 -->
<g id="node1" class="node">
<title>Node1</title>
<g id="a_node1"><a xlink:title=" ">
<polygon fill="#bfbfbf" stroke="black" points="545.5,-403.5 545.5,-433.5 682.5,-433.5 682.5,-403.5 545.5,-403.5"/>
<text text-anchor="start" x="553.5" y="-421.5" font-family="Helvetica,sans-Serif" font-size="10.00">sources/System/Levitate</text>
<text text-anchor="middle" x="614" y="-410.5" font-family="Helvetica,sans-Serif" font-size="10.00">/LevitateSystem.hpp</text>
</a>
</g>
</g>
<!-- Node2 -->
<g id="node2" class="node">
<title>Node2</title>
<g id="a_node2"><a xlink:href="LevitateComponent_8hpp.html" target="_top" xlink:title=" ">
<polygon fill="white" stroke="black" points="460.5,-336.5 460.5,-366.5 597.5,-366.5 597.5,-336.5 460.5,-336.5"/>
<text text-anchor="start" x="468.5" y="-354.5" font-family="Helvetica,sans-Serif" font-size="10.00">Component/Levitate</text>
<text text-anchor="middle" x="529" y="-343.5" font-family="Helvetica,sans-Serif" font-size="10.00">/LevitateComponent.hpp</text>
</a>
</g>
</g>
<!-- Node1&#45;&gt;Node2 -->
<g id="edge1" class="edge">
<title>Node1&#45;&gt;Node2</title>
<path fill="none" stroke="midnightblue" d="M595.56,-403.4C583.86,-394.45 568.54,-382.74 555.55,-372.8"/>
<polygon fill="midnightblue" stroke="midnightblue" points="557.48,-369.87 547.41,-366.58 553.23,-375.43 557.48,-369.87"/>
</g>
<!-- Node20 -->
<g id="node20" class="node">
<title>Node20</title>
<g id="a_node20"><a xlink:href="PositionComponent_8hpp.html" target="_top" xlink:title=" ">
<polygon fill="white" stroke="black" points="269,-336.5 269,-366.5 405,-366.5 405,-336.5 269,-336.5"/>
<text text-anchor="start" x="277" y="-354.5" font-family="Helvetica,sans-Serif" font-size="10.00">Component/Position</text>
<text text-anchor="middle" x="337" y="-343.5" font-family="Helvetica,sans-Serif" font-size="10.00">/PositionComponent.hpp</text>
</a>
</g>
</g>
<!-- Node1&#45;&gt;Node20 -->
<g id="edge22" class="edge">
<title>Node1&#45;&gt;Node20</title>
<path fill="none" stroke="midnightblue" d="M554.24,-403.48C510.97,-393.32 452.35,-379.57 406.91,-368.91"/>
<polygon fill="midnightblue" stroke="midnightblue" points="407.67,-365.49 397.13,-366.61 406.07,-372.3 407.67,-365.49"/>
</g>
<!-- Node21 -->
<g id="node21" class="node">
<title>Node21</title>
<g id="a_node21"><a xlink:href="Wal_8hpp.html" target="_top" xlink:title=" ">
<polygon fill="white" stroke="black" points="644,-280.5 644,-299.5 700,-299.5 700,-280.5 644,-280.5"/>
<text text-anchor="middle" x="672" y="-287.5" font-family="Helvetica,sans-Serif" font-size="10.00">Wal.hpp</text>
</a>
</g>
</g>
<!-- Node1&#45;&gt;Node21 -->
<g id="edge25" class="edge">
<title>Node1&#45;&gt;Node21</title>
<path fill="none" stroke="midnightblue" d="M620.43,-403.48C631.01,-380.41 652.06,-334.48 663.73,-309.03"/>
<polygon fill="midnightblue" stroke="midnightblue" points="666.98,-310.34 667.97,-299.79 660.62,-307.42 666.98,-310.34"/>
</g>
<!-- Node32 -->
<g id="node32" class="node">
<title>Node32</title>
<g id="a_node32"><a xlink:href="System_8hpp.html" target="_top" xlink:title=" ">
<polygon fill="white" stroke="black" points="878,-342 878,-361 992,-361 992,-342 878,-342"/>
<text text-anchor="middle" x="935" y="-349" font-family="Helvetica,sans-Serif" font-size="10.00">System/System.hpp</text>
</a>
</g>
</g>
<!-- Node1&#45;&gt;Node32 -->
<g id="edge53" class="edge">
<title>Node1&#45;&gt;Node32</title>
<path fill="none" stroke="midnightblue" d="M682.86,-403.56C742.74,-391.43 828.22,-374.12 882.65,-363.1"/>
<polygon fill="midnightblue" stroke="midnightblue" points="883.67,-366.47 892.77,-361.05 882.28,-359.6 883.67,-366.47"/>
</g>
<!-- Node3 -->
<g id="node3" class="node">
<title>Node3</title>
<g id="a_node3"><a xlink:href="Component_8hpp.html" target="_top" xlink:title=" ">
<polygon fill="white" stroke="black" points="374.5,-56.5 374.5,-75.5 527.5,-75.5 527.5,-56.5 374.5,-56.5"/>
<text text-anchor="middle" x="451" y="-63.5" font-family="Helvetica,sans-Serif" font-size="10.00">Component/Component.hpp</text>
</a>
</g>
</g>
<!-- Node2&#45;&gt;Node3 -->
<g id="edge2" class="edge">
<title>Node2&#45;&gt;Node3</title>
<path fill="none" stroke="midnightblue" d="M525.13,-336.44C512.22,-289.5 470.58,-138.18 456.06,-85.38"/>
<polygon fill="midnightblue" stroke="midnightblue" points="459.42,-84.4 453.39,-75.68 452.67,-86.25 459.42,-84.4"/>
</g>
<!-- Node7 -->
<g id="node7" class="node">
<title>Node7</title>
<g id="a_node7"><a xlink:href="Entity_8hpp.html" target="_top" xlink:title=" ">
<polygon fill="white" stroke="black" points="991,-112.5 991,-131.5 1087,-131.5 1087,-112.5 991,-112.5"/>
<text text-anchor="middle" x="1039" y="-119.5" font-family="Helvetica,sans-Serif" font-size="10.00">Entity/Entity.hpp</text>
</a>
</g>
</g>
<!-- Node2&#45;&gt;Node7 -->
<g id="edge6" class="edge">
<title>Node2&#45;&gt;Node7</title>
<path fill="none" stroke="midnightblue" d="M585.44,-336.4C621.17,-327.05 668.16,-313.97 709,-300 820.38,-261.91 849.51,-250.9 949,-188 974.34,-171.98 1002.11,-151.43 1020.01,-137.77"/>
<polygon fill="midnightblue" stroke="midnightblue" points="1022.15,-140.54 1027.94,-131.67 1017.88,-134.99 1022.15,-140.54"/>
</g>
<!-- Node15 -->
<g id="node15" class="node">
<title>Node15</title>
<g id="a_node15"><a xlink:href="sources_2Models_2Vector3_8hpp.html" target="_top" xlink:title=" ">
<polygon fill="white" stroke="black" points="100.5,-280.5 100.5,-299.5 213.5,-299.5 213.5,-280.5 100.5,-280.5"/>
<text text-anchor="middle" x="157" y="-287.5" font-family="Helvetica,sans-Serif" font-size="10.00">Models/Vector3.hpp</text>
</a>
</g>
</g>
<!-- Node2&#45;&gt;Node15 -->
<g id="edge17" class="edge">
<title>Node2&#45;&gt;Node15</title>
<path fill="none" stroke="midnightblue" d="M460.34,-339.52C391.64,-328.53 286.86,-311.77 220.18,-301.1"/>
<polygon fill="midnightblue" stroke="midnightblue" points="220.65,-297.64 210.22,-299.51 219.54,-304.55 220.65,-297.64"/>
</g>
<!-- Node4 -->
<g id="node4" class="node">
<title>Node4</title>
<g id="a_node4"><a xlink:title=" ">
<polygon fill="white" stroke="#bfbfbf" points="303.5,-0.5 303.5,-19.5 350.5,-19.5 350.5,-0.5 303.5,-0.5"/>
<text text-anchor="middle" x="327" y="-7.5" font-family="Helvetica,sans-Serif" font-size="10.00">vector</text>
</a>
</g>
</g>
<!-- Node3&#45;&gt;Node4 -->
<g id="edge3" class="edge">
<title>Node3&#45;&gt;Node4</title>
<path fill="none" stroke="midnightblue" d="M431.35,-56.44C411.04,-47.6 379.1,-33.69 355.9,-23.59"/>
<polygon fill="midnightblue" stroke="midnightblue" points="357.12,-20.3 346.56,-19.52 354.33,-26.72 357.12,-20.3"/>
</g>
<!-- Node5 -->
<g id="node5" class="node">
<title>Node5</title>
<g id="a_node5"><a xlink:title=" ">
<polygon fill="white" stroke="#bfbfbf" points="676,-0.5 676,-19.5 720,-19.5 720,-0.5 676,-0.5"/>
<text text-anchor="middle" x="698" y="-7.5" font-family="Helvetica,sans-Serif" font-size="10.00">string</text>
</a>
</g>
</g>
<!-- Node3&#45;&gt;Node5 -->
<g id="edge4" class="edge">
<title>Node3&#45;&gt;Node5</title>
<path fill="none" stroke="midnightblue" d="M490.14,-56.44C538.85,-45.79 621.11,-27.81 666.15,-17.96"/>
<polygon fill="midnightblue" stroke="midnightblue" points="666.95,-21.37 675.97,-15.82 665.45,-14.53 666.95,-21.37"/>
</g>
<!-- Node6 -->
<g id="node6" class="node">
<title>Node6</title>
<g id="a_node6"><a xlink:title=" ">
<polygon fill="white" stroke="#bfbfbf" points="1082.5,-0.5 1082.5,-19.5 1147.5,-19.5 1147.5,-0.5 1082.5,-0.5"/>
<text text-anchor="middle" x="1115" y="-7.5" font-family="Helvetica,sans-Serif" font-size="10.00">typeindex</text>
</a>
</g>
</g>
<!-- Node3&#45;&gt;Node6 -->
<g id="edge5" class="edge">
<title>Node3&#45;&gt;Node6</title>
<path fill="none" stroke="midnightblue" d="M527.9,-56.76C530.63,-56.5 533.34,-56.24 536,-56 736.32,-37.61 976.09,-20.55 1072.14,-13.92"/>
<polygon fill="midnightblue" stroke="midnightblue" points="1072.59,-17.4 1082.33,-13.22 1072.11,-10.41 1072.59,-17.4"/>
</g>
<!-- Node7&#45;&gt;Node3 -->
<g id="edge11" class="edge">
<title>Node7&#45;&gt;Node3</title>
<path fill="none" stroke="midnightblue" d="M990.83,-113.13C987.85,-112.73 984.88,-112.34 982,-112 787.81,-88.87 735.73,-94.28 538.04,-76.17"/>
<polygon fill="midnightblue" stroke="midnightblue" points="538.18,-72.67 527.9,-75.23 537.54,-79.64 538.18,-72.67"/>
</g>
<!-- Node7&#45;&gt;Node5 -->
<g id="edge7" class="edge">
<title>Node7&#45;&gt;Node5</title>
<path fill="none" stroke="midnightblue" d="M1046.06,-112.32C1056.24,-98.7 1072.32,-72.22 1058,-56 1036.44,-31.58 814.58,-17.24 730.27,-12.64"/>
<polygon fill="midnightblue" stroke="midnightblue" points="730.4,-9.14 720.23,-12.1 730.03,-16.13 730.4,-9.14"/>
</g>
<!-- Node8 -->
<g id="node8" class="node">
<title>Node8</title>
<g id="a_node8"><a xlink:title=" ">
<polygon fill="white" stroke="#bfbfbf" points="731.5,-56.5 731.5,-75.5 824.5,-75.5 824.5,-56.5 731.5,-56.5"/>
<text text-anchor="middle" x="778" y="-63.5" font-family="Helvetica,sans-Serif" font-size="10.00">unordered_map</text>
</a>
</g>
</g>
<!-- Node7&#45;&gt;Node8 -->
<g id="edge8" class="edge">
<title>Node7&#45;&gt;Node8</title>
<path fill="none" stroke="midnightblue" d="M997.64,-112.44C951.92,-102.98 878.24,-87.74 828.98,-77.55"/>
<polygon fill="midnightblue" stroke="midnightblue" points="829.66,-74.12 819.16,-75.52 828.25,-80.97 829.66,-74.12"/>
</g>
<!-- Node9 -->
<g id="node9" class="node">
<title>Node9</title>
<g id="a_node9"><a xlink:title=" ">
<polygon fill="white" stroke="#bfbfbf" points="1143.5,-56.5 1143.5,-75.5 1200.5,-75.5 1200.5,-56.5 1143.5,-56.5"/>
<text text-anchor="middle" x="1172" y="-63.5" font-family="Helvetica,sans-Serif" font-size="10.00">typeinfo</text>
</a>
</g>
</g>
<!-- Node7&#45;&gt;Node9 -->
<g id="edge9" class="edge">
<title>Node7&#45;&gt;Node9</title>
<path fill="none" stroke="midnightblue" d="M1060.07,-112.44C1082.06,-103.52 1116.73,-89.44 1141.66,-79.32"/>
<polygon fill="midnightblue" stroke="midnightblue" points="1143.08,-82.52 1151.02,-75.52 1140.44,-76.04 1143.08,-82.52"/>
</g>
<!-- Node10 -->
<g id="node10" class="node">
<title>Node10</title>
<g id="a_node10"><a xlink:title=" ">
<polygon fill="white" stroke="#bfbfbf" points="843,-56.5 843,-75.5 901,-75.5 901,-56.5 843,-56.5"/>
<text text-anchor="middle" x="872" y="-63.5" font-family="Helvetica,sans-Serif" font-size="10.00">memory</text>
</a>
</g>
</g>
<!-- Node7&#45;&gt;Node10 -->
<g id="edge10" class="edge">
<title>Node7&#45;&gt;Node10</title>
<path fill="none" stroke="midnightblue" d="M1012.54,-112.44C984.32,-103.32 939.46,-88.81 908.03,-78.65"/>
<polygon fill="midnightblue" stroke="midnightblue" points="908.93,-75.26 898.34,-75.52 906.78,-81.92 908.93,-75.26"/>
</g>
<!-- Node11 -->
<g id="node11" class="node">
<title>Node11</title>
<g id="a_node11"><a xlink:href="WalError_8hpp.html" target="_top" xlink:title=" ">
<polygon fill="white" stroke="black" points="545.5,-56.5 545.5,-75.5 674.5,-75.5 674.5,-56.5 545.5,-56.5"/>
<text text-anchor="middle" x="610" y="-63.5" font-family="Helvetica,sans-Serif" font-size="10.00">Exception/WalError.hpp</text>
</a>
</g>
</g>
<!-- Node7&#45;&gt;Node11 -->
<g id="edge12" class="edge">
<title>Node7&#45;&gt;Node11</title>
<path fill="none" stroke="midnightblue" d="M990.82,-113.27C987.83,-112.83 984.88,-112.4 982,-112 879.23,-97.68 760.12,-83.73 684.92,-75.26"/>
<polygon fill="midnightblue" stroke="midnightblue" points="684.94,-71.74 674.61,-74.1 684.15,-78.69 684.94,-71.74"/>
</g>
<!-- Node14 -->
<g id="node14" class="node">
<title>Node14</title>
<g id="a_node14"><a xlink:href="TypeHolder_8hpp.html" target="_top" xlink:title=" ">
<polygon fill="white" stroke="black" points="919,-56.5 919,-75.5 1049,-75.5 1049,-56.5 919,-56.5"/>
<text text-anchor="middle" x="984" y="-63.5" font-family="Helvetica,sans-Serif" font-size="10.00">Models/TypeHolder.hpp</text>
</a>
</g>
</g>
<!-- Node7&#45;&gt;Node14 -->
<g id="edge16" class="edge">
<title>Node7&#45;&gt;Node14</title>
<path fill="none" stroke="midnightblue" d="M1029.92,-112.08C1021.83,-104.14 1009.8,-92.34 1000.09,-82.8"/>
<polygon fill="midnightblue" stroke="midnightblue" points="1002.5,-80.26 992.91,-75.75 997.6,-85.25 1002.5,-80.26"/>
</g>
<!-- Node11&#45;&gt;Node5 -->
<g id="edge15" class="edge">
<title>Node11&#45;&gt;Node5</title>
<path fill="none" stroke="midnightblue" d="M624.14,-56.32C637.87,-47.9 658.94,-34.97 675.06,-25.07"/>
<polygon fill="midnightblue" stroke="midnightblue" points="677.2,-27.87 683.9,-19.65 673.54,-21.9 677.2,-27.87"/>
</g>
<!-- Node12 -->
<g id="node12" class="node">
<title>Node12</title>
<g id="a_node12"><a xlink:title=" ">
<polygon fill="white" stroke="#bfbfbf" points="582.5,-0.5 582.5,-19.5 647.5,-19.5 647.5,-0.5 582.5,-0.5"/>
<text text-anchor="middle" x="615" y="-7.5" font-family="Helvetica,sans-Serif" font-size="10.00">exception</text>
</a>
</g>
</g>
<!-- Node11&#45;&gt;Node12 -->
<g id="edge13" class="edge">
<title>Node11&#45;&gt;Node12</title>
<path fill="none" stroke="midnightblue" d="M610.83,-56.08C611.48,-49.01 612.42,-38.86 613.24,-29.99"/>
<polygon fill="midnightblue" stroke="midnightblue" points="616.75,-30.03 614.19,-19.75 609.78,-29.39 616.75,-30.03"/>
</g>
<!-- Node13 -->
<g id="node13" class="node">
<title>Node13</title>
<g id="a_node13"><a xlink:title=" ">
<polygon fill="white" stroke="#bfbfbf" points="499.5,-0.5 499.5,-19.5 564.5,-19.5 564.5,-0.5 499.5,-0.5"/>
<text text-anchor="middle" x="532" y="-7.5" font-family="Helvetica,sans-Serif" font-size="10.00">stdexcept</text>
</a>
</g>
</g>
<!-- Node11&#45;&gt;Node13 -->
<g id="edge14" class="edge">
<title>Node11&#45;&gt;Node13</title>
<path fill="none" stroke="midnightblue" d="M597.47,-56.32C585.41,-47.98 566.97,-35.21 552.73,-25.35"/>
<polygon fill="midnightblue" stroke="midnightblue" points="554.72,-22.47 544.5,-19.65 550.73,-28.22 554.72,-22.47"/>
</g>
<!-- Node16 -->
<g id="node16" class="node">
<title>Node16</title>
<g id="a_node16"><a xlink:title=" ">
<polygon fill="white" stroke="#bfbfbf" points="192,-224.5 192,-243.5 252,-243.5 252,-224.5 192,-224.5"/>
<text text-anchor="middle" x="222" y="-231.5" font-family="Helvetica,sans-Serif" font-size="10.00">iostream</text>
</a>
</g>
</g>
<!-- Node15&#45;&gt;Node16 -->
<g id="edge18" class="edge">
<title>Node15&#45;&gt;Node16</title>
<path fill="none" stroke="midnightblue" d="M167.44,-280.32C177.15,-272.26 191.82,-260.08 203.5,-250.37"/>
<polygon fill="midnightblue" stroke="midnightblue" points="205.91,-252.92 211.37,-243.83 201.44,-247.53 205.91,-252.92"/>
</g>
<!-- Node17 -->
<g id="node17" class="node">
<title>Node17</title>
<g id="a_node17"><a xlink:title=" ">
<polygon fill="white" stroke="#bfbfbf" points="126.5,-224.5 126.5,-243.5 173.5,-243.5 173.5,-224.5 126.5,-224.5"/>
<text text-anchor="middle" x="150" y="-231.5" font-family="Helvetica,sans-Serif" font-size="10.00">cmath</text>
</a>
</g>
</g>
<!-- Node15&#45;&gt;Node17 -->
<g id="edge19" class="edge">
<title>Node15&#45;&gt;Node17</title>
<path fill="none" stroke="midnightblue" d="M155.84,-280.08C154.92,-272.93 153.58,-262.64 152.42,-253.69"/>
<polygon fill="midnightblue" stroke="midnightblue" points="155.89,-253.22 151.13,-243.75 148.95,-254.12 155.89,-253.22"/>
</g>
<!-- Node18 -->
<g id="node18" class="node">
<title>Node18</title>
<g id="a_node18"><a xlink:href="lib_2Ray_2sources_2Vector_2Vector3_8hpp.html" target="_top" xlink:title=" ">
<polygon fill="white" stroke="black" points="0,-224.5 0,-243.5 108,-243.5 108,-224.5 0,-224.5"/>
<text text-anchor="middle" x="54" y="-231.5" font-family="Helvetica,sans-Serif" font-size="10.00">Vector/Vector3.hpp</text>
</a>
</g>
</g>
<!-- Node15&#45;&gt;Node18 -->
<g id="edge20" class="edge">
<title>Node15&#45;&gt;Node18</title>
<path fill="none" stroke="midnightblue" d="M140.45,-280.32C124.01,-271.7 98.57,-258.36 79.53,-248.39"/>
<polygon fill="midnightblue" stroke="midnightblue" points="80.99,-245.2 70.51,-243.65 77.74,-251.4 80.99,-245.2"/>
</g>
<!-- Node19 -->
<g id="node19" class="node">
<title>Node19</title>
<g id="a_node19"><a xlink:title=" ">
<polygon fill="white" stroke="#bfbfbf" points="27.5,-168.5 27.5,-187.5 80.5,-187.5 80.5,-168.5 27.5,-168.5"/>
<text text-anchor="middle" x="54" y="-175.5" font-family="Helvetica,sans-Serif" font-size="10.00">raylib.h</text>
</a>
</g>
</g>
<!-- Node18&#45;&gt;Node19 -->
<g id="edge21" class="edge">
<title>Node18&#45;&gt;Node19</title>
<path fill="none" stroke="midnightblue" d="M54,-224.08C54,-217.01 54,-206.86 54,-197.99"/>
<polygon fill="midnightblue" stroke="midnightblue" points="57.5,-197.75 54,-187.75 50.5,-197.75 57.5,-197.75"/>
</g>
<!-- Node20&#45;&gt;Node3 -->
<g id="edge24" class="edge">
<title>Node20&#45;&gt;Node3</title>
<path fill="none" stroke="midnightblue" d="M342.65,-336.44C361.57,-289.4 422.63,-137.55 443.74,-85.05"/>
<polygon fill="midnightblue" stroke="midnightblue" points="447.02,-86.27 447.51,-75.68 440.53,-83.66 447.02,-86.27"/>
</g>
<!-- Node20&#45;&gt;Node15 -->
<g id="edge23" class="edge">
<title>Node20&#45;&gt;Node15</title>
<path fill="none" stroke="midnightblue" d="M294.34,-336.4C263.37,-326.16 221.95,-312.47 192.72,-302.81"/>
<polygon fill="midnightblue" stroke="midnightblue" points="193.52,-299.39 182.93,-299.57 191.33,-306.03 193.52,-299.39"/>
</g>
<!-- Node21&#45;&gt;Node4 -->
<g id="edge27" class="edge">
<title>Node21&#45;&gt;Node4</title>
<path fill="none" stroke="midnightblue" d="M643.87,-284.66C612.48,-278.92 560.98,-266.75 522,-244 428.88,-189.66 403.55,-167.8 347,-76 338.19,-61.71 333,-43.24 330.12,-29.64"/>
<polygon fill="midnightblue" stroke="midnightblue" points="333.52,-28.75 328.22,-19.57 326.64,-30.04 333.52,-28.75"/>
</g>
<!-- Node21&#45;&gt;Node5 -->
<g id="edge28" class="edge">
<title>Node21&#45;&gt;Node5</title>
<path fill="none" stroke="midnightblue" d="M672.81,-280.38C676.42,-241.78 691.13,-84.45 696.24,-29.81"/>
<polygon fill="midnightblue" stroke="midnightblue" points="699.76,-29.81 697.2,-19.52 692.79,-29.15 699.76,-29.81"/>
</g>
<!-- Node21&#45;&gt;Node9 -->
<g id="edge30" class="edge">
<title>Node21&#45;&gt;Node9</title>
<path fill="none" stroke="midnightblue" d="M700.23,-288.71C778.87,-287.45 998.56,-280.65 1059,-244 1120.28,-206.83 1154.08,-122.37 1166.47,-85.17"/>
<polygon fill="midnightblue" stroke="midnightblue" points="1169.81,-86.21 1169.52,-75.62 1163.14,-84.08 1169.81,-86.21"/>
</g>
<!-- Node21&#45;&gt;Node10 -->
<g id="edge29" class="edge">
<title>Node21&#45;&gt;Node10</title>
<path fill="none" stroke="midnightblue" d="M674.9,-280.44C677.9,-271.43 682.61,-256.81 686,-244 701.38,-185.94 673.88,-155.79 715,-112 719.15,-107.58 787.86,-88.97 832.99,-77.11"/>
<polygon fill="midnightblue" stroke="midnightblue" points="834,-80.47 842.79,-74.55 832.23,-73.7 834,-80.47"/>
</g>
<!-- Node21&#45;&gt;Node11 -->
<g id="edge31" class="edge">
<title>Node21&#45;&gt;Node11</title>
<path fill="none" stroke="midnightblue" d="M643.81,-284.67C616.12,-279.22 573.94,-267.54 545,-244 522.41,-225.63 518.85,-216.04 511,-188 501.42,-153.76 512.5,-138.68 536,-112 547.99,-98.39 565.1,-87.62 579.85,-80.03"/>
<polygon fill="midnightblue" stroke="midnightblue" points="581.67,-83.04 589.12,-75.51 578.6,-76.75 581.67,-83.04"/>
</g>
<!-- Node22 -->
<g id="node22" class="node">
<title>Node22</title>
<g id="a_node22"><a xlink:title=" ">
<polygon fill="white" stroke="#bfbfbf" points="545.5,-112.5 545.5,-131.5 590.5,-131.5 590.5,-112.5 545.5,-112.5"/>
<text text-anchor="middle" x="568" y="-119.5" font-family="Helvetica,sans-Serif" font-size="10.00">utility</text>
</a>
</g>
</g>
<!-- Node21&#45;&gt;Node22 -->
<g id="edge26" class="edge">
<title>Node21&#45;&gt;Node22</title>
<path fill="none" stroke="midnightblue" d="M644.88,-280.47C608.18,-267.29 544.16,-238.12 517,-188 506.66,-168.93 526.34,-149.7 544.18,-137.16"/>
<polygon fill="midnightblue" stroke="midnightblue" points="546.23,-140 552.65,-131.57 542.37,-134.16 546.23,-140"/>
</g>
<!-- Node23 -->
<g id="node23" class="node">
<title>Node23</title>
<g id="a_node23"><a xlink:href="ISystem_8hpp.html" target="_top" xlink:title=" ">
<polygon fill="white" stroke="black" points="932.5,-224.5 932.5,-243.5 1049.5,-243.5 1049.5,-224.5 932.5,-224.5"/>
<text text-anchor="middle" x="991" y="-231.5" font-family="Helvetica,sans-Serif" font-size="10.00">System/ISystem.hpp</text>
</a>
</g>
</g>
<!-- Node21&#45;&gt;Node23 -->
<g id="edge32" class="edge">
<title>Node21&#45;&gt;Node23</title>
<path fill="none" stroke="midnightblue" d="M700.03,-284.26C751.4,-275.56 861.69,-256.89 930.76,-245.2"/>
<polygon fill="midnightblue" stroke="midnightblue" points="931.36,-248.65 940.64,-243.53 930.19,-241.74 931.36,-248.65"/>
</g>
<!-- Node30 -->
<g id="node30" class="node">
<title>Node30</title>
<g id="a_node30"><a xlink:href="Callback_8hpp.html" target="_top" xlink:title=" ">
<polygon fill="white" stroke="black" points="526,-168.5 526,-187.5 644,-187.5 644,-168.5 526,-168.5"/>
<text text-anchor="middle" x="585" y="-175.5" font-family="Helvetica,sans-Serif" font-size="10.00">Models/Callback.hpp</text>
</a>
</g>
</g>
<!-- Node21&#45;&gt;Node30 -->
<g id="edge43" class="edge">
<title>Node21&#45;&gt;Node30</title>
<path fill="none" stroke="midnightblue" d="M665.17,-280.37C650.75,-262.14 616.97,-219.43 598.19,-195.68"/>
<polygon fill="midnightblue" stroke="midnightblue" points="600.74,-193.26 591.8,-187.59 595.25,-197.61 600.74,-193.26"/>
</g>
<!-- Node31 -->
<g id="node31" class="node">
<title>Node31</title>
<g id="a_node31"><a xlink:href="Scene_8hpp.html" target="_top" xlink:title=" ">
<polygon fill="white" stroke="black" points="738.5,-224.5 738.5,-243.5 837.5,-243.5 837.5,-224.5 738.5,-224.5"/>
<text text-anchor="middle" x="788" y="-231.5" font-family="Helvetica,sans-Serif" font-size="10.00">Scene/Scene.hpp</text>
</a>
</g>
</g>
<!-- Node21&#45;&gt;Node31 -->
<g id="edge47" class="edge">
<title>Node21&#45;&gt;Node31</title>
<path fill="none" stroke="midnightblue" d="M690.38,-280.44C709.22,-271.68 738.73,-257.94 760.38,-247.86"/>
<polygon fill="midnightblue" stroke="midnightblue" points="762.12,-250.91 769.71,-243.52 759.16,-244.56 762.12,-250.91"/>
</g>
<!-- Node23&#45;&gt;Node7 -->
<g id="edge33" class="edge">
<title>Node23&#45;&gt;Node7</title>
<path fill="none" stroke="midnightblue" d="M994.77,-224.37C1002.58,-206.46 1020.71,-164.92 1031.17,-140.95"/>
<polygon fill="midnightblue" stroke="midnightblue" points="1034.46,-142.16 1035.25,-131.59 1028.04,-139.36 1034.46,-142.16"/>
</g>
<!-- Node24 -->
<g id="node24" class="node">
<title>Node24</title>
<g id="a_node24"><a xlink:href="View_8hpp.html" target="_top" xlink:title=" ">
<polygon fill="white" stroke="black" points="818,-168.5 818,-187.5 906,-187.5 906,-168.5 818,-168.5"/>
<text text-anchor="middle" x="862" y="-175.5" font-family="Helvetica,sans-Serif" font-size="10.00">View/View.hpp</text>
</a>
</g>
</g>
<!-- Node23&#45;&gt;Node24 -->
<g id="edge34" class="edge">
<title>Node23&#45;&gt;Node24</title>
<path fill="none" stroke="midnightblue" d="M970.56,-224.44C949.33,-215.56 915.9,-201.56 891.75,-191.45"/>
<polygon fill="midnightblue" stroke="midnightblue" points="892.92,-188.15 882.34,-187.52 890.22,-194.61 892.92,-188.15"/>
</g>
<!-- Node29 -->
<g id="node29" class="node">
<title>Node29</title>
<g id="a_node29"><a xlink:title=" ">
<polygon fill="white" stroke="#bfbfbf" points="1038,-168.5 1038,-187.5 1088,-187.5 1088,-168.5 1038,-168.5"/>
<text text-anchor="middle" x="1063" y="-175.5" font-family="Helvetica,sans-Serif" font-size="10.00">chrono</text>
</a>
</g>
</g>
<!-- Node23&#45;&gt;Node29 -->
<g id="edge42" class="edge">
<title>Node23&#45;&gt;Node29</title>
<path fill="none" stroke="midnightblue" d="M1002.57,-224.32C1013.42,-216.18 1029.88,-203.84 1042.88,-194.09"/>
<polygon fill="midnightblue" stroke="midnightblue" points="1045.32,-196.63 1051.22,-187.83 1041.12,-191.03 1045.32,-196.63"/>
</g>
<!-- Node24&#45;&gt;Node6 -->
<g id="edge37" class="edge">
<title>Node24&#45;&gt;Node6</title>
<path fill="none" stroke="midnightblue" d="M906.04,-174.44C966.41,-169.99 1070.31,-158.59 1096,-132 1122.39,-104.69 1121.21,-56.61 1118.08,-30.02"/>
<polygon fill="midnightblue" stroke="midnightblue" points="1121.5,-29.18 1116.64,-19.76 1114.56,-30.15 1121.5,-29.18"/>
</g>
<!-- Node24&#45;&gt;Node7 -->
<g id="edge41" class="edge">
<title>Node24&#45;&gt;Node7</title>
<path fill="none" stroke="midnightblue" d="M890.05,-168.44C920.08,-159.28 967.91,-144.69 1001.24,-134.52"/>
<polygon fill="midnightblue" stroke="midnightblue" points="1002.54,-137.78 1011.09,-131.52 1000.5,-131.09 1002.54,-137.78"/>
</g>
<!-- Node24&#45;&gt;Node22 -->
<g id="edge39" class="edge">
<title>Node24&#45;&gt;Node22</title>
<path fill="none" stroke="midnightblue" d="M817.99,-168.92C758.37,-157.97 653.33,-138.67 600.4,-128.95"/>
<polygon fill="midnightblue" stroke="midnightblue" points="601.01,-125.51 590.54,-127.14 599.75,-132.39 601.01,-125.51"/>
</g>
<!-- Node25 -->
<g id="node25" class="node">
<title>Node25</title>
<g id="a_node25"><a xlink:title=" ">
<polygon fill="white" stroke="#bfbfbf" points="807,-112.5 807,-131.5 839,-131.5 839,-112.5 807,-112.5"/>
<text text-anchor="middle" x="823" y="-119.5" font-family="Helvetica,sans-Serif" font-size="10.00">list</text>
</a>
</g>
</g>
<!-- Node24&#45;&gt;Node25 -->
<g id="edge35" class="edge">
<title>Node24&#45;&gt;Node25</title>
<path fill="none" stroke="midnightblue" d="M855.56,-168.08C850.05,-160.46 841.97,-149.26 835.24,-139.94"/>
<polygon fill="midnightblue" stroke="midnightblue" points="838.01,-137.81 829.32,-131.75 832.34,-141.91 838.01,-137.81"/>
</g>
<!-- Node26 -->
<g id="node26" class="node">
<title>Node26</title>
<g id="a_node26"><a xlink:title=" ">
<polygon fill="white" stroke="#bfbfbf" points="857.5,-112.5 857.5,-131.5 898.5,-131.5 898.5,-112.5 857.5,-112.5"/>
<text text-anchor="middle" x="878" y="-119.5" font-family="Helvetica,sans-Serif" font-size="10.00">tuple</text>
</a>
</g>
</g>
<!-- Node24&#45;&gt;Node26 -->
<g id="edge36" class="edge">
<title>Node24&#45;&gt;Node26</title>
<path fill="none" stroke="midnightblue" d="M864.64,-168.08C866.79,-160.85 869.88,-150.41 872.55,-141.4"/>
<polygon fill="midnightblue" stroke="midnightblue" points="875.92,-142.33 875.41,-131.75 869.21,-140.34 875.92,-142.33"/>
</g>
<!-- Node27 -->
<g id="node27" class="node">
<title>Node27</title>
<g id="a_node27"><a xlink:title=" ">
<polygon fill="white" stroke="#bfbfbf" points="723.5,-112.5 723.5,-131.5 788.5,-131.5 788.5,-112.5 723.5,-112.5"/>
<text text-anchor="middle" x="756" y="-119.5" font-family="Helvetica,sans-Serif" font-size="10.00">functional</text>
</a>
</g>
</g>
<!-- Node24&#45;&gt;Node27 -->
<g id="edge38" class="edge">
<title>Node24&#45;&gt;Node27</title>
<path fill="none" stroke="midnightblue" d="M844.97,-168.32C827.97,-159.66 801.62,-146.24 782.01,-136.25"/>
<polygon fill="midnightblue" stroke="midnightblue" points="783.49,-133.08 772.99,-131.65 780.31,-139.31 783.49,-133.08"/>
</g>
<!-- Node28 -->
<g id="node28" class="node">
<title>Node28</title>
<g id="a_node28"><a xlink:title=" ">
<polygon fill="white" stroke="#bfbfbf" points="917,-112.5 917,-131.5 973,-131.5 973,-112.5 917,-112.5"/>
<text text-anchor="middle" x="945" y="-119.5" font-family="Helvetica,sans-Serif" font-size="10.00">optional</text>
</a>
</g>
</g>
<!-- Node24&#45;&gt;Node28 -->
<g id="edge40" class="edge">
<title>Node24&#45;&gt;Node28</title>
<path fill="none" stroke="midnightblue" d="M875.34,-168.32C888.16,-159.98 907.78,-147.21 922.94,-137.35"/>
<polygon fill="midnightblue" stroke="midnightblue" points="925.22,-140.04 931.7,-131.65 921.41,-134.17 925.22,-140.04"/>
</g>
<!-- Node30&#45;&gt;Node8 -->
<g id="edge46" class="edge">
<title>Node30&#45;&gt;Node8</title>
<path fill="none" stroke="midnightblue" d="M596.43,-168.37C614.05,-155.28 649.12,-130.04 681,-112 702.7,-99.72 728.33,-87.94 747.79,-79.52"/>
<polygon fill="midnightblue" stroke="midnightblue" points="749.26,-82.7 757.08,-75.55 746.51,-76.26 749.26,-82.7"/>
</g>
<!-- Node30&#45;&gt;Node22 -->
<g id="edge45" class="edge">
<title>Node30&#45;&gt;Node22</title>
<path fill="none" stroke="midnightblue" d="M582.19,-168.08C579.92,-160.85 576.63,-150.41 573.79,-141.4"/>
<polygon fill="midnightblue" stroke="midnightblue" points="577.1,-140.24 570.75,-131.75 570.42,-142.34 577.1,-140.24"/>
</g>
<!-- Node30&#45;&gt;Node27 -->
<g id="edge44" class="edge">
<title>Node30&#45;&gt;Node27</title>
<path fill="none" stroke="midnightblue" d="M612.1,-168.44C640.99,-159.32 686.92,-144.81 719.11,-134.65"/>
<polygon fill="midnightblue" stroke="midnightblue" points="720.55,-137.87 729.03,-131.52 718.44,-131.19 720.55,-137.87"/>
</g>
<!-- Node31&#45;&gt;Node4 -->
<g id="edge48" class="edge">
<title>Node31&#45;&gt;Node4</title>
<path fill="none" stroke="midnightblue" d="M738.36,-231.66C682.5,-228.62 590.04,-218.86 517,-188 439.7,-155.34 421.11,-138.4 365,-76 352.32,-61.9 341.81,-42.92 335.08,-29.11"/>
<polygon fill="midnightblue" stroke="midnightblue" points="338.1,-27.3 330.7,-19.72 331.76,-30.26 338.1,-27.3"/>
</g>
<!-- Node31&#45;&gt;Node7 -->
<g id="edge52" class="edge">
<title>Node31&#45;&gt;Node7</title>
<path fill="none" stroke="midnightblue" d="M815.69,-224.45C841.71,-216.12 881.56,-202.6 915,-188 950.99,-172.29 990.94,-150.52 1015.52,-136.6"/>
<polygon fill="midnightblue" stroke="midnightblue" points="1017.5,-139.5 1024.45,-131.5 1014.03,-133.42 1017.5,-139.5"/>
</g>
<!-- Node31&#45;&gt;Node24 -->
<g id="edge51" class="edge">
<title>Node31&#45;&gt;Node24</title>
<path fill="none" stroke="midnightblue" d="M799.89,-224.32C811.15,-216.11 828.29,-203.6 841.71,-193.81"/>
<polygon fill="midnightblue" stroke="midnightblue" points="843.88,-196.56 849.89,-187.83 839.75,-190.9 843.88,-196.56"/>
</g>
<!-- Node31&#45;&gt;Node25 -->
<g id="edge49" class="edge">
<title>Node31&#45;&gt;Node25</title>
<path fill="none" stroke="midnightblue" d="M790.75,-224.37C796.42,-206.54 809.54,-165.3 817.19,-141.27"/>
<polygon fill="midnightblue" stroke="midnightblue" points="820.57,-142.18 820.27,-131.59 813.9,-140.06 820.57,-142.18"/>
</g>
<!-- Node31&#45;&gt;Node27 -->
<g id="edge50" class="edge">
<title>Node31&#45;&gt;Node27</title>
<path fill="none" stroke="midnightblue" d="M785.49,-224.37C780.3,-206.54 768.3,-165.3 761.32,-141.27"/>
<polygon fill="midnightblue" stroke="midnightblue" points="764.65,-140.22 758.5,-131.59 757.93,-142.17 764.65,-140.22"/>
</g>
<!-- Node32&#45;&gt;Node4 -->
<g id="edge55" class="edge">
<title>Node32&#45;&gt;Node4</title>
<path fill="none" stroke="midnightblue" d="M877.98,-346.75C789.15,-338.84 614.58,-314.86 486,-244 397.81,-195.4 366.29,-171.37 334,-76 328.93,-61.03 327.31,-43.12 326.88,-29.89"/>
<polygon fill="midnightblue" stroke="midnightblue" points="330.37,-29.62 326.75,-19.67 323.38,-29.71 330.37,-29.62"/>
</g>
<!-- Node32&#45;&gt;Node6 -->
<g id="edge57" class="edge">
<title>Node32&#45;&gt;Node6</title>
<path fill="none" stroke="midnightblue" d="M992.08,-350.43C1045.4,-347.84 1125.21,-337.27 1183,-300 1212.96,-280.68 1230,-270.65 1230,-235 1230,-235 1230,-235 1230,-121 1230,-90.77 1229.78,-78.85 1210,-56 1196.33,-40.21 1175.9,-29.54 1157.48,-22.58"/>
<polygon fill="midnightblue" stroke="midnightblue" points="1158.4,-19.19 1147.8,-19.17 1156.07,-25.79 1158.4,-19.19"/>
</g>
<!-- Node32&#45;&gt;Node7 -->
<g id="edge58" class="edge">
<title>Node32&#45;&gt;Node7</title>
<path fill="none" stroke="midnightblue" d="M961.05,-341.88C983.07,-333.66 1014.51,-319.61 1037,-300 1059.67,-280.23 1060.97,-270.61 1075,-244 1091.4,-212.9 1112.47,-199.58 1097,-168 1090.48,-154.68 1077.9,-144.18 1066.13,-136.68"/>
<polygon fill="midnightblue" stroke="midnightblue" points="1067.78,-133.59 1057.39,-131.53 1064.23,-139.62 1067.78,-133.59"/>
</g>
<!-- Node32&#45;&gt;Node9 -->
<g id="edge56" class="edge">
<title>Node32&#45;&gt;Node9</title>
<path fill="none" stroke="midnightblue" d="M992.04,-349.12C1067.75,-343.9 1192,-322.07 1192,-235 1192,-235 1192,-235 1192,-177 1192,-144.44 1183.41,-107.32 1177.49,-85.59"/>
<polygon fill="midnightblue" stroke="midnightblue" points="1180.79,-84.41 1174.7,-75.74 1174.06,-86.32 1180.79,-84.41"/>
</g>
<!-- Node32&#45;&gt;Node16 -->
<g id="edge62" class="edge">
<title>Node32&#45;&gt;Node16</title>
<path fill="none" stroke="midnightblue" d="M877.73,-347.53C720.54,-339.21 292.29,-315.25 266,-300 247.99,-289.56 235.81,-268.43 228.91,-253.1"/>
<polygon fill="midnightblue" stroke="midnightblue" points="232.04,-251.5 224.97,-243.6 225.57,-254.18 232.04,-251.5"/>
</g>
<!-- Node32&#45;&gt;Node21 -->
<g id="edge59" class="edge">
<title>Node32&#45;&gt;Node21</title>
<path fill="none" stroke="midnightblue" d="M897.32,-341.98C847.49,-330.7 760.16,-310.94 710.11,-299.62"/>
<polygon fill="midnightblue" stroke="midnightblue" points="710.85,-296.2 700.32,-297.41 709.3,-303.03 710.85,-296.2"/>
</g>
<!-- Node32&#45;&gt;Node23 -->
<g id="edge61" class="edge">
<title>Node32&#45;&gt;Node23</title>
<path fill="none" stroke="midnightblue" d="M939.21,-341.82C948.33,-323.01 970.08,-278.15 982.29,-252.96"/>
<polygon fill="midnightblue" stroke="midnightblue" points="985.53,-254.31 986.74,-243.78 979.23,-251.25 985.53,-254.31"/>
</g>
<!-- Node32&#45;&gt;Node24 -->
<g id="edge60" class="edge">
<title>Node32&#45;&gt;Node24</title>
<path fill="none" stroke="midnightblue" d="M931.28,-341.76C919.86,-314.92 885.12,-233.32 869.62,-196.89"/>
<polygon fill="midnightblue" stroke="midnightblue" points="872.76,-195.35 865.63,-187.52 866.32,-198.09 872.76,-195.35"/>
</g>
<!-- Node32&#45;&gt;Node29 -->
<g id="edge54" class="edge">
<title>Node32&#45;&gt;Node29</title>
<path fill="none" stroke="midnightblue" d="M952.02,-341.82C980.1,-326.44 1035.38,-291.52 1059,-244 1066.16,-229.6 1066.6,-211.15 1065.57,-197.58"/>
<polygon fill="midnightblue" stroke="midnightblue" points="1069.04,-197.1 1064.49,-187.53 1062.08,-197.85 1069.04,-197.1"/>
</g>
</g>
</svg>
