<?xml version="1.0" encoding="UTF-8" standalone="no"?>
<!DOCTYPE svg PUBLIC "-//W3C//DTD SVG 1.1//EN"
 "http://www.w3.org/Graphics/SVG/1.1/DTD/svg11.dtd">
<!-- Generated by graphviz version 2.43.0 (0)
 -->
<!-- Title: sources/Component/Lobby/LobbyComponent.cpp Pages: 1 -->
<svg width="1044pt" height="330pt"
 viewBox="0.00 0.00 1043.55 330.00" xmlns="http://www.w3.org/2000/svg" xmlns:xlink="http://www.w3.org/1999/xlink">
<g id="graph0" class="graph" transform="scale(1 1) rotate(0) translate(4 326)">
<title>sources/Component/Lobby/LobbyComponent.cpp</title>
<polygon fill="white" stroke="transparent" points="-4,4 -4,-326 1039.55,-326 1039.55,4 -4,4"/>
<!-- Node1 -->
<g id="node1" class="node">
<title>Node1</title>
<g id="a_node1"><a xlink:title=" ">
<polygon fill="#bfbfbf" stroke="black" points="708.5,-291.5 708.5,-321.5 854.5,-321.5 854.5,-291.5 708.5,-291.5"/>
<text text-anchor="start" x="716.5" y="-309.5" font-family="Helvetica,sans-Serif" font-size="10.00">sources/Component/Lobby</text>
<text text-anchor="middle" x="781.5" y="-298.5" font-family="Helvetica,sans-Serif" font-size="10.00">/LobbyComponent.cpp</text>
</a>
</g>
</g>
<!-- Node2 -->
<g id="node2" class="node">
<title>Node2</title>
<g id="a_node2"><a xlink:href="LobbyComponent_8hpp.html" target="_top" xlink:title=" ">
<polygon fill="white" stroke="black" points="720,-235.5 720,-254.5 843,-254.5 843,-235.5 720,-235.5"/>
<text text-anchor="middle" x="781.5" y="-242.5" font-family="Helvetica,sans-Serif" font-size="10.00">LobbyComponent.hpp</text>
</a>
</g>
</g>
<!-- Node1&#45;&gt;Node2 -->
<g id="edge1" class="edge">
<title>Node1&#45;&gt;Node2</title>
<path fill="none" stroke="midnightblue" d="M781.5,-291.4C781.5,-283.47 781.5,-273.46 781.5,-264.86"/>
<polygon fill="midnightblue" stroke="midnightblue" points="785,-264.66 781.5,-254.66 778,-264.66 785,-264.66"/>
</g>
<!-- Node3 -->
<g id="node3" class="node">
<title>Node3</title>
<g id="a_node3"><a xlink:href="Component_8hpp.html" target="_top" xlink:title=" ">
<polygon fill="white" stroke="black" points="597,-56.5 597,-75.5 750,-75.5 750,-56.5 597,-56.5"/>
<text text-anchor="middle" x="673.5" y="-63.5" font-family="Helvetica,sans-Serif" font-size="10.00">Component/Component.hpp</text>
</a>
</g>
</g>
<!-- Node2&#45;&gt;Node3 -->
<g id="edge2" class="edge">
<title>Node2&#45;&gt;Node3</title>
<path fill="none" stroke="midnightblue" d="M749.29,-235.36C730.36,-228.59 707.64,-217.2 694.5,-199 670.01,-165.09 669.59,-113.49 671.49,-85.93"/>
<polygon fill="midnightblue" stroke="midnightblue" points="675,-85.97 672.39,-75.7 668.03,-85.36 675,-85.97"/>
</g>
<!-- Node7 -->
<g id="node7" class="node">
<title>Node7</title>
<g id="a_node7"><a xlink:href="Entity_8hpp.html" target="_top" xlink:title=" ">
<polygon fill="white" stroke="black" points="409.5,-112.5 409.5,-131.5 505.5,-131.5 505.5,-112.5 409.5,-112.5"/>
<text text-anchor="middle" x="457.5" y="-119.5" font-family="Helvetica,sans-Serif" font-size="10.00">Entity/Entity.hpp</text>
</a>
</g>
</g>
<!-- Node2&#45;&gt;Node7 -->
<g id="edge6" class="edge">
<title>Node2&#45;&gt;Node7</title>
<path fill="none" stroke="midnightblue" d="M757.02,-235.34C731.78,-226.38 691.32,-211.91 656.5,-199 597.17,-176.99 528.25,-150.45 489.06,-135.27"/>
<polygon fill="midnightblue" stroke="midnightblue" points="490.12,-131.93 479.53,-131.57 487.59,-138.45 490.12,-131.93"/>
</g>
<!-- Node15 -->
<g id="node15" class="node">
<title>Node15</title>
<g id="a_node15"><a xlink:href="Color_8hpp.html" target="_top" xlink:title=" ">
<polygon fill="white" stroke="black" points="968.5,-174 968.5,-193 1030.5,-193 1030.5,-174 968.5,-174"/>
<text text-anchor="middle" x="999.5" y="-181" font-family="Helvetica,sans-Serif" font-size="10.00">Color.hpp</text>
</a>
</g>
</g>
<!-- Node2&#45;&gt;Node15 -->
<g id="edge17" class="edge">
<title>Node2&#45;&gt;Node15</title>
<path fill="none" stroke="midnightblue" d="M812.73,-235.48C851.1,-225 916.29,-207.21 958.61,-195.66"/>
<polygon fill="midnightblue" stroke="midnightblue" points="959.6,-199.02 968.32,-193.01 957.76,-192.27 959.6,-199.02"/>
</g>
<!-- Node17 -->
<g id="node17" class="node">
<title>Node17</title>
<g id="a_node17"><a xlink:href="ControllableComponent_8hpp.html" target="_top" xlink:title=" ">
<polygon fill="white" stroke="black" points="703.5,-168.5 703.5,-198.5 859.5,-198.5 859.5,-168.5 703.5,-168.5"/>
<text text-anchor="start" x="711.5" y="-186.5" font-family="Helvetica,sans-Serif" font-size="10.00">Component/Controllable</text>
<text text-anchor="middle" x="781.5" y="-175.5" font-family="Helvetica,sans-Serif" font-size="10.00">/ControllableComponent.hpp</text>
</a>
</g>
</g>
<!-- Node2&#45;&gt;Node17 -->
<g id="edge19" class="edge">
<title>Node2&#45;&gt;Node17</title>
<path fill="none" stroke="midnightblue" d="M781.5,-235.48C781.5,-228.47 781.5,-218.19 781.5,-208.7"/>
<polygon fill="midnightblue" stroke="midnightblue" points="785,-208.52 781.5,-198.52 778,-208.52 785,-208.52"/>
</g>
<!-- Node22 -->
<g id="node22" class="node">
<title>Node22</title>
<g id="a_node22"><a xlink:title=" ">
<polygon fill="white" stroke="#bfbfbf" points="868.5,-112.5 868.5,-131.5 918.5,-131.5 918.5,-112.5 868.5,-112.5"/>
<text text-anchor="middle" x="893.5" y="-119.5" font-family="Helvetica,sans-Serif" font-size="10.00">chrono</text>
</a>
</g>
</g>
<!-- Node2&#45;&gt;Node22 -->
<g id="edge28" class="edge">
<title>Node2&#45;&gt;Node22</title>
<path fill="none" stroke="midnightblue" d="M810.63,-235.36C829.54,-228.37 853.39,-216.73 868.5,-199 882.41,-182.68 888.63,-158.4 891.38,-141.7"/>
<polygon fill="midnightblue" stroke="midnightblue" points="894.89,-141.93 892.78,-131.54 887.95,-140.97 894.89,-141.93"/>
</g>
<!-- Node4 -->
<g id="node4" class="node">
<title>Node4</title>
<g id="a_node4"><a xlink:title=" ">
<polygon fill="white" stroke="#bfbfbf" points="613,-0.5 613,-19.5 660,-19.5 660,-0.5 613,-0.5"/>
<text text-anchor="middle" x="636.5" y="-7.5" font-family="Helvetica,sans-Serif" font-size="10.00">vector</text>
</a>
</g>
</g>
<!-- Node3&#45;&gt;Node4 -->
<g id="edge3" class="edge">
<title>Node3&#45;&gt;Node4</title>
<path fill="none" stroke="midnightblue" d="M667.39,-56.08C662.22,-48.53 654.65,-37.49 648.31,-28.23"/>
<polygon fill="midnightblue" stroke="midnightblue" points="651.04,-26.02 642.5,-19.75 645.26,-29.98 651.04,-26.02"/>
</g>
<!-- Node5 -->
<g id="node5" class="node">
<title>Node5</title>
<g id="a_node5"><a xlink:title=" ">
<polygon fill="white" stroke="#bfbfbf" points="435.5,-0.5 435.5,-19.5 479.5,-19.5 479.5,-0.5 435.5,-0.5"/>
<text text-anchor="middle" x="457.5" y="-7.5" font-family="Helvetica,sans-Serif" font-size="10.00">string</text>
</a>
</g>
</g>
<!-- Node3&#45;&gt;Node5 -->
<g id="edge4" class="edge">
<title>Node3&#45;&gt;Node5</title>
<path fill="none" stroke="midnightblue" d="M639.27,-56.44C598.13,-46.16 529.62,-29.03 489.49,-19"/>
<polygon fill="midnightblue" stroke="midnightblue" points="490.25,-15.58 479.7,-16.55 488.55,-22.37 490.25,-15.58"/>
</g>
<!-- Node6 -->
<g id="node6" class="node">
<title>Node6</title>
<g id="a_node6"><a xlink:title=" ">
<polygon fill="white" stroke="#bfbfbf" points="678,-0.5 678,-19.5 743,-19.5 743,-0.5 678,-0.5"/>
<text text-anchor="middle" x="710.5" y="-7.5" font-family="Helvetica,sans-Serif" font-size="10.00">typeindex</text>
</a>
</g>
</g>
<!-- Node3&#45;&gt;Node6 -->
<g id="edge5" class="edge">
<title>Node3&#45;&gt;Node6</title>
<path fill="none" stroke="midnightblue" d="M679.61,-56.08C684.78,-48.53 692.35,-37.49 698.69,-28.23"/>
<polygon fill="midnightblue" stroke="midnightblue" points="701.74,-29.98 704.5,-19.75 695.96,-26.02 701.74,-29.98"/>
</g>
<!-- Node7&#45;&gt;Node3 -->
<g id="edge11" class="edge">
<title>Node7&#45;&gt;Node3</title>
<path fill="none" stroke="midnightblue" d="M491.73,-112.44C529.01,-103.12 588.77,-88.18 629.51,-78"/>
<polygon fill="midnightblue" stroke="midnightblue" points="630.58,-81.34 639.43,-75.52 628.88,-74.55 630.58,-81.34"/>
</g>
<!-- Node7&#45;&gt;Node5 -->
<g id="edge7" class="edge">
<title>Node7&#45;&gt;Node5</title>
<path fill="none" stroke="midnightblue" d="M457.5,-112.37C457.5,-94.62 457.5,-53.67 457.5,-29.6"/>
<polygon fill="midnightblue" stroke="midnightblue" points="461,-29.59 457.5,-19.59 454,-29.59 461,-29.59"/>
</g>
<!-- Node8 -->
<g id="node8" class="node">
<title>Node8</title>
<g id="a_node8"><a xlink:title=" ">
<polygon fill="white" stroke="#bfbfbf" points="486,-56.5 486,-75.5 579,-75.5 579,-56.5 486,-56.5"/>
<text text-anchor="middle" x="532.5" y="-63.5" font-family="Helvetica,sans-Serif" font-size="10.00">unordered_map</text>
</a>
</g>
</g>
<!-- Node7&#45;&gt;Node8 -->
<g id="edge8" class="edge">
<title>Node7&#45;&gt;Node8</title>
<path fill="none" stroke="midnightblue" d="M469.55,-112.32C480.96,-104.11 498.33,-91.6 511.93,-81.81"/>
<polygon fill="midnightblue" stroke="midnightblue" points="514.16,-84.52 520.23,-75.83 510.07,-78.84 514.16,-84.52"/>
</g>
<!-- Node9 -->
<g id="node9" class="node">
<title>Node9</title>
<g id="a_node9"><a xlink:title=" ">
<polygon fill="white" stroke="#bfbfbf" points="0,-56.5 0,-75.5 57,-75.5 57,-56.5 0,-56.5"/>
<text text-anchor="middle" x="28.5" y="-63.5" font-family="Helvetica,sans-Serif" font-size="10.00">typeinfo</text>
</a>
</g>
</g>
<!-- Node7&#45;&gt;Node9 -->
<g id="edge9" class="edge">
<title>Node7&#45;&gt;Node9</title>
<path fill="none" stroke="midnightblue" d="M409.39,-117.3C337.22,-111.35 196.54,-98.2 67.15,-75.91"/>
<polygon fill="midnightblue" stroke="midnightblue" points="67.51,-72.42 57.06,-74.15 66.31,-79.31 67.51,-72.42"/>
</g>
<!-- Node10 -->
<g id="node10" class="node">
<title>Node10</title>
<g id="a_node10"><a xlink:title=" ">
<polygon fill="white" stroke="#bfbfbf" points="75.5,-56.5 75.5,-75.5 133.5,-75.5 133.5,-56.5 75.5,-56.5"/>
<text text-anchor="middle" x="104.5" y="-63.5" font-family="Helvetica,sans-Serif" font-size="10.00">memory</text>
</a>
</g>
</g>
<!-- Node7&#45;&gt;Node10 -->
<g id="edge10" class="edge">
<title>Node7&#45;&gt;Node10</title>
<path fill="none" stroke="midnightblue" d="M409.25,-115.49C349.24,-108.32 243.49,-94.7 143.84,-76.12"/>
<polygon fill="midnightblue" stroke="midnightblue" points="144.38,-72.66 133.9,-74.24 143.08,-79.53 144.38,-72.66"/>
</g>
<!-- Node11 -->
<g id="node11" class="node">
<title>Node11</title>
<g id="a_node11"><a xlink:href="WalError_8hpp.html" target="_top" xlink:title=" ">
<polygon fill="white" stroke="black" points="152,-56.5 152,-75.5 281,-75.5 281,-56.5 152,-56.5"/>
<text text-anchor="middle" x="216.5" y="-63.5" font-family="Helvetica,sans-Serif" font-size="10.00">Exception/WalError.hpp</text>
</a>
</g>
</g>
<!-- Node7&#45;&gt;Node11 -->
<g id="edge12" class="edge">
<title>Node7&#45;&gt;Node11</title>
<path fill="none" stroke="midnightblue" d="M419.31,-112.44C377.36,-103.04 309.91,-87.93 264.43,-77.74"/>
<polygon fill="midnightblue" stroke="midnightblue" points="265.03,-74.29 254.51,-75.52 263.5,-81.12 265.03,-74.29"/>
</g>
<!-- Node14 -->
<g id="node14" class="node">
<title>Node14</title>
<g id="a_node14"><a xlink:href="TypeHolder_8hpp.html" target="_top" xlink:title=" ">
<polygon fill="white" stroke="black" points="299.5,-56.5 299.5,-75.5 429.5,-75.5 429.5,-56.5 299.5,-56.5"/>
<text text-anchor="middle" x="364.5" y="-63.5" font-family="Helvetica,sans-Serif" font-size="10.00">Models/TypeHolder.hpp</text>
</a>
</g>
</g>
<!-- Node7&#45;&gt;Node14 -->
<g id="edge16" class="edge">
<title>Node7&#45;&gt;Node14</title>
<path fill="none" stroke="midnightblue" d="M442.56,-112.32C427.91,-103.82 405.37,-90.73 388.26,-80.8"/>
<polygon fill="midnightblue" stroke="midnightblue" points="389.81,-77.65 379.4,-75.65 386.3,-83.7 389.81,-77.65"/>
</g>
<!-- Node11&#45;&gt;Node5 -->
<g id="edge15" class="edge">
<title>Node11&#45;&gt;Node5</title>
<path fill="none" stroke="midnightblue" d="M254.69,-56.44C301.87,-45.87 381.31,-28.07 425.46,-18.18"/>
<polygon fill="midnightblue" stroke="midnightblue" points="426.37,-21.56 435.37,-15.96 424.84,-14.73 426.37,-21.56"/>
</g>
<!-- Node12 -->
<g id="node12" class="node">
<title>Node12</title>
<g id="a_node12"><a xlink:title=" ">
<polygon fill="white" stroke="#bfbfbf" points="225,-0.5 225,-19.5 290,-19.5 290,-0.5 225,-0.5"/>
<text text-anchor="middle" x="257.5" y="-7.5" font-family="Helvetica,sans-Serif" font-size="10.00">exception</text>
</a>
</g>
</g>
<!-- Node11&#45;&gt;Node12 -->
<g id="edge13" class="edge">
<title>Node11&#45;&gt;Node12</title>
<path fill="none" stroke="midnightblue" d="M223.27,-56.08C229.06,-48.46 237.56,-37.26 244.64,-27.94"/>
<polygon fill="midnightblue" stroke="midnightblue" points="247.6,-29.83 250.86,-19.75 242.02,-25.6 247.6,-29.83"/>
</g>
<!-- Node13 -->
<g id="node13" class="node">
<title>Node13</title>
<g id="a_node13"><a xlink:title=" ">
<polygon fill="white" stroke="#bfbfbf" points="142,-0.5 142,-19.5 207,-19.5 207,-0.5 142,-0.5"/>
<text text-anchor="middle" x="174.5" y="-7.5" font-family="Helvetica,sans-Serif" font-size="10.00">stdexcept</text>
</a>
</g>
</g>
<!-- Node11&#45;&gt;Node13 -->
<g id="edge14" class="edge">
<title>Node11&#45;&gt;Node13</title>
<path fill="none" stroke="midnightblue" d="M209.56,-56.08C203.57,-48.38 194.75,-37.03 187.45,-27.65"/>
<polygon fill="midnightblue" stroke="midnightblue" points="190.21,-25.5 181.31,-19.75 184.68,-29.79 190.21,-25.5"/>
</g>
<!-- Node16 -->
<g id="node16" class="node">
<title>Node16</title>
<g id="a_node16"><a xlink:title=" ">
<polygon fill="white" stroke="#bfbfbf" points="941,-0.5 941,-19.5 994,-19.5 994,-0.5 941,-0.5"/>
<text text-anchor="middle" x="967.5" y="-7.5" font-family="Helvetica,sans-Serif" font-size="10.00">raylib.h</text>
</a>
</g>
</g>
<!-- Node15&#45;&gt;Node16 -->
<g id="edge18" class="edge">
<title>Node15&#45;&gt;Node16</title>
<path fill="none" stroke="midnightblue" d="M1005.37,-173.73C1018.8,-152.45 1049.12,-96.83 1028.5,-56 1021.69,-42.52 1008.73,-32.08 996.5,-24.67"/>
<polygon fill="midnightblue" stroke="midnightblue" points="997.84,-21.41 987.41,-19.59 994.43,-27.52 997.84,-21.41"/>
</g>
<!-- Node17&#45;&gt;Node3 -->
<g id="edge25" class="edge">
<title>Node17&#45;&gt;Node3</title>
<path fill="none" stroke="midnightblue" d="M765.4,-168.42C754.39,-158.56 739.65,-144.89 727.5,-132 712.64,-116.24 696.96,-97.04 686.34,-83.6"/>
<polygon fill="midnightblue" stroke="midnightblue" points="689.08,-81.42 680.16,-75.7 683.57,-85.74 689.08,-81.42"/>
</g>
<!-- Node17&#45;&gt;Node7 -->
<g id="edge26" class="edge">
<title>Node17&#45;&gt;Node7</title>
<path fill="none" stroke="midnightblue" d="M705.13,-168.47C646.42,-157.69 566.67,-143.05 513.71,-133.32"/>
<polygon fill="midnightblue" stroke="midnightblue" points="514.29,-129.87 503.82,-131.51 513.02,-136.76 514.29,-129.87"/>
</g>
<!-- Node18 -->
<g id="node18" class="node">
<title>Node18</title>
<g id="a_node18"><a xlink:href="sources_2Models_2Vector2_8hpp.html" target="_top" xlink:title=" ">
<polygon fill="white" stroke="black" points="737,-112.5 737,-131.5 850,-131.5 850,-112.5 737,-112.5"/>
<text text-anchor="middle" x="793.5" y="-119.5" font-family="Helvetica,sans-Serif" font-size="10.00">Models/Vector2.hpp</text>
</a>
</g>
</g>
<!-- Node17&#45;&gt;Node18 -->
<g id="edge20" class="edge">
<title>Node17&#45;&gt;Node18</title>
<path fill="none" stroke="midnightblue" d="M784.34,-168.4C785.96,-160.38 788.01,-150.23 789.75,-141.57"/>
<polygon fill="midnightblue" stroke="midnightblue" points="793.21,-142.15 791.75,-131.66 786.35,-140.77 793.21,-142.15"/>
</g>
<!-- Node17&#45;&gt;Node22 -->
<g id="edge27" class="edge">
<title>Node17&#45;&gt;Node22</title>
<path fill="none" stroke="midnightblue" d="M808.04,-168.4C826.16,-158.77 850.04,-146.09 867.94,-136.58"/>
<polygon fill="midnightblue" stroke="midnightblue" points="870.01,-139.44 877.2,-131.66 866.73,-133.26 870.01,-139.44"/>
</g>
<!-- Node19 -->
<g id="node19" class="node">
<title>Node19</title>
<g id="a_node19"><a xlink:title=" ">
<polygon fill="white" stroke="#bfbfbf" points="959.5,-56.5 959.5,-75.5 1019.5,-75.5 1019.5,-56.5 959.5,-56.5"/>
<text text-anchor="middle" x="989.5" y="-63.5" font-family="Helvetica,sans-Serif" font-size="10.00">iostream</text>
</a>
</g>
</g>
<!-- Node18&#45;&gt;Node19 -->
<g id="edge21" class="edge">
<title>Node18&#45;&gt;Node19</title>
<path fill="none" stroke="midnightblue" d="M824.56,-112.44C858.3,-103.15 912.33,-88.26 949.29,-78.08"/>
<polygon fill="midnightblue" stroke="midnightblue" points="950.52,-81.37 959.23,-75.34 948.66,-74.62 950.52,-81.37"/>
</g>
<!-- Node20 -->
<g id="node20" class="node">
<title>Node20</title>
<g id="a_node20"><a xlink:title=" ">
<polygon fill="white" stroke="#bfbfbf" points="768,-56.5 768,-75.5 815,-75.5 815,-56.5 768,-56.5"/>
<text text-anchor="middle" x="791.5" y="-63.5" font-family="Helvetica,sans-Serif" font-size="10.00">cmath</text>
</a>
</g>
</g>
<!-- Node18&#45;&gt;Node20 -->
<g id="edge22" class="edge">
<title>Node18&#45;&gt;Node20</title>
<path fill="none" stroke="midnightblue" d="M793.17,-112.08C792.91,-105.01 792.53,-94.86 792.2,-85.99"/>
<polygon fill="midnightblue" stroke="midnightblue" points="795.69,-85.61 791.82,-75.75 788.7,-85.87 795.69,-85.61"/>
</g>
<!-- Node21 -->
<g id="node21" class="node">
<title>Node21</title>
<g id="a_node21"><a xlink:href="lib_2Ray_2sources_2Vector_2Vector2_8hpp.html" target="_top" xlink:title=" ">
<polygon fill="white" stroke="black" points="833.5,-56.5 833.5,-75.5 941.5,-75.5 941.5,-56.5 833.5,-56.5"/>
<text text-anchor="middle" x="887.5" y="-63.5" font-family="Helvetica,sans-Serif" font-size="10.00">Vector/Vector2.hpp</text>
</a>
</g>
</g>
<!-- Node18&#45;&gt;Node21 -->
<g id="edge23" class="edge">
<title>Node18&#45;&gt;Node21</title>
<path fill="none" stroke="midnightblue" d="M808.6,-112.32C823.4,-103.82 846.19,-90.73 863.48,-80.8"/>
<polygon fill="midnightblue" stroke="midnightblue" points="865.51,-83.67 872.43,-75.65 862.02,-77.6 865.51,-83.67"/>
</g>
<!-- Node21&#45;&gt;Node16 -->
<g id="edge24" class="edge">
<title>Node21&#45;&gt;Node16</title>
<path fill="none" stroke="midnightblue" d="M900.35,-56.32C912.72,-47.98 931.63,-35.21 946.24,-25.35"/>
<polygon fill="midnightblue" stroke="midnightblue" points="948.35,-28.15 954.68,-19.65 944.43,-22.35 948.35,-28.15"/>
</g>
</g>
</svg>
