<?xml version="1.0" encoding="UTF-8" standalone="no"?>
<!DOCTYPE svg PUBLIC "-//W3C//DTD SVG 1.1//EN"
 "http://www.w3.org/Graphics/SVG/1.1/DTD/svg11.dtd">
<!-- Generated by graphviz version 2.43.0 (0)
 -->
<!-- Title: sources/System/Lobby/LobbySystem.hpp Pages: 1 -->
<svg width="1462pt" height="442pt"
 viewBox="0.00 0.00 1462.00 442.00" xmlns="http://www.w3.org/2000/svg" xmlns:xlink="http://www.w3.org/1999/xlink">
<g id="graph0" class="graph" transform="scale(1 1) rotate(0) translate(4 438)">
<title>sources/System/Lobby/LobbySystem.hpp</title>
<polygon fill="white" stroke="transparent" points="-4,4 -4,-438 1458,-438 1458,4 -4,4"/>
<!-- Node1 -->
<g id="node1" class="node">
<title>Node1</title>
<g id="a_node1"><a xlink:title=" ">
<polygon fill="#bfbfbf" stroke="black" points="893,-403.5 893,-433.5 1019,-433.5 1019,-403.5 893,-403.5"/>
<text text-anchor="start" x="901" y="-421.5" font-family="Helvetica,sans-Serif" font-size="10.00">sources/System/Lobby</text>
<text text-anchor="middle" x="956" y="-410.5" font-family="Helvetica,sans-Serif" font-size="10.00">/LobbySystem.hpp</text>
</a>
</g>
</g>
<!-- Node2 -->
<g id="node2" class="node">
<title>Node2</title>
<g id="a_node2"><a xlink:href="System_8hpp.html" target="_top" xlink:title=" ">
<polygon fill="white" stroke="black" points="774,-347.5 774,-366.5 888,-366.5 888,-347.5 774,-347.5"/>
<text text-anchor="middle" x="831" y="-354.5" font-family="Helvetica,sans-Serif" font-size="10.00">System/System.hpp</text>
</a>
</g>
</g>
<!-- Node1&#45;&gt;Node2 -->
<g id="edge1" class="edge">
<title>Node1&#45;&gt;Node2</title>
<path fill="none" stroke="midnightblue" d="M926.38,-403.4C905.78,-393.59 878.52,-380.62 858.42,-371.05"/>
<polygon fill="midnightblue" stroke="midnightblue" points="859.72,-367.8 849.19,-366.66 856.71,-374.12 859.72,-367.8"/>
</g>
<!-- Node7 -->
<g id="node7" class="node">
<title>Node7</title>
<g id="a_node7"><a xlink:href="Entity_8hpp.html" target="_top" xlink:title=" ">
<polygon fill="white" stroke="black" points="701,-112.5 701,-131.5 797,-131.5 797,-112.5 701,-112.5"/>
<text text-anchor="middle" x="749" y="-119.5" font-family="Helvetica,sans-Serif" font-size="10.00">Entity/Entity.hpp</text>
</a>
</g>
</g>
<!-- Node1&#45;&gt;Node7 -->
<g id="edge67" class="edge">
<title>Node1&#45;&gt;Node7</title>
<path fill="none" stroke="midnightblue" d="M892.89,-409.65C853.98,-402.73 804.19,-390.02 765,-367 705.37,-331.98 682.88,-319.12 657,-255 651.84,-242.22 650.78,-236.29 657,-224 669.2,-199.89 687.37,-207.57 706,-188 719.66,-173.65 731.77,-154.44 739.62,-140.64"/>
<polygon fill="midnightblue" stroke="midnightblue" points="742.8,-142.13 744.55,-131.68 736.66,-138.75 742.8,-142.13"/>
</g>
<!-- Node8 -->
<g id="node8" class="node">
<title>Node8</title>
<g id="a_node8"><a xlink:title=" ">
<polygon fill="white" stroke="#bfbfbf" points="184,-0.5 184,-19.5 228,-19.5 228,-0.5 184,-0.5"/>
<text text-anchor="middle" x="206" y="-7.5" font-family="Helvetica,sans-Serif" font-size="10.00">string</text>
</a>
</g>
</g>
<!-- Node1&#45;&gt;Node8 -->
<g id="edge69" class="edge">
<title>Node1&#45;&gt;Node8</title>
<path fill="none" stroke="midnightblue" d="M892.9,-416.53C679.8,-412.41 0,-392.22 0,-302 0,-302 0,-302 0,-121 0,-84.28 20.57,-76.55 51,-56 53.62,-54.23 129.55,-32.6 174.15,-19.98"/>
<polygon fill="midnightblue" stroke="midnightblue" points="175.28,-23.3 183.95,-17.21 173.38,-16.57 175.28,-23.3"/>
</g>
<!-- Node27 -->
<g id="node27" class="node">
<title>Node27</title>
<g id="a_node27"><a xlink:href="LobbyComponent_8hpp.html" target="_top" xlink:title=" ">
<polygon fill="white" stroke="black" points="954.5,-291.5 954.5,-310.5 1169.5,-310.5 1169.5,-291.5 954.5,-291.5"/>
<text text-anchor="middle" x="1062" y="-298.5" font-family="Helvetica,sans-Serif" font-size="10.00">Component/Lobby/LobbyComponent.hpp</text>
</a>
</g>
</g>
<!-- Node1&#45;&gt;Node27 -->
<g id="edge51" class="edge">
<title>Node1&#45;&gt;Node27</title>
<path fill="none" stroke="midnightblue" d="M969,-403.34C988.79,-381.77 1026.38,-340.81 1047.2,-318.13"/>
<polygon fill="midnightblue" stroke="midnightblue" points="1049.86,-320.4 1054.04,-310.67 1044.7,-315.67 1049.86,-320.4"/>
</g>
<!-- Node30 -->
<g id="node30" class="node">
<title>Node30</title>
<g id="a_node30"><a xlink:href="ControllableComponent_8hpp.html" target="_top" xlink:title=" ">
<polygon fill="white" stroke="black" points="1098,-224.5 1098,-254.5 1254,-254.5 1254,-224.5 1098,-224.5"/>
<text text-anchor="start" x="1106" y="-242.5" font-family="Helvetica,sans-Serif" font-size="10.00">Component/Controllable</text>
<text text-anchor="middle" x="1176" y="-231.5" font-family="Helvetica,sans-Serif" font-size="10.00">/ControllableComponent.hpp</text>
</a>
</g>
</g>
<!-- Node1&#45;&gt;Node30 -->
<g id="edge66" class="edge">
<title>Node1&#45;&gt;Node30</title>
<path fill="none" stroke="midnightblue" d="M1019.02,-406.43C1071.88,-393.45 1144.16,-366.25 1179,-311 1187.62,-297.32 1186.56,-279.01 1183.5,-264.48"/>
<polygon fill="midnightblue" stroke="midnightblue" points="1186.87,-263.53 1181.04,-254.69 1180.08,-265.24 1186.87,-263.53"/>
</g>
<!-- Node34 -->
<g id="node34" class="node">
<title>Node34</title>
<g id="a_node34"><a xlink:title=" ">
<polygon fill="white" stroke="#bfbfbf" points="1226,-347.5 1226,-366.5 1268,-366.5 1268,-347.5 1226,-347.5"/>
<text text-anchor="middle" x="1247" y="-354.5" font-family="Helvetica,sans-Serif" font-size="10.00">array</text>
</a>
</g>
</g>
<!-- Node1&#45;&gt;Node34 -->
<g id="edge68" class="edge">
<title>Node1&#45;&gt;Node34</title>
<path fill="none" stroke="midnightblue" d="M1019.07,-406.09C1071.02,-396.45 1146.51,-381.87 1212,-367 1213.27,-366.71 1214.57,-366.41 1215.88,-366.1"/>
<polygon fill="midnightblue" stroke="midnightblue" points="1217.07,-369.41 1225.95,-363.62 1215.4,-362.61 1217.07,-369.41"/>
</g>
<!-- Node3 -->
<g id="node3" class="node">
<title>Node3</title>
<g id="a_node3"><a xlink:title=" ">
<polygon fill="white" stroke="#bfbfbf" points="916,-168.5 916,-187.5 966,-187.5 966,-168.5 916,-168.5"/>
<text text-anchor="middle" x="941" y="-175.5" font-family="Helvetica,sans-Serif" font-size="10.00">chrono</text>
</a>
</g>
</g>
<!-- Node2&#45;&gt;Node3 -->
<g id="edge2" class="edge">
<title>Node2&#45;&gt;Node3</title>
<path fill="none" stroke="midnightblue" d="M852.28,-347.48C868.17,-340.08 889.25,-327.89 902,-311 927.95,-276.62 936.69,-225.21 939.59,-197.8"/>
<polygon fill="midnightblue" stroke="midnightblue" points="943.1,-197.92 940.51,-187.64 936.13,-197.29 943.1,-197.92"/>
</g>
<!-- Node4 -->
<g id="node4" class="node">
<title>Node4</title>
<g id="a_node4"><a xlink:title=" ">
<polygon fill="white" stroke="#bfbfbf" points="614.5,-0.5 614.5,-19.5 661.5,-19.5 661.5,-0.5 614.5,-0.5"/>
<text text-anchor="middle" x="638" y="-7.5" font-family="Helvetica,sans-Serif" font-size="10.00">vector</text>
</a>
</g>
</g>
<!-- Node2&#45;&gt;Node4 -->
<g id="edge3" class="edge">
<title>Node2&#45;&gt;Node4</title>
<path fill="none" stroke="midnightblue" d="M833.88,-347.33C846.3,-308.21 891.33,-146.09 817,-56 798.7,-33.83 718.12,-20.63 671.55,-14.72"/>
<polygon fill="midnightblue" stroke="midnightblue" points="671.96,-11.24 661.61,-13.5 671.11,-18.19 671.96,-11.24"/>
</g>
<!-- Node5 -->
<g id="node5" class="node">
<title>Node5</title>
<g id="a_node5"><a xlink:title=" ">
<polygon fill="white" stroke="#bfbfbf" points="66.5,-56.5 66.5,-75.5 123.5,-75.5 123.5,-56.5 66.5,-56.5"/>
<text text-anchor="middle" x="95" y="-63.5" font-family="Helvetica,sans-Serif" font-size="10.00">typeinfo</text>
</a>
</g>
</g>
<!-- Node2&#45;&gt;Node5 -->
<g id="edge4" class="edge">
<title>Node2&#45;&gt;Node5</title>
<path fill="none" stroke="midnightblue" d="M773.81,-356.57C671.07,-356.46 449.03,-351.06 267,-311 178.63,-291.55 76,-330.99 76,-240.5 76,-240.5 76,-240.5 76,-177 76,-144.49 84.16,-107.35 89.78,-85.61"/>
<polygon fill="midnightblue" stroke="midnightblue" points="93.22,-86.32 92.44,-75.75 86.46,-84.5 93.22,-86.32"/>
</g>
<!-- Node6 -->
<g id="node6" class="node">
<title>Node6</title>
<g id="a_node6"><a xlink:title=" ">
<polygon fill="white" stroke="#bfbfbf" points="1013.5,-0.5 1013.5,-19.5 1078.5,-19.5 1078.5,-0.5 1013.5,-0.5"/>
<text text-anchor="middle" x="1046" y="-7.5" font-family="Helvetica,sans-Serif" font-size="10.00">typeindex</text>
</a>
</g>
</g>
<!-- Node2&#45;&gt;Node6 -->
<g id="edge5" class="edge">
<title>Node2&#45;&gt;Node6</title>
<path fill="none" stroke="midnightblue" d="M888.22,-351.4C1042.23,-338.25 1454,-297.74 1454,-240.5 1454,-240.5 1454,-240.5 1454,-121 1454,-84.28 1434.95,-74.1 1403,-56 1350.16,-26.06 1171.65,-15.64 1088.84,-12.36"/>
<polygon fill="midnightblue" stroke="midnightblue" points="1088.89,-8.86 1078.76,-11.98 1088.62,-15.86 1088.89,-8.86"/>
</g>
<!-- Node2&#45;&gt;Node7 -->
<g id="edge6" class="edge">
<title>Node2&#45;&gt;Node7</title>
<path fill="none" stroke="midnightblue" d="M828.9,-347.23C823.68,-325.86 809.4,-269.55 793,-224 782.3,-194.27 767.08,-160.85 757.64,-140.88"/>
<polygon fill="midnightblue" stroke="midnightblue" points="760.75,-139.27 753.28,-131.76 754.43,-142.29 760.75,-139.27"/>
</g>
<!-- Node16 -->
<g id="node16" class="node">
<title>Node16</title>
<g id="a_node16"><a xlink:href="Wal_8hpp.html" target="_top" xlink:title=" ">
<polygon fill="white" stroke="black" points="276,-291.5 276,-310.5 332,-310.5 332,-291.5 276,-291.5"/>
<text text-anchor="middle" x="304" y="-298.5" font-family="Helvetica,sans-Serif" font-size="10.00">Wal.hpp</text>
</a>
</g>
</g>
<!-- Node2&#45;&gt;Node16 -->
<g id="edge20" class="edge">
<title>Node2&#45;&gt;Node16</title>
<path fill="none" stroke="midnightblue" d="M773.85,-350.14C665.69,-339.06 433.7,-315.29 342.22,-305.92"/>
<polygon fill="midnightblue" stroke="midnightblue" points="342.33,-302.41 332.03,-304.87 341.62,-309.37 342.33,-302.41"/>
</g>
<!-- Node18 -->
<g id="node18" class="node">
<title>Node18</title>
<g id="a_node18"><a xlink:href="ISystem_8hpp.html" target="_top" xlink:title=" ">
<polygon fill="white" stroke="black" points="666.5,-230 666.5,-249 783.5,-249 783.5,-230 666.5,-230"/>
<text text-anchor="middle" x="725" y="-237" font-family="Helvetica,sans-Serif" font-size="10.00">System/ISystem.hpp</text>
</a>
</g>
</g>
<!-- Node2&#45;&gt;Node18 -->
<g id="edge49" class="edge">
<title>Node2&#45;&gt;Node18</title>
<path fill="none" stroke="midnightblue" d="M823.03,-347.32C805.38,-328.09 762.76,-281.64 739.96,-256.81"/>
<polygon fill="midnightblue" stroke="midnightblue" points="742.4,-254.28 733.06,-249.28 737.24,-259.02 742.4,-254.28"/>
</g>
<!-- Node19 -->
<g id="node19" class="node">
<title>Node19</title>
<g id="a_node19"><a xlink:href="View_8hpp.html" target="_top" xlink:title=" ">
<polygon fill="white" stroke="black" points="582,-168.5 582,-187.5 670,-187.5 670,-168.5 582,-168.5"/>
<text text-anchor="middle" x="626" y="-175.5" font-family="Helvetica,sans-Serif" font-size="10.00">View/View.hpp</text>
</a>
</g>
</g>
<!-- Node2&#45;&gt;Node19 -->
<g id="edge48" class="edge">
<title>Node2&#45;&gt;Node19</title>
<path fill="none" stroke="midnightblue" d="M805.94,-347.47C768.68,-333.6 698.61,-302.82 657,-255 642.71,-238.58 634.44,-214.7 630.09,-198.1"/>
<polygon fill="midnightblue" stroke="midnightblue" points="633.39,-196.88 627.68,-187.96 626.58,-198.5 633.39,-196.88"/>
</g>
<!-- Node26 -->
<g id="node26" class="node">
<title>Node26</title>
<g id="a_node26"><a xlink:title=" ">
<polygon fill="white" stroke="#bfbfbf" points="1136,-112.5 1136,-131.5 1196,-131.5 1196,-112.5 1136,-112.5"/>
<text text-anchor="middle" x="1166" y="-119.5" font-family="Helvetica,sans-Serif" font-size="10.00">iostream</text>
</a>
</g>
</g>
<!-- Node2&#45;&gt;Node26 -->
<g id="edge50" class="edge">
<title>Node2&#45;&gt;Node26</title>
<path fill="none" stroke="midnightblue" d="M838.8,-347.29C846.2,-338.63 857.17,-324.7 864,-311 893.61,-251.6 857.34,-212.03 907,-168 938.78,-139.82 1061.27,-128.83 1125.76,-124.93"/>
<polygon fill="midnightblue" stroke="midnightblue" points="1126.19,-128.41 1135.97,-124.34 1125.78,-121.42 1126.19,-128.41"/>
</g>
<!-- Node7&#45;&gt;Node5 -->
<g id="edge9" class="edge">
<title>Node7&#45;&gt;Node5</title>
<path fill="none" stroke="midnightblue" d="M700.84,-113.08C697.85,-112.68 694.89,-112.32 692,-112 447.38,-84.88 380.31,-112.86 133.57,-75.99"/>
<polygon fill="midnightblue" stroke="midnightblue" points="134,-72.51 123.58,-74.47 132.95,-79.43 134,-72.51"/>
</g>
<!-- Node7&#45;&gt;Node8 -->
<g id="edge7" class="edge">
<title>Node7&#45;&gt;Node8</title>
<path fill="none" stroke="midnightblue" d="M735.23,-112.47C711.23,-98.05 659.71,-69.17 612,-56 453.76,-12.31 403.41,-49.95 238.24,-19.87"/>
<polygon fill="midnightblue" stroke="midnightblue" points="238.7,-16.4 228.23,-17.99 237.41,-23.28 238.7,-16.4"/>
</g>
<!-- Node9 -->
<g id="node9" class="node">
<title>Node9</title>
<g id="a_node9"><a xlink:title=" ">
<polygon fill="white" stroke="#bfbfbf" points="510.5,-56.5 510.5,-75.5 603.5,-75.5 603.5,-56.5 510.5,-56.5"/>
<text text-anchor="middle" x="557" y="-63.5" font-family="Helvetica,sans-Serif" font-size="10.00">unordered_map</text>
</a>
</g>
</g>
<!-- Node7&#45;&gt;Node9 -->
<g id="edge8" class="edge">
<title>Node7&#45;&gt;Node9</title>
<path fill="none" stroke="midnightblue" d="M718.58,-112.44C685.72,-103.2 633.22,-88.44 597.03,-78.26"/>
<polygon fill="midnightblue" stroke="midnightblue" points="597.85,-74.85 587.28,-75.52 595.96,-81.59 597.85,-74.85"/>
</g>
<!-- Node10 -->
<g id="node10" class="node">
<title>Node10</title>
<g id="a_node10"><a xlink:title=" ">
<polygon fill="white" stroke="#bfbfbf" points="411,-56.5 411,-75.5 469,-75.5 469,-56.5 411,-56.5"/>
<text text-anchor="middle" x="440" y="-63.5" font-family="Helvetica,sans-Serif" font-size="10.00">memory</text>
</a>
</g>
</g>
<!-- Node7&#45;&gt;Node10 -->
<g id="edge10" class="edge">
<title>Node7&#45;&gt;Node10</title>
<path fill="none" stroke="midnightblue" d="M700.72,-112.56C639.68,-101.9 535.76,-83.74 479.32,-73.87"/>
<polygon fill="midnightblue" stroke="midnightblue" points="479.8,-70.4 469.35,-72.13 478.6,-77.3 479.8,-70.4"/>
</g>
<!-- Node11 -->
<g id="node11" class="node">
<title>Node11</title>
<g id="a_node11"><a xlink:href="Component_8hpp.html" target="_top" xlink:title=" ">
<polygon fill="white" stroke="black" points="864.5,-56.5 864.5,-75.5 1017.5,-75.5 1017.5,-56.5 864.5,-56.5"/>
<text text-anchor="middle" x="941" y="-63.5" font-family="Helvetica,sans-Serif" font-size="10.00">Component/Component.hpp</text>
</a>
</g>
</g>
<!-- Node7&#45;&gt;Node11 -->
<g id="edge11" class="edge">
<title>Node7&#45;&gt;Node11</title>
<path fill="none" stroke="midnightblue" d="M779.42,-112.44C812.28,-103.2 864.78,-88.44 900.97,-78.26"/>
<polygon fill="midnightblue" stroke="midnightblue" points="902.04,-81.59 910.72,-75.52 900.15,-74.85 902.04,-81.59"/>
</g>
<!-- Node12 -->
<g id="node12" class="node">
<title>Node12</title>
<g id="a_node12"><a xlink:href="WalError_8hpp.html" target="_top" xlink:title=" ">
<polygon fill="white" stroke="black" points="141.5,-56.5 141.5,-75.5 270.5,-75.5 270.5,-56.5 141.5,-56.5"/>
<text text-anchor="middle" x="206" y="-63.5" font-family="Helvetica,sans-Serif" font-size="10.00">Exception/WalError.hpp</text>
</a>
</g>
</g>
<!-- Node7&#45;&gt;Node12 -->
<g id="edge15" class="edge">
<title>Node7&#45;&gt;Node12</title>
<path fill="none" stroke="midnightblue" d="M700.83,-113.17C697.84,-112.76 694.88,-112.36 692,-112 546.79,-93.83 376.31,-79.7 280.75,-72.42"/>
<polygon fill="midnightblue" stroke="midnightblue" points="280.84,-68.92 270.61,-71.65 280.31,-75.9 280.84,-68.92"/>
</g>
<!-- Node15 -->
<g id="node15" class="node">
<title>Node15</title>
<g id="a_node15"><a xlink:href="TypeHolder_8hpp.html" target="_top" xlink:title=" ">
<polygon fill="white" stroke="black" points="678,-56.5 678,-75.5 808,-75.5 808,-56.5 678,-56.5"/>
<text text-anchor="middle" x="743" y="-63.5" font-family="Helvetica,sans-Serif" font-size="10.00">Models/TypeHolder.hpp</text>
</a>
</g>
</g>
<!-- Node7&#45;&gt;Node15 -->
<g id="edge19" class="edge">
<title>Node7&#45;&gt;Node15</title>
<path fill="none" stroke="midnightblue" d="M748.01,-112.08C747.21,-104.93 746.07,-94.64 745.08,-85.69"/>
<polygon fill="midnightblue" stroke="midnightblue" points="748.56,-85.3 743.97,-75.75 741.6,-86.08 748.56,-85.3"/>
</g>
<!-- Node11&#45;&gt;Node4 -->
<g id="edge12" class="edge">
<title>Node11&#45;&gt;Node4</title>
<path fill="none" stroke="midnightblue" d="M892.99,-56.44C831.19,-45.43 725.4,-26.58 671.58,-16.98"/>
<polygon fill="midnightblue" stroke="midnightblue" points="671.99,-13.5 661.53,-15.19 670.77,-20.39 671.99,-13.5"/>
</g>
<!-- Node11&#45;&gt;Node6 -->
<g id="edge14" class="edge">
<title>Node11&#45;&gt;Node6</title>
<path fill="none" stroke="midnightblue" d="M957.87,-56.32C974.71,-47.66 1000.81,-34.24 1020.24,-24.25"/>
<polygon fill="midnightblue" stroke="midnightblue" points="1021.88,-27.34 1029.17,-19.65 1018.68,-21.12 1021.88,-27.34"/>
</g>
<!-- Node11&#45;&gt;Node8 -->
<g id="edge13" class="edge">
<title>Node11&#45;&gt;Node8</title>
<path fill="none" stroke="midnightblue" d="M864.28,-59.31C848.64,-58.18 832.29,-57.03 817,-56 562.58,-38.87 493.2,-63.63 238.15,-19.81"/>
<polygon fill="midnightblue" stroke="midnightblue" points="238.66,-16.35 228.21,-18.09 237.47,-23.24 238.66,-16.35"/>
</g>
<!-- Node12&#45;&gt;Node8 -->
<g id="edge18" class="edge">
<title>Node12&#45;&gt;Node8</title>
<path fill="none" stroke="midnightblue" d="M206,-56.08C206,-49.01 206,-38.86 206,-29.99"/>
<polygon fill="midnightblue" stroke="midnightblue" points="209.5,-29.75 206,-19.75 202.5,-29.75 209.5,-29.75"/>
</g>
<!-- Node13 -->
<g id="node13" class="node">
<title>Node13</title>
<g id="a_node13"><a xlink:title=" ">
<polygon fill="white" stroke="#bfbfbf" points="100.5,-0.5 100.5,-19.5 165.5,-19.5 165.5,-0.5 100.5,-0.5"/>
<text text-anchor="middle" x="133" y="-7.5" font-family="Helvetica,sans-Serif" font-size="10.00">exception</text>
</a>
</g>
</g>
<!-- Node12&#45;&gt;Node13 -->
<g id="edge16" class="edge">
<title>Node12&#45;&gt;Node13</title>
<path fill="none" stroke="midnightblue" d="M194.27,-56.32C183.16,-48.11 166.26,-35.6 153.02,-25.81"/>
<polygon fill="midnightblue" stroke="midnightblue" points="155.06,-22.97 144.94,-19.83 150.9,-28.59 155.06,-22.97"/>
</g>
<!-- Node14 -->
<g id="node14" class="node">
<title>Node14</title>
<g id="a_node14"><a xlink:title=" ">
<polygon fill="white" stroke="#bfbfbf" points="246.5,-0.5 246.5,-19.5 311.5,-19.5 311.5,-0.5 246.5,-0.5"/>
<text text-anchor="middle" x="279" y="-7.5" font-family="Helvetica,sans-Serif" font-size="10.00">stdexcept</text>
</a>
</g>
</g>
<!-- Node12&#45;&gt;Node14 -->
<g id="edge17" class="edge">
<title>Node12&#45;&gt;Node14</title>
<path fill="none" stroke="midnightblue" d="M217.73,-56.32C228.84,-48.11 245.74,-35.6 258.98,-25.81"/>
<polygon fill="midnightblue" stroke="midnightblue" points="261.1,-28.59 267.06,-19.83 256.94,-22.97 261.1,-28.59"/>
</g>
<!-- Node16&#45;&gt;Node4 -->
<g id="edge22" class="edge">
<title>Node16&#45;&gt;Node4</title>
<path fill="none" stroke="midnightblue" d="M302.92,-291.12C298.95,-254.01 289.36,-110.67 370,-56 407.65,-30.47 540.66,-17.87 603.99,-13.2"/>
<polygon fill="midnightblue" stroke="midnightblue" points="604.52,-16.68 614.25,-12.47 604.03,-9.69 604.52,-16.68"/>
</g>
<!-- Node16&#45;&gt;Node5 -->
<g id="edge25" class="edge">
<title>Node16&#45;&gt;Node5</title>
<path fill="none" stroke="midnightblue" d="M275.87,-293.89C252.22,-287.55 218.73,-275.6 196,-255 142.51,-206.52 111.94,-122.93 100.38,-85.76"/>
<polygon fill="midnightblue" stroke="midnightblue" points="103.62,-84.38 97.4,-75.81 96.91,-86.39 103.62,-84.38"/>
</g>
<!-- Node16&#45;&gt;Node8 -->
<g id="edge23" class="edge">
<title>Node16&#45;&gt;Node8</title>
<path fill="none" stroke="midnightblue" d="M275.73,-296.88C245.31,-292.26 196.88,-281.13 164,-255 91.44,-197.33 81.67,-165.34 57,-76 54.63,-67.43 51.7,-63.14 57,-56 58.8,-53.58 130.67,-32.62 173.92,-20.17"/>
<polygon fill="midnightblue" stroke="midnightblue" points="175.08,-23.48 183.72,-17.36 173.15,-16.76 175.08,-23.48"/>
</g>
<!-- Node16&#45;&gt;Node10 -->
<g id="edge24" class="edge">
<title>Node16&#45;&gt;Node10</title>
<path fill="none" stroke="midnightblue" d="M303.76,-291.34C303.43,-262.34 306.16,-167.36 353,-112 365.58,-97.13 384.31,-86.56 401.18,-79.42"/>
<polygon fill="midnightblue" stroke="midnightblue" points="402.82,-82.53 410.83,-75.6 400.25,-76.02 402.82,-82.53"/>
</g>
<!-- Node16&#45;&gt;Node12 -->
<g id="edge26" class="edge">
<title>Node16&#45;&gt;Node12</title>
<path fill="none" stroke="midnightblue" d="M275.68,-293.95C254.82,-287.87 227.77,-276.26 214,-255 179.7,-202.06 192.59,-122.02 201,-85.88"/>
<polygon fill="midnightblue" stroke="midnightblue" points="204.49,-86.33 203.51,-75.78 197.7,-84.65 204.49,-86.33"/>
</g>
<!-- Node17 -->
<g id="node17" class="node">
<title>Node17</title>
<g id="a_node17"><a xlink:title=" ">
<polygon fill="white" stroke="#bfbfbf" points="370.5,-112.5 370.5,-131.5 415.5,-131.5 415.5,-112.5 370.5,-112.5"/>
<text text-anchor="middle" x="393" y="-119.5" font-family="Helvetica,sans-Serif" font-size="10.00">utility</text>
</a>
</g>
</g>
<!-- Node16&#45;&gt;Node17 -->
<g id="edge21" class="edge">
<title>Node16&#45;&gt;Node17</title>
<path fill="none" stroke="midnightblue" d="M307.01,-291.37C314.65,-269.85 336.01,-212.37 361,-168 366.53,-158.19 373.72,-147.9 379.89,-139.64"/>
<polygon fill="midnightblue" stroke="midnightblue" points="382.75,-141.67 386.05,-131.6 377.19,-137.41 382.75,-141.67"/>
</g>
<!-- Node16&#45;&gt;Node18 -->
<g id="edge27" class="edge">
<title>Node16&#45;&gt;Node18</title>
<path fill="none" stroke="midnightblue" d="M332.28,-296C397.91,-286.73 562.16,-263.51 656.14,-250.23"/>
<polygon fill="midnightblue" stroke="midnightblue" points="656.72,-253.69 666.13,-248.82 655.74,-246.75 656.72,-253.69"/>
</g>
<!-- Node24 -->
<g id="node24" class="node">
<title>Node24</title>
<g id="a_node24"><a xlink:href="Callback_8hpp.html" target="_top" xlink:title=" ">
<polygon fill="white" stroke="black" points="370,-168.5 370,-187.5 488,-187.5 488,-168.5 370,-168.5"/>
<text text-anchor="middle" x="429" y="-175.5" font-family="Helvetica,sans-Serif" font-size="10.00">Models/Callback.hpp</text>
</a>
</g>
</g>
<!-- Node16&#45;&gt;Node24 -->
<g id="edge38" class="edge">
<title>Node16&#45;&gt;Node24</title>
<path fill="none" stroke="midnightblue" d="M314.61,-291.31C325.3,-282.44 342.15,-268.15 356,-255 376.82,-235.23 399.55,-211.14 414.02,-195.45"/>
<polygon fill="midnightblue" stroke="midnightblue" points="416.97,-197.42 421.15,-187.68 411.81,-192.69 416.97,-197.42"/>
</g>
<!-- Node25 -->
<g id="node25" class="node">
<title>Node25</title>
<g id="a_node25"><a xlink:href="Scene_8hpp.html" target="_top" xlink:title=" ">
<polygon fill="white" stroke="black" points="469.5,-230 469.5,-249 568.5,-249 568.5,-230 469.5,-230"/>
<text text-anchor="middle" x="519" y="-237" font-family="Helvetica,sans-Serif" font-size="10.00">Scene/Scene.hpp</text>
</a>
</g>
</g>
<!-- Node16&#45;&gt;Node25 -->
<g id="edge42" class="edge">
<title>Node16&#45;&gt;Node25</title>
<path fill="none" stroke="midnightblue" d="M332.11,-292.22C369.41,-281.9 435.53,-263.6 478.3,-251.76"/>
<polygon fill="midnightblue" stroke="midnightblue" points="479.4,-255.09 488.1,-249.05 477.53,-248.34 479.4,-255.09"/>
</g>
<!-- Node18&#45;&gt;Node3 -->
<g id="edge37" class="edge">
<title>Node18&#45;&gt;Node3</title>
<path fill="none" stroke="midnightblue" d="M755.95,-229.98C795.71,-219.02 864.56,-200.06 906.13,-188.6"/>
<polygon fill="midnightblue" stroke="midnightblue" points="907.12,-191.96 915.83,-185.93 905.26,-185.21 907.12,-191.96"/>
</g>
<!-- Node18&#45;&gt;Node7 -->
<g id="edge28" class="edge">
<title>Node18&#45;&gt;Node7</title>
<path fill="none" stroke="midnightblue" d="M730.95,-229.67C737.11,-219.95 746.34,-203.62 750,-188 753.58,-172.7 752.97,-154.82 751.67,-141.69"/>
<polygon fill="midnightblue" stroke="midnightblue" points="755.12,-141.06 750.44,-131.55 748.17,-141.9 755.12,-141.06"/>
</g>
<!-- Node18&#45;&gt;Node19 -->
<g id="edge29" class="edge">
<title>Node18&#45;&gt;Node19</title>
<path fill="none" stroke="midnightblue" d="M710.82,-229.98C694.64,-220.25 667.97,-204.23 648.86,-192.74"/>
<polygon fill="midnightblue" stroke="midnightblue" points="650.53,-189.66 640.16,-187.51 646.93,-195.66 650.53,-189.66"/>
</g>
<!-- Node19&#45;&gt;Node6 -->
<g id="edge32" class="edge">
<title>Node19&#45;&gt;Node6</title>
<path fill="none" stroke="midnightblue" d="M670.19,-171.44C763.4,-158.86 975.78,-125.4 1027,-76 1039.42,-64.02 1043.84,-44.41 1045.36,-29.86"/>
<polygon fill="midnightblue" stroke="midnightblue" points="1048.87,-29.73 1046.05,-19.52 1041.89,-29.26 1048.87,-29.73"/>
</g>
<!-- Node19&#45;&gt;Node7 -->
<g id="edge36" class="edge">
<title>Node19&#45;&gt;Node7</title>
<path fill="none" stroke="midnightblue" d="M645.49,-168.44C665.64,-159.6 697.32,-145.69 720.33,-135.59"/>
<polygon fill="midnightblue" stroke="midnightblue" points="721.85,-138.74 729.6,-131.52 719.04,-132.33 721.85,-138.74"/>
</g>
<!-- Node19&#45;&gt;Node17 -->
<g id="edge34" class="edge">
<title>Node19&#45;&gt;Node17</title>
<path fill="none" stroke="midnightblue" d="M584.03,-168.46C545.21,-160.38 485.68,-147.54 425.67,-132.32"/>
<polygon fill="midnightblue" stroke="midnightblue" points="426.2,-128.84 415.64,-129.75 424.46,-135.62 426.2,-128.84"/>
</g>
<!-- Node20 -->
<g id="node20" class="node">
<title>Node20</title>
<g id="a_node20"><a xlink:title=" ">
<polygon fill="white" stroke="#bfbfbf" points="517,-112.5 517,-131.5 549,-131.5 549,-112.5 517,-112.5"/>
<text text-anchor="middle" x="533" y="-119.5" font-family="Helvetica,sans-Serif" font-size="10.00">list</text>
</a>
</g>
</g>
<!-- Node19&#45;&gt;Node20 -->
<g id="edge30" class="edge">
<title>Node19&#45;&gt;Node20</title>
<path fill="none" stroke="midnightblue" d="M611.06,-168.32C596.41,-159.82 573.87,-146.73 556.76,-136.8"/>
<polygon fill="midnightblue" stroke="midnightblue" points="558.31,-133.65 547.9,-131.65 554.8,-139.7 558.31,-133.65"/>
</g>
<!-- Node21 -->
<g id="node21" class="node">
<title>Node21</title>
<g id="a_node21"><a xlink:title=" ">
<polygon fill="white" stroke="#bfbfbf" points="567.5,-112.5 567.5,-131.5 608.5,-131.5 608.5,-112.5 567.5,-112.5"/>
<text text-anchor="middle" x="588" y="-119.5" font-family="Helvetica,sans-Serif" font-size="10.00">tuple</text>
</a>
</g>
</g>
<!-- Node19&#45;&gt;Node21 -->
<g id="edge31" class="edge">
<title>Node19&#45;&gt;Node21</title>
<path fill="none" stroke="midnightblue" d="M619.73,-168.08C614.36,-160.46 606.48,-149.26 599.92,-139.94"/>
<polygon fill="midnightblue" stroke="midnightblue" points="602.78,-137.91 594.16,-131.75 597.05,-141.94 602.78,-137.91"/>
</g>
<!-- Node22 -->
<g id="node22" class="node">
<title>Node22</title>
<g id="a_node22"><a xlink:title=" ">
<polygon fill="white" stroke="#bfbfbf" points="433.5,-112.5 433.5,-131.5 498.5,-131.5 498.5,-112.5 433.5,-112.5"/>
<text text-anchor="middle" x="466" y="-119.5" font-family="Helvetica,sans-Serif" font-size="10.00">functional</text>
</a>
</g>
</g>
<!-- Node19&#45;&gt;Node22 -->
<g id="edge33" class="edge">
<title>Node19&#45;&gt;Node22</title>
<path fill="none" stroke="midnightblue" d="M600.65,-168.44C573.73,-159.36 531,-144.94 500.91,-134.78"/>
<polygon fill="midnightblue" stroke="midnightblue" points="501.83,-131.4 491.23,-131.52 499.59,-138.03 501.83,-131.4"/>
</g>
<!-- Node23 -->
<g id="node23" class="node">
<title>Node23</title>
<g id="a_node23"><a xlink:title=" ">
<polygon fill="white" stroke="#bfbfbf" points="627,-112.5 627,-131.5 683,-131.5 683,-112.5 627,-112.5"/>
<text text-anchor="middle" x="655" y="-119.5" font-family="Helvetica,sans-Serif" font-size="10.00">optional</text>
</a>
</g>
</g>
<!-- Node19&#45;&gt;Node23 -->
<g id="edge35" class="edge">
<title>Node19&#45;&gt;Node23</title>
<path fill="none" stroke="midnightblue" d="M630.79,-168.08C634.76,-160.69 640.53,-149.95 645.43,-140.81"/>
<polygon fill="midnightblue" stroke="midnightblue" points="648.65,-142.22 650.3,-131.75 642.49,-138.91 648.65,-142.22"/>
</g>
<!-- Node24&#45;&gt;Node9 -->
<g id="edge41" class="edge">
<title>Node24&#45;&gt;Node9</title>
<path fill="none" stroke="midnightblue" d="M407.54,-168.31C381.51,-156.52 343.19,-134.36 361,-112 369.78,-100.98 445.44,-85.96 500.13,-76.37"/>
<polygon fill="midnightblue" stroke="midnightblue" points="500.83,-79.8 510.08,-74.64 499.63,-72.91 500.83,-79.8"/>
</g>
<!-- Node24&#45;&gt;Node17 -->
<g id="edge40" class="edge">
<title>Node24&#45;&gt;Node17</title>
<path fill="none" stroke="midnightblue" d="M423.06,-168.08C418.02,-160.53 410.66,-149.49 404.49,-140.23"/>
<polygon fill="midnightblue" stroke="midnightblue" points="407.29,-138.13 398.83,-131.75 401.47,-142.01 407.29,-138.13"/>
</g>
<!-- Node24&#45;&gt;Node22 -->
<g id="edge39" class="edge">
<title>Node24&#45;&gt;Node22</title>
<path fill="none" stroke="midnightblue" d="M435.11,-168.08C440.28,-160.53 447.85,-149.49 454.19,-140.23"/>
<polygon fill="midnightblue" stroke="midnightblue" points="457.24,-141.98 460,-131.75 451.46,-138.02 457.24,-141.98"/>
</g>
<!-- Node25&#45;&gt;Node4 -->
<g id="edge43" class="edge">
<title>Node25&#45;&gt;Node4</title>
<path fill="none" stroke="midnightblue" d="M469.36,-236.05C433.77,-231.52 387.58,-219.45 361,-188 339.08,-162.06 341.05,-143.79 353,-112 364.63,-81.04 373.3,-72.44 402,-56 466.6,-18.99 555.85,-11.72 603.97,-10.7"/>
<polygon fill="midnightblue" stroke="midnightblue" points="604.2,-14.2 614.15,-10.57 604.11,-7.2 604.2,-14.2"/>
</g>
<!-- Node25&#45;&gt;Node7 -->
<g id="edge47" class="edge">
<title>Node25&#45;&gt;Node7</title>
<path fill="none" stroke="midnightblue" d="M552.03,-229.92C592.19,-219.17 657.29,-200.64 679,-188 701.05,-175.17 721.87,-154.29 734.98,-139.67"/>
<polygon fill="midnightblue" stroke="midnightblue" points="737.83,-141.73 741.76,-131.89 732.55,-137.13 737.83,-141.73"/>
</g>
<!-- Node25&#45;&gt;Node19 -->
<g id="edge46" class="edge">
<title>Node25&#45;&gt;Node19</title>
<path fill="none" stroke="midnightblue" d="M534.33,-229.98C551.97,-220.17 581.16,-203.93 601.86,-192.42"/>
<polygon fill="midnightblue" stroke="midnightblue" points="603.66,-195.43 610.7,-187.51 600.26,-189.31 603.66,-195.43"/>
</g>
<!-- Node25&#45;&gt;Node20 -->
<g id="edge44" class="edge">
<title>Node25&#45;&gt;Node20</title>
<path fill="none" stroke="midnightblue" d="M521.31,-230C523.92,-220.02 528.04,-202.95 530,-188 532.02,-172.58 532.74,-154.95 532.96,-141.94"/>
<polygon fill="midnightblue" stroke="midnightblue" points="536.47,-141.91 533.06,-131.87 529.47,-141.84 536.47,-141.91"/>
</g>
<!-- Node25&#45;&gt;Node22 -->
<g id="edge45" class="edge">
<title>Node25&#45;&gt;Node22</title>
<path fill="none" stroke="midnightblue" d="M517.21,-229.94C514.17,-216.35 507.32,-189.21 497,-168 492.18,-158.1 485.36,-147.93 479.35,-139.77"/>
<polygon fill="midnightblue" stroke="midnightblue" points="482.12,-137.63 473.27,-131.81 476.56,-141.88 482.12,-137.63"/>
</g>
<!-- Node27&#45;&gt;Node3 -->
<g id="edge65" class="edge">
<title>Node27&#45;&gt;Node3</title>
<path fill="none" stroke="midnightblue" d="M1042.68,-291.42C1026.66,-283.61 1004.01,-270.89 988,-255 970.86,-237.99 957.18,-213.56 949.1,-197.03"/>
<polygon fill="midnightblue" stroke="midnightblue" points="952.23,-195.45 944.81,-187.89 945.89,-198.43 952.23,-195.45"/>
</g>
<!-- Node27&#45;&gt;Node7 -->
<g id="edge53" class="edge">
<title>Node27&#45;&gt;Node7</title>
<path fill="none" stroke="midnightblue" d="M1058.97,-291.18C1050.2,-267.09 1022.36,-199.87 975,-168 948.11,-149.91 864.73,-136.69 807.14,-129.43"/>
<polygon fill="midnightblue" stroke="midnightblue" points="807.41,-125.93 797.06,-128.18 806.56,-132.88 807.41,-125.93"/>
</g>
<!-- Node27&#45;&gt;Node11 -->
<g id="edge52" class="edge">
<title>Node27&#45;&gt;Node11</title>
<path fill="none" stroke="midnightblue" d="M1061.72,-291.23C1060.99,-276.73 1058.37,-247.07 1049,-224 1025.96,-167.3 979.83,-110.57 956,-83.45"/>
<polygon fill="midnightblue" stroke="midnightblue" points="958.38,-80.86 949.11,-75.73 953.16,-85.52 958.38,-80.86"/>
</g>
<!-- Node28 -->
<g id="node28" class="node">
<title>Node28</title>
<g id="a_node28"><a xlink:href="Color_8hpp.html" target="_top" xlink:title=" ">
<polygon fill="white" stroke="black" points="1318,-230 1318,-249 1380,-249 1380,-230 1318,-230"/>
<text text-anchor="middle" x="1349" y="-237" font-family="Helvetica,sans-Serif" font-size="10.00">Color.hpp</text>
</a>
</g>
</g>
<!-- Node27&#45;&gt;Node28 -->
<g id="edge54" class="edge">
<title>Node27&#45;&gt;Node28</title>
<path fill="none" stroke="midnightblue" d="M1103.12,-291.48C1157.58,-280.18 1253.09,-260.38 1307.66,-249.07"/>
<polygon fill="midnightblue" stroke="midnightblue" points="1308.59,-252.45 1317.68,-246.99 1307.17,-245.6 1308.59,-252.45"/>
</g>
<!-- Node27&#45;&gt;Node30 -->
<g id="edge56" class="edge">
<title>Node27&#45;&gt;Node30</title>
<path fill="none" stroke="midnightblue" d="M1078.33,-291.48C1094.42,-283.08 1119.53,-269.97 1140.26,-259.15"/>
<polygon fill="midnightblue" stroke="midnightblue" points="1141.89,-262.25 1149.13,-254.52 1138.65,-256.05 1141.89,-262.25"/>
</g>
<!-- Node29 -->
<g id="node29" class="node">
<title>Node29</title>
<g id="a_node29"><a xlink:title=" ">
<polygon fill="white" stroke="#bfbfbf" points="1340.5,-56.5 1340.5,-75.5 1393.5,-75.5 1393.5,-56.5 1340.5,-56.5"/>
<text text-anchor="middle" x="1367" y="-63.5" font-family="Helvetica,sans-Serif" font-size="10.00">raylib.h</text>
</a>
</g>
</g>
<!-- Node28&#45;&gt;Node29 -->
<g id="edge55" class="edge">
<title>Node28&#45;&gt;Node29</title>
<path fill="none" stroke="midnightblue" d="M1354.46,-229.83C1365.19,-212.22 1388.69,-170.66 1397,-132 1398.87,-123.31 1399.58,-120.51 1397,-112 1393.88,-101.7 1387.55,-91.61 1381.5,-83.6"/>
<polygon fill="midnightblue" stroke="midnightblue" points="1384.22,-81.4 1375.21,-75.82 1378.77,-85.8 1384.22,-81.4"/>
</g>
<!-- Node30&#45;&gt;Node3 -->
<g id="edge64" class="edge">
<title>Node30&#45;&gt;Node3</title>
<path fill="none" stroke="midnightblue" d="M1120.61,-224.47C1075.95,-213.17 1014.51,-197.61 976.3,-187.94"/>
<polygon fill="midnightblue" stroke="midnightblue" points="976.73,-184.44 966.17,-185.37 975.01,-191.22 976.73,-184.44"/>
</g>
<!-- Node30&#45;&gt;Node7 -->
<g id="edge63" class="edge">
<title>Node30&#45;&gt;Node7</title>
<path fill="none" stroke="midnightblue" d="M1147.88,-224.38C1115.08,-208.47 1058.85,-182.88 1008,-168 940.65,-148.29 860.78,-136.03 807.72,-129.37"/>
<polygon fill="midnightblue" stroke="midnightblue" points="807.83,-125.86 797.47,-128.11 806.97,-132.81 807.83,-125.86"/>
</g>
<!-- Node30&#45;&gt;Node11 -->
<g id="edge62" class="edge">
<title>Node30&#45;&gt;Node11</title>
<path fill="none" stroke="midnightblue" d="M1169.56,-224.44C1156.92,-198.38 1126.33,-142.44 1084,-112 1060.77,-95.29 1031.11,-84.64 1004.84,-77.91"/>
<polygon fill="midnightblue" stroke="midnightblue" points="1005.49,-74.47 994.95,-75.53 1003.85,-81.28 1005.49,-74.47"/>
</g>
<!-- Node31 -->
<g id="node31" class="node">
<title>Node31</title>
<g id="a_node31"><a xlink:href="sources_2Models_2Vector2_8hpp.html" target="_top" xlink:title=" ">
<polygon fill="white" stroke="black" points="1158.5,-168.5 1158.5,-187.5 1271.5,-187.5 1271.5,-168.5 1158.5,-168.5"/>
<text text-anchor="middle" x="1215" y="-175.5" font-family="Helvetica,sans-Serif" font-size="10.00">Models/Vector2.hpp</text>
</a>
</g>
</g>
<!-- Node30&#45;&gt;Node31 -->
<g id="edge57" class="edge">
<title>Node30&#45;&gt;Node31</title>
<path fill="none" stroke="midnightblue" d="M1185.24,-224.4C1190.79,-215.93 1197.89,-205.1 1203.77,-196.14"/>
<polygon fill="midnightblue" stroke="midnightblue" points="1206.77,-197.94 1209.33,-187.66 1200.92,-194.1 1206.77,-197.94"/>
</g>
<!-- Node31&#45;&gt;Node26 -->
<g id="edge58" class="edge">
<title>Node31&#45;&gt;Node26</title>
<path fill="none" stroke="midnightblue" d="M1206.91,-168.08C1199.84,-160.3 1189.41,-148.8 1180.85,-139.37"/>
<polygon fill="midnightblue" stroke="midnightblue" points="1183.25,-136.8 1173.94,-131.75 1178.07,-141.51 1183.25,-136.8"/>
</g>
<!-- Node32 -->
<g id="node32" class="node">
<title>Node32</title>
<g id="a_node32"><a xlink:title=" ">
<polygon fill="white" stroke="#bfbfbf" points="1214.5,-112.5 1214.5,-131.5 1261.5,-131.5 1261.5,-112.5 1214.5,-112.5"/>
<text text-anchor="middle" x="1238" y="-119.5" font-family="Helvetica,sans-Serif" font-size="10.00">cmath</text>
</a>
</g>
</g>
<!-- Node31&#45;&gt;Node32 -->
<g id="edge59" class="edge">
<title>Node31&#45;&gt;Node32</title>
<path fill="none" stroke="midnightblue" d="M1218.8,-168.08C1221.91,-160.77 1226.42,-150.18 1230.29,-141.1"/>
<polygon fill="midnightblue" stroke="midnightblue" points="1233.57,-142.32 1234.27,-131.75 1227.13,-139.58 1233.57,-142.32"/>
</g>
<!-- Node33 -->
<g id="node33" class="node">
<title>Node33</title>
<g id="a_node33"><a xlink:href="lib_2Ray_2sources_2Vector_2Vector2_8hpp.html" target="_top" xlink:title=" ">
<polygon fill="white" stroke="black" points="1280,-112.5 1280,-131.5 1388,-131.5 1388,-112.5 1280,-112.5"/>
<text text-anchor="middle" x="1334" y="-119.5" font-family="Helvetica,sans-Serif" font-size="10.00">Vector/Vector2.hpp</text>
</a>
</g>
</g>
<!-- Node31&#45;&gt;Node33 -->
<g id="edge60" class="edge">
<title>Node31&#45;&gt;Node33</title>
<path fill="none" stroke="midnightblue" d="M1233.86,-168.44C1253.27,-159.64 1283.73,-145.81 1305.96,-135.72"/>
<polygon fill="midnightblue" stroke="midnightblue" points="1307.57,-138.84 1315.23,-131.52 1304.68,-132.46 1307.57,-138.84"/>
</g>
<!-- Node33&#45;&gt;Node29 -->
<g id="edge61" class="edge">
<title>Node33&#45;&gt;Node29</title>
<path fill="none" stroke="midnightblue" d="M1339.45,-112.08C1344.01,-104.61 1350.67,-93.72 1356.29,-84.52"/>
<polygon fill="midnightblue" stroke="midnightblue" points="1359.42,-86.11 1361.65,-75.75 1353.45,-82.46 1359.42,-86.11"/>
</g>
</g>
</svg>
