<?xml version="1.0" encoding="UTF-8" standalone="no"?>
<!DOCTYPE svg PUBLIC "-//W3C//DTD SVG 1.1//EN"
 "http://www.w3.org/Graphics/SVG/1.1/DTD/svg11.dtd">
<!-- Generated by graphviz version 2.43.0 (0)
 -->
<!-- Title: sources/Component/Lobby/LobbyComponent.hpp Pages: 1 -->
<svg width="1072pt" height="173pt"
 viewBox="0.00 0.00 1072.00 173.00" xmlns="http://www.w3.org/2000/svg" xmlns:xlink="http://www.w3.org/1999/xlink">
<g id="graph0" class="graph" transform="scale(1 1) rotate(0) translate(4 169)">
<title>sources/Component/Lobby/LobbyComponent.hpp</title>
<polygon fill="white" stroke="transparent" points="-4,4 -4,-169 1068,-169 1068,4 -4,4"/>
<!-- Node1 -->
<g id="node1" class="node">
<title>Node1</title>
<g id="a_node1"><a xlink:title=" ">
<polygon fill="#bfbfbf" stroke="black" points="156,-134.5 156,-164.5 302,-164.5 302,-134.5 156,-134.5"/>
<text text-anchor="start" x="164" y="-152.5" font-family="Helvetica,sans-Serif" font-size="10.00">sources/Component/Lobby</text>
<text text-anchor="middle" x="229" y="-141.5" font-family="Helvetica,sans-Serif" font-size="10.00">/LobbyComponent.hpp</text>
</a>
</g>
</g>
<!-- Node2 -->
<g id="node2" class="node">
<title>Node2</title>
<g id="a_node2"><a xlink:href="LobbyComponent_8cpp.html" target="_top" xlink:title=" ">
<polygon fill="white" stroke="black" points="0,-67.5 0,-97.5 146,-97.5 146,-67.5 0,-67.5"/>
<text text-anchor="start" x="8" y="-85.5" font-family="Helvetica,sans-Serif" font-size="10.00">sources/Component/Lobby</text>
<text text-anchor="middle" x="73" y="-74.5" font-family="Helvetica,sans-Serif" font-size="10.00">/LobbyComponent.cpp</text>
</a>
</g>
</g>
<!-- Node1&#45;&gt;Node2 -->
<g id="edge1" class="edge">
<title>Node1&#45;&gt;Node2</title>
<path fill="none" stroke="midnightblue" d="M185.91,-130.54C160.94,-120.14 129.97,-107.24 106.78,-97.58"/>
<polygon fill="midnightblue" stroke="midnightblue" points="184.57,-133.78 195.15,-134.4 187.27,-127.32 184.57,-133.78"/>
</g>
<!-- Node3 -->
<g id="node3" class="node">
<title>Node3</title>
<g id="a_node3"><a xlink:href="LobbyScene_8cpp.html" target="_top" xlink:title=" ">
<polygon fill="white" stroke="black" points="43.5,-6 43.5,-25 216.5,-25 216.5,-6 43.5,-6"/>
<text text-anchor="middle" x="130" y="-13" font-family="Helvetica,sans-Serif" font-size="10.00">sources/Runner/LobbyScene.cpp</text>
</a>
</g>
</g>
<!-- Node1&#45;&gt;Node3 -->
<g id="edge2" class="edge">
<title>Node1&#45;&gt;Node3</title>
<path fill="none" stroke="midnightblue" d="M212.32,-126.26C190.04,-96.56 151.63,-45.35 136.45,-25.1"/>
<polygon fill="midnightblue" stroke="midnightblue" points="209.61,-128.47 218.41,-134.37 215.21,-124.27 209.61,-128.47"/>
</g>
<!-- Node4 -->
<g id="node4" class="node">
<title>Node4</title>
<g id="a_node4"><a xlink:href="ResumeLobbyScene_8cpp.html" target="_top" xlink:title=" ">
<polygon fill="white" stroke="black" points="202,-67.5 202,-97.5 366,-97.5 366,-67.5 202,-67.5"/>
<text text-anchor="start" x="210" y="-85.5" font-family="Helvetica,sans-Serif" font-size="10.00">sources/Runner/ResumeLobby</text>
<text text-anchor="middle" x="284" y="-74.5" font-family="Helvetica,sans-Serif" font-size="10.00">Scene.cpp</text>
</a>
</g>
</g>
<!-- Node1&#45;&gt;Node4 -->
<g id="edge3" class="edge">
<title>Node1&#45;&gt;Node4</title>
<path fill="none" stroke="midnightblue" d="M247.42,-126.74C255.55,-117.12 264.89,-106.09 272.09,-97.58"/>
<polygon fill="midnightblue" stroke="midnightblue" points="244.72,-124.5 240.93,-134.4 250.07,-129.02 244.72,-124.5"/>
</g>
<!-- Node5 -->
<g id="node5" class="node">
<title>Node5</title>
<g id="a_node5"><a xlink:href="LobbySystem_8hpp.html" target="_top" xlink:title=" ">
<polygon fill="white" stroke="black" points="429,-67.5 429,-97.5 555,-97.5 555,-67.5 429,-67.5"/>
<text text-anchor="start" x="437" y="-85.5" font-family="Helvetica,sans-Serif" font-size="10.00">sources/System/Lobby</text>
<text text-anchor="middle" x="492" y="-74.5" font-family="Helvetica,sans-Serif" font-size="10.00">/LobbySystem.hpp</text>
</a>
</g>
</g>
<!-- Node1&#45;&gt;Node5 -->
<g id="edge4" class="edge">
<title>Node1&#45;&gt;Node5</title>
<path fill="none" stroke="midnightblue" d="M295.55,-132.05C338.55,-121.43 393.92,-107.74 434.91,-97.61"/>
<polygon fill="midnightblue" stroke="midnightblue" points="294.61,-128.68 285.74,-134.48 296.29,-135.47 294.61,-128.68"/>
</g>
<!-- Node5&#45;&gt;Node3 -->
<g id="edge6" class="edge">
<title>Node5&#45;&gt;Node3</title>
<path fill="none" stroke="midnightblue" d="M419.02,-68.4C346.96,-55.46 238.88,-36.05 177.35,-25"/>
<polygon fill="midnightblue" stroke="midnightblue" points="418.48,-71.86 428.94,-70.18 419.72,-64.97 418.48,-71.86"/>
</g>
<!-- Node6 -->
<g id="node6" class="node">
<title>Node6</title>
<g id="a_node6"><a xlink:href="ParserYaml_8cpp.html" target="_top" xlink:title=" ">
<polygon fill="white" stroke="black" points="235,-6 235,-25 399,-25 399,-6 235,-6"/>
<text text-anchor="middle" x="317" y="-13" font-family="Helvetica,sans-Serif" font-size="10.00">sources/Parser/ParserYaml.cpp</text>
</a>
</g>
</g>
<!-- Node5&#45;&gt;Node6 -->
<g id="edge5" class="edge">
<title>Node5&#45;&gt;Node6</title>
<path fill="none" stroke="midnightblue" d="M444.3,-63.78C410.37,-51.18 366.29,-34.81 339.9,-25.01"/>
<polygon fill="midnightblue" stroke="midnightblue" points="443.43,-67.2 454.03,-67.4 445.87,-60.63 443.43,-67.2"/>
</g>
<!-- Node7 -->
<g id="node7" class="node">
<title>Node7</title>
<g id="a_node7"><a xlink:href="Runner_8cpp.html" target="_top" xlink:title=" ">
<polygon fill="white" stroke="black" points="417.5,-6 417.5,-25 566.5,-25 566.5,-6 417.5,-6"/>
<text text-anchor="middle" x="492" y="-13" font-family="Helvetica,sans-Serif" font-size="10.00">sources/Runner/Runner.cpp</text>
</a>
</g>
</g>
<!-- Node5&#45;&gt;Node7 -->
<g id="edge7" class="edge">
<title>Node5&#45;&gt;Node7</title>
<path fill="none" stroke="midnightblue" d="M492,-57.25C492,-46.02 492,-33.38 492,-25.19"/>
<polygon fill="midnightblue" stroke="midnightblue" points="488.5,-57.4 492,-67.4 495.5,-57.4 488.5,-57.4"/>
</g>
<!-- Node8 -->
<g id="node8" class="node">
<title>Node8</title>
<g id="a_node8"><a xlink:href="ScoreScene_8cpp.html" target="_top" xlink:title=" ">
<polygon fill="white" stroke="black" points="584.5,-6 584.5,-25 755.5,-25 755.5,-6 584.5,-6"/>
<text text-anchor="middle" x="670" y="-13" font-family="Helvetica,sans-Serif" font-size="10.00">sources/Runner/ScoreScene.cpp</text>
</a>
</g>
</g>
<!-- Node5&#45;&gt;Node8 -->
<g id="edge8" class="edge">
<title>Node5&#45;&gt;Node8</title>
<path fill="none" stroke="midnightblue" d="M540.07,-63.95C574.64,-51.32 619.75,-34.85 646.7,-25.01"/>
<polygon fill="midnightblue" stroke="midnightblue" points="538.82,-60.68 530.62,-67.4 541.22,-67.25 538.82,-60.68"/>
</g>
<!-- Node9 -->
<g id="node9" class="node">
<title>Node9</title>
<g id="a_node9"><a xlink:href="LobbySystem_8cpp.html" target="_top" xlink:title=" ">
<polygon fill="white" stroke="black" points="774,-0.5 774,-30.5 900,-30.5 900,-0.5 774,-0.5"/>
<text text-anchor="start" x="782" y="-18.5" font-family="Helvetica,sans-Serif" font-size="10.00">sources/System/Lobby</text>
<text text-anchor="middle" x="837" y="-7.5" font-family="Helvetica,sans-Serif" font-size="10.00">/LobbySystem.cpp</text>
</a>
</g>
</g>
<!-- Node5&#45;&gt;Node9 -->
<g id="edge9" class="edge">
<title>Node5&#45;&gt;Node9</title>
<path fill="none" stroke="midnightblue" d="M565.22,-68.28C620.23,-58.27 697.39,-44.06 765,-31 767.88,-30.44 770.82,-29.87 773.8,-29.29"/>
<polygon fill="midnightblue" stroke="midnightblue" points="564.43,-64.87 555.22,-70.1 565.68,-71.75 564.43,-64.87"/>
</g>
<!-- Node10 -->
<g id="node10" class="node">
<title>Node10</title>
<g id="a_node10"><a xlink:href="ResumeLobbySystem_8cpp.html" target="_top" xlink:title=" ">
<polygon fill="white" stroke="black" points="918,-0.5 918,-30.5 1064,-30.5 1064,-0.5 918,-0.5"/>
<text text-anchor="start" x="926" y="-18.5" font-family="Helvetica,sans-Serif" font-size="10.00">sources/System/Lobby</text>
<text text-anchor="middle" x="991" y="-7.5" font-family="Helvetica,sans-Serif" font-size="10.00">/ResumeLobbySystem.cpp</text>
</a>
</g>
</g>
<!-- Node5&#45;&gt;Node10 -->
<g id="edge10" class="edge">
<title>Node5&#45;&gt;Node10</title>
<path fill="none" stroke="midnightblue" d="M565.15,-73.86C648.54,-64.87 788.87,-48.88 909,-31 911.86,-30.57 914.77,-30.13 917.71,-29.66"/>
<polygon fill="midnightblue" stroke="midnightblue" points="564.59,-70.4 555.02,-74.95 565.34,-77.36 564.59,-70.4"/>
</g>
</g>
</svg>
