<?xml version="1.0" encoding="UTF-8" standalone="no"?>
<!DOCTYPE svg PUBLIC "-//W3C//DTD SVG 1.1//EN"
 "http://www.w3.org/Graphics/SVG/1.1/DTD/svg11.dtd">
<!-- Generated by graphviz version 2.43.0 (0)
 -->
<!-- Title: lib/LuaGate/sources/LuaGate.cpp Pages: 1 -->
<svg width="125pt" height="151pt"
 viewBox="0.00 0.00 125.00 151.00" xmlns="http://www.w3.org/2000/svg" xmlns:xlink="http://www.w3.org/1999/xlink">
<g id="graph0" class="graph" transform="scale(1 1) rotate(0) translate(4 147)">
<title>lib/LuaGate/sources/LuaGate.cpp</title>
<polygon fill="white" stroke="transparent" points="-4,4 -4,-147 121,-147 121,4 -4,4"/>
<!-- Node1 -->
<g id="node1" class="node">
<title>Node1</title>
<g id="a_node1"><a xlink:title=" ">
<polygon fill="#bfbfbf" stroke="black" points="0,-112.5 0,-142.5 113,-142.5 113,-112.5 0,-112.5"/>
<text text-anchor="start" x="8" y="-130.5" font-family="Helvetica,sans-Serif" font-size="10.00">lib/LuaGate/sources</text>
<text text-anchor="middle" x="56.5" y="-119.5" font-family="Helvetica,sans-Serif" font-size="10.00">/LuaGate.cpp</text>
</a>
</g>
</g>
<!-- Node2 -->
<g id="node2" class="node">
<title>Node2</title>
<g id="a_node2"><a xlink:href="LuaGate_8hpp.html" target="_top" xlink:title=" ">
<polygon fill="white" stroke="black" points="17.5,-56.5 17.5,-75.5 95.5,-75.5 95.5,-56.5 17.5,-56.5"/>
<text text-anchor="middle" x="56.5" y="-63.5" font-family="Helvetica,sans-Serif" font-size="10.00">LuaGate.hpp</text>
</a>
</g>
</g>
<!-- Node1&#45;&gt;Node2 -->
<g id="edge1" class="edge">
<title>Node1&#45;&gt;Node2</title>
<path fill="none" stroke="midnightblue" d="M56.5,-112.4C56.5,-104.47 56.5,-94.46 56.5,-85.86"/>
<polygon fill="midnightblue" stroke="midnightblue" points="60,-85.66 56.5,-75.66 53,-85.66 60,-85.66"/>
</g>
<!-- Node3 -->
<g id="node3" class="node">
<title>Node3</title>
<g id="a_node3"><a xlink:title=" ">
<polygon fill="white" stroke="#bfbfbf" points="1.5,-0.5 1.5,-19.5 45.5,-19.5 45.5,-0.5 1.5,-0.5"/>
<text text-anchor="middle" x="23.5" y="-7.5" font-family="Helvetica,sans-Serif" font-size="10.00">string</text>
</a>
</g>
</g>
<!-- Node2&#45;&gt;Node3 -->
<g id="edge2" class="edge">
<title>Node2&#45;&gt;Node3</title>
<path fill="none" stroke="midnightblue" d="M51.05,-56.08C46.49,-48.61 39.83,-37.72 34.21,-28.52"/>
<polygon fill="midnightblue" stroke="midnightblue" points="37.05,-26.46 28.85,-19.75 31.08,-30.11 37.05,-26.46"/>
</g>
<!-- Node4 -->
<g id="node4" class="node">
<title>Node4</title>
<g id="a_node4"><a xlink:title=" ">
<polygon fill="white" stroke="#bfbfbf" points="64,-0.5 64,-19.5 117,-19.5 117,-0.5 64,-0.5"/>
<text text-anchor="middle" x="90.5" y="-7.5" font-family="Helvetica,sans-Serif" font-size="10.00">lua.hpp</text>
</a>
</g>
</g>
<!-- Node2&#45;&gt;Node4 -->
<g id="edge3" class="edge">
<title>Node2&#45;&gt;Node4</title>
<path fill="none" stroke="midnightblue" d="M62.11,-56.08C66.87,-48.53 73.82,-37.49 79.65,-28.23"/>
<polygon fill="midnightblue" stroke="midnightblue" points="82.62,-30.08 84.99,-19.75 76.7,-26.35 82.62,-30.08"/>
</g>
</g>
</svg>
