<?xml version="1.0" encoding="UTF-8" standalone="no"?>
<!DOCTYPE svg PUBLIC "-//W3C//DTD SVG 1.1//EN"
 "http://www.w3.org/Graphics/SVG/1.1/DTD/svg11.dtd">
<!-- Generated by graphviz version 2.43.0 (0)
 -->
<!-- Title: sources/Map/LuaMap.hpp Pages: 1 -->
<svg width="420pt" height="162pt"
 viewBox="0.00 0.00 420.00 162.00" xmlns="http://www.w3.org/2000/svg" xmlns:xlink="http://www.w3.org/1999/xlink">
<g id="graph0" class="graph" transform="scale(1 1) rotate(0) translate(4 158)">
<title>sources/Map/LuaMap.hpp</title>
<polygon fill="white" stroke="transparent" points="-4,4 -4,-158 416,-158 416,4 -4,4"/>
<!-- Node1 -->
<g id="node1" class="node">
<title>Node1</title>
<g id="a_node1"><a xlink:title=" ">
<polygon fill="#bfbfbf" stroke="black" points="85,-134.5 85,-153.5 225,-153.5 225,-134.5 85,-134.5"/>
<text text-anchor="middle" x="155" y="-141.5" font-family="Helvetica,sans-Serif" font-size="10.00">sources/Map/LuaMap.hpp</text>
</a>
</g>
</g>
<!-- Node2 -->
<g id="node2" class="node">
<title>Node2</title>
<g id="a_node2"><a xlink:href="LuaMap_8cpp.html" target="_top" xlink:title=" ">
<polygon fill="white" stroke="black" points="0,-73 0,-92 140,-92 140,-73 0,-73"/>
<text text-anchor="middle" x="70" y="-80" font-family="Helvetica,sans-Serif" font-size="10.00">sources/Map/LuaMap.cpp</text>
</a>
</g>
</g>
<!-- Node1&#45;&gt;Node2 -->
<g id="edge1" class="edge">
<title>Node1&#45;&gt;Node2</title>
<path fill="none" stroke="midnightblue" d="M134.45,-128.61C118.1,-117.17 95.78,-101.55 82.16,-92.01"/>
<polygon fill="midnightblue" stroke="midnightblue" points="132.62,-131.61 142.82,-134.48 136.64,-125.87 132.62,-131.61"/>
</g>
<!-- Node3 -->
<g id="node3" class="node">
<title>Node3</title>
<g id="a_node3"><a xlink:href="IAControllableSystem_8hpp.html" target="_top" xlink:title=" ">
<polygon fill="white" stroke="black" points="158,-67.5 158,-97.5 324,-97.5 324,-67.5 158,-67.5"/>
<text text-anchor="start" x="166" y="-85.5" font-family="Helvetica,sans-Serif" font-size="10.00">sources/System/IAControllable</text>
<text text-anchor="middle" x="241" y="-74.5" font-family="Helvetica,sans-Serif" font-size="10.00">/IAControllableSystem.hpp</text>
</a>
</g>
</g>
<!-- Node1&#45;&gt;Node3 -->
<g id="edge2" class="edge">
<title>Node1&#45;&gt;Node3</title>
<path fill="none" stroke="midnightblue" d="M175.61,-128.74C189.28,-119.28 207.13,-106.93 220.73,-97.52"/>
<polygon fill="midnightblue" stroke="midnightblue" points="173.55,-125.91 167.32,-134.48 177.54,-131.66 173.55,-125.91"/>
</g>
<!-- Node4 -->
<g id="node4" class="node">
<title>Node4</title>
<g id="a_node4"><a xlink:href="Runner_8cpp.html" target="_top" xlink:title=" ">
<polygon fill="white" stroke="black" points="78.5,-6 78.5,-25 227.5,-25 227.5,-6 78.5,-6"/>
<text text-anchor="middle" x="153" y="-13" font-family="Helvetica,sans-Serif" font-size="10.00">sources/Runner/Runner.cpp</text>
</a>
</g>
</g>
<!-- Node3&#45;&gt;Node4 -->
<g id="edge3" class="edge">
<title>Node3&#45;&gt;Node4</title>
<path fill="none" stroke="midnightblue" d="M213.66,-61.31C197.14,-49.1 176.93,-34.18 164.52,-25.01"/>
<polygon fill="midnightblue" stroke="midnightblue" points="211.78,-64.27 221.91,-67.4 215.94,-58.64 211.78,-64.27"/>
</g>
<!-- Node5 -->
<g id="node5" class="node">
<title>Node5</title>
<g id="a_node5"><a xlink:href="IAControllableSystem_8cpp.html" target="_top" xlink:title=" ">
<polygon fill="white" stroke="black" points="246,-0.5 246,-30.5 412,-30.5 412,-0.5 246,-0.5"/>
<text text-anchor="start" x="254" y="-18.5" font-family="Helvetica,sans-Serif" font-size="10.00">sources/System/IAControllable</text>
<text text-anchor="middle" x="329" y="-7.5" font-family="Helvetica,sans-Serif" font-size="10.00">/IAControllableSystem.cpp</text>
</a>
</g>
</g>
<!-- Node3&#45;&gt;Node5 -->
<g id="edge4" class="edge">
<title>Node3&#45;&gt;Node5</title>
<path fill="none" stroke="midnightblue" d="M268.14,-61.45C281.68,-51.45 297.73,-39.6 309.94,-30.58"/>
<polygon fill="midnightblue" stroke="midnightblue" points="266.06,-58.64 260.09,-67.4 270.22,-64.27 266.06,-58.64"/>
</g>
</g>
</svg>
