<?xml version="1.0" encoding="UTF-8" standalone="no"?>
<!DOCTYPE svg PUBLIC "-//W3C//DTD SVG 1.1//EN"
 "http://www.w3.org/Graphics/SVG/1.1/DTD/svg11.dtd">
<!-- Generated by graphviz version 2.43.0 (0)
 -->
<!-- Title: sources/Map/Map.hpp Pages: 1 -->
<svg width="1341pt" height="229pt"
 viewBox="0.00 0.00 1340.50 229.00" xmlns="http://www.w3.org/2000/svg" xmlns:xlink="http://www.w3.org/1999/xlink">
<g id="graph0" class="graph" transform="scale(1 1) rotate(0) translate(4 225)">
<title>sources/Map/Map.hpp</title>
<polygon fill="white" stroke="transparent" points="-4,4 -4,-225 1336.5,-225 1336.5,4 -4,4"/>
<!-- Node1 -->
<g id="node1" class="node">
<title>Node1</title>
<g id="a_node1"><a xlink:title=" ">
<polygon fill="#bfbfbf" stroke="black" points="622,-201.5 622,-220.5 745,-220.5 745,-201.5 622,-201.5"/>
<text text-anchor="middle" x="683.5" y="-208.5" font-family="Helvetica,sans-Serif" font-size="10.00">sources/Map/Map.hpp</text>
</a>
</g>
</g>
<!-- Node2 -->
<g id="node2" class="node">
<title>Node2</title>
<g id="a_node2"><a xlink:href="LuaMap_8cpp.html" target="_top" xlink:title=" ">
<polygon fill="white" stroke="black" points="118.5,-140 118.5,-159 258.5,-159 258.5,-140 118.5,-140"/>
<text text-anchor="middle" x="188.5" y="-147" font-family="Helvetica,sans-Serif" font-size="10.00">sources/Map/LuaMap.cpp</text>
</a>
</g>
</g>
<!-- Node1&#45;&gt;Node2 -->
<g id="edge1" class="edge">
<title>Node1&#45;&gt;Node2</title>
<path fill="none" stroke="midnightblue" d="M611.91,-203.87C528.86,-196.39 387.92,-182.54 267.5,-165 255.91,-163.31 243.42,-161.17 231.87,-159.05"/>
<polygon fill="midnightblue" stroke="midnightblue" points="611.73,-207.37 622,-204.78 612.35,-200.4 611.73,-207.37"/>
</g>
<!-- Node3 -->
<g id="node3" class="node">
<title>Node3</title>
<g id="a_node3"><a xlink:href="Map_8cpp.html" target="_top" xlink:title=" ">
<polygon fill="white" stroke="black" points="276.5,-140 276.5,-159 398.5,-159 398.5,-140 276.5,-140"/>
<text text-anchor="middle" x="337.5" y="-147" font-family="Helvetica,sans-Serif" font-size="10.00">sources/Map/Map.cpp</text>
</a>
</g>
</g>
<!-- Node1&#45;&gt;Node3 -->
<g id="edge2" class="edge">
<title>Node1&#45;&gt;Node3</title>
<path fill="none" stroke="midnightblue" d="M616.68,-199.92C560.69,-191.28 478.73,-178.18 407.5,-165 397.74,-163.19 387.24,-161.1 377.42,-159.08"/>
<polygon fill="midnightblue" stroke="midnightblue" points="616.4,-203.42 626.82,-201.48 617.47,-196.5 616.4,-203.42"/>
</g>
<!-- Node4 -->
<g id="node4" class="node">
<title>Node4</title>
<g id="a_node4"><a xlink:href="MapInfo_8hpp.html" target="_top" xlink:title=" ">
<polygon fill="white" stroke="black" points="416.5,-140 416.5,-159 558.5,-159 558.5,-140 416.5,-140"/>
<text text-anchor="middle" x="487.5" y="-147" font-family="Helvetica,sans-Serif" font-size="10.00">sources/Map/MapInfo.hpp</text>
</a>
</g>
</g>
<!-- Node1&#45;&gt;Node4 -->
<g id="edge3" class="edge">
<title>Node1&#45;&gt;Node4</title>
<path fill="none" stroke="midnightblue" d="M645.71,-198.53C607.62,-186.96 549.71,-169.38 515.53,-159.01"/>
<polygon fill="midnightblue" stroke="midnightblue" points="644.83,-201.92 655.42,-201.48 646.87,-195.22 644.83,-201.92"/>
</g>
<!-- Node10 -->
<g id="node10" class="node">
<title>Node10</title>
<g id="a_node10"><a xlink:href="ParserYaml_8cpp.html" target="_top" xlink:title=" ">
<polygon fill="white" stroke="black" points="546.5,-73 546.5,-92 710.5,-92 710.5,-73 546.5,-73"/>
<text text-anchor="middle" x="628.5" y="-80" font-family="Helvetica,sans-Serif" font-size="10.00">sources/Parser/ParserYaml.cpp</text>
</a>
</g>
</g>
<!-- Node1&#45;&gt;Node10 -->
<g id="edge9" class="edge">
<title>Node1&#45;&gt;Node10</title>
<path fill="none" stroke="midnightblue" d="M667.48,-193.67C660.4,-185.62 652.56,-175.42 647.5,-165 635.45,-140.17 630.82,-107.3 629.23,-92.01"/>
<polygon fill="midnightblue" stroke="midnightblue" points="665.08,-196.22 674.43,-201.19 670.22,-191.47 665.08,-196.22"/>
</g>
<!-- Node11 -->
<g id="node11" class="node">
<title>Node11</title>
<g id="a_node11"><a xlink:href="ParserYaml_8hpp.html" target="_top" xlink:title=" ">
<polygon fill="white" stroke="black" points="656.5,-140 656.5,-159 820.5,-159 820.5,-140 656.5,-140"/>
<text text-anchor="middle" x="738.5" y="-147" font-family="Helvetica,sans-Serif" font-size="10.00">sources/Parser/ParserYaml.hpp</text>
</a>
</g>
</g>
<!-- Node1&#45;&gt;Node11 -->
<g id="edge10" class="edge">
<title>Node1&#45;&gt;Node11</title>
<path fill="none" stroke="midnightblue" d="M698.29,-194C708.7,-182.74 722.23,-168.1 730.63,-159.01"/>
<polygon fill="midnightblue" stroke="midnightblue" points="695.6,-191.76 691.38,-201.48 700.74,-196.51 695.6,-191.76"/>
</g>
<!-- Node15 -->
<g id="node15" class="node">
<title>Node15</title>
<g id="a_node15"><a xlink:href="GameScene_8cpp.html" target="_top" xlink:title=" ">
<polygon fill="white" stroke="black" points="839,-140 839,-159 1012,-159 1012,-140 839,-140"/>
<text text-anchor="middle" x="925.5" y="-147" font-family="Helvetica,sans-Serif" font-size="10.00">sources/Runner/GameScene.cpp</text>
</a>
</g>
</g>
<!-- Node1&#45;&gt;Node15 -->
<g id="edge16" class="edge">
<title>Node1&#45;&gt;Node15</title>
<path fill="none" stroke="midnightblue" d="M728.07,-199.04C775.05,-187.49 848.06,-169.54 890.89,-159.01"/>
<polygon fill="midnightblue" stroke="midnightblue" points="727.05,-195.69 718.17,-201.48 728.72,-202.49 727.05,-195.69"/>
</g>
<!-- Node16 -->
<g id="node16" class="node">
<title>Node16</title>
<g id="a_node16"><a xlink:href="BombHolderSystem_8cpp.html" target="_top" xlink:title=" ">
<polygon fill="white" stroke="black" points="1030.5,-134.5 1030.5,-164.5 1188.5,-164.5 1188.5,-134.5 1030.5,-134.5"/>
<text text-anchor="start" x="1038.5" y="-152.5" font-family="Helvetica,sans-Serif" font-size="10.00">sources/System/BombHolder</text>
<text text-anchor="middle" x="1109.5" y="-141.5" font-family="Helvetica,sans-Serif" font-size="10.00">/BombHolderSystem.cpp</text>
</a>
</g>
</g>
<!-- Node1&#45;&gt;Node16 -->
<g id="edge17" class="edge">
<title>Node1&#45;&gt;Node16</title>
<path fill="none" stroke="midnightblue" d="M755.5,-201.07C823.99,-192.42 929.88,-178.64 1021.5,-165 1024.41,-164.57 1027.37,-164.12 1030.36,-163.66"/>
<polygon fill="midnightblue" stroke="midnightblue" points="754.74,-197.64 745.26,-202.36 755.62,-204.58 754.74,-197.64"/>
</g>
<!-- Node17 -->
<g id="node17" class="node">
<title>Node17</title>
<g id="a_node17"><a xlink:href="LobbySystem_8cpp.html" target="_top" xlink:title=" ">
<polygon fill="white" stroke="black" points="1206.5,-134.5 1206.5,-164.5 1332.5,-164.5 1332.5,-134.5 1206.5,-134.5"/>
<text text-anchor="start" x="1214.5" y="-152.5" font-family="Helvetica,sans-Serif" font-size="10.00">sources/System/Lobby</text>
<text text-anchor="middle" x="1269.5" y="-141.5" font-family="Helvetica,sans-Serif" font-size="10.00">/LobbySystem.cpp</text>
</a>
</g>
</g>
<!-- Node1&#45;&gt;Node17 -->
<g id="edge18" class="edge">
<title>Node1&#45;&gt;Node17</title>
<path fill="none" stroke="midnightblue" d="M755.32,-206.24C854.96,-200.46 1040.58,-187.6 1197.5,-165 1200.4,-164.58 1203.37,-164.12 1206.35,-163.63"/>
<polygon fill="midnightblue" stroke="midnightblue" points="754.86,-202.77 745.07,-206.83 755.26,-209.75 754.86,-202.77"/>
</g>
<!-- Node5 -->
<g id="node5" class="node">
<title>Node5</title>
<g id="a_node5"><a xlink:href="IAControllableComponent_8cpp.html" target="_top" xlink:title=" ">
<polygon fill="white" stroke="black" points="0,-67.5 0,-97.5 185,-97.5 185,-67.5 0,-67.5"/>
<text text-anchor="start" x="8" y="-85.5" font-family="Helvetica,sans-Serif" font-size="10.00">sources/Component/IAControllable</text>
<text text-anchor="middle" x="92.5" y="-74.5" font-family="Helvetica,sans-Serif" font-size="10.00">/IAControllableComponent.cpp</text>
</a>
</g>
</g>
<!-- Node4&#45;&gt;Node5 -->
<g id="edge4" class="edge">
<title>Node4&#45;&gt;Node5</title>
<path fill="none" stroke="midnightblue" d="M431.38,-138.18C423.37,-136.75 415.23,-135.32 407.5,-134 332.02,-121.11 246.2,-107.42 183.22,-97.54"/>
<polygon fill="midnightblue" stroke="midnightblue" points="430.96,-141.66 441.42,-139.98 432.19,-134.77 430.96,-141.66"/>
</g>
<!-- Node6 -->
<g id="node6" class="node">
<title>Node6</title>
<g id="a_node6"><a xlink:href="MapInfo_8cpp.html" target="_top" xlink:title=" ">
<polygon fill="white" stroke="black" points="203,-73 203,-92 344,-92 344,-73 203,-73"/>
<text text-anchor="middle" x="273.5" y="-80" font-family="Helvetica,sans-Serif" font-size="10.00">sources/Map/MapInfo.cpp</text>
</a>
</g>
</g>
<!-- Node4&#45;&gt;Node6 -->
<g id="edge5" class="edge">
<title>Node4&#45;&gt;Node6</title>
<path fill="none" stroke="midnightblue" d="M449.4,-136.93C407.03,-124.06 339.58,-103.57 301.69,-92.06"/>
<polygon fill="midnightblue" stroke="midnightblue" points="448.5,-140.31 459.08,-139.87 450.53,-133.61 448.5,-140.31"/>
</g>
<!-- Node7 -->
<g id="node7" class="node">
<title>Node7</title>
<g id="a_node7"><a xlink:href="IAControllableSystem_8hpp.html" target="_top" xlink:title=" ">
<polygon fill="white" stroke="black" points="362.5,-67.5 362.5,-97.5 528.5,-97.5 528.5,-67.5 362.5,-67.5"/>
<text text-anchor="start" x="370.5" y="-85.5" font-family="Helvetica,sans-Serif" font-size="10.00">sources/System/IAControllable</text>
<text text-anchor="middle" x="445.5" y="-74.5" font-family="Helvetica,sans-Serif" font-size="10.00">/IAControllableSystem.hpp</text>
</a>
</g>
</g>
<!-- Node4&#45;&gt;Node7 -->
<g id="edge6" class="edge">
<title>Node4&#45;&gt;Node7</title>
<path fill="none" stroke="midnightblue" d="M476.21,-131.03C469.44,-120.56 460.94,-107.4 454.6,-97.59"/>
<polygon fill="midnightblue" stroke="midnightblue" points="473.47,-133.23 481.84,-139.73 479.35,-129.44 473.47,-133.23"/>
</g>
<!-- Node8 -->
<g id="node8" class="node">
<title>Node8</title>
<g id="a_node8"><a xlink:href="Runner_8cpp.html" target="_top" xlink:title=" ">
<polygon fill="white" stroke="black" points="605,-6 605,-25 754,-25 754,-6 605,-6"/>
<text text-anchor="middle" x="679.5" y="-13" font-family="Helvetica,sans-Serif" font-size="10.00">sources/Runner/Runner.cpp</text>
</a>
</g>
</g>
<!-- Node7&#45;&gt;Node8 -->
<g id="edge7" class="edge">
<title>Node7&#45;&gt;Node8</title>
<path fill="none" stroke="midnightblue" d="M505.8,-64.75C551.56,-52.04 612.59,-35.09 648.8,-25.03"/>
<polygon fill="midnightblue" stroke="midnightblue" points="504.68,-61.43 495.99,-67.48 506.56,-68.17 504.68,-61.43"/>
</g>
<!-- Node9 -->
<g id="node9" class="node">
<title>Node9</title>
<g id="a_node9"><a xlink:href="IAControllableSystem_8cpp.html" target="_top" xlink:title=" ">
<polygon fill="white" stroke="black" points="362.5,-0.5 362.5,-30.5 528.5,-30.5 528.5,-0.5 362.5,-0.5"/>
<text text-anchor="start" x="370.5" y="-18.5" font-family="Helvetica,sans-Serif" font-size="10.00">sources/System/IAControllable</text>
<text text-anchor="middle" x="445.5" y="-7.5" font-family="Helvetica,sans-Serif" font-size="10.00">/IAControllableSystem.cpp</text>
</a>
</g>
</g>
<!-- Node7&#45;&gt;Node9 -->
<g id="edge8" class="edge">
<title>Node7&#45;&gt;Node9</title>
<path fill="none" stroke="midnightblue" d="M445.5,-57.11C445.5,-48.15 445.5,-38.32 445.5,-30.58"/>
<polygon fill="midnightblue" stroke="midnightblue" points="442,-57.4 445.5,-67.4 449,-57.4 442,-57.4"/>
</g>
<!-- Node11&#45;&gt;Node8 -->
<g id="edge14" class="edge">
<title>Node11&#45;&gt;Node8</title>
<path fill="none" stroke="midnightblue" d="M736.5,-129.72C734.15,-112.68 729.24,-87.2 719.5,-67 711.63,-50.68 697.7,-34.79 688.53,-25.33"/>
<polygon fill="midnightblue" stroke="midnightblue" points="733.07,-130.5 737.75,-140 740.02,-129.65 733.07,-130.5"/>
</g>
<!-- Node11&#45;&gt;Node10 -->
<g id="edge11" class="edge">
<title>Node11&#45;&gt;Node10</title>
<path fill="none" stroke="midnightblue" d="M715,-134.62C693.21,-121.74 661.46,-102.98 643.1,-92.13"/>
<polygon fill="midnightblue" stroke="midnightblue" points="713.28,-137.66 723.66,-139.73 716.84,-131.63 713.28,-137.66"/>
</g>
<!-- Node12 -->
<g id="node12" class="node">
<title>Node12</title>
<g id="a_node12"><a xlink:href="MainMenuScene_8cpp.html" target="_top" xlink:title=" ">
<polygon fill="white" stroke="black" points="766,-73 766,-92 961,-92 961,-73 766,-73"/>
<text text-anchor="middle" x="863.5" y="-80" font-family="Helvetica,sans-Serif" font-size="10.00">sources/Runner/MainMenuScene.cpp</text>
</a>
</g>
</g>
<!-- Node11&#45;&gt;Node12 -->
<g id="edge12" class="edge">
<title>Node11&#45;&gt;Node12</title>
<path fill="none" stroke="midnightblue" d="M764.26,-135.1C789.02,-122.23 825.69,-103.16 846.83,-92.17"/>
<polygon fill="midnightblue" stroke="midnightblue" points="762.36,-132.15 755.1,-139.87 765.59,-138.36 762.36,-132.15"/>
</g>
<!-- Node13 -->
<g id="node13" class="node">
<title>Node13</title>
<g id="a_node13"><a xlink:href="PauseMenuScene_8cpp.html" target="_top" xlink:title=" ">
<polygon fill="white" stroke="black" points="978.5,-67.5 978.5,-97.5 1128.5,-97.5 1128.5,-67.5 978.5,-67.5"/>
<text text-anchor="start" x="986.5" y="-85.5" font-family="Helvetica,sans-Serif" font-size="10.00">sources/Runner/PauseMenu</text>
<text text-anchor="middle" x="1053.5" y="-74.5" font-family="Helvetica,sans-Serif" font-size="10.00">Scene.cpp</text>
</a>
</g>
</g>
<!-- Node11&#45;&gt;Node13 -->
<g id="edge13" class="edge">
<title>Node11&#45;&gt;Node13</title>
<path fill="none" stroke="midnightblue" d="M789.91,-137.89C843.16,-126.9 926.65,-109.68 985.37,-97.56"/>
<polygon fill="midnightblue" stroke="midnightblue" points="789.09,-134.49 780,-139.94 790.51,-141.34 789.09,-134.49"/>
</g>
<!-- Node14 -->
<g id="node14" class="node">
<title>Node14</title>
<g id="a_node14"><a xlink:href="ResumeLobbySystem_8cpp.html" target="_top" xlink:title=" ">
<polygon fill="white" stroke="black" points="1146.5,-67.5 1146.5,-97.5 1292.5,-97.5 1292.5,-67.5 1146.5,-67.5"/>
<text text-anchor="start" x="1154.5" y="-85.5" font-family="Helvetica,sans-Serif" font-size="10.00">sources/System/Lobby</text>
<text text-anchor="middle" x="1219.5" y="-74.5" font-family="Helvetica,sans-Serif" font-size="10.00">/ResumeLobbySystem.cpp</text>
</a>
</g>
</g>
<!-- Node11&#45;&gt;Node14 -->
<g id="edge15" class="edge">
<title>Node11&#45;&gt;Node14</title>
<path fill="none" stroke="midnightblue" d="M800.43,-138.4C810.47,-136.86 820.77,-135.34 830.5,-134 966.6,-115.3 1001.58,-117.97 1137.5,-98 1140.36,-97.58 1143.27,-97.14 1146.22,-96.68"/>
<polygon fill="midnightblue" stroke="midnightblue" points="799.85,-134.94 790.51,-139.94 800.93,-141.86 799.85,-134.94"/>
</g>
</g>
</svg>
