<?xml version="1.0" encoding="UTF-8" standalone="no"?>
<!DOCTYPE svg PUBLIC "-//W3C//DTD SVG 1.1//EN"
 "http://www.w3.org/Graphics/SVG/1.1/DTD/svg11.dtd">
<!-- Generated by graphviz version 2.43.0 (0)
 -->
<!-- Title: lib/Ray/sources/Meshes/MeshSphere.cpp Pages: 1 -->
<svg width="153pt" height="207pt"
 viewBox="0.00 0.00 152.50 207.00" xmlns="http://www.w3.org/2000/svg" xmlns:xlink="http://www.w3.org/1999/xlink">
<g id="graph0" class="graph" transform="scale(1 1) rotate(0) translate(4 203)">
<title>lib/Ray/sources/Meshes/MeshSphere.cpp</title>
<polygon fill="white" stroke="transparent" points="-4,4 -4,-203 148.5,-203 148.5,4 -4,4"/>
<!-- Node1 -->
<g id="node1" class="node">
<title>Node1</title>
<g id="a_node1"><a xlink:title=" ">
<polygon fill="#bfbfbf" stroke="black" points="0,-168.5 0,-198.5 131,-198.5 131,-168.5 0,-168.5"/>
<text text-anchor="start" x="8" y="-186.5" font-family="Helvetica,sans-Serif" font-size="10.00">lib/Ray/sources/Meshes</text>
<text text-anchor="middle" x="65.5" y="-175.5" font-family="Helvetica,sans-Serif" font-size="10.00">/MeshSphere.cpp</text>
</a>
</g>
</g>
<!-- Node2 -->
<g id="node2" class="node">
<title>Node2</title>
<g id="a_node2"><a xlink:href="MeshSphere_8hpp.html" target="_top" xlink:title=" ">
<polygon fill="white" stroke="black" points="16.5,-112.5 16.5,-131.5 114.5,-131.5 114.5,-112.5 16.5,-112.5"/>
<text text-anchor="middle" x="65.5" y="-119.5" font-family="Helvetica,sans-Serif" font-size="10.00">MeshSphere.hpp</text>
</a>
</g>
</g>
<!-- Node1&#45;&gt;Node2 -->
<g id="edge1" class="edge">
<title>Node1&#45;&gt;Node2</title>
<path fill="none" stroke="midnightblue" d="M65.5,-168.4C65.5,-160.47 65.5,-150.46 65.5,-141.86"/>
<polygon fill="midnightblue" stroke="midnightblue" points="69,-141.66 65.5,-131.66 62,-141.66 69,-141.66"/>
</g>
<!-- Node3 -->
<g id="node3" class="node">
<title>Node3</title>
<g id="a_node3"><a xlink:title=" ">
<polygon fill="white" stroke="#bfbfbf" points="2,-0.5 2,-19.5 55,-19.5 55,-0.5 2,-0.5"/>
<text text-anchor="middle" x="28.5" y="-7.5" font-family="Helvetica,sans-Serif" font-size="10.00">raylib.h</text>
</a>
</g>
</g>
<!-- Node2&#45;&gt;Node3 -->
<g id="edge2" class="edge">
<title>Node2&#45;&gt;Node3</title>
<path fill="none" stroke="midnightblue" d="M52.44,-112.44C41.59,-104.47 26.93,-91.52 20.5,-76 14.32,-61.08 17.46,-42.71 21.48,-29.31"/>
<polygon fill="midnightblue" stroke="midnightblue" points="24.81,-30.38 24.73,-19.79 18.19,-28.12 24.81,-30.38"/>
</g>
<!-- Node4 -->
<g id="node4" class="node">
<title>Node4</title>
<g id="a_node4"><a xlink:href="AMesh_8hpp.html" target="_top" xlink:title=" ">
<polygon fill="white" stroke="black" points="30,-56.5 30,-75.5 101,-75.5 101,-56.5 30,-56.5"/>
<text text-anchor="middle" x="65.5" y="-63.5" font-family="Helvetica,sans-Serif" font-size="10.00">AMesh.hpp</text>
</a>
</g>
</g>
<!-- Node2&#45;&gt;Node4 -->
<g id="edge3" class="edge">
<title>Node2&#45;&gt;Node4</title>
<path fill="none" stroke="midnightblue" d="M65.5,-112.08C65.5,-105.01 65.5,-94.86 65.5,-85.99"/>
<polygon fill="midnightblue" stroke="midnightblue" points="69,-85.75 65.5,-75.75 62,-85.75 69,-85.75"/>
</g>
<!-- Node5 -->
<g id="node5" class="node">
<title>Node5</title>
<g id="a_node5"><a xlink:title=" ">
<polygon fill="white" stroke="#bfbfbf" points="86.5,-0.5 86.5,-19.5 144.5,-19.5 144.5,-0.5 86.5,-0.5"/>
<text text-anchor="middle" x="115.5" y="-7.5" font-family="Helvetica,sans-Serif" font-size="10.00">memory</text>
</a>
</g>
</g>
<!-- Node2&#45;&gt;Node5 -->
<g id="edge6" class="edge">
<title>Node2&#45;&gt;Node5</title>
<path fill="none" stroke="midnightblue" d="M78.27,-112.31C88.93,-104.26 103.48,-91.26 110.5,-76 117.15,-61.54 118,-43.35 117.42,-29.9"/>
<polygon fill="midnightblue" stroke="midnightblue" points="120.91,-29.61 116.69,-19.89 113.93,-30.12 120.91,-29.61"/>
</g>
<!-- Node4&#45;&gt;Node3 -->
<g id="edge4" class="edge">
<title>Node4&#45;&gt;Node3</title>
<path fill="none" stroke="midnightblue" d="M59.39,-56.08C54.22,-48.53 46.65,-37.49 40.31,-28.23"/>
<polygon fill="midnightblue" stroke="midnightblue" points="43.04,-26.02 34.5,-19.75 37.26,-29.98 43.04,-26.02"/>
</g>
<!-- Node4&#45;&gt;Node5 -->
<g id="edge5" class="edge">
<title>Node4&#45;&gt;Node5</title>
<path fill="none" stroke="midnightblue" d="M73.76,-56.08C80.96,-48.3 91.61,-36.8 100.35,-27.37"/>
<polygon fill="midnightblue" stroke="midnightblue" points="103.17,-29.47 107.4,-19.75 98.03,-24.71 103.17,-29.47"/>
</g>
</g>
</svg>
