<?xml version="1.0" encoding="UTF-8" standalone="no"?>
<!DOCTYPE svg PUBLIC "-//W3C//DTD SVG 1.1//EN"
 "http://www.w3.org/Graphics/SVG/1.1/DTD/svg11.dtd">
<!-- Generated by graphviz version 2.43.0 (0)
 -->
<!-- Title: lib/Ray/sources/Model/Model.cpp Pages: 1 -->
<svg width="1668pt" height="599pt"
 viewBox="0.00 0.00 1668.00 599.00" xmlns="http://www.w3.org/2000/svg" xmlns:xlink="http://www.w3.org/1999/xlink">
<g id="graph0" class="graph" transform="scale(1 1) rotate(0) translate(4 595)">
<title>lib/Ray/sources/Model/Model.cpp</title>
<polygon fill="white" stroke="transparent" points="-4,4 -4,-595 1664,-595 1664,4 -4,4"/>
<!-- Node1 -->
<g id="node1" class="node">
<title>Node1</title>
<g id="a_node1"><a xlink:title=" ">
<polygon fill="#bfbfbf" stroke="black" points="1109,-560.5 1109,-590.5 1233,-590.5 1233,-560.5 1109,-560.5"/>
<text text-anchor="start" x="1117" y="-578.5" font-family="Helvetica,sans-Serif" font-size="10.00">lib/Ray/sources/Model</text>
<text text-anchor="middle" x="1171" y="-567.5" font-family="Helvetica,sans-Serif" font-size="10.00">/Model.cpp</text>
</a>
</g>
</g>
<!-- Node2 -->
<g id="node2" class="node">
<title>Node2</title>
<g id="a_node2"><a xlink:href="Model_8hpp.html" target="_top" xlink:title=" ">
<polygon fill="white" stroke="black" points="1120.5,-504.5 1120.5,-523.5 1221.5,-523.5 1221.5,-504.5 1120.5,-504.5"/>
<text text-anchor="middle" x="1171" y="-511.5" font-family="Helvetica,sans-Serif" font-size="10.00">Model/Model.hpp</text>
</a>
</g>
</g>
<!-- Node1&#45;&gt;Node2 -->
<g id="edge1" class="edge">
<title>Node1&#45;&gt;Node2</title>
<path fill="none" stroke="midnightblue" d="M1171,-560.4C1171,-552.47 1171,-542.46 1171,-533.86"/>
<polygon fill="midnightblue" stroke="midnightblue" points="1174.5,-533.66 1171,-523.66 1167.5,-533.66 1174.5,-533.66"/>
</g>
<!-- Node8 -->
<g id="node8" class="node">
<title>Node8</title>
<g id="a_node8"><a xlink:title=" ">
<polygon fill="white" stroke="#bfbfbf" points="1199.5,-224.5 1199.5,-243.5 1292.5,-243.5 1292.5,-224.5 1199.5,-224.5"/>
<text text-anchor="middle" x="1246" y="-231.5" font-family="Helvetica,sans-Serif" font-size="10.00">unordered_map</text>
</a>
</g>
</g>
<!-- Node1&#45;&gt;Node8 -->
<g id="edge74" class="edge">
<title>Node1&#45;&gt;Node8</title>
<path fill="none" stroke="midnightblue" d="M1233.04,-562.11C1283.42,-548.43 1351.29,-520.93 1384,-468 1434.6,-386.13 1316.03,-286.21 1266.49,-249.45"/>
<polygon fill="midnightblue" stroke="midnightblue" points="1268.51,-246.59 1258.37,-243.53 1264.39,-252.25 1268.51,-246.59"/>
</g>
<!-- Node11 -->
<g id="node11" class="node">
<title>Node11</title>
<g id="a_node11"><a xlink:href="RayError_8hpp.html" target="_top" xlink:title=" ">
<polygon fill="white" stroke="black" points="969.5,-224.5 969.5,-243.5 1104.5,-243.5 1104.5,-224.5 969.5,-224.5"/>
<text text-anchor="middle" x="1037" y="-231.5" font-family="Helvetica,sans-Serif" font-size="10.00">Exceptions/RayError.hpp</text>
</a>
</g>
</g>
<!-- Node1&#45;&gt;Node11 -->
<g id="edge73" class="edge">
<title>Node1&#45;&gt;Node11</title>
<path fill="none" stroke="midnightblue" d="M1134.72,-560.37C1096.57,-542.85 1042,-509.05 1042,-459 1042,-459 1042,-459 1042,-345 1042,-312.91 1039.85,-275.62 1038.37,-253.74"/>
<polygon fill="midnightblue" stroke="midnightblue" points="1041.85,-253.28 1037.65,-243.55 1034.86,-253.77 1041.85,-253.28"/>
</g>
<!-- Node3 -->
<g id="node3" class="node">
<title>Node3</title>
<g id="a_node3"><a xlink:href="Texture_8hpp.html" target="_top" xlink:title=" ">
<polygon fill="white" stroke="black" points="456,-448.5 456,-467.5 584,-467.5 584,-448.5 456,-448.5"/>
<text text-anchor="middle" x="520" y="-455.5" font-family="Helvetica,sans-Serif" font-size="10.00">Drawables/Texture.hpp</text>
</a>
</g>
</g>
<!-- Node2&#45;&gt;Node3 -->
<g id="edge2" class="edge">
<title>Node2&#45;&gt;Node3</title>
<path fill="none" stroke="midnightblue" d="M1120.46,-508.81C1006.33,-499.34 728.19,-476.27 594.35,-465.17"/>
<polygon fill="midnightblue" stroke="midnightblue" points="594.45,-461.66 584.19,-464.32 593.87,-468.64 594.45,-461.66"/>
</g>
<!-- Node4 -->
<g id="node4" class="node">
<title>Node4</title>
<g id="a_node4"><a xlink:title=" ">
<polygon fill="white" stroke="#bfbfbf" points="515.5,-0.5 515.5,-19.5 568.5,-19.5 568.5,-0.5 515.5,-0.5"/>
<text text-anchor="middle" x="542" y="-7.5" font-family="Helvetica,sans-Serif" font-size="10.00">raylib.h</text>
</a>
</g>
</g>
<!-- Node2&#45;&gt;Node4 -->
<g id="edge66" class="edge">
<title>Node2&#45;&gt;Node4</title>
<path fill="none" stroke="midnightblue" d="M1221.95,-508.08C1347.19,-492.89 1660,-434.95 1660,-235 1660,-235 1660,-235 1660,-121 1660,-9.74 771.74,-9.43 578.72,-10.67"/>
<polygon fill="midnightblue" stroke="midnightblue" points="578.51,-7.17 568.53,-10.74 578.56,-14.17 578.51,-7.17"/>
</g>
<!-- Node6 -->
<g id="node6" class="node">
<title>Node6</title>
<g id="a_node6"><a xlink:href="Cache_8hpp.html" target="_top" xlink:title=" ">
<polygon fill="white" stroke="black" points="776.5,-280.5 776.5,-299.5 869.5,-299.5 869.5,-280.5 776.5,-280.5"/>
<text text-anchor="middle" x="823" y="-287.5" font-family="Helvetica,sans-Serif" font-size="10.00">Utils/Cache.hpp</text>
</a>
</g>
</g>
<!-- Node2&#45;&gt;Node6 -->
<g id="edge72" class="edge">
<title>Node2&#45;&gt;Node6</title>
<path fill="none" stroke="midnightblue" d="M1150.77,-504.39C1102.32,-483.26 976.91,-425.44 886,-356 867.18,-341.62 848.68,-321.64 836.65,-307.64"/>
<polygon fill="midnightblue" stroke="midnightblue" points="839.17,-305.2 830.05,-299.8 833.81,-309.71 839.17,-305.2"/>
</g>
<!-- Node13 -->
<g id="node13" class="node">
<title>Node13</title>
<g id="a_node13"><a xlink:title=" ">
<polygon fill="white" stroke="#bfbfbf" points="1109.5,-112.5 1109.5,-131.5 1156.5,-131.5 1156.5,-112.5 1109.5,-112.5"/>
<text text-anchor="middle" x="1133" y="-119.5" font-family="Helvetica,sans-Serif" font-size="10.00">vector</text>
</a>
</g>
</g>
<!-- Node2&#45;&gt;Node13 -->
<g id="edge70" class="edge">
<title>Node2&#45;&gt;Node13</title>
<path fill="none" stroke="midnightblue" d="M1205.87,-504.4C1250.75,-491 1323,-460.49 1323,-403 1323,-403 1323,-403 1323,-345 1323,-314.77 1323.4,-303.01 1343,-280 1369.52,-248.87 1439.56,-257.42 1416,-224 1358.44,-142.35 1228.63,-126.34 1166.88,-123.45"/>
<polygon fill="midnightblue" stroke="midnightblue" points="1166.65,-119.94 1156.52,-123.06 1166.38,-126.94 1166.65,-119.94"/>
</g>
<!-- Node21 -->
<g id="node21" class="node">
<title>Node21</title>
<g id="a_node21"><a xlink:title=" ">
<polygon fill="white" stroke="#bfbfbf" points="1161,-168.5 1161,-187.5 1217,-187.5 1217,-168.5 1161,-168.5"/>
<text text-anchor="middle" x="1189" y="-175.5" font-family="Helvetica,sans-Serif" font-size="10.00">optional</text>
</a>
</g>
</g>
<!-- Node2&#45;&gt;Node21 -->
<g id="edge71" class="edge">
<title>Node2&#45;&gt;Node21</title>
<path fill="none" stroke="midnightblue" d="M1171,-504.44C1171,-485.94 1171,-440.81 1171,-403 1171,-403 1171,-403 1171,-289 1171,-256.54 1178.73,-219.38 1184.06,-197.63"/>
<polygon fill="midnightblue" stroke="midnightblue" points="1187.49,-198.32 1186.57,-187.76 1180.71,-196.59 1187.49,-198.32"/>
</g>
<!-- Node31 -->
<g id="node31" class="node">
<title>Node31</title>
<g id="a_node31"><a xlink:href="ADrawable3D_8hpp.html" target="_top" xlink:title=" ">
<polygon fill="white" stroke="black" points="319.5,-336.5 319.5,-355.5 478.5,-355.5 478.5,-336.5 319.5,-336.5"/>
<text text-anchor="middle" x="399" y="-343.5" font-family="Helvetica,sans-Serif" font-size="10.00">Drawables/ADrawable3D.hpp</text>
</a>
</g>
</g>
<!-- Node2&#45;&gt;Node31 -->
<g id="edge52" class="edge">
<title>Node2&#45;&gt;Node31</title>
<path fill="none" stroke="midnightblue" d="M1131.39,-504.48C1001.9,-476.64 591.26,-388.34 448.49,-357.64"/>
<polygon fill="midnightblue" stroke="midnightblue" points="449.2,-354.21 438.68,-355.53 447.73,-361.06 449.2,-354.21"/>
</g>
<!-- Node32 -->
<g id="node32" class="node">
<title>Node32</title>
<g id="a_node32"><a xlink:href="ModelAnimation_8hpp.html" target="_top" xlink:title=" ">
<polygon fill="white" stroke="black" points="1351.5,-280.5 1351.5,-299.5 1502.5,-299.5 1502.5,-280.5 1351.5,-280.5"/>
<text text-anchor="middle" x="1427" y="-287.5" font-family="Helvetica,sans-Serif" font-size="10.00">Model/ModelAnimation.hpp</text>
</a>
</g>
</g>
<!-- Node2&#45;&gt;Node32 -->
<g id="edge56" class="edge">
<title>Node2&#45;&gt;Node32</title>
<path fill="none" stroke="midnightblue" d="M1221.87,-511.25C1258.12,-507.4 1305.79,-496.7 1337,-468 1382.96,-425.75 1352.38,-389.22 1385,-336 1391.6,-325.23 1401.06,-314.81 1409.33,-306.71"/>
<polygon fill="midnightblue" stroke="midnightblue" points="1411.88,-309.13 1416.77,-299.73 1407.08,-304.03 1411.88,-309.13"/>
</g>
<!-- Node33 -->
<g id="node33" class="node">
<title>Node33</title>
<g id="a_node33"><a xlink:href="Shaders_8hpp.html" target="_top" xlink:title=" ">
<polygon fill="white" stroke="black" points="894.5,-336.5 894.5,-355.5 1013.5,-355.5 1013.5,-336.5 894.5,-336.5"/>
<text text-anchor="middle" x="954" y="-343.5" font-family="Helvetica,sans-Serif" font-size="10.00">Shaders/Shaders.hpp</text>
</a>
</g>
</g>
<!-- Node2&#45;&gt;Node33 -->
<g id="edge59" class="edge">
<title>Node2&#45;&gt;Node33</title>
<path fill="none" stroke="midnightblue" d="M1167.86,-504.22C1159.47,-482.02 1134.4,-423.2 1094,-392 1072.33,-375.26 1044.24,-364.65 1018.91,-357.97"/>
<polygon fill="midnightblue" stroke="midnightblue" points="1019.54,-354.52 1009,-355.51 1017.86,-361.32 1019.54,-354.52"/>
</g>
<!-- Node35 -->
<g id="node35" class="node">
<title>Node35</title>
<g id="a_node35"><a xlink:href="AMesh_8hpp.html" target="_top" xlink:title=" ">
<polygon fill="white" stroke="black" points="1520.5,-280.5 1520.5,-299.5 1631.5,-299.5 1631.5,-280.5 1520.5,-280.5"/>
<text text-anchor="middle" x="1576" y="-287.5" font-family="Helvetica,sans-Serif" font-size="10.00">Meshes/AMesh.hpp</text>
</a>
</g>
</g>
<!-- Node2&#45;&gt;Node35 -->
<g id="edge67" class="edge">
<title>Node2&#45;&gt;Node35</title>
<path fill="none" stroke="midnightblue" d="M1221.8,-509.52C1261.64,-504.83 1317.16,-493.82 1359,-468 1396.58,-444.81 1390.01,-421.36 1423,-392 1463.94,-355.57 1519.03,-322.45 1550.7,-304.67"/>
<polygon fill="midnightblue" stroke="midnightblue" points="1552.7,-307.57 1559.74,-299.66 1549.3,-301.45 1552.7,-307.57"/>
</g>
<!-- Node3&#45;&gt;Node4 -->
<g id="edge3" class="edge">
<title>Node3&#45;&gt;Node4</title>
<path fill="none" stroke="midnightblue" d="M455.98,-456.75C316.99,-454.49 0,-439.22 0,-347 0,-347 0,-347 0,-121 0,-83.16 21.44,-73.49 55,-56 133.28,-15.21 405.66,-10.99 505.21,-10.85"/>
<polygon fill="midnightblue" stroke="midnightblue" points="505.38,-14.35 515.38,-10.85 505.38,-7.35 505.38,-14.35"/>
</g>
<!-- Node5 -->
<g id="node5" class="node">
<title>Node5</title>
<g id="a_node5"><a xlink:title=" ">
<polygon fill="white" stroke="#bfbfbf" points="869,-168.5 869,-187.5 913,-187.5 913,-168.5 869,-168.5"/>
<text text-anchor="middle" x="891" y="-175.5" font-family="Helvetica,sans-Serif" font-size="10.00">string</text>
</a>
</g>
</g>
<!-- Node3&#45;&gt;Node5 -->
<g id="edge4" class="edge">
<title>Node3&#45;&gt;Node5</title>
<path fill="none" stroke="midnightblue" d="M520,-448.44C520,-429.94 520,-384.81 520,-347 520,-347 520,-347 520,-289 520,-258.9 515.96,-243.37 539,-224 591.74,-179.66 774.17,-200.23 858.71,-187.7"/>
<polygon fill="midnightblue" stroke="midnightblue" points="859.51,-191.11 868.76,-185.95 858.31,-184.21 859.51,-191.11"/>
</g>
<!-- Node3&#45;&gt;Node6 -->
<g id="edge5" class="edge">
<title>Node3&#45;&gt;Node6</title>
<path fill="none" stroke="midnightblue" d="M535.86,-448.31C585.56,-421.08 738.5,-337.29 798.49,-304.43"/>
<polygon fill="midnightblue" stroke="midnightblue" points="800.2,-307.48 807.29,-299.61 796.84,-301.34 800.2,-307.48"/>
</g>
<!-- Node16 -->
<g id="node16" class="node">
<title>Node16</title>
<g id="a_node16"><a xlink:href="Rectangle_8hpp.html" target="_top" xlink:title=" ">
<polygon fill="white" stroke="black" points="89,-392.5 89,-411.5 247,-411.5 247,-392.5 89,-392.5"/>
<text text-anchor="middle" x="168" y="-399.5" font-family="Helvetica,sans-Serif" font-size="10.00">Drawables/2D/Rectangle.hpp</text>
</a>
</g>
</g>
<!-- Node3&#45;&gt;Node16 -->
<g id="edge18" class="edge">
<title>Node3&#45;&gt;Node16</title>
<path fill="none" stroke="midnightblue" d="M464.22,-448.44C401.53,-438.83 299.85,-423.23 233.45,-413.04"/>
<polygon fill="midnightblue" stroke="midnightblue" points="233.93,-409.57 223.51,-411.52 232.87,-416.49 233.93,-409.57"/>
</g>
<!-- Node6&#45;&gt;Node4 -->
<g id="edge10" class="edge">
<title>Node6&#45;&gt;Node4</title>
<path fill="none" stroke="midnightblue" d="M844.92,-280.39C879.04,-265.37 941,-230.95 941,-179 941,-179 941,-179 941,-121 941,-83.16 919.22,-74.12 886,-56 833.67,-27.46 656.6,-16.15 578.98,-12.49"/>
<polygon fill="midnightblue" stroke="midnightblue" points="578.86,-8.98 568.71,-12.02 578.54,-15.97 578.86,-8.98"/>
</g>
<!-- Node6&#45;&gt;Node5 -->
<g id="edge16" class="edge">
<title>Node6&#45;&gt;Node5</title>
<path fill="none" stroke="midnightblue" d="M828.34,-280.37C839.51,-262.3 865.55,-220.18 880.3,-196.31"/>
<polygon fill="midnightblue" stroke="midnightblue" points="883.41,-197.94 885.69,-187.59 877.45,-194.26 883.41,-197.94"/>
</g>
<!-- Node7 -->
<g id="node7" class="node">
<title>Node7</title>
<g id="a_node7"><a xlink:title=" ">
<polygon fill="white" stroke="#bfbfbf" points="1349,-224.5 1349,-243.5 1407,-243.5 1407,-224.5 1349,-224.5"/>
<text text-anchor="middle" x="1378" y="-231.5" font-family="Helvetica,sans-Serif" font-size="10.00">memory</text>
</a>
</g>
</g>
<!-- Node6&#45;&gt;Node7 -->
<g id="edge6" class="edge">
<title>Node6&#45;&gt;Node7</title>
<path fill="none" stroke="midnightblue" d="M869.71,-281.23C872.85,-280.79 875.97,-280.37 879,-280 1066.27,-257.01 1114.29,-263.1 1302,-244 1313.96,-242.78 1326.96,-241.3 1338.77,-239.9"/>
<polygon fill="midnightblue" stroke="midnightblue" points="1339.28,-243.36 1348.79,-238.69 1338.44,-236.41 1339.28,-243.36"/>
</g>
<!-- Node6&#45;&gt;Node8 -->
<g id="edge7" class="edge">
<title>Node6&#45;&gt;Node8</title>
<path fill="none" stroke="midnightblue" d="M869.73,-281.36C872.87,-280.88 875.98,-280.43 879,-280 988.5,-264.49 1116.82,-249.48 1189.05,-241.32"/>
<polygon fill="midnightblue" stroke="midnightblue" points="1189.74,-244.76 1199.29,-240.16 1188.96,-237.8 1189.74,-244.76"/>
</g>
<!-- Node9 -->
<g id="node9" class="node">
<title>Node9</title>
<g id="a_node9"><a xlink:title=" ">
<polygon fill="white" stroke="#bfbfbf" points="548.5,-224.5 548.5,-243.5 613.5,-243.5 613.5,-224.5 548.5,-224.5"/>
<text text-anchor="middle" x="581" y="-231.5" font-family="Helvetica,sans-Serif" font-size="10.00">functional</text>
</a>
</g>
</g>
<!-- Node6&#45;&gt;Node9 -->
<g id="edge8" class="edge">
<title>Node6&#45;&gt;Node9</title>
<path fill="none" stroke="midnightblue" d="M784.65,-280.44C740.79,-270.66 669.17,-254.67 623.6,-244.51"/>
<polygon fill="midnightblue" stroke="midnightblue" points="624.26,-241.07 613.73,-242.3 622.73,-247.9 624.26,-241.07"/>
</g>
<!-- Node10 -->
<g id="node10" class="node">
<title>Node10</title>
<g id="a_node10"><a xlink:title=" ">
<polygon fill="white" stroke="#bfbfbf" points="631.5,-224.5 631.5,-243.5 676.5,-243.5 676.5,-224.5 631.5,-224.5"/>
<text text-anchor="middle" x="654" y="-231.5" font-family="Helvetica,sans-Serif" font-size="10.00">utility</text>
</a>
</g>
</g>
<!-- Node6&#45;&gt;Node10 -->
<g id="edge9" class="edge">
<title>Node6&#45;&gt;Node10</title>
<path fill="none" stroke="midnightblue" d="M796.22,-280.44C766.41,-270.92 718.23,-255.52 686.34,-245.33"/>
<polygon fill="midnightblue" stroke="midnightblue" points="687.19,-241.93 676.6,-242.22 685.06,-248.6 687.19,-241.93"/>
</g>
<!-- Node6&#45;&gt;Node11 -->
<g id="edge11" class="edge">
<title>Node6&#45;&gt;Node11</title>
<path fill="none" stroke="midnightblue" d="M856.91,-280.44C893.85,-271.12 953.05,-256.18 993.42,-246"/>
<polygon fill="midnightblue" stroke="midnightblue" points="994.41,-249.36 1003.25,-243.52 992.7,-242.57 994.41,-249.36"/>
</g>
<!-- Node6&#45;&gt;Node13 -->
<g id="edge14" class="edge">
<title>Node6&#45;&gt;Node13</title>
<path fill="none" stroke="midnightblue" d="M869.75,-281.46C872.88,-280.96 875.98,-280.47 879,-280 931.19,-271.81 1076.57,-281.29 1114,-244 1141.15,-216.95 1139.49,-168 1136.13,-141.41"/>
<polygon fill="midnightblue" stroke="midnightblue" points="1139.59,-140.89 1134.66,-131.51 1132.66,-141.91 1139.59,-140.89"/>
</g>
<!-- Node14 -->
<g id="node14" class="node">
<title>Node14</title>
<g id="a_node14"><a xlink:title=" ">
<polygon fill="white" stroke="#bfbfbf" points="695,-224.5 695,-243.5 759,-243.5 759,-224.5 695,-224.5"/>
<text text-anchor="middle" x="727" y="-231.5" font-family="Helvetica,sans-Serif" font-size="10.00">algorithm</text>
</a>
</g>
</g>
<!-- Node6&#45;&gt;Node14 -->
<g id="edge15" class="edge">
<title>Node6&#45;&gt;Node14</title>
<path fill="none" stroke="midnightblue" d="M807.58,-280.32C792.46,-271.82 769.18,-258.73 751.53,-248.8"/>
<polygon fill="midnightblue" stroke="midnightblue" points="752.82,-245.51 742.39,-243.65 749.39,-251.61 752.82,-245.51"/>
</g>
<!-- Node15 -->
<g id="node15" class="node">
<title>Node15</title>
<g id="a_node15"><a xlink:title=" ">
<polygon fill="white" stroke="#bfbfbf" points="777,-224.5 777,-243.5 837,-243.5 837,-224.5 777,-224.5"/>
<text text-anchor="middle" x="807" y="-231.5" font-family="Helvetica,sans-Serif" font-size="10.00">iostream</text>
</a>
</g>
</g>
<!-- Node6&#45;&gt;Node15 -->
<g id="edge17" class="edge">
<title>Node6&#45;&gt;Node15</title>
<path fill="none" stroke="midnightblue" d="M820.36,-280.08C818.21,-272.85 815.12,-262.41 812.45,-253.4"/>
<polygon fill="midnightblue" stroke="midnightblue" points="815.79,-252.34 809.59,-243.75 809.08,-254.33 815.79,-252.34"/>
</g>
<!-- Node11&#45;&gt;Node5 -->
<g id="edge13" class="edge">
<title>Node11&#45;&gt;Node5</title>
<path fill="none" stroke="midnightblue" d="M1013.87,-224.44C989.23,-215.33 950.08,-200.85 922.61,-190.69"/>
<polygon fill="midnightblue" stroke="midnightblue" points="923.66,-187.35 913.07,-187.16 921.24,-193.91 923.66,-187.35"/>
</g>
<!-- Node12 -->
<g id="node12" class="node">
<title>Node12</title>
<g id="a_node12"><a xlink:title=" ">
<polygon fill="white" stroke="#bfbfbf" points="1004.5,-168.5 1004.5,-187.5 1069.5,-187.5 1069.5,-168.5 1004.5,-168.5"/>
<text text-anchor="middle" x="1037" y="-175.5" font-family="Helvetica,sans-Serif" font-size="10.00">stdexcept</text>
</a>
</g>
</g>
<!-- Node11&#45;&gt;Node12 -->
<g id="edge12" class="edge">
<title>Node11&#45;&gt;Node12</title>
<path fill="none" stroke="midnightblue" d="M1037,-224.08C1037,-217.01 1037,-206.86 1037,-197.99"/>
<polygon fill="midnightblue" stroke="midnightblue" points="1040.5,-197.75 1037,-187.75 1033.5,-197.75 1040.5,-197.75"/>
</g>
<!-- Node16&#45;&gt;Node4 -->
<g id="edge19" class="edge">
<title>Node16&#45;&gt;Node4</title>
<path fill="none" stroke="midnightblue" d="M142.32,-392.47C104.43,-378.07 38,-345.1 38,-291 38,-291 38,-291 38,-121 38,-83.72 58.17,-73.64 91,-56 162.33,-17.67 410.48,-11.89 505.03,-11.09"/>
<polygon fill="midnightblue" stroke="midnightblue" points="505.28,-14.59 515.26,-11.02 505.23,-7.59 505.28,-14.59"/>
</g>
<!-- Node17 -->
<g id="node17" class="node">
<title>Node17</title>
<g id="a_node17"><a xlink:href="ADrawable2D_8hpp.html" target="_top" xlink:title=" ">
<polygon fill="white" stroke="black" points="88.5,-336.5 88.5,-355.5 247.5,-355.5 247.5,-336.5 88.5,-336.5"/>
<text text-anchor="middle" x="168" y="-343.5" font-family="Helvetica,sans-Serif" font-size="10.00">Drawables/ADrawable2D.hpp</text>
</a>
</g>
</g>
<!-- Node16&#45;&gt;Node17 -->
<g id="edge20" class="edge">
<title>Node16&#45;&gt;Node17</title>
<path fill="none" stroke="midnightblue" d="M168,-392.08C168,-385.01 168,-374.86 168,-365.99"/>
<polygon fill="midnightblue" stroke="midnightblue" points="171.5,-365.75 168,-355.75 164.5,-365.75 171.5,-365.75"/>
</g>
<!-- Node17&#45;&gt;Node4 -->
<g id="edge21" class="edge">
<title>Node17&#45;&gt;Node4</title>
<path fill="none" stroke="midnightblue" d="M152.81,-336.27C126.68,-319.98 76,-282.3 76,-235 76,-235 76,-235 76,-121 76,-85.35 92.17,-73.89 123,-56 187.53,-18.55 415.2,-12.21 505.09,-11.18"/>
<polygon fill="midnightblue" stroke="midnightblue" points="505.39,-14.68 515.35,-11.08 505.32,-7.68 505.39,-14.68"/>
</g>
<!-- Node18 -->
<g id="node18" class="node">
<title>Node18</title>
<g id="a_node18"><a xlink:href="lib_2Ray_2sources_2Vector_2Vector2_8hpp.html" target="_top" xlink:title=" ">
<polygon fill="white" stroke="black" points="180,-112.5 180,-131.5 288,-131.5 288,-112.5 180,-112.5"/>
<text text-anchor="middle" x="234" y="-119.5" font-family="Helvetica,sans-Serif" font-size="10.00">Vector/Vector2.hpp</text>
</a>
</g>
</g>
<!-- Node17&#45;&gt;Node18 -->
<g id="edge22" class="edge">
<title>Node17&#45;&gt;Node18</title>
<path fill="none" stroke="midnightblue" d="M170.59,-336.3C180.32,-303.56 214.86,-187.38 228.45,-141.67"/>
<polygon fill="midnightblue" stroke="midnightblue" points="231.86,-142.47 231.36,-131.88 225.15,-140.47 231.86,-142.47"/>
</g>
<!-- Node19 -->
<g id="node19" class="node">
<title>Node19</title>
<g id="a_node19"><a xlink:href="IDrawable_8hpp.html" target="_top" xlink:title=" ">
<polygon fill="white" stroke="black" points="274,-280.5 274,-299.5 416,-299.5 416,-280.5 274,-280.5"/>
<text text-anchor="middle" x="345" y="-287.5" font-family="Helvetica,sans-Serif" font-size="10.00">Drawables/IDrawable.hpp</text>
</a>
</g>
</g>
<!-- Node17&#45;&gt;Node19 -->
<g id="edge24" class="edge">
<title>Node17&#45;&gt;Node19</title>
<path fill="none" stroke="midnightblue" d="M196.05,-336.44C226.08,-327.28 273.91,-312.69 307.24,-302.52"/>
<polygon fill="midnightblue" stroke="midnightblue" points="308.54,-305.78 317.09,-299.52 306.5,-299.09 308.54,-305.78"/>
</g>
<!-- Node30 -->
<g id="node30" class="node">
<title>Node30</title>
<g id="a_node30"><a xlink:href="Color_8hpp.html" target="_top" xlink:title=" ">
<polygon fill="white" stroke="black" points="104,-168.5 104,-187.5 166,-187.5 166,-168.5 104,-168.5"/>
<text text-anchor="middle" x="135" y="-175.5" font-family="Helvetica,sans-Serif" font-size="10.00">Color.hpp</text>
</a>
</g>
</g>
<!-- Node17&#45;&gt;Node30 -->
<g id="edge51" class="edge">
<title>Node17&#45;&gt;Node30</title>
<path fill="none" stroke="midnightblue" d="M166.23,-336.08C161.03,-309.95 145.78,-233.21 138.69,-197.58"/>
<polygon fill="midnightblue" stroke="midnightblue" points="142.09,-196.69 136.7,-187.57 135.22,-198.06 142.09,-196.69"/>
</g>
<!-- Node18&#45;&gt;Node4 -->
<g id="edge23" class="edge">
<title>Node18&#45;&gt;Node4</title>
<path fill="none" stroke="midnightblue" d="M239,-112.16C247.62,-97.82 266.69,-69.73 291,-56 359.38,-17.38 453.51,-10.67 504.87,-10.2"/>
<polygon fill="midnightblue" stroke="midnightblue" points="505.16,-13.7 515.16,-10.18 505.15,-6.7 505.16,-13.7"/>
</g>
<!-- Node20 -->
<g id="node20" class="node">
<title>Node20</title>
<g id="a_node20"><a xlink:href="Window_8hpp.html" target="_top" xlink:title=" ">
<polygon fill="white" stroke="black" points="333,-224.5 333,-243.5 409,-243.5 409,-224.5 333,-224.5"/>
<text text-anchor="middle" x="371" y="-231.5" font-family="Helvetica,sans-Serif" font-size="10.00">Window.hpp</text>
</a>
</g>
</g>
<!-- Node19&#45;&gt;Node20 -->
<g id="edge25" class="edge">
<title>Node19&#45;&gt;Node20</title>
<path fill="none" stroke="midnightblue" d="M349.29,-280.08C352.85,-272.69 358.02,-261.95 362.42,-252.81"/>
<polygon fill="midnightblue" stroke="midnightblue" points="365.6,-254.28 366.79,-243.75 359.29,-251.24 365.6,-254.28"/>
</g>
<!-- Node20&#45;&gt;Node4 -->
<g id="edge26" class="edge">
<title>Node20&#45;&gt;Node4</title>
<path fill="none" stroke="midnightblue" d="M332.83,-226.86C264.67,-214.07 132.61,-179.92 171,-112 194.74,-70 218.7,-72.6 264,-56 346.85,-25.64 451.04,-15.72 505.32,-12.51"/>
<polygon fill="midnightblue" stroke="midnightblue" points="505.69,-16 515.48,-11.96 505.31,-9.01 505.69,-16"/>
</g>
<!-- Node20&#45;&gt;Node5 -->
<g id="edge27" class="edge">
<title>Node20&#45;&gt;Node5</title>
<path fill="none" stroke="midnightblue" d="M409.08,-230.44C505.08,-223.84 756.09,-205.64 858.73,-187.84"/>
<polygon fill="midnightblue" stroke="midnightblue" points="859.56,-191.24 868.77,-186 858.31,-184.36 859.56,-191.24"/>
</g>
<!-- Node20&#45;&gt;Node18 -->
<g id="edge29" class="edge">
<title>Node20&#45;&gt;Node18</title>
<path fill="none" stroke="midnightblue" d="M350.86,-224.49C333.44,-216.56 308.11,-203.62 289,-188 271.91,-174.03 256.05,-154.25 245.79,-140.18"/>
<polygon fill="midnightblue" stroke="midnightblue" points="248.55,-138.02 239.91,-131.89 242.84,-142.07 248.55,-138.02"/>
</g>
<!-- Node20&#45;&gt;Node21 -->
<g id="edge28" class="edge">
<title>Node20&#45;&gt;Node21</title>
<path fill="none" stroke="midnightblue" d="M409.01,-230.83C515.05,-224.71 823.18,-206.59 1079,-188 1102.87,-186.27 1129.63,-184.08 1150.78,-182.3"/>
<polygon fill="midnightblue" stroke="midnightblue" points="1151.31,-185.77 1160.98,-181.43 1150.72,-178.79 1151.31,-185.77"/>
</g>
<!-- Node22 -->
<g id="node22" class="node">
<title>Node22</title>
<g id="a_node22"><a xlink:href="lib_2Ray_2sources_2Vector_2Vector3_8hpp.html" target="_top" xlink:title=" ">
<polygon fill="white" stroke="black" points="596,-112.5 596,-131.5 704,-131.5 704,-112.5 596,-112.5"/>
<text text-anchor="middle" x="650" y="-119.5" font-family="Helvetica,sans-Serif" font-size="10.00">Vector/Vector3.hpp</text>
</a>
</g>
</g>
<!-- Node20&#45;&gt;Node22 -->
<g id="edge30" class="edge">
<title>Node20&#45;&gt;Node22</title>
<path fill="none" stroke="midnightblue" d="M409.46,-226.26C467.3,-215.92 571.61,-196.47 587,-188 608.21,-176.33 626.7,-155.17 638.07,-140.17"/>
<polygon fill="midnightblue" stroke="midnightblue" points="641.13,-141.9 644.19,-131.76 635.47,-137.79 641.13,-141.9"/>
</g>
<!-- Node23 -->
<g id="node23" class="node">
<title>Node23</title>
<g id="a_node23"><a xlink:href="Keyboard_8hpp.html" target="_top" xlink:title=" ">
<polygon fill="white" stroke="black" points="711,-168.5 711,-187.5 851,-187.5 851,-168.5 711,-168.5"/>
<text text-anchor="middle" x="781" y="-175.5" font-family="Helvetica,sans-Serif" font-size="10.00">Controllers/Keyboard.hpp</text>
</a>
</g>
</g>
<!-- Node20&#45;&gt;Node23 -->
<g id="edge32" class="edge">
<title>Node20&#45;&gt;Node23</title>
<path fill="none" stroke="midnightblue" d="M409.2,-227.97C476.8,-219.07 618.6,-200.39 706.23,-188.85"/>
<polygon fill="midnightblue" stroke="midnightblue" points="706.91,-192.29 716.37,-187.51 706,-185.35 706.91,-192.29"/>
</g>
<!-- Node24 -->
<g id="node24" class="node">
<title>Node24</title>
<g id="a_node24"><a xlink:href="Camera2D_8hpp.html" target="_top" xlink:title=" ">
<polygon fill="white" stroke="black" points="298.5,-168.5 298.5,-187.5 429.5,-187.5 429.5,-168.5 298.5,-168.5"/>
<text text-anchor="middle" x="364" y="-175.5" font-family="Helvetica,sans-Serif" font-size="10.00">Camera/Camera2D.hpp</text>
</a>
</g>
</g>
<!-- Node20&#45;&gt;Node24 -->
<g id="edge35" class="edge">
<title>Node20&#45;&gt;Node24</title>
<path fill="none" stroke="midnightblue" d="M369.84,-224.08C368.92,-216.93 367.58,-206.64 366.42,-197.69"/>
<polygon fill="midnightblue" stroke="midnightblue" points="369.89,-197.22 365.13,-187.75 362.95,-198.12 369.89,-197.22"/>
</g>
<!-- Node27 -->
<g id="node27" class="node">
<title>Node27</title>
<g id="a_node27"><a xlink:href="Camera3D_8hpp.html" target="_top" xlink:title=" ">
<polygon fill="white" stroke="black" points="447.5,-168.5 447.5,-187.5 578.5,-187.5 578.5,-168.5 447.5,-168.5"/>
<text text-anchor="middle" x="513" y="-175.5" font-family="Helvetica,sans-Serif" font-size="10.00">Camera/Camera3D.hpp</text>
</a>
</g>
</g>
<!-- Node20&#45;&gt;Node27 -->
<g id="edge41" class="edge">
<title>Node20&#45;&gt;Node27</title>
<path fill="none" stroke="midnightblue" d="M393.5,-224.44C417.08,-215.48 454.32,-201.31 480.96,-191.18"/>
<polygon fill="midnightblue" stroke="midnightblue" points="482.5,-194.34 490.6,-187.52 480.01,-187.8 482.5,-194.34"/>
</g>
<!-- Node20&#45;&gt;Node30 -->
<g id="edge49" class="edge">
<title>Node20&#45;&gt;Node30</title>
<path fill="none" stroke="midnightblue" d="M333.61,-224.44C290.68,-214.62 220.49,-198.56 176.08,-188.4"/>
<polygon fill="midnightblue" stroke="midnightblue" points="176.72,-184.96 166.19,-186.14 175.16,-191.78 176.72,-184.96"/>
</g>
<!-- Node22&#45;&gt;Node4 -->
<g id="edge31" class="edge">
<title>Node22&#45;&gt;Node4</title>
<path fill="none" stroke="midnightblue" d="M704.34,-115.36C757.09,-107.74 825.23,-90.87 796,-56 768.68,-23.41 642.09,-14.41 578.57,-11.93"/>
<polygon fill="midnightblue" stroke="midnightblue" points="578.69,-8.44 568.57,-11.58 578.44,-15.43 578.69,-8.44"/>
</g>
<!-- Node23&#45;&gt;Node4 -->
<g id="edge33" class="edge">
<title>Node23&#45;&gt;Node4</title>
<path fill="none" stroke="midnightblue" d="M795.43,-168.36C827.88,-147.9 901.19,-95.26 867,-56 829.97,-13.49 655.91,-9.82 578.85,-10.33"/>
<polygon fill="midnightblue" stroke="midnightblue" points="578.62,-6.84 568.65,-10.43 578.68,-13.84 578.62,-6.84"/>
</g>
<!-- Node23&#45;&gt;Node13 -->
<g id="edge34" class="edge">
<title>Node23&#45;&gt;Node13</title>
<path fill="none" stroke="midnightblue" d="M836.78,-168.44C910.66,-157.11 1038.68,-137.47 1099.31,-128.17"/>
<polygon fill="midnightblue" stroke="midnightblue" points="1100.12,-131.59 1109.47,-126.61 1099.06,-124.67 1100.12,-131.59"/>
</g>
<!-- Node24&#45;&gt;Node4 -->
<g id="edge36" class="edge">
<title>Node24&#45;&gt;Node4</title>
<path fill="none" stroke="midnightblue" d="M356.19,-168.38C337.82,-147.05 295.49,-90.99 324,-56 346.41,-28.49 448.87,-17.29 504.99,-13.16"/>
<polygon fill="midnightblue" stroke="midnightblue" points="505.49,-16.63 515.23,-12.44 505.01,-9.65 505.49,-16.63"/>
</g>
<!-- Node24&#45;&gt;Node18 -->
<g id="edge37" class="edge">
<title>Node24&#45;&gt;Node18</title>
<path fill="none" stroke="midnightblue" d="M343.4,-168.44C322.01,-159.56 288.32,-145.56 263.98,-135.45"/>
<polygon fill="midnightblue" stroke="midnightblue" points="265.08,-132.12 254.5,-131.52 262.39,-138.58 265.08,-132.12"/>
</g>
<!-- Node25 -->
<g id="node25" class="node">
<title>Node25</title>
<g id="a_node25"><a xlink:href="ICamera_8hpp.html" target="_top" xlink:title=" ">
<polygon fill="white" stroke="black" points="344,-112.5 344,-131.5 464,-131.5 464,-112.5 344,-112.5"/>
<text text-anchor="middle" x="404" y="-119.5" font-family="Helvetica,sans-Serif" font-size="10.00">Camera/ICamera.hpp</text>
</a>
</g>
</g>
<!-- Node24&#45;&gt;Node25 -->
<g id="edge38" class="edge">
<title>Node24&#45;&gt;Node25</title>
<path fill="none" stroke="midnightblue" d="M370.61,-168.08C376.26,-160.46 384.54,-149.26 391.45,-139.94"/>
<polygon fill="midnightblue" stroke="midnightblue" points="394.38,-141.87 397.52,-131.75 388.75,-137.7 394.38,-141.87"/>
</g>
<!-- Node26 -->
<g id="node26" class="node">
<title>Node26</title>
<g id="a_node26"><a xlink:href="Matrix_8hpp.html" target="_top" xlink:title=" ">
<polygon fill="white" stroke="black" points="333.5,-56.5 333.5,-75.5 402.5,-75.5 402.5,-56.5 333.5,-56.5"/>
<text text-anchor="middle" x="368" y="-63.5" font-family="Helvetica,sans-Serif" font-size="10.00">Matrix.hpp</text>
</a>
</g>
</g>
<!-- Node25&#45;&gt;Node26 -->
<g id="edge39" class="edge">
<title>Node25&#45;&gt;Node26</title>
<path fill="none" stroke="midnightblue" d="M398.06,-112.08C393.02,-104.53 385.66,-93.49 379.49,-84.23"/>
<polygon fill="midnightblue" stroke="midnightblue" points="382.29,-82.13 373.83,-75.75 376.47,-86.01 382.29,-82.13"/>
</g>
<!-- Node26&#45;&gt;Node4 -->
<g id="edge40" class="edge">
<title>Node26&#45;&gt;Node4</title>
<path fill="none" stroke="midnightblue" d="M395.57,-56.44C425.36,-47.2 472.95,-32.43 505.75,-22.25"/>
<polygon fill="midnightblue" stroke="midnightblue" points="506.9,-25.56 515.41,-19.25 504.83,-18.87 506.9,-25.56"/>
</g>
<!-- Node27&#45;&gt;Node4 -->
<g id="edge42" class="edge">
<title>Node27&#45;&gt;Node4</title>
<path fill="none" stroke="midnightblue" d="M507.61,-168.14C499.97,-155.6 485.53,-131.98 473,-112 462.91,-95.91 455.32,-94.22 450,-76 447.51,-67.47 445.29,-63.54 450,-56 462.16,-36.52 485.47,-25.24 505.59,-18.84"/>
<polygon fill="midnightblue" stroke="midnightblue" points="506.8,-22.14 515.44,-16.01 504.86,-15.41 506.8,-22.14"/>
</g>
<!-- Node27&#45;&gt;Node22 -->
<g id="edge43" class="edge">
<title>Node27&#45;&gt;Node22</title>
<path fill="none" stroke="midnightblue" d="M534.71,-168.44C557.35,-159.52 593.07,-145.44 618.75,-135.32"/>
<polygon fill="midnightblue" stroke="midnightblue" points="620.37,-138.44 628.39,-131.52 617.81,-131.93 620.37,-138.44"/>
</g>
<!-- Node27&#45;&gt;Node25 -->
<g id="edge44" class="edge">
<title>Node27&#45;&gt;Node25</title>
<path fill="none" stroke="midnightblue" d="M495.49,-168.32C477.93,-159.62 450.67,-146.12 430.47,-136.11"/>
<polygon fill="midnightblue" stroke="midnightblue" points="431.98,-132.96 421.47,-131.65 428.88,-139.23 431.98,-132.96"/>
</g>
<!-- Node28 -->
<g id="node28" class="node">
<title>Node28</title>
<g id="a_node28"><a xlink:href="CameraProjection_8hpp.html" target="_top" xlink:title=" ">
<polygon fill="white" stroke="black" points="459,-56.5 459,-75.5 625,-75.5 625,-56.5 459,-56.5"/>
<text text-anchor="middle" x="542" y="-63.5" font-family="Helvetica,sans-Serif" font-size="10.00">Camera/CameraProjection.hpp</text>
</a>
</g>
</g>
<!-- Node27&#45;&gt;Node28 -->
<g id="edge45" class="edge">
<title>Node27&#45;&gt;Node28</title>
<path fill="none" stroke="midnightblue" d="M515.28,-168.37C519.98,-150.54 530.85,-109.3 537.18,-85.27"/>
<polygon fill="midnightblue" stroke="midnightblue" points="540.57,-86.15 539.73,-75.59 533.8,-84.37 540.57,-86.15"/>
</g>
<!-- Node29 -->
<g id="node29" class="node">
<title>Node29</title>
<g id="a_node29"><a xlink:href="CameraMode_8hpp.html" target="_top" xlink:title=" ">
<polygon fill="white" stroke="black" points="643,-56.5 643,-75.5 787,-75.5 787,-56.5 643,-56.5"/>
<text text-anchor="middle" x="715" y="-63.5" font-family="Helvetica,sans-Serif" font-size="10.00">Camera/CameraMode.hpp</text>
</a>
</g>
</g>
<!-- Node27&#45;&gt;Node29 -->
<g id="edge47" class="edge">
<title>Node27&#45;&gt;Node29</title>
<path fill="none" stroke="midnightblue" d="M520.82,-168.24C533.5,-154.52 559.84,-127.89 587,-112 612.76,-96.93 644.37,-85.75 669.73,-78.31"/>
<polygon fill="midnightblue" stroke="midnightblue" points="670.81,-81.64 679.47,-75.54 668.9,-74.91 670.81,-81.64"/>
</g>
<!-- Node28&#45;&gt;Node4 -->
<g id="edge46" class="edge">
<title>Node28&#45;&gt;Node4</title>
<path fill="none" stroke="midnightblue" d="M542,-56.08C542,-49.01 542,-38.86 542,-29.99"/>
<polygon fill="midnightblue" stroke="midnightblue" points="545.5,-29.75 542,-19.75 538.5,-29.75 545.5,-29.75"/>
</g>
<!-- Node29&#45;&gt;Node4 -->
<g id="edge48" class="edge">
<title>Node29&#45;&gt;Node4</title>
<path fill="none" stroke="midnightblue" d="M687.59,-56.44C658.06,-47.23 610.93,-32.52 578.33,-22.34"/>
<polygon fill="midnightblue" stroke="midnightblue" points="579.3,-18.98 568.72,-19.34 577.22,-25.66 579.3,-18.98"/>
</g>
<!-- Node30&#45;&gt;Node4 -->
<g id="edge50" class="edge">
<title>Node30&#45;&gt;Node4</title>
<path fill="none" stroke="midnightblue" d="M131.84,-168.29C124.47,-146.24 108.88,-87.74 138,-56 162.63,-29.15 410.42,-16.34 505.3,-12.38"/>
<polygon fill="midnightblue" stroke="midnightblue" points="505.46,-15.88 515.31,-11.98 505.17,-8.89 505.46,-15.88"/>
</g>
<!-- Node31&#45;&gt;Node4 -->
<g id="edge53" class="edge">
<title>Node31&#45;&gt;Node4</title>
<path fill="none" stroke="midnightblue" d="M405.41,-336.45C422.05,-314.8 468.91,-257.15 520,-224 557.53,-199.65 573.49,-206.98 614,-188 706.26,-144.78 762.48,-163.89 814,-76 818.49,-68.33 819.75,-62.78 814,-56 784.24,-20.92 645.83,-13.15 578.7,-11.45"/>
<polygon fill="midnightblue" stroke="midnightblue" points="578.64,-7.95 568.57,-11.23 578.49,-14.95 578.64,-7.95"/>
</g>
<!-- Node31&#45;&gt;Node19 -->
<g id="edge54" class="edge">
<title>Node31&#45;&gt;Node19</title>
<path fill="none" stroke="midnightblue" d="M390.08,-336.08C382.22,-328.22 370.57,-316.57 361.08,-307.08"/>
<polygon fill="midnightblue" stroke="midnightblue" points="363.3,-304.35 353.75,-299.75 358.35,-309.3 363.3,-304.35"/>
</g>
<!-- Node31&#45;&gt;Node30 -->
<g id="edge55" class="edge">
<title>Node31&#45;&gt;Node30</title>
<path fill="none" stroke="midnightblue" d="M359.58,-336.48C331.83,-329.38 294.53,-317.57 265,-300 216.2,-270.96 170.33,-221.08 148.43,-195.37"/>
<polygon fill="midnightblue" stroke="midnightblue" points="151.06,-193.06 141.96,-187.64 145.7,-197.56 151.06,-193.06"/>
</g>
<!-- Node32&#45;&gt;Node4 -->
<g id="edge57" class="edge">
<title>Node32&#45;&gt;Node4</title>
<path fill="none" stroke="midnightblue" d="M1433.4,-280.39C1446.04,-262.5 1473,-219.57 1473,-179 1473,-179 1473,-179 1473,-121 1473,-53.2 1400.71,-72.67 1335,-56 1189.08,-18.98 715.23,-12.38 578.97,-11.23"/>
<polygon fill="midnightblue" stroke="midnightblue" points="578.68,-7.73 568.65,-11.15 578.62,-14.73 578.68,-7.73"/>
</g>
<!-- Node32&#45;&gt;Node7 -->
<g id="edge58" class="edge">
<title>Node32&#45;&gt;Node7</title>
<path fill="none" stroke="midnightblue" d="M1418.91,-280.08C1411.84,-272.3 1401.41,-260.8 1392.85,-251.37"/>
<polygon fill="midnightblue" stroke="midnightblue" points="1395.25,-248.8 1385.94,-243.75 1390.07,-253.51 1395.25,-248.8"/>
</g>
<!-- Node33&#45;&gt;Node4 -->
<g id="edge63" class="edge">
<title>Node33&#45;&gt;Node4</title>
<path fill="none" stroke="midnightblue" d="M990.6,-336.48C1075.34,-316.48 1279.49,-266.47 1302,-244 1323.3,-222.74 1321,-209.1 1321,-179 1321,-179 1321,-179 1321,-121 1321,-45.14 734.29,-18.1 579.22,-12.28"/>
<polygon fill="midnightblue" stroke="midnightblue" points="578.94,-8.77 568.81,-11.9 578.68,-15.76 578.94,-8.77"/>
</g>
<!-- Node33&#45;&gt;Node5 -->
<g id="edge60" class="edge">
<title>Node33&#45;&gt;Node5</title>
<path fill="none" stroke="midnightblue" d="M951.88,-336.48C948.67,-323.95 942.21,-299.9 935,-280 924.24,-250.29 909.04,-216.87 899.62,-196.89"/>
<polygon fill="midnightblue" stroke="midnightblue" points="902.73,-195.29 895.27,-187.76 896.41,-198.3 902.73,-195.29"/>
</g>
<!-- Node33&#45;&gt;Node6 -->
<g id="edge64" class="edge">
<title>Node33&#45;&gt;Node6</title>
<path fill="none" stroke="midnightblue" d="M933.24,-336.44C911.68,-327.56 877.74,-313.56 853.21,-303.45"/>
<polygon fill="midnightblue" stroke="midnightblue" points="854.24,-300.09 843.66,-299.52 851.57,-306.56 854.24,-300.09"/>
</g>
<!-- Node33&#45;&gt;Node7 -->
<g id="edge61" class="edge">
<title>Node33&#45;&gt;Node7</title>
<path fill="none" stroke="midnightblue" d="M1013.65,-339.03C1068.75,-332.58 1152.49,-320.38 1223,-300 1270.05,-286.4 1322.03,-262.69 1352.25,-247.98"/>
<polygon fill="midnightblue" stroke="midnightblue" points="1353.84,-251.1 1361.27,-243.54 1350.75,-244.82 1353.84,-251.1"/>
</g>
<!-- Node33&#45;&gt;Node22 -->
<g id="edge65" class="edge">
<title>Node33&#45;&gt;Node22</title>
<path fill="none" stroke="midnightblue" d="M894.14,-339.38C790.01,-328.22 582.47,-299.43 539,-244 504.89,-200.5 580.14,-219.94 614,-188 627.76,-175.02 637.57,-155.59 643.44,-141.35"/>
<polygon fill="midnightblue" stroke="midnightblue" points="646.84,-142.26 647.16,-131.67 640.3,-139.75 646.84,-142.26"/>
</g>
<!-- Node34 -->
<g id="node34" class="node">
<title>Node34</title>
<g id="a_node34"><a xlink:title=" ">
<polygon fill="white" stroke="#bfbfbf" points="888,-280.5 888,-299.5 926,-299.5 926,-280.5 888,-280.5"/>
<text text-anchor="middle" x="907" y="-287.5" font-family="Helvetica,sans-Serif" font-size="10.00">map</text>
</a>
</g>
</g>
<!-- Node33&#45;&gt;Node34 -->
<g id="edge62" class="edge">
<title>Node33&#45;&gt;Node34</title>
<path fill="none" stroke="midnightblue" d="M946.24,-336.08C939.46,-328.3 929.46,-316.8 921.24,-307.37"/>
<polygon fill="midnightblue" stroke="midnightblue" points="923.82,-305 914.62,-299.75 918.54,-309.59 923.82,-305"/>
</g>
<!-- Node35&#45;&gt;Node4 -->
<g id="edge68" class="edge">
<title>Node35&#45;&gt;Node4</title>
<path fill="none" stroke="midnightblue" d="M1571.55,-280.42C1562.54,-262.24 1543,-218.28 1543,-179 1543,-179 1543,-179 1543,-121 1543,-53.2 1470.75,-72.52 1405,-56 1244.95,-15.79 722.66,-11.46 578.91,-11.03"/>
<polygon fill="midnightblue" stroke="midnightblue" points="578.85,-7.53 568.84,-11.01 578.84,-14.53 578.85,-7.53"/>
</g>
<!-- Node35&#45;&gt;Node7 -->
<g id="edge69" class="edge">
<title>Node35&#45;&gt;Node7</title>
<path fill="none" stroke="midnightblue" d="M1544.63,-280.44C1510.14,-271.04 1454.68,-255.91 1417.32,-245.72"/>
<polygon fill="midnightblue" stroke="midnightblue" points="1417.86,-242.24 1407.29,-242.99 1416.02,-249 1417.86,-242.24"/>
</g>
</g>
</svg>
