<?xml version="1.0" encoding="UTF-8" standalone="no"?>
<!DOCTYPE svg PUBLIC "-//W3C//DTD SVG 1.1//EN"
 "http://www.w3.org/Graphics/SVG/1.1/DTD/svg11.dtd">
<!-- Generated by graphviz version 2.43.0 (0)
 -->
<!-- Title: lib/Ray/sources/Model/Model.hpp Pages: 1 -->
<svg width="1737pt" height="543pt"
 viewBox="0.00 0.00 1736.50 543.00" xmlns="http://www.w3.org/2000/svg" xmlns:xlink="http://www.w3.org/1999/xlink">
<g id="graph0" class="graph" transform="scale(1 1) rotate(0) translate(4 539)">
<title>lib/Ray/sources/Model/Model.hpp</title>
<polygon fill="white" stroke="transparent" points="-4,4 -4,-539 1732.5,-539 1732.5,4 -4,4"/>
<!-- Node1 -->
<g id="node1" class="node">
<title>Node1</title>
<g id="a_node1"><a xlink:title=" ">
<polygon fill="#bfbfbf" stroke="black" points="946,-504.5 946,-534.5 1070,-534.5 1070,-504.5 946,-504.5"/>
<text text-anchor="start" x="954" y="-522.5" font-family="Helvetica,sans-Serif" font-size="10.00">lib/Ray/sources/Model</text>
<text text-anchor="middle" x="1008" y="-511.5" font-family="Helvetica,sans-Serif" font-size="10.00">/Model.hpp</text>
</a>
</g>
</g>
<!-- Node2 -->
<g id="node2" class="node">
<title>Node2</title>
<g id="a_node2"><a xlink:href="Texture_8hpp.html" target="_top" xlink:title=" ">
<polygon fill="white" stroke="black" points="464,-448.5 464,-467.5 592,-467.5 592,-448.5 464,-448.5"/>
<text text-anchor="middle" x="528" y="-455.5" font-family="Helvetica,sans-Serif" font-size="10.00">Drawables/Texture.hpp</text>
</a>
</g>
</g>
<!-- Node1&#45;&gt;Node2 -->
<g id="edge1" class="edge">
<title>Node1&#45;&gt;Node2</title>
<path fill="none" stroke="midnightblue" d="M945.74,-510.78C857.51,-499.85 696.36,-479.87 602.09,-468.18"/>
<polygon fill="midnightblue" stroke="midnightblue" points="602.42,-464.7 592.06,-466.94 601.56,-471.64 602.42,-464.7"/>
</g>
<!-- Node3 -->
<g id="node3" class="node">
<title>Node3</title>
<g id="a_node3"><a xlink:title=" ">
<polygon fill="white" stroke="#bfbfbf" points="464.5,-0.5 464.5,-19.5 517.5,-19.5 517.5,-0.5 464.5,-0.5"/>
<text text-anchor="middle" x="491" y="-7.5" font-family="Helvetica,sans-Serif" font-size="10.00">raylib.h</text>
</a>
</g>
</g>
<!-- Node1&#45;&gt;Node3 -->
<g id="edge65" class="edge">
<title>Node1&#45;&gt;Node3</title>
<path fill="none" stroke="midnightblue" d="M945.71,-517.94C725.94,-515.14 0,-498.67 0,-403 0,-403 0,-403 0,-121 0,-82.28 23.53,-73.63 58,-56 126.85,-20.78 362.33,-13.11 454.03,-11.45"/>
<polygon fill="midnightblue" stroke="midnightblue" points="454.29,-14.95 464.23,-11.28 454.17,-7.95 454.29,-14.95"/>
</g>
<!-- Node5 -->
<g id="node5" class="node">
<title>Node5</title>
<g id="a_node5"><a xlink:href="Cache_8hpp.html" target="_top" xlink:title=" ">
<polygon fill="white" stroke="black" points="961.5,-280.5 961.5,-299.5 1054.5,-299.5 1054.5,-280.5 961.5,-280.5"/>
<text text-anchor="middle" x="1008" y="-287.5" font-family="Helvetica,sans-Serif" font-size="10.00">Utils/Cache.hpp</text>
</a>
</g>
</g>
<!-- Node1&#45;&gt;Node5 -->
<g id="edge71" class="edge">
<title>Node1&#45;&gt;Node5</title>
<path fill="none" stroke="midnightblue" d="M1008,-504.27C1008,-464.89 1008,-354.49 1008,-309.97"/>
<polygon fill="midnightblue" stroke="midnightblue" points="1011.5,-309.93 1008,-299.93 1004.5,-309.93 1011.5,-309.93"/>
</g>
<!-- Node12 -->
<g id="node12" class="node">
<title>Node12</title>
<g id="a_node12"><a xlink:title=" ">
<polygon fill="white" stroke="#bfbfbf" points="1258.5,-112.5 1258.5,-131.5 1305.5,-131.5 1305.5,-112.5 1258.5,-112.5"/>
<text text-anchor="middle" x="1282" y="-119.5" font-family="Helvetica,sans-Serif" font-size="10.00">vector</text>
</a>
</g>
</g>
<!-- Node1&#45;&gt;Node12 -->
<g id="edge69" class="edge">
<title>Node1&#45;&gt;Node12</title>
<path fill="none" stroke="midnightblue" d="M1024.75,-504.28C1068.94,-466.04 1190.43,-356.3 1265,-244 1284.67,-214.38 1293.12,-203.42 1290,-168 1289.22,-159.2 1287.61,-149.54 1286.03,-141.43"/>
<polygon fill="midnightblue" stroke="midnightblue" points="1289.44,-140.65 1283.99,-131.57 1282.59,-142.07 1289.44,-140.65"/>
</g>
<!-- Node20 -->
<g id="node20" class="node">
<title>Node20</title>
<g id="a_node20"><a xlink:title=" ">
<polygon fill="white" stroke="#bfbfbf" points="673,-168.5 673,-187.5 729,-187.5 729,-168.5 673,-168.5"/>
<text text-anchor="middle" x="701" y="-175.5" font-family="Helvetica,sans-Serif" font-size="10.00">optional</text>
</a>
</g>
</g>
<!-- Node1&#45;&gt;Node20 -->
<g id="edge70" class="edge">
<title>Node1&#45;&gt;Node20</title>
<path fill="none" stroke="midnightblue" d="M962.13,-504.44C871.8,-473.98 672.75,-392.37 593,-244 588.79,-236.17 588.07,-231.4 593,-224 601.23,-211.66 635.23,-198.75 662.91,-189.94"/>
<polygon fill="midnightblue" stroke="midnightblue" points="664.24,-193.19 672.76,-186.89 662.17,-186.5 664.24,-193.19"/>
</g>
<!-- Node30 -->
<g id="node30" class="node">
<title>Node30</title>
<g id="a_node30"><a xlink:href="ADrawable3D_8hpp.html" target="_top" xlink:title=" ">
<polygon fill="white" stroke="black" points="330.5,-336.5 330.5,-355.5 489.5,-355.5 489.5,-336.5 330.5,-336.5"/>
<text text-anchor="middle" x="410" y="-343.5" font-family="Helvetica,sans-Serif" font-size="10.00">Drawables/ADrawable3D.hpp</text>
</a>
</g>
</g>
<!-- Node1&#45;&gt;Node30 -->
<g id="edge51" class="edge">
<title>Node1&#45;&gt;Node30</title>
<path fill="none" stroke="midnightblue" d="M945.94,-516.52C809.67,-511.65 493.31,-497.3 455,-468 422.75,-443.34 413.61,-393 411.02,-365.67"/>
<polygon fill="midnightblue" stroke="midnightblue" points="414.5,-365.22 410.26,-355.5 407.52,-365.74 414.5,-365.22"/>
</g>
<!-- Node31 -->
<g id="node31" class="node">
<title>Node31</title>
<g id="a_node31"><a xlink:href="ModelAnimation_8hpp.html" target="_top" xlink:title=" ">
<polygon fill="white" stroke="black" points="1448.5,-280.5 1448.5,-299.5 1599.5,-299.5 1599.5,-280.5 1448.5,-280.5"/>
<text text-anchor="middle" x="1524" y="-287.5" font-family="Helvetica,sans-Serif" font-size="10.00">Model/ModelAnimation.hpp</text>
</a>
</g>
</g>
<!-- Node1&#45;&gt;Node31 -->
<g id="edge55" class="edge">
<title>Node1&#45;&gt;Node31</title>
<path fill="none" stroke="midnightblue" d="M1070.26,-515.33C1128.21,-510.52 1215.92,-498.42 1286,-468 1380.41,-427.01 1472.49,-342.12 1508.32,-306.88"/>
<polygon fill="midnightblue" stroke="midnightblue" points="1510.84,-309.31 1515.46,-299.77 1505.9,-304.35 1510.84,-309.31"/>
</g>
<!-- Node32 -->
<g id="node32" class="node">
<title>Node32</title>
<g id="a_node32"><a xlink:href="Shaders_8hpp.html" target="_top" xlink:title=" ">
<polygon fill="white" stroke="black" points="1276.5,-336.5 1276.5,-355.5 1395.5,-355.5 1395.5,-336.5 1276.5,-336.5"/>
<text text-anchor="middle" x="1336" y="-343.5" font-family="Helvetica,sans-Serif" font-size="10.00">Shaders/Shaders.hpp</text>
</a>
</g>
</g>
<!-- Node1&#45;&gt;Node32 -->
<g id="edge58" class="edge">
<title>Node1&#45;&gt;Node32</title>
<path fill="none" stroke="midnightblue" d="M1070.23,-511.9C1135.15,-504.02 1231.62,-489.19 1262,-468 1298.57,-442.49 1320.42,-392.54 1330.09,-365.48"/>
<polygon fill="midnightblue" stroke="midnightblue" points="1333.5,-366.32 1333.4,-355.72 1326.87,-364.07 1333.5,-366.32"/>
</g>
<!-- Node34 -->
<g id="node34" class="node">
<title>Node34</title>
<g id="a_node34"><a xlink:href="AMesh_8hpp.html" target="_top" xlink:title=" ">
<polygon fill="white" stroke="black" points="1617.5,-280.5 1617.5,-299.5 1728.5,-299.5 1728.5,-280.5 1617.5,-280.5"/>
<text text-anchor="middle" x="1673" y="-287.5" font-family="Helvetica,sans-Serif" font-size="10.00">Meshes/AMesh.hpp</text>
</a>
</g>
</g>
<!-- Node1&#45;&gt;Node34 -->
<g id="edge66" class="edge">
<title>Node1&#45;&gt;Node34</title>
<path fill="none" stroke="midnightblue" d="M1070.28,-514.02C1134.21,-508.14 1235.94,-495.17 1320,-468 1452.31,-425.23 1596.55,-339.13 1650.76,-305.2"/>
<polygon fill="midnightblue" stroke="midnightblue" points="1652.93,-307.97 1659.53,-299.68 1649.2,-302.05 1652.93,-307.97"/>
</g>
<!-- Node2&#45;&gt;Node3 -->
<g id="edge2" class="edge">
<title>Node2&#45;&gt;Node3</title>
<path fill="none" stroke="midnightblue" d="M463.84,-455.48C360.95,-452.18 164.3,-442.03 102,-412 65.48,-394.39 38,-387.54 38,-347 38,-347 38,-347 38,-121 38,-81.68 62.94,-73.79 98,-56 159.87,-24.59 368.93,-14.73 454.26,-11.97"/>
<polygon fill="midnightblue" stroke="midnightblue" points="454.39,-15.47 464.28,-11.66 454.17,-8.47 454.39,-15.47"/>
</g>
<!-- Node4 -->
<g id="node4" class="node">
<title>Node4</title>
<g id="a_node4"><a xlink:title=" ">
<polygon fill="white" stroke="#bfbfbf" points="1016,-168.5 1016,-187.5 1060,-187.5 1060,-168.5 1016,-168.5"/>
<text text-anchor="middle" x="1038" y="-175.5" font-family="Helvetica,sans-Serif" font-size="10.00">string</text>
</a>
</g>
</g>
<!-- Node2&#45;&gt;Node4 -->
<g id="edge3" class="edge">
<title>Node2&#45;&gt;Node4</title>
<path fill="none" stroke="midnightblue" d="M530.16,-448.22C534.53,-429.66 544,-385.02 544,-347 544,-347 544,-347 544,-289 544,-250.58 566.81,-241.53 601,-224 674.71,-186.21 889.73,-197.6 972,-188 982.94,-186.72 994.88,-185.15 1005.55,-183.68"/>
<polygon fill="midnightblue" stroke="midnightblue" points="1006.31,-187.11 1015.73,-182.26 1005.34,-180.18 1006.31,-187.11"/>
</g>
<!-- Node2&#45;&gt;Node5 -->
<g id="edge4" class="edge">
<title>Node2&#45;&gt;Node5</title>
<path fill="none" stroke="midnightblue" d="M552.8,-448.42C632.45,-420.88 881.98,-334.58 973.72,-302.86"/>
<polygon fill="midnightblue" stroke="midnightblue" points="975.05,-306.1 983.35,-299.52 972.76,-299.48 975.05,-306.1"/>
</g>
<!-- Node15 -->
<g id="node15" class="node">
<title>Node15</title>
<g id="a_node15"><a xlink:href="Rectangle_8hpp.html" target="_top" xlink:title=" ">
<polygon fill="white" stroke="black" points="111,-392.5 111,-411.5 269,-411.5 269,-392.5 111,-392.5"/>
<text text-anchor="middle" x="190" y="-399.5" font-family="Helvetica,sans-Serif" font-size="10.00">Drawables/2D/Rectangle.hpp</text>
</a>
</g>
</g>
<!-- Node2&#45;&gt;Node15 -->
<g id="edge17" class="edge">
<title>Node2&#45;&gt;Node15</title>
<path fill="none" stroke="midnightblue" d="M474.44,-448.44C414.37,-438.85 317.01,-423.29 253.24,-413.1"/>
<polygon fill="midnightblue" stroke="midnightblue" points="253.73,-409.64 243.31,-411.52 252.63,-416.55 253.73,-409.64"/>
</g>
<!-- Node5&#45;&gt;Node3 -->
<g id="edge9" class="edge">
<title>Node5&#45;&gt;Node3</title>
<path fill="none" stroke="midnightblue" d="M1054.68,-284.16C1107.39,-277.78 1188.73,-264.84 1211,-244 1232.98,-223.43 1230,-209.1 1230,-179 1230,-179 1230,-179 1230,-121 1230,-49.19 677.08,-19.31 527.78,-12.55"/>
<polygon fill="midnightblue" stroke="midnightblue" points="527.88,-9.05 517.74,-12.1 527.57,-16.04 527.88,-9.05"/>
</g>
<!-- Node5&#45;&gt;Node4 -->
<g id="edge15" class="edge">
<title>Node5&#45;&gt;Node4</title>
<path fill="none" stroke="midnightblue" d="M1010.35,-280.37C1015.22,-262.54 1026.46,-221.3 1033.02,-197.27"/>
<polygon fill="midnightblue" stroke="midnightblue" points="1036.4,-198.16 1035.66,-187.59 1029.65,-196.32 1036.4,-198.16"/>
</g>
<!-- Node6 -->
<g id="node6" class="node">
<title>Node6</title>
<g id="a_node6"><a xlink:title=" ">
<polygon fill="white" stroke="#bfbfbf" points="1424,-224.5 1424,-243.5 1482,-243.5 1482,-224.5 1424,-224.5"/>
<text text-anchor="middle" x="1453" y="-231.5" font-family="Helvetica,sans-Serif" font-size="10.00">memory</text>
</a>
</g>
</g>
<!-- Node5&#45;&gt;Node6 -->
<g id="edge5" class="edge">
<title>Node5&#45;&gt;Node6</title>
<path fill="none" stroke="midnightblue" d="M1054.78,-283.32C1142.86,-272.64 1331.79,-249.71 1413.74,-239.76"/>
<polygon fill="midnightblue" stroke="midnightblue" points="1414.38,-243.21 1423.88,-238.53 1413.53,-236.26 1414.38,-243.21"/>
</g>
<!-- Node7 -->
<g id="node7" class="node">
<title>Node7</title>
<g id="a_node7"><a xlink:title=" ">
<polygon fill="white" stroke="#bfbfbf" points="688.5,-224.5 688.5,-243.5 781.5,-243.5 781.5,-224.5 688.5,-224.5"/>
<text text-anchor="middle" x="735" y="-231.5" font-family="Helvetica,sans-Serif" font-size="10.00">unordered_map</text>
</a>
</g>
</g>
<!-- Node5&#45;&gt;Node7 -->
<g id="edge6" class="edge">
<title>Node5&#45;&gt;Node7</title>
<path fill="none" stroke="midnightblue" d="M964.74,-280.44C916.82,-270.96 839.52,-255.67 788,-245.48"/>
<polygon fill="midnightblue" stroke="midnightblue" points="788.54,-242.02 778.06,-243.52 787.19,-248.89 788.54,-242.02"/>
</g>
<!-- Node8 -->
<g id="node8" class="node">
<title>Node8</title>
<g id="a_node8"><a xlink:title=" ">
<polygon fill="white" stroke="#bfbfbf" points="799.5,-224.5 799.5,-243.5 864.5,-243.5 864.5,-224.5 799.5,-224.5"/>
<text text-anchor="middle" x="832" y="-231.5" font-family="Helvetica,sans-Serif" font-size="10.00">functional</text>
</a>
</g>
</g>
<!-- Node5&#45;&gt;Node8 -->
<g id="edge7" class="edge">
<title>Node5&#45;&gt;Node8</title>
<path fill="none" stroke="midnightblue" d="M980.11,-280.44C950.25,-271.28 902.69,-256.69 869.54,-246.52"/>
<polygon fill="midnightblue" stroke="midnightblue" points="870.34,-243.1 859.76,-243.52 868.29,-249.8 870.34,-243.1"/>
</g>
<!-- Node9 -->
<g id="node9" class="node">
<title>Node9</title>
<g id="a_node9"><a xlink:title=" ">
<polygon fill="white" stroke="#bfbfbf" points="882.5,-224.5 882.5,-243.5 927.5,-243.5 927.5,-224.5 882.5,-224.5"/>
<text text-anchor="middle" x="905" y="-231.5" font-family="Helvetica,sans-Serif" font-size="10.00">utility</text>
</a>
</g>
</g>
<!-- Node5&#45;&gt;Node9 -->
<g id="edge8" class="edge">
<title>Node5&#45;&gt;Node9</title>
<path fill="none" stroke="midnightblue" d="M991.45,-280.32C975.01,-271.7 949.57,-258.36 930.53,-248.39"/>
<polygon fill="midnightblue" stroke="midnightblue" points="931.99,-245.2 921.51,-243.65 928.74,-251.4 931.99,-245.2"/>
</g>
<!-- Node10 -->
<g id="node10" class="node">
<title>Node10</title>
<g id="a_node10"><a xlink:href="RayError_8hpp.html" target="_top" xlink:title=" ">
<polygon fill="white" stroke="black" points="1066.5,-224.5 1066.5,-243.5 1201.5,-243.5 1201.5,-224.5 1066.5,-224.5"/>
<text text-anchor="middle" x="1134" y="-231.5" font-family="Helvetica,sans-Serif" font-size="10.00">Exceptions/RayError.hpp</text>
</a>
</g>
</g>
<!-- Node5&#45;&gt;Node10 -->
<g id="edge10" class="edge">
<title>Node5&#45;&gt;Node10</title>
<path fill="none" stroke="midnightblue" d="M1027.97,-280.44C1048.61,-271.6 1081.06,-257.69 1104.63,-247.59"/>
<polygon fill="midnightblue" stroke="midnightblue" points="1106.32,-250.67 1114.13,-243.52 1103.56,-244.24 1106.32,-250.67"/>
</g>
<!-- Node5&#45;&gt;Node12 -->
<g id="edge13" class="edge">
<title>Node5&#45;&gt;Node12</title>
<path fill="none" stroke="midnightblue" d="M1054.7,-285.71C1115.32,-280.52 1216.59,-268.41 1244,-244 1273.51,-217.73 1280.32,-168.83 1281.75,-141.94"/>
<polygon fill="midnightblue" stroke="midnightblue" points="1285.26,-141.7 1282.09,-131.59 1278.27,-141.47 1285.26,-141.7"/>
</g>
<!-- Node13 -->
<g id="node13" class="node">
<title>Node13</title>
<g id="a_node13"><a xlink:title=" ">
<polygon fill="white" stroke="#bfbfbf" points="946,-224.5 946,-243.5 1010,-243.5 1010,-224.5 946,-224.5"/>
<text text-anchor="middle" x="978" y="-231.5" font-family="Helvetica,sans-Serif" font-size="10.00">algorithm</text>
</a>
</g>
</g>
<!-- Node5&#45;&gt;Node13 -->
<g id="edge14" class="edge">
<title>Node5&#45;&gt;Node13</title>
<path fill="none" stroke="midnightblue" d="M1003.05,-280.08C998.9,-272.61 992.85,-261.72 987.73,-252.52"/>
<polygon fill="midnightblue" stroke="midnightblue" points="990.78,-250.79 982.86,-243.75 984.66,-254.19 990.78,-250.79"/>
</g>
<!-- Node14 -->
<g id="node14" class="node">
<title>Node14</title>
<g id="a_node14"><a xlink:title=" ">
<polygon fill="white" stroke="#bfbfbf" points="610,-224.5 610,-243.5 670,-243.5 670,-224.5 610,-224.5"/>
<text text-anchor="middle" x="640" y="-231.5" font-family="Helvetica,sans-Serif" font-size="10.00">iostream</text>
</a>
</g>
</g>
<!-- Node5&#45;&gt;Node14 -->
<g id="edge16" class="edge">
<title>Node5&#45;&gt;Node14</title>
<path fill="none" stroke="midnightblue" d="M961.48,-283.99C899.48,-277.01 786.21,-263.22 680.09,-244.06"/>
<polygon fill="midnightblue" stroke="midnightblue" points="680.64,-240.6 670.18,-242.25 679.39,-247.49 680.64,-240.6"/>
</g>
<!-- Node10&#45;&gt;Node4 -->
<g id="edge12" class="edge">
<title>Node10&#45;&gt;Node4</title>
<path fill="none" stroke="midnightblue" d="M1118.58,-224.32C1103.46,-215.82 1080.18,-202.73 1062.53,-192.8"/>
<polygon fill="midnightblue" stroke="midnightblue" points="1063.82,-189.51 1053.39,-187.65 1060.39,-195.61 1063.82,-189.51"/>
</g>
<!-- Node11 -->
<g id="node11" class="node">
<title>Node11</title>
<g id="a_node11"><a xlink:title=" ">
<polygon fill="white" stroke="#bfbfbf" points="1101.5,-168.5 1101.5,-187.5 1166.5,-187.5 1166.5,-168.5 1101.5,-168.5"/>
<text text-anchor="middle" x="1134" y="-175.5" font-family="Helvetica,sans-Serif" font-size="10.00">stdexcept</text>
</a>
</g>
</g>
<!-- Node10&#45;&gt;Node11 -->
<g id="edge11" class="edge">
<title>Node10&#45;&gt;Node11</title>
<path fill="none" stroke="midnightblue" d="M1134,-224.08C1134,-217.01 1134,-206.86 1134,-197.99"/>
<polygon fill="midnightblue" stroke="midnightblue" points="1137.5,-197.75 1134,-187.75 1130.5,-197.75 1137.5,-197.75"/>
</g>
<!-- Node15&#45;&gt;Node3 -->
<g id="edge18" class="edge">
<title>Node15&#45;&gt;Node3</title>
<path fill="none" stroke="midnightblue" d="M160.92,-392.43C141.63,-385.42 117.02,-373.73 101,-356 80.25,-333.04 76,-321.95 76,-291 76,-291 76,-291 76,-121 76,-80.77 103.02,-74.01 139,-56 193.66,-28.64 375.05,-16.66 453.88,-12.65"/>
<polygon fill="midnightblue" stroke="midnightblue" points="454.48,-16.13 464.3,-12.14 454.14,-9.14 454.48,-16.13"/>
</g>
<!-- Node16 -->
<g id="node16" class="node">
<title>Node16</title>
<g id="a_node16"><a xlink:href="ADrawable2D_8hpp.html" target="_top" xlink:title=" ">
<polygon fill="white" stroke="black" points="110.5,-336.5 110.5,-355.5 269.5,-355.5 269.5,-336.5 110.5,-336.5"/>
<text text-anchor="middle" x="190" y="-343.5" font-family="Helvetica,sans-Serif" font-size="10.00">Drawables/ADrawable2D.hpp</text>
</a>
</g>
</g>
<!-- Node15&#45;&gt;Node16 -->
<g id="edge19" class="edge">
<title>Node15&#45;&gt;Node16</title>
<path fill="none" stroke="midnightblue" d="M190,-392.08C190,-385.01 190,-374.86 190,-365.99"/>
<polygon fill="midnightblue" stroke="midnightblue" points="193.5,-365.75 190,-355.75 186.5,-365.75 193.5,-365.75"/>
</g>
<!-- Node16&#45;&gt;Node3 -->
<g id="edge20" class="edge">
<title>Node16&#45;&gt;Node3</title>
<path fill="none" stroke="midnightblue" d="M178.46,-336.43C157.2,-319.57 114,-279.8 114,-235 114,-235 114,-235 114,-121 114,-77.23 148.29,-74.41 188,-56 234.7,-34.35 384,-19.71 454.05,-13.86"/>
<polygon fill="midnightblue" stroke="midnightblue" points="454.51,-17.34 464.19,-13.03 453.94,-10.36 454.51,-17.34"/>
</g>
<!-- Node17 -->
<g id="node17" class="node">
<title>Node17</title>
<g id="a_node17"><a xlink:href="lib_2Ray_2sources_2Vector_2Vector2_8hpp.html" target="_top" xlink:title=" ">
<polygon fill="white" stroke="black" points="244,-112.5 244,-131.5 352,-131.5 352,-112.5 244,-112.5"/>
<text text-anchor="middle" x="298" y="-119.5" font-family="Helvetica,sans-Serif" font-size="10.00">Vector/Vector2.hpp</text>
</a>
</g>
</g>
<!-- Node16&#45;&gt;Node17 -->
<g id="edge21" class="edge">
<title>Node16&#45;&gt;Node17</title>
<path fill="none" stroke="midnightblue" d="M185.36,-336.25C171.39,-308.59 133.01,-221.76 171,-168 185.53,-147.43 210.31,-136.2 234.13,-130.1"/>
<polygon fill="midnightblue" stroke="midnightblue" points="234.94,-133.51 243.9,-127.86 233.37,-126.68 234.94,-133.51"/>
</g>
<!-- Node18 -->
<g id="node18" class="node">
<title>Node18</title>
<g id="a_node18"><a xlink:href="IDrawable_8hpp.html" target="_top" xlink:title=" ">
<polygon fill="white" stroke="black" points="331,-280.5 331,-299.5 473,-299.5 473,-280.5 331,-280.5"/>
<text text-anchor="middle" x="402" y="-287.5" font-family="Helvetica,sans-Serif" font-size="10.00">Drawables/IDrawable.hpp</text>
</a>
</g>
</g>
<!-- Node16&#45;&gt;Node18 -->
<g id="edge23" class="edge">
<title>Node16&#45;&gt;Node18</title>
<path fill="none" stroke="midnightblue" d="M223.59,-336.44C260.19,-327.12 318.84,-312.18 358.83,-302"/>
<polygon fill="midnightblue" stroke="midnightblue" points="359.74,-305.38 368.57,-299.52 358.01,-298.59 359.74,-305.38"/>
</g>
<!-- Node29 -->
<g id="node29" class="node">
<title>Node29</title>
<g id="a_node29"><a xlink:href="Color_8hpp.html" target="_top" xlink:title=" ">
<polygon fill="white" stroke="black" points="180,-168.5 180,-187.5 242,-187.5 242,-168.5 180,-168.5"/>
<text text-anchor="middle" x="211" y="-175.5" font-family="Helvetica,sans-Serif" font-size="10.00">Color.hpp</text>
</a>
</g>
</g>
<!-- Node16&#45;&gt;Node29 -->
<g id="edge50" class="edge">
<title>Node16&#45;&gt;Node29</title>
<path fill="none" stroke="midnightblue" d="M191.13,-336.08C194.43,-309.95 204.14,-233.21 208.65,-197.58"/>
<polygon fill="midnightblue" stroke="midnightblue" points="212.13,-197.93 209.92,-187.57 205.19,-197.05 212.13,-197.93"/>
</g>
<!-- Node17&#45;&gt;Node3 -->
<g id="edge22" class="edge">
<title>Node17&#45;&gt;Node3</title>
<path fill="none" stroke="midnightblue" d="M290.9,-112.47C280.64,-99.07 264.32,-72.87 278,-56 299.8,-29.11 399.48,-17.66 454.41,-13.32"/>
<polygon fill="midnightblue" stroke="midnightblue" points="454.73,-16.81 464.44,-12.57 454.2,-9.83 454.73,-16.81"/>
</g>
<!-- Node19 -->
<g id="node19" class="node">
<title>Node19</title>
<g id="a_node19"><a xlink:href="Window_8hpp.html" target="_top" xlink:title=" ">
<polygon fill="white" stroke="black" points="364,-224.5 364,-243.5 440,-243.5 440,-224.5 364,-224.5"/>
<text text-anchor="middle" x="402" y="-231.5" font-family="Helvetica,sans-Serif" font-size="10.00">Window.hpp</text>
</a>
</g>
</g>
<!-- Node18&#45;&gt;Node19 -->
<g id="edge24" class="edge">
<title>Node18&#45;&gt;Node19</title>
<path fill="none" stroke="midnightblue" d="M402,-280.08C402,-273.01 402,-262.86 402,-253.99"/>
<polygon fill="midnightblue" stroke="midnightblue" points="405.5,-253.75 402,-243.75 398.5,-253.75 405.5,-253.75"/>
</g>
<!-- Node19&#45;&gt;Node3 -->
<g id="edge25" class="edge">
<title>Node19&#45;&gt;Node3</title>
<path fill="none" stroke="midnightblue" d="M382.3,-224.47C363.5,-216.06 334.63,-202.4 311,-188 270.2,-163.15 222.13,-158 235,-112 242.85,-83.96 245.18,-72.74 269,-56 298.4,-35.34 398.93,-21.25 454.07,-14.87"/>
<polygon fill="midnightblue" stroke="midnightblue" points="454.59,-18.34 464.14,-13.74 453.81,-11.38 454.59,-18.34"/>
</g>
<!-- Node19&#45;&gt;Node4 -->
<g id="edge26" class="edge">
<title>Node19&#45;&gt;Node4</title>
<path fill="none" stroke="midnightblue" d="M440.17,-230.27C550.44,-222.34 868.24,-199.16 972,-188 982.95,-186.82 994.89,-185.27 1005.57,-183.8"/>
<polygon fill="midnightblue" stroke="midnightblue" points="1006.33,-187.22 1015.74,-182.36 1005.35,-180.29 1006.33,-187.22"/>
</g>
<!-- Node19&#45;&gt;Node17 -->
<g id="edge28" class="edge">
<title>Node19&#45;&gt;Node17</title>
<path fill="none" stroke="midnightblue" d="M380.5,-224.41C364.03,-216.9 341.7,-204.59 327,-188 315.23,-174.72 307.54,-155.88 303.06,-141.9"/>
<polygon fill="midnightblue" stroke="midnightblue" points="306.3,-140.54 300.13,-131.93 299.59,-142.52 306.3,-140.54"/>
</g>
<!-- Node19&#45;&gt;Node20 -->
<g id="edge27" class="edge">
<title>Node19&#45;&gt;Node20</title>
<path fill="none" stroke="midnightblue" d="M440.23,-226.39C506.54,-214.91 637.88,-192.11 659,-188 660.24,-187.76 661.49,-187.51 662.76,-187.26"/>
<polygon fill="midnightblue" stroke="midnightblue" points="663.47,-190.68 672.56,-185.25 662.06,-183.83 663.47,-190.68"/>
</g>
<!-- Node21 -->
<g id="node21" class="node">
<title>Node21</title>
<g id="a_node21"><a xlink:href="lib_2Ray_2sources_2Vector_2Vector3_8hpp.html" target="_top" xlink:title=" ">
<polygon fill="white" stroke="black" points="704,-112.5 704,-131.5 812,-131.5 812,-112.5 704,-112.5"/>
<text text-anchor="middle" x="758" y="-119.5" font-family="Helvetica,sans-Serif" font-size="10.00">Vector/Vector3.hpp</text>
</a>
</g>
</g>
<!-- Node19&#45;&gt;Node21 -->
<g id="edge29" class="edge">
<title>Node19&#45;&gt;Node21</title>
<path fill="none" stroke="midnightblue" d="M440.45,-225.84C499.57,-214.73 607.8,-194.01 625,-188 643.39,-181.57 646.55,-176.65 664,-168 686.23,-156.98 711.61,-144.86 730.39,-135.98"/>
<polygon fill="midnightblue" stroke="midnightblue" points="732.01,-139.08 739.56,-131.65 729.02,-132.75 732.01,-139.08"/>
</g>
<!-- Node22 -->
<g id="node22" class="node">
<title>Node22</title>
<g id="a_node22"><a xlink:href="Keyboard_8hpp.html" target="_top" xlink:title=" ">
<polygon fill="white" stroke="black" points="823,-168.5 823,-187.5 963,-187.5 963,-168.5 823,-168.5"/>
<text text-anchor="middle" x="893" y="-175.5" font-family="Helvetica,sans-Serif" font-size="10.00">Controllers/Keyboard.hpp</text>
</a>
</g>
</g>
<!-- Node19&#45;&gt;Node22 -->
<g id="edge31" class="edge">
<title>Node19&#45;&gt;Node22</title>
<path fill="none" stroke="midnightblue" d="M440.12,-228.81C519.79,-220.05 705.42,-199.63 812.65,-187.84"/>
<polygon fill="midnightblue" stroke="midnightblue" points="813.22,-191.3 822.78,-186.72 812.46,-184.34 813.22,-191.3"/>
</g>
<!-- Node23 -->
<g id="node23" class="node">
<title>Node23</title>
<g id="a_node23"><a xlink:href="Camera2D_8hpp.html" target="_top" xlink:title=" ">
<polygon fill="white" stroke="black" points="336.5,-168.5 336.5,-187.5 467.5,-187.5 467.5,-168.5 336.5,-168.5"/>
<text text-anchor="middle" x="402" y="-175.5" font-family="Helvetica,sans-Serif" font-size="10.00">Camera/Camera2D.hpp</text>
</a>
</g>
</g>
<!-- Node19&#45;&gt;Node23 -->
<g id="edge34" class="edge">
<title>Node19&#45;&gt;Node23</title>
<path fill="none" stroke="midnightblue" d="M402,-224.08C402,-217.01 402,-206.86 402,-197.99"/>
<polygon fill="midnightblue" stroke="midnightblue" points="405.5,-197.75 402,-187.75 398.5,-197.75 405.5,-197.75"/>
</g>
<!-- Node26 -->
<g id="node26" class="node">
<title>Node26</title>
<g id="a_node26"><a xlink:href="Camera3D_8hpp.html" target="_top" xlink:title=" ">
<polygon fill="white" stroke="black" points="485.5,-168.5 485.5,-187.5 616.5,-187.5 616.5,-168.5 485.5,-168.5"/>
<text text-anchor="middle" x="551" y="-175.5" font-family="Helvetica,sans-Serif" font-size="10.00">Camera/Camera3D.hpp</text>
</a>
</g>
</g>
<!-- Node19&#45;&gt;Node26 -->
<g id="edge40" class="edge">
<title>Node19&#45;&gt;Node26</title>
<path fill="none" stroke="midnightblue" d="M425.61,-224.44C450.46,-215.44 489.77,-201.19 517.75,-191.05"/>
<polygon fill="midnightblue" stroke="midnightblue" points="519.29,-194.21 527.5,-187.52 516.91,-187.63 519.29,-194.21"/>
</g>
<!-- Node19&#45;&gt;Node29 -->
<g id="edge48" class="edge">
<title>Node19&#45;&gt;Node29</title>
<path fill="none" stroke="midnightblue" d="M371.74,-224.44C339.04,-215.2 286.82,-200.44 250.82,-190.26"/>
<polygon fill="midnightblue" stroke="midnightblue" points="251.7,-186.87 241.12,-187.52 249.79,-193.61 251.7,-186.87"/>
</g>
<!-- Node21&#45;&gt;Node3 -->
<g id="edge30" class="edge">
<title>Node21&#45;&gt;Node3</title>
<path fill="none" stroke="midnightblue" d="M765.21,-112.38C775.61,-98.87 792.12,-72.51 778,-56 746.19,-18.82 597.72,-12.15 527.71,-11.1"/>
<polygon fill="midnightblue" stroke="midnightblue" points="527.62,-7.6 517.57,-10.98 527.53,-14.6 527.62,-7.6"/>
</g>
<!-- Node22&#45;&gt;Node3 -->
<g id="edge32" class="edge">
<title>Node22&#45;&gt;Node3</title>
<path fill="none" stroke="midnightblue" d="M893.13,-168.27C892.94,-145.67 889.03,-84.98 854,-56 804.9,-15.38 609.67,-10.79 527.62,-10.71"/>
<polygon fill="midnightblue" stroke="midnightblue" points="527.5,-7.21 517.51,-10.72 527.51,-14.21 527.5,-7.21"/>
</g>
<!-- Node22&#45;&gt;Node12 -->
<g id="edge33" class="edge">
<title>Node22&#45;&gt;Node12</title>
<path fill="none" stroke="midnightblue" d="M954.64,-168.44C1037.64,-156.92 1182.47,-136.82 1248.04,-127.71"/>
<polygon fill="midnightblue" stroke="midnightblue" points="1248.8,-131.14 1258.22,-126.3 1247.84,-124.21 1248.8,-131.14"/>
</g>
<!-- Node23&#45;&gt;Node3 -->
<g id="edge35" class="edge">
<title>Node23&#45;&gt;Node3</title>
<path fill="none" stroke="midnightblue" d="M397.87,-168.28C391.34,-155.08 377.64,-129.69 361,-112 338.14,-87.69 290.47,-82.3 311,-56 328.42,-33.69 406.72,-20.81 454.13,-14.92"/>
<polygon fill="midnightblue" stroke="midnightblue" points="454.8,-18.37 464.31,-13.7 453.97,-11.41 454.8,-18.37"/>
</g>
<!-- Node23&#45;&gt;Node17 -->
<g id="edge36" class="edge">
<title>Node23&#45;&gt;Node17</title>
<path fill="none" stroke="midnightblue" d="M385.29,-168.32C368.69,-159.7 343,-146.36 323.78,-136.39"/>
<polygon fill="midnightblue" stroke="midnightblue" points="325.16,-133.16 314.67,-131.65 321.93,-139.37 325.16,-133.16"/>
</g>
<!-- Node24 -->
<g id="node24" class="node">
<title>Node24</title>
<g id="a_node24"><a xlink:href="ICamera_8hpp.html" target="_top" xlink:title=" ">
<polygon fill="white" stroke="black" points="408,-112.5 408,-131.5 528,-131.5 528,-112.5 408,-112.5"/>
<text text-anchor="middle" x="468" y="-119.5" font-family="Helvetica,sans-Serif" font-size="10.00">Camera/ICamera.hpp</text>
</a>
</g>
</g>
<!-- Node23&#45;&gt;Node24 -->
<g id="edge37" class="edge">
<title>Node23&#45;&gt;Node24</title>
<path fill="none" stroke="midnightblue" d="M412.6,-168.32C422.46,-160.26 437.35,-148.08 449.22,-138.37"/>
<polygon fill="midnightblue" stroke="midnightblue" points="451.68,-140.88 457.2,-131.83 447.25,-135.46 451.68,-140.88"/>
</g>
<!-- Node25 -->
<g id="node25" class="node">
<title>Node25</title>
<g id="a_node25"><a xlink:href="Matrix_8hpp.html" target="_top" xlink:title=" ">
<polygon fill="white" stroke="black" points="320.5,-56.5 320.5,-75.5 389.5,-75.5 389.5,-56.5 320.5,-56.5"/>
<text text-anchor="middle" x="355" y="-63.5" font-family="Helvetica,sans-Serif" font-size="10.00">Matrix.hpp</text>
</a>
</g>
</g>
<!-- Node24&#45;&gt;Node25 -->
<g id="edge38" class="edge">
<title>Node24&#45;&gt;Node25</title>
<path fill="none" stroke="midnightblue" d="M450.09,-112.44C431.75,-103.68 402.99,-89.94 381.91,-79.86"/>
<polygon fill="midnightblue" stroke="midnightblue" points="383.35,-76.67 372.82,-75.52 380.33,-82.99 383.35,-76.67"/>
</g>
<!-- Node25&#45;&gt;Node3 -->
<g id="edge39" class="edge">
<title>Node25&#45;&gt;Node3</title>
<path fill="none" stroke="midnightblue" d="M376.55,-56.44C399.03,-47.52 434.49,-33.44 459.98,-23.32"/>
<polygon fill="midnightblue" stroke="midnightblue" points="461.55,-26.46 469.55,-19.52 458.97,-19.95 461.55,-26.46"/>
</g>
<!-- Node26&#45;&gt;Node3 -->
<g id="edge41" class="edge">
<title>Node26&#45;&gt;Node3</title>
<path fill="none" stroke="midnightblue" d="M570.17,-168.4C617.15,-147.13 734.93,-92.6 745,-76 749.61,-68.4 750.71,-62.81 745,-56 717.68,-23.41 591.09,-14.41 527.57,-11.93"/>
<polygon fill="midnightblue" stroke="midnightblue" points="527.69,-8.44 517.57,-11.58 527.44,-15.43 527.69,-8.44"/>
</g>
<!-- Node26&#45;&gt;Node21 -->
<g id="edge42" class="edge">
<title>Node26&#45;&gt;Node21</title>
<path fill="none" stroke="midnightblue" d="M583.8,-168.44C619.38,-159.16 676.31,-144.31 715.35,-134.13"/>
<polygon fill="midnightblue" stroke="midnightblue" points="716.56,-137.43 725.35,-131.52 714.79,-130.65 716.56,-137.43"/>
</g>
<!-- Node26&#45;&gt;Node24 -->
<g id="edge43" class="edge">
<title>Node26&#45;&gt;Node24</title>
<path fill="none" stroke="midnightblue" d="M537.66,-168.32C524.84,-159.98 505.22,-147.21 490.06,-137.35"/>
<polygon fill="midnightblue" stroke="midnightblue" points="491.59,-134.17 481.3,-131.65 487.78,-140.04 491.59,-134.17"/>
</g>
<!-- Node27 -->
<g id="node27" class="node">
<title>Node27</title>
<g id="a_node27"><a xlink:href="CameraProjection_8hpp.html" target="_top" xlink:title=" ">
<polygon fill="white" stroke="black" points="408,-56.5 408,-75.5 574,-75.5 574,-56.5 408,-56.5"/>
<text text-anchor="middle" x="491" y="-63.5" font-family="Helvetica,sans-Serif" font-size="10.00">Camera/CameraProjection.hpp</text>
</a>
</g>
</g>
<!-- Node26&#45;&gt;Node27 -->
<g id="edge44" class="edge">
<title>Node26&#45;&gt;Node27</title>
<path fill="none" stroke="midnightblue" d="M550.71,-168.46C549.94,-155.49 547.15,-130.39 537,-112 530.64,-100.47 520.38,-90.01 511.16,-82.09"/>
<polygon fill="midnightblue" stroke="midnightblue" points="513.1,-79.15 503.13,-75.56 508.68,-84.59 513.1,-79.15"/>
</g>
<!-- Node28 -->
<g id="node28" class="node">
<title>Node28</title>
<g id="a_node28"><a xlink:href="CameraMode_8hpp.html" target="_top" xlink:title=" ">
<polygon fill="white" stroke="black" points="592,-56.5 592,-75.5 736,-75.5 736,-56.5 592,-56.5"/>
<text text-anchor="middle" x="664" y="-63.5" font-family="Helvetica,sans-Serif" font-size="10.00">Camera/CameraMode.hpp</text>
</a>
</g>
</g>
<!-- Node26&#45;&gt;Node28 -->
<g id="edge46" class="edge">
<title>Node26&#45;&gt;Node28</title>
<path fill="none" stroke="midnightblue" d="M559.87,-168.37C578.85,-149.89 623.64,-106.29 647.83,-82.74"/>
<polygon fill="midnightblue" stroke="midnightblue" points="650.45,-85.07 655.17,-75.59 645.57,-80.06 650.45,-85.07"/>
</g>
<!-- Node27&#45;&gt;Node3 -->
<g id="edge45" class="edge">
<title>Node27&#45;&gt;Node3</title>
<path fill="none" stroke="midnightblue" d="M491,-56.08C491,-49.01 491,-38.86 491,-29.99"/>
<polygon fill="midnightblue" stroke="midnightblue" points="494.5,-29.75 491,-19.75 487.5,-29.75 494.5,-29.75"/>
</g>
<!-- Node28&#45;&gt;Node3 -->
<g id="edge47" class="edge">
<title>Node28&#45;&gt;Node3</title>
<path fill="none" stroke="midnightblue" d="M636.59,-56.44C607.06,-47.23 559.93,-32.52 527.33,-22.34"/>
<polygon fill="midnightblue" stroke="midnightblue" points="528.3,-18.98 517.72,-19.34 526.22,-25.66 528.3,-18.98"/>
</g>
<!-- Node29&#45;&gt;Node3 -->
<g id="edge49" class="edge">
<title>Node29&#45;&gt;Node3</title>
<path fill="none" stroke="midnightblue" d="M206.73,-168.41C196.58,-146.66 173.91,-88.8 202,-56 234.04,-18.58 383.55,-12.03 454.04,-11.06"/>
<polygon fill="midnightblue" stroke="midnightblue" points="454.28,-14.55 464.24,-10.95 454.2,-7.55 454.28,-14.55"/>
</g>
<!-- Node30&#45;&gt;Node3 -->
<g id="edge52" class="edge">
<title>Node30&#45;&gt;Node3</title>
<path fill="none" stroke="midnightblue" d="M425.75,-336.35C440.74,-327.84 463.66,-314.12 482,-300 521.12,-269.89 519.17,-246.72 563,-224 671.08,-167.98 763.85,-239.49 821,-132 880.56,-19.97 625.68,-10.1 527.85,-10.35"/>
<polygon fill="midnightblue" stroke="midnightblue" points="527.78,-6.85 517.8,-10.41 527.82,-13.85 527.78,-6.85"/>
</g>
<!-- Node30&#45;&gt;Node18 -->
<g id="edge53" class="edge">
<title>Node30&#45;&gt;Node18</title>
<path fill="none" stroke="midnightblue" d="M408.68,-336.08C407.62,-328.93 406.09,-318.64 404.77,-309.69"/>
<polygon fill="midnightblue" stroke="midnightblue" points="408.22,-309.13 403.3,-299.75 401.3,-310.16 408.22,-309.13"/>
</g>
<!-- Node30&#45;&gt;Node29 -->
<g id="edge54" class="edge">
<title>Node30&#45;&gt;Node29</title>
<path fill="none" stroke="midnightblue" d="M388.14,-336.42C369.53,-328.53 342.62,-315.69 322,-300 280.79,-268.63 242.16,-220.84 223.21,-195.74"/>
<polygon fill="midnightblue" stroke="midnightblue" points="225.93,-193.53 217.15,-187.59 220.31,-197.7 225.93,-193.53"/>
</g>
<!-- Node31&#45;&gt;Node3 -->
<g id="edge56" class="edge">
<title>Node31&#45;&gt;Node3</title>
<path fill="none" stroke="midnightblue" d="M1523.08,-280.45C1521.19,-261.97 1517,-216.89 1517,-179 1517,-179 1517,-179 1517,-121 1517,-59.95 1454.81,-72.36 1396,-56 1228.74,-9.47 677.12,-9.72 528.28,-10.68"/>
<polygon fill="midnightblue" stroke="midnightblue" points="527.85,-7.18 517.88,-10.75 527.9,-14.18 527.85,-7.18"/>
</g>
<!-- Node31&#45;&gt;Node6 -->
<g id="edge57" class="edge">
<title>Node31&#45;&gt;Node6</title>
<path fill="none" stroke="midnightblue" d="M1512.59,-280.32C1501.89,-272.18 1485.66,-259.84 1472.84,-250.09"/>
<polygon fill="midnightblue" stroke="midnightblue" points="1474.69,-247.1 1464.61,-243.83 1470.46,-252.67 1474.69,-247.1"/>
</g>
<!-- Node32&#45;&gt;Node3 -->
<g id="edge62" class="edge">
<title>Node32&#45;&gt;Node3</title>
<path fill="none" stroke="midnightblue" d="M1342.4,-336.39C1355.04,-318.5 1382,-275.57 1382,-235 1382,-235 1382,-235 1382,-121 1382,-33.45 695.67,-14.85 527.74,-11.61"/>
<polygon fill="midnightblue" stroke="midnightblue" points="527.73,-8.1 517.67,-11.42 527.6,-15.1 527.73,-8.1"/>
</g>
<!-- Node32&#45;&gt;Node4 -->
<g id="edge59" class="edge">
<title>Node32&#45;&gt;Node4</title>
<path fill="none" stroke="midnightblue" d="M1329.77,-336.44C1313.13,-314.25 1265.25,-254.47 1211,-224 1187,-210.52 1113.21,-194.12 1070.14,-185.31"/>
<polygon fill="midnightblue" stroke="midnightblue" points="1070.66,-181.85 1060.16,-183.3 1069.27,-188.71 1070.66,-181.85"/>
</g>
<!-- Node32&#45;&gt;Node5 -->
<g id="edge63" class="edge">
<title>Node32&#45;&gt;Node5</title>
<path fill="none" stroke="midnightblue" d="M1284.03,-336.44C1224.22,-326.6 1126.35,-310.48 1064.64,-300.33"/>
<polygon fill="midnightblue" stroke="midnightblue" points="1065.12,-296.86 1054.69,-298.69 1063.98,-303.76 1065.12,-296.86"/>
</g>
<!-- Node32&#45;&gt;Node6 -->
<g id="edge60" class="edge">
<title>Node32&#45;&gt;Node6</title>
<path fill="none" stroke="midnightblue" d="M1349.01,-336.41C1361.59,-327.85 1380.91,-313.98 1396,-300 1412.44,-284.77 1429.09,-265.2 1440.11,-251.53"/>
<polygon fill="midnightblue" stroke="midnightblue" points="1443.01,-253.51 1446.49,-243.5 1437.53,-249.16 1443.01,-253.51"/>
</g>
<!-- Node32&#45;&gt;Node21 -->
<g id="edge64" class="edge">
<title>Node32&#45;&gt;Node21</title>
<path fill="none" stroke="midnightblue" d="M1276.39,-341.29C1109.15,-330.28 644.79,-295.31 601,-244 595.23,-237.24 595.57,-231.04 601,-224 639.45,-174.15 692.57,-231.58 738,-188 750.5,-176 755.25,-156.4 757.01,-141.85"/>
<polygon fill="midnightblue" stroke="midnightblue" points="760.53,-141.77 757.89,-131.51 753.56,-141.18 760.53,-141.77"/>
</g>
<!-- Node33 -->
<g id="node33" class="node">
<title>Node33</title>
<g id="a_node33"><a xlink:title=" ">
<polygon fill="white" stroke="#bfbfbf" points="1316,-280.5 1316,-299.5 1354,-299.5 1354,-280.5 1316,-280.5"/>
<text text-anchor="middle" x="1335" y="-287.5" font-family="Helvetica,sans-Serif" font-size="10.00">map</text>
</a>
</g>
</g>
<!-- Node32&#45;&gt;Node33 -->
<g id="edge61" class="edge">
<title>Node32&#45;&gt;Node33</title>
<path fill="none" stroke="midnightblue" d="M1335.83,-336.08C1335.7,-329.01 1335.52,-318.86 1335.35,-309.99"/>
<polygon fill="midnightblue" stroke="midnightblue" points="1338.85,-309.68 1335.16,-299.75 1331.85,-309.81 1338.85,-309.68"/>
</g>
<!-- Node34&#45;&gt;Node3 -->
<g id="edge67" class="edge">
<title>Node34&#45;&gt;Node3</title>
<path fill="none" stroke="midnightblue" d="M1664.55,-280.44C1648.23,-262.96 1614,-221.26 1614,-179 1614,-179 1614,-179 1614,-121 1614,-9.25 721.77,-9.32 527.89,-10.66"/>
<polygon fill="midnightblue" stroke="midnightblue" points="527.63,-7.16 517.65,-10.73 527.68,-14.16 527.63,-7.16"/>
</g>
<!-- Node34&#45;&gt;Node6 -->
<g id="edge68" class="edge">
<title>Node34&#45;&gt;Node6</title>
<path fill="none" stroke="midnightblue" d="M1638.14,-280.44C1598.29,-270.66 1533.25,-254.7 1491.82,-244.53"/>
<polygon fill="midnightblue" stroke="midnightblue" points="1492.62,-241.12 1482.08,-242.14 1490.95,-247.92 1492.62,-241.12"/>
</g>
</g>
</svg>
