<?xml version="1.0" encoding="UTF-8" standalone="no"?>
<!DOCTYPE svg PUBLIC "-//W3C//DTD SVG 1.1//EN"
 "http://www.w3.org/Graphics/SVG/1.1/DTD/svg11.dtd">
<!-- Generated by graphviz version 2.43.0 (0)
 -->
<!-- Title: lib/Ray/sources/Model/ModelAnimations.cpp Pages: 1 -->
<svg width="824pt" height="263pt"
 viewBox="0.00 0.00 824.00 263.00" xmlns="http://www.w3.org/2000/svg" xmlns:xlink="http://www.w3.org/1999/xlink">
<g id="graph0" class="graph" transform="scale(1 1) rotate(0) translate(4 259)">
<title>lib/Ray/sources/Model/ModelAnimations.cpp</title>
<polygon fill="white" stroke="transparent" points="-4,4 -4,-259 820,-259 820,4 -4,4"/>
<!-- Node1 -->
<g id="node1" class="node">
<title>Node1</title>
<g id="a_node1"><a xlink:title=" ">
<polygon fill="#bfbfbf" stroke="black" points="224.5,-224.5 224.5,-254.5 349.5,-254.5 349.5,-224.5 224.5,-224.5"/>
<text text-anchor="start" x="232.5" y="-242.5" font-family="Helvetica,sans-Serif" font-size="10.00">lib/Ray/sources/Model</text>
<text text-anchor="middle" x="287" y="-231.5" font-family="Helvetica,sans-Serif" font-size="10.00">/ModelAnimations.cpp</text>
</a>
</g>
</g>
<!-- Node2 -->
<g id="node2" class="node">
<title>Node2</title>
<g id="a_node2"><a xlink:href="ModelAnimations_8hpp.html" target="_top" xlink:title=" ">
<polygon fill="white" stroke="black" points="209,-168.5 209,-187.5 365,-187.5 365,-168.5 209,-168.5"/>
<text text-anchor="middle" x="287" y="-175.5" font-family="Helvetica,sans-Serif" font-size="10.00">Model/ModelAnimations.hpp</text>
</a>
</g>
</g>
<!-- Node1&#45;&gt;Node2 -->
<g id="edge1" class="edge">
<title>Node1&#45;&gt;Node2</title>
<path fill="none" stroke="midnightblue" d="M287,-224.4C287,-216.47 287,-206.46 287,-197.86"/>
<polygon fill="midnightblue" stroke="midnightblue" points="290.5,-197.66 287,-187.66 283.5,-197.66 290.5,-197.66"/>
</g>
<!-- Node3 -->
<g id="node3" class="node">
<title>Node3</title>
<g id="a_node3"><a xlink:href="ModelAnimation_8hpp.html" target="_top" xlink:title=" ">
<polygon fill="white" stroke="black" points="27.5,-112.5 27.5,-131.5 178.5,-131.5 178.5,-112.5 27.5,-112.5"/>
<text text-anchor="middle" x="103" y="-119.5" font-family="Helvetica,sans-Serif" font-size="10.00">Model/ModelAnimation.hpp</text>
</a>
</g>
</g>
<!-- Node2&#45;&gt;Node3 -->
<g id="edge2" class="edge">
<title>Node2&#45;&gt;Node3</title>
<path fill="none" stroke="midnightblue" d="M257.84,-168.44C226.49,-159.24 176.47,-144.56 141.8,-134.39"/>
<polygon fill="midnightblue" stroke="midnightblue" points="142.6,-130.97 132.02,-131.52 140.63,-137.69 142.6,-130.97"/>
</g>
<!-- Node6 -->
<g id="node6" class="node">
<title>Node6</title>
<g id="a_node6"><a xlink:title=" ">
<polygon fill="white" stroke="#bfbfbf" points="147.5,-56.5 147.5,-75.5 194.5,-75.5 194.5,-56.5 147.5,-56.5"/>
<text text-anchor="middle" x="171" y="-63.5" font-family="Helvetica,sans-Serif" font-size="10.00">vector</text>
</a>
</g>
</g>
<!-- Node2&#45;&gt;Node6 -->
<g id="edge5" class="edge">
<title>Node2&#45;&gt;Node6</title>
<path fill="none" stroke="midnightblue" d="M277.9,-168.37C258.42,-149.89 212.44,-106.29 187.6,-82.74"/>
<polygon fill="midnightblue" stroke="midnightblue" points="189.72,-79.93 180.06,-75.59 184.91,-85.01 189.72,-79.93"/>
</g>
<!-- Node7 -->
<g id="node7" class="node">
<title>Node7</title>
<g id="a_node7"><a xlink:title=" ">
<polygon fill="white" stroke="#bfbfbf" points="772,-0.5 772,-19.5 816,-19.5 816,-0.5 772,-0.5"/>
<text text-anchor="middle" x="794" y="-7.5" font-family="Helvetica,sans-Serif" font-size="10.00">string</text>
</a>
</g>
</g>
<!-- Node2&#45;&gt;Node7 -->
<g id="edge6" class="edge">
<title>Node2&#45;&gt;Node7</title>
<path fill="none" stroke="midnightblue" d="M365.16,-173.17C493.87,-165.05 741.52,-141.16 795,-76 805.5,-63.21 803.64,-43.75 800.14,-29.45"/>
<polygon fill="midnightblue" stroke="midnightblue" points="803.47,-28.35 797.32,-19.72 796.74,-30.3 803.47,-28.35"/>
</g>
<!-- Node8 -->
<g id="node8" class="node">
<title>Node8</title>
<g id="a_node8"><a xlink:href="Cache_8hpp.html" target="_top" xlink:title=" ">
<polygon fill="white" stroke="black" points="278.5,-112.5 278.5,-131.5 371.5,-131.5 371.5,-112.5 278.5,-112.5"/>
<text text-anchor="middle" x="325" y="-119.5" font-family="Helvetica,sans-Serif" font-size="10.00">Utils/Cache.hpp</text>
</a>
</g>
</g>
<!-- Node2&#45;&gt;Node8 -->
<g id="edge7" class="edge">
<title>Node2&#45;&gt;Node8</title>
<path fill="none" stroke="midnightblue" d="M293.27,-168.08C298.64,-160.46 306.52,-149.26 313.08,-139.94"/>
<polygon fill="midnightblue" stroke="midnightblue" points="315.95,-141.94 318.84,-131.75 310.22,-137.91 315.95,-141.94"/>
</g>
<!-- Node4 -->
<g id="node4" class="node">
<title>Node4</title>
<g id="a_node4"><a xlink:title=" ">
<polygon fill="white" stroke="#bfbfbf" points="76.5,-56.5 76.5,-75.5 129.5,-75.5 129.5,-56.5 76.5,-56.5"/>
<text text-anchor="middle" x="103" y="-63.5" font-family="Helvetica,sans-Serif" font-size="10.00">raylib.h</text>
</a>
</g>
</g>
<!-- Node3&#45;&gt;Node4 -->
<g id="edge3" class="edge">
<title>Node3&#45;&gt;Node4</title>
<path fill="none" stroke="midnightblue" d="M103,-112.08C103,-105.01 103,-94.86 103,-85.99"/>
<polygon fill="midnightblue" stroke="midnightblue" points="106.5,-85.75 103,-75.75 99.5,-85.75 106.5,-85.75"/>
</g>
<!-- Node5 -->
<g id="node5" class="node">
<title>Node5</title>
<g id="a_node5"><a xlink:title=" ">
<polygon fill="white" stroke="#bfbfbf" points="0,-56.5 0,-75.5 58,-75.5 58,-56.5 0,-56.5"/>
<text text-anchor="middle" x="29" y="-63.5" font-family="Helvetica,sans-Serif" font-size="10.00">memory</text>
</a>
</g>
</g>
<!-- Node3&#45;&gt;Node5 -->
<g id="edge4" class="edge">
<title>Node3&#45;&gt;Node5</title>
<path fill="none" stroke="midnightblue" d="M91.11,-112.32C79.85,-104.11 62.71,-91.6 49.29,-81.81"/>
<polygon fill="midnightblue" stroke="midnightblue" points="51.25,-78.9 41.11,-75.83 47.12,-84.56 51.25,-78.9"/>
</g>
<!-- Node8&#45;&gt;Node4 -->
<g id="edge12" class="edge">
<title>Node8&#45;&gt;Node4</title>
<path fill="none" stroke="midnightblue" d="M288.76,-112.46C253.12,-104.01 196.9,-90.59 139.68,-76.39"/>
<polygon fill="midnightblue" stroke="midnightblue" points="140.29,-72.94 129.74,-73.92 138.6,-79.73 140.29,-72.94"/>
</g>
<!-- Node8&#45;&gt;Node5 -->
<g id="edge8" class="edge">
<title>Node8&#45;&gt;Node5</title>
<path fill="none" stroke="midnightblue" d="M278.23,-113.71C228.55,-105.77 147.48,-92.26 68.17,-76.14"/>
<polygon fill="midnightblue" stroke="midnightblue" points="68.51,-72.64 58.01,-74.06 67.1,-79.49 68.51,-72.64"/>
</g>
<!-- Node8&#45;&gt;Node6 -->
<g id="edge16" class="edge">
<title>Node8&#45;&gt;Node6</title>
<path fill="none" stroke="midnightblue" d="M300.6,-112.44C274.58,-103.32 233.2,-88.81 204.22,-78.65"/>
<polygon fill="midnightblue" stroke="midnightblue" points="205.12,-75.26 194.53,-75.25 202.81,-81.86 205.12,-75.26"/>
</g>
<!-- Node8&#45;&gt;Node7 -->
<g id="edge18" class="edge">
<title>Node8&#45;&gt;Node7</title>
<path fill="none" stroke="midnightblue" d="M371.74,-119.25C480.65,-114.77 744.42,-101.39 775,-76 788.41,-64.87 792.66,-44.84 793.86,-29.94"/>
<polygon fill="midnightblue" stroke="midnightblue" points="797.36,-29.93 794.29,-19.79 790.37,-29.63 797.36,-29.93"/>
</g>
<!-- Node9 -->
<g id="node9" class="node">
<title>Node9</title>
<g id="a_node9"><a xlink:title=" ">
<polygon fill="white" stroke="#bfbfbf" points="526.5,-56.5 526.5,-75.5 619.5,-75.5 619.5,-56.5 526.5,-56.5"/>
<text text-anchor="middle" x="573" y="-63.5" font-family="Helvetica,sans-Serif" font-size="10.00">unordered_map</text>
</a>
</g>
</g>
<!-- Node8&#45;&gt;Node9 -->
<g id="edge9" class="edge">
<title>Node8&#45;&gt;Node9</title>
<path fill="none" stroke="midnightblue" d="M364.3,-112.44C407.56,-103.02 477.17,-87.87 523.97,-77.68"/>
<polygon fill="midnightblue" stroke="midnightblue" points="524.86,-81.06 533.89,-75.52 523.37,-74.22 524.86,-81.06"/>
</g>
<!-- Node10 -->
<g id="node10" class="node">
<title>Node10</title>
<g id="a_node10"><a xlink:title=" ">
<polygon fill="white" stroke="#bfbfbf" points="637.5,-56.5 637.5,-75.5 702.5,-75.5 702.5,-56.5 637.5,-56.5"/>
<text text-anchor="middle" x="670" y="-63.5" font-family="Helvetica,sans-Serif" font-size="10.00">functional</text>
</a>
</g>
</g>
<!-- Node8&#45;&gt;Node10 -->
<g id="edge10" class="edge">
<title>Node8&#45;&gt;Node10</title>
<path fill="none" stroke="midnightblue" d="M371.52,-115.13C429.32,-107.61 531.17,-93.63 627.47,-76.19"/>
<polygon fill="midnightblue" stroke="midnightblue" points="628.16,-79.62 637.37,-74.38 626.9,-72.73 628.16,-79.62"/>
</g>
<!-- Node11 -->
<g id="node11" class="node">
<title>Node11</title>
<g id="a_node11"><a xlink:title=" ">
<polygon fill="white" stroke="#bfbfbf" points="720.5,-56.5 720.5,-75.5 765.5,-75.5 765.5,-56.5 720.5,-56.5"/>
<text text-anchor="middle" x="743" y="-63.5" font-family="Helvetica,sans-Serif" font-size="10.00">utility</text>
</a>
</g>
</g>
<!-- Node8&#45;&gt;Node11 -->
<g id="edge11" class="edge">
<title>Node8&#45;&gt;Node11</title>
<path fill="none" stroke="midnightblue" d="M371.56,-118.1C442.79,-113.13 583.14,-101.15 710.5,-76.02"/>
<polygon fill="midnightblue" stroke="midnightblue" points="711.31,-79.43 720.42,-74.03 709.93,-72.56 711.31,-79.43"/>
</g>
<!-- Node12 -->
<g id="node12" class="node">
<title>Node12</title>
<g id="a_node12"><a xlink:href="RayError_8hpp.html" target="_top" xlink:title=" ">
<polygon fill="white" stroke="black" points="373.5,-56.5 373.5,-75.5 508.5,-75.5 508.5,-56.5 373.5,-56.5"/>
<text text-anchor="middle" x="441" y="-63.5" font-family="Helvetica,sans-Serif" font-size="10.00">Exceptions/RayError.hpp</text>
</a>
</g>
</g>
<!-- Node8&#45;&gt;Node12 -->
<g id="edge13" class="edge">
<title>Node8&#45;&gt;Node12</title>
<path fill="none" stroke="midnightblue" d="M343.38,-112.44C362.22,-103.68 391.73,-89.94 413.38,-79.86"/>
<polygon fill="midnightblue" stroke="midnightblue" points="415.12,-82.91 422.71,-75.52 412.16,-76.56 415.12,-82.91"/>
</g>
<!-- Node14 -->
<g id="node14" class="node">
<title>Node14</title>
<g id="a_node14"><a xlink:title=" ">
<polygon fill="white" stroke="#bfbfbf" points="213,-56.5 213,-75.5 277,-75.5 277,-56.5 213,-56.5"/>
<text text-anchor="middle" x="245" y="-63.5" font-family="Helvetica,sans-Serif" font-size="10.00">algorithm</text>
</a>
</g>
</g>
<!-- Node8&#45;&gt;Node14 -->
<g id="edge17" class="edge">
<title>Node8&#45;&gt;Node14</title>
<path fill="none" stroke="midnightblue" d="M312.15,-112.32C299.78,-103.98 280.87,-91.21 266.26,-81.35"/>
<polygon fill="midnightblue" stroke="midnightblue" points="268.07,-78.35 257.82,-75.65 264.15,-84.15 268.07,-78.35"/>
</g>
<!-- Node15 -->
<g id="node15" class="node">
<title>Node15</title>
<g id="a_node15"><a xlink:title=" ">
<polygon fill="white" stroke="#bfbfbf" points="295,-56.5 295,-75.5 355,-75.5 355,-56.5 295,-56.5"/>
<text text-anchor="middle" x="325" y="-63.5" font-family="Helvetica,sans-Serif" font-size="10.00">iostream</text>
</a>
</g>
</g>
<!-- Node8&#45;&gt;Node15 -->
<g id="edge19" class="edge">
<title>Node8&#45;&gt;Node15</title>
<path fill="none" stroke="midnightblue" d="M325,-112.08C325,-105.01 325,-94.86 325,-85.99"/>
<polygon fill="midnightblue" stroke="midnightblue" points="328.5,-85.75 325,-75.75 321.5,-85.75 328.5,-85.75"/>
</g>
<!-- Node12&#45;&gt;Node7 -->
<g id="edge15" class="edge">
<title>Node12&#45;&gt;Node7</title>
<path fill="none" stroke="midnightblue" d="M496.93,-56.44C571.58,-45.03 701.32,-25.18 761.56,-15.96"/>
<polygon fill="midnightblue" stroke="midnightblue" points="762.27,-19.39 771.63,-14.42 761.21,-12.48 762.27,-19.39"/>
</g>
<!-- Node13 -->
<g id="node13" class="node">
<title>Node13</title>
<g id="a_node13"><a xlink:title=" ">
<polygon fill="white" stroke="#bfbfbf" points="408.5,-0.5 408.5,-19.5 473.5,-19.5 473.5,-0.5 408.5,-0.5"/>
<text text-anchor="middle" x="441" y="-7.5" font-family="Helvetica,sans-Serif" font-size="10.00">stdexcept</text>
</a>
</g>
</g>
<!-- Node12&#45;&gt;Node13 -->
<g id="edge14" class="edge">
<title>Node12&#45;&gt;Node13</title>
<path fill="none" stroke="midnightblue" d="M441,-56.08C441,-49.01 441,-38.86 441,-29.99"/>
<polygon fill="midnightblue" stroke="midnightblue" points="444.5,-29.75 441,-19.75 437.5,-29.75 444.5,-29.75"/>
</g>
</g>
</svg>
