<?xml version="1.0" encoding="UTF-8" standalone="no"?>
<!DOCTYPE svg PUBLIC "-//W3C//DTD SVG 1.1//EN"
 "http://www.w3.org/Graphics/SVG/1.1/DTD/svg11.dtd">
<!-- Generated by graphviz version 2.43.0 (0)
 -->
<!-- Title: lib/Ray/sources/Model/ModelAnimation.cpp Pages: 1 -->
<svg width="238pt" height="151pt"
 viewBox="0.00 0.00 237.50 151.00" xmlns="http://www.w3.org/2000/svg" xmlns:xlink="http://www.w3.org/1999/xlink">
<g id="graph0" class="graph" transform="scale(1 1) rotate(0) translate(4 147)">
<title>lib/Ray/sources/Model/ModelAnimation.cpp</title>
<polygon fill="white" stroke="transparent" points="-4,4 -4,-147 233.5,-147 233.5,4 -4,4"/>
<!-- Node1 -->
<g id="node1" class="node">
<title>Node1</title>
<g id="a_node1"><a xlink:title=" ">
<polygon fill="#bfbfbf" stroke="black" points="30,-112.5 30,-142.5 154,-142.5 154,-112.5 30,-112.5"/>
<text text-anchor="start" x="38" y="-130.5" font-family="Helvetica,sans-Serif" font-size="10.00">lib/Ray/sources/Model</text>
<text text-anchor="middle" x="92" y="-119.5" font-family="Helvetica,sans-Serif" font-size="10.00">/ModelAnimation.cpp</text>
</a>
</g>
</g>
<!-- Node2 -->
<g id="node2" class="node">
<title>Node2</title>
<g id="a_node2"><a xlink:title=" ">
<polygon fill="white" stroke="#bfbfbf" points="0,-56.5 0,-75.5 60,-75.5 60,-56.5 0,-56.5"/>
<text text-anchor="middle" x="30" y="-63.5" font-family="Helvetica,sans-Serif" font-size="10.00">iostream</text>
</a>
</g>
</g>
<!-- Node1&#45;&gt;Node2 -->
<g id="edge1" class="edge">
<title>Node1&#45;&gt;Node2</title>
<path fill="none" stroke="midnightblue" d="M77.31,-112.4C68.02,-103.49 56,-91.95 46.4,-82.74"/>
<polygon fill="midnightblue" stroke="midnightblue" points="48.66,-80.06 39.02,-75.66 43.81,-85.11 48.66,-80.06"/>
</g>
<!-- Node3 -->
<g id="node3" class="node">
<title>Node3</title>
<g id="a_node3"><a xlink:href="ModelAnimation_8hpp.html" target="_top" xlink:title=" ">
<polygon fill="white" stroke="black" points="78.5,-56.5 78.5,-75.5 229.5,-75.5 229.5,-56.5 78.5,-56.5"/>
<text text-anchor="middle" x="154" y="-63.5" font-family="Helvetica,sans-Serif" font-size="10.00">Model/ModelAnimation.hpp</text>
</a>
</g>
</g>
<!-- Node1&#45;&gt;Node3 -->
<g id="edge2" class="edge">
<title>Node1&#45;&gt;Node3</title>
<path fill="none" stroke="midnightblue" d="M106.69,-112.4C115.98,-103.49 128,-91.95 137.6,-82.74"/>
<polygon fill="midnightblue" stroke="midnightblue" points="140.19,-85.11 144.98,-75.66 135.34,-80.06 140.19,-85.11"/>
</g>
<!-- Node4 -->
<g id="node4" class="node">
<title>Node4</title>
<g id="a_node4"><a xlink:title=" ">
<polygon fill="white" stroke="#bfbfbf" points="90.5,-0.5 90.5,-19.5 143.5,-19.5 143.5,-0.5 90.5,-0.5"/>
<text text-anchor="middle" x="117" y="-7.5" font-family="Helvetica,sans-Serif" font-size="10.00">raylib.h</text>
</a>
</g>
</g>
<!-- Node3&#45;&gt;Node4 -->
<g id="edge3" class="edge">
<title>Node3&#45;&gt;Node4</title>
<path fill="none" stroke="midnightblue" d="M147.89,-56.08C142.72,-48.53 135.15,-37.49 128.81,-28.23"/>
<polygon fill="midnightblue" stroke="midnightblue" points="131.54,-26.02 123,-19.75 125.76,-29.98 131.54,-26.02"/>
</g>
<!-- Node5 -->
<g id="node5" class="node">
<title>Node5</title>
<g id="a_node5"><a xlink:title=" ">
<polygon fill="white" stroke="#bfbfbf" points="162,-0.5 162,-19.5 220,-19.5 220,-0.5 162,-0.5"/>
<text text-anchor="middle" x="191" y="-7.5" font-family="Helvetica,sans-Serif" font-size="10.00">memory</text>
</a>
</g>
</g>
<!-- Node3&#45;&gt;Node5 -->
<g id="edge4" class="edge">
<title>Node3&#45;&gt;Node5</title>
<path fill="none" stroke="midnightblue" d="M160.11,-56.08C165.28,-48.53 172.85,-37.49 179.19,-28.23"/>
<polygon fill="midnightblue" stroke="midnightblue" points="182.24,-29.98 185,-19.75 176.46,-26.02 182.24,-29.98"/>
</g>
</g>
</svg>
