<?xml version="1.0" encoding="UTF-8" standalone="no"?>
<!DOCTYPE svg PUBLIC "-//W3C//DTD SVG 1.1//EN"
 "http://www.w3.org/Graphics/SVG/1.1/DTD/svg11.dtd">
<!-- Generated by graphviz version 2.43.0 (0)
 -->
<!-- Title: sources/Component/Movable/MovableComponent.hpp Pages: 1 -->
<svg width="3616pt" height="307pt"
 viewBox="0.00 0.00 3616.00 307.00" xmlns="http://www.w3.org/2000/svg" xmlns:xlink="http://www.w3.org/1999/xlink">
<g id="graph0" class="graph" transform="scale(1 1) rotate(0) translate(4 303)">
<title>sources/Component/Movable/MovableComponent.hpp</title>
<polygon fill="white" stroke="transparent" points="-4,4 -4,-303 3612,-303 3612,4 -4,4"/>
<!-- Node1 -->
<g id="node1" class="node">
<title>Node1</title>
<g id="a_node1"><a xlink:title=" ">
<polygon fill="#bfbfbf" stroke="black" points="1938.5,-268.5 1938.5,-298.5 2096.5,-298.5 2096.5,-268.5 1938.5,-268.5"/>
<text text-anchor="start" x="1946.5" y="-286.5" font-family="Helvetica,sans-Serif" font-size="10.00">sources/Component/Movable</text>
<text text-anchor="middle" x="2017.5" y="-275.5" font-family="Helvetica,sans-Serif" font-size="10.00">/MovableComponent.hpp</text>
</a>
</g>
</g>
<!-- Node2 -->
<g id="node2" class="node">
<title>Node2</title>
<g id="a_node2"><a xlink:href="MovableComponent_8cpp.html" target="_top" xlink:title=" ">
<polygon fill="white" stroke="black" points="637.5,-201.5 637.5,-231.5 795.5,-231.5 795.5,-201.5 637.5,-201.5"/>
<text text-anchor="start" x="645.5" y="-219.5" font-family="Helvetica,sans-Serif" font-size="10.00">sources/Component/Movable</text>
<text text-anchor="middle" x="716.5" y="-208.5" font-family="Helvetica,sans-Serif" font-size="10.00">/MovableComponent.cpp</text>
</a>
</g>
</g>
<!-- Node1&#45;&gt;Node2 -->
<g id="edge1" class="edge">
<title>Node1&#45;&gt;Node2</title>
<path fill="none" stroke="midnightblue" d="M1928.29,-282.49C1727.19,-281.67 1223.37,-275.07 804.5,-232 801.57,-231.7 798.6,-231.36 795.59,-231"/>
<polygon fill="midnightblue" stroke="midnightblue" points="1928.49,-285.99 1938.5,-282.53 1928.51,-278.99 1928.49,-285.99"/>
</g>
<!-- Node3 -->
<g id="node3" class="node">
<title>Node3</title>
<g id="a_node3"><a xlink:href="Bonus_8cpp.html" target="_top" xlink:title=" ">
<polygon fill="white" stroke="black" points="813.5,-207 813.5,-226 951.5,-226 951.5,-207 813.5,-207"/>
<text text-anchor="middle" x="882.5" y="-214" font-family="Helvetica,sans-Serif" font-size="10.00">sources/Items/Bonus.cpp</text>
</a>
</g>
</g>
<!-- Node1&#45;&gt;Node3 -->
<g id="edge2" class="edge">
<title>Node1&#45;&gt;Node3</title>
<path fill="none" stroke="midnightblue" d="M1928.22,-282.32C1745.79,-281.06 1317.36,-273.5 960.5,-232 948.05,-230.55 934.6,-228.3 922.42,-226"/>
<polygon fill="midnightblue" stroke="midnightblue" points="1928.28,-285.82 1938.31,-282.39 1928.33,-278.82 1928.28,-285.82"/>
</g>
<!-- Node4 -->
<g id="node4" class="node">
<title>Node4</title>
<g id="a_node4"><a xlink:href="Map_8hpp.html" target="_top" xlink:title=" ">
<polygon fill="white" stroke="black" points="970,-207 970,-226 1093,-226 1093,-207 970,-207"/>
<text text-anchor="middle" x="1031.5" y="-214" font-family="Helvetica,sans-Serif" font-size="10.00">sources/Map/Map.hpp</text>
</a>
</g>
</g>
<!-- Node1&#45;&gt;Node4 -->
<g id="edge3" class="edge">
<title>Node1&#45;&gt;Node4</title>
<path fill="none" stroke="midnightblue" d="M1928.44,-276.63C1731.28,-263.63 1262.04,-232.7 1093.29,-221.57"/>
<polygon fill="midnightblue" stroke="midnightblue" points="1928.27,-280.13 1938.48,-277.29 1928.73,-273.14 1928.27,-280.13"/>
</g>
<!-- Node18 -->
<g id="node18" class="node">
<title>Node18</title>
<g id="a_node18"><a xlink:href="GameScene_8cpp.html" target="_top" xlink:title=" ">
<polygon fill="white" stroke="black" points="1113,-140 1113,-159 1286,-159 1286,-140 1113,-140"/>
<text text-anchor="middle" x="1199.5" y="-147" font-family="Helvetica,sans-Serif" font-size="10.00">sources/Runner/GameScene.cpp</text>
</a>
</g>
</g>
<!-- Node1&#45;&gt;Node18 -->
<g id="edge22" class="edge">
<title>Node1&#45;&gt;Node18</title>
<path fill="none" stroke="midnightblue" d="M1928.2,-279.59C1819.8,-274.82 1631.83,-262.59 1473.5,-232 1378.48,-213.64 1269.24,-175.96 1222.57,-159.05"/>
<polygon fill="midnightblue" stroke="midnightblue" points="1928.3,-283.1 1938.44,-280.03 1928.6,-276.1 1928.3,-283.1"/>
</g>
<!-- Node21 -->
<g id="node21" class="node">
<title>Node21</title>
<g id="a_node21"><a xlink:href="BumperTimerSystem_8hpp.html" target="_top" xlink:title=" ">
<polygon fill="white" stroke="black" points="1482.5,-201.5 1482.5,-231.5 1646.5,-231.5 1646.5,-201.5 1482.5,-201.5"/>
<text text-anchor="start" x="1490.5" y="-219.5" font-family="Helvetica,sans-Serif" font-size="10.00">sources/System/BumperTimer</text>
<text text-anchor="middle" x="1564.5" y="-208.5" font-family="Helvetica,sans-Serif" font-size="10.00">/BumperTimerSystem.hpp</text>
</a>
</g>
</g>
<!-- Node1&#45;&gt;Node21 -->
<g id="edge23" class="edge">
<title>Node1&#45;&gt;Node21</title>
<path fill="none" stroke="midnightblue" d="M1928.3,-269.7C1846.44,-257.95 1726.15,-240.7 1646.61,-229.28"/>
<polygon fill="midnightblue" stroke="midnightblue" points="1927.94,-273.18 1938.33,-271.14 1928.93,-266.26 1927.94,-273.18"/>
</g>
<!-- Node23 -->
<g id="node23" class="node">
<title>Node23</title>
<g id="a_node23"><a xlink:href="CollisionSystem_8cpp.html" target="_top" xlink:title=" ">
<polygon fill="white" stroke="black" points="1665,-134.5 1665,-164.5 1804,-164.5 1804,-134.5 1665,-134.5"/>
<text text-anchor="start" x="1673" y="-152.5" font-family="Helvetica,sans-Serif" font-size="10.00">sources/System/Collision</text>
<text text-anchor="middle" x="1734.5" y="-141.5" font-family="Helvetica,sans-Serif" font-size="10.00">/CollisionSystem.cpp</text>
</a>
</g>
</g>
<!-- Node1&#45;&gt;Node23 -->
<g id="edge26" class="edge">
<title>Node1&#45;&gt;Node23</title>
<path fill="none" stroke="midnightblue" d="M1928.16,-275.59C1861.99,-268.65 1779.22,-255.5 1754.5,-232 1736.02,-214.44 1733.46,-182.8 1733.69,-164.54"/>
<polygon fill="midnightblue" stroke="midnightblue" points="1927.9,-279.09 1938.2,-276.62 1928.61,-272.12 1927.9,-279.09"/>
</g>
<!-- Node24 -->
<g id="node24" class="node">
<title>Node24</title>
<g id="a_node24"><a xlink:href="CollisionSystem_8hpp.html" target="_top" xlink:title=" ">
<polygon fill="white" stroke="black" points="1763,-201.5 1763,-231.5 1902,-231.5 1902,-201.5 1763,-201.5"/>
<text text-anchor="start" x="1771" y="-219.5" font-family="Helvetica,sans-Serif" font-size="10.00">sources/System/Collision</text>
<text text-anchor="middle" x="1832.5" y="-208.5" font-family="Helvetica,sans-Serif" font-size="10.00">/CollisionSystem.hpp</text>
</a>
</g>
</g>
<!-- Node1&#45;&gt;Node24 -->
<g id="edge27" class="edge">
<title>Node1&#45;&gt;Node24</title>
<path fill="none" stroke="midnightblue" d="M1967.56,-264.96C1937.76,-254.48 1900.43,-241.37 1872.56,-231.58"/>
<polygon fill="midnightblue" stroke="midnightblue" points="1966.76,-268.38 1977.36,-268.4 1969.08,-261.78 1966.76,-268.38"/>
</g>
<!-- Node25 -->
<g id="node25" class="node">
<title>Node25</title>
<g id="a_node25"><a xlink:href="CollisionTest_8cpp.html" target="_top" xlink:title=" ">
<polygon fill="white" stroke="black" points="1861,-140 1861,-159 1986,-159 1986,-140 1861,-140"/>
<text text-anchor="middle" x="1923.5" y="-147" font-family="Helvetica,sans-Serif" font-size="10.00">tests/CollisionTest.cpp</text>
</a>
</g>
</g>
<!-- Node1&#45;&gt;Node25 -->
<g id="edge55" class="edge">
<title>Node1&#45;&gt;Node25</title>
<path fill="none" stroke="midnightblue" d="M2001.39,-259.87C1980.2,-230.12 1943.98,-179.26 1929.62,-159.1"/>
<polygon fill="midnightblue" stroke="midnightblue" points="1998.79,-262.26 2007.44,-268.37 2004.49,-258.2 1998.79,-262.26"/>
</g>
<!-- Node26 -->
<g id="node26" class="node">
<title>Node26</title>
<g id="a_node26"><a xlink:href="ControllableSystem_8hpp.html" target="_top" xlink:title=" ">
<polygon fill="white" stroke="black" points="2045.5,-201.5 2045.5,-231.5 2201.5,-231.5 2201.5,-201.5 2045.5,-201.5"/>
<text text-anchor="start" x="2053.5" y="-219.5" font-family="Helvetica,sans-Serif" font-size="10.00">sources/System/Controllable</text>
<text text-anchor="middle" x="2123.5" y="-208.5" font-family="Helvetica,sans-Serif" font-size="10.00">/ControllableSystem.hpp</text>
</a>
</g>
</g>
<!-- Node1&#45;&gt;Node26 -->
<g id="edge32" class="edge">
<title>Node1&#45;&gt;Node26</title>
<path fill="none" stroke="midnightblue" d="M2049.28,-263.02C2065.77,-252.9 2085.55,-240.77 2100.54,-231.58"/>
<polygon fill="midnightblue" stroke="midnightblue" points="2047.2,-260.18 2040.5,-268.4 2050.85,-266.15 2047.2,-260.18"/>
</g>
<!-- Node27 -->
<g id="node27" class="node">
<title>Node27</title>
<g id="a_node27"><a xlink:href="ControllableSystem_8cpp.html" target="_top" xlink:title=" ">
<polygon fill="white" stroke="black" points="2004.5,-134.5 2004.5,-164.5 2160.5,-164.5 2160.5,-134.5 2004.5,-134.5"/>
<text text-anchor="start" x="2012.5" y="-152.5" font-family="Helvetica,sans-Serif" font-size="10.00">sources/System/Controllable</text>
<text text-anchor="middle" x="2082.5" y="-141.5" font-family="Helvetica,sans-Serif" font-size="10.00">/ControllableSystem.cpp</text>
</a>
</g>
</g>
<!-- Node1&#45;&gt;Node27 -->
<g id="edge36" class="edge">
<title>Node1&#45;&gt;Node27</title>
<path fill="none" stroke="midnightblue" d="M2019.87,-258.36C2022.28,-241.51 2027.07,-218.93 2036.5,-201 2043.78,-187.14 2055.79,-174.15 2065.7,-164.81"/>
<polygon fill="midnightblue" stroke="midnightblue" points="2016.37,-258.13 2018.6,-268.49 2023.31,-259 2016.37,-258.13"/>
</g>
<!-- Node28 -->
<g id="node28" class="node">
<title>Node28</title>
<g id="a_node28"><a xlink:href="MoveTests_8cpp.html" target="_top" xlink:title=" ">
<polygon fill="white" stroke="black" points="2216.5,-140 2216.5,-159 2332.5,-159 2332.5,-140 2216.5,-140"/>
<text text-anchor="middle" x="2274.5" y="-147" font-family="Helvetica,sans-Serif" font-size="10.00">tests/MoveTests.cpp</text>
</a>
</g>
</g>
<!-- Node1&#45;&gt;Node28 -->
<g id="edge56" class="edge">
<title>Node1&#45;&gt;Node28</title>
<path fill="none" stroke="midnightblue" d="M2106.98,-271.55C2141.41,-264.26 2179.79,-252.14 2210.5,-232 2239.68,-212.86 2261.39,-175.92 2270.19,-159.16"/>
<polygon fill="midnightblue" stroke="midnightblue" points="2106.03,-268.17 2096.91,-273.57 2107.41,-275.03 2106.03,-268.17"/>
</g>
<!-- Node29 -->
<g id="node29" class="node">
<title>Node29</title>
<g id="a_node29"><a xlink:href="GravitySystem_8hpp.html" target="_top" xlink:title=" ">
<polygon fill="white" stroke="black" points="2258,-201.5 2258,-231.5 2391,-231.5 2391,-201.5 2258,-201.5"/>
<text text-anchor="start" x="2266" y="-219.5" font-family="Helvetica,sans-Serif" font-size="10.00">sources/System/Gravity</text>
<text text-anchor="middle" x="2324.5" y="-208.5" font-family="Helvetica,sans-Serif" font-size="10.00">/GravitySystem.hpp</text>
</a>
</g>
</g>
<!-- Node1&#45;&gt;Node29 -->
<g id="edge37" class="edge">
<title>Node1&#45;&gt;Node29</title>
<path fill="none" stroke="midnightblue" d="M2093.62,-266.38C2144.12,-255.69 2209.75,-241.8 2258.12,-231.55"/>
<polygon fill="midnightblue" stroke="midnightblue" points="2092.79,-262.98 2083.74,-268.48 2094.24,-269.83 2092.79,-262.98"/>
</g>
<!-- Node31 -->
<g id="node31" class="node">
<title>Node31</title>
<g id="a_node31"><a xlink:href="GridCenteredSystem_8cpp.html" target="_top" xlink:title=" ">
<polygon fill="white" stroke="black" points="2409,-201.5 2409,-231.5 2570,-231.5 2570,-201.5 2409,-201.5"/>
<text text-anchor="start" x="2417" y="-219.5" font-family="Helvetica,sans-Serif" font-size="10.00">sources/System/GridCentered</text>
<text text-anchor="middle" x="2489.5" y="-208.5" font-family="Helvetica,sans-Serif" font-size="10.00">/GridCenteredSystem.cpp</text>
</a>
</g>
</g>
<!-- Node1&#45;&gt;Node31 -->
<g id="edge40" class="edge">
<title>Node1&#45;&gt;Node31</title>
<path fill="none" stroke="midnightblue" d="M2107.05,-271.47C2184.74,-261.72 2300.17,-246.78 2400.5,-232 2403.29,-231.59 2406.12,-231.16 2408.99,-230.73"/>
<polygon fill="midnightblue" stroke="midnightblue" points="2106.31,-268.04 2096.82,-272.76 2107.18,-274.99 2106.31,-268.04"/>
</g>
<!-- Node32 -->
<g id="node32" class="node">
<title>Node32</title>
<g id="a_node32"><a xlink:href="MovableSystem_8hpp.html" target="_top" xlink:title=" ">
<polygon fill="white" stroke="black" points="2588,-201.5 2588,-231.5 2727,-231.5 2727,-201.5 2588,-201.5"/>
<text text-anchor="start" x="2596" y="-219.5" font-family="Helvetica,sans-Serif" font-size="10.00">sources/System/Movable</text>
<text text-anchor="middle" x="2657.5" y="-208.5" font-family="Helvetica,sans-Serif" font-size="10.00">/MovableSystem.hpp</text>
</a>
</g>
</g>
<!-- Node1&#45;&gt;Node32 -->
<g id="edge41" class="edge">
<title>Node1&#45;&gt;Node32</title>
<path fill="none" stroke="midnightblue" d="M2107.04,-277.07C2218.18,-269.72 2413.39,-254.85 2579.5,-232 2582.23,-231.62 2585.01,-231.22 2587.81,-230.79"/>
<polygon fill="midnightblue" stroke="midnightblue" points="2106.63,-273.59 2096.88,-277.73 2107.08,-280.57 2106.63,-273.59"/>
</g>
<!-- Node35 -->
<g id="node35" class="node">
<title>Node35</title>
<g id="a_node35"><a xlink:href="MovableSystem_8cpp.html" target="_top" xlink:title=" ">
<polygon fill="white" stroke="black" points="3092,-134.5 3092,-164.5 3231,-164.5 3231,-134.5 3092,-134.5"/>
<text text-anchor="start" x="3100" y="-152.5" font-family="Helvetica,sans-Serif" font-size="10.00">sources/System/Movable</text>
<text text-anchor="middle" x="3161.5" y="-141.5" font-family="Helvetica,sans-Serif" font-size="10.00">/MovableSystem.cpp</text>
</a>
</g>
</g>
<!-- Node1&#45;&gt;Node35 -->
<g id="edge49" class="edge">
<title>Node1&#45;&gt;Node35</title>
<path fill="none" stroke="midnightblue" d="M2106.99,-282.78C2273.48,-282.22 2624.12,-275.7 2736.5,-232 2757.14,-223.98 2755.05,-209.5 2775.5,-201 2902.76,-148.1 2947.23,-185.61 3083.5,-165 3086.22,-164.59 3089,-164.15 3091.8,-163.7"/>
<polygon fill="midnightblue" stroke="midnightblue" points="2106.77,-279.28 2096.78,-282.81 2106.79,-286.28 2106.77,-279.28"/>
</g>
<!-- Node37 -->
<g id="node37" class="node">
<title>Node37</title>
<g id="a_node37"><a xlink:href="CameraSystem_8cpp.html" target="_top" xlink:title=" ">
<polygon fill="white" stroke="black" points="2784,-201.5 2784,-231.5 2925,-231.5 2925,-201.5 2784,-201.5"/>
<text text-anchor="start" x="2792" y="-219.5" font-family="Helvetica,sans-Serif" font-size="10.00">sources/System/Renderer</text>
<text text-anchor="middle" x="2854.5" y="-208.5" font-family="Helvetica,sans-Serif" font-size="10.00">/CameraSystem.cpp</text>
</a>
</g>
</g>
<!-- Node1&#45;&gt;Node37 -->
<g id="edge50" class="edge">
<title>Node1&#45;&gt;Node37</title>
<path fill="none" stroke="midnightblue" d="M2106.83,-279.45C2247.97,-273.96 2531.02,-260.27 2769.5,-232 2774.11,-231.45 2778.85,-230.83 2783.62,-230.15"/>
<polygon fill="midnightblue" stroke="midnightblue" points="2106.36,-275.96 2096.51,-279.84 2106.63,-282.96 2106.36,-275.96"/>
</g>
<!-- Node38 -->
<g id="node38" class="node">
<title>Node38</title>
<g id="a_node38"><a xlink:href="RenderSystem_8hpp.html" target="_top" xlink:title=" ">
<polygon fill="white" stroke="black" points="3243,-201.5 3243,-231.5 3384,-231.5 3384,-201.5 3243,-201.5"/>
<text text-anchor="start" x="3251" y="-219.5" font-family="Helvetica,sans-Serif" font-size="10.00">sources/System/Renderer</text>
<text text-anchor="middle" x="3313.5" y="-208.5" font-family="Helvetica,sans-Serif" font-size="10.00">/RenderSystem.hpp</text>
</a>
</g>
</g>
<!-- Node1&#45;&gt;Node38 -->
<g id="edge51" class="edge">
<title>Node1&#45;&gt;Node38</title>
<path fill="none" stroke="midnightblue" d="M2106.85,-278.02C2350.41,-265.8 3022.46,-232.1 3242.64,-221.05"/>
<polygon fill="midnightblue" stroke="midnightblue" points="2106.43,-274.54 2096.62,-278.53 2106.78,-281.53 2106.43,-274.54"/>
</g>
<!-- Node5 -->
<g id="node5" class="node">
<title>Node5</title>
<g id="a_node5"><a xlink:href="LuaMap_8cpp.html" target="_top" xlink:title=" ">
<polygon fill="white" stroke="black" points="207.5,-140 207.5,-159 347.5,-159 347.5,-140 207.5,-140"/>
<text text-anchor="middle" x="277.5" y="-147" font-family="Helvetica,sans-Serif" font-size="10.00">sources/Map/LuaMap.cpp</text>
</a>
</g>
</g>
<!-- Node4&#45;&gt;Node5 -->
<g id="edge4" class="edge">
<title>Node4&#45;&gt;Node5</title>
<path fill="none" stroke="midnightblue" d="M984.79,-204.98C976.72,-203.45 968.39,-202.04 960.5,-201 693.87,-166.01 623.47,-197.33 356.5,-165 344.18,-163.51 330.88,-161.3 318.77,-159.06"/>
<polygon fill="midnightblue" stroke="midnightblue" points="984.33,-208.46 994.82,-206.97 985.69,-201.59 984.33,-208.46"/>
</g>
<!-- Node6 -->
<g id="node6" class="node">
<title>Node6</title>
<g id="a_node6"><a xlink:href="Map_8cpp.html" target="_top" xlink:title=" ">
<polygon fill="white" stroke="black" points="1304.5,-140 1304.5,-159 1426.5,-159 1426.5,-140 1304.5,-140"/>
<text text-anchor="middle" x="1365.5" y="-147" font-family="Helvetica,sans-Serif" font-size="10.00">sources/Map/Map.cpp</text>
</a>
</g>
</g>
<!-- Node4&#45;&gt;Node6 -->
<g id="edge5" class="edge">
<title>Node4&#45;&gt;Node6</title>
<path fill="none" stroke="midnightblue" d="M1086.59,-205.12C1139.82,-195.04 1222.73,-179.22 1294.5,-165 1304.13,-163.09 1314.48,-161 1324.22,-159.02"/>
<polygon fill="midnightblue" stroke="midnightblue" points="1085.85,-201.7 1076.67,-206.99 1087.15,-208.57 1085.85,-201.7"/>
</g>
<!-- Node7 -->
<g id="node7" class="node">
<title>Node7</title>
<g id="a_node7"><a xlink:href="MapInfo_8hpp.html" target="_top" xlink:title=" ">
<polygon fill="white" stroke="black" points="365.5,-140 365.5,-159 507.5,-159 507.5,-140 365.5,-140"/>
<text text-anchor="middle" x="436.5" y="-147" font-family="Helvetica,sans-Serif" font-size="10.00">sources/Map/MapInfo.hpp</text>
</a>
</g>
</g>
<!-- Node4&#45;&gt;Node7 -->
<g id="edge6" class="edge">
<title>Node4&#45;&gt;Node7</title>
<path fill="none" stroke="midnightblue" d="M983.69,-204.99C975.96,-203.51 968.03,-202.11 960.5,-201 787.42,-175.46 742.57,-182.55 568.5,-165 548.77,-163.01 527.4,-160.72 507.72,-158.56"/>
<polygon fill="midnightblue" stroke="midnightblue" points="983.19,-208.46 993.68,-206.97 984.56,-201.59 983.19,-208.46"/>
</g>
<!-- Node13 -->
<g id="node13" class="node">
<title>Node13</title>
<g id="a_node13"><a xlink:href="ParserYaml_8cpp.html" target="_top" xlink:title=" ">
<polygon fill="white" stroke="black" points="547.5,-73 547.5,-92 711.5,-92 711.5,-73 547.5,-73"/>
<text text-anchor="middle" x="629.5" y="-80" font-family="Helvetica,sans-Serif" font-size="10.00">sources/Parser/ParserYaml.cpp</text>
</a>
</g>
</g>
<!-- Node4&#45;&gt;Node13 -->
<g id="edge12" class="edge">
<title>Node4&#45;&gt;Node13</title>
<path fill="none" stroke="midnightblue" d="M983.42,-204.99C975.77,-203.52 967.94,-202.13 960.5,-201 881.23,-188.96 655.29,-224.46 601.5,-165 582.23,-143.7 607.61,-108.51 621.51,-92.24"/>
<polygon fill="midnightblue" stroke="midnightblue" points="982.82,-208.44 993.31,-206.96 984.18,-201.58 982.82,-208.44"/>
</g>
<!-- Node14 -->
<g id="node14" class="node">
<title>Node14</title>
<g id="a_node14"><a xlink:href="ParserYaml_8hpp.html" target="_top" xlink:title=" ">
<polygon fill="white" stroke="black" points="610.5,-140 610.5,-159 774.5,-159 774.5,-140 610.5,-140"/>
<text text-anchor="middle" x="692.5" y="-147" font-family="Helvetica,sans-Serif" font-size="10.00">sources/Parser/ParserYaml.hpp</text>
</a>
</g>
</g>
<!-- Node4&#45;&gt;Node14 -->
<g id="edge13" class="edge">
<title>Node4&#45;&gt;Node14</title>
<path fill="none" stroke="midnightblue" d="M980.01,-204.89C973.45,-203.56 966.82,-202.24 960.5,-201 882.91,-185.77 792.5,-168.92 739.02,-159.04"/>
<polygon fill="midnightblue" stroke="midnightblue" points="979.73,-208.4 990.22,-206.96 981.12,-201.54 979.73,-208.4"/>
</g>
<!-- Node4&#45;&gt;Node18 -->
<g id="edge19" class="edge">
<title>Node4&#45;&gt;Node18</title>
<path fill="none" stroke="midnightblue" d="M1063.54,-203.1C1096.89,-190.2 1148.25,-170.33 1177.37,-159.06"/>
<polygon fill="midnightblue" stroke="midnightblue" points="1061.87,-200 1053.81,-206.87 1064.4,-206.52 1061.87,-200"/>
</g>
<!-- Node19 -->
<g id="node19" class="node">
<title>Node19</title>
<g id="a_node19"><a xlink:href="BombHolderSystem_8cpp.html" target="_top" xlink:title=" ">
<polygon fill="white" stroke="black" points="792.5,-134.5 792.5,-164.5 950.5,-164.5 950.5,-134.5 792.5,-134.5"/>
<text text-anchor="start" x="800.5" y="-152.5" font-family="Helvetica,sans-Serif" font-size="10.00">sources/System/BombHolder</text>
<text text-anchor="middle" x="871.5" y="-141.5" font-family="Helvetica,sans-Serif" font-size="10.00">/BombHolderSystem.cpp</text>
</a>
</g>
</g>
<!-- Node4&#45;&gt;Node19 -->
<g id="edge20" class="edge">
<title>Node4&#45;&gt;Node19</title>
<path fill="none" stroke="midnightblue" d="M1000.87,-203.06C973.77,-192.05 934.25,-175.99 906.03,-164.53"/>
<polygon fill="midnightblue" stroke="midnightblue" points="999.67,-206.35 1010.25,-206.87 1002.31,-199.86 999.67,-206.35"/>
</g>
<!-- Node20 -->
<g id="node20" class="node">
<title>Node20</title>
<g id="a_node20"><a xlink:href="LobbySystem_8cpp.html" target="_top" xlink:title=" ">
<polygon fill="white" stroke="black" points="968.5,-134.5 968.5,-164.5 1094.5,-164.5 1094.5,-134.5 968.5,-134.5"/>
<text text-anchor="start" x="976.5" y="-152.5" font-family="Helvetica,sans-Serif" font-size="10.00">sources/System/Lobby</text>
<text text-anchor="middle" x="1031.5" y="-141.5" font-family="Helvetica,sans-Serif" font-size="10.00">/LobbySystem.cpp</text>
</a>
</g>
</g>
<!-- Node4&#45;&gt;Node20 -->
<g id="edge21" class="edge">
<title>Node4&#45;&gt;Node20</title>
<path fill="none" stroke="midnightblue" d="M1031.5,-196.41C1031.5,-186.22 1031.5,-173.9 1031.5,-164.59"/>
<polygon fill="midnightblue" stroke="midnightblue" points="1028,-196.73 1031.5,-206.73 1035,-196.73 1028,-196.73"/>
</g>
<!-- Node8 -->
<g id="node8" class="node">
<title>Node8</title>
<g id="a_node8"><a xlink:href="IAControllableComponent_8cpp.html" target="_top" xlink:title=" ">
<polygon fill="white" stroke="black" points="344,-67.5 344,-97.5 529,-97.5 529,-67.5 344,-67.5"/>
<text text-anchor="start" x="352" y="-85.5" font-family="Helvetica,sans-Serif" font-size="10.00">sources/Component/IAControllable</text>
<text text-anchor="middle" x="436.5" y="-74.5" font-family="Helvetica,sans-Serif" font-size="10.00">/IAControllableComponent.cpp</text>
</a>
</g>
</g>
<!-- Node7&#45;&gt;Node8 -->
<g id="edge7" class="edge">
<title>Node7&#45;&gt;Node8</title>
<path fill="none" stroke="midnightblue" d="M436.5,-129.41C436.5,-119.22 436.5,-106.9 436.5,-97.59"/>
<polygon fill="midnightblue" stroke="midnightblue" points="433,-129.73 436.5,-139.73 440,-129.73 433,-129.73"/>
</g>
<!-- Node9 -->
<g id="node9" class="node">
<title>Node9</title>
<g id="a_node9"><a xlink:href="MapInfo_8cpp.html" target="_top" xlink:title=" ">
<polygon fill="white" stroke="black" points="0,-73 0,-92 141,-92 141,-73 0,-73"/>
<text text-anchor="middle" x="70.5" y="-80" font-family="Helvetica,sans-Serif" font-size="10.00">sources/Map/MapInfo.cpp</text>
</a>
</g>
</g>
<!-- Node7&#45;&gt;Node9 -->
<g id="edge8" class="edge">
<title>Node7&#45;&gt;Node9</title>
<path fill="none" stroke="midnightblue" d="M379.49,-138.12C371.77,-136.73 363.94,-135.32 356.5,-134 265,-117.71 242,-114.29 150.5,-98 139.8,-96.1 128.3,-94.02 117.45,-92.06"/>
<polygon fill="midnightblue" stroke="midnightblue" points="379.09,-141.61 389.55,-139.94 380.34,-134.72 379.09,-141.61"/>
</g>
<!-- Node10 -->
<g id="node10" class="node">
<title>Node10</title>
<g id="a_node10"><a xlink:href="IAControllableSystem_8hpp.html" target="_top" xlink:title=" ">
<polygon fill="white" stroke="black" points="159.5,-67.5 159.5,-97.5 325.5,-97.5 325.5,-67.5 159.5,-67.5"/>
<text text-anchor="start" x="167.5" y="-85.5" font-family="Helvetica,sans-Serif" font-size="10.00">sources/System/IAControllable</text>
<text text-anchor="middle" x="242.5" y="-74.5" font-family="Helvetica,sans-Serif" font-size="10.00">/IAControllableSystem.hpp</text>
</a>
</g>
</g>
<!-- Node7&#45;&gt;Node10 -->
<g id="edge9" class="edge">
<title>Node7&#45;&gt;Node10</title>
<path fill="none" stroke="midnightblue" d="M401.08,-136.63C368.19,-125.61 319.18,-109.19 284.37,-97.53"/>
<polygon fill="midnightblue" stroke="midnightblue" points="400.14,-140.01 410.74,-139.87 402.37,-133.37 400.14,-140.01"/>
</g>
<!-- Node11 -->
<g id="node11" class="node">
<title>Node11</title>
<g id="a_node11"><a xlink:href="Runner_8cpp.html" target="_top" xlink:title=" ">
<polygon fill="white" stroke="black" points="1936,-6 1936,-25 2085,-25 2085,-6 1936,-6"/>
<text text-anchor="middle" x="2010.5" y="-13" font-family="Helvetica,sans-Serif" font-size="10.00">sources/Runner/Runner.cpp</text>
</a>
</g>
</g>
<!-- Node10&#45;&gt;Node11 -->
<g id="edge10" class="edge">
<title>Node10&#45;&gt;Node11</title>
<path fill="none" stroke="midnightblue" d="M335.94,-66.97C672.53,-36.99 1656.82,-21.41 1935.96,-17.49"/>
<polygon fill="midnightblue" stroke="midnightblue" points="335.33,-63.51 325.69,-67.91 335.96,-70.48 335.33,-63.51"/>
</g>
<!-- Node12 -->
<g id="node12" class="node">
<title>Node12</title>
<g id="a_node12"><a xlink:href="IAControllableSystem_8cpp.html" target="_top" xlink:title=" ">
<polygon fill="white" stroke="black" points="159.5,-0.5 159.5,-30.5 325.5,-30.5 325.5,-0.5 159.5,-0.5"/>
<text text-anchor="start" x="167.5" y="-18.5" font-family="Helvetica,sans-Serif" font-size="10.00">sources/System/IAControllable</text>
<text text-anchor="middle" x="242.5" y="-7.5" font-family="Helvetica,sans-Serif" font-size="10.00">/IAControllableSystem.cpp</text>
</a>
</g>
</g>
<!-- Node10&#45;&gt;Node12 -->
<g id="edge11" class="edge">
<title>Node10&#45;&gt;Node12</title>
<path fill="none" stroke="midnightblue" d="M242.5,-57.11C242.5,-48.15 242.5,-38.32 242.5,-30.58"/>
<polygon fill="midnightblue" stroke="midnightblue" points="239,-57.4 242.5,-67.4 246,-57.4 239,-57.4"/>
</g>
<!-- Node14&#45;&gt;Node11 -->
<g id="edge17" class="edge">
<title>Node14&#45;&gt;Node11</title>
<path fill="none" stroke="midnightblue" d="M751.18,-138.41C761.91,-136.78 773.02,-135.22 783.5,-134 996.87,-109.08 1052.36,-124.77 1265.5,-98 1343.87,-88.16 1362.2,-77.38 1440.5,-67 1617.28,-43.56 1826.39,-28.16 1935.58,-21.05"/>
<polygon fill="midnightblue" stroke="midnightblue" points="750.38,-135 741.04,-140 751.46,-141.91 750.38,-135"/>
</g>
<!-- Node14&#45;&gt;Node13 -->
<g id="edge14" class="edge">
<title>Node14&#45;&gt;Node13</title>
<path fill="none" stroke="midnightblue" d="M676.99,-132.5C664.63,-119.75 647.81,-102.39 637.86,-92.13"/>
<polygon fill="midnightblue" stroke="midnightblue" points="674.53,-134.99 684,-139.73 679.56,-130.12 674.53,-134.99"/>
</g>
<!-- Node15 -->
<g id="node15" class="node">
<title>Node15</title>
<g id="a_node15"><a xlink:href="MainMenuScene_8cpp.html" target="_top" xlink:title=" ">
<polygon fill="white" stroke="black" points="894,-73 894,-92 1089,-92 1089,-73 894,-73"/>
<text text-anchor="middle" x="991.5" y="-80" font-family="Helvetica,sans-Serif" font-size="10.00">sources/Runner/MainMenuScene.cpp</text>
</a>
</g>
</g>
<!-- Node14&#45;&gt;Node15 -->
<g id="edge15" class="edge">
<title>Node14&#45;&gt;Node15</title>
<path fill="none" stroke="midnightblue" d="M741.71,-137.8C800.55,-125.01 897.85,-103.86 952.02,-92.08"/>
<polygon fill="midnightblue" stroke="midnightblue" points="740.92,-134.39 731.9,-139.94 742.41,-141.23 740.92,-134.39"/>
</g>
<!-- Node16 -->
<g id="node16" class="node">
<title>Node16</title>
<g id="a_node16"><a xlink:href="PauseMenuScene_8cpp.html" target="_top" xlink:title=" ">
<polygon fill="white" stroke="black" points="1106.5,-67.5 1106.5,-97.5 1256.5,-97.5 1256.5,-67.5 1106.5,-67.5"/>
<text text-anchor="start" x="1114.5" y="-85.5" font-family="Helvetica,sans-Serif" font-size="10.00">sources/Runner/PauseMenu</text>
<text text-anchor="middle" x="1181.5" y="-74.5" font-family="Helvetica,sans-Serif" font-size="10.00">Scene.cpp</text>
</a>
</g>
</g>
<!-- Node14&#45;&gt;Node16 -->
<g id="edge16" class="edge">
<title>Node14&#45;&gt;Node16</title>
<path fill="none" stroke="midnightblue" d="M753.39,-138.42C763.44,-136.87 773.75,-135.33 783.5,-134 922.67,-114.94 958.45,-117.96 1097.5,-98 1100.43,-97.58 1103.41,-97.14 1106.43,-96.68"/>
<polygon fill="midnightblue" stroke="midnightblue" points="752.8,-134.97 743.46,-139.98 753.88,-141.89 752.8,-134.97"/>
</g>
<!-- Node17 -->
<g id="node17" class="node">
<title>Node17</title>
<g id="a_node17"><a xlink:href="ResumeLobbySystem_8cpp.html" target="_top" xlink:title=" ">
<polygon fill="white" stroke="black" points="729.5,-67.5 729.5,-97.5 875.5,-97.5 875.5,-67.5 729.5,-67.5"/>
<text text-anchor="start" x="737.5" y="-85.5" font-family="Helvetica,sans-Serif" font-size="10.00">sources/System/Lobby</text>
<text text-anchor="middle" x="802.5" y="-74.5" font-family="Helvetica,sans-Serif" font-size="10.00">/ResumeLobbySystem.cpp</text>
</a>
</g>
</g>
<!-- Node14&#45;&gt;Node17 -->
<g id="edge18" class="edge">
<title>Node14&#45;&gt;Node17</title>
<path fill="none" stroke="midnightblue" d="M716.02,-134.6C734.49,-123.69 760.1,-108.55 778.66,-97.59"/>
<polygon fill="midnightblue" stroke="midnightblue" points="714.16,-131.63 707.34,-139.73 717.72,-137.66 714.16,-131.63"/>
</g>
<!-- Node21&#45;&gt;Node11 -->
<g id="edge24" class="edge">
<title>Node21&#45;&gt;Node11</title>
<path fill="none" stroke="midnightblue" d="M1509.46,-196.86C1495.27,-189.28 1481.7,-178.92 1473.5,-165 1466.51,-153.13 1464.86,-144.73 1473.5,-134 1530.72,-62.91 1802.15,-32.46 1935.8,-21.6"/>
<polygon fill="midnightblue" stroke="midnightblue" points="1508.31,-200.2 1518.83,-201.46 1511.39,-193.91 1508.31,-200.2"/>
</g>
<!-- Node22 -->
<g id="node22" class="node">
<title>Node22</title>
<g id="a_node22"><a xlink:href="BumperTimerSystem_8cpp.html" target="_top" xlink:title=" ">
<polygon fill="white" stroke="black" points="1482.5,-134.5 1482.5,-164.5 1646.5,-164.5 1646.5,-134.5 1482.5,-134.5"/>
<text text-anchor="start" x="1490.5" y="-152.5" font-family="Helvetica,sans-Serif" font-size="10.00">sources/System/BumperTimer</text>
<text text-anchor="middle" x="1564.5" y="-141.5" font-family="Helvetica,sans-Serif" font-size="10.00">/BumperTimerSystem.cpp</text>
</a>
</g>
</g>
<!-- Node21&#45;&gt;Node22 -->
<g id="edge25" class="edge">
<title>Node21&#45;&gt;Node22</title>
<path fill="none" stroke="midnightblue" d="M1564.5,-191.11C1564.5,-182.15 1564.5,-172.32 1564.5,-164.58"/>
<polygon fill="midnightblue" stroke="midnightblue" points="1561,-191.4 1564.5,-201.4 1568,-191.4 1561,-191.4"/>
</g>
<!-- Node24&#45;&gt;Node6 -->
<g id="edge28" class="edge">
<title>Node24&#45;&gt;Node6</title>
<path fill="none" stroke="midnightblue" d="M1752.7,-204.39C1660.34,-191.54 1510.24,-170.65 1426.65,-159.01"/>
<polygon fill="midnightblue" stroke="midnightblue" points="1752.45,-207.89 1762.84,-205.8 1753.42,-200.96 1752.45,-207.89"/>
</g>
<!-- Node24&#45;&gt;Node11 -->
<g id="edge29" class="edge">
<title>Node24&#45;&gt;Node11</title>
<path fill="none" stroke="midnightblue" d="M1834.14,-191.03C1836.28,-173.86 1841.2,-151.03 1852.5,-134 1888.42,-79.89 1958.05,-41.37 1991.57,-25.11"/>
<polygon fill="midnightblue" stroke="midnightblue" points="1830.62,-191.08 1833.09,-201.38 1837.58,-191.78 1830.62,-191.08"/>
</g>
<!-- Node24&#45;&gt;Node23 -->
<g id="edge30" class="edge">
<title>Node24&#45;&gt;Node23</title>
<path fill="none" stroke="midnightblue" d="M1802.7,-195.73C1787.53,-185.68 1769.46,-173.68 1755.72,-164.58"/>
<polygon fill="midnightblue" stroke="midnightblue" points="1800.97,-198.79 1811.24,-201.4 1804.84,-192.95 1800.97,-198.79"/>
</g>
<!-- Node24&#45;&gt;Node25 -->
<g id="edge31" class="edge">
<title>Node24&#45;&gt;Node25</title>
<path fill="none" stroke="midnightblue" d="M1860.77,-195.31C1877.86,-183.1 1898.75,-168.18 1911.59,-159.01"/>
<polygon fill="midnightblue" stroke="midnightblue" points="1858.35,-192.74 1852.25,-201.4 1862.42,-198.43 1858.35,-192.74"/>
</g>
<!-- Node26&#45;&gt;Node11 -->
<g id="edge33" class="edge">
<title>Node26&#45;&gt;Node11</title>
<path fill="none" stroke="midnightblue" d="M2149.27,-194.3C2157.34,-186.09 2165.24,-176.01 2169.5,-165 2174.47,-152.15 2175.71,-146.3 2169.5,-134 2140.59,-76.69 2069.08,-40.41 2032.63,-25.02"/>
<polygon fill="midnightblue" stroke="midnightblue" points="2146.75,-191.86 2141.92,-201.29 2151.58,-196.94 2146.75,-191.86"/>
</g>
<!-- Node26&#45;&gt;Node27 -->
<g id="edge34" class="edge">
<title>Node26&#45;&gt;Node27</title>
<path fill="none" stroke="midnightblue" d="M2109.22,-192.87C2103.29,-183.46 2096.59,-172.83 2091.38,-164.58"/>
<polygon fill="midnightblue" stroke="midnightblue" points="2106.31,-194.81 2114.6,-201.4 2112.23,-191.07 2106.31,-194.81"/>
</g>
<!-- Node26&#45;&gt;Node28 -->
<g id="edge35" class="edge">
<title>Node26&#45;&gt;Node28</title>
<path fill="none" stroke="midnightblue" d="M2165.79,-197.3C2194.91,-184.76 2232.26,-168.68 2254.74,-159.01"/>
<polygon fill="midnightblue" stroke="midnightblue" points="2164.07,-194.23 2156.26,-201.4 2166.83,-200.66 2164.07,-194.23"/>
</g>
<!-- Node29&#45;&gt;Node11 -->
<g id="edge38" class="edge">
<title>Node29&#45;&gt;Node11</title>
<path fill="none" stroke="midnightblue" d="M2338.11,-192.52C2346.52,-175.03 2353.6,-151.13 2341.5,-134 2283.73,-52.19 2163.83,-26.99 2085.31,-19.43"/>
<polygon fill="midnightblue" stroke="midnightblue" points="2334.95,-191.01 2333.42,-201.49 2341.16,-194.25 2334.95,-191.01"/>
</g>
<!-- Node30 -->
<g id="node30" class="node">
<title>Node30</title>
<g id="a_node30"><a xlink:href="GravitySystem_8cpp.html" target="_top" xlink:title=" ">
<polygon fill="white" stroke="black" points="2389,-134.5 2389,-164.5 2522,-164.5 2522,-134.5 2389,-134.5"/>
<text text-anchor="start" x="2397" y="-152.5" font-family="Helvetica,sans-Serif" font-size="10.00">sources/System/Gravity</text>
<text text-anchor="middle" x="2455.5" y="-141.5" font-family="Helvetica,sans-Serif" font-size="10.00">/GravitySystem.cpp</text>
</a>
</g>
</g>
<!-- Node29&#45;&gt;Node30 -->
<g id="edge39" class="edge">
<title>Node29&#45;&gt;Node30</title>
<path fill="none" stroke="midnightblue" d="M2362.08,-196.85C2382.79,-186.58 2408.09,-174.03 2427.13,-164.58"/>
<polygon fill="midnightblue" stroke="midnightblue" points="2360.33,-193.82 2352.93,-201.4 2363.44,-200.09 2360.33,-193.82"/>
</g>
<!-- Node32&#45;&gt;Node11 -->
<g id="edge44" class="edge">
<title>Node32&#45;&gt;Node11</title>
<path fill="none" stroke="midnightblue" d="M2737.2,-199.76C2788.12,-188.9 2845.97,-174.72 2853.5,-165 2861.94,-154.11 2862.54,-144.39 2853.5,-134 2803.24,-76.25 2281.85,-34.99 2085.1,-21.38"/>
<polygon fill="midnightblue" stroke="midnightblue" points="2736.19,-196.4 2727.13,-201.89 2737.64,-203.25 2736.19,-196.4"/>
</g>
<!-- Node32&#45;&gt;Node25 -->
<g id="edge46" class="edge">
<title>Node32&#45;&gt;Node25</title>
<path fill="none" stroke="midnightblue" d="M2577.77,-200.89C2319.65,-169.92 2250.08,-198.32 1995.5,-165 1984.12,-163.51 1971.84,-161.28 1960.71,-159"/>
<polygon fill="midnightblue" stroke="midnightblue" points="2577.47,-204.38 2587.82,-202.11 2578.32,-197.43 2577.47,-204.38"/>
</g>
<!-- Node32&#45;&gt;Node28 -->
<g id="edge48" class="edge">
<title>Node32&#45;&gt;Node28</title>
<path fill="none" stroke="midnightblue" d="M2577.88,-200.73C2484.52,-184.4 2386.86,-168.49 2328,-159.03"/>
<polygon fill="midnightblue" stroke="midnightblue" points="2577.32,-204.19 2587.77,-202.47 2578.53,-197.29 2577.32,-204.19"/>
</g>
<!-- Node33 -->
<g id="node33" class="node">
<title>Node33</title>
<g id="a_node33"><a xlink:href="LobbyScene_8cpp.html" target="_top" xlink:title=" ">
<polygon fill="white" stroke="black" points="2901,-140 2901,-159 3074,-159 3074,-140 2901,-140"/>
<text text-anchor="middle" x="2987.5" y="-147" font-family="Helvetica,sans-Serif" font-size="10.00">sources/Runner/LobbyScene.cpp</text>
</a>
</g>
</g>
<!-- Node32&#45;&gt;Node33 -->
<g id="edge42" class="edge">
<title>Node32&#45;&gt;Node33</title>
<path fill="none" stroke="midnightblue" d="M2736.9,-199.86C2802,-187.04 2891.69,-169.37 2944.24,-159.02"/>
<polygon fill="midnightblue" stroke="midnightblue" points="2736.22,-196.43 2727.08,-201.79 2737.57,-203.3 2736.22,-196.43"/>
</g>
<!-- Node34 -->
<g id="node34" class="node">
<title>Node34</title>
<g id="a_node34"><a xlink:href="ResumeLobbyScene_8cpp.html" target="_top" xlink:title=" ">
<polygon fill="white" stroke="black" points="2540.5,-134.5 2540.5,-164.5 2704.5,-164.5 2704.5,-134.5 2540.5,-134.5"/>
<text text-anchor="start" x="2548.5" y="-152.5" font-family="Helvetica,sans-Serif" font-size="10.00">sources/Runner/ResumeLobby</text>
<text text-anchor="middle" x="2622.5" y="-141.5" font-family="Helvetica,sans-Serif" font-size="10.00">Scene.cpp</text>
</a>
</g>
</g>
<!-- Node32&#45;&gt;Node34 -->
<g id="edge43" class="edge">
<title>Node32&#45;&gt;Node34</title>
<path fill="none" stroke="midnightblue" d="M2645.16,-192.58C2640.13,-183.24 2634.48,-172.75 2630.08,-164.58"/>
<polygon fill="midnightblue" stroke="midnightblue" points="2642.08,-194.25 2649.91,-201.4 2648.25,-190.93 2642.08,-194.25"/>
</g>
<!-- Node32&#45;&gt;Node35 -->
<g id="edge45" class="edge">
<title>Node32&#45;&gt;Node35</title>
<path fill="none" stroke="midnightblue" d="M2737.06,-201.63C2738.55,-201.41 2740.03,-201.2 2741.5,-201 2892.89,-179.99 2932.25,-186.98 3083.5,-165 3086.23,-164.6 3089,-164.18 3091.8,-163.74"/>
<polygon fill="midnightblue" stroke="midnightblue" points="2736.49,-198.18 2727.12,-203.12 2737.52,-205.1 2736.49,-198.18"/>
</g>
<!-- Node36 -->
<g id="node36" class="node">
<title>Node36</title>
<g id="a_node36"><a xlink:href="EngineTests_8cpp.html" target="_top" xlink:title=" ">
<polygon fill="white" stroke="black" points="2722.5,-140 2722.5,-159 2844.5,-159 2844.5,-140 2722.5,-140"/>
<text text-anchor="middle" x="2783.5" y="-147" font-family="Helvetica,sans-Serif" font-size="10.00">tests/EngineTests.cpp</text>
</a>
</g>
</g>
<!-- Node32&#45;&gt;Node36 -->
<g id="edge47" class="edge">
<title>Node32&#45;&gt;Node36</title>
<path fill="none" stroke="midnightblue" d="M2693.74,-196.8C2717.9,-184.34 2748.5,-168.56 2767.01,-159.01"/>
<polygon fill="midnightblue" stroke="midnightblue" points="2692.12,-193.7 2684.84,-201.4 2695.33,-199.92 2692.12,-193.7"/>
</g>
<!-- Node38&#45;&gt;Node11 -->
<g id="edge52" class="edge">
<title>Node38&#45;&gt;Node11</title>
<path fill="none" stroke="midnightblue" d="M3300.03,-192.98C3287.27,-173.84 3266.25,-147.4 3240.5,-134 3037.71,-28.5 2320.07,-17.22 2085.38,-16.41"/>
<polygon fill="midnightblue" stroke="midnightblue" points="3297.11,-194.91 3305.46,-201.44 3303,-191.13 3297.11,-194.91"/>
</g>
<!-- Node39 -->
<g id="node39" class="node">
<title>Node39</title>
<g id="a_node39"><a xlink:href="SettingsMenuScene_8cpp.html" target="_top" xlink:title=" ">
<polygon fill="white" stroke="black" points="3288,-134.5 3288,-164.5 3449,-164.5 3449,-134.5 3288,-134.5"/>
<text text-anchor="start" x="3296" y="-152.5" font-family="Helvetica,sans-Serif" font-size="10.00">sources/Runner/SettingsMenu</text>
<text text-anchor="middle" x="3368.5" y="-141.5" font-family="Helvetica,sans-Serif" font-size="10.00">Scene.cpp</text>
</a>
</g>
</g>
<!-- Node38&#45;&gt;Node39 -->
<g id="edge53" class="edge">
<title>Node38&#45;&gt;Node39</title>
<path fill="none" stroke="midnightblue" d="M3331.92,-193.74C3340.05,-184.12 3349.39,-173.09 3356.59,-164.58"/>
<polygon fill="midnightblue" stroke="midnightblue" points="3329.22,-191.5 3325.43,-201.4 3334.57,-196.02 3329.22,-191.5"/>
</g>
<!-- Node40 -->
<g id="node40" class="node">
<title>Node40</title>
<g id="a_node40"><a xlink:href="RenderSystem_8cpp.html" target="_top" xlink:title=" ">
<polygon fill="white" stroke="black" points="3467,-134.5 3467,-164.5 3608,-164.5 3608,-134.5 3467,-134.5"/>
<text text-anchor="start" x="3475" y="-152.5" font-family="Helvetica,sans-Serif" font-size="10.00">sources/System/Renderer</text>
<text text-anchor="middle" x="3537.5" y="-141.5" font-family="Helvetica,sans-Serif" font-size="10.00">/RenderSystem.cpp</text>
</a>
</g>
</g>
<!-- Node38&#45;&gt;Node40 -->
<g id="edge54" class="edge">
<title>Node38&#45;&gt;Node40</title>
<path fill="none" stroke="midnightblue" d="M3371.81,-198.58C3408.19,-188.02 3454.47,-174.59 3488.87,-164.61"/>
<polygon fill="midnightblue" stroke="midnightblue" points="3370.46,-195.33 3361.83,-201.48 3372.41,-202.05 3370.46,-195.33"/>
</g>
</g>
</svg>
