<?xml version="1.0" encoding="UTF-8" standalone="no"?>
<!DOCTYPE svg PUBLIC "-//W3C//DTD SVG 1.1//EN"
 "http://www.w3.org/Graphics/SVG/1.1/DTD/svg11.dtd">
<!-- Generated by graphviz version 2.43.0 (0)
 -->
<!-- Title: sources/System/Movable/MovableSystem.cpp Pages: 1 -->
<svg width="1234pt" height="498pt"
 viewBox="0.00 0.00 1234.00 498.00" xmlns="http://www.w3.org/2000/svg" xmlns:xlink="http://www.w3.org/1999/xlink">
<g id="graph0" class="graph" transform="scale(1 1) rotate(0) translate(4 494)">
<title>sources/System/Movable/MovableSystem.cpp</title>
<polygon fill="white" stroke="transparent" points="-4,4 -4,-494 1230,-494 1230,4 -4,4"/>
<!-- Node1 -->
<g id="node1" class="node">
<title>Node1</title>
<g id="a_node1"><a xlink:title=" ">
<polygon fill="#bfbfbf" stroke="black" points="123.5,-459.5 123.5,-489.5 262.5,-489.5 262.5,-459.5 123.5,-459.5"/>
<text text-anchor="start" x="131.5" y="-477.5" font-family="Helvetica,sans-Serif" font-size="10.00">sources/System/Movable</text>
<text text-anchor="middle" x="193" y="-466.5" font-family="Helvetica,sans-Serif" font-size="10.00">/MovableSystem.cpp</text>
</a>
</g>
</g>
<!-- Node2 -->
<g id="node2" class="node">
<title>Node2</title>
<g id="a_node2"><a xlink:href="PositionComponent_8hpp.html" target="_top" xlink:title=" ">
<polygon fill="white" stroke="black" points="0,-336.5 0,-366.5 136,-366.5 136,-336.5 0,-336.5"/>
<text text-anchor="start" x="8" y="-354.5" font-family="Helvetica,sans-Serif" font-size="10.00">Component/Position</text>
<text text-anchor="middle" x="68" y="-343.5" font-family="Helvetica,sans-Serif" font-size="10.00">/PositionComponent.hpp</text>
</a>
</g>
</g>
<!-- Node1&#45;&gt;Node2 -->
<g id="edge1" class="edge">
<title>Node1&#45;&gt;Node2</title>
<path fill="none" stroke="midnightblue" d="M178.17,-459.14C156.37,-438.04 115.51,-398.49 90.15,-373.94"/>
<polygon fill="midnightblue" stroke="midnightblue" points="92.43,-371.28 82.81,-366.84 87.56,-376.31 92.43,-371.28"/>
</g>
<!-- Node12 -->
<g id="node12" class="node">
<title>Node12</title>
<g id="a_node12"><a xlink:href="MovableSystem_8hpp.html" target="_top" xlink:title=" ">
<polygon fill="white" stroke="black" points="221,-403.5 221,-422.5 337,-422.5 337,-403.5 221,-403.5"/>
<text text-anchor="middle" x="279" y="-410.5" font-family="Helvetica,sans-Serif" font-size="10.00">MovableSystem.hpp</text>
</a>
</g>
</g>
<!-- Node1&#45;&gt;Node12 -->
<g id="edge11" class="edge">
<title>Node1&#45;&gt;Node12</title>
<path fill="none" stroke="midnightblue" d="M213.38,-459.4C226.91,-450.04 244.61,-437.79 258.22,-428.38"/>
<polygon fill="midnightblue" stroke="midnightblue" points="260.25,-431.23 266.49,-422.66 256.27,-425.47 260.25,-431.23"/>
</g>
<!-- Node13 -->
<g id="node13" class="node">
<title>Node13</title>
<g id="a_node13"><a xlink:href="MovableComponent_8hpp.html" target="_top" xlink:title=" ">
<polygon fill="white" stroke="black" points="154.5,-336.5 154.5,-366.5 317.5,-366.5 317.5,-336.5 154.5,-336.5"/>
<text text-anchor="start" x="162.5" y="-354.5" font-family="Helvetica,sans-Serif" font-size="10.00">Component/Movable/Movable</text>
<text text-anchor="middle" x="236" y="-343.5" font-family="Helvetica,sans-Serif" font-size="10.00">Component.hpp</text>
</a>
</g>
</g>
<!-- Node1&#45;&gt;Node13 -->
<g id="edge64" class="edge">
<title>Node1&#45;&gt;Node13</title>
<path fill="none" stroke="midnightblue" d="M195.99,-459.49C199.24,-445.1 204.94,-422.15 212,-403 215.33,-393.97 219.69,-384.35 223.77,-375.96"/>
<polygon fill="midnightblue" stroke="midnightblue" points="227.02,-377.3 228.36,-366.79 220.75,-374.16 227.02,-377.3"/>
</g>
<!-- Node3 -->
<g id="node3" class="node">
<title>Node3</title>
<g id="a_node3"><a xlink:href="sources_2Models_2Vector3_8hpp.html" target="_top" xlink:title=" ">
<polygon fill="white" stroke="black" points="166.5,-280.5 166.5,-299.5 279.5,-299.5 279.5,-280.5 166.5,-280.5"/>
<text text-anchor="middle" x="223" y="-287.5" font-family="Helvetica,sans-Serif" font-size="10.00">Models/Vector3.hpp</text>
</a>
</g>
</g>
<!-- Node2&#45;&gt;Node3 -->
<g id="edge2" class="edge">
<title>Node2&#45;&gt;Node3</title>
<path fill="none" stroke="midnightblue" d="M104.73,-336.4C130.97,-326.33 165.93,-312.91 191.02,-303.28"/>
<polygon fill="midnightblue" stroke="midnightblue" points="192.36,-306.51 200.45,-299.66 189.86,-299.97 192.36,-306.51"/>
</g>
<!-- Node8 -->
<g id="node8" class="node">
<title>Node8</title>
<g id="a_node8"><a xlink:href="Component_8hpp.html" target="_top" xlink:title=" ">
<polygon fill="white" stroke="black" points="294.5,-56.5 294.5,-75.5 447.5,-75.5 447.5,-56.5 294.5,-56.5"/>
<text text-anchor="middle" x="371" y="-63.5" font-family="Helvetica,sans-Serif" font-size="10.00">Component/Component.hpp</text>
</a>
</g>
</g>
<!-- Node2&#45;&gt;Node8 -->
<g id="edge7" class="edge">
<title>Node2&#45;&gt;Node8</title>
<path fill="none" stroke="midnightblue" d="M68.81,-336.28C69.98,-314.49 72,-271.52 72,-235 72,-235 72,-235 72,-177 72,-127.34 219.13,-93.22 306.97,-77.28"/>
<polygon fill="midnightblue" stroke="midnightblue" points="307.62,-80.72 316.85,-75.52 306.39,-73.83 307.62,-80.72"/>
</g>
<!-- Node4 -->
<g id="node4" class="node">
<title>Node4</title>
<g id="a_node4"><a xlink:title=" ">
<polygon fill="white" stroke="#bfbfbf" points="374,-224.5 374,-243.5 434,-243.5 434,-224.5 374,-224.5"/>
<text text-anchor="middle" x="404" y="-231.5" font-family="Helvetica,sans-Serif" font-size="10.00">iostream</text>
</a>
</g>
</g>
<!-- Node3&#45;&gt;Node4 -->
<g id="edge3" class="edge">
<title>Node3&#45;&gt;Node4</title>
<path fill="none" stroke="midnightblue" d="M251.68,-280.44C282.53,-271.24 331.73,-256.56 365.83,-246.39"/>
<polygon fill="midnightblue" stroke="midnightblue" points="366.87,-249.73 375.45,-243.52 364.87,-243.02 366.87,-249.73"/>
</g>
<!-- Node5 -->
<g id="node5" class="node">
<title>Node5</title>
<g id="a_node5"><a xlink:title=" ">
<polygon fill="white" stroke="#bfbfbf" points="105.5,-224.5 105.5,-243.5 152.5,-243.5 152.5,-224.5 105.5,-224.5"/>
<text text-anchor="middle" x="129" y="-231.5" font-family="Helvetica,sans-Serif" font-size="10.00">cmath</text>
</a>
</g>
</g>
<!-- Node3&#45;&gt;Node5 -->
<g id="edge4" class="edge">
<title>Node3&#45;&gt;Node5</title>
<path fill="none" stroke="midnightblue" d="M207.9,-280.32C193.1,-271.82 170.31,-258.73 153.02,-248.8"/>
<polygon fill="midnightblue" stroke="midnightblue" points="154.48,-245.6 144.07,-243.65 150.99,-251.67 154.48,-245.6"/>
</g>
<!-- Node6 -->
<g id="node6" class="node">
<title>Node6</title>
<g id="a_node6"><a xlink:href="lib_2Ray_2sources_2Vector_2Vector3_8hpp.html" target="_top" xlink:title=" ">
<polygon fill="white" stroke="black" points="171,-224.5 171,-243.5 279,-243.5 279,-224.5 171,-224.5"/>
<text text-anchor="middle" x="225" y="-231.5" font-family="Helvetica,sans-Serif" font-size="10.00">Vector/Vector3.hpp</text>
</a>
</g>
</g>
<!-- Node3&#45;&gt;Node6 -->
<g id="edge5" class="edge">
<title>Node3&#45;&gt;Node6</title>
<path fill="none" stroke="midnightblue" d="M223.33,-280.08C223.59,-273.01 223.97,-262.86 224.3,-253.99"/>
<polygon fill="midnightblue" stroke="midnightblue" points="227.8,-253.87 224.68,-243.75 220.81,-253.61 227.8,-253.87"/>
</g>
<!-- Node7 -->
<g id="node7" class="node">
<title>Node7</title>
<g id="a_node7"><a xlink:title=" ">
<polygon fill="white" stroke="#bfbfbf" points="198.5,-168.5 198.5,-187.5 251.5,-187.5 251.5,-168.5 198.5,-168.5"/>
<text text-anchor="middle" x="225" y="-175.5" font-family="Helvetica,sans-Serif" font-size="10.00">raylib.h</text>
</a>
</g>
</g>
<!-- Node6&#45;&gt;Node7 -->
<g id="edge6" class="edge">
<title>Node6&#45;&gt;Node7</title>
<path fill="none" stroke="midnightblue" d="M225,-224.08C225,-217.01 225,-206.86 225,-197.99"/>
<polygon fill="midnightblue" stroke="midnightblue" points="228.5,-197.75 225,-187.75 221.5,-197.75 228.5,-197.75"/>
</g>
<!-- Node9 -->
<g id="node9" class="node">
<title>Node9</title>
<g id="a_node9"><a xlink:title=" ">
<polygon fill="white" stroke="#bfbfbf" points="1088.5,-0.5 1088.5,-19.5 1135.5,-19.5 1135.5,-0.5 1088.5,-0.5"/>
<text text-anchor="middle" x="1112" y="-7.5" font-family="Helvetica,sans-Serif" font-size="10.00">vector</text>
</a>
</g>
</g>
<!-- Node8&#45;&gt;Node9 -->
<g id="edge8" class="edge">
<title>Node8&#45;&gt;Node9</title>
<path fill="none" stroke="midnightblue" d="M447.88,-56.81C450.96,-56.53 454.01,-56.26 457,-56 695.33,-35.55 755.41,-37.1 994,-20 1022.43,-17.96 1054.71,-15.49 1078.31,-13.65"/>
<polygon fill="midnightblue" stroke="midnightblue" points="1078.8,-17.12 1088.5,-12.86 1078.25,-10.15 1078.8,-17.12"/>
</g>
<!-- Node10 -->
<g id="node10" class="node">
<title>Node10</title>
<g id="a_node10"><a xlink:title=" ">
<polygon fill="white" stroke="#bfbfbf" points="439,-0.5 439,-19.5 483,-19.5 483,-0.5 439,-0.5"/>
<text text-anchor="middle" x="461" y="-7.5" font-family="Helvetica,sans-Serif" font-size="10.00">string</text>
</a>
</g>
</g>
<!-- Node8&#45;&gt;Node10 -->
<g id="edge9" class="edge">
<title>Node8&#45;&gt;Node10</title>
<path fill="none" stroke="midnightblue" d="M385.46,-56.32C399.5,-47.9 421.05,-34.97 437.54,-25.07"/>
<polygon fill="midnightblue" stroke="midnightblue" points="439.8,-27.8 446.58,-19.65 436.2,-21.8 439.8,-27.8"/>
</g>
<!-- Node11 -->
<g id="node11" class="node">
<title>Node11</title>
<g id="a_node11"><a xlink:title=" ">
<polygon fill="white" stroke="#bfbfbf" points="591.5,-0.5 591.5,-19.5 656.5,-19.5 656.5,-0.5 591.5,-0.5"/>
<text text-anchor="middle" x="624" y="-7.5" font-family="Helvetica,sans-Serif" font-size="10.00">typeindex</text>
</a>
</g>
</g>
<!-- Node8&#45;&gt;Node11 -->
<g id="edge10" class="edge">
<title>Node8&#45;&gt;Node11</title>
<path fill="none" stroke="midnightblue" d="M411.09,-56.44C457.56,-46.52 533.84,-30.24 581.36,-20.1"/>
<polygon fill="midnightblue" stroke="midnightblue" points="582.29,-23.48 591.34,-17.97 580.83,-16.64 582.29,-23.48"/>
</g>
<!-- Node12&#45;&gt;Node2 -->
<g id="edge25" class="edge">
<title>Node12&#45;&gt;Node2</title>
<path fill="none" stroke="midnightblue" d="M248.77,-403.48C217.25,-394.59 167.04,-380.43 127.53,-369.29"/>
<polygon fill="midnightblue" stroke="midnightblue" points="128.3,-365.87 117.73,-366.52 126.4,-372.61 128.3,-365.87"/>
</g>
<!-- Node12&#45;&gt;Node13 -->
<g id="edge12" class="edge">
<title>Node12&#45;&gt;Node13</title>
<path fill="none" stroke="midnightblue" d="M272.84,-403.48C267.45,-396.02 259.38,-384.85 252.17,-374.87"/>
<polygon fill="midnightblue" stroke="midnightblue" points="254.83,-372.58 246.13,-366.52 249.15,-376.68 254.83,-372.58"/>
</g>
<!-- Node14 -->
<g id="node14" class="node">
<title>Node14</title>
<g id="a_node14"><a xlink:href="Entity_8hpp.html" target="_top" xlink:title=" ">
<polygon fill="white" stroke="black" points="366,-112.5 366,-131.5 462,-131.5 462,-112.5 366,-112.5"/>
<text text-anchor="middle" x="414" y="-119.5" font-family="Helvetica,sans-Serif" font-size="10.00">Entity/Entity.hpp</text>
</a>
</g>
</g>
<!-- Node12&#45;&gt;Node14 -->
<g id="edge63" class="edge">
<title>Node12&#45;&gt;Node14</title>
<path fill="none" stroke="midnightblue" d="M291.54,-403.48C302.53,-395.37 318.09,-382.17 327,-367 344.64,-336.98 346,-325.82 346,-291 346,-291 346,-291 346,-233 346,-194.55 376.43,-158.31 396.58,-138.54"/>
<polygon fill="midnightblue" stroke="midnightblue" points="399.1,-140.98 403.97,-131.57 394.29,-135.89 399.1,-140.98"/>
</g>
<!-- Node22 -->
<g id="node22" class="node">
<title>Node22</title>
<g id="a_node22"><a xlink:href="System_8hpp.html" target="_top" xlink:title=" ">
<polygon fill="white" stroke="black" points="683,-342 683,-361 797,-361 797,-342 683,-342"/>
<text text-anchor="middle" x="740" y="-349" font-family="Helvetica,sans-Serif" font-size="10.00">System/System.hpp</text>
</a>
</g>
</g>
<!-- Node12&#45;&gt;Node22 -->
<g id="edge26" class="edge">
<title>Node12&#45;&gt;Node22</title>
<path fill="none" stroke="midnightblue" d="M337.39,-404.46C423,-393.41 582.23,-372.86 672.67,-361.19"/>
<polygon fill="midnightblue" stroke="midnightblue" points="673.34,-364.63 682.81,-359.88 672.45,-357.69 673.34,-364.63"/>
</g>
<!-- Node13&#45;&gt;Node3 -->
<g id="edge13" class="edge">
<title>Node13&#45;&gt;Node3</title>
<path fill="none" stroke="midnightblue" d="M232.92,-336.4C231.17,-328.38 228.95,-318.23 227.06,-309.57"/>
<polygon fill="midnightblue" stroke="midnightblue" points="230.45,-308.68 224.89,-299.66 223.61,-310.17 230.45,-308.68"/>
</g>
<!-- Node13&#45;&gt;Node14 -->
<g id="edge14" class="edge">
<title>Node13&#45;&gt;Node14</title>
<path fill="none" stroke="midnightblue" d="M254.96,-336.42C266.25,-327.18 280.06,-314.19 289,-300 321.89,-247.8 292.63,-215.51 332,-168 344.13,-153.37 362.3,-142.71 378.46,-135.45"/>
<polygon fill="midnightblue" stroke="midnightblue" points="379.83,-138.67 387.68,-131.56 377.11,-132.22 379.83,-138.67"/>
</g>
<!-- Node14&#45;&gt;Node8 -->
<g id="edge19" class="edge">
<title>Node14&#45;&gt;Node8</title>
<path fill="none" stroke="midnightblue" d="M406.9,-112.08C400.76,-104.38 391.73,-93.03 384.26,-83.65"/>
<polygon fill="midnightblue" stroke="midnightblue" points="386.94,-81.39 377.97,-75.75 381.46,-85.75 386.94,-81.39"/>
</g>
<!-- Node14&#45;&gt;Node10 -->
<g id="edge15" class="edge">
<title>Node14&#45;&gt;Node10</title>
<path fill="none" stroke="midnightblue" d="M365.74,-114.21C319.81,-105.68 261.11,-88.1 286,-56 303.34,-33.63 383.18,-20.44 428.8,-14.6"/>
<polygon fill="midnightblue" stroke="midnightblue" points="429.29,-18.07 438.79,-13.37 428.44,-11.12 429.29,-18.07"/>
</g>
<!-- Node15 -->
<g id="node15" class="node">
<title>Node15</title>
<g id="a_node15"><a xlink:title=" ">
<polygon fill="white" stroke="#bfbfbf" points="652.5,-56.5 652.5,-75.5 745.5,-75.5 745.5,-56.5 652.5,-56.5"/>
<text text-anchor="middle" x="699" y="-63.5" font-family="Helvetica,sans-Serif" font-size="10.00">unordered_map</text>
</a>
</g>
</g>
<!-- Node14&#45;&gt;Node15 -->
<g id="edge16" class="edge">
<title>Node14&#45;&gt;Node15</title>
<path fill="none" stroke="midnightblue" d="M459.16,-112.44C509.29,-102.94 590.22,-87.61 644.01,-77.42"/>
<polygon fill="midnightblue" stroke="midnightblue" points="644.88,-80.82 654.05,-75.52 643.58,-73.94 644.88,-80.82"/>
</g>
<!-- Node16 -->
<g id="node16" class="node">
<title>Node16</title>
<g id="a_node16"><a xlink:title=" ">
<polygon fill="white" stroke="#bfbfbf" points="1064.5,-56.5 1064.5,-75.5 1121.5,-75.5 1121.5,-56.5 1064.5,-56.5"/>
<text text-anchor="middle" x="1093" y="-63.5" font-family="Helvetica,sans-Serif" font-size="10.00">typeinfo</text>
</a>
</g>
</g>
<!-- Node14&#45;&gt;Node16 -->
<g id="edge17" class="edge">
<title>Node14&#45;&gt;Node16</title>
<path fill="none" stroke="midnightblue" d="M462.06,-113.21C465.42,-112.77 468.76,-112.36 472,-112 713.28,-85.36 775.27,-98.28 1017,-76 1029.07,-74.89 1042.2,-73.42 1054.09,-72"/>
<polygon fill="midnightblue" stroke="midnightblue" points="1054.66,-75.46 1064.17,-70.77 1053.82,-68.51 1054.66,-75.46"/>
</g>
<!-- Node17 -->
<g id="node17" class="node">
<title>Node17</title>
<g id="a_node17"><a xlink:title=" ">
<polygon fill="white" stroke="#bfbfbf" points="764,-56.5 764,-75.5 822,-75.5 822,-56.5 764,-56.5"/>
<text text-anchor="middle" x="793" y="-63.5" font-family="Helvetica,sans-Serif" font-size="10.00">memory</text>
</a>
</g>
</g>
<!-- Node14&#45;&gt;Node17 -->
<g id="edge18" class="edge">
<title>Node14&#45;&gt;Node17</title>
<path fill="none" stroke="midnightblue" d="M462.09,-113.43C465.44,-112.94 468.77,-112.46 472,-112 594.36,-94.73 628.53,-98.43 753.64,-76.09"/>
<polygon fill="midnightblue" stroke="midnightblue" points="754.39,-79.51 763.61,-74.29 753.14,-72.62 754.39,-79.51"/>
</g>
<!-- Node18 -->
<g id="node18" class="node">
<title>Node18</title>
<g id="a_node18"><a xlink:href="WalError_8hpp.html" target="_top" xlink:title=" ">
<polygon fill="white" stroke="black" points="878.5,-56.5 878.5,-75.5 1007.5,-75.5 1007.5,-56.5 878.5,-56.5"/>
<text text-anchor="middle" x="943" y="-63.5" font-family="Helvetica,sans-Serif" font-size="10.00">Exception/WalError.hpp</text>
</a>
</g>
</g>
<!-- Node14&#45;&gt;Node18 -->
<g id="edge20" class="edge">
<title>Node14&#45;&gt;Node18</title>
<path fill="none" stroke="midnightblue" d="M462.08,-113.32C465.43,-112.85 468.76,-112.41 472,-112 546.59,-102.66 755.3,-83.67 868.2,-73.61"/>
<polygon fill="midnightblue" stroke="midnightblue" points="868.84,-77.06 878.49,-72.69 868.22,-70.09 868.84,-77.06"/>
</g>
<!-- Node21 -->
<g id="node21" class="node">
<title>Node21</title>
<g id="a_node21"><a xlink:href="TypeHolder_8hpp.html" target="_top" xlink:title=" ">
<polygon fill="white" stroke="black" points="466,-56.5 466,-75.5 596,-75.5 596,-56.5 466,-56.5"/>
<text text-anchor="middle" x="531" y="-63.5" font-family="Helvetica,sans-Serif" font-size="10.00">Models/TypeHolder.hpp</text>
</a>
</g>
</g>
<!-- Node14&#45;&gt;Node21 -->
<g id="edge24" class="edge">
<title>Node14&#45;&gt;Node21</title>
<path fill="none" stroke="midnightblue" d="M432.54,-112.44C451.62,-103.64 481.57,-89.81 503.44,-79.72"/>
<polygon fill="midnightblue" stroke="midnightblue" points="504.93,-82.88 512.55,-75.52 502,-76.53 504.93,-82.88"/>
</g>
<!-- Node18&#45;&gt;Node10 -->
<g id="edge23" class="edge">
<title>Node18&#45;&gt;Node10</title>
<path fill="none" stroke="midnightblue" d="M878.33,-57.62C873.48,-57.07 868.66,-56.53 864,-56 726.21,-40.46 561.89,-22.19 493.43,-14.6"/>
<polygon fill="midnightblue" stroke="midnightblue" points="493.61,-11.09 483.28,-13.47 492.84,-18.05 493.61,-11.09"/>
</g>
<!-- Node19 -->
<g id="node19" class="node">
<title>Node19</title>
<g id="a_node19"><a xlink:title=" ">
<polygon fill="white" stroke="#bfbfbf" points="836.5,-0.5 836.5,-19.5 901.5,-19.5 901.5,-0.5 836.5,-0.5"/>
<text text-anchor="middle" x="869" y="-7.5" font-family="Helvetica,sans-Serif" font-size="10.00">exception</text>
</a>
</g>
</g>
<!-- Node18&#45;&gt;Node19 -->
<g id="edge21" class="edge">
<title>Node18&#45;&gt;Node19</title>
<path fill="none" stroke="midnightblue" d="M931.11,-56.32C919.85,-48.11 902.71,-35.6 889.29,-25.81"/>
<polygon fill="midnightblue" stroke="midnightblue" points="891.25,-22.9 881.11,-19.83 887.12,-28.56 891.25,-22.9"/>
</g>
<!-- Node20 -->
<g id="node20" class="node">
<title>Node20</title>
<g id="a_node20"><a xlink:title=" ">
<polygon fill="white" stroke="#bfbfbf" points="919.5,-0.5 919.5,-19.5 984.5,-19.5 984.5,-0.5 919.5,-0.5"/>
<text text-anchor="middle" x="952" y="-7.5" font-family="Helvetica,sans-Serif" font-size="10.00">stdexcept</text>
</a>
</g>
</g>
<!-- Node18&#45;&gt;Node20 -->
<g id="edge22" class="edge">
<title>Node18&#45;&gt;Node20</title>
<path fill="none" stroke="midnightblue" d="M944.49,-56.08C945.68,-48.93 947.39,-38.64 948.88,-29.69"/>
<polygon fill="midnightblue" stroke="midnightblue" points="952.35,-30.19 950.54,-19.75 945.45,-29.04 952.35,-30.19"/>
</g>
<!-- Node22&#45;&gt;Node4 -->
<g id="edge62" class="edge">
<title>Node22&#45;&gt;Node4</title>
<path fill="none" stroke="midnightblue" d="M682.79,-345.93C609.08,-339.14 485.92,-324.49 448,-300 430.7,-288.83 418.49,-268.19 411.39,-253.16"/>
<polygon fill="midnightblue" stroke="midnightblue" points="414.52,-251.58 407.29,-243.84 408.11,-254.4 414.52,-251.58"/>
</g>
<!-- Node22&#45;&gt;Node9 -->
<g id="edge28" class="edge">
<title>Node22&#45;&gt;Node9</title>
<path fill="none" stroke="midnightblue" d="M797.18,-348.89C925.65,-343.71 1226,-322.27 1226,-235 1226,-235 1226,-235 1226,-121 1226,-74.11 1175.45,-40.89 1141.67,-23.93"/>
<polygon fill="midnightblue" stroke="midnightblue" points="1143.17,-20.77 1132.64,-19.58 1140.13,-27.07 1143.17,-20.77"/>
</g>
<!-- Node22&#45;&gt;Node11 -->
<g id="edge30" class="edge">
<title>Node22&#45;&gt;Node11</title>
<path fill="none" stroke="midnightblue" d="M797.21,-346.61C851.18,-341.28 933.36,-328.83 999,-300 1111.89,-250.42 1214.24,-146.96 1131,-56 1115.4,-38.95 786.77,-19.72 667.1,-13.25"/>
<polygon fill="midnightblue" stroke="midnightblue" points="667.02,-9.74 656.85,-12.7 666.64,-16.73 667.02,-9.74"/>
</g>
<!-- Node22&#45;&gt;Node14 -->
<g id="edge31" class="edge">
<title>Node22&#45;&gt;Node14</title>
<path fill="none" stroke="midnightblue" d="M682.59,-342.71C643.2,-335.63 590.72,-322.71 549,-300 484.07,-264.65 461.92,-252.62 426,-188 418.07,-173.74 415.25,-155.27 414.31,-141.66"/>
<polygon fill="midnightblue" stroke="midnightblue" points="417.8,-141.42 413.88,-131.58 410.8,-141.72 417.8,-141.42"/>
</g>
<!-- Node22&#45;&gt;Node16 -->
<g id="edge29" class="edge">
<title>Node22&#45;&gt;Node16</title>
<path fill="none" stroke="midnightblue" d="M797.29,-345.44C866.22,-336.43 981.46,-311.64 1052,-244 1090.84,-206.75 1090.98,-185.35 1098,-132 1100.03,-116.55 1098.43,-98.92 1096.52,-85.92"/>
<polygon fill="midnightblue" stroke="midnightblue" points="1099.94,-85.15 1094.84,-75.86 1093.04,-86.3 1099.94,-85.15"/>
</g>
<!-- Node23 -->
<g id="node23" class="node">
<title>Node23</title>
<g id="a_node23"><a xlink:title=" ">
<polygon fill="white" stroke="#bfbfbf" points="632,-168.5 632,-187.5 682,-187.5 682,-168.5 632,-168.5"/>
<text text-anchor="middle" x="657" y="-175.5" font-family="Helvetica,sans-Serif" font-size="10.00">chrono</text>
</a>
</g>
</g>
<!-- Node22&#45;&gt;Node23 -->
<g id="edge27" class="edge">
<title>Node22&#45;&gt;Node23</title>
<path fill="none" stroke="midnightblue" d="M746.65,-341.69C762.26,-319.84 798.05,-262.17 772,-224 754.29,-198.05 719.17,-187.06 692.38,-182.41"/>
<polygon fill="midnightblue" stroke="midnightblue" points="692.62,-178.91 682.21,-180.88 691.57,-185.83 692.62,-178.91"/>
</g>
<!-- Node24 -->
<g id="node24" class="node">
<title>Node24</title>
<g id="a_node24"><a xlink:href="Wal_8hpp.html" target="_top" xlink:title=" ">
<polygon fill="white" stroke="black" points="875,-280.5 875,-299.5 931,-299.5 931,-280.5 875,-280.5"/>
<text text-anchor="middle" x="903" y="-287.5" font-family="Helvetica,sans-Serif" font-size="10.00">Wal.hpp</text>
</a>
</g>
</g>
<!-- Node22&#45;&gt;Node24 -->
<g id="edge32" class="edge">
<title>Node22&#45;&gt;Node24</title>
<path fill="none" stroke="midnightblue" d="M763.35,-341.98C791.31,-331.77 838.33,-314.61 869.99,-303.05"/>
<polygon fill="midnightblue" stroke="midnightblue" points="871.5,-306.23 879.69,-299.51 869.1,-299.65 871.5,-306.23"/>
</g>
<!-- Node26 -->
<g id="node26" class="node">
<title>Node26</title>
<g id="a_node26"><a xlink:href="ISystem_8hpp.html" target="_top" xlink:title=" ">
<polygon fill="white" stroke="black" points="528.5,-224.5 528.5,-243.5 645.5,-243.5 645.5,-224.5 528.5,-224.5"/>
<text text-anchor="middle" x="587" y="-231.5" font-family="Helvetica,sans-Serif" font-size="10.00">System/ISystem.hpp</text>
</a>
</g>
</g>
<!-- Node22&#45;&gt;Node26 -->
<g id="edge61" class="edge">
<title>Node22&#45;&gt;Node26</title>
<path fill="none" stroke="midnightblue" d="M728.5,-341.82C702.58,-322.25 639.35,-274.52 606.91,-250.03"/>
<polygon fill="midnightblue" stroke="midnightblue" points="608.72,-247.01 598.63,-243.78 604.51,-252.6 608.72,-247.01"/>
</g>
<!-- Node27 -->
<g id="node27" class="node">
<title>Node27</title>
<g id="a_node27"><a xlink:href="View_8hpp.html" target="_top" xlink:title=" ">
<polygon fill="white" stroke="black" points="488,-168.5 488,-187.5 576,-187.5 576,-168.5 488,-168.5"/>
<text text-anchor="middle" x="532" y="-175.5" font-family="Helvetica,sans-Serif" font-size="10.00">View/View.hpp</text>
</a>
</g>
</g>
<!-- Node22&#45;&gt;Node27 -->
<g id="edge60" class="edge">
<title>Node22&#45;&gt;Node27</title>
<path fill="none" stroke="midnightblue" d="M689.5,-341.97C636.86,-330.09 556.97,-302.96 520,-244 511.07,-229.76 516.29,-210.54 522.38,-196.7"/>
<polygon fill="midnightblue" stroke="midnightblue" points="525.53,-198.24 526.79,-187.72 519.24,-195.15 525.53,-198.24"/>
</g>
<!-- Node24&#45;&gt;Node9 -->
<g id="edge34" class="edge">
<title>Node24&#45;&gt;Node9</title>
<path fill="none" stroke="midnightblue" d="M931.07,-286.25C963.07,-281.9 1015.64,-270.96 1052,-244 1124.08,-190.55 1138,-161.89 1164,-76 1166.58,-67.49 1167.7,-64.08 1164,-56 1158.22,-43.36 1146.95,-32.91 1136.37,-25.27"/>
<polygon fill="midnightblue" stroke="midnightblue" points="1138.04,-22.18 1127.78,-19.53 1134.15,-28 1138.04,-22.18"/>
</g>
<!-- Node24&#45;&gt;Node10 -->
<g id="edge35" class="edge">
<title>Node24&#45;&gt;Node10</title>
<path fill="none" stroke="midnightblue" d="M907.88,-280.37C912.56,-271.55 919.31,-257.3 922,-244 925.3,-227.71 921.29,-183.65 918,-168 905.04,-106.32 888.84,-81.04 831,-56 800.28,-42.7 577.53,-21.5 493.22,-13.86"/>
<polygon fill="midnightblue" stroke="midnightblue" points="493.46,-10.37 483.19,-12.96 492.83,-17.34 493.46,-10.37"/>
</g>
<!-- Node24&#45;&gt;Node16 -->
<g id="edge37" class="edge">
<title>Node24&#45;&gt;Node16</title>
<path fill="none" stroke="midnightblue" d="M931.21,-286.04C959.72,-281.62 1003.27,-270.69 1030,-244 1074.57,-199.49 1087.75,-121.42 1091.53,-85.74"/>
<polygon fill="midnightblue" stroke="midnightblue" points="1095.02,-86.03 1092.46,-75.75 1088.05,-85.38 1095.02,-86.03"/>
</g>
<!-- Node24&#45;&gt;Node17 -->
<g id="edge36" class="edge">
<title>Node24&#45;&gt;Node17</title>
<path fill="none" stroke="midnightblue" d="M904.52,-280.19C908.81,-252.37 918.29,-165.1 879,-112 867.44,-96.37 848.83,-85.69 831.88,-78.67"/>
<polygon fill="midnightblue" stroke="midnightblue" points="832.75,-75.26 822.15,-74.95 830.24,-81.8 832.75,-75.26"/>
</g>
<!-- Node24&#45;&gt;Node18 -->
<g id="edge38" class="edge">
<title>Node24&#45;&gt;Node18</title>
<path fill="none" stroke="midnightblue" d="M931.28,-286C957.18,-281.59 994.13,-270.71 1012,-244 1047.84,-190.43 988.74,-115.49 958.78,-83.04"/>
<polygon fill="midnightblue" stroke="midnightblue" points="961.28,-80.59 951.86,-75.74 956.2,-85.4 961.28,-80.59"/>
</g>
<!-- Node25 -->
<g id="node25" class="node">
<title>Node25</title>
<g id="a_node25"><a xlink:title=" ">
<polygon fill="white" stroke="#bfbfbf" points="824.5,-112.5 824.5,-131.5 869.5,-131.5 869.5,-112.5 824.5,-112.5"/>
<text text-anchor="middle" x="847" y="-119.5" font-family="Helvetica,sans-Serif" font-size="10.00">utility</text>
</a>
</g>
</g>
<!-- Node24&#45;&gt;Node25 -->
<g id="edge33" class="edge">
<title>Node24&#45;&gt;Node25</title>
<path fill="none" stroke="midnightblue" d="M900.55,-280.42C894.81,-260.51 879.86,-209.69 865,-168 861.78,-158.97 857.86,-149.07 854.51,-140.86"/>
<polygon fill="midnightblue" stroke="midnightblue" points="857.71,-139.45 850.65,-131.55 851.25,-142.13 857.71,-139.45"/>
</g>
<!-- Node24&#45;&gt;Node26 -->
<g id="edge39" class="edge">
<title>Node24&#45;&gt;Node26</title>
<path fill="none" stroke="midnightblue" d="M874.96,-284.21C824.02,-275.5 715.28,-256.92 646.97,-245.25"/>
<polygon fill="midnightblue" stroke="midnightblue" points="647.23,-241.74 636.78,-243.51 646.05,-248.64 647.23,-241.74"/>
</g>
<!-- Node32 -->
<g id="node32" class="node">
<title>Node32</title>
<g id="a_node32"><a xlink:href="Callback_8hpp.html" target="_top" xlink:title=" ">
<polygon fill="white" stroke="black" points="738,-168.5 738,-187.5 856,-187.5 856,-168.5 738,-168.5"/>
<text text-anchor="middle" x="797" y="-175.5" font-family="Helvetica,sans-Serif" font-size="10.00">Models/Callback.hpp</text>
</a>
</g>
</g>
<!-- Node24&#45;&gt;Node32 -->
<g id="edge50" class="edge">
<title>Node24&#45;&gt;Node32</title>
<path fill="none" stroke="midnightblue" d="M894.68,-280.37C876.96,-261.97 835.23,-218.67 812.47,-195.05"/>
<polygon fill="midnightblue" stroke="midnightblue" points="814.74,-192.36 805.28,-187.59 809.7,-197.22 814.74,-192.36"/>
</g>
<!-- Node33 -->
<g id="node33" class="node">
<title>Node33</title>
<g id="a_node33"><a xlink:href="Scene_8hpp.html" target="_top" xlink:title=" ">
<polygon fill="white" stroke="black" points="663.5,-224.5 663.5,-243.5 762.5,-243.5 762.5,-224.5 663.5,-224.5"/>
<text text-anchor="middle" x="713" y="-231.5" font-family="Helvetica,sans-Serif" font-size="10.00">Scene/Scene.hpp</text>
</a>
</g>
</g>
<!-- Node24&#45;&gt;Node33 -->
<g id="edge54" class="edge">
<title>Node24&#45;&gt;Node33</title>
<path fill="none" stroke="midnightblue" d="M874.96,-281.03C842.7,-271.86 789.45,-256.73 752.88,-246.33"/>
<polygon fill="midnightblue" stroke="midnightblue" points="753.61,-242.9 743.03,-243.54 751.7,-249.64 753.61,-242.9"/>
</g>
<!-- Node26&#45;&gt;Node14 -->
<g id="edge40" class="edge">
<title>Node26&#45;&gt;Node14</title>
<path fill="none" stroke="midnightblue" d="M528.28,-225.12C500.72,-218.9 468.97,-207.79 446,-188 432.03,-175.96 423.56,-156.39 418.88,-141.86"/>
<polygon fill="midnightblue" stroke="midnightblue" points="422.15,-140.58 416.01,-131.95 415.43,-142.53 422.15,-140.58"/>
</g>
<!-- Node26&#45;&gt;Node23 -->
<g id="edge49" class="edge">
<title>Node26&#45;&gt;Node23</title>
<path fill="none" stroke="midnightblue" d="M598.25,-224.32C608.8,-216.18 624.8,-203.84 637.44,-194.09"/>
<polygon fill="midnightblue" stroke="midnightblue" points="639.77,-196.71 645.55,-187.83 635.49,-191.17 639.77,-196.71"/>
</g>
<!-- Node26&#45;&gt;Node27 -->
<g id="edge41" class="edge">
<title>Node26&#45;&gt;Node27</title>
<path fill="none" stroke="midnightblue" d="M577.92,-224.08C569.83,-216.14 557.8,-204.34 548.09,-194.8"/>
<polygon fill="midnightblue" stroke="midnightblue" points="550.5,-192.26 540.91,-187.75 545.6,-197.25 550.5,-192.26"/>
</g>
<!-- Node27&#45;&gt;Node11 -->
<g id="edge44" class="edge">
<title>Node27&#45;&gt;Node11</title>
<path fill="none" stroke="midnightblue" d="M555.92,-168.5C572.41,-161.35 593.37,-149.48 605,-132 625.74,-100.83 626.94,-55.31 625.67,-29.92"/>
<polygon fill="midnightblue" stroke="midnightblue" points="629.15,-29.53 624.97,-19.79 622.16,-30.01 629.15,-29.53"/>
</g>
<!-- Node27&#45;&gt;Node14 -->
<g id="edge48" class="edge">
<title>Node27&#45;&gt;Node14</title>
<path fill="none" stroke="midnightblue" d="M513.3,-168.44C494.06,-159.64 463.85,-145.81 441.8,-135.72"/>
<polygon fill="midnightblue" stroke="midnightblue" points="443.16,-132.5 432.61,-131.52 440.25,-138.86 443.16,-132.5"/>
</g>
<!-- Node27&#45;&gt;Node25 -->
<g id="edge46" class="edge">
<title>Node27&#45;&gt;Node25</title>
<path fill="none" stroke="midnightblue" d="M576.13,-169.43C640.21,-158.45 757.55,-138.33 814.4,-128.59"/>
<polygon fill="midnightblue" stroke="midnightblue" points="815.02,-132.03 824.29,-126.89 813.84,-125.13 815.02,-132.03"/>
</g>
<!-- Node28 -->
<g id="node28" class="node">
<title>Node28</title>
<g id="a_node28"><a xlink:title=" ">
<polygon fill="white" stroke="#bfbfbf" points="652,-112.5 652,-131.5 684,-131.5 684,-112.5 652,-112.5"/>
<text text-anchor="middle" x="668" y="-119.5" font-family="Helvetica,sans-Serif" font-size="10.00">list</text>
</a>
</g>
</g>
<!-- Node27&#45;&gt;Node28 -->
<g id="edge42" class="edge">
<title>Node27&#45;&gt;Node28</title>
<path fill="none" stroke="midnightblue" d="M553.55,-168.44C577.62,-158.89 616.56,-143.43 642.22,-133.24"/>
<polygon fill="midnightblue" stroke="midnightblue" points="643.67,-136.43 651.67,-129.48 641.09,-129.92 643.67,-136.43"/>
</g>
<!-- Node29 -->
<g id="node29" class="node">
<title>Node29</title>
<g id="a_node29"><a xlink:title=" ">
<polygon fill="white" stroke="#bfbfbf" points="480.5,-112.5 480.5,-131.5 521.5,-131.5 521.5,-112.5 480.5,-112.5"/>
<text text-anchor="middle" x="501" y="-119.5" font-family="Helvetica,sans-Serif" font-size="10.00">tuple</text>
</a>
</g>
</g>
<!-- Node27&#45;&gt;Node29 -->
<g id="edge43" class="edge">
<title>Node27&#45;&gt;Node29</title>
<path fill="none" stroke="midnightblue" d="M526.88,-168.08C522.59,-160.61 516.34,-149.72 511.06,-140.52"/>
<polygon fill="midnightblue" stroke="midnightblue" points="514.04,-138.68 506.02,-131.75 507.97,-142.17 514.04,-138.68"/>
</g>
<!-- Node30 -->
<g id="node30" class="node">
<title>Node30</title>
<g id="a_node30"><a xlink:title=" ">
<polygon fill="white" stroke="#bfbfbf" points="702.5,-112.5 702.5,-131.5 767.5,-131.5 767.5,-112.5 702.5,-112.5"/>
<text text-anchor="middle" x="735" y="-119.5" font-family="Helvetica,sans-Serif" font-size="10.00">functional</text>
</a>
</g>
</g>
<!-- Node27&#45;&gt;Node30 -->
<g id="edge45" class="edge">
<title>Node27&#45;&gt;Node30</title>
<path fill="none" stroke="midnightblue" d="M564.17,-168.44C599.06,-159.16 654.89,-144.31 693.17,-134.13"/>
<polygon fill="midnightblue" stroke="midnightblue" points="694.22,-137.47 702.98,-131.52 692.42,-130.7 694.22,-137.47"/>
</g>
<!-- Node31 -->
<g id="node31" class="node">
<title>Node31</title>
<g id="a_node31"><a xlink:title=" ">
<polygon fill="white" stroke="#bfbfbf" points="540,-112.5 540,-131.5 596,-131.5 596,-112.5 540,-112.5"/>
<text text-anchor="middle" x="568" y="-119.5" font-family="Helvetica,sans-Serif" font-size="10.00">optional</text>
</a>
</g>
</g>
<!-- Node27&#45;&gt;Node31 -->
<g id="edge47" class="edge">
<title>Node27&#45;&gt;Node31</title>
<path fill="none" stroke="midnightblue" d="M537.94,-168.08C542.98,-160.53 550.34,-149.49 556.51,-140.23"/>
<polygon fill="midnightblue" stroke="midnightblue" points="559.53,-142.01 562.17,-131.75 553.71,-138.13 559.53,-142.01"/>
</g>
<!-- Node32&#45;&gt;Node15 -->
<g id="edge53" class="edge">
<title>Node32&#45;&gt;Node15</title>
<path fill="none" stroke="midnightblue" d="M796.36,-168.5C794.95,-155.13 790.54,-128.99 777,-112 765.62,-97.73 748.4,-87.11 733.02,-79.79"/>
<polygon fill="midnightblue" stroke="midnightblue" points="734.32,-76.53 723.76,-75.65 731.46,-82.92 734.32,-76.53"/>
</g>
<!-- Node32&#45;&gt;Node25 -->
<g id="edge52" class="edge">
<title>Node32&#45;&gt;Node25</title>
<path fill="none" stroke="midnightblue" d="M805.26,-168.08C812.46,-160.3 823.11,-148.8 831.85,-139.37"/>
<polygon fill="midnightblue" stroke="midnightblue" points="834.67,-141.47 838.9,-131.75 829.53,-136.71 834.67,-141.47"/>
</g>
<!-- Node32&#45;&gt;Node30 -->
<g id="edge51" class="edge">
<title>Node32&#45;&gt;Node30</title>
<path fill="none" stroke="midnightblue" d="M787.04,-168.32C777.87,-160.34 764.06,-148.31 752.97,-138.65"/>
<polygon fill="midnightblue" stroke="midnightblue" points="754.98,-135.76 745.14,-131.83 750.38,-141.04 754.98,-135.76"/>
</g>
<!-- Node33&#45;&gt;Node9 -->
<g id="edge55" class="edge">
<title>Node33&#45;&gt;Node9</title>
<path fill="none" stroke="midnightblue" d="M755.37,-224.47C786.66,-217.22 829.77,-205.23 865,-188 913.84,-164.12 1044.16,-63.94 1093.09,-25.82"/>
<polygon fill="midnightblue" stroke="midnightblue" points="1095.26,-28.56 1100.99,-19.65 1090.95,-23.05 1095.26,-28.56"/>
</g>
<!-- Node33&#45;&gt;Node14 -->
<g id="edge59" class="edge">
<title>Node33&#45;&gt;Node14</title>
<path fill="none" stroke="midnightblue" d="M663.44,-225.06C599.65,-214.6 495.08,-196.53 479,-188 457.08,-176.37 437.81,-154.89 426.05,-139.82"/>
<polygon fill="midnightblue" stroke="midnightblue" points="428.84,-137.7 420.04,-131.8 423.24,-141.9 428.84,-137.7"/>
</g>
<!-- Node33&#45;&gt;Node27 -->
<g id="edge58" class="edge">
<title>Node33&#45;&gt;Node27</title>
<path fill="none" stroke="midnightblue" d="M684.32,-224.44C653.47,-215.24 604.27,-200.56 570.17,-190.39"/>
<polygon fill="midnightblue" stroke="midnightblue" points="571.13,-187.02 560.55,-187.52 569.13,-193.73 571.13,-187.02"/>
</g>
<!-- Node33&#45;&gt;Node28 -->
<g id="edge56" class="edge">
<title>Node33&#45;&gt;Node28</title>
<path fill="none" stroke="midnightblue" d="M675.9,-224.46C656.56,-217.92 634.57,-206.72 623,-188 612.06,-170.3 629.85,-150.77 646.19,-137.79"/>
<polygon fill="midnightblue" stroke="midnightblue" points="648.51,-140.42 654.44,-131.64 644.33,-134.81 648.51,-140.42"/>
</g>
<!-- Node33&#45;&gt;Node30 -->
<g id="edge57" class="edge">
<title>Node33&#45;&gt;Node30</title>
<path fill="none" stroke="midnightblue" d="M714.73,-224.37C718.28,-206.62 726.47,-165.67 731.28,-141.6"/>
<polygon fill="midnightblue" stroke="midnightblue" points="734.75,-142.08 733.28,-131.59 727.89,-140.71 734.75,-142.08"/>
</g>
</g>
</svg>
