<?xml version="1.0" encoding="UTF-8" standalone="no"?>
<!DOCTYPE svg PUBLIC "-//W3C//DTD SVG 1.1//EN"
 "http://www.w3.org/Graphics/SVG/1.1/DTD/svg11.dtd">
<!-- Generated by graphviz version 2.43.0 (0)
 -->
<!-- Title: sources/Component/Movable/MovableComponent.hpp Pages: 1 -->
<svg width="1027pt" height="207pt"
 viewBox="0.00 0.00 1027.00 207.00" xmlns="http://www.w3.org/2000/svg" xmlns:xlink="http://www.w3.org/1999/xlink">
<g id="graph0" class="graph" transform="scale(1 1) rotate(0) translate(4 203)">
<title>sources/Component/Movable/MovableComponent.hpp</title>
<polygon fill="white" stroke="transparent" points="-4,4 -4,-203 1023,-203 1023,4 -4,4"/>
<!-- Node1 -->
<g id="node1" class="node">
<title>Node1</title>
<g id="a_node1"><a xlink:title=" ">
<polygon fill="#bfbfbf" stroke="black" points="244.5,-168.5 244.5,-198.5 402.5,-198.5 402.5,-168.5 244.5,-168.5"/>
<text text-anchor="start" x="252.5" y="-186.5" font-family="Helvetica,sans-Serif" font-size="10.00">sources/Component/Movable</text>
<text text-anchor="middle" x="323.5" y="-175.5" font-family="Helvetica,sans-Serif" font-size="10.00">/MovableComponent.hpp</text>
</a>
</g>
</g>
<!-- Node2 -->
<g id="node2" class="node">
<title>Node2</title>
<g id="a_node2"><a xlink:href="sources_2Models_2Vector3_8hpp.html" target="_top" xlink:title=" ">
<polygon fill="white" stroke="black" points="114,-112.5 114,-131.5 227,-131.5 227,-112.5 114,-112.5"/>
<text text-anchor="middle" x="170.5" y="-119.5" font-family="Helvetica,sans-Serif" font-size="10.00">Models/Vector3.hpp</text>
</a>
</g>
</g>
<!-- Node1&#45;&gt;Node2 -->
<g id="edge1" class="edge">
<title>Node1&#45;&gt;Node2</title>
<path fill="none" stroke="midnightblue" d="M287.24,-168.4C261.46,-158.37 227.14,-145.03 202.4,-135.4"/>
<polygon fill="midnightblue" stroke="midnightblue" points="203.35,-132.02 192.76,-131.66 200.81,-138.54 203.35,-132.02"/>
</g>
<!-- Node7 -->
<g id="node7" class="node">
<title>Node7</title>
<g id="a_node7"><a xlink:href="Entity_8hpp.html" target="_top" xlink:title=" ">
<polygon fill="white" stroke="black" points="525.5,-112.5 525.5,-131.5 621.5,-131.5 621.5,-112.5 525.5,-112.5"/>
<text text-anchor="middle" x="573.5" y="-119.5" font-family="Helvetica,sans-Serif" font-size="10.00">Entity/Entity.hpp</text>
</a>
</g>
</g>
<!-- Node1&#45;&gt;Node7 -->
<g id="edge6" class="edge">
<title>Node1&#45;&gt;Node7</title>
<path fill="none" stroke="midnightblue" d="M382.43,-168.47C426.88,-157.9 486.97,-143.59 527.81,-133.87"/>
<polygon fill="midnightblue" stroke="midnightblue" points="528.84,-137.23 537.76,-131.51 527.22,-130.42 528.84,-137.23"/>
</g>
<!-- Node3 -->
<g id="node3" class="node">
<title>Node3</title>
<g id="a_node3"><a xlink:title=" ">
<polygon fill="white" stroke="#bfbfbf" points="191.5,-56.5 191.5,-75.5 251.5,-75.5 251.5,-56.5 191.5,-56.5"/>
<text text-anchor="middle" x="221.5" y="-63.5" font-family="Helvetica,sans-Serif" font-size="10.00">iostream</text>
</a>
</g>
</g>
<!-- Node2&#45;&gt;Node3 -->
<g id="edge2" class="edge">
<title>Node2&#45;&gt;Node3</title>
<path fill="none" stroke="midnightblue" d="M178.92,-112.08C186.35,-104.22 197.35,-92.57 206.31,-83.08"/>
<polygon fill="midnightblue" stroke="midnightblue" points="208.91,-85.42 213.24,-75.75 203.82,-80.62 208.91,-85.42"/>
</g>
<!-- Node4 -->
<g id="node4" class="node">
<title>Node4</title>
<g id="a_node4"><a xlink:title=" ">
<polygon fill="white" stroke="#bfbfbf" points="0,-56.5 0,-75.5 47,-75.5 47,-56.5 0,-56.5"/>
<text text-anchor="middle" x="23.5" y="-63.5" font-family="Helvetica,sans-Serif" font-size="10.00">cmath</text>
</a>
</g>
</g>
<!-- Node2&#45;&gt;Node4 -->
<g id="edge3" class="edge">
<title>Node2&#45;&gt;Node4</title>
<path fill="none" stroke="midnightblue" d="M147.21,-112.44C122.69,-103.44 83.9,-89.19 56.3,-79.05"/>
<polygon fill="midnightblue" stroke="midnightblue" points="57.28,-75.68 46.68,-75.52 54.86,-82.25 57.28,-75.68"/>
</g>
<!-- Node5 -->
<g id="node5" class="node">
<title>Node5</title>
<g id="a_node5"><a xlink:href="lib_2Ray_2sources_2Vector_2Vector3_8hpp.html" target="_top" xlink:title=" ">
<polygon fill="white" stroke="black" points="65.5,-56.5 65.5,-75.5 173.5,-75.5 173.5,-56.5 65.5,-56.5"/>
<text text-anchor="middle" x="119.5" y="-63.5" font-family="Helvetica,sans-Serif" font-size="10.00">Vector/Vector3.hpp</text>
</a>
</g>
</g>
<!-- Node2&#45;&gt;Node5 -->
<g id="edge4" class="edge">
<title>Node2&#45;&gt;Node5</title>
<path fill="none" stroke="midnightblue" d="M162.08,-112.08C154.65,-104.22 143.65,-92.57 134.69,-83.08"/>
<polygon fill="midnightblue" stroke="midnightblue" points="137.18,-80.62 127.76,-75.75 132.09,-85.42 137.18,-80.62"/>
</g>
<!-- Node6 -->
<g id="node6" class="node">
<title>Node6</title>
<g id="a_node6"><a xlink:title=" ">
<polygon fill="white" stroke="#bfbfbf" points="93,-0.5 93,-19.5 146,-19.5 146,-0.5 93,-0.5"/>
<text text-anchor="middle" x="119.5" y="-7.5" font-family="Helvetica,sans-Serif" font-size="10.00">raylib.h</text>
</a>
</g>
</g>
<!-- Node5&#45;&gt;Node6 -->
<g id="edge5" class="edge">
<title>Node5&#45;&gt;Node6</title>
<path fill="none" stroke="midnightblue" d="M119.5,-56.08C119.5,-49.01 119.5,-38.86 119.5,-29.99"/>
<polygon fill="midnightblue" stroke="midnightblue" points="123,-29.75 119.5,-19.75 116,-29.75 123,-29.75"/>
</g>
<!-- Node8 -->
<g id="node8" class="node">
<title>Node8</title>
<g id="a_node8"><a xlink:title=" ">
<polygon fill="white" stroke="#bfbfbf" points="505.5,-0.5 505.5,-19.5 549.5,-19.5 549.5,-0.5 505.5,-0.5"/>
<text text-anchor="middle" x="527.5" y="-7.5" font-family="Helvetica,sans-Serif" font-size="10.00">string</text>
</a>
</g>
</g>
<!-- Node7&#45;&gt;Node8 -->
<g id="edge7" class="edge">
<title>Node7&#45;&gt;Node8</title>
<path fill="none" stroke="midnightblue" d="M567.42,-112.4C561.43,-103.59 552.34,-89.36 546.5,-76 539.87,-60.85 534.79,-42.73 531.56,-29.48"/>
<polygon fill="midnightblue" stroke="midnightblue" points="534.95,-28.61 529.29,-19.66 528.13,-30.19 534.95,-28.61"/>
</g>
<!-- Node9 -->
<g id="node9" class="node">
<title>Node9</title>
<g id="a_node9"><a xlink:title=" ">
<polygon fill="white" stroke="#bfbfbf" points="851,-56.5 851,-75.5 944,-75.5 944,-56.5 851,-56.5"/>
<text text-anchor="middle" x="897.5" y="-63.5" font-family="Helvetica,sans-Serif" font-size="10.00">unordered_map</text>
</a>
</g>
</g>
<!-- Node7&#45;&gt;Node9 -->
<g id="edge8" class="edge">
<title>Node7&#45;&gt;Node9</title>
<path fill="none" stroke="midnightblue" d="M621.66,-112.97C680.18,-103.22 778.8,-86.78 840.9,-76.43"/>
<polygon fill="midnightblue" stroke="midnightblue" points="841.63,-79.86 850.92,-74.76 840.48,-72.95 841.63,-79.86"/>
</g>
<!-- Node10 -->
<g id="node10" class="node">
<title>Node10</title>
<g id="a_node10"><a xlink:title=" ">
<polygon fill="white" stroke="#bfbfbf" points="962,-56.5 962,-75.5 1019,-75.5 1019,-56.5 962,-56.5"/>
<text text-anchor="middle" x="990.5" y="-63.5" font-family="Helvetica,sans-Serif" font-size="10.00">typeinfo</text>
</a>
</g>
</g>
<!-- Node7&#45;&gt;Node10 -->
<g id="edge9" class="edge">
<title>Node7&#45;&gt;Node10</title>
<path fill="none" stroke="midnightblue" d="M621.76,-117.17C692.29,-111.15 827.78,-98.03 951.84,-76.12"/>
<polygon fill="midnightblue" stroke="midnightblue" points="952.66,-79.53 961.89,-74.32 951.43,-72.64 952.66,-79.53"/>
</g>
<!-- Node11 -->
<g id="node11" class="node">
<title>Node11</title>
<g id="a_node11"><a xlink:title=" ">
<polygon fill="white" stroke="#bfbfbf" points="269.5,-56.5 269.5,-75.5 327.5,-75.5 327.5,-56.5 269.5,-56.5"/>
<text text-anchor="middle" x="298.5" y="-63.5" font-family="Helvetica,sans-Serif" font-size="10.00">memory</text>
</a>
</g>
</g>
<!-- Node7&#45;&gt;Node11 -->
<g id="edge10" class="edge">
<title>Node7&#45;&gt;Node11</title>
<path fill="none" stroke="midnightblue" d="M525.26,-112.5C479.43,-104.27 408.37,-91.13 337.51,-76.14"/>
<polygon fill="midnightblue" stroke="midnightblue" points="338.03,-72.67 327.52,-74.01 336.57,-79.52 338.03,-72.67"/>
</g>
<!-- Node12 -->
<g id="node12" class="node">
<title>Node12</title>
<g id="a_node12"><a xlink:href="Component_8hpp.html" target="_top" xlink:title=" ">
<polygon fill="white" stroke="black" points="346,-56.5 346,-75.5 499,-75.5 499,-56.5 346,-56.5"/>
<text text-anchor="middle" x="422.5" y="-63.5" font-family="Helvetica,sans-Serif" font-size="10.00">Component/Component.hpp</text>
</a>
</g>
</g>
<!-- Node7&#45;&gt;Node12 -->
<g id="edge11" class="edge">
<title>Node7&#45;&gt;Node12</title>
<path fill="none" stroke="midnightblue" d="M549.57,-112.44C524.28,-103.4 484.2,-89.06 455.82,-78.92"/>
<polygon fill="midnightblue" stroke="midnightblue" points="456.91,-75.59 446.31,-75.52 454.55,-82.18 456.91,-75.59"/>
</g>
<!-- Node15 -->
<g id="node15" class="node">
<title>Node15</title>
<g id="a_node15"><a xlink:href="WalError_8hpp.html" target="_top" xlink:title=" ">
<polygon fill="white" stroke="black" points="704,-56.5 704,-75.5 833,-75.5 833,-56.5 704,-56.5"/>
<text text-anchor="middle" x="768.5" y="-63.5" font-family="Helvetica,sans-Serif" font-size="10.00">Exception/WalError.hpp</text>
</a>
</g>
</g>
<!-- Node7&#45;&gt;Node15 -->
<g id="edge15" class="edge">
<title>Node7&#45;&gt;Node15</title>
<path fill="none" stroke="midnightblue" d="M604.4,-112.44C637.77,-103.2 691.09,-88.44 727.85,-78.26"/>
<polygon fill="midnightblue" stroke="midnightblue" points="729.04,-81.56 737.75,-75.52 727.17,-74.81 729.04,-81.56"/>
</g>
<!-- Node18 -->
<g id="node18" class="node">
<title>Node18</title>
<g id="a_node18"><a xlink:href="TypeHolder_8hpp.html" target="_top" xlink:title=" ">
<polygon fill="white" stroke="black" points="555.5,-56.5 555.5,-75.5 685.5,-75.5 685.5,-56.5 555.5,-56.5"/>
<text text-anchor="middle" x="620.5" y="-63.5" font-family="Helvetica,sans-Serif" font-size="10.00">Models/TypeHolder.hpp</text>
</a>
</g>
</g>
<!-- Node7&#45;&gt;Node18 -->
<g id="edge19" class="edge">
<title>Node7&#45;&gt;Node18</title>
<path fill="none" stroke="midnightblue" d="M581.26,-112.08C588.04,-104.3 598.04,-92.8 606.26,-83.37"/>
<polygon fill="midnightblue" stroke="midnightblue" points="608.96,-85.59 612.88,-75.75 603.68,-81 608.96,-85.59"/>
</g>
<!-- Node12&#45;&gt;Node8 -->
<g id="edge13" class="edge">
<title>Node12&#45;&gt;Node8</title>
<path fill="none" stroke="midnightblue" d="M439.37,-56.32C456.21,-47.66 482.31,-34.24 501.74,-24.25"/>
<polygon fill="midnightblue" stroke="midnightblue" points="503.38,-27.34 510.67,-19.65 500.18,-21.12 503.38,-27.34"/>
</g>
<!-- Node13 -->
<g id="node13" class="node">
<title>Node13</title>
<g id="a_node13"><a xlink:title=" ">
<polygon fill="white" stroke="#bfbfbf" points="419,-0.5 419,-19.5 466,-19.5 466,-0.5 419,-0.5"/>
<text text-anchor="middle" x="442.5" y="-7.5" font-family="Helvetica,sans-Serif" font-size="10.00">vector</text>
</a>
</g>
</g>
<!-- Node12&#45;&gt;Node13 -->
<g id="edge12" class="edge">
<title>Node12&#45;&gt;Node13</title>
<path fill="none" stroke="midnightblue" d="M425.8,-56.08C428.48,-48.85 432.35,-38.41 435.69,-29.4"/>
<polygon fill="midnightblue" stroke="midnightblue" points="439.07,-30.34 439.26,-19.75 432.5,-27.91 439.07,-30.34"/>
</g>
<!-- Node14 -->
<g id="node14" class="node">
<title>Node14</title>
<g id="a_node14"><a xlink:title=" ">
<polygon fill="white" stroke="#bfbfbf" points="336,-0.5 336,-19.5 401,-19.5 401,-0.5 336,-0.5"/>
<text text-anchor="middle" x="368.5" y="-7.5" font-family="Helvetica,sans-Serif" font-size="10.00">typeindex</text>
</a>
</g>
</g>
<!-- Node12&#45;&gt;Node14 -->
<g id="edge14" class="edge">
<title>Node12&#45;&gt;Node14</title>
<path fill="none" stroke="midnightblue" d="M413.58,-56.08C405.72,-48.22 394.07,-36.57 384.58,-27.08"/>
<polygon fill="midnightblue" stroke="midnightblue" points="386.8,-24.35 377.25,-19.75 381.85,-29.3 386.8,-24.35"/>
</g>
<!-- Node15&#45;&gt;Node8 -->
<g id="edge18" class="edge">
<title>Node15&#45;&gt;Node8</title>
<path fill="none" stroke="midnightblue" d="M730.31,-56.44C683.13,-45.87 603.69,-28.07 559.54,-18.18"/>
<polygon fill="midnightblue" stroke="midnightblue" points="560.16,-14.73 549.63,-15.96 558.63,-21.56 560.16,-14.73"/>
</g>
<!-- Node16 -->
<g id="node16" class="node">
<title>Node16</title>
<g id="a_node16"><a xlink:title=" ">
<polygon fill="white" stroke="#bfbfbf" points="694,-0.5 694,-19.5 759,-19.5 759,-0.5 694,-0.5"/>
<text text-anchor="middle" x="726.5" y="-7.5" font-family="Helvetica,sans-Serif" font-size="10.00">exception</text>
</a>
</g>
</g>
<!-- Node15&#45;&gt;Node16 -->
<g id="edge16" class="edge">
<title>Node15&#45;&gt;Node16</title>
<path fill="none" stroke="midnightblue" d="M761.56,-56.08C755.57,-48.38 746.75,-37.03 739.45,-27.65"/>
<polygon fill="midnightblue" stroke="midnightblue" points="742.21,-25.5 733.31,-19.75 736.68,-29.79 742.21,-25.5"/>
</g>
<!-- Node17 -->
<g id="node17" class="node">
<title>Node17</title>
<g id="a_node17"><a xlink:title=" ">
<polygon fill="white" stroke="#bfbfbf" points="777,-0.5 777,-19.5 842,-19.5 842,-0.5 777,-0.5"/>
<text text-anchor="middle" x="809.5" y="-7.5" font-family="Helvetica,sans-Serif" font-size="10.00">stdexcept</text>
</a>
</g>
</g>
<!-- Node15&#45;&gt;Node17 -->
<g id="edge17" class="edge">
<title>Node15&#45;&gt;Node17</title>
<path fill="none" stroke="midnightblue" d="M775.27,-56.08C781.06,-48.46 789.56,-37.26 796.64,-27.94"/>
<polygon fill="midnightblue" stroke="midnightblue" points="799.6,-29.83 802.86,-19.75 794.02,-25.6 799.6,-29.83"/>
</g>
</g>
</svg>
