<?xml version="1.0" encoding="UTF-8" standalone="no"?>
<!DOCTYPE svg PUBLIC "-//W3C//DTD SVG 1.1//EN"
 "http://www.w3.org/Graphics/SVG/1.1/DTD/svg11.dtd">
<!-- Generated by graphviz version 2.43.0 (0)
 -->
<!-- Title: sources/System/Movable/MovableSystem.hpp Pages: 1 -->
<svg width="1106pt" height="106pt"
 viewBox="0.00 0.00 1105.50 106.00" xmlns="http://www.w3.org/2000/svg" xmlns:xlink="http://www.w3.org/1999/xlink">
<g id="graph0" class="graph" transform="scale(1 1) rotate(0) translate(4 102)">
<title>sources/System/Movable/MovableSystem.hpp</title>
<polygon fill="white" stroke="transparent" points="-4,4 -4,-102 1101.5,-102 1101.5,4 -4,4"/>
<!-- Node1 -->
<g id="node1" class="node">
<title>Node1</title>
<g id="a_node1"><a xlink:title=" ">
<polygon fill="#bfbfbf" stroke="black" points="541,-67.5 541,-97.5 680,-97.5 680,-67.5 541,-67.5"/>
<text text-anchor="start" x="549" y="-85.5" font-family="Helvetica,sans-Serif" font-size="10.00">sources/System/Movable</text>
<text text-anchor="middle" x="610.5" y="-74.5" font-family="Helvetica,sans-Serif" font-size="10.00">/MovableSystem.hpp</text>
</a>
</g>
</g>
<!-- Node2 -->
<g id="node2" class="node">
<title>Node2</title>
<g id="a_node2"><a xlink:href="LobbyScene_8cpp.html" target="_top" xlink:title=" ">
<polygon fill="white" stroke="black" points="0,-6 0,-25 173,-25 173,-6 0,-6"/>
<text text-anchor="middle" x="86.5" y="-13" font-family="Helvetica,sans-Serif" font-size="10.00">sources/Runner/LobbyScene.cpp</text>
</a>
</g>
</g>
<!-- Node1&#45;&gt;Node2 -->
<g id="edge1" class="edge">
<title>Node1&#45;&gt;Node2</title>
<path fill="none" stroke="midnightblue" d="M530.77,-72.88C444.74,-63.39 303.76,-47.31 182.5,-31 168.97,-29.18 154.39,-27.06 140.78,-25.01"/>
<polygon fill="midnightblue" stroke="midnightblue" points="530.4,-76.36 540.73,-73.97 531.17,-69.4 530.4,-76.36"/>
</g>
<!-- Node3 -->
<g id="node3" class="node">
<title>Node3</title>
<g id="a_node3"><a xlink:href="ResumeLobbyScene_8cpp.html" target="_top" xlink:title=" ">
<polygon fill="white" stroke="black" points="191.5,-0.5 191.5,-30.5 355.5,-30.5 355.5,-0.5 191.5,-0.5"/>
<text text-anchor="start" x="199.5" y="-18.5" font-family="Helvetica,sans-Serif" font-size="10.00">sources/Runner/ResumeLobby</text>
<text text-anchor="middle" x="273.5" y="-7.5" font-family="Helvetica,sans-Serif" font-size="10.00">Scene.cpp</text>
</a>
</g>
</g>
<!-- Node1&#45;&gt;Node3 -->
<g id="edge2" class="edge">
<title>Node1&#45;&gt;Node3</title>
<path fill="none" stroke="midnightblue" d="M530.79,-66.13C474.81,-55.33 400.51,-41 346.15,-30.51"/>
<polygon fill="midnightblue" stroke="midnightblue" points="530.19,-69.57 540.67,-68.03 531.52,-62.7 530.19,-69.57"/>
</g>
<!-- Node4 -->
<g id="node4" class="node">
<title>Node4</title>
<g id="a_node4"><a xlink:href="Runner_8cpp.html" target="_top" xlink:title=" ">
<polygon fill="white" stroke="black" points="374,-6 374,-25 523,-25 523,-6 374,-6"/>
<text text-anchor="middle" x="448.5" y="-13" font-family="Helvetica,sans-Serif" font-size="10.00">sources/Runner/Runner.cpp</text>
</a>
</g>
</g>
<!-- Node1&#45;&gt;Node4 -->
<g id="edge3" class="edge">
<title>Node1&#45;&gt;Node4</title>
<path fill="none" stroke="midnightblue" d="M565.94,-63.62C534.58,-51.04 494.02,-34.77 469.7,-25.01"/>
<polygon fill="midnightblue" stroke="midnightblue" points="564.76,-66.92 575.35,-67.4 567.37,-60.42 564.76,-66.92"/>
</g>
<!-- Node5 -->
<g id="node5" class="node">
<title>Node5</title>
<g id="a_node5"><a xlink:href="MovableSystem_8cpp.html" target="_top" xlink:title=" ">
<polygon fill="white" stroke="black" points="541,-0.5 541,-30.5 680,-30.5 680,-0.5 541,-0.5"/>
<text text-anchor="start" x="549" y="-18.5" font-family="Helvetica,sans-Serif" font-size="10.00">sources/System/Movable</text>
<text text-anchor="middle" x="610.5" y="-7.5" font-family="Helvetica,sans-Serif" font-size="10.00">/MovableSystem.cpp</text>
</a>
</g>
</g>
<!-- Node1&#45;&gt;Node5 -->
<g id="edge4" class="edge">
<title>Node1&#45;&gt;Node5</title>
<path fill="none" stroke="midnightblue" d="M610.5,-57.11C610.5,-48.15 610.5,-38.32 610.5,-30.58"/>
<polygon fill="midnightblue" stroke="midnightblue" points="607,-57.4 610.5,-67.4 614,-57.4 607,-57.4"/>
</g>
<!-- Node6 -->
<g id="node6" class="node">
<title>Node6</title>
<g id="a_node6"><a xlink:href="CollisionTest_8cpp.html" target="_top" xlink:title=" ">
<polygon fill="white" stroke="black" points="698,-6 698,-25 823,-25 823,-6 698,-6"/>
<text text-anchor="middle" x="760.5" y="-13" font-family="Helvetica,sans-Serif" font-size="10.00">tests/CollisionTest.cpp</text>
</a>
</g>
</g>
<!-- Node1&#45;&gt;Node6 -->
<g id="edge5" class="edge">
<title>Node1&#45;&gt;Node6</title>
<path fill="none" stroke="midnightblue" d="M652.51,-63.3C681.44,-50.76 718.54,-34.68 740.87,-25.01"/>
<polygon fill="midnightblue" stroke="midnightblue" points="650.83,-60.21 643.05,-67.4 653.61,-66.63 650.83,-60.21"/>
</g>
<!-- Node7 -->
<g id="node7" class="node">
<title>Node7</title>
<g id="a_node7"><a xlink:href="EngineTests_8cpp.html" target="_top" xlink:title=" ">
<polygon fill="white" stroke="black" points="841.5,-6 841.5,-25 963.5,-25 963.5,-6 841.5,-6"/>
<text text-anchor="middle" x="902.5" y="-13" font-family="Helvetica,sans-Serif" font-size="10.00">tests/EngineTests.cpp</text>
</a>
</g>
</g>
<!-- Node1&#45;&gt;Node7 -->
<g id="edge6" class="edge">
<title>Node1&#45;&gt;Node7</title>
<path fill="none" stroke="midnightblue" d="M683.6,-65.23C740.93,-52.47 818.44,-35.21 864.19,-25.03"/>
<polygon fill="midnightblue" stroke="midnightblue" points="682.5,-61.89 673.5,-67.48 684.02,-68.72 682.5,-61.89"/>
</g>
<!-- Node8 -->
<g id="node8" class="node">
<title>Node8</title>
<g id="a_node8"><a xlink:href="MoveTests_8cpp.html" target="_top" xlink:title=" ">
<polygon fill="white" stroke="black" points="981.5,-6 981.5,-25 1097.5,-25 1097.5,-6 981.5,-6"/>
<text text-anchor="middle" x="1039.5" y="-13" font-family="Helvetica,sans-Serif" font-size="10.00">tests/MoveTests.cpp</text>
</a>
</g>
</g>
<!-- Node1&#45;&gt;Node8 -->
<g id="edge7" class="edge">
<title>Node1&#45;&gt;Node8</title>
<path fill="none" stroke="midnightblue" d="M690.25,-72.11C763.78,-63.04 875.83,-48.18 972.5,-31 982.23,-29.27 992.69,-27.14 1002.39,-25.05"/>
<polygon fill="midnightblue" stroke="midnightblue" points="689.64,-68.66 680.14,-73.35 690.49,-75.6 689.64,-68.66"/>
</g>
</g>
</svg>
