<?xml version="1.0" encoding="UTF-8" standalone="no"?>
<!DOCTYPE svg PUBLIC "-//W3C//DTD SVG 1.1//EN"
 "http://www.w3.org/Graphics/SVG/1.1/DTD/svg11.dtd">
<!-- Generated by graphviz version 2.43.0 (0)
 -->
<!-- Title: tests/MoveTests.cpp Pages: 1 -->
<svg width="1719pt" height="498pt"
 viewBox="0.00 0.00 1719.00 498.00" xmlns="http://www.w3.org/2000/svg" xmlns:xlink="http://www.w3.org/1999/xlink">
<g id="graph0" class="graph" transform="scale(1 1) rotate(0) translate(4 494)">
<title>tests/MoveTests.cpp</title>
<polygon fill="white" stroke="transparent" points="-4,4 -4,-494 1715,-494 1715,4 -4,4"/>
<!-- Node1 -->
<g id="node1" class="node">
<title>Node1</title>
<g id="a_node1"><a xlink:title=" ">
<polygon fill="#bfbfbf" stroke="black" points="784,-470.5 784,-489.5 900,-489.5 900,-470.5 784,-470.5"/>
<text text-anchor="middle" x="842" y="-477.5" font-family="Helvetica,sans-Serif" font-size="10.00">tests/MoveTests.cpp</text>
</a>
</g>
</g>
<!-- Node2 -->
<g id="node2" class="node">
<title>Node2</title>
<g id="a_node2"><a xlink:href="Entity_8hpp.html" target="_top" xlink:title=" ">
<polygon fill="white" stroke="black" points="876,-112.5 876,-131.5 972,-131.5 972,-112.5 876,-112.5"/>
<text text-anchor="middle" x="924" y="-119.5" font-family="Helvetica,sans-Serif" font-size="10.00">Entity/Entity.hpp</text>
</a>
</g>
</g>
<!-- Node1&#45;&gt;Node2 -->
<g id="edge1" class="edge">
<title>Node1&#45;&gt;Node2</title>
<path fill="none" stroke="midnightblue" d="M783.85,-478.93C633.57,-477.2 244,-462.13 244,-352.5 244,-352.5 244,-352.5 244,-289 244,-161.54 700.58,-131.51 865.48,-124.82"/>
<polygon fill="midnightblue" stroke="midnightblue" points="866.06,-128.3 875.91,-124.41 865.78,-121.3 866.06,-128.3"/>
</g>
<!-- Node14 -->
<g id="node14" class="node">
<title>Node14</title>
<g id="a_node14"><a xlink:href="PositionComponent_8hpp.html" target="_top" xlink:title=" ">
<polygon fill="white" stroke="black" points="513,-336.5 513,-366.5 649,-366.5 649,-336.5 513,-336.5"/>
<text text-anchor="start" x="521" y="-354.5" font-family="Helvetica,sans-Serif" font-size="10.00">Component/Position</text>
<text text-anchor="middle" x="581" y="-343.5" font-family="Helvetica,sans-Serif" font-size="10.00">/PositionComponent.hpp</text>
</a>
</g>
</g>
<!-- Node1&#45;&gt;Node14 -->
<g id="edge15" class="edge">
<title>Node1&#45;&gt;Node14</title>
<path fill="none" stroke="midnightblue" d="M815.26,-470.39C790.6,-462.12 753.18,-448.73 722,-434 682.55,-415.36 639.44,-389.58 611.4,-372.04"/>
<polygon fill="midnightblue" stroke="midnightblue" points="613.18,-369.03 602.85,-366.66 609.45,-374.95 613.18,-369.03"/>
</g>
<!-- Node20 -->
<g id="node20" class="node">
<title>Node20</title>
<g id="a_node20"><a xlink:title=" ">
<polygon fill="white" stroke="#bfbfbf" points="1231.5,-409 1231.5,-428 1330.5,-428 1330.5,-409 1231.5,-409"/>
<text text-anchor="middle" x="1281" y="-416" font-family="Helvetica,sans-Serif" font-size="10.00">catch2/catch.hpp</text>
</a>
</g>
</g>
<!-- Node1&#45;&gt;Node20 -->
<g id="edge22" class="edge">
<title>Node1&#45;&gt;Node20</title>
<path fill="none" stroke="midnightblue" d="M900.09,-473.91C974.02,-467 1105.54,-453.26 1217,-434 1223.26,-432.92 1229.83,-431.62 1236.28,-430.25"/>
<polygon fill="midnightblue" stroke="midnightblue" points="1237.24,-433.62 1246.25,-428.06 1235.74,-426.79 1237.24,-433.62"/>
</g>
<!-- Node21 -->
<g id="node21" class="node">
<title>Node21</title>
<g id="a_node21"><a xlink:href="Wal_8hpp.html" target="_top" xlink:title=" ">
<polygon fill="white" stroke="black" points="1417,-280.5 1417,-299.5 1473,-299.5 1473,-280.5 1417,-280.5"/>
<text text-anchor="middle" x="1445" y="-287.5" font-family="Helvetica,sans-Serif" font-size="10.00">Wal.hpp</text>
</a>
</g>
</g>
<!-- Node1&#45;&gt;Node21 -->
<g id="edge23" class="edge">
<title>Node1&#45;&gt;Node21</title>
<path fill="none" stroke="midnightblue" d="M900.28,-475.56C962.33,-470.71 1062.83,-459.41 1146,-434 1202.02,-416.88 1358.07,-336.54 1419.59,-304.37"/>
<polygon fill="midnightblue" stroke="midnightblue" points="1421.39,-307.37 1428.63,-299.63 1418.15,-301.17 1421.39,-307.37"/>
</g>
<!-- Node32 -->
<g id="node32" class="node">
<title>Node32</title>
<g id="a_node32"><a xlink:href="ControllableSystem_8hpp.html" target="_top" xlink:title=" ">
<polygon fill="white" stroke="black" points="999.5,-403.5 999.5,-433.5 1136.5,-433.5 1136.5,-403.5 999.5,-403.5"/>
<text text-anchor="start" x="1007.5" y="-421.5" font-family="Helvetica,sans-Serif" font-size="10.00">System/Controllable</text>
<text text-anchor="middle" x="1068" y="-410.5" font-family="Helvetica,sans-Serif" font-size="10.00">/ControllableSystem.hpp</text>
</a>
</g>
</g>
<!-- Node1&#45;&gt;Node32 -->
<g id="edge51" class="edge">
<title>Node1&#45;&gt;Node32</title>
<path fill="none" stroke="midnightblue" d="M874.38,-470.48C908.35,-461.53 962.6,-447.25 1005.05,-436.07"/>
<polygon fill="midnightblue" stroke="midnightblue" points="1005.96,-439.45 1014.74,-433.52 1004.17,-432.68 1005.96,-439.45"/>
</g>
<!-- Node33 -->
<g id="node33" class="node">
<title>Node33</title>
<g id="a_node33"><a xlink:href="MovableComponent_8hpp.html" target="_top" xlink:title=" ">
<polygon fill="white" stroke="black" points="879.5,-336.5 879.5,-366.5 1042.5,-366.5 1042.5,-336.5 879.5,-336.5"/>
<text text-anchor="start" x="887.5" y="-354.5" font-family="Helvetica,sans-Serif" font-size="10.00">Component/Movable/Movable</text>
<text text-anchor="middle" x="961" y="-343.5" font-family="Helvetica,sans-Serif" font-size="10.00">Component.hpp</text>
</a>
</g>
</g>
<!-- Node1&#45;&gt;Node33 -->
<g id="edge80" class="edge">
<title>Node1&#45;&gt;Node33</title>
<path fill="none" stroke="midnightblue" d="M891.78,-470.49C913.65,-464.14 937.59,-453.11 952,-434 964.21,-417.81 965.62,-394.41 964.47,-376.83"/>
<polygon fill="midnightblue" stroke="midnightblue" points="967.94,-376.37 963.49,-366.75 960.97,-377.04 967.94,-376.37"/>
</g>
<!-- Node34 -->
<g id="node34" class="node">
<title>Node34</title>
<g id="a_node34"><a xlink:href="ControllableComponent_8hpp.html" target="_top" xlink:title=" ">
<polygon fill="white" stroke="black" points="667,-336.5 667,-366.5 823,-366.5 823,-336.5 667,-336.5"/>
<text text-anchor="start" x="675" y="-354.5" font-family="Helvetica,sans-Serif" font-size="10.00">Component/Controllable</text>
<text text-anchor="middle" x="745" y="-343.5" font-family="Helvetica,sans-Serif" font-size="10.00">/ControllableComponent.hpp</text>
</a>
</g>
</g>
<!-- Node1&#45;&gt;Node34 -->
<g id="edge79" class="edge">
<title>Node1&#45;&gt;Node34</title>
<path fill="none" stroke="midnightblue" d="M789.72,-470.48C768.41,-464.15 745.81,-453.14 733,-434 721.63,-417.01 726.7,-393.58 733.39,-376.2"/>
<polygon fill="midnightblue" stroke="midnightblue" points="736.72,-377.34 737.41,-366.77 730.28,-374.6 736.72,-377.34"/>
</g>
<!-- Node38 -->
<g id="node38" class="node">
<title>Node38</title>
<g id="a_node38"><a xlink:href="MovableSystem_8hpp.html" target="_top" xlink:title=" ">
<polygon fill="white" stroke="black" points="741.5,-409 741.5,-428 942.5,-428 942.5,-409 741.5,-409"/>
<text text-anchor="middle" x="842" y="-416" font-family="Helvetica,sans-Serif" font-size="10.00">System/Movable/MovableSystem.hpp</text>
</a>
</g>
</g>
<!-- Node1&#45;&gt;Node38 -->
<g id="edge74" class="edge">
<title>Node1&#45;&gt;Node38</title>
<path fill="none" stroke="midnightblue" d="M842,-470.48C842,-462.08 842,-448.98 842,-438.16"/>
<polygon fill="midnightblue" stroke="midnightblue" points="845.5,-438.01 842,-428.01 838.5,-438.01 845.5,-438.01"/>
</g>
<!-- Node39 -->
<g id="node39" class="node">
<title>Node39</title>
<g id="a_node39"><a xlink:href="SpeedComponent_8hpp.html" target="_top" xlink:title=" ">
<polygon fill="white" stroke="black" points="0,-280.5 0,-299.5 216,-299.5 216,-280.5 0,-280.5"/>
<text text-anchor="middle" x="108" y="-287.5" font-family="Helvetica,sans-Serif" font-size="10.00">Component/Speed/SpeedComponent.hpp</text>
</a>
</g>
</g>
<!-- Node1&#45;&gt;Node39 -->
<g id="edge81" class="edge">
<title>Node1&#45;&gt;Node39</title>
<path fill="none" stroke="midnightblue" d="M783.82,-477.27C640.52,-472.64 278.62,-458.63 230,-434 174.57,-405.92 134.11,-340.51 117.01,-308.83"/>
<polygon fill="midnightblue" stroke="midnightblue" points="120.03,-307.05 112.29,-299.82 113.83,-310.3 120.03,-307.05"/>
</g>
<!-- Node3 -->
<g id="node3" class="node">
<title>Node3</title>
<g id="a_node3"><a xlink:title=" ">
<polygon fill="white" stroke="#bfbfbf" points="1152,-0.5 1152,-19.5 1196,-19.5 1196,-0.5 1152,-0.5"/>
<text text-anchor="middle" x="1174" y="-7.5" font-family="Helvetica,sans-Serif" font-size="10.00">string</text>
</a>
</g>
</g>
<!-- Node2&#45;&gt;Node3 -->
<g id="edge2" class="edge">
<title>Node2&#45;&gt;Node3</title>
<path fill="none" stroke="midnightblue" d="M943.62,-112.37C987.52,-93.05 1093.87,-46.26 1145.25,-23.65"/>
<polygon fill="midnightblue" stroke="midnightblue" points="1146.73,-26.82 1154.47,-19.59 1143.91,-20.42 1146.73,-26.82"/>
</g>
<!-- Node4 -->
<g id="node4" class="node">
<title>Node4</title>
<g id="a_node4"><a xlink:title=" ">
<polygon fill="white" stroke="#bfbfbf" points="1102.5,-56.5 1102.5,-75.5 1195.5,-75.5 1195.5,-56.5 1102.5,-56.5"/>
<text text-anchor="middle" x="1149" y="-63.5" font-family="Helvetica,sans-Serif" font-size="10.00">unordered_map</text>
</a>
</g>
</g>
<!-- Node2&#45;&gt;Node4 -->
<g id="edge3" class="edge">
<title>Node2&#45;&gt;Node4</title>
<path fill="none" stroke="midnightblue" d="M959.65,-112.44C998.66,-103.08 1061.27,-88.06 1103.72,-77.87"/>
<polygon fill="midnightblue" stroke="midnightblue" points="1104.61,-81.25 1113.51,-75.52 1102.97,-74.45 1104.61,-81.25"/>
</g>
<!-- Node5 -->
<g id="node5" class="node">
<title>Node5</title>
<g id="a_node5"><a xlink:title=" ">
<polygon fill="white" stroke="#bfbfbf" points="1287.5,-56.5 1287.5,-75.5 1344.5,-75.5 1344.5,-56.5 1287.5,-56.5"/>
<text text-anchor="middle" x="1316" y="-63.5" font-family="Helvetica,sans-Serif" font-size="10.00">typeinfo</text>
</a>
</g>
</g>
<!-- Node2&#45;&gt;Node5 -->
<g id="edge4" class="edge">
<title>Node2&#45;&gt;Node5</title>
<path fill="none" stroke="midnightblue" d="M972.07,-114.38C1050.6,-103.56 1204.87,-82.31 1277.04,-72.37"/>
<polygon fill="midnightblue" stroke="midnightblue" points="1277.65,-75.82 1287.08,-70.98 1276.69,-68.88 1277.65,-75.82"/>
</g>
<!-- Node6 -->
<g id="node6" class="node">
<title>Node6</title>
<g id="a_node6"><a xlink:title=" ">
<polygon fill="white" stroke="#bfbfbf" points="1587,-56.5 1587,-75.5 1645,-75.5 1645,-56.5 1587,-56.5"/>
<text text-anchor="middle" x="1616" y="-63.5" font-family="Helvetica,sans-Serif" font-size="10.00">memory</text>
</a>
</g>
</g>
<!-- Node2&#45;&gt;Node6 -->
<g id="edge5" class="edge">
<title>Node2&#45;&gt;Node6</title>
<path fill="none" stroke="midnightblue" d="M972.31,-116.18C987.27,-114.76 1003.81,-113.24 1019,-112 1250.33,-93.05 1308.9,-97.65 1540,-76 1551.97,-74.88 1564.98,-73.43 1576.79,-72.01"/>
<polygon fill="midnightblue" stroke="midnightblue" points="1577.3,-75.48 1586.8,-70.8 1576.45,-68.53 1577.3,-75.48"/>
</g>
<!-- Node7 -->
<g id="node7" class="node">
<title>Node7</title>
<g id="a_node7"><a xlink:href="Component_8hpp.html" target="_top" xlink:title=" ">
<polygon fill="white" stroke="black" points="490.5,-56.5 490.5,-75.5 643.5,-75.5 643.5,-56.5 490.5,-56.5"/>
<text text-anchor="middle" x="567" y="-63.5" font-family="Helvetica,sans-Serif" font-size="10.00">Component/Component.hpp</text>
</a>
</g>
</g>
<!-- Node2&#45;&gt;Node7 -->
<g id="edge6" class="edge">
<title>Node2&#45;&gt;Node7</title>
<path fill="none" stroke="midnightblue" d="M875.85,-113.72C813.36,-104.26 704,-87.72 633.58,-77.07"/>
<polygon fill="midnightblue" stroke="midnightblue" points="633.9,-73.58 623.49,-75.54 632.85,-80.5 633.9,-73.58"/>
</g>
<!-- Node10 -->
<g id="node10" class="node">
<title>Node10</title>
<g id="a_node10"><a xlink:href="WalError_8hpp.html" target="_top" xlink:title=" ">
<polygon fill="white" stroke="black" points="1401.5,-56.5 1401.5,-75.5 1530.5,-75.5 1530.5,-56.5 1401.5,-56.5"/>
<text text-anchor="middle" x="1466" y="-63.5" font-family="Helvetica,sans-Serif" font-size="10.00">Exception/WalError.hpp</text>
</a>
</g>
</g>
<!-- Node2&#45;&gt;Node10 -->
<g id="edge10" class="edge">
<title>Node2&#45;&gt;Node10</title>
<path fill="none" stroke="midnightblue" d="M972.1,-116.21C1066.91,-106.76 1278.51,-85.68 1391.51,-74.42"/>
<polygon fill="midnightblue" stroke="midnightblue" points="1391.86,-77.9 1401.47,-73.43 1391.17,-70.94 1391.86,-77.9"/>
</g>
<!-- Node13 -->
<g id="node13" class="node">
<title>Node13</title>
<g id="a_node13"><a xlink:href="TypeHolder_8hpp.html" target="_top" xlink:title=" ">
<polygon fill="white" stroke="black" points="804,-56.5 804,-75.5 934,-75.5 934,-56.5 804,-56.5"/>
<text text-anchor="middle" x="869" y="-63.5" font-family="Helvetica,sans-Serif" font-size="10.00">Models/TypeHolder.hpp</text>
</a>
</g>
</g>
<!-- Node2&#45;&gt;Node13 -->
<g id="edge14" class="edge">
<title>Node2&#45;&gt;Node13</title>
<path fill="none" stroke="midnightblue" d="M914.92,-112.08C906.83,-104.14 894.8,-92.34 885.09,-82.8"/>
<polygon fill="midnightblue" stroke="midnightblue" points="887.5,-80.26 877.91,-75.75 882.6,-85.25 887.5,-80.26"/>
</g>
<!-- Node7&#45;&gt;Node3 -->
<g id="edge8" class="edge">
<title>Node7&#45;&gt;Node3</title>
<path fill="none" stroke="midnightblue" d="M643.57,-58.19C777.39,-46.28 1048.45,-22.17 1141.66,-13.88"/>
<polygon fill="midnightblue" stroke="midnightblue" points="1142.22,-17.34 1151.87,-12.97 1141.6,-10.37 1142.22,-17.34"/>
</g>
<!-- Node8 -->
<g id="node8" class="node">
<title>Node8</title>
<g id="a_node8"><a xlink:title=" ">
<polygon fill="white" stroke="#bfbfbf" points="1592.5,-0.5 1592.5,-19.5 1639.5,-19.5 1639.5,-0.5 1592.5,-0.5"/>
<text text-anchor="middle" x="1616" y="-7.5" font-family="Helvetica,sans-Serif" font-size="10.00">vector</text>
</a>
</g>
</g>
<!-- Node7&#45;&gt;Node8 -->
<g id="edge7" class="edge">
<title>Node7&#45;&gt;Node8</title>
<path fill="none" stroke="midnightblue" d="M643.76,-61.83C858.82,-52.92 1457.28,-27.73 1546,-20 1557.87,-18.97 1570.82,-17.42 1582.32,-15.9"/>
<polygon fill="midnightblue" stroke="midnightblue" points="1582.96,-19.34 1592.4,-14.52 1582.02,-12.41 1582.96,-19.34"/>
</g>
<!-- Node9 -->
<g id="node9" class="node">
<title>Node9</title>
<g id="a_node9"><a xlink:title=" ">
<polygon fill="white" stroke="#bfbfbf" points="534.5,-0.5 534.5,-19.5 599.5,-19.5 599.5,-0.5 534.5,-0.5"/>
<text text-anchor="middle" x="567" y="-7.5" font-family="Helvetica,sans-Serif" font-size="10.00">typeindex</text>
</a>
</g>
</g>
<!-- Node7&#45;&gt;Node9 -->
<g id="edge9" class="edge">
<title>Node7&#45;&gt;Node9</title>
<path fill="none" stroke="midnightblue" d="M567,-56.08C567,-49.01 567,-38.86 567,-29.99"/>
<polygon fill="midnightblue" stroke="midnightblue" points="570.5,-29.75 567,-19.75 563.5,-29.75 570.5,-29.75"/>
</g>
<!-- Node10&#45;&gt;Node3 -->
<g id="edge13" class="edge">
<title>Node10&#45;&gt;Node3</title>
<path fill="none" stroke="midnightblue" d="M1419.73,-56.44C1360.15,-45.43 1258.14,-26.56 1206.29,-16.97"/>
<polygon fill="midnightblue" stroke="midnightblue" points="1206.79,-13.5 1196.32,-15.13 1205.52,-20.39 1206.79,-13.5"/>
</g>
<!-- Node11 -->
<g id="node11" class="node">
<title>Node11</title>
<g id="a_node11"><a xlink:title=" ">
<polygon fill="white" stroke="#bfbfbf" points="1471.5,-0.5 1471.5,-19.5 1536.5,-19.5 1536.5,-0.5 1471.5,-0.5"/>
<text text-anchor="middle" x="1504" y="-7.5" font-family="Helvetica,sans-Serif" font-size="10.00">exception</text>
</a>
</g>
</g>
<!-- Node10&#45;&gt;Node11 -->
<g id="edge11" class="edge">
<title>Node10&#45;&gt;Node11</title>
<path fill="none" stroke="midnightblue" d="M1472.27,-56.08C1477.64,-48.46 1485.52,-37.26 1492.08,-27.94"/>
<polygon fill="midnightblue" stroke="midnightblue" points="1494.95,-29.94 1497.84,-19.75 1489.22,-25.91 1494.95,-29.94"/>
</g>
<!-- Node12 -->
<g id="node12" class="node">
<title>Node12</title>
<g id="a_node12"><a xlink:title=" ">
<polygon fill="white" stroke="#bfbfbf" points="1388.5,-0.5 1388.5,-19.5 1453.5,-19.5 1453.5,-0.5 1388.5,-0.5"/>
<text text-anchor="middle" x="1421" y="-7.5" font-family="Helvetica,sans-Serif" font-size="10.00">stdexcept</text>
</a>
</g>
</g>
<!-- Node10&#45;&gt;Node12 -->
<g id="edge12" class="edge">
<title>Node10&#45;&gt;Node12</title>
<path fill="none" stroke="midnightblue" d="M1458.57,-56.08C1452.15,-48.38 1442.69,-37.03 1434.88,-27.65"/>
<polygon fill="midnightblue" stroke="midnightblue" points="1437.38,-25.19 1428.29,-19.75 1432.01,-29.67 1437.38,-25.19"/>
</g>
<!-- Node14&#45;&gt;Node7 -->
<g id="edge21" class="edge">
<title>Node14&#45;&gt;Node7</title>
<path fill="none" stroke="midnightblue" d="M512.82,-347.66C440.09,-343.04 331.83,-331 306,-300 248.31,-230.76 307.95,-163.38 382,-112 410.67,-92.11 447.16,-80.97 480.14,-74.75"/>
<polygon fill="midnightblue" stroke="midnightblue" points="481.01,-78.15 490.25,-72.97 479.8,-71.25 481.01,-78.15"/>
</g>
<!-- Node15 -->
<g id="node15" class="node">
<title>Node15</title>
<g id="a_node15"><a xlink:href="sources_2Models_2Vector3_8hpp.html" target="_top" xlink:title=" ">
<polygon fill="white" stroke="black" points="603.5,-280.5 603.5,-299.5 716.5,-299.5 716.5,-280.5 603.5,-280.5"/>
<text text-anchor="middle" x="660" y="-287.5" font-family="Helvetica,sans-Serif" font-size="10.00">Models/Vector3.hpp</text>
</a>
</g>
</g>
<!-- Node14&#45;&gt;Node15 -->
<g id="edge16" class="edge">
<title>Node14&#45;&gt;Node15</title>
<path fill="none" stroke="midnightblue" d="M599.72,-336.4C611.91,-327.22 627.79,-315.26 640.19,-305.92"/>
<polygon fill="midnightblue" stroke="midnightblue" points="642.62,-308.47 648.5,-299.66 638.41,-302.88 642.62,-308.47"/>
</g>
<!-- Node16 -->
<g id="node16" class="node">
<title>Node16</title>
<g id="a_node16"><a xlink:title=" ">
<polygon fill="white" stroke="#bfbfbf" points="704,-224.5 704,-243.5 764,-243.5 764,-224.5 704,-224.5"/>
<text text-anchor="middle" x="734" y="-231.5" font-family="Helvetica,sans-Serif" font-size="10.00">iostream</text>
</a>
</g>
</g>
<!-- Node15&#45;&gt;Node16 -->
<g id="edge17" class="edge">
<title>Node15&#45;&gt;Node16</title>
<path fill="none" stroke="midnightblue" d="M671.89,-280.32C683.15,-272.11 700.29,-259.6 713.71,-249.81"/>
<polygon fill="midnightblue" stroke="midnightblue" points="715.88,-252.56 721.89,-243.83 711.75,-246.9 715.88,-252.56"/>
</g>
<!-- Node17 -->
<g id="node17" class="node">
<title>Node17</title>
<g id="a_node17"><a xlink:title=" ">
<polygon fill="white" stroke="#bfbfbf" points="512.5,-224.5 512.5,-243.5 559.5,-243.5 559.5,-224.5 512.5,-224.5"/>
<text text-anchor="middle" x="536" y="-231.5" font-family="Helvetica,sans-Serif" font-size="10.00">cmath</text>
</a>
</g>
</g>
<!-- Node15&#45;&gt;Node17 -->
<g id="edge18" class="edge">
<title>Node15&#45;&gt;Node17</title>
<path fill="none" stroke="midnightblue" d="M640.35,-280.44C620.04,-271.6 588.1,-257.69 564.9,-247.59"/>
<polygon fill="midnightblue" stroke="midnightblue" points="566.12,-244.3 555.56,-243.52 563.33,-250.72 566.12,-244.3"/>
</g>
<!-- Node18 -->
<g id="node18" class="node">
<title>Node18</title>
<g id="a_node18"><a xlink:href="lib_2Ray_2sources_2Vector_2Vector3_8hpp.html" target="_top" xlink:title=" ">
<polygon fill="white" stroke="black" points="578,-224.5 578,-243.5 686,-243.5 686,-224.5 578,-224.5"/>
<text text-anchor="middle" x="632" y="-231.5" font-family="Helvetica,sans-Serif" font-size="10.00">Vector/Vector3.hpp</text>
</a>
</g>
</g>
<!-- Node15&#45;&gt;Node18 -->
<g id="edge19" class="edge">
<title>Node15&#45;&gt;Node18</title>
<path fill="none" stroke="midnightblue" d="M655.38,-280.08C651.54,-272.69 645.98,-261.95 641.24,-252.81"/>
<polygon fill="midnightblue" stroke="midnightblue" points="644.25,-251.02 636.54,-243.75 638.03,-254.24 644.25,-251.02"/>
</g>
<!-- Node19 -->
<g id="node19" class="node">
<title>Node19</title>
<g id="a_node19"><a xlink:title=" ">
<polygon fill="white" stroke="#bfbfbf" points="514.5,-168.5 514.5,-187.5 567.5,-187.5 567.5,-168.5 514.5,-168.5"/>
<text text-anchor="middle" x="541" y="-175.5" font-family="Helvetica,sans-Serif" font-size="10.00">raylib.h</text>
</a>
</g>
</g>
<!-- Node18&#45;&gt;Node19 -->
<g id="edge20" class="edge">
<title>Node18&#45;&gt;Node19</title>
<path fill="none" stroke="midnightblue" d="M617.38,-224.32C603.05,-215.82 580.99,-202.73 564.25,-192.8"/>
<polygon fill="midnightblue" stroke="midnightblue" points="565.97,-189.75 555.58,-187.65 562.4,-195.77 565.97,-189.75"/>
</g>
<!-- Node21&#45;&gt;Node3 -->
<g id="edge26" class="edge">
<title>Node21&#45;&gt;Node3</title>
<path fill="none" stroke="midnightblue" d="M1450.13,-280.41C1455.06,-271.61 1462.16,-257.38 1465,-244 1477.4,-185.59 1477.37,-158.57 1440,-112 1425.73,-94.21 1374.91,-65.11 1354,-56 1304.68,-34.5 1243.1,-21.9 1206.25,-15.74"/>
<polygon fill="midnightblue" stroke="midnightblue" points="1206.53,-12.24 1196.1,-14.1 1205.41,-19.15 1206.53,-12.24"/>
</g>
<!-- Node21&#45;&gt;Node5 -->
<g id="edge28" class="edge">
<title>Node21&#45;&gt;Node5</title>
<path fill="none" stroke="midnightblue" d="M1446.59,-280.48C1451.24,-252.79 1462.05,-164.14 1421,-112 1412.16,-100.77 1380.01,-87.93 1353.58,-78.84"/>
<polygon fill="midnightblue" stroke="midnightblue" points="1354.39,-75.42 1343.8,-75.56 1352.16,-82.06 1354.39,-75.42"/>
</g>
<!-- Node21&#45;&gt;Node6 -->
<g id="edge27" class="edge">
<title>Node21&#45;&gt;Node6</title>
<path fill="none" stroke="midnightblue" d="M1473.28,-284.05C1497.74,-278.38 1532.46,-266.75 1554,-244 1597.04,-198.54 1610.4,-121.53 1614.39,-86"/>
<polygon fill="midnightblue" stroke="midnightblue" points="1617.91,-85.94 1615.41,-75.64 1610.94,-85.25 1617.91,-85.94"/>
</g>
<!-- Node21&#45;&gt;Node8 -->
<g id="edge25" class="edge">
<title>Node21&#45;&gt;Node8</title>
<path fill="none" stroke="midnightblue" d="M1473.42,-288.1C1534.53,-284.51 1673,-266.68 1673,-179 1673,-179 1673,-179 1673,-121 1673,-90.9 1668.24,-82.52 1654,-56 1648.34,-45.46 1639.92,-35.15 1632.44,-27.07"/>
<polygon fill="midnightblue" stroke="midnightblue" points="1634.88,-24.56 1625.41,-19.8 1629.84,-29.42 1634.88,-24.56"/>
</g>
<!-- Node21&#45;&gt;Node10 -->
<g id="edge29" class="edge">
<title>Node21&#45;&gt;Node10</title>
<path fill="none" stroke="midnightblue" d="M1473.14,-283.23C1494.2,-277.28 1521.59,-265.7 1535,-244 1565.84,-194.1 1562.94,-163.58 1535,-112 1527.25,-97.7 1512.77,-87.22 1499.06,-79.99"/>
<polygon fill="midnightblue" stroke="midnightblue" points="1500.31,-76.71 1489.79,-75.5 1497.26,-83.01 1500.31,-76.71"/>
</g>
<!-- Node22 -->
<g id="node22" class="node">
<title>Node22</title>
<g id="a_node22"><a xlink:title=" ">
<polygon fill="white" stroke="#bfbfbf" points="1295.5,-112.5 1295.5,-131.5 1340.5,-131.5 1340.5,-112.5 1295.5,-112.5"/>
<text text-anchor="middle" x="1318" y="-119.5" font-family="Helvetica,sans-Serif" font-size="10.00">utility</text>
</a>
</g>
</g>
<!-- Node21&#45;&gt;Node22 -->
<g id="edge24" class="edge">
<title>Node21&#45;&gt;Node22</title>
<path fill="none" stroke="midnightblue" d="M1442.77,-280.46C1436.88,-259.31 1419.23,-203.62 1388,-168 1376.47,-154.85 1360.19,-144.07 1346.23,-136.37"/>
<polygon fill="midnightblue" stroke="midnightblue" points="1347.51,-133.08 1337.03,-131.53 1344.25,-139.28 1347.51,-133.08"/>
</g>
<!-- Node23 -->
<g id="node23" class="node">
<title>Node23</title>
<g id="a_node23"><a xlink:href="ISystem_8hpp.html" target="_top" xlink:title=" ">
<polygon fill="white" stroke="black" points="972.5,-224.5 972.5,-243.5 1089.5,-243.5 1089.5,-224.5 972.5,-224.5"/>
<text text-anchor="middle" x="1031" y="-231.5" font-family="Helvetica,sans-Serif" font-size="10.00">System/ISystem.hpp</text>
</a>
</g>
</g>
<!-- Node21&#45;&gt;Node23 -->
<g id="edge30" class="edge">
<title>Node21&#45;&gt;Node23</title>
<path fill="none" stroke="midnightblue" d="M1416.87,-285.33C1352.32,-276.91 1192.01,-256 1099.6,-243.95"/>
<polygon fill="midnightblue" stroke="midnightblue" points="1099.88,-240.45 1089.51,-242.63 1098.97,-247.4 1099.88,-240.45"/>
</g>
<!-- Node30 -->
<g id="node30" class="node">
<title>Node30</title>
<g id="a_node30"><a xlink:href="Callback_8hpp.html" target="_top" xlink:title=" ">
<polygon fill="white" stroke="black" points="1261,-168.5 1261,-187.5 1379,-187.5 1379,-168.5 1261,-168.5"/>
<text text-anchor="middle" x="1320" y="-175.5" font-family="Helvetica,sans-Serif" font-size="10.00">Models/Callback.hpp</text>
</a>
</g>
</g>
<!-- Node21&#45;&gt;Node30 -->
<g id="edge41" class="edge">
<title>Node21&#45;&gt;Node30</title>
<path fill="none" stroke="midnightblue" d="M1435.19,-280.37C1414.11,-261.81 1364.22,-217.91 1337.54,-194.44"/>
<polygon fill="midnightblue" stroke="midnightblue" points="1339.58,-191.57 1329.76,-187.59 1334.96,-196.83 1339.58,-191.57"/>
</g>
<!-- Node31 -->
<g id="node31" class="node">
<title>Node31</title>
<g id="a_node31"><a xlink:href="Scene_8hpp.html" target="_top" xlink:title=" ">
<polygon fill="white" stroke="black" points="1184.5,-224.5 1184.5,-243.5 1283.5,-243.5 1283.5,-224.5 1184.5,-224.5"/>
<text text-anchor="middle" x="1234" y="-231.5" font-family="Helvetica,sans-Serif" font-size="10.00">Scene/Scene.hpp</text>
</a>
</g>
</g>
<!-- Node21&#45;&gt;Node31 -->
<g id="edge45" class="edge">
<title>Node21&#45;&gt;Node31</title>
<path fill="none" stroke="midnightblue" d="M1416.98,-281.83C1381.25,-272.69 1319.1,-256.78 1277.27,-246.07"/>
<polygon fill="midnightblue" stroke="midnightblue" points="1277.91,-242.63 1267.36,-243.54 1276.18,-249.41 1277.91,-242.63"/>
</g>
<!-- Node23&#45;&gt;Node2 -->
<g id="edge31" class="edge">
<title>Node23&#45;&gt;Node2</title>
<path fill="none" stroke="midnightblue" d="M1022.6,-224.37C1004.71,-205.97 962.59,-162.67 939.61,-139.05"/>
<polygon fill="midnightblue" stroke="midnightblue" points="941.84,-136.32 932.36,-131.59 936.82,-141.2 941.84,-136.32"/>
</g>
<!-- Node24 -->
<g id="node24" class="node">
<title>Node24</title>
<g id="a_node24"><a xlink:href="View_8hpp.html" target="_top" xlink:title=" ">
<polygon fill="white" stroke="black" points="1079,-168.5 1079,-187.5 1167,-187.5 1167,-168.5 1079,-168.5"/>
<text text-anchor="middle" x="1123" y="-175.5" font-family="Helvetica,sans-Serif" font-size="10.00">View/View.hpp</text>
</a>
</g>
</g>
<!-- Node23&#45;&gt;Node24 -->
<g id="edge32" class="edge">
<title>Node23&#45;&gt;Node24</title>
<path fill="none" stroke="midnightblue" d="M1045.78,-224.32C1060.27,-215.82 1082.57,-202.73 1099.49,-192.8"/>
<polygon fill="midnightblue" stroke="midnightblue" points="1101.4,-195.74 1108.26,-187.65 1097.86,-189.7 1101.4,-195.74"/>
</g>
<!-- Node29 -->
<g id="node29" class="node">
<title>Node29</title>
<g id="a_node29"><a xlink:title=" ">
<polygon fill="white" stroke="#bfbfbf" points="897,-168.5 897,-187.5 947,-187.5 947,-168.5 897,-168.5"/>
<text text-anchor="middle" x="922" y="-175.5" font-family="Helvetica,sans-Serif" font-size="10.00">chrono</text>
</a>
</g>
</g>
<!-- Node23&#45;&gt;Node29 -->
<g id="edge40" class="edge">
<title>Node23&#45;&gt;Node29</title>
<path fill="none" stroke="midnightblue" d="M1013.49,-224.32C995.93,-215.62 968.67,-202.12 948.47,-192.11"/>
<polygon fill="midnightblue" stroke="midnightblue" points="949.98,-188.96 939.47,-187.65 946.88,-195.23 949.98,-188.96"/>
</g>
<!-- Node24&#45;&gt;Node2 -->
<g id="edge39" class="edge">
<title>Node24&#45;&gt;Node2</title>
<path fill="none" stroke="midnightblue" d="M1091.47,-168.44C1057.41,-159.2 1002.99,-144.44 965.48,-134.26"/>
<polygon fill="midnightblue" stroke="midnightblue" points="965.95,-130.76 955.38,-131.52 964.12,-137.51 965.95,-130.76"/>
</g>
<!-- Node24&#45;&gt;Node9 -->
<g id="edge35" class="edge">
<title>Node24&#45;&gt;Node9</title>
<path fill="none" stroke="midnightblue" d="M1095.95,-168.47C1074.08,-160.85 1043.08,-148.37 1019,-132 979.49,-105.15 985.97,-76.87 943,-56 885.1,-27.87 695.76,-16.44 609.95,-12.63"/>
<polygon fill="midnightblue" stroke="midnightblue" points="609.91,-9.12 599.77,-12.19 609.61,-16.12 609.91,-9.12"/>
</g>
<!-- Node24&#45;&gt;Node22 -->
<g id="edge37" class="edge">
<title>Node24&#45;&gt;Node22</title>
<path fill="none" stroke="midnightblue" d="M1154.78,-168.43C1185.85,-160.02 1234.74,-146.69 1285.49,-132.4"/>
<polygon fill="midnightblue" stroke="midnightblue" points="1286.65,-135.71 1295.32,-129.63 1284.75,-128.97 1286.65,-135.71"/>
</g>
<!-- Node25 -->
<g id="node25" class="node">
<title>Node25</title>
<g id="a_node25"><a xlink:title=" ">
<polygon fill="white" stroke="#bfbfbf" points="1162,-112.5 1162,-131.5 1194,-131.5 1194,-112.5 1162,-112.5"/>
<text text-anchor="middle" x="1178" y="-119.5" font-family="Helvetica,sans-Serif" font-size="10.00">list</text>
</a>
</g>
</g>
<!-- Node24&#45;&gt;Node25 -->
<g id="edge33" class="edge">
<title>Node24&#45;&gt;Node25</title>
<path fill="none" stroke="midnightblue" d="M1132.08,-168.08C1140.17,-160.14 1152.2,-148.34 1161.91,-138.8"/>
<polygon fill="midnightblue" stroke="midnightblue" points="1164.4,-141.25 1169.09,-131.75 1159.5,-136.26 1164.4,-141.25"/>
</g>
<!-- Node26 -->
<g id="node26" class="node">
<title>Node26</title>
<g id="a_node26"><a xlink:title=" ">
<polygon fill="white" stroke="#bfbfbf" points="1102.5,-112.5 1102.5,-131.5 1143.5,-131.5 1143.5,-112.5 1102.5,-112.5"/>
<text text-anchor="middle" x="1123" y="-119.5" font-family="Helvetica,sans-Serif" font-size="10.00">tuple</text>
</a>
</g>
</g>
<!-- Node24&#45;&gt;Node26 -->
<g id="edge34" class="edge">
<title>Node24&#45;&gt;Node26</title>
<path fill="none" stroke="midnightblue" d="M1123,-168.08C1123,-161.01 1123,-150.86 1123,-141.99"/>
<polygon fill="midnightblue" stroke="midnightblue" points="1126.5,-141.75 1123,-131.75 1119.5,-141.75 1126.5,-141.75"/>
</g>
<!-- Node27 -->
<g id="node27" class="node">
<title>Node27</title>
<g id="a_node27"><a xlink:title=" ">
<polygon fill="white" stroke="#bfbfbf" points="1212.5,-112.5 1212.5,-131.5 1277.5,-131.5 1277.5,-112.5 1212.5,-112.5"/>
<text text-anchor="middle" x="1245" y="-119.5" font-family="Helvetica,sans-Serif" font-size="10.00">functional</text>
</a>
</g>
</g>
<!-- Node24&#45;&gt;Node27 -->
<g id="edge36" class="edge">
<title>Node24&#45;&gt;Node27</title>
<path fill="none" stroke="midnightblue" d="M1142.33,-168.44C1162.32,-159.6 1193.74,-145.69 1216.56,-135.59"/>
<polygon fill="midnightblue" stroke="midnightblue" points="1218.03,-138.76 1225.76,-131.52 1215.2,-132.36 1218.03,-138.76"/>
</g>
<!-- Node28 -->
<g id="node28" class="node">
<title>Node28</title>
<g id="a_node28"><a xlink:title=" ">
<polygon fill="white" stroke="#bfbfbf" points="1028,-112.5 1028,-131.5 1084,-131.5 1084,-112.5 1028,-112.5"/>
<text text-anchor="middle" x="1056" y="-119.5" font-family="Helvetica,sans-Serif" font-size="10.00">optional</text>
</a>
</g>
</g>
<!-- Node24&#45;&gt;Node28 -->
<g id="edge38" class="edge">
<title>Node24&#45;&gt;Node28</title>
<path fill="none" stroke="midnightblue" d="M1112.24,-168.32C1102.23,-160.26 1087.11,-148.08 1075.07,-138.37"/>
<polygon fill="midnightblue" stroke="midnightblue" points="1076.94,-135.38 1066.96,-131.83 1072.55,-140.83 1076.94,-135.38"/>
</g>
<!-- Node30&#45;&gt;Node4 -->
<g id="edge44" class="edge">
<title>Node30&#45;&gt;Node4</title>
<path fill="none" stroke="midnightblue" d="M1329.62,-168.27C1343.01,-155.06 1364.14,-129.66 1350,-112 1332.2,-89.78 1258.78,-77.79 1205.81,-71.9"/>
<polygon fill="midnightblue" stroke="midnightblue" points="1206.16,-68.42 1195.85,-70.84 1205.42,-75.38 1206.16,-68.42"/>
</g>
<!-- Node30&#45;&gt;Node22 -->
<g id="edge43" class="edge">
<title>Node30&#45;&gt;Node22</title>
<path fill="none" stroke="midnightblue" d="M1319.67,-168.08C1319.41,-161.01 1319.03,-150.86 1318.7,-141.99"/>
<polygon fill="midnightblue" stroke="midnightblue" points="1322.19,-141.61 1318.32,-131.75 1315.2,-141.87 1322.19,-141.61"/>
</g>
<!-- Node30&#45;&gt;Node27 -->
<g id="edge42" class="edge">
<title>Node30&#45;&gt;Node27</title>
<path fill="none" stroke="midnightblue" d="M1307.95,-168.32C1296.54,-160.11 1279.17,-147.6 1265.57,-137.81"/>
<polygon fill="midnightblue" stroke="midnightblue" points="1267.43,-134.84 1257.27,-131.83 1263.34,-140.52 1267.43,-134.84"/>
</g>
<!-- Node31&#45;&gt;Node2 -->
<g id="edge50" class="edge">
<title>Node31&#45;&gt;Node2</title>
<path fill="none" stroke="midnightblue" d="M1195.98,-224.48C1162.38,-216.51 1112.27,-203.51 1070,-188 1050.21,-180.74 1046.21,-176.66 1027,-168 1002.28,-156.85 974.04,-144.54 953.39,-135.62"/>
<polygon fill="midnightblue" stroke="midnightblue" points="954.76,-132.4 944.19,-131.66 951.99,-138.83 954.76,-132.4"/>
</g>
<!-- Node31&#45;&gt;Node8 -->
<g id="edge46" class="edge">
<title>Node31&#45;&gt;Node8</title>
<path fill="none" stroke="midnightblue" d="M1278,-224.46C1309.66,-217.31 1352.8,-205.42 1388,-188 1476.97,-143.96 1564.79,-62.07 1599.95,-27.3"/>
<polygon fill="midnightblue" stroke="midnightblue" points="1602.77,-29.43 1607.36,-19.89 1597.82,-24.48 1602.77,-29.43"/>
</g>
<!-- Node31&#45;&gt;Node24 -->
<g id="edge49" class="edge">
<title>Node31&#45;&gt;Node24</title>
<path fill="none" stroke="midnightblue" d="M1216.17,-224.32C1198.28,-215.62 1170.52,-202.12 1149.95,-192.11"/>
<polygon fill="midnightblue" stroke="midnightblue" points="1151.31,-188.88 1140.79,-187.65 1148.25,-195.18 1151.31,-188.88"/>
</g>
<!-- Node31&#45;&gt;Node25 -->
<g id="edge47" class="edge">
<title>Node31&#45;&gt;Node25</title>
<path fill="none" stroke="midnightblue" d="M1229.61,-224.37C1220.45,-206.38 1199.15,-164.55 1186.97,-140.63"/>
<polygon fill="midnightblue" stroke="midnightblue" points="1190.03,-138.92 1182.37,-131.59 1183.79,-142.09 1190.03,-138.92"/>
</g>
<!-- Node31&#45;&gt;Node27 -->
<g id="edge48" class="edge">
<title>Node31&#45;&gt;Node27</title>
<path fill="none" stroke="midnightblue" d="M1234.86,-224.37C1236.64,-206.62 1240.73,-165.67 1243.14,-141.6"/>
<polygon fill="midnightblue" stroke="midnightblue" points="1246.63,-141.89 1244.14,-131.59 1239.66,-141.19 1246.63,-141.89"/>
</g>
<!-- Node32&#45;&gt;Node33 -->
<g id="edge52" class="edge">
<title>Node32&#45;&gt;Node33</title>
<path fill="none" stroke="midnightblue" d="M1044.78,-403.4C1029.64,-394.2 1009.67,-382.07 993.03,-371.95"/>
<polygon fill="midnightblue" stroke="midnightblue" points="994.54,-368.78 984.17,-366.58 990.9,-374.76 994.54,-368.78"/>
</g>
<!-- Node32&#45;&gt;Node34 -->
<g id="edge55" class="edge">
<title>Node32&#45;&gt;Node34</title>
<path fill="none" stroke="midnightblue" d="M999.1,-403.64C948.02,-393.36 878.26,-379.32 824.76,-368.55"/>
<polygon fill="midnightblue" stroke="midnightblue" points="825.12,-365.05 814.62,-366.51 823.74,-371.92 825.12,-365.05"/>
</g>
<!-- Node37 -->
<g id="node37" class="node">
<title>Node37</title>
<g id="a_node37"><a xlink:href="System_8hpp.html" target="_top" xlink:title=" ">
<polygon fill="white" stroke="black" points="1061,-342 1061,-361 1175,-361 1175,-342 1061,-342"/>
<text text-anchor="middle" x="1118" y="-349" font-family="Helvetica,sans-Serif" font-size="10.00">System/System.hpp</text>
</a>
</g>
</g>
<!-- Node32&#45;&gt;Node37 -->
<g id="edge64" class="edge">
<title>Node32&#45;&gt;Node37</title>
<path fill="none" stroke="midnightblue" d="M1078.85,-403.4C1086.57,-393.36 1096.97,-379.84 1105.11,-369.25"/>
<polygon fill="midnightblue" stroke="midnightblue" points="1107.99,-371.25 1111.31,-361.19 1102.44,-366.99 1107.99,-371.25"/>
</g>
<!-- Node33&#45;&gt;Node2 -->
<g id="edge54" class="edge">
<title>Node33&#45;&gt;Node2</title>
<path fill="none" stroke="midnightblue" d="M952.19,-336.42C935.65,-309.09 900.51,-246.37 888,-188 886.14,-179.31 885.06,-176.39 888,-168 891.79,-157.21 899.37,-147.08 906.6,-139.18"/>
<polygon fill="midnightblue" stroke="midnightblue" points="909.33,-141.4 913.84,-131.81 904.33,-136.49 909.33,-141.4"/>
</g>
<!-- Node33&#45;&gt;Node15 -->
<g id="edge53" class="edge">
<title>Node33&#45;&gt;Node15</title>
<path fill="none" stroke="midnightblue" d="M890.05,-336.47C835.85,-325.76 762.34,-311.23 713.15,-301.51"/>
<polygon fill="midnightblue" stroke="midnightblue" points="713.52,-298.01 703.03,-299.51 712.16,-304.88 713.52,-298.01"/>
</g>
<!-- Node34&#45;&gt;Node2 -->
<g id="edge62" class="edge">
<title>Node34&#45;&gt;Node2</title>
<path fill="none" stroke="midnightblue" d="M748.95,-336.33C759.87,-297.96 791.3,-193.3 816,-168 831.61,-152.01 853.75,-141.46 873.92,-134.62"/>
<polygon fill="midnightblue" stroke="midnightblue" points="875.14,-137.9 883.62,-131.55 873.03,-131.22 875.14,-137.9"/>
</g>
<!-- Node34&#45;&gt;Node7 -->
<g id="edge61" class="edge">
<title>Node34&#45;&gt;Node7</title>
<path fill="none" stroke="midnightblue" d="M666.68,-337.26C586.58,-323.6 472.52,-303.77 463,-300 420.6,-283.2 398.74,-284.1 377,-244 335.1,-166.72 467.26,-104.48 532.63,-79.2"/>
<polygon fill="midnightblue" stroke="midnightblue" points="534.02,-82.41 542.14,-75.6 531.55,-75.87 534.02,-82.41"/>
</g>
<!-- Node34&#45;&gt;Node29 -->
<g id="edge63" class="edge">
<title>Node34&#45;&gt;Node29</title>
<path fill="none" stroke="midnightblue" d="M759.48,-336.47C792.2,-304.77 871.61,-227.82 905.85,-194.65"/>
<polygon fill="midnightblue" stroke="midnightblue" points="908.42,-197.03 913.17,-187.56 903.55,-192 908.42,-197.03"/>
</g>
<!-- Node35 -->
<g id="node35" class="node">
<title>Node35</title>
<g id="a_node35"><a xlink:href="sources_2Models_2Vector2_8hpp.html" target="_top" xlink:title=" ">
<polygon fill="white" stroke="black" points="472.5,-280.5 472.5,-299.5 585.5,-299.5 585.5,-280.5 472.5,-280.5"/>
<text text-anchor="middle" x="529" y="-287.5" font-family="Helvetica,sans-Serif" font-size="10.00">Models/Vector2.hpp</text>
</a>
</g>
</g>
<!-- Node34&#45;&gt;Node35 -->
<g id="edge56" class="edge">
<title>Node34&#45;&gt;Node35</title>
<path fill="none" stroke="midnightblue" d="M694.08,-336.47C656.17,-326.03 605.08,-311.96 569.83,-302.25"/>
<polygon fill="midnightblue" stroke="midnightblue" points="570.45,-298.79 559.88,-299.51 568.59,-305.54 570.45,-298.79"/>
</g>
<!-- Node35&#45;&gt;Node16 -->
<g id="edge57" class="edge">
<title>Node35&#45;&gt;Node16</title>
<path fill="none" stroke="midnightblue" d="M561.48,-280.44C597.34,-271 655.1,-255.78 693.79,-245.59"/>
<polygon fill="midnightblue" stroke="midnightblue" points="694.9,-248.92 703.67,-242.99 693.11,-242.15 694.9,-248.92"/>
</g>
<!-- Node35&#45;&gt;Node17 -->
<g id="edge58" class="edge">
<title>Node35&#45;&gt;Node17</title>
<path fill="none" stroke="midnightblue" d="M530.16,-280.08C531.08,-272.93 532.42,-262.64 533.58,-253.69"/>
<polygon fill="midnightblue" stroke="midnightblue" points="537.05,-254.12 534.87,-243.75 530.11,-253.22 537.05,-254.12"/>
</g>
<!-- Node36 -->
<g id="node36" class="node">
<title>Node36</title>
<g id="a_node36"><a xlink:href="lib_2Ray_2sources_2Vector_2Vector2_8hpp.html" target="_top" xlink:title=" ">
<polygon fill="white" stroke="black" points="386,-224.5 386,-243.5 494,-243.5 494,-224.5 386,-224.5"/>
<text text-anchor="middle" x="440" y="-231.5" font-family="Helvetica,sans-Serif" font-size="10.00">Vector/Vector2.hpp</text>
</a>
</g>
</g>
<!-- Node35&#45;&gt;Node36 -->
<g id="edge59" class="edge">
<title>Node35&#45;&gt;Node36</title>
<path fill="none" stroke="midnightblue" d="M514.7,-280.32C500.82,-271.9 479.51,-258.97 463.2,-249.07"/>
<polygon fill="midnightblue" stroke="midnightblue" points="464.63,-245.85 454.26,-243.65 461,-251.83 464.63,-245.85"/>
</g>
<!-- Node36&#45;&gt;Node19 -->
<g id="edge60" class="edge">
<title>Node36&#45;&gt;Node19</title>
<path fill="none" stroke="midnightblue" d="M456.23,-224.32C472.35,-215.7 497.3,-202.36 515.96,-192.39"/>
<polygon fill="midnightblue" stroke="midnightblue" points="517.64,-195.46 524.81,-187.65 514.34,-189.28 517.64,-195.46"/>
</g>
<!-- Node37&#45;&gt;Node2 -->
<g id="edge69" class="edge">
<title>Node37&#45;&gt;Node2</title>
<path fill="none" stroke="midnightblue" d="M1119.22,-341.82C1121.84,-319.8 1125.75,-260.84 1099,-224 1077.98,-195.05 1058.17,-205.57 1027,-188 998.09,-171.7 965.91,-150.95 945.34,-137.34"/>
<polygon fill="midnightblue" stroke="midnightblue" points="947.02,-134.26 936.76,-131.63 943.14,-140.08 947.02,-134.26"/>
</g>
<!-- Node37&#45;&gt;Node5 -->
<g id="edge67" class="edge">
<title>Node37&#45;&gt;Node5</title>
<path fill="none" stroke="midnightblue" d="M1151.43,-341.99C1211.59,-324.65 1336.58,-278.97 1388,-188 1409.8,-149.43 1364.64,-104.82 1336.41,-82.06"/>
<polygon fill="midnightblue" stroke="midnightblue" points="1338.32,-79.11 1328.28,-75.73 1334.02,-84.63 1338.32,-79.11"/>
</g>
<!-- Node37&#45;&gt;Node8 -->
<g id="edge66" class="edge">
<title>Node37&#45;&gt;Node8</title>
<path fill="none" stroke="midnightblue" d="M1175.13,-351.36C1323.75,-352.06 1711,-343.49 1711,-235 1711,-235 1711,-235 1711,-121 1711,-77.74 1668.39,-43.09 1640.25,-24.91"/>
<polygon fill="midnightblue" stroke="midnightblue" points="1642.03,-21.9 1631.69,-19.6 1638.34,-27.85 1642.03,-21.9"/>
</g>
<!-- Node37&#45;&gt;Node9 -->
<g id="edge68" class="edge">
<title>Node37&#45;&gt;Node9</title>
<path fill="none" stroke="midnightblue" d="M1083.93,-341.96C1073.72,-339.68 1062.46,-337.46 1052,-336 902.07,-315.08 449.15,-377.09 377,-244 339.32,-174.51 252.13,-268.91 481,-56 496.06,-41.99 516.31,-31.11 533.37,-23.56"/>
<polygon fill="midnightblue" stroke="midnightblue" points="535.14,-26.62 542.99,-19.5 532.41,-20.17 535.14,-26.62"/>
</g>
<!-- Node37&#45;&gt;Node16 -->
<g id="edge73" class="edge">
<title>Node37&#45;&gt;Node16</title>
<path fill="none" stroke="midnightblue" d="M1083.87,-341.96C1046.07,-332.37 983.41,-316.02 930,-300 872.79,-282.84 807.02,-260.49 768.08,-246.97"/>
<polygon fill="midnightblue" stroke="midnightblue" points="768.9,-243.55 758.3,-243.56 766.59,-250.16 768.9,-243.55"/>
</g>
<!-- Node37&#45;&gt;Node21 -->
<g id="edge70" class="edge">
<title>Node37&#45;&gt;Node21</title>
<path fill="none" stroke="midnightblue" d="M1158.89,-341.95C1168.74,-339.95 1179.24,-337.85 1189,-336 1266.19,-321.34 1356.8,-305.8 1406.87,-297.37"/>
<polygon fill="midnightblue" stroke="midnightblue" points="1407.64,-300.79 1416.92,-295.68 1406.48,-293.88 1407.64,-300.79"/>
</g>
<!-- Node37&#45;&gt;Node23 -->
<g id="edge72" class="edge">
<title>Node37&#45;&gt;Node23</title>
<path fill="none" stroke="midnightblue" d="M1111.46,-341.82C1097.1,-322.76 1062.6,-276.95 1043.77,-251.96"/>
<polygon fill="midnightblue" stroke="midnightblue" points="1046.43,-249.66 1037.62,-243.78 1040.84,-253.88 1046.43,-249.66"/>
</g>
<!-- Node37&#45;&gt;Node24 -->
<g id="edge71" class="edge">
<title>Node37&#45;&gt;Node24</title>
<path fill="none" stroke="midnightblue" d="M1121.22,-341.71C1124.68,-331.76 1129.96,-314.96 1132,-300 1136.55,-266.53 1135.33,-257.61 1132,-224 1131.13,-215.17 1129.31,-205.51 1127.53,-197.4"/>
<polygon fill="midnightblue" stroke="midnightblue" points="1130.92,-196.49 1125.23,-187.55 1124.1,-198.08 1130.92,-196.49"/>
</g>
<!-- Node37&#45;&gt;Node29 -->
<g id="edge65" class="edge">
<title>Node37&#45;&gt;Node29</title>
<path fill="none" stroke="midnightblue" d="M1101.14,-341.76C1070.99,-325.53 1006.98,-288.35 964,-244 950.31,-229.87 938.53,-210.63 930.97,-196.76"/>
<polygon fill="midnightblue" stroke="midnightblue" points="933.98,-194.98 926.23,-187.75 927.79,-198.23 933.98,-194.98"/>
</g>
<!-- Node38&#45;&gt;Node2 -->
<g id="edge78" class="edge">
<title>Node38&#45;&gt;Node2</title>
<path fill="none" stroke="midnightblue" d="M841.62,-408.78C840.52,-375.54 839.78,-254.3 882,-168 887.48,-156.8 896.69,-146.46 905.09,-138.52"/>
<polygon fill="midnightblue" stroke="midnightblue" points="907.61,-140.96 912.75,-131.7 902.96,-135.74 907.61,-140.96"/>
</g>
<!-- Node38&#45;&gt;Node14 -->
<g id="edge76" class="edge">
<title>Node38&#45;&gt;Node14</title>
<path fill="none" stroke="midnightblue" d="M807.61,-408.94C766.99,-398.82 698.5,-381.76 647.42,-369.04"/>
<polygon fill="midnightblue" stroke="midnightblue" points="648,-365.58 637.45,-366.56 646.31,-372.37 648,-365.58"/>
</g>
<!-- Node38&#45;&gt;Node33 -->
<g id="edge75" class="edge">
<title>Node38&#45;&gt;Node33</title>
<path fill="none" stroke="midnightblue" d="M858.05,-408.73C875.45,-399.23 903.74,-383.78 926.27,-371.47"/>
<polygon fill="midnightblue" stroke="midnightblue" points="928.11,-374.45 935.21,-366.59 924.75,-368.31 928.11,-374.45"/>
</g>
<!-- Node38&#45;&gt;Node37 -->
<g id="edge77" class="edge">
<title>Node38&#45;&gt;Node37</title>
<path fill="none" stroke="midnightblue" d="M878.37,-408.94C928.11,-397.22 1017.4,-376.19 1071.82,-363.38"/>
<polygon fill="midnightblue" stroke="midnightblue" points="1072.62,-366.78 1081.55,-361.08 1071.02,-359.97 1072.62,-366.78"/>
</g>
<!-- Node39&#45;&gt;Node7 -->
<g id="edge82" class="edge">
<title>Node39&#45;&gt;Node7</title>
<path fill="none" stroke="midnightblue" d="M116.47,-280.27C145.29,-251.13 243.33,-156.61 344,-112 386.87,-93 437.95,-81.95 480.39,-75.55"/>
<polygon fill="midnightblue" stroke="midnightblue" points="481.03,-79 490.42,-74.1 480.03,-72.07 481.03,-79"/>
</g>
</g>
</svg>
