<?xml version="1.0" encoding="UTF-8" standalone="no"?>
<!DOCTYPE svg PUBLIC "-//W3C//DTD SVG 1.1//EN"
 "http://www.w3.org/Graphics/SVG/1.1/DTD/svg11.dtd">
<!-- Generated by graphviz version 2.43.0 (0)
 -->
<!-- Title: sources/Component/Music/MusicComponent.hpp Pages: 1 -->
<svg width="2554pt" height="173pt"
 viewBox="0.00 0.00 2554.00 173.00" xmlns="http://www.w3.org/2000/svg" xmlns:xlink="http://www.w3.org/1999/xlink">
<g id="graph0" class="graph" transform="scale(1 1) rotate(0) translate(4 169)">
<title>sources/Component/Music/MusicComponent.hpp</title>
<polygon fill="white" stroke="transparent" points="-4,4 -4,-169 2550,-169 2550,4 -4,4"/>
<!-- Node1 -->
<g id="node1" class="node">
<title>Node1</title>
<g id="a_node1"><a xlink:title=" ">
<polygon fill="#bfbfbf" stroke="black" points="1110,-134.5 1110,-164.5 1255,-164.5 1255,-134.5 1110,-134.5"/>
<text text-anchor="start" x="1118" y="-152.5" font-family="Helvetica,sans-Serif" font-size="10.00">sources/Component/Music</text>
<text text-anchor="middle" x="1182.5" y="-141.5" font-family="Helvetica,sans-Serif" font-size="10.00">/MusicComponent.hpp</text>
</a>
</g>
</g>
<!-- Node2 -->
<g id="node2" class="node">
<title>Node2</title>
<g id="a_node2"><a xlink:href="MusicComponent_8cpp.html" target="_top" xlink:title=" ">
<polygon fill="white" stroke="black" points="0,-67.5 0,-97.5 145,-97.5 145,-67.5 0,-67.5"/>
<text text-anchor="start" x="8" y="-85.5" font-family="Helvetica,sans-Serif" font-size="10.00">sources/Component/Music</text>
<text text-anchor="middle" x="72.5" y="-74.5" font-family="Helvetica,sans-Serif" font-size="10.00">/MusicComponent.cpp</text>
</a>
</g>
</g>
<!-- Node1&#45;&gt;Node2 -->
<g id="edge1" class="edge">
<title>Node1&#45;&gt;Node2</title>
<path fill="none" stroke="midnightblue" d="M1099.8,-147.96C924.81,-146.05 504.44,-137.38 154.5,-98 151.48,-97.66 148.41,-97.28 145.31,-96.87"/>
<polygon fill="midnightblue" stroke="midnightblue" points="1099.92,-151.47 1109.96,-148.07 1100,-144.47 1099.92,-151.47"/>
</g>
<!-- Node3 -->
<g id="node3" class="node">
<title>Node3</title>
<g id="a_node3"><a xlink:href="ParserYaml_8cpp.html" target="_top" xlink:title=" ">
<polygon fill="white" stroke="black" points="163.5,-73 163.5,-92 327.5,-92 327.5,-73 163.5,-73"/>
<text text-anchor="middle" x="245.5" y="-80" font-family="Helvetica,sans-Serif" font-size="10.00">sources/Parser/ParserYaml.cpp</text>
</a>
</g>
</g>
<!-- Node1&#45;&gt;Node3 -->
<g id="edge2" class="edge">
<title>Node1&#45;&gt;Node3</title>
<path fill="none" stroke="midnightblue" d="M1099.7,-146.26C947.97,-141.56 615.31,-128.46 336.5,-98 322.51,-96.47 307.38,-94.28 293.55,-92.06"/>
<polygon fill="midnightblue" stroke="midnightblue" points="1099.77,-149.76 1109.87,-146.57 1099.98,-142.77 1099.77,-149.76"/>
</g>
<!-- Node4 -->
<g id="node4" class="node">
<title>Node4</title>
<g id="a_node4"><a xlink:href="CreditScene_8cpp.html" target="_top" xlink:title=" ">
<polygon fill="white" stroke="black" points="346,-73 346,-92 519,-92 519,-73 346,-73"/>
<text text-anchor="middle" x="432.5" y="-80" font-family="Helvetica,sans-Serif" font-size="10.00">sources/Runner/CreditScene.cpp</text>
</a>
</g>
</g>
<!-- Node1&#45;&gt;Node4 -->
<g id="edge3" class="edge">
<title>Node1&#45;&gt;Node4</title>
<path fill="none" stroke="midnightblue" d="M1099.42,-144.08C974.87,-137.01 732.49,-121.51 527.5,-98 513.25,-96.36 497.85,-94.19 483.68,-92.03"/>
<polygon fill="midnightblue" stroke="midnightblue" points="1099.46,-147.59 1109.64,-144.66 1099.85,-140.6 1099.46,-147.59"/>
</g>
<!-- Node5 -->
<g id="node5" class="node">
<title>Node5</title>
<g id="a_node5"><a xlink:href="GameScene_8cpp.html" target="_top" xlink:title=" ">
<polygon fill="white" stroke="black" points="537,-73 537,-92 710,-92 710,-73 537,-73"/>
<text text-anchor="middle" x="623.5" y="-80" font-family="Helvetica,sans-Serif" font-size="10.00">sources/Runner/GameScene.cpp</text>
</a>
</g>
</g>
<!-- Node1&#45;&gt;Node5 -->
<g id="edge4" class="edge">
<title>Node1&#45;&gt;Node5</title>
<path fill="none" stroke="midnightblue" d="M1099.65,-140.5C1006.92,-131.31 852.24,-115.26 719.5,-98 705.79,-96.22 691.02,-94.09 677.27,-92.02"/>
<polygon fill="midnightblue" stroke="midnightblue" points="1099.52,-144.01 1109.81,-141.51 1100.21,-137.04 1099.52,-144.01"/>
</g>
<!-- Node6 -->
<g id="node6" class="node">
<title>Node6</title>
<g id="a_node6"><a xlink:href="HowToPlayScene_8cpp.html" target="_top" xlink:title=" ">
<polygon fill="white" stroke="black" points="728.5,-67.5 728.5,-97.5 876.5,-97.5 876.5,-67.5 728.5,-67.5"/>
<text text-anchor="start" x="736.5" y="-85.5" font-family="Helvetica,sans-Serif" font-size="10.00">sources/Runner/HowToPlay</text>
<text text-anchor="middle" x="802.5" y="-74.5" font-family="Helvetica,sans-Serif" font-size="10.00">Scene.cpp</text>
</a>
</g>
</g>
<!-- Node1&#45;&gt;Node6 -->
<g id="edge5" class="edge">
<title>Node1&#45;&gt;Node6</title>
<path fill="none" stroke="midnightblue" d="M1099.75,-134.53C1040.16,-124.45 957.85,-110.47 885.5,-98 882.62,-97.5 879.68,-97 876.71,-96.48"/>
<polygon fill="midnightblue" stroke="midnightblue" points="1099.42,-138.03 1109.86,-136.24 1100.58,-131.12 1099.42,-138.03"/>
</g>
<!-- Node7 -->
<g id="node7" class="node">
<title>Node7</title>
<g id="a_node7"><a xlink:href="MainMenuScene_8cpp.html" target="_top" xlink:title=" ">
<polygon fill="white" stroke="black" points="895,-73 895,-92 1090,-92 1090,-73 895,-73"/>
<text text-anchor="middle" x="992.5" y="-80" font-family="Helvetica,sans-Serif" font-size="10.00">sources/Runner/MainMenuScene.cpp</text>
</a>
</g>
</g>
<!-- Node1&#45;&gt;Node7 -->
<g id="edge6" class="edge">
<title>Node1&#45;&gt;Node7</title>
<path fill="none" stroke="midnightblue" d="M1131.66,-131.11C1094.7,-118.46 1046.26,-101.89 1017.37,-92.01"/>
<polygon fill="midnightblue" stroke="midnightblue" points="1130.68,-134.47 1141.27,-134.4 1132.94,-127.85 1130.68,-134.47"/>
</g>
<!-- Node8 -->
<g id="node8" class="node">
<title>Node8</title>
<g id="a_node8"><a xlink:href="PauseMenuScene_8cpp.html" target="_top" xlink:title=" ">
<polygon fill="white" stroke="black" points="1107.5,-67.5 1107.5,-97.5 1257.5,-97.5 1257.5,-67.5 1107.5,-67.5"/>
<text text-anchor="start" x="1115.5" y="-85.5" font-family="Helvetica,sans-Serif" font-size="10.00">sources/Runner/PauseMenu</text>
<text text-anchor="middle" x="1182.5" y="-74.5" font-family="Helvetica,sans-Serif" font-size="10.00">Scene.cpp</text>
</a>
</g>
</g>
<!-- Node1&#45;&gt;Node8 -->
<g id="edge7" class="edge">
<title>Node1&#45;&gt;Node8</title>
<path fill="none" stroke="midnightblue" d="M1182.5,-124.11C1182.5,-115.15 1182.5,-105.32 1182.5,-97.58"/>
<polygon fill="midnightblue" stroke="midnightblue" points="1179,-124.4 1182.5,-134.4 1186,-124.4 1179,-124.4"/>
</g>
<!-- Node9 -->
<g id="node9" class="node">
<title>Node9</title>
<g id="a_node9"><a xlink:href="ScoreScene_8cpp.html" target="_top" xlink:title=" ">
<polygon fill="white" stroke="black" points="1276,-73 1276,-92 1447,-92 1447,-73 1276,-73"/>
<text text-anchor="middle" x="1361.5" y="-80" font-family="Helvetica,sans-Serif" font-size="10.00">sources/Runner/ScoreScene.cpp</text>
</a>
</g>
</g>
<!-- Node1&#45;&gt;Node9 -->
<g id="edge8" class="edge">
<title>Node1&#45;&gt;Node9</title>
<path fill="none" stroke="midnightblue" d="M1230.84,-130.95C1265.61,-118.32 1310.97,-101.85 1338.07,-92.01"/>
<polygon fill="midnightblue" stroke="midnightblue" points="1229.55,-127.69 1221.34,-134.4 1231.93,-134.27 1229.55,-127.69"/>
</g>
<!-- Node10 -->
<g id="node10" class="node">
<title>Node10</title>
<g id="a_node10"><a xlink:href="SettingsMenuScene_8cpp.html" target="_top" xlink:title=" ">
<polygon fill="white" stroke="black" points="1465,-67.5 1465,-97.5 1626,-97.5 1626,-67.5 1465,-67.5"/>
<text text-anchor="start" x="1473" y="-85.5" font-family="Helvetica,sans-Serif" font-size="10.00">sources/Runner/SettingsMenu</text>
<text text-anchor="middle" x="1545.5" y="-74.5" font-family="Helvetica,sans-Serif" font-size="10.00">Scene.cpp</text>
</a>
</g>
</g>
<!-- Node1&#45;&gt;Node10 -->
<g id="edge9" class="edge">
<title>Node1&#45;&gt;Node10</title>
<path fill="none" stroke="midnightblue" d="M1265,-133.73C1325.61,-122.87 1407.44,-108.22 1467.07,-97.54"/>
<polygon fill="midnightblue" stroke="midnightblue" points="1264.31,-130.29 1255.09,-135.5 1265.55,-137.19 1264.31,-130.29"/>
</g>
<!-- Node11 -->
<g id="node11" class="node">
<title>Node11</title>
<g id="a_node11"><a xlink:href="SplashScreenScene_8cpp.html" target="_top" xlink:title=" ">
<polygon fill="white" stroke="black" points="1644.5,-67.5 1644.5,-97.5 1804.5,-97.5 1804.5,-67.5 1644.5,-67.5"/>
<text text-anchor="start" x="1652.5" y="-85.5" font-family="Helvetica,sans-Serif" font-size="10.00">sources/Runner/SplashScreen</text>
<text text-anchor="middle" x="1724.5" y="-74.5" font-family="Helvetica,sans-Serif" font-size="10.00">Scene.cpp</text>
</a>
</g>
</g>
<!-- Node1&#45;&gt;Node11 -->
<g id="edge10" class="edge">
<title>Node1&#45;&gt;Node11</title>
<path fill="none" stroke="midnightblue" d="M1265.27,-140.47C1356.02,-131.38 1505.87,-115.54 1634.5,-98 1637.64,-97.57 1640.83,-97.12 1644.06,-96.66"/>
<polygon fill="midnightblue" stroke="midnightblue" points="1264.65,-137.01 1255.05,-141.49 1265.34,-143.98 1264.65,-137.01"/>
</g>
<!-- Node12 -->
<g id="node12" class="node">
<title>Node12</title>
<g id="a_node12"><a xlink:href="TitleScreenScene_8cpp.html" target="_top" xlink:title=" ">
<polygon fill="white" stroke="black" points="1823,-67.5 1823,-97.5 1972,-97.5 1972,-67.5 1823,-67.5"/>
<text text-anchor="start" x="1831" y="-85.5" font-family="Helvetica,sans-Serif" font-size="10.00">sources/Runner/TitleScreen</text>
<text text-anchor="middle" x="1897.5" y="-74.5" font-family="Helvetica,sans-Serif" font-size="10.00">Scene.cpp</text>
</a>
</g>
</g>
<!-- Node1&#45;&gt;Node12 -->
<g id="edge11" class="edge">
<title>Node1&#45;&gt;Node12</title>
<path fill="none" stroke="midnightblue" d="M1265.4,-144.28C1386.25,-137.58 1617.76,-122.67 1813.5,-98 1816.58,-97.61 1819.73,-97.19 1822.9,-96.74"/>
<polygon fill="midnightblue" stroke="midnightblue" points="1264.91,-140.8 1255.12,-144.84 1265.29,-147.79 1264.91,-140.8"/>
</g>
<!-- Node13 -->
<g id="node13" class="node">
<title>Node13</title>
<g id="a_node13"><a xlink:href="IntroAnimationSystem_8cpp.html" target="_top" xlink:title=" ">
<polygon fill="white" stroke="black" points="1990.5,-67.5 1990.5,-97.5 2160.5,-97.5 2160.5,-67.5 1990.5,-67.5"/>
<text text-anchor="start" x="1998.5" y="-85.5" font-family="Helvetica,sans-Serif" font-size="10.00">sources/System/IntroAnimation</text>
<text text-anchor="middle" x="2075.5" y="-74.5" font-family="Helvetica,sans-Serif" font-size="10.00">/IntroAnimationSystem.cpp</text>
</a>
</g>
</g>
<!-- Node1&#45;&gt;Node13 -->
<g id="edge12" class="edge">
<title>Node1&#45;&gt;Node13</title>
<path fill="none" stroke="midnightblue" d="M1265.19,-145.67C1410.32,-140.18 1720.2,-126.05 1980.5,-98 1983.73,-97.65 1987.03,-97.27 1990.35,-96.87"/>
<polygon fill="midnightblue" stroke="midnightblue" points="1264.89,-142.18 1255.03,-146.05 1265.15,-149.18 1264.89,-142.18"/>
</g>
<!-- Node14 -->
<g id="node14" class="node">
<title>Node14</title>
<g id="a_node14"><a xlink:href="MusicSystem_8hpp.html" target="_top" xlink:title=" ">
<polygon fill="white" stroke="black" points="2179,-67.5 2179,-97.5 2304,-97.5 2304,-67.5 2179,-67.5"/>
<text text-anchor="start" x="2187" y="-85.5" font-family="Helvetica,sans-Serif" font-size="10.00">sources/System/Music</text>
<text text-anchor="middle" x="2241.5" y="-74.5" font-family="Helvetica,sans-Serif" font-size="10.00">/MusicSystem.hpp</text>
</a>
</g>
</g>
<!-- Node1&#45;&gt;Node14 -->
<g id="edge13" class="edge">
<title>Node1&#45;&gt;Node14</title>
<path fill="none" stroke="midnightblue" d="M1265.4,-148.38C1435.55,-147.23 1836.25,-139.85 2169.5,-98 2172.54,-97.62 2175.64,-97.18 2178.76,-96.7"/>
<polygon fill="midnightblue" stroke="midnightblue" points="1265.24,-144.88 1255.26,-148.44 1265.28,-151.88 1265.24,-144.88"/>
</g>
<!-- Node15 -->
<g id="node15" class="node">
<title>Node15</title>
<g id="a_node15"><a xlink:href="LobbyScene_8cpp.html" target="_top" xlink:title=" ">
<polygon fill="white" stroke="black" points="1880,-6 1880,-25 2053,-25 2053,-6 1880,-6"/>
<text text-anchor="middle" x="1966.5" y="-13" font-family="Helvetica,sans-Serif" font-size="10.00">sources/Runner/LobbyScene.cpp</text>
</a>
</g>
</g>
<!-- Node14&#45;&gt;Node15 -->
<g id="edge14" class="edge">
<title>Node14&#45;&gt;Node15</title>
<path fill="none" stroke="midnightblue" d="M2172.32,-65.15C2118.36,-52.39 2045.58,-35.19 2002.58,-25.03"/>
<polygon fill="midnightblue" stroke="midnightblue" points="2171.63,-68.58 2182.17,-67.48 2173.24,-61.77 2171.63,-68.58"/>
</g>
<!-- Node16 -->
<g id="node16" class="node">
<title>Node16</title>
<g id="a_node16"><a xlink:href="ResumeLobbyScene_8cpp.html" target="_top" xlink:title=" ">
<polygon fill="white" stroke="black" points="2071.5,-0.5 2071.5,-30.5 2235.5,-30.5 2235.5,-0.5 2071.5,-0.5"/>
<text text-anchor="start" x="2079.5" y="-18.5" font-family="Helvetica,sans-Serif" font-size="10.00">sources/Runner/ResumeLobby</text>
<text text-anchor="middle" x="2153.5" y="-7.5" font-family="Helvetica,sans-Serif" font-size="10.00">Scene.cpp</text>
</a>
</g>
</g>
<!-- Node14&#45;&gt;Node16 -->
<g id="edge15" class="edge">
<title>Node14&#45;&gt;Node16</title>
<path fill="none" stroke="midnightblue" d="M2214.36,-61.45C2200.82,-51.45 2184.77,-39.6 2172.56,-30.58"/>
<polygon fill="midnightblue" stroke="midnightblue" points="2212.28,-64.27 2222.41,-67.4 2216.44,-58.64 2212.28,-64.27"/>
</g>
<!-- Node17 -->
<g id="node17" class="node">
<title>Node17</title>
<g id="a_node17"><a xlink:href="Runner_8cpp.html" target="_top" xlink:title=" ">
<polygon fill="white" stroke="black" points="2254,-6 2254,-25 2403,-25 2403,-6 2254,-6"/>
<text text-anchor="middle" x="2328.5" y="-13" font-family="Helvetica,sans-Serif" font-size="10.00">sources/Runner/Runner.cpp</text>
</a>
</g>
</g>
<!-- Node14&#45;&gt;Node17 -->
<g id="edge16" class="edge">
<title>Node14&#45;&gt;Node17</title>
<path fill="none" stroke="midnightblue" d="M2268.48,-61.34C2284.72,-49.21 2304.56,-34.39 2316.86,-25.19"/>
<polygon fill="midnightblue" stroke="midnightblue" points="2266.29,-58.61 2260.38,-67.4 2270.48,-64.21 2266.29,-58.61"/>
</g>
<!-- Node18 -->
<g id="node18" class="node">
<title>Node18</title>
<g id="a_node18"><a xlink:href="MusicSystem_8cpp.html" target="_top" xlink:title=" ">
<polygon fill="white" stroke="black" points="2421,-0.5 2421,-30.5 2546,-30.5 2546,-0.5 2421,-0.5"/>
<text text-anchor="start" x="2429" y="-18.5" font-family="Helvetica,sans-Serif" font-size="10.00">sources/System/Music</text>
<text text-anchor="middle" x="2483.5" y="-7.5" font-family="Helvetica,sans-Serif" font-size="10.00">/MusicSystem.cpp</text>
</a>
</g>
</g>
<!-- Node14&#45;&gt;Node18 -->
<g id="edge17" class="edge">
<title>Node14&#45;&gt;Node18</title>
<path fill="none" stroke="midnightblue" d="M2303.49,-64.85C2342.95,-54.25 2393.49,-40.68 2430.96,-30.61"/>
<polygon fill="midnightblue" stroke="midnightblue" points="2302.46,-61.5 2293.71,-67.48 2304.28,-68.26 2302.46,-61.5"/>
</g>
</g>
</svg>
