<?xml version="1.0" encoding="UTF-8" standalone="no"?>
<!DOCTYPE svg PUBLIC "-//W3C//DTD SVG 1.1//EN"
 "http://www.w3.org/Graphics/SVG/1.1/DTD/svg11.dtd">
<!-- Generated by graphviz version 2.43.0 (0)
 -->
<!-- Title: sources/Component/Music/MusicComponent.hpp Pages: 1 -->
<svg width="966pt" height="263pt"
 viewBox="0.00 0.00 966.00 263.00" xmlns="http://www.w3.org/2000/svg" xmlns:xlink="http://www.w3.org/1999/xlink">
<g id="graph0" class="graph" transform="scale(1 1) rotate(0) translate(4 259)">
<title>sources/Component/Music/MusicComponent.hpp</title>
<polygon fill="white" stroke="transparent" points="-4,4 -4,-259 962,-259 962,4 -4,4"/>
<!-- Node1 -->
<g id="node1" class="node">
<title>Node1</title>
<g id="a_node1"><a xlink:title=" ">
<polygon fill="#bfbfbf" stroke="black" points="628,-224.5 628,-254.5 773,-254.5 773,-224.5 628,-224.5"/>
<text text-anchor="start" x="636" y="-242.5" font-family="Helvetica,sans-Serif" font-size="10.00">sources/Component/Music</text>
<text text-anchor="middle" x="700.5" y="-231.5" font-family="Helvetica,sans-Serif" font-size="10.00">/MusicComponent.hpp</text>
</a>
</g>
</g>
<!-- Node2 -->
<g id="node2" class="node">
<title>Node2</title>
<g id="a_node2"><a xlink:href="Component_8hpp.html" target="_top" xlink:title=" ">
<polygon fill="white" stroke="black" points="43,-112.5 43,-131.5 196,-131.5 196,-112.5 43,-112.5"/>
<text text-anchor="middle" x="119.5" y="-119.5" font-family="Helvetica,sans-Serif" font-size="10.00">Component/Component.hpp</text>
</a>
</g>
</g>
<!-- Node1&#45;&gt;Node2 -->
<g id="edge1" class="edge">
<title>Node1&#45;&gt;Node2</title>
<path fill="none" stroke="midnightblue" d="M629.84,-224.45C511.89,-201.01 277.51,-154.41 172.52,-133.54"/>
<polygon fill="midnightblue" stroke="midnightblue" points="172.96,-130.06 162.47,-131.54 171.6,-136.92 172.96,-130.06"/>
</g>
<!-- Node6 -->
<g id="node6" class="node">
<title>Node6</title>
<g id="a_node6"><a xlink:title=" ">
<polygon fill="white" stroke="#bfbfbf" points="767.5,-168.5 767.5,-187.5 805.5,-187.5 805.5,-168.5 767.5,-168.5"/>
<text text-anchor="middle" x="786.5" y="-175.5" font-family="Helvetica,sans-Serif" font-size="10.00">map</text>
</a>
</g>
</g>
<!-- Node1&#45;&gt;Node6 -->
<g id="edge5" class="edge">
<title>Node1&#45;&gt;Node6</title>
<path fill="none" stroke="midnightblue" d="M720.88,-224.4C734.41,-215.04 752.11,-202.79 765.72,-193.38"/>
<polygon fill="midnightblue" stroke="midnightblue" points="767.75,-196.23 773.99,-187.66 763.77,-190.47 767.75,-196.23"/>
</g>
<!-- Node7 -->
<g id="node7" class="node">
<title>Node7</title>
<g id="a_node7"><a xlink:href="Music_8hpp.html" target="_top" xlink:title=" ">
<polygon fill="white" stroke="black" points="652,-168.5 652,-187.5 749,-187.5 749,-168.5 652,-168.5"/>
<text text-anchor="middle" x="700.5" y="-175.5" font-family="Helvetica,sans-Serif" font-size="10.00">Audio/Music.hpp</text>
</a>
</g>
</g>
<!-- Node1&#45;&gt;Node7 -->
<g id="edge6" class="edge">
<title>Node1&#45;&gt;Node7</title>
<path fill="none" stroke="midnightblue" d="M700.5,-224.4C700.5,-216.47 700.5,-206.46 700.5,-197.86"/>
<polygon fill="midnightblue" stroke="midnightblue" points="704,-197.66 700.5,-187.66 697,-197.66 704,-197.66"/>
</g>
<!-- Node3 -->
<g id="node3" class="node">
<title>Node3</title>
<g id="a_node3"><a xlink:title=" ">
<polygon fill="white" stroke="#bfbfbf" points="122,-56.5 122,-75.5 169,-75.5 169,-56.5 122,-56.5"/>
<text text-anchor="middle" x="145.5" y="-63.5" font-family="Helvetica,sans-Serif" font-size="10.00">vector</text>
</a>
</g>
</g>
<!-- Node2&#45;&gt;Node3 -->
<g id="edge2" class="edge">
<title>Node2&#45;&gt;Node3</title>
<path fill="none" stroke="midnightblue" d="M123.79,-112.08C127.35,-104.69 132.52,-93.95 136.92,-84.81"/>
<polygon fill="midnightblue" stroke="midnightblue" points="140.1,-86.28 141.29,-75.75 133.79,-83.24 140.1,-86.28"/>
</g>
<!-- Node4 -->
<g id="node4" class="node">
<title>Node4</title>
<g id="a_node4"><a xlink:title=" ">
<polygon fill="white" stroke="#bfbfbf" points="449.5,-0.5 449.5,-19.5 493.5,-19.5 493.5,-0.5 449.5,-0.5"/>
<text text-anchor="middle" x="471.5" y="-7.5" font-family="Helvetica,sans-Serif" font-size="10.00">string</text>
</a>
</g>
</g>
<!-- Node2&#45;&gt;Node4 -->
<g id="edge3" class="edge">
<title>Node2&#45;&gt;Node4</title>
<path fill="none" stroke="midnightblue" d="M114.87,-112.18C108.34,-98.39 98.68,-71.66 112.5,-56 134,-31.64 355.24,-17.26 439.32,-12.64"/>
<polygon fill="midnightblue" stroke="midnightblue" points="439.53,-16.14 449.33,-12.1 439.16,-9.15 439.53,-16.14"/>
</g>
<!-- Node5 -->
<g id="node5" class="node">
<title>Node5</title>
<g id="a_node5"><a xlink:title=" ">
<polygon fill="white" stroke="#bfbfbf" points="0,-56.5 0,-75.5 65,-75.5 65,-56.5 0,-56.5"/>
<text text-anchor="middle" x="32.5" y="-63.5" font-family="Helvetica,sans-Serif" font-size="10.00">typeindex</text>
</a>
</g>
</g>
<!-- Node2&#45;&gt;Node5 -->
<g id="edge4" class="edge">
<title>Node2&#45;&gt;Node5</title>
<path fill="none" stroke="midnightblue" d="M105.52,-112.32C91.95,-103.9 71.12,-90.97 55.18,-81.07"/>
<polygon fill="midnightblue" stroke="midnightblue" points="56.79,-77.95 46.44,-75.65 53.09,-83.9 56.79,-77.95"/>
</g>
<!-- Node8 -->
<g id="node8" class="node">
<title>Node8</title>
<g id="a_node8"><a xlink:href="IAudio_8hpp.html" target="_top" xlink:title=" ">
<polygon fill="white" stroke="black" points="859,-112.5 859,-131.5 958,-131.5 958,-112.5 859,-112.5"/>
<text text-anchor="middle" x="908.5" y="-119.5" font-family="Helvetica,sans-Serif" font-size="10.00">Audio/IAudio.hpp</text>
</a>
</g>
</g>
<!-- Node7&#45;&gt;Node8 -->
<g id="edge7" class="edge">
<title>Node7&#45;&gt;Node8</title>
<path fill="none" stroke="midnightblue" d="M733.46,-168.44C769.29,-159.14 826.66,-144.25 865.89,-134.06"/>
<polygon fill="midnightblue" stroke="midnightblue" points="866.9,-137.42 875.7,-131.52 865.14,-130.64 866.9,-137.42"/>
</g>
<!-- Node9 -->
<g id="node9" class="node">
<title>Node9</title>
<g id="a_node9"><a xlink:title=" ">
<polygon fill="white" stroke="#bfbfbf" points="874,-56.5 874,-75.5 927,-75.5 927,-56.5 874,-56.5"/>
<text text-anchor="middle" x="900.5" y="-63.5" font-family="Helvetica,sans-Serif" font-size="10.00">raylib.h</text>
</a>
</g>
</g>
<!-- Node7&#45;&gt;Node9 -->
<g id="edge9" class="edge">
<title>Node7&#45;&gt;Node9</title>
<path fill="none" stroke="midnightblue" d="M716.19,-168.37C750.88,-149.29 834.28,-103.42 875.94,-80.51"/>
<polygon fill="midnightblue" stroke="midnightblue" points="877.8,-83.48 884.88,-75.59 874.43,-77.34 877.8,-83.48"/>
</g>
<!-- Node10 -->
<g id="node10" class="node">
<title>Node10</title>
<g id="a_node10"><a xlink:href="Cache_8hpp.html" target="_top" xlink:title=" ">
<polygon fill="white" stroke="black" points="570,-112.5 570,-131.5 663,-131.5 663,-112.5 570,-112.5"/>
<text text-anchor="middle" x="616.5" y="-119.5" font-family="Helvetica,sans-Serif" font-size="10.00">Utils/Cache.hpp</text>
</a>
</g>
</g>
<!-- Node7&#45;&gt;Node10 -->
<g id="edge10" class="edge">
<title>Node7&#45;&gt;Node10</title>
<path fill="none" stroke="midnightblue" d="M687,-168.32C673.9,-159.9 653.79,-146.97 638.39,-137.07"/>
<polygon fill="midnightblue" stroke="midnightblue" points="640.27,-134.12 629.96,-131.65 636.48,-140.01 640.27,-134.12"/>
</g>
<!-- Node8&#45;&gt;Node4 -->
<g id="edge8" class="edge">
<title>Node8&#45;&gt;Node4</title>
<path fill="none" stroke="midnightblue" d="M917.51,-112.44C930.58,-98.99 951.7,-72.74 936.5,-56 907.44,-23.99 604.18,-14.08 503.67,-11.67"/>
<polygon fill="midnightblue" stroke="midnightblue" points="503.59,-8.17 493.51,-11.43 503.43,-15.16 503.59,-8.17"/>
</g>
<!-- Node10&#45;&gt;Node3 -->
<g id="edge19" class="edge">
<title>Node10&#45;&gt;Node3</title>
<path fill="none" stroke="midnightblue" d="M569.98,-118.86C491.23,-114.68 326.6,-103.46 179.28,-76.06"/>
<polygon fill="midnightblue" stroke="midnightblue" points="179.63,-72.56 169.16,-74.14 178.33,-79.44 179.63,-72.56"/>
</g>
<!-- Node10&#45;&gt;Node4 -->
<g id="edge21" class="edge">
<title>Node10&#45;&gt;Node4</title>
<path fill="none" stroke="midnightblue" d="M616.36,-112.2C615.66,-98.43 612.34,-71.74 597.5,-56 573.05,-30.08 532.66,-19.06 504.21,-14.4"/>
<polygon fill="midnightblue" stroke="midnightblue" points="504.35,-10.88 493.95,-12.9 503.34,-17.81 504.35,-10.88"/>
</g>
<!-- Node10&#45;&gt;Node9 -->
<g id="edge15" class="edge">
<title>Node10&#45;&gt;Node9</title>
<path fill="none" stroke="midnightblue" d="M663.3,-113.45C711.15,-105.52 787.83,-92.23 863.61,-76.07"/>
<polygon fill="midnightblue" stroke="midnightblue" points="864.77,-79.4 873.81,-73.88 863.3,-72.56 864.77,-79.4"/>
</g>
<!-- Node11 -->
<g id="node11" class="node">
<title>Node11</title>
<g id="a_node11"><a xlink:title=" ">
<polygon fill="white" stroke="#bfbfbf" points="418.5,-56.5 418.5,-75.5 476.5,-75.5 476.5,-56.5 418.5,-56.5"/>
<text text-anchor="middle" x="447.5" y="-63.5" font-family="Helvetica,sans-Serif" font-size="10.00">memory</text>
</a>
</g>
</g>
<!-- Node10&#45;&gt;Node11 -->
<g id="edge11" class="edge">
<title>Node10&#45;&gt;Node11</title>
<path fill="none" stroke="midnightblue" d="M589.72,-112.44C561.17,-103.32 515.77,-88.81 483.96,-78.65"/>
<polygon fill="midnightblue" stroke="midnightblue" points="484.74,-75.23 474.15,-75.52 482.61,-81.89 484.74,-75.23"/>
</g>
<!-- Node12 -->
<g id="node12" class="node">
<title>Node12</title>
<g id="a_node12"><a xlink:title=" ">
<polygon fill="white" stroke="#bfbfbf" points="495,-56.5 495,-75.5 588,-75.5 588,-56.5 495,-56.5"/>
<text text-anchor="middle" x="541.5" y="-63.5" font-family="Helvetica,sans-Serif" font-size="10.00">unordered_map</text>
</a>
</g>
</g>
<!-- Node10&#45;&gt;Node12 -->
<g id="edge12" class="edge">
<title>Node10&#45;&gt;Node12</title>
<path fill="none" stroke="midnightblue" d="M604.45,-112.32C593.04,-104.11 575.67,-91.6 562.07,-81.81"/>
<polygon fill="midnightblue" stroke="midnightblue" points="563.93,-78.84 553.77,-75.83 559.84,-84.52 563.93,-78.84"/>
</g>
<!-- Node13 -->
<g id="node13" class="node">
<title>Node13</title>
<g id="a_node13"><a xlink:title=" ">
<polygon fill="white" stroke="#bfbfbf" points="645,-56.5 645,-75.5 710,-75.5 710,-56.5 645,-56.5"/>
<text text-anchor="middle" x="677.5" y="-63.5" font-family="Helvetica,sans-Serif" font-size="10.00">functional</text>
</a>
</g>
</g>
<!-- Node10&#45;&gt;Node13 -->
<g id="edge13" class="edge">
<title>Node10&#45;&gt;Node13</title>
<path fill="none" stroke="midnightblue" d="M626.3,-112.32C635.32,-104.34 648.91,-92.31 659.82,-82.65"/>
<polygon fill="midnightblue" stroke="midnightblue" points="662.35,-85.08 667.52,-75.83 657.71,-79.84 662.35,-85.08"/>
</g>
<!-- Node14 -->
<g id="node14" class="node">
<title>Node14</title>
<g id="a_node14"><a xlink:title=" ">
<polygon fill="white" stroke="#bfbfbf" points="728,-56.5 728,-75.5 773,-75.5 773,-56.5 728,-56.5"/>
<text text-anchor="middle" x="750.5" y="-63.5" font-family="Helvetica,sans-Serif" font-size="10.00">utility</text>
</a>
</g>
</g>
<!-- Node10&#45;&gt;Node14 -->
<g id="edge14" class="edge">
<title>Node10&#45;&gt;Node14</title>
<path fill="none" stroke="midnightblue" d="M637.73,-112.44C659.88,-103.52 694.82,-89.44 719.94,-79.32"/>
<polygon fill="midnightblue" stroke="midnightblue" points="721.4,-82.5 729.37,-75.52 718.78,-76.01 721.4,-82.5"/>
</g>
<!-- Node15 -->
<g id="node15" class="node">
<title>Node15</title>
<g id="a_node15"><a xlink:href="RayError_8hpp.html" target="_top" xlink:title=" ">
<polygon fill="white" stroke="black" points="187,-56.5 187,-75.5 322,-75.5 322,-56.5 187,-56.5"/>
<text text-anchor="middle" x="254.5" y="-63.5" font-family="Helvetica,sans-Serif" font-size="10.00">Exceptions/RayError.hpp</text>
</a>
</g>
</g>
<!-- Node10&#45;&gt;Node15 -->
<g id="edge16" class="edge">
<title>Node10&#45;&gt;Node15</title>
<path fill="none" stroke="midnightblue" d="M569.92,-114.05C506.81,-104.64 393.77,-87.78 321.54,-77"/>
<polygon fill="midnightblue" stroke="midnightblue" points="322.04,-73.54 311.63,-75.52 321.01,-80.46 322.04,-73.54"/>
</g>
<!-- Node17 -->
<g id="node17" class="node">
<title>Node17</title>
<g id="a_node17"><a xlink:title=" ">
<polygon fill="white" stroke="#bfbfbf" points="791.5,-56.5 791.5,-75.5 855.5,-75.5 855.5,-56.5 791.5,-56.5"/>
<text text-anchor="middle" x="823.5" y="-63.5" font-family="Helvetica,sans-Serif" font-size="10.00">algorithm</text>
</a>
</g>
</g>
<!-- Node10&#45;&gt;Node17 -->
<g id="edge20" class="edge">
<title>Node10&#45;&gt;Node17</title>
<path fill="none" stroke="midnightblue" d="M649.3,-112.44C684.99,-103.13 742.15,-88.22 781.19,-78.04"/>
<polygon fill="midnightblue" stroke="midnightblue" points="782.4,-81.34 791.19,-75.43 780.63,-74.57 782.4,-81.34"/>
</g>
<!-- Node18 -->
<g id="node18" class="node">
<title>Node18</title>
<g id="a_node18"><a xlink:title=" ">
<polygon fill="white" stroke="#bfbfbf" points="340.5,-56.5 340.5,-75.5 400.5,-75.5 400.5,-56.5 340.5,-56.5"/>
<text text-anchor="middle" x="370.5" y="-63.5" font-family="Helvetica,sans-Serif" font-size="10.00">iostream</text>
</a>
</g>
</g>
<!-- Node10&#45;&gt;Node18 -->
<g id="edge22" class="edge">
<title>Node10&#45;&gt;Node18</title>
<path fill="none" stroke="midnightblue" d="M576.4,-112.44C536.71,-103.93 473.96,-90.39 410.5,-76.2"/>
<polygon fill="midnightblue" stroke="midnightblue" points="411.25,-72.78 400.73,-74.01 409.72,-79.62 411.25,-72.78"/>
</g>
<!-- Node15&#45;&gt;Node4 -->
<g id="edge18" class="edge">
<title>Node15&#45;&gt;Node4</title>
<path fill="none" stroke="midnightblue" d="M288.88,-56.44C330.22,-46.16 399.05,-29.03 439.36,-19"/>
<polygon fill="midnightblue" stroke="midnightblue" points="440.34,-22.36 449.2,-16.55 438.65,-15.57 440.34,-22.36"/>
</g>
<!-- Node16 -->
<g id="node16" class="node">
<title>Node16</title>
<g id="a_node16"><a xlink:title=" ">
<polygon fill="white" stroke="#bfbfbf" points="222,-0.5 222,-19.5 287,-19.5 287,-0.5 222,-0.5"/>
<text text-anchor="middle" x="254.5" y="-7.5" font-family="Helvetica,sans-Serif" font-size="10.00">stdexcept</text>
</a>
</g>
</g>
<!-- Node15&#45;&gt;Node16 -->
<g id="edge17" class="edge">
<title>Node15&#45;&gt;Node16</title>
<path fill="none" stroke="midnightblue" d="M254.5,-56.08C254.5,-49.01 254.5,-38.86 254.5,-29.99"/>
<polygon fill="midnightblue" stroke="midnightblue" points="258,-29.75 254.5,-19.75 251,-29.75 258,-29.75"/>
</g>
</g>
</svg>
