<?xml version="1.0" encoding="UTF-8" standalone="no"?>
<!DOCTYPE svg PUBLIC "-//W3C//DTD SVG 1.1//EN"
 "http://www.w3.org/Graphics/SVG/1.1/DTD/svg11.dtd">
<!-- Generated by graphviz version 2.43.0 (0)
 -->
<!-- Title: lib/Ray/sources/Audio/Music.hpp Pages: 1 -->
<svg width="890pt" height="207pt"
 viewBox="0.00 0.00 889.50 207.00" xmlns="http://www.w3.org/2000/svg" xmlns:xlink="http://www.w3.org/1999/xlink">
<g id="graph0" class="graph" transform="scale(1 1) rotate(0) translate(4 203)">
<title>lib/Ray/sources/Audio/Music.hpp</title>
<polygon fill="white" stroke="transparent" points="-4,4 -4,-203 885.5,-203 885.5,4 -4,4"/>
<!-- Node1 -->
<g id="node1" class="node">
<title>Node1</title>
<g id="a_node1"><a xlink:title=" ">
<polygon fill="#bfbfbf" stroke="black" points="66.5,-168.5 66.5,-198.5 188.5,-198.5 188.5,-168.5 66.5,-168.5"/>
<text text-anchor="start" x="74.5" y="-186.5" font-family="Helvetica,sans-Serif" font-size="10.00">lib/Ray/sources/Audio</text>
<text text-anchor="middle" x="127.5" y="-175.5" font-family="Helvetica,sans-Serif" font-size="10.00">/Music.hpp</text>
</a>
</g>
</g>
<!-- Node2 -->
<g id="node2" class="node">
<title>Node2</title>
<g id="a_node2"><a xlink:href="IAudio_8hpp.html" target="_top" xlink:title=" ">
<polygon fill="white" stroke="black" points="0,-112.5 0,-131.5 99,-131.5 99,-112.5 0,-112.5"/>
<text text-anchor="middle" x="49.5" y="-119.5" font-family="Helvetica,sans-Serif" font-size="10.00">Audio/IAudio.hpp</text>
</a>
</g>
</g>
<!-- Node1&#45;&gt;Node2 -->
<g id="edge1" class="edge">
<title>Node1&#45;&gt;Node2</title>
<path fill="none" stroke="midnightblue" d="M109.02,-168.4C96.98,-159.22 81.3,-147.26 69.06,-137.92"/>
<polygon fill="midnightblue" stroke="midnightblue" points="70.92,-134.94 60.85,-131.66 66.68,-140.51 70.92,-134.94"/>
</g>
<!-- Node4 -->
<g id="node4" class="node">
<title>Node4</title>
<g id="a_node4"><a xlink:title=" ">
<polygon fill="white" stroke="#bfbfbf" points="78,-56.5 78,-75.5 131,-75.5 131,-56.5 78,-56.5"/>
<text text-anchor="middle" x="104.5" y="-63.5" font-family="Helvetica,sans-Serif" font-size="10.00">raylib.h</text>
</a>
</g>
</g>
<!-- Node1&#45;&gt;Node4 -->
<g id="edge3" class="edge">
<title>Node1&#45;&gt;Node4</title>
<path fill="none" stroke="midnightblue" d="M124.68,-168.34C120.54,-147.53 112.8,-108.66 108.2,-85.58"/>
<polygon fill="midnightblue" stroke="midnightblue" points="111.61,-84.79 106.23,-75.67 104.75,-86.16 111.61,-84.79"/>
</g>
<!-- Node5 -->
<g id="node5" class="node">
<title>Node5</title>
<g id="a_node5"><a xlink:href="Cache_8hpp.html" target="_top" xlink:title=" ">
<polygon fill="white" stroke="black" points="361,-112.5 361,-131.5 454,-131.5 454,-112.5 361,-112.5"/>
<text text-anchor="middle" x="407.5" y="-119.5" font-family="Helvetica,sans-Serif" font-size="10.00">Utils/Cache.hpp</text>
</a>
</g>
</g>
<!-- Node1&#45;&gt;Node5 -->
<g id="edge4" class="edge">
<title>Node1&#45;&gt;Node5</title>
<path fill="none" stroke="midnightblue" d="M188.6,-169.52C239.12,-158.78 309.99,-143.72 357.26,-133.68"/>
<polygon fill="midnightblue" stroke="midnightblue" points="358.21,-137.05 367.27,-131.55 356.76,-130.2 358.21,-137.05"/>
</g>
<!-- Node3 -->
<g id="node3" class="node">
<title>Node3</title>
<g id="a_node3"><a xlink:title=" ">
<polygon fill="white" stroke="#bfbfbf" points="137.5,-0.5 137.5,-19.5 181.5,-19.5 181.5,-0.5 137.5,-0.5"/>
<text text-anchor="middle" x="159.5" y="-7.5" font-family="Helvetica,sans-Serif" font-size="10.00">string</text>
</a>
</g>
</g>
<!-- Node2&#45;&gt;Node3 -->
<g id="edge2" class="edge">
<title>Node2&#45;&gt;Node3</title>
<path fill="none" stroke="midnightblue" d="M49.86,-112.4C50.86,-98.9 54.6,-72.57 68.5,-56 83.64,-37.95 107.79,-26.48 127.4,-19.64"/>
<polygon fill="midnightblue" stroke="midnightblue" points="128.74,-22.88 137.18,-16.47 126.58,-16.22 128.74,-22.88"/>
</g>
<!-- Node5&#45;&gt;Node3 -->
<g id="edge15" class="edge">
<title>Node5&#45;&gt;Node3</title>
<path fill="none" stroke="midnightblue" d="M360.84,-117.49C301.8,-112.12 204.64,-99.88 178.5,-76 165.63,-64.25 161.3,-44.31 159.93,-29.61"/>
<polygon fill="midnightblue" stroke="midnightblue" points="163.42,-29.4 159.36,-19.61 156.43,-29.79 163.42,-29.4"/>
</g>
<!-- Node5&#45;&gt;Node4 -->
<g id="edge9" class="edge">
<title>Node5&#45;&gt;Node4</title>
<path fill="none" stroke="midnightblue" d="M360.53,-113.6C308,-105.17 220.46,-90.66 145.5,-76 144.21,-75.75 142.9,-75.49 141.58,-75.22"/>
<polygon fill="midnightblue" stroke="midnightblue" points="141.87,-71.71 131.37,-73.08 140.44,-78.56 141.87,-71.71"/>
</g>
<!-- Node6 -->
<g id="node6" class="node">
<title>Node6</title>
<g id="a_node6"><a xlink:title=" ">
<polygon fill="white" stroke="#bfbfbf" points="187.5,-56.5 187.5,-75.5 245.5,-75.5 245.5,-56.5 187.5,-56.5"/>
<text text-anchor="middle" x="216.5" y="-63.5" font-family="Helvetica,sans-Serif" font-size="10.00">memory</text>
</a>
</g>
</g>
<!-- Node5&#45;&gt;Node6 -->
<g id="edge5" class="edge">
<title>Node5&#45;&gt;Node6</title>
<path fill="none" stroke="midnightblue" d="M377.24,-112.44C344.26,-103.12 291.4,-88.17 255.37,-77.99"/>
<polygon fill="midnightblue" stroke="midnightblue" points="256.26,-74.6 245.68,-75.25 254.35,-81.34 256.26,-74.6"/>
</g>
<!-- Node7 -->
<g id="node7" class="node">
<title>Node7</title>
<g id="a_node7"><a xlink:title=" ">
<polygon fill="white" stroke="#bfbfbf" points="264,-56.5 264,-75.5 357,-75.5 357,-56.5 264,-56.5"/>
<text text-anchor="middle" x="310.5" y="-63.5" font-family="Helvetica,sans-Serif" font-size="10.00">unordered_map</text>
</a>
</g>
</g>
<!-- Node5&#45;&gt;Node7 -->
<g id="edge6" class="edge">
<title>Node5&#45;&gt;Node7</title>
<path fill="none" stroke="midnightblue" d="M391.92,-112.32C376.5,-103.74 352.69,-90.49 334.79,-80.52"/>
<polygon fill="midnightblue" stroke="midnightblue" points="336.49,-77.46 326.05,-75.65 333.08,-83.58 336.49,-77.46"/>
</g>
<!-- Node8 -->
<g id="node8" class="node">
<title>Node8</title>
<g id="a_node8"><a xlink:title=" ">
<polygon fill="white" stroke="#bfbfbf" points="375,-56.5 375,-75.5 440,-75.5 440,-56.5 375,-56.5"/>
<text text-anchor="middle" x="407.5" y="-63.5" font-family="Helvetica,sans-Serif" font-size="10.00">functional</text>
</a>
</g>
</g>
<!-- Node5&#45;&gt;Node8 -->
<g id="edge7" class="edge">
<title>Node5&#45;&gt;Node8</title>
<path fill="none" stroke="midnightblue" d="M407.5,-112.08C407.5,-105.01 407.5,-94.86 407.5,-85.99"/>
<polygon fill="midnightblue" stroke="midnightblue" points="411,-85.75 407.5,-75.75 404,-85.75 411,-85.75"/>
</g>
<!-- Node9 -->
<g id="node9" class="node">
<title>Node9</title>
<g id="a_node9"><a xlink:title=" ">
<polygon fill="white" stroke="#bfbfbf" points="458,-56.5 458,-75.5 503,-75.5 503,-56.5 458,-56.5"/>
<text text-anchor="middle" x="480.5" y="-63.5" font-family="Helvetica,sans-Serif" font-size="10.00">utility</text>
</a>
</g>
</g>
<!-- Node5&#45;&gt;Node9 -->
<g id="edge8" class="edge">
<title>Node5&#45;&gt;Node9</title>
<path fill="none" stroke="midnightblue" d="M419.23,-112.32C430.34,-104.11 447.24,-91.6 460.48,-81.81"/>
<polygon fill="midnightblue" stroke="midnightblue" points="462.6,-84.59 468.56,-75.83 458.44,-78.97 462.6,-84.59"/>
</g>
<!-- Node10 -->
<g id="node10" class="node">
<title>Node10</title>
<g id="a_node10"><a xlink:href="RayError_8hpp.html" target="_top" xlink:title=" ">
<polygon fill="white" stroke="black" points="521,-56.5 521,-75.5 656,-75.5 656,-56.5 521,-56.5"/>
<text text-anchor="middle" x="588.5" y="-63.5" font-family="Helvetica,sans-Serif" font-size="10.00">Exceptions/RayError.hpp</text>
</a>
</g>
</g>
<!-- Node5&#45;&gt;Node10 -->
<g id="edge10" class="edge">
<title>Node5&#45;&gt;Node10</title>
<path fill="none" stroke="midnightblue" d="M436.18,-112.44C467.03,-103.24 516.23,-88.56 550.33,-78.39"/>
<polygon fill="midnightblue" stroke="midnightblue" points="551.37,-81.73 559.95,-75.52 549.37,-75.02 551.37,-81.73"/>
</g>
<!-- Node12 -->
<g id="node12" class="node">
<title>Node12</title>
<g id="a_node12"><a xlink:title=" ">
<polygon fill="white" stroke="#bfbfbf" points="674,-56.5 674,-75.5 721,-75.5 721,-56.5 674,-56.5"/>
<text text-anchor="middle" x="697.5" y="-63.5" font-family="Helvetica,sans-Serif" font-size="10.00">vector</text>
</a>
</g>
</g>
<!-- Node5&#45;&gt;Node12 -->
<g id="edge13" class="edge">
<title>Node5&#45;&gt;Node12</title>
<path fill="none" stroke="midnightblue" d="M454.39,-114.29C504.18,-106.83 585.34,-93.75 663.76,-76.23"/>
<polygon fill="midnightblue" stroke="midnightblue" points="664.82,-79.57 673.8,-73.95 663.28,-72.75 664.82,-79.57"/>
</g>
<!-- Node13 -->
<g id="node13" class="node">
<title>Node13</title>
<g id="a_node13"><a xlink:title=" ">
<polygon fill="white" stroke="#bfbfbf" points="739.5,-56.5 739.5,-75.5 803.5,-75.5 803.5,-56.5 739.5,-56.5"/>
<text text-anchor="middle" x="771.5" y="-63.5" font-family="Helvetica,sans-Serif" font-size="10.00">algorithm</text>
</a>
</g>
</g>
<!-- Node5&#45;&gt;Node13 -->
<g id="edge14" class="edge">
<title>Node5&#45;&gt;Node13</title>
<path fill="none" stroke="midnightblue" d="M454.22,-115.65C515.22,-108.4 625.52,-94.43 729.3,-76.1"/>
<polygon fill="midnightblue" stroke="midnightblue" points="730.09,-79.51 739.32,-74.31 728.86,-72.62 730.09,-79.51"/>
</g>
<!-- Node14 -->
<g id="node14" class="node">
<title>Node14</title>
<g id="a_node14"><a xlink:title=" ">
<polygon fill="white" stroke="#bfbfbf" points="821.5,-56.5 821.5,-75.5 881.5,-75.5 881.5,-56.5 821.5,-56.5"/>
<text text-anchor="middle" x="851.5" y="-63.5" font-family="Helvetica,sans-Serif" font-size="10.00">iostream</text>
</a>
</g>
</g>
<!-- Node5&#45;&gt;Node14 -->
<g id="edge16" class="edge">
<title>Node5&#45;&gt;Node14</title>
<path fill="none" stroke="midnightblue" d="M454.21,-117.58C528,-111.8 676.19,-98.61 811.22,-76.04"/>
<polygon fill="midnightblue" stroke="midnightblue" points="812.06,-79.45 821.34,-74.33 810.89,-72.54 812.06,-79.45"/>
</g>
<!-- Node10&#45;&gt;Node3 -->
<g id="edge12" class="edge">
<title>Node10&#45;&gt;Node3</title>
<path fill="none" stroke="midnightblue" d="M521,-56.5C427.18,-44.69 261.08,-23.79 191.53,-15.03"/>
<polygon fill="midnightblue" stroke="midnightblue" points="191.97,-11.56 181.61,-13.78 191.09,-18.5 191.97,-11.56"/>
</g>
<!-- Node11 -->
<g id="node11" class="node">
<title>Node11</title>
<g id="a_node11"><a xlink:title=" ">
<polygon fill="white" stroke="#bfbfbf" points="556,-0.5 556,-19.5 621,-19.5 621,-0.5 556,-0.5"/>
<text text-anchor="middle" x="588.5" y="-7.5" font-family="Helvetica,sans-Serif" font-size="10.00">stdexcept</text>
</a>
</g>
</g>
<!-- Node10&#45;&gt;Node11 -->
<g id="edge11" class="edge">
<title>Node10&#45;&gt;Node11</title>
<path fill="none" stroke="midnightblue" d="M588.5,-56.08C588.5,-49.01 588.5,-38.86 588.5,-29.99"/>
<polygon fill="midnightblue" stroke="midnightblue" points="592,-29.75 588.5,-19.75 585,-29.75 592,-29.75"/>
</g>
</g>
</svg>
