<?xml version="1.0" encoding="UTF-8" standalone="no"?>
<!DOCTYPE svg PUBLIC "-//W3C//DTD SVG 1.1//EN"
 "http://www.w3.org/Graphics/SVG/1.1/DTD/svg11.dtd">
<!-- Generated by graphviz version 2.43.0 (0)
 -->
<!-- Title: sources/System/Music/MusicSystem.hpp Pages: 1 -->
<svg width="674pt" height="106pt"
 viewBox="0.00 0.00 674.00 106.00" xmlns="http://www.w3.org/2000/svg" xmlns:xlink="http://www.w3.org/1999/xlink">
<g id="graph0" class="graph" transform="scale(1 1) rotate(0) translate(4 102)">
<title>sources/System/Music/MusicSystem.hpp</title>
<polygon fill="white" stroke="transparent" points="-4,4 -4,-102 670,-102 670,4 -4,4"/>
<!-- Node1 -->
<g id="node1" class="node">
<title>Node1</title>
<g id="a_node1"><a xlink:title=" ">
<polygon fill="#bfbfbf" stroke="black" points="298,-67.5 298,-97.5 423,-97.5 423,-67.5 298,-67.5"/>
<text text-anchor="start" x="306" y="-85.5" font-family="Helvetica,sans-Serif" font-size="10.00">sources/System/Music</text>
<text text-anchor="middle" x="360.5" y="-74.5" font-family="Helvetica,sans-Serif" font-size="10.00">/MusicSystem.hpp</text>
</a>
</g>
</g>
<!-- Node2 -->
<g id="node2" class="node">
<title>Node2</title>
<g id="a_node2"><a xlink:href="LobbyScene_8cpp.html" target="_top" xlink:title=" ">
<polygon fill="white" stroke="black" points="0,-6 0,-25 173,-25 173,-6 0,-6"/>
<text text-anchor="middle" x="86.5" y="-13" font-family="Helvetica,sans-Serif" font-size="10.00">sources/Runner/LobbyScene.cpp</text>
</a>
</g>
</g>
<!-- Node1&#45;&gt;Node2 -->
<g id="edge1" class="edge">
<title>Node1&#45;&gt;Node2</title>
<path fill="none" stroke="midnightblue" d="M291.57,-65.15C237.81,-52.39 165.29,-35.19 122.45,-25.03"/>
<polygon fill="midnightblue" stroke="midnightblue" points="290.85,-68.57 301.38,-67.48 292.46,-61.76 290.85,-68.57"/>
</g>
<!-- Node3 -->
<g id="node3" class="node">
<title>Node3</title>
<g id="a_node3"><a xlink:href="ResumeLobbyScene_8cpp.html" target="_top" xlink:title=" ">
<polygon fill="white" stroke="black" points="191.5,-0.5 191.5,-30.5 355.5,-30.5 355.5,-0.5 191.5,-0.5"/>
<text text-anchor="start" x="199.5" y="-18.5" font-family="Helvetica,sans-Serif" font-size="10.00">sources/Runner/ResumeLobby</text>
<text text-anchor="middle" x="273.5" y="-7.5" font-family="Helvetica,sans-Serif" font-size="10.00">Scene.cpp</text>
</a>
</g>
</g>
<!-- Node1&#45;&gt;Node3 -->
<g id="edge2" class="edge">
<title>Node1&#45;&gt;Node3</title>
<path fill="none" stroke="midnightblue" d="M333.29,-61.17C319.98,-51.23 304.3,-39.51 292.34,-30.58"/>
<polygon fill="midnightblue" stroke="midnightblue" points="331.52,-64.21 341.62,-67.4 335.71,-58.61 331.52,-64.21"/>
</g>
<!-- Node4 -->
<g id="node4" class="node">
<title>Node4</title>
<g id="a_node4"><a xlink:href="Runner_8cpp.html" target="_top" xlink:title=" ">
<polygon fill="white" stroke="black" points="374,-6 374,-25 523,-25 523,-6 374,-6"/>
<text text-anchor="middle" x="448.5" y="-13" font-family="Helvetica,sans-Serif" font-size="10.00">sources/Runner/Runner.cpp</text>
</a>
</g>
</g>
<!-- Node1&#45;&gt;Node4 -->
<g id="edge3" class="edge">
<title>Node1&#45;&gt;Node4</title>
<path fill="none" stroke="midnightblue" d="M387.84,-61.31C404.36,-49.1 424.57,-34.18 436.98,-25.01"/>
<polygon fill="midnightblue" stroke="midnightblue" points="385.56,-58.64 379.59,-67.4 389.72,-64.27 385.56,-58.64"/>
</g>
<!-- Node5 -->
<g id="node5" class="node">
<title>Node5</title>
<g id="a_node5"><a xlink:href="MusicSystem_8cpp.html" target="_top" xlink:title=" ">
<polygon fill="white" stroke="black" points="541,-0.5 541,-30.5 666,-30.5 666,-0.5 541,-0.5"/>
<text text-anchor="start" x="549" y="-18.5" font-family="Helvetica,sans-Serif" font-size="10.00">sources/System/Music</text>
<text text-anchor="middle" x="603.5" y="-7.5" font-family="Helvetica,sans-Serif" font-size="10.00">/MusicSystem.cpp</text>
</a>
</g>
</g>
<!-- Node1&#45;&gt;Node5 -->
<g id="edge4" class="edge">
<title>Node1&#45;&gt;Node5</title>
<path fill="none" stroke="midnightblue" d="M422.75,-64.85C462.36,-54.25 513.11,-40.68 550.75,-30.61"/>
<polygon fill="midnightblue" stroke="midnightblue" points="421.68,-61.51 412.93,-67.48 423.49,-68.27 421.68,-61.51"/>
</g>
</g>
</svg>
