<?xml version="1.0" encoding="UTF-8" standalone="no"?>
<!DOCTYPE svg PUBLIC "-//W3C//DTD SVG 1.1//EN"
 "http://www.w3.org/Graphics/SVG/1.1/DTD/svg11.dtd">
<!-- Generated by graphviz version 2.43.0 (0)
 -->
<!-- Title: sources/Component/Music/MusicComponent.cpp Pages: 1 -->
<svg width="974pt" height="319pt"
 viewBox="0.00 0.00 973.50 319.00" xmlns="http://www.w3.org/2000/svg" xmlns:xlink="http://www.w3.org/1999/xlink">
<g id="graph0" class="graph" transform="scale(1 1) rotate(0) translate(4 315)">
<title>sources/Component/Music/MusicComponent.cpp</title>
<polygon fill="white" stroke="transparent" points="-4,4 -4,-315 969.5,-315 969.5,4 -4,4"/>
<!-- Node1 -->
<g id="node1" class="node">
<title>Node1</title>
<g id="a_node1"><a xlink:title=" ">
<polygon fill="#bfbfbf" stroke="black" points="106.5,-280.5 106.5,-310.5 251.5,-310.5 251.5,-280.5 106.5,-280.5"/>
<text text-anchor="start" x="114.5" y="-298.5" font-family="Helvetica,sans-Serif" font-size="10.00">sources/Component/Music</text>
<text text-anchor="middle" x="179" y="-287.5" font-family="Helvetica,sans-Serif" font-size="10.00">/MusicComponent.cpp</text>
</a>
</g>
</g>
<!-- Node2 -->
<g id="node2" class="node">
<title>Node2</title>
<g id="a_node2"><a xlink:title=" ">
<polygon fill="white" stroke="#bfbfbf" points="0,-56.5 0,-75.5 60,-75.5 60,-56.5 0,-56.5"/>
<text text-anchor="middle" x="30" y="-63.5" font-family="Helvetica,sans-Serif" font-size="10.00">iostream</text>
</a>
</g>
</g>
<!-- Node1&#45;&gt;Node2 -->
<g id="edge1" class="edge">
<title>Node1&#45;&gt;Node2</title>
<path fill="none" stroke="midnightblue" d="M169.68,-280.27C143.56,-240.39 69.73,-127.66 41.33,-84.3"/>
<polygon fill="midnightblue" stroke="midnightblue" points="44.25,-82.37 35.85,-75.93 38.4,-86.21 44.25,-82.37"/>
</g>
<!-- Node3 -->
<g id="node3" class="node">
<title>Node3</title>
<g id="a_node3"><a xlink:href="MusicComponent_8hpp.html" target="_top" xlink:title=" ">
<polygon fill="white" stroke="black" points="388,-224.5 388,-243.5 510,-243.5 510,-224.5 388,-224.5"/>
<text text-anchor="middle" x="449" y="-231.5" font-family="Helvetica,sans-Serif" font-size="10.00">MusicComponent.hpp</text>
</a>
</g>
</g>
<!-- Node1&#45;&gt;Node3 -->
<g id="edge2" class="edge">
<title>Node1&#45;&gt;Node3</title>
<path fill="none" stroke="midnightblue" d="M242.64,-280.47C290.95,-269.83 356.37,-255.41 400.49,-245.69"/>
<polygon fill="midnightblue" stroke="midnightblue" points="401.39,-249.08 410.4,-243.51 399.88,-242.24 401.39,-249.08"/>
</g>
<!-- Node4 -->
<g id="node4" class="node">
<title>Node4</title>
<g id="a_node4"><a xlink:href="Component_8hpp.html" target="_top" xlink:title=" ">
<polygon fill="white" stroke="black" points="769.5,-112.5 769.5,-131.5 922.5,-131.5 922.5,-112.5 769.5,-112.5"/>
<text text-anchor="middle" x="846" y="-119.5" font-family="Helvetica,sans-Serif" font-size="10.00">Component/Component.hpp</text>
</a>
</g>
</g>
<!-- Node3&#45;&gt;Node4 -->
<g id="edge3" class="edge">
<title>Node3&#45;&gt;Node4</title>
<path fill="none" stroke="midnightblue" d="M479.82,-224.46C550.84,-204.78 725.99,-156.25 805.53,-134.21"/>
<polygon fill="midnightblue" stroke="midnightblue" points="806.5,-137.58 815.2,-131.53 804.63,-130.83 806.5,-137.58"/>
</g>
<!-- Node8 -->
<g id="node8" class="node">
<title>Node8</title>
<g id="a_node8"><a xlink:title=" ">
<polygon fill="white" stroke="#bfbfbf" points="473,-168.5 473,-187.5 511,-187.5 511,-168.5 473,-168.5"/>
<text text-anchor="middle" x="492" y="-175.5" font-family="Helvetica,sans-Serif" font-size="10.00">map</text>
</a>
</g>
</g>
<!-- Node3&#45;&gt;Node8 -->
<g id="edge7" class="edge">
<title>Node3&#45;&gt;Node8</title>
<path fill="none" stroke="midnightblue" d="M456.1,-224.08C462.24,-216.38 471.27,-205.03 478.74,-195.65"/>
<polygon fill="midnightblue" stroke="midnightblue" points="481.54,-197.75 485.03,-187.75 476.06,-193.39 481.54,-197.75"/>
</g>
<!-- Node9 -->
<g id="node9" class="node">
<title>Node9</title>
<g id="a_node9"><a xlink:href="Music_8hpp.html" target="_top" xlink:title=" ">
<polygon fill="white" stroke="black" points="357.5,-168.5 357.5,-187.5 454.5,-187.5 454.5,-168.5 357.5,-168.5"/>
<text text-anchor="middle" x="406" y="-175.5" font-family="Helvetica,sans-Serif" font-size="10.00">Audio/Music.hpp</text>
</a>
</g>
</g>
<!-- Node3&#45;&gt;Node9 -->
<g id="edge8" class="edge">
<title>Node3&#45;&gt;Node9</title>
<path fill="none" stroke="midnightblue" d="M441.9,-224.08C435.76,-216.38 426.73,-205.03 419.26,-195.65"/>
<polygon fill="midnightblue" stroke="midnightblue" points="421.94,-193.39 412.97,-187.75 416.46,-197.75 421.94,-193.39"/>
</g>
<!-- Node5 -->
<g id="node5" class="node">
<title>Node5</title>
<g id="a_node5"><a xlink:title=" ">
<polygon fill="white" stroke="#bfbfbf" points="796.5,-56.5 796.5,-75.5 843.5,-75.5 843.5,-56.5 796.5,-56.5"/>
<text text-anchor="middle" x="820" y="-63.5" font-family="Helvetica,sans-Serif" font-size="10.00">vector</text>
</a>
</g>
</g>
<!-- Node4&#45;&gt;Node5 -->
<g id="edge4" class="edge">
<title>Node4&#45;&gt;Node5</title>
<path fill="none" stroke="midnightblue" d="M841.71,-112.08C838.15,-104.69 832.98,-93.95 828.58,-84.81"/>
<polygon fill="midnightblue" stroke="midnightblue" points="831.71,-83.24 824.21,-75.75 825.4,-86.28 831.71,-83.24"/>
</g>
<!-- Node6 -->
<g id="node6" class="node">
<title>Node6</title>
<g id="a_node6"><a xlink:title=" ">
<polygon fill="white" stroke="#bfbfbf" points="727,-0.5 727,-19.5 771,-19.5 771,-0.5 727,-0.5"/>
<text text-anchor="middle" x="749" y="-7.5" font-family="Helvetica,sans-Serif" font-size="10.00">string</text>
</a>
</g>
</g>
<!-- Node4&#45;&gt;Node6 -->
<g id="edge5" class="edge">
<title>Node4&#45;&gt;Node6</title>
<path fill="none" stroke="midnightblue" d="M850.26,-112.17C856.02,-98.83 864.34,-73.27 853,-56 837.22,-31.97 805.57,-20.71 781.31,-15.47"/>
<polygon fill="midnightblue" stroke="midnightblue" points="781.91,-12.03 771.43,-13.58 780.59,-18.9 781.91,-12.03"/>
</g>
<!-- Node7 -->
<g id="node7" class="node">
<title>Node7</title>
<g id="a_node7"><a xlink:title=" ">
<polygon fill="white" stroke="#bfbfbf" points="900.5,-56.5 900.5,-75.5 965.5,-75.5 965.5,-56.5 900.5,-56.5"/>
<text text-anchor="middle" x="933" y="-63.5" font-family="Helvetica,sans-Serif" font-size="10.00">typeindex</text>
</a>
</g>
</g>
<!-- Node4&#45;&gt;Node7 -->
<g id="edge6" class="edge">
<title>Node4&#45;&gt;Node7</title>
<path fill="none" stroke="midnightblue" d="M859.98,-112.32C873.55,-103.9 894.38,-90.97 910.32,-81.07"/>
<polygon fill="midnightblue" stroke="midnightblue" points="912.41,-83.9 919.06,-75.65 908.71,-77.95 912.41,-83.9"/>
</g>
<!-- Node10 -->
<g id="node10" class="node">
<title>Node10</title>
<g id="a_node10"><a xlink:href="IAudio_8hpp.html" target="_top" xlink:title=" ">
<polygon fill="white" stroke="black" points="556.5,-112.5 556.5,-131.5 655.5,-131.5 655.5,-112.5 556.5,-112.5"/>
<text text-anchor="middle" x="606" y="-119.5" font-family="Helvetica,sans-Serif" font-size="10.00">Audio/IAudio.hpp</text>
</a>
</g>
</g>
<!-- Node9&#45;&gt;Node10 -->
<g id="edge9" class="edge">
<title>Node9&#45;&gt;Node10</title>
<path fill="none" stroke="midnightblue" d="M437.69,-168.44C472.07,-159.16 527.08,-144.31 564.79,-134.13"/>
<polygon fill="midnightblue" stroke="midnightblue" points="565.72,-137.5 574.46,-131.52 563.89,-130.74 565.72,-137.5"/>
</g>
<!-- Node11 -->
<g id="node11" class="node">
<title>Node11</title>
<g id="a_node11"><a xlink:title=" ">
<polygon fill="white" stroke="#bfbfbf" points="78.5,-56.5 78.5,-75.5 131.5,-75.5 131.5,-56.5 78.5,-56.5"/>
<text text-anchor="middle" x="105" y="-63.5" font-family="Helvetica,sans-Serif" font-size="10.00">raylib.h</text>
</a>
</g>
</g>
<!-- Node9&#45;&gt;Node11 -->
<g id="edge11" class="edge">
<title>Node9&#45;&gt;Node11</title>
<path fill="none" stroke="midnightblue" d="M382.38,-168.37C329.08,-148.89 199.35,-101.48 138.08,-79.09"/>
<polygon fill="midnightblue" stroke="midnightblue" points="139.1,-75.74 128.51,-75.59 136.7,-82.31 139.1,-75.74"/>
</g>
<!-- Node12 -->
<g id="node12" class="node">
<title>Node12</title>
<g id="a_node12"><a xlink:href="Cache_8hpp.html" target="_top" xlink:title=" ">
<polygon fill="white" stroke="black" points="359.5,-112.5 359.5,-131.5 452.5,-131.5 452.5,-112.5 359.5,-112.5"/>
<text text-anchor="middle" x="406" y="-119.5" font-family="Helvetica,sans-Serif" font-size="10.00">Utils/Cache.hpp</text>
</a>
</g>
</g>
<!-- Node9&#45;&gt;Node12 -->
<g id="edge12" class="edge">
<title>Node9&#45;&gt;Node12</title>
<path fill="none" stroke="midnightblue" d="M406,-168.08C406,-161.01 406,-150.86 406,-141.99"/>
<polygon fill="midnightblue" stroke="midnightblue" points="409.5,-141.75 406,-131.75 402.5,-141.75 409.5,-141.75"/>
</g>
<!-- Node10&#45;&gt;Node6 -->
<g id="edge10" class="edge">
<title>Node10&#45;&gt;Node6</title>
<path fill="none" stroke="midnightblue" d="M655.59,-118.22C686.02,-113.72 723.05,-102.65 744,-76 754.15,-63.08 754.4,-43.91 752.71,-29.73"/>
<polygon fill="midnightblue" stroke="midnightblue" points="756.13,-28.97 751.09,-19.65 749.22,-30.08 756.13,-28.97"/>
</g>
<!-- Node12&#45;&gt;Node2 -->
<g id="edge24" class="edge">
<title>Node12&#45;&gt;Node2</title>
<path fill="none" stroke="midnightblue" d="M359.45,-116.19C296.14,-109.33 179.19,-95.57 70.04,-76.04"/>
<polygon fill="midnightblue" stroke="midnightblue" points="70.64,-72.59 60.18,-74.26 69.39,-79.48 70.64,-72.59"/>
</g>
<!-- Node12&#45;&gt;Node5 -->
<g id="edge21" class="edge">
<title>Node12&#45;&gt;Node5</title>
<path fill="none" stroke="midnightblue" d="M452.69,-114.91C536.94,-103.92 712.48,-81.02 786.22,-71.41"/>
<polygon fill="midnightblue" stroke="midnightblue" points="786.88,-74.85 796.34,-70.09 785.97,-67.91 786.88,-74.85"/>
</g>
<!-- Node12&#45;&gt;Node6 -->
<g id="edge23" class="edge">
<title>Node12&#45;&gt;Node6</title>
<path fill="none" stroke="midnightblue" d="M452.69,-119C527.44,-114.99 669.75,-103.86 711,-76 727.21,-65.05 737.46,-44.68 743.17,-29.66"/>
<polygon fill="midnightblue" stroke="midnightblue" points="746.59,-30.46 746.55,-19.87 739.98,-28.18 746.59,-30.46"/>
</g>
<!-- Node12&#45;&gt;Node11 -->
<g id="edge17" class="edge">
<title>Node12&#45;&gt;Node11</title>
<path fill="none" stroke="midnightblue" d="M359.36,-114.19C308.34,-106.49 223.96,-93.04 141.7,-76.01"/>
<polygon fill="midnightblue" stroke="midnightblue" points="142.19,-72.53 131.68,-73.91 140.76,-79.39 142.19,-72.53"/>
</g>
<!-- Node13 -->
<g id="node13" class="node">
<title>Node13</title>
<g id="a_node13"><a xlink:title=" ">
<polygon fill="white" stroke="#bfbfbf" points="150,-56.5 150,-75.5 208,-75.5 208,-56.5 150,-56.5"/>
<text text-anchor="middle" x="179" y="-63.5" font-family="Helvetica,sans-Serif" font-size="10.00">memory</text>
</a>
</g>
</g>
<!-- Node12&#45;&gt;Node13 -->
<g id="edge13" class="edge">
<title>Node12&#45;&gt;Node13</title>
<path fill="none" stroke="midnightblue" d="M370.03,-112.44C328.6,-102.59 260.76,-86.45 218.06,-76.29"/>
<polygon fill="midnightblue" stroke="midnightblue" points="218.84,-72.88 208.3,-73.97 217.22,-79.69 218.84,-72.88"/>
</g>
<!-- Node14 -->
<g id="node14" class="node">
<title>Node14</title>
<g id="a_node14"><a xlink:title=" ">
<polygon fill="white" stroke="#bfbfbf" points="226.5,-56.5 226.5,-75.5 319.5,-75.5 319.5,-56.5 226.5,-56.5"/>
<text text-anchor="middle" x="273" y="-63.5" font-family="Helvetica,sans-Serif" font-size="10.00">unordered_map</text>
</a>
</g>
</g>
<!-- Node12&#45;&gt;Node14 -->
<g id="edge14" class="edge">
<title>Node12&#45;&gt;Node14</title>
<path fill="none" stroke="midnightblue" d="M384.93,-112.44C362.94,-103.52 328.27,-89.44 303.34,-79.32"/>
<polygon fill="midnightblue" stroke="midnightblue" points="304.56,-76.04 293.98,-75.52 301.92,-82.52 304.56,-76.04"/>
</g>
<!-- Node15 -->
<g id="node15" class="node">
<title>Node15</title>
<g id="a_node15"><a xlink:title=" ">
<polygon fill="white" stroke="#bfbfbf" points="337.5,-56.5 337.5,-75.5 402.5,-75.5 402.5,-56.5 337.5,-56.5"/>
<text text-anchor="middle" x="370" y="-63.5" font-family="Helvetica,sans-Serif" font-size="10.00">functional</text>
</a>
</g>
</g>
<!-- Node12&#45;&gt;Node15 -->
<g id="edge15" class="edge">
<title>Node12&#45;&gt;Node15</title>
<path fill="none" stroke="midnightblue" d="M400.06,-112.08C395.02,-104.53 387.66,-93.49 381.49,-84.23"/>
<polygon fill="midnightblue" stroke="midnightblue" points="384.29,-82.13 375.83,-75.75 378.47,-86.01 384.29,-82.13"/>
</g>
<!-- Node16 -->
<g id="node16" class="node">
<title>Node16</title>
<g id="a_node16"><a xlink:title=" ">
<polygon fill="white" stroke="#bfbfbf" points="420.5,-56.5 420.5,-75.5 465.5,-75.5 465.5,-56.5 420.5,-56.5"/>
<text text-anchor="middle" x="443" y="-63.5" font-family="Helvetica,sans-Serif" font-size="10.00">utility</text>
</a>
</g>
</g>
<!-- Node12&#45;&gt;Node16 -->
<g id="edge16" class="edge">
<title>Node12&#45;&gt;Node16</title>
<path fill="none" stroke="midnightblue" d="M412.11,-112.08C417.28,-104.53 424.85,-93.49 431.19,-84.23"/>
<polygon fill="midnightblue" stroke="midnightblue" points="434.24,-85.98 437,-75.75 428.46,-82.02 434.24,-85.98"/>
</g>
<!-- Node17 -->
<g id="node17" class="node">
<title>Node17</title>
<g id="a_node17"><a xlink:href="RayError_8hpp.html" target="_top" xlink:title=" ">
<polygon fill="white" stroke="black" points="566.5,-56.5 566.5,-75.5 701.5,-75.5 701.5,-56.5 566.5,-56.5"/>
<text text-anchor="middle" x="634" y="-63.5" font-family="Helvetica,sans-Serif" font-size="10.00">Exceptions/RayError.hpp</text>
</a>
</g>
</g>
<!-- Node12&#45;&gt;Node17 -->
<g id="edge18" class="edge">
<title>Node12&#45;&gt;Node17</title>
<path fill="none" stroke="midnightblue" d="M442.13,-112.44C481.65,-103.08 545.1,-88.06 588.11,-77.87"/>
<polygon fill="midnightblue" stroke="midnightblue" points="589.12,-81.23 598.04,-75.52 587.5,-74.42 589.12,-81.23"/>
</g>
<!-- Node19 -->
<g id="node19" class="node">
<title>Node19</title>
<g id="a_node19"><a xlink:title=" ">
<polygon fill="white" stroke="#bfbfbf" points="484,-56.5 484,-75.5 548,-75.5 548,-56.5 484,-56.5"/>
<text text-anchor="middle" x="516" y="-63.5" font-family="Helvetica,sans-Serif" font-size="10.00">algorithm</text>
</a>
</g>
</g>
<!-- Node12&#45;&gt;Node19 -->
<g id="edge22" class="edge">
<title>Node12&#45;&gt;Node19</title>
<path fill="none" stroke="midnightblue" d="M423.67,-112.32C441.39,-103.62 468.9,-90.12 489.29,-80.11"/>
<polygon fill="midnightblue" stroke="midnightblue" points="490.94,-83.2 498.37,-75.65 487.85,-76.92 490.94,-83.2"/>
</g>
<!-- Node17&#45;&gt;Node6 -->
<g id="edge20" class="edge">
<title>Node17&#45;&gt;Node6</title>
<path fill="none" stroke="midnightblue" d="M652.22,-56.44C670.9,-47.68 700.16,-33.94 721.62,-23.86"/>
<polygon fill="midnightblue" stroke="midnightblue" points="723.3,-26.93 730.86,-19.52 720.32,-20.6 723.3,-26.93"/>
</g>
<!-- Node18 -->
<g id="node18" class="node">
<title>Node18</title>
<g id="a_node18"><a xlink:title=" ">
<polygon fill="white" stroke="#bfbfbf" points="601.5,-0.5 601.5,-19.5 666.5,-19.5 666.5,-0.5 601.5,-0.5"/>
<text text-anchor="middle" x="634" y="-7.5" font-family="Helvetica,sans-Serif" font-size="10.00">stdexcept</text>
</a>
</g>
</g>
<!-- Node17&#45;&gt;Node18 -->
<g id="edge19" class="edge">
<title>Node17&#45;&gt;Node18</title>
<path fill="none" stroke="midnightblue" d="M634,-56.08C634,-49.01 634,-38.86 634,-29.99"/>
<polygon fill="midnightblue" stroke="midnightblue" points="637.5,-29.75 634,-19.75 630.5,-29.75 637.5,-29.75"/>
</g>
</g>
</svg>
