<?xml version="1.0" encoding="UTF-8" standalone="no"?>
<!DOCTYPE svg PUBLIC "-//W3C//DTD SVG 1.1//EN"
 "http://www.w3.org/Graphics/SVG/1.1/DTD/svg11.dtd">
<!-- Generated by graphviz version 2.43.0 (0)
 -->
<!-- Title: lib/Ray/sources/Audio/Music.cpp Pages: 1 -->
<svg width="824pt" height="263pt"
 viewBox="0.00 0.00 823.50 263.00" xmlns="http://www.w3.org/2000/svg" xmlns:xlink="http://www.w3.org/1999/xlink">
<g id="graph0" class="graph" transform="scale(1 1) rotate(0) translate(4 259)">
<title>lib/Ray/sources/Audio/Music.cpp</title>
<polygon fill="white" stroke="transparent" points="-4,4 -4,-259 819.5,-259 819.5,4 -4,4"/>
<!-- Node1 -->
<g id="node1" class="node">
<title>Node1</title>
<g id="a_node1"><a xlink:title=" ">
<polygon fill="#bfbfbf" stroke="black" points="586,-224.5 586,-254.5 708,-254.5 708,-224.5 586,-224.5"/>
<text text-anchor="start" x="594" y="-242.5" font-family="Helvetica,sans-Serif" font-size="10.00">lib/Ray/sources/Audio</text>
<text text-anchor="middle" x="647" y="-231.5" font-family="Helvetica,sans-Serif" font-size="10.00">/Music.cpp</text>
</a>
</g>
</g>
<!-- Node2 -->
<g id="node2" class="node">
<title>Node2</title>
<g id="a_node2"><a xlink:href="Music_8hpp.html" target="_top" xlink:title=" ">
<polygon fill="white" stroke="black" points="560.5,-168.5 560.5,-187.5 657.5,-187.5 657.5,-168.5 560.5,-168.5"/>
<text text-anchor="middle" x="609" y="-175.5" font-family="Helvetica,sans-Serif" font-size="10.00">Audio/Music.hpp</text>
</a>
</g>
</g>
<!-- Node1&#45;&gt;Node2 -->
<g id="edge1" class="edge">
<title>Node1&#45;&gt;Node2</title>
<path fill="none" stroke="midnightblue" d="M637.99,-224.4C632.59,-215.93 625.67,-205.1 619.95,-196.14"/>
<polygon fill="midnightblue" stroke="midnightblue" points="622.86,-194.2 614.53,-187.66 616.96,-197.97 622.86,-194.2"/>
</g>
<!-- Node5 -->
<g id="node5" class="node">
<title>Node5</title>
<g id="a_node5"><a xlink:title=" ">
<polygon fill="white" stroke="#bfbfbf" points="762.5,-56.5 762.5,-75.5 815.5,-75.5 815.5,-56.5 762.5,-56.5"/>
<text text-anchor="middle" x="789" y="-63.5" font-family="Helvetica,sans-Serif" font-size="10.00">raylib.h</text>
</a>
</g>
</g>
<!-- Node1&#45;&gt;Node5 -->
<g id="edge18" class="edge">
<title>Node1&#45;&gt;Node5</title>
<path fill="none" stroke="midnightblue" d="M658.62,-224.47C684.64,-193.03 747.5,-117.12 775.34,-83.5"/>
<polygon fill="midnightblue" stroke="midnightblue" points="778.23,-85.49 781.91,-75.56 772.84,-81.03 778.23,-85.49"/>
</g>
<!-- Node3 -->
<g id="node3" class="node">
<title>Node3</title>
<g id="a_node3"><a xlink:href="IAudio_8hpp.html" target="_top" xlink:title=" ">
<polygon fill="white" stroke="black" points="111.5,-112.5 111.5,-131.5 210.5,-131.5 210.5,-112.5 111.5,-112.5"/>
<text text-anchor="middle" x="161" y="-119.5" font-family="Helvetica,sans-Serif" font-size="10.00">Audio/IAudio.hpp</text>
</a>
</g>
</g>
<!-- Node2&#45;&gt;Node3 -->
<g id="edge2" class="edge">
<title>Node2&#45;&gt;Node3</title>
<path fill="none" stroke="midnightblue" d="M560.2,-171.12C477.55,-161.16 310.29,-141 220.76,-130.2"/>
<polygon fill="midnightblue" stroke="midnightblue" points="221.11,-126.72 210.76,-129 220.27,-133.67 221.11,-126.72"/>
</g>
<!-- Node2&#45;&gt;Node5 -->
<g id="edge4" class="edge">
<title>Node2&#45;&gt;Node5</title>
<path fill="none" stroke="midnightblue" d="M618.38,-168.16C632.9,-154.79 662.05,-129.19 690,-112 711.05,-99.05 736.45,-87.58 756.26,-79.46"/>
<polygon fill="midnightblue" stroke="midnightblue" points="757.79,-82.62 765.77,-75.64 755.18,-76.12 757.79,-82.62"/>
</g>
<!-- Node6 -->
<g id="node6" class="node">
<title>Node6</title>
<g id="a_node6"><a xlink:href="Cache_8hpp.html" target="_top" xlink:title=" ">
<polygon fill="white" stroke="black" points="404.5,-112.5 404.5,-131.5 497.5,-131.5 497.5,-112.5 404.5,-112.5"/>
<text text-anchor="middle" x="451" y="-119.5" font-family="Helvetica,sans-Serif" font-size="10.00">Utils/Cache.hpp</text>
</a>
</g>
</g>
<!-- Node2&#45;&gt;Node6 -->
<g id="edge5" class="edge">
<title>Node2&#45;&gt;Node6</title>
<path fill="none" stroke="midnightblue" d="M583.96,-168.44C557.38,-159.36 515.19,-144.94 485.48,-134.78"/>
<polygon fill="midnightblue" stroke="midnightblue" points="486.51,-131.44 475.92,-131.52 484.25,-138.06 486.51,-131.44"/>
</g>
<!-- Node4 -->
<g id="node4" class="node">
<title>Node4</title>
<g id="a_node4"><a xlink:title=" ">
<polygon fill="white" stroke="#bfbfbf" points="0,-0.5 0,-19.5 44,-19.5 44,-0.5 0,-0.5"/>
<text text-anchor="middle" x="22" y="-7.5" font-family="Helvetica,sans-Serif" font-size="10.00">string</text>
</a>
</g>
</g>
<!-- Node3&#45;&gt;Node4 -->
<g id="edge3" class="edge">
<title>Node3&#45;&gt;Node4</title>
<path fill="none" stroke="midnightblue" d="M111.22,-112.95C71.5,-105.39 20.52,-92.74 8,-76 -2.23,-62.33 4.03,-42.77 11.14,-28.68"/>
<polygon fill="midnightblue" stroke="midnightblue" points="14.2,-30.38 16.01,-19.94 8.09,-26.97 14.2,-30.38"/>
</g>
<!-- Node6&#45;&gt;Node4 -->
<g id="edge16" class="edge">
<title>Node6&#45;&gt;Node4</title>
<path fill="none" stroke="midnightblue" d="M404.28,-118.77C302.66,-113.5 68.4,-98.98 41,-76 27.65,-64.8 23.39,-44.78 22.17,-29.91"/>
<polygon fill="midnightblue" stroke="midnightblue" points="25.66,-29.61 21.73,-19.77 18.66,-29.91 25.66,-29.61"/>
</g>
<!-- Node6&#45;&gt;Node5 -->
<g id="edge10" class="edge">
<title>Node6&#45;&gt;Node5</title>
<path fill="none" stroke="midnightblue" d="M497.55,-115.49C555.09,-108.36 656.19,-94.81 752.43,-75.94"/>
<polygon fill="midnightblue" stroke="midnightblue" points="753.2,-79.35 762.33,-73.97 751.84,-72.49 753.2,-79.35"/>
</g>
<!-- Node7 -->
<g id="node7" class="node">
<title>Node7</title>
<g id="a_node7"><a xlink:title=" ">
<polygon fill="white" stroke="#bfbfbf" points="50,-56.5 50,-75.5 108,-75.5 108,-56.5 50,-56.5"/>
<text text-anchor="middle" x="79" y="-63.5" font-family="Helvetica,sans-Serif" font-size="10.00">memory</text>
</a>
</g>
</g>
<!-- Node6&#45;&gt;Node7 -->
<g id="edge6" class="edge">
<title>Node6&#45;&gt;Node7</title>
<path fill="none" stroke="midnightblue" d="M404.3,-116.18C341.48,-109.37 226.08,-95.73 118.45,-76.12"/>
<polygon fill="midnightblue" stroke="midnightblue" points="118.87,-72.64 108.4,-74.27 117.6,-79.52 118.87,-72.64"/>
</g>
<!-- Node8 -->
<g id="node8" class="node">
<title>Node8</title>
<g id="a_node8"><a xlink:title=" ">
<polygon fill="white" stroke="#bfbfbf" points="126.5,-56.5 126.5,-75.5 219.5,-75.5 219.5,-56.5 126.5,-56.5"/>
<text text-anchor="middle" x="173" y="-63.5" font-family="Helvetica,sans-Serif" font-size="10.00">unordered_map</text>
</a>
</g>
</g>
<!-- Node6&#45;&gt;Node8 -->
<g id="edge7" class="edge">
<title>Node6&#45;&gt;Node8</title>
<path fill="none" stroke="midnightblue" d="M406.95,-112.44C358.15,-102.96 279.44,-87.67 226.97,-77.48"/>
<polygon fill="midnightblue" stroke="midnightblue" points="227.33,-73.99 216.84,-75.52 225.99,-80.86 227.33,-73.99"/>
</g>
<!-- Node9 -->
<g id="node9" class="node">
<title>Node9</title>
<g id="a_node9"><a xlink:title=" ">
<polygon fill="white" stroke="#bfbfbf" points="237.5,-56.5 237.5,-75.5 302.5,-75.5 302.5,-56.5 237.5,-56.5"/>
<text text-anchor="middle" x="270" y="-63.5" font-family="Helvetica,sans-Serif" font-size="10.00">functional</text>
</a>
</g>
</g>
<!-- Node6&#45;&gt;Node9 -->
<g id="edge8" class="edge">
<title>Node6&#45;&gt;Node9</title>
<path fill="none" stroke="midnightblue" d="M422.32,-112.44C391.47,-103.24 342.27,-88.56 308.17,-78.39"/>
<polygon fill="midnightblue" stroke="midnightblue" points="309.13,-75.02 298.55,-75.52 307.13,-81.73 309.13,-75.02"/>
</g>
<!-- Node10 -->
<g id="node10" class="node">
<title>Node10</title>
<g id="a_node10"><a xlink:title=" ">
<polygon fill="white" stroke="#bfbfbf" points="320.5,-56.5 320.5,-75.5 365.5,-75.5 365.5,-56.5 320.5,-56.5"/>
<text text-anchor="middle" x="343" y="-63.5" font-family="Helvetica,sans-Serif" font-size="10.00">utility</text>
</a>
</g>
</g>
<!-- Node6&#45;&gt;Node10 -->
<g id="edge9" class="edge">
<title>Node6&#45;&gt;Node10</title>
<path fill="none" stroke="midnightblue" d="M433.65,-112.32C416.33,-103.66 389.48,-90.24 369.5,-80.25"/>
<polygon fill="midnightblue" stroke="midnightblue" points="370.82,-77 360.31,-75.65 367.69,-83.26 370.82,-77"/>
</g>
<!-- Node11 -->
<g id="node11" class="node">
<title>Node11</title>
<g id="a_node11"><a xlink:href="RayError_8hpp.html" target="_top" xlink:title=" ">
<polygon fill="white" stroke="black" points="383.5,-56.5 383.5,-75.5 518.5,-75.5 518.5,-56.5 383.5,-56.5"/>
<text text-anchor="middle" x="451" y="-63.5" font-family="Helvetica,sans-Serif" font-size="10.00">Exceptions/RayError.hpp</text>
</a>
</g>
</g>
<!-- Node6&#45;&gt;Node11 -->
<g id="edge11" class="edge">
<title>Node6&#45;&gt;Node11</title>
<path fill="none" stroke="midnightblue" d="M451,-112.08C451,-105.01 451,-94.86 451,-85.99"/>
<polygon fill="midnightblue" stroke="midnightblue" points="454.5,-85.75 451,-75.75 447.5,-85.75 454.5,-85.75"/>
</g>
<!-- Node13 -->
<g id="node13" class="node">
<title>Node13</title>
<g id="a_node13"><a xlink:title=" ">
<polygon fill="white" stroke="#bfbfbf" points="536.5,-56.5 536.5,-75.5 583.5,-75.5 583.5,-56.5 536.5,-56.5"/>
<text text-anchor="middle" x="560" y="-63.5" font-family="Helvetica,sans-Serif" font-size="10.00">vector</text>
</a>
</g>
</g>
<!-- Node6&#45;&gt;Node13 -->
<g id="edge14" class="edge">
<title>Node6&#45;&gt;Node13</title>
<path fill="none" stroke="midnightblue" d="M468.51,-112.32C486.07,-103.62 513.33,-90.12 533.53,-80.11"/>
<polygon fill="midnightblue" stroke="midnightblue" points="535.12,-83.23 542.53,-75.65 532.02,-76.96 535.12,-83.23"/>
</g>
<!-- Node14 -->
<g id="node14" class="node">
<title>Node14</title>
<g id="a_node14"><a xlink:title=" ">
<polygon fill="white" stroke="#bfbfbf" points="602,-56.5 602,-75.5 666,-75.5 666,-56.5 602,-56.5"/>
<text text-anchor="middle" x="634" y="-63.5" font-family="Helvetica,sans-Serif" font-size="10.00">algorithm</text>
</a>
</g>
</g>
<!-- Node6&#45;&gt;Node14 -->
<g id="edge15" class="edge">
<title>Node6&#45;&gt;Node14</title>
<path fill="none" stroke="midnightblue" d="M480,-112.44C511.18,-103.24 560.93,-88.56 595.41,-78.39"/>
<polygon fill="midnightblue" stroke="midnightblue" points="596.54,-81.7 605.14,-75.52 594.56,-74.99 596.54,-81.7"/>
</g>
<!-- Node15 -->
<g id="node15" class="node">
<title>Node15</title>
<g id="a_node15"><a xlink:title=" ">
<polygon fill="white" stroke="#bfbfbf" points="684,-56.5 684,-75.5 744,-75.5 744,-56.5 684,-56.5"/>
<text text-anchor="middle" x="714" y="-63.5" font-family="Helvetica,sans-Serif" font-size="10.00">iostream</text>
</a>
</g>
</g>
<!-- Node6&#45;&gt;Node15 -->
<g id="edge17" class="edge">
<title>Node6&#45;&gt;Node15</title>
<path fill="none" stroke="midnightblue" d="M495.28,-112.49C538.4,-104.12 606.05,-90.76 673.79,-76.22"/>
<polygon fill="midnightblue" stroke="midnightblue" points="674.75,-79.59 683.79,-74.06 673.27,-72.75 674.75,-79.59"/>
</g>
<!-- Node11&#45;&gt;Node4 -->
<g id="edge13" class="edge">
<title>Node11&#45;&gt;Node4</title>
<path fill="none" stroke="midnightblue" d="M383.5,-56.5C289.68,-44.69 123.58,-23.79 54.03,-15.03"/>
<polygon fill="midnightblue" stroke="midnightblue" points="54.47,-11.56 44.11,-13.78 53.59,-18.5 54.47,-11.56"/>
</g>
<!-- Node12 -->
<g id="node12" class="node">
<title>Node12</title>
<g id="a_node12"><a xlink:title=" ">
<polygon fill="white" stroke="#bfbfbf" points="418.5,-0.5 418.5,-19.5 483.5,-19.5 483.5,-0.5 418.5,-0.5"/>
<text text-anchor="middle" x="451" y="-7.5" font-family="Helvetica,sans-Serif" font-size="10.00">stdexcept</text>
</a>
</g>
</g>
<!-- Node11&#45;&gt;Node12 -->
<g id="edge12" class="edge">
<title>Node11&#45;&gt;Node12</title>
<path fill="none" stroke="midnightblue" d="M451,-56.08C451,-49.01 451,-38.86 451,-29.99"/>
<polygon fill="midnightblue" stroke="midnightblue" points="454.5,-29.75 451,-19.75 447.5,-29.75 454.5,-29.75"/>
</g>
</g>
</svg>
