<?xml version="1.0" encoding="UTF-8" standalone="no"?>
<!DOCTYPE svg PUBLIC "-//W3C//DTD SVG 1.1//EN"
 "http://www.w3.org/Graphics/SVG/1.1/DTD/svg11.dtd">
<!-- Generated by graphviz version 2.43.0 (0)
 -->
<!-- Title: lib/Ray/sources/Audio/Music.hpp Pages: 1 -->
<svg width="2554pt" height="240pt"
 viewBox="0.00 0.00 2554.00 240.00" xmlns="http://www.w3.org/2000/svg" xmlns:xlink="http://www.w3.org/1999/xlink">
<g id="graph0" class="graph" transform="scale(1 1) rotate(0) translate(4 236)">
<title>lib/Ray/sources/Audio/Music.hpp</title>
<polygon fill="white" stroke="transparent" points="-4,4 -4,-236 2550,-236 2550,4 -4,4"/>
<!-- Node1 -->
<g id="node1" class="node">
<title>Node1</title>
<g id="a_node1"><a xlink:title=" ">
<polygon fill="#bfbfbf" stroke="black" points="1121.5,-201.5 1121.5,-231.5 1243.5,-231.5 1243.5,-201.5 1121.5,-201.5"/>
<text text-anchor="start" x="1129.5" y="-219.5" font-family="Helvetica,sans-Serif" font-size="10.00">lib/Ray/sources/Audio</text>
<text text-anchor="middle" x="1182.5" y="-208.5" font-family="Helvetica,sans-Serif" font-size="10.00">/Music.hpp</text>
</a>
</g>
</g>
<!-- Node2 -->
<g id="node2" class="node">
<title>Node2</title>
<g id="a_node2"><a xlink:href="Music_8cpp.html" target="_top" xlink:title=" ">
<polygon fill="white" stroke="black" points="969.5,-134.5 969.5,-164.5 1091.5,-164.5 1091.5,-134.5 969.5,-134.5"/>
<text text-anchor="start" x="977.5" y="-152.5" font-family="Helvetica,sans-Serif" font-size="10.00">lib/Ray/sources/Audio</text>
<text text-anchor="middle" x="1030.5" y="-141.5" font-family="Helvetica,sans-Serif" font-size="10.00">/Music.cpp</text>
</a>
</g>
</g>
<!-- Node1&#45;&gt;Node2 -->
<g id="edge1" class="edge">
<title>Node1&#45;&gt;Node2</title>
<path fill="none" stroke="midnightblue" d="M1140.19,-197.41C1115.92,-187.03 1085.91,-174.2 1063.42,-164.58"/>
<polygon fill="midnightblue" stroke="midnightblue" points="1138.95,-200.68 1149.52,-201.4 1141.7,-194.25 1138.95,-200.68"/>
</g>
<!-- Node3 -->
<g id="node3" class="node">
<title>Node3</title>
<g id="a_node3"><a xlink:href="MusicComponent_8hpp.html" target="_top" xlink:title=" ">
<polygon fill="white" stroke="black" points="1110,-134.5 1110,-164.5 1255,-164.5 1255,-134.5 1110,-134.5"/>
<text text-anchor="start" x="1118" y="-152.5" font-family="Helvetica,sans-Serif" font-size="10.00">sources/Component/Music</text>
<text text-anchor="middle" x="1182.5" y="-141.5" font-family="Helvetica,sans-Serif" font-size="10.00">/MusicComponent.hpp</text>
</a>
</g>
</g>
<!-- Node1&#45;&gt;Node3 -->
<g id="edge2" class="edge">
<title>Node1&#45;&gt;Node3</title>
<path fill="none" stroke="midnightblue" d="M1182.5,-191.11C1182.5,-182.15 1182.5,-172.32 1182.5,-164.58"/>
<polygon fill="midnightblue" stroke="midnightblue" points="1179,-191.4 1182.5,-201.4 1186,-191.4 1179,-191.4"/>
</g>
<!-- Node21 -->
<g id="node21" class="node">
<title>Node21</title>
<g id="a_node21"><a xlink:href="CacheTest_8cpp.html" target="_top" xlink:title=" ">
<polygon fill="white" stroke="black" points="1273,-140 1273,-159 1386,-159 1386,-140 1273,-140"/>
<text text-anchor="middle" x="1329.5" y="-147" font-family="Helvetica,sans-Serif" font-size="10.00">tests/CacheTest.cpp</text>
</a>
</g>
</g>
<!-- Node1&#45;&gt;Node21 -->
<g id="edge20" class="edge">
<title>Node1&#45;&gt;Node21</title>
<path fill="none" stroke="midnightblue" d="M1223.67,-197.3C1252.02,-184.76 1288.38,-168.68 1310.26,-159.01"/>
<polygon fill="midnightblue" stroke="midnightblue" points="1222.13,-194.15 1214.4,-201.4 1224.96,-200.55 1222.13,-194.15"/>
</g>
<!-- Node4 -->
<g id="node4" class="node">
<title>Node4</title>
<g id="a_node4"><a xlink:href="MusicComponent_8cpp.html" target="_top" xlink:title=" ">
<polygon fill="white" stroke="black" points="0,-67.5 0,-97.5 145,-97.5 145,-67.5 0,-67.5"/>
<text text-anchor="start" x="8" y="-85.5" font-family="Helvetica,sans-Serif" font-size="10.00">sources/Component/Music</text>
<text text-anchor="middle" x="72.5" y="-74.5" font-family="Helvetica,sans-Serif" font-size="10.00">/MusicComponent.cpp</text>
</a>
</g>
</g>
<!-- Node3&#45;&gt;Node4 -->
<g id="edge3" class="edge">
<title>Node3&#45;&gt;Node4</title>
<path fill="none" stroke="midnightblue" d="M1099.73,-134.04C680.41,-90.09 569.6,-142.39 154.5,-98 151.48,-97.68 148.41,-97.31 145.3,-96.91"/>
<polygon fill="midnightblue" stroke="midnightblue" points="1099.38,-137.52 1109.7,-135.09 1100.12,-130.56 1099.38,-137.52"/>
</g>
<!-- Node5 -->
<g id="node5" class="node">
<title>Node5</title>
<g id="a_node5"><a xlink:href="ParserYaml_8cpp.html" target="_top" xlink:title=" ">
<polygon fill="white" stroke="black" points="163.5,-73 163.5,-92 327.5,-92 327.5,-73 163.5,-73"/>
<text text-anchor="middle" x="245.5" y="-80" font-family="Helvetica,sans-Serif" font-size="10.00">sources/Parser/ParserYaml.cpp</text>
</a>
</g>
</g>
<!-- Node3&#45;&gt;Node5 -->
<g id="edge4" class="edge">
<title>Node3&#45;&gt;Node5</title>
<path fill="none" stroke="midnightblue" d="M1099.6,-134.01C760.92,-97.03 671.34,-132.46 336.5,-98 322.18,-96.53 306.68,-94.3 292.6,-92.02"/>
<polygon fill="midnightblue" stroke="midnightblue" points="1099.37,-137.51 1109.69,-135.13 1100.14,-130.55 1099.37,-137.51"/>
</g>
<!-- Node6 -->
<g id="node6" class="node">
<title>Node6</title>
<g id="a_node6"><a xlink:href="CreditScene_8cpp.html" target="_top" xlink:title=" ">
<polygon fill="white" stroke="black" points="346,-73 346,-92 519,-92 519,-73 346,-73"/>
<text text-anchor="middle" x="432.5" y="-80" font-family="Helvetica,sans-Serif" font-size="10.00">sources/Runner/CreditScene.cpp</text>
</a>
</g>
</g>
<!-- Node3&#45;&gt;Node6 -->
<g id="edge5" class="edge">
<title>Node3&#45;&gt;Node6</title>
<path fill="none" stroke="midnightblue" d="M1099.4,-133.97C845.36,-104.3 777.86,-124.92 527.5,-98 512.9,-96.43 497.11,-94.23 482.68,-92.01"/>
<polygon fill="midnightblue" stroke="midnightblue" points="1099.34,-137.49 1109.69,-135.19 1100.17,-130.54 1099.34,-137.49"/>
</g>
<!-- Node7 -->
<g id="node7" class="node">
<title>Node7</title>
<g id="a_node7"><a xlink:href="GameScene_8cpp.html" target="_top" xlink:title=" ">
<polygon fill="white" stroke="black" points="537,-73 537,-92 710,-92 710,-73 537,-73"/>
<text text-anchor="middle" x="623.5" y="-80" font-family="Helvetica,sans-Serif" font-size="10.00">sources/Runner/GameScene.cpp</text>
</a>
</g>
</g>
<!-- Node3&#45;&gt;Node7 -->
<g id="edge6" class="edge">
<title>Node3&#45;&gt;Node7</title>
<path fill="none" stroke="midnightblue" d="M1099.66,-133.96C930.24,-111.45 885.11,-118.31 719.5,-98 705.45,-96.28 690.28,-94.12 676.24,-92.01"/>
<polygon fill="midnightblue" stroke="midnightblue" points="1099.29,-137.44 1109.67,-135.31 1100.23,-130.51 1099.29,-137.44"/>
</g>
<!-- Node8 -->
<g id="node8" class="node">
<title>Node8</title>
<g id="a_node8"><a xlink:href="HowToPlayScene_8cpp.html" target="_top" xlink:title=" ">
<polygon fill="white" stroke="black" points="728.5,-67.5 728.5,-97.5 876.5,-97.5 876.5,-67.5 728.5,-67.5"/>
<text text-anchor="start" x="736.5" y="-85.5" font-family="Helvetica,sans-Serif" font-size="10.00">sources/Runner/HowToPlay</text>
<text text-anchor="middle" x="802.5" y="-74.5" font-family="Helvetica,sans-Serif" font-size="10.00">Scene.cpp</text>
</a>
</g>
</g>
<!-- Node3&#45;&gt;Node8 -->
<g id="edge7" class="edge">
<title>Node3&#45;&gt;Node8</title>
<path fill="none" stroke="midnightblue" d="M1099.76,-133.88C1003.4,-117.34 977.92,-113.81 885.5,-98 882.62,-97.51 879.68,-97 876.71,-96.49"/>
<polygon fill="midnightblue" stroke="midnightblue" points="1099.18,-137.33 1109.63,-135.58 1100.37,-130.43 1099.18,-137.33"/>
</g>
<!-- Node9 -->
<g id="node9" class="node">
<title>Node9</title>
<g id="a_node9"><a xlink:href="MainMenuScene_8cpp.html" target="_top" xlink:title=" ">
<polygon fill="white" stroke="black" points="895,-73 895,-92 1090,-92 1090,-73 895,-73"/>
<text text-anchor="middle" x="992.5" y="-80" font-family="Helvetica,sans-Serif" font-size="10.00">sources/Runner/MainMenuScene.cpp</text>
</a>
</g>
</g>
<!-- Node3&#45;&gt;Node9 -->
<g id="edge8" class="edge">
<title>Node3&#45;&gt;Node9</title>
<path fill="none" stroke="midnightblue" d="M1131.66,-131.11C1094.7,-118.46 1046.26,-101.89 1017.37,-92.01"/>
<polygon fill="midnightblue" stroke="midnightblue" points="1130.68,-134.47 1141.27,-134.4 1132.94,-127.85 1130.68,-134.47"/>
</g>
<!-- Node10 -->
<g id="node10" class="node">
<title>Node10</title>
<g id="a_node10"><a xlink:href="PauseMenuScene_8cpp.html" target="_top" xlink:title=" ">
<polygon fill="white" stroke="black" points="1107.5,-67.5 1107.5,-97.5 1257.5,-97.5 1257.5,-67.5 1107.5,-67.5"/>
<text text-anchor="start" x="1115.5" y="-85.5" font-family="Helvetica,sans-Serif" font-size="10.00">sources/Runner/PauseMenu</text>
<text text-anchor="middle" x="1182.5" y="-74.5" font-family="Helvetica,sans-Serif" font-size="10.00">Scene.cpp</text>
</a>
</g>
</g>
<!-- Node3&#45;&gt;Node10 -->
<g id="edge9" class="edge">
<title>Node3&#45;&gt;Node10</title>
<path fill="none" stroke="midnightblue" d="M1182.5,-124.11C1182.5,-115.15 1182.5,-105.32 1182.5,-97.58"/>
<polygon fill="midnightblue" stroke="midnightblue" points="1179,-124.4 1182.5,-134.4 1186,-124.4 1179,-124.4"/>
</g>
<!-- Node11 -->
<g id="node11" class="node">
<title>Node11</title>
<g id="a_node11"><a xlink:href="ScoreScene_8cpp.html" target="_top" xlink:title=" ">
<polygon fill="white" stroke="black" points="1276,-73 1276,-92 1447,-92 1447,-73 1276,-73"/>
<text text-anchor="middle" x="1361.5" y="-80" font-family="Helvetica,sans-Serif" font-size="10.00">sources/Runner/ScoreScene.cpp</text>
</a>
</g>
</g>
<!-- Node3&#45;&gt;Node11 -->
<g id="edge10" class="edge">
<title>Node3&#45;&gt;Node11</title>
<path fill="none" stroke="midnightblue" d="M1230.84,-130.95C1265.61,-118.32 1310.97,-101.85 1338.07,-92.01"/>
<polygon fill="midnightblue" stroke="midnightblue" points="1229.55,-127.69 1221.34,-134.4 1231.93,-134.27 1229.55,-127.69"/>
</g>
<!-- Node12 -->
<g id="node12" class="node">
<title>Node12</title>
<g id="a_node12"><a xlink:href="SettingsMenuScene_8cpp.html" target="_top" xlink:title=" ">
<polygon fill="white" stroke="black" points="1465,-67.5 1465,-97.5 1626,-97.5 1626,-67.5 1465,-67.5"/>
<text text-anchor="start" x="1473" y="-85.5" font-family="Helvetica,sans-Serif" font-size="10.00">sources/Runner/SettingsMenu</text>
<text text-anchor="middle" x="1545.5" y="-74.5" font-family="Helvetica,sans-Serif" font-size="10.00">Scene.cpp</text>
</a>
</g>
</g>
<!-- Node3&#45;&gt;Node12 -->
<g id="edge11" class="edge">
<title>Node3&#45;&gt;Node12</title>
<path fill="none" stroke="midnightblue" d="M1265,-133.73C1325.61,-122.87 1407.44,-108.22 1467.07,-97.54"/>
<polygon fill="midnightblue" stroke="midnightblue" points="1264.31,-130.29 1255.09,-135.5 1265.55,-137.19 1264.31,-130.29"/>
</g>
<!-- Node13 -->
<g id="node13" class="node">
<title>Node13</title>
<g id="a_node13"><a xlink:href="SplashScreenScene_8cpp.html" target="_top" xlink:title=" ">
<polygon fill="white" stroke="black" points="1644.5,-67.5 1644.5,-97.5 1804.5,-97.5 1804.5,-67.5 1644.5,-67.5"/>
<text text-anchor="start" x="1652.5" y="-85.5" font-family="Helvetica,sans-Serif" font-size="10.00">sources/Runner/SplashScreen</text>
<text text-anchor="middle" x="1724.5" y="-74.5" font-family="Helvetica,sans-Serif" font-size="10.00">Scene.cpp</text>
</a>
</g>
</g>
<!-- Node3&#45;&gt;Node13 -->
<g id="edge12" class="edge">
<title>Node3&#45;&gt;Node13</title>
<path fill="none" stroke="midnightblue" d="M1265.26,-133.82C1429.32,-111.68 1473.41,-118.77 1634.5,-98 1637.64,-97.6 1640.84,-97.17 1644.07,-96.72"/>
<polygon fill="midnightblue" stroke="midnightblue" points="1264.75,-130.36 1255.31,-135.18 1265.7,-137.3 1264.75,-130.36"/>
</g>
<!-- Node14 -->
<g id="node14" class="node">
<title>Node14</title>
<g id="a_node14"><a xlink:href="TitleScreenScene_8cpp.html" target="_top" xlink:title=" ">
<polygon fill="white" stroke="black" points="1823,-67.5 1823,-97.5 1972,-97.5 1972,-67.5 1823,-67.5"/>
<text text-anchor="start" x="1831" y="-85.5" font-family="Helvetica,sans-Serif" font-size="10.00">sources/Runner/TitleScreen</text>
<text text-anchor="middle" x="1897.5" y="-74.5" font-family="Helvetica,sans-Serif" font-size="10.00">Scene.cpp</text>
</a>
</g>
</g>
<!-- Node3&#45;&gt;Node14 -->
<g id="edge13" class="edge">
<title>Node3&#45;&gt;Node14</title>
<path fill="none" stroke="midnightblue" d="M1265.51,-133.84C1508.44,-104.98 1573.57,-126.48 1813.5,-98 1816.59,-97.63 1819.73,-97.23 1822.9,-96.8"/>
<polygon fill="midnightblue" stroke="midnightblue" points="1264.81,-130.4 1255.3,-135.07 1265.65,-137.35 1264.81,-130.4"/>
</g>
<!-- Node15 -->
<g id="node15" class="node">
<title>Node15</title>
<g id="a_node15"><a xlink:href="IntroAnimationSystem_8cpp.html" target="_top" xlink:title=" ">
<polygon fill="white" stroke="black" points="1990.5,-67.5 1990.5,-97.5 2160.5,-97.5 2160.5,-67.5 1990.5,-67.5"/>
<text text-anchor="start" x="1998.5" y="-85.5" font-family="Helvetica,sans-Serif" font-size="10.00">sources/System/IntroAnimation</text>
<text text-anchor="middle" x="2075.5" y="-74.5" font-family="Helvetica,sans-Serif" font-size="10.00">/IntroAnimationSystem.cpp</text>
</a>
</g>
</g>
<!-- Node3&#45;&gt;Node15 -->
<g id="edge14" class="edge">
<title>Node3&#45;&gt;Node15</title>
<path fill="none" stroke="midnightblue" d="M1265.69,-133.84C1582.31,-98.5 1666.46,-129.77 1980.5,-98 1983.74,-97.67 1987.03,-97.31 1990.36,-96.92"/>
<polygon fill="midnightblue" stroke="midnightblue" points="1264.84,-130.42 1255.29,-135.02 1265.62,-137.37 1264.84,-130.42"/>
</g>
<!-- Node16 -->
<g id="node16" class="node">
<title>Node16</title>
<g id="a_node16"><a xlink:href="MusicSystem_8hpp.html" target="_top" xlink:title=" ">
<polygon fill="white" stroke="black" points="2179,-67.5 2179,-97.5 2304,-97.5 2304,-67.5 2179,-67.5"/>
<text text-anchor="start" x="2187" y="-85.5" font-family="Helvetica,sans-Serif" font-size="10.00">sources/System/Music</text>
<text text-anchor="middle" x="2241.5" y="-74.5" font-family="Helvetica,sans-Serif" font-size="10.00">/MusicSystem.hpp</text>
</a>
</g>
</g>
<!-- Node3&#45;&gt;Node16 -->
<g id="edge15" class="edge">
<title>Node3&#45;&gt;Node16</title>
<path fill="none" stroke="midnightblue" d="M1265.41,-133.89C1665.89,-91.31 1772.7,-145.53 2169.5,-98 2172.54,-97.64 2175.64,-97.21 2178.77,-96.74"/>
<polygon fill="midnightblue" stroke="midnightblue" points="1264.86,-130.43 1255.29,-134.98 1265.61,-137.39 1264.86,-130.43"/>
</g>
<!-- Node17 -->
<g id="node17" class="node">
<title>Node17</title>
<g id="a_node17"><a xlink:href="LobbyScene_8cpp.html" target="_top" xlink:title=" ">
<polygon fill="white" stroke="black" points="1880,-6 1880,-25 2053,-25 2053,-6 1880,-6"/>
<text text-anchor="middle" x="1966.5" y="-13" font-family="Helvetica,sans-Serif" font-size="10.00">sources/Runner/LobbyScene.cpp</text>
</a>
</g>
</g>
<!-- Node16&#45;&gt;Node17 -->
<g id="edge16" class="edge">
<title>Node16&#45;&gt;Node17</title>
<path fill="none" stroke="midnightblue" d="M2172.32,-65.15C2118.36,-52.39 2045.58,-35.19 2002.58,-25.03"/>
<polygon fill="midnightblue" stroke="midnightblue" points="2171.63,-68.58 2182.17,-67.48 2173.24,-61.77 2171.63,-68.58"/>
</g>
<!-- Node18 -->
<g id="node18" class="node">
<title>Node18</title>
<g id="a_node18"><a xlink:href="ResumeLobbyScene_8cpp.html" target="_top" xlink:title=" ">
<polygon fill="white" stroke="black" points="2071.5,-0.5 2071.5,-30.5 2235.5,-30.5 2235.5,-0.5 2071.5,-0.5"/>
<text text-anchor="start" x="2079.5" y="-18.5" font-family="Helvetica,sans-Serif" font-size="10.00">sources/Runner/ResumeLobby</text>
<text text-anchor="middle" x="2153.5" y="-7.5" font-family="Helvetica,sans-Serif" font-size="10.00">Scene.cpp</text>
</a>
</g>
</g>
<!-- Node16&#45;&gt;Node18 -->
<g id="edge17" class="edge">
<title>Node16&#45;&gt;Node18</title>
<path fill="none" stroke="midnightblue" d="M2214.36,-61.45C2200.82,-51.45 2184.77,-39.6 2172.56,-30.58"/>
<polygon fill="midnightblue" stroke="midnightblue" points="2212.28,-64.27 2222.41,-67.4 2216.44,-58.64 2212.28,-64.27"/>
</g>
<!-- Node19 -->
<g id="node19" class="node">
<title>Node19</title>
<g id="a_node19"><a xlink:href="Runner_8cpp.html" target="_top" xlink:title=" ">
<polygon fill="white" stroke="black" points="2254,-6 2254,-25 2403,-25 2403,-6 2254,-6"/>
<text text-anchor="middle" x="2328.5" y="-13" font-family="Helvetica,sans-Serif" font-size="10.00">sources/Runner/Runner.cpp</text>
</a>
</g>
</g>
<!-- Node16&#45;&gt;Node19 -->
<g id="edge18" class="edge">
<title>Node16&#45;&gt;Node19</title>
<path fill="none" stroke="midnightblue" d="M2268.48,-61.34C2284.72,-49.21 2304.56,-34.39 2316.86,-25.19"/>
<polygon fill="midnightblue" stroke="midnightblue" points="2266.29,-58.61 2260.38,-67.4 2270.48,-64.21 2266.29,-58.61"/>
</g>
<!-- Node20 -->
<g id="node20" class="node">
<title>Node20</title>
<g id="a_node20"><a xlink:href="MusicSystem_8cpp.html" target="_top" xlink:title=" ">
<polygon fill="white" stroke="black" points="2421,-0.5 2421,-30.5 2546,-30.5 2546,-0.5 2421,-0.5"/>
<text text-anchor="start" x="2429" y="-18.5" font-family="Helvetica,sans-Serif" font-size="10.00">sources/System/Music</text>
<text text-anchor="middle" x="2483.5" y="-7.5" font-family="Helvetica,sans-Serif" font-size="10.00">/MusicSystem.cpp</text>
</a>
</g>
</g>
<!-- Node16&#45;&gt;Node20 -->
<g id="edge19" class="edge">
<title>Node16&#45;&gt;Node20</title>
<path fill="none" stroke="midnightblue" d="M2303.49,-64.85C2342.95,-54.25 2393.49,-40.68 2430.96,-30.61"/>
<polygon fill="midnightblue" stroke="midnightblue" points="2302.46,-61.5 2293.71,-67.48 2304.28,-68.26 2302.46,-61.5"/>
</g>
</g>
</svg>
