<?xml version="1.0" encoding="UTF-8" standalone="no"?>
<!DOCTYPE svg PUBLIC "-//W3C//DTD SVG 1.1//EN"
 "http://www.w3.org/Graphics/SVG/1.1/DTD/svg11.dtd">
<!-- Generated by graphviz version 2.43.0 (0)
 -->
<!-- Title: sources/Parser/Node.hpp Pages: 1 -->
<svg width="884pt" height="151pt"
 viewBox="0.00 0.00 884.00 151.00" xmlns="http://www.w3.org/2000/svg" xmlns:xlink="http://www.w3.org/1999/xlink">
<g id="graph0" class="graph" transform="scale(1 1) rotate(0) translate(4 147)">
<title>sources/Parser/Node.hpp</title>
<polygon fill="white" stroke="transparent" points="-4,4 -4,-147 880,-147 880,4 -4,4"/>
<!-- Node1 -->
<g id="node1" class="node">
<title>Node1</title>
<g id="a_node1"><a xlink:title=" ">
<polygon fill="#bfbfbf" stroke="black" points="317.5,-123.5 317.5,-142.5 454.5,-142.5 454.5,-123.5 317.5,-123.5"/>
<text text-anchor="middle" x="386" y="-130.5" font-family="Helvetica,sans-Serif" font-size="10.00">sources/Parser/Node.hpp</text>
</a>
</g>
</g>
<!-- Node2 -->
<g id="node2" class="node">
<title>Node2</title>
<g id="a_node2"><a xlink:href="Node_8cpp.html" target="_top" xlink:title=" ">
<polygon fill="white" stroke="black" points="234,-67.5 234,-86.5 370,-86.5 370,-67.5 234,-67.5"/>
<text text-anchor="middle" x="302" y="-74.5" font-family="Helvetica,sans-Serif" font-size="10.00">sources/Parser/Node.cpp</text>
</a>
</g>
</g>
<!-- Node1&#45;&gt;Node2 -->
<g id="edge1" class="edge">
<title>Node1&#45;&gt;Node2</title>
<path fill="none" stroke="midnightblue" d="M364.07,-117.9C348.66,-108 328.55,-95.07 315.46,-86.65"/>
<polygon fill="midnightblue" stroke="midnightblue" points="362.2,-120.86 372.5,-123.32 365.98,-114.97 362.2,-120.86"/>
</g>
<!-- Node3 -->
<g id="node3" class="node">
<title>Node3</title>
<g id="a_node3"><a xlink:href="ParserYaml_8hpp.html" target="_top" xlink:title=" ">
<polygon fill="white" stroke="black" points="388,-67.5 388,-86.5 552,-86.5 552,-67.5 388,-67.5"/>
<text text-anchor="middle" x="470" y="-74.5" font-family="Helvetica,sans-Serif" font-size="10.00">sources/Parser/ParserYaml.hpp</text>
</a>
</g>
</g>
<!-- Node1&#45;&gt;Node3 -->
<g id="edge2" class="edge">
<title>Node1&#45;&gt;Node3</title>
<path fill="none" stroke="midnightblue" d="M407.93,-117.9C423.34,-108 443.45,-95.07 456.54,-86.65"/>
<polygon fill="midnightblue" stroke="midnightblue" points="406.02,-114.97 399.5,-123.32 409.8,-120.86 406.02,-114.97"/>
</g>
<!-- Node4 -->
<g id="node4" class="node">
<title>Node4</title>
<g id="a_node4"><a xlink:href="ParserYaml_8cpp.html" target="_top" xlink:title=" ">
<polygon fill="white" stroke="black" points="0,-6 0,-25 164,-25 164,-6 0,-6"/>
<text text-anchor="middle" x="82" y="-13" font-family="Helvetica,sans-Serif" font-size="10.00">sources/Parser/ParserYaml.cpp</text>
</a>
</g>
</g>
<!-- Node3&#45;&gt;Node4 -->
<g id="edge3" class="edge">
<title>Node3&#45;&gt;Node4</title>
<path fill="none" stroke="midnightblue" d="M402.63,-65.94C342.42,-56.92 251.8,-43.25 173,-31 160.67,-29.08 147.41,-26.99 134.92,-25"/>
<polygon fill="midnightblue" stroke="midnightblue" points="402.36,-69.44 412.77,-67.46 403.4,-62.52 402.36,-69.44"/>
</g>
<!-- Node5 -->
<g id="node5" class="node">
<title>Node5</title>
<g id="a_node5"><a xlink:href="MainMenuScene_8cpp.html" target="_top" xlink:title=" ">
<polygon fill="white" stroke="black" points="182.5,-6 182.5,-25 377.5,-25 377.5,-6 182.5,-6"/>
<text text-anchor="middle" x="280" y="-13" font-family="Helvetica,sans-Serif" font-size="10.00">sources/Runner/MainMenuScene.cpp</text>
</a>
</g>
</g>
<!-- Node3&#45;&gt;Node5 -->
<g id="edge4" class="edge">
<title>Node3&#45;&gt;Node5</title>
<path fill="none" stroke="midnightblue" d="M432.9,-64.38C395.96,-52.82 340.16,-35.34 307.17,-25.01"/>
<polygon fill="midnightblue" stroke="midnightblue" points="432.19,-67.83 442.78,-67.48 434.28,-61.15 432.19,-67.83"/>
</g>
<!-- Node6 -->
<g id="node6" class="node">
<title>Node6</title>
<g id="a_node6"><a xlink:href="PauseMenuScene_8cpp.html" target="_top" xlink:title=" ">
<polygon fill="white" stroke="black" points="395,-0.5 395,-30.5 545,-30.5 545,-0.5 395,-0.5"/>
<text text-anchor="start" x="403" y="-18.5" font-family="Helvetica,sans-Serif" font-size="10.00">sources/Runner/PauseMenu</text>
<text text-anchor="middle" x="470" y="-7.5" font-family="Helvetica,sans-Serif" font-size="10.00">Scene.cpp</text>
</a>
</g>
</g>
<!-- Node3&#45;&gt;Node6 -->
<g id="edge5" class="edge">
<title>Node3&#45;&gt;Node6</title>
<path fill="none" stroke="midnightblue" d="M470,-57.23C470,-48.59 470,-38.5 470,-30.52"/>
<polygon fill="midnightblue" stroke="midnightblue" points="466.5,-57.48 470,-67.48 473.5,-57.48 466.5,-57.48"/>
</g>
<!-- Node7 -->
<g id="node7" class="node">
<title>Node7</title>
<g id="a_node7"><a xlink:href="Runner_8cpp.html" target="_top" xlink:title=" ">
<polygon fill="white" stroke="black" points="562.5,-6 562.5,-25 711.5,-25 711.5,-6 562.5,-6"/>
<text text-anchor="middle" x="637" y="-13" font-family="Helvetica,sans-Serif" font-size="10.00">sources/Runner/Runner.cpp</text>
</a>
</g>
</g>
<!-- Node3&#45;&gt;Node7 -->
<g id="edge6" class="edge">
<title>Node3&#45;&gt;Node7</title>
<path fill="none" stroke="midnightblue" d="M503.45,-64.08C535.91,-52.52 584.37,-35.25 613.12,-25.01"/>
<polygon fill="midnightblue" stroke="midnightblue" points="502.17,-60.82 493.93,-67.48 504.52,-67.42 502.17,-60.82"/>
</g>
<!-- Node8 -->
<g id="node8" class="node">
<title>Node8</title>
<g id="a_node8"><a xlink:href="ResumeLobbySystem_8cpp.html" target="_top" xlink:title=" ">
<polygon fill="white" stroke="black" points="730,-0.5 730,-30.5 876,-30.5 876,-0.5 730,-0.5"/>
<text text-anchor="start" x="738" y="-18.5" font-family="Helvetica,sans-Serif" font-size="10.00">sources/System/Lobby</text>
<text text-anchor="middle" x="803" y="-7.5" font-family="Helvetica,sans-Serif" font-size="10.00">/ResumeLobbySystem.cpp</text>
</a>
</g>
</g>
<!-- Node3&#45;&gt;Node8 -->
<g id="edge7" class="edge">
<title>Node3&#45;&gt;Node8</title>
<path fill="none" stroke="midnightblue" d="M527.83,-65.67C583.9,-55.65 669.17,-40.41 729.91,-29.56"/>
<polygon fill="midnightblue" stroke="midnightblue" points="526.94,-62.27 517.71,-67.48 528.17,-69.16 526.94,-62.27"/>
</g>
</g>
</svg>
