<?xml version="1.0" encoding="UTF-8" standalone="no"?>
<!DOCTYPE svg PUBLIC "-//W3C//DTD SVG 1.1//EN"
 "http://www.w3.org/Graphics/SVG/1.1/DTD/svg11.dtd">
<!-- Generated by graphviz version 2.43.0 (0)
 -->
<!-- Title: sources/System/Bonus/PlayerBonusSystem.hpp Pages: 1 -->
<svg width="1791pt" height="453pt"
 viewBox="0.00 0.00 1790.89 453.00" xmlns="http://www.w3.org/2000/svg" xmlns:xlink="http://www.w3.org/1999/xlink">
<g id="graph0" class="graph" transform="scale(1 1) rotate(0) translate(4 449)">
<title>sources/System/Bonus/PlayerBonusSystem.hpp</title>
<polygon fill="white" stroke="transparent" points="-4,4 -4,-449 1786.89,-449 1786.89,4 -4,4"/>
<!-- Node1 -->
<g id="node1" class="node">
<title>Node1</title>
<g id="a_node1"><a xlink:title=" ">
<polygon fill="#bfbfbf" stroke="black" points="1023.89,-414.5 1023.89,-444.5 1161.89,-444.5 1161.89,-414.5 1023.89,-414.5"/>
<text text-anchor="start" x="1031.89" y="-432.5" font-family="Helvetica,sans-Serif" font-size="10.00">sources/System/Bonus</text>
<text text-anchor="middle" x="1092.89" y="-421.5" font-family="Helvetica,sans-Serif" font-size="10.00">/PlayerBonusSystem.hpp</text>
</a>
</g>
</g>
<!-- Node2 -->
<g id="node2" class="node">
<title>Node2</title>
<g id="a_node2"><a xlink:href="System_8hpp.html" target="_top" xlink:title=" ">
<polygon fill="white" stroke="black" points="651.89,-353 651.89,-372 765.89,-372 765.89,-353 651.89,-353"/>
<text text-anchor="middle" x="708.89" y="-360" font-family="Helvetica,sans-Serif" font-size="10.00">System/System.hpp</text>
</a>
</g>
</g>
<!-- Node1&#45;&gt;Node2 -->
<g id="edge1" class="edge">
<title>Node1&#45;&gt;Node2</title>
<path fill="none" stroke="midnightblue" d="M1023.79,-416.8C951.24,-404.52 838.31,-385.41 769.23,-373.71"/>
<polygon fill="midnightblue" stroke="midnightblue" points="769.81,-370.26 759.37,-372.04 768.64,-377.16 769.81,-370.26"/>
</g>
<!-- Node16 -->
<g id="node16" class="node">
<title>Node16</title>
<g id="a_node16"><a xlink:href="Wal_8hpp.html" target="_top" xlink:title=" ">
<polygon fill="white" stroke="black" points="426.89,-291.5 426.89,-310.5 482.89,-310.5 482.89,-291.5 426.89,-291.5"/>
<text text-anchor="middle" x="454.89" y="-298.5" font-family="Helvetica,sans-Serif" font-size="10.00">Wal.hpp</text>
</a>
</g>
</g>
<!-- Node1&#45;&gt;Node16 -->
<g id="edge51" class="edge">
<title>Node1&#45;&gt;Node16</title>
<path fill="none" stroke="midnightblue" d="M1023.61,-426.56C934.34,-422.74 774.92,-411.43 642.89,-378 582.68,-362.76 516.17,-332.43 480.64,-315.05"/>
<polygon fill="midnightblue" stroke="midnightblue" points="481.99,-311.81 471.47,-310.51 478.88,-318.08 481.99,-311.81"/>
</g>
<!-- Node27 -->
<g id="node27" class="node">
<title>Node27</title>
<g id="a_node27"><a xlink:href="sources_2Models_2Vector3_8hpp.html" target="_top" xlink:title=" ">
<polygon fill="white" stroke="black" points="1576.39,-291.5 1576.39,-310.5 1689.39,-310.5 1689.39,-291.5 1576.39,-291.5"/>
<text text-anchor="middle" x="1632.89" y="-298.5" font-family="Helvetica,sans-Serif" font-size="10.00">Models/Vector3.hpp</text>
</a>
</g>
</g>
<!-- Node1&#45;&gt;Node27 -->
<g id="edge52" class="edge">
<title>Node1&#45;&gt;Node27</title>
<path fill="none" stroke="midnightblue" d="M1161.95,-419.67C1223.12,-411.19 1314.59,-396.89 1392.89,-378 1468.13,-359.85 1554.13,-330.44 1599.99,-314.03"/>
<polygon fill="midnightblue" stroke="midnightblue" points="1601.46,-317.22 1609.69,-310.55 1599.09,-310.64 1601.46,-317.22"/>
</g>
<!-- Node31 -->
<g id="node31" class="node">
<title>Node31</title>
<g id="a_node31"><a xlink:href="PlayerBonusComponent_8hpp.html" target="_top" xlink:title=" ">
<polygon fill="white" stroke="black" points="1140.89,-224.5 1140.89,-254.5 1310.89,-254.5 1310.89,-224.5 1140.89,-224.5"/>
<text text-anchor="start" x="1148.89" y="-242.5" font-family="Helvetica,sans-Serif" font-size="10.00">Component/Bonus/PlayerBonus</text>
<text text-anchor="middle" x="1225.89" y="-231.5" font-family="Helvetica,sans-Serif" font-size="10.00">Component.hpp</text>
</a>
</g>
</g>
<!-- Node1&#45;&gt;Node31 -->
<g id="edge57" class="edge">
<title>Node1&#45;&gt;Node31</title>
<path fill="none" stroke="midnightblue" d="M1162.12,-421.73C1190.41,-415.16 1220.51,-402.44 1237.89,-378 1261.85,-344.28 1248.03,-293.5 1236.5,-264.01"/>
<polygon fill="midnightblue" stroke="midnightblue" points="1239.63,-262.44 1232.58,-254.53 1233.16,-265.11 1239.63,-262.44"/>
</g>
<!-- Node32 -->
<g id="node32" class="node">
<title>Node32</title>
<g id="a_node32"><a xlink:href="ControllableComponent_8hpp.html" target="_top" xlink:title=" ">
<polygon fill="white" stroke="black" points="1072.89,-347.5 1072.89,-377.5 1228.89,-377.5 1228.89,-347.5 1072.89,-347.5"/>
<text text-anchor="start" x="1080.89" y="-365.5" font-family="Helvetica,sans-Serif" font-size="10.00">Component/Controllable</text>
<text text-anchor="middle" x="1150.89" y="-354.5" font-family="Helvetica,sans-Serif" font-size="10.00">/ControllableComponent.hpp</text>
</a>
</g>
</g>
<!-- Node1&#45;&gt;Node32 -->
<g id="edge61" class="edge">
<title>Node1&#45;&gt;Node32</title>
<path fill="none" stroke="midnightblue" d="M1105.47,-414.4C1113.07,-405.88 1122.91,-394.85 1131.49,-385.23"/>
<polygon fill="midnightblue" stroke="midnightblue" points="1134.28,-387.37 1138.32,-377.58 1129.06,-382.71 1134.28,-387.37"/>
</g>
<!-- Node35 -->
<g id="node35" class="node">
<title>Node35</title>
<g id="a_node35"><a xlink:href="BombHolderComponent_8hpp.html" target="_top" xlink:title=" ">
<polygon fill="white" stroke="black" points="888.89,-224.5 888.89,-254.5 1046.89,-254.5 1046.89,-224.5 888.89,-224.5"/>
<text text-anchor="start" x="896.89" y="-242.5" font-family="Helvetica,sans-Serif" font-size="10.00">Component/BombHolder</text>
<text text-anchor="middle" x="967.89" y="-231.5" font-family="Helvetica,sans-Serif" font-size="10.00">/BombHolderComponent.hpp</text>
</a>
</g>
</g>
<!-- Node1&#45;&gt;Node35 -->
<g id="edge70" class="edge">
<title>Node1&#45;&gt;Node35</title>
<path fill="none" stroke="midnightblue" d="M1083.49,-414.37C1061.99,-382.04 1009.06,-302.43 982.95,-263.16"/>
<polygon fill="midnightblue" stroke="midnightblue" points="985.67,-260.93 977.22,-254.54 979.84,-264.8 985.67,-260.93"/>
</g>
<!-- Node3 -->
<g id="node3" class="node">
<title>Node3</title>
<g id="a_node3"><a xlink:title=" ">
<polygon fill="white" stroke="#bfbfbf" points="1049.89,-168.5 1049.89,-187.5 1099.89,-187.5 1099.89,-168.5 1049.89,-168.5"/>
<text text-anchor="middle" x="1074.89" y="-175.5" font-family="Helvetica,sans-Serif" font-size="10.00">chrono</text>
</a>
</g>
</g>
<!-- Node2&#45;&gt;Node3 -->
<g id="edge2" class="edge">
<title>Node2&#45;&gt;Node3</title>
<path fill="none" stroke="midnightblue" d="M766.02,-360.43C843.01,-355.8 979.23,-335.81 1055.89,-255 1070.41,-239.69 1074.31,-215.01 1075.12,-197.95"/>
<polygon fill="midnightblue" stroke="midnightblue" points="1078.63,-197.62 1075.29,-187.57 1071.63,-197.51 1078.63,-197.62"/>
</g>
<!-- Node4 -->
<g id="node4" class="node">
<title>Node4</title>
<g id="a_node4"><a xlink:title=" ">
<polygon fill="white" stroke="#bfbfbf" points="271.39,-0.5 271.39,-19.5 318.39,-19.5 318.39,-0.5 271.39,-0.5"/>
<text text-anchor="middle" x="294.89" y="-7.5" font-family="Helvetica,sans-Serif" font-size="10.00">vector</text>
</a>
</g>
</g>
<!-- Node2&#45;&gt;Node4 -->
<g id="edge3" class="edge">
<title>Node2&#45;&gt;Node4</title>
<path fill="none" stroke="midnightblue" d="M651.85,-357.76C483.57,-345.97 0.89,-306.4 0.89,-240.5 0.89,-240.5 0.89,-240.5 0.89,-121 0.89,-90.9 -2.66,-75.94 19.89,-56 37.76,-40.18 191.53,-22.01 261.03,-14.51"/>
<polygon fill="midnightblue" stroke="midnightblue" points="261.47,-17.98 271.04,-13.44 260.72,-11.02 261.47,-17.98"/>
</g>
<!-- Node5 -->
<g id="node5" class="node">
<title>Node5</title>
<g id="a_node5"><a xlink:title=" ">
<polygon fill="white" stroke="#bfbfbf" points="253.39,-56.5 253.39,-75.5 310.39,-75.5 310.39,-56.5 253.39,-56.5"/>
<text text-anchor="middle" x="281.89" y="-63.5" font-family="Helvetica,sans-Serif" font-size="10.00">typeinfo</text>
</a>
</g>
</g>
<!-- Node2&#45;&gt;Node5 -->
<g id="edge4" class="edge">
<title>Node2&#45;&gt;Node5</title>
<path fill="none" stroke="midnightblue" d="M651.49,-357.98C531.03,-349.02 262.89,-320.13 262.89,-240.5 262.89,-240.5 262.89,-240.5 262.89,-177 262.89,-144.49 271.04,-107.35 276.67,-85.61"/>
<polygon fill="midnightblue" stroke="midnightblue" points="280.1,-86.32 279.32,-75.75 273.34,-84.5 280.1,-86.32"/>
</g>
<!-- Node6 -->
<g id="node6" class="node">
<title>Node6</title>
<g id="a_node6"><a xlink:title=" ">
<polygon fill="white" stroke="#bfbfbf" points="1034.39,-0.5 1034.39,-19.5 1099.39,-19.5 1099.39,-0.5 1034.39,-0.5"/>
<text text-anchor="middle" x="1066.89" y="-7.5" font-family="Helvetica,sans-Serif" font-size="10.00">typeindex</text>
</a>
</g>
</g>
<!-- Node2&#45;&gt;Node6 -->
<g id="edge5" class="edge">
<title>Node2&#45;&gt;Node6</title>
<path fill="none" stroke="midnightblue" d="M766.09,-359.31C902.22,-352.91 1240.02,-329.7 1319.89,-255 1345.31,-231.22 1338.89,-213.82 1338.89,-179 1338.89,-179 1338.89,-179 1338.89,-121 1338.89,-72.07 1185.69,-34.63 1109.24,-18.99"/>
<polygon fill="midnightblue" stroke="midnightblue" points="1109.92,-15.56 1099.42,-17.01 1108.54,-22.42 1109.92,-15.56"/>
</g>
<!-- Node7 -->
<g id="node7" class="node">
<title>Node7</title>
<g id="a_node7"><a xlink:href="Entity_8hpp.html" target="_top" xlink:title=" ">
<polygon fill="white" stroke="black" points="774.89,-112.5 774.89,-131.5 870.89,-131.5 870.89,-112.5 774.89,-112.5"/>
<text text-anchor="middle" x="822.89" y="-119.5" font-family="Helvetica,sans-Serif" font-size="10.00">Entity/Entity.hpp</text>
</a>
</g>
</g>
<!-- Node2&#45;&gt;Node7 -->
<g id="edge6" class="edge">
<title>Node2&#45;&gt;Node7</title>
<path fill="none" stroke="midnightblue" d="M706.24,-352.93C699.83,-330.5 685.41,-268.72 705.89,-224 707.22,-221.07 772.27,-165.81 804.78,-138.29"/>
<polygon fill="midnightblue" stroke="midnightblue" points="807.27,-140.77 812.65,-131.64 802.75,-135.43 807.27,-140.77"/>
</g>
<!-- Node2&#45;&gt;Node16 -->
<g id="edge20" class="edge">
<title>Node2&#45;&gt;Node16</title>
<path fill="none" stroke="midnightblue" d="M672.49,-352.98C624.73,-341.79 541.27,-322.24 492.77,-310.88"/>
<polygon fill="midnightblue" stroke="midnightblue" points="493.51,-307.45 482.98,-308.58 491.92,-314.27 493.51,-307.45"/>
</g>
<!-- Node18 -->
<g id="node18" class="node">
<title>Node18</title>
<g id="a_node18"><a xlink:href="ISystem_8hpp.html" target="_top" xlink:title=" ">
<polygon fill="white" stroke="black" points="715.39,-230 715.39,-249 832.39,-249 832.39,-230 715.39,-230"/>
<text text-anchor="middle" x="773.89" y="-237" font-family="Helvetica,sans-Serif" font-size="10.00">System/ISystem.hpp</text>
</a>
</g>
</g>
<!-- Node2&#45;&gt;Node18 -->
<g id="edge49" class="edge">
<title>Node2&#45;&gt;Node18</title>
<path fill="none" stroke="midnightblue" d="M713.56,-352.8C724.19,-333 750.37,-284.28 764.49,-257.99"/>
<polygon fill="midnightblue" stroke="midnightblue" points="767.6,-259.59 769.25,-249.12 761.44,-256.28 767.6,-259.59"/>
</g>
<!-- Node19 -->
<g id="node19" class="node">
<title>Node19</title>
<g id="a_node19"><a xlink:href="View_8hpp.html" target="_top" xlink:title=" ">
<polygon fill="white" stroke="black" points="616.89,-168.5 616.89,-187.5 704.89,-187.5 704.89,-168.5 616.89,-168.5"/>
<text text-anchor="middle" x="660.89" y="-175.5" font-family="Helvetica,sans-Serif" font-size="10.00">View/View.hpp</text>
</a>
</g>
</g>
<!-- Node2&#45;&gt;Node19 -->
<g id="edge48" class="edge">
<title>Node2&#45;&gt;Node19</title>
<path fill="none" stroke="midnightblue" d="M700.34,-352.69C691.75,-343.23 678.95,-327.36 672.89,-311 658.67,-272.66 658.41,-223.94 659.58,-197.73"/>
<polygon fill="midnightblue" stroke="midnightblue" points="663.08,-197.86 660.15,-187.68 656.09,-197.46 663.08,-197.86"/>
</g>
<!-- Node26 -->
<g id="node26" class="node">
<title>Node26</title>
<g id="a_node26"><a xlink:title=" ">
<polygon fill="white" stroke="#bfbfbf" points="1404.89,-230 1404.89,-249 1464.89,-249 1464.89,-230 1404.89,-230"/>
<text text-anchor="middle" x="1434.89" y="-237" font-family="Helvetica,sans-Serif" font-size="10.00">iostream</text>
</a>
</g>
</g>
<!-- Node2&#45;&gt;Node26 -->
<g id="edge50" class="edge">
<title>Node2&#45;&gt;Node26</title>
<path fill="none" stroke="midnightblue" d="M765.95,-356.52C846.69,-349.03 998.71,-333.35 1126.89,-311 1223.75,-294.11 1335.96,-266.31 1394.54,-251.16"/>
<polygon fill="midnightblue" stroke="midnightblue" points="1395.7,-254.47 1404.5,-248.57 1393.94,-247.7 1395.7,-254.47"/>
</g>
<!-- Node7&#45;&gt;Node5 -->
<g id="edge9" class="edge">
<title>Node7&#45;&gt;Node5</title>
<path fill="none" stroke="midnightblue" d="M774.88,-116.21C669.07,-105.65 417.53,-80.54 320.76,-70.88"/>
<polygon fill="midnightblue" stroke="midnightblue" points="320.84,-67.37 310.54,-69.86 320.14,-74.34 320.84,-67.37"/>
</g>
<!-- Node8 -->
<g id="node8" class="node">
<title>Node8</title>
<g id="a_node8"><a xlink:title=" ">
<polygon fill="white" stroke="#bfbfbf" points="485.89,-0.5 485.89,-19.5 529.89,-19.5 529.89,-0.5 485.89,-0.5"/>
<text text-anchor="middle" x="507.89" y="-7.5" font-family="Helvetica,sans-Serif" font-size="10.00">string</text>
</a>
</g>
</g>
<!-- Node7&#45;&gt;Node8 -->
<g id="edge7" class="edge">
<title>Node7&#45;&gt;Node8</title>
<path fill="none" stroke="midnightblue" d="M798.43,-112.46C742.02,-92.76 602.79,-44.14 539.78,-22.14"/>
<polygon fill="midnightblue" stroke="midnightblue" points="540.59,-18.71 529.99,-18.72 538.28,-25.32 540.59,-18.71"/>
</g>
<!-- Node9 -->
<g id="node9" class="node">
<title>Node9</title>
<g id="a_node9"><a xlink:title=" ">
<polygon fill="white" stroke="#bfbfbf" points="446.39,-56.5 446.39,-75.5 539.39,-75.5 539.39,-56.5 446.39,-56.5"/>
<text text-anchor="middle" x="492.89" y="-63.5" font-family="Helvetica,sans-Serif" font-size="10.00">unordered_map</text>
</a>
</g>
</g>
<!-- Node7&#45;&gt;Node9 -->
<g id="edge8" class="edge">
<title>Node7&#45;&gt;Node9</title>
<path fill="none" stroke="midnightblue" d="M774.55,-113.09C714.77,-103.31 613.16,-86.68 549.71,-76.3"/>
<polygon fill="midnightblue" stroke="midnightblue" points="549.92,-72.79 539.49,-74.63 548.79,-79.69 549.92,-72.79"/>
</g>
<!-- Node10 -->
<g id="node10" class="node">
<title>Node10</title>
<g id="a_node10"><a xlink:title=" ">
<polygon fill="white" stroke="#bfbfbf" points="913.89,-56.5 913.89,-75.5 971.89,-75.5 971.89,-56.5 913.89,-56.5"/>
<text text-anchor="middle" x="942.89" y="-63.5" font-family="Helvetica,sans-Serif" font-size="10.00">memory</text>
</a>
</g>
</g>
<!-- Node7&#45;&gt;Node10 -->
<g id="edge10" class="edge">
<title>Node7&#45;&gt;Node10</title>
<path fill="none" stroke="midnightblue" d="M841.9,-112.44C861.47,-103.64 892.19,-89.81 914.61,-79.72"/>
<polygon fill="midnightblue" stroke="midnightblue" points="916.28,-82.81 923.96,-75.52 913.4,-76.43 916.28,-82.81"/>
</g>
<!-- Node11 -->
<g id="node11" class="node">
<title>Node11</title>
<g id="a_node11"><a xlink:href="Component_8hpp.html" target="_top" xlink:title=" ">
<polygon fill="white" stroke="black" points="990.39,-56.5 990.39,-75.5 1143.39,-75.5 1143.39,-56.5 990.39,-56.5"/>
<text text-anchor="middle" x="1066.89" y="-63.5" font-family="Helvetica,sans-Serif" font-size="10.00">Component/Component.hpp</text>
</a>
</g>
</g>
<!-- Node7&#45;&gt;Node11 -->
<g id="edge11" class="edge">
<title>Node7&#45;&gt;Node11</title>
<path fill="none" stroke="midnightblue" d="M861.55,-112.44C904.02,-103.04 972.32,-87.93 1018.36,-77.74"/>
<polygon fill="midnightblue" stroke="midnightblue" points="1019.4,-81.09 1028.4,-75.52 1017.88,-74.26 1019.4,-81.09"/>
</g>
<!-- Node12 -->
<g id="node12" class="node">
<title>Node12</title>
<g id="a_node12"><a xlink:href="WalError_8hpp.html" target="_top" xlink:title=" ">
<polygon fill="white" stroke="black" points="29.39,-56.5 29.39,-75.5 158.39,-75.5 158.39,-56.5 29.39,-56.5"/>
<text text-anchor="middle" x="93.89" y="-63.5" font-family="Helvetica,sans-Serif" font-size="10.00">Exception/WalError.hpp</text>
</a>
</g>
</g>
<!-- Node7&#45;&gt;Node12 -->
<g id="edge15" class="edge">
<title>Node7&#45;&gt;Node12</title>
<path fill="none" stroke="midnightblue" d="M774.58,-116.2C759.62,-114.77 743.08,-113.26 727.89,-112 525.93,-95.27 287.46,-79.38 168.79,-71.74"/>
<polygon fill="midnightblue" stroke="midnightblue" points="168.93,-68.24 158.73,-71.1 168.48,-75.23 168.93,-68.24"/>
</g>
<!-- Node15 -->
<g id="node15" class="node">
<title>Node15</title>
<g id="a_node15"><a xlink:href="TypeHolder_8hpp.html" target="_top" xlink:title=" ">
<polygon fill="white" stroke="black" points="765.89,-56.5 765.89,-75.5 895.89,-75.5 895.89,-56.5 765.89,-56.5"/>
<text text-anchor="middle" x="830.89" y="-63.5" font-family="Helvetica,sans-Serif" font-size="10.00">Models/TypeHolder.hpp</text>
</a>
</g>
</g>
<!-- Node7&#45;&gt;Node15 -->
<g id="edge19" class="edge">
<title>Node7&#45;&gt;Node15</title>
<path fill="none" stroke="midnightblue" d="M824.21,-112.08C825.27,-104.93 826.79,-94.64 828.12,-85.69"/>
<polygon fill="midnightblue" stroke="midnightblue" points="831.59,-86.16 829.59,-75.75 824.66,-85.13 831.59,-86.16"/>
</g>
<!-- Node11&#45;&gt;Node4 -->
<g id="edge12" class="edge">
<title>Node11&#45;&gt;Node4</title>
<path fill="none" stroke="midnightblue" d="M990.01,-56.81C986.93,-56.52 983.88,-56.25 980.89,-56 730.75,-34.72 428.55,-18.03 328.7,-12.75"/>
<polygon fill="midnightblue" stroke="midnightblue" points="328.78,-9.25 318.61,-12.22 328.41,-16.24 328.78,-9.25"/>
</g>
<!-- Node11&#45;&gt;Node6 -->
<g id="edge14" class="edge">
<title>Node11&#45;&gt;Node6</title>
<path fill="none" stroke="midnightblue" d="M1066.89,-56.08C1066.89,-49.01 1066.89,-38.86 1066.89,-29.99"/>
<polygon fill="midnightblue" stroke="midnightblue" points="1070.39,-29.75 1066.89,-19.75 1063.39,-29.75 1070.39,-29.75"/>
</g>
<!-- Node11&#45;&gt;Node8 -->
<g id="edge13" class="edge">
<title>Node11&#45;&gt;Node8</title>
<path fill="none" stroke="midnightblue" d="M990,-56.92C986.92,-56.61 983.87,-56.3 980.89,-56 815.42,-39.47 617.25,-21.07 540.48,-13.99"/>
<polygon fill="midnightblue" stroke="midnightblue" points="540.34,-10.47 530.06,-13.03 539.69,-17.44 540.34,-10.47"/>
</g>
<!-- Node12&#45;&gt;Node8 -->
<g id="edge18" class="edge">
<title>Node12&#45;&gt;Node8</title>
<path fill="none" stroke="midnightblue" d="M158.57,-56.56C248.37,-44.85 407.43,-24.1 475.51,-15.22"/>
<polygon fill="midnightblue" stroke="midnightblue" points="476.16,-18.67 485.63,-13.9 475.26,-11.73 476.16,-18.67"/>
</g>
<!-- Node13 -->
<g id="node13" class="node">
<title>Node13</title>
<g id="a_node13"><a xlink:title=" ">
<polygon fill="white" stroke="#bfbfbf" points="20.39,-0.5 20.39,-19.5 85.39,-19.5 85.39,-0.5 20.39,-0.5"/>
<text text-anchor="middle" x="52.89" y="-7.5" font-family="Helvetica,sans-Serif" font-size="10.00">exception</text>
</a>
</g>
</g>
<!-- Node12&#45;&gt;Node13 -->
<g id="edge16" class="edge">
<title>Node12&#45;&gt;Node13</title>
<path fill="none" stroke="midnightblue" d="M87.12,-56.08C81.32,-48.46 72.83,-37.26 65.75,-27.94"/>
<polygon fill="midnightblue" stroke="midnightblue" points="68.36,-25.6 59.53,-19.75 62.79,-29.83 68.36,-25.6"/>
</g>
<!-- Node14 -->
<g id="node14" class="node">
<title>Node14</title>
<g id="a_node14"><a xlink:title=" ">
<polygon fill="white" stroke="#bfbfbf" points="103.39,-0.5 103.39,-19.5 168.39,-19.5 168.39,-0.5 103.39,-0.5"/>
<text text-anchor="middle" x="135.89" y="-7.5" font-family="Helvetica,sans-Serif" font-size="10.00">stdexcept</text>
</a>
</g>
</g>
<!-- Node12&#45;&gt;Node14 -->
<g id="edge17" class="edge">
<title>Node12&#45;&gt;Node14</title>
<path fill="none" stroke="midnightblue" d="M100.82,-56.08C106.81,-48.38 115.64,-37.03 122.93,-27.65"/>
<polygon fill="midnightblue" stroke="midnightblue" points="125.7,-29.79 129.08,-19.75 120.18,-25.5 125.7,-29.79"/>
</g>
<!-- Node16&#45;&gt;Node4 -->
<g id="edge22" class="edge">
<title>Node16&#45;&gt;Node4</title>
<path fill="none" stroke="midnightblue" d="M426.71,-299.95C357.9,-298.22 186.89,-283.4 186.89,-179 186.89,-179 186.89,-179 186.89,-121 186.89,-75.21 235.13,-41.49 267.13,-24.16"/>
<polygon fill="midnightblue" stroke="midnightblue" points="268.82,-27.23 276.07,-19.51 265.59,-21.02 268.82,-27.23"/>
</g>
<!-- Node16&#45;&gt;Node5 -->
<g id="edge25" class="edge">
<title>Node16&#45;&gt;Node5</title>
<path fill="none" stroke="midnightblue" d="M440.63,-291.35C414.17,-274.59 357.21,-235.19 324.89,-188 302.71,-155.62 290.7,-110.56 285.36,-85.56"/>
<polygon fill="midnightblue" stroke="midnightblue" points="288.76,-84.73 283.36,-75.61 281.9,-86.1 288.76,-84.73"/>
</g>
<!-- Node16&#45;&gt;Node8 -->
<g id="edge23" class="edge">
<title>Node16&#45;&gt;Node8</title>
<path fill="none" stroke="midnightblue" d="M426.68,-298.12C365.27,-292.33 224.89,-269.24 224.89,-179 224.89,-179 224.89,-179 224.89,-121 224.89,-90.9 221.41,-76.02 243.89,-56 277.69,-25.89 412.83,-15.55 475.57,-12.32"/>
<polygon fill="midnightblue" stroke="midnightblue" points="475.88,-15.81 485.7,-11.83 475.54,-8.82 475.88,-15.81"/>
</g>
<!-- Node16&#45;&gt;Node10 -->
<g id="edge24" class="edge">
<title>Node16&#45;&gt;Node10</title>
<path fill="none" stroke="midnightblue" d="M483.06,-293.55C554.4,-276.28 745.97,-223.95 879.89,-132 899.63,-118.45 918.19,-98 929.98,-83.67"/>
<polygon fill="midnightblue" stroke="midnightblue" points="932.88,-85.64 936.4,-75.65 927.41,-81.27 932.88,-85.64"/>
</g>
<!-- Node16&#45;&gt;Node12 -->
<g id="edge26" class="edge">
<title>Node16&#45;&gt;Node12</title>
<path fill="none" stroke="midnightblue" d="M426.86,-298.92C363.57,-295.96 212.08,-285.77 172.89,-255 118.38,-212.2 101.04,-124.93 95.9,-86.23"/>
<polygon fill="midnightblue" stroke="midnightblue" points="99.32,-85.39 94.66,-75.88 92.37,-86.22 99.32,-85.39"/>
</g>
<!-- Node17 -->
<g id="node17" class="node">
<title>Node17</title>
<g id="a_node17"><a xlink:title=" ">
<polygon fill="white" stroke="#bfbfbf" points="367.39,-112.5 367.39,-131.5 412.39,-131.5 412.39,-112.5 367.39,-112.5"/>
<text text-anchor="middle" x="389.89" y="-119.5" font-family="Helvetica,sans-Serif" font-size="10.00">utility</text>
</a>
</g>
</g>
<!-- Node16&#45;&gt;Node17 -->
<g id="edge21" class="edge">
<title>Node16&#45;&gt;Node17</title>
<path fill="none" stroke="midnightblue" d="M448.7,-291.23C436.21,-273.01 408.14,-229.3 395.89,-188 391.4,-172.87 390.02,-154.98 389.69,-141.8"/>
<polygon fill="midnightblue" stroke="midnightblue" points="393.19,-141.59 389.62,-131.61 386.19,-141.64 393.19,-141.59"/>
</g>
<!-- Node16&#45;&gt;Node18 -->
<g id="edge27" class="edge">
<title>Node16&#45;&gt;Node18</title>
<path fill="none" stroke="midnightblue" d="M482.92,-294.77C535.34,-284.99 649.11,-263.77 717.83,-250.95"/>
<polygon fill="midnightblue" stroke="midnightblue" points="718.86,-254.32 728.05,-249.05 717.57,-247.44 718.86,-254.32"/>
</g>
<!-- Node24 -->
<g id="node24" class="node">
<title>Node24</title>
<g id="a_node24"><a xlink:href="Callback_8hpp.html" target="_top" xlink:title=" ">
<polygon fill="white" stroke="black" points="404.89,-168.5 404.89,-187.5 522.89,-187.5 522.89,-168.5 404.89,-168.5"/>
<text text-anchor="middle" x="463.89" y="-175.5" font-family="Helvetica,sans-Serif" font-size="10.00">Models/Callback.hpp</text>
</a>
</g>
</g>
<!-- Node16&#45;&gt;Node24 -->
<g id="edge38" class="edge">
<title>Node16&#45;&gt;Node24</title>
<path fill="none" stroke="midnightblue" d="M455.53,-291.3C456.98,-271.85 460.5,-224.49 462.48,-197.9"/>
<polygon fill="midnightblue" stroke="midnightblue" points="465.99,-197.86 463.24,-187.62 459.01,-197.34 465.99,-197.86"/>
</g>
<!-- Node25 -->
<g id="node25" class="node">
<title>Node25</title>
<g id="a_node25"><a xlink:href="Scene_8hpp.html" target="_top" xlink:title=" ">
<polygon fill="white" stroke="black" points="483.39,-230 483.39,-249 582.39,-249 582.39,-230 483.39,-230"/>
<text text-anchor="middle" x="532.89" y="-237" font-family="Helvetica,sans-Serif" font-size="10.00">Scene/Scene.hpp</text>
</a>
</g>
</g>
<!-- Node16&#45;&gt;Node25 -->
<g id="edge42" class="edge">
<title>Node16&#45;&gt;Node25</title>
<path fill="none" stroke="midnightblue" d="M466.06,-291.48C478.46,-282.02 498.68,-266.6 513.63,-255.19"/>
<polygon fill="midnightblue" stroke="midnightblue" points="515.9,-257.86 521.73,-249.01 511.66,-252.29 515.9,-257.86"/>
</g>
<!-- Node18&#45;&gt;Node3 -->
<g id="edge37" class="edge">
<title>Node18&#45;&gt;Node3</title>
<path fill="none" stroke="midnightblue" d="M817.01,-229.98C876.88,-218.14 984.03,-196.96 1039.48,-186"/>
<polygon fill="midnightblue" stroke="midnightblue" points="1040.4,-189.38 1049.53,-184.01 1039.04,-182.52 1040.4,-189.38"/>
</g>
<!-- Node18&#45;&gt;Node7 -->
<g id="edge28" class="edge">
<title>Node18&#45;&gt;Node7</title>
<path fill="none" stroke="midnightblue" d="M777.57,-229.82C785.51,-211.09 804.41,-166.55 815.13,-141.29"/>
<polygon fill="midnightblue" stroke="midnightblue" points="818.48,-142.35 819.16,-131.78 812.03,-139.62 818.48,-142.35"/>
</g>
<!-- Node18&#45;&gt;Node19 -->
<g id="edge29" class="edge">
<title>Node18&#45;&gt;Node19</title>
<path fill="none" stroke="midnightblue" d="M757.7,-229.98C738.98,-220.12 707.96,-203.79 686.09,-192.27"/>
<polygon fill="midnightblue" stroke="midnightblue" points="687.52,-189.07 677.05,-187.51 684.26,-195.27 687.52,-189.07"/>
</g>
<!-- Node19&#45;&gt;Node6 -->
<g id="edge32" class="edge">
<title>Node19&#45;&gt;Node6</title>
<path fill="none" stroke="midnightblue" d="M679.71,-168.4C694.6,-160.73 714.98,-148.23 727.89,-132 750.39,-103.71 728.67,-78.6 756.89,-56 797.28,-23.66 948.92,-14.53 1024.09,-11.98"/>
<polygon fill="midnightblue" stroke="midnightblue" points="1024.29,-15.48 1034.17,-11.66 1024.07,-8.48 1024.29,-15.48"/>
</g>
<!-- Node19&#45;&gt;Node7 -->
<g id="edge36" class="edge">
<title>Node19&#45;&gt;Node7</title>
<path fill="none" stroke="midnightblue" d="M686.55,-168.44C713.81,-159.36 757.07,-144.94 787.54,-134.78"/>
<polygon fill="midnightblue" stroke="midnightblue" points="788.96,-138 797.34,-131.52 786.74,-131.36 788.96,-138"/>
</g>
<!-- Node19&#45;&gt;Node17 -->
<g id="edge34" class="edge">
<title>Node19&#45;&gt;Node17</title>
<path fill="none" stroke="midnightblue" d="M617.94,-168.44C563.72,-157.64 471.6,-139.28 422.68,-129.54"/>
<polygon fill="midnightblue" stroke="midnightblue" points="423.14,-126.06 412.65,-127.54 421.77,-132.92 423.14,-126.06"/>
</g>
<!-- Node20 -->
<g id="node20" class="node">
<title>Node20</title>
<g id="a_node20"><a xlink:title=" ">
<polygon fill="white" stroke="#bfbfbf" points="552.89,-112.5 552.89,-131.5 584.89,-131.5 584.89,-112.5 552.89,-112.5"/>
<text text-anchor="middle" x="568.89" y="-119.5" font-family="Helvetica,sans-Serif" font-size="10.00">list</text>
</a>
</g>
</g>
<!-- Node19&#45;&gt;Node20 -->
<g id="edge30" class="edge">
<title>Node19&#45;&gt;Node20</title>
<path fill="none" stroke="midnightblue" d="M646.1,-168.32C631.62,-159.82 609.31,-146.73 592.39,-136.8"/>
<polygon fill="midnightblue" stroke="midnightblue" points="594.03,-133.7 583.63,-131.65 590.48,-139.74 594.03,-133.7"/>
</g>
<!-- Node21 -->
<g id="node21" class="node">
<title>Node21</title>
<g id="a_node21"><a xlink:title=" ">
<polygon fill="white" stroke="#bfbfbf" points="603.39,-112.5 603.39,-131.5 644.39,-131.5 644.39,-112.5 603.39,-112.5"/>
<text text-anchor="middle" x="623.89" y="-119.5" font-family="Helvetica,sans-Serif" font-size="10.00">tuple</text>
</a>
</g>
</g>
<!-- Node19&#45;&gt;Node21 -->
<g id="edge31" class="edge">
<title>Node19&#45;&gt;Node21</title>
<path fill="none" stroke="midnightblue" d="M654.78,-168.08C649.6,-160.53 642.04,-149.49 635.69,-140.23"/>
<polygon fill="midnightblue" stroke="midnightblue" points="638.42,-138.02 629.88,-131.75 632.65,-141.98 638.42,-138.02"/>
</g>
<!-- Node22 -->
<g id="node22" class="node">
<title>Node22</title>
<g id="a_node22"><a xlink:title=" ">
<polygon fill="white" stroke="#bfbfbf" points="469.39,-112.5 469.39,-131.5 534.39,-131.5 534.39,-112.5 469.39,-112.5"/>
<text text-anchor="middle" x="501.89" y="-119.5" font-family="Helvetica,sans-Serif" font-size="10.00">functional</text>
</a>
</g>
</g>
<!-- Node19&#45;&gt;Node22 -->
<g id="edge33" class="edge">
<title>Node19&#45;&gt;Node22</title>
<path fill="none" stroke="midnightblue" d="M635.69,-168.44C608.94,-159.36 566.48,-144.94 536.58,-134.78"/>
<polygon fill="midnightblue" stroke="midnightblue" points="537.56,-131.42 526.96,-131.52 535.3,-138.05 537.56,-131.42"/>
</g>
<!-- Node23 -->
<g id="node23" class="node">
<title>Node23</title>
<g id="a_node23"><a xlink:title=" ">
<polygon fill="white" stroke="#bfbfbf" points="662.89,-112.5 662.89,-131.5 718.89,-131.5 718.89,-112.5 662.89,-112.5"/>
<text text-anchor="middle" x="690.89" y="-119.5" font-family="Helvetica,sans-Serif" font-size="10.00">optional</text>
</a>
</g>
</g>
<!-- Node19&#45;&gt;Node23 -->
<g id="edge35" class="edge">
<title>Node19&#45;&gt;Node23</title>
<path fill="none" stroke="midnightblue" d="M665.84,-168.08C669.99,-160.61 676.04,-149.72 681.15,-140.52"/>
<polygon fill="midnightblue" stroke="midnightblue" points="684.23,-142.19 686.02,-131.75 678.11,-138.79 684.23,-142.19"/>
</g>
<!-- Node24&#45;&gt;Node9 -->
<g id="edge41" class="edge">
<title>Node24&#45;&gt;Node9</title>
<path fill="none" stroke="midnightblue" d="M461.36,-168.33C458.1,-155.62 453.55,-131.34 459.89,-112 463.38,-101.34 470.46,-91.12 477.17,-83.12"/>
<polygon fill="midnightblue" stroke="midnightblue" points="479.79,-85.44 483.87,-75.66 474.58,-80.76 479.79,-85.44"/>
</g>
<!-- Node24&#45;&gt;Node17 -->
<g id="edge40" class="edge">
<title>Node24&#45;&gt;Node17</title>
<path fill="none" stroke="midnightblue" d="M452,-168.32C440.74,-160.11 423.6,-147.6 410.18,-137.81"/>
<polygon fill="midnightblue" stroke="midnightblue" points="412.13,-134.9 401.99,-131.83 408.01,-140.56 412.13,-134.9"/>
</g>
<!-- Node24&#45;&gt;Node22 -->
<g id="edge39" class="edge">
<title>Node24&#45;&gt;Node22</title>
<path fill="none" stroke="midnightblue" d="M470.16,-168.08C475.53,-160.46 483.4,-149.26 489.96,-139.94"/>
<polygon fill="midnightblue" stroke="midnightblue" points="492.83,-141.94 495.73,-131.75 487.11,-137.91 492.83,-141.94"/>
</g>
<!-- Node25&#45;&gt;Node4 -->
<g id="edge43" class="edge">
<title>Node25&#45;&gt;Node4</title>
<path fill="none" stroke="midnightblue" d="M489.96,-229.94C461.1,-222.55 423.44,-209.55 395.89,-188 342.39,-146.15 350.37,-116.18 318.89,-56 314.16,-46.96 308.83,-36.95 304.39,-28.67"/>
<polygon fill="midnightblue" stroke="midnightblue" points="307.34,-26.76 299.53,-19.61 301.17,-30.07 307.34,-26.76"/>
</g>
<!-- Node25&#45;&gt;Node7 -->
<g id="edge47" class="edge">
<title>Node25&#45;&gt;Node7</title>
<path fill="none" stroke="midnightblue" d="M575.66,-229.94C613.04,-221.67 668.31,-207.53 713.89,-188 746.52,-174.01 781.26,-151.88 802.53,-137.4"/>
<polygon fill="midnightblue" stroke="midnightblue" points="804.79,-140.08 811.03,-131.52 800.81,-134.33 804.79,-140.08"/>
</g>
<!-- Node25&#45;&gt;Node19 -->
<g id="edge46" class="edge">
<title>Node25&#45;&gt;Node19</title>
<path fill="none" stroke="midnightblue" d="M551.22,-229.98C572.71,-219.99 608.51,-203.35 633.33,-191.81"/>
<polygon fill="midnightblue" stroke="midnightblue" points="634.99,-194.9 642.58,-187.51 632.04,-188.55 634.99,-194.9"/>
</g>
<!-- Node25&#45;&gt;Node20 -->
<g id="edge44" class="edge">
<title>Node25&#45;&gt;Node20</title>
<path fill="none" stroke="midnightblue" d="M535.59,-229.82C541.4,-211.17 555.19,-166.94 563.08,-141.63"/>
<polygon fill="midnightblue" stroke="midnightblue" points="566.51,-142.37 566.15,-131.78 559.83,-140.29 566.51,-142.37"/>
</g>
<!-- Node25&#45;&gt;Node22 -->
<g id="edge45" class="edge">
<title>Node25&#45;&gt;Node22</title>
<path fill="none" stroke="midnightblue" d="M534.34,-229.57C536.21,-215.93 538.49,-189.28 531.89,-168 528.65,-157.6 522.19,-147.38 516.09,-139.32"/>
<polygon fill="midnightblue" stroke="midnightblue" points="518.78,-137.08 509.77,-131.51 513.34,-141.48 518.78,-137.08"/>
</g>
<!-- Node27&#45;&gt;Node26 -->
<g id="edge53" class="edge">
<title>Node27&#45;&gt;Node26</title>
<path fill="none" stroke="midnightblue" d="M1599.76,-291.46C1567.44,-282.92 1516.97,-269.08 1473.89,-255 1471.48,-254.21 1469.01,-253.37 1466.52,-252.5"/>
<polygon fill="midnightblue" stroke="midnightblue" points="1467.65,-249.19 1457.05,-249.09 1465.27,-255.77 1467.65,-249.19"/>
</g>
<!-- Node28 -->
<g id="node28" class="node">
<title>Node28</title>
<g id="a_node28"><a xlink:title=" ">
<polygon fill="white" stroke="#bfbfbf" points="1609.39,-230 1609.39,-249 1656.39,-249 1656.39,-230 1609.39,-230"/>
<text text-anchor="middle" x="1632.89" y="-237" font-family="Helvetica,sans-Serif" font-size="10.00">cmath</text>
</a>
</g>
</g>
<!-- Node27&#45;&gt;Node28 -->
<g id="edge54" class="edge">
<title>Node27&#45;&gt;Node28</title>
<path fill="none" stroke="midnightblue" d="M1632.89,-291.48C1632.89,-283.08 1632.89,-269.98 1632.89,-259.16"/>
<polygon fill="midnightblue" stroke="midnightblue" points="1636.39,-259.01 1632.89,-249.01 1629.39,-259.01 1636.39,-259.01"/>
</g>
<!-- Node29 -->
<g id="node29" class="node">
<title>Node29</title>
<g id="a_node29"><a xlink:href="lib_2Ray_2sources_2Vector_2Vector3_8hpp.html" target="_top" xlink:title=" ">
<polygon fill="white" stroke="black" points="1674.89,-230 1674.89,-249 1782.89,-249 1782.89,-230 1674.89,-230"/>
<text text-anchor="middle" x="1728.89" y="-237" font-family="Helvetica,sans-Serif" font-size="10.00">Vector/Vector3.hpp</text>
</a>
</g>
</g>
<!-- Node27&#45;&gt;Node29 -->
<g id="edge55" class="edge">
<title>Node27&#45;&gt;Node29</title>
<path fill="none" stroke="midnightblue" d="M1646.64,-291.48C1662.25,-281.8 1687.95,-265.87 1706.47,-254.39"/>
<polygon fill="midnightblue" stroke="midnightblue" points="1708.5,-257.25 1715.16,-249.01 1704.81,-251.3 1708.5,-257.25"/>
</g>
<!-- Node30 -->
<g id="node30" class="node">
<title>Node30</title>
<g id="a_node30"><a xlink:title=" ">
<polygon fill="white" stroke="#bfbfbf" points="1606.39,-168.5 1606.39,-187.5 1659.39,-187.5 1659.39,-168.5 1606.39,-168.5"/>
<text text-anchor="middle" x="1632.89" y="-175.5" font-family="Helvetica,sans-Serif" font-size="10.00">raylib.h</text>
</a>
</g>
</g>
<!-- Node29&#45;&gt;Node30 -->
<g id="edge56" class="edge">
<title>Node29&#45;&gt;Node30</title>
<path fill="none" stroke="midnightblue" d="M1715.13,-229.98C1699.52,-220.3 1673.82,-204.37 1655.3,-192.89"/>
<polygon fill="midnightblue" stroke="midnightblue" points="1656.96,-189.8 1646.61,-187.51 1653.27,-195.75 1656.96,-189.8"/>
</g>
<!-- Node31&#45;&gt;Node3 -->
<g id="edge60" class="edge">
<title>Node31&#45;&gt;Node3</title>
<path fill="none" stroke="midnightblue" d="M1190.1,-224.4C1164.65,-214.37 1130.79,-201.03 1106.37,-191.4"/>
<polygon fill="midnightblue" stroke="midnightblue" points="1107.44,-188.07 1096.86,-187.66 1104.88,-194.58 1107.44,-188.07"/>
</g>
<!-- Node31&#45;&gt;Node7 -->
<g id="edge59" class="edge">
<title>Node31&#45;&gt;Node7</title>
<path fill="none" stroke="midnightblue" d="M1207.58,-224.36C1185.47,-208.04 1146.55,-181.71 1108.89,-168 1033.25,-140.46 940.33,-129.77 881.35,-125.62"/>
<polygon fill="midnightblue" stroke="midnightblue" points="881.31,-122.11 871.1,-124.94 880.85,-129.09 881.31,-122.11"/>
</g>
<!-- Node31&#45;&gt;Node11 -->
<g id="edge58" class="edge">
<title>Node31&#45;&gt;Node11</title>
<path fill="none" stroke="midnightblue" d="M1212.87,-224.47C1183.61,-192.9 1112.75,-116.47 1081.79,-83.07"/>
<polygon fill="midnightblue" stroke="midnightblue" points="1084.19,-80.51 1074.82,-75.56 1079.05,-85.27 1084.19,-80.51"/>
</g>
<!-- Node32&#45;&gt;Node3 -->
<g id="edge69" class="edge">
<title>Node32&#45;&gt;Node3</title>
<path fill="none" stroke="midnightblue" d="M1145.05,-347.48C1131.44,-314.82 1097.64,-233.65 1082.47,-197.21"/>
<polygon fill="midnightblue" stroke="midnightblue" points="1085.63,-195.7 1078.56,-187.82 1079.17,-198.4 1085.63,-195.7"/>
</g>
<!-- Node32&#45;&gt;Node7 -->
<g id="edge68" class="edge">
<title>Node32&#45;&gt;Node7</title>
<path fill="none" stroke="midnightblue" d="M1072.86,-347.76C1013.34,-333.64 932.84,-306.23 879.89,-255 847.24,-223.42 832.21,-170.06 826.24,-141.83"/>
<polygon fill="midnightblue" stroke="midnightblue" points="829.62,-140.85 824.27,-131.71 822.75,-142.19 829.62,-140.85"/>
</g>
<!-- Node32&#45;&gt;Node11 -->
<g id="edge67" class="edge">
<title>Node32&#45;&gt;Node11</title>
<path fill="none" stroke="midnightblue" d="M1197.25,-347.46C1257.86,-326.45 1352.66,-282.92 1319.89,-224 1274.51,-142.44 1167.29,-97.83 1108.03,-78.62"/>
<polygon fill="midnightblue" stroke="midnightblue" points="1108.84,-75.2 1098.25,-75.54 1106.74,-81.88 1108.84,-75.2"/>
</g>
<!-- Node33 -->
<g id="node33" class="node">
<title>Node33</title>
<g id="a_node33"><a xlink:href="sources_2Models_2Vector2_8hpp.html" target="_top" xlink:title=" ">
<polygon fill="white" stroke="black" points="1445.39,-291.5 1445.39,-310.5 1558.39,-310.5 1558.39,-291.5 1445.39,-291.5"/>
<text text-anchor="middle" x="1501.89" y="-298.5" font-family="Helvetica,sans-Serif" font-size="10.00">Models/Vector2.hpp</text>
</a>
</g>
</g>
<!-- Node32&#45;&gt;Node33 -->
<g id="edge62" class="edge">
<title>Node32&#45;&gt;Node33</title>
<path fill="none" stroke="midnightblue" d="M1229.22,-348.22C1293.49,-337.33 1383.15,-322.13 1441.84,-312.18"/>
<polygon fill="midnightblue" stroke="midnightblue" points="1442.43,-315.63 1451.7,-310.51 1441.26,-308.73 1442.43,-315.63"/>
</g>
<!-- Node33&#45;&gt;Node26 -->
<g id="edge63" class="edge">
<title>Node33&#45;&gt;Node26</title>
<path fill="none" stroke="midnightblue" d="M1492.29,-291.48C1481.84,-282.2 1464.92,-267.17 1452.15,-255.83"/>
<polygon fill="midnightblue" stroke="midnightblue" points="1454.27,-253.03 1444.47,-249.01 1449.62,-258.27 1454.27,-253.03"/>
</g>
<!-- Node33&#45;&gt;Node28 -->
<g id="edge64" class="edge">
<title>Node33&#45;&gt;Node28</title>
<path fill="none" stroke="midnightblue" d="M1520.65,-291.48C1542.74,-281.45 1579.6,-264.7 1605.02,-253.15"/>
<polygon fill="midnightblue" stroke="midnightblue" points="1606.49,-256.33 1614.15,-249.01 1603.6,-249.96 1606.49,-256.33"/>
</g>
<!-- Node34 -->
<g id="node34" class="node">
<title>Node34</title>
<g id="a_node34"><a xlink:href="lib_2Ray_2sources_2Vector_2Vector2_8hpp.html" target="_top" xlink:title=" ">
<polygon fill="white" stroke="black" points="1482.89,-230 1482.89,-249 1590.89,-249 1590.89,-230 1482.89,-230"/>
<text text-anchor="middle" x="1536.89" y="-237" font-family="Helvetica,sans-Serif" font-size="10.00">Vector/Vector2.hpp</text>
</a>
</g>
</g>
<!-- Node33&#45;&gt;Node34 -->
<g id="edge65" class="edge">
<title>Node33&#45;&gt;Node34</title>
<path fill="none" stroke="midnightblue" d="M1506.9,-291.48C1512.05,-282.73 1520.2,-268.87 1526.7,-257.81"/>
<polygon fill="midnightblue" stroke="midnightblue" points="1529.83,-259.4 1531.88,-249.01 1523.79,-255.85 1529.83,-259.4"/>
</g>
<!-- Node34&#45;&gt;Node30 -->
<g id="edge66" class="edge">
<title>Node34&#45;&gt;Node30</title>
<path fill="none" stroke="midnightblue" d="M1550.64,-229.98C1566.25,-220.3 1591.95,-204.37 1610.47,-192.89"/>
<polygon fill="midnightblue" stroke="midnightblue" points="1612.5,-195.75 1619.16,-187.51 1608.81,-189.8 1612.5,-195.75"/>
</g>
<!-- Node35&#45;&gt;Node3 -->
<g id="edge73" class="edge">
<title>Node35&#45;&gt;Node3</title>
<path fill="none" stroke="midnightblue" d="M993.24,-224.4C1010.55,-214.77 1033.36,-202.09 1050.47,-192.58"/>
<polygon fill="midnightblue" stroke="midnightblue" points="1052.28,-195.58 1059.32,-187.66 1048.88,-189.46 1052.28,-195.58"/>
</g>
<!-- Node35&#45;&gt;Node7 -->
<g id="edge72" class="edge">
<title>Node35&#45;&gt;Node7</title>
<path fill="none" stroke="midnightblue" d="M950.11,-224.34C922.56,-202.39 869.8,-160.37 841.66,-137.95"/>
<polygon fill="midnightblue" stroke="midnightblue" points="843.77,-135.16 833.77,-131.67 839.41,-140.64 843.77,-135.16"/>
</g>
<!-- Node35&#45;&gt;Node11 -->
<g id="edge71" class="edge">
<title>Node35&#45;&gt;Node11</title>
<path fill="none" stroke="midnightblue" d="M975.99,-224.47C993.98,-193.3 1037.21,-118.41 1056.86,-84.37"/>
<polygon fill="midnightblue" stroke="midnightblue" points="1059.98,-85.97 1061.94,-75.56 1053.91,-82.47 1059.98,-85.97"/>
</g>
</g>
</svg>
