<?xml version="1.0" encoding="UTF-8" standalone="no"?>
<!DOCTYPE svg PUBLIC "-//W3C//DTD SVG 1.1//EN"
 "http://www.w3.org/Graphics/SVG/1.1/DTD/svg11.dtd">
<!-- Generated by graphviz version 2.43.0 (0)
 -->
<!-- Title: sources/System/Bonus/PlayerBonusSystem.cpp Pages: 1 -->
<svg width="1911pt" height="509pt"
 viewBox="0.00 0.00 1911.44 509.00" xmlns="http://www.w3.org/2000/svg" xmlns:xlink="http://www.w3.org/1999/xlink">
<g id="graph0" class="graph" transform="scale(1 1) rotate(0) translate(4 505)">
<title>sources/System/Bonus/PlayerBonusSystem.cpp</title>
<polygon fill="white" stroke="transparent" points="-4,4 -4,-505 1907.44,-505 1907.44,4 -4,4"/>
<!-- Node1 -->
<g id="node1" class="node">
<title>Node1</title>
<g id="a_node1"><a xlink:title=" ">
<polygon fill="#bfbfbf" stroke="black" points="626.94,-470.5 626.94,-500.5 763.94,-500.5 763.94,-470.5 626.94,-470.5"/>
<text text-anchor="start" x="634.94" y="-488.5" font-family="Helvetica,sans-Serif" font-size="10.00">sources/System/Bonus</text>
<text text-anchor="middle" x="695.44" y="-477.5" font-family="Helvetica,sans-Serif" font-size="10.00">/PlayerBonusSystem.cpp</text>
</a>
</g>
</g>
<!-- Node2 -->
<g id="node2" class="node">
<title>Node2</title>
<g id="a_node2"><a xlink:href="PlayerBonusSystem_8hpp.html" target="_top" xlink:title=" ">
<polygon fill="white" stroke="black" points="627.94,-414.5 627.94,-433.5 762.94,-433.5 762.94,-414.5 627.94,-414.5"/>
<text text-anchor="middle" x="695.44" y="-421.5" font-family="Helvetica,sans-Serif" font-size="10.00">PlayerBonusSystem.hpp</text>
</a>
</g>
</g>
<!-- Node1&#45;&gt;Node2 -->
<g id="edge1" class="edge">
<title>Node1&#45;&gt;Node2</title>
<path fill="none" stroke="midnightblue" d="M695.44,-470.4C695.44,-462.47 695.44,-452.46 695.44,-443.86"/>
<polygon fill="midnightblue" stroke="midnightblue" points="698.94,-443.66 695.44,-433.66 691.94,-443.66 698.94,-443.66"/>
</g>
<!-- Node37 -->
<g id="node37" class="node">
<title>Node37</title>
<g id="a_node37"><a xlink:href="PositionComponent_8hpp.html" target="_top" xlink:title=" ">
<polygon fill="white" stroke="black" points="102.44,-224.5 102.44,-254.5 238.44,-254.5 238.44,-224.5 102.44,-224.5"/>
<text text-anchor="start" x="110.44" y="-242.5" font-family="Helvetica,sans-Serif" font-size="10.00">Component/Position</text>
<text text-anchor="middle" x="170.44" y="-231.5" font-family="Helvetica,sans-Serif" font-size="10.00">/PositionComponent.hpp</text>
</a>
</g>
</g>
<!-- Node1&#45;&gt;Node37 -->
<g id="edge75" class="edge">
<title>Node1&#45;&gt;Node37</title>
<path fill="none" stroke="midnightblue" d="M626.88,-483.3C489.26,-480.16 184.22,-469.33 86.44,-434 45.62,-419.25 26.48,-416.5 6.44,-378 -22.57,-322.28 58.29,-280.18 116.53,-258.02"/>
<polygon fill="midnightblue" stroke="midnightblue" points="117.87,-261.25 126.03,-254.5 115.44,-254.69 117.87,-261.25"/>
</g>
<!-- Node38 -->
<g id="node38" class="node">
<title>Node38</title>
<g id="a_node38"><a xlink:href="HealthComponent_8hpp.html" target="_top" xlink:title=" ">
<polygon fill="white" stroke="black" points="1447.44,-347.5 1447.44,-377.5 1593.44,-377.5 1593.44,-347.5 1447.44,-347.5"/>
<text text-anchor="start" x="1455.44" y="-365.5" font-family="Helvetica,sans-Serif" font-size="10.00">Component/Health//Health</text>
<text text-anchor="middle" x="1520.44" y="-354.5" font-family="Helvetica,sans-Serif" font-size="10.00">Component.hpp</text>
</a>
</g>
</g>
<!-- Node1&#45;&gt;Node38 -->
<g id="edge78" class="edge">
<title>Node1&#45;&gt;Node38</title>
<path fill="none" stroke="midnightblue" d="M764.27,-481.88C869.64,-477.06 1076.98,-464.32 1250.44,-434 1326.37,-420.73 1412.2,-396.72 1466.31,-380.45"/>
<polygon fill="midnightblue" stroke="midnightblue" points="1467.47,-383.75 1476.03,-377.51 1465.44,-377.06 1467.47,-383.75"/>
</g>
<!-- Node39 -->
<g id="node39" class="node">
<title>Node39</title>
<g id="a_node39"><a xlink:href="TagComponent_8hpp.html" target="_top" xlink:title=" ">
<polygon fill="white" stroke="black" points="95.94,-414.5 95.94,-433.5 284.94,-433.5 284.94,-414.5 95.94,-414.5"/>
<text text-anchor="middle" x="190.44" y="-421.5" font-family="Helvetica,sans-Serif" font-size="10.00">Component/Tag/TagComponent.hpp</text>
</a>
</g>
</g>
<!-- Node1&#45;&gt;Node39 -->
<g id="edge83" class="edge">
<title>Node1&#45;&gt;Node39</title>
<path fill="none" stroke="midnightblue" d="M626.81,-476.41C534.73,-465.57 371.42,-446.32 272.82,-434.71"/>
<polygon fill="midnightblue" stroke="midnightblue" points="272.94,-431.2 262.6,-433.5 272.12,-438.15 272.94,-431.2"/>
</g>
<!-- Node41 -->
<g id="node41" class="node">
<title>Node41</title>
<g id="a_node41"><a xlink:href="CollisionComponent_8hpp.html" target="_top" xlink:title=" ">
<polygon fill="white" stroke="black" points="1196.94,-224.5 1196.94,-254.5 1335.94,-254.5 1335.94,-224.5 1196.94,-224.5"/>
<text text-anchor="start" x="1204.94" y="-242.5" font-family="Helvetica,sans-Serif" font-size="10.00">Component/Collision</text>
<text text-anchor="middle" x="1266.44" y="-231.5" font-family="Helvetica,sans-Serif" font-size="10.00">/CollisionComponent.hpp</text>
</a>
</g>
</g>
<!-- Node1&#45;&gt;Node41 -->
<g id="edge86" class="edge">
<title>Node1&#45;&gt;Node41</title>
<path fill="none" stroke="midnightblue" d="M746.78,-470.4C835.37,-445.03 1021.39,-387.16 1166.44,-311 1193.47,-296.81 1221.67,-276.33 1241.21,-261.1"/>
<polygon fill="midnightblue" stroke="midnightblue" points="1243.6,-263.66 1249.28,-254.71 1239.26,-258.17 1243.6,-263.66"/>
</g>
<!-- Node3 -->
<g id="node3" class="node">
<title>Node3</title>
<g id="a_node3"><a xlink:href="System_8hpp.html" target="_top" xlink:title=" ">
<polygon fill="white" stroke="black" points="805.44,-353 805.44,-372 919.44,-372 919.44,-353 805.44,-353"/>
<text text-anchor="middle" x="862.44" y="-360" font-family="Helvetica,sans-Serif" font-size="10.00">System/System.hpp</text>
</a>
</g>
</g>
<!-- Node2&#45;&gt;Node3 -->
<g id="edge2" class="edge">
<title>Node2&#45;&gt;Node3</title>
<path fill="none" stroke="midnightblue" d="M719.37,-414.48C748.14,-404.22 796.6,-386.96 829.04,-375.4"/>
<polygon fill="midnightblue" stroke="midnightblue" points="830.31,-378.66 838.56,-372.01 827.96,-372.07 830.31,-378.66"/>
</g>
<!-- Node17 -->
<g id="node17" class="node">
<title>Node17</title>
<g id="a_node17"><a xlink:href="Wal_8hpp.html" target="_top" xlink:title=" ">
<polygon fill="white" stroke="black" points="1548.44,-291.5 1548.44,-310.5 1604.44,-310.5 1604.44,-291.5 1548.44,-291.5"/>
<text text-anchor="middle" x="1576.44" y="-298.5" font-family="Helvetica,sans-Serif" font-size="10.00">Wal.hpp</text>
</a>
</g>
</g>
<!-- Node2&#45;&gt;Node17 -->
<g id="edge52" class="edge">
<title>Node2&#45;&gt;Node17</title>
<path fill="none" stroke="midnightblue" d="M757.39,-414.49C927.83,-391.08 1400.21,-326.2 1538.15,-307.26"/>
<polygon fill="midnightblue" stroke="midnightblue" points="1538.81,-310.7 1548.24,-305.87 1537.86,-303.77 1538.81,-310.7"/>
</g>
<!-- Node28 -->
<g id="node28" class="node">
<title>Node28</title>
<g id="a_node28"><a xlink:href="sources_2Models_2Vector3_8hpp.html" target="_top" xlink:title=" ">
<polygon fill="white" stroke="black" points="113.94,-168.5 113.94,-187.5 226.94,-187.5 226.94,-168.5 113.94,-168.5"/>
<text text-anchor="middle" x="170.44" y="-175.5" font-family="Helvetica,sans-Serif" font-size="10.00">Models/Vector3.hpp</text>
</a>
</g>
</g>
<!-- Node2&#45;&gt;Node28 -->
<g id="edge53" class="edge">
<title>Node2&#45;&gt;Node28</title>
<path fill="none" stroke="midnightblue" d="M628.64,-414.48C485.87,-394.74 158.68,-340.94 93.44,-255 85.11,-244.03 86.58,-235.95 93.44,-224 102.06,-208.99 117.83,-198.5 132.87,-191.46"/>
<polygon fill="midnightblue" stroke="midnightblue" points="134.26,-194.67 142.07,-187.51 131.5,-188.24 134.26,-194.67"/>
</g>
<!-- Node32 -->
<g id="node32" class="node">
<title>Node32</title>
<g id="a_node32"><a xlink:href="PlayerBonusComponent_8hpp.html" target="_top" xlink:title=" ">
<polygon fill="white" stroke="black" points="796.44,-224.5 796.44,-254.5 966.44,-254.5 966.44,-224.5 796.44,-224.5"/>
<text text-anchor="start" x="804.44" y="-242.5" font-family="Helvetica,sans-Serif" font-size="10.00">Component/Bonus/PlayerBonus</text>
<text text-anchor="middle" x="881.44" y="-231.5" font-family="Helvetica,sans-Serif" font-size="10.00">Component.hpp</text>
</a>
</g>
</g>
<!-- Node2&#45;&gt;Node32 -->
<g id="edge58" class="edge">
<title>Node2&#45;&gt;Node32</title>
<path fill="none" stroke="midnightblue" d="M704.41,-414.2C732.43,-386.71 818.87,-301.89 859.68,-261.85"/>
<polygon fill="midnightblue" stroke="midnightblue" points="862.29,-264.2 866.97,-254.69 857.38,-259.2 862.29,-264.2"/>
</g>
<!-- Node33 -->
<g id="node33" class="node">
<title>Node33</title>
<g id="a_node33"><a xlink:href="ControllableComponent_8hpp.html" target="_top" xlink:title=" ">
<polygon fill="white" stroke="black" points="408.44,-224.5 408.44,-254.5 564.44,-254.5 564.44,-224.5 408.44,-224.5"/>
<text text-anchor="start" x="416.44" y="-242.5" font-family="Helvetica,sans-Serif" font-size="10.00">Component/Controllable</text>
<text text-anchor="middle" x="486.44" y="-231.5" font-family="Helvetica,sans-Serif" font-size="10.00">/ControllableComponent.hpp</text>
</a>
</g>
</g>
<!-- Node2&#45;&gt;Node33 -->
<g id="edge62" class="edge">
<title>Node2&#45;&gt;Node33</title>
<path fill="none" stroke="midnightblue" d="M685.64,-414.44C654.35,-387.12 556.22,-301.43 510.42,-261.44"/>
<polygon fill="midnightblue" stroke="midnightblue" points="512.6,-258.7 502.76,-254.75 508,-263.97 512.6,-258.7"/>
</g>
<!-- Node36 -->
<g id="node36" class="node">
<title>Node36</title>
<g id="a_node36"><a xlink:href="BombHolderComponent_8hpp.html" target="_top" xlink:title=" ">
<polygon fill="white" stroke="black" points="582.44,-224.5 582.44,-254.5 740.44,-254.5 740.44,-224.5 582.44,-224.5"/>
<text text-anchor="start" x="590.44" y="-242.5" font-family="Helvetica,sans-Serif" font-size="10.00">Component/BombHolder</text>
<text text-anchor="middle" x="661.44" y="-231.5" font-family="Helvetica,sans-Serif" font-size="10.00">/BombHolderComponent.hpp</text>
</a>
</g>
</g>
<!-- Node2&#45;&gt;Node36 -->
<g id="edge71" class="edge">
<title>Node2&#45;&gt;Node36</title>
<path fill="none" stroke="midnightblue" d="M693.8,-414.2C688.8,-387.33 673.6,-305.74 665.94,-264.67"/>
<polygon fill="midnightblue" stroke="midnightblue" points="669.36,-263.88 664.08,-254.69 662.48,-265.17 669.36,-263.88"/>
</g>
<!-- Node4 -->
<g id="node4" class="node">
<title>Node4</title>
<g id="a_node4"><a xlink:title=" ">
<polygon fill="white" stroke="#bfbfbf" points="765.44,-168.5 765.44,-187.5 815.44,-187.5 815.44,-168.5 765.44,-168.5"/>
<text text-anchor="middle" x="790.44" y="-175.5" font-family="Helvetica,sans-Serif" font-size="10.00">chrono</text>
</a>
</g>
</g>
<!-- Node3&#45;&gt;Node4 -->
<g id="edge3" class="edge">
<title>Node3&#45;&gt;Node4</title>
<path fill="none" stroke="midnightblue" d="M853.44,-352.88C836.56,-336.01 800.62,-296.61 787.44,-255 781.47,-236.16 783.51,-213.37 786.23,-197.69"/>
<polygon fill="midnightblue" stroke="midnightblue" points="789.7,-198.18 788.23,-187.69 782.84,-196.81 789.7,-198.18"/>
</g>
<!-- Node5 -->
<g id="node5" class="node">
<title>Node5</title>
<g id="a_node5"><a xlink:title=" ">
<polygon fill="white" stroke="#bfbfbf" points="1697.94,-0.5 1697.94,-19.5 1744.94,-19.5 1744.94,-0.5 1697.94,-0.5"/>
<text text-anchor="middle" x="1721.44" y="-7.5" font-family="Helvetica,sans-Serif" font-size="10.00">vector</text>
</a>
</g>
</g>
<!-- Node3&#45;&gt;Node5 -->
<g id="edge4" class="edge">
<title>Node3&#45;&gt;Node5</title>
<path fill="none" stroke="midnightblue" d="M919.79,-360.86C1045.91,-358.75 1356.62,-349.71 1613.44,-311 1753.47,-289.9 1903.44,-320.61 1903.44,-179 1903.44,-179 1903.44,-179 1903.44,-121 1903.44,-52.47 1807.75,-25.49 1755.14,-15.83"/>
<polygon fill="midnightblue" stroke="midnightblue" points="1755.68,-12.37 1745.23,-14.12 1754.49,-19.27 1755.68,-12.37"/>
</g>
<!-- Node6 -->
<g id="node6" class="node">
<title>Node6</title>
<g id="a_node6"><a xlink:title=" ">
<polygon fill="white" stroke="#bfbfbf" points="472.94,-56.5 472.94,-75.5 529.94,-75.5 529.94,-56.5 472.94,-56.5"/>
<text text-anchor="middle" x="501.44" y="-63.5" font-family="Helvetica,sans-Serif" font-size="10.00">typeinfo</text>
</a>
</g>
</g>
<!-- Node3&#45;&gt;Node6 -->
<g id="edge5" class="edge">
<title>Node3&#45;&gt;Node6</title>
<path fill="none" stroke="midnightblue" d="M805.33,-357.5C690,-348.1 435.81,-320.29 383.44,-255 374.82,-244.25 379.08,-237.07 383.44,-224 388.86,-207.76 458.44,-120.32 488.15,-83.43"/>
<polygon fill="midnightblue" stroke="midnightblue" points="490.91,-85.58 494.47,-75.6 485.46,-81.18 490.91,-85.58"/>
</g>
<!-- Node7 -->
<g id="node7" class="node">
<title>Node7</title>
<g id="a_node7"><a xlink:title=" ">
<polygon fill="white" stroke="#bfbfbf" points="833.94,-0.5 833.94,-19.5 898.94,-19.5 898.94,-0.5 833.94,-0.5"/>
<text text-anchor="middle" x="866.44" y="-7.5" font-family="Helvetica,sans-Serif" font-size="10.00">typeindex</text>
</a>
</g>
</g>
<!-- Node3&#45;&gt;Node7 -->
<g id="edge6" class="edge">
<title>Node3&#45;&gt;Node7</title>
<path fill="none" stroke="midnightblue" d="M805.28,-361.66C645.22,-360.92 197.49,-350.18 93.44,-255 44.28,-210.03 9.78,-166.27 48.44,-112 92.64,-49.95 135.79,-71.18 210.44,-56 328.5,-31.99 697.81,-16.98 823.82,-12.45"/>
<polygon fill="midnightblue" stroke="midnightblue" points="823.99,-15.95 833.86,-12.1 823.74,-8.95 823.99,-15.95"/>
</g>
<!-- Node8 -->
<g id="node8" class="node">
<title>Node8</title>
<g id="a_node8"><a xlink:href="Entity_8hpp.html" target="_top" xlink:title=" ">
<polygon fill="white" stroke="black" points="1033.44,-112.5 1033.44,-131.5 1129.44,-131.5 1129.44,-112.5 1033.44,-112.5"/>
<text text-anchor="middle" x="1081.44" y="-119.5" font-family="Helvetica,sans-Serif" font-size="10.00">Entity/Entity.hpp</text>
</a>
</g>
</g>
<!-- Node3&#45;&gt;Node8 -->
<g id="edge7" class="edge">
<title>Node3&#45;&gt;Node8</title>
<path fill="none" stroke="midnightblue" d="M919.62,-355.01C979,-344.89 1069.03,-319.26 1111.44,-255 1135.19,-219.01 1109.49,-166.81 1093.02,-140.12"/>
<polygon fill="midnightblue" stroke="midnightblue" points="1095.84,-138.03 1087.48,-131.52 1089.95,-141.82 1095.84,-138.03"/>
</g>
<!-- Node3&#45;&gt;Node17 -->
<g id="edge21" class="edge">
<title>Node3&#45;&gt;Node17</title>
<path fill="none" stroke="midnightblue" d="M919.66,-356.73C1060.36,-345.01 1420.28,-315.01 1538.32,-305.18"/>
<polygon fill="midnightblue" stroke="midnightblue" points="1538.66,-308.66 1548.33,-304.34 1538.07,-301.69 1538.66,-308.66"/>
</g>
<!-- Node19 -->
<g id="node19" class="node">
<title>Node19</title>
<g id="a_node19"><a xlink:href="ISystem_8hpp.html" target="_top" xlink:title=" ">
<polygon fill="white" stroke="black" points="984.94,-230 984.94,-249 1101.94,-249 1101.94,-230 984.94,-230"/>
<text text-anchor="middle" x="1043.44" y="-237" font-family="Helvetica,sans-Serif" font-size="10.00">System/ISystem.hpp</text>
</a>
</g>
</g>
<!-- Node3&#45;&gt;Node19 -->
<g id="edge50" class="edge">
<title>Node3&#45;&gt;Node19</title>
<path fill="none" stroke="midnightblue" d="M875.17,-352.99C905.73,-332.56 983.55,-280.54 1021.69,-255.04"/>
<polygon fill="midnightblue" stroke="midnightblue" points="1024.12,-257.63 1030.48,-249.16 1020.23,-251.81 1024.12,-257.63"/>
</g>
<!-- Node20 -->
<g id="node20" class="node">
<title>Node20</title>
<g id="a_node20"><a xlink:href="View_8hpp.html" target="_top" xlink:title=" ">
<polygon fill="white" stroke="black" points="1229.44,-168.5 1229.44,-187.5 1317.44,-187.5 1317.44,-168.5 1229.44,-168.5"/>
<text text-anchor="middle" x="1273.44" y="-175.5" font-family="Helvetica,sans-Serif" font-size="10.00">View/View.hpp</text>
</a>
</g>
</g>
<!-- Node3&#45;&gt;Node20 -->
<g id="edge49" class="edge">
<title>Node3&#45;&gt;Node20</title>
<path fill="none" stroke="midnightblue" d="M919.71,-357.26C991.59,-350.92 1109.68,-336.87 1144.44,-311 1179.2,-285.13 1158.09,-254.92 1188.44,-224 1202.42,-209.76 1221.88,-199 1238.65,-191.58"/>
<polygon fill="midnightblue" stroke="midnightblue" points="1240.28,-194.7 1248.15,-187.6 1237.58,-188.24 1240.28,-194.7"/>
</g>
<!-- Node27 -->
<g id="node27" class="node">
<title>Node27</title>
<g id="a_node27"><a xlink:title=" ">
<polygon fill="white" stroke="#bfbfbf" points="249.44,-112.5 249.44,-131.5 309.44,-131.5 309.44,-112.5 249.44,-112.5"/>
<text text-anchor="middle" x="279.44" y="-119.5" font-family="Helvetica,sans-Serif" font-size="10.00">iostream</text>
</a>
</g>
</g>
<!-- Node3&#45;&gt;Node27 -->
<g id="edge51" class="edge">
<title>Node3&#45;&gt;Node27</title>
<path fill="none" stroke="midnightblue" d="M805.31,-359.34C675.46,-353.98 366.46,-338.47 328.44,-311 280.05,-276.03 286.7,-246.43 274.44,-188 271.2,-172.58 272.97,-154.71 275.25,-141.61"/>
<polygon fill="midnightblue" stroke="midnightblue" points="278.74,-142.01 277.27,-131.51 271.88,-140.63 278.74,-142.01"/>
</g>
<!-- Node8&#45;&gt;Node6 -->
<g id="edge10" class="edge">
<title>Node8&#45;&gt;Node6</title>
<path fill="none" stroke="midnightblue" d="M1032.99,-116.49C920.44,-106.01 643.14,-80.19 540.49,-70.64"/>
<polygon fill="midnightblue" stroke="midnightblue" points="540.54,-67.13 530.26,-69.68 539.89,-74.1 540.54,-67.13"/>
</g>
<!-- Node9 -->
<g id="node9" class="node">
<title>Node9</title>
<g id="a_node9"><a xlink:title=" ">
<polygon fill="white" stroke="#bfbfbf" points="1146.44,-0.5 1146.44,-19.5 1190.44,-19.5 1190.44,-0.5 1146.44,-0.5"/>
<text text-anchor="middle" x="1168.44" y="-7.5" font-family="Helvetica,sans-Serif" font-size="10.00">string</text>
</a>
</g>
</g>
<!-- Node8&#45;&gt;Node9 -->
<g id="edge8" class="edge">
<title>Node8&#45;&gt;Node9</title>
<path fill="none" stroke="midnightblue" d="M1088.27,-112.37C1102.69,-94.14 1136.47,-51.43 1155.25,-27.68"/>
<polygon fill="midnightblue" stroke="midnightblue" points="1158.19,-29.61 1161.65,-19.59 1152.7,-25.26 1158.19,-29.61"/>
</g>
<!-- Node10 -->
<g id="node10" class="node">
<title>Node10</title>
<g id="a_node10"><a xlink:title=" ">
<polygon fill="white" stroke="#bfbfbf" points="1455.94,-56.5 1455.94,-75.5 1548.94,-75.5 1548.94,-56.5 1455.94,-56.5"/>
<text text-anchor="middle" x="1502.44" y="-63.5" font-family="Helvetica,sans-Serif" font-size="10.00">unordered_map</text>
</a>
</g>
</g>
<!-- Node8&#45;&gt;Node10 -->
<g id="edge9" class="edge">
<title>Node8&#45;&gt;Node10</title>
<path fill="none" stroke="midnightblue" d="M1129.48,-115.71C1197.6,-108.08 1326.4,-93.14 1445.62,-76.22"/>
<polygon fill="midnightblue" stroke="midnightblue" points="1446.25,-79.66 1455.65,-74.79 1445.26,-72.73 1446.25,-79.66"/>
</g>
<!-- Node11 -->
<g id="node11" class="node">
<title>Node11</title>
<g id="a_node11"><a xlink:title=" ">
<polygon fill="white" stroke="#bfbfbf" points="1692.44,-56.5 1692.44,-75.5 1750.44,-75.5 1750.44,-56.5 1692.44,-56.5"/>
<text text-anchor="middle" x="1721.44" y="-63.5" font-family="Helvetica,sans-Serif" font-size="10.00">memory</text>
</a>
</g>
</g>
<!-- Node8&#45;&gt;Node11 -->
<g id="edge11" class="edge">
<title>Node8&#45;&gt;Node11</title>
<path fill="none" stroke="midnightblue" d="M1129.78,-116.36C1145.02,-114.93 1161.93,-113.37 1177.44,-112 1366.54,-95.32 1592.79,-77.19 1682.27,-70.09"/>
<polygon fill="midnightblue" stroke="midnightblue" points="1682.55,-73.58 1692.24,-69.3 1682,-66.6 1682.55,-73.58"/>
</g>
<!-- Node12 -->
<g id="node12" class="node">
<title>Node12</title>
<g id="a_node12"><a xlink:href="Component_8hpp.html" target="_top" xlink:title=" ">
<polygon fill="white" stroke="black" points="789.94,-56.5 789.94,-75.5 942.94,-75.5 942.94,-56.5 789.94,-56.5"/>
<text text-anchor="middle" x="866.44" y="-63.5" font-family="Helvetica,sans-Serif" font-size="10.00">Component/Component.hpp</text>
</a>
</g>
</g>
<!-- Node8&#45;&gt;Node12 -->
<g id="edge12" class="edge">
<title>Node8&#45;&gt;Node12</title>
<path fill="none" stroke="midnightblue" d="M1047.37,-112.44C1010.26,-103.12 950.78,-88.18 910.23,-78"/>
<polygon fill="midnightblue" stroke="midnightblue" points="910.9,-74.56 900.35,-75.52 909.19,-81.35 910.9,-74.56"/>
</g>
<!-- Node13 -->
<g id="node13" class="node">
<title>Node13</title>
<g id="a_node13"><a xlink:href="WalError_8hpp.html" target="_top" xlink:title=" ">
<polygon fill="white" stroke="black" points="1308.94,-56.5 1308.94,-75.5 1437.94,-75.5 1437.94,-56.5 1308.94,-56.5"/>
<text text-anchor="middle" x="1373.44" y="-63.5" font-family="Helvetica,sans-Serif" font-size="10.00">Exception/WalError.hpp</text>
</a>
</g>
</g>
<!-- Node8&#45;&gt;Node13 -->
<g id="edge16" class="edge">
<title>Node8&#45;&gt;Node13</title>
<path fill="none" stroke="midnightblue" d="M1127.71,-112.44C1179.18,-102.92 1262.33,-87.55 1317.44,-77.36"/>
<polygon fill="midnightblue" stroke="midnightblue" points="1318.19,-80.78 1327.39,-75.52 1316.92,-73.89 1318.19,-80.78"/>
</g>
<!-- Node16 -->
<g id="node16" class="node">
<title>Node16</title>
<g id="a_node16"><a xlink:href="TypeHolder_8hpp.html" target="_top" xlink:title=" ">
<polygon fill="white" stroke="black" points="961.44,-56.5 961.44,-75.5 1091.44,-75.5 1091.44,-56.5 961.44,-56.5"/>
<text text-anchor="middle" x="1026.44" y="-63.5" font-family="Helvetica,sans-Serif" font-size="10.00">Models/TypeHolder.hpp</text>
</a>
</g>
</g>
<!-- Node8&#45;&gt;Node16 -->
<g id="edge20" class="edge">
<title>Node8&#45;&gt;Node16</title>
<path fill="none" stroke="midnightblue" d="M1072.36,-112.08C1064.27,-104.14 1052.24,-92.34 1042.53,-82.8"/>
<polygon fill="midnightblue" stroke="midnightblue" points="1044.94,-80.26 1035.35,-75.75 1040.04,-85.25 1044.94,-80.26"/>
</g>
<!-- Node12&#45;&gt;Node5 -->
<g id="edge13" class="edge">
<title>Node12&#45;&gt;Node5</title>
<path fill="none" stroke="midnightblue" d="M943.32,-56.78C946.4,-56.5 949.45,-56.24 952.44,-56 1236.27,-32.86 1579.97,-17.08 1687.58,-12.43"/>
<polygon fill="midnightblue" stroke="midnightblue" points="1687.97,-15.91 1697.81,-11.99 1687.67,-8.92 1687.97,-15.91"/>
</g>
<!-- Node12&#45;&gt;Node7 -->
<g id="edge15" class="edge">
<title>Node12&#45;&gt;Node7</title>
<path fill="none" stroke="midnightblue" d="M866.44,-56.08C866.44,-49.01 866.44,-38.86 866.44,-29.99"/>
<polygon fill="midnightblue" stroke="midnightblue" points="869.94,-29.75 866.44,-19.75 862.94,-29.75 869.94,-29.75"/>
</g>
<!-- Node12&#45;&gt;Node9 -->
<g id="edge14" class="edge">
<title>Node12&#45;&gt;Node9</title>
<path fill="none" stroke="midnightblue" d="M914.29,-56.44C976.35,-45.35 1082.93,-26.29 1136.19,-16.77"/>
<polygon fill="midnightblue" stroke="midnightblue" points="1136.87,-20.2 1146.1,-15 1135.64,-13.31 1136.87,-20.2"/>
</g>
<!-- Node13&#45;&gt;Node9 -->
<g id="edge19" class="edge">
<title>Node13&#45;&gt;Node9</title>
<path fill="none" stroke="midnightblue" d="M1340.96,-56.44C1302.57,-46.33 1239.08,-29.61 1200.76,-19.51"/>
<polygon fill="midnightblue" stroke="midnightblue" points="1201.22,-16.02 1190.66,-16.85 1199.44,-22.79 1201.22,-16.02"/>
</g>
<!-- Node14 -->
<g id="node14" class="node">
<title>Node14</title>
<g id="a_node14"><a xlink:title=" ">
<polygon fill="white" stroke="#bfbfbf" points="1381.94,-0.5 1381.94,-19.5 1446.94,-19.5 1446.94,-0.5 1381.94,-0.5"/>
<text text-anchor="middle" x="1414.44" y="-7.5" font-family="Helvetica,sans-Serif" font-size="10.00">exception</text>
</a>
</g>
</g>
<!-- Node13&#45;&gt;Node14 -->
<g id="edge17" class="edge">
<title>Node13&#45;&gt;Node14</title>
<path fill="none" stroke="midnightblue" d="M1380.21,-56.08C1386,-48.46 1394.5,-37.26 1401.58,-27.94"/>
<polygon fill="midnightblue" stroke="midnightblue" points="1404.54,-29.83 1407.8,-19.75 1398.96,-25.6 1404.54,-29.83"/>
</g>
<!-- Node15 -->
<g id="node15" class="node">
<title>Node15</title>
<g id="a_node15"><a xlink:title=" ">
<polygon fill="white" stroke="#bfbfbf" points="1298.94,-0.5 1298.94,-19.5 1363.94,-19.5 1363.94,-0.5 1298.94,-0.5"/>
<text text-anchor="middle" x="1331.44" y="-7.5" font-family="Helvetica,sans-Serif" font-size="10.00">stdexcept</text>
</a>
</g>
</g>
<!-- Node13&#45;&gt;Node15 -->
<g id="edge18" class="edge">
<title>Node13&#45;&gt;Node15</title>
<path fill="none" stroke="midnightblue" d="M1366.5,-56.08C1360.51,-48.38 1351.69,-37.03 1344.39,-27.65"/>
<polygon fill="midnightblue" stroke="midnightblue" points="1347.15,-25.5 1338.25,-19.75 1341.62,-29.79 1347.15,-25.5"/>
</g>
<!-- Node17&#45;&gt;Node5 -->
<g id="edge23" class="edge">
<title>Node17&#45;&gt;Node5</title>
<path fill="none" stroke="midnightblue" d="M1604.68,-300.78C1677.4,-301.17 1865.44,-291.32 1865.44,-179 1865.44,-179 1865.44,-179 1865.44,-121 1865.44,-65.66 1797.46,-34.44 1754.91,-20.32"/>
<polygon fill="midnightblue" stroke="midnightblue" points="1755.81,-16.93 1745.22,-17.25 1753.7,-23.6 1755.81,-16.93"/>
</g>
<!-- Node17&#45;&gt;Node6 -->
<g id="edge26" class="edge">
<title>Node17&#45;&gt;Node6</title>
<path fill="none" stroke="midnightblue" d="M1548.43,-300.01C1373.81,-299.97 440.56,-297.73 399.44,-255 350.28,-203.93 457.72,-213.04 477.44,-188 500.88,-158.24 503.39,-111.83 502.7,-85.99"/>
<polygon fill="midnightblue" stroke="midnightblue" points="506.18,-85.53 502.22,-75.7 499.19,-85.85 506.18,-85.53"/>
</g>
<!-- Node17&#45;&gt;Node9 -->
<g id="edge24" class="edge">
<title>Node17&#45;&gt;Node9</title>
<path fill="none" stroke="midnightblue" d="M1576.55,-291.21C1576.41,-260.96 1571.58,-160.4 1515.44,-112 1442.06,-48.74 1392.66,-105.72 1300.44,-76 1260.34,-63.08 1217.12,-39.83 1191.45,-24.92"/>
<polygon fill="midnightblue" stroke="midnightblue" points="1192.9,-21.71 1182.51,-19.65 1189.35,-27.75 1192.9,-21.71"/>
</g>
<!-- Node17&#45;&gt;Node11 -->
<g id="edge25" class="edge">
<title>Node17&#45;&gt;Node11</title>
<path fill="none" stroke="midnightblue" d="M1604.8,-296.54C1656.91,-288.43 1766.38,-262.87 1808.44,-188 1831.49,-146.97 1777.86,-103.16 1744.88,-81.23"/>
<polygon fill="midnightblue" stroke="midnightblue" points="1746.51,-78.12 1736.21,-75.65 1742.72,-84 1746.51,-78.12"/>
</g>
<!-- Node17&#45;&gt;Node13 -->
<g id="edge27" class="edge">
<title>Node17&#45;&gt;Node13</title>
<path fill="none" stroke="midnightblue" d="M1578.47,-291.48C1584.89,-262.13 1601.69,-164.12 1553.44,-112 1538.82,-96.21 1490.44,-84.65 1447.52,-77.2"/>
<polygon fill="midnightblue" stroke="midnightblue" points="1448.05,-73.74 1437.61,-75.53 1446.89,-80.64 1448.05,-73.74"/>
</g>
<!-- Node18 -->
<g id="node18" class="node">
<title>Node18</title>
<g id="a_node18"><a xlink:title=" ">
<polygon fill="white" stroke="#bfbfbf" points="1643.94,-112.5 1643.94,-131.5 1688.94,-131.5 1688.94,-112.5 1643.94,-112.5"/>
<text text-anchor="middle" x="1666.44" y="-119.5" font-family="Helvetica,sans-Serif" font-size="10.00">utility</text>
</a>
</g>
</g>
<!-- Node17&#45;&gt;Node18 -->
<g id="edge22" class="edge">
<title>Node17&#45;&gt;Node18</title>
<path fill="none" stroke="midnightblue" d="M1590.67,-291.4C1602.71,-283.41 1619.54,-270.45 1629.44,-255 1652.48,-219.06 1661.4,-168.68 1664.67,-141.74"/>
<polygon fill="midnightblue" stroke="midnightblue" points="1668.16,-142.06 1665.76,-131.74 1661.2,-141.3 1668.16,-142.06"/>
</g>
<!-- Node17&#45;&gt;Node19 -->
<g id="edge28" class="edge">
<title>Node17&#45;&gt;Node19</title>
<path fill="none" stroke="midnightblue" d="M1548.16,-296.84C1466.81,-287.76 1230.5,-261.38 1112.36,-248.19"/>
<polygon fill="midnightblue" stroke="midnightblue" points="1112.66,-244.71 1102.34,-247.07 1111.89,-251.66 1112.66,-244.71"/>
</g>
<!-- Node25 -->
<g id="node25" class="node">
<title>Node25</title>
<g id="a_node25"><a xlink:href="Callback_8hpp.html" target="_top" xlink:title=" ">
<polygon fill="white" stroke="black" points="1681.44,-168.5 1681.44,-187.5 1799.44,-187.5 1799.44,-168.5 1681.44,-168.5"/>
<text text-anchor="middle" x="1740.44" y="-175.5" font-family="Helvetica,sans-Serif" font-size="10.00">Models/Callback.hpp</text>
</a>
</g>
</g>
<!-- Node17&#45;&gt;Node25 -->
<g id="edge39" class="edge">
<title>Node17&#45;&gt;Node25</title>
<path fill="none" stroke="midnightblue" d="M1598.97,-291.44C1618.17,-283.56 1645.97,-270.73 1667.44,-255 1690.85,-237.85 1713.28,-212.77 1726.95,-196.18"/>
<polygon fill="midnightblue" stroke="midnightblue" points="1730.04,-197.92 1733.6,-187.93 1724.6,-193.52 1730.04,-197.92"/>
</g>
<!-- Node26 -->
<g id="node26" class="node">
<title>Node26</title>
<g id="a_node26"><a xlink:href="Scene_8hpp.html" target="_top" xlink:title=" ">
<polygon fill="white" stroke="black" points="1392.94,-230 1392.94,-249 1491.94,-249 1491.94,-230 1392.94,-230"/>
<text text-anchor="middle" x="1442.44" y="-237" font-family="Helvetica,sans-Serif" font-size="10.00">Scene/Scene.hpp</text>
</a>
</g>
</g>
<!-- Node17&#45;&gt;Node26 -->
<g id="edge43" class="edge">
<title>Node17&#45;&gt;Node26</title>
<path fill="none" stroke="midnightblue" d="M1557.24,-291.48C1534.65,-281.45 1496.94,-264.7 1470.94,-253.15"/>
<polygon fill="midnightblue" stroke="midnightblue" points="1472.16,-249.87 1461.6,-249.01 1469.32,-256.27 1472.16,-249.87"/>
</g>
<!-- Node19&#45;&gt;Node4 -->
<g id="edge38" class="edge">
<title>Node19&#45;&gt;Node4</title>
<path fill="none" stroke="midnightblue" d="M1007.19,-229.98C958.69,-218.57 873.26,-198.48 825.42,-187.23"/>
<polygon fill="midnightblue" stroke="midnightblue" points="826.06,-183.78 815.52,-184.9 824.46,-190.6 826.06,-183.78"/>
</g>
<!-- Node19&#45;&gt;Node8 -->
<g id="edge29" class="edge">
<title>Node19&#45;&gt;Node8</title>
<path fill="none" stroke="midnightblue" d="M1046.3,-229.82C1052.46,-211.09 1067.11,-166.55 1075.42,-141.29"/>
<polygon fill="midnightblue" stroke="midnightblue" points="1078.75,-142.37 1078.55,-131.78 1072.1,-140.19 1078.75,-142.37"/>
</g>
<!-- Node19&#45;&gt;Node20 -->
<g id="edge30" class="edge">
<title>Node19&#45;&gt;Node20</title>
<path fill="none" stroke="midnightblue" d="M1076.39,-229.98C1117.04,-219.46 1186.23,-201.56 1230.86,-190.01"/>
<polygon fill="midnightblue" stroke="midnightblue" points="1231.74,-193.4 1240.55,-187.51 1229.99,-186.63 1231.74,-193.4"/>
</g>
<!-- Node20&#45;&gt;Node7 -->
<g id="edge33" class="edge">
<title>Node20&#45;&gt;Node7</title>
<path fill="none" stroke="midnightblue" d="M1249.34,-168.36C1229.16,-160.52 1200.09,-147.79 1177.44,-132 1137.99,-104.51 1142.99,-78.39 1100.44,-56 1039.22,-23.78 958.13,-14.45 909.25,-11.86"/>
<polygon fill="midnightblue" stroke="midnightblue" points="909.18,-8.35 899.03,-11.39 908.86,-15.34 909.18,-8.35"/>
</g>
<!-- Node20&#45;&gt;Node8 -->
<g id="edge37" class="edge">
<title>Node20&#45;&gt;Node8</title>
<path fill="none" stroke="midnightblue" d="M1243.02,-168.44C1210.16,-159.2 1157.66,-144.44 1121.47,-134.26"/>
<polygon fill="midnightblue" stroke="midnightblue" points="1122.3,-130.85 1111.72,-131.52 1120.4,-137.59 1122.3,-130.85"/>
</g>
<!-- Node20&#45;&gt;Node18 -->
<g id="edge35" class="edge">
<title>Node20&#45;&gt;Node18</title>
<path fill="none" stroke="midnightblue" d="M1317.76,-170.91C1397.38,-159.97 1562.9,-137.23 1633.44,-127.53"/>
<polygon fill="midnightblue" stroke="midnightblue" points="1634.1,-130.98 1643.53,-126.15 1633.14,-124.04 1634.1,-130.98"/>
</g>
<!-- Node21 -->
<g id="node21" class="node">
<title>Node21</title>
<g id="a_node21"><a xlink:title=" ">
<polygon fill="white" stroke="#bfbfbf" points="1357.44,-112.5 1357.44,-131.5 1389.44,-131.5 1389.44,-112.5 1357.44,-112.5"/>
<text text-anchor="middle" x="1373.44" y="-119.5" font-family="Helvetica,sans-Serif" font-size="10.00">list</text>
</a>
</g>
</g>
<!-- Node20&#45;&gt;Node21 -->
<g id="edge31" class="edge">
<title>Node20&#45;&gt;Node21</title>
<path fill="none" stroke="midnightblue" d="M1289.51,-168.32C1305.4,-159.74 1329.95,-146.49 1348.4,-136.52"/>
<polygon fill="midnightblue" stroke="midnightblue" points="1350.28,-139.49 1357.41,-131.65 1346.95,-133.33 1350.28,-139.49"/>
</g>
<!-- Node22 -->
<g id="node22" class="node">
<title>Node22</title>
<g id="a_node22"><a xlink:title=" ">
<polygon fill="white" stroke="#bfbfbf" points="1185.94,-112.5 1185.94,-131.5 1226.94,-131.5 1226.94,-112.5 1185.94,-112.5"/>
<text text-anchor="middle" x="1206.44" y="-119.5" font-family="Helvetica,sans-Serif" font-size="10.00">tuple</text>
</a>
</g>
</g>
<!-- Node20&#45;&gt;Node22 -->
<g id="edge32" class="edge">
<title>Node20&#45;&gt;Node22</title>
<path fill="none" stroke="midnightblue" d="M1262.68,-168.32C1252.67,-160.26 1237.55,-148.08 1225.51,-138.37"/>
<polygon fill="midnightblue" stroke="midnightblue" points="1227.38,-135.38 1217.4,-131.83 1222.99,-140.83 1227.38,-135.38"/>
</g>
<!-- Node23 -->
<g id="node23" class="node">
<title>Node23</title>
<g id="a_node23"><a xlink:title=" ">
<polygon fill="white" stroke="#bfbfbf" points="1407.94,-112.5 1407.94,-131.5 1472.94,-131.5 1472.94,-112.5 1407.94,-112.5"/>
<text text-anchor="middle" x="1440.44" y="-119.5" font-family="Helvetica,sans-Serif" font-size="10.00">functional</text>
</a>
</g>
</g>
<!-- Node20&#45;&gt;Node23 -->
<g id="edge34" class="edge">
<title>Node20&#45;&gt;Node23</title>
<path fill="none" stroke="midnightblue" d="M1299.9,-168.44C1328.12,-159.32 1372.98,-144.81 1404.41,-134.65"/>
<polygon fill="midnightblue" stroke="midnightblue" points="1405.66,-137.92 1414.1,-131.52 1403.51,-131.26 1405.66,-137.92"/>
</g>
<!-- Node24 -->
<g id="node24" class="node">
<title>Node24</title>
<g id="a_node24"><a xlink:title=" ">
<polygon fill="white" stroke="#bfbfbf" points="1245.44,-112.5 1245.44,-131.5 1301.44,-131.5 1301.44,-112.5 1245.44,-112.5"/>
<text text-anchor="middle" x="1273.44" y="-119.5" font-family="Helvetica,sans-Serif" font-size="10.00">optional</text>
</a>
</g>
</g>
<!-- Node20&#45;&gt;Node24 -->
<g id="edge36" class="edge">
<title>Node20&#45;&gt;Node24</title>
<path fill="none" stroke="midnightblue" d="M1273.44,-168.08C1273.44,-161.01 1273.44,-150.86 1273.44,-141.99"/>
<polygon fill="midnightblue" stroke="midnightblue" points="1276.94,-141.75 1273.44,-131.75 1269.94,-141.75 1276.94,-141.75"/>
</g>
<!-- Node25&#45;&gt;Node10 -->
<g id="edge42" class="edge">
<title>Node25&#45;&gt;Node10</title>
<path fill="none" stroke="midnightblue" d="M1737.33,-168.3C1731.8,-154.16 1718.9,-126.34 1698.44,-112 1657.5,-83.3 1601.04,-72.63 1559.23,-68.8"/>
<polygon fill="midnightblue" stroke="midnightblue" points="1559.45,-65.3 1549.2,-67.98 1558.88,-72.28 1559.45,-65.3"/>
</g>
<!-- Node25&#45;&gt;Node18 -->
<g id="edge41" class="edge">
<title>Node25&#45;&gt;Node18</title>
<path fill="none" stroke="midnightblue" d="M1728.55,-168.32C1717.29,-160.11 1700.15,-147.6 1686.73,-137.81"/>
<polygon fill="midnightblue" stroke="midnightblue" points="1688.69,-134.9 1678.55,-131.83 1684.56,-140.56 1688.69,-134.9"/>
</g>
<!-- Node25&#45;&gt;Node23 -->
<g id="edge40" class="edge">
<title>Node25&#45;&gt;Node23</title>
<path fill="none" stroke="midnightblue" d="M1692.9,-168.44C1635.04,-158.03 1538.22,-140.6 1482.81,-130.63"/>
<polygon fill="midnightblue" stroke="midnightblue" points="1483.42,-127.18 1472.96,-128.85 1482.18,-134.07 1483.42,-127.18"/>
</g>
<!-- Node26&#45;&gt;Node5 -->
<g id="edge44" class="edge">
<title>Node26&#45;&gt;Node5</title>
<path fill="none" stroke="midnightblue" d="M1453.04,-229.86C1494.9,-195.72 1649.1,-69.99 1702.83,-26.17"/>
<polygon fill="midnightblue" stroke="midnightblue" points="1705.3,-28.68 1710.83,-19.65 1700.87,-23.26 1705.3,-28.68"/>
</g>
<!-- Node26&#45;&gt;Node8 -->
<g id="edge48" class="edge">
<title>Node26&#45;&gt;Node8</title>
<path fill="none" stroke="midnightblue" d="M1404.76,-229.95C1341.7,-215.65 1221.54,-188.38 1220.44,-188 1219,-187.51 1149.01,-154.7 1108.91,-135.89"/>
<polygon fill="midnightblue" stroke="midnightblue" points="1110.19,-132.63 1099.65,-131.55 1107.22,-138.96 1110.19,-132.63"/>
</g>
<!-- Node26&#45;&gt;Node20 -->
<g id="edge47" class="edge">
<title>Node26&#45;&gt;Node20</title>
<path fill="none" stroke="midnightblue" d="M1418.23,-229.98C1389.11,-219.72 1340.07,-202.46 1307.24,-190.9"/>
<polygon fill="midnightblue" stroke="midnightblue" points="1308.2,-187.53 1297.61,-187.51 1305.88,-194.13 1308.2,-187.53"/>
</g>
<!-- Node26&#45;&gt;Node21 -->
<g id="edge45" class="edge">
<title>Node26&#45;&gt;Node21</title>
<path fill="none" stroke="midnightblue" d="M1437.25,-229.82C1425.97,-210.92 1398.98,-165.75 1383.97,-140.62"/>
<polygon fill="midnightblue" stroke="midnightblue" points="1386.82,-138.57 1378.69,-131.78 1380.81,-142.16 1386.82,-138.57"/>
</g>
<!-- Node26&#45;&gt;Node23 -->
<g id="edge46" class="edge">
<title>Node26&#45;&gt;Node23</title>
<path fill="none" stroke="midnightblue" d="M1442.29,-229.82C1441.97,-211.26 1441.21,-167.34 1440.77,-141.97"/>
<polygon fill="midnightblue" stroke="midnightblue" points="1444.27,-141.72 1440.59,-131.78 1437.27,-141.84 1444.27,-141.72"/>
</g>
<!-- Node28&#45;&gt;Node27 -->
<g id="edge54" class="edge">
<title>Node28&#45;&gt;Node27</title>
<path fill="none" stroke="midnightblue" d="M187.95,-168.32C205.51,-159.62 232.77,-146.12 252.97,-136.11"/>
<polygon fill="midnightblue" stroke="midnightblue" points="254.56,-139.23 261.97,-131.65 251.46,-132.96 254.56,-139.23"/>
</g>
<!-- Node29 -->
<g id="node29" class="node">
<title>Node29</title>
<g id="a_node29"><a xlink:title=" ">
<polygon fill="white" stroke="#bfbfbf" points="183.94,-112.5 183.94,-131.5 230.94,-131.5 230.94,-112.5 183.94,-112.5"/>
<text text-anchor="middle" x="207.44" y="-119.5" font-family="Helvetica,sans-Serif" font-size="10.00">cmath</text>
</a>
</g>
</g>
<!-- Node28&#45;&gt;Node29 -->
<g id="edge55" class="edge">
<title>Node28&#45;&gt;Node29</title>
<path fill="none" stroke="midnightblue" d="M176.55,-168.08C181.72,-160.53 189.29,-149.49 195.63,-140.23"/>
<polygon fill="midnightblue" stroke="midnightblue" points="198.68,-141.98 201.44,-131.75 192.9,-138.02 198.68,-141.98"/>
</g>
<!-- Node30 -->
<g id="node30" class="node">
<title>Node30</title>
<g id="a_node30"><a xlink:href="lib_2Ray_2sources_2Vector_2Vector3_8hpp.html" target="_top" xlink:title=" ">
<polygon fill="white" stroke="black" points="57.44,-112.5 57.44,-131.5 165.44,-131.5 165.44,-112.5 57.44,-112.5"/>
<text text-anchor="middle" x="111.44" y="-119.5" font-family="Helvetica,sans-Serif" font-size="10.00">Vector/Vector3.hpp</text>
</a>
</g>
</g>
<!-- Node28&#45;&gt;Node30 -->
<g id="edge56" class="edge">
<title>Node28&#45;&gt;Node30</title>
<path fill="none" stroke="midnightblue" d="M160.96,-168.32C152.24,-160.34 139.1,-148.31 128.54,-138.65"/>
<polygon fill="midnightblue" stroke="midnightblue" points="130.83,-136 121.09,-131.83 126.11,-141.17 130.83,-136"/>
</g>
<!-- Node31 -->
<g id="node31" class="node">
<title>Node31</title>
<g id="a_node31"><a xlink:title=" ">
<polygon fill="white" stroke="#bfbfbf" points="219.94,-56.5 219.94,-75.5 272.94,-75.5 272.94,-56.5 219.94,-56.5"/>
<text text-anchor="middle" x="246.44" y="-63.5" font-family="Helvetica,sans-Serif" font-size="10.00">raylib.h</text>
</a>
</g>
</g>
<!-- Node30&#45;&gt;Node31 -->
<g id="edge57" class="edge">
<title>Node30&#45;&gt;Node31</title>
<path fill="none" stroke="midnightblue" d="M132.83,-112.44C155.15,-103.52 190.34,-89.44 215.65,-79.32"/>
<polygon fill="midnightblue" stroke="midnightblue" points="217.16,-82.48 225.15,-75.52 214.56,-75.98 217.16,-82.48"/>
</g>
<!-- Node32&#45;&gt;Node4 -->
<g id="edge61" class="edge">
<title>Node32&#45;&gt;Node4</title>
<path fill="none" stroke="midnightblue" d="M859.87,-224.4C845.56,-215.04 826.83,-202.79 812.43,-193.38"/>
<polygon fill="midnightblue" stroke="midnightblue" points="813.97,-190.2 803.68,-187.66 810.14,-196.06 813.97,-190.2"/>
</g>
<!-- Node32&#45;&gt;Node8 -->
<g id="edge60" class="edge">
<title>Node32&#45;&gt;Node8</title>
<path fill="none" stroke="midnightblue" d="M905.96,-224.34C944.72,-201.96 1019.62,-158.7 1057.81,-136.65"/>
<polygon fill="midnightblue" stroke="midnightblue" points="1059.77,-139.55 1066.68,-131.52 1056.27,-133.49 1059.77,-139.55"/>
</g>
<!-- Node32&#45;&gt;Node12 -->
<g id="edge59" class="edge">
<title>Node32&#45;&gt;Node12</title>
<path fill="none" stroke="midnightblue" d="M880.21,-224.47C877.52,-193.7 871.1,-120.33 868.08,-85.7"/>
<polygon fill="midnightblue" stroke="midnightblue" points="871.55,-85.22 867.19,-75.56 864.57,-85.83 871.55,-85.22"/>
</g>
<!-- Node33&#45;&gt;Node4 -->
<g id="edge70" class="edge">
<title>Node33&#45;&gt;Node4</title>
<path fill="none" stroke="midnightblue" d="M558.1,-224.47C620.24,-212.31 707.53,-195.23 755.48,-185.84"/>
<polygon fill="midnightblue" stroke="midnightblue" points="756.23,-189.26 765.37,-183.91 754.89,-182.39 756.23,-189.26"/>
</g>
<!-- Node33&#45;&gt;Node8 -->
<g id="edge69" class="edge">
<title>Node33&#45;&gt;Node8</title>
<path fill="none" stroke="midnightblue" d="M525.31,-224.44C570.96,-208.46 649.26,-182.69 718.44,-168 824.72,-145.44 951.07,-132.94 1023.2,-127.12"/>
<polygon fill="midnightblue" stroke="midnightblue" points="1023.75,-130.59 1033.44,-126.31 1023.19,-123.61 1023.75,-130.59"/>
</g>
<!-- Node33&#45;&gt;Node12 -->
<g id="edge68" class="edge">
<title>Node33&#45;&gt;Node12</title>
<path fill="none" stroke="midnightblue" d="M516.44,-224.39C566.85,-200.74 671.87,-151.79 761.44,-112 786.63,-100.81 815.42,-88.51 836.47,-79.6"/>
<polygon fill="midnightblue" stroke="midnightblue" points="838,-82.75 845.85,-75.64 835.28,-76.3 838,-82.75"/>
</g>
<!-- Node34 -->
<g id="node34" class="node">
<title>Node34</title>
<g id="a_node34"><a xlink:href="sources_2Models_2Vector2_8hpp.html" target="_top" xlink:title=" ">
<polygon fill="white" stroke="black" points="283.94,-168.5 283.94,-187.5 396.94,-187.5 396.94,-168.5 283.94,-168.5"/>
<text text-anchor="middle" x="340.44" y="-175.5" font-family="Helvetica,sans-Serif" font-size="10.00">Models/Vector2.hpp</text>
</a>
</g>
</g>
<!-- Node33&#45;&gt;Node34 -->
<g id="edge63" class="edge">
<title>Node33&#45;&gt;Node34</title>
<path fill="none" stroke="midnightblue" d="M451.84,-224.4C427.34,-214.42 394.78,-201.15 371.19,-191.53"/>
<polygon fill="midnightblue" stroke="midnightblue" points="372.27,-188.19 361.68,-187.66 369.62,-194.67 372.27,-188.19"/>
</g>
<!-- Node34&#45;&gt;Node27 -->
<g id="edge64" class="edge">
<title>Node34&#45;&gt;Node27</title>
<path fill="none" stroke="midnightblue" d="M330.64,-168.32C321.62,-160.34 308.03,-148.31 297.12,-138.65"/>
<polygon fill="midnightblue" stroke="midnightblue" points="299.23,-135.84 289.42,-131.83 294.59,-141.08 299.23,-135.84"/>
</g>
<!-- Node34&#45;&gt;Node29 -->
<g id="edge65" class="edge">
<title>Node34&#45;&gt;Node29</title>
<path fill="none" stroke="midnightblue" d="M319.37,-168.44C297.38,-159.52 262.71,-145.44 237.78,-135.32"/>
<polygon fill="midnightblue" stroke="midnightblue" points="239,-132.04 228.42,-131.52 236.36,-138.52 239,-132.04"/>
</g>
<!-- Node35 -->
<g id="node35" class="node">
<title>Node35</title>
<g id="a_node35"><a xlink:href="lib_2Ray_2sources_2Vector_2Vector2_8hpp.html" target="_top" xlink:title=" ">
<polygon fill="white" stroke="black" points="327.44,-112.5 327.44,-131.5 435.44,-131.5 435.44,-112.5 327.44,-112.5"/>
<text text-anchor="middle" x="381.44" y="-119.5" font-family="Helvetica,sans-Serif" font-size="10.00">Vector/Vector2.hpp</text>
</a>
</g>
</g>
<!-- Node34&#45;&gt;Node35 -->
<g id="edge66" class="edge">
<title>Node34&#45;&gt;Node35</title>
<path fill="none" stroke="midnightblue" d="M347.21,-168.08C353,-160.46 361.5,-149.26 368.58,-139.94"/>
<polygon fill="midnightblue" stroke="midnightblue" points="371.54,-141.83 374.8,-131.75 365.96,-137.6 371.54,-141.83"/>
</g>
<!-- Node35&#45;&gt;Node31 -->
<g id="edge67" class="edge">
<title>Node35&#45;&gt;Node31</title>
<path fill="none" stroke="midnightblue" d="M360.05,-112.44C337.73,-103.52 302.54,-89.44 277.23,-79.32"/>
<polygon fill="midnightblue" stroke="midnightblue" points="278.32,-75.98 267.73,-75.52 275.72,-82.48 278.32,-75.98"/>
</g>
<!-- Node36&#45;&gt;Node4 -->
<g id="edge74" class="edge">
<title>Node36&#45;&gt;Node4</title>
<path fill="none" stroke="midnightblue" d="M692.01,-224.4C713.37,-214.55 741.66,-201.5 762.43,-191.92"/>
<polygon fill="midnightblue" stroke="midnightblue" points="764.06,-195.02 771.67,-187.66 761.12,-188.67 764.06,-195.02"/>
</g>
<!-- Node36&#45;&gt;Node8 -->
<g id="edge73" class="edge">
<title>Node36&#45;&gt;Node8</title>
<path fill="none" stroke="midnightblue" d="M675.46,-224.45C692.83,-207.96 724.12,-181.21 756.44,-168 844.53,-132 956.05,-123.82 1022.91,-122.48"/>
<polygon fill="midnightblue" stroke="midnightblue" points="1023.3,-125.98 1033.25,-122.32 1023.2,-118.98 1023.3,-125.98"/>
</g>
<!-- Node36&#45;&gt;Node12 -->
<g id="edge72" class="edge">
<title>Node36&#45;&gt;Node12</title>
<path fill="none" stroke="midnightblue" d="M671.07,-224.23C681.63,-209.22 699.58,-185.39 718.44,-168 757.82,-131.69 811.18,-98.53 841.9,-80.71"/>
<polygon fill="midnightblue" stroke="midnightblue" points="843.73,-83.7 850.67,-75.69 840.25,-77.63 843.73,-83.7"/>
</g>
<!-- Node37&#45;&gt;Node12 -->
<g id="edge77" class="edge">
<title>Node37&#45;&gt;Node12</title>
<path fill="none" stroke="midnightblue" d="M238.72,-225.69C296.69,-214.47 375.14,-198.38 405.44,-188 479.16,-162.75 488.95,-134.87 563.44,-112 634.47,-90.19 718.23,-78.78 779.66,-72.92"/>
<polygon fill="midnightblue" stroke="midnightblue" points="780.07,-76.4 789.7,-71.99 779.42,-69.43 780.07,-76.4"/>
</g>
<!-- Node37&#45;&gt;Node28 -->
<g id="edge76" class="edge">
<title>Node37&#45;&gt;Node28</title>
<path fill="none" stroke="midnightblue" d="M170.44,-224.4C170.44,-216.47 170.44,-206.46 170.44,-197.86"/>
<polygon fill="midnightblue" stroke="midnightblue" points="173.94,-197.66 170.44,-187.66 166.94,-197.66 173.94,-197.66"/>
</g>
<!-- Node38&#45;&gt;Node8 -->
<g id="edge81" class="edge">
<title>Node38&#45;&gt;Node8</title>
<path fill="none" stroke="midnightblue" d="M1502.37,-347.42C1476.28,-327.07 1426.58,-288.25 1384.44,-255 1367.06,-241.29 1365.46,-233.46 1345.44,-224 1276.4,-191.38 1247.3,-218.84 1177.44,-188 1163.45,-181.82 1162.04,-176.67 1149.44,-168 1134.18,-157.51 1116.76,-145.99 1103.37,-137.23"/>
<polygon fill="midnightblue" stroke="midnightblue" points="1105.11,-134.19 1094.82,-131.66 1101.29,-140.05 1105.11,-134.19"/>
</g>
<!-- Node38&#45;&gt;Node12 -->
<g id="edge80" class="edge">
<title>Node38&#45;&gt;Node12</title>
<path fill="none" stroke="midnightblue" d="M1523.56,-347.44C1532.18,-304.52 1551.33,-174.31 1482.44,-112 1440.46,-74.03 1045.66,-80.44 953.44,-75.84"/>
<polygon fill="midnightblue" stroke="midnightblue" points="953.53,-72.34 943.32,-75.19 953.07,-79.32 953.53,-72.34"/>
</g>
<!-- Node38&#45;&gt;Node17 -->
<g id="edge82" class="edge">
<title>Node38&#45;&gt;Node17</title>
<path fill="none" stroke="midnightblue" d="M1533.71,-347.4C1542.02,-338.58 1552.74,-327.18 1561.36,-318.02"/>
<polygon fill="midnightblue" stroke="midnightblue" points="1563.99,-320.34 1568.29,-310.66 1558.89,-315.54 1563.99,-320.34"/>
</g>
<!-- Node38&#45;&gt;Node25 -->
<g id="edge79" class="edge">
<title>Node38&#45;&gt;Node25</title>
<path fill="none" stroke="midnightblue" d="M1556.27,-347.38C1595.43,-330.44 1657.97,-298.75 1698.44,-255 1714.23,-237.93 1726.24,-213.85 1733.29,-197.4"/>
<polygon fill="midnightblue" stroke="midnightblue" points="1736.65,-198.42 1737.2,-187.83 1730.17,-195.77 1736.65,-198.42"/>
</g>
<!-- Node39&#45;&gt;Node12 -->
<g id="edge84" class="edge">
<title>Node39&#45;&gt;Node12</title>
<path fill="none" stroke="midnightblue" d="M197.4,-414.09C221.84,-383.38 307.25,-280.68 399.44,-224 533.93,-141.31 717.26,-96.24 809.08,-77.53"/>
<polygon fill="midnightblue" stroke="midnightblue" points="809.9,-80.94 819.02,-75.54 808.52,-74.08 809.9,-80.94"/>
</g>
<!-- Node40 -->
<g id="node40" class="node">
<title>Node40</title>
<g id="a_node40"><a xlink:title=" ">
<polygon fill="white" stroke="#bfbfbf" points="15.94,-353 15.94,-372 88.94,-372 88.94,-353 15.94,-353"/>
<text text-anchor="middle" x="52.44" y="-360" font-family="Helvetica,sans-Serif" font-size="10.00">string_view</text>
</a>
</g>
</g>
<!-- Node39&#45;&gt;Node40 -->
<g id="edge85" class="edge">
<title>Node39&#45;&gt;Node40</title>
<path fill="none" stroke="midnightblue" d="M170.67,-414.48C147.3,-404.4 108.23,-387.55 81.44,-376"/>
<polygon fill="midnightblue" stroke="midnightblue" points="82.74,-372.75 72.18,-372.01 79.97,-379.18 82.74,-372.75"/>
</g>
<!-- Node41&#45;&gt;Node8 -->
<g id="edge90" class="edge">
<title>Node41&#45;&gt;Node8</title>
<path fill="none" stroke="midnightblue" d="M1224.27,-224.47C1201.16,-215.77 1172.59,-203.34 1149.44,-188 1128.5,-174.13 1108.17,-153.46 1095.29,-139.17"/>
<polygon fill="midnightblue" stroke="midnightblue" points="1097.85,-136.78 1088.61,-131.59 1092.59,-141.41 1097.85,-136.78"/>
</g>
<!-- Node41&#45;&gt;Node12 -->
<g id="edge89" class="edge">
<title>Node41&#45;&gt;Node12</title>
<path fill="none" stroke="midnightblue" d="M1291.85,-224.48C1304.79,-215.83 1319.26,-203.43 1326.44,-188 1336.76,-165.83 1316.72,-117.25 1310.44,-112 1251.32,-62.57 1047.47,-82.56 953.43,-75.93"/>
<polygon fill="midnightblue" stroke="midnightblue" points="953.59,-72.43 943.33,-75.06 953,-79.4 953.59,-72.43"/>
</g>
<!-- Node41&#45;&gt;Node25 -->
<g id="edge87" class="edge">
<title>Node41&#45;&gt;Node25</title>
<path fill="none" stroke="midnightblue" d="M1336.13,-229.75C1426.07,-218.46 1581.64,-198.93 1671.31,-187.68"/>
<polygon fill="midnightblue" stroke="midnightblue" points="1671.89,-191.13 1681.38,-186.41 1671.02,-184.19 1671.89,-191.13"/>
</g>
<!-- Node41&#45;&gt;Node28 -->
<g id="edge88" class="edge">
<title>Node41&#45;&gt;Node28</title>
<path fill="none" stroke="midnightblue" d="M1196.67,-231.22C1170.03,-228.64 1139.35,-225.9 1111.44,-224 739.96,-198.65 646.01,-212.06 274.44,-188 262.43,-187.22 249.65,-186.24 237.32,-185.22"/>
<polygon fill="midnightblue" stroke="midnightblue" points="237.34,-181.71 227.08,-184.35 236.75,-188.68 237.34,-181.71"/>
</g>
</g>
</svg>
