<?xml version="1.0" encoding="UTF-8" standalone="no"?>
<!DOCTYPE svg PUBLIC "-//W3C//DTD SVG 1.1//EN"
 "http://www.w3.org/Graphics/SVG/1.1/DTD/svg11.dtd">
<!-- Generated by graphviz version 2.43.0 (0)
 -->
<!-- Title: sources/Component/Bonus/PlayerBonusComponent.hpp Pages: 1 -->
<svg width="1136pt" height="173pt"
 viewBox="0.00 0.00 1135.50 173.00" xmlns="http://www.w3.org/2000/svg" xmlns:xlink="http://www.w3.org/1999/xlink">
<g id="graph0" class="graph" transform="scale(1 1) rotate(0) translate(4 169)">
<title>sources/Component/Bonus/PlayerBonusComponent.hpp</title>
<polygon fill="white" stroke="transparent" points="-4,4 -4,-169 1131.5,-169 1131.5,4 -4,4"/>
<!-- Node1 -->
<g id="node1" class="node">
<title>Node1</title>
<g id="a_node1"><a xlink:title=" ">
<polygon fill="#bfbfbf" stroke="black" points="474.5,-134.5 474.5,-164.5 632.5,-164.5 632.5,-134.5 474.5,-134.5"/>
<text text-anchor="start" x="482.5" y="-152.5" font-family="Helvetica,sans-Serif" font-size="10.00">sources/Component/Bonus</text>
<text text-anchor="middle" x="553.5" y="-141.5" font-family="Helvetica,sans-Serif" font-size="10.00">/PlayerBonusComponent.hpp</text>
</a>
</g>
</g>
<!-- Node2 -->
<g id="node2" class="node">
<title>Node2</title>
<g id="a_node2"><a xlink:href="PlayerBonusComponent_8cpp.html" target="_top" xlink:title=" ">
<polygon fill="white" stroke="black" points="0,-67.5 0,-97.5 157,-97.5 157,-67.5 0,-67.5"/>
<text text-anchor="start" x="8" y="-85.5" font-family="Helvetica,sans-Serif" font-size="10.00">sources/Component/Bonus</text>
<text text-anchor="middle" x="78.5" y="-74.5" font-family="Helvetica,sans-Serif" font-size="10.00">/PlayerBonusComponent.cpp</text>
</a>
</g>
</g>
<!-- Node1&#45;&gt;Node2 -->
<g id="edge1" class="edge">
<title>Node1&#45;&gt;Node2</title>
<path fill="none" stroke="midnightblue" d="M464.12,-137.7C385.61,-128.01 268.34,-113.03 166.5,-98 163.44,-97.55 160.31,-97.08 157.16,-96.6"/>
<polygon fill="midnightblue" stroke="midnightblue" points="464.1,-141.22 474.46,-138.97 464.96,-134.28 464.1,-141.22"/>
</g>
<!-- Node3 -->
<g id="node3" class="node">
<title>Node3</title>
<g id="a_node3"><a xlink:href="Bonus_8cpp.html" target="_top" xlink:title=" ">
<polygon fill="white" stroke="black" points="175.5,-73 175.5,-92 313.5,-92 313.5,-73 175.5,-73"/>
<text text-anchor="middle" x="244.5" y="-80" font-family="Helvetica,sans-Serif" font-size="10.00">sources/Items/Bonus.cpp</text>
</a>
</g>
</g>
<!-- Node1&#45;&gt;Node3 -->
<g id="edge2" class="edge">
<title>Node1&#45;&gt;Node3</title>
<path fill="none" stroke="midnightblue" d="M476.9,-132.39C416.15,-119.61 333.65,-102.25 285.04,-92.03"/>
<polygon fill="midnightblue" stroke="midnightblue" points="476.33,-135.84 486.83,-134.48 477.77,-128.99 476.33,-135.84"/>
</g>
<!-- Node4 -->
<g id="node4" class="node">
<title>Node4</title>
<g id="a_node4"><a xlink:href="Map_8cpp.html" target="_top" xlink:title=" ">
<polygon fill="white" stroke="black" points="331.5,-73 331.5,-92 453.5,-92 453.5,-73 331.5,-73"/>
<text text-anchor="middle" x="392.5" y="-80" font-family="Helvetica,sans-Serif" font-size="10.00">sources/Map/Map.cpp</text>
</a>
</g>
</g>
<!-- Node1&#45;&gt;Node4 -->
<g id="edge3" class="edge">
<title>Node1&#45;&gt;Node4</title>
<path fill="none" stroke="midnightblue" d="M509.22,-130.62C478.05,-118.04 437.74,-101.77 413.57,-92.01"/>
<polygon fill="midnightblue" stroke="midnightblue" points="507.98,-133.9 518.57,-134.4 510.6,-127.41 507.98,-133.9"/>
</g>
<!-- Node5 -->
<g id="node5" class="node">
<title>Node5</title>
<g id="a_node5"><a xlink:href="ParserYaml_8cpp.html" target="_top" xlink:title=" ">
<polygon fill="white" stroke="black" points="471.5,-73 471.5,-92 635.5,-92 635.5,-73 471.5,-73"/>
<text text-anchor="middle" x="553.5" y="-80" font-family="Helvetica,sans-Serif" font-size="10.00">sources/Parser/ParserYaml.cpp</text>
</a>
</g>
</g>
<!-- Node1&#45;&gt;Node5 -->
<g id="edge4" class="edge">
<title>Node1&#45;&gt;Node5</title>
<path fill="none" stroke="midnightblue" d="M553.5,-124.25C553.5,-113.02 553.5,-100.38 553.5,-92.19"/>
<polygon fill="midnightblue" stroke="midnightblue" points="550,-124.4 553.5,-134.4 557,-124.4 550,-124.4"/>
</g>
<!-- Node6 -->
<g id="node6" class="node">
<title>Node6</title>
<g id="a_node6"><a xlink:href="GameScene_8cpp.html" target="_top" xlink:title=" ">
<polygon fill="white" stroke="black" points="654,-73 654,-92 827,-92 827,-73 654,-73"/>
<text text-anchor="middle" x="740.5" y="-80" font-family="Helvetica,sans-Serif" font-size="10.00">sources/Runner/GameScene.cpp</text>
</a>
</g>
</g>
<!-- Node1&#45;&gt;Node6 -->
<g id="edge5" class="edge">
<title>Node1&#45;&gt;Node6</title>
<path fill="none" stroke="midnightblue" d="M603.54,-131.11C639.92,-118.46 687.59,-101.89 716.03,-92.01"/>
<polygon fill="midnightblue" stroke="midnightblue" points="602.37,-127.81 594.08,-134.4 604.67,-134.42 602.37,-127.81"/>
</g>
<!-- Node7 -->
<g id="node7" class="node">
<title>Node7</title>
<g id="a_node7"><a xlink:href="PlayerBonusSystem_8hpp.html" target="_top" xlink:title=" ">
<polygon fill="white" stroke="black" points="845.5,-67.5 845.5,-97.5 983.5,-97.5 983.5,-67.5 845.5,-67.5"/>
<text text-anchor="start" x="853.5" y="-85.5" font-family="Helvetica,sans-Serif" font-size="10.00">sources/System/Bonus</text>
<text text-anchor="middle" x="914.5" y="-74.5" font-family="Helvetica,sans-Serif" font-size="10.00">/PlayerBonusSystem.hpp</text>
</a>
</g>
</g>
<!-- Node1&#45;&gt;Node7 -->
<g id="edge6" class="edge">
<title>Node1&#45;&gt;Node7</title>
<path fill="none" stroke="midnightblue" d="M642.36,-132.81C698.13,-122.92 771.54,-109.83 836.5,-98 839.35,-97.48 842.25,-96.95 845.18,-96.41"/>
<polygon fill="midnightblue" stroke="midnightblue" points="641.75,-129.37 632.51,-134.56 642.97,-136.26 641.75,-129.37"/>
</g>
<!-- Node10 -->
<g id="node10" class="node">
<title>Node10</title>
<g id="a_node10"><a xlink:href="LobbySystem_8cpp.html" target="_top" xlink:title=" ">
<polygon fill="white" stroke="black" points="1001.5,-67.5 1001.5,-97.5 1127.5,-97.5 1127.5,-67.5 1001.5,-67.5"/>
<text text-anchor="start" x="1009.5" y="-85.5" font-family="Helvetica,sans-Serif" font-size="10.00">sources/System/Lobby</text>
<text text-anchor="middle" x="1064.5" y="-74.5" font-family="Helvetica,sans-Serif" font-size="10.00">/LobbySystem.cpp</text>
</a>
</g>
</g>
<!-- Node1&#45;&gt;Node10 -->
<g id="edge9" class="edge">
<title>Node1&#45;&gt;Node10</title>
<path fill="none" stroke="midnightblue" d="M642.73,-140.46C731.64,-131.92 871.92,-117.04 992.5,-98 995.4,-97.54 998.35,-97.05 1001.34,-96.53"/>
<polygon fill="midnightblue" stroke="midnightblue" points="642.3,-136.98 632.68,-141.42 642.97,-143.95 642.3,-136.98"/>
</g>
<!-- Node8 -->
<g id="node8" class="node">
<title>Node8</title>
<g id="a_node8"><a xlink:href="Runner_8cpp.html" target="_top" xlink:title=" ">
<polygon fill="white" stroke="black" points="759,-6 759,-25 908,-25 908,-6 759,-6"/>
<text text-anchor="middle" x="833.5" y="-13" font-family="Helvetica,sans-Serif" font-size="10.00">sources/Runner/Runner.cpp</text>
</a>
</g>
</g>
<!-- Node7&#45;&gt;Node8 -->
<g id="edge7" class="edge">
<title>Node7&#45;&gt;Node8</title>
<path fill="none" stroke="midnightblue" d="M888.96,-61.01C873.93,-48.94 855.69,-34.3 844.33,-25.19"/>
<polygon fill="midnightblue" stroke="midnightblue" points="886.93,-63.87 896.92,-67.4 891.32,-58.41 886.93,-63.87"/>
</g>
<!-- Node9 -->
<g id="node9" class="node">
<title>Node9</title>
<g id="a_node9"><a xlink:href="PlayerBonusSystem_8cpp.html" target="_top" xlink:title=" ">
<polygon fill="white" stroke="black" points="926,-0.5 926,-30.5 1063,-30.5 1063,-0.5 926,-0.5"/>
<text text-anchor="start" x="934" y="-18.5" font-family="Helvetica,sans-Serif" font-size="10.00">sources/System/Bonus</text>
<text text-anchor="middle" x="994.5" y="-7.5" font-family="Helvetica,sans-Serif" font-size="10.00">/PlayerBonusSystem.cpp</text>
</a>
</g>
</g>
<!-- Node7&#45;&gt;Node9 -->
<g id="edge8" class="edge">
<title>Node7&#45;&gt;Node9</title>
<path fill="none" stroke="midnightblue" d="M939.87,-60.88C952.03,-51.01 966.28,-39.43 977.18,-30.58"/>
<polygon fill="midnightblue" stroke="midnightblue" points="937.41,-58.37 931.86,-67.4 941.83,-63.81 937.41,-58.37"/>
</g>
</g>
</svg>
