<?xml version="1.0" encoding="UTF-8" standalone="no"?>
<!DOCTYPE svg PUBLIC "-//W3C//DTD SVG 1.1//EN"
 "http://www.w3.org/Graphics/SVG/1.1/DTD/svg11.dtd">
<!-- Generated by graphviz version 2.43.0 (0)
 -->
<!-- Title: sources/Component/Position/PositionComponent.cpp Pages: 1 -->
<svg width="472pt" height="263pt"
 viewBox="0.00 0.00 471.50 263.00" xmlns="http://www.w3.org/2000/svg" xmlns:xlink="http://www.w3.org/1999/xlink">
<g id="graph0" class="graph" transform="scale(1 1) rotate(0) translate(4 259)">
<title>sources/Component/Position/PositionComponent.cpp</title>
<polygon fill="white" stroke="transparent" points="-4,4 -4,-259 467.5,-259 467.5,4 -4,4"/>
<!-- Node1 -->
<g id="node1" class="node">
<title>Node1</title>
<g id="a_node1"><a xlink:title=" ">
<polygon fill="#bfbfbf" stroke="black" points="152.5,-224.5 152.5,-254.5 307.5,-254.5 307.5,-224.5 152.5,-224.5"/>
<text text-anchor="start" x="160.5" y="-242.5" font-family="Helvetica,sans-Serif" font-size="10.00">sources/Component/Position</text>
<text text-anchor="middle" x="230" y="-231.5" font-family="Helvetica,sans-Serif" font-size="10.00">/PositionComponent.cpp</text>
</a>
</g>
</g>
<!-- Node2 -->
<g id="node2" class="node">
<title>Node2</title>
<g id="a_node2"><a xlink:href="PositionComponent_8hpp.html" target="_top" xlink:title=" ">
<polygon fill="white" stroke="black" points="163.5,-168.5 163.5,-187.5 296.5,-187.5 296.5,-168.5 163.5,-168.5"/>
<text text-anchor="middle" x="230" y="-175.5" font-family="Helvetica,sans-Serif" font-size="10.00">PositionComponent.hpp</text>
</a>
</g>
</g>
<!-- Node1&#45;&gt;Node2 -->
<g id="edge1" class="edge">
<title>Node1&#45;&gt;Node2</title>
<path fill="none" stroke="midnightblue" d="M230,-224.4C230,-216.47 230,-206.46 230,-197.86"/>
<polygon fill="midnightblue" stroke="midnightblue" points="233.5,-197.66 230,-187.66 226.5,-197.66 233.5,-197.66"/>
</g>
<!-- Node3 -->
<g id="node3" class="node">
<title>Node3</title>
<g id="a_node3"><a xlink:href="sources_2Models_2Vector3_8hpp.html" target="_top" xlink:title=" ">
<polygon fill="white" stroke="black" points="98.5,-112.5 98.5,-131.5 211.5,-131.5 211.5,-112.5 98.5,-112.5"/>
<text text-anchor="middle" x="155" y="-119.5" font-family="Helvetica,sans-Serif" font-size="10.00">Models/Vector3.hpp</text>
</a>
</g>
</g>
<!-- Node2&#45;&gt;Node3 -->
<g id="edge2" class="edge">
<title>Node2&#45;&gt;Node3</title>
<path fill="none" stroke="midnightblue" d="M217.95,-168.32C206.54,-160.11 189.17,-147.6 175.57,-137.81"/>
<polygon fill="midnightblue" stroke="midnightblue" points="177.43,-134.84 167.27,-131.83 173.34,-140.52 177.43,-134.84"/>
</g>
<!-- Node8 -->
<g id="node8" class="node">
<title>Node8</title>
<g id="a_node8"><a xlink:href="Component_8hpp.html" target="_top" xlink:title=" ">
<polygon fill="white" stroke="black" points="249.5,-112.5 249.5,-131.5 402.5,-131.5 402.5,-112.5 249.5,-112.5"/>
<text text-anchor="middle" x="326" y="-119.5" font-family="Helvetica,sans-Serif" font-size="10.00">Component/Component.hpp</text>
</a>
</g>
</g>
<!-- Node2&#45;&gt;Node8 -->
<g id="edge7" class="edge">
<title>Node2&#45;&gt;Node8</title>
<path fill="none" stroke="midnightblue" d="M245.42,-168.32C260.54,-159.82 283.82,-146.73 301.47,-136.8"/>
<polygon fill="midnightblue" stroke="midnightblue" points="303.61,-139.61 310.61,-131.65 300.18,-133.51 303.61,-139.61"/>
</g>
<!-- Node4 -->
<g id="node4" class="node">
<title>Node4</title>
<g id="a_node4"><a xlink:title=" ">
<polygon fill="white" stroke="#bfbfbf" points="0,-56.5 0,-75.5 60,-75.5 60,-56.5 0,-56.5"/>
<text text-anchor="middle" x="30" y="-63.5" font-family="Helvetica,sans-Serif" font-size="10.00">iostream</text>
</a>
</g>
</g>
<!-- Node3&#45;&gt;Node4 -->
<g id="edge3" class="edge">
<title>Node3&#45;&gt;Node4</title>
<path fill="none" stroke="midnightblue" d="M135.19,-112.44C114.71,-103.6 82.52,-89.69 59.14,-79.59"/>
<polygon fill="midnightblue" stroke="midnightblue" points="60.28,-76.27 49.71,-75.52 57.51,-82.7 60.28,-76.27"/>
</g>
<!-- Node5 -->
<g id="node5" class="node">
<title>Node5</title>
<g id="a_node5"><a xlink:title=" ">
<polygon fill="white" stroke="#bfbfbf" points="78.5,-56.5 78.5,-75.5 125.5,-75.5 125.5,-56.5 78.5,-56.5"/>
<text text-anchor="middle" x="102" y="-63.5" font-family="Helvetica,sans-Serif" font-size="10.00">cmath</text>
</a>
</g>
</g>
<!-- Node3&#45;&gt;Node5 -->
<g id="edge4" class="edge">
<title>Node3&#45;&gt;Node5</title>
<path fill="none" stroke="midnightblue" d="M146.25,-112.08C138.53,-104.22 127.1,-92.57 117.78,-83.08"/>
<polygon fill="midnightblue" stroke="midnightblue" points="120.09,-80.44 110.59,-75.75 115.1,-85.34 120.09,-80.44"/>
</g>
<!-- Node6 -->
<g id="node6" class="node">
<title>Node6</title>
<g id="a_node6"><a xlink:href="lib_2Ray_2sources_2Vector_2Vector3_8hpp.html" target="_top" xlink:title=" ">
<polygon fill="white" stroke="black" points="144,-56.5 144,-75.5 252,-75.5 252,-56.5 144,-56.5"/>
<text text-anchor="middle" x="198" y="-63.5" font-family="Helvetica,sans-Serif" font-size="10.00">Vector/Vector3.hpp</text>
</a>
</g>
</g>
<!-- Node3&#45;&gt;Node6 -->
<g id="edge5" class="edge">
<title>Node3&#45;&gt;Node6</title>
<path fill="none" stroke="midnightblue" d="M162.1,-112.08C168.24,-104.38 177.27,-93.03 184.74,-83.65"/>
<polygon fill="midnightblue" stroke="midnightblue" points="187.54,-85.75 191.03,-75.75 182.06,-81.39 187.54,-85.75"/>
</g>
<!-- Node7 -->
<g id="node7" class="node">
<title>Node7</title>
<g id="a_node7"><a xlink:title=" ">
<polygon fill="white" stroke="#bfbfbf" points="171.5,-0.5 171.5,-19.5 224.5,-19.5 224.5,-0.5 171.5,-0.5"/>
<text text-anchor="middle" x="198" y="-7.5" font-family="Helvetica,sans-Serif" font-size="10.00">raylib.h</text>
</a>
</g>
</g>
<!-- Node6&#45;&gt;Node7 -->
<g id="edge6" class="edge">
<title>Node6&#45;&gt;Node7</title>
<path fill="none" stroke="midnightblue" d="M198,-56.08C198,-49.01 198,-38.86 198,-29.99"/>
<polygon fill="midnightblue" stroke="midnightblue" points="201.5,-29.75 198,-19.75 194.5,-29.75 201.5,-29.75"/>
</g>
<!-- Node9 -->
<g id="node9" class="node">
<title>Node9</title>
<g id="a_node9"><a xlink:title=" ">
<polygon fill="white" stroke="#bfbfbf" points="270.5,-56.5 270.5,-75.5 317.5,-75.5 317.5,-56.5 270.5,-56.5"/>
<text text-anchor="middle" x="294" y="-63.5" font-family="Helvetica,sans-Serif" font-size="10.00">vector</text>
</a>
</g>
</g>
<!-- Node8&#45;&gt;Node9 -->
<g id="edge8" class="edge">
<title>Node8&#45;&gt;Node9</title>
<path fill="none" stroke="midnightblue" d="M320.72,-112.08C316.29,-104.61 309.84,-93.72 304.38,-84.52"/>
<polygon fill="midnightblue" stroke="midnightblue" points="307.29,-82.57 299.19,-75.75 301.27,-86.14 307.29,-82.57"/>
</g>
<!-- Node10 -->
<g id="node10" class="node">
<title>Node10</title>
<g id="a_node10"><a xlink:title=" ">
<polygon fill="white" stroke="#bfbfbf" points="336,-56.5 336,-75.5 380,-75.5 380,-56.5 336,-56.5"/>
<text text-anchor="middle" x="358" y="-63.5" font-family="Helvetica,sans-Serif" font-size="10.00">string</text>
</a>
</g>
</g>
<!-- Node8&#45;&gt;Node10 -->
<g id="edge9" class="edge">
<title>Node8&#45;&gt;Node10</title>
<path fill="none" stroke="midnightblue" d="M331.28,-112.08C335.71,-104.61 342.16,-93.72 347.62,-84.52"/>
<polygon fill="midnightblue" stroke="midnightblue" points="350.73,-86.14 352.81,-75.75 344.71,-82.57 350.73,-86.14"/>
</g>
<!-- Node11 -->
<g id="node11" class="node">
<title>Node11</title>
<g id="a_node11"><a xlink:title=" ">
<polygon fill="white" stroke="#bfbfbf" points="398.5,-56.5 398.5,-75.5 463.5,-75.5 463.5,-56.5 398.5,-56.5"/>
<text text-anchor="middle" x="431" y="-63.5" font-family="Helvetica,sans-Serif" font-size="10.00">typeindex</text>
</a>
</g>
</g>
<!-- Node8&#45;&gt;Node11 -->
<g id="edge10" class="edge">
<title>Node8&#45;&gt;Node11</title>
<path fill="none" stroke="midnightblue" d="M342.87,-112.32C359.71,-103.66 385.81,-90.24 405.24,-80.25"/>
<polygon fill="midnightblue" stroke="midnightblue" points="406.88,-83.34 414.17,-75.65 403.68,-77.12 406.88,-83.34"/>
</g>
</g>
</svg>
