<?xml version="1.0" encoding="UTF-8" standalone="no"?>
<!DOCTYPE svg PUBLIC "-//W3C//DTD SVG 1.1//EN"
 "http://www.w3.org/Graphics/SVG/1.1/DTD/svg11.dtd">
<!-- Generated by graphviz version 2.43.0 (0)
 -->
<!-- Title: lib/Ray/sources/Exceptions/RayError.cpp Pages: 1 -->
<svg width="155pt" height="151pt"
 viewBox="0.00 0.00 155.00 151.00" xmlns="http://www.w3.org/2000/svg" xmlns:xlink="http://www.w3.org/1999/xlink">
<g id="graph0" class="graph" transform="scale(1 1) rotate(0) translate(4 147)">
<title>lib/Ray/sources/Exceptions/RayError.cpp</title>
<polygon fill="white" stroke="transparent" points="-4,4 -4,-147 151,-147 151,4 -4,4"/>
<!-- Node1 -->
<g id="node1" class="node">
<title>Node1</title>
<g id="a_node1"><a xlink:title=" ">
<polygon fill="#bfbfbf" stroke="black" points="0,-112.5 0,-142.5 147,-142.5 147,-112.5 0,-112.5"/>
<text text-anchor="start" x="8" y="-130.5" font-family="Helvetica,sans-Serif" font-size="10.00">lib/Ray/sources/Exceptions</text>
<text text-anchor="middle" x="73.5" y="-119.5" font-family="Helvetica,sans-Serif" font-size="10.00">/RayError.cpp</text>
</a>
</g>
</g>
<!-- Node2 -->
<g id="node2" class="node">
<title>Node2</title>
<g id="a_node2"><a xlink:href="RayError_8hpp.html" target="_top" xlink:title=" ">
<polygon fill="white" stroke="black" points="34,-56.5 34,-75.5 113,-75.5 113,-56.5 34,-56.5"/>
<text text-anchor="middle" x="73.5" y="-63.5" font-family="Helvetica,sans-Serif" font-size="10.00">RayError.hpp</text>
</a>
</g>
</g>
<!-- Node1&#45;&gt;Node2 -->
<g id="edge1" class="edge">
<title>Node1&#45;&gt;Node2</title>
<path fill="none" stroke="midnightblue" d="M73.5,-112.4C73.5,-104.47 73.5,-94.46 73.5,-85.86"/>
<polygon fill="midnightblue" stroke="midnightblue" points="77,-85.66 73.5,-75.66 70,-85.66 77,-85.66"/>
</g>
<!-- Node3 -->
<g id="node3" class="node">
<title>Node3</title>
<g id="a_node3"><a xlink:title=" ">
<polygon fill="white" stroke="#bfbfbf" points="5,-0.5 5,-19.5 70,-19.5 70,-0.5 5,-0.5"/>
<text text-anchor="middle" x="37.5" y="-7.5" font-family="Helvetica,sans-Serif" font-size="10.00">stdexcept</text>
</a>
</g>
</g>
<!-- Node2&#45;&gt;Node3 -->
<g id="edge2" class="edge">
<title>Node2&#45;&gt;Node3</title>
<path fill="none" stroke="midnightblue" d="M67.56,-56.08C62.52,-48.53 55.16,-37.49 48.99,-28.23"/>
<polygon fill="midnightblue" stroke="midnightblue" points="51.79,-26.13 43.33,-19.75 45.97,-30.01 51.79,-26.13"/>
</g>
<!-- Node4 -->
<g id="node4" class="node">
<title>Node4</title>
<g id="a_node4"><a xlink:title=" ">
<polygon fill="white" stroke="#bfbfbf" points="88.5,-0.5 88.5,-19.5 132.5,-19.5 132.5,-0.5 88.5,-0.5"/>
<text text-anchor="middle" x="110.5" y="-7.5" font-family="Helvetica,sans-Serif" font-size="10.00">string</text>
</a>
</g>
</g>
<!-- Node2&#45;&gt;Node4 -->
<g id="edge3" class="edge">
<title>Node2&#45;&gt;Node4</title>
<path fill="none" stroke="midnightblue" d="M79.61,-56.08C84.78,-48.53 92.35,-37.49 98.69,-28.23"/>
<polygon fill="midnightblue" stroke="midnightblue" points="101.74,-29.98 104.5,-19.75 95.96,-26.02 101.74,-29.98"/>
</g>
</g>
</svg>
