<?xml version="1.0" encoding="UTF-8" standalone="no"?>
<!DOCTYPE svg PUBLIC "-//W3C//DTD SVG 1.1//EN"
 "http://www.w3.org/Graphics/SVG/1.1/DTD/svg11.dtd">
<!-- Generated by graphviz version 2.43.0 (0)
 -->
<!-- Title: sources/System/Lobby/ResumeLobbySystem.hpp Pages: 1 -->
<svg width="1462pt" height="453pt"
 viewBox="0.00 0.00 1462.00 453.00" xmlns="http://www.w3.org/2000/svg" xmlns:xlink="http://www.w3.org/1999/xlink">
<g id="graph0" class="graph" transform="scale(1 1) rotate(0) translate(4 449)">
<title>sources/System/Lobby/ResumeLobbySystem.hpp</title>
<polygon fill="white" stroke="transparent" points="-4,4 -4,-449 1458,-449 1458,4 -4,4"/>
<!-- Node1 -->
<g id="node1" class="node">
<title>Node1</title>
<g id="a_node1"><a xlink:title=" ">
<polygon fill="#bfbfbf" stroke="black" points="854,-414.5 854,-444.5 1000,-444.5 1000,-414.5 854,-414.5"/>
<text text-anchor="start" x="862" y="-432.5" font-family="Helvetica,sans-Serif" font-size="10.00">sources/System/Lobby</text>
<text text-anchor="middle" x="927" y="-421.5" font-family="Helvetica,sans-Serif" font-size="10.00">/ResumeLobbySystem.hpp</text>
</a>
</g>
</g>
<!-- Node2 -->
<g id="node2" class="node">
<title>Node2</title>
<g id="a_node2"><a xlink:href="System_8hpp.html" target="_top" xlink:title=" ">
<polygon fill="white" stroke="black" points="774,-358.5 774,-377.5 888,-377.5 888,-358.5 774,-358.5"/>
<text text-anchor="middle" x="831" y="-365.5" font-family="Helvetica,sans-Serif" font-size="10.00">System/System.hpp</text>
</a>
</g>
</g>
<!-- Node1&#45;&gt;Node2 -->
<g id="edge1" class="edge">
<title>Node1&#45;&gt;Node2</title>
<path fill="none" stroke="midnightblue" d="M904.25,-414.4C889.01,-404.95 869.01,-392.56 853.76,-383.11"/>
<polygon fill="midnightblue" stroke="midnightblue" points="855.31,-379.95 844.97,-377.66 851.62,-385.9 855.31,-379.95"/>
</g>
<!-- Node7 -->
<g id="node7" class="node">
<title>Node7</title>
<g id="a_node7"><a xlink:href="Entity_8hpp.html" target="_top" xlink:title=" ">
<polygon fill="white" stroke="black" points="701,-112.5 701,-131.5 797,-131.5 797,-112.5 701,-112.5"/>
<text text-anchor="middle" x="749" y="-119.5" font-family="Helvetica,sans-Serif" font-size="10.00">Entity/Entity.hpp</text>
</a>
</g>
</g>
<!-- Node1&#45;&gt;Node7 -->
<g id="edge67" class="edge">
<title>Node1&#45;&gt;Node7</title>
<path fill="none" stroke="midnightblue" d="M853.92,-414.76C824.68,-407.03 791.68,-395.34 765,-378 704,-338.36 682.65,-323.08 657,-255 652.14,-242.11 650.78,-236.29 657,-224 669.2,-199.89 687.37,-207.57 706,-188 719.66,-173.65 731.77,-154.44 739.62,-140.64"/>
<polygon fill="midnightblue" stroke="midnightblue" points="742.8,-142.13 744.55,-131.68 736.66,-138.75 742.8,-142.13"/>
</g>
<!-- Node8 -->
<g id="node8" class="node">
<title>Node8</title>
<g id="a_node8"><a xlink:title=" ">
<polygon fill="white" stroke="#bfbfbf" points="184,-0.5 184,-19.5 228,-19.5 228,-0.5 184,-0.5"/>
<text text-anchor="middle" x="206" y="-7.5" font-family="Helvetica,sans-Serif" font-size="10.00">string</text>
</a>
</g>
</g>
<!-- Node1&#45;&gt;Node8 -->
<g id="edge69" class="edge">
<title>Node1&#45;&gt;Node8</title>
<path fill="none" stroke="midnightblue" d="M853.87,-426.62C634.98,-420.02 0,-393.47 0,-307.5 0,-307.5 0,-307.5 0,-121 0,-84.28 20.57,-76.55 51,-56 53.62,-54.23 129.55,-32.6 174.15,-19.98"/>
<polygon fill="midnightblue" stroke="midnightblue" points="175.28,-23.3 183.95,-17.21 173.38,-16.57 175.28,-23.3"/>
</g>
<!-- Node27 -->
<g id="node27" class="node">
<title>Node27</title>
<g id="a_node27"><a xlink:href="ResumeLobbyComponent_8hpp.html" target="_top" xlink:title=" ">
<polygon fill="white" stroke="black" points="953.5,-291.5 953.5,-321.5 1130.5,-321.5 1130.5,-291.5 953.5,-291.5"/>
<text text-anchor="start" x="961.5" y="-309.5" font-family="Helvetica,sans-Serif" font-size="10.00">Component/Lobby/ResumeLobby</text>
<text text-anchor="middle" x="1042" y="-298.5" font-family="Helvetica,sans-Serif" font-size="10.00">Component.hpp</text>
</a>
</g>
</g>
<!-- Node1&#45;&gt;Node27 -->
<g id="edge51" class="edge">
<title>Node1&#45;&gt;Node27</title>
<path fill="none" stroke="midnightblue" d="M940.64,-414.14C960.61,-393.13 997.96,-353.83 1021.32,-329.26"/>
<polygon fill="midnightblue" stroke="midnightblue" points="1024.02,-331.5 1028.37,-321.84 1018.95,-326.67 1024.02,-331.5"/>
</g>
<!-- Node30 -->
<g id="node30" class="node">
<title>Node30</title>
<g id="a_node30"><a xlink:href="ControllableComponent_8hpp.html" target="_top" xlink:title=" ">
<polygon fill="white" stroke="black" points="1080,-224.5 1080,-254.5 1236,-254.5 1236,-224.5 1080,-224.5"/>
<text text-anchor="start" x="1088" y="-242.5" font-family="Helvetica,sans-Serif" font-size="10.00">Component/Controllable</text>
<text text-anchor="middle" x="1158" y="-231.5" font-family="Helvetica,sans-Serif" font-size="10.00">/ControllableComponent.hpp</text>
</a>
</g>
</g>
<!-- Node1&#45;&gt;Node30 -->
<g id="edge66" class="edge">
<title>Node1&#45;&gt;Node30</title>
<path fill="none" stroke="midnightblue" d="M985.25,-414.44C1033.96,-399.63 1101.49,-371.4 1140,-322 1152.69,-305.72 1156.83,-282.33 1158.01,-264.78"/>
<polygon fill="midnightblue" stroke="midnightblue" points="1161.51,-264.85 1158.41,-254.72 1154.51,-264.57 1161.51,-264.85"/>
</g>
<!-- Node34 -->
<g id="node34" class="node">
<title>Node34</title>
<g id="a_node34"><a xlink:title=" ">
<polygon fill="white" stroke="#bfbfbf" points="1186,-358.5 1186,-377.5 1228,-377.5 1228,-358.5 1186,-358.5"/>
<text text-anchor="middle" x="1207" y="-365.5" font-family="Helvetica,sans-Serif" font-size="10.00">array</text>
</a>
</g>
</g>
<!-- Node1&#45;&gt;Node34 -->
<g id="edge68" class="edge">
<title>Node1&#45;&gt;Node34</title>
<path fill="none" stroke="midnightblue" d="M999.83,-414.45C1048.67,-404.79 1114.35,-391.34 1172,-378 1173.27,-377.71 1174.57,-377.4 1175.88,-377.09"/>
<polygon fill="midnightblue" stroke="midnightblue" points="1177.08,-380.39 1185.94,-374.59 1175.39,-373.6 1177.08,-380.39"/>
</g>
<!-- Node3 -->
<g id="node3" class="node">
<title>Node3</title>
<g id="a_node3"><a xlink:title=" ">
<polygon fill="white" stroke="#bfbfbf" points="916,-168.5 916,-187.5 966,-187.5 966,-168.5 916,-168.5"/>
<text text-anchor="middle" x="941" y="-175.5" font-family="Helvetica,sans-Serif" font-size="10.00">chrono</text>
</a>
</g>
</g>
<!-- Node2&#45;&gt;Node3 -->
<g id="edge2" class="edge">
<title>Node2&#45;&gt;Node3</title>
<path fill="none" stroke="midnightblue" d="M852.71,-358.4C868.61,-351.03 889.52,-338.91 902,-322 930.07,-283.99 937.94,-226.93 940.14,-197.71"/>
<polygon fill="midnightblue" stroke="midnightblue" points="943.64,-197.85 940.75,-187.66 936.65,-197.42 943.64,-197.85"/>
</g>
<!-- Node4 -->
<g id="node4" class="node">
<title>Node4</title>
<g id="a_node4"><a xlink:title=" ">
<polygon fill="white" stroke="#bfbfbf" points="614.5,-0.5 614.5,-19.5 661.5,-19.5 661.5,-0.5 614.5,-0.5"/>
<text text-anchor="middle" x="638" y="-7.5" font-family="Helvetica,sans-Serif" font-size="10.00">vector</text>
</a>
</g>
</g>
<!-- Node2&#45;&gt;Node4 -->
<g id="edge3" class="edge">
<title>Node2&#45;&gt;Node4</title>
<path fill="none" stroke="midnightblue" d="M833.93,-358.28C846.82,-318.17 894.42,-149.43 817,-56 798.66,-33.87 718.09,-20.65 671.54,-14.73"/>
<polygon fill="midnightblue" stroke="midnightblue" points="671.95,-11.25 661.6,-13.51 671.1,-18.2 671.95,-11.25"/>
</g>
<!-- Node5 -->
<g id="node5" class="node">
<title>Node5</title>
<g id="a_node5"><a xlink:title=" ">
<polygon fill="white" stroke="#bfbfbf" points="66.5,-56.5 66.5,-75.5 123.5,-75.5 123.5,-56.5 66.5,-56.5"/>
<text text-anchor="middle" x="95" y="-63.5" font-family="Helvetica,sans-Serif" font-size="10.00">typeinfo</text>
</a>
</g>
</g>
<!-- Node2&#45;&gt;Node5 -->
<g id="edge4" class="edge">
<title>Node2&#45;&gt;Node5</title>
<path fill="none" stroke="midnightblue" d="M773.68,-364.78C650.07,-359.6 361.9,-345.37 267,-322 177.38,-299.93 76,-332.79 76,-240.5 76,-240.5 76,-240.5 76,-177 76,-144.49 84.16,-107.35 89.78,-85.61"/>
<polygon fill="midnightblue" stroke="midnightblue" points="93.22,-86.32 92.44,-75.75 86.46,-84.5 93.22,-86.32"/>
</g>
<!-- Node6 -->
<g id="node6" class="node">
<title>Node6</title>
<g id="a_node6"><a xlink:title=" ">
<polygon fill="white" stroke="#bfbfbf" points="1013.5,-0.5 1013.5,-19.5 1078.5,-19.5 1078.5,-0.5 1013.5,-0.5"/>
<text text-anchor="middle" x="1046" y="-7.5" font-family="Helvetica,sans-Serif" font-size="10.00">typeindex</text>
</a>
</g>
</g>
<!-- Node2&#45;&gt;Node6 -->
<g id="edge5" class="edge">
<title>Node2&#45;&gt;Node6</title>
<path fill="none" stroke="midnightblue" d="M888.22,-367.43C1042.23,-367.07 1454,-355.35 1454,-240.5 1454,-240.5 1454,-240.5 1454,-121 1454,-84.28 1434.95,-74.1 1403,-56 1350.16,-26.06 1171.65,-15.64 1088.84,-12.36"/>
<polygon fill="midnightblue" stroke="midnightblue" points="1088.89,-8.86 1078.76,-11.98 1088.62,-15.86 1088.89,-8.86"/>
</g>
<!-- Node2&#45;&gt;Node7 -->
<g id="edge6" class="edge">
<title>Node2&#45;&gt;Node7</title>
<path fill="none" stroke="midnightblue" d="M829.21,-358.48C824.41,-336.12 810.41,-273.97 793,-224 782.6,-194.16 767.3,-160.77 757.76,-140.84"/>
<polygon fill="midnightblue" stroke="midnightblue" points="760.85,-139.21 753.34,-131.74 754.55,-142.26 760.85,-139.21"/>
</g>
<!-- Node16 -->
<g id="node16" class="node">
<title>Node16</title>
<g id="a_node16"><a xlink:href="Wal_8hpp.html" target="_top" xlink:title=" ">
<polygon fill="white" stroke="black" points="276,-297 276,-316 332,-316 332,-297 276,-297"/>
<text text-anchor="middle" x="304" y="-304" font-family="Helvetica,sans-Serif" font-size="10.00">Wal.hpp</text>
</a>
</g>
</g>
<!-- Node2&#45;&gt;Node16 -->
<g id="edge20" class="edge">
<title>Node2&#45;&gt;Node16</title>
<path fill="none" stroke="midnightblue" d="M773.85,-360.55C665.69,-348.34 433.7,-322.14 342.22,-311.81"/>
<polygon fill="midnightblue" stroke="midnightblue" points="342.36,-308.31 332.03,-310.66 341.57,-315.26 342.36,-308.31"/>
</g>
<!-- Node18 -->
<g id="node18" class="node">
<title>Node18</title>
<g id="a_node18"><a xlink:href="ISystem_8hpp.html" target="_top" xlink:title=" ">
<polygon fill="white" stroke="black" points="666.5,-230 666.5,-249 783.5,-249 783.5,-230 666.5,-230"/>
<text text-anchor="middle" x="725" y="-237" font-family="Helvetica,sans-Serif" font-size="10.00">System/ISystem.hpp</text>
</a>
</g>
</g>
<!-- Node2&#45;&gt;Node18 -->
<g id="edge49" class="edge">
<title>Node2&#45;&gt;Node18</title>
<path fill="none" stroke="midnightblue" d="M823.71,-358.31C806.24,-337.45 761.71,-284.31 738.91,-257.11"/>
<polygon fill="midnightblue" stroke="midnightblue" points="741.44,-254.67 732.34,-249.26 736.08,-259.17 741.44,-254.67"/>
</g>
<!-- Node19 -->
<g id="node19" class="node">
<title>Node19</title>
<g id="a_node19"><a xlink:href="View_8hpp.html" target="_top" xlink:title=" ">
<polygon fill="white" stroke="black" points="582,-168.5 582,-187.5 670,-187.5 670,-168.5 582,-168.5"/>
<text text-anchor="middle" x="626" y="-175.5" font-family="Helvetica,sans-Serif" font-size="10.00">View/View.hpp</text>
</a>
</g>
</g>
<!-- Node2&#45;&gt;Node19 -->
<g id="edge48" class="edge">
<title>Node2&#45;&gt;Node19</title>
<path fill="none" stroke="midnightblue" d="M809.83,-358.49C773.76,-343 700.15,-306.96 657,-255 643.09,-238.26 634.75,-214.44 630.27,-197.94"/>
<polygon fill="midnightblue" stroke="midnightblue" points="633.58,-196.74 627.78,-187.88 626.79,-198.42 633.58,-196.74"/>
</g>
<!-- Node26 -->
<g id="node26" class="node">
<title>Node26</title>
<g id="a_node26"><a xlink:title=" ">
<polygon fill="white" stroke="#bfbfbf" points="1136,-112.5 1136,-131.5 1196,-131.5 1196,-112.5 1136,-112.5"/>
<text text-anchor="middle" x="1166" y="-119.5" font-family="Helvetica,sans-Serif" font-size="10.00">iostream</text>
</a>
</g>
</g>
<!-- Node2&#45;&gt;Node26 -->
<g id="edge50" class="edge">
<title>Node2&#45;&gt;Node26</title>
<path fill="none" stroke="midnightblue" d="M838.86,-358.32C846.31,-349.68 857.31,-335.77 864,-322 895.07,-258.09 854.3,-215.67 907,-168 938.5,-139.51 1061.12,-128.66 1125.7,-124.86"/>
<polygon fill="midnightblue" stroke="midnightblue" points="1126.13,-128.34 1135.92,-124.29 1125.74,-121.35 1126.13,-128.34"/>
</g>
<!-- Node7&#45;&gt;Node5 -->
<g id="edge9" class="edge">
<title>Node7&#45;&gt;Node5</title>
<path fill="none" stroke="midnightblue" d="M700.84,-113.08C697.85,-112.68 694.89,-112.32 692,-112 447.38,-84.88 380.31,-112.86 133.57,-75.99"/>
<polygon fill="midnightblue" stroke="midnightblue" points="134,-72.51 123.58,-74.47 132.95,-79.43 134,-72.51"/>
</g>
<!-- Node7&#45;&gt;Node8 -->
<g id="edge7" class="edge">
<title>Node7&#45;&gt;Node8</title>
<path fill="none" stroke="midnightblue" d="M735.23,-112.47C711.23,-98.05 659.71,-69.17 612,-56 453.76,-12.31 403.41,-49.95 238.24,-19.87"/>
<polygon fill="midnightblue" stroke="midnightblue" points="238.7,-16.4 228.23,-17.99 237.41,-23.28 238.7,-16.4"/>
</g>
<!-- Node9 -->
<g id="node9" class="node">
<title>Node9</title>
<g id="a_node9"><a xlink:title=" ">
<polygon fill="white" stroke="#bfbfbf" points="510.5,-56.5 510.5,-75.5 603.5,-75.5 603.5,-56.5 510.5,-56.5"/>
<text text-anchor="middle" x="557" y="-63.5" font-family="Helvetica,sans-Serif" font-size="10.00">unordered_map</text>
</a>
</g>
</g>
<!-- Node7&#45;&gt;Node9 -->
<g id="edge8" class="edge">
<title>Node7&#45;&gt;Node9</title>
<path fill="none" stroke="midnightblue" d="M718.58,-112.44C685.72,-103.2 633.22,-88.44 597.03,-78.26"/>
<polygon fill="midnightblue" stroke="midnightblue" points="597.85,-74.85 587.28,-75.52 595.96,-81.59 597.85,-74.85"/>
</g>
<!-- Node10 -->
<g id="node10" class="node">
<title>Node10</title>
<g id="a_node10"><a xlink:title=" ">
<polygon fill="white" stroke="#bfbfbf" points="411,-56.5 411,-75.5 469,-75.5 469,-56.5 411,-56.5"/>
<text text-anchor="middle" x="440" y="-63.5" font-family="Helvetica,sans-Serif" font-size="10.00">memory</text>
</a>
</g>
</g>
<!-- Node7&#45;&gt;Node10 -->
<g id="edge10" class="edge">
<title>Node7&#45;&gt;Node10</title>
<path fill="none" stroke="midnightblue" d="M700.72,-112.56C639.68,-101.9 535.76,-83.74 479.32,-73.87"/>
<polygon fill="midnightblue" stroke="midnightblue" points="479.8,-70.4 469.35,-72.13 478.6,-77.3 479.8,-70.4"/>
</g>
<!-- Node11 -->
<g id="node11" class="node">
<title>Node11</title>
<g id="a_node11"><a xlink:href="Component_8hpp.html" target="_top" xlink:title=" ">
<polygon fill="white" stroke="black" points="864.5,-56.5 864.5,-75.5 1017.5,-75.5 1017.5,-56.5 864.5,-56.5"/>
<text text-anchor="middle" x="941" y="-63.5" font-family="Helvetica,sans-Serif" font-size="10.00">Component/Component.hpp</text>
</a>
</g>
</g>
<!-- Node7&#45;&gt;Node11 -->
<g id="edge11" class="edge">
<title>Node7&#45;&gt;Node11</title>
<path fill="none" stroke="midnightblue" d="M779.42,-112.44C812.28,-103.2 864.78,-88.44 900.97,-78.26"/>
<polygon fill="midnightblue" stroke="midnightblue" points="902.04,-81.59 910.72,-75.52 900.15,-74.85 902.04,-81.59"/>
</g>
<!-- Node12 -->
<g id="node12" class="node">
<title>Node12</title>
<g id="a_node12"><a xlink:href="WalError_8hpp.html" target="_top" xlink:title=" ">
<polygon fill="white" stroke="black" points="141.5,-56.5 141.5,-75.5 270.5,-75.5 270.5,-56.5 141.5,-56.5"/>
<text text-anchor="middle" x="206" y="-63.5" font-family="Helvetica,sans-Serif" font-size="10.00">Exception/WalError.hpp</text>
</a>
</g>
</g>
<!-- Node7&#45;&gt;Node12 -->
<g id="edge15" class="edge">
<title>Node7&#45;&gt;Node12</title>
<path fill="none" stroke="midnightblue" d="M700.83,-113.17C697.84,-112.76 694.88,-112.36 692,-112 546.79,-93.83 376.31,-79.7 280.75,-72.42"/>
<polygon fill="midnightblue" stroke="midnightblue" points="280.84,-68.92 270.61,-71.65 280.31,-75.9 280.84,-68.92"/>
</g>
<!-- Node15 -->
<g id="node15" class="node">
<title>Node15</title>
<g id="a_node15"><a xlink:href="TypeHolder_8hpp.html" target="_top" xlink:title=" ">
<polygon fill="white" stroke="black" points="678,-56.5 678,-75.5 808,-75.5 808,-56.5 678,-56.5"/>
<text text-anchor="middle" x="743" y="-63.5" font-family="Helvetica,sans-Serif" font-size="10.00">Models/TypeHolder.hpp</text>
</a>
</g>
</g>
<!-- Node7&#45;&gt;Node15 -->
<g id="edge19" class="edge">
<title>Node7&#45;&gt;Node15</title>
<path fill="none" stroke="midnightblue" d="M748.01,-112.08C747.21,-104.93 746.07,-94.64 745.08,-85.69"/>
<polygon fill="midnightblue" stroke="midnightblue" points="748.56,-85.3 743.97,-75.75 741.6,-86.08 748.56,-85.3"/>
</g>
<!-- Node11&#45;&gt;Node4 -->
<g id="edge12" class="edge">
<title>Node11&#45;&gt;Node4</title>
<path fill="none" stroke="midnightblue" d="M892.99,-56.44C831.19,-45.43 725.4,-26.58 671.58,-16.98"/>
<polygon fill="midnightblue" stroke="midnightblue" points="671.99,-13.5 661.53,-15.19 670.77,-20.39 671.99,-13.5"/>
</g>
<!-- Node11&#45;&gt;Node6 -->
<g id="edge14" class="edge">
<title>Node11&#45;&gt;Node6</title>
<path fill="none" stroke="midnightblue" d="M957.87,-56.32C974.71,-47.66 1000.81,-34.24 1020.24,-24.25"/>
<polygon fill="midnightblue" stroke="midnightblue" points="1021.88,-27.34 1029.17,-19.65 1018.68,-21.12 1021.88,-27.34"/>
</g>
<!-- Node11&#45;&gt;Node8 -->
<g id="edge13" class="edge">
<title>Node11&#45;&gt;Node8</title>
<path fill="none" stroke="midnightblue" d="M864.28,-59.31C848.64,-58.18 832.29,-57.03 817,-56 562.58,-38.87 493.2,-63.63 238.15,-19.81"/>
<polygon fill="midnightblue" stroke="midnightblue" points="238.66,-16.35 228.21,-18.09 237.47,-23.24 238.66,-16.35"/>
</g>
<!-- Node12&#45;&gt;Node8 -->
<g id="edge18" class="edge">
<title>Node12&#45;&gt;Node8</title>
<path fill="none" stroke="midnightblue" d="M206,-56.08C206,-49.01 206,-38.86 206,-29.99"/>
<polygon fill="midnightblue" stroke="midnightblue" points="209.5,-29.75 206,-19.75 202.5,-29.75 209.5,-29.75"/>
</g>
<!-- Node13 -->
<g id="node13" class="node">
<title>Node13</title>
<g id="a_node13"><a xlink:title=" ">
<polygon fill="white" stroke="#bfbfbf" points="100.5,-0.5 100.5,-19.5 165.5,-19.5 165.5,-0.5 100.5,-0.5"/>
<text text-anchor="middle" x="133" y="-7.5" font-family="Helvetica,sans-Serif" font-size="10.00">exception</text>
</a>
</g>
</g>
<!-- Node12&#45;&gt;Node13 -->
<g id="edge16" class="edge">
<title>Node12&#45;&gt;Node13</title>
<path fill="none" stroke="midnightblue" d="M194.27,-56.32C183.16,-48.11 166.26,-35.6 153.02,-25.81"/>
<polygon fill="midnightblue" stroke="midnightblue" points="155.06,-22.97 144.94,-19.83 150.9,-28.59 155.06,-22.97"/>
</g>
<!-- Node14 -->
<g id="node14" class="node">
<title>Node14</title>
<g id="a_node14"><a xlink:title=" ">
<polygon fill="white" stroke="#bfbfbf" points="246.5,-0.5 246.5,-19.5 311.5,-19.5 311.5,-0.5 246.5,-0.5"/>
<text text-anchor="middle" x="279" y="-7.5" font-family="Helvetica,sans-Serif" font-size="10.00">stdexcept</text>
</a>
</g>
</g>
<!-- Node12&#45;&gt;Node14 -->
<g id="edge17" class="edge">
<title>Node12&#45;&gt;Node14</title>
<path fill="none" stroke="midnightblue" d="M217.73,-56.32C228.84,-48.11 245.74,-35.6 258.98,-25.81"/>
<polygon fill="midnightblue" stroke="midnightblue" points="261.1,-28.59 267.06,-19.83 256.94,-22.97 261.1,-28.59"/>
</g>
<!-- Node16&#45;&gt;Node4 -->
<g id="edge22" class="edge">
<title>Node16&#45;&gt;Node4</title>
<path fill="none" stroke="midnightblue" d="M302.88,-296.93C298.6,-259.78 287.3,-112.07 370,-56 407.65,-30.47 540.66,-17.87 603.99,-13.2"/>
<polygon fill="midnightblue" stroke="midnightblue" points="604.52,-16.68 614.25,-12.47 604.03,-9.69 604.52,-16.68"/>
</g>
<!-- Node16&#45;&gt;Node5 -->
<g id="edge25" class="edge">
<title>Node16&#45;&gt;Node5</title>
<path fill="none" stroke="midnightblue" d="M275.67,-297.58C252.28,-289.87 219.39,-276.17 197,-255 144.42,-205.3 112.79,-122.35 100.68,-85.55"/>
<polygon fill="midnightblue" stroke="midnightblue" points="103.91,-84.17 97.55,-75.7 97.24,-86.29 103.91,-84.17"/>
</g>
<!-- Node16&#45;&gt;Node8 -->
<g id="edge23" class="edge">
<title>Node16&#45;&gt;Node8</title>
<path fill="none" stroke="midnightblue" d="M275.78,-300.64C246.22,-294.36 199.78,-280.99 168,-255 95.54,-195.73 82.65,-166.03 57,-76 54.56,-67.45 51.7,-63.14 57,-56 58.8,-53.58 130.67,-32.62 173.92,-20.17"/>
<polygon fill="midnightblue" stroke="midnightblue" points="175.08,-23.48 183.72,-17.36 173.15,-16.76 175.08,-23.48"/>
</g>
<!-- Node16&#45;&gt;Node10 -->
<g id="edge24" class="edge">
<title>Node16&#45;&gt;Node10</title>
<path fill="none" stroke="midnightblue" d="M303.7,-296.61C303.17,-266.83 305.34,-169.27 353,-112 365.46,-97.03 384.18,-86.45 401.07,-79.33"/>
<polygon fill="midnightblue" stroke="midnightblue" points="402.71,-82.44 410.74,-75.52 400.15,-75.92 402.71,-82.44"/>
</g>
<!-- Node16&#45;&gt;Node12 -->
<g id="edge26" class="edge">
<title>Node16&#45;&gt;Node12</title>
<path fill="none" stroke="midnightblue" d="M275.58,-297.73C254.67,-290.4 227.6,-277.13 214,-255 180.97,-201.25 193.22,-121.62 201.23,-85.74"/>
<polygon fill="midnightblue" stroke="midnightblue" points="204.71,-86.25 203.62,-75.71 197.9,-84.63 204.71,-86.25"/>
</g>
<!-- Node17 -->
<g id="node17" class="node">
<title>Node17</title>
<g id="a_node17"><a xlink:title=" ">
<polygon fill="white" stroke="#bfbfbf" points="370.5,-112.5 370.5,-131.5 415.5,-131.5 415.5,-112.5 370.5,-112.5"/>
<text text-anchor="middle" x="393" y="-119.5" font-family="Helvetica,sans-Serif" font-size="10.00">utility</text>
</a>
</g>
</g>
<!-- Node16&#45;&gt;Node17 -->
<g id="edge21" class="edge">
<title>Node16&#45;&gt;Node17</title>
<path fill="none" stroke="midnightblue" d="M306.83,-296.82C314.23,-274.64 335.34,-214.35 361,-168 366.46,-158.15 373.64,-147.86 379.83,-139.61"/>
<polygon fill="midnightblue" stroke="midnightblue" points="382.68,-141.64 386.01,-131.58 377.14,-137.37 382.68,-141.64"/>
</g>
<!-- Node16&#45;&gt;Node18 -->
<g id="edge27" class="edge">
<title>Node16&#45;&gt;Node18</title>
<path fill="none" stroke="midnightblue" d="M332.28,-301.13C398.8,-290.86 566.63,-264.95 659.92,-250.55"/>
<polygon fill="midnightblue" stroke="midnightblue" points="660.47,-254.01 669.82,-249.02 659.4,-247.09 660.47,-254.01"/>
</g>
<!-- Node24 -->
<g id="node24" class="node">
<title>Node24</title>
<g id="a_node24"><a xlink:href="Callback_8hpp.html" target="_top" xlink:title=" ">
<polygon fill="white" stroke="black" points="370,-168.5 370,-187.5 488,-187.5 488,-168.5 370,-168.5"/>
<text text-anchor="middle" x="429" y="-175.5" font-family="Helvetica,sans-Serif" font-size="10.00">Models/Callback.hpp</text>
</a>
</g>
</g>
<!-- Node16&#45;&gt;Node24 -->
<g id="edge38" class="edge">
<title>Node16&#45;&gt;Node24</title>
<path fill="none" stroke="midnightblue" d="M313.3,-296.66C323.78,-286.65 341.27,-269.81 356,-255 376.25,-234.64 399.1,-210.68 413.76,-195.19"/>
<polygon fill="midnightblue" stroke="midnightblue" points="416.67,-197.2 420.99,-187.53 411.58,-192.4 416.67,-197.2"/>
</g>
<!-- Node25 -->
<g id="node25" class="node">
<title>Node25</title>
<g id="a_node25"><a xlink:href="Scene_8hpp.html" target="_top" xlink:title=" ">
<polygon fill="white" stroke="black" points="469.5,-230 469.5,-249 568.5,-249 568.5,-230 469.5,-230"/>
<text text-anchor="middle" x="519" y="-237" font-family="Helvetica,sans-Serif" font-size="10.00">Scene/Scene.hpp</text>
</a>
</g>
</g>
<!-- Node16&#45;&gt;Node25 -->
<g id="edge42" class="edge">
<title>Node16&#45;&gt;Node25</title>
<path fill="none" stroke="midnightblue" d="M332.11,-297C370.15,-285.5 438.16,-264.94 480.8,-252.05"/>
<polygon fill="midnightblue" stroke="midnightblue" points="481.98,-255.35 490.54,-249.1 479.96,-248.65 481.98,-255.35"/>
</g>
<!-- Node18&#45;&gt;Node3 -->
<g id="edge37" class="edge">
<title>Node18&#45;&gt;Node3</title>
<path fill="none" stroke="midnightblue" d="M755.95,-229.98C795.71,-219.02 864.56,-200.06 906.13,-188.6"/>
<polygon fill="midnightblue" stroke="midnightblue" points="907.12,-191.96 915.83,-185.93 905.26,-185.21 907.12,-191.96"/>
</g>
<!-- Node18&#45;&gt;Node7 -->
<g id="edge28" class="edge">
<title>Node18&#45;&gt;Node7</title>
<path fill="none" stroke="midnightblue" d="M730.95,-229.67C737.11,-219.95 746.34,-203.62 750,-188 753.58,-172.7 752.97,-154.82 751.67,-141.69"/>
<polygon fill="midnightblue" stroke="midnightblue" points="755.12,-141.06 750.44,-131.55 748.17,-141.9 755.12,-141.06"/>
</g>
<!-- Node18&#45;&gt;Node19 -->
<g id="edge29" class="edge">
<title>Node18&#45;&gt;Node19</title>
<path fill="none" stroke="midnightblue" d="M710.82,-229.98C694.64,-220.25 667.97,-204.23 648.86,-192.74"/>
<polygon fill="midnightblue" stroke="midnightblue" points="650.53,-189.66 640.16,-187.51 646.93,-195.66 650.53,-189.66"/>
</g>
<!-- Node19&#45;&gt;Node6 -->
<g id="edge32" class="edge">
<title>Node19&#45;&gt;Node6</title>
<path fill="none" stroke="midnightblue" d="M670.19,-171.44C763.4,-158.86 975.78,-125.4 1027,-76 1039.42,-64.02 1043.84,-44.41 1045.36,-29.86"/>
<polygon fill="midnightblue" stroke="midnightblue" points="1048.87,-29.73 1046.05,-19.52 1041.89,-29.26 1048.87,-29.73"/>
</g>
<!-- Node19&#45;&gt;Node7 -->
<g id="edge36" class="edge">
<title>Node19&#45;&gt;Node7</title>
<path fill="none" stroke="midnightblue" d="M645.49,-168.44C665.64,-159.6 697.32,-145.69 720.33,-135.59"/>
<polygon fill="midnightblue" stroke="midnightblue" points="721.85,-138.74 729.6,-131.52 719.04,-132.33 721.85,-138.74"/>
</g>
<!-- Node19&#45;&gt;Node17 -->
<g id="edge34" class="edge">
<title>Node19&#45;&gt;Node17</title>
<path fill="none" stroke="midnightblue" d="M584.03,-168.46C545.21,-160.38 485.68,-147.54 425.67,-132.32"/>
<polygon fill="midnightblue" stroke="midnightblue" points="426.2,-128.84 415.64,-129.75 424.46,-135.62 426.2,-128.84"/>
</g>
<!-- Node20 -->
<g id="node20" class="node">
<title>Node20</title>
<g id="a_node20"><a xlink:title=" ">
<polygon fill="white" stroke="#bfbfbf" points="517,-112.5 517,-131.5 549,-131.5 549,-112.5 517,-112.5"/>
<text text-anchor="middle" x="533" y="-119.5" font-family="Helvetica,sans-Serif" font-size="10.00">list</text>
</a>
</g>
</g>
<!-- Node19&#45;&gt;Node20 -->
<g id="edge30" class="edge">
<title>Node19&#45;&gt;Node20</title>
<path fill="none" stroke="midnightblue" d="M611.06,-168.32C596.41,-159.82 573.87,-146.73 556.76,-136.8"/>
<polygon fill="midnightblue" stroke="midnightblue" points="558.31,-133.65 547.9,-131.65 554.8,-139.7 558.31,-133.65"/>
</g>
<!-- Node21 -->
<g id="node21" class="node">
<title>Node21</title>
<g id="a_node21"><a xlink:title=" ">
<polygon fill="white" stroke="#bfbfbf" points="567.5,-112.5 567.5,-131.5 608.5,-131.5 608.5,-112.5 567.5,-112.5"/>
<text text-anchor="middle" x="588" y="-119.5" font-family="Helvetica,sans-Serif" font-size="10.00">tuple</text>
</a>
</g>
</g>
<!-- Node19&#45;&gt;Node21 -->
<g id="edge31" class="edge">
<title>Node19&#45;&gt;Node21</title>
<path fill="none" stroke="midnightblue" d="M619.73,-168.08C614.36,-160.46 606.48,-149.26 599.92,-139.94"/>
<polygon fill="midnightblue" stroke="midnightblue" points="602.78,-137.91 594.16,-131.75 597.05,-141.94 602.78,-137.91"/>
</g>
<!-- Node22 -->
<g id="node22" class="node">
<title>Node22</title>
<g id="a_node22"><a xlink:title=" ">
<polygon fill="white" stroke="#bfbfbf" points="433.5,-112.5 433.5,-131.5 498.5,-131.5 498.5,-112.5 433.5,-112.5"/>
<text text-anchor="middle" x="466" y="-119.5" font-family="Helvetica,sans-Serif" font-size="10.00">functional</text>
</a>
</g>
</g>
<!-- Node19&#45;&gt;Node22 -->
<g id="edge33" class="edge">
<title>Node19&#45;&gt;Node22</title>
<path fill="none" stroke="midnightblue" d="M600.65,-168.44C573.73,-159.36 531,-144.94 500.91,-134.78"/>
<polygon fill="midnightblue" stroke="midnightblue" points="501.83,-131.4 491.23,-131.52 499.59,-138.03 501.83,-131.4"/>
</g>
<!-- Node23 -->
<g id="node23" class="node">
<title>Node23</title>
<g id="a_node23"><a xlink:title=" ">
<polygon fill="white" stroke="#bfbfbf" points="627,-112.5 627,-131.5 683,-131.5 683,-112.5 627,-112.5"/>
<text text-anchor="middle" x="655" y="-119.5" font-family="Helvetica,sans-Serif" font-size="10.00">optional</text>
</a>
</g>
</g>
<!-- Node19&#45;&gt;Node23 -->
<g id="edge35" class="edge">
<title>Node19&#45;&gt;Node23</title>
<path fill="none" stroke="midnightblue" d="M630.79,-168.08C634.76,-160.69 640.53,-149.95 645.43,-140.81"/>
<polygon fill="midnightblue" stroke="midnightblue" points="648.65,-142.22 650.3,-131.75 642.49,-138.91 648.65,-142.22"/>
</g>
<!-- Node24&#45;&gt;Node9 -->
<g id="edge41" class="edge">
<title>Node24&#45;&gt;Node9</title>
<path fill="none" stroke="midnightblue" d="M407.54,-168.31C381.51,-156.52 343.19,-134.36 361,-112 369.78,-100.98 445.44,-85.96 500.13,-76.37"/>
<polygon fill="midnightblue" stroke="midnightblue" points="500.83,-79.8 510.08,-74.64 499.63,-72.91 500.83,-79.8"/>
</g>
<!-- Node24&#45;&gt;Node17 -->
<g id="edge40" class="edge">
<title>Node24&#45;&gt;Node17</title>
<path fill="none" stroke="midnightblue" d="M423.06,-168.08C418.02,-160.53 410.66,-149.49 404.49,-140.23"/>
<polygon fill="midnightblue" stroke="midnightblue" points="407.29,-138.13 398.83,-131.75 401.47,-142.01 407.29,-138.13"/>
</g>
<!-- Node24&#45;&gt;Node22 -->
<g id="edge39" class="edge">
<title>Node24&#45;&gt;Node22</title>
<path fill="none" stroke="midnightblue" d="M435.11,-168.08C440.28,-160.53 447.85,-149.49 454.19,-140.23"/>
<polygon fill="midnightblue" stroke="midnightblue" points="457.24,-141.98 460,-131.75 451.46,-138.02 457.24,-141.98"/>
</g>
<!-- Node25&#45;&gt;Node4 -->
<g id="edge43" class="edge">
<title>Node25&#45;&gt;Node4</title>
<path fill="none" stroke="midnightblue" d="M469.36,-236.05C433.77,-231.52 387.58,-219.45 361,-188 339.08,-162.06 341.05,-143.79 353,-112 364.63,-81.04 373.3,-72.44 402,-56 466.6,-18.99 555.85,-11.72 603.97,-10.7"/>
<polygon fill="midnightblue" stroke="midnightblue" points="604.2,-14.2 614.15,-10.57 604.11,-7.2 604.2,-14.2"/>
</g>
<!-- Node25&#45;&gt;Node7 -->
<g id="edge47" class="edge">
<title>Node25&#45;&gt;Node7</title>
<path fill="none" stroke="midnightblue" d="M552.03,-229.92C592.19,-219.17 657.29,-200.64 679,-188 701.05,-175.17 721.87,-154.29 734.98,-139.67"/>
<polygon fill="midnightblue" stroke="midnightblue" points="737.83,-141.73 741.76,-131.89 732.55,-137.13 737.83,-141.73"/>
</g>
<!-- Node25&#45;&gt;Node19 -->
<g id="edge46" class="edge">
<title>Node25&#45;&gt;Node19</title>
<path fill="none" stroke="midnightblue" d="M534.33,-229.98C551.97,-220.17 581.16,-203.93 601.86,-192.42"/>
<polygon fill="midnightblue" stroke="midnightblue" points="603.66,-195.43 610.7,-187.51 600.26,-189.31 603.66,-195.43"/>
</g>
<!-- Node25&#45;&gt;Node20 -->
<g id="edge44" class="edge">
<title>Node25&#45;&gt;Node20</title>
<path fill="none" stroke="midnightblue" d="M521.31,-230C523.92,-220.02 528.04,-202.95 530,-188 532.02,-172.58 532.74,-154.95 532.96,-141.94"/>
<polygon fill="midnightblue" stroke="midnightblue" points="536.47,-141.91 533.06,-131.87 529.47,-141.84 536.47,-141.91"/>
</g>
<!-- Node25&#45;&gt;Node22 -->
<g id="edge45" class="edge">
<title>Node25&#45;&gt;Node22</title>
<path fill="none" stroke="midnightblue" d="M517.21,-229.94C514.17,-216.35 507.32,-189.21 497,-168 492.18,-158.1 485.36,-147.93 479.35,-139.77"/>
<polygon fill="midnightblue" stroke="midnightblue" points="482.12,-137.63 473.27,-131.81 476.56,-141.88 482.12,-137.63"/>
</g>
<!-- Node27&#45;&gt;Node3 -->
<g id="edge65" class="edge">
<title>Node27&#45;&gt;Node3</title>
<path fill="none" stroke="midnightblue" d="M1024.57,-291.3C1013.4,-281.71 998.98,-268.4 988,-255 972.86,-236.52 958.92,-212.76 950.22,-196.77"/>
<polygon fill="midnightblue" stroke="midnightblue" points="953.31,-195.12 945.52,-187.93 947.13,-198.4 953.31,-195.12"/>
</g>
<!-- Node27&#45;&gt;Node7 -->
<g id="edge53" class="edge">
<title>Node27&#45;&gt;Node7</title>
<path fill="none" stroke="midnightblue" d="M1039.38,-291.19C1033.42,-262.85 1016,-199.62 975,-168 949.3,-148.18 865.39,-135.41 807.38,-128.71"/>
<polygon fill="midnightblue" stroke="midnightblue" points="807.56,-125.21 797.23,-127.57 806.78,-132.16 807.56,-125.21"/>
</g>
<!-- Node27&#45;&gt;Node11 -->
<g id="edge52" class="edge">
<title>Node27&#45;&gt;Node11</title>
<path fill="none" stroke="midnightblue" d="M1043.17,-291.28C1044.07,-274.72 1044.15,-246.72 1037,-224 1019.25,-167.63 977.03,-110.75 954.97,-83.53"/>
<polygon fill="midnightblue" stroke="midnightblue" points="957.63,-81.26 948.57,-75.77 952.23,-85.71 957.63,-81.26"/>
</g>
<!-- Node28 -->
<g id="node28" class="node">
<title>Node28</title>
<g id="a_node28"><a xlink:href="Color_8hpp.html" target="_top" xlink:title=" ">
<polygon fill="white" stroke="black" points="1309,-230 1309,-249 1371,-249 1371,-230 1309,-230"/>
<text text-anchor="middle" x="1340" y="-237" font-family="Helvetica,sans-Serif" font-size="10.00">Color.hpp</text>
</a>
</g>
</g>
<!-- Node27&#45;&gt;Node28 -->
<g id="edge54" class="edge">
<title>Node27&#45;&gt;Node28</title>
<path fill="none" stroke="midnightblue" d="M1106.29,-291.48C1164.72,-278.73 1249.17,-260.31 1298.94,-249.46"/>
<polygon fill="midnightblue" stroke="midnightblue" points="1299.69,-252.88 1308.71,-247.32 1298.2,-246.04 1299.69,-252.88"/>
</g>
<!-- Node27&#45;&gt;Node30 -->
<g id="edge56" class="edge">
<title>Node27&#45;&gt;Node30</title>
<path fill="none" stroke="midnightblue" d="M1067.17,-291.4C1083.74,-282.11 1105.64,-269.84 1123.78,-259.67"/>
<polygon fill="midnightblue" stroke="midnightblue" points="1125.87,-262.52 1132.88,-254.58 1122.44,-256.41 1125.87,-262.52"/>
</g>
<!-- Node29 -->
<g id="node29" class="node">
<title>Node29</title>
<g id="a_node29"><a xlink:title=" ">
<polygon fill="white" stroke="#bfbfbf" points="1340.5,-56.5 1340.5,-75.5 1393.5,-75.5 1393.5,-56.5 1340.5,-56.5"/>
<text text-anchor="middle" x="1367" y="-63.5" font-family="Helvetica,sans-Serif" font-size="10.00">raylib.h</text>
</a>
</g>
</g>
<!-- Node28&#45;&gt;Node29 -->
<g id="edge55" class="edge">
<title>Node28&#45;&gt;Node29</title>
<path fill="none" stroke="midnightblue" d="M1346.47,-230C1359.19,-212.7 1387.05,-171.67 1397,-132 1399.16,-123.38 1399.58,-120.51 1397,-112 1393.88,-101.7 1387.55,-91.61 1381.5,-83.6"/>
<polygon fill="midnightblue" stroke="midnightblue" points="1384.22,-81.4 1375.21,-75.82 1378.77,-85.8 1384.22,-81.4"/>
</g>
<!-- Node30&#45;&gt;Node3 -->
<g id="edge64" class="edge">
<title>Node30&#45;&gt;Node3</title>
<path fill="none" stroke="midnightblue" d="M1106.85,-224.47C1066.59,-213.44 1011.55,-198.34 976.13,-188.63"/>
<polygon fill="midnightblue" stroke="midnightblue" points="976.82,-185.19 966.25,-185.92 974.97,-191.94 976.82,-185.19"/>
</g>
<!-- Node30&#45;&gt;Node7 -->
<g id="edge63" class="edge">
<title>Node30&#45;&gt;Node7</title>
<path fill="none" stroke="midnightblue" d="M1133.35,-224.39C1104.29,-208.36 1054.1,-182.55 1008,-168 940.88,-146.82 860.64,-134.83 807.44,-128.64"/>
<polygon fill="midnightblue" stroke="midnightblue" points="807.5,-125.12 797.17,-127.48 806.71,-132.08 807.5,-125.12"/>
</g>
<!-- Node30&#45;&gt;Node11 -->
<g id="edge62" class="edge">
<title>Node30&#45;&gt;Node11</title>
<path fill="none" stroke="midnightblue" d="M1153.6,-224.45C1144.72,-198.39 1122.19,-142.46 1084,-112 1062.89,-95.17 1035.41,-84.59 1010.19,-77.96"/>
<polygon fill="midnightblue" stroke="midnightblue" points="1010.83,-74.51 1000.28,-75.52 1009.16,-81.31 1010.83,-74.51"/>
</g>
<!-- Node31 -->
<g id="node31" class="node">
<title>Node31</title>
<g id="a_node31"><a xlink:href="sources_2Models_2Vector2_8hpp.html" target="_top" xlink:title=" ">
<polygon fill="white" stroke="black" points="1158.5,-168.5 1158.5,-187.5 1271.5,-187.5 1271.5,-168.5 1158.5,-168.5"/>
<text text-anchor="middle" x="1215" y="-175.5" font-family="Helvetica,sans-Serif" font-size="10.00">Models/Vector2.hpp</text>
</a>
</g>
</g>
<!-- Node30&#45;&gt;Node31 -->
<g id="edge57" class="edge">
<title>Node30&#45;&gt;Node31</title>
<path fill="none" stroke="midnightblue" d="M1171.51,-224.4C1179.96,-215.58 1190.88,-204.18 1199.66,-195.02"/>
<polygon fill="midnightblue" stroke="midnightblue" points="1202.32,-197.3 1206.71,-187.66 1197.26,-192.46 1202.32,-197.3"/>
</g>
<!-- Node31&#45;&gt;Node26 -->
<g id="edge58" class="edge">
<title>Node31&#45;&gt;Node26</title>
<path fill="none" stroke="midnightblue" d="M1206.91,-168.08C1199.84,-160.3 1189.41,-148.8 1180.85,-139.37"/>
<polygon fill="midnightblue" stroke="midnightblue" points="1183.25,-136.8 1173.94,-131.75 1178.07,-141.51 1183.25,-136.8"/>
</g>
<!-- Node32 -->
<g id="node32" class="node">
<title>Node32</title>
<g id="a_node32"><a xlink:title=" ">
<polygon fill="white" stroke="#bfbfbf" points="1214.5,-112.5 1214.5,-131.5 1261.5,-131.5 1261.5,-112.5 1214.5,-112.5"/>
<text text-anchor="middle" x="1238" y="-119.5" font-family="Helvetica,sans-Serif" font-size="10.00">cmath</text>
</a>
</g>
</g>
<!-- Node31&#45;&gt;Node32 -->
<g id="edge59" class="edge">
<title>Node31&#45;&gt;Node32</title>
<path fill="none" stroke="midnightblue" d="M1218.8,-168.08C1221.91,-160.77 1226.42,-150.18 1230.29,-141.1"/>
<polygon fill="midnightblue" stroke="midnightblue" points="1233.57,-142.32 1234.27,-131.75 1227.13,-139.58 1233.57,-142.32"/>
</g>
<!-- Node33 -->
<g id="node33" class="node">
<title>Node33</title>
<g id="a_node33"><a xlink:href="lib_2Ray_2sources_2Vector_2Vector2_8hpp.html" target="_top" xlink:title=" ">
<polygon fill="white" stroke="black" points="1280,-112.5 1280,-131.5 1388,-131.5 1388,-112.5 1280,-112.5"/>
<text text-anchor="middle" x="1334" y="-119.5" font-family="Helvetica,sans-Serif" font-size="10.00">Vector/Vector2.hpp</text>
</a>
</g>
</g>
<!-- Node31&#45;&gt;Node33 -->
<g id="edge60" class="edge">
<title>Node31&#45;&gt;Node33</title>
<path fill="none" stroke="midnightblue" d="M1233.86,-168.44C1253.27,-159.64 1283.73,-145.81 1305.96,-135.72"/>
<polygon fill="midnightblue" stroke="midnightblue" points="1307.57,-138.84 1315.23,-131.52 1304.68,-132.46 1307.57,-138.84"/>
</g>
<!-- Node33&#45;&gt;Node29 -->
<g id="edge61" class="edge">
<title>Node33&#45;&gt;Node29</title>
<path fill="none" stroke="midnightblue" d="M1339.45,-112.08C1344.01,-104.61 1350.67,-93.72 1356.29,-84.52"/>
<polygon fill="midnightblue" stroke="midnightblue" points="1359.42,-86.11 1361.65,-75.75 1353.45,-82.46 1359.42,-86.11"/>
</g>
</g>
</svg>
