<?xml version="1.0" encoding="UTF-8" standalone="no"?>
<!DOCTYPE svg PUBLIC "-//W3C//DTD SVG 1.1//EN"
 "http://www.w3.org/Graphics/SVG/1.1/DTD/svg11.dtd">
<!-- Generated by graphviz version 2.43.0 (0)
 -->
<!-- Title: lib/wal/sources/Scene/Scene.cpp Pages: 1 -->
<svg width="1002pt" height="319pt"
 viewBox="0.00 0.00 1002.38 319.00" xmlns="http://www.w3.org/2000/svg" xmlns:xlink="http://www.w3.org/1999/xlink">
<g id="graph0" class="graph" transform="scale(1 1) rotate(0) translate(4 315)">
<title>lib/wal/sources/Scene/Scene.cpp</title>
<polygon fill="white" stroke="transparent" points="-4,4 -4,-315 998.38,-315 998.38,4 -4,4"/>
<!-- Node1 -->
<g id="node1" class="node">
<title>Node1</title>
<g id="a_node1"><a xlink:title=" ">
<polygon fill="#bfbfbf" stroke="black" points="76.38,-280.5 76.38,-310.5 198.38,-310.5 198.38,-280.5 76.38,-280.5"/>
<text text-anchor="start" x="84.38" y="-298.5" font-family="Helvetica,sans-Serif" font-size="10.00">lib/wal/sources/Scene</text>
<text text-anchor="middle" x="137.38" y="-287.5" font-family="Helvetica,sans-Serif" font-size="10.00">/Scene.cpp</text>
</a>
</g>
</g>
<!-- Node2 -->
<g id="node2" class="node">
<title>Node2</title>
<g id="a_node2"><a xlink:href="Scene_8hpp.html" target="_top" xlink:title=" ">
<polygon fill="white" stroke="black" points="61.88,-224.5 61.88,-243.5 128.88,-243.5 128.88,-224.5 61.88,-224.5"/>
<text text-anchor="middle" x="95.38" y="-231.5" font-family="Helvetica,sans-Serif" font-size="10.00">Scene.hpp</text>
</a>
</g>
</g>
<!-- Node1&#45;&gt;Node2 -->
<g id="edge1" class="edge">
<title>Node1&#45;&gt;Node2</title>
<path fill="none" stroke="midnightblue" d="M127.42,-280.4C121.38,-271.84 113.64,-260.87 107.28,-251.86"/>
<polygon fill="midnightblue" stroke="midnightblue" points="110.11,-249.81 101.49,-243.66 104.4,-253.85 110.11,-249.81"/>
</g>
<!-- Node21 -->
<g id="node21" class="node">
<title>Node21</title>
<g id="a_node21"><a xlink:title=" ">
<polygon fill="white" stroke="#bfbfbf" points="147.38,-224.5 147.38,-243.5 211.38,-243.5 211.38,-224.5 147.38,-224.5"/>
<text text-anchor="middle" x="179.38" y="-231.5" font-family="Helvetica,sans-Serif" font-size="10.00">algorithm</text>
</a>
</g>
</g>
<!-- Node1&#45;&gt;Node21 -->
<g id="edge27" class="edge">
<title>Node1&#45;&gt;Node21</title>
<path fill="none" stroke="midnightblue" d="M147.33,-280.4C153.37,-271.84 161.11,-260.87 167.48,-251.86"/>
<polygon fill="midnightblue" stroke="midnightblue" points="170.36,-253.85 173.26,-243.66 164.64,-249.81 170.36,-253.85"/>
</g>
<!-- Node3 -->
<g id="node3" class="node">
<title>Node3</title>
<g id="a_node3"><a xlink:title=" ">
<polygon fill="white" stroke="#bfbfbf" points="65.88,-0.5 65.88,-19.5 112.88,-19.5 112.88,-0.5 65.88,-0.5"/>
<text text-anchor="middle" x="89.38" y="-7.5" font-family="Helvetica,sans-Serif" font-size="10.00">vector</text>
</a>
</g>
</g>
<!-- Node2&#45;&gt;Node3 -->
<g id="edge2" class="edge">
<title>Node2&#45;&gt;Node3</title>
<path fill="none" stroke="midnightblue" d="M83.01,-224.49C61.77,-209.02 19.14,-173.96 3.38,-132 -12.88,-88.74 35.82,-46.72 66.47,-25.43"/>
<polygon fill="midnightblue" stroke="midnightblue" points="68.58,-28.22 74.93,-19.75 64.68,-22.41 68.58,-28.22"/>
</g>
<!-- Node4 -->
<g id="node4" class="node">
<title>Node4</title>
<g id="a_node4"><a xlink:title=" ">
<polygon fill="white" stroke="#bfbfbf" points="12.38,-112.5 12.38,-131.5 44.38,-131.5 44.38,-112.5 12.38,-112.5"/>
<text text-anchor="middle" x="28.38" y="-119.5" font-family="Helvetica,sans-Serif" font-size="10.00">list</text>
</a>
</g>
</g>
<!-- Node2&#45;&gt;Node4 -->
<g id="edge3" class="edge">
<title>Node2&#45;&gt;Node4</title>
<path fill="none" stroke="midnightblue" d="M90.12,-224.37C79.11,-206.3 53.46,-164.18 38.92,-140.31"/>
<polygon fill="midnightblue" stroke="midnightblue" points="41.8,-138.31 33.61,-131.59 35.82,-141.95 41.8,-138.31"/>
</g>
<!-- Node5 -->
<g id="node5" class="node">
<title>Node5</title>
<g id="a_node5"><a xlink:title=" ">
<polygon fill="white" stroke="#bfbfbf" points="62.88,-112.5 62.88,-131.5 127.88,-131.5 127.88,-112.5 62.88,-112.5"/>
<text text-anchor="middle" x="95.38" y="-119.5" font-family="Helvetica,sans-Serif" font-size="10.00">functional</text>
</a>
</g>
</g>
<!-- Node2&#45;&gt;Node5 -->
<g id="edge4" class="edge">
<title>Node2&#45;&gt;Node5</title>
<path fill="none" stroke="midnightblue" d="M95.38,-224.37C95.38,-206.62 95.38,-165.67 95.38,-141.6"/>
<polygon fill="midnightblue" stroke="midnightblue" points="98.88,-141.59 95.38,-131.59 91.88,-141.59 98.88,-141.59"/>
</g>
<!-- Node6 -->
<g id="node6" class="node">
<title>Node6</title>
<g id="a_node6"><a xlink:href="View_8hpp.html" target="_top" xlink:title=" ">
<polygon fill="white" stroke="black" points="147.38,-168.5 147.38,-187.5 235.38,-187.5 235.38,-168.5 147.38,-168.5"/>
<text text-anchor="middle" x="191.38" y="-175.5" font-family="Helvetica,sans-Serif" font-size="10.00">View/View.hpp</text>
</a>
</g>
</g>
<!-- Node2&#45;&gt;Node6 -->
<g id="edge5" class="edge">
<title>Node2&#45;&gt;Node6</title>
<path fill="none" stroke="midnightblue" d="M110.8,-224.32C125.92,-215.82 149.19,-202.73 166.85,-192.8"/>
<polygon fill="midnightblue" stroke="midnightblue" points="168.99,-195.61 175.99,-187.65 165.56,-189.51 168.99,-195.61"/>
</g>
<!-- Node11 -->
<g id="node11" class="node">
<title>Node11</title>
<g id="a_node11"><a xlink:href="Entity_8hpp.html" target="_top" xlink:title=" ">
<polygon fill="white" stroke="black" points="562.38,-112.5 562.38,-131.5 658.38,-131.5 658.38,-112.5 562.38,-112.5"/>
<text text-anchor="middle" x="610.38" y="-119.5" font-family="Helvetica,sans-Serif" font-size="10.00">Entity/Entity.hpp</text>
</a>
</g>
</g>
<!-- Node2&#45;&gt;Node11 -->
<g id="edge26" class="edge">
<title>Node2&#45;&gt;Node11</title>
<path fill="none" stroke="midnightblue" d="M129.17,-225.78C217.63,-206.89 456.38,-155.89 560.59,-133.63"/>
<polygon fill="midnightblue" stroke="midnightblue" points="561.49,-137.02 570.54,-131.51 560.03,-130.17 561.49,-137.02"/>
</g>
<!-- Node6&#45;&gt;Node4 -->
<g id="edge6" class="edge">
<title>Node6&#45;&gt;Node4</title>
<path fill="none" stroke="midnightblue" d="M164.32,-168.45C138.35,-160.17 97.79,-147.11 54.14,-132.19"/>
<polygon fill="midnightblue" stroke="midnightblue" points="55.08,-128.82 44.49,-128.88 52.81,-135.44 55.08,-128.82"/>
</g>
<!-- Node6&#45;&gt;Node5 -->
<g id="edge9" class="edge">
<title>Node6&#45;&gt;Node5</title>
<path fill="none" stroke="midnightblue" d="M175.95,-168.32C160.84,-159.82 137.56,-146.73 119.91,-136.8"/>
<polygon fill="midnightblue" stroke="midnightblue" points="121.19,-133.51 110.76,-131.65 117.76,-139.61 121.19,-133.51"/>
</g>
<!-- Node7 -->
<g id="node7" class="node">
<title>Node7</title>
<g id="a_node7"><a xlink:title=" ">
<polygon fill="white" stroke="#bfbfbf" points="145.88,-112.5 145.88,-131.5 186.88,-131.5 186.88,-112.5 145.88,-112.5"/>
<text text-anchor="middle" x="166.38" y="-119.5" font-family="Helvetica,sans-Serif" font-size="10.00">tuple</text>
</a>
</g>
</g>
<!-- Node6&#45;&gt;Node7 -->
<g id="edge7" class="edge">
<title>Node6&#45;&gt;Node7</title>
<path fill="none" stroke="midnightblue" d="M187.25,-168.08C183.86,-160.77 178.96,-150.18 174.76,-141.1"/>
<polygon fill="midnightblue" stroke="midnightblue" points="177.81,-139.36 170.43,-131.75 171.45,-142.3 177.81,-139.36"/>
</g>
<!-- Node8 -->
<g id="node8" class="node">
<title>Node8</title>
<g id="a_node8"><a xlink:title=" ">
<polygon fill="white" stroke="#bfbfbf" points="235.88,-0.5 235.88,-19.5 300.88,-19.5 300.88,-0.5 235.88,-0.5"/>
<text text-anchor="middle" x="268.38" y="-7.5" font-family="Helvetica,sans-Serif" font-size="10.00">typeindex</text>
</a>
</g>
</g>
<!-- Node6&#45;&gt;Node8 -->
<g id="edge8" class="edge">
<title>Node6&#45;&gt;Node8</title>
<path fill="none" stroke="midnightblue" d="M193.46,-168.41C198.59,-148.06 213.01,-95.64 234.38,-56 239.82,-45.89 247.41,-35.6 254.04,-27.42"/>
<polygon fill="midnightblue" stroke="midnightblue" points="256.73,-29.66 260.47,-19.75 251.36,-25.16 256.73,-29.66"/>
</g>
<!-- Node9 -->
<g id="node9" class="node">
<title>Node9</title>
<g id="a_node9"><a xlink:title=" ">
<polygon fill="white" stroke="#bfbfbf" points="243.88,-112.5 243.88,-131.5 288.88,-131.5 288.88,-112.5 243.88,-112.5"/>
<text text-anchor="middle" x="266.38" y="-119.5" font-family="Helvetica,sans-Serif" font-size="10.00">utility</text>
</a>
</g>
</g>
<!-- Node6&#45;&gt;Node9 -->
<g id="edge10" class="edge">
<title>Node6&#45;&gt;Node9</title>
<path fill="none" stroke="midnightblue" d="M203.43,-168.32C214.84,-160.11 232.21,-147.6 245.81,-137.81"/>
<polygon fill="midnightblue" stroke="midnightblue" points="248.04,-140.52 254.11,-131.83 243.95,-134.84 248.04,-140.52"/>
</g>
<!-- Node10 -->
<g id="node10" class="node">
<title>Node10</title>
<g id="a_node10"><a xlink:title=" ">
<polygon fill="white" stroke="#bfbfbf" points="307.38,-112.5 307.38,-131.5 363.38,-131.5 363.38,-112.5 307.38,-112.5"/>
<text text-anchor="middle" x="335.38" y="-119.5" font-family="Helvetica,sans-Serif" font-size="10.00">optional</text>
</a>
</g>
</g>
<!-- Node6&#45;&gt;Node10 -->
<g id="edge11" class="edge">
<title>Node6&#45;&gt;Node10</title>
<path fill="none" stroke="midnightblue" d="M214.19,-168.44C238.21,-159.44 276.21,-145.19 303.25,-135.05"/>
<polygon fill="midnightblue" stroke="midnightblue" points="304.53,-138.3 312.67,-131.52 302.07,-131.75 304.53,-138.3"/>
</g>
<!-- Node6&#45;&gt;Node11 -->
<g id="edge12" class="edge">
<title>Node6&#45;&gt;Node11</title>
<path fill="none" stroke="midnightblue" d="M235.42,-171.32C311.44,-161.53 467.25,-141.45 552.13,-130.51"/>
<polygon fill="midnightblue" stroke="midnightblue" points="552.64,-133.97 562.11,-129.22 551.75,-127.03 552.64,-133.97"/>
</g>
<!-- Node12 -->
<g id="node12" class="node">
<title>Node12</title>
<g id="a_node12"><a xlink:title=" ">
<polygon fill="white" stroke="#bfbfbf" points="663.38,-0.5 663.38,-19.5 707.38,-19.5 707.38,-0.5 663.38,-0.5"/>
<text text-anchor="middle" x="685.38" y="-7.5" font-family="Helvetica,sans-Serif" font-size="10.00">string</text>
</a>
</g>
</g>
<!-- Node11&#45;&gt;Node12 -->
<g id="edge13" class="edge">
<title>Node11&#45;&gt;Node12</title>
<path fill="none" stroke="midnightblue" d="M625.63,-112.4C638.31,-104.5 655.91,-91.66 666.38,-76 675.66,-62.1 680.5,-43.59 682.96,-29.88"/>
<polygon fill="midnightblue" stroke="midnightblue" points="686.46,-30.11 684.51,-19.69 679.54,-29.05 686.46,-30.11"/>
</g>
<!-- Node13 -->
<g id="node13" class="node">
<title>Node13</title>
<g id="a_node13"><a xlink:title=" ">
<polygon fill="white" stroke="#bfbfbf" points="563.88,-56.5 563.88,-75.5 656.88,-75.5 656.88,-56.5 563.88,-56.5"/>
<text text-anchor="middle" x="610.38" y="-63.5" font-family="Helvetica,sans-Serif" font-size="10.00">unordered_map</text>
</a>
</g>
</g>
<!-- Node11&#45;&gt;Node13 -->
<g id="edge14" class="edge">
<title>Node11&#45;&gt;Node13</title>
<path fill="none" stroke="midnightblue" d="M610.38,-112.08C610.38,-105.01 610.38,-94.86 610.38,-85.99"/>
<polygon fill="midnightblue" stroke="midnightblue" points="613.88,-85.75 610.38,-75.75 606.88,-85.75 613.88,-85.75"/>
</g>
<!-- Node14 -->
<g id="node14" class="node">
<title>Node14</title>
<g id="a_node14"><a xlink:title=" ">
<polygon fill="white" stroke="#bfbfbf" points="713.88,-56.5 713.88,-75.5 770.88,-75.5 770.88,-56.5 713.88,-56.5"/>
<text text-anchor="middle" x="742.38" y="-63.5" font-family="Helvetica,sans-Serif" font-size="10.00">typeinfo</text>
</a>
</g>
</g>
<!-- Node11&#45;&gt;Node14 -->
<g id="edge15" class="edge">
<title>Node11&#45;&gt;Node14</title>
<path fill="none" stroke="midnightblue" d="M631.29,-112.44C653.11,-103.52 687.53,-89.44 712.27,-79.32"/>
<polygon fill="midnightblue" stroke="midnightblue" points="713.63,-82.54 721.56,-75.52 710.98,-76.06 713.63,-82.54"/>
</g>
<!-- Node15 -->
<g id="node15" class="node">
<title>Node15</title>
<g id="a_node15"><a xlink:title=" ">
<polygon fill="white" stroke="#bfbfbf" points="936.38,-56.5 936.38,-75.5 994.38,-75.5 994.38,-56.5 936.38,-56.5"/>
<text text-anchor="middle" x="965.38" y="-63.5" font-family="Helvetica,sans-Serif" font-size="10.00">memory</text>
</a>
</g>
</g>
<!-- Node11&#45;&gt;Node15 -->
<g id="edge16" class="edge">
<title>Node11&#45;&gt;Node15</title>
<path fill="none" stroke="midnightblue" d="M658.4,-115.57C718.68,-108.45 825.45,-94.82 925.96,-76.13"/>
<polygon fill="midnightblue" stroke="midnightblue" points="926.79,-79.53 935.97,-74.24 925.5,-72.65 926.79,-79.53"/>
</g>
<!-- Node16 -->
<g id="node16" class="node">
<title>Node16</title>
<g id="a_node16"><a xlink:href="Component_8hpp.html" target="_top" xlink:title=" ">
<polygon fill="white" stroke="black" points="243.88,-56.5 243.88,-75.5 396.88,-75.5 396.88,-56.5 243.88,-56.5"/>
<text text-anchor="middle" x="320.38" y="-63.5" font-family="Helvetica,sans-Serif" font-size="10.00">Component/Component.hpp</text>
</a>
</g>
</g>
<!-- Node11&#45;&gt;Node16 -->
<g id="edge17" class="edge">
<title>Node11&#45;&gt;Node16</title>
<path fill="none" stroke="midnightblue" d="M564.42,-112.44C513.3,-102.92 430.72,-87.55 375.99,-77.36"/>
<polygon fill="midnightblue" stroke="midnightblue" points="376.58,-73.91 366.11,-75.52 375.3,-80.79 376.58,-73.91"/>
</g>
<!-- Node17 -->
<g id="node17" class="node">
<title>Node17</title>
<g id="a_node17"><a xlink:href="WalError_8hpp.html" target="_top" xlink:title=" ">
<polygon fill="white" stroke="black" points="788.88,-56.5 788.88,-75.5 917.88,-75.5 917.88,-56.5 788.88,-56.5"/>
<text text-anchor="middle" x="853.38" y="-63.5" font-family="Helvetica,sans-Serif" font-size="10.00">Exception/WalError.hpp</text>
</a>
</g>
</g>
<!-- Node11&#45;&gt;Node17 -->
<g id="edge21" class="edge">
<title>Node11&#45;&gt;Node17</title>
<path fill="none" stroke="midnightblue" d="M648.88,-112.44C691.18,-103.04 759.2,-87.93 805.05,-77.74"/>
<polygon fill="midnightblue" stroke="midnightblue" points="806.05,-81.1 815.05,-75.52 804.53,-74.27 806.05,-81.1"/>
</g>
<!-- Node20 -->
<g id="node20" class="node">
<title>Node20</title>
<g id="a_node20"><a xlink:href="TypeHolder_8hpp.html" target="_top" xlink:title=" ">
<polygon fill="white" stroke="black" points="415.38,-56.5 415.38,-75.5 545.38,-75.5 545.38,-56.5 415.38,-56.5"/>
<text text-anchor="middle" x="480.38" y="-63.5" font-family="Helvetica,sans-Serif" font-size="10.00">Models/TypeHolder.hpp</text>
</a>
</g>
</g>
<!-- Node11&#45;&gt;Node20 -->
<g id="edge25" class="edge">
<title>Node11&#45;&gt;Node20</title>
<path fill="none" stroke="midnightblue" d="M589.78,-112.44C568.38,-103.56 534.7,-89.56 510.35,-79.45"/>
<polygon fill="midnightblue" stroke="midnightblue" points="511.46,-76.12 500.88,-75.52 508.77,-82.58 511.46,-76.12"/>
</g>
<!-- Node16&#45;&gt;Node3 -->
<g id="edge18" class="edge">
<title>Node16&#45;&gt;Node3</title>
<path fill="none" stroke="midnightblue" d="M283.77,-56.44C239.58,-46.11 165.88,-28.88 123.04,-18.87"/>
<polygon fill="midnightblue" stroke="midnightblue" points="123.65,-15.42 113.11,-16.55 122.05,-22.23 123.65,-15.42"/>
</g>
<!-- Node16&#45;&gt;Node8 -->
<g id="edge20" class="edge">
<title>Node16&#45;&gt;Node8</title>
<path fill="none" stroke="midnightblue" d="M311.79,-56.08C304.22,-48.22 293,-36.57 283.86,-27.08"/>
<polygon fill="midnightblue" stroke="midnightblue" points="286.26,-24.53 276.8,-19.75 281.22,-29.38 286.26,-24.53"/>
</g>
<!-- Node16&#45;&gt;Node12 -->
<g id="edge19" class="edge">
<title>Node16&#45;&gt;Node12</title>
<path fill="none" stroke="midnightblue" d="M378.21,-56.44C455.93,-44.95 591.43,-24.9 653.13,-15.77"/>
<polygon fill="midnightblue" stroke="midnightblue" points="653.69,-19.23 663.07,-14.3 652.66,-12.3 653.69,-19.23"/>
</g>
<!-- Node17&#45;&gt;Node12 -->
<g id="edge24" class="edge">
<title>Node17&#45;&gt;Node12</title>
<path fill="none" stroke="midnightblue" d="M826.76,-56.44C797.03,-46.89 748.96,-31.44 717.25,-21.25"/>
<polygon fill="midnightblue" stroke="midnightblue" points="718.17,-17.86 707.58,-18.14 716.03,-24.53 718.17,-17.86"/>
</g>
<!-- Node18 -->
<g id="node18" class="node">
<title>Node18</title>
<g id="a_node18"><a xlink:title=" ">
<polygon fill="white" stroke="#bfbfbf" points="861.88,-0.5 861.88,-19.5 926.88,-19.5 926.88,-0.5 861.88,-0.5"/>
<text text-anchor="middle" x="894.38" y="-7.5" font-family="Helvetica,sans-Serif" font-size="10.00">exception</text>
</a>
</g>
</g>
<!-- Node17&#45;&gt;Node18 -->
<g id="edge22" class="edge">
<title>Node17&#45;&gt;Node18</title>
<path fill="none" stroke="midnightblue" d="M860.15,-56.08C865.94,-48.46 874.43,-37.26 881.51,-27.94"/>
<polygon fill="midnightblue" stroke="midnightblue" points="884.47,-29.83 887.73,-19.75 878.9,-25.6 884.47,-29.83"/>
</g>
<!-- Node19 -->
<g id="node19" class="node">
<title>Node19</title>
<g id="a_node19"><a xlink:title=" ">
<polygon fill="white" stroke="#bfbfbf" points="778.88,-0.5 778.88,-19.5 843.88,-19.5 843.88,-0.5 778.88,-0.5"/>
<text text-anchor="middle" x="811.38" y="-7.5" font-family="Helvetica,sans-Serif" font-size="10.00">stdexcept</text>
</a>
</g>
</g>
<!-- Node17&#45;&gt;Node19 -->
<g id="edge23" class="edge">
<title>Node17&#45;&gt;Node19</title>
<path fill="none" stroke="midnightblue" d="M846.44,-56.08C840.45,-48.38 831.62,-37.03 824.33,-27.65"/>
<polygon fill="midnightblue" stroke="midnightblue" points="827.08,-25.5 818.18,-19.75 821.56,-29.79 827.08,-25.5"/>
</g>
</g>
</svg>
