<?xml version="1.0" encoding="UTF-8" standalone="no"?>
<!DOCTYPE svg PUBLIC "-//W3C//DTD SVG 1.1//EN"
 "http://www.w3.org/Graphics/SVG/1.1/DTD/svg11.dtd">
<!-- Generated by graphviz version 2.43.0 (0)
 -->
<!-- Title: sources/System/Score/ScoreSystem.cpp Pages: 1 -->
<svg width="1234pt" height="487pt"
 viewBox="0.00 0.00 1233.50 487.00" xmlns="http://www.w3.org/2000/svg" xmlns:xlink="http://www.w3.org/1999/xlink">
<g id="graph0" class="graph" transform="scale(1 1) rotate(0) translate(4 483)">
<title>sources/System/Score/ScoreSystem.cpp</title>
<polygon fill="white" stroke="transparent" points="-4,4 -4,-483 1229.5,-483 1229.5,4 -4,4"/>
<!-- Node1 -->
<g id="node1" class="node">
<title>Node1</title>
<g id="a_node1"><a xlink:title=" ">
<polygon fill="#bfbfbf" stroke="black" points="514,-448.5 514,-478.5 638,-478.5 638,-448.5 514,-448.5"/>
<text text-anchor="start" x="522" y="-466.5" font-family="Helvetica,sans-Serif" font-size="10.00">sources/System/Score</text>
<text text-anchor="middle" x="576" y="-455.5" font-family="Helvetica,sans-Serif" font-size="10.00">/ScoreSystem.cpp</text>
</a>
</g>
</g>
<!-- Node2 -->
<g id="node2" class="node">
<title>Node2</title>
<g id="a_node2"><a xlink:href="ScoreSystem_8hpp.html" target="_top" xlink:title=" ">
<polygon fill="white" stroke="black" points="481.5,-392.5 481.5,-411.5 582.5,-411.5 582.5,-392.5 481.5,-392.5"/>
<text text-anchor="middle" x="532" y="-399.5" font-family="Helvetica,sans-Serif" font-size="10.00">ScoreSystem.hpp</text>
</a>
</g>
</g>
<!-- Node1&#45;&gt;Node2 -->
<g id="edge1" class="edge">
<title>Node1&#45;&gt;Node2</title>
<path fill="none" stroke="midnightblue" d="M565.57,-448.4C559.24,-439.84 551.13,-428.87 544.47,-419.86"/>
<polygon fill="midnightblue" stroke="midnightblue" points="547.16,-417.62 538.4,-411.66 541.53,-421.78 547.16,-417.62"/>
</g>
<!-- Node30 -->
<g id="node30" class="node">
<title>Node30</title>
<g id="a_node30"><a xlink:title=" ">
<polygon fill="white" stroke="#bfbfbf" points="601,-392.5 601,-411.5 639,-411.5 639,-392.5 601,-392.5"/>
<text text-anchor="middle" x="620" y="-399.5" font-family="Helvetica,sans-Serif" font-size="10.00">map</text>
</a>
</g>
</g>
<!-- Node1&#45;&gt;Node30 -->
<g id="edge61" class="edge">
<title>Node1&#45;&gt;Node30</title>
<path fill="none" stroke="midnightblue" d="M586.43,-448.4C592.76,-439.84 600.87,-428.87 607.53,-419.86"/>
<polygon fill="midnightblue" stroke="midnightblue" points="610.47,-421.78 613.6,-411.66 604.84,-417.62 610.47,-421.78"/>
</g>
<!-- Node3 -->
<g id="node3" class="node">
<title>Node3</title>
<g id="a_node3"><a xlink:href="System_8hpp.html" target="_top" xlink:title=" ">
<polygon fill="white" stroke="black" points="342,-336.5 342,-355.5 456,-355.5 456,-336.5 342,-336.5"/>
<text text-anchor="middle" x="399" y="-343.5" font-family="Helvetica,sans-Serif" font-size="10.00">System/System.hpp</text>
</a>
</g>
</g>
<!-- Node2&#45;&gt;Node3 -->
<g id="edge2" class="edge">
<title>Node2&#45;&gt;Node3</title>
<path fill="none" stroke="midnightblue" d="M510.93,-392.44C488.94,-383.52 454.27,-369.44 429.34,-359.32"/>
<polygon fill="midnightblue" stroke="midnightblue" points="430.56,-356.04 419.98,-355.52 427.92,-362.52 430.56,-356.04"/>
</g>
<!-- Node17 -->
<g id="node17" class="node">
<title>Node17</title>
<g id="a_node17"><a xlink:href="Wal_8hpp.html" target="_top" xlink:title=" ">
<polygon fill="white" stroke="black" points="795,-280.5 795,-299.5 851,-299.5 851,-280.5 795,-280.5"/>
<text text-anchor="middle" x="823" y="-287.5" font-family="Helvetica,sans-Serif" font-size="10.00">Wal.hpp</text>
</a>
</g>
</g>
<!-- Node2&#45;&gt;Node17 -->
<g id="edge60" class="edge">
<title>Node2&#45;&gt;Node17</title>
<path fill="none" stroke="midnightblue" d="M582.52,-393.33C660.03,-381.48 799.86,-359.67 804,-356 817.04,-344.44 821.35,-324.48 822.67,-309.72"/>
<polygon fill="midnightblue" stroke="midnightblue" points="826.17,-309.84 823.19,-299.67 819.17,-309.47 826.17,-309.84"/>
</g>
<!-- Node28 -->
<g id="node28" class="node">
<title>Node28</title>
<g id="a_node28"><a xlink:href="ScoreComponent_8hpp.html" target="_top" xlink:title=" ">
<polygon fill="white" stroke="black" points="66,-224.5 66,-243.5 276,-243.5 276,-224.5 66,-224.5"/>
<text text-anchor="middle" x="171" y="-231.5" font-family="Helvetica,sans-Serif" font-size="10.00">Component/Score/ScoreComponent.hpp</text>
</a>
</g>
</g>
<!-- Node2&#45;&gt;Node28 -->
<g id="edge52" class="edge">
<title>Node2&#45;&gt;Node28</title>
<path fill="none" stroke="midnightblue" d="M481.47,-395.51C440.08,-389.64 380.77,-378.02 333,-356 273.48,-328.56 214.62,-276.8 187.11,-250.77"/>
<polygon fill="midnightblue" stroke="midnightblue" points="189.25,-247.98 179.61,-243.58 184.4,-253.03 189.25,-247.98"/>
</g>
<!-- Node29 -->
<g id="node29" class="node">
<title>Node29</title>
<g id="a_node29"><a xlink:href="HealthComponent_8hpp.html" target="_top" xlink:title=" ">
<polygon fill="white" stroke="black" points="573.5,-336.5 573.5,-355.5 794.5,-355.5 794.5,-336.5 573.5,-336.5"/>
<text text-anchor="middle" x="684" y="-343.5" font-family="Helvetica,sans-Serif" font-size="10.00">Component/Health/HealthComponent.hpp</text>
</a>
</g>
</g>
<!-- Node2&#45;&gt;Node29 -->
<g id="edge55" class="edge">
<title>Node2&#45;&gt;Node29</title>
<path fill="none" stroke="midnightblue" d="M556.08,-392.44C581.54,-383.4 621.89,-369.06 650.46,-358.92"/>
<polygon fill="midnightblue" stroke="midnightblue" points="651.78,-362.16 660.03,-355.52 649.43,-355.57 651.78,-362.16"/>
</g>
<!-- Node4 -->
<g id="node4" class="node">
<title>Node4</title>
<g id="a_node4"><a xlink:title=" ">
<polygon fill="white" stroke="#bfbfbf" points="226,-168.5 226,-187.5 276,-187.5 276,-168.5 226,-168.5"/>
<text text-anchor="middle" x="251" y="-175.5" font-family="Helvetica,sans-Serif" font-size="10.00">chrono</text>
</a>
</g>
</g>
<!-- Node3&#45;&gt;Node4 -->
<g id="edge3" class="edge">
<title>Node3&#45;&gt;Node4</title>
<path fill="none" stroke="midnightblue" d="M341.94,-336.92C319.73,-330.67 296.42,-319.61 283,-300 263.91,-272.12 295.74,-256.04 285,-224 281.4,-213.25 274.1,-203.02 267.18,-195.04"/>
<polygon fill="midnightblue" stroke="midnightblue" points="269.65,-192.56 260.29,-187.61 264.52,-197.32 269.65,-192.56"/>
</g>
<!-- Node5 -->
<g id="node5" class="node">
<title>Node5</title>
<g id="a_node5"><a xlink:title=" ">
<polygon fill="white" stroke="#bfbfbf" points="212.5,-0.5 212.5,-19.5 259.5,-19.5 259.5,-0.5 212.5,-0.5"/>
<text text-anchor="middle" x="236" y="-7.5" font-family="Helvetica,sans-Serif" font-size="10.00">vector</text>
</a>
</g>
</g>
<!-- Node3&#45;&gt;Node5 -->
<g id="edge4" class="edge">
<title>Node3&#45;&gt;Node5</title>
<path fill="none" stroke="midnightblue" d="M341.87,-336.47C253.74,-322.01 91.19,-289.75 57,-244 39.68,-220.83 -23.34,-186.91 98,-56 124.93,-26.94 170.84,-16.6 202.25,-12.95"/>
<polygon fill="midnightblue" stroke="midnightblue" points="202.7,-16.42 212.3,-11.95 202,-9.46 202.7,-16.42"/>
</g>
<!-- Node6 -->
<g id="node6" class="node">
<title>Node6</title>
<g id="a_node6"><a xlink:title=" ">
<polygon fill="white" stroke="#bfbfbf" points="550.5,-56.5 550.5,-75.5 607.5,-75.5 607.5,-56.5 550.5,-56.5"/>
<text text-anchor="middle" x="579" y="-63.5" font-family="Helvetica,sans-Serif" font-size="10.00">typeinfo</text>
</a>
</g>
</g>
<!-- Node3&#45;&gt;Node6 -->
<g id="edge5" class="edge">
<title>Node3&#45;&gt;Node6</title>
<path fill="none" stroke="midnightblue" d="M394.69,-336.16C379,-302.6 328.73,-181.47 384,-112 393.75,-99.74 486.57,-82.42 540.56,-73.25"/>
<polygon fill="midnightblue" stroke="midnightblue" points="541.2,-76.69 550.48,-71.58 540.04,-69.79 541.2,-76.69"/>
</g>
<!-- Node7 -->
<g id="node7" class="node">
<title>Node7</title>
<g id="a_node7"><a xlink:title=" ">
<polygon fill="white" stroke="#bfbfbf" points="8.5,-0.5 8.5,-19.5 73.5,-19.5 73.5,-0.5 8.5,-0.5"/>
<text text-anchor="middle" x="41" y="-7.5" font-family="Helvetica,sans-Serif" font-size="10.00">typeindex</text>
</a>
</g>
</g>
<!-- Node3&#45;&gt;Node7 -->
<g id="edge6" class="edge">
<title>Node3&#45;&gt;Node7</title>
<path fill="none" stroke="midnightblue" d="M341.83,-341.17C231.51,-332.21 0,-305.06 0,-235 0,-235 0,-235 0,-121 0,-86.52 17.91,-49.56 30.06,-28.47"/>
<polygon fill="midnightblue" stroke="midnightblue" points="33.16,-30.09 35.3,-19.71 27.16,-26.49 33.16,-30.09"/>
</g>
<!-- Node8 -->
<g id="node8" class="node">
<title>Node8</title>
<g id="a_node8"><a xlink:href="Entity_8hpp.html" target="_top" xlink:title=" ">
<polygon fill="white" stroke="black" points="577,-112.5 577,-131.5 673,-131.5 673,-112.5 577,-112.5"/>
<text text-anchor="middle" x="625" y="-119.5" font-family="Helvetica,sans-Serif" font-size="10.00">Entity/Entity.hpp</text>
</a>
</g>
</g>
<!-- Node3&#45;&gt;Node8 -->
<g id="edge7" class="edge">
<title>Node3&#45;&gt;Node8</title>
<path fill="none" stroke="midnightblue" d="M456.11,-343.66C524.63,-338.6 636.91,-318.62 690,-244 715.31,-208.43 671.18,-161.86 643.99,-138.21"/>
<polygon fill="midnightblue" stroke="midnightblue" points="646.09,-135.4 636.18,-131.64 641.58,-140.76 646.09,-135.4"/>
</g>
<!-- Node3&#45;&gt;Node17 -->
<g id="edge21" class="edge">
<title>Node3&#45;&gt;Node17</title>
<path fill="none" stroke="midnightblue" d="M456.18,-337.72C543.98,-326.54 709.66,-305.43 784.54,-295.9"/>
<polygon fill="midnightblue" stroke="midnightblue" points="785.43,-299.31 794.91,-294.58 784.54,-292.37 785.43,-299.31"/>
</g>
<!-- Node19 -->
<g id="node19" class="node">
<title>Node19</title>
<g id="a_node19"><a xlink:href="ISystem_8hpp.html" target="_top" xlink:title=" ">
<polygon fill="white" stroke="black" points="446.5,-224.5 446.5,-243.5 563.5,-243.5 563.5,-224.5 446.5,-224.5"/>
<text text-anchor="middle" x="505" y="-231.5" font-family="Helvetica,sans-Serif" font-size="10.00">System/ISystem.hpp</text>
</a>
</g>
</g>
<!-- Node3&#45;&gt;Node19 -->
<g id="edge50" class="edge">
<title>Node3&#45;&gt;Node19</title>
<path fill="none" stroke="midnightblue" d="M407.32,-336.37C425.04,-317.97 466.77,-274.67 489.53,-251.05"/>
<polygon fill="midnightblue" stroke="midnightblue" points="492.3,-253.22 496.72,-243.59 487.26,-248.36 492.3,-253.22"/>
</g>
<!-- Node20 -->
<g id="node20" class="node">
<title>Node20</title>
<g id="a_node20"><a xlink:href="View_8hpp.html" target="_top" xlink:title=" ">
<polygon fill="white" stroke="black" points="441,-168.5 441,-187.5 529,-187.5 529,-168.5 441,-168.5"/>
<text text-anchor="middle" x="485" y="-175.5" font-family="Helvetica,sans-Serif" font-size="10.00">View/View.hpp</text>
</a>
</g>
</g>
<!-- Node3&#45;&gt;Node20 -->
<g id="edge49" class="edge">
<title>Node3&#45;&gt;Node20</title>
<path fill="none" stroke="midnightblue" d="M400.15,-336.46C403.26,-315.76 413.22,-261.85 437,-224 444.24,-212.48 455.13,-201.94 464.71,-193.96"/>
<polygon fill="midnightblue" stroke="midnightblue" points="467.01,-196.6 472.67,-187.64 462.66,-191.12 467.01,-196.6"/>
</g>
<!-- Node27 -->
<g id="node27" class="node">
<title>Node27</title>
<g id="a_node27"><a xlink:title=" ">
<polygon fill="white" stroke="#bfbfbf" points="292,-280.5 292,-299.5 352,-299.5 352,-280.5 292,-280.5"/>
<text text-anchor="middle" x="322" y="-287.5" font-family="Helvetica,sans-Serif" font-size="10.00">iostream</text>
</a>
</g>
</g>
<!-- Node3&#45;&gt;Node27 -->
<g id="edge51" class="edge">
<title>Node3&#45;&gt;Node27</title>
<path fill="none" stroke="midnightblue" d="M386.63,-336.32C374.84,-328.06 356.87,-315.45 342.86,-305.63"/>
<polygon fill="midnightblue" stroke="midnightblue" points="344.54,-302.53 334.34,-299.65 340.52,-308.26 344.54,-302.53"/>
</g>
<!-- Node8&#45;&gt;Node6 -->
<g id="edge10" class="edge">
<title>Node8&#45;&gt;Node6</title>
<path fill="none" stroke="midnightblue" d="M617.4,-112.08C610.77,-104.3 600.98,-92.8 592.94,-83.37"/>
<polygon fill="midnightblue" stroke="midnightblue" points="595.6,-81.09 586.45,-75.75 590.27,-85.63 595.6,-81.09"/>
</g>
<!-- Node9 -->
<g id="node9" class="node">
<title>Node9</title>
<g id="a_node9"><a xlink:title=" ">
<polygon fill="white" stroke="#bfbfbf" points="737,-0.5 737,-19.5 781,-19.5 781,-0.5 737,-0.5"/>
<text text-anchor="middle" x="759" y="-7.5" font-family="Helvetica,sans-Serif" font-size="10.00">string</text>
</a>
</g>
</g>
<!-- Node8&#45;&gt;Node9 -->
<g id="edge8" class="edge">
<title>Node8&#45;&gt;Node9</title>
<path fill="none" stroke="midnightblue" d="M597.64,-112.48C566.43,-101.36 522.13,-80.42 542,-56 564.88,-27.88 671.65,-16.78 726.42,-12.87"/>
<polygon fill="midnightblue" stroke="midnightblue" points="726.89,-16.35 736.64,-12.19 726.42,-9.37 726.89,-16.35"/>
</g>
<!-- Node10 -->
<g id="node10" class="node">
<title>Node10</title>
<g id="a_node10"><a xlink:title=" ">
<polygon fill="white" stroke="#bfbfbf" points="625.5,-56.5 625.5,-75.5 718.5,-75.5 718.5,-56.5 625.5,-56.5"/>
<text text-anchor="middle" x="672" y="-63.5" font-family="Helvetica,sans-Serif" font-size="10.00">unordered_map</text>
</a>
</g>
</g>
<!-- Node8&#45;&gt;Node10 -->
<g id="edge9" class="edge">
<title>Node8&#45;&gt;Node10</title>
<path fill="none" stroke="midnightblue" d="M632.76,-112.08C639.54,-104.3 649.54,-92.8 657.76,-83.37"/>
<polygon fill="midnightblue" stroke="midnightblue" points="660.46,-85.59 664.38,-75.75 655.18,-81 660.46,-85.59"/>
</g>
<!-- Node11 -->
<g id="node11" class="node">
<title>Node11</title>
<g id="a_node11"><a xlink:title=" ">
<polygon fill="white" stroke="#bfbfbf" points="737,-56.5 737,-75.5 795,-75.5 795,-56.5 737,-56.5"/>
<text text-anchor="middle" x="766" y="-63.5" font-family="Helvetica,sans-Serif" font-size="10.00">memory</text>
</a>
</g>
</g>
<!-- Node8&#45;&gt;Node11 -->
<g id="edge11" class="edge">
<title>Node8&#45;&gt;Node11</title>
<path fill="none" stroke="midnightblue" d="M647.34,-112.44C670.75,-103.48 707.74,-89.31 734.19,-79.18"/>
<polygon fill="midnightblue" stroke="midnightblue" points="735.68,-82.36 743.76,-75.52 733.17,-75.82 735.68,-82.36"/>
</g>
<!-- Node12 -->
<g id="node12" class="node">
<title>Node12</title>
<g id="a_node12"><a xlink:href="Component_8hpp.html" target="_top" xlink:title=" ">
<polygon fill="white" stroke="black" points="107.5,-56.5 107.5,-75.5 260.5,-75.5 260.5,-56.5 107.5,-56.5"/>
<text text-anchor="middle" x="184" y="-63.5" font-family="Helvetica,sans-Serif" font-size="10.00">Component/Component.hpp</text>
</a>
</g>
</g>
<!-- Node8&#45;&gt;Node12 -->
<g id="edge12" class="edge">
<title>Node8&#45;&gt;Node12</title>
<path fill="none" stroke="midnightblue" d="M576.82,-113.25C573.84,-112.82 570.88,-112.4 568,-112 466.18,-98 348.78,-84.65 270.86,-76.18"/>
<polygon fill="midnightblue" stroke="midnightblue" points="270.93,-72.67 260.61,-75.07 270.18,-79.62 270.93,-72.67"/>
</g>
<!-- Node13 -->
<g id="node13" class="node">
<title>Node13</title>
<g id="a_node13"><a xlink:href="WalError_8hpp.html" target="_top" xlink:title=" ">
<polygon fill="white" stroke="black" points="1087.5,-56.5 1087.5,-75.5 1216.5,-75.5 1216.5,-56.5 1087.5,-56.5"/>
<text text-anchor="middle" x="1152" y="-63.5" font-family="Helvetica,sans-Serif" font-size="10.00">Exception/WalError.hpp</text>
</a>
</g>
</g>
<!-- Node8&#45;&gt;Node13 -->
<g id="edge16" class="edge">
<title>Node8&#45;&gt;Node13</title>
<path fill="none" stroke="midnightblue" d="M673.08,-113.32C676.43,-112.85 679.76,-112.41 683,-112 821.86,-94.58 984.59,-80.35 1077.26,-72.82"/>
<polygon fill="midnightblue" stroke="midnightblue" points="1077.7,-76.29 1087.38,-72 1077.14,-69.32 1077.7,-76.29"/>
</g>
<!-- Node16 -->
<g id="node16" class="node">
<title>Node16</title>
<g id="a_node16"><a xlink:href="TypeHolder_8hpp.html" target="_top" xlink:title=" ">
<polygon fill="white" stroke="black" points="364,-56.5 364,-75.5 494,-75.5 494,-56.5 364,-56.5"/>
<text text-anchor="middle" x="429" y="-63.5" font-family="Helvetica,sans-Serif" font-size="10.00">Models/TypeHolder.hpp</text>
</a>
</g>
</g>
<!-- Node8&#45;&gt;Node16 -->
<g id="edge20" class="edge">
<title>Node8&#45;&gt;Node16</title>
<path fill="none" stroke="midnightblue" d="M593.94,-112.44C560.4,-103.2 506.8,-88.44 469.86,-78.26"/>
<polygon fill="midnightblue" stroke="midnightblue" points="470.48,-74.8 459.91,-75.52 468.62,-81.55 470.48,-74.8"/>
</g>
<!-- Node12&#45;&gt;Node5 -->
<g id="edge13" class="edge">
<title>Node12&#45;&gt;Node5</title>
<path fill="none" stroke="midnightblue" d="M192.59,-56.08C200.16,-48.22 211.38,-36.57 220.51,-27.08"/>
<polygon fill="midnightblue" stroke="midnightblue" points="223.16,-29.38 227.57,-19.75 218.12,-24.53 223.16,-29.38"/>
</g>
<!-- Node12&#45;&gt;Node7 -->
<g id="edge15" class="edge">
<title>Node12&#45;&gt;Node7</title>
<path fill="none" stroke="midnightblue" d="M161.34,-56.44C137.6,-47.48 100.09,-33.31 73.26,-23.18"/>
<polygon fill="midnightblue" stroke="midnightblue" points="74.14,-19.77 63.55,-19.52 71.67,-26.32 74.14,-19.77"/>
</g>
<!-- Node12&#45;&gt;Node9 -->
<g id="edge14" class="edge">
<title>Node12&#45;&gt;Node9</title>
<path fill="none" stroke="midnightblue" d="M260.65,-57.8C388.02,-45.84 638.02,-22.36 726.79,-14.03"/>
<polygon fill="midnightblue" stroke="midnightblue" points="727.17,-17.51 736.8,-13.09 726.51,-10.54 727.17,-17.51"/>
</g>
<!-- Node13&#45;&gt;Node9 -->
<g id="edge19" class="edge">
<title>Node13&#45;&gt;Node9</title>
<path fill="none" stroke="midnightblue" d="M1089.73,-56.44C1005.05,-44.81 856.68,-24.42 791.39,-15.45"/>
<polygon fill="midnightblue" stroke="midnightblue" points="791.67,-11.96 781.29,-14.06 790.72,-18.89 791.67,-11.96"/>
</g>
<!-- Node14 -->
<g id="node14" class="node">
<title>Node14</title>
<g id="a_node14"><a xlink:title=" ">
<polygon fill="white" stroke="#bfbfbf" points="1077.5,-0.5 1077.5,-19.5 1142.5,-19.5 1142.5,-0.5 1077.5,-0.5"/>
<text text-anchor="middle" x="1110" y="-7.5" font-family="Helvetica,sans-Serif" font-size="10.00">exception</text>
</a>
</g>
</g>
<!-- Node13&#45;&gt;Node14 -->
<g id="edge17" class="edge">
<title>Node13&#45;&gt;Node14</title>
<path fill="none" stroke="midnightblue" d="M1145.06,-56.08C1139.07,-48.38 1130.25,-37.03 1122.95,-27.65"/>
<polygon fill="midnightblue" stroke="midnightblue" points="1125.71,-25.5 1116.81,-19.75 1120.18,-29.79 1125.71,-25.5"/>
</g>
<!-- Node15 -->
<g id="node15" class="node">
<title>Node15</title>
<g id="a_node15"><a xlink:title=" ">
<polygon fill="white" stroke="#bfbfbf" points="1160.5,-0.5 1160.5,-19.5 1225.5,-19.5 1225.5,-0.5 1160.5,-0.5"/>
<text text-anchor="middle" x="1193" y="-7.5" font-family="Helvetica,sans-Serif" font-size="10.00">stdexcept</text>
</a>
</g>
</g>
<!-- Node13&#45;&gt;Node15 -->
<g id="edge18" class="edge">
<title>Node13&#45;&gt;Node15</title>
<path fill="none" stroke="midnightblue" d="M1158.77,-56.08C1164.56,-48.46 1173.06,-37.26 1180.14,-27.94"/>
<polygon fill="midnightblue" stroke="midnightblue" points="1183.1,-29.83 1186.36,-19.75 1177.52,-25.6 1183.1,-29.83"/>
</g>
<!-- Node17&#45;&gt;Node5 -->
<g id="edge23" class="edge">
<title>Node17&#45;&gt;Node5</title>
<path fill="none" stroke="midnightblue" d="M823,-280.44C823,-261.94 823,-216.81 823,-179 823,-179 823,-179 823,-121 823,-90.9 827.35,-74.99 804,-56 762.51,-22.26 385.81,-13.41 269.83,-11.48"/>
<polygon fill="midnightblue" stroke="midnightblue" points="269.8,-7.98 259.75,-11.32 269.69,-14.98 269.8,-7.98"/>
</g>
<!-- Node17&#45;&gt;Node6 -->
<g id="edge26" class="edge">
<title>Node17&#45;&gt;Node6</title>
<path fill="none" stroke="midnightblue" d="M820.19,-280.06C808.93,-244.32 767.63,-113.52 766,-112 765.31,-111.36 672.27,-89.17 617.71,-76.19"/>
<polygon fill="midnightblue" stroke="midnightblue" points="618.21,-72.71 607.67,-73.81 616.59,-79.52 618.21,-72.71"/>
</g>
<!-- Node17&#45;&gt;Node9 -->
<g id="edge24" class="edge">
<title>Node17&#45;&gt;Node9</title>
<path fill="none" stroke="midnightblue" d="M851.24,-289.37C890.49,-288.41 961.78,-281.17 1007,-244 1034.58,-221.33 1045.03,-201.61 1033,-168 996.76,-66.79 855.29,-28.51 791.05,-16.14"/>
<polygon fill="midnightblue" stroke="midnightblue" points="791.54,-12.67 781.07,-14.31 790.27,-19.56 791.54,-12.67"/>
</g>
<!-- Node17&#45;&gt;Node11 -->
<g id="edge25" class="edge">
<title>Node17&#45;&gt;Node11</title>
<path fill="none" stroke="midnightblue" d="M851.17,-284.31C913.38,-272.58 1054.07,-237.78 1016,-168 974.97,-92.79 864.84,-73.5 805.37,-68.61"/>
<polygon fill="midnightblue" stroke="midnightblue" points="805.46,-65.11 795.24,-67.87 804.96,-72.09 805.46,-65.11"/>
</g>
<!-- Node17&#45;&gt;Node13 -->
<g id="edge27" class="edge">
<title>Node17&#45;&gt;Node13</title>
<path fill="none" stroke="midnightblue" d="M851.15,-287.7C911.64,-284.37 1051.43,-273.58 1087,-244 1135.83,-203.39 1147.98,-122.68 1151,-85.97"/>
<polygon fill="midnightblue" stroke="midnightblue" points="1154.51,-85.92 1151.7,-75.7 1147.53,-85.44 1154.51,-85.92"/>
</g>
<!-- Node18 -->
<g id="node18" class="node">
<title>Node18</title>
<g id="a_node18"><a xlink:title=" ">
<polygon fill="white" stroke="#bfbfbf" points="851.5,-112.5 851.5,-131.5 896.5,-131.5 896.5,-112.5 851.5,-112.5"/>
<text text-anchor="middle" x="874" y="-119.5" font-family="Helvetica,sans-Serif" font-size="10.00">utility</text>
</a>
</g>
</g>
<!-- Node17&#45;&gt;Node18 -->
<g id="edge22" class="edge">
<title>Node17&#45;&gt;Node18</title>
<path fill="none" stroke="midnightblue" d="M825.7,-280.38C828.52,-271.32 833.09,-256.67 837,-244 848.23,-207.58 861.24,-164.94 868.45,-141.24"/>
<polygon fill="midnightblue" stroke="midnightblue" points="871.85,-142.1 871.41,-131.51 865.15,-140.06 871.85,-142.1"/>
</g>
<!-- Node17&#45;&gt;Node19 -->
<g id="edge28" class="edge">
<title>Node17&#45;&gt;Node19</title>
<path fill="none" stroke="midnightblue" d="M794.78,-284.21C743.53,-275.5 634.1,-256.92 565.35,-245.25"/>
<polygon fill="midnightblue" stroke="midnightblue" points="565.54,-241.73 555.1,-243.51 564.37,-248.63 565.54,-241.73"/>
</g>
<!-- Node25 -->
<g id="node25" class="node">
<title>Node25</title>
<g id="a_node25"><a xlink:href="Callback_8hpp.html" target="_top" xlink:title=" ">
<polygon fill="white" stroke="black" points="889,-168.5 889,-187.5 1007,-187.5 1007,-168.5 889,-168.5"/>
<text text-anchor="middle" x="948" y="-175.5" font-family="Helvetica,sans-Serif" font-size="10.00">Models/Callback.hpp</text>
</a>
</g>
</g>
<!-- Node17&#45;&gt;Node25 -->
<g id="edge39" class="edge">
<title>Node17&#45;&gt;Node25</title>
<path fill="none" stroke="midnightblue" d="M833.01,-280.41C843.5,-271.39 860.46,-256.76 875,-244 893.98,-227.34 915.56,-208.09 930.3,-194.89"/>
<polygon fill="midnightblue" stroke="midnightblue" points="933.01,-197.16 938.12,-187.88 928.34,-191.94 933.01,-197.16"/>
</g>
<!-- Node26 -->
<g id="node26" class="node">
<title>Node26</title>
<g id="a_node26"><a xlink:href="Scene_8hpp.html" target="_top" xlink:title=" ">
<polygon fill="white" stroke="black" points="581.5,-224.5 581.5,-243.5 680.5,-243.5 680.5,-224.5 581.5,-224.5"/>
<text text-anchor="middle" x="631" y="-231.5" font-family="Helvetica,sans-Serif" font-size="10.00">Scene/Scene.hpp</text>
</a>
</g>
</g>
<!-- Node17&#45;&gt;Node26 -->
<g id="edge43" class="edge">
<title>Node17&#45;&gt;Node26</title>
<path fill="none" stroke="midnightblue" d="M794.67,-281.03C762.06,-271.86 708.26,-256.73 671.3,-246.33"/>
<polygon fill="midnightblue" stroke="midnightblue" points="671.92,-242.87 661.35,-243.54 670.03,-249.61 671.92,-242.87"/>
</g>
<!-- Node19&#45;&gt;Node4 -->
<g id="edge38" class="edge">
<title>Node19&#45;&gt;Node4</title>
<path fill="none" stroke="midnightblue" d="M464.75,-224.44C415.46,-213.96 332.78,-196.39 286.01,-186.44"/>
<polygon fill="midnightblue" stroke="midnightblue" points="286.55,-182.98 276.05,-184.32 285.1,-189.83 286.55,-182.98"/>
</g>
<!-- Node19&#45;&gt;Node8 -->
<g id="edge29" class="edge">
<title>Node19&#45;&gt;Node8</title>
<path fill="none" stroke="midnightblue" d="M514.42,-224.37C534.66,-205.81 582.55,-161.91 608.16,-138.44"/>
<polygon fill="midnightblue" stroke="midnightblue" points="610.62,-140.93 615.63,-131.59 605.89,-135.77 610.62,-140.93"/>
</g>
<!-- Node19&#45;&gt;Node20 -->
<g id="edge30" class="edge">
<title>Node19&#45;&gt;Node20</title>
<path fill="none" stroke="midnightblue" d="M501.7,-224.08C499.02,-216.85 495.15,-206.41 491.81,-197.4"/>
<polygon fill="midnightblue" stroke="midnightblue" points="495,-195.91 488.24,-187.75 488.43,-198.34 495,-195.91"/>
</g>
<!-- Node20&#45;&gt;Node7 -->
<g id="edge33" class="edge">
<title>Node20&#45;&gt;Node7</title>
<path fill="none" stroke="midnightblue" d="M440.8,-173.89C365.31,-166.84 208.93,-144.48 98,-76 78.51,-63.97 62.01,-43.19 51.85,-28.36"/>
<polygon fill="midnightblue" stroke="midnightblue" points="54.54,-26.08 46.13,-19.63 48.68,-29.91 54.54,-26.08"/>
</g>
<!-- Node20&#45;&gt;Node8 -->
<g id="edge37" class="edge">
<title>Node20&#45;&gt;Node8</title>
<path fill="none" stroke="midnightblue" d="M507.18,-168.44C530.43,-159.48 567.15,-145.31 593.42,-135.18"/>
<polygon fill="midnightblue" stroke="midnightblue" points="594.85,-138.38 602.92,-131.52 592.33,-131.85 594.85,-138.38"/>
</g>
<!-- Node20&#45;&gt;Node18 -->
<g id="edge35" class="edge">
<title>Node20&#45;&gt;Node18</title>
<path fill="none" stroke="midnightblue" d="M529.24,-170.86C608.23,-159.89 771.74,-137.2 841.41,-127.52"/>
<polygon fill="midnightblue" stroke="midnightblue" points="841.95,-130.98 851.37,-126.14 840.99,-124.05 841.95,-130.98"/>
</g>
<!-- Node21 -->
<g id="node21" class="node">
<title>Node21</title>
<g id="a_node21"><a xlink:title=" ">
<polygon fill="white" stroke="#bfbfbf" points="527,-112.5 527,-131.5 559,-131.5 559,-112.5 527,-112.5"/>
<text text-anchor="middle" x="543" y="-119.5" font-family="Helvetica,sans-Serif" font-size="10.00">list</text>
</a>
</g>
</g>
<!-- Node20&#45;&gt;Node21 -->
<g id="edge31" class="edge">
<title>Node20&#45;&gt;Node21</title>
<path fill="none" stroke="midnightblue" d="M494.32,-168.32C502.89,-160.34 515.81,-148.31 526.19,-138.65"/>
<polygon fill="midnightblue" stroke="midnightblue" points="528.58,-141.21 533.51,-131.83 523.81,-136.09 528.58,-141.21"/>
</g>
<!-- Node22 -->
<g id="node22" class="node">
<title>Node22</title>
<g id="a_node22"><a xlink:title=" ">
<polygon fill="white" stroke="#bfbfbf" points="467.5,-112.5 467.5,-131.5 508.5,-131.5 508.5,-112.5 467.5,-112.5"/>
<text text-anchor="middle" x="488" y="-119.5" font-family="Helvetica,sans-Serif" font-size="10.00">tuple</text>
</a>
</g>
</g>
<!-- Node20&#45;&gt;Node22 -->
<g id="edge32" class="edge">
<title>Node20&#45;&gt;Node22</title>
<path fill="none" stroke="midnightblue" d="M485.5,-168.08C485.89,-161.01 486.45,-150.86 486.95,-141.99"/>
<polygon fill="midnightblue" stroke="midnightblue" points="490.45,-141.93 487.51,-131.75 483.46,-141.54 490.45,-141.93"/>
</g>
<!-- Node23 -->
<g id="node23" class="node">
<title>Node23</title>
<g id="a_node23"><a xlink:title=" ">
<polygon fill="white" stroke="#bfbfbf" points="691.5,-112.5 691.5,-131.5 756.5,-131.5 756.5,-112.5 691.5,-112.5"/>
<text text-anchor="middle" x="724" y="-119.5" font-family="Helvetica,sans-Serif" font-size="10.00">functional</text>
</a>
</g>
</g>
<!-- Node20&#45;&gt;Node23 -->
<g id="edge34" class="edge">
<title>Node20&#45;&gt;Node23</title>
<path fill="none" stroke="midnightblue" d="M522.87,-168.44C566.07,-158.68 636.52,-142.77 681.54,-132.59"/>
<polygon fill="midnightblue" stroke="midnightblue" points="682.32,-136.01 691.3,-130.39 680.77,-129.18 682.32,-136.01"/>
</g>
<!-- Node24 -->
<g id="node24" class="node">
<title>Node24</title>
<g id="a_node24"><a xlink:title=" ">
<polygon fill="white" stroke="#bfbfbf" points="393,-112.5 393,-131.5 449,-131.5 449,-112.5 393,-112.5"/>
<text text-anchor="middle" x="421" y="-119.5" font-family="Helvetica,sans-Serif" font-size="10.00">optional</text>
</a>
</g>
</g>
<!-- Node20&#45;&gt;Node24 -->
<g id="edge36" class="edge">
<title>Node20&#45;&gt;Node24</title>
<path fill="none" stroke="midnightblue" d="M474.72,-168.32C465.16,-160.26 450.72,-148.08 439.22,-138.37"/>
<polygon fill="midnightblue" stroke="midnightblue" points="441.37,-135.61 431.47,-131.83 436.86,-140.96 441.37,-135.61"/>
</g>
<!-- Node25&#45;&gt;Node10 -->
<g id="edge42" class="edge">
<title>Node25&#45;&gt;Node10</title>
<path fill="none" stroke="midnightblue" d="M944.94,-168.21C939.5,-153.96 926.72,-125.98 906,-112 898.63,-107.03 795.62,-88.44 728.75,-76.76"/>
<polygon fill="midnightblue" stroke="midnightblue" points="729.21,-73.29 718.76,-75.02 728.01,-80.19 729.21,-73.29"/>
</g>
<!-- Node25&#45;&gt;Node18 -->
<g id="edge41" class="edge">
<title>Node25&#45;&gt;Node18</title>
<path fill="none" stroke="midnightblue" d="M936.11,-168.32C924.85,-160.11 907.71,-147.6 894.29,-137.81"/>
<polygon fill="midnightblue" stroke="midnightblue" points="896.25,-134.9 886.11,-131.83 892.12,-140.56 896.25,-134.9"/>
</g>
<!-- Node25&#45;&gt;Node23 -->
<g id="edge40" class="edge">
<title>Node25&#45;&gt;Node23</title>
<path fill="none" stroke="midnightblue" d="M912.51,-168.44C872.96,-158.91 809.04,-143.5 766.77,-133.31"/>
<polygon fill="midnightblue" stroke="midnightblue" points="767.32,-129.84 756.78,-130.9 765.68,-136.65 767.32,-129.84"/>
</g>
<!-- Node26&#45;&gt;Node5 -->
<g id="edge44" class="edge">
<title>Node26&#45;&gt;Node5</title>
<path fill="none" stroke="midnightblue" d="M581.44,-224.76C531.3,-215.9 457.63,-201.29 432,-188 351.33,-146.16 278.09,-63.01 249.12,-27.59"/>
<polygon fill="midnightblue" stroke="midnightblue" points="251.74,-25.26 242.74,-19.67 246.29,-29.66 251.74,-25.26"/>
</g>
<!-- Node26&#45;&gt;Node8 -->
<g id="edge48" class="edge">
<title>Node26&#45;&gt;Node8</title>
<path fill="none" stroke="midnightblue" d="M630.53,-224.37C629.56,-206.62 627.33,-165.67 626.01,-141.6"/>
<polygon fill="midnightblue" stroke="midnightblue" points="629.51,-141.39 625.47,-131.59 622.52,-141.77 629.51,-141.39"/>
</g>
<!-- Node26&#45;&gt;Node20 -->
<g id="edge47" class="edge">
<title>Node26&#45;&gt;Node20</title>
<path fill="none" stroke="midnightblue" d="M607.87,-224.44C583.52,-215.44 544.99,-201.19 517.58,-191.05"/>
<polygon fill="midnightblue" stroke="midnightblue" points="518.62,-187.7 508.03,-187.52 516.19,-194.27 518.62,-187.7"/>
</g>
<!-- Node26&#45;&gt;Node21 -->
<g id="edge45" class="edge">
<title>Node26&#45;&gt;Node21</title>
<path fill="none" stroke="midnightblue" d="M624.09,-224.37C609.51,-206.14 575.34,-163.43 556.34,-139.68"/>
<polygon fill="midnightblue" stroke="midnightblue" points="558.85,-137.21 549.87,-131.59 553.39,-141.59 558.85,-137.21"/>
</g>
<!-- Node26&#45;&gt;Node23 -->
<g id="edge46" class="edge">
<title>Node26&#45;&gt;Node23</title>
<path fill="none" stroke="midnightblue" d="M638.3,-224.37C653.78,-206.05 690.14,-163.05 710.17,-139.36"/>
<polygon fill="midnightblue" stroke="midnightblue" points="712.95,-141.49 716.74,-131.59 707.61,-136.97 712.95,-141.49"/>
</g>
<!-- Node28&#45;&gt;Node4 -->
<g id="edge54" class="edge">
<title>Node28&#45;&gt;Node4</title>
<path fill="none" stroke="midnightblue" d="M183.85,-224.32C196.22,-215.98 215.13,-203.21 229.74,-193.35"/>
<polygon fill="midnightblue" stroke="midnightblue" points="231.85,-196.15 238.18,-187.65 227.93,-190.35 231.85,-196.15"/>
</g>
<!-- Node28&#45;&gt;Node12 -->
<g id="edge53" class="edge">
<title>Node28&#45;&gt;Node12</title>
<path fill="none" stroke="midnightblue" d="M171.7,-224.08C173.75,-197.95 179.75,-121.21 182.55,-85.58"/>
<polygon fill="midnightblue" stroke="midnightblue" points="186.04,-85.81 183.33,-75.57 179.06,-85.26 186.04,-85.81"/>
</g>
<!-- Node29&#45;&gt;Node8 -->
<g id="edge58" class="edge">
<title>Node29&#45;&gt;Node8</title>
<path fill="none" stroke="midnightblue" d="M694.99,-336.37C704.45,-328.17 717.44,-314.92 723,-300 743.5,-245.03 754.67,-217.39 723,-168 712.73,-151.98 695.15,-141.58 677.7,-134.87"/>
<polygon fill="midnightblue" stroke="midnightblue" points="678.66,-131.5 668.07,-131.51 676.36,-138.11 678.66,-131.5"/>
</g>
<!-- Node29&#45;&gt;Node12 -->
<g id="edge57" class="edge">
<title>Node29&#45;&gt;Node12</title>
<path fill="none" stroke="midnightblue" d="M657.9,-336.48C611.87,-321 513.87,-285.93 437,-244 343.61,-193.07 242.99,-114.74 202.46,-82.1"/>
<polygon fill="midnightblue" stroke="midnightblue" points="204.51,-79.25 194.53,-75.68 200.1,-84.69 204.51,-79.25"/>
</g>
<!-- Node29&#45;&gt;Node17 -->
<g id="edge59" class="edge">
<title>Node29&#45;&gt;Node17</title>
<path fill="none" stroke="midnightblue" d="M706.02,-336.44C729.1,-327.48 765.56,-313.31 791.64,-303.18"/>
<polygon fill="midnightblue" stroke="midnightblue" points="793.02,-306.4 801.08,-299.52 790.49,-299.88 793.02,-306.4"/>
</g>
<!-- Node29&#45;&gt;Node25 -->
<g id="edge56" class="edge">
<title>Node29&#45;&gt;Node25</title>
<path fill="none" stroke="midnightblue" d="M764.2,-336.45C796.09,-330.12 831.81,-319.12 860,-300 899.09,-273.48 927.05,-223.57 939.97,-196.89"/>
<polygon fill="midnightblue" stroke="midnightblue" points="943.25,-198.15 944.31,-187.61 936.9,-195.18 943.25,-198.15"/>
</g>
</g>
</svg>
