<?xml version="1.0" encoding="UTF-8" standalone="no"?>
<!DOCTYPE svg PUBLIC "-//W3C//DTD SVG 1.1//EN"
 "http://www.w3.org/Graphics/SVG/1.1/DTD/svg11.dtd">
<!-- Generated by graphviz version 2.43.0 (0)
 -->
<!-- Title: lib/Ray/sources/Shaders/Shaders.cpp Pages: 1 -->
<svg width="919pt" height="263pt"
 viewBox="0.00 0.00 918.50 263.00" xmlns="http://www.w3.org/2000/svg" xmlns:xlink="http://www.w3.org/1999/xlink">
<g id="graph0" class="graph" transform="scale(1 1) rotate(0) translate(4 259)">
<title>lib/Ray/sources/Shaders/Shaders.cpp</title>
<polygon fill="white" stroke="transparent" points="-4,4 -4,-259 914.5,-259 914.5,4 -4,4"/>
<!-- Node1 -->
<g id="node1" class="node">
<title>Node1</title>
<g id="a_node1"><a xlink:title=" ">
<polygon fill="#bfbfbf" stroke="black" points="303.5,-224.5 303.5,-254.5 436.5,-254.5 436.5,-224.5 303.5,-224.5"/>
<text text-anchor="start" x="311.5" y="-242.5" font-family="Helvetica,sans-Serif" font-size="10.00">lib/Ray/sources/Shaders</text>
<text text-anchor="middle" x="370" y="-231.5" font-family="Helvetica,sans-Serif" font-size="10.00">/Shaders.cpp</text>
</a>
</g>
</g>
<!-- Node2 -->
<g id="node2" class="node">
<title>Node2</title>
<g id="a_node2"><a xlink:href="Shaders_8hpp.html" target="_top" xlink:title=" ">
<polygon fill="white" stroke="black" points="191.5,-168.5 191.5,-187.5 268.5,-187.5 268.5,-168.5 191.5,-168.5"/>
<text text-anchor="middle" x="230" y="-175.5" font-family="Helvetica,sans-Serif" font-size="10.00">Shaders.hpp</text>
</a>
</g>
</g>
<!-- Node1&#45;&gt;Node2 -->
<g id="edge1" class="edge">
<title>Node1&#45;&gt;Node2</title>
<path fill="none" stroke="midnightblue" d="M336.82,-224.4C313.44,-214.46 282.39,-201.26 259.79,-191.66"/>
<polygon fill="midnightblue" stroke="midnightblue" points="260.94,-188.35 250.37,-187.66 258.21,-194.79 260.94,-188.35"/>
</g>
<!-- Node10 -->
<g id="node10" class="node">
<title>Node10</title>
<g id="a_node10"><a xlink:title=" ">
<polygon fill="white" stroke="#bfbfbf" points="712.5,-56.5 712.5,-75.5 757.5,-75.5 757.5,-56.5 712.5,-56.5"/>
<text text-anchor="middle" x="735" y="-63.5" font-family="Helvetica,sans-Serif" font-size="10.00">utility</text>
</a>
</g>
</g>
<!-- Node1&#45;&gt;Node10 -->
<g id="edge21" class="edge">
<title>Node1&#45;&gt;Node10</title>
<path fill="none" stroke="midnightblue" d="M399.87,-224.47C469.32,-191.83 640.85,-111.24 707.7,-79.83"/>
<polygon fill="midnightblue" stroke="midnightblue" points="709.22,-82.98 716.78,-75.56 706.24,-76.64 709.22,-82.98"/>
</g>
<!-- Node11 -->
<g id="node11" class="node">
<title>Node11</title>
<g id="a_node11"><a xlink:href="RayError_8hpp.html" target="_top" xlink:title=" ">
<polygon fill="white" stroke="black" points="775.5,-56.5 775.5,-75.5 910.5,-75.5 910.5,-56.5 775.5,-56.5"/>
<text text-anchor="middle" x="843" y="-63.5" font-family="Helvetica,sans-Serif" font-size="10.00">Exceptions/RayError.hpp</text>
</a>
</g>
</g>
<!-- Node1&#45;&gt;Node11 -->
<g id="edge22" class="edge">
<title>Node1&#45;&gt;Node11</title>
<path fill="none" stroke="midnightblue" d="M410.11,-224.48C438.8,-214.42 478.32,-200.48 513,-188 622.1,-148.74 751.04,-101.1 810.27,-79.15"/>
<polygon fill="midnightblue" stroke="midnightblue" points="811.67,-82.36 819.83,-75.6 809.24,-75.8 811.67,-82.36"/>
</g>
<!-- Node16 -->
<g id="node16" class="node">
<title>Node16</title>
<g id="a_node16"><a xlink:href="lib_2Ray_2sources_2Vector_2Vector3_8hpp.html" target="_top" xlink:title=" ">
<polygon fill="white" stroke="black" points="0,-112.5 0,-131.5 108,-131.5 108,-112.5 0,-112.5"/>
<text text-anchor="middle" x="54" y="-119.5" font-family="Helvetica,sans-Serif" font-size="10.00">Vector/Vector3.hpp</text>
</a>
</g>
</g>
<!-- Node1&#45;&gt;Node16 -->
<g id="edge23" class="edge">
<title>Node1&#45;&gt;Node16</title>
<path fill="none" stroke="midnightblue" d="M304.56,-224.45C267.92,-215.72 221.76,-203.25 182,-188 144.03,-173.44 102.47,-151.04 77.31,-136.7"/>
<polygon fill="midnightblue" stroke="midnightblue" points="78.93,-133.59 68.52,-131.64 75.44,-139.66 78.93,-133.59"/>
</g>
<!-- Node3 -->
<g id="node3" class="node">
<title>Node3</title>
<g id="a_node3"><a xlink:title=" ">
<polygon fill="white" stroke="#bfbfbf" points="166,-0.5 166,-19.5 210,-19.5 210,-0.5 166,-0.5"/>
<text text-anchor="middle" x="188" y="-7.5" font-family="Helvetica,sans-Serif" font-size="10.00">string</text>
</a>
</g>
</g>
<!-- Node2&#45;&gt;Node3 -->
<g id="edge2" class="edge">
<title>Node2&#45;&gt;Node3</title>
<path fill="none" stroke="midnightblue" d="M228.13,-168.38C225.24,-155.73 219.16,-131.53 211,-112 203.94,-95.11 196,-93.61 191,-76 186.7,-60.87 186.19,-42.97 186.62,-29.79"/>
<polygon fill="midnightblue" stroke="midnightblue" points="190.13,-29.79 187.17,-19.61 183.14,-29.41 190.13,-29.79"/>
</g>
<!-- Node4 -->
<g id="node4" class="node">
<title>Node4</title>
<g id="a_node4"><a xlink:title=" ">
<polygon fill="white" stroke="#bfbfbf" points="636,-56.5 636,-75.5 694,-75.5 694,-56.5 636,-56.5"/>
<text text-anchor="middle" x="665" y="-63.5" font-family="Helvetica,sans-Serif" font-size="10.00">memory</text>
</a>
</g>
</g>
<!-- Node2&#45;&gt;Node4 -->
<g id="edge3" class="edge">
<title>Node2&#45;&gt;Node4</title>
<path fill="none" stroke="midnightblue" d="M268.83,-172.72C320.6,-166.48 414.77,-153.26 493,-132 545.01,-117.86 603.23,-94.1 636.85,-79.56"/>
<polygon fill="midnightblue" stroke="midnightblue" points="638.29,-82.75 646.05,-75.54 635.49,-76.33 638.29,-82.75"/>
</g>
<!-- Node5 -->
<g id="node5" class="node">
<title>Node5</title>
<g id="a_node5"><a xlink:title=" ">
<polygon fill="white" stroke="#bfbfbf" points="164,-112.5 164,-131.5 202,-131.5 202,-112.5 164,-112.5"/>
<text text-anchor="middle" x="183" y="-119.5" font-family="Helvetica,sans-Serif" font-size="10.00">map</text>
</a>
</g>
</g>
<!-- Node2&#45;&gt;Node5 -->
<g id="edge4" class="edge">
<title>Node2&#45;&gt;Node5</title>
<path fill="none" stroke="midnightblue" d="M222.24,-168.08C215.46,-160.3 205.46,-148.8 197.24,-139.37"/>
<polygon fill="midnightblue" stroke="midnightblue" points="199.82,-137 190.62,-131.75 194.54,-141.59 199.82,-137"/>
</g>
<!-- Node6 -->
<g id="node6" class="node">
<title>Node6</title>
<g id="a_node6"><a xlink:title=" ">
<polygon fill="white" stroke="#bfbfbf" points="68.5,-56.5 68.5,-75.5 121.5,-75.5 121.5,-56.5 68.5,-56.5"/>
<text text-anchor="middle" x="95" y="-63.5" font-family="Helvetica,sans-Serif" font-size="10.00">raylib.h</text>
</a>
</g>
</g>
<!-- Node2&#45;&gt;Node6 -->
<g id="edge5" class="edge">
<title>Node2&#45;&gt;Node6</title>
<path fill="none" stroke="midnightblue" d="M212.72,-168.45C196.9,-160.22 173.26,-146.85 155,-132 137.04,-117.39 119.43,-97.46 107.99,-83.53"/>
<polygon fill="midnightblue" stroke="midnightblue" points="110.71,-81.32 101.71,-75.73 105.25,-85.72 110.71,-81.32"/>
</g>
<!-- Node7 -->
<g id="node7" class="node">
<title>Node7</title>
<g id="a_node7"><a xlink:href="Cache_8hpp.html" target="_top" xlink:title=" ">
<polygon fill="white" stroke="black" points="391.5,-112.5 391.5,-131.5 484.5,-131.5 484.5,-112.5 391.5,-112.5"/>
<text text-anchor="middle" x="438" y="-119.5" font-family="Helvetica,sans-Serif" font-size="10.00">Utils/Cache.hpp</text>
</a>
</g>
</g>
<!-- Node2&#45;&gt;Node7 -->
<g id="edge6" class="edge">
<title>Node2&#45;&gt;Node7</title>
<path fill="none" stroke="midnightblue" d="M262.96,-168.44C298.79,-159.14 356.16,-144.25 395.39,-134.06"/>
<polygon fill="midnightblue" stroke="midnightblue" points="396.4,-137.42 405.2,-131.52 394.64,-130.64 396.4,-137.42"/>
</g>
<!-- Node2&#45;&gt;Node16 -->
<g id="edge19" class="edge">
<title>Node2&#45;&gt;Node16</title>
<path fill="none" stroke="midnightblue" d="M202.11,-168.44C172.25,-159.28 124.69,-144.69 91.54,-134.52"/>
<polygon fill="midnightblue" stroke="midnightblue" points="92.34,-131.1 81.76,-131.52 90.29,-137.8 92.34,-131.1"/>
</g>
<!-- Node7&#45;&gt;Node3 -->
<g id="edge17" class="edge">
<title>Node7&#45;&gt;Node3</title>
<path fill="none" stroke="midnightblue" d="M391.44,-117.59C331.94,-112.31 233.45,-100.12 207,-76 194.12,-64.26 189.79,-44.32 188.42,-29.62"/>
<polygon fill="midnightblue" stroke="midnightblue" points="191.91,-29.41 187.86,-19.62 184.93,-29.8 191.91,-29.41"/>
</g>
<!-- Node7&#45;&gt;Node4 -->
<g id="edge7" class="edge">
<title>Node7&#45;&gt;Node4</title>
<path fill="none" stroke="midnightblue" d="M473.97,-112.44C515.4,-102.59 583.24,-86.45 625.94,-76.29"/>
<polygon fill="midnightblue" stroke="midnightblue" points="626.78,-79.69 635.7,-73.97 625.16,-72.88 626.78,-79.69"/>
</g>
<!-- Node7&#45;&gt;Node6 -->
<g id="edge11" class="edge">
<title>Node7&#45;&gt;Node6</title>
<path fill="none" stroke="midnightblue" d="M391.38,-113.66C322.47,-102.81 194.8,-82.71 131.93,-72.81"/>
<polygon fill="midnightblue" stroke="midnightblue" points="132.12,-69.3 121.69,-71.2 131.03,-76.22 132.12,-69.3"/>
</g>
<!-- Node8 -->
<g id="node8" class="node">
<title>Node8</title>
<g id="a_node8"><a xlink:title=" ">
<polygon fill="white" stroke="#bfbfbf" points="294.5,-56.5 294.5,-75.5 387.5,-75.5 387.5,-56.5 294.5,-56.5"/>
<text text-anchor="middle" x="341" y="-63.5" font-family="Helvetica,sans-Serif" font-size="10.00">unordered_map</text>
</a>
</g>
</g>
<!-- Node7&#45;&gt;Node8 -->
<g id="edge8" class="edge">
<title>Node7&#45;&gt;Node8</title>
<path fill="none" stroke="midnightblue" d="M422.42,-112.32C407,-103.74 383.19,-90.49 365.29,-80.52"/>
<polygon fill="midnightblue" stroke="midnightblue" points="366.99,-77.46 356.55,-75.65 363.58,-83.58 366.99,-77.46"/>
</g>
<!-- Node9 -->
<g id="node9" class="node">
<title>Node9</title>
<g id="a_node9"><a xlink:title=" ">
<polygon fill="white" stroke="#bfbfbf" points="405.5,-56.5 405.5,-75.5 470.5,-75.5 470.5,-56.5 405.5,-56.5"/>
<text text-anchor="middle" x="438" y="-63.5" font-family="Helvetica,sans-Serif" font-size="10.00">functional</text>
</a>
</g>
</g>
<!-- Node7&#45;&gt;Node9 -->
<g id="edge9" class="edge">
<title>Node7&#45;&gt;Node9</title>
<path fill="none" stroke="midnightblue" d="M438,-112.08C438,-105.01 438,-94.86 438,-85.99"/>
<polygon fill="midnightblue" stroke="midnightblue" points="441.5,-85.75 438,-75.75 434.5,-85.75 441.5,-85.75"/>
</g>
<!-- Node7&#45;&gt;Node10 -->
<g id="edge10" class="edge">
<title>Node7&#45;&gt;Node10</title>
<path fill="none" stroke="midnightblue" d="M484.73,-114.6C535.82,-107.25 620.27,-94.12 702.35,-75.93"/>
<polygon fill="midnightblue" stroke="midnightblue" points="703.36,-79.3 712.35,-73.69 701.83,-72.47 703.36,-79.3"/>
</g>
<!-- Node7&#45;&gt;Node11 -->
<g id="edge12" class="edge">
<title>Node7&#45;&gt;Node11</title>
<path fill="none" stroke="midnightblue" d="M484.85,-114.75C554.51,-105.46 686.05,-87.93 768.86,-76.89"/>
<polygon fill="midnightblue" stroke="midnightblue" points="769.51,-80.33 778.96,-75.54 768.58,-73.39 769.51,-80.33"/>
</g>
<!-- Node13 -->
<g id="node13" class="node">
<title>Node13</title>
<g id="a_node13"><a xlink:title=" ">
<polygon fill="white" stroke="#bfbfbf" points="488.5,-56.5 488.5,-75.5 535.5,-75.5 535.5,-56.5 488.5,-56.5"/>
<text text-anchor="middle" x="512" y="-63.5" font-family="Helvetica,sans-Serif" font-size="10.00">vector</text>
</a>
</g>
</g>
<!-- Node7&#45;&gt;Node13 -->
<g id="edge15" class="edge">
<title>Node7&#45;&gt;Node13</title>
<path fill="none" stroke="midnightblue" d="M449.89,-112.32C461.15,-104.11 478.29,-91.6 491.71,-81.81"/>
<polygon fill="midnightblue" stroke="midnightblue" points="493.88,-84.56 499.89,-75.83 489.75,-78.9 493.88,-84.56"/>
</g>
<!-- Node14 -->
<g id="node14" class="node">
<title>Node14</title>
<g id="a_node14"><a xlink:title=" ">
<polygon fill="white" stroke="#bfbfbf" points="554,-56.5 554,-75.5 618,-75.5 618,-56.5 554,-56.5"/>
<text text-anchor="middle" x="586" y="-63.5" font-family="Helvetica,sans-Serif" font-size="10.00">algorithm</text>
</a>
</g>
</g>
<!-- Node7&#45;&gt;Node14 -->
<g id="edge16" class="edge">
<title>Node7&#45;&gt;Node14</title>
<path fill="none" stroke="midnightblue" d="M461.45,-112.44C486.13,-103.44 525.19,-89.19 552.98,-79.05"/>
<polygon fill="midnightblue" stroke="midnightblue" points="554.46,-82.23 562.66,-75.52 552.06,-75.66 554.46,-82.23"/>
</g>
<!-- Node15 -->
<g id="node15" class="node">
<title>Node15</title>
<g id="a_node15"><a xlink:title=" ">
<polygon fill="white" stroke="#bfbfbf" points="216,-56.5 216,-75.5 276,-75.5 276,-56.5 216,-56.5"/>
<text text-anchor="middle" x="246" y="-63.5" font-family="Helvetica,sans-Serif" font-size="10.00">iostream</text>
</a>
</g>
</g>
<!-- Node7&#45;&gt;Node15 -->
<g id="edge18" class="edge">
<title>Node7&#45;&gt;Node15</title>
<path fill="none" stroke="midnightblue" d="M407.58,-112.44C374.72,-103.2 322.22,-88.44 286.03,-78.26"/>
<polygon fill="midnightblue" stroke="midnightblue" points="286.85,-74.85 276.28,-75.52 284.96,-81.59 286.85,-74.85"/>
</g>
<!-- Node11&#45;&gt;Node3 -->
<g id="edge14" class="edge">
<title>Node11&#45;&gt;Node3</title>
<path fill="none" stroke="midnightblue" d="M775.41,-56.95C772.23,-56.62 769.08,-56.3 766,-56 558.28,-35.78 307.86,-18.79 220.18,-13.07"/>
<polygon fill="midnightblue" stroke="midnightblue" points="220.28,-9.57 210.08,-12.41 219.83,-16.55 220.28,-9.57"/>
</g>
<!-- Node12 -->
<g id="node12" class="node">
<title>Node12</title>
<g id="a_node12"><a xlink:title=" ">
<polygon fill="white" stroke="#bfbfbf" points="810.5,-0.5 810.5,-19.5 875.5,-19.5 875.5,-0.5 810.5,-0.5"/>
<text text-anchor="middle" x="843" y="-7.5" font-family="Helvetica,sans-Serif" font-size="10.00">stdexcept</text>
</a>
</g>
</g>
<!-- Node11&#45;&gt;Node12 -->
<g id="edge13" class="edge">
<title>Node11&#45;&gt;Node12</title>
<path fill="none" stroke="midnightblue" d="M843,-56.08C843,-49.01 843,-38.86 843,-29.99"/>
<polygon fill="midnightblue" stroke="midnightblue" points="846.5,-29.75 843,-19.75 839.5,-29.75 846.5,-29.75"/>
</g>
<!-- Node16&#45;&gt;Node6 -->
<g id="edge20" class="edge">
<title>Node16&#45;&gt;Node6</title>
<path fill="none" stroke="midnightblue" d="M60.77,-112.08C66.56,-104.46 75.06,-93.26 82.14,-83.94"/>
<polygon fill="midnightblue" stroke="midnightblue" points="85.1,-85.83 88.36,-75.75 79.52,-81.6 85.1,-85.83"/>
</g>
</g>
</svg>
