<?xml version="1.0" encoding="UTF-8" standalone="no"?>
<!DOCTYPE svg PUBLIC "-//W3C//DTD SVG 1.1//EN"
 "http://www.w3.org/Graphics/SVG/1.1/DTD/svg11.dtd">
<!-- Generated by graphviz version 2.43.0 (0)
 -->
<!-- Title: sources/System/Shaders/ShaderSystem.hpp Pages: 1 -->
<svg width="407pt" height="173pt"
 viewBox="0.00 0.00 406.50 173.00" xmlns="http://www.w3.org/2000/svg" xmlns:xlink="http://www.w3.org/1999/xlink">
<g id="graph0" class="graph" transform="scale(1 1) rotate(0) translate(4 169)">
<title>sources/System/Shaders/ShaderSystem.hpp</title>
<polygon fill="white" stroke="transparent" points="-4,4 -4,-169 402.5,-169 402.5,4 -4,4"/>
<!-- Node1 -->
<g id="node1" class="node">
<title>Node1</title>
<g id="a_node1"><a xlink:title=" ">
<polygon fill="#bfbfbf" stroke="black" points="105.5,-134.5 105.5,-164.5 241.5,-164.5 241.5,-134.5 105.5,-134.5"/>
<text text-anchor="start" x="113.5" y="-152.5" font-family="Helvetica,sans-Serif" font-size="10.00">sources/System/Shaders</text>
<text text-anchor="middle" x="173.5" y="-141.5" font-family="Helvetica,sans-Serif" font-size="10.00">/ShaderSystem.hpp</text>
</a>
</g>
</g>
<!-- Node2 -->
<g id="node2" class="node">
<title>Node2</title>
<g id="a_node2"><a xlink:href="Runner_8cpp.html" target="_top" xlink:title=" ">
<polygon fill="white" stroke="black" points="0,-6 0,-25 149,-25 149,-6 0,-6"/>
<text text-anchor="middle" x="74.5" y="-13" font-family="Helvetica,sans-Serif" font-size="10.00">sources/Runner/Runner.cpp</text>
</a>
</g>
</g>
<!-- Node1&#45;&gt;Node2 -->
<g id="edge1" class="edge">
<title>Node1&#45;&gt;Node2</title>
<path fill="none" stroke="midnightblue" d="M131.16,-129.46C117.66,-121.5 103.83,-111.03 94.5,-98 78.3,-75.37 75.14,-41.14 74.58,-25.22"/>
<polygon fill="midnightblue" stroke="midnightblue" points="129.49,-132.54 139.93,-134.33 132.89,-126.42 129.49,-132.54"/>
</g>
<!-- Node3 -->
<g id="node3" class="node">
<title>Node3</title>
<g id="a_node3"><a xlink:href="ShaderModelSystem_8hpp.html" target="_top" xlink:title=" ">
<polygon fill="white" stroke="black" points="103,-67.5 103,-97.5 244,-97.5 244,-67.5 103,-67.5"/>
<text text-anchor="start" x="111" y="-85.5" font-family="Helvetica,sans-Serif" font-size="10.00">sources/System/Shaders</text>
<text text-anchor="middle" x="173.5" y="-74.5" font-family="Helvetica,sans-Serif" font-size="10.00">/ShaderModelSystem.hpp</text>
</a>
</g>
</g>
<!-- Node1&#45;&gt;Node3 -->
<g id="edge2" class="edge">
<title>Node1&#45;&gt;Node3</title>
<path fill="none" stroke="midnightblue" d="M173.5,-124.11C173.5,-115.15 173.5,-105.32 173.5,-97.58"/>
<polygon fill="midnightblue" stroke="midnightblue" points="170,-124.4 173.5,-134.4 177,-124.4 170,-124.4"/>
</g>
<!-- Node5 -->
<g id="node5" class="node">
<title>Node5</title>
<g id="a_node5"><a xlink:href="ShaderSystem_8cpp.html" target="_top" xlink:title=" ">
<polygon fill="white" stroke="black" points="262.5,-67.5 262.5,-97.5 398.5,-97.5 398.5,-67.5 262.5,-67.5"/>
<text text-anchor="start" x="270.5" y="-85.5" font-family="Helvetica,sans-Serif" font-size="10.00">sources/System/Shaders</text>
<text text-anchor="middle" x="330.5" y="-74.5" font-family="Helvetica,sans-Serif" font-size="10.00">/ShaderSystem.cpp</text>
</a>
</g>
</g>
<!-- Node1&#45;&gt;Node5 -->
<g id="edge5" class="edge">
<title>Node1&#45;&gt;Node5</title>
<path fill="none" stroke="midnightblue" d="M216.87,-130.54C241.99,-120.14 273.16,-107.24 296.5,-97.58"/>
<polygon fill="midnightblue" stroke="midnightblue" points="215.47,-127.34 207.57,-134.4 218.14,-133.8 215.47,-127.34"/>
</g>
<!-- Node3&#45;&gt;Node2 -->
<g id="edge3" class="edge">
<title>Node3&#45;&gt;Node2</title>
<path fill="none" stroke="midnightblue" d="M143.51,-61.81C124.78,-49.51 101.62,-34.3 87.46,-25.01"/>
<polygon fill="midnightblue" stroke="midnightblue" points="141.74,-64.83 152.02,-67.4 145.58,-58.98 141.74,-64.83"/>
</g>
<!-- Node4 -->
<g id="node4" class="node">
<title>Node4</title>
<g id="a_node4"><a xlink:href="ShaderModelSystem_8cpp.html" target="_top" xlink:title=" ">
<polygon fill="white" stroke="black" points="167.5,-0.5 167.5,-30.5 307.5,-30.5 307.5,-0.5 167.5,-0.5"/>
<text text-anchor="start" x="175.5" y="-18.5" font-family="Helvetica,sans-Serif" font-size="10.00">sources/System/Shaders</text>
<text text-anchor="middle" x="237.5" y="-7.5" font-family="Helvetica,sans-Serif" font-size="10.00">/ShaderModelSystem.cpp</text>
</a>
</g>
</g>
<!-- Node3&#45;&gt;Node4 -->
<g id="edge4" class="edge">
<title>Node3&#45;&gt;Node4</title>
<path fill="none" stroke="midnightblue" d="M194.65,-60.02C204.18,-50.34 215.17,-39.17 223.64,-30.58"/>
<polygon fill="midnightblue" stroke="midnightblue" points="191.91,-57.81 187.39,-67.4 196.9,-62.73 191.91,-57.81"/>
</g>
</g>
</svg>
