<?xml version="1.0" encoding="UTF-8" standalone="no"?>
<!DOCTYPE svg PUBLIC "-//W3C//DTD SVG 1.1//EN"
 "http://www.w3.org/Graphics/SVG/1.1/DTD/svg11.dtd">
<!-- Generated by graphviz version 2.43.0 (0)
 -->
<!-- Title: lib/Ray/sources/Shaders/Shaders.hpp Pages: 1 -->
<svg width="905pt" height="207pt"
 viewBox="0.00 0.00 905.00 207.00" xmlns="http://www.w3.org/2000/svg" xmlns:xlink="http://www.w3.org/1999/xlink">
<g id="graph0" class="graph" transform="scale(1 1) rotate(0) translate(4 203)">
<title>lib/Ray/sources/Shaders/Shaders.hpp</title>
<polygon fill="white" stroke="transparent" points="-4,4 -4,-203 901,-203 901,4 -4,4"/>
<!-- Node1 -->
<g id="node1" class="node">
<title>Node1</title>
<g id="a_node1"><a xlink:title=" ">
<polygon fill="#bfbfbf" stroke="black" points="317.5,-168.5 317.5,-198.5 450.5,-198.5 450.5,-168.5 317.5,-168.5"/>
<text text-anchor="start" x="325.5" y="-186.5" font-family="Helvetica,sans-Serif" font-size="10.00">lib/Ray/sources/Shaders</text>
<text text-anchor="middle" x="384" y="-175.5" font-family="Helvetica,sans-Serif" font-size="10.00">/Shaders.hpp</text>
</a>
</g>
</g>
<!-- Node2 -->
<g id="node2" class="node">
<title>Node2</title>
<g id="a_node2"><a xlink:title=" ">
<polygon fill="white" stroke="#bfbfbf" points="771,-0.5 771,-19.5 815,-19.5 815,-0.5 771,-0.5"/>
<text text-anchor="middle" x="793" y="-7.5" font-family="Helvetica,sans-Serif" font-size="10.00">string</text>
</a>
</g>
</g>
<!-- Node1&#45;&gt;Node2 -->
<g id="edge1" class="edge">
<title>Node1&#45;&gt;Node2</title>
<path fill="none" stroke="midnightblue" d="M450.66,-174.99C555.74,-161.64 752.27,-129.96 794,-76 804.12,-62.91 802.32,-43.49 798.94,-29.29"/>
<polygon fill="midnightblue" stroke="midnightblue" points="802.3,-28.31 796.21,-19.63 795.56,-30.21 802.3,-28.31"/>
</g>
<!-- Node3 -->
<g id="node3" class="node">
<title>Node3</title>
<g id="a_node3"><a xlink:title=" ">
<polygon fill="white" stroke="#bfbfbf" points="0,-56.5 0,-75.5 58,-75.5 58,-56.5 0,-56.5"/>
<text text-anchor="middle" x="29" y="-63.5" font-family="Helvetica,sans-Serif" font-size="10.00">memory</text>
</a>
</g>
</g>
<!-- Node1&#45;&gt;Node3 -->
<g id="edge2" class="edge">
<title>Node1&#45;&gt;Node3</title>
<path fill="none" stroke="midnightblue" d="M317.02,-172.02C271.39,-163.79 210.05,-150.61 158,-132 119.26,-118.15 77.2,-95.36 51.98,-80.78"/>
<polygon fill="midnightblue" stroke="midnightblue" points="53.58,-77.66 43.18,-75.62 50.04,-83.7 53.58,-77.66"/>
</g>
<!-- Node4 -->
<g id="node4" class="node">
<title>Node4</title>
<g id="a_node4"><a xlink:title=" ">
<polygon fill="white" stroke="#bfbfbf" points="859,-112.5 859,-131.5 897,-131.5 897,-112.5 859,-112.5"/>
<text text-anchor="middle" x="878" y="-119.5" font-family="Helvetica,sans-Serif" font-size="10.00">map</text>
</a>
</g>
</g>
<!-- Node1&#45;&gt;Node4 -->
<g id="edge3" class="edge">
<title>Node1&#45;&gt;Node4</title>
<path fill="none" stroke="midnightblue" d="M450.52,-178.51C540.57,-172.35 705.98,-158.4 845,-132 846.28,-131.76 847.58,-131.49 848.9,-131.2"/>
<polygon fill="midnightblue" stroke="midnightblue" points="850.04,-134.53 858.92,-128.75 848.38,-127.73 850.04,-134.53"/>
</g>
<!-- Node5 -->
<g id="node5" class="node">
<title>Node5</title>
<g id="a_node5"><a xlink:title=" ">
<polygon fill="white" stroke="#bfbfbf" points="76.5,-56.5 76.5,-75.5 129.5,-75.5 129.5,-56.5 76.5,-56.5"/>
<text text-anchor="middle" x="103" y="-63.5" font-family="Helvetica,sans-Serif" font-size="10.00">raylib.h</text>
</a>
</g>
</g>
<!-- Node1&#45;&gt;Node5 -->
<g id="edge4" class="edge">
<title>Node1&#45;&gt;Node5</title>
<path fill="none" stroke="midnightblue" d="M368.18,-168.49C349.39,-152.54 316.47,-126.81 284,-112 226.04,-85.57 204.81,-91.65 139.68,-76.33"/>
<polygon fill="midnightblue" stroke="midnightblue" points="140.29,-72.87 129.75,-73.91 138.63,-79.67 140.29,-72.87"/>
</g>
<!-- Node6 -->
<g id="node6" class="node">
<title>Node6</title>
<g id="a_node6"><a xlink:href="Cache_8hpp.html" target="_top" xlink:title=" ">
<polygon fill="white" stroke="black" points="397.5,-112.5 397.5,-131.5 490.5,-131.5 490.5,-112.5 397.5,-112.5"/>
<text text-anchor="middle" x="444" y="-119.5" font-family="Helvetica,sans-Serif" font-size="10.00">Utils/Cache.hpp</text>
</a>
</g>
</g>
<!-- Node1&#45;&gt;Node6 -->
<g id="edge5" class="edge">
<title>Node1&#45;&gt;Node6</title>
<path fill="none" stroke="midnightblue" d="M398.22,-168.4C407.21,-159.49 418.84,-147.95 428.13,-138.74"/>
<polygon fill="midnightblue" stroke="midnightblue" points="430.63,-141.18 435.27,-131.66 425.7,-136.21 430.63,-141.18"/>
</g>
<!-- Node15 -->
<g id="node15" class="node">
<title>Node15</title>
<g id="a_node15"><a xlink:href="lib_2Ray_2sources_2Vector_2Vector3_8hpp.html" target="_top" xlink:title=" ">
<polygon fill="white" stroke="black" points="167,-112.5 167,-131.5 275,-131.5 275,-112.5 167,-112.5"/>
<text text-anchor="middle" x="221" y="-119.5" font-family="Helvetica,sans-Serif" font-size="10.00">Vector/Vector3.hpp</text>
</a>
</g>
</g>
<!-- Node1&#45;&gt;Node15 -->
<g id="edge18" class="edge">
<title>Node1&#45;&gt;Node15</title>
<path fill="none" stroke="midnightblue" d="M345.37,-168.4C317.66,-158.28 280.69,-144.79 254.28,-135.15"/>
<polygon fill="midnightblue" stroke="midnightblue" points="255.31,-131.8 244.72,-131.66 252.91,-138.37 255.31,-131.8"/>
</g>
<!-- Node6&#45;&gt;Node2 -->
<g id="edge16" class="edge">
<title>Node6&#45;&gt;Node2</title>
<path fill="none" stroke="midnightblue" d="M490.51,-120.71C571.19,-119.25 732.43,-111.8 774,-76 787.2,-64.63 791.49,-44.64 792.75,-29.82"/>
<polygon fill="midnightblue" stroke="midnightblue" points="796.25,-29.88 793.23,-19.72 789.26,-29.54 796.25,-29.88"/>
</g>
<!-- Node6&#45;&gt;Node3 -->
<g id="edge6" class="edge">
<title>Node6&#45;&gt;Node3</title>
<path fill="none" stroke="midnightblue" d="M397.32,-117.15C327.72,-111.03 192.49,-97.7 68.44,-76.08"/>
<polygon fill="midnightblue" stroke="midnightblue" points="68.85,-72.6 58.39,-74.31 67.63,-79.49 68.85,-72.6"/>
</g>
<!-- Node6&#45;&gt;Node5 -->
<g id="edge10" class="edge">
<title>Node6&#45;&gt;Node5</title>
<path fill="none" stroke="midnightblue" d="M397.34,-115.69C339.1,-108.73 236.31,-95.31 139.62,-76.16"/>
<polygon fill="midnightblue" stroke="midnightblue" points="140.18,-72.71 129.69,-74.17 138.8,-79.57 140.18,-72.71"/>
</g>
<!-- Node7 -->
<g id="node7" class="node">
<title>Node7</title>
<g id="a_node7"><a xlink:title=" ">
<polygon fill="white" stroke="#bfbfbf" points="300.5,-56.5 300.5,-75.5 393.5,-75.5 393.5,-56.5 300.5,-56.5"/>
<text text-anchor="middle" x="347" y="-63.5" font-family="Helvetica,sans-Serif" font-size="10.00">unordered_map</text>
</a>
</g>
</g>
<!-- Node6&#45;&gt;Node7 -->
<g id="edge7" class="edge">
<title>Node6&#45;&gt;Node7</title>
<path fill="none" stroke="midnightblue" d="M428.42,-112.32C413,-103.74 389.19,-90.49 371.29,-80.52"/>
<polygon fill="midnightblue" stroke="midnightblue" points="372.99,-77.46 362.55,-75.65 369.58,-83.58 372.99,-77.46"/>
</g>
<!-- Node8 -->
<g id="node8" class="node">
<title>Node8</title>
<g id="a_node8"><a xlink:title=" ">
<polygon fill="white" stroke="#bfbfbf" points="411.5,-56.5 411.5,-75.5 476.5,-75.5 476.5,-56.5 411.5,-56.5"/>
<text text-anchor="middle" x="444" y="-63.5" font-family="Helvetica,sans-Serif" font-size="10.00">functional</text>
</a>
</g>
</g>
<!-- Node6&#45;&gt;Node8 -->
<g id="edge8" class="edge">
<title>Node6&#45;&gt;Node8</title>
<path fill="none" stroke="midnightblue" d="M444,-112.08C444,-105.01 444,-94.86 444,-85.99"/>
<polygon fill="midnightblue" stroke="midnightblue" points="447.5,-85.75 444,-75.75 440.5,-85.75 447.5,-85.75"/>
</g>
<!-- Node9 -->
<g id="node9" class="node">
<title>Node9</title>
<g id="a_node9"><a xlink:title=" ">
<polygon fill="white" stroke="#bfbfbf" points="494.5,-56.5 494.5,-75.5 539.5,-75.5 539.5,-56.5 494.5,-56.5"/>
<text text-anchor="middle" x="517" y="-63.5" font-family="Helvetica,sans-Serif" font-size="10.00">utility</text>
</a>
</g>
</g>
<!-- Node6&#45;&gt;Node9 -->
<g id="edge9" class="edge">
<title>Node6&#45;&gt;Node9</title>
<path fill="none" stroke="midnightblue" d="M455.73,-112.32C466.84,-104.11 483.74,-91.6 496.98,-81.81"/>
<polygon fill="midnightblue" stroke="midnightblue" points="499.1,-84.59 505.06,-75.83 494.94,-78.97 499.1,-84.59"/>
</g>
<!-- Node10 -->
<g id="node10" class="node">
<title>Node10</title>
<g id="a_node10"><a xlink:href="RayError_8hpp.html" target="_top" xlink:title=" ">
<polygon fill="white" stroke="black" points="147.5,-56.5 147.5,-75.5 282.5,-75.5 282.5,-56.5 147.5,-56.5"/>
<text text-anchor="middle" x="215" y="-63.5" font-family="Helvetica,sans-Serif" font-size="10.00">Exceptions/RayError.hpp</text>
</a>
</g>
</g>
<!-- Node6&#45;&gt;Node10 -->
<g id="edge11" class="edge">
<title>Node6&#45;&gt;Node10</title>
<path fill="none" stroke="midnightblue" d="M407.71,-112.44C368.02,-103.08 304.29,-88.06 261.09,-77.87"/>
<polygon fill="midnightblue" stroke="midnightblue" points="261.65,-74.41 251.12,-75.52 260.05,-81.22 261.65,-74.41"/>
</g>
<!-- Node12 -->
<g id="node12" class="node">
<title>Node12</title>
<g id="a_node12"><a xlink:title=" ">
<polygon fill="white" stroke="#bfbfbf" points="557.5,-56.5 557.5,-75.5 604.5,-75.5 604.5,-56.5 557.5,-56.5"/>
<text text-anchor="middle" x="581" y="-63.5" font-family="Helvetica,sans-Serif" font-size="10.00">vector</text>
</a>
</g>
</g>
<!-- Node6&#45;&gt;Node12 -->
<g id="edge14" class="edge">
<title>Node6&#45;&gt;Node12</title>
<path fill="none" stroke="midnightblue" d="M465.71,-112.44C488.35,-103.52 524.07,-89.44 549.75,-79.32"/>
<polygon fill="midnightblue" stroke="midnightblue" points="551.37,-82.44 559.39,-75.52 548.81,-75.93 551.37,-82.44"/>
</g>
<!-- Node13 -->
<g id="node13" class="node">
<title>Node13</title>
<g id="a_node13"><a xlink:title=" ">
<polygon fill="white" stroke="#bfbfbf" points="623,-56.5 623,-75.5 687,-75.5 687,-56.5 623,-56.5"/>
<text text-anchor="middle" x="655" y="-63.5" font-family="Helvetica,sans-Serif" font-size="10.00">algorithm</text>
</a>
</g>
</g>
<!-- Node6&#45;&gt;Node13 -->
<g id="edge15" class="edge">
<title>Node6&#45;&gt;Node13</title>
<path fill="none" stroke="midnightblue" d="M477.43,-112.44C514.1,-103.06 573.01,-87.98 612.83,-77.79"/>
<polygon fill="midnightblue" stroke="midnightblue" points="613.94,-81.12 622.76,-75.25 612.21,-74.34 613.94,-81.12"/>
</g>
<!-- Node14 -->
<g id="node14" class="node">
<title>Node14</title>
<g id="a_node14"><a xlink:title=" ">
<polygon fill="white" stroke="#bfbfbf" points="705,-56.5 705,-75.5 765,-75.5 765,-56.5 705,-56.5"/>
<text text-anchor="middle" x="735" y="-63.5" font-family="Helvetica,sans-Serif" font-size="10.00">iostream</text>
</a>
</g>
</g>
<!-- Node6&#45;&gt;Node14 -->
<g id="edge17" class="edge">
<title>Node6&#45;&gt;Node14</title>
<path fill="none" stroke="midnightblue" d="M490.58,-113.4C539.18,-105.31 617.81,-91.77 694.92,-76.14"/>
<polygon fill="midnightblue" stroke="midnightblue" points="695.7,-79.56 704.8,-74.13 694.3,-72.7 695.7,-79.56"/>
</g>
<!-- Node10&#45;&gt;Node2 -->
<g id="edge13" class="edge">
<title>Node10&#45;&gt;Node2</title>
<path fill="none" stroke="midnightblue" d="M282.59,-57C285.77,-56.65 288.92,-56.32 292,-56 468.3,-37.78 679.95,-20.17 760.09,-13.65"/>
<polygon fill="midnightblue" stroke="midnightblue" points="760.82,-17.1 770.51,-12.8 760.26,-10.12 760.82,-17.1"/>
</g>
<!-- Node11 -->
<g id="node11" class="node">
<title>Node11</title>
<g id="a_node11"><a xlink:title=" ">
<polygon fill="white" stroke="#bfbfbf" points="182.5,-0.5 182.5,-19.5 247.5,-19.5 247.5,-0.5 182.5,-0.5"/>
<text text-anchor="middle" x="215" y="-7.5" font-family="Helvetica,sans-Serif" font-size="10.00">stdexcept</text>
</a>
</g>
</g>
<!-- Node10&#45;&gt;Node11 -->
<g id="edge12" class="edge">
<title>Node10&#45;&gt;Node11</title>
<path fill="none" stroke="midnightblue" d="M215,-56.08C215,-49.01 215,-38.86 215,-29.99"/>
<polygon fill="midnightblue" stroke="midnightblue" points="218.5,-29.75 215,-19.75 211.5,-29.75 218.5,-29.75"/>
</g>
<!-- Node15&#45;&gt;Node5 -->
<g id="edge19" class="edge">
<title>Node15&#45;&gt;Node5</title>
<path fill="none" stroke="midnightblue" d="M202.3,-112.44C183.06,-103.64 152.85,-89.81 130.8,-79.72"/>
<polygon fill="midnightblue" stroke="midnightblue" points="132.16,-76.5 121.61,-75.52 129.25,-82.86 132.16,-76.5"/>
</g>
</g>
</svg>
