<?xml version="1.0" encoding="UTF-8" standalone="no"?>
<!DOCTYPE svg PUBLIC "-//W3C//DTD SVG 1.1//EN"
 "http://www.w3.org/Graphics/SVG/1.1/DTD/svg11.dtd">
<!-- Generated by graphviz version 2.43.0 (0)
 -->
<!-- Title: sources/Component/Shaders/ShaderComponent.hpp Pages: 1 -->
<svg width="1414pt" height="240pt"
 viewBox="0.00 0.00 1413.50 240.00" xmlns="http://www.w3.org/2000/svg" xmlns:xlink="http://www.w3.org/1999/xlink">
<g id="graph0" class="graph" transform="scale(1 1) rotate(0) translate(4 236)">
<title>sources/Component/Shaders/ShaderComponent.hpp</title>
<polygon fill="white" stroke="transparent" points="-4,4 -4,-236 1409.5,-236 1409.5,4 -4,4"/>
<!-- Node1 -->
<g id="node1" class="node">
<title>Node1</title>
<g id="a_node1"><a xlink:title=" ">
<polygon fill="#bfbfbf" stroke="black" points="549,-201.5 549,-231.5 704,-231.5 704,-201.5 549,-201.5"/>
<text text-anchor="start" x="557" y="-219.5" font-family="Helvetica,sans-Serif" font-size="10.00">sources/Component/Shaders</text>
<text text-anchor="middle" x="626.5" y="-208.5" font-family="Helvetica,sans-Serif" font-size="10.00">/ShaderComponent.hpp</text>
</a>
</g>
</g>
<!-- Node2 -->
<g id="node2" class="node">
<title>Node2</title>
<g id="a_node2"><a xlink:href="ShaderComponent_8cpp.html" target="_top" xlink:title=" ">
<polygon fill="white" stroke="black" points="0,-134.5 0,-164.5 155,-164.5 155,-134.5 0,-134.5"/>
<text text-anchor="start" x="8" y="-152.5" font-family="Helvetica,sans-Serif" font-size="10.00">sources/Component/Shaders</text>
<text text-anchor="middle" x="77.5" y="-141.5" font-family="Helvetica,sans-Serif" font-size="10.00">/ShaderComponent.cpp</text>
</a>
</g>
</g>
<!-- Node1&#45;&gt;Node2 -->
<g id="edge1" class="edge">
<title>Node1&#45;&gt;Node2</title>
<path fill="none" stroke="midnightblue" d="M538.46,-207.36C445.37,-198.41 294.32,-182.9 164.5,-165 161.47,-164.58 158.38,-164.14 155.26,-163.68"/>
<polygon fill="midnightblue" stroke="midnightblue" points="538.39,-210.87 548.68,-208.34 539.06,-203.9 538.39,-210.87"/>
</g>
<!-- Node3 -->
<g id="node3" class="node">
<title>Node3</title>
<g id="a_node3"><a xlink:href="ParserYaml_8cpp.html" target="_top" xlink:title=" ">
<polygon fill="white" stroke="black" points="173.5,-140 173.5,-159 337.5,-159 337.5,-140 173.5,-140"/>
<text text-anchor="middle" x="255.5" y="-147" font-family="Helvetica,sans-Serif" font-size="10.00">sources/Parser/ParserYaml.cpp</text>
</a>
</g>
</g>
<!-- Node1&#45;&gt;Node3 -->
<g id="edge2" class="edge">
<title>Node1&#45;&gt;Node3</title>
<path fill="none" stroke="midnightblue" d="M538.59,-200.1C465.34,-187.27 363.72,-169.46 304.26,-159.04"/>
<polygon fill="midnightblue" stroke="midnightblue" points="538.27,-203.6 548.73,-201.87 539.48,-196.7 538.27,-203.6"/>
</g>
<!-- Node4 -->
<g id="node4" class="node">
<title>Node4</title>
<g id="a_node4"><a xlink:href="GameScene_8cpp.html" target="_top" xlink:title=" ">
<polygon fill="white" stroke="black" points="356,-140 356,-159 529,-159 529,-140 356,-140"/>
<text text-anchor="middle" x="442.5" y="-147" font-family="Helvetica,sans-Serif" font-size="10.00">sources/Runner/GameScene.cpp</text>
</a>
</g>
</g>
<!-- Node1&#45;&gt;Node4 -->
<g id="edge3" class="edge">
<title>Node1&#45;&gt;Node4</title>
<path fill="none" stroke="midnightblue" d="M576.81,-197.95C541.07,-185.32 494.45,-168.85 466.58,-159.01"/>
<polygon fill="midnightblue" stroke="midnightblue" points="575.98,-201.37 586.57,-201.4 578.31,-194.76 575.98,-201.37"/>
</g>
<!-- Node5 -->
<g id="node5" class="node">
<title>Node5</title>
<g id="a_node5"><a xlink:href="BombHolderSystem_8cpp.html" target="_top" xlink:title=" ">
<polygon fill="white" stroke="black" points="547.5,-134.5 547.5,-164.5 705.5,-164.5 705.5,-134.5 547.5,-134.5"/>
<text text-anchor="start" x="555.5" y="-152.5" font-family="Helvetica,sans-Serif" font-size="10.00">sources/System/BombHolder</text>
<text text-anchor="middle" x="626.5" y="-141.5" font-family="Helvetica,sans-Serif" font-size="10.00">/BombHolderSystem.cpp</text>
</a>
</g>
</g>
<!-- Node1&#45;&gt;Node5 -->
<g id="edge4" class="edge">
<title>Node1&#45;&gt;Node5</title>
<path fill="none" stroke="midnightblue" d="M626.5,-191.11C626.5,-182.15 626.5,-172.32 626.5,-164.58"/>
<polygon fill="midnightblue" stroke="midnightblue" points="623,-191.4 626.5,-201.4 630,-191.4 623,-191.4"/>
</g>
<!-- Node6 -->
<g id="node6" class="node">
<title>Node6</title>
<g id="a_node6"><a xlink:href="RenderSystem_8cpp.html" target="_top" xlink:title=" ">
<polygon fill="white" stroke="black" points="724,-134.5 724,-164.5 865,-164.5 865,-134.5 724,-134.5"/>
<text text-anchor="start" x="732" y="-152.5" font-family="Helvetica,sans-Serif" font-size="10.00">sources/System/Renderer</text>
<text text-anchor="middle" x="794.5" y="-141.5" font-family="Helvetica,sans-Serif" font-size="10.00">/RenderSystem.cpp</text>
</a>
</g>
</g>
<!-- Node1&#45;&gt;Node6 -->
<g id="edge5" class="edge">
<title>Node1&#45;&gt;Node6</title>
<path fill="none" stroke="midnightblue" d="M672.55,-197.68C699.5,-187.26 733.04,-174.28 758.12,-164.58"/>
<polygon fill="midnightblue" stroke="midnightblue" points="671.02,-194.52 662.95,-201.4 673.54,-201.05 671.02,-194.52"/>
</g>
<!-- Node7 -->
<g id="node7" class="node">
<title>Node7</title>
<g id="a_node7"><a xlink:href="ShaderDrawable2DSystem_8hpp.html" target="_top" xlink:title=" ">
<polygon fill="white" stroke="black" points="883,-134.5 883,-164.5 1054,-164.5 1054,-134.5 883,-134.5"/>
<text text-anchor="start" x="891" y="-152.5" font-family="Helvetica,sans-Serif" font-size="10.00">sources/System/Shaders</text>
<text text-anchor="middle" x="968.5" y="-141.5" font-family="Helvetica,sans-Serif" font-size="10.00">/ShaderDrawable2DSystem.hpp</text>
</a>
</g>
</g>
<!-- Node1&#45;&gt;Node7 -->
<g id="edge6" class="edge">
<title>Node1&#45;&gt;Node7</title>
<path fill="none" stroke="midnightblue" d="M710.25,-199.58C766.64,-188.86 840.33,-174.86 894.55,-164.55"/>
<polygon fill="midnightblue" stroke="midnightblue" points="709.46,-196.17 700.29,-201.48 710.77,-203.05 709.46,-196.17"/>
</g>
<!-- Node10 -->
<g id="node10" class="node">
<title>Node10</title>
<g id="a_node10"><a xlink:href="ShaderSystem_8hpp.html" target="_top" xlink:title=" ">
<polygon fill="white" stroke="black" points="1092.5,-134.5 1092.5,-164.5 1228.5,-164.5 1228.5,-134.5 1092.5,-134.5"/>
<text text-anchor="start" x="1100.5" y="-152.5" font-family="Helvetica,sans-Serif" font-size="10.00">sources/System/Shaders</text>
<text text-anchor="middle" x="1160.5" y="-141.5" font-family="Helvetica,sans-Serif" font-size="10.00">/ShaderSystem.hpp</text>
</a>
</g>
</g>
<!-- Node1&#45;&gt;Node10 -->
<g id="edge9" class="edge">
<title>Node1&#45;&gt;Node10</title>
<path fill="none" stroke="midnightblue" d="M714.33,-206.22C802.65,-196.68 942.67,-181.01 1063.5,-165 1072.87,-163.76 1082.73,-162.37 1092.44,-160.97"/>
<polygon fill="midnightblue" stroke="midnightblue" points="713.92,-202.74 704.35,-207.3 714.67,-209.7 713.92,-202.74"/>
</g>
<!-- Node8 -->
<g id="node8" class="node">
<title>Node8</title>
<g id="a_node8"><a xlink:href="Runner_8cpp.html" target="_top" xlink:title=" ">
<polygon fill="white" stroke="black" points="975,-6 975,-25 1124,-25 1124,-6 975,-6"/>
<text text-anchor="middle" x="1049.5" y="-13" font-family="Helvetica,sans-Serif" font-size="10.00">sources/Runner/Runner.cpp</text>
</a>
</g>
</g>
<!-- Node7&#45;&gt;Node8 -->
<g id="edge7" class="edge">
<title>Node7&#45;&gt;Node8</title>
<path fill="none" stroke="midnightblue" d="M911.29,-130.03C896.78,-122.47 882.92,-112.09 874.5,-98 867.43,-86.17 866.22,-78.01 874.5,-67 889.04,-47.67 948.71,-33.41 994.37,-25.06"/>
<polygon fill="midnightblue" stroke="midnightblue" points="909.84,-133.22 920.38,-134.38 912.87,-126.91 909.84,-133.22"/>
</g>
<!-- Node9 -->
<g id="node9" class="node">
<title>Node9</title>
<g id="a_node9"><a xlink:href="ShaderDrawable2DSystem_8cpp.html" target="_top" xlink:title=" ">
<polygon fill="white" stroke="black" points="883.5,-67.5 883.5,-97.5 1053.5,-97.5 1053.5,-67.5 883.5,-67.5"/>
<text text-anchor="start" x="891.5" y="-85.5" font-family="Helvetica,sans-Serif" font-size="10.00">sources/System/Shaders</text>
<text text-anchor="middle" x="968.5" y="-74.5" font-family="Helvetica,sans-Serif" font-size="10.00">/ShaderDrawable2DSystem.cpp</text>
</a>
</g>
</g>
<!-- Node7&#45;&gt;Node9 -->
<g id="edge8" class="edge">
<title>Node7&#45;&gt;Node9</title>
<path fill="none" stroke="midnightblue" d="M968.5,-124.11C968.5,-115.15 968.5,-105.32 968.5,-97.58"/>
<polygon fill="midnightblue" stroke="midnightblue" points="965,-124.4 968.5,-134.4 972,-124.4 965,-124.4"/>
</g>
<!-- Node10&#45;&gt;Node8 -->
<g id="edge10" class="edge">
<title>Node10&#45;&gt;Node8</title>
<path fill="none" stroke="midnightblue" d="M1133.05,-127.85C1122.54,-119.25 1110.85,-108.76 1101.5,-98 1080.58,-73.93 1062.07,-40.69 1053.92,-25.16"/>
<polygon fill="midnightblue" stroke="midnightblue" points="1131.15,-130.81 1141.15,-134.32 1135.51,-125.34 1131.15,-130.81"/>
</g>
<!-- Node11 -->
<g id="node11" class="node">
<title>Node11</title>
<g id="a_node11"><a xlink:href="ShaderModelSystem_8hpp.html" target="_top" xlink:title=" ">
<polygon fill="white" stroke="black" points="1110,-67.5 1110,-97.5 1251,-97.5 1251,-67.5 1110,-67.5"/>
<text text-anchor="start" x="1118" y="-85.5" font-family="Helvetica,sans-Serif" font-size="10.00">sources/System/Shaders</text>
<text text-anchor="middle" x="1180.5" y="-74.5" font-family="Helvetica,sans-Serif" font-size="10.00">/ShaderModelSystem.hpp</text>
</a>
</g>
</g>
<!-- Node10&#45;&gt;Node11 -->
<g id="edge11" class="edge">
<title>Node10&#45;&gt;Node11</title>
<path fill="none" stroke="midnightblue" d="M1167.82,-124.7C1170.63,-115.59 1173.73,-105.49 1176.17,-97.58"/>
<polygon fill="midnightblue" stroke="midnightblue" points="1164.44,-123.81 1164.84,-134.4 1171.13,-125.87 1164.44,-123.81"/>
</g>
<!-- Node13 -->
<g id="node13" class="node">
<title>Node13</title>
<g id="a_node13"><a xlink:href="ShaderSystem_8cpp.html" target="_top" xlink:title=" ">
<polygon fill="white" stroke="black" points="1269.5,-67.5 1269.5,-97.5 1405.5,-97.5 1405.5,-67.5 1269.5,-67.5"/>
<text text-anchor="start" x="1277.5" y="-85.5" font-family="Helvetica,sans-Serif" font-size="10.00">sources/System/Shaders</text>
<text text-anchor="middle" x="1337.5" y="-74.5" font-family="Helvetica,sans-Serif" font-size="10.00">/ShaderSystem.cpp</text>
</a>
</g>
</g>
<!-- Node10&#45;&gt;Node13 -->
<g id="edge14" class="edge">
<title>Node10&#45;&gt;Node13</title>
<path fill="none" stroke="midnightblue" d="M1208.65,-130.82C1237.1,-120.37 1272.63,-107.32 1299.17,-97.58"/>
<polygon fill="midnightblue" stroke="midnightblue" points="1207.09,-127.66 1198.91,-134.4 1209.5,-134.23 1207.09,-127.66"/>
</g>
<!-- Node11&#45;&gt;Node8 -->
<g id="edge12" class="edge">
<title>Node11&#45;&gt;Node8</title>
<path fill="none" stroke="midnightblue" d="M1142.82,-62.8C1117.7,-50.34 1085.89,-34.56 1066.64,-25.01"/>
<polygon fill="midnightblue" stroke="midnightblue" points="1141.56,-66.09 1152.07,-67.4 1144.67,-59.82 1141.56,-66.09"/>
</g>
<!-- Node12 -->
<g id="node12" class="node">
<title>Node12</title>
<g id="a_node12"><a xlink:href="ShaderModelSystem_8cpp.html" target="_top" xlink:title=" ">
<polygon fill="white" stroke="black" points="1142.5,-0.5 1142.5,-30.5 1282.5,-30.5 1282.5,-0.5 1142.5,-0.5"/>
<text text-anchor="start" x="1150.5" y="-18.5" font-family="Helvetica,sans-Serif" font-size="10.00">sources/System/Shaders</text>
<text text-anchor="middle" x="1212.5" y="-7.5" font-family="Helvetica,sans-Serif" font-size="10.00">/ShaderModelSystem.cpp</text>
</a>
</g>
</g>
<!-- Node11&#45;&gt;Node12 -->
<g id="edge13" class="edge">
<title>Node11&#45;&gt;Node12</title>
<path fill="none" stroke="midnightblue" d="M1191.93,-58.28C1196.49,-49.02 1201.59,-38.66 1205.57,-30.58"/>
<polygon fill="midnightblue" stroke="midnightblue" points="1188.72,-56.88 1187.44,-67.4 1195,-59.97 1188.72,-56.88"/>
</g>
</g>
</svg>
