<?xml version="1.0" encoding="UTF-8" standalone="no"?>
<!DOCTYPE svg PUBLIC "-//W3C//DTD SVG 1.1//EN"
 "http://www.w3.org/Graphics/SVG/1.1/DTD/svg11.dtd">
<!-- Generated by graphviz version 2.43.0 (0)
 -->
<!-- Title: lib/Ray/sources/Audio/Sound.hpp Pages: 1 -->
<svg width="824pt" height="207pt"
 viewBox="0.00 0.00 823.50 207.00" xmlns="http://www.w3.org/2000/svg" xmlns:xlink="http://www.w3.org/1999/xlink">
<g id="graph0" class="graph" transform="scale(1 1) rotate(0) translate(4 203)">
<title>lib/Ray/sources/Audio/Sound.hpp</title>
<polygon fill="white" stroke="transparent" points="-4,4 -4,-203 819.5,-203 819.5,4 -4,4"/>
<!-- Node1 -->
<g id="node1" class="node">
<title>Node1</title>
<g id="a_node1"><a xlink:title=" ">
<polygon fill="#bfbfbf" stroke="black" points="336,-168.5 336,-198.5 458,-198.5 458,-168.5 336,-168.5"/>
<text text-anchor="start" x="344" y="-186.5" font-family="Helvetica,sans-Serif" font-size="10.00">lib/Ray/sources/Audio</text>
<text text-anchor="middle" x="397" y="-175.5" font-family="Helvetica,sans-Serif" font-size="10.00">/Sound.hpp</text>
</a>
</g>
</g>
<!-- Node2 -->
<g id="node2" class="node">
<title>Node2</title>
<g id="a_node2"><a xlink:href="IAudio_8hpp.html" target="_top" xlink:title=" ">
<polygon fill="white" stroke="black" points="111.5,-112.5 111.5,-131.5 210.5,-131.5 210.5,-112.5 111.5,-112.5"/>
<text text-anchor="middle" x="161" y="-119.5" font-family="Helvetica,sans-Serif" font-size="10.00">Audio/IAudio.hpp</text>
</a>
</g>
</g>
<!-- Node1&#45;&gt;Node2 -->
<g id="edge1" class="edge">
<title>Node1&#45;&gt;Node2</title>
<path fill="none" stroke="midnightblue" d="M341.37,-168.47C299.59,-157.94 243.17,-143.72 204.62,-134"/>
<polygon fill="midnightblue" stroke="midnightblue" points="205.29,-130.56 194.74,-131.51 203.58,-137.34 205.29,-130.56"/>
</g>
<!-- Node4 -->
<g id="node4" class="node">
<title>Node4</title>
<g id="a_node4"><a xlink:href="Cache_8hpp.html" target="_top" xlink:title=" ">
<polygon fill="white" stroke="black" points="350.5,-112.5 350.5,-131.5 443.5,-131.5 443.5,-112.5 350.5,-112.5"/>
<text text-anchor="middle" x="397" y="-119.5" font-family="Helvetica,sans-Serif" font-size="10.00">Utils/Cache.hpp</text>
</a>
</g>
</g>
<!-- Node1&#45;&gt;Node4 -->
<g id="edge3" class="edge">
<title>Node1&#45;&gt;Node4</title>
<path fill="none" stroke="midnightblue" d="M397,-168.4C397,-160.47 397,-150.46 397,-141.86"/>
<polygon fill="midnightblue" stroke="midnightblue" points="400.5,-141.66 397,-131.66 393.5,-141.66 400.5,-141.66"/>
</g>
<!-- Node9 -->
<g id="node9" class="node">
<title>Node9</title>
<g id="a_node9"><a xlink:title=" ">
<polygon fill="white" stroke="#bfbfbf" points="762.5,-56.5 762.5,-75.5 815.5,-75.5 815.5,-56.5 762.5,-56.5"/>
<text text-anchor="middle" x="789" y="-63.5" font-family="Helvetica,sans-Serif" font-size="10.00">raylib.h</text>
</a>
</g>
</g>
<!-- Node1&#45;&gt;Node9 -->
<g id="edge16" class="edge">
<title>Node1&#45;&gt;Node9</title>
<path fill="none" stroke="midnightblue" d="M444.67,-168.45C524.02,-145.07 681.47,-98.68 752.61,-77.72"/>
<polygon fill="midnightblue" stroke="midnightblue" points="753.85,-81 762.46,-74.82 751.87,-74.29 753.85,-81"/>
</g>
<!-- Node3 -->
<g id="node3" class="node">
<title>Node3</title>
<g id="a_node3"><a xlink:title=" ">
<polygon fill="white" stroke="#bfbfbf" points="0,-0.5 0,-19.5 44,-19.5 44,-0.5 0,-0.5"/>
<text text-anchor="middle" x="22" y="-7.5" font-family="Helvetica,sans-Serif" font-size="10.00">string</text>
</a>
</g>
</g>
<!-- Node2&#45;&gt;Node3 -->
<g id="edge2" class="edge">
<title>Node2&#45;&gt;Node3</title>
<path fill="none" stroke="midnightblue" d="M111.22,-112.95C71.5,-105.39 20.52,-92.74 8,-76 -2.23,-62.33 4.03,-42.77 11.14,-28.68"/>
<polygon fill="midnightblue" stroke="midnightblue" points="14.2,-30.38 16.01,-19.94 8.09,-26.97 14.2,-30.38"/>
</g>
<!-- Node4&#45;&gt;Node3 -->
<g id="edge14" class="edge">
<title>Node4&#45;&gt;Node3</title>
<path fill="none" stroke="midnightblue" d="M350.28,-117.93C259.07,-111.54 64.14,-95.73 41,-76 27.74,-64.69 23.47,-44.69 22.22,-29.85"/>
<polygon fill="midnightblue" stroke="midnightblue" points="25.71,-29.57 21.75,-19.74 18.71,-29.89 25.71,-29.57"/>
</g>
<!-- Node5 -->
<g id="node5" class="node">
<title>Node5</title>
<g id="a_node5"><a xlink:title=" ">
<polygon fill="white" stroke="#bfbfbf" points="50,-56.5 50,-75.5 108,-75.5 108,-56.5 50,-56.5"/>
<text text-anchor="middle" x="79" y="-63.5" font-family="Helvetica,sans-Serif" font-size="10.00">memory</text>
</a>
</g>
</g>
<!-- Node4&#45;&gt;Node5 -->
<g id="edge4" class="edge">
<title>Node4&#45;&gt;Node5</title>
<path fill="none" stroke="midnightblue" d="M350.24,-114.55C296.57,-106.92 205.68,-93.26 118.48,-76.18"/>
<polygon fill="midnightblue" stroke="midnightblue" points="118.9,-72.7 108.41,-74.19 117.54,-79.56 118.9,-72.7"/>
</g>
<!-- Node6 -->
<g id="node6" class="node">
<title>Node6</title>
<g id="a_node6"><a xlink:title=" ">
<polygon fill="white" stroke="#bfbfbf" points="126.5,-56.5 126.5,-75.5 219.5,-75.5 219.5,-56.5 126.5,-56.5"/>
<text text-anchor="middle" x="173" y="-63.5" font-family="Helvetica,sans-Serif" font-size="10.00">unordered_map</text>
</a>
</g>
</g>
<!-- Node4&#45;&gt;Node6 -->
<g id="edge5" class="edge">
<title>Node4&#45;&gt;Node6</title>
<path fill="none" stroke="midnightblue" d="M361.51,-112.44C322.68,-103.08 260.34,-88.06 218.08,-77.87"/>
<polygon fill="midnightblue" stroke="midnightblue" points="218.87,-74.46 208.33,-75.52 217.23,-81.26 218.87,-74.46"/>
</g>
<!-- Node7 -->
<g id="node7" class="node">
<title>Node7</title>
<g id="a_node7"><a xlink:title=" ">
<polygon fill="white" stroke="#bfbfbf" points="237.5,-56.5 237.5,-75.5 302.5,-75.5 302.5,-56.5 237.5,-56.5"/>
<text text-anchor="middle" x="270" y="-63.5" font-family="Helvetica,sans-Serif" font-size="10.00">functional</text>
</a>
</g>
</g>
<!-- Node4&#45;&gt;Node7 -->
<g id="edge6" class="edge">
<title>Node4&#45;&gt;Node7</title>
<path fill="none" stroke="midnightblue" d="M376.88,-112.44C355.98,-103.56 323.07,-89.56 299.28,-79.45"/>
<polygon fill="midnightblue" stroke="midnightblue" points="300.6,-76.21 290.03,-75.52 297.86,-82.65 300.6,-76.21"/>
</g>
<!-- Node8 -->
<g id="node8" class="node">
<title>Node8</title>
<g id="a_node8"><a xlink:title=" ">
<polygon fill="white" stroke="#bfbfbf" points="320.5,-56.5 320.5,-75.5 365.5,-75.5 365.5,-56.5 320.5,-56.5"/>
<text text-anchor="middle" x="343" y="-63.5" font-family="Helvetica,sans-Serif" font-size="10.00">utility</text>
</a>
</g>
</g>
<!-- Node4&#45;&gt;Node8 -->
<g id="edge7" class="edge">
<title>Node4&#45;&gt;Node8</title>
<path fill="none" stroke="midnightblue" d="M388.08,-112.08C380.22,-104.22 368.57,-92.57 359.08,-83.08"/>
<polygon fill="midnightblue" stroke="midnightblue" points="361.3,-80.35 351.75,-75.75 356.35,-85.3 361.3,-80.35"/>
</g>
<!-- Node4&#45;&gt;Node9 -->
<g id="edge8" class="edge">
<title>Node4&#45;&gt;Node9</title>
<path fill="none" stroke="midnightblue" d="M443.64,-116.89C509.99,-110.66 635.57,-97.42 752.17,-75.94"/>
<polygon fill="midnightblue" stroke="midnightblue" points="753.15,-79.32 762.34,-74.04 751.87,-72.44 753.15,-79.32"/>
</g>
<!-- Node10 -->
<g id="node10" class="node">
<title>Node10</title>
<g id="a_node10"><a xlink:href="RayError_8hpp.html" target="_top" xlink:title=" ">
<polygon fill="white" stroke="black" points="383.5,-56.5 383.5,-75.5 518.5,-75.5 518.5,-56.5 383.5,-56.5"/>
<text text-anchor="middle" x="451" y="-63.5" font-family="Helvetica,sans-Serif" font-size="10.00">Exceptions/RayError.hpp</text>
</a>
</g>
</g>
<!-- Node4&#45;&gt;Node10 -->
<g id="edge9" class="edge">
<title>Node4&#45;&gt;Node10</title>
<path fill="none" stroke="midnightblue" d="M405.92,-112.08C413.78,-104.22 425.43,-92.57 434.92,-83.08"/>
<polygon fill="midnightblue" stroke="midnightblue" points="437.65,-85.3 442.25,-75.75 432.7,-80.35 437.65,-85.3"/>
</g>
<!-- Node12 -->
<g id="node12" class="node">
<title>Node12</title>
<g id="a_node12"><a xlink:title=" ">
<polygon fill="white" stroke="#bfbfbf" points="536.5,-56.5 536.5,-75.5 583.5,-75.5 583.5,-56.5 536.5,-56.5"/>
<text text-anchor="middle" x="560" y="-63.5" font-family="Helvetica,sans-Serif" font-size="10.00">vector</text>
</a>
</g>
</g>
<!-- Node4&#45;&gt;Node12 -->
<g id="edge12" class="edge">
<title>Node4&#45;&gt;Node12</title>
<path fill="none" stroke="midnightblue" d="M422.83,-112.44C450.89,-103.15 495.83,-88.26 526.57,-78.07"/>
<polygon fill="midnightblue" stroke="midnightblue" points="528.02,-81.28 536.41,-74.82 525.82,-74.64 528.02,-81.28"/>
</g>
<!-- Node13 -->
<g id="node13" class="node">
<title>Node13</title>
<g id="a_node13"><a xlink:title=" ">
<polygon fill="white" stroke="#bfbfbf" points="602,-56.5 602,-75.5 666,-75.5 666,-56.5 602,-56.5"/>
<text text-anchor="middle" x="634" y="-63.5" font-family="Helvetica,sans-Serif" font-size="10.00">algorithm</text>
</a>
</g>
</g>
<!-- Node4&#45;&gt;Node13 -->
<g id="edge13" class="edge">
<title>Node4&#45;&gt;Node13</title>
<path fill="none" stroke="midnightblue" d="M434.55,-112.44C477.42,-102.68 547.36,-86.74 592,-76.57"/>
<polygon fill="midnightblue" stroke="midnightblue" points="592.97,-79.94 601.94,-74.3 591.42,-73.11 592.97,-79.94"/>
</g>
<!-- Node14 -->
<g id="node14" class="node">
<title>Node14</title>
<g id="a_node14"><a xlink:title=" ">
<polygon fill="white" stroke="#bfbfbf" points="684,-56.5 684,-75.5 744,-75.5 744,-56.5 684,-56.5"/>
<text text-anchor="middle" x="714" y="-63.5" font-family="Helvetica,sans-Serif" font-size="10.00">iostream</text>
</a>
</g>
</g>
<!-- Node4&#45;&gt;Node14 -->
<g id="edge15" class="edge">
<title>Node4&#45;&gt;Node14</title>
<path fill="none" stroke="midnightblue" d="M443.9,-114.38C497.24,-106.63 587.17,-92.92 673.81,-76.13"/>
<polygon fill="midnightblue" stroke="midnightblue" points="674.67,-79.53 683.81,-74.18 673.32,-72.66 674.67,-79.53"/>
</g>
<!-- Node10&#45;&gt;Node3 -->
<g id="edge11" class="edge">
<title>Node10&#45;&gt;Node3</title>
<path fill="none" stroke="midnightblue" d="M383.5,-56.5C289.68,-44.69 123.58,-23.79 54.03,-15.03"/>
<polygon fill="midnightblue" stroke="midnightblue" points="54.47,-11.56 44.11,-13.78 53.59,-18.5 54.47,-11.56"/>
</g>
<!-- Node11 -->
<g id="node11" class="node">
<title>Node11</title>
<g id="a_node11"><a xlink:title=" ">
<polygon fill="white" stroke="#bfbfbf" points="418.5,-0.5 418.5,-19.5 483.5,-19.5 483.5,-0.5 418.5,-0.5"/>
<text text-anchor="middle" x="451" y="-7.5" font-family="Helvetica,sans-Serif" font-size="10.00">stdexcept</text>
</a>
</g>
</g>
<!-- Node10&#45;&gt;Node11 -->
<g id="edge10" class="edge">
<title>Node10&#45;&gt;Node11</title>
<path fill="none" stroke="midnightblue" d="M451,-56.08C451,-49.01 451,-38.86 451,-29.99"/>
<polygon fill="midnightblue" stroke="midnightblue" points="454.5,-29.75 451,-19.75 447.5,-29.75 454.5,-29.75"/>
</g>
</g>
</svg>
