<?xml version="1.0" encoding="UTF-8" standalone="no"?>
<!DOCTYPE svg PUBLIC "-//W3C//DTD SVG 1.1//EN"
 "http://www.w3.org/Graphics/SVG/1.1/DTD/svg11.dtd">
<!-- Generated by graphviz version 2.43.0 (0)
 -->
<!-- Title: sources/Component/Sound/SoundComponent.hpp Pages: 1 -->
<svg width="3703pt" height="173pt"
 viewBox="0.00 0.00 3703.00 173.00" xmlns="http://www.w3.org/2000/svg" xmlns:xlink="http://www.w3.org/1999/xlink">
<g id="graph0" class="graph" transform="scale(1 1) rotate(0) translate(4 169)">
<title>sources/Component/Sound/SoundComponent.hpp</title>
<polygon fill="white" stroke="transparent" points="-4,4 -4,-169 3699,-169 3699,4 -4,4"/>
<!-- Node1 -->
<g id="node1" class="node">
<title>Node1</title>
<g id="a_node1"><a xlink:title=" ">
<polygon fill="#bfbfbf" stroke="black" points="1183,-134.5 1183,-164.5 1329,-164.5 1329,-134.5 1183,-134.5"/>
<text text-anchor="start" x="1191" y="-152.5" font-family="Helvetica,sans-Serif" font-size="10.00">sources/Component/Sound</text>
<text text-anchor="middle" x="1256" y="-141.5" font-family="Helvetica,sans-Serif" font-size="10.00">/SoundComponent.hpp</text>
</a>
</g>
</g>
<!-- Node2 -->
<g id="node2" class="node">
<title>Node2</title>
<g id="a_node2"><a xlink:href="SoundComponent_8cpp.html" target="_top" xlink:title=" ">
<polygon fill="white" stroke="black" points="892,-67.5 892,-97.5 1038,-97.5 1038,-67.5 892,-67.5"/>
<text text-anchor="start" x="900" y="-85.5" font-family="Helvetica,sans-Serif" font-size="10.00">sources/Component/Sound</text>
<text text-anchor="middle" x="965" y="-74.5" font-family="Helvetica,sans-Serif" font-size="10.00">/SoundComponent.cpp</text>
</a>
</g>
</g>
<!-- Node1&#45;&gt;Node2 -->
<g id="edge1" class="edge">
<title>Node1&#45;&gt;Node2</title>
<path fill="none" stroke="midnightblue" d="M1183.24,-132.25C1135.46,-121.58 1073.58,-107.75 1027.92,-97.55"/>
<polygon fill="midnightblue" stroke="midnightblue" points="1182.69,-135.71 1193.22,-134.48 1184.22,-128.88 1182.69,-135.71"/>
</g>
<!-- Node3 -->
<g id="node3" class="node">
<title>Node3</title>
<g id="a_node3"><a xlink:href="Runner_8hpp.html" target="_top" xlink:title=" ">
<polygon fill="white" stroke="black" points="1521.5,-73 1521.5,-92 1670.5,-92 1670.5,-73 1521.5,-73"/>
<text text-anchor="middle" x="1596" y="-80" font-family="Helvetica,sans-Serif" font-size="10.00">sources/Runner/Runner.hpp</text>
</a>
</g>
</g>
<!-- Node1&#45;&gt;Node3 -->
<g id="edge2" class="edge">
<title>Node1&#45;&gt;Node3</title>
<path fill="none" stroke="midnightblue" d="M1339.46,-132.54C1406.37,-119.75 1497.68,-102.3 1551.39,-92.03"/>
<polygon fill="midnightblue" stroke="midnightblue" points="1338.52,-129.16 1329.36,-134.48 1339.84,-136.04 1338.52,-129.16"/>
</g>
<!-- Node5 -->
<g id="node5" class="node">
<title>Node5</title>
<g id="a_node5"><a xlink:href="ParserYaml_8cpp.html" target="_top" xlink:title=" ">
<polygon fill="white" stroke="black" points="0,-6 0,-25 164,-25 164,-6 0,-6"/>
<text text-anchor="middle" x="82" y="-13" font-family="Helvetica,sans-Serif" font-size="10.00">sources/Parser/ParserYaml.cpp</text>
</a>
</g>
</g>
<!-- Node1&#45;&gt;Node5 -->
<g id="edge22" class="edge">
<title>Node1&#45;&gt;Node5</title>
<path fill="none" stroke="midnightblue" d="M1172.93,-133.25C1142.43,-125.48 1108.43,-114.16 1080,-98 1062.5,-88.06 1065.55,-74.79 1047,-67 957.39,-29.36 269.71,-40.66 173,-31 158.51,-29.55 142.83,-27.3 128.63,-25"/>
<polygon fill="midnightblue" stroke="midnightblue" points="1172.16,-136.67 1182.7,-135.65 1173.82,-129.87 1172.16,-136.67"/>
</g>
<!-- Node6 -->
<g id="node6" class="node">
<title>Node6</title>
<g id="a_node6"><a xlink:href="CreditScene_8cpp.html" target="_top" xlink:title=" ">
<polygon fill="white" stroke="black" points="182.5,-6 182.5,-25 355.5,-25 355.5,-6 182.5,-6"/>
<text text-anchor="middle" x="269" y="-13" font-family="Helvetica,sans-Serif" font-size="10.00">sources/Runner/CreditScene.cpp</text>
</a>
</g>
</g>
<!-- Node1&#45;&gt;Node6 -->
<g id="edge23" class="edge">
<title>Node1&#45;&gt;Node6</title>
<path fill="none" stroke="midnightblue" d="M1195.67,-131.28C1170.79,-122.96 1142.17,-111.76 1118,-98 1099.06,-87.22 1100.34,-74.83 1080,-67 931.31,-9.8 522.5,-47.04 364,-31 349.23,-29.51 333.24,-27.3 318.68,-25.05"/>
<polygon fill="midnightblue" stroke="midnightblue" points="1194.78,-134.67 1205.37,-134.45 1196.95,-128.02 1194.78,-134.67"/>
</g>
<!-- Node7 -->
<g id="node7" class="node">
<title>Node7</title>
<g id="a_node7"><a xlink:href="GameScene_8cpp.html" target="_top" xlink:title=" ">
<polygon fill="white" stroke="black" points="373.5,-6 373.5,-25 546.5,-25 546.5,-6 373.5,-6"/>
<text text-anchor="middle" x="460" y="-13" font-family="Helvetica,sans-Serif" font-size="10.00">sources/Runner/GameScene.cpp</text>
</a>
</g>
</g>
<!-- Node1&#45;&gt;Node7 -->
<g id="edge24" class="edge">
<title>Node1&#45;&gt;Node7</title>
<path fill="none" stroke="midnightblue" d="M1214.88,-130.22C1196.37,-121.37 1174.56,-110.05 1156,-98 1137.72,-86.13 1138.29,-74.97 1118,-67 1001.51,-21.26 680.43,-44.36 556,-31 541.42,-29.43 525.66,-27.26 511.21,-25.07"/>
<polygon fill="midnightblue" stroke="midnightblue" points="1213.41,-133.39 1223.95,-134.49 1216.39,-127.06 1213.41,-133.39"/>
</g>
<!-- Node8 -->
<g id="node8" class="node">
<title>Node8</title>
<g id="a_node8"><a xlink:href="HowToPlayScene_8cpp.html" target="_top" xlink:title=" ">
<polygon fill="white" stroke="black" points="565,-0.5 565,-30.5 713,-30.5 713,-0.5 565,-0.5"/>
<text text-anchor="start" x="573" y="-18.5" font-family="Helvetica,sans-Serif" font-size="10.00">sources/Runner/HowToPlay</text>
<text text-anchor="middle" x="639" y="-7.5" font-family="Helvetica,sans-Serif" font-size="10.00">Scene.cpp</text>
</a>
</g>
</g>
<!-- Node1&#45;&gt;Node8 -->
<g id="edge25" class="edge">
<title>Node1&#45;&gt;Node8</title>
<path fill="none" stroke="midnightblue" d="M1230.85,-128.03C1219.58,-118.85 1206.12,-107.88 1194,-98 1177.11,-84.23 1176.21,-75.16 1156,-67 1066.26,-30.79 817.99,-43.34 722,-31 719.1,-30.63 716.14,-30.22 713.16,-29.8"/>
<polygon fill="midnightblue" stroke="midnightblue" points="1228.66,-130.75 1238.63,-134.35 1233.08,-125.33 1228.66,-130.75"/>
</g>
<!-- Node10 -->
<g id="node10" class="node">
<title>Node10</title>
<g id="a_node10"><a xlink:href="MainMenuScene_8cpp.html" target="_top" xlink:title=" ">
<polygon fill="white" stroke="black" points="731.5,-6 731.5,-25 926.5,-25 926.5,-6 731.5,-6"/>
<text text-anchor="middle" x="829" y="-13" font-family="Helvetica,sans-Serif" font-size="10.00">sources/Runner/MainMenuScene.cpp</text>
</a>
</g>
</g>
<!-- Node1&#45;&gt;Node10 -->
<g id="edge26" class="edge">
<title>Node1&#45;&gt;Node10</title>
<path fill="none" stroke="midnightblue" d="M1244.87,-125.29C1234.48,-106.32 1217.11,-80.51 1194,-67 1193.19,-66.52 995.15,-39.3 891.16,-25.03"/>
<polygon fill="midnightblue" stroke="midnightblue" points="1241.81,-126.98 1249.53,-134.22 1248.01,-123.74 1241.81,-126.98"/>
</g>
<!-- Node11 -->
<g id="node11" class="node">
<title>Node11</title>
<g id="a_node11"><a xlink:href="PauseMenuScene_8cpp.html" target="_top" xlink:title=" ">
<polygon fill="white" stroke="black" points="944,-0.5 944,-30.5 1094,-30.5 1094,-0.5 944,-0.5"/>
<text text-anchor="start" x="952" y="-18.5" font-family="Helvetica,sans-Serif" font-size="10.00">sources/Runner/PauseMenu</text>
<text text-anchor="middle" x="1019" y="-7.5" font-family="Helvetica,sans-Serif" font-size="10.00">Scene.cpp</text>
</a>
</g>
</g>
<!-- Node1&#45;&gt;Node11 -->
<g id="edge27" class="edge">
<title>Node1&#45;&gt;Node11</title>
<path fill="none" stroke="midnightblue" d="M1255.12,-124.03C1253.14,-105.83 1247.5,-81.69 1232,-67 1221.73,-57.26 1151.25,-41.75 1094.14,-30.49"/>
<polygon fill="midnightblue" stroke="midnightblue" points="1251.65,-124.51 1255.92,-134.21 1258.63,-123.96 1251.65,-124.51"/>
</g>
<!-- Node14 -->
<g id="node14" class="node">
<title>Node14</title>
<g id="a_node14"><a xlink:href="ScoreScene_8cpp.html" target="_top" xlink:title=" ">
<polygon fill="white" stroke="black" points="2619.5,-6 2619.5,-25 2790.5,-25 2790.5,-6 2619.5,-6"/>
<text text-anchor="middle" x="2705" y="-13" font-family="Helvetica,sans-Serif" font-size="10.00">sources/Runner/ScoreScene.cpp</text>
</a>
</g>
</g>
<!-- Node1&#45;&gt;Node14 -->
<g id="edge28" class="edge">
<title>Node1&#45;&gt;Node14</title>
<path fill="none" stroke="midnightblue" d="M1339.33,-143.16C1551.68,-129.14 2130.25,-88.37 2610,-31 2624.08,-29.32 2639.28,-27.15 2653.31,-25.01"/>
<polygon fill="midnightblue" stroke="midnightblue" points="1338.94,-139.68 1329.19,-143.83 1339.4,-146.66 1338.94,-139.68"/>
</g>
<!-- Node15 -->
<g id="node15" class="node">
<title>Node15</title>
<g id="a_node15"><a xlink:href="SettingsMenuScene_8cpp.html" target="_top" xlink:title=" ">
<polygon fill="white" stroke="black" points="2808.5,-0.5 2808.5,-30.5 2969.5,-30.5 2969.5,-0.5 2808.5,-0.5"/>
<text text-anchor="start" x="2816.5" y="-18.5" font-family="Helvetica,sans-Serif" font-size="10.00">sources/Runner/SettingsMenu</text>
<text text-anchor="middle" x="2889" y="-7.5" font-family="Helvetica,sans-Serif" font-size="10.00">Scene.cpp</text>
</a>
</g>
</g>
<!-- Node1&#45;&gt;Node15 -->
<g id="edge29" class="edge">
<title>Node1&#45;&gt;Node15</title>
<path fill="none" stroke="midnightblue" d="M1339.08,-145.35C1571,-135.88 2244.82,-103.71 2800,-31 2802.64,-30.65 2805.32,-30.29 2808.03,-29.91"/>
<polygon fill="midnightblue" stroke="midnightblue" points="1338.88,-141.86 1329.03,-145.76 1339.16,-148.85 1338.88,-141.86"/>
</g>
<!-- Node17 -->
<g id="node17" class="node">
<title>Node17</title>
<g id="a_node17"><a xlink:href="TitleScreenScene_8cpp.html" target="_top" xlink:title=" ">
<polygon fill="white" stroke="black" points="2987.5,-0.5 2987.5,-30.5 3136.5,-30.5 3136.5,-0.5 2987.5,-0.5"/>
<text text-anchor="start" x="2995.5" y="-18.5" font-family="Helvetica,sans-Serif" font-size="10.00">sources/Runner/TitleScreen</text>
<text text-anchor="middle" x="3062" y="-7.5" font-family="Helvetica,sans-Serif" font-size="10.00">Scene.cpp</text>
</a>
</g>
</g>
<!-- Node1&#45;&gt;Node17 -->
<g id="edge30" class="edge">
<title>Node1&#45;&gt;Node17</title>
<path fill="none" stroke="midnightblue" d="M1339.49,-146.15C1520.14,-140.73 1960.73,-125.63 2329,-98 2618.61,-76.28 2691.33,-70.9 2979,-31 2981.75,-30.62 2984.55,-30.21 2987.38,-29.79"/>
<polygon fill="midnightblue" stroke="midnightblue" points="1339.16,-142.66 1329.27,-146.46 1339.37,-149.66 1339.16,-142.66"/>
</g>
<!-- Node23 -->
<g id="node23" class="node">
<title>Node23</title>
<g id="a_node23"><a xlink:href="MenuSoundManagerSystem_8hpp.html" target="_top" xlink:title=" ">
<polygon fill="white" stroke="black" points="3144.5,-67.5 3144.5,-97.5 3321.5,-97.5 3321.5,-67.5 3144.5,-67.5"/>
<text text-anchor="start" x="3152.5" y="-85.5" font-family="Helvetica,sans-Serif" font-size="10.00">sources/System/Sound</text>
<text text-anchor="middle" x="3233" y="-74.5" font-family="Helvetica,sans-Serif" font-size="10.00">/MenuSoundManagerSystem.hpp</text>
</a>
</g>
</g>
<!-- Node1&#45;&gt;Node23 -->
<g id="edge31" class="edge">
<title>Node1&#45;&gt;Node23</title>
<path fill="none" stroke="midnightblue" d="M1339.38,-145.96C1574.53,-138.78 2263.07,-117.56 2835,-98 2941.42,-94.36 3063.83,-89.85 3144.48,-86.84"/>
<polygon fill="midnightblue" stroke="midnightblue" points="1339.08,-142.47 1329.2,-146.27 1339.3,-149.47 1339.08,-142.47"/>
</g>
<!-- Node25 -->
<g id="node25" class="node">
<title>Node25</title>
<g id="a_node25"><a xlink:href="PlayerSoundManagerSystem_8hpp.html" target="_top" xlink:title=" ">
<polygon fill="white" stroke="black" points="3339.5,-67.5 3339.5,-97.5 3520.5,-97.5 3520.5,-67.5 3339.5,-67.5"/>
<text text-anchor="start" x="3347.5" y="-85.5" font-family="Helvetica,sans-Serif" font-size="10.00">sources/System/Sound</text>
<text text-anchor="middle" x="3430" y="-74.5" font-family="Helvetica,sans-Serif" font-size="10.00">/PlayerSoundManagerSystem.hpp</text>
</a>
</g>
</g>
<!-- Node1&#45;&gt;Node25 -->
<g id="edge34" class="edge">
<title>Node1&#45;&gt;Node25</title>
<path fill="none" stroke="midnightblue" d="M1339.4,-147.82C1675.85,-144.87 2934.21,-131.76 3331,-98 3333.77,-97.76 3336.58,-97.5 3339.41,-97.22"/>
<polygon fill="midnightblue" stroke="midnightblue" points="1339.21,-144.32 1329.24,-147.91 1339.27,-151.32 1339.21,-144.32"/>
</g>
<!-- Node4 -->
<g id="node4" class="node">
<title>Node4</title>
<g id="a_node4"><a xlink:href="main_8cpp.html" target="_top" xlink:title=" ">
<polygon fill="white" stroke="black" points="1112,-6 1112,-25 1214,-25 1214,-6 1112,-6"/>
<text text-anchor="middle" x="1163" y="-13" font-family="Helvetica,sans-Serif" font-size="10.00">sources/main.cpp</text>
</a>
</g>
</g>
<!-- Node3&#45;&gt;Node4 -->
<g id="edge3" class="edge">
<title>Node3&#45;&gt;Node4</title>
<path fill="none" stroke="midnightblue" d="M1511.35,-72.55C1435.49,-63.93 1321.34,-49.49 1223,-31 1214.05,-29.32 1204.43,-27.15 1195.57,-25.01"/>
<polygon fill="midnightblue" stroke="midnightblue" points="1511,-76.03 1521.33,-73.67 1511.79,-69.07 1511,-76.03"/>
</g>
<!-- Node3&#45;&gt;Node5 -->
<g id="edge4" class="edge">
<title>Node3&#45;&gt;Node5</title>
<path fill="none" stroke="midnightblue" d="M1510.72,-79.08C1224.04,-70.88 305.61,-43.87 173,-31 158.51,-29.59 142.82,-27.36 128.62,-25.05"/>
<polygon fill="midnightblue" stroke="midnightblue" points="1510.96,-82.59 1521.06,-79.38 1511.16,-75.59 1510.96,-82.59"/>
</g>
<!-- Node3&#45;&gt;Node6 -->
<g id="edge5" class="edge">
<title>Node3&#45;&gt;Node6</title>
<path fill="none" stroke="midnightblue" d="M1511.31,-78.57C1251.61,-69.52 477.22,-41.93 364,-31 349.05,-29.56 332.87,-27.34 318.18,-25.06"/>
<polygon fill="midnightblue" stroke="midnightblue" points="1511.32,-82.07 1521.44,-78.92 1511.57,-75.08 1511.32,-82.07"/>
</g>
<!-- Node3&#45;&gt;Node7 -->
<g id="edge6" class="edge">
<title>Node3&#45;&gt;Node7</title>
<path fill="none" stroke="midnightblue" d="M1511.01,-78.49C1297.12,-70.72 740.5,-49.37 556,-31 541.07,-29.51 524.92,-27.31 510.2,-25.06"/>
<polygon fill="midnightblue" stroke="midnightblue" points="1511.12,-81.99 1521.24,-78.86 1511.37,-75 1511.12,-81.99"/>
</g>
<!-- Node3&#45;&gt;Node8 -->
<g id="edge7" class="edge">
<title>Node3&#45;&gt;Node8</title>
<path fill="none" stroke="midnightblue" d="M1511.05,-77.84C1322.36,-69.52 873.12,-48.51 722,-31 719.09,-30.66 716.14,-30.29 713.15,-29.89"/>
<polygon fill="midnightblue" stroke="midnightblue" points="1511.05,-81.35 1521.19,-78.29 1511.36,-74.35 1511.05,-81.35"/>
</g>
<!-- Node9 -->
<g id="node9" class="node">
<title>Node9</title>
<g id="a_node9"><a xlink:href="LobbyScene_8cpp.html" target="_top" xlink:title=" ">
<polygon fill="white" stroke="black" points="1232.5,-6 1232.5,-25 1405.5,-25 1405.5,-6 1232.5,-6"/>
<text text-anchor="middle" x="1319" y="-13" font-family="Helvetica,sans-Serif" font-size="10.00">sources/Runner/LobbyScene.cpp</text>
</a>
</g>
</g>
<!-- Node3&#45;&gt;Node9 -->
<g id="edge8" class="edge">
<title>Node3&#45;&gt;Node9</title>
<path fill="none" stroke="midnightblue" d="M1549.74,-70.64C1495.16,-57.84 1405.55,-36.81 1355.58,-25.08"/>
<polygon fill="midnightblue" stroke="midnightblue" points="1548.97,-74.06 1559.5,-72.94 1550.57,-67.24 1548.97,-74.06"/>
</g>
<!-- Node3&#45;&gt;Node10 -->
<g id="edge9" class="edge">
<title>Node3&#45;&gt;Node10</title>
<path fill="none" stroke="midnightblue" d="M1510.67,-76.61C1384.6,-69.03 1141.21,-52.96 935,-31 919.3,-29.33 902.34,-27.17 886.69,-25.03"/>
<polygon fill="midnightblue" stroke="midnightblue" points="1510.83,-80.13 1521.03,-77.23 1511.25,-73.14 1510.83,-80.13"/>
</g>
<!-- Node3&#45;&gt;Node11 -->
<g id="edge10" class="edge">
<title>Node3&#45;&gt;Node11</title>
<path fill="none" stroke="midnightblue" d="M1511.29,-74.61C1412.91,-66.19 1245.83,-50.62 1103,-31 1100.07,-30.6 1097.08,-30.17 1094.07,-29.72"/>
<polygon fill="midnightblue" stroke="midnightblue" points="1511.21,-78.11 1521.48,-75.48 1511.81,-71.14 1511.21,-78.11"/>
</g>
<!-- Node12 -->
<g id="node12" class="node">
<title>Node12</title>
<g id="a_node12"><a xlink:href="ResumeLobbyScene_8cpp.html" target="_top" xlink:title=" ">
<polygon fill="white" stroke="black" points="1424,-0.5 1424,-30.5 1588,-30.5 1588,-0.5 1424,-0.5"/>
<text text-anchor="start" x="1432" y="-18.5" font-family="Helvetica,sans-Serif" font-size="10.00">sources/Runner/ResumeLobby</text>
<text text-anchor="middle" x="1506" y="-7.5" font-family="Helvetica,sans-Serif" font-size="10.00">Scene.cpp</text>
</a>
</g>
</g>
<!-- Node3&#45;&gt;Node12 -->
<g id="edge11" class="edge">
<title>Node3&#45;&gt;Node12</title>
<path fill="none" stroke="midnightblue" d="M1575.71,-66.85C1560.69,-56 1540.34,-41.3 1525.51,-30.59"/>
<polygon fill="midnightblue" stroke="midnightblue" points="1573.71,-69.72 1583.86,-72.73 1577.8,-64.04 1573.71,-69.72"/>
</g>
<!-- Node13 -->
<g id="node13" class="node">
<title>Node13</title>
<g id="a_node13"><a xlink:href="Runner_8cpp.html" target="_top" xlink:title=" ">
<polygon fill="white" stroke="black" points="3347.5,-6 3347.5,-25 3496.5,-25 3496.5,-6 3347.5,-6"/>
<text text-anchor="middle" x="3422" y="-13" font-family="Helvetica,sans-Serif" font-size="10.00">sources/Runner/Runner.cpp</text>
</a>
</g>
</g>
<!-- Node3&#45;&gt;Node13 -->
<g id="edge12" class="edge">
<title>Node3&#45;&gt;Node13</title>
<path fill="none" stroke="midnightblue" d="M1680.58,-80.66C1983.21,-77.42 3011.6,-64.17 3339,-31 3352.39,-29.64 3366.87,-27.39 3379.94,-25.06"/>
<polygon fill="midnightblue" stroke="midnightblue" points="1680.51,-77.16 1670.55,-80.77 1680.59,-84.16 1680.51,-77.16"/>
</g>
<!-- Node3&#45;&gt;Node14 -->
<g id="edge13" class="edge">
<title>Node3&#45;&gt;Node14</title>
<path fill="none" stroke="midnightblue" d="M1680.75,-80.19C1855.13,-76.85 2266.54,-65.67 2610,-31 2624.77,-29.51 2640.76,-27.3 2655.32,-25.06"/>
<polygon fill="midnightblue" stroke="midnightblue" points="1680.55,-76.69 1670.62,-80.38 1680.68,-83.69 1680.55,-76.69"/>
</g>
<!-- Node3&#45;&gt;Node15 -->
<g id="edge14" class="edge">
<title>Node3&#45;&gt;Node15</title>
<path fill="none" stroke="midnightblue" d="M1680.83,-81.42C1877.87,-80.48 2381.6,-73.7 2800,-31 2802.65,-30.73 2805.34,-30.43 2808.05,-30.11"/>
<polygon fill="midnightblue" stroke="midnightblue" points="1680.54,-77.92 1670.55,-81.47 1680.57,-84.92 1680.54,-77.92"/>
</g>
<!-- Node16 -->
<g id="node16" class="node">
<title>Node16</title>
<g id="a_node16"><a xlink:href="SplashScreenScene_8cpp.html" target="_top" xlink:title=" ">
<polygon fill="white" stroke="black" points="1606,-0.5 1606,-30.5 1766,-30.5 1766,-0.5 1606,-0.5"/>
<text text-anchor="start" x="1614" y="-18.5" font-family="Helvetica,sans-Serif" font-size="10.00">sources/Runner/SplashScreen</text>
<text text-anchor="middle" x="1686" y="-7.5" font-family="Helvetica,sans-Serif" font-size="10.00">Scene.cpp</text>
</a>
</g>
</g>
<!-- Node3&#45;&gt;Node16 -->
<g id="edge15" class="edge">
<title>Node3&#45;&gt;Node16</title>
<path fill="none" stroke="midnightblue" d="M1616.29,-66.85C1631.31,-56 1651.66,-41.3 1666.49,-30.59"/>
<polygon fill="midnightblue" stroke="midnightblue" points="1614.2,-64.04 1608.14,-72.73 1618.29,-69.72 1614.2,-64.04"/>
</g>
<!-- Node3&#45;&gt;Node17 -->
<g id="edge16" class="edge">
<title>Node3&#45;&gt;Node17</title>
<path fill="none" stroke="midnightblue" d="M1681.01,-79.92C1941.35,-74.83 2725.37,-57.66 2979,-31 2981.76,-30.71 2984.58,-30.38 2987.41,-30.03"/>
<polygon fill="midnightblue" stroke="midnightblue" points="1680.79,-76.42 1670.86,-80.11 1680.92,-83.42 1680.79,-76.42"/>
</g>
<!-- Node18 -->
<g id="node18" class="node">
<title>Node18</title>
<g id="a_node18"><a xlink:href="EndConditionSystem_8cpp.html" target="_top" xlink:title=" ">
<polygon fill="white" stroke="black" points="1784.5,-0.5 1784.5,-30.5 1945.5,-30.5 1945.5,-0.5 1784.5,-0.5"/>
<text text-anchor="start" x="1792.5" y="-18.5" font-family="Helvetica,sans-Serif" font-size="10.00">sources/System/EndCondition</text>
<text text-anchor="middle" x="1865" y="-7.5" font-family="Helvetica,sans-Serif" font-size="10.00">/EndConditionSystem.cpp</text>
</a>
</g>
</g>
<!-- Node3&#45;&gt;Node18 -->
<g id="edge17" class="edge">
<title>Node3&#45;&gt;Node18</title>
<path fill="none" stroke="midnightblue" d="M1641.33,-70.55C1686.86,-59.55 1757.19,-42.55 1806.82,-30.56"/>
<polygon fill="midnightblue" stroke="midnightblue" points="1640.34,-67.18 1631.44,-72.94 1641.99,-73.99 1640.34,-67.18"/>
</g>
<!-- Node19 -->
<g id="node19" class="node">
<title>Node19</title>
<g id="a_node19"><a xlink:href="IntroAnimationSystem_8cpp.html" target="_top" xlink:title=" ">
<polygon fill="white" stroke="black" points="1964,-0.5 1964,-30.5 2134,-30.5 2134,-0.5 1964,-0.5"/>
<text text-anchor="start" x="1972" y="-18.5" font-family="Helvetica,sans-Serif" font-size="10.00">sources/System/IntroAnimation</text>
<text text-anchor="middle" x="2049" y="-7.5" font-family="Helvetica,sans-Serif" font-size="10.00">/IntroAnimationSystem.cpp</text>
</a>
</g>
</g>
<!-- Node3&#45;&gt;Node19 -->
<g id="edge18" class="edge">
<title>Node3&#45;&gt;Node19</title>
<path fill="none" stroke="midnightblue" d="M1667.71,-71.63C1740.01,-61.62 1854.8,-45.57 1954,-31 1957.22,-30.53 1960.5,-30.04 1963.81,-29.55"/>
<polygon fill="midnightblue" stroke="midnightblue" points="1667.22,-68.16 1657.8,-73 1668.18,-75.1 1667.22,-68.16"/>
</g>
<!-- Node20 -->
<g id="node20" class="node">
<title>Node20</title>
<g id="a_node20"><a xlink:href="LobbySystem_8cpp.html" target="_top" xlink:title=" ">
<polygon fill="white" stroke="black" points="2152,-0.5 2152,-30.5 2278,-30.5 2278,-0.5 2152,-0.5"/>
<text text-anchor="start" x="2160" y="-18.5" font-family="Helvetica,sans-Serif" font-size="10.00">sources/System/Lobby</text>
<text text-anchor="middle" x="2215" y="-7.5" font-family="Helvetica,sans-Serif" font-size="10.00">/LobbySystem.cpp</text>
</a>
</g>
</g>
<!-- Node3&#45;&gt;Node20 -->
<g id="edge19" class="edge">
<title>Node3&#45;&gt;Node20</title>
<path fill="none" stroke="midnightblue" d="M1680.79,-76.49C1788.59,-69.47 1980.28,-54.83 2143,-31 2145.9,-30.58 2148.86,-30.11 2151.85,-29.61"/>
<polygon fill="midnightblue" stroke="midnightblue" points="1680.37,-73.01 1670.62,-77.14 1680.82,-79.99 1680.37,-73.01"/>
</g>
<!-- Node21 -->
<g id="node21" class="node">
<title>Node21</title>
<g id="a_node21"><a xlink:href="ResumeLobbySystem_8cpp.html" target="_top" xlink:title=" ">
<polygon fill="white" stroke="black" points="2296,-0.5 2296,-30.5 2442,-30.5 2442,-0.5 2296,-0.5"/>
<text text-anchor="start" x="2304" y="-18.5" font-family="Helvetica,sans-Serif" font-size="10.00">sources/System/Lobby</text>
<text text-anchor="middle" x="2369" y="-7.5" font-family="Helvetica,sans-Serif" font-size="10.00">/ResumeLobbySystem.cpp</text>
</a>
</g>
</g>
<!-- Node3&#45;&gt;Node21 -->
<g id="edge20" class="edge">
<title>Node3&#45;&gt;Node21</title>
<path fill="none" stroke="midnightblue" d="M1680.97,-78.09C1811.61,-72.21 2069.53,-58.1 2287,-31 2289.87,-30.64 2292.79,-30.25 2295.74,-29.84"/>
<polygon fill="midnightblue" stroke="midnightblue" points="1680.47,-74.6 1670.64,-78.55 1680.78,-81.6 1680.47,-74.6"/>
</g>
<!-- Node22 -->
<g id="node22" class="node">
<title>Node22</title>
<g id="a_node22"><a xlink:href="CameraSystem_8cpp.html" target="_top" xlink:title=" ">
<polygon fill="white" stroke="black" points="2460.5,-0.5 2460.5,-30.5 2601.5,-30.5 2601.5,-0.5 2460.5,-0.5"/>
<text text-anchor="start" x="2468.5" y="-18.5" font-family="Helvetica,sans-Serif" font-size="10.00">sources/System/Renderer</text>
<text text-anchor="middle" x="2531" y="-7.5" font-family="Helvetica,sans-Serif" font-size="10.00">/CameraSystem.cpp</text>
</a>
</g>
</g>
<!-- Node3&#45;&gt;Node22 -->
<g id="edge21" class="edge">
<title>Node3&#45;&gt;Node22</title>
<path fill="none" stroke="midnightblue" d="M1680.93,-79.87C1834.92,-76.15 2170.29,-64.61 2451,-31 2454.08,-30.63 2457.23,-30.22 2460.4,-29.77"/>
<polygon fill="midnightblue" stroke="midnightblue" points="1680.52,-76.37 1670.61,-80.11 1680.69,-83.37 1680.52,-76.37"/>
</g>
<!-- Node23&#45;&gt;Node13 -->
<g id="edge32" class="edge">
<title>Node23&#45;&gt;Node13</title>
<path fill="none" stroke="midnightblue" d="M3283.57,-64.11C3320.34,-51.46 3368.52,-34.89 3397.26,-25.01"/>
<polygon fill="midnightblue" stroke="midnightblue" points="3282.33,-60.83 3274.01,-67.4 3284.6,-67.45 3282.33,-60.83"/>
</g>
<!-- Node24 -->
<g id="node24" class="node">
<title>Node24</title>
<g id="a_node24"><a xlink:href="MenuSoundManagerSystem_8cpp.html" target="_top" xlink:title=" ">
<polygon fill="white" stroke="black" points="3154,-0.5 3154,-30.5 3330,-30.5 3330,-0.5 3154,-0.5"/>
<text text-anchor="start" x="3162" y="-18.5" font-family="Helvetica,sans-Serif" font-size="10.00">sources/System/Sound</text>
<text text-anchor="middle" x="3242" y="-7.5" font-family="Helvetica,sans-Serif" font-size="10.00">/MenuSoundManagerSystem.cpp</text>
</a>
</g>
</g>
<!-- Node23&#45;&gt;Node24 -->
<g id="edge33" class="edge">
<title>Node23&#45;&gt;Node24</title>
<path fill="none" stroke="midnightblue" d="M3236.34,-57.4C3237.59,-48.37 3238.97,-38.41 3240.05,-30.58"/>
<polygon fill="midnightblue" stroke="midnightblue" points="3232.86,-57.01 3234.95,-67.4 3239.79,-57.97 3232.86,-57.01"/>
</g>
<!-- Node25&#45;&gt;Node13 -->
<g id="edge35" class="edge">
<title>Node25&#45;&gt;Node13</title>
<path fill="none" stroke="midnightblue" d="M3427.02,-57.25C3425.63,-46.02 3424.08,-33.38 3423.07,-25.19"/>
<polygon fill="midnightblue" stroke="midnightblue" points="3423.57,-57.9 3428.26,-67.4 3430.52,-57.04 3423.57,-57.9"/>
</g>
<!-- Node26 -->
<g id="node26" class="node">
<title>Node26</title>
<g id="a_node26"><a xlink:href="PlayerSoundManagerSystem_8cpp.html" target="_top" xlink:title=" ">
<polygon fill="white" stroke="black" points="3515,-0.5 3515,-30.5 3695,-30.5 3695,-0.5 3515,-0.5"/>
<text text-anchor="start" x="3523" y="-18.5" font-family="Helvetica,sans-Serif" font-size="10.00">sources/System/Sound</text>
<text text-anchor="middle" x="3605" y="-7.5" font-family="Helvetica,sans-Serif" font-size="10.00">/PlayerSoundManagerSystem.cpp</text>
</a>
</g>
</g>
<!-- Node25&#45;&gt;Node26 -->
<g id="edge36" class="edge">
<title>Node25&#45;&gt;Node26</title>
<path fill="none" stroke="midnightblue" d="M3477.6,-63.82C3505.73,-53.37 3540.86,-40.32 3567.1,-30.58"/>
<polygon fill="midnightblue" stroke="midnightblue" points="3476.13,-60.63 3467.97,-67.4 3478.57,-67.2 3476.13,-60.63"/>
</g>
</g>
</svg>
