<?xml version="1.0" encoding="UTF-8" standalone="no"?>
<!DOCTYPE svg PUBLIC "-//W3C//DTD SVG 1.1//EN"
 "http://www.w3.org/Graphics/SVG/1.1/DTD/svg11.dtd">
<!-- Generated by graphviz version 2.43.0 (0)
 -->
<!-- Title: sources/Component/Sound/SoundComponent.cpp Pages: 1 -->
<svg width="973pt" height="319pt"
 viewBox="0.00 0.00 972.50 319.00" xmlns="http://www.w3.org/2000/svg" xmlns:xlink="http://www.w3.org/1999/xlink">
<g id="graph0" class="graph" transform="scale(1 1) rotate(0) translate(4 315)">
<title>sources/Component/Sound/SoundComponent.cpp</title>
<polygon fill="white" stroke="transparent" points="-4,4 -4,-315 968.5,-315 968.5,4 -4,4"/>
<!-- Node1 -->
<g id="node1" class="node">
<title>Node1</title>
<g id="a_node1"><a xlink:title=" ">
<polygon fill="#bfbfbf" stroke="black" points="34,-280.5 34,-310.5 180,-310.5 180,-280.5 34,-280.5"/>
<text text-anchor="start" x="42" y="-298.5" font-family="Helvetica,sans-Serif" font-size="10.00">sources/Component/Sound</text>
<text text-anchor="middle" x="107" y="-287.5" font-family="Helvetica,sans-Serif" font-size="10.00">/SoundComponent.cpp</text>
</a>
</g>
</g>
<!-- Node2 -->
<g id="node2" class="node">
<title>Node2</title>
<g id="a_node2"><a xlink:title=" ">
<polygon fill="white" stroke="#bfbfbf" points="0,-56.5 0,-75.5 60,-75.5 60,-56.5 0,-56.5"/>
<text text-anchor="middle" x="30" y="-63.5" font-family="Helvetica,sans-Serif" font-size="10.00">iostream</text>
</a>
</g>
</g>
<!-- Node1&#45;&gt;Node2 -->
<g id="edge1" class="edge">
<title>Node1&#45;&gt;Node2</title>
<path fill="none" stroke="midnightblue" d="M102.18,-280.27C88.8,-240.73 51.17,-129.55 36.23,-85.4"/>
<polygon fill="midnightblue" stroke="midnightblue" points="39.54,-84.28 33.02,-75.93 32.91,-86.52 39.54,-84.28"/>
</g>
<!-- Node3 -->
<g id="node3" class="node">
<title>Node3</title>
<g id="a_node3"><a xlink:title=" ">
<polygon fill="white" stroke="#bfbfbf" points="78,-56.5 78,-75.5 136,-75.5 136,-56.5 78,-56.5"/>
<text text-anchor="middle" x="107" y="-63.5" font-family="Helvetica,sans-Serif" font-size="10.00">memory</text>
</a>
</g>
</g>
<!-- Node1&#45;&gt;Node3 -->
<g id="edge2" class="edge">
<title>Node1&#45;&gt;Node3</title>
<path fill="none" stroke="midnightblue" d="M107,-280.27C107,-240.89 107,-130.49 107,-85.97"/>
<polygon fill="midnightblue" stroke="midnightblue" points="110.5,-85.93 107,-75.93 103.5,-85.93 110.5,-85.93"/>
</g>
<!-- Node4 -->
<g id="node4" class="node">
<title>Node4</title>
<g id="a_node4"><a xlink:href="SoundComponent_8hpp.html" target="_top" xlink:title=" ">
<polygon fill="white" stroke="black" points="343,-224.5 343,-243.5 467,-243.5 467,-224.5 343,-224.5"/>
<text text-anchor="middle" x="405" y="-231.5" font-family="Helvetica,sans-Serif" font-size="10.00">SoundComponent.hpp</text>
</a>
</g>
</g>
<!-- Node1&#45;&gt;Node4 -->
<g id="edge3" class="edge">
<title>Node1&#45;&gt;Node4</title>
<path fill="none" stroke="midnightblue" d="M177.24,-280.47C230.9,-269.76 303.68,-255.23 352.38,-245.51"/>
<polygon fill="midnightblue" stroke="midnightblue" points="353.28,-248.9 362.4,-243.51 351.9,-242.03 353.28,-248.9"/>
</g>
<!-- Node5 -->
<g id="node5" class="node">
<title>Node5</title>
<g id="a_node5"><a xlink:href="Component_8hpp.html" target="_top" xlink:title=" ">
<polygon fill="white" stroke="black" points="768.5,-112.5 768.5,-131.5 921.5,-131.5 921.5,-112.5 768.5,-112.5"/>
<text text-anchor="middle" x="845" y="-119.5" font-family="Helvetica,sans-Serif" font-size="10.00">Component/Component.hpp</text>
</a>
</g>
</g>
<!-- Node4&#45;&gt;Node5 -->
<g id="edge4" class="edge">
<title>Node4&#45;&gt;Node5</title>
<path fill="none" stroke="midnightblue" d="M439.16,-224.46C518.11,-204.72 713.18,-155.96 800.95,-134.01"/>
<polygon fill="midnightblue" stroke="midnightblue" points="802.01,-137.36 810.86,-131.53 800.31,-130.56 802.01,-137.36"/>
</g>
<!-- Node9 -->
<g id="node9" class="node">
<title>Node9</title>
<g id="a_node9"><a xlink:title=" ">
<polygon fill="white" stroke="#bfbfbf" points="343,-168.5 343,-187.5 381,-187.5 381,-168.5 343,-168.5"/>
<text text-anchor="middle" x="362" y="-175.5" font-family="Helvetica,sans-Serif" font-size="10.00">map</text>
</a>
</g>
</g>
<!-- Node4&#45;&gt;Node9 -->
<g id="edge8" class="edge">
<title>Node4&#45;&gt;Node9</title>
<path fill="none" stroke="midnightblue" d="M397.9,-224.08C391.76,-216.38 382.73,-205.03 375.26,-195.65"/>
<polygon fill="midnightblue" stroke="midnightblue" points="377.94,-193.39 368.97,-187.75 372.46,-197.75 377.94,-193.39"/>
</g>
<!-- Node10 -->
<g id="node10" class="node">
<title>Node10</title>
<g id="a_node10"><a xlink:href="Sound_8hpp.html" target="_top" xlink:title=" ">
<polygon fill="white" stroke="black" points="399,-168.5 399,-187.5 497,-187.5 497,-168.5 399,-168.5"/>
<text text-anchor="middle" x="448" y="-175.5" font-family="Helvetica,sans-Serif" font-size="10.00">Audio/Sound.hpp</text>
</a>
</g>
</g>
<!-- Node4&#45;&gt;Node10 -->
<g id="edge9" class="edge">
<title>Node4&#45;&gt;Node10</title>
<path fill="none" stroke="midnightblue" d="M412.1,-224.08C418.24,-216.38 427.27,-205.03 434.74,-195.65"/>
<polygon fill="midnightblue" stroke="midnightblue" points="437.54,-197.75 441.03,-187.75 432.06,-193.39 437.54,-197.75"/>
</g>
<!-- Node6 -->
<g id="node6" class="node">
<title>Node6</title>
<g id="a_node6"><a xlink:title=" ">
<polygon fill="white" stroke="#bfbfbf" points="795.5,-56.5 795.5,-75.5 842.5,-75.5 842.5,-56.5 795.5,-56.5"/>
<text text-anchor="middle" x="819" y="-63.5" font-family="Helvetica,sans-Serif" font-size="10.00">vector</text>
</a>
</g>
</g>
<!-- Node5&#45;&gt;Node6 -->
<g id="edge5" class="edge">
<title>Node5&#45;&gt;Node6</title>
<path fill="none" stroke="midnightblue" d="M840.71,-112.08C837.15,-104.69 831.98,-93.95 827.58,-84.81"/>
<polygon fill="midnightblue" stroke="midnightblue" points="830.71,-83.24 823.21,-75.75 824.4,-86.28 830.71,-83.24"/>
</g>
<!-- Node7 -->
<g id="node7" class="node">
<title>Node7</title>
<g id="a_node7"><a xlink:title=" ">
<polygon fill="white" stroke="#bfbfbf" points="726,-0.5 726,-19.5 770,-19.5 770,-0.5 726,-0.5"/>
<text text-anchor="middle" x="748" y="-7.5" font-family="Helvetica,sans-Serif" font-size="10.00">string</text>
</a>
</g>
</g>
<!-- Node5&#45;&gt;Node7 -->
<g id="edge6" class="edge">
<title>Node5&#45;&gt;Node7</title>
<path fill="none" stroke="midnightblue" d="M849.26,-112.17C855.02,-98.83 863.34,-73.27 852,-56 836.22,-31.97 804.57,-20.71 780.31,-15.47"/>
<polygon fill="midnightblue" stroke="midnightblue" points="780.91,-12.03 770.43,-13.58 779.59,-18.9 780.91,-12.03"/>
</g>
<!-- Node8 -->
<g id="node8" class="node">
<title>Node8</title>
<g id="a_node8"><a xlink:title=" ">
<polygon fill="white" stroke="#bfbfbf" points="899.5,-56.5 899.5,-75.5 964.5,-75.5 964.5,-56.5 899.5,-56.5"/>
<text text-anchor="middle" x="932" y="-63.5" font-family="Helvetica,sans-Serif" font-size="10.00">typeindex</text>
</a>
</g>
</g>
<!-- Node5&#45;&gt;Node8 -->
<g id="edge7" class="edge">
<title>Node5&#45;&gt;Node8</title>
<path fill="none" stroke="midnightblue" d="M858.98,-112.32C872.55,-103.9 893.38,-90.97 909.32,-81.07"/>
<polygon fill="midnightblue" stroke="midnightblue" points="911.41,-83.9 918.06,-75.65 907.71,-77.95 911.41,-83.9"/>
</g>
<!-- Node11 -->
<g id="node11" class="node">
<title>Node11</title>
<g id="a_node11"><a xlink:href="IAudio_8hpp.html" target="_top" xlink:title=" ">
<polygon fill="white" stroke="black" points="576.5,-112.5 576.5,-131.5 675.5,-131.5 675.5,-112.5 576.5,-112.5"/>
<text text-anchor="middle" x="626" y="-119.5" font-family="Helvetica,sans-Serif" font-size="10.00">Audio/IAudio.hpp</text>
</a>
</g>
</g>
<!-- Node10&#45;&gt;Node11 -->
<g id="edge10" class="edge">
<title>Node10&#45;&gt;Node11</title>
<path fill="none" stroke="midnightblue" d="M476.2,-168.44C506.41,-159.28 554.51,-144.69 588.03,-134.52"/>
<polygon fill="midnightblue" stroke="midnightblue" points="589.37,-137.77 597.93,-131.52 587.34,-131.07 589.37,-137.77"/>
</g>
<!-- Node12 -->
<g id="node12" class="node">
<title>Node12</title>
<g id="a_node12"><a xlink:href="Cache_8hpp.html" target="_top" xlink:title=" ">
<polygon fill="white" stroke="black" points="401.5,-112.5 401.5,-131.5 494.5,-131.5 494.5,-112.5 401.5,-112.5"/>
<text text-anchor="middle" x="448" y="-119.5" font-family="Helvetica,sans-Serif" font-size="10.00">Utils/Cache.hpp</text>
</a>
</g>
</g>
<!-- Node10&#45;&gt;Node12 -->
<g id="edge12" class="edge">
<title>Node10&#45;&gt;Node12</title>
<path fill="none" stroke="midnightblue" d="M448,-168.08C448,-161.01 448,-150.86 448,-141.99"/>
<polygon fill="midnightblue" stroke="midnightblue" points="451.5,-141.75 448,-131.75 444.5,-141.75 451.5,-141.75"/>
</g>
<!-- Node16 -->
<g id="node16" class="node">
<title>Node16</title>
<g id="a_node16"><a xlink:title=" ">
<polygon fill="white" stroke="#bfbfbf" points="154.5,-56.5 154.5,-75.5 207.5,-75.5 207.5,-56.5 154.5,-56.5"/>
<text text-anchor="middle" x="181" y="-63.5" font-family="Helvetica,sans-Serif" font-size="10.00">raylib.h</text>
</a>
</g>
</g>
<!-- Node10&#45;&gt;Node16 -->
<g id="edge25" class="edge">
<title>Node10&#45;&gt;Node16</title>
<path fill="none" stroke="midnightblue" d="M427.05,-168.37C380.06,-149.01 266.11,-102.06 211.36,-79.51"/>
<polygon fill="midnightblue" stroke="midnightblue" points="212.43,-76.16 201.85,-75.59 209.77,-82.64 212.43,-76.16"/>
</g>
<!-- Node11&#45;&gt;Node7 -->
<g id="edge11" class="edge">
<title>Node11&#45;&gt;Node7</title>
<path fill="none" stroke="midnightblue" d="M675.57,-114.42C699.82,-108.51 727.14,-97.29 743,-76 752.82,-62.82 753.11,-43.68 751.52,-29.59"/>
<polygon fill="midnightblue" stroke="midnightblue" points="754.96,-28.93 749.99,-19.57 748.04,-29.98 754.96,-28.93"/>
</g>
<!-- Node12&#45;&gt;Node2 -->
<g id="edge24" class="edge">
<title>Node12&#45;&gt;Node2</title>
<path fill="none" stroke="midnightblue" d="M401.38,-117.11C331.52,-110.92 195.39,-97.46 70.3,-76.06"/>
<polygon fill="midnightblue" stroke="midnightblue" points="70.62,-72.56 60.17,-74.3 69.42,-79.46 70.62,-72.56"/>
</g>
<!-- Node12&#45;&gt;Node3 -->
<g id="edge13" class="edge">
<title>Node12&#45;&gt;Node3</title>
<path fill="none" stroke="midnightblue" d="M401.33,-115.32C343.63,-108.03 242.23,-94.3 146.27,-76.11"/>
<polygon fill="midnightblue" stroke="midnightblue" points="146.89,-72.67 136.41,-74.23 145.57,-79.54 146.89,-72.67"/>
</g>
<!-- Node12&#45;&gt;Node6 -->
<g id="edge21" class="edge">
<title>Node12&#45;&gt;Node6</title>
<path fill="none" stroke="midnightblue" d="M494.61,-114.22C570.54,-103.16 719.1,-81.54 785.52,-71.87"/>
<polygon fill="midnightblue" stroke="midnightblue" points="786.06,-75.33 795.45,-70.43 785.05,-68.4 786.06,-75.33"/>
</g>
<!-- Node12&#45;&gt;Node7 -->
<g id="edge23" class="edge">
<title>Node12&#45;&gt;Node7</title>
<path fill="none" stroke="midnightblue" d="M494.54,-117.71C560.2,-112.29 675.86,-99.66 710,-76 726.08,-64.86 736.35,-44.53 742.1,-29.56"/>
<polygon fill="midnightblue" stroke="midnightblue" points="745.51,-30.41 745.51,-19.82 738.9,-28.1 745.51,-30.41"/>
</g>
<!-- Node13 -->
<g id="node13" class="node">
<title>Node13</title>
<g id="a_node13"><a xlink:title=" ">
<polygon fill="white" stroke="#bfbfbf" points="461.5,-56.5 461.5,-75.5 554.5,-75.5 554.5,-56.5 461.5,-56.5"/>
<text text-anchor="middle" x="508" y="-63.5" font-family="Helvetica,sans-Serif" font-size="10.00">unordered_map</text>
</a>
</g>
</g>
<!-- Node12&#45;&gt;Node13 -->
<g id="edge14" class="edge">
<title>Node12&#45;&gt;Node13</title>
<path fill="none" stroke="midnightblue" d="M457.64,-112.32C466.51,-104.34 479.87,-92.31 490.61,-82.65"/>
<polygon fill="midnightblue" stroke="midnightblue" points="493.09,-85.13 498.18,-75.83 488.41,-79.92 493.09,-85.13"/>
</g>
<!-- Node14 -->
<g id="node14" class="node">
<title>Node14</title>
<g id="a_node14"><a xlink:title=" ">
<polygon fill="white" stroke="#bfbfbf" points="572.5,-56.5 572.5,-75.5 637.5,-75.5 637.5,-56.5 572.5,-56.5"/>
<text text-anchor="middle" x="605" y="-63.5" font-family="Helvetica,sans-Serif" font-size="10.00">functional</text>
</a>
</g>
</g>
<!-- Node12&#45;&gt;Node14 -->
<g id="edge15" class="edge">
<title>Node12&#45;&gt;Node14</title>
<path fill="none" stroke="midnightblue" d="M472.88,-112.44C499.29,-103.36 541.22,-88.94 570.74,-78.78"/>
<polygon fill="midnightblue" stroke="midnightblue" points="571.92,-82.08 580.24,-75.52 569.64,-75.46 571.92,-82.08"/>
</g>
<!-- Node15 -->
<g id="node15" class="node">
<title>Node15</title>
<g id="a_node15"><a xlink:title=" ">
<polygon fill="white" stroke="#bfbfbf" points="655.5,-56.5 655.5,-75.5 700.5,-75.5 700.5,-56.5 655.5,-56.5"/>
<text text-anchor="middle" x="678" y="-63.5" font-family="Helvetica,sans-Serif" font-size="10.00">utility</text>
</a>
</g>
</g>
<!-- Node12&#45;&gt;Node15 -->
<g id="edge16" class="edge">
<title>Node12&#45;&gt;Node15</title>
<path fill="none" stroke="midnightblue" d="M488.95,-112.49C527.18,-104.38 586.02,-91.48 645.43,-76.3"/>
<polygon fill="midnightblue" stroke="midnightblue" points="646.55,-79.63 655.36,-73.74 644.8,-72.85 646.55,-79.63"/>
</g>
<!-- Node12&#45;&gt;Node16 -->
<g id="edge17" class="edge">
<title>Node12&#45;&gt;Node16</title>
<path fill="none" stroke="midnightblue" d="M401.17,-112.77C356.39,-104.71 286.75,-91.68 217.87,-76.33"/>
<polygon fill="midnightblue" stroke="midnightblue" points="218.24,-72.82 207.71,-74.05 216.7,-79.65 218.24,-72.82"/>
</g>
<!-- Node17 -->
<g id="node17" class="node">
<title>Node17</title>
<g id="a_node17"><a xlink:href="RayError_8hpp.html" target="_top" xlink:title=" ">
<polygon fill="white" stroke="black" points="225.5,-56.5 225.5,-75.5 360.5,-75.5 360.5,-56.5 225.5,-56.5"/>
<text text-anchor="middle" x="293" y="-63.5" font-family="Helvetica,sans-Serif" font-size="10.00">Exceptions/RayError.hpp</text>
</a>
</g>
</g>
<!-- Node12&#45;&gt;Node17 -->
<g id="edge18" class="edge">
<title>Node12&#45;&gt;Node17</title>
<path fill="none" stroke="midnightblue" d="M423.44,-112.44C397.48,-103.4 356.33,-89.06 327.2,-78.92"/>
<polygon fill="midnightblue" stroke="midnightblue" points="328.04,-75.5 317.45,-75.52 325.74,-82.11 328.04,-75.5"/>
</g>
<!-- Node19 -->
<g id="node19" class="node">
<title>Node19</title>
<g id="a_node19"><a xlink:title=" ">
<polygon fill="white" stroke="#bfbfbf" points="379,-56.5 379,-75.5 443,-75.5 443,-56.5 379,-56.5"/>
<text text-anchor="middle" x="411" y="-63.5" font-family="Helvetica,sans-Serif" font-size="10.00">algorithm</text>
</a>
</g>
</g>
<!-- Node12&#45;&gt;Node19 -->
<g id="edge22" class="edge">
<title>Node12&#45;&gt;Node19</title>
<path fill="none" stroke="midnightblue" d="M441.89,-112.08C436.72,-104.53 429.15,-93.49 422.81,-84.23"/>
<polygon fill="midnightblue" stroke="midnightblue" points="425.54,-82.02 417,-75.75 419.76,-85.98 425.54,-82.02"/>
</g>
<!-- Node17&#45;&gt;Node7 -->
<g id="edge20" class="edge">
<title>Node17&#45;&gt;Node7</title>
<path fill="none" stroke="midnightblue" d="M360.63,-56.97C460.2,-45.16 642.39,-23.53 715.94,-14.8"/>
<polygon fill="midnightblue" stroke="midnightblue" points="716.47,-18.27 725.98,-13.61 715.64,-11.32 716.47,-18.27"/>
</g>
<!-- Node18 -->
<g id="node18" class="node">
<title>Node18</title>
<g id="a_node18"><a xlink:title=" ">
<polygon fill="white" stroke="#bfbfbf" points="260.5,-0.5 260.5,-19.5 325.5,-19.5 325.5,-0.5 260.5,-0.5"/>
<text text-anchor="middle" x="293" y="-7.5" font-family="Helvetica,sans-Serif" font-size="10.00">stdexcept</text>
</a>
</g>
</g>
<!-- Node17&#45;&gt;Node18 -->
<g id="edge19" class="edge">
<title>Node17&#45;&gt;Node18</title>
<path fill="none" stroke="midnightblue" d="M293,-56.08C293,-49.01 293,-38.86 293,-29.99"/>
<polygon fill="midnightblue" stroke="midnightblue" points="296.5,-29.75 293,-19.75 289.5,-29.75 296.5,-29.75"/>
</g>
</g>
</svg>
