<?xml version="1.0" encoding="UTF-8" standalone="no"?>
<!DOCTYPE svg PUBLIC "-//W3C//DTD SVG 1.1//EN"
 "http://www.w3.org/Graphics/SVG/1.1/DTD/svg11.dtd">
<!-- Generated by graphviz version 2.43.0 (0)
 -->
<!-- Title: sources/Component/Sound/SoundComponent.hpp Pages: 1 -->
<svg width="949pt" height="263pt"
 viewBox="0.00 0.00 949.00 263.00" xmlns="http://www.w3.org/2000/svg" xmlns:xlink="http://www.w3.org/1999/xlink">
<g id="graph0" class="graph" transform="scale(1 1) rotate(0) translate(4 259)">
<title>sources/Component/Sound/SoundComponent.hpp</title>
<polygon fill="white" stroke="transparent" points="-4,4 -4,-259 945,-259 945,4 -4,4"/>
<!-- Node1 -->
<g id="node1" class="node">
<title>Node1</title>
<g id="a_node1"><a xlink:title=" ">
<polygon fill="#bfbfbf" stroke="black" points="424.5,-224.5 424.5,-254.5 570.5,-254.5 570.5,-224.5 424.5,-224.5"/>
<text text-anchor="start" x="432.5" y="-242.5" font-family="Helvetica,sans-Serif" font-size="10.00">sources/Component/Sound</text>
<text text-anchor="middle" x="497.5" y="-231.5" font-family="Helvetica,sans-Serif" font-size="10.00">/SoundComponent.hpp</text>
</a>
</g>
</g>
<!-- Node2 -->
<g id="node2" class="node">
<title>Node2</title>
<g id="a_node2"><a xlink:href="Component_8hpp.html" target="_top" xlink:title=" ">
<polygon fill="white" stroke="black" points="43,-112.5 43,-131.5 196,-131.5 196,-112.5 43,-112.5"/>
<text text-anchor="middle" x="119.5" y="-119.5" font-family="Helvetica,sans-Serif" font-size="10.00">Component/Component.hpp</text>
</a>
</g>
</g>
<!-- Node1&#45;&gt;Node2 -->
<g id="edge1" class="edge">
<title>Node1&#45;&gt;Node2</title>
<path fill="none" stroke="midnightblue" d="M451.53,-224.45C375.95,-201.36 226.9,-155.82 157.15,-134.51"/>
<polygon fill="midnightblue" stroke="midnightblue" points="158.04,-131.12 147.46,-131.54 156,-137.81 158.04,-131.12"/>
</g>
<!-- Node6 -->
<g id="node6" class="node">
<title>Node6</title>
<g id="a_node6"><a xlink:title=" ">
<polygon fill="white" stroke="#bfbfbf" points="478.5,-168.5 478.5,-187.5 516.5,-187.5 516.5,-168.5 478.5,-168.5"/>
<text text-anchor="middle" x="497.5" y="-175.5" font-family="Helvetica,sans-Serif" font-size="10.00">map</text>
</a>
</g>
</g>
<!-- Node1&#45;&gt;Node6 -->
<g id="edge5" class="edge">
<title>Node1&#45;&gt;Node6</title>
<path fill="none" stroke="midnightblue" d="M497.5,-224.4C497.5,-216.47 497.5,-206.46 497.5,-197.86"/>
<polygon fill="midnightblue" stroke="midnightblue" points="501,-197.66 497.5,-187.66 494,-197.66 501,-197.66"/>
</g>
<!-- Node7 -->
<g id="node7" class="node">
<title>Node7</title>
<g id="a_node7"><a xlink:href="Sound_8hpp.html" target="_top" xlink:title=" ">
<polygon fill="white" stroke="black" points="603.5,-168.5 603.5,-187.5 701.5,-187.5 701.5,-168.5 603.5,-168.5"/>
<text text-anchor="middle" x="652.5" y="-175.5" font-family="Helvetica,sans-Serif" font-size="10.00">Audio/Sound.hpp</text>
</a>
</g>
</g>
<!-- Node1&#45;&gt;Node7 -->
<g id="edge6" class="edge">
<title>Node1&#45;&gt;Node7</title>
<path fill="none" stroke="midnightblue" d="M534.23,-224.4C560.47,-214.33 595.43,-200.91 620.52,-191.28"/>
<polygon fill="midnightblue" stroke="midnightblue" points="621.86,-194.51 629.95,-187.66 619.36,-187.97 621.86,-194.51"/>
</g>
<!-- Node3 -->
<g id="node3" class="node">
<title>Node3</title>
<g id="a_node3"><a xlink:title=" ">
<polygon fill="white" stroke="#bfbfbf" points="122,-56.5 122,-75.5 169,-75.5 169,-56.5 122,-56.5"/>
<text text-anchor="middle" x="145.5" y="-63.5" font-family="Helvetica,sans-Serif" font-size="10.00">vector</text>
</a>
</g>
</g>
<!-- Node2&#45;&gt;Node3 -->
<g id="edge2" class="edge">
<title>Node2&#45;&gt;Node3</title>
<path fill="none" stroke="midnightblue" d="M123.79,-112.08C127.35,-104.69 132.52,-93.95 136.92,-84.81"/>
<polygon fill="midnightblue" stroke="midnightblue" points="140.1,-86.28 141.29,-75.75 133.79,-83.24 140.1,-86.28"/>
</g>
<!-- Node4 -->
<g id="node4" class="node">
<title>Node4</title>
<g id="a_node4"><a xlink:title=" ">
<polygon fill="white" stroke="#bfbfbf" points="348.5,-0.5 348.5,-19.5 392.5,-19.5 392.5,-0.5 348.5,-0.5"/>
<text text-anchor="middle" x="370.5" y="-7.5" font-family="Helvetica,sans-Serif" font-size="10.00">string</text>
</a>
</g>
</g>
<!-- Node2&#45;&gt;Node4 -->
<g id="edge3" class="edge">
<title>Node2&#45;&gt;Node4</title>
<path fill="none" stroke="midnightblue" d="M114.96,-112.26C108.56,-98.57 99.06,-71.99 112.5,-56 119.76,-47.37 270.71,-25.09 338.28,-15.5"/>
<polygon fill="midnightblue" stroke="midnightblue" points="338.97,-18.94 348.38,-14.07 337.99,-12.01 338.97,-18.94"/>
</g>
<!-- Node5 -->
<g id="node5" class="node">
<title>Node5</title>
<g id="a_node5"><a xlink:title=" ">
<polygon fill="white" stroke="#bfbfbf" points="0,-56.5 0,-75.5 65,-75.5 65,-56.5 0,-56.5"/>
<text text-anchor="middle" x="32.5" y="-63.5" font-family="Helvetica,sans-Serif" font-size="10.00">typeindex</text>
</a>
</g>
</g>
<!-- Node2&#45;&gt;Node5 -->
<g id="edge4" class="edge">
<title>Node2&#45;&gt;Node5</title>
<path fill="none" stroke="midnightblue" d="M105.52,-112.32C91.95,-103.9 71.12,-90.97 55.18,-81.07"/>
<polygon fill="midnightblue" stroke="midnightblue" points="56.79,-77.95 46.44,-75.65 53.09,-83.9 56.79,-77.95"/>
</g>
<!-- Node8 -->
<g id="node8" class="node">
<title>Node8</title>
<g id="a_node8"><a xlink:href="IAudio_8hpp.html" target="_top" xlink:title=" ">
<polygon fill="white" stroke="black" points="842,-112.5 842,-131.5 941,-131.5 941,-112.5 842,-112.5"/>
<text text-anchor="middle" x="891.5" y="-119.5" font-family="Helvetica,sans-Serif" font-size="10.00">Audio/IAudio.hpp</text>
</a>
</g>
</g>
<!-- Node7&#45;&gt;Node8 -->
<g id="edge7" class="edge">
<title>Node7&#45;&gt;Node8</title>
<path fill="none" stroke="midnightblue" d="M690.37,-168.44C731.98,-159.04 798.87,-143.93 843.97,-133.74"/>
<polygon fill="midnightblue" stroke="midnightblue" points="844.82,-137.13 853.81,-131.52 843.28,-130.31 844.82,-137.13"/>
</g>
<!-- Node9 -->
<g id="node9" class="node">
<title>Node9</title>
<g id="a_node9"><a xlink:href="Cache_8hpp.html" target="_top" xlink:title=" ">
<polygon fill="white" stroke="black" points="507,-112.5 507,-131.5 600,-131.5 600,-112.5 507,-112.5"/>
<text text-anchor="middle" x="553.5" y="-119.5" font-family="Helvetica,sans-Serif" font-size="10.00">Utils/Cache.hpp</text>
</a>
</g>
</g>
<!-- Node7&#45;&gt;Node9 -->
<g id="edge9" class="edge">
<title>Node7&#45;&gt;Node9</title>
<path fill="none" stroke="midnightblue" d="M636.59,-168.32C620.86,-159.74 596.56,-146.49 578.29,-136.52"/>
<polygon fill="midnightblue" stroke="midnightblue" points="579.82,-133.37 569.37,-131.65 576.47,-139.52 579.82,-133.37"/>
</g>
<!-- Node14 -->
<g id="node14" class="node">
<title>Node14</title>
<g id="a_node14"><a xlink:title=" ">
<polygon fill="white" stroke="#bfbfbf" points="872,-56.5 872,-75.5 925,-75.5 925,-56.5 872,-56.5"/>
<text text-anchor="middle" x="898.5" y="-63.5" font-family="Helvetica,sans-Serif" font-size="10.00">raylib.h</text>
</a>
</g>
</g>
<!-- Node7&#45;&gt;Node14 -->
<g id="edge22" class="edge">
<title>Node7&#45;&gt;Node14</title>
<path fill="none" stroke="midnightblue" d="M671.8,-168.37C714.92,-149.09 819.21,-102.45 869.9,-79.79"/>
<polygon fill="midnightblue" stroke="midnightblue" points="871.59,-82.87 879.29,-75.59 868.73,-76.48 871.59,-82.87"/>
</g>
<!-- Node8&#45;&gt;Node4 -->
<g id="edge8" class="edge">
<title>Node8&#45;&gt;Node4</title>
<path fill="none" stroke="midnightblue" d="M904.39,-112.38C922.42,-99.31 951.21,-74.09 934.5,-56 898.31,-16.81 517.39,-11.73 402.88,-11.09"/>
<polygon fill="midnightblue" stroke="midnightblue" points="402.67,-7.59 392.65,-11.04 402.63,-14.59 402.67,-7.59"/>
</g>
<!-- Node9&#45;&gt;Node3 -->
<g id="edge18" class="edge">
<title>Node9&#45;&gt;Node3</title>
<path fill="none" stroke="midnightblue" d="M506.83,-117.75C437.27,-112.4 302.21,-100.05 179.14,-76.07"/>
<polygon fill="midnightblue" stroke="midnightblue" points="179.66,-72.61 169.17,-74.1 178.3,-79.47 179.66,-72.61"/>
</g>
<!-- Node9&#45;&gt;Node4 -->
<g id="edge20" class="edge">
<title>Node9&#45;&gt;Node4</title>
<path fill="none" stroke="midnightblue" d="M518.16,-112.44C492.92,-105.27 458.89,-93.39 432.5,-76 412.66,-62.93 394.47,-42.39 383,-27.9"/>
<polygon fill="midnightblue" stroke="midnightblue" points="385.63,-25.59 376.77,-19.79 380.08,-29.85 385.63,-25.59"/>
</g>
<!-- Node10 -->
<g id="node10" class="node">
<title>Node10</title>
<g id="a_node10"><a xlink:title=" ">
<polygon fill="white" stroke="#bfbfbf" points="601.5,-56.5 601.5,-75.5 659.5,-75.5 659.5,-56.5 601.5,-56.5"/>
<text text-anchor="middle" x="630.5" y="-63.5" font-family="Helvetica,sans-Serif" font-size="10.00">memory</text>
</a>
</g>
</g>
<!-- Node9&#45;&gt;Node10 -->
<g id="edge10" class="edge">
<title>Node9&#45;&gt;Node10</title>
<path fill="none" stroke="midnightblue" d="M565.87,-112.32C577.66,-104.06 595.63,-91.45 609.64,-81.63"/>
<polygon fill="midnightblue" stroke="midnightblue" points="611.98,-84.26 618.16,-75.65 607.96,-78.53 611.98,-84.26"/>
</g>
<!-- Node11 -->
<g id="node11" class="node">
<title>Node11</title>
<g id="a_node11"><a xlink:title=" ">
<polygon fill="white" stroke="#bfbfbf" points="678,-56.5 678,-75.5 771,-75.5 771,-56.5 678,-56.5"/>
<text text-anchor="middle" x="724.5" y="-63.5" font-family="Helvetica,sans-Serif" font-size="10.00">unordered_map</text>
</a>
</g>
</g>
<!-- Node9&#45;&gt;Node11 -->
<g id="edge11" class="edge">
<title>Node9&#45;&gt;Node11</title>
<path fill="none" stroke="midnightblue" d="M580.6,-112.44C609.49,-103.32 655.42,-88.81 687.61,-78.65"/>
<polygon fill="midnightblue" stroke="midnightblue" points="689.05,-81.87 697.53,-75.52 686.94,-75.19 689.05,-81.87"/>
</g>
<!-- Node12 -->
<g id="node12" class="node">
<title>Node12</title>
<g id="a_node12"><a xlink:title=" ">
<polygon fill="white" stroke="#bfbfbf" points="789,-56.5 789,-75.5 854,-75.5 854,-56.5 789,-56.5"/>
<text text-anchor="middle" x="821.5" y="-63.5" font-family="Helvetica,sans-Serif" font-size="10.00">functional</text>
</a>
</g>
</g>
<!-- Node9&#45;&gt;Node12 -->
<g id="edge12" class="edge">
<title>Node9&#45;&gt;Node12</title>
<path fill="none" stroke="midnightblue" d="M597.92,-112.47C641.58,-104.03 710.36,-90.56 778.75,-76.34"/>
<polygon fill="midnightblue" stroke="midnightblue" points="779.76,-79.7 788.84,-74.23 778.34,-72.85 779.76,-79.7"/>
</g>
<!-- Node13 -->
<g id="node13" class="node">
<title>Node13</title>
<g id="a_node13"><a xlink:title=" ">
<polygon fill="white" stroke="#bfbfbf" points="340,-56.5 340,-75.5 385,-75.5 385,-56.5 340,-56.5"/>
<text text-anchor="middle" x="362.5" y="-63.5" font-family="Helvetica,sans-Serif" font-size="10.00">utility</text>
</a>
</g>
</g>
<!-- Node9&#45;&gt;Node13 -->
<g id="edge13" class="edge">
<title>Node9&#45;&gt;Node13</title>
<path fill="none" stroke="midnightblue" d="M523.24,-112.44C488.29,-102.56 431.02,-86.37 395.11,-76.22"/>
<polygon fill="midnightblue" stroke="midnightblue" points="395.72,-72.76 385.15,-73.4 393.82,-79.49 395.72,-72.76"/>
</g>
<!-- Node9&#45;&gt;Node14 -->
<g id="edge14" class="edge">
<title>Node9&#45;&gt;Node14</title>
<path fill="none" stroke="midnightblue" d="M600.25,-115.8C659.14,-108.91 763.62,-95.51 861.73,-76.19"/>
<polygon fill="midnightblue" stroke="midnightblue" points="862.69,-79.57 871.82,-74.18 861.32,-72.7 862.69,-79.57"/>
</g>
<!-- Node15 -->
<g id="node15" class="node">
<title>Node15</title>
<g id="a_node15"><a xlink:href="RayError_8hpp.html" target="_top" xlink:title=" ">
<polygon fill="white" stroke="black" points="187,-56.5 187,-75.5 322,-75.5 322,-56.5 187,-56.5"/>
<text text-anchor="middle" x="254.5" y="-63.5" font-family="Helvetica,sans-Serif" font-size="10.00">Exceptions/RayError.hpp</text>
</a>
</g>
</g>
<!-- Node9&#45;&gt;Node15 -->
<g id="edge15" class="edge">
<title>Node9&#45;&gt;Node15</title>
<path fill="none" stroke="midnightblue" d="M506.78,-112.56C454.1,-103.05 368.42,-87.57 311.76,-77.34"/>
<polygon fill="midnightblue" stroke="midnightblue" points="312.34,-73.89 301.88,-75.56 311.1,-80.78 312.34,-73.89"/>
</g>
<!-- Node17 -->
<g id="node17" class="node">
<title>Node17</title>
<g id="a_node17"><a xlink:title=" ">
<polygon fill="white" stroke="#bfbfbf" points="441.5,-56.5 441.5,-75.5 505.5,-75.5 505.5,-56.5 441.5,-56.5"/>
<text text-anchor="middle" x="473.5" y="-63.5" font-family="Helvetica,sans-Serif" font-size="10.00">algorithm</text>
</a>
</g>
</g>
<!-- Node9&#45;&gt;Node17 -->
<g id="edge19" class="edge">
<title>Node9&#45;&gt;Node17</title>
<path fill="none" stroke="midnightblue" d="M540.65,-112.32C528.28,-103.98 509.37,-91.21 494.76,-81.35"/>
<polygon fill="midnightblue" stroke="midnightblue" points="496.57,-78.35 486.32,-75.65 492.65,-84.15 496.57,-78.35"/>
</g>
<!-- Node18 -->
<g id="node18" class="node">
<title>Node18</title>
<g id="a_node18"><a xlink:title=" ">
<polygon fill="white" stroke="#bfbfbf" points="523.5,-56.5 523.5,-75.5 583.5,-75.5 583.5,-56.5 523.5,-56.5"/>
<text text-anchor="middle" x="553.5" y="-63.5" font-family="Helvetica,sans-Serif" font-size="10.00">iostream</text>
</a>
</g>
</g>
<!-- Node9&#45;&gt;Node18 -->
<g id="edge21" class="edge">
<title>Node9&#45;&gt;Node18</title>
<path fill="none" stroke="midnightblue" d="M553.5,-112.08C553.5,-105.01 553.5,-94.86 553.5,-85.99"/>
<polygon fill="midnightblue" stroke="midnightblue" points="557,-85.75 553.5,-75.75 550,-85.75 557,-85.75"/>
</g>
<!-- Node15&#45;&gt;Node4 -->
<g id="edge17" class="edge">
<title>Node15&#45;&gt;Node4</title>
<path fill="none" stroke="midnightblue" d="M272.88,-56.44C291.72,-47.68 321.23,-33.94 342.88,-23.86"/>
<polygon fill="midnightblue" stroke="midnightblue" points="344.62,-26.91 352.21,-19.52 341.66,-20.56 344.62,-26.91"/>
</g>
<!-- Node16 -->
<g id="node16" class="node">
<title>Node16</title>
<g id="a_node16"><a xlink:title=" ">
<polygon fill="white" stroke="#bfbfbf" points="222,-0.5 222,-19.5 287,-19.5 287,-0.5 222,-0.5"/>
<text text-anchor="middle" x="254.5" y="-7.5" font-family="Helvetica,sans-Serif" font-size="10.00">stdexcept</text>
</a>
</g>
</g>
<!-- Node15&#45;&gt;Node16 -->
<g id="edge16" class="edge">
<title>Node15&#45;&gt;Node16</title>
<path fill="none" stroke="midnightblue" d="M254.5,-56.08C254.5,-49.01 254.5,-38.86 254.5,-29.99"/>
<polygon fill="midnightblue" stroke="midnightblue" points="258,-29.75 254.5,-19.75 251,-29.75 258,-29.75"/>
</g>
</g>
</svg>
