<?xml version="1.0" encoding="UTF-8" standalone="no"?>
<!DOCTYPE svg PUBLIC "-//W3C//DTD SVG 1.1//EN"
 "http://www.w3.org/Graphics/SVG/1.1/DTD/svg11.dtd">
<!-- Generated by graphviz version 2.43.0 (0)
 -->
<!-- Title: sources/Component/Speed/SpeedComponent.hpp Pages: 1 -->
<svg width="1300pt" height="106pt"
 viewBox="0.00 0.00 1300.00 106.00" xmlns="http://www.w3.org/2000/svg" xmlns:xlink="http://www.w3.org/1999/xlink">
<g id="graph0" class="graph" transform="scale(1 1) rotate(0) translate(4 102)">
<title>sources/Component/Speed/SpeedComponent.hpp</title>
<polygon fill="white" stroke="transparent" points="-4,4 -4,-102 1296,-102 1296,4 -4,4"/>
<!-- Node1 -->
<g id="node1" class="node">
<title>Node1</title>
<g id="a_node1"><a xlink:title=" ">
<polygon fill="#bfbfbf" stroke="black" points="607,-67.5 607,-97.5 753,-97.5 753,-67.5 607,-67.5"/>
<text text-anchor="start" x="615" y="-85.5" font-family="Helvetica,sans-Serif" font-size="10.00">sources/Component/Speed</text>
<text text-anchor="middle" x="680" y="-74.5" font-family="Helvetica,sans-Serif" font-size="10.00">/SpeedComponent.hpp</text>
</a>
</g>
</g>
<!-- Node2 -->
<g id="node2" class="node">
<title>Node2</title>
<g id="a_node2"><a xlink:href="SpeedComponent_8cpp.html" target="_top" xlink:title=" ">
<polygon fill="white" stroke="black" points="0,-0.5 0,-30.5 146,-30.5 146,-0.5 0,-0.5"/>
<text text-anchor="start" x="8" y="-18.5" font-family="Helvetica,sans-Serif" font-size="10.00">sources/Component/Speed</text>
<text text-anchor="middle" x="73" y="-7.5" font-family="Helvetica,sans-Serif" font-size="10.00">/SpeedComponent.cpp</text>
</a>
</g>
</g>
<!-- Node1&#45;&gt;Node2 -->
<g id="edge1" class="edge">
<title>Node1&#45;&gt;Node2</title>
<path fill="none" stroke="midnightblue" d="M596.65,-75.53C492.9,-67.63 310.41,-52.18 155,-31 152.14,-30.61 149.22,-30.19 146.27,-29.75"/>
<polygon fill="midnightblue" stroke="midnightblue" points="596.51,-79.03 606.75,-76.29 597.04,-72.05 596.51,-79.03"/>
</g>
<!-- Node3 -->
<g id="node3" class="node">
<title>Node3</title>
<g id="a_node3"><a xlink:href="Bonus_8cpp.html" target="_top" xlink:title=" ">
<polygon fill="white" stroke="black" points="164,-6 164,-25 302,-25 302,-6 164,-6"/>
<text text-anchor="middle" x="233" y="-13" font-family="Helvetica,sans-Serif" font-size="10.00">sources/Items/Bonus.cpp</text>
</a>
</g>
</g>
<!-- Node1&#45;&gt;Node3 -->
<g id="edge2" class="edge">
<title>Node1&#45;&gt;Node3</title>
<path fill="none" stroke="midnightblue" d="M596.37,-71.21C521.47,-61.72 408.7,-46.76 311,-31 299.99,-29.22 288.13,-27.12 277.07,-25.07"/>
<polygon fill="midnightblue" stroke="midnightblue" points="596.32,-74.73 606.68,-72.51 597.2,-67.79 596.32,-74.73"/>
</g>
<!-- Node4 -->
<g id="node4" class="node">
<title>Node4</title>
<g id="a_node4"><a xlink:href="ParserYaml_8cpp.html" target="_top" xlink:title=" ">
<polygon fill="white" stroke="black" points="320,-6 320,-25 484,-25 484,-6 320,-6"/>
<text text-anchor="middle" x="402" y="-13" font-family="Helvetica,sans-Serif" font-size="10.00">sources/Parser/ParserYaml.cpp</text>
</a>
</g>
</g>
<!-- Node1&#45;&gt;Node4 -->
<g id="edge3" class="edge">
<title>Node1&#45;&gt;Node4</title>
<path fill="none" stroke="midnightblue" d="M610.07,-65.15C555.52,-52.39 481.94,-35.19 438.48,-25.03"/>
<polygon fill="midnightblue" stroke="midnightblue" points="609.49,-68.61 620.02,-67.48 611.08,-61.79 609.49,-68.61"/>
</g>
<!-- Node5 -->
<g id="node5" class="node">
<title>Node5</title>
<g id="a_node5"><a xlink:href="GameScene_8cpp.html" target="_top" xlink:title=" ">
<polygon fill="white" stroke="black" points="502.5,-6 502.5,-25 675.5,-25 675.5,-6 502.5,-6"/>
<text text-anchor="middle" x="589" y="-13" font-family="Helvetica,sans-Serif" font-size="10.00">sources/Runner/GameScene.cpp</text>
</a>
</g>
</g>
<!-- Node1&#45;&gt;Node5 -->
<g id="edge4" class="edge">
<title>Node1&#45;&gt;Node5</title>
<path fill="none" stroke="midnightblue" d="M651.73,-61.31C634.64,-49.1 613.75,-34.18 600.91,-25.01"/>
<polygon fill="midnightblue" stroke="midnightblue" points="650.08,-64.43 660.25,-67.4 654.15,-58.74 650.08,-64.43"/>
</g>
<!-- Node6 -->
<g id="node6" class="node">
<title>Node6</title>
<g id="a_node6"><a xlink:href="ControllableSystem_8cpp.html" target="_top" xlink:title=" ">
<polygon fill="white" stroke="black" points="694,-0.5 694,-30.5 850,-30.5 850,-0.5 694,-0.5"/>
<text text-anchor="start" x="702" y="-18.5" font-family="Helvetica,sans-Serif" font-size="10.00">sources/System/Controllable</text>
<text text-anchor="middle" x="772" y="-7.5" font-family="Helvetica,sans-Serif" font-size="10.00">/ControllableSystem.cpp</text>
</a>
</g>
</g>
<!-- Node1&#45;&gt;Node6 -->
<g id="edge5" class="edge">
<title>Node1&#45;&gt;Node6</title>
<path fill="none" stroke="midnightblue" d="M708.38,-61.45C722.53,-51.45 739.31,-39.6 752.08,-30.58"/>
<polygon fill="midnightblue" stroke="midnightblue" points="706.11,-58.77 699.96,-67.4 710.15,-64.48 706.11,-58.77"/>
</g>
<!-- Node7 -->
<g id="node7" class="node">
<title>Node7</title>
<g id="a_node7"><a xlink:href="LobbySystem_8cpp.html" target="_top" xlink:title=" ">
<polygon fill="white" stroke="black" points="868,-0.5 868,-30.5 994,-30.5 994,-0.5 868,-0.5"/>
<text text-anchor="start" x="876" y="-18.5" font-family="Helvetica,sans-Serif" font-size="10.00">sources/System/Lobby</text>
<text text-anchor="middle" x="931" y="-7.5" font-family="Helvetica,sans-Serif" font-size="10.00">/LobbySystem.cpp</text>
</a>
</g>
</g>
<!-- Node1&#45;&gt;Node7 -->
<g id="edge6" class="edge">
<title>Node1&#45;&gt;Node7</title>
<path fill="none" stroke="midnightblue" d="M744.04,-64.92C785,-54.31 837.56,-40.7 876.51,-30.61"/>
<polygon fill="midnightblue" stroke="midnightblue" points="742.96,-61.58 734.15,-67.48 744.71,-68.36 742.96,-61.58"/>
</g>
<!-- Node8 -->
<g id="node8" class="node">
<title>Node8</title>
<g id="a_node8"><a xlink:href="ResumeLobbySystem_8cpp.html" target="_top" xlink:title=" ">
<polygon fill="white" stroke="black" points="1012,-0.5 1012,-30.5 1158,-30.5 1158,-0.5 1012,-0.5"/>
<text text-anchor="start" x="1020" y="-18.5" font-family="Helvetica,sans-Serif" font-size="10.00">sources/System/Lobby</text>
<text text-anchor="middle" x="1085" y="-7.5" font-family="Helvetica,sans-Serif" font-size="10.00">/ResumeLobbySystem.cpp</text>
</a>
</g>
</g>
<!-- Node1&#45;&gt;Node8 -->
<g id="edge7" class="edge">
<title>Node1&#45;&gt;Node8</title>
<path fill="none" stroke="midnightblue" d="M763.42,-68.92C828.68,-58.97 921.69,-44.54 1003,-31 1005.85,-30.52 1008.76,-30.04 1011.69,-29.54"/>
<polygon fill="midnightblue" stroke="midnightblue" points="762.55,-65.52 753.19,-70.48 763.6,-72.44 762.55,-65.52"/>
</g>
<!-- Node9 -->
<g id="node9" class="node">
<title>Node9</title>
<g id="a_node9"><a xlink:href="MoveTests_8cpp.html" target="_top" xlink:title=" ">
<polygon fill="white" stroke="black" points="1176,-6 1176,-25 1292,-25 1292,-6 1176,-6"/>
<text text-anchor="middle" x="1234" y="-13" font-family="Helvetica,sans-Serif" font-size="10.00">tests/MoveTests.cpp</text>
</a>
</g>
</g>
<!-- Node1&#45;&gt;Node9 -->
<g id="edge8" class="edge">
<title>Node1&#45;&gt;Node9</title>
<path fill="none" stroke="midnightblue" d="M763.41,-75.65C860.69,-68.19 1026.14,-53.48 1167,-31 1177.11,-29.39 1187.98,-27.22 1197.97,-25.06"/>
<polygon fill="midnightblue" stroke="midnightblue" points="763.05,-72.17 753.35,-76.42 763.58,-79.15 763.05,-72.17"/>
</g>
</g>
</svg>
