<?xml version="1.0" encoding="UTF-8" standalone="no"?>
<!DOCTYPE svg PUBLIC "-//W3C//DTD SVG 1.1//EN"
 "http://www.w3.org/Graphics/SVG/1.1/DTD/svg11.dtd">
<!-- Generated by graphviz version 2.43.0 (0)
 -->
<!-- Title: lib/wal/sources/System/System.hpp Pages: 1 -->
<svg width="1056pt" height="375pt"
 viewBox="0.00 0.00 1056.00 375.00" xmlns="http://www.w3.org/2000/svg" xmlns:xlink="http://www.w3.org/1999/xlink">
<g id="graph0" class="graph" transform="scale(1 1) rotate(0) translate(4 371)">
<title>lib/wal/sources/System/System.hpp</title>
<polygon fill="white" stroke="transparent" points="-4,4 -4,-371 1052,-371 1052,4 -4,4"/>
<!-- Node1 -->
<g id="node1" class="node">
<title>Node1</title>
<g id="a_node1"><a xlink:title=" ">
<polygon fill="#bfbfbf" stroke="black" points="216.5,-336.5 216.5,-366.5 345.5,-366.5 345.5,-336.5 216.5,-336.5"/>
<text text-anchor="start" x="224.5" y="-354.5" font-family="Helvetica,sans-Serif" font-size="10.00">lib/wal/sources/System</text>
<text text-anchor="middle" x="281" y="-343.5" font-family="Helvetica,sans-Serif" font-size="10.00">/System.hpp</text>
</a>
</g>
</g>
<!-- Node2 -->
<g id="node2" class="node">
<title>Node2</title>
<g id="a_node2"><a xlink:title=" ">
<polygon fill="white" stroke="#bfbfbf" points="172,-168.5 172,-187.5 222,-187.5 222,-168.5 172,-168.5"/>
<text text-anchor="middle" x="197" y="-175.5" font-family="Helvetica,sans-Serif" font-size="10.00">chrono</text>
</a>
</g>
</g>
<!-- Node1&#45;&gt;Node2 -->
<g id="edge1" class="edge">
<title>Node1&#45;&gt;Node2</title>
<path fill="none" stroke="midnightblue" d="M270.19,-336.47C255.51,-316.81 229.37,-279.48 214,-244 207.48,-228.95 202.99,-210.82 200.27,-197.54"/>
<polygon fill="midnightblue" stroke="midnightblue" points="203.71,-196.86 198.4,-187.69 196.83,-198.17 203.71,-196.86"/>
</g>
<!-- Node3 -->
<g id="node3" class="node">
<title>Node3</title>
<g id="a_node3"><a xlink:title=" ">
<polygon fill="white" stroke="#bfbfbf" points="823.5,-0.5 823.5,-19.5 870.5,-19.5 870.5,-0.5 823.5,-0.5"/>
<text text-anchor="middle" x="847" y="-7.5" font-family="Helvetica,sans-Serif" font-size="10.00">vector</text>
</a>
</g>
</g>
<!-- Node1&#45;&gt;Node3 -->
<g id="edge2" class="edge">
<title>Node1&#45;&gt;Node3</title>
<path fill="none" stroke="midnightblue" d="M345.8,-346.25C515.52,-334.25 960,-296.92 960,-235 960,-235 960,-235 960,-121 960,-74.4 910.05,-41.14 876.57,-24.08"/>
<polygon fill="midnightblue" stroke="midnightblue" points="877.72,-20.75 867.2,-19.51 874.65,-27.04 877.72,-20.75"/>
</g>
<!-- Node4 -->
<g id="node4" class="node">
<title>Node4</title>
<g id="a_node4"><a xlink:title=" ">
<polygon fill="white" stroke="#bfbfbf" points="66.5,-56.5 66.5,-75.5 123.5,-75.5 123.5,-56.5 66.5,-56.5"/>
<text text-anchor="middle" x="95" y="-63.5" font-family="Helvetica,sans-Serif" font-size="10.00">typeinfo</text>
</a>
</g>
</g>
<!-- Node1&#45;&gt;Node4 -->
<g id="edge3" class="edge">
<title>Node1&#45;&gt;Node4</title>
<path fill="none" stroke="midnightblue" d="M216.38,-336.64C165.1,-321.39 102,-291.22 102,-235 102,-235 102,-235 102,-177 102,-144.88 98.99,-107.6 96.92,-85.73"/>
<polygon fill="midnightblue" stroke="midnightblue" points="100.38,-85.15 95.92,-75.55 93.41,-85.84 100.38,-85.15"/>
</g>
<!-- Node5 -->
<g id="node5" class="node">
<title>Node5</title>
<g id="a_node5"><a xlink:title=" ">
<polygon fill="white" stroke="#bfbfbf" points="5.5,-0.5 5.5,-19.5 70.5,-19.5 70.5,-0.5 5.5,-0.5"/>
<text text-anchor="middle" x="38" y="-7.5" font-family="Helvetica,sans-Serif" font-size="10.00">typeindex</text>
</a>
</g>
</g>
<!-- Node1&#45;&gt;Node5 -->
<g id="edge4" class="edge">
<title>Node1&#45;&gt;Node5</title>
<path fill="none" stroke="midnightblue" d="M216.18,-350.92C133.19,-347.67 0,-327.96 0,-235 0,-235 0,-235 0,-121 0,-86.81 16.6,-49.76 27.86,-28.57"/>
<polygon fill="midnightblue" stroke="midnightblue" points="30.95,-30.22 32.72,-19.77 24.82,-26.83 30.95,-30.22"/>
</g>
<!-- Node6 -->
<g id="node6" class="node">
<title>Node6</title>
<g id="a_node6"><a xlink:href="Entity_8hpp.html" target="_top" xlink:title=" ">
<polygon fill="white" stroke="black" points="204,-112.5 204,-131.5 300,-131.5 300,-112.5 204,-112.5"/>
<text text-anchor="middle" x="252" y="-119.5" font-family="Helvetica,sans-Serif" font-size="10.00">Entity/Entity.hpp</text>
</a>
</g>
</g>
<!-- Node1&#45;&gt;Node6 -->
<g id="edge5" class="edge">
<title>Node1&#45;&gt;Node6</title>
<path fill="none" stroke="midnightblue" d="M264.41,-336.48C253.59,-326.87 239.58,-313.45 229,-300 193.29,-254.58 178.2,-243.74 163,-188 160.66,-179.42 158.34,-175.57 163,-168 172.55,-152.47 189.31,-142.1 205.73,-135.27"/>
<polygon fill="midnightblue" stroke="midnightblue" points="207.18,-138.46 215.3,-131.65 204.71,-131.92 207.18,-138.46"/>
</g>
<!-- Node15 -->
<g id="node15" class="node">
<title>Node15</title>
<g id="a_node15"><a xlink:href="Wal_8hpp.html" target="_top" xlink:title=" ">
<polygon fill="white" stroke="black" points="606,-280.5 606,-299.5 662,-299.5 662,-280.5 606,-280.5"/>
<text text-anchor="middle" x="634" y="-287.5" font-family="Helvetica,sans-Serif" font-size="10.00">Wal.hpp</text>
</a>
</g>
</g>
<!-- Node1&#45;&gt;Node15 -->
<g id="edge19" class="edge">
<title>Node1&#45;&gt;Node15</title>
<path fill="none" stroke="midnightblue" d="M345.75,-339.59C418.97,-327.24 535.8,-307.55 595.76,-297.45"/>
<polygon fill="midnightblue" stroke="midnightblue" points="596.64,-300.85 605.92,-295.73 595.48,-293.94 596.64,-300.85"/>
</g>
<!-- Node17 -->
<g id="node17" class="node">
<title>Node17</title>
<g id="a_node17"><a xlink:href="ISystem_8hpp.html" target="_top" xlink:title=" ">
<polygon fill="white" stroke="black" points="222.5,-224.5 222.5,-243.5 339.5,-243.5 339.5,-224.5 222.5,-224.5"/>
<text text-anchor="middle" x="281" y="-231.5" font-family="Helvetica,sans-Serif" font-size="10.00">System/ISystem.hpp</text>
</a>
</g>
</g>
<!-- Node1&#45;&gt;Node17 -->
<g id="edge48" class="edge">
<title>Node1&#45;&gt;Node17</title>
<path fill="none" stroke="midnightblue" d="M281,-336.34C281,-315.62 281,-277.02 281,-253.9"/>
<polygon fill="midnightblue" stroke="midnightblue" points="284.5,-253.67 281,-243.67 277.5,-253.67 284.5,-253.67"/>
</g>
<!-- Node18 -->
<g id="node18" class="node">
<title>Node18</title>
<g id="a_node18"><a xlink:href="View_8hpp.html" target="_top" xlink:title=" ">
<polygon fill="white" stroke="black" points="362,-168.5 362,-187.5 450,-187.5 450,-168.5 362,-168.5"/>
<text text-anchor="middle" x="406" y="-175.5" font-family="Helvetica,sans-Serif" font-size="10.00">View/View.hpp</text>
</a>
</g>
</g>
<!-- Node1&#45;&gt;Node18 -->
<g id="edge47" class="edge">
<title>Node1&#45;&gt;Node18</title>
<path fill="none" stroke="midnightblue" d="M291.23,-336.47C314.04,-305.17 369,-229.76 393.66,-195.93"/>
<polygon fill="midnightblue" stroke="midnightblue" points="396.7,-197.7 399.76,-187.56 391.04,-193.58 396.7,-197.7"/>
</g>
<!-- Node25 -->
<g id="node25" class="node">
<title>Node25</title>
<g id="a_node25"><a xlink:title=" ">
<polygon fill="white" stroke="#bfbfbf" points="988,-280.5 988,-299.5 1048,-299.5 1048,-280.5 988,-280.5"/>
<text text-anchor="middle" x="1018" y="-287.5" font-family="Helvetica,sans-Serif" font-size="10.00">iostream</text>
</a>
</g>
</g>
<!-- Node1&#45;&gt;Node25 -->
<g id="edge49" class="edge">
<title>Node1&#45;&gt;Node25</title>
<path fill="none" stroke="midnightblue" d="M345.78,-348.57C468.75,-344.28 744.27,-331.73 974,-300 975.26,-299.83 976.54,-299.64 977.83,-299.44"/>
<polygon fill="midnightblue" stroke="midnightblue" points="978.53,-302.87 987.79,-297.71 977.34,-295.97 978.53,-302.87"/>
</g>
<!-- Node6&#45;&gt;Node4 -->
<g id="edge8" class="edge">
<title>Node6&#45;&gt;Node4</title>
<path fill="none" stroke="midnightblue" d="M227.12,-112.44C200.71,-103.36 158.78,-88.94 129.26,-78.78"/>
<polygon fill="midnightblue" stroke="midnightblue" points="130.36,-75.46 119.76,-75.52 128.08,-82.08 130.36,-75.46"/>
</g>
<!-- Node7 -->
<g id="node7" class="node">
<title>Node7</title>
<g id="a_node7"><a xlink:title=" ">
<polygon fill="white" stroke="#bfbfbf" points="475,-0.5 475,-19.5 519,-19.5 519,-0.5 475,-0.5"/>
<text text-anchor="middle" x="497" y="-7.5" font-family="Helvetica,sans-Serif" font-size="10.00">string</text>
</a>
</g>
</g>
<!-- Node6&#45;&gt;Node7 -->
<g id="edge6" class="edge">
<title>Node6&#45;&gt;Node7</title>
<path fill="none" stroke="midnightblue" d="M298.62,-112.44C353.93,-101.99 440.29,-84.66 453,-76 470.02,-64.41 482.28,-43.85 489.47,-28.95"/>
<polygon fill="midnightblue" stroke="midnightblue" points="492.71,-30.28 493.63,-19.72 486.33,-27.4 492.71,-30.28"/>
</g>
<!-- Node8 -->
<g id="node8" class="node">
<title>Node8</title>
<g id="a_node8"><a xlink:title=" ">
<polygon fill="white" stroke="#bfbfbf" points="800.5,-56.5 800.5,-75.5 893.5,-75.5 893.5,-56.5 800.5,-56.5"/>
<text text-anchor="middle" x="847" y="-63.5" font-family="Helvetica,sans-Serif" font-size="10.00">unordered_map</text>
</a>
</g>
</g>
<!-- Node6&#45;&gt;Node8 -->
<g id="edge7" class="edge">
<title>Node6&#45;&gt;Node8</title>
<path fill="none" stroke="midnightblue" d="M300.07,-113.26C303.43,-112.81 306.76,-112.38 310,-112 506.18,-88.84 556.23,-93.41 753,-76 764.99,-74.94 777.84,-73.75 790.07,-72.58"/>
<polygon fill="midnightblue" stroke="midnightblue" points="790.53,-76.06 800.16,-71.62 789.87,-69.09 790.53,-76.06"/>
</g>
<!-- Node9 -->
<g id="node9" class="node">
<title>Node9</title>
<g id="a_node9"><a xlink:title=" ">
<polygon fill="white" stroke="#bfbfbf" points="500,-56.5 500,-75.5 558,-75.5 558,-56.5 500,-56.5"/>
<text text-anchor="middle" x="529" y="-63.5" font-family="Helvetica,sans-Serif" font-size="10.00">memory</text>
</a>
</g>
</g>
<!-- Node6&#45;&gt;Node9 -->
<g id="edge9" class="edge">
<title>Node6&#45;&gt;Node9</title>
<path fill="none" stroke="midnightblue" d="M297.78,-112.43C344.98,-103.53 420.7,-89.11 486,-76 487.26,-75.75 488.54,-75.49 489.84,-75.22"/>
<polygon fill="midnightblue" stroke="midnightblue" points="490.78,-78.6 499.87,-73.16 489.37,-71.75 490.78,-78.6"/>
</g>
<!-- Node10 -->
<g id="node10" class="node">
<title>Node10</title>
<g id="a_node10"><a xlink:href="Component_8hpp.html" target="_top" xlink:title=" ">
<polygon fill="white" stroke="black" points="290.5,-56.5 290.5,-75.5 443.5,-75.5 443.5,-56.5 290.5,-56.5"/>
<text text-anchor="middle" x="367" y="-63.5" font-family="Helvetica,sans-Serif" font-size="10.00">Component/Component.hpp</text>
</a>
</g>
</g>
<!-- Node6&#45;&gt;Node10 -->
<g id="edge10" class="edge">
<title>Node6&#45;&gt;Node10</title>
<path fill="none" stroke="midnightblue" d="M270.22,-112.44C288.9,-103.68 318.16,-89.94 339.62,-79.86"/>
<polygon fill="midnightblue" stroke="midnightblue" points="341.3,-82.93 348.86,-75.52 338.32,-76.6 341.3,-82.93"/>
</g>
<!-- Node11 -->
<g id="node11" class="node">
<title>Node11</title>
<g id="a_node11"><a xlink:href="WalError_8hpp.html" target="_top" xlink:title=" ">
<polygon fill="white" stroke="black" points="614.5,-56.5 614.5,-75.5 743.5,-75.5 743.5,-56.5 614.5,-56.5"/>
<text text-anchor="middle" x="679" y="-63.5" font-family="Helvetica,sans-Serif" font-size="10.00">Exception/WalError.hpp</text>
</a>
</g>
</g>
<!-- Node6&#45;&gt;Node11 -->
<g id="edge14" class="edge">
<title>Node6&#45;&gt;Node11</title>
<path fill="none" stroke="midnightblue" d="M300.09,-113.41C303.44,-112.92 306.77,-112.45 310,-112 411.66,-97.92 529.4,-83.97 604.02,-75.42"/>
<polygon fill="midnightblue" stroke="midnightblue" points="604.72,-78.86 614.26,-74.25 603.93,-71.91 604.72,-78.86"/>
</g>
<!-- Node14 -->
<g id="node14" class="node">
<title>Node14</title>
<g id="a_node14"><a xlink:href="TypeHolder_8hpp.html" target="_top" xlink:title=" ">
<polygon fill="white" stroke="black" points="142,-56.5 142,-75.5 272,-75.5 272,-56.5 142,-56.5"/>
<text text-anchor="middle" x="207" y="-63.5" font-family="Helvetica,sans-Serif" font-size="10.00">Models/TypeHolder.hpp</text>
</a>
</g>
</g>
<!-- Node6&#45;&gt;Node14 -->
<g id="edge18" class="edge">
<title>Node6&#45;&gt;Node14</title>
<path fill="none" stroke="midnightblue" d="M244.57,-112.08C238.15,-104.38 228.69,-93.03 220.88,-83.65"/>
<polygon fill="midnightblue" stroke="midnightblue" points="223.38,-81.19 214.29,-75.75 218.01,-85.67 223.38,-81.19"/>
</g>
<!-- Node10&#45;&gt;Node3 -->
<g id="edge11" class="edge">
<title>Node10&#45;&gt;Node3</title>
<path fill="none" stroke="midnightblue" d="M442.79,-56.47C548.76,-44.55 736.79,-23.4 813.26,-14.8"/>
<polygon fill="midnightblue" stroke="midnightblue" points="813.74,-18.26 823.29,-13.67 812.96,-11.31 813.74,-18.26"/>
</g>
<!-- Node10&#45;&gt;Node5 -->
<g id="edge13" class="edge">
<title>Node10&#45;&gt;Node5</title>
<path fill="none" stroke="midnightblue" d="M314.87,-56.44C250.12,-45.82 140.9,-27.89 80.81,-18.03"/>
<polygon fill="midnightblue" stroke="midnightblue" points="81.33,-14.56 70.89,-16.4 80.19,-21.47 81.33,-14.56"/>
</g>
<!-- Node10&#45;&gt;Node7 -->
<g id="edge12" class="edge">
<title>Node10&#45;&gt;Node7</title>
<path fill="none" stroke="midnightblue" d="M387.6,-56.44C408.99,-47.56 442.68,-33.56 467.02,-23.45"/>
<polygon fill="midnightblue" stroke="midnightblue" points="468.61,-26.58 476.5,-19.52 465.92,-20.12 468.61,-26.58"/>
</g>
<!-- Node11&#45;&gt;Node7 -->
<g id="edge17" class="edge">
<title>Node11&#45;&gt;Node7</title>
<path fill="none" stroke="midnightblue" d="M650.16,-56.44C617.19,-46.66 563.36,-30.69 529.08,-20.52"/>
<polygon fill="midnightblue" stroke="midnightblue" points="529.7,-17.05 519.12,-17.56 527.71,-23.76 529.7,-17.05"/>
</g>
<!-- Node12 -->
<g id="node12" class="node">
<title>Node12</title>
<g id="a_node12"><a xlink:title=" ">
<polygon fill="white" stroke="#bfbfbf" points="604.5,-0.5 604.5,-19.5 669.5,-19.5 669.5,-0.5 604.5,-0.5"/>
<text text-anchor="middle" x="637" y="-7.5" font-family="Helvetica,sans-Serif" font-size="10.00">exception</text>
</a>
</g>
</g>
<!-- Node11&#45;&gt;Node12 -->
<g id="edge15" class="edge">
<title>Node11&#45;&gt;Node12</title>
<path fill="none" stroke="midnightblue" d="M672.06,-56.08C666.07,-48.38 657.25,-37.03 649.95,-27.65"/>
<polygon fill="midnightblue" stroke="midnightblue" points="652.71,-25.5 643.81,-19.75 647.18,-29.79 652.71,-25.5"/>
</g>
<!-- Node13 -->
<g id="node13" class="node">
<title>Node13</title>
<g id="a_node13"><a xlink:title=" ">
<polygon fill="white" stroke="#bfbfbf" points="687.5,-0.5 687.5,-19.5 752.5,-19.5 752.5,-0.5 687.5,-0.5"/>
<text text-anchor="middle" x="720" y="-7.5" font-family="Helvetica,sans-Serif" font-size="10.00">stdexcept</text>
</a>
</g>
</g>
<!-- Node11&#45;&gt;Node13 -->
<g id="edge16" class="edge">
<title>Node11&#45;&gt;Node13</title>
<path fill="none" stroke="midnightblue" d="M685.77,-56.08C691.56,-48.46 700.06,-37.26 707.14,-27.94"/>
<polygon fill="midnightblue" stroke="midnightblue" points="710.1,-29.83 713.36,-19.75 704.52,-25.6 710.1,-29.83"/>
</g>
<!-- Node15&#45;&gt;Node3 -->
<g id="edge21" class="edge">
<title>Node15&#45;&gt;Node3</title>
<path fill="none" stroke="midnightblue" d="M662.19,-286.1C701.46,-281.29 774.2,-269.53 831,-244 876.33,-223.62 922,-228.7 922,-179 922,-179 922,-179 922,-121 922,-90.9 919.72,-81.02 903,-56 894.74,-43.64 882.04,-33.04 870.82,-25.24"/>
<polygon fill="midnightblue" stroke="midnightblue" points="872.53,-22.17 862.25,-19.6 868.68,-28.02 872.53,-22.17"/>
</g>
<!-- Node15&#45;&gt;Node4 -->
<g id="edge24" class="edge">
<title>Node15&#45;&gt;Node4</title>
<path fill="none" stroke="midnightblue" d="M605.89,-283.5C569.48,-276.07 504.25,-261.69 450,-244 332.32,-205.62 303.15,-192.22 195,-132 166.45,-116.1 135.09,-95.1 115.24,-81.33"/>
<polygon fill="midnightblue" stroke="midnightblue" points="117.18,-78.42 106.98,-75.56 113.17,-84.16 117.18,-78.42"/>
</g>
<!-- Node15&#45;&gt;Node7 -->
<g id="edge22" class="edge">
<title>Node15&#45;&gt;Node7</title>
<path fill="none" stroke="midnightblue" d="M635.44,-280.12C637.25,-267.56 639.79,-243.91 637,-224 625.78,-143.89 621.46,-115.81 567,-56 555.14,-42.98 538.71,-32.16 524.75,-24.39"/>
<polygon fill="midnightblue" stroke="midnightblue" points="526.03,-21.11 515.56,-19.51 522.75,-27.3 526.03,-21.11"/>
</g>
<!-- Node15&#45;&gt;Node9 -->
<g id="edge23" class="edge">
<title>Node15&#45;&gt;Node9</title>
<path fill="none" stroke="midnightblue" d="M632.77,-280.24C628.68,-253.26 613.62,-169.82 577,-112 569.72,-100.51 558.82,-89.97 549.25,-81.98"/>
<polygon fill="midnightblue" stroke="midnightblue" points="551.31,-79.15 541.31,-75.66 546.95,-84.62 551.31,-79.15"/>
</g>
<!-- Node15&#45;&gt;Node11 -->
<g id="edge25" class="edge">
<title>Node15&#45;&gt;Node11</title>
<path fill="none" stroke="midnightblue" d="M649.78,-280.47C662.2,-272.77 678.61,-260.18 686,-244 710.35,-190.73 694.59,-118.74 684.93,-85.38"/>
<polygon fill="midnightblue" stroke="midnightblue" points="688.22,-84.18 681.95,-75.63 681.52,-86.22 688.22,-84.18"/>
</g>
<!-- Node16 -->
<g id="node16" class="node">
<title>Node16</title>
<g id="a_node16"><a xlink:title=" ">
<polygon fill="white" stroke="#bfbfbf" points="773.5,-112.5 773.5,-131.5 818.5,-131.5 818.5,-112.5 773.5,-112.5"/>
<text text-anchor="middle" x="796" y="-119.5" font-family="Helvetica,sans-Serif" font-size="10.00">utility</text>
</a>
</g>
</g>
<!-- Node15&#45;&gt;Node16 -->
<g id="edge20" class="edge">
<title>Node15&#45;&gt;Node16</title>
<path fill="none" stroke="midnightblue" d="M662.14,-286.53C713.34,-280.33 820.56,-259.07 865,-188 878.25,-166.81 851.51,-147.89 827.55,-136"/>
<polygon fill="midnightblue" stroke="midnightblue" points="828.8,-132.72 818.26,-131.65 825.83,-139.06 828.8,-132.72"/>
</g>
<!-- Node15&#45;&gt;Node17 -->
<g id="edge26" class="edge">
<title>Node15&#45;&gt;Node17</title>
<path fill="none" stroke="midnightblue" d="M605.71,-284.67C549.97,-276.15 424.63,-256.97 347,-245.1"/>
<polygon fill="midnightblue" stroke="midnightblue" points="347.26,-241.59 336.84,-243.54 346.2,-248.51 347.26,-241.59"/>
</g>
<!-- Node23 -->
<g id="node23" class="node">
<title>Node23</title>
<g id="a_node23"><a xlink:href="Callback_8hpp.html" target="_top" xlink:title=" ">
<polygon fill="white" stroke="black" points="738,-168.5 738,-187.5 856,-187.5 856,-168.5 738,-168.5"/>
<text text-anchor="middle" x="797" y="-175.5" font-family="Helvetica,sans-Serif" font-size="10.00">Models/Callback.hpp</text>
</a>
</g>
</g>
<!-- Node15&#45;&gt;Node23 -->
<g id="edge37" class="edge">
<title>Node15&#45;&gt;Node23</title>
<path fill="none" stroke="midnightblue" d="M654.87,-280.45C673.68,-272.31 701.73,-259.09 724,-244 745.37,-229.52 767.12,-209.29 781.26,-195.26"/>
<polygon fill="midnightblue" stroke="midnightblue" points="784.09,-197.38 788.64,-187.81 779.11,-192.45 784.09,-197.38"/>
</g>
<!-- Node24 -->
<g id="node24" class="node">
<title>Node24</title>
<g id="a_node24"><a xlink:href="Scene_8hpp.html" target="_top" xlink:title=" ">
<polygon fill="white" stroke="black" points="458.5,-224.5 458.5,-243.5 557.5,-243.5 557.5,-224.5 458.5,-224.5"/>
<text text-anchor="middle" x="508" y="-231.5" font-family="Helvetica,sans-Serif" font-size="10.00">Scene/Scene.hpp</text>
</a>
</g>
</g>
<!-- Node15&#45;&gt;Node24 -->
<g id="edge41" class="edge">
<title>Node15&#45;&gt;Node24</title>
<path fill="none" stroke="midnightblue" d="M614.03,-280.44C593.39,-271.6 560.94,-257.69 537.37,-247.59"/>
<polygon fill="midnightblue" stroke="midnightblue" points="538.44,-244.24 527.87,-243.52 535.68,-250.67 538.44,-244.24"/>
</g>
<!-- Node17&#45;&gt;Node2 -->
<g id="edge36" class="edge">
<title>Node17&#45;&gt;Node2</title>
<path fill="none" stroke="midnightblue" d="M267.5,-224.32C254.4,-215.9 234.29,-202.97 218.89,-193.07"/>
<polygon fill="midnightblue" stroke="midnightblue" points="220.77,-190.12 210.46,-187.65 216.98,-196.01 220.77,-190.12"/>
</g>
<!-- Node17&#45;&gt;Node6 -->
<g id="edge27" class="edge">
<title>Node17&#45;&gt;Node6</title>
<path fill="none" stroke="midnightblue" d="M278.72,-224.37C274.02,-206.54 263.15,-165.3 256.82,-141.27"/>
<polygon fill="midnightblue" stroke="midnightblue" points="260.2,-140.37 254.27,-131.59 253.43,-142.15 260.2,-140.37"/>
</g>
<!-- Node17&#45;&gt;Node18 -->
<g id="edge28" class="edge">
<title>Node17&#45;&gt;Node18</title>
<path fill="none" stroke="midnightblue" d="M300.81,-224.44C321.29,-215.6 353.48,-201.69 376.86,-191.59"/>
<polygon fill="midnightblue" stroke="midnightblue" points="378.49,-194.7 386.29,-187.52 375.72,-188.27 378.49,-194.7"/>
</g>
<!-- Node18&#45;&gt;Node5 -->
<g id="edge31" class="edge">
<title>Node18&#45;&gt;Node5</title>
<path fill="none" stroke="midnightblue" d="M361.72,-170.08C277.29,-155.99 98.02,-121.39 57,-76 45.56,-63.34 40.98,-44.13 39.16,-29.87"/>
<polygon fill="midnightblue" stroke="midnightblue" points="42.63,-29.36 38.22,-19.72 35.66,-30 42.63,-29.36"/>
</g>
<!-- Node18&#45;&gt;Node6 -->
<g id="edge35" class="edge">
<title>Node18&#45;&gt;Node6</title>
<path fill="none" stroke="midnightblue" d="M381.6,-168.44C355.8,-159.4 314.92,-145.06 285.98,-134.92"/>
<polygon fill="midnightblue" stroke="midnightblue" points="286.88,-131.52 276.29,-131.52 284.57,-138.13 286.88,-131.52"/>
</g>
<!-- Node18&#45;&gt;Node16 -->
<g id="edge33" class="edge">
<title>Node18&#45;&gt;Node16</title>
<path fill="none" stroke="midnightblue" d="M450.36,-170.86C529.55,-159.89 693.47,-137.2 763.33,-127.52"/>
<polygon fill="midnightblue" stroke="midnightblue" points="763.89,-130.98 773.32,-126.14 762.93,-124.05 763.89,-130.98"/>
</g>
<!-- Node19 -->
<g id="node19" class="node">
<title>Node19</title>
<g id="a_node19"><a xlink:title=" ">
<polygon fill="white" stroke="#bfbfbf" points="452,-112.5 452,-131.5 484,-131.5 484,-112.5 452,-112.5"/>
<text text-anchor="middle" x="468" y="-119.5" font-family="Helvetica,sans-Serif" font-size="10.00">list</text>
</a>
</g>
</g>
<!-- Node18&#45;&gt;Node19 -->
<g id="edge29" class="edge">
<title>Node18&#45;&gt;Node19</title>
<path fill="none" stroke="midnightblue" d="M415.96,-168.32C425.13,-160.34 438.94,-148.31 450.03,-138.65"/>
<polygon fill="midnightblue" stroke="midnightblue" points="452.62,-141.04 457.86,-131.83 448.02,-135.76 452.62,-141.04"/>
</g>
<!-- Node20 -->
<g id="node20" class="node">
<title>Node20</title>
<g id="a_node20"><a xlink:title=" ">
<polygon fill="white" stroke="#bfbfbf" points="318.5,-112.5 318.5,-131.5 359.5,-131.5 359.5,-112.5 318.5,-112.5"/>
<text text-anchor="middle" x="339" y="-119.5" font-family="Helvetica,sans-Serif" font-size="10.00">tuple</text>
</a>
</g>
</g>
<!-- Node18&#45;&gt;Node20 -->
<g id="edge30" class="edge">
<title>Node18&#45;&gt;Node20</title>
<path fill="none" stroke="midnightblue" d="M395.24,-168.32C385.23,-160.26 370.11,-148.08 358.07,-138.37"/>
<polygon fill="midnightblue" stroke="midnightblue" points="359.94,-135.38 349.96,-131.83 355.55,-140.83 359.94,-135.38"/>
</g>
<!-- Node21 -->
<g id="node21" class="node">
<title>Node21</title>
<g id="a_node21"><a xlink:title=" ">
<polygon fill="white" stroke="#bfbfbf" points="502.5,-112.5 502.5,-131.5 567.5,-131.5 567.5,-112.5 502.5,-112.5"/>
<text text-anchor="middle" x="535" y="-119.5" font-family="Helvetica,sans-Serif" font-size="10.00">functional</text>
</a>
</g>
</g>
<!-- Node18&#45;&gt;Node21 -->
<g id="edge32" class="edge">
<title>Node18&#45;&gt;Node21</title>
<path fill="none" stroke="midnightblue" d="M426.44,-168.44C447.67,-159.56 481.1,-145.56 505.25,-135.45"/>
<polygon fill="midnightblue" stroke="midnightblue" points="506.78,-138.61 514.66,-131.52 504.08,-132.15 506.78,-138.61"/>
</g>
<!-- Node22 -->
<g id="node22" class="node">
<title>Node22</title>
<g id="a_node22"><a xlink:title=" ">
<polygon fill="white" stroke="#bfbfbf" points="378,-112.5 378,-131.5 434,-131.5 434,-112.5 378,-112.5"/>
<text text-anchor="middle" x="406" y="-119.5" font-family="Helvetica,sans-Serif" font-size="10.00">optional</text>
</a>
</g>
</g>
<!-- Node18&#45;&gt;Node22 -->
<g id="edge34" class="edge">
<title>Node18&#45;&gt;Node22</title>
<path fill="none" stroke="midnightblue" d="M406,-168.08C406,-161.01 406,-150.86 406,-141.99"/>
<polygon fill="midnightblue" stroke="midnightblue" points="409.5,-141.75 406,-131.75 402.5,-141.75 409.5,-141.75"/>
</g>
<!-- Node23&#45;&gt;Node8 -->
<g id="edge40" class="edge">
<title>Node23&#45;&gt;Node8</title>
<path fill="none" stroke="midnightblue" d="M804.32,-168.22C811.26,-159.51 821.56,-145.54 828,-132 835.1,-117.07 840.13,-98.93 843.23,-85.61"/>
<polygon fill="midnightblue" stroke="midnightblue" points="846.67,-86.25 845.37,-75.73 839.83,-84.76 846.67,-86.25"/>
</g>
<!-- Node23&#45;&gt;Node16 -->
<g id="edge39" class="edge">
<title>Node23&#45;&gt;Node16</title>
<path fill="none" stroke="midnightblue" d="M796.83,-168.08C796.7,-161.01 796.52,-150.86 796.35,-141.99"/>
<polygon fill="midnightblue" stroke="midnightblue" points="799.85,-141.68 796.16,-131.75 792.85,-141.81 799.85,-141.68"/>
</g>
<!-- Node23&#45;&gt;Node21 -->
<g id="edge38" class="edge">
<title>Node23&#45;&gt;Node21</title>
<path fill="none" stroke="midnightblue" d="M755.49,-168.44C706.86,-158.42 626.71,-141.9 577.61,-131.78"/>
<polygon fill="midnightblue" stroke="midnightblue" points="578.13,-128.32 567.63,-129.73 576.72,-135.17 578.13,-128.32"/>
</g>
<!-- Node24&#45;&gt;Node3 -->
<g id="edge42" class="edge">
<title>Node24&#45;&gt;Node3</title>
<path fill="none" stroke="midnightblue" d="M521.65,-224.49C558.98,-201.16 665.75,-134.1 753,-76 778.66,-58.91 807.8,-38.62 826.75,-25.31"/>
<polygon fill="midnightblue" stroke="midnightblue" points="828.76,-28.17 834.92,-19.55 824.73,-22.45 828.76,-28.17"/>
</g>
<!-- Node24&#45;&gt;Node6 -->
<g id="edge46" class="edge">
<title>Node24&#45;&gt;Node6</title>
<path fill="none" stroke="midnightblue" d="M466.71,-224.45C434.79,-217.03 389.98,-204.83 353,-188 322.55,-174.14 290.6,-152.12 270.99,-137.62"/>
<polygon fill="midnightblue" stroke="midnightblue" points="272.99,-134.75 262.9,-131.54 268.79,-140.34 272.99,-134.75"/>
</g>
<!-- Node24&#45;&gt;Node18 -->
<g id="edge45" class="edge">
<title>Node24&#45;&gt;Node18</title>
<path fill="none" stroke="midnightblue" d="M491.61,-224.32C475.33,-215.7 450.13,-202.36 431.28,-192.39"/>
<polygon fill="midnightblue" stroke="midnightblue" points="432.82,-189.24 422.35,-187.65 429.55,-195.43 432.82,-189.24"/>
</g>
<!-- Node24&#45;&gt;Node19 -->
<g id="edge43" class="edge">
<title>Node24&#45;&gt;Node19</title>
<path fill="none" stroke="midnightblue" d="M504.86,-224.37C498.38,-206.54 483.38,-165.3 474.64,-141.27"/>
<polygon fill="midnightblue" stroke="midnightblue" points="477.83,-139.79 471.12,-131.59 471.25,-142.19 477.83,-139.79"/>
</g>
<!-- Node24&#45;&gt;Node21 -->
<g id="edge44" class="edge">
<title>Node24&#45;&gt;Node21</title>
<path fill="none" stroke="midnightblue" d="M510.12,-224.37C514.48,-206.62 524.53,-165.67 530.44,-141.6"/>
<polygon fill="midnightblue" stroke="midnightblue" points="533.91,-142.14 532.89,-131.59 527.11,-140.47 533.91,-142.14"/>
</g>
</g>
</svg>
