<?xml version="1.0" encoding="UTF-8" standalone="no"?>
<!DOCTYPE svg PUBLIC "-//W3C//DTD SVG 1.1//EN"
 "http://www.w3.org/Graphics/SVG/1.1/DTD/svg11.dtd">
<!-- Generated by graphviz version 2.43.0 (0)
 -->
<!-- Title: sources/Component/Tag/TagComponent.hpp Pages: 1 -->
<svg width="2724pt" height="173pt"
 viewBox="0.00 0.00 2723.50 173.00" xmlns="http://www.w3.org/2000/svg" xmlns:xlink="http://www.w3.org/1999/xlink">
<g id="graph0" class="graph" transform="scale(1 1) rotate(0) translate(4 169)">
<title>sources/Component/Tag/TagComponent.hpp</title>
<polygon fill="white" stroke="transparent" points="-4,4 -4,-169 2719.5,-169 2719.5,4 -4,4"/>
<!-- Node1 -->
<g id="node1" class="node">
<title>Node1</title>
<g id="a_node1"><a xlink:title=" ">
<polygon fill="#bfbfbf" stroke="black" points="1289.5,-134.5 1289.5,-164.5 1422.5,-164.5 1422.5,-134.5 1289.5,-134.5"/>
<text text-anchor="start" x="1297.5" y="-152.5" font-family="Helvetica,sans-Serif" font-size="10.00">sources/Component/Tag</text>
<text text-anchor="middle" x="1356" y="-141.5" font-family="Helvetica,sans-Serif" font-size="10.00">/TagComponent.hpp</text>
</a>
</g>
</g>
<!-- Node2 -->
<g id="node2" class="node">
<title>Node2</title>
<g id="a_node2"><a xlink:href="Map_8cpp.html" target="_top" xlink:title=" ">
<polygon fill="white" stroke="black" points="0,-73 0,-92 122,-92 122,-73 0,-73"/>
<text text-anchor="middle" x="61" y="-80" font-family="Helvetica,sans-Serif" font-size="10.00">sources/Map/Map.cpp</text>
</a>
</g>
</g>
<!-- Node1&#45;&gt;Node2 -->
<g id="edge1" class="edge">
<title>Node1&#45;&gt;Node2</title>
<path fill="none" stroke="midnightblue" d="M1279.23,-146.97C1047.09,-142.1 354.77,-125.6 131,-98 119.67,-96.6 107.44,-94.34 96.42,-92.01"/>
<polygon fill="midnightblue" stroke="midnightblue" points="1279.21,-150.48 1289.28,-147.18 1279.35,-143.48 1279.21,-150.48"/>
</g>
<!-- Node3 -->
<g id="node3" class="node">
<title>Node3</title>
<g id="a_node3"><a xlink:href="ParserYaml_8cpp.html" target="_top" xlink:title=" ">
<polygon fill="white" stroke="black" points="140,-73 140,-92 304,-92 304,-73 140,-73"/>
<text text-anchor="middle" x="222" y="-80" font-family="Helvetica,sans-Serif" font-size="10.00">sources/Parser/ParserYaml.cpp</text>
</a>
</g>
</g>
<!-- Node1&#45;&gt;Node3 -->
<g id="edge2" class="edge">
<title>Node1&#45;&gt;Node3</title>
<path fill="none" stroke="midnightblue" d="M1279.29,-147.66C1106.38,-145.14 673.23,-135.31 313,-98 298.68,-96.52 283.18,-94.28 269.1,-92.01"/>
<polygon fill="midnightblue" stroke="midnightblue" points="1279.26,-151.16 1289.31,-147.8 1279.36,-144.16 1279.26,-151.16"/>
</g>
<!-- Node4 -->
<g id="node4" class="node">
<title>Node4</title>
<g id="a_node4"><a xlink:href="GameScene_8cpp.html" target="_top" xlink:title=" ">
<polygon fill="white" stroke="black" points="322.5,-73 322.5,-92 495.5,-92 495.5,-73 322.5,-73"/>
<text text-anchor="middle" x="409" y="-80" font-family="Helvetica,sans-Serif" font-size="10.00">sources/Runner/GameScene.cpp</text>
</a>
</g>
</g>
<!-- Node1&#45;&gt;Node4 -->
<g id="edge3" class="edge">
<title>Node1&#45;&gt;Node4</title>
<path fill="none" stroke="midnightblue" d="M1279.27,-146.32C1129.75,-141.56 789.03,-128.13 504,-98 489.4,-96.46 473.61,-94.26 459.18,-92.04"/>
<polygon fill="midnightblue" stroke="midnightblue" points="1279.17,-149.82 1289.27,-146.64 1279.39,-142.83 1279.17,-149.82"/>
</g>
<!-- Node5 -->
<g id="node5" class="node">
<title>Node5</title>
<g id="a_node5"><a xlink:href="LobbyScene_8cpp.html" target="_top" xlink:title=" ">
<polygon fill="white" stroke="black" points="513.5,-73 513.5,-92 686.5,-92 686.5,-73 513.5,-73"/>
<text text-anchor="middle" x="600" y="-80" font-family="Helvetica,sans-Serif" font-size="10.00">sources/Runner/LobbyScene.cpp</text>
</a>
</g>
</g>
<!-- Node1&#45;&gt;Node5 -->
<g id="edge4" class="edge">
<title>Node1&#45;&gt;Node5</title>
<path fill="none" stroke="midnightblue" d="M1279.24,-144.46C1156,-137.57 906.46,-121.91 696,-98 681.6,-96.36 666.04,-94.19 651.72,-92.03"/>
<polygon fill="midnightblue" stroke="midnightblue" points="1279.15,-147.96 1289.33,-145.02 1279.54,-140.97 1279.15,-147.96"/>
</g>
<!-- Node6 -->
<g id="node6" class="node">
<title>Node6</title>
<g id="a_node6"><a xlink:href="PauseMenuScene_8cpp.html" target="_top" xlink:title=" ">
<polygon fill="white" stroke="black" points="705,-67.5 705,-97.5 855,-97.5 855,-67.5 705,-67.5"/>
<text text-anchor="start" x="713" y="-85.5" font-family="Helvetica,sans-Serif" font-size="10.00">sources/Runner/PauseMenu</text>
<text text-anchor="middle" x="780" y="-74.5" font-family="Helvetica,sans-Serif" font-size="10.00">Scene.cpp</text>
</a>
</g>
</g>
<!-- Node1&#45;&gt;Node6 -->
<g id="edge5" class="edge">
<title>Node1&#45;&gt;Node6</title>
<path fill="none" stroke="midnightblue" d="M1279.37,-142.28C1182.43,-134.02 1010.45,-118.13 864,-98 861.07,-97.6 858.08,-97.17 855.07,-96.72"/>
<polygon fill="midnightblue" stroke="midnightblue" points="1279.12,-145.77 1289.38,-143.12 1279.71,-138.79 1279.12,-145.77"/>
</g>
<!-- Node7 -->
<g id="node7" class="node">
<title>Node7</title>
<g id="a_node7"><a xlink:href="ResumeLobbyScene_8cpp.html" target="_top" xlink:title=" ">
<polygon fill="white" stroke="black" points="873,-67.5 873,-97.5 1037,-97.5 1037,-67.5 873,-67.5"/>
<text text-anchor="start" x="881" y="-85.5" font-family="Helvetica,sans-Serif" font-size="10.00">sources/Runner/ResumeLobby</text>
<text text-anchor="middle" x="955" y="-74.5" font-family="Helvetica,sans-Serif" font-size="10.00">Scene.cpp</text>
</a>
</g>
</g>
<!-- Node1&#45;&gt;Node7 -->
<g id="edge6" class="edge">
<title>Node1&#45;&gt;Node7</title>
<path fill="none" stroke="midnightblue" d="M1279.34,-136.07C1209.98,-124.83 1108.1,-108.32 1037.1,-96.81"/>
<polygon fill="midnightblue" stroke="midnightblue" points="1278.9,-139.55 1289.33,-137.69 1280.02,-132.64 1278.9,-139.55"/>
</g>
<!-- Node8 -->
<g id="node8" class="node">
<title>Node8</title>
<g id="a_node8"><a xlink:href="Runner_8cpp.html" target="_top" xlink:title=" ">
<polygon fill="white" stroke="black" points="1707.5,-6 1707.5,-25 1856.5,-25 1856.5,-6 1707.5,-6"/>
<text text-anchor="middle" x="1782" y="-13" font-family="Helvetica,sans-Serif" font-size="10.00">sources/Runner/Runner.cpp</text>
</a>
</g>
</g>
<!-- Node1&#45;&gt;Node8 -->
<g id="edge7" class="edge">
<title>Node1&#45;&gt;Node8</title>
<path fill="none" stroke="midnightblue" d="M1279.21,-148.31C1179.31,-145.57 1024.19,-131.29 1084,-67 1125.76,-22.1 1535.71,-16.61 1707.19,-16.3"/>
<polygon fill="midnightblue" stroke="midnightblue" points="1279.22,-151.81 1289.3,-148.55 1279.39,-144.81 1279.22,-151.81"/>
</g>
<!-- Node9 -->
<g id="node9" class="node">
<title>Node9</title>
<g id="a_node9"><a xlink:href="ScoreScene_8cpp.html" target="_top" xlink:title=" ">
<polygon fill="white" stroke="black" points="1093.5,-73 1093.5,-92 1264.5,-92 1264.5,-73 1093.5,-73"/>
<text text-anchor="middle" x="1179" y="-80" font-family="Helvetica,sans-Serif" font-size="10.00">sources/Runner/ScoreScene.cpp</text>
</a>
</g>
</g>
<!-- Node1&#45;&gt;Node9 -->
<g id="edge8" class="edge">
<title>Node1&#45;&gt;Node9</title>
<path fill="none" stroke="midnightblue" d="M1308.2,-130.95C1273.82,-118.32 1228.97,-101.85 1202.17,-92.01"/>
<polygon fill="midnightblue" stroke="midnightblue" points="1307,-134.23 1317.59,-134.4 1309.41,-127.66 1307,-134.23"/>
</g>
<!-- Node10 -->
<g id="node10" class="node">
<title>Node10</title>
<g id="a_node10"><a xlink:href="AnimationsSystem_8cpp.html" target="_top" xlink:title=" ">
<polygon fill="white" stroke="black" points="1282.5,-67.5 1282.5,-97.5 1429.5,-97.5 1429.5,-67.5 1282.5,-67.5"/>
<text text-anchor="start" x="1290.5" y="-85.5" font-family="Helvetica,sans-Serif" font-size="10.00">sources/System/Animation</text>
<text text-anchor="middle" x="1356" y="-74.5" font-family="Helvetica,sans-Serif" font-size="10.00">/AnimationsSystem.cpp</text>
</a>
</g>
</g>
<!-- Node1&#45;&gt;Node10 -->
<g id="edge9" class="edge">
<title>Node1&#45;&gt;Node10</title>
<path fill="none" stroke="midnightblue" d="M1356,-124.11C1356,-115.15 1356,-105.32 1356,-97.58"/>
<polygon fill="midnightblue" stroke="midnightblue" points="1352.5,-124.4 1356,-134.4 1359.5,-124.4 1352.5,-124.4"/>
</g>
<!-- Node11 -->
<g id="node11" class="node">
<title>Node11</title>
<g id="a_node11"><a xlink:href="BombHolderSystem_8cpp.html" target="_top" xlink:title=" ">
<polygon fill="white" stroke="black" points="1448,-67.5 1448,-97.5 1606,-97.5 1606,-67.5 1448,-67.5"/>
<text text-anchor="start" x="1456" y="-85.5" font-family="Helvetica,sans-Serif" font-size="10.00">sources/System/BombHolder</text>
<text text-anchor="middle" x="1527" y="-74.5" font-family="Helvetica,sans-Serif" font-size="10.00">/BombHolderSystem.cpp</text>
</a>
</g>
</g>
<!-- Node1&#45;&gt;Node11 -->
<g id="edge10" class="edge">
<title>Node1&#45;&gt;Node11</title>
<path fill="none" stroke="midnightblue" d="M1402.52,-130.82C1430,-120.37 1464.33,-107.32 1489.97,-97.58"/>
<polygon fill="midnightblue" stroke="midnightblue" points="1401.21,-127.57 1393.1,-134.4 1403.7,-134.11 1401.21,-127.57"/>
</g>
<!-- Node12 -->
<g id="node12" class="node">
<title>Node12</title>
<g id="a_node12"><a xlink:href="PlayerBonusSystem_8cpp.html" target="_top" xlink:title=" ">
<polygon fill="white" stroke="black" points="1624.5,-67.5 1624.5,-97.5 1761.5,-97.5 1761.5,-67.5 1624.5,-67.5"/>
<text text-anchor="start" x="1632.5" y="-85.5" font-family="Helvetica,sans-Serif" font-size="10.00">sources/System/Bonus</text>
<text text-anchor="middle" x="1693" y="-74.5" font-family="Helvetica,sans-Serif" font-size="10.00">/PlayerBonusSystem.cpp</text>
</a>
</g>
</g>
<!-- Node1&#45;&gt;Node12 -->
<g id="edge11" class="edge">
<title>Node1&#45;&gt;Node12</title>
<path fill="none" stroke="midnightblue" d="M1432.73,-133.7C1490.37,-122.58 1568.63,-107.49 1624.24,-96.76"/>
<polygon fill="midnightblue" stroke="midnightblue" points="1431.74,-130.33 1422.58,-135.66 1433.06,-137.2 1431.74,-130.33"/>
</g>
<!-- Node13 -->
<g id="node13" class="node">
<title>Node13</title>
<g id="a_node13"><a xlink:href="IAControllableSystem_8cpp.html" target="_top" xlink:title=" ">
<polygon fill="white" stroke="black" points="1780,-67.5 1780,-97.5 1946,-97.5 1946,-67.5 1780,-67.5"/>
<text text-anchor="start" x="1788" y="-85.5" font-family="Helvetica,sans-Serif" font-size="10.00">sources/System/IAControllable</text>
<text text-anchor="middle" x="1863" y="-74.5" font-family="Helvetica,sans-Serif" font-size="10.00">/IAControllableSystem.cpp</text>
</a>
</g>
</g>
<!-- Node1&#45;&gt;Node13 -->
<g id="edge12" class="edge">
<title>Node1&#45;&gt;Node13</title>
<path fill="none" stroke="midnightblue" d="M1432.9,-139.9C1516.1,-130.4 1652.61,-114.31 1770,-98 1773.24,-97.55 1776.54,-97.08 1779.87,-96.6"/>
<polygon fill="midnightblue" stroke="midnightblue" points="1432.31,-136.44 1422.77,-141.05 1433.1,-143.39 1432.31,-136.44"/>
</g>
<!-- Node14 -->
<g id="node14" class="node">
<title>Node14</title>
<g id="a_node14"><a xlink:href="LobbySystem_8cpp.html" target="_top" xlink:title=" ">
<polygon fill="white" stroke="black" points="1964,-67.5 1964,-97.5 2090,-97.5 2090,-67.5 1964,-67.5"/>
<text text-anchor="start" x="1972" y="-85.5" font-family="Helvetica,sans-Serif" font-size="10.00">sources/System/Lobby</text>
<text text-anchor="middle" x="2027" y="-74.5" font-family="Helvetica,sans-Serif" font-size="10.00">/LobbySystem.cpp</text>
</a>
</g>
</g>
<!-- Node1&#45;&gt;Node14 -->
<g id="edge13" class="edge">
<title>Node1&#45;&gt;Node14</title>
<path fill="none" stroke="midnightblue" d="M1432.81,-144.85C1547.09,-138.77 1768.45,-124.56 1955,-98 1957.9,-97.59 1960.87,-97.13 1963.85,-96.64"/>
<polygon fill="midnightblue" stroke="midnightblue" points="1432.56,-141.35 1422.76,-145.37 1432.93,-148.35 1432.56,-141.35"/>
</g>
<!-- Node15 -->
<g id="node15" class="node">
<title>Node15</title>
<g id="a_node15"><a xlink:href="ResumeLobbySystem_8cpp.html" target="_top" xlink:title=" ">
<polygon fill="white" stroke="black" points="2108,-67.5 2108,-97.5 2254,-97.5 2254,-67.5 2108,-67.5"/>
<text text-anchor="start" x="2116" y="-85.5" font-family="Helvetica,sans-Serif" font-size="10.00">sources/System/Lobby</text>
<text text-anchor="middle" x="2181" y="-74.5" font-family="Helvetica,sans-Serif" font-size="10.00">/ResumeLobbySystem.cpp</text>
</a>
</g>
</g>
<!-- Node1&#45;&gt;Node15 -->
<g id="edge14" class="edge">
<title>Node1&#45;&gt;Node15</title>
<path fill="none" stroke="midnightblue" d="M1432.82,-145.99C1567.95,-140.98 1856.81,-127.56 2099,-98 2101.87,-97.65 2104.79,-97.27 2107.74,-96.86"/>
<polygon fill="midnightblue" stroke="midnightblue" points="1432.44,-142.5 1422.58,-146.37 1432.7,-149.5 1432.44,-142.5"/>
</g>
<!-- Node16 -->
<g id="node16" class="node">
<title>Node16</title>
<g id="a_node16"><a xlink:href="CameraSystem_8cpp.html" target="_top" xlink:title=" ">
<polygon fill="white" stroke="black" points="2272.5,-67.5 2272.5,-97.5 2413.5,-97.5 2413.5,-67.5 2272.5,-67.5"/>
<text text-anchor="start" x="2280.5" y="-85.5" font-family="Helvetica,sans-Serif" font-size="10.00">sources/System/Renderer</text>
<text text-anchor="middle" x="2343" y="-74.5" font-family="Helvetica,sans-Serif" font-size="10.00">/CameraSystem.cpp</text>
</a>
</g>
</g>
<!-- Node1&#45;&gt;Node16 -->
<g id="edge15" class="edge">
<title>Node1&#45;&gt;Node16</title>
<path fill="none" stroke="midnightblue" d="M1432.53,-147.43C1589.01,-144.54 1956.68,-134.15 2263,-98 2266.08,-97.64 2269.23,-97.23 2272.4,-96.78"/>
<polygon fill="midnightblue" stroke="midnightblue" points="1432.47,-143.93 1422.53,-147.61 1432.59,-150.93 1432.47,-143.93"/>
</g>
<!-- Node17 -->
<g id="node17" class="node">
<title>Node17</title>
<g id="a_node17"><a xlink:href="RenderSystem_8cpp.html" target="_top" xlink:title=" ">
<polygon fill="white" stroke="black" points="2431.5,-67.5 2431.5,-97.5 2572.5,-97.5 2572.5,-67.5 2431.5,-67.5"/>
<text text-anchor="start" x="2439.5" y="-85.5" font-family="Helvetica,sans-Serif" font-size="10.00">sources/System/Renderer</text>
<text text-anchor="middle" x="2502" y="-74.5" font-family="Helvetica,sans-Serif" font-size="10.00">/RenderSystem.cpp</text>
</a>
</g>
</g>
<!-- Node1&#45;&gt;Node17 -->
<g id="edge16" class="edge">
<title>Node1&#45;&gt;Node17</title>
<path fill="none" stroke="midnightblue" d="M1432.85,-148.33C1608.59,-147.18 2053.12,-139.98 2422,-98 2425.09,-97.65 2428.23,-97.25 2431.4,-96.82"/>
<polygon fill="midnightblue" stroke="midnightblue" points="1432.65,-144.83 1422.67,-148.39 1432.69,-151.83 1432.65,-144.83"/>
</g>
<!-- Node18 -->
<g id="node18" class="node">
<title>Node18</title>
<g id="a_node18"><a xlink:href="TimerUISystem_8hpp.html" target="_top" xlink:title=" ">
<polygon fill="white" stroke="black" points="2590.5,-67.5 2590.5,-97.5 2715.5,-97.5 2715.5,-67.5 2590.5,-67.5"/>
<text text-anchor="start" x="2598.5" y="-85.5" font-family="Helvetica,sans-Serif" font-size="10.00">sources/System/Timer</text>
<text text-anchor="middle" x="2653" y="-74.5" font-family="Helvetica,sans-Serif" font-size="10.00">/TimerUISystem.hpp</text>
</a>
</g>
</g>
<!-- Node1&#45;&gt;Node18 -->
<g id="edge17" class="edge">
<title>Node1&#45;&gt;Node18</title>
<path fill="none" stroke="midnightblue" d="M1432.83,-146.95C1665.15,-142 2358.01,-125.31 2582,-98 2584.75,-97.67 2587.55,-97.28 2590.37,-96.86"/>
<polygon fill="midnightblue" stroke="midnightblue" points="1432.7,-143.45 1422.78,-147.16 1432.85,-150.45 1432.7,-143.45"/>
</g>
<!-- Node18&#45;&gt;Node8 -->
<g id="edge18" class="edge">
<title>Node18&#45;&gt;Node8</title>
<path fill="none" stroke="midnightblue" d="M2580.32,-66.89C2308.87,-31.44 1996.6,-20.9 1856.51,-17.77"/>
<polygon fill="midnightblue" stroke="midnightblue" points="2579.99,-70.38 2590.36,-68.22 2580.9,-63.44 2579.99,-70.38"/>
</g>
<!-- Node19 -->
<g id="node19" class="node">
<title>Node19</title>
<g id="a_node19"><a xlink:href="TimerUISystem_8cpp.html" target="_top" xlink:title=" ">
<polygon fill="white" stroke="black" points="2590.5,-0.5 2590.5,-30.5 2715.5,-30.5 2715.5,-0.5 2590.5,-0.5"/>
<text text-anchor="start" x="2598.5" y="-18.5" font-family="Helvetica,sans-Serif" font-size="10.00">sources/System/Timer</text>
<text text-anchor="middle" x="2653" y="-7.5" font-family="Helvetica,sans-Serif" font-size="10.00">/TimerUISystem.cpp</text>
</a>
</g>
</g>
<!-- Node18&#45;&gt;Node19 -->
<g id="edge19" class="edge">
<title>Node18&#45;&gt;Node19</title>
<path fill="none" stroke="midnightblue" d="M2653,-57.11C2653,-48.15 2653,-38.32 2653,-30.58"/>
<polygon fill="midnightblue" stroke="midnightblue" points="2649.5,-57.4 2653,-67.4 2656.5,-57.4 2649.5,-57.4"/>
</g>
</g>
</svg>
