<?xml version="1.0" encoding="UTF-8" standalone="no"?>
<!DOCTYPE svg PUBLIC "-//W3C//DTD SVG 1.1//EN"
 "http://www.w3.org/Graphics/SVG/1.1/DTD/svg11.dtd">
<!-- Generated by graphviz version 2.43.0 (0)
 -->
<!-- Title: lib/Ray/sources/Drawables/2D/Text.hpp Pages: 1 -->
<svg width="3119pt" height="106pt"
 viewBox="0.00 0.00 3118.50 106.00" xmlns="http://www.w3.org/2000/svg" xmlns:xlink="http://www.w3.org/1999/xlink">
<g id="graph0" class="graph" transform="scale(1 1) rotate(0) translate(4 102)">
<title>lib/Ray/sources/Drawables/2D/Text.hpp</title>
<polygon fill="white" stroke="transparent" points="-4,4 -4,-102 3114.5,-102 3114.5,4 -4,4"/>
<!-- Node1 -->
<g id="node1" class="node">
<title>Node1</title>
<g id="a_node1"><a xlink:title=" ">
<polygon fill="#bfbfbf" stroke="black" points="1562,-67.5 1562,-97.5 1708,-97.5 1708,-67.5 1562,-67.5"/>
<text text-anchor="start" x="1570" y="-85.5" font-family="Helvetica,sans-Serif" font-size="10.00">lib/Ray/sources/Drawables</text>
<text text-anchor="middle" x="1635" y="-74.5" font-family="Helvetica,sans-Serif" font-size="10.00">/2D/Text.hpp</text>
</a>
</g>
</g>
<!-- Node2 -->
<g id="node2" class="node">
<title>Node2</title>
<g id="a_node2"><a xlink:href="Text_8cpp.html" target="_top" xlink:title=" ">
<polygon fill="white" stroke="black" points="0,-0.5 0,-30.5 146,-30.5 146,-0.5 0,-0.5"/>
<text text-anchor="start" x="8" y="-18.5" font-family="Helvetica,sans-Serif" font-size="10.00">lib/Ray/sources/Drawables</text>
<text text-anchor="middle" x="73" y="-7.5" font-family="Helvetica,sans-Serif" font-size="10.00">/2D/Text.cpp</text>
</a>
</g>
</g>
<!-- Node1&#45;&gt;Node2 -->
<g id="edge1" class="edge">
<title>Node1&#45;&gt;Node2</title>
<path fill="none" stroke="midnightblue" d="M1551.59,-80.2C1280.93,-75.75 428.9,-59.75 155,-31 152.12,-30.7 149.2,-30.36 146.25,-29.98"/>
<polygon fill="midnightblue" stroke="midnightblue" points="1551.68,-83.7 1561.74,-80.37 1551.79,-76.7 1551.68,-83.7"/>
</g>
<!-- Node3 -->
<g id="node3" class="node">
<title>Node3</title>
<g id="a_node3"><a xlink:href="CreditScene_8cpp.html" target="_top" xlink:title=" ">
<polygon fill="white" stroke="black" points="164.5,-6 164.5,-25 337.5,-25 337.5,-6 164.5,-6"/>
<text text-anchor="middle" x="251" y="-13" font-family="Helvetica,sans-Serif" font-size="10.00">sources/Runner/CreditScene.cpp</text>
</a>
</g>
</g>
<!-- Node1&#45;&gt;Node3 -->
<g id="edge2" class="edge">
<title>Node1&#45;&gt;Node3</title>
<path fill="none" stroke="midnightblue" d="M1551.73,-81.42C1346.52,-80.54 800.23,-73.98 347,-31 331.73,-29.55 315.19,-27.3 300.2,-25"/>
<polygon fill="midnightblue" stroke="midnightblue" points="1551.82,-84.92 1561.83,-81.46 1551.84,-77.92 1551.82,-84.92"/>
</g>
<!-- Node4 -->
<g id="node4" class="node">
<title>Node4</title>
<g id="a_node4"><a xlink:href="HowToPlayScene_8cpp.html" target="_top" xlink:title=" ">
<polygon fill="white" stroke="black" points="356,-0.5 356,-30.5 504,-30.5 504,-0.5 356,-0.5"/>
<text text-anchor="start" x="364" y="-18.5" font-family="Helvetica,sans-Serif" font-size="10.00">sources/Runner/HowToPlay</text>
<text text-anchor="middle" x="430" y="-7.5" font-family="Helvetica,sans-Serif" font-size="10.00">Scene.cpp</text>
</a>
</g>
</g>
<!-- Node1&#45;&gt;Node4 -->
<g id="edge3" class="edge">
<title>Node1&#45;&gt;Node4</title>
<path fill="none" stroke="midnightblue" d="M1551.89,-81.39C1365.45,-80.35 899.85,-73.32 513,-31 510.09,-30.68 507.13,-30.32 504.14,-29.94"/>
<polygon fill="midnightblue" stroke="midnightblue" points="1551.88,-84.89 1561.9,-81.44 1551.92,-77.89 1551.88,-84.89"/>
</g>
<!-- Node5 -->
<g id="node5" class="node">
<title>Node5</title>
<g id="a_node5"><a xlink:href="LobbyScene_8cpp.html" target="_top" xlink:title=" ">
<polygon fill="white" stroke="black" points="522.5,-6 522.5,-25 695.5,-25 695.5,-6 522.5,-6"/>
<text text-anchor="middle" x="609" y="-13" font-family="Helvetica,sans-Serif" font-size="10.00">sources/Runner/LobbyScene.cpp</text>
</a>
</g>
</g>
<!-- Node1&#45;&gt;Node5 -->
<g id="edge4" class="edge">
<title>Node1&#45;&gt;Node5</title>
<path fill="none" stroke="midnightblue" d="M1551.34,-79.69C1388.04,-75.55 1015.57,-63.15 704,-31 689.23,-29.48 673.25,-27.26 658.68,-25.02"/>
<polygon fill="midnightblue" stroke="midnightblue" points="1551.7,-83.2 1561.79,-79.95 1551.88,-76.2 1551.7,-83.2"/>
</g>
<!-- Node6 -->
<g id="node6" class="node">
<title>Node6</title>
<g id="a_node6"><a xlink:href="MainMenuScene_8cpp.html" target="_top" xlink:title=" ">
<polygon fill="white" stroke="black" points="713.5,-6 713.5,-25 908.5,-25 908.5,-6 713.5,-6"/>
<text text-anchor="middle" x="811" y="-13" font-family="Helvetica,sans-Serif" font-size="10.00">sources/Runner/MainMenuScene.cpp</text>
</a>
</g>
</g>
<!-- Node1&#45;&gt;Node6 -->
<g id="edge5" class="edge">
<title>Node1&#45;&gt;Node6</title>
<path fill="none" stroke="midnightblue" d="M1551.81,-77.43C1417.88,-70.47 1146.26,-54.72 917,-31 901.11,-29.36 883.93,-27.18 868.13,-25.02"/>
<polygon fill="midnightblue" stroke="midnightblue" points="1551.82,-80.93 1561.99,-77.95 1552.18,-73.94 1551.82,-80.93"/>
</g>
<!-- Node7 -->
<g id="node7" class="node">
<title>Node7</title>
<g id="a_node7"><a xlink:href="PauseMenuScene_8cpp.html" target="_top" xlink:title=" ">
<polygon fill="white" stroke="black" points="926,-0.5 926,-30.5 1076,-30.5 1076,-0.5 926,-0.5"/>
<text text-anchor="start" x="934" y="-18.5" font-family="Helvetica,sans-Serif" font-size="10.00">sources/Runner/PauseMenu</text>
<text text-anchor="middle" x="1001" y="-7.5" font-family="Helvetica,sans-Serif" font-size="10.00">Scene.cpp</text>
</a>
</g>
</g>
<!-- Node1&#45;&gt;Node7 -->
<g id="edge6" class="edge">
<title>Node1&#45;&gt;Node7</title>
<path fill="none" stroke="midnightblue" d="M1551.67,-75.92C1443.72,-68.21 1249.85,-52.76 1085,-31 1082.07,-30.61 1079.08,-30.2 1076.06,-29.76"/>
<polygon fill="midnightblue" stroke="midnightblue" points="1551.62,-79.42 1561.84,-76.64 1552.11,-72.44 1551.62,-79.42"/>
</g>
<!-- Node8 -->
<g id="node8" class="node">
<title>Node8</title>
<g id="a_node8"><a xlink:href="ResumeLobbyScene_8cpp.html" target="_top" xlink:title=" ">
<polygon fill="white" stroke="black" points="1094,-0.5 1094,-30.5 1258,-30.5 1258,-0.5 1094,-0.5"/>
<text text-anchor="start" x="1102" y="-18.5" font-family="Helvetica,sans-Serif" font-size="10.00">sources/Runner/ResumeLobby</text>
<text text-anchor="middle" x="1176" y="-7.5" font-family="Helvetica,sans-Serif" font-size="10.00">Scene.cpp</text>
</a>
</g>
</g>
<!-- Node1&#45;&gt;Node8 -->
<g id="edge7" class="edge">
<title>Node1&#45;&gt;Node8</title>
<path fill="none" stroke="midnightblue" d="M1551.69,-70.59C1477.06,-60.69 1364.63,-45.48 1267,-31 1264.15,-30.58 1261.25,-30.14 1258.33,-29.7"/>
<polygon fill="midnightblue" stroke="midnightblue" points="1551.6,-74.11 1561.97,-71.95 1552.52,-67.17 1551.6,-74.11"/>
</g>
<!-- Node9 -->
<g id="node9" class="node">
<title>Node9</title>
<g id="a_node9"><a xlink:href="ScoreScene_8cpp.html" target="_top" xlink:title=" ">
<polygon fill="white" stroke="black" points="1276.5,-6 1276.5,-25 1447.5,-25 1447.5,-6 1276.5,-6"/>
<text text-anchor="middle" x="1362" y="-13" font-family="Helvetica,sans-Serif" font-size="10.00">sources/Runner/ScoreScene.cpp</text>
</a>
</g>
</g>
<!-- Node1&#45;&gt;Node9 -->
<g id="edge8" class="edge">
<title>Node1&#45;&gt;Node9</title>
<path fill="none" stroke="midnightblue" d="M1566.33,-65.15C1512.76,-52.39 1440.5,-35.19 1397.82,-25.03"/>
<polygon fill="midnightblue" stroke="midnightblue" points="1565.56,-68.56 1576.1,-67.48 1567.18,-61.75 1565.56,-68.56"/>
</g>
<!-- Node10 -->
<g id="node10" class="node">
<title>Node10</title>
<g id="a_node10"><a xlink:href="SettingsMenuScene_8cpp.html" target="_top" xlink:title=" ">
<polygon fill="white" stroke="black" points="1465.5,-0.5 1465.5,-30.5 1626.5,-30.5 1626.5,-0.5 1465.5,-0.5"/>
<text text-anchor="start" x="1473.5" y="-18.5" font-family="Helvetica,sans-Serif" font-size="10.00">sources/Runner/SettingsMenu</text>
<text text-anchor="middle" x="1546" y="-7.5" font-family="Helvetica,sans-Serif" font-size="10.00">Scene.cpp</text>
</a>
</g>
</g>
<!-- Node1&#45;&gt;Node10 -->
<g id="edge9" class="edge">
<title>Node1&#45;&gt;Node10</title>
<path fill="none" stroke="midnightblue" d="M1607.55,-61.45C1593.86,-51.45 1577.63,-39.6 1565.27,-30.58"/>
<polygon fill="midnightblue" stroke="midnightblue" points="1605.55,-64.32 1615.69,-67.4 1609.68,-58.67 1605.55,-64.32"/>
</g>
<!-- Node11 -->
<g id="node11" class="node">
<title>Node11</title>
<g id="a_node11"><a xlink:href="SplashScreenScene_8cpp.html" target="_top" xlink:title=" ">
<polygon fill="white" stroke="black" points="1645,-0.5 1645,-30.5 1805,-30.5 1805,-0.5 1645,-0.5"/>
<text text-anchor="start" x="1653" y="-18.5" font-family="Helvetica,sans-Serif" font-size="10.00">sources/Runner/SplashScreen</text>
<text text-anchor="middle" x="1725" y="-7.5" font-family="Helvetica,sans-Serif" font-size="10.00">Scene.cpp</text>
</a>
</g>
</g>
<!-- Node1&#45;&gt;Node11 -->
<g id="edge10" class="edge">
<title>Node1&#45;&gt;Node11</title>
<path fill="none" stroke="midnightblue" d="M1662.76,-61.45C1676.61,-51.45 1693.02,-39.6 1705.51,-30.58"/>
<polygon fill="midnightblue" stroke="midnightblue" points="1660.59,-58.7 1654.53,-67.4 1664.68,-64.38 1660.59,-58.7"/>
</g>
<!-- Node12 -->
<g id="node12" class="node">
<title>Node12</title>
<g id="a_node12"><a xlink:href="TitleScreenScene_8cpp.html" target="_top" xlink:title=" ">
<polygon fill="white" stroke="black" points="1823.5,-0.5 1823.5,-30.5 1972.5,-30.5 1972.5,-0.5 1823.5,-0.5"/>
<text text-anchor="start" x="1831.5" y="-18.5" font-family="Helvetica,sans-Serif" font-size="10.00">sources/Runner/TitleScreen</text>
<text text-anchor="middle" x="1898" y="-7.5" font-family="Helvetica,sans-Serif" font-size="10.00">Scene.cpp</text>
</a>
</g>
</g>
<!-- Node1&#45;&gt;Node12 -->
<g id="edge11" class="edge">
<title>Node1&#45;&gt;Node12</title>
<path fill="none" stroke="midnightblue" d="M1701.55,-65.05C1744.55,-54.43 1799.92,-40.74 1840.91,-30.61"/>
<polygon fill="midnightblue" stroke="midnightblue" points="1700.61,-61.68 1691.74,-67.48 1702.29,-68.47 1700.61,-61.68"/>
</g>
<!-- Node13 -->
<g id="node13" class="node">
<title>Node13</title>
<g id="a_node13"><a xlink:href="IntroAnimationSystem_8cpp.html" target="_top" xlink:title=" ">
<polygon fill="white" stroke="black" points="1991,-0.5 1991,-30.5 2161,-30.5 2161,-0.5 1991,-0.5"/>
<text text-anchor="start" x="1999" y="-18.5" font-family="Helvetica,sans-Serif" font-size="10.00">sources/System/IntroAnimation</text>
<text text-anchor="middle" x="2076" y="-7.5" font-family="Helvetica,sans-Serif" font-size="10.00">/IntroAnimationSystem.cpp</text>
</a>
</g>
</g>
<!-- Node1&#45;&gt;Node13 -->
<g id="edge12" class="edge">
<title>Node1&#45;&gt;Node13</title>
<path fill="none" stroke="midnightblue" d="M1718.27,-69.59C1788.58,-59.48 1891.91,-44.5 1982,-31 1984.94,-30.56 1987.93,-30.11 1990.95,-29.65"/>
<polygon fill="midnightblue" stroke="midnightblue" points="1717.54,-66.15 1708.14,-71.04 1718.53,-73.08 1717.54,-66.15"/>
</g>
<!-- Node14 -->
<g id="node14" class="node">
<title>Node14</title>
<g id="a_node14"><a xlink:href="LobbySystem_8cpp.html" target="_top" xlink:title=" ">
<polygon fill="white" stroke="black" points="2179,-0.5 2179,-30.5 2305,-30.5 2305,-0.5 2179,-0.5"/>
<text text-anchor="start" x="2187" y="-18.5" font-family="Helvetica,sans-Serif" font-size="10.00">sources/System/Lobby</text>
<text text-anchor="middle" x="2242" y="-7.5" font-family="Helvetica,sans-Serif" font-size="10.00">/LobbySystem.cpp</text>
</a>
</g>
</g>
<!-- Node1&#45;&gt;Node14 -->
<g id="edge13" class="edge">
<title>Node1&#45;&gt;Node14</title>
<path fill="none" stroke="midnightblue" d="M1718.69,-76.32C1824.27,-69.16 2011.23,-54.42 2170,-31 2172.9,-30.57 2175.86,-30.1 2178.85,-29.61"/>
<polygon fill="midnightblue" stroke="midnightblue" points="1718.16,-72.85 1708.41,-77.01 1718.63,-79.83 1718.16,-72.85"/>
</g>
<!-- Node15 -->
<g id="node15" class="node">
<title>Node15</title>
<g id="a_node15"><a xlink:href="MenuControllableSystem_8cpp.html" target="_top" xlink:title=" ">
<polygon fill="white" stroke="black" points="2323.5,-0.5 2323.5,-30.5 2506.5,-30.5 2506.5,-0.5 2323.5,-0.5"/>
<text text-anchor="start" x="2331.5" y="-18.5" font-family="Helvetica,sans-Serif" font-size="10.00">sources/System/MenuControllable</text>
<text text-anchor="middle" x="2415" y="-7.5" font-family="Helvetica,sans-Serif" font-size="10.00">/MenuControllableSystem.cpp</text>
</a>
</g>
</g>
<!-- Node1&#45;&gt;Node15 -->
<g id="edge14" class="edge">
<title>Node1&#45;&gt;Node15</title>
<path fill="none" stroke="midnightblue" d="M1718.65,-77.12C1846.97,-69.99 2100.04,-54.29 2314,-31 2317.08,-30.66 2320.21,-30.31 2323.38,-29.93"/>
<polygon fill="midnightblue" stroke="midnightblue" points="1718.29,-73.64 1708.5,-77.68 1718.68,-80.63 1718.29,-73.64"/>
</g>
<!-- Node16 -->
<g id="node16" class="node">
<title>Node16</title>
<g id="a_node16"><a xlink:href="CameraSystem_8cpp.html" target="_top" xlink:title=" ">
<polygon fill="white" stroke="black" points="2524.5,-0.5 2524.5,-30.5 2665.5,-30.5 2665.5,-0.5 2524.5,-0.5"/>
<text text-anchor="start" x="2532.5" y="-18.5" font-family="Helvetica,sans-Serif" font-size="10.00">sources/System/Renderer</text>
<text text-anchor="middle" x="2595" y="-7.5" font-family="Helvetica,sans-Serif" font-size="10.00">/CameraSystem.cpp</text>
</a>
</g>
</g>
<!-- Node1&#45;&gt;Node16 -->
<g id="edge15" class="edge">
<title>Node1&#45;&gt;Node16</title>
<path fill="none" stroke="midnightblue" d="M1718.11,-80.17C1874.73,-76.91 2224.08,-66.02 2516,-31 2518.77,-30.67 2521.59,-30.3 2524.43,-29.9"/>
<polygon fill="midnightblue" stroke="midnightblue" points="1718,-76.68 1708.08,-80.38 1718.15,-83.67 1718,-76.68"/>
</g>
<!-- Node17 -->
<g id="node17" class="node">
<title>Node17</title>
<g id="a_node17"><a xlink:href="RenderSystem_8cpp.html" target="_top" xlink:title=" ">
<polygon fill="white" stroke="black" points="2683.5,-0.5 2683.5,-30.5 2824.5,-30.5 2824.5,-0.5 2683.5,-0.5"/>
<text text-anchor="start" x="2691.5" y="-18.5" font-family="Helvetica,sans-Serif" font-size="10.00">sources/System/Renderer</text>
<text text-anchor="middle" x="2754" y="-7.5" font-family="Helvetica,sans-Serif" font-size="10.00">/RenderSystem.cpp</text>
</a>
</g>
</g>
<!-- Node1&#45;&gt;Node17 -->
<g id="edge16" class="edge">
<title>Node1&#45;&gt;Node17</title>
<path fill="none" stroke="midnightblue" d="M1718.09,-81.21C1894.8,-79.77 2320.71,-71.93 2675,-31 2677.77,-30.68 2680.59,-30.32 2683.43,-29.93"/>
<polygon fill="midnightblue" stroke="midnightblue" points="1718.06,-77.71 1708.09,-81.29 1718.11,-84.71 1718.06,-77.71"/>
</g>
<!-- Node18 -->
<g id="node18" class="node">
<title>Node18</title>
<g id="a_node18"><a xlink:href="TimerSystem_8cpp.html" target="_top" xlink:title=" ">
<polygon fill="white" stroke="black" points="2842.5,-0.5 2842.5,-30.5 2967.5,-30.5 2967.5,-0.5 2842.5,-0.5"/>
<text text-anchor="start" x="2850.5" y="-18.5" font-family="Helvetica,sans-Serif" font-size="10.00">sources/System/Timer</text>
<text text-anchor="middle" x="2905" y="-7.5" font-family="Helvetica,sans-Serif" font-size="10.00">/TimerSystem.cpp</text>
</a>
</g>
</g>
<!-- Node1&#45;&gt;Node18 -->
<g id="edge17" class="edge">
<title>Node1&#45;&gt;Node18</title>
<path fill="none" stroke="midnightblue" d="M1718.24,-79.72C1953.04,-74.43 2617.49,-57.5 2834,-31 2836.75,-30.66 2839.55,-30.28 2842.37,-29.85"/>
<polygon fill="midnightblue" stroke="midnightblue" points="1717.98,-76.23 1708.06,-79.95 1718.14,-83.23 1717.98,-76.23"/>
</g>
<!-- Node19 -->
<g id="node19" class="node">
<title>Node19</title>
<g id="a_node19"><a xlink:href="TimerUISystem_8cpp.html" target="_top" xlink:title=" ">
<polygon fill="white" stroke="black" points="2985.5,-0.5 2985.5,-30.5 3110.5,-30.5 3110.5,-0.5 2985.5,-0.5"/>
<text text-anchor="start" x="2993.5" y="-18.5" font-family="Helvetica,sans-Serif" font-size="10.00">sources/System/Timer</text>
<text text-anchor="middle" x="3048" y="-7.5" font-family="Helvetica,sans-Serif" font-size="10.00">/TimerUISystem.cpp</text>
</a>
</g>
</g>
<!-- Node1&#45;&gt;Node19 -->
<g id="edge18" class="edge">
<title>Node1&#45;&gt;Node19</title>
<path fill="none" stroke="midnightblue" d="M1718.34,-80.15C1971.89,-75.77 2731.55,-60.48 2977,-31 2979.75,-30.67 2982.55,-30.29 2985.37,-29.87"/>
<polygon fill="midnightblue" stroke="midnightblue" points="1718.03,-76.66 1708.09,-80.33 1718.15,-83.66 1718.03,-76.66"/>
</g>
</g>
</svg>
