<?xml version="1.0" encoding="UTF-8" standalone="no"?>
<!DOCTYPE svg PUBLIC "-//W3C//DTD SVG 1.1//EN"
 "http://www.w3.org/Graphics/SVG/1.1/DTD/svg11.dtd">
<!-- Generated by graphviz version 2.43.0 (0)
 -->
<!-- Title: lib/Ray/sources/Drawables/2D/Text.cpp Pages: 1 -->
<svg width="1705pt" height="599pt"
 viewBox="0.00 0.00 1705.00 599.00" xmlns="http://www.w3.org/2000/svg" xmlns:xlink="http://www.w3.org/1999/xlink">
<g id="graph0" class="graph" transform="scale(1 1) rotate(0) translate(4 595)">
<title>lib/Ray/sources/Drawables/2D/Text.cpp</title>
<polygon fill="white" stroke="transparent" points="-4,4 -4,-595 1701,-595 1701,4 -4,4"/>
<!-- Node1 -->
<g id="node1" class="node">
<title>Node1</title>
<g id="a_node1"><a xlink:title=" ">
<polygon fill="#bfbfbf" stroke="black" points="1007,-560.5 1007,-590.5 1153,-590.5 1153,-560.5 1007,-560.5"/>
<text text-anchor="start" x="1015" y="-578.5" font-family="Helvetica,sans-Serif" font-size="10.00">lib/Ray/sources/Drawables</text>
<text text-anchor="middle" x="1080" y="-567.5" font-family="Helvetica,sans-Serif" font-size="10.00">/2D/Text.cpp</text>
</a>
</g>
</g>
<!-- Node2 -->
<g id="node2" class="node">
<title>Node2</title>
<g id="a_node2"><a xlink:href="Text_8hpp.html" target="_top" xlink:title=" ">
<polygon fill="white" stroke="black" points="622.5,-392.5 622.5,-411.5 751.5,-411.5 751.5,-392.5 622.5,-392.5"/>
<text text-anchor="middle" x="687" y="-399.5" font-family="Helvetica,sans-Serif" font-size="10.00">Drawables/2D/Text.hpp</text>
</a>
</g>
</g>
<!-- Node1&#45;&gt;Node2 -->
<g id="edge1" class="edge">
<title>Node1&#45;&gt;Node2</title>
<path fill="none" stroke="midnightblue" d="M1017.65,-560.46C952.23,-544.13 847.74,-513.48 766,-468 741.9,-454.59 717.98,-433.54 702.88,-419.05"/>
<polygon fill="midnightblue" stroke="midnightblue" points="705.04,-416.27 695.46,-411.76 700.14,-421.26 705.04,-416.27"/>
</g>
<!-- Node20 -->
<g id="node20" class="node">
<title>Node20</title>
<g id="a_node20"><a xlink:href="Image_8hpp.html" target="_top" xlink:title=" ">
<polygon fill="white" stroke="black" points="1018.5,-504.5 1018.5,-523.5 1141.5,-523.5 1141.5,-504.5 1018.5,-504.5"/>
<text text-anchor="middle" x="1080" y="-511.5" font-family="Helvetica,sans-Serif" font-size="10.00">Drawables/Image.hpp</text>
</a>
</g>
</g>
<!-- Node1&#45;&gt;Node20 -->
<g id="edge35" class="edge">
<title>Node1&#45;&gt;Node20</title>
<path fill="none" stroke="midnightblue" d="M1080,-560.4C1080,-552.47 1080,-542.46 1080,-533.86"/>
<polygon fill="midnightblue" stroke="midnightblue" points="1083.5,-533.66 1080,-523.66 1076.5,-533.66 1083.5,-533.66"/>
</g>
<!-- Node26 -->
<g id="node26" class="node">
<title>Node26</title>
<g id="a_node26"><a xlink:title=" ">
<polygon fill="white" stroke="#bfbfbf" points="1585.5,-224.5 1585.5,-243.5 1630.5,-243.5 1630.5,-224.5 1585.5,-224.5"/>
<text text-anchor="middle" x="1608" y="-231.5" font-family="Helvetica,sans-Serif" font-size="10.00">utility</text>
</a>
</g>
</g>
<!-- Node1&#45;&gt;Node26 -->
<g id="edge59" class="edge">
<title>Node1&#45;&gt;Node26</title>
<path fill="none" stroke="midnightblue" d="M1153.24,-573.99C1301.04,-570.98 1621,-553.54 1621,-459 1621,-459 1621,-459 1621,-345 1621,-312.58 1615.36,-275.15 1611.51,-253.37"/>
<polygon fill="midnightblue" stroke="midnightblue" points="1614.95,-252.72 1609.7,-243.52 1608.07,-253.99 1614.95,-252.72"/>
</g>
<!-- Node3 -->
<g id="node3" class="node">
<title>Node3</title>
<g id="a_node3"><a xlink:href="ADrawable2D_8hpp.html" target="_top" xlink:title=" ">
<polygon fill="white" stroke="black" points="518.5,-336.5 518.5,-355.5 677.5,-355.5 677.5,-336.5 518.5,-336.5"/>
<text text-anchor="middle" x="598" y="-343.5" font-family="Helvetica,sans-Serif" font-size="10.00">Drawables/ADrawable2D.hpp</text>
</a>
</g>
</g>
<!-- Node2&#45;&gt;Node3 -->
<g id="edge2" class="edge">
<title>Node2&#45;&gt;Node3</title>
<path fill="none" stroke="midnightblue" d="M672.7,-392.32C658.82,-383.9 637.51,-370.97 621.2,-361.07"/>
<polygon fill="midnightblue" stroke="midnightblue" points="622.63,-357.85 612.26,-355.65 619,-363.83 622.63,-357.85"/>
</g>
<!-- Node8 -->
<g id="node8" class="node">
<title>Node8</title>
<g id="a_node8"><a xlink:title=" ">
<polygon fill="white" stroke="#bfbfbf" points="824,-168.5 824,-187.5 868,-187.5 868,-168.5 824,-168.5"/>
<text text-anchor="middle" x="846" y="-175.5" font-family="Helvetica,sans-Serif" font-size="10.00">string</text>
</a>
</g>
</g>
<!-- Node2&#45;&gt;Node8 -->
<g id="edge34" class="edge">
<title>Node2&#45;&gt;Node8</title>
<path fill="none" stroke="midnightblue" d="M688.85,-392.18C695.09,-364.33 717.72,-276.97 766,-224 779.16,-209.57 798.05,-198.64 814.18,-191.17"/>
<polygon fill="midnightblue" stroke="midnightblue" points="816.02,-194.18 823.78,-186.96 813.22,-187.77 816.02,-194.18"/>
</g>
<!-- Node4 -->
<g id="node4" class="node">
<title>Node4</title>
<g id="a_node4"><a xlink:title=" ">
<polygon fill="white" stroke="#bfbfbf" points="614.5,-0.5 614.5,-19.5 667.5,-19.5 667.5,-0.5 614.5,-0.5"/>
<text text-anchor="middle" x="641" y="-7.5" font-family="Helvetica,sans-Serif" font-size="10.00">raylib.h</text>
</a>
</g>
</g>
<!-- Node3&#45;&gt;Node4 -->
<g id="edge3" class="edge">
<title>Node3&#45;&gt;Node4</title>
<path fill="none" stroke="midnightblue" d="M518.28,-338.53C355.47,-324.24 0,-287.09 0,-235 0,-235 0,-235 0,-121 0,-69.47 47.4,-73.12 96,-56 190.15,-22.83 497.34,-13.79 604.07,-11.62"/>
<polygon fill="midnightblue" stroke="midnightblue" points="604.41,-15.11 614.34,-11.42 604.27,-8.11 604.41,-15.11"/>
</g>
<!-- Node5 -->
<g id="node5" class="node">
<title>Node5</title>
<g id="a_node5"><a xlink:href="lib_2Ray_2sources_2Vector_2Vector2_8hpp.html" target="_top" xlink:title=" ">
<polygon fill="white" stroke="black" points="28,-112.5 28,-131.5 136,-131.5 136,-112.5 28,-112.5"/>
<text text-anchor="middle" x="82" y="-119.5" font-family="Helvetica,sans-Serif" font-size="10.00">Vector/Vector2.hpp</text>
</a>
</g>
</g>
<!-- Node3&#45;&gt;Node5 -->
<g id="edge4" class="edge">
<title>Node3&#45;&gt;Node5</title>
<path fill="none" stroke="midnightblue" d="M567.11,-336.47C535.56,-327.68 485.22,-313.39 442,-300 290.83,-253.17 216.26,-299.55 104,-188 91.73,-175.81 86.3,-156.54 83.9,-142.14"/>
<polygon fill="midnightblue" stroke="midnightblue" points="87.32,-141.33 82.55,-131.87 80.38,-142.24 87.32,-141.33"/>
</g>
<!-- Node6 -->
<g id="node6" class="node">
<title>Node6</title>
<g id="a_node6"><a xlink:href="IDrawable_8hpp.html" target="_top" xlink:title=" ">
<polygon fill="white" stroke="black" points="451,-280.5 451,-299.5 593,-299.5 593,-280.5 451,-280.5"/>
<text text-anchor="middle" x="522" y="-287.5" font-family="Helvetica,sans-Serif" font-size="10.00">Drawables/IDrawable.hpp</text>
</a>
</g>
</g>
<!-- Node3&#45;&gt;Node6 -->
<g id="edge6" class="edge">
<title>Node3&#45;&gt;Node6</title>
<path fill="none" stroke="midnightblue" d="M585.79,-336.32C574.22,-328.11 556.62,-315.6 542.84,-305.81"/>
<polygon fill="midnightblue" stroke="midnightblue" points="544.61,-302.77 534.43,-299.83 540.56,-308.48 544.61,-302.77"/>
</g>
<!-- Node19 -->
<g id="node19" class="node">
<title>Node19</title>
<g id="a_node19"><a xlink:href="Color_8hpp.html" target="_top" xlink:title=" ">
<polygon fill="white" stroke="black" points="744,-168.5 744,-187.5 806,-187.5 806,-168.5 744,-168.5"/>
<text text-anchor="middle" x="775" y="-175.5" font-family="Helvetica,sans-Serif" font-size="10.00">Color.hpp</text>
</a>
</g>
</g>
<!-- Node3&#45;&gt;Node19 -->
<g id="edge33" class="edge">
<title>Node3&#45;&gt;Node19</title>
<path fill="none" stroke="midnightblue" d="M603.85,-336.24C618.28,-315.06 657.54,-260.16 700,-224 714.6,-211.56 733.06,-200.44 748.01,-192.37"/>
<polygon fill="midnightblue" stroke="midnightblue" points="750.02,-195.26 757.25,-187.52 746.77,-189.07 750.02,-195.26"/>
</g>
<!-- Node5&#45;&gt;Node4 -->
<g id="edge5" class="edge">
<title>Node5&#45;&gt;Node4</title>
<path fill="none" stroke="midnightblue" d="M83.83,-112.48C87.43,-98.08 96.86,-69.23 117,-56 157.52,-29.38 491.51,-15.96 604.1,-12.15"/>
<polygon fill="midnightblue" stroke="midnightblue" points="604.41,-15.65 614.29,-11.82 604.18,-8.65 604.41,-15.65"/>
</g>
<!-- Node7 -->
<g id="node7" class="node">
<title>Node7</title>
<g id="a_node7"><a xlink:href="Window_8hpp.html" target="_top" xlink:title=" ">
<polygon fill="white" stroke="black" points="483,-224.5 483,-243.5 559,-243.5 559,-224.5 483,-224.5"/>
<text text-anchor="middle" x="521" y="-231.5" font-family="Helvetica,sans-Serif" font-size="10.00">Window.hpp</text>
</a>
</g>
</g>
<!-- Node6&#45;&gt;Node7 -->
<g id="edge7" class="edge">
<title>Node6&#45;&gt;Node7</title>
<path fill="none" stroke="midnightblue" d="M521.83,-280.08C521.7,-273.01 521.52,-262.86 521.35,-253.99"/>
<polygon fill="midnightblue" stroke="midnightblue" points="524.85,-253.68 521.16,-243.75 517.85,-253.81 524.85,-253.68"/>
</g>
<!-- Node7&#45;&gt;Node4 -->
<g id="edge8" class="edge">
<title>Node7&#45;&gt;Node4</title>
<path fill="none" stroke="midnightblue" d="M526.56,-224.32C535.65,-210.72 554.93,-184.25 577,-168 609.38,-144.17 637.94,-165.62 660,-132 680.82,-100.28 663.39,-54 650.91,-28.86"/>
<polygon fill="midnightblue" stroke="midnightblue" points="653.89,-27.01 646.15,-19.77 647.69,-30.25 653.89,-27.01"/>
</g>
<!-- Node7&#45;&gt;Node5 -->
<g id="edge11" class="edge">
<title>Node7&#45;&gt;Node5</title>
<path fill="none" stroke="midnightblue" d="M482.92,-232.54C396.31,-230.87 187.47,-223.2 128,-188 109.83,-177.24 96.96,-156.18 89.54,-140.94"/>
<polygon fill="midnightblue" stroke="midnightblue" points="92.59,-139.19 85.28,-131.52 86.21,-142.07 92.59,-139.19"/>
</g>
<!-- Node7&#45;&gt;Node8 -->
<g id="edge9" class="edge">
<title>Node7&#45;&gt;Node8</title>
<path fill="none" stroke="midnightblue" d="M559.35,-228.75C613.89,-222.36 717.09,-208.96 813.8,-188.02"/>
<polygon fill="midnightblue" stroke="midnightblue" points="814.72,-191.4 823.74,-185.84 813.22,-184.57 814.72,-191.4"/>
</g>
<!-- Node9 -->
<g id="node9" class="node">
<title>Node9</title>
<g id="a_node9"><a xlink:title=" ">
<polygon fill="white" stroke="#bfbfbf" points="436,-168.5 436,-187.5 492,-187.5 492,-168.5 436,-168.5"/>
<text text-anchor="middle" x="464" y="-175.5" font-family="Helvetica,sans-Serif" font-size="10.00">optional</text>
</a>
</g>
</g>
<!-- Node7&#45;&gt;Node9 -->
<g id="edge10" class="edge">
<title>Node7&#45;&gt;Node9</title>
<path fill="none" stroke="midnightblue" d="M511.84,-224.32C503.5,-216.42 490.97,-204.55 480.82,-194.94"/>
<polygon fill="midnightblue" stroke="midnightblue" points="482.99,-192.17 473.32,-187.83 478.18,-197.25 482.99,-192.17"/>
</g>
<!-- Node10 -->
<g id="node10" class="node">
<title>Node10</title>
<g id="a_node10"><a xlink:href="lib_2Ray_2sources_2Vector_2Vector3_8hpp.html" target="_top" xlink:title=" ">
<polygon fill="white" stroke="black" points="543,-112.5 543,-131.5 651,-131.5 651,-112.5 543,-112.5"/>
<text text-anchor="middle" x="597" y="-119.5" font-family="Helvetica,sans-Serif" font-size="10.00">Vector/Vector3.hpp</text>
</a>
</g>
</g>
<!-- Node7&#45;&gt;Node10 -->
<g id="edge12" class="edge">
<title>Node7&#45;&gt;Node10</title>
<path fill="none" stroke="midnightblue" d="M522.56,-224.34C525.23,-211.22 531.64,-185.94 544,-168 552.13,-156.2 564.13,-145.66 574.65,-137.76"/>
<polygon fill="midnightblue" stroke="midnightblue" points="576.92,-140.43 583.02,-131.77 572.85,-134.74 576.92,-140.43"/>
</g>
<!-- Node11 -->
<g id="node11" class="node">
<title>Node11</title>
<g id="a_node11"><a xlink:href="Keyboard_8hpp.html" target="_top" xlink:title=" ">
<polygon fill="white" stroke="black" points="586,-168.5 586,-187.5 726,-187.5 726,-168.5 586,-168.5"/>
<text text-anchor="middle" x="656" y="-175.5" font-family="Helvetica,sans-Serif" font-size="10.00">Controllers/Keyboard.hpp</text>
</a>
</g>
</g>
<!-- Node7&#45;&gt;Node11 -->
<g id="edge14" class="edge">
<title>Node7&#45;&gt;Node11</title>
<path fill="none" stroke="midnightblue" d="M542.39,-224.44C564.71,-215.52 599.9,-201.44 625.21,-191.32"/>
<polygon fill="midnightblue" stroke="midnightblue" points="626.72,-194.48 634.71,-187.52 624.12,-187.98 626.72,-194.48"/>
</g>
<!-- Node13 -->
<g id="node13" class="node">
<title>Node13</title>
<g id="a_node13"><a xlink:href="Camera2D_8hpp.html" target="_top" xlink:title=" ">
<polygon fill="white" stroke="black" points="137.5,-168.5 137.5,-187.5 268.5,-187.5 268.5,-168.5 137.5,-168.5"/>
<text text-anchor="middle" x="203" y="-175.5" font-family="Helvetica,sans-Serif" font-size="10.00">Camera/Camera2D.hpp</text>
</a>
</g>
</g>
<!-- Node7&#45;&gt;Node13 -->
<g id="edge17" class="edge">
<title>Node7&#45;&gt;Node13</title>
<path fill="none" stroke="midnightblue" d="M482.96,-226.54C428.5,-217.29 327.78,-200.19 263.16,-189.22"/>
<polygon fill="midnightblue" stroke="midnightblue" points="263.56,-185.73 253.11,-187.51 262.38,-192.63 263.56,-185.73"/>
</g>
<!-- Node16 -->
<g id="node16" class="node">
<title>Node16</title>
<g id="a_node16"><a xlink:href="Camera3D_8hpp.html" target="_top" xlink:title=" ">
<polygon fill="white" stroke="black" points="286.5,-168.5 286.5,-187.5 417.5,-187.5 417.5,-168.5 286.5,-168.5"/>
<text text-anchor="middle" x="352" y="-175.5" font-family="Helvetica,sans-Serif" font-size="10.00">Camera/Camera3D.hpp</text>
</a>
</g>
</g>
<!-- Node7&#45;&gt;Node16 -->
<g id="edge23" class="edge">
<title>Node7&#45;&gt;Node16</title>
<path fill="none" stroke="midnightblue" d="M494.22,-224.44C465.67,-215.32 420.27,-200.81 388.46,-190.65"/>
<polygon fill="midnightblue" stroke="midnightblue" points="389.24,-187.23 378.65,-187.52 387.11,-193.89 389.24,-187.23"/>
</g>
<!-- Node7&#45;&gt;Node19 -->
<g id="edge31" class="edge">
<title>Node7&#45;&gt;Node19</title>
<path fill="none" stroke="midnightblue" d="M559.31,-225.11C600.14,-216.67 666.97,-202.74 733.72,-188.26"/>
<polygon fill="midnightblue" stroke="midnightblue" points="734.54,-191.66 743.57,-186.12 733.05,-184.82 734.54,-191.66"/>
</g>
<!-- Node10&#45;&gt;Node4 -->
<g id="edge13" class="edge">
<title>Node10&#45;&gt;Node4</title>
<path fill="none" stroke="midnightblue" d="M601,-112.44C605.16,-103.44 611.79,-88.83 617,-76 623.3,-60.5 629.84,-42.66 634.49,-29.6"/>
<polygon fill="midnightblue" stroke="midnightblue" points="637.89,-30.5 637.92,-19.9 631.29,-28.16 637.89,-30.5"/>
</g>
<!-- Node11&#45;&gt;Node4 -->
<g id="edge15" class="edge">
<title>Node11&#45;&gt;Node4</title>
<path fill="none" stroke="midnightblue" d="M666.44,-168.24C675.42,-159.97 687.75,-146.66 693,-132 704.39,-100.2 707.04,-86.72 693,-56 687.22,-43.36 675.95,-32.91 665.37,-25.27"/>
<polygon fill="midnightblue" stroke="midnightblue" points="667.04,-22.18 656.78,-19.53 663.15,-28 667.04,-22.18"/>
</g>
<!-- Node12 -->
<g id="node12" class="node">
<title>Node12</title>
<g id="a_node12"><a xlink:title=" ">
<polygon fill="white" stroke="#bfbfbf" points="791.5,-112.5 791.5,-131.5 838.5,-131.5 838.5,-112.5 791.5,-112.5"/>
<text text-anchor="middle" x="815" y="-119.5" font-family="Helvetica,sans-Serif" font-size="10.00">vector</text>
</a>
</g>
</g>
<!-- Node11&#45;&gt;Node12 -->
<g id="edge16" class="edge">
<title>Node11&#45;&gt;Node12</title>
<path fill="none" stroke="midnightblue" d="M681.19,-168.44C708.41,-159.2 751.91,-144.43 781.88,-134.25"/>
<polygon fill="midnightblue" stroke="midnightblue" points="783.14,-137.52 791.48,-130.99 780.88,-130.89 783.14,-137.52"/>
</g>
<!-- Node13&#45;&gt;Node4 -->
<g id="edge18" class="edge">
<title>Node13&#45;&gt;Node4</title>
<path fill="none" stroke="midnightblue" d="M193.42,-168.33C170.84,-146.88 118.46,-90.56 150,-56 180.47,-22.61 494.9,-13.69 603.98,-11.58"/>
<polygon fill="midnightblue" stroke="midnightblue" points="604.24,-15.08 614.17,-11.4 604.11,-8.08 604.24,-15.08"/>
</g>
<!-- Node13&#45;&gt;Node5 -->
<g id="edge19" class="edge">
<title>Node13&#45;&gt;Node5</title>
<path fill="none" stroke="midnightblue" d="M183.83,-168.44C164.09,-159.64 133.11,-145.81 110.51,-135.72"/>
<polygon fill="midnightblue" stroke="midnightblue" points="111.64,-132.4 101.08,-131.52 108.79,-138.79 111.64,-132.4"/>
</g>
<!-- Node14 -->
<g id="node14" class="node">
<title>Node14</title>
<g id="a_node14"><a xlink:href="ICamera_8hpp.html" target="_top" xlink:title=" ">
<polygon fill="white" stroke="black" points="192,-112.5 192,-131.5 312,-131.5 312,-112.5 192,-112.5"/>
<text text-anchor="middle" x="252" y="-119.5" font-family="Helvetica,sans-Serif" font-size="10.00">Camera/ICamera.hpp</text>
</a>
</g>
</g>
<!-- Node13&#45;&gt;Node14 -->
<g id="edge20" class="edge">
<title>Node13&#45;&gt;Node14</title>
<path fill="none" stroke="midnightblue" d="M211.09,-168.08C218.16,-160.3 228.59,-148.8 237.15,-139.37"/>
<polygon fill="midnightblue" stroke="midnightblue" points="239.93,-141.51 244.06,-131.75 234.75,-136.8 239.93,-141.51"/>
</g>
<!-- Node15 -->
<g id="node15" class="node">
<title>Node15</title>
<g id="a_node15"><a xlink:href="Matrix_8hpp.html" target="_top" xlink:title=" ">
<polygon fill="white" stroke="black" points="159.5,-56.5 159.5,-75.5 228.5,-75.5 228.5,-56.5 159.5,-56.5"/>
<text text-anchor="middle" x="194" y="-63.5" font-family="Helvetica,sans-Serif" font-size="10.00">Matrix.hpp</text>
</a>
</g>
</g>
<!-- Node14&#45;&gt;Node15 -->
<g id="edge21" class="edge">
<title>Node14&#45;&gt;Node15</title>
<path fill="none" stroke="midnightblue" d="M242.68,-112.32C234.11,-104.34 221.19,-92.31 210.81,-82.65"/>
<polygon fill="midnightblue" stroke="midnightblue" points="213.19,-80.09 203.49,-75.83 208.42,-85.21 213.19,-80.09"/>
</g>
<!-- Node15&#45;&gt;Node4 -->
<g id="edge22" class="edge">
<title>Node15&#45;&gt;Node4</title>
<path fill="none" stroke="midnightblue" d="M228.53,-57.63C231.73,-57.04 234.92,-56.49 238,-56 372.27,-34.82 533.26,-19.99 604.27,-13.98"/>
<polygon fill="midnightblue" stroke="midnightblue" points="604.81,-17.45 614.48,-13.12 604.23,-10.47 604.81,-17.45"/>
</g>
<!-- Node16&#45;&gt;Node4 -->
<g id="edge24" class="edge">
<title>Node16&#45;&gt;Node4</title>
<path fill="none" stroke="midnightblue" d="M382.38,-168.5C428.92,-154.48 519.25,-123.28 584,-76 602.3,-62.64 618.83,-42.44 629.32,-28.11"/>
<polygon fill="midnightblue" stroke="midnightblue" points="632.38,-29.85 635.3,-19.67 626.67,-25.8 632.38,-29.85"/>
</g>
<!-- Node16&#45;&gt;Node10 -->
<g id="edge25" class="edge">
<title>Node16&#45;&gt;Node10</title>
<path fill="none" stroke="midnightblue" d="M390.82,-168.44C433.56,-159.02 502.33,-143.87 548.57,-133.68"/>
<polygon fill="midnightblue" stroke="midnightblue" points="549.35,-137.09 558.36,-131.52 547.84,-130.25 549.35,-137.09"/>
</g>
<!-- Node16&#45;&gt;Node14 -->
<g id="edge26" class="edge">
<title>Node16&#45;&gt;Node14</title>
<path fill="none" stroke="midnightblue" d="M335.93,-168.32C320.04,-159.74 295.49,-146.49 277.04,-136.52"/>
<polygon fill="midnightblue" stroke="midnightblue" points="278.49,-133.33 268.03,-131.65 275.16,-139.49 278.49,-133.33"/>
</g>
<!-- Node17 -->
<g id="node17" class="node">
<title>Node17</title>
<g id="a_node17"><a xlink:href="CameraProjection_8hpp.html" target="_top" xlink:title=" ">
<polygon fill="white" stroke="black" points="247,-56.5 247,-75.5 413,-75.5 413,-56.5 247,-56.5"/>
<text text-anchor="middle" x="330" y="-63.5" font-family="Helvetica,sans-Serif" font-size="10.00">Camera/CameraProjection.hpp</text>
</a>
</g>
</g>
<!-- Node16&#45;&gt;Node17 -->
<g id="edge27" class="edge">
<title>Node16&#45;&gt;Node17</title>
<path fill="none" stroke="midnightblue" d="M350.27,-168.37C346.72,-150.62 338.53,-109.67 333.72,-85.6"/>
<polygon fill="midnightblue" stroke="midnightblue" points="337.11,-84.71 331.72,-75.59 330.25,-86.08 337.11,-84.71"/>
</g>
<!-- Node18 -->
<g id="node18" class="node">
<title>Node18</title>
<g id="a_node18"><a xlink:href="CameraMode_8hpp.html" target="_top" xlink:title=" ">
<polygon fill="white" stroke="black" points="431,-56.5 431,-75.5 575,-75.5 575,-56.5 431,-56.5"/>
<text text-anchor="middle" x="503" y="-63.5" font-family="Helvetica,sans-Serif" font-size="10.00">Camera/CameraMode.hpp</text>
</a>
</g>
</g>
<!-- Node16&#45;&gt;Node18 -->
<g id="edge29" class="edge">
<title>Node16&#45;&gt;Node18</title>
<path fill="none" stroke="midnightblue" d="M363.85,-168.37C389.65,-149.57 451.15,-104.77 483.05,-81.53"/>
<polygon fill="midnightblue" stroke="midnightblue" points="485.18,-84.31 491.21,-75.59 481.06,-78.65 485.18,-84.31"/>
</g>
<!-- Node17&#45;&gt;Node4 -->
<g id="edge28" class="edge">
<title>Node17&#45;&gt;Node4</title>
<path fill="none" stroke="midnightblue" d="M379.28,-56.44C441.87,-45.58 548.45,-27.07 604.33,-17.37"/>
<polygon fill="midnightblue" stroke="midnightblue" points="605.23,-20.76 614.48,-15.6 604.03,-13.87 605.23,-20.76"/>
</g>
<!-- Node18&#45;&gt;Node4 -->
<g id="edge30" class="edge">
<title>Node18&#45;&gt;Node4</title>
<path fill="none" stroke="midnightblue" d="M524.87,-56.44C547.78,-47.48 583.98,-33.31 609.87,-23.18"/>
<polygon fill="midnightblue" stroke="midnightblue" points="611.2,-26.42 619.24,-19.52 608.65,-19.9 611.2,-26.42"/>
</g>
<!-- Node19&#45;&gt;Node4 -->
<g id="edge32" class="edge">
<title>Node19&#45;&gt;Node4</title>
<path fill="none" stroke="midnightblue" d="M772.12,-168.49C764.64,-147.39 742.91,-91.83 710,-56 698.21,-43.16 682.01,-32.35 668.27,-24.54"/>
<polygon fill="midnightblue" stroke="midnightblue" points="669.69,-21.33 659.23,-19.63 666.34,-27.48 669.69,-21.33"/>
</g>
<!-- Node20&#45;&gt;Node4 -->
<g id="edge36" class="edge">
<title>Node20&#45;&gt;Node4</title>
<path fill="none" stroke="midnightblue" d="M1140.28,-504.49C1295.54,-480.9 1697,-408.54 1697,-291 1697,-291 1697,-291 1697,-121 1697,-55.21 1627.72,-72.38 1564,-56 1392.16,-11.82 828.21,-10.39 678.02,-10.82"/>
<polygon fill="midnightblue" stroke="midnightblue" points="677.92,-7.32 667.93,-10.85 677.95,-14.32 677.92,-7.32"/>
</g>
<!-- Node20&#45;&gt;Node8 -->
<g id="edge37" class="edge">
<title>Node20&#45;&gt;Node8</title>
<path fill="none" stroke="midnightblue" d="M1025.32,-504.46C938.79,-489.38 780,-454.66 780,-403 780,-403 780,-403 780,-289 780,-250.86 809.54,-214.52 829.09,-194.64"/>
<polygon fill="midnightblue" stroke="midnightblue" points="831.56,-197.12 836.26,-187.63 826.67,-192.12 831.56,-197.12"/>
</g>
<!-- Node21 -->
<g id="node21" class="node">
<title>Node21</title>
<g id="a_node21"><a xlink:href="Texture_8hpp.html" target="_top" xlink:title=" ">
<polygon fill="white" stroke="black" points="1043,-448.5 1043,-467.5 1117,-467.5 1117,-448.5 1043,-448.5"/>
<text text-anchor="middle" x="1080" y="-455.5" font-family="Helvetica,sans-Serif" font-size="10.00">Texture.hpp</text>
</a>
</g>
</g>
<!-- Node20&#45;&gt;Node21 -->
<g id="edge38" class="edge">
<title>Node20&#45;&gt;Node21</title>
<path fill="none" stroke="midnightblue" d="M1080,-504.08C1080,-497.01 1080,-486.86 1080,-477.99"/>
<polygon fill="midnightblue" stroke="midnightblue" points="1083.5,-477.75 1080,-467.75 1076.5,-477.75 1083.5,-477.75"/>
</g>
<!-- Node22 -->
<g id="node22" class="node">
<title>Node22</title>
<g id="a_node22"><a xlink:href="Cache_8hpp.html" target="_top" xlink:title=" ">
<polygon fill="white" stroke="black" points="1201.5,-280.5 1201.5,-299.5 1294.5,-299.5 1294.5,-280.5 1201.5,-280.5"/>
<text text-anchor="middle" x="1248" y="-287.5" font-family="Helvetica,sans-Serif" font-size="10.00">Utils/Cache.hpp</text>
</a>
</g>
</g>
<!-- Node20&#45;&gt;Node22 -->
<g id="edge57" class="edge">
<title>Node20&#45;&gt;Node22</title>
<path fill="none" stroke="midnightblue" d="M1089.63,-504.47C1099.28,-495.73 1114.33,-481.54 1126,-468 1172.81,-413.68 1218.07,-341.2 1237.75,-308.41"/>
<polygon fill="midnightblue" stroke="midnightblue" points="1240.9,-309.96 1243,-299.58 1234.88,-306.38 1240.9,-309.96"/>
</g>
<!-- Node31 -->
<g id="node31" class="node">
<title>Node31</title>
<g id="a_node31"><a xlink:href="Rectangle_8hpp.html" target="_top" xlink:title=" ">
<polygon fill="white" stroke="black" points="808,-392.5 808,-411.5 966,-411.5 966,-392.5 808,-392.5"/>
<text text-anchor="middle" x="887" y="-399.5" font-family="Helvetica,sans-Serif" font-size="10.00">Drawables/2D/Rectangle.hpp</text>
</a>
</g>
</g>
<!-- Node20&#45;&gt;Node31 -->
<g id="edge58" class="edge">
<title>Node20&#45;&gt;Node31</title>
<path fill="none" stroke="midnightblue" d="M1064.86,-504.37C1031.45,-485.33 951.24,-439.62 910.95,-416.65"/>
<polygon fill="midnightblue" stroke="midnightblue" points="912.5,-413.5 902.07,-411.59 909.03,-419.58 912.5,-413.5"/>
</g>
<!-- Node21&#45;&gt;Node4 -->
<g id="edge39" class="edge">
<title>Node21&#45;&gt;Node4</title>
<path fill="none" stroke="midnightblue" d="M1117.1,-454.45C1244.89,-444.66 1659,-404.2 1659,-291 1659,-291 1659,-291 1659,-121 1659,-20.24 860.46,-11.67 677.87,-11.03"/>
<polygon fill="midnightblue" stroke="midnightblue" points="677.72,-7.53 667.71,-11 677.7,-14.53 677.72,-7.53"/>
</g>
<!-- Node21&#45;&gt;Node8 -->
<g id="edge40" class="edge">
<title>Node21&#45;&gt;Node8</title>
<path fill="none" stroke="midnightblue" d="M1070.84,-448.2C1041.82,-420.05 950.07,-329.12 886,-244 874.57,-228.81 863.39,-210.24 855.77,-196.84"/>
<polygon fill="midnightblue" stroke="midnightblue" points="858.62,-194.77 850.69,-187.75 852.51,-198.18 858.62,-194.77"/>
</g>
<!-- Node21&#45;&gt;Node22 -->
<g id="edge41" class="edge">
<title>Node21&#45;&gt;Node22</title>
<path fill="none" stroke="midnightblue" d="M1089.03,-448.08C1116.16,-421.27 1197.21,-341.19 1231.92,-306.89"/>
<polygon fill="midnightblue" stroke="midnightblue" points="1234.68,-309.09 1239.33,-299.57 1229.76,-304.11 1234.68,-309.09"/>
</g>
<!-- Node21&#45;&gt;Node31 -->
<g id="edge54" class="edge">
<title>Node21&#45;&gt;Node31</title>
<path fill="none" stroke="midnightblue" d="M1049.42,-448.44C1016.39,-439.2 963.61,-424.44 927.23,-414.26"/>
<polygon fill="midnightblue" stroke="midnightblue" points="928.01,-410.84 917.44,-411.52 926.13,-417.58 928.01,-410.84"/>
</g>
<!-- Node22&#45;&gt;Node4 -->
<g id="edge46" class="edge">
<title>Node22&#45;&gt;Node4</title>
<path fill="none" stroke="midnightblue" d="M1294.67,-287.7C1367.27,-284.72 1502.62,-275.04 1538,-244 1560.62,-224.15 1557,-209.1 1557,-179 1557,-179 1557,-179 1557,-121 1557,-30.89 849.17,-14.2 677.96,-11.48"/>
<polygon fill="midnightblue" stroke="midnightblue" points="677.97,-7.98 667.92,-11.33 677.86,-14.98 677.97,-7.98"/>
</g>
<!-- Node22&#45;&gt;Node8 -->
<g id="edge52" class="edge">
<title>Node22&#45;&gt;Node8</title>
<path fill="none" stroke="midnightblue" d="M1201.27,-285.91C1123,-280.2 969.14,-266.45 920,-244 895.59,-232.85 873.3,-210.94 859.7,-195.66"/>
<polygon fill="midnightblue" stroke="midnightblue" points="862.26,-193.26 853.08,-187.96 856.95,-197.82 862.26,-193.26"/>
</g>
<!-- Node22&#45;&gt;Node12 -->
<g id="edge50" class="edge">
<title>Node22&#45;&gt;Node12</title>
<path fill="none" stroke="midnightblue" d="M1201.21,-285.43C1129.32,-279.35 995.53,-265.52 953,-244 910.38,-222.43 913.33,-199.01 877,-168 864.14,-157.02 848.76,-145.85 836.54,-137.38"/>
<polygon fill="midnightblue" stroke="midnightblue" points="838.51,-134.49 828.27,-131.74 834.56,-140.27 838.51,-134.49"/>
</g>
<!-- Node23 -->
<g id="node23" class="node">
<title>Node23</title>
<g id="a_node23"><a xlink:title=" ">
<polygon fill="white" stroke="#bfbfbf" points="1276,-224.5 1276,-243.5 1334,-243.5 1334,-224.5 1276,-224.5"/>
<text text-anchor="middle" x="1305" y="-231.5" font-family="Helvetica,sans-Serif" font-size="10.00">memory</text>
</a>
</g>
</g>
<!-- Node22&#45;&gt;Node23 -->
<g id="edge42" class="edge">
<title>Node22&#45;&gt;Node23</title>
<path fill="none" stroke="midnightblue" d="M1257.16,-280.32C1265.5,-272.42 1278.03,-260.55 1288.18,-250.94"/>
<polygon fill="midnightblue" stroke="midnightblue" points="1290.82,-253.25 1295.68,-243.83 1286.01,-248.17 1290.82,-253.25"/>
</g>
<!-- Node24 -->
<g id="node24" class="node">
<title>Node24</title>
<g id="a_node24"><a xlink:title=" ">
<polygon fill="white" stroke="#bfbfbf" points="1352.5,-224.5 1352.5,-243.5 1445.5,-243.5 1445.5,-224.5 1352.5,-224.5"/>
<text text-anchor="middle" x="1399" y="-231.5" font-family="Helvetica,sans-Serif" font-size="10.00">unordered_map</text>
</a>
</g>
</g>
<!-- Node22&#45;&gt;Node24 -->
<g id="edge43" class="edge">
<title>Node22&#45;&gt;Node24</title>
<path fill="none" stroke="midnightblue" d="M1271.93,-280.44C1297.22,-271.4 1337.3,-257.06 1365.68,-246.92"/>
<polygon fill="midnightblue" stroke="midnightblue" points="1366.95,-250.18 1375.19,-243.52 1364.59,-243.59 1366.95,-250.18"/>
</g>
<!-- Node25 -->
<g id="node25" class="node">
<title>Node25</title>
<g id="a_node25"><a xlink:title=" ">
<polygon fill="white" stroke="#bfbfbf" points="1463.5,-224.5 1463.5,-243.5 1528.5,-243.5 1528.5,-224.5 1463.5,-224.5"/>
<text text-anchor="middle" x="1496" y="-231.5" font-family="Helvetica,sans-Serif" font-size="10.00">functional</text>
</a>
</g>
</g>
<!-- Node22&#45;&gt;Node25 -->
<g id="edge44" class="edge">
<title>Node22&#45;&gt;Node25</title>
<path fill="none" stroke="midnightblue" d="M1287.3,-280.48C1326.91,-271.89 1390.07,-258.18 1453.55,-244.31"/>
<polygon fill="midnightblue" stroke="midnightblue" points="1454.3,-247.73 1463.33,-242.18 1452.81,-240.89 1454.3,-247.73"/>
</g>
<!-- Node22&#45;&gt;Node26 -->
<g id="edge45" class="edge">
<title>Node22&#45;&gt;Node26</title>
<path fill="none" stroke="midnightblue" d="M1294.51,-284C1357.49,-276.9 1473.26,-262.65 1571,-244 1572.46,-243.72 1573.95,-243.42 1575.45,-243.11"/>
<polygon fill="midnightblue" stroke="midnightblue" points="1576.39,-246.49 1585.38,-240.88 1574.86,-239.66 1576.39,-246.49"/>
</g>
<!-- Node27 -->
<g id="node27" class="node">
<title>Node27</title>
<g id="a_node27"><a xlink:href="RayError_8hpp.html" target="_top" xlink:title=" ">
<polygon fill="white" stroke="black" points="1122.5,-224.5 1122.5,-243.5 1257.5,-243.5 1257.5,-224.5 1122.5,-224.5"/>
<text text-anchor="middle" x="1190" y="-231.5" font-family="Helvetica,sans-Serif" font-size="10.00">Exceptions/RayError.hpp</text>
</a>
</g>
</g>
<!-- Node22&#45;&gt;Node27 -->
<g id="edge47" class="edge">
<title>Node22&#45;&gt;Node27</title>
<path fill="none" stroke="midnightblue" d="M1238.68,-280.32C1230.11,-272.34 1217.19,-260.31 1206.81,-250.65"/>
<polygon fill="midnightblue" stroke="midnightblue" points="1209.19,-248.09 1199.49,-243.83 1204.42,-253.21 1209.19,-248.09"/>
</g>
<!-- Node29 -->
<g id="node29" class="node">
<title>Node29</title>
<g id="a_node29"><a xlink:title=" ">
<polygon fill="white" stroke="#bfbfbf" points="962,-224.5 962,-243.5 1026,-243.5 1026,-224.5 962,-224.5"/>
<text text-anchor="middle" x="994" y="-231.5" font-family="Helvetica,sans-Serif" font-size="10.00">algorithm</text>
</a>
</g>
</g>
<!-- Node22&#45;&gt;Node29 -->
<g id="edge51" class="edge">
<title>Node22&#45;&gt;Node29</title>
<path fill="none" stroke="midnightblue" d="M1207.15,-280.47C1166.35,-271.93 1101.57,-258.3 1036.28,-244.26"/>
<polygon fill="midnightblue" stroke="midnightblue" points="1036.74,-240.78 1026.22,-242.1 1035.26,-247.63 1036.74,-240.78"/>
</g>
<!-- Node30 -->
<g id="node30" class="node">
<title>Node30</title>
<g id="a_node30"><a xlink:title=" ">
<polygon fill="white" stroke="#bfbfbf" points="1044,-224.5 1044,-243.5 1104,-243.5 1104,-224.5 1044,-224.5"/>
<text text-anchor="middle" x="1074" y="-231.5" font-family="Helvetica,sans-Serif" font-size="10.00">iostream</text>
</a>
</g>
</g>
<!-- Node22&#45;&gt;Node30 -->
<g id="edge53" class="edge">
<title>Node22&#45;&gt;Node30</title>
<path fill="none" stroke="midnightblue" d="M1220.43,-280.44C1190.9,-271.28 1143.88,-256.69 1111.12,-246.52"/>
<polygon fill="midnightblue" stroke="midnightblue" points="1112.03,-243.14 1101.44,-243.52 1109.96,-249.82 1112.03,-243.14"/>
</g>
<!-- Node27&#45;&gt;Node8 -->
<g id="edge49" class="edge">
<title>Node27&#45;&gt;Node8</title>
<path fill="none" stroke="midnightblue" d="M1135.49,-224.44C1063.08,-213.08 937.46,-193.36 878.42,-184.09"/>
<polygon fill="midnightblue" stroke="midnightblue" points="878.62,-180.58 868.2,-182.48 877.53,-187.49 878.62,-180.58"/>
</g>
<!-- Node28 -->
<g id="node28" class="node">
<title>Node28</title>
<g id="a_node28"><a xlink:title=" ">
<polygon fill="white" stroke="#bfbfbf" points="1157.5,-168.5 1157.5,-187.5 1222.5,-187.5 1222.5,-168.5 1157.5,-168.5"/>
<text text-anchor="middle" x="1190" y="-175.5" font-family="Helvetica,sans-Serif" font-size="10.00">stdexcept</text>
</a>
</g>
</g>
<!-- Node27&#45;&gt;Node28 -->
<g id="edge48" class="edge">
<title>Node27&#45;&gt;Node28</title>
<path fill="none" stroke="midnightblue" d="M1190,-224.08C1190,-217.01 1190,-206.86 1190,-197.99"/>
<polygon fill="midnightblue" stroke="midnightblue" points="1193.5,-197.75 1190,-187.75 1186.5,-197.75 1193.5,-197.75"/>
</g>
<!-- Node31&#45;&gt;Node3 -->
<g id="edge56" class="edge">
<title>Node31&#45;&gt;Node3</title>
<path fill="none" stroke="midnightblue" d="M841.21,-392.44C790.26,-382.92 707.97,-367.55 653.43,-357.36"/>
<polygon fill="midnightblue" stroke="midnightblue" points="654.05,-353.91 643.58,-355.52 652.77,-360.79 654.05,-353.91"/>
</g>
<!-- Node31&#45;&gt;Node4 -->
<g id="edge55" class="edge">
<title>Node31&#45;&gt;Node4</title>
<path fill="none" stroke="midnightblue" d="M889.13,-392.3C898.15,-353.07 929.14,-191.23 848,-112 798.79,-63.95 722.27,-34.88 677.35,-20.97"/>
<polygon fill="midnightblue" stroke="midnightblue" points="678.31,-17.6 667.72,-18.07 676.29,-24.31 678.31,-17.6"/>
</g>
</g>
</svg>
