<?xml version="1.0" encoding="UTF-8" standalone="no"?>
<!DOCTYPE svg PUBLIC "-//W3C//DTD SVG 1.1//EN"
 "http://www.w3.org/Graphics/SVG/1.1/DTD/svg11.dtd">
<!-- Generated by graphviz version 2.43.0 (0)
 -->
<!-- Title: lib/Ray/sources/Drawables/2D/Text.hpp Pages: 1 -->
<svg width="918pt" height="431pt"
 viewBox="0.00 0.00 918.00 431.00" xmlns="http://www.w3.org/2000/svg" xmlns:xlink="http://www.w3.org/1999/xlink">
<g id="graph0" class="graph" transform="scale(1 1) rotate(0) translate(4 427)">
<title>lib/Ray/sources/Drawables/2D/Text.hpp</title>
<polygon fill="white" stroke="transparent" points="-4,4 -4,-427 914,-427 914,4 -4,4"/>
<!-- Node1 -->
<g id="node1" class="node">
<title>Node1</title>
<g id="a_node1"><a xlink:title=" ">
<polygon fill="#bfbfbf" stroke="black" points="759,-392.5 759,-422.5 905,-422.5 905,-392.5 759,-392.5"/>
<text text-anchor="start" x="767" y="-410.5" font-family="Helvetica,sans-Serif" font-size="10.00">lib/Ray/sources/Drawables</text>
<text text-anchor="middle" x="832" y="-399.5" font-family="Helvetica,sans-Serif" font-size="10.00">/2D/Text.hpp</text>
</a>
</g>
</g>
<!-- Node2 -->
<g id="node2" class="node">
<title>Node2</title>
<g id="a_node2"><a xlink:href="ADrawable2D_8hpp.html" target="_top" xlink:title=" ">
<polygon fill="white" stroke="black" points="699.5,-336.5 699.5,-355.5 858.5,-355.5 858.5,-336.5 699.5,-336.5"/>
<text text-anchor="middle" x="779" y="-343.5" font-family="Helvetica,sans-Serif" font-size="10.00">Drawables/ADrawable2D.hpp</text>
</a>
</g>
</g>
<!-- Node1&#45;&gt;Node2 -->
<g id="edge1" class="edge">
<title>Node1&#45;&gt;Node2</title>
<path fill="none" stroke="midnightblue" d="M819.44,-392.4C811.66,-383.66 801.64,-372.41 793.52,-363.3"/>
<polygon fill="midnightblue" stroke="midnightblue" points="795.98,-360.8 786.71,-355.66 790.75,-365.45 795.98,-360.8"/>
</g>
<!-- Node7 -->
<g id="node7" class="node">
<title>Node7</title>
<g id="a_node7"><a xlink:title=" ">
<polygon fill="white" stroke="#bfbfbf" points="866,-168.5 866,-187.5 910,-187.5 910,-168.5 866,-168.5"/>
<text text-anchor="middle" x="888" y="-175.5" font-family="Helvetica,sans-Serif" font-size="10.00">string</text>
</a>
</g>
</g>
<!-- Node1&#45;&gt;Node7 -->
<g id="edge33" class="edge">
<title>Node1&#45;&gt;Node7</title>
<path fill="none" stroke="midnightblue" d="M845.22,-392.2C853.22,-382.68 862.84,-369.47 868,-356 888.88,-301.5 889.85,-231.15 888.91,-197.94"/>
<polygon fill="midnightblue" stroke="midnightblue" points="892.4,-197.7 888.53,-187.84 885.41,-197.96 892.4,-197.7"/>
</g>
<!-- Node3 -->
<g id="node3" class="node">
<title>Node3</title>
<g id="a_node3"><a xlink:title=" ">
<polygon fill="white" stroke="#bfbfbf" points="506.5,-0.5 506.5,-19.5 559.5,-19.5 559.5,-0.5 506.5,-0.5"/>
<text text-anchor="middle" x="533" y="-7.5" font-family="Helvetica,sans-Serif" font-size="10.00">raylib.h</text>
</a>
</g>
</g>
<!-- Node2&#45;&gt;Node3 -->
<g id="edge2" class="edge">
<title>Node2&#45;&gt;Node3</title>
<path fill="none" stroke="midnightblue" d="M787.45,-336.44C803.77,-318.96 838,-277.26 838,-235 838,-235 838,-235 838,-121 838,-74.49 798.18,-75.58 756,-56 694.52,-27.45 615.24,-16.96 569.66,-13.14"/>
<polygon fill="midnightblue" stroke="midnightblue" points="569.89,-9.65 559.65,-12.36 569.35,-16.63 569.89,-9.65"/>
</g>
<!-- Node4 -->
<g id="node4" class="node">
<title>Node4</title>
<g id="a_node4"><a xlink:href="lib_2Ray_2sources_2Vector_2Vector2_8hpp.html" target="_top" xlink:title=" ">
<polygon fill="white" stroke="black" points="0,-112.5 0,-131.5 108,-131.5 108,-112.5 0,-112.5"/>
<text text-anchor="middle" x="54" y="-119.5" font-family="Helvetica,sans-Serif" font-size="10.00">Vector/Vector2.hpp</text>
</a>
</g>
</g>
<!-- Node2&#45;&gt;Node4 -->
<g id="edge3" class="edge">
<title>Node2&#45;&gt;Node4</title>
<path fill="none" stroke="midnightblue" d="M735.48,-336.46C691.41,-327.71 621.34,-313.51 561,-300 353.98,-253.66 270.69,-309.81 97,-188 80.26,-176.26 68.3,-155.73 61.31,-140.88"/>
<polygon fill="midnightblue" stroke="midnightblue" points="64.49,-139.43 57.27,-131.68 58.09,-142.24 64.49,-139.43"/>
</g>
<!-- Node5 -->
<g id="node5" class="node">
<title>Node5</title>
<g id="a_node5"><a xlink:href="IDrawable_8hpp.html" target="_top" xlink:title=" ">
<polygon fill="white" stroke="black" points="570,-280.5 570,-299.5 712,-299.5 712,-280.5 570,-280.5"/>
<text text-anchor="middle" x="641" y="-287.5" font-family="Helvetica,sans-Serif" font-size="10.00">Drawables/IDrawable.hpp</text>
</a>
</g>
</g>
<!-- Node2&#45;&gt;Node5 -->
<g id="edge5" class="edge">
<title>Node2&#45;&gt;Node5</title>
<path fill="none" stroke="midnightblue" d="M757.13,-336.44C734.22,-327.48 698.02,-313.31 672.13,-303.18"/>
<polygon fill="midnightblue" stroke="midnightblue" points="673.35,-299.9 662.76,-299.52 670.8,-306.42 673.35,-299.9"/>
</g>
<!-- Node18 -->
<g id="node18" class="node">
<title>Node18</title>
<g id="a_node18"><a xlink:href="Color_8hpp.html" target="_top" xlink:title=" ">
<polygon fill="white" stroke="black" points="748,-168.5 748,-187.5 810,-187.5 810,-168.5 748,-168.5"/>
<text text-anchor="middle" x="779" y="-175.5" font-family="Helvetica,sans-Serif" font-size="10.00">Color.hpp</text>
</a>
</g>
</g>
<!-- Node2&#45;&gt;Node18 -->
<g id="edge32" class="edge">
<title>Node2&#45;&gt;Node18</title>
<path fill="none" stroke="midnightblue" d="M779,-336.08C779,-309.95 779,-233.21 779,-197.58"/>
<polygon fill="midnightblue" stroke="midnightblue" points="782.5,-197.57 779,-187.57 775.5,-197.57 782.5,-197.57"/>
</g>
<!-- Node4&#45;&gt;Node3 -->
<g id="edge4" class="edge">
<title>Node4&#45;&gt;Node3</title>
<path fill="none" stroke="midnightblue" d="M59.71,-112.42C69.9,-97.94 92.69,-68.96 120,-56 186.29,-24.54 408.12,-14.66 496.35,-11.93"/>
<polygon fill="midnightblue" stroke="midnightblue" points="496.54,-15.43 506.43,-11.63 496.33,-8.43 496.54,-15.43"/>
</g>
<!-- Node6 -->
<g id="node6" class="node">
<title>Node6</title>
<g id="a_node6"><a xlink:href="Window_8hpp.html" target="_top" xlink:title=" ">
<polygon fill="white" stroke="black" points="525,-224.5 525,-243.5 601,-243.5 601,-224.5 525,-224.5"/>
<text text-anchor="middle" x="563" y="-231.5" font-family="Helvetica,sans-Serif" font-size="10.00">Window.hpp</text>
</a>
</g>
</g>
<!-- Node5&#45;&gt;Node6 -->
<g id="edge6" class="edge">
<title>Node5&#45;&gt;Node6</title>
<path fill="none" stroke="midnightblue" d="M628.47,-280.32C616.41,-271.98 597.97,-259.21 583.73,-249.35"/>
<polygon fill="midnightblue" stroke="midnightblue" points="585.72,-246.47 575.5,-243.65 581.73,-252.22 585.72,-246.47"/>
</g>
<!-- Node6&#45;&gt;Node3 -->
<g id="edge7" class="edge">
<title>Node6&#45;&gt;Node3</title>
<path fill="none" stroke="midnightblue" d="M601.04,-232.16C633.48,-229.18 678.35,-219.2 701,-188 706.22,-180.81 702.45,-176.77 701,-168 692.44,-116.14 700.05,-93.28 663,-56 638.11,-30.96 598.61,-19.83 569.68,-14.9"/>
<polygon fill="midnightblue" stroke="midnightblue" points="569.96,-11.4 559.54,-13.35 568.9,-18.32 569.96,-11.4"/>
</g>
<!-- Node6&#45;&gt;Node4 -->
<g id="edge10" class="edge">
<title>Node6&#45;&gt;Node4</title>
<path fill="none" stroke="midnightblue" d="M524.85,-231.89C432.94,-228.76 201.6,-218.05 131,-188 105.47,-177.13 82.01,-154.78 67.86,-139.34"/>
<polygon fill="midnightblue" stroke="midnightblue" points="70.26,-136.76 61.01,-131.6 65.01,-141.4 70.26,-136.76"/>
</g>
<!-- Node6&#45;&gt;Node7 -->
<g id="edge8" class="edge">
<title>Node6&#45;&gt;Node7</title>
<path fill="none" stroke="midnightblue" d="M601.24,-226.65C665.82,-215.92 795.36,-194.39 855.69,-184.37"/>
<polygon fill="midnightblue" stroke="midnightblue" points="856.49,-187.78 865.79,-182.69 855.35,-180.88 856.49,-187.78"/>
</g>
<!-- Node8 -->
<g id="node8" class="node">
<title>Node8</title>
<g id="a_node8"><a xlink:title=" ">
<polygon fill="white" stroke="#bfbfbf" points="440,-168.5 440,-187.5 496,-187.5 496,-168.5 440,-168.5"/>
<text text-anchor="middle" x="468" y="-175.5" font-family="Helvetica,sans-Serif" font-size="10.00">optional</text>
</a>
</g>
</g>
<!-- Node6&#45;&gt;Node8 -->
<g id="edge9" class="edge">
<title>Node6&#45;&gt;Node8</title>
<path fill="none" stroke="midnightblue" d="M547.74,-224.32C532.78,-215.82 509.75,-202.73 492.27,-192.8"/>
<polygon fill="midnightblue" stroke="midnightblue" points="493.65,-189.55 483.23,-187.65 490.19,-195.64 493.65,-189.55"/>
</g>
<!-- Node9 -->
<g id="node9" class="node">
<title>Node9</title>
<g id="a_node9"><a xlink:href="lib_2Ray_2sources_2Vector_2Vector3_8hpp.html" target="_top" xlink:title=" ">
<polygon fill="white" stroke="black" points="480,-112.5 480,-131.5 588,-131.5 588,-112.5 480,-112.5"/>
<text text-anchor="middle" x="534" y="-119.5" font-family="Helvetica,sans-Serif" font-size="10.00">Vector/Vector3.hpp</text>
</a>
</g>
</g>
<!-- Node6&#45;&gt;Node9 -->
<g id="edge11" class="edge">
<title>Node6&#45;&gt;Node9</title>
<path fill="none" stroke="midnightblue" d="M558.26,-224.31C553.63,-215.44 546.75,-201.15 543,-188 538.65,-172.75 536.37,-154.86 535.19,-141.72"/>
<polygon fill="midnightblue" stroke="midnightblue" points="538.67,-141.28 534.42,-131.57 531.69,-141.81 538.67,-141.28"/>
</g>
<!-- Node10 -->
<g id="node10" class="node">
<title>Node10</title>
<g id="a_node10"><a xlink:href="Keyboard_8hpp.html" target="_top" xlink:title=" ">
<polygon fill="white" stroke="black" points="552,-168.5 552,-187.5 692,-187.5 692,-168.5 552,-168.5"/>
<text text-anchor="middle" x="622" y="-175.5" font-family="Helvetica,sans-Serif" font-size="10.00">Controllers/Keyboard.hpp</text>
</a>
</g>
</g>
<!-- Node6&#45;&gt;Node10 -->
<g id="edge13" class="edge">
<title>Node6&#45;&gt;Node10</title>
<path fill="none" stroke="midnightblue" d="M572.48,-224.32C581.2,-216.34 594.34,-204.31 604.9,-194.65"/>
<polygon fill="midnightblue" stroke="midnightblue" points="607.33,-197.17 612.35,-187.83 602.61,-192 607.33,-197.17"/>
</g>
<!-- Node12 -->
<g id="node12" class="node">
<title>Node12</title>
<g id="a_node12"><a xlink:href="Camera2D_8hpp.html" target="_top" xlink:title=" ">
<polygon fill="white" stroke="black" points="140.5,-168.5 140.5,-187.5 271.5,-187.5 271.5,-168.5 140.5,-168.5"/>
<text text-anchor="middle" x="206" y="-175.5" font-family="Helvetica,sans-Serif" font-size="10.00">Camera/Camera2D.hpp</text>
</a>
</g>
</g>
<!-- Node6&#45;&gt;Node12 -->
<g id="edge16" class="edge">
<title>Node6&#45;&gt;Node12</title>
<path fill="none" stroke="midnightblue" d="M524.79,-227.22C464.58,-218.11 346.83,-200.3 272.51,-189.06"/>
<polygon fill="midnightblue" stroke="midnightblue" points="272.74,-185.56 262.33,-187.52 271.69,-192.48 272.74,-185.56"/>
</g>
<!-- Node15 -->
<g id="node15" class="node">
<title>Node15</title>
<g id="a_node15"><a xlink:href="Camera3D_8hpp.html" target="_top" xlink:title=" ">
<polygon fill="white" stroke="black" points="290.5,-168.5 290.5,-187.5 421.5,-187.5 421.5,-168.5 290.5,-168.5"/>
<text text-anchor="middle" x="356" y="-175.5" font-family="Helvetica,sans-Serif" font-size="10.00">Camera/Camera3D.hpp</text>
</a>
</g>
</g>
<!-- Node6&#45;&gt;Node15 -->
<g id="edge22" class="edge">
<title>Node6&#45;&gt;Node15</title>
<path fill="none" stroke="midnightblue" d="M530.2,-224.44C494.62,-215.16 437.69,-200.31 398.65,-190.13"/>
<polygon fill="midnightblue" stroke="midnightblue" points="399.21,-186.65 388.65,-187.52 397.44,-193.43 399.21,-186.65"/>
</g>
<!-- Node6&#45;&gt;Node18 -->
<g id="edge30" class="edge">
<title>Node6&#45;&gt;Node18</title>
<path fill="none" stroke="midnightblue" d="M597.23,-224.44C635.39,-214.9 697.09,-199.48 737.85,-189.29"/>
<polygon fill="midnightblue" stroke="midnightblue" points="738.89,-192.64 747.74,-186.82 737.19,-185.85 738.89,-192.64"/>
</g>
<!-- Node9&#45;&gt;Node3 -->
<g id="edge12" class="edge">
<title>Node9&#45;&gt;Node3</title>
<path fill="none" stroke="midnightblue" d="M567.05,-112.41C599.51,-102.21 641.91,-83.09 625,-56 612.84,-36.52 589.53,-25.24 569.41,-18.84"/>
<polygon fill="midnightblue" stroke="midnightblue" points="570.14,-15.41 559.56,-16.01 568.2,-22.14 570.14,-15.41"/>
</g>
<!-- Node10&#45;&gt;Node3 -->
<g id="edge14" class="edge">
<title>Node10&#45;&gt;Node3</title>
<path fill="none" stroke="midnightblue" d="M633.54,-168.49C643.48,-160.38 657.12,-147.18 663,-132 675.7,-99.21 665.61,-81.12 641,-56 621.81,-36.41 592.82,-24.97 569.7,-18.53"/>
<polygon fill="midnightblue" stroke="midnightblue" points="570.44,-15.1 559.88,-15.98 568.68,-21.88 570.44,-15.1"/>
</g>
<!-- Node11 -->
<g id="node11" class="node">
<title>Node11</title>
<g id="a_node11"><a xlink:title=" ">
<polygon fill="white" stroke="#bfbfbf" points="606.5,-112.5 606.5,-131.5 653.5,-131.5 653.5,-112.5 606.5,-112.5"/>
<text text-anchor="middle" x="630" y="-119.5" font-family="Helvetica,sans-Serif" font-size="10.00">vector</text>
</a>
</g>
</g>
<!-- Node10&#45;&gt;Node11 -->
<g id="edge15" class="edge">
<title>Node10&#45;&gt;Node11</title>
<path fill="none" stroke="midnightblue" d="M623.32,-168.08C624.38,-160.93 625.91,-150.64 627.23,-141.69"/>
<polygon fill="midnightblue" stroke="midnightblue" points="630.7,-142.16 628.7,-131.75 623.78,-141.13 630.7,-142.16"/>
</g>
<!-- Node12&#45;&gt;Node3 -->
<g id="edge17" class="edge">
<title>Node12&#45;&gt;Node3</title>
<path fill="none" stroke="midnightblue" d="M190.9,-168.48C178.78,-160.71 162.57,-148.01 155,-132 140.55,-101.45 130.56,-81.26 153,-56 175.6,-30.56 405.43,-17.02 496.31,-12.62"/>
<polygon fill="midnightblue" stroke="midnightblue" points="496.6,-16.11 506.43,-12.14 496.27,-9.12 496.6,-16.11"/>
</g>
<!-- Node12&#45;&gt;Node4 -->
<g id="edge18" class="edge">
<title>Node12&#45;&gt;Node4</title>
<path fill="none" stroke="midnightblue" d="M181.92,-168.44C156.46,-159.4 116.11,-145.06 87.54,-134.92"/>
<polygon fill="midnightblue" stroke="midnightblue" points="88.57,-131.57 77.97,-131.52 86.22,-138.16 88.57,-131.57"/>
</g>
<!-- Node13 -->
<g id="node13" class="node">
<title>Node13</title>
<g id="a_node13"><a xlink:href="ICamera_8hpp.html" target="_top" xlink:title=" ">
<polygon fill="white" stroke="black" points="164,-112.5 164,-131.5 284,-131.5 284,-112.5 164,-112.5"/>
<text text-anchor="middle" x="224" y="-119.5" font-family="Helvetica,sans-Serif" font-size="10.00">Camera/ICamera.hpp</text>
</a>
</g>
</g>
<!-- Node12&#45;&gt;Node13 -->
<g id="edge19" class="edge">
<title>Node12&#45;&gt;Node13</title>
<path fill="none" stroke="midnightblue" d="M208.97,-168.08C211.38,-160.85 214.86,-150.41 217.87,-141.4"/>
<polygon fill="midnightblue" stroke="midnightblue" points="221.24,-142.34 221.08,-131.75 214.6,-140.13 221.24,-142.34"/>
</g>
<!-- Node14 -->
<g id="node14" class="node">
<title>Node14</title>
<g id="a_node14"><a xlink:href="Matrix_8hpp.html" target="_top" xlink:title=" ">
<polygon fill="white" stroke="black" points="162.5,-56.5 162.5,-75.5 231.5,-75.5 231.5,-56.5 162.5,-56.5"/>
<text text-anchor="middle" x="197" y="-63.5" font-family="Helvetica,sans-Serif" font-size="10.00">Matrix.hpp</text>
</a>
</g>
</g>
<!-- Node13&#45;&gt;Node14 -->
<g id="edge20" class="edge">
<title>Node13&#45;&gt;Node14</title>
<path fill="none" stroke="midnightblue" d="M219.54,-112.08C215.85,-104.69 210.48,-93.95 205.91,-84.81"/>
<polygon fill="midnightblue" stroke="midnightblue" points="208.98,-83.13 201.38,-75.75 202.72,-86.26 208.98,-83.13"/>
</g>
<!-- Node14&#45;&gt;Node3 -->
<g id="edge21" class="edge">
<title>Node14&#45;&gt;Node3</title>
<path fill="none" stroke="midnightblue" d="M231.56,-57.77C234.75,-57.15 237.93,-56.55 241,-56 332.54,-39.59 440.89,-23.85 496.32,-16.07"/>
<polygon fill="midnightblue" stroke="midnightblue" points="496.94,-19.51 506.36,-14.66 495.97,-12.58 496.94,-19.51"/>
</g>
<!-- Node15&#45;&gt;Node3 -->
<g id="edge23" class="edge">
<title>Node15&#45;&gt;Node3</title>
<path fill="none" stroke="midnightblue" d="M360.17,-168.26C370.84,-146.65 401.17,-90 441,-56 457.62,-41.81 479.49,-30.87 497.73,-23.34"/>
<polygon fill="midnightblue" stroke="midnightblue" points="499.16,-26.54 507.17,-19.6 496.58,-20.03 499.16,-26.54"/>
</g>
<!-- Node15&#45;&gt;Node9 -->
<g id="edge24" class="edge">
<title>Node15&#45;&gt;Node9</title>
<path fill="none" stroke="midnightblue" d="M384.2,-168.44C414.41,-159.28 462.51,-144.69 496.03,-134.52"/>
<polygon fill="midnightblue" stroke="midnightblue" points="497.37,-137.77 505.93,-131.52 495.34,-131.07 497.37,-137.77"/>
</g>
<!-- Node15&#45;&gt;Node13 -->
<g id="edge25" class="edge">
<title>Node15&#45;&gt;Node13</title>
<path fill="none" stroke="midnightblue" d="M335.08,-168.44C313.26,-159.52 278.85,-145.44 254.11,-135.32"/>
<polygon fill="midnightblue" stroke="midnightblue" points="255.4,-132.06 244.82,-131.52 252.75,-138.54 255.4,-132.06"/>
</g>
<!-- Node16 -->
<g id="node16" class="node">
<title>Node16</title>
<g id="a_node16"><a xlink:href="CameraProjection_8hpp.html" target="_top" xlink:title=" ">
<polygon fill="white" stroke="black" points="450,-56.5 450,-75.5 616,-75.5 616,-56.5 450,-56.5"/>
<text text-anchor="middle" x="533" y="-63.5" font-family="Helvetica,sans-Serif" font-size="10.00">Camera/CameraProjection.hpp</text>
</a>
</g>
</g>
<!-- Node15&#45;&gt;Node16 -->
<g id="edge26" class="edge">
<title>Node15&#45;&gt;Node16</title>
<path fill="none" stroke="midnightblue" d="M369.89,-168.37C400.39,-149.41 473.46,-104 510.57,-80.94"/>
<polygon fill="midnightblue" stroke="midnightblue" points="512.53,-83.84 519.18,-75.59 508.83,-77.9 512.53,-83.84"/>
</g>
<!-- Node17 -->
<g id="node17" class="node">
<title>Node17</title>
<g id="a_node17"><a xlink:href="CameraMode_8hpp.html" target="_top" xlink:title=" ">
<polygon fill="white" stroke="black" points="250,-56.5 250,-75.5 394,-75.5 394,-56.5 250,-56.5"/>
<text text-anchor="middle" x="322" y="-63.5" font-family="Helvetica,sans-Serif" font-size="10.00">Camera/CameraMode.hpp</text>
</a>
</g>
</g>
<!-- Node15&#45;&gt;Node17 -->
<g id="edge28" class="edge">
<title>Node15&#45;&gt;Node17</title>
<path fill="none" stroke="midnightblue" d="M353.33,-168.37C347.82,-150.54 335.07,-109.3 327.65,-85.27"/>
<polygon fill="midnightblue" stroke="midnightblue" points="330.95,-84.11 324.66,-75.59 324.26,-86.18 330.95,-84.11"/>
</g>
<!-- Node16&#45;&gt;Node3 -->
<g id="edge27" class="edge">
<title>Node16&#45;&gt;Node3</title>
<path fill="none" stroke="midnightblue" d="M533,-56.08C533,-49.01 533,-38.86 533,-29.99"/>
<polygon fill="midnightblue" stroke="midnightblue" points="536.5,-29.75 533,-19.75 529.5,-29.75 536.5,-29.75"/>
</g>
<!-- Node17&#45;&gt;Node3 -->
<g id="edge29" class="edge">
<title>Node17&#45;&gt;Node3</title>
<path fill="none" stroke="midnightblue" d="M355.43,-56.44C393.92,-46.59 456.91,-30.47 496.6,-20.32"/>
<polygon fill="midnightblue" stroke="midnightblue" points="497.58,-23.68 506.4,-17.81 495.85,-16.9 497.58,-23.68"/>
</g>
<!-- Node18&#45;&gt;Node3 -->
<g id="edge31" class="edge">
<title>Node18&#45;&gt;Node3</title>
<path fill="none" stroke="midnightblue" d="M778.5,-168.43C776.73,-146.21 768.79,-86.36 734,-56 709.8,-34.88 620.6,-21.25 569.53,-14.99"/>
<polygon fill="midnightblue" stroke="midnightblue" points="569.9,-11.51 559.56,-13.8 569.07,-18.46 569.9,-11.51"/>
</g>
</g>
</svg>
