<?xml version="1.0" encoding="UTF-8" standalone="no"?>
<!DOCTYPE svg PUBLIC "-//W3C//DTD SVG 1.1//EN"
 "http://www.w3.org/Graphics/SVG/1.1/DTD/svg11.dtd">
<!-- Generated by graphviz version 2.43.0 (0)
 -->
<!-- Title: lib/Ray/sources/Drawables/Texture.cpp Pages: 1 -->
<svg width="1387pt" height="599pt"
 viewBox="0.00 0.00 1387.00 599.00" xmlns="http://www.w3.org/2000/svg" xmlns:xlink="http://www.w3.org/1999/xlink">
<g id="graph0" class="graph" transform="scale(1 1) rotate(0) translate(4 595)">
<title>lib/Ray/sources/Drawables/Texture.cpp</title>
<polygon fill="white" stroke="transparent" points="-4,4 -4,-595 1383,-595 1383,4 -4,4"/>
<!-- Node1 -->
<g id="node1" class="node">
<title>Node1</title>
<g id="a_node1"><a xlink:title=" ">
<polygon fill="#bfbfbf" stroke="black" points="472,-560.5 472,-590.5 618,-590.5 618,-560.5 472,-560.5"/>
<text text-anchor="start" x="480" y="-578.5" font-family="Helvetica,sans-Serif" font-size="10.00">lib/Ray/sources/Drawables</text>
<text text-anchor="middle" x="545" y="-567.5" font-family="Helvetica,sans-Serif" font-size="10.00">/Texture.cpp</text>
</a>
</g>
</g>
<!-- Node2 -->
<g id="node2" class="node">
<title>Node2</title>
<g id="a_node2"><a xlink:href="Texture_8hpp.html" target="_top" xlink:title=" ">
<polygon fill="white" stroke="black" points="382,-448.5 382,-467.5 510,-467.5 510,-448.5 382,-448.5"/>
<text text-anchor="middle" x="446" y="-455.5" font-family="Helvetica,sans-Serif" font-size="10.00">Drawables/Texture.hpp</text>
</a>
</g>
</g>
<!-- Node1&#45;&gt;Node2 -->
<g id="edge1" class="edge">
<title>Node1&#45;&gt;Node2</title>
<path fill="none" stroke="midnightblue" d="M532.86,-560.34C514.46,-538.86 479.58,-498.17 460.08,-475.43"/>
<polygon fill="midnightblue" stroke="midnightblue" points="462.6,-472.98 453.43,-467.67 457.28,-477.54 462.6,-472.98"/>
</g>
<!-- Node15 -->
<g id="node15" class="node">
<title>Node15</title>
<g id="a_node15"><a xlink:href="Rectangle_8hpp.html" target="_top" xlink:title=" ">
<polygon fill="white" stroke="black" points="466,-392.5 466,-411.5 624,-411.5 624,-392.5 466,-392.5"/>
<text text-anchor="middle" x="545" y="-399.5" font-family="Helvetica,sans-Serif" font-size="10.00">Drawables/2D/Rectangle.hpp</text>
</a>
</g>
</g>
<!-- Node1&#45;&gt;Node15 -->
<g id="edge51" class="edge">
<title>Node1&#45;&gt;Node15</title>
<path fill="none" stroke="midnightblue" d="M545,-560.47C545,-529.7 545,-456.33 545,-421.7"/>
<polygon fill="midnightblue" stroke="midnightblue" points="548.5,-421.56 545,-411.56 541.5,-421.56 548.5,-421.56"/>
</g>
<!-- Node30 -->
<g id="node30" class="node">
<title>Node30</title>
<g id="a_node30"><a xlink:href="Image_8hpp.html" target="_top" xlink:title=" ">
<polygon fill="white" stroke="black" points="581.5,-504.5 581.5,-523.5 704.5,-523.5 704.5,-504.5 581.5,-504.5"/>
<text text-anchor="middle" x="643" y="-511.5" font-family="Helvetica,sans-Serif" font-size="10.00">Drawables/Image.hpp</text>
</a>
</g>
</g>
<!-- Node1&#45;&gt;Node30 -->
<g id="edge52" class="edge">
<title>Node1&#45;&gt;Node30</title>
<path fill="none" stroke="midnightblue" d="M568.22,-560.4C583.79,-550.95 604.2,-538.56 619.76,-529.11"/>
<polygon fill="midnightblue" stroke="midnightblue" points="622.01,-531.84 628.74,-523.66 618.38,-525.86 622.01,-531.84"/>
</g>
<!-- Node3 -->
<g id="node3" class="node">
<title>Node3</title>
<g id="a_node3"><a xlink:title=" ">
<polygon fill="white" stroke="#bfbfbf" points="867.5,-0.5 867.5,-19.5 920.5,-19.5 920.5,-0.5 867.5,-0.5"/>
<text text-anchor="middle" x="894" y="-7.5" font-family="Helvetica,sans-Serif" font-size="10.00">raylib.h</text>
</a>
</g>
</g>
<!-- Node2&#45;&gt;Node3 -->
<g id="edge2" class="edge">
<title>Node2&#45;&gt;Node3</title>
<path fill="none" stroke="midnightblue" d="M381.62,-454.46C258.11,-447.82 0,-424.66 0,-347 0,-347 0,-347 0,-121 0,-81.08 25.74,-72.7 62,-56 134.82,-22.47 705.4,-13.27 857.08,-11.4"/>
<polygon fill="midnightblue" stroke="midnightblue" points="857.3,-14.9 867.26,-11.28 857.22,-7.9 857.3,-14.9"/>
</g>
<!-- Node4 -->
<g id="node4" class="node">
<title>Node4</title>
<g id="a_node4"><a xlink:title=" ">
<polygon fill="white" stroke="#bfbfbf" points="468,-168.5 468,-187.5 512,-187.5 512,-168.5 468,-168.5"/>
<text text-anchor="middle" x="490" y="-175.5" font-family="Helvetica,sans-Serif" font-size="10.00">string</text>
</a>
</g>
</g>
<!-- Node2&#45;&gt;Node4 -->
<g id="edge3" class="edge">
<title>Node2&#45;&gt;Node4</title>
<path fill="none" stroke="midnightblue" d="M381.99,-449.05C285.51,-435.25 114,-402.86 114,-347 114,-347 114,-347 114,-289 114,-258.9 110.09,-243.53 133,-224 181.47,-182.68 379.22,-178.64 457.69,-178.7"/>
<polygon fill="midnightblue" stroke="midnightblue" points="457.93,-182.2 467.95,-178.73 457.96,-175.2 457.93,-182.2"/>
</g>
<!-- Node5 -->
<g id="node5" class="node">
<title>Node5</title>
<g id="a_node5"><a xlink:href="Cache_8hpp.html" target="_top" xlink:title=" ">
<polygon fill="white" stroke="black" points="498.5,-280.5 498.5,-299.5 591.5,-299.5 591.5,-280.5 498.5,-280.5"/>
<text text-anchor="middle" x="545" y="-287.5" font-family="Helvetica,sans-Serif" font-size="10.00">Utils/Cache.hpp</text>
</a>
</g>
</g>
<!-- Node2&#45;&gt;Node5 -->
<g id="edge4" class="edge">
<title>Node2&#45;&gt;Node5</title>
<path fill="none" stroke="midnightblue" d="M446,-448.14C446.33,-435.19 448.18,-410.62 457,-392 473.62,-356.9 506,-324.61 526.51,-306.41"/>
<polygon fill="midnightblue" stroke="midnightblue" points="528.97,-308.91 534.24,-299.71 524.39,-303.62 528.97,-308.91"/>
</g>
<!-- Node2&#45;&gt;Node15 -->
<g id="edge17" class="edge">
<title>Node2&#45;&gt;Node15</title>
<path fill="none" stroke="midnightblue" d="M461.91,-448.32C477.64,-439.74 501.94,-426.49 520.21,-416.52"/>
<polygon fill="midnightblue" stroke="midnightblue" points="522.03,-419.52 529.13,-411.65 518.68,-413.37 522.03,-419.52"/>
</g>
<!-- Node5&#45;&gt;Node3 -->
<g id="edge9" class="edge">
<title>Node5&#45;&gt;Node3</title>
<path fill="none" stroke="midnightblue" d="M498.38,-288.12C404.36,-285.66 195.63,-276.59 133,-244 98.92,-226.26 76,-217.42 76,-179 76,-179 76,-179 76,-121 76,-41.07 697.39,-16.91 856.99,-12.02"/>
<polygon fill="midnightblue" stroke="midnightblue" points="857.36,-15.51 867.25,-11.72 857.15,-8.52 857.36,-15.51"/>
</g>
<!-- Node5&#45;&gt;Node4 -->
<g id="edge15" class="edge">
<title>Node5&#45;&gt;Node4</title>
<path fill="none" stroke="midnightblue" d="M591.6,-285.38C647.79,-279.22 730.95,-263.29 699,-224 649.45,-163.07 602.56,-205.53 526,-188 524.73,-187.71 523.43,-187.41 522.12,-187.1"/>
<polygon fill="midnightblue" stroke="midnightblue" points="522.59,-183.61 512.05,-184.66 520.95,-190.42 522.59,-183.61"/>
</g>
<!-- Node6 -->
<g id="node6" class="node">
<title>Node6</title>
<g id="a_node6"><a xlink:title=" ">
<polygon fill="white" stroke="#bfbfbf" points="374,-224.5 374,-243.5 432,-243.5 432,-224.5 374,-224.5"/>
<text text-anchor="middle" x="403" y="-231.5" font-family="Helvetica,sans-Serif" font-size="10.00">memory</text>
</a>
</g>
</g>
<!-- Node5&#45;&gt;Node6 -->
<g id="edge5" class="edge">
<title>Node5&#45;&gt;Node6</title>
<path fill="none" stroke="midnightblue" d="M522.5,-280.44C498.92,-271.48 461.68,-257.31 435.04,-247.18"/>
<polygon fill="midnightblue" stroke="midnightblue" points="435.99,-243.8 425.4,-243.52 433.5,-250.34 435.99,-243.8"/>
</g>
<!-- Node7 -->
<g id="node7" class="node">
<title>Node7</title>
<g id="a_node7"><a xlink:title=" ">
<polygon fill="white" stroke="#bfbfbf" points="450.5,-224.5 450.5,-243.5 543.5,-243.5 543.5,-224.5 450.5,-224.5"/>
<text text-anchor="middle" x="497" y="-231.5" font-family="Helvetica,sans-Serif" font-size="10.00">unordered_map</text>
</a>
</g>
</g>
<!-- Node5&#45;&gt;Node7 -->
<g id="edge6" class="edge">
<title>Node5&#45;&gt;Node7</title>
<path fill="none" stroke="midnightblue" d="M537.07,-280.08C530.15,-272.3 519.93,-260.8 511.55,-251.37"/>
<polygon fill="midnightblue" stroke="midnightblue" points="514.04,-248.9 504.78,-243.75 508.81,-253.55 514.04,-248.9"/>
</g>
<!-- Node8 -->
<g id="node8" class="node">
<title>Node8</title>
<g id="a_node8"><a xlink:title=" ">
<polygon fill="white" stroke="#bfbfbf" points="561.5,-224.5 561.5,-243.5 626.5,-243.5 626.5,-224.5 561.5,-224.5"/>
<text text-anchor="middle" x="594" y="-231.5" font-family="Helvetica,sans-Serif" font-size="10.00">functional</text>
</a>
</g>
</g>
<!-- Node5&#45;&gt;Node8 -->
<g id="edge7" class="edge">
<title>Node5&#45;&gt;Node8</title>
<path fill="none" stroke="midnightblue" d="M553.09,-280.08C560.16,-272.3 570.59,-260.8 579.15,-251.37"/>
<polygon fill="midnightblue" stroke="midnightblue" points="581.93,-253.51 586.06,-243.75 576.75,-248.8 581.93,-253.51"/>
</g>
<!-- Node9 -->
<g id="node9" class="node">
<title>Node9</title>
<g id="a_node9"><a xlink:title=" ">
<polygon fill="white" stroke="#bfbfbf" points="644.5,-224.5 644.5,-243.5 689.5,-243.5 689.5,-224.5 644.5,-224.5"/>
<text text-anchor="middle" x="667" y="-231.5" font-family="Helvetica,sans-Serif" font-size="10.00">utility</text>
</a>
</g>
</g>
<!-- Node5&#45;&gt;Node9 -->
<g id="edge8" class="edge">
<title>Node5&#45;&gt;Node9</title>
<path fill="none" stroke="midnightblue" d="M564.33,-280.44C584.32,-271.6 615.74,-257.69 638.56,-247.59"/>
<polygon fill="midnightblue" stroke="midnightblue" points="640.03,-250.76 647.76,-243.52 637.2,-244.36 640.03,-250.76"/>
</g>
<!-- Node10 -->
<g id="node10" class="node">
<title>Node10</title>
<g id="a_node10"><a xlink:href="RayError_8hpp.html" target="_top" xlink:title=" ">
<polygon fill="white" stroke="black" points="142.5,-224.5 142.5,-243.5 277.5,-243.5 277.5,-224.5 142.5,-224.5"/>
<text text-anchor="middle" x="210" y="-231.5" font-family="Helvetica,sans-Serif" font-size="10.00">Exceptions/RayError.hpp</text>
</a>
</g>
</g>
<!-- Node5&#45;&gt;Node10 -->
<g id="edge10" class="edge">
<title>Node5&#45;&gt;Node10</title>
<path fill="none" stroke="midnightblue" d="M498.42,-281.49C439.71,-272.03 338.58,-255.73 273.01,-245.16"/>
<polygon fill="midnightblue" stroke="midnightblue" points="273.23,-241.65 262.8,-243.51 272.12,-248.56 273.23,-241.65"/>
</g>
<!-- Node12 -->
<g id="node12" class="node">
<title>Node12</title>
<g id="a_node12"><a xlink:title=" ">
<polygon fill="white" stroke="#bfbfbf" points="606.5,-112.5 606.5,-131.5 653.5,-131.5 653.5,-112.5 606.5,-112.5"/>
<text text-anchor="middle" x="630" y="-119.5" font-family="Helvetica,sans-Serif" font-size="10.00">vector</text>
</a>
</g>
</g>
<!-- Node5&#45;&gt;Node12 -->
<g id="edge13" class="edge">
<title>Node5&#45;&gt;Node12</title>
<path fill="none" stroke="midnightblue" d="M591.59,-288.33C662,-286.22 790.37,-277.71 819,-244 824.75,-237.22 824.76,-230.77 819,-224 754.22,-147.87 661.78,-264.13 597,-188 584.41,-173.2 598.79,-152.77 612.33,-138.78"/>
<polygon fill="midnightblue" stroke="midnightblue" points="614.83,-141.23 619.58,-131.76 609.96,-136.2 614.83,-141.23"/>
</g>
<!-- Node13 -->
<g id="node13" class="node">
<title>Node13</title>
<g id="a_node13"><a xlink:title=" ">
<polygon fill="white" stroke="#bfbfbf" points="746,-224.5 746,-243.5 810,-243.5 810,-224.5 746,-224.5"/>
<text text-anchor="middle" x="778" y="-231.5" font-family="Helvetica,sans-Serif" font-size="10.00">algorithm</text>
</a>
</g>
</g>
<!-- Node5&#45;&gt;Node13 -->
<g id="edge14" class="edge">
<title>Node5&#45;&gt;Node13</title>
<path fill="none" stroke="midnightblue" d="M581.92,-280.44C623.82,-270.73 692.04,-254.92 735.96,-244.74"/>
<polygon fill="midnightblue" stroke="midnightblue" points="736.8,-248.14 745.76,-242.47 735.22,-241.32 736.8,-248.14"/>
</g>
<!-- Node14 -->
<g id="node14" class="node">
<title>Node14</title>
<g id="a_node14"><a xlink:title=" ">
<polygon fill="white" stroke="#bfbfbf" points="296,-224.5 296,-243.5 356,-243.5 356,-224.5 296,-224.5"/>
<text text-anchor="middle" x="326" y="-231.5" font-family="Helvetica,sans-Serif" font-size="10.00">iostream</text>
</a>
</g>
</g>
<!-- Node5&#45;&gt;Node14 -->
<g id="edge16" class="edge">
<title>Node5&#45;&gt;Node14</title>
<path fill="none" stroke="midnightblue" d="M510.3,-280.44C471.08,-270.77 407.33,-255.05 366.04,-244.87"/>
<polygon fill="midnightblue" stroke="midnightblue" points="366.85,-241.47 356.31,-242.47 365.18,-248.27 366.85,-241.47"/>
</g>
<!-- Node10&#45;&gt;Node4 -->
<g id="edge12" class="edge">
<title>Node10&#45;&gt;Node4</title>
<path fill="none" stroke="midnightblue" d="M254.37,-224.44C311.09,-213.5 407.93,-194.83 457.97,-185.18"/>
<polygon fill="midnightblue" stroke="midnightblue" points="458.75,-188.59 467.9,-183.26 457.42,-181.72 458.75,-188.59"/>
</g>
<!-- Node11 -->
<g id="node11" class="node">
<title>Node11</title>
<g id="a_node11"><a xlink:title=" ">
<polygon fill="white" stroke="#bfbfbf" points="177.5,-168.5 177.5,-187.5 242.5,-187.5 242.5,-168.5 177.5,-168.5"/>
<text text-anchor="middle" x="210" y="-175.5" font-family="Helvetica,sans-Serif" font-size="10.00">stdexcept</text>
</a>
</g>
</g>
<!-- Node10&#45;&gt;Node11 -->
<g id="edge11" class="edge">
<title>Node10&#45;&gt;Node11</title>
<path fill="none" stroke="midnightblue" d="M210,-224.08C210,-217.01 210,-206.86 210,-197.99"/>
<polygon fill="midnightblue" stroke="midnightblue" points="213.5,-197.75 210,-187.75 206.5,-197.75 213.5,-197.75"/>
</g>
<!-- Node15&#45;&gt;Node3 -->
<g id="edge18" class="edge">
<title>Node15&#45;&gt;Node3</title>
<path fill="none" stroke="midnightblue" d="M465.78,-400.9C323.19,-396.12 38,-363.49 38,-179 38,-179 38,-179 38,-121 38,-60.35 99.69,-72.69 158,-56 291.48,-17.8 727.13,-12.03 857.08,-11.16"/>
<polygon fill="midnightblue" stroke="midnightblue" points="857.33,-14.65 867.3,-11.09 857.28,-7.65 857.33,-14.65"/>
</g>
<!-- Node16 -->
<g id="node16" class="node">
<title>Node16</title>
<g id="a_node16"><a xlink:href="ADrawable2D_8hpp.html" target="_top" xlink:title=" ">
<polygon fill="white" stroke="black" points="1143.5,-336.5 1143.5,-355.5 1302.5,-355.5 1302.5,-336.5 1143.5,-336.5"/>
<text text-anchor="middle" x="1223" y="-343.5" font-family="Helvetica,sans-Serif" font-size="10.00">Drawables/ADrawable2D.hpp</text>
</a>
</g>
</g>
<!-- Node15&#45;&gt;Node16 -->
<g id="edge19" class="edge">
<title>Node15&#45;&gt;Node16</title>
<path fill="none" stroke="midnightblue" d="M624.1,-394.7C751.09,-384.59 999.67,-364.79 1133.16,-354.16"/>
<polygon fill="midnightblue" stroke="midnightblue" points="1133.66,-357.63 1143.35,-353.34 1133.11,-350.65 1133.66,-357.63"/>
</g>
<!-- Node16&#45;&gt;Node3 -->
<g id="edge20" class="edge">
<title>Node16&#45;&gt;Node3</title>
<path fill="none" stroke="midnightblue" d="M1244.92,-336.39C1279.04,-321.37 1341,-286.95 1341,-235 1341,-235 1341,-235 1341,-121 1341,-76.21 1305.05,-73.9 1264,-56 1204.68,-30.14 1012.18,-17.22 930.83,-12.8"/>
<polygon fill="midnightblue" stroke="midnightblue" points="930.74,-9.3 920.57,-12.26 930.37,-16.29 930.74,-9.3"/>
</g>
<!-- Node17 -->
<g id="node17" class="node">
<title>Node17</title>
<g id="a_node17"><a xlink:href="lib_2Ray_2sources_2Vector_2Vector2_8hpp.html" target="_top" xlink:title=" ">
<polygon fill="white" stroke="black" points="1167,-112.5 1167,-131.5 1275,-131.5 1275,-112.5 1167,-112.5"/>
<text text-anchor="middle" x="1221" y="-119.5" font-family="Helvetica,sans-Serif" font-size="10.00">Vector/Vector2.hpp</text>
</a>
</g>
</g>
<!-- Node16&#45;&gt;Node17 -->
<g id="edge21" class="edge">
<title>Node16&#45;&gt;Node17</title>
<path fill="none" stroke="midnightblue" d="M1222.92,-336.3C1222.63,-303.63 1221.58,-187.87 1221.17,-141.96"/>
<polygon fill="midnightblue" stroke="midnightblue" points="1224.67,-141.85 1221.08,-131.88 1217.67,-141.91 1224.67,-141.85"/>
</g>
<!-- Node18 -->
<g id="node18" class="node">
<title>Node18</title>
<g id="a_node18"><a xlink:href="IDrawable_8hpp.html" target="_top" xlink:title=" ">
<polygon fill="white" stroke="black" points="962,-280.5 962,-299.5 1104,-299.5 1104,-280.5 962,-280.5"/>
<text text-anchor="middle" x="1033" y="-287.5" font-family="Helvetica,sans-Serif" font-size="10.00">Drawables/IDrawable.hpp</text>
</a>
</g>
</g>
<!-- Node16&#45;&gt;Node18 -->
<g id="edge23" class="edge">
<title>Node16&#45;&gt;Node18</title>
<path fill="none" stroke="midnightblue" d="M1192.89,-336.44C1160.37,-327.2 1108.42,-312.44 1072.61,-302.26"/>
<polygon fill="midnightblue" stroke="midnightblue" points="1073.54,-298.88 1062.97,-299.52 1071.63,-305.62 1073.54,-298.88"/>
</g>
<!-- Node29 -->
<g id="node29" class="node">
<title>Node29</title>
<g id="a_node29"><a xlink:href="Color_8hpp.html" target="_top" xlink:title=" ">
<polygon fill="white" stroke="black" points="1251,-168.5 1251,-187.5 1313,-187.5 1313,-168.5 1251,-168.5"/>
<text text-anchor="middle" x="1282" y="-175.5" font-family="Helvetica,sans-Serif" font-size="10.00">Color.hpp</text>
</a>
</g>
</g>
<!-- Node16&#45;&gt;Node29 -->
<g id="edge50" class="edge">
<title>Node16&#45;&gt;Node29</title>
<path fill="none" stroke="midnightblue" d="M1226.17,-336.08C1235.5,-309.83 1262.97,-232.55 1275.56,-197.12"/>
<polygon fill="midnightblue" stroke="midnightblue" points="1278.9,-198.16 1278.95,-187.57 1272.31,-195.82 1278.9,-198.16"/>
</g>
<!-- Node17&#45;&gt;Node3 -->
<g id="edge22" class="edge">
<title>Node17&#45;&gt;Node3</title>
<path fill="none" stroke="midnightblue" d="M1223.75,-112.11C1227.43,-98.22 1232.01,-71.36 1218,-56 1180.17,-14.52 1007.54,-10.27 930.87,-10.49"/>
<polygon fill="midnightblue" stroke="midnightblue" points="930.69,-6.99 920.71,-10.54 930.73,-13.99 930.69,-6.99"/>
</g>
<!-- Node19 -->
<g id="node19" class="node">
<title>Node19</title>
<g id="a_node19"><a xlink:href="Window_8hpp.html" target="_top" xlink:title=" ">
<polygon fill="white" stroke="black" points="904,-224.5 904,-243.5 980,-243.5 980,-224.5 904,-224.5"/>
<text text-anchor="middle" x="942" y="-231.5" font-family="Helvetica,sans-Serif" font-size="10.00">Window.hpp</text>
</a>
</g>
</g>
<!-- Node18&#45;&gt;Node19 -->
<g id="edge24" class="edge">
<title>Node18&#45;&gt;Node19</title>
<path fill="none" stroke="midnightblue" d="M1018.38,-280.32C1004.05,-271.82 981.99,-258.73 965.25,-248.8"/>
<polygon fill="midnightblue" stroke="midnightblue" points="966.97,-245.75 956.58,-243.65 963.4,-251.77 966.97,-245.75"/>
</g>
<!-- Node19&#45;&gt;Node3 -->
<g id="edge25" class="edge">
<title>Node19&#45;&gt;Node3</title>
<path fill="none" stroke="midnightblue" d="M903.76,-228.68C814.98,-218.56 602.04,-193.74 597,-188 589.14,-179.05 577.48,-147.76 598,-112 621.82,-70.48 645.58,-73.84 690,-56 746.16,-33.44 815.77,-21.17 857.45,-15.36"/>
<polygon fill="midnightblue" stroke="midnightblue" points="857.97,-18.83 867.42,-14.02 857.04,-11.89 857.97,-18.83"/>
</g>
<!-- Node19&#45;&gt;Node4 -->
<g id="edge26" class="edge">
<title>Node19&#45;&gt;Node4</title>
<path fill="none" stroke="midnightblue" d="M903.9,-228.5C835.72,-220.43 688.34,-202.96 564,-188 550.35,-186.36 535.28,-184.53 522.33,-182.95"/>
<polygon fill="midnightblue" stroke="midnightblue" points="522.37,-179.43 512.02,-181.69 521.52,-186.38 522.37,-179.43"/>
</g>
<!-- Node19&#45;&gt;Node17 -->
<g id="edge28" class="edge">
<title>Node19&#45;&gt;Node17</title>
<path fill="none" stroke="midnightblue" d="M980.37,-232.82C1027.27,-230.98 1107.59,-222.49 1166,-188 1185.42,-176.53 1201.23,-155.64 1210.83,-140.64"/>
<polygon fill="midnightblue" stroke="midnightblue" points="1214.01,-142.15 1216.22,-131.79 1208.03,-138.51 1214.01,-142.15"/>
</g>
<!-- Node20 -->
<g id="node20" class="node">
<title>Node20</title>
<g id="a_node20"><a xlink:title=" ">
<polygon fill="white" stroke="#bfbfbf" points="606,-168.5 606,-187.5 662,-187.5 662,-168.5 606,-168.5"/>
<text text-anchor="middle" x="634" y="-175.5" font-family="Helvetica,sans-Serif" font-size="10.00">optional</text>
</a>
</g>
</g>
<!-- Node19&#45;&gt;Node20 -->
<g id="edge27" class="edge">
<title>Node19&#45;&gt;Node20</title>
<path fill="none" stroke="midnightblue" d="M903.95,-226.38C899.25,-225.57 894.52,-224.76 890,-224 795.87,-208.12 769.35,-207.68 672.18,-188.12"/>
<polygon fill="midnightblue" stroke="midnightblue" points="672.73,-184.66 662.23,-186.1 671.34,-191.52 672.73,-184.66"/>
</g>
<!-- Node21 -->
<g id="node21" class="node">
<title>Node21</title>
<g id="a_node21"><a xlink:href="lib_2Ray_2sources_2Vector_2Vector3_8hpp.html" target="_top" xlink:title=" ">
<polygon fill="white" stroke="black" points="720,-112.5 720,-131.5 828,-131.5 828,-112.5 720,-112.5"/>
<text text-anchor="middle" x="774" y="-119.5" font-family="Helvetica,sans-Serif" font-size="10.00">Vector/Vector3.hpp</text>
</a>
</g>
</g>
<!-- Node19&#45;&gt;Node21 -->
<g id="edge29" class="edge">
<title>Node19&#45;&gt;Node21</title>
<path fill="none" stroke="midnightblue" d="M927.38,-224.45C912.34,-215.58 888.31,-201.18 868,-188 842.14,-171.22 813.04,-150.86 794.16,-137.45"/>
<polygon fill="midnightblue" stroke="midnightblue" points="796.19,-134.6 786.01,-131.64 792.13,-140.3 796.19,-134.6"/>
</g>
<!-- Node22 -->
<g id="node22" class="node">
<title>Node22</title>
<g id="a_node22"><a xlink:href="Keyboard_8hpp.html" target="_top" xlink:title=" ">
<polygon fill="white" stroke="black" points="680,-168.5 680,-187.5 820,-187.5 820,-168.5 680,-168.5"/>
<text text-anchor="middle" x="750" y="-175.5" font-family="Helvetica,sans-Serif" font-size="10.00">Controllers/Keyboard.hpp</text>
</a>
</g>
</g>
<!-- Node19&#45;&gt;Node22 -->
<g id="edge31" class="edge">
<title>Node19&#45;&gt;Node22</title>
<path fill="none" stroke="midnightblue" d="M911.58,-224.44C878.72,-215.2 826.22,-200.44 790.03,-190.26"/>
<polygon fill="midnightblue" stroke="midnightblue" points="790.85,-186.85 780.28,-187.52 788.96,-193.59 790.85,-186.85"/>
</g>
<!-- Node23 -->
<g id="node23" class="node">
<title>Node23</title>
<g id="a_node23"><a xlink:href="Camera2D_8hpp.html" target="_top" xlink:title=" ">
<polygon fill="white" stroke="black" points="1025.5,-168.5 1025.5,-187.5 1156.5,-187.5 1156.5,-168.5 1025.5,-168.5"/>
<text text-anchor="middle" x="1091" y="-175.5" font-family="Helvetica,sans-Serif" font-size="10.00">Camera/Camera2D.hpp</text>
</a>
</g>
</g>
<!-- Node19&#45;&gt;Node23 -->
<g id="edge34" class="edge">
<title>Node19&#45;&gt;Node23</title>
<path fill="none" stroke="midnightblue" d="M965.61,-224.44C990.46,-215.44 1029.77,-201.19 1057.75,-191.05"/>
<polygon fill="midnightblue" stroke="midnightblue" points="1059.29,-194.21 1067.5,-187.52 1056.91,-187.63 1059.29,-194.21"/>
</g>
<!-- Node26 -->
<g id="node26" class="node">
<title>Node26</title>
<g id="a_node26"><a xlink:href="Camera3D_8hpp.html" target="_top" xlink:title=" ">
<polygon fill="white" stroke="black" points="876.5,-168.5 876.5,-187.5 1007.5,-187.5 1007.5,-168.5 876.5,-168.5"/>
<text text-anchor="middle" x="942" y="-175.5" font-family="Helvetica,sans-Serif" font-size="10.00">Camera/Camera3D.hpp</text>
</a>
</g>
</g>
<!-- Node19&#45;&gt;Node26 -->
<g id="edge40" class="edge">
<title>Node19&#45;&gt;Node26</title>
<path fill="none" stroke="midnightblue" d="M942,-224.08C942,-217.01 942,-206.86 942,-197.99"/>
<polygon fill="midnightblue" stroke="midnightblue" points="945.5,-197.75 942,-187.75 938.5,-197.75 945.5,-197.75"/>
</g>
<!-- Node19&#45;&gt;Node29 -->
<g id="edge48" class="edge">
<title>Node19&#45;&gt;Node29</title>
<path fill="none" stroke="midnightblue" d="M980.01,-226.96C1044.33,-216.75 1174.08,-196.14 1240.61,-185.57"/>
<polygon fill="midnightblue" stroke="midnightblue" points="1241.4,-188.99 1250.73,-183.97 1240.3,-182.08 1241.4,-188.99"/>
</g>
<!-- Node21&#45;&gt;Node3 -->
<g id="edge30" class="edge">
<title>Node21&#45;&gt;Node3</title>
<path fill="none" stroke="midnightblue" d="M755.34,-112.42C731.75,-100.39 696.13,-77.58 713,-56 730.56,-33.54 809.59,-20.69 857.23,-14.85"/>
<polygon fill="midnightblue" stroke="midnightblue" points="857.65,-18.33 867.17,-13.68 856.83,-11.38 857.65,-18.33"/>
</g>
<!-- Node22&#45;&gt;Node3 -->
<g id="edge32" class="edge">
<title>Node22&#45;&gt;Node3</title>
<path fill="none" stroke="midnightblue" d="M739.45,-168.19C730.28,-159.87 717.48,-146.54 711,-132 697.19,-101.02 682.96,-82.61 704,-56 722.75,-32.29 807.56,-19.78 857.31,-14.37"/>
<polygon fill="midnightblue" stroke="midnightblue" points="857.77,-17.84 867.36,-13.32 857.05,-10.88 857.77,-17.84"/>
</g>
<!-- Node22&#45;&gt;Node12 -->
<g id="edge33" class="edge">
<title>Node22&#45;&gt;Node12</title>
<path fill="none" stroke="midnightblue" d="M730.99,-168.44C711.41,-159.64 680.69,-145.81 658.27,-135.72"/>
<polygon fill="midnightblue" stroke="midnightblue" points="659.48,-132.43 648.93,-131.52 656.61,-138.81 659.48,-132.43"/>
</g>
<!-- Node23&#45;&gt;Node3 -->
<g id="edge35" class="edge">
<title>Node23&#45;&gt;Node3</title>
<path fill="none" stroke="midnightblue" d="M1099.84,-168.26C1122.37,-145.88 1180.48,-87.48 1185,-76 1188.25,-67.73 1190.79,-62.75 1185,-56 1152.72,-18.34 1002.19,-11.92 931.22,-11.01"/>
<polygon fill="midnightblue" stroke="midnightblue" points="930.97,-7.51 920.94,-10.92 930.91,-14.51 930.97,-7.51"/>
</g>
<!-- Node23&#45;&gt;Node17 -->
<g id="edge36" class="edge">
<title>Node23&#45;&gt;Node17</title>
<path fill="none" stroke="midnightblue" d="M1111.6,-168.44C1132.99,-159.56 1166.68,-145.56 1191.02,-135.45"/>
<polygon fill="midnightblue" stroke="midnightblue" points="1192.61,-138.58 1200.5,-131.52 1189.92,-132.12 1192.61,-138.58"/>
</g>
<!-- Node24 -->
<g id="node24" class="node">
<title>Node24</title>
<g id="a_node24"><a xlink:href="ICamera_8hpp.html" target="_top" xlink:title=" ">
<polygon fill="white" stroke="black" points="991,-112.5 991,-131.5 1111,-131.5 1111,-112.5 991,-112.5"/>
<text text-anchor="middle" x="1051" y="-119.5" font-family="Helvetica,sans-Serif" font-size="10.00">Camera/ICamera.hpp</text>
</a>
</g>
</g>
<!-- Node23&#45;&gt;Node24 -->
<g id="edge37" class="edge">
<title>Node23&#45;&gt;Node24</title>
<path fill="none" stroke="midnightblue" d="M1084.39,-168.08C1078.74,-160.46 1070.46,-149.26 1063.55,-139.94"/>
<polygon fill="midnightblue" stroke="midnightblue" points="1066.25,-137.7 1057.48,-131.75 1060.62,-141.87 1066.25,-137.7"/>
</g>
<!-- Node25 -->
<g id="node25" class="node">
<title>Node25</title>
<g id="a_node25"><a xlink:href="Matrix_8hpp.html" target="_top" xlink:title=" ">
<polygon fill="white" stroke="black" points="1106.5,-56.5 1106.5,-75.5 1175.5,-75.5 1175.5,-56.5 1106.5,-56.5"/>
<text text-anchor="middle" x="1141" y="-63.5" font-family="Helvetica,sans-Serif" font-size="10.00">Matrix.hpp</text>
</a>
</g>
</g>
<!-- Node24&#45;&gt;Node25 -->
<g id="edge38" class="edge">
<title>Node24&#45;&gt;Node25</title>
<path fill="none" stroke="midnightblue" d="M1065.46,-112.32C1079.5,-103.9 1101.05,-90.97 1117.54,-81.07"/>
<polygon fill="midnightblue" stroke="midnightblue" points="1119.8,-83.8 1126.58,-75.65 1116.2,-77.8 1119.8,-83.8"/>
</g>
<!-- Node25&#45;&gt;Node3 -->
<g id="edge39" class="edge">
<title>Node25&#45;&gt;Node3</title>
<path fill="none" stroke="midnightblue" d="M1106.4,-57.43C1060.01,-47.29 978.03,-29.37 930.64,-19.01"/>
<polygon fill="midnightblue" stroke="midnightblue" points="931.31,-15.57 920.79,-16.86 929.81,-22.41 931.31,-15.57"/>
</g>
<!-- Node26&#45;&gt;Node3 -->
<g id="edge41" class="edge">
<title>Node26&#45;&gt;Node3</title>
<path fill="none" stroke="midnightblue" d="M939.42,-168.08C931.86,-141.95 909.68,-65.21 899.37,-29.58"/>
<polygon fill="midnightblue" stroke="midnightblue" points="902.62,-28.2 896.48,-19.57 895.89,-30.15 902.62,-28.2"/>
</g>
<!-- Node26&#45;&gt;Node21 -->
<g id="edge42" class="edge">
<title>Node26&#45;&gt;Node21</title>
<path fill="none" stroke="midnightblue" d="M915.38,-168.44C886.99,-159.32 841.86,-144.81 810.25,-134.65"/>
<polygon fill="midnightblue" stroke="midnightblue" points="811.09,-131.24 800.5,-131.52 808.94,-137.91 811.09,-131.24"/>
</g>
<!-- Node26&#45;&gt;Node24 -->
<g id="edge43" class="edge">
<title>Node26&#45;&gt;Node24</title>
<path fill="none" stroke="midnightblue" d="M959.51,-168.32C977.07,-159.62 1004.33,-146.12 1024.53,-136.11"/>
<polygon fill="midnightblue" stroke="midnightblue" points="1026.12,-139.23 1033.53,-131.65 1023.02,-132.96 1026.12,-139.23"/>
</g>
<!-- Node27 -->
<g id="node27" class="node">
<title>Node27</title>
<g id="a_node27"><a xlink:href="CameraProjection_8hpp.html" target="_top" xlink:title=" ">
<polygon fill="white" stroke="black" points="922,-56.5 922,-75.5 1088,-75.5 1088,-56.5 922,-56.5"/>
<text text-anchor="middle" x="1005" y="-63.5" font-family="Helvetica,sans-Serif" font-size="10.00">Camera/CameraProjection.hpp</text>
</a>
</g>
</g>
<!-- Node26&#45;&gt;Node27 -->
<g id="edge44" class="edge">
<title>Node26&#45;&gt;Node27</title>
<path fill="none" stroke="midnightblue" d="M946.94,-168.37C957.29,-150.3 981.42,-108.18 995.09,-84.31"/>
<polygon fill="midnightblue" stroke="midnightblue" points="998.15,-86.01 1000.08,-75.59 992.07,-82.53 998.15,-86.01"/>
</g>
<!-- Node28 -->
<g id="node28" class="node">
<title>Node28</title>
<g id="a_node28"><a xlink:href="CameraMode_8hpp.html" target="_top" xlink:title=" ">
<polygon fill="white" stroke="black" points="722,-56.5 722,-75.5 866,-75.5 866,-56.5 722,-56.5"/>
<text text-anchor="middle" x="794" y="-63.5" font-family="Helvetica,sans-Serif" font-size="10.00">Camera/CameraMode.hpp</text>
</a>
</g>
</g>
<!-- Node26&#45;&gt;Node28 -->
<g id="edge46" class="edge">
<title>Node26&#45;&gt;Node28</title>
<path fill="none" stroke="midnightblue" d="M930.06,-168.44C917.54,-159.44 897.31,-144.82 880,-132 857.08,-115.02 830.96,-95.22 813.58,-81.97"/>
<polygon fill="midnightblue" stroke="midnightblue" points="815.43,-78.98 805.35,-75.69 811.18,-84.54 815.43,-78.98"/>
</g>
<!-- Node27&#45;&gt;Node3 -->
<g id="edge45" class="edge">
<title>Node27&#45;&gt;Node3</title>
<path fill="none" stroke="midnightblue" d="M987.17,-56.32C969.28,-47.62 941.52,-34.12 920.95,-24.11"/>
<polygon fill="midnightblue" stroke="midnightblue" points="922.31,-20.88 911.79,-19.65 919.25,-27.18 922.31,-20.88"/>
</g>
<!-- Node28&#45;&gt;Node3 -->
<g id="edge47" class="edge">
<title>Node28&#45;&gt;Node3</title>
<path fill="none" stroke="midnightblue" d="M810.07,-56.32C825.96,-47.74 850.51,-34.49 868.96,-24.52"/>
<polygon fill="midnightblue" stroke="midnightblue" points="870.84,-27.49 877.97,-19.65 867.51,-21.33 870.84,-27.49"/>
</g>
<!-- Node29&#45;&gt;Node3 -->
<g id="edge49" class="edge">
<title>Node29&#45;&gt;Node3</title>
<path fill="none" stroke="midnightblue" d="M1284.29,-168.25C1287.2,-155.45 1291.05,-131.06 1284,-112 1272.63,-81.26 1264.82,-71.62 1236,-56 1183.89,-27.77 1007.9,-16.29 930.75,-12.54"/>
<polygon fill="midnightblue" stroke="midnightblue" points="930.7,-9.03 920.55,-12.06 930.37,-16.02 930.7,-9.03"/>
</g>
<!-- Node30&#45;&gt;Node2 -->
<g id="edge55" class="edge">
<title>Node30&#45;&gt;Node2</title>
<path fill="none" stroke="midnightblue" d="M611.78,-504.44C578.07,-495.2 524.2,-480.44 487.07,-470.26"/>
<polygon fill="midnightblue" stroke="midnightblue" points="487.64,-466.78 477.07,-467.52 485.79,-473.54 487.64,-466.78"/>
</g>
<!-- Node30&#45;&gt;Node3 -->
<g id="edge53" class="edge">
<title>Node30&#45;&gt;Node3</title>
<path fill="none" stroke="midnightblue" d="M704.8,-510.24C881.97,-501.51 1379,-470.95 1379,-403 1379,-403 1379,-403 1379,-121 1379,-76.21 1343.15,-73.67 1302,-56 1235.6,-27.5 1018.37,-15.91 930.94,-12.33"/>
<polygon fill="midnightblue" stroke="midnightblue" points="930.83,-8.82 920.7,-11.92 930.56,-15.82 930.83,-8.82"/>
</g>
<!-- Node30&#45;&gt;Node4 -->
<g id="edge54" class="edge">
<title>Node30&#45;&gt;Node4</title>
<path fill="none" stroke="midnightblue" d="M704.43,-504.49C761.59,-492.7 838,-465.29 838,-403 838,-403 838,-403 838,-289 838,-258.9 841.8,-243.65 819,-224 807.79,-214.34 603,-191.24 522.3,-182.46"/>
<polygon fill="midnightblue" stroke="midnightblue" points="522.53,-178.97 512.21,-181.37 521.78,-185.93 522.53,-178.97"/>
</g>
<!-- Node30&#45;&gt;Node5 -->
<g id="edge56" class="edge">
<title>Node30&#45;&gt;Node5</title>
<path fill="none" stroke="midnightblue" d="M644.06,-504.36C646.21,-483.88 649.56,-431.22 633,-392 617.89,-356.22 585.05,-324.14 564.04,-306.16"/>
<polygon fill="midnightblue" stroke="midnightblue" points="566.03,-303.27 556.1,-299.56 561.55,-308.65 566.03,-303.27"/>
</g>
<!-- Node30&#45;&gt;Node15 -->
<g id="edge57" class="edge">
<title>Node30&#45;&gt;Node15</title>
<path fill="none" stroke="midnightblue" d="M635.31,-504.37C618.99,-486.05 580.68,-443.05 559.58,-419.36"/>
<polygon fill="midnightblue" stroke="midnightblue" points="561.92,-416.73 552.65,-411.59 556.69,-421.39 561.92,-416.73"/>
</g>
</g>
</svg>
