<?xml version="1.0" encoding="UTF-8" standalone="no"?>
<!DOCTYPE svg PUBLIC "-//W3C//DTD SVG 1.1//EN"
 "http://www.w3.org/Graphics/SVG/1.1/DTD/svg11.dtd">
<!-- Generated by graphviz version 2.43.0 (0)
 -->
<!-- Title: lib/Ray/sources/Drawables/Texture.hpp Pages: 1 -->
<svg width="1379pt" height="487pt"
 viewBox="0.00 0.00 1379.00 487.00" xmlns="http://www.w3.org/2000/svg" xmlns:xlink="http://www.w3.org/1999/xlink">
<g id="graph0" class="graph" transform="scale(1 1) rotate(0) translate(4 483)">
<title>lib/Ray/sources/Drawables/Texture.hpp</title>
<polygon fill="white" stroke="transparent" points="-4,4 -4,-483 1375,-483 1375,4 -4,4"/>
<!-- Node1 -->
<g id="node1" class="node">
<title>Node1</title>
<g id="a_node1"><a xlink:title=" ">
<polygon fill="#bfbfbf" stroke="black" points="0,-448.5 0,-478.5 146,-478.5 146,-448.5 0,-448.5"/>
<text text-anchor="start" x="8" y="-466.5" font-family="Helvetica,sans-Serif" font-size="10.00">lib/Ray/sources/Drawables</text>
<text text-anchor="middle" x="73" y="-455.5" font-family="Helvetica,sans-Serif" font-size="10.00">/Texture.hpp</text>
</a>
</g>
</g>
<!-- Node2 -->
<g id="node2" class="node">
<title>Node2</title>
<g id="a_node2"><a xlink:title=" ">
<polygon fill="white" stroke="#bfbfbf" points="959.5,-0.5 959.5,-19.5 1012.5,-19.5 1012.5,-0.5 959.5,-0.5"/>
<text text-anchor="middle" x="986" y="-7.5" font-family="Helvetica,sans-Serif" font-size="10.00">raylib.h</text>
</a>
</g>
</g>
<!-- Node1&#45;&gt;Node2 -->
<g id="edge1" class="edge">
<title>Node1&#45;&gt;Node2</title>
<path fill="none" stroke="midnightblue" d="M60.63,-448.3C43.87,-427.55 16,-387.03 16,-347 16,-347 16,-347 16,-121 16,-48.75 94.7,-72.69 165,-56 317.11,-19.89 809.99,-12.63 949.12,-11.29"/>
<polygon fill="midnightblue" stroke="midnightblue" points="949.3,-14.78 959.26,-11.19 949.23,-7.78 949.3,-14.78"/>
</g>
<!-- Node3 -->
<g id="node3" class="node">
<title>Node3</title>
<g id="a_node3"><a xlink:title=" ">
<polygon fill="white" stroke="#bfbfbf" points="305,-168.5 305,-187.5 349,-187.5 349,-168.5 305,-168.5"/>
<text text-anchor="middle" x="327" y="-175.5" font-family="Helvetica,sans-Serif" font-size="10.00">string</text>
</a>
</g>
</g>
<!-- Node1&#45;&gt;Node3 -->
<g id="edge2" class="edge">
<title>Node1&#45;&gt;Node3</title>
<path fill="none" stroke="midnightblue" d="M69.16,-448.4C63.6,-426.76 54,-383.99 54,-347 54,-347 54,-347 54,-289 54,-250.58 77.81,-243.36 111,-224 169.53,-189.85 250.32,-181.41 294.65,-179.45"/>
<polygon fill="midnightblue" stroke="midnightblue" points="294.97,-182.94 304.84,-179.09 294.72,-175.95 294.97,-182.94"/>
</g>
<!-- Node4 -->
<g id="node4" class="node">
<title>Node4</title>
<g id="a_node4"><a xlink:href="Cache_8hpp.html" target="_top" xlink:title=" ">
<polygon fill="white" stroke="black" points="287.5,-280.5 287.5,-299.5 380.5,-299.5 380.5,-280.5 287.5,-280.5"/>
<text text-anchor="middle" x="334" y="-287.5" font-family="Helvetica,sans-Serif" font-size="10.00">Utils/Cache.hpp</text>
</a>
</g>
</g>
<!-- Node1&#45;&gt;Node4 -->
<g id="edge3" class="edge">
<title>Node1&#45;&gt;Node4</title>
<path fill="none" stroke="midnightblue" d="M94.36,-448.47C143.31,-416.3 263.17,-337.54 312.38,-305.21"/>
<polygon fill="midnightblue" stroke="midnightblue" points="314.54,-307.98 320.97,-299.56 310.69,-302.13 314.54,-307.98"/>
</g>
<!-- Node14 -->
<g id="node14" class="node">
<title>Node14</title>
<g id="a_node14"><a xlink:href="Rectangle_8hpp.html" target="_top" xlink:title=" ">
<polygon fill="white" stroke="black" points="1158,-392.5 1158,-411.5 1316,-411.5 1316,-392.5 1158,-392.5"/>
<text text-anchor="middle" x="1237" y="-399.5" font-family="Helvetica,sans-Serif" font-size="10.00">Drawables/2D/Rectangle.hpp</text>
</a>
</g>
</g>
<!-- Node1&#45;&gt;Node14 -->
<g id="edge16" class="edge">
<title>Node1&#45;&gt;Node14</title>
<path fill="none" stroke="midnightblue" d="M146.25,-458.76C350.46,-448.32 925.64,-418.92 1147.84,-407.56"/>
<polygon fill="midnightblue" stroke="midnightblue" points="1148.03,-411.05 1157.84,-407.05 1147.67,-404.06 1148.03,-411.05"/>
</g>
<!-- Node4&#45;&gt;Node2 -->
<g id="edge8" class="edge">
<title>Node4&#45;&gt;Node2</title>
<path fill="none" stroke="midnightblue" d="M287.31,-285.21C229.7,-279.61 136.24,-267.17 111,-244 88.83,-223.64 92,-209.1 92,-179 92,-179 92,-179 92,-121 92,-33.16 780.64,-14.78 949.13,-11.59"/>
<polygon fill="midnightblue" stroke="midnightblue" points="949.31,-15.09 959.24,-11.41 949.18,-8.09 949.31,-15.09"/>
</g>
<!-- Node4&#45;&gt;Node3 -->
<g id="edge14" class="edge">
<title>Node4&#45;&gt;Node3</title>
<path fill="none" stroke="midnightblue" d="M323.01,-280.37C313.55,-272.17 300.56,-258.92 295,-244 288.58,-226.79 299.89,-208.07 310.8,-195.16"/>
<polygon fill="midnightblue" stroke="midnightblue" points="313.56,-197.33 317.72,-187.58 308.39,-192.61 313.56,-197.33"/>
</g>
<!-- Node5 -->
<g id="node5" class="node">
<title>Node5</title>
<g id="a_node5"><a xlink:title=" ">
<polygon fill="white" stroke="#bfbfbf" points="574,-224.5 574,-243.5 632,-243.5 632,-224.5 574,-224.5"/>
<text text-anchor="middle" x="603" y="-231.5" font-family="Helvetica,sans-Serif" font-size="10.00">memory</text>
</a>
</g>
</g>
<!-- Node4&#45;&gt;Node5 -->
<g id="edge4" class="edge">
<title>Node4&#45;&gt;Node5</title>
<path fill="none" stroke="midnightblue" d="M377.35,-280.5C422.87,-271.54 496.5,-256.97 560,-244 561.26,-243.74 562.54,-243.48 563.84,-243.21"/>
<polygon fill="midnightblue" stroke="midnightblue" points="564.78,-246.59 573.86,-241.14 563.36,-239.74 564.78,-246.59"/>
</g>
<!-- Node6 -->
<g id="node6" class="node">
<title>Node6</title>
<g id="a_node6"><a xlink:title=" ">
<polygon fill="white" stroke="#bfbfbf" points="650.5,-224.5 650.5,-243.5 743.5,-243.5 743.5,-224.5 650.5,-224.5"/>
<text text-anchor="middle" x="697" y="-231.5" font-family="Helvetica,sans-Serif" font-size="10.00">unordered_map</text>
</a>
</g>
</g>
<!-- Node4&#45;&gt;Node6 -->
<g id="edge5" class="edge">
<title>Node4&#45;&gt;Node6</title>
<path fill="none" stroke="midnightblue" d="M380.58,-282.38C438.76,-274.06 541.64,-259.2 640.13,-244.12"/>
<polygon fill="midnightblue" stroke="midnightblue" points="640.9,-247.54 650.26,-242.56 639.84,-240.62 640.9,-247.54"/>
</g>
<!-- Node7 -->
<g id="node7" class="node">
<title>Node7</title>
<g id="a_node7"><a xlink:title=" ">
<polygon fill="white" stroke="#bfbfbf" points="761.5,-224.5 761.5,-243.5 826.5,-243.5 826.5,-224.5 761.5,-224.5"/>
<text text-anchor="middle" x="794" y="-231.5" font-family="Helvetica,sans-Serif" font-size="10.00">functional</text>
</a>
</g>
</g>
<!-- Node4&#45;&gt;Node7 -->
<g id="edge6" class="edge">
<title>Node4&#45;&gt;Node7</title>
<path fill="none" stroke="midnightblue" d="M380.73,-285.66C456.54,-279.86 611.22,-266.53 751.33,-244.12"/>
<polygon fill="midnightblue" stroke="midnightblue" points="752.08,-247.55 761.39,-242.5 750.96,-240.64 752.08,-247.55"/>
</g>
<!-- Node8 -->
<g id="node8" class="node">
<title>Node8</title>
<g id="a_node8"><a xlink:title=" ">
<polygon fill="white" stroke="#bfbfbf" points="120.5,-224.5 120.5,-243.5 165.5,-243.5 165.5,-224.5 120.5,-224.5"/>
<text text-anchor="middle" x="143" y="-231.5" font-family="Helvetica,sans-Serif" font-size="10.00">utility</text>
</a>
</g>
</g>
<!-- Node4&#45;&gt;Node8 -->
<g id="edge7" class="edge">
<title>Node4&#45;&gt;Node8</title>
<path fill="none" stroke="midnightblue" d="M303.74,-280.44C268.79,-270.56 211.52,-254.37 175.61,-244.22"/>
<polygon fill="midnightblue" stroke="midnightblue" points="176.22,-240.76 165.65,-241.4 174.32,-247.49 176.22,-240.76"/>
</g>
<!-- Node9 -->
<g id="node9" class="node">
<title>Node9</title>
<g id="a_node9"><a xlink:href="RayError_8hpp.html" target="_top" xlink:title=" ">
<polygon fill="white" stroke="black" points="382.5,-224.5 382.5,-243.5 517.5,-243.5 517.5,-224.5 382.5,-224.5"/>
<text text-anchor="middle" x="450" y="-231.5" font-family="Helvetica,sans-Serif" font-size="10.00">Exceptions/RayError.hpp</text>
</a>
</g>
</g>
<!-- Node4&#45;&gt;Node9 -->
<g id="edge9" class="edge">
<title>Node4&#45;&gt;Node9</title>
<path fill="none" stroke="midnightblue" d="M352.38,-280.44C371.22,-271.68 400.73,-257.94 422.38,-247.86"/>
<polygon fill="midnightblue" stroke="midnightblue" points="424.12,-250.91 431.71,-243.52 421.16,-244.56 424.12,-250.91"/>
</g>
<!-- Node11 -->
<g id="node11" class="node">
<title>Node11</title>
<g id="a_node11"><a xlink:title=" ">
<polygon fill="white" stroke="#bfbfbf" points="469.5,-112.5 469.5,-131.5 516.5,-131.5 516.5,-112.5 469.5,-112.5"/>
<text text-anchor="middle" x="493" y="-119.5" font-family="Helvetica,sans-Serif" font-size="10.00">vector</text>
</a>
</g>
</g>
<!-- Node4&#45;&gt;Node11 -->
<g id="edge12" class="edge">
<title>Node4&#45;&gt;Node11</title>
<path fill="none" stroke="midnightblue" d="M380.83,-284.68C431.99,-278.87 509.09,-266.57 527,-244 551.65,-212.95 524.18,-165.02 506.16,-139.82"/>
<polygon fill="midnightblue" stroke="midnightblue" points="508.85,-137.56 500.06,-131.63 503.23,-141.74 508.85,-137.56"/>
</g>
<!-- Node12 -->
<g id="node12" class="node">
<title>Node12</title>
<g id="a_node12"><a xlink:title=" ">
<polygon fill="white" stroke="#bfbfbf" points="184,-224.5 184,-243.5 248,-243.5 248,-224.5 184,-224.5"/>
<text text-anchor="middle" x="216" y="-231.5" font-family="Helvetica,sans-Serif" font-size="10.00">algorithm</text>
</a>
</g>
</g>
<!-- Node4&#45;&gt;Node12 -->
<g id="edge13" class="edge">
<title>Node4&#45;&gt;Node12</title>
<path fill="none" stroke="midnightblue" d="M315.3,-280.44C296.06,-271.64 265.85,-257.81 243.8,-247.72"/>
<polygon fill="midnightblue" stroke="midnightblue" points="245.16,-244.5 234.61,-243.52 242.25,-250.86 245.16,-244.5"/>
</g>
<!-- Node13 -->
<g id="node13" class="node">
<title>Node13</title>
<g id="a_node13"><a xlink:title=" ">
<polygon fill="white" stroke="#bfbfbf" points="304,-224.5 304,-243.5 364,-243.5 364,-224.5 304,-224.5"/>
<text text-anchor="middle" x="334" y="-231.5" font-family="Helvetica,sans-Serif" font-size="10.00">iostream</text>
</a>
</g>
</g>
<!-- Node4&#45;&gt;Node13 -->
<g id="edge15" class="edge">
<title>Node4&#45;&gt;Node13</title>
<path fill="none" stroke="midnightblue" d="M334,-280.08C334,-273.01 334,-262.86 334,-253.99"/>
<polygon fill="midnightblue" stroke="midnightblue" points="337.5,-253.75 334,-243.75 330.5,-253.75 337.5,-253.75"/>
</g>
<!-- Node9&#45;&gt;Node3 -->
<g id="edge11" class="edge">
<title>Node9&#45;&gt;Node3</title>
<path fill="none" stroke="midnightblue" d="M430.51,-224.44C410.36,-215.6 378.68,-201.69 355.67,-191.59"/>
<polygon fill="midnightblue" stroke="midnightblue" points="356.96,-188.33 346.4,-187.52 354.15,-194.74 356.96,-188.33"/>
</g>
<!-- Node10 -->
<g id="node10" class="node">
<title>Node10</title>
<g id="a_node10"><a xlink:title=" ">
<polygon fill="white" stroke="#bfbfbf" points="417.5,-168.5 417.5,-187.5 482.5,-187.5 482.5,-168.5 417.5,-168.5"/>
<text text-anchor="middle" x="450" y="-175.5" font-family="Helvetica,sans-Serif" font-size="10.00">stdexcept</text>
</a>
</g>
</g>
<!-- Node9&#45;&gt;Node10 -->
<g id="edge10" class="edge">
<title>Node9&#45;&gt;Node10</title>
<path fill="none" stroke="midnightblue" d="M450,-224.08C450,-217.01 450,-206.86 450,-197.99"/>
<polygon fill="midnightblue" stroke="midnightblue" points="453.5,-197.75 450,-187.75 446.5,-197.75 453.5,-197.75"/>
</g>
<!-- Node14&#45;&gt;Node2 -->
<g id="edge17" class="edge">
<title>Node14&#45;&gt;Node2</title>
<path fill="none" stroke="midnightblue" d="M1264.12,-392.47C1303.27,-378.27 1371,-345.78 1371,-291 1371,-291 1371,-291 1371,-121 1371,-73.44 1329.79,-74.56 1286,-56 1196.98,-18.27 1081.37,-11.51 1023.07,-10.71"/>
<polygon fill="midnightblue" stroke="midnightblue" points="1022.91,-7.21 1012.88,-10.62 1022.85,-14.21 1022.91,-7.21"/>
</g>
<!-- Node15 -->
<g id="node15" class="node">
<title>Node15</title>
<g id="a_node15"><a xlink:href="ADrawable2D_8hpp.html" target="_top" xlink:title=" ">
<polygon fill="white" stroke="black" points="1157.5,-336.5 1157.5,-355.5 1316.5,-355.5 1316.5,-336.5 1157.5,-336.5"/>
<text text-anchor="middle" x="1237" y="-343.5" font-family="Helvetica,sans-Serif" font-size="10.00">Drawables/ADrawable2D.hpp</text>
</a>
</g>
</g>
<!-- Node14&#45;&gt;Node15 -->
<g id="edge18" class="edge">
<title>Node14&#45;&gt;Node15</title>
<path fill="none" stroke="midnightblue" d="M1237,-392.08C1237,-385.01 1237,-374.86 1237,-365.99"/>
<polygon fill="midnightblue" stroke="midnightblue" points="1240.5,-365.75 1237,-355.75 1233.5,-365.75 1240.5,-365.75"/>
</g>
<!-- Node15&#45;&gt;Node2 -->
<g id="edge19" class="edge">
<title>Node15&#45;&gt;Node2</title>
<path fill="none" stroke="midnightblue" d="M1252.85,-336.44C1280.12,-320.43 1333,-283.16 1333,-235 1333,-235 1333,-235 1333,-121 1333,-72.02 1289.08,-75.15 1244,-56 1169.77,-24.46 1074.54,-15.03 1023.05,-12.2"/>
<polygon fill="midnightblue" stroke="midnightblue" points="1022.91,-8.69 1012.75,-11.7 1022.56,-15.68 1022.91,-8.69"/>
</g>
<!-- Node16 -->
<g id="node16" class="node">
<title>Node16</title>
<g id="a_node16"><a xlink:href="lib_2Ray_2sources_2Vector_2Vector2_8hpp.html" target="_top" xlink:title=" ">
<polygon fill="white" stroke="black" points="1159,-112.5 1159,-131.5 1267,-131.5 1267,-112.5 1159,-112.5"/>
<text text-anchor="middle" x="1213" y="-119.5" font-family="Helvetica,sans-Serif" font-size="10.00">Vector/Vector2.hpp</text>
</a>
</g>
</g>
<!-- Node15&#45;&gt;Node16 -->
<g id="edge20" class="edge">
<title>Node15&#45;&gt;Node16</title>
<path fill="none" stroke="midnightblue" d="M1236.06,-336.3C1232.53,-303.63 1220.01,-187.87 1215.05,-141.96"/>
<polygon fill="midnightblue" stroke="midnightblue" points="1218.52,-141.45 1213.96,-131.88 1211.56,-142.2 1218.52,-141.45"/>
</g>
<!-- Node17 -->
<g id="node17" class="node">
<title>Node17</title>
<g id="a_node17"><a xlink:href="IDrawable_8hpp.html" target="_top" xlink:title=" ">
<polygon fill="white" stroke="black" points="943,-280.5 943,-299.5 1085,-299.5 1085,-280.5 943,-280.5"/>
<text text-anchor="middle" x="1014" y="-287.5" font-family="Helvetica,sans-Serif" font-size="10.00">Drawables/IDrawable.hpp</text>
</a>
</g>
</g>
<!-- Node15&#45;&gt;Node17 -->
<g id="edge22" class="edge">
<title>Node15&#45;&gt;Node17</title>
<path fill="none" stroke="midnightblue" d="M1201.66,-336.44C1163.09,-327.1 1101.22,-312.12 1059.15,-301.93"/>
<polygon fill="midnightblue" stroke="midnightblue" points="1059.71,-298.47 1049.17,-299.52 1058.07,-305.27 1059.71,-298.47"/>
</g>
<!-- Node28 -->
<g id="node28" class="node">
<title>Node28</title>
<g id="a_node28"><a xlink:href="Color_8hpp.html" target="_top" xlink:title=" ">
<polygon fill="white" stroke="black" points="1241,-168.5 1241,-187.5 1303,-187.5 1303,-168.5 1241,-168.5"/>
<text text-anchor="middle" x="1272" y="-175.5" font-family="Helvetica,sans-Serif" font-size="10.00">Color.hpp</text>
</a>
</g>
</g>
<!-- Node15&#45;&gt;Node28 -->
<g id="edge49" class="edge">
<title>Node15&#45;&gt;Node28</title>
<path fill="none" stroke="midnightblue" d="M1238.88,-336.08C1244.39,-309.95 1260.57,-233.21 1268.08,-197.58"/>
<polygon fill="midnightblue" stroke="midnightblue" points="1271.56,-198.08 1270.19,-187.57 1264.71,-196.63 1271.56,-198.08"/>
</g>
<!-- Node16&#45;&gt;Node2 -->
<g id="edge21" class="edge">
<title>Node16&#45;&gt;Node2</title>
<path fill="none" stroke="midnightblue" d="M1206.44,-112.46C1195.32,-98.56 1171.37,-71.08 1145,-56 1106.46,-33.97 1056.41,-22.13 1022.85,-16.21"/>
<polygon fill="midnightblue" stroke="midnightblue" points="1023.01,-12.69 1012.57,-14.49 1021.86,-19.59 1023.01,-12.69"/>
</g>
<!-- Node18 -->
<g id="node18" class="node">
<title>Node18</title>
<g id="a_node18"><a xlink:href="Window_8hpp.html" target="_top" xlink:title=" ">
<polygon fill="white" stroke="black" points="902,-224.5 902,-243.5 978,-243.5 978,-224.5 902,-224.5"/>
<text text-anchor="middle" x="940" y="-231.5" font-family="Helvetica,sans-Serif" font-size="10.00">Window.hpp</text>
</a>
</g>
</g>
<!-- Node17&#45;&gt;Node18 -->
<g id="edge23" class="edge">
<title>Node17&#45;&gt;Node18</title>
<path fill="none" stroke="midnightblue" d="M1002.11,-280.32C990.85,-272.11 973.71,-259.6 960.29,-249.81"/>
<polygon fill="midnightblue" stroke="midnightblue" points="962.25,-246.9 952.11,-243.83 958.12,-252.56 962.25,-246.9"/>
</g>
<!-- Node18&#45;&gt;Node2 -->
<g id="edge24" class="edge">
<title>Node18&#45;&gt;Node2</title>
<path fill="none" stroke="midnightblue" d="M927.72,-224.46C906.62,-208.93 864.19,-173.8 848,-132 844.79,-123.71 842.89,-119.27 848,-112 875.16,-73.35 911.68,-106.2 948,-76 962.88,-63.63 973.26,-43.82 979.37,-29.32"/>
<polygon fill="midnightblue" stroke="midnightblue" points="982.68,-30.47 983.06,-19.88 976.16,-27.92 982.68,-30.47"/>
</g>
<!-- Node18&#45;&gt;Node3 -->
<g id="edge25" class="edge">
<title>Node18&#45;&gt;Node3</title>
<path fill="none" stroke="midnightblue" d="M901.97,-229.69C882.28,-227.98 857.85,-225.87 836,-224 646.24,-207.79 598.56,-206.39 409,-188 392.71,-186.42 374.63,-184.46 359.6,-182.77"/>
<polygon fill="midnightblue" stroke="midnightblue" points="359.59,-179.25 349.26,-181.6 358.8,-186.2 359.59,-179.25"/>
</g>
<!-- Node18&#45;&gt;Node16 -->
<g id="edge27" class="edge">
<title>Node18&#45;&gt;Node16</title>
<path fill="none" stroke="midnightblue" d="M978.11,-232.27C1023.41,-229.84 1099.92,-220.72 1156,-188 1175.78,-176.46 1192.23,-155.59 1202.29,-140.6"/>
<polygon fill="midnightblue" stroke="midnightblue" points="1205.51,-142.07 1207.95,-131.77 1199.61,-138.3 1205.51,-142.07"/>
</g>
<!-- Node19 -->
<g id="node19" class="node">
<title>Node19</title>
<g id="a_node19"><a xlink:title=" ">
<polygon fill="white" stroke="#bfbfbf" points="940,-168.5 940,-187.5 996,-187.5 996,-168.5 940,-168.5"/>
<text text-anchor="middle" x="968" y="-175.5" font-family="Helvetica,sans-Serif" font-size="10.00">optional</text>
</a>
</g>
</g>
<!-- Node18&#45;&gt;Node19 -->
<g id="edge26" class="edge">
<title>Node18&#45;&gt;Node19</title>
<path fill="none" stroke="midnightblue" d="M944.62,-224.08C948.46,-216.69 954.02,-205.95 958.76,-196.81"/>
<polygon fill="midnightblue" stroke="midnightblue" points="961.97,-198.24 963.46,-187.75 955.75,-195.02 961.97,-198.24"/>
</g>
<!-- Node20 -->
<g id="node20" class="node">
<title>Node20</title>
<g id="a_node20"><a xlink:href="lib_2Ray_2sources_2Vector_2Vector3_8hpp.html" target="_top" xlink:title=" ">
<polygon fill="white" stroke="black" points="857,-112.5 857,-131.5 965,-131.5 965,-112.5 857,-112.5"/>
<text text-anchor="middle" x="911" y="-119.5" font-family="Helvetica,sans-Serif" font-size="10.00">Vector/Vector3.hpp</text>
</a>
</g>
</g>
<!-- Node18&#45;&gt;Node20 -->
<g id="edge28" class="edge">
<title>Node18&#45;&gt;Node20</title>
<path fill="none" stroke="midnightblue" d="M937.72,-224.37C933.02,-206.54 922.15,-165.3 915.82,-141.27"/>
<polygon fill="midnightblue" stroke="midnightblue" points="919.2,-140.37 913.27,-131.59 912.43,-142.15 919.2,-140.37"/>
</g>
<!-- Node21 -->
<g id="node21" class="node">
<title>Node21</title>
<g id="a_node21"><a xlink:href="Keyboard_8hpp.html" target="_top" xlink:title=" ">
<polygon fill="white" stroke="black" points="556,-168.5 556,-187.5 696,-187.5 696,-168.5 556,-168.5"/>
<text text-anchor="middle" x="626" y="-175.5" font-family="Helvetica,sans-Serif" font-size="10.00">Controllers/Keyboard.hpp</text>
</a>
</g>
</g>
<!-- Node18&#45;&gt;Node21 -->
<g id="edge30" class="edge">
<title>Node18&#45;&gt;Node21</title>
<path fill="none" stroke="midnightblue" d="M901.81,-226.43C847.9,-217.16 748.98,-200.15 685.42,-189.22"/>
<polygon fill="midnightblue" stroke="midnightblue" points="685.98,-185.76 675.53,-187.52 684.79,-192.66 685.98,-185.76"/>
</g>
<!-- Node22 -->
<g id="node22" class="node">
<title>Node22</title>
<g id="a_node22"><a xlink:href="Camera2D_8hpp.html" target="_top" xlink:title=" ">
<polygon fill="white" stroke="black" points="1015.5,-168.5 1015.5,-187.5 1146.5,-187.5 1146.5,-168.5 1015.5,-168.5"/>
<text text-anchor="middle" x="1081" y="-175.5" font-family="Helvetica,sans-Serif" font-size="10.00">Camera/Camera2D.hpp</text>
</a>
</g>
</g>
<!-- Node18&#45;&gt;Node22 -->
<g id="edge33" class="edge">
<title>Node18&#45;&gt;Node22</title>
<path fill="none" stroke="midnightblue" d="M962.34,-224.44C985.75,-215.48 1022.74,-201.31 1049.19,-191.18"/>
<polygon fill="midnightblue" stroke="midnightblue" points="1050.68,-194.36 1058.76,-187.52 1048.17,-187.82 1050.68,-194.36"/>
</g>
<!-- Node25 -->
<g id="node25" class="node">
<title>Node25</title>
<g id="a_node25"><a xlink:href="Camera3D_8hpp.html" target="_top" xlink:title=" ">
<polygon fill="white" stroke="black" points="714.5,-168.5 714.5,-187.5 845.5,-187.5 845.5,-168.5 714.5,-168.5"/>
<text text-anchor="middle" x="780" y="-175.5" font-family="Helvetica,sans-Serif" font-size="10.00">Camera/Camera3D.hpp</text>
</a>
</g>
</g>
<!-- Node18&#45;&gt;Node25 -->
<g id="edge39" class="edge">
<title>Node18&#45;&gt;Node25</title>
<path fill="none" stroke="midnightblue" d="M914.65,-224.44C887.73,-215.36 845,-200.94 814.91,-190.78"/>
<polygon fill="midnightblue" stroke="midnightblue" points="815.83,-187.4 805.23,-187.52 813.59,-194.03 815.83,-187.4"/>
</g>
<!-- Node18&#45;&gt;Node28 -->
<g id="edge47" class="edge">
<title>Node18&#45;&gt;Node28</title>
<path fill="none" stroke="midnightblue" d="M978.08,-226.81C1040.98,-216.58 1166.02,-196.24 1230.86,-185.69"/>
<polygon fill="midnightblue" stroke="midnightblue" points="1231.43,-189.15 1240.73,-184.09 1230.3,-182.24 1231.43,-189.15"/>
</g>
<!-- Node20&#45;&gt;Node2 -->
<g id="edge29" class="edge">
<title>Node20&#45;&gt;Node2</title>
<path fill="none" stroke="midnightblue" d="M934.71,-112.35C950.67,-105.2 970.63,-93.37 981,-76 989.25,-62.18 989.88,-43.66 988.8,-29.92"/>
<polygon fill="midnightblue" stroke="midnightblue" points="992.25,-29.26 987.63,-19.72 985.3,-30.05 992.25,-29.26"/>
</g>
<!-- Node21&#45;&gt;Node2 -->
<g id="edge31" class="edge">
<title>Node21&#45;&gt;Node2</title>
<path fill="none" stroke="midnightblue" d="M618.23,-168.2C599.97,-146.44 558.08,-89.5 588,-56 611.86,-29.28 855.17,-16.42 949.19,-12.42"/>
<polygon fill="midnightblue" stroke="midnightblue" points="949.53,-15.91 959.38,-12 949.24,-8.91 949.53,-15.91"/>
</g>
<!-- Node21&#45;&gt;Node11 -->
<g id="edge32" class="edge">
<title>Node21&#45;&gt;Node11</title>
<path fill="none" stroke="midnightblue" d="M604.93,-168.44C582.94,-159.52 548.27,-145.44 523.34,-135.32"/>
<polygon fill="midnightblue" stroke="midnightblue" points="524.56,-132.04 513.98,-131.52 521.92,-138.52 524.56,-132.04"/>
</g>
<!-- Node22&#45;&gt;Node2 -->
<g id="edge34" class="edge">
<title>Node22&#45;&gt;Node2</title>
<path fill="none" stroke="midnightblue" d="M1089.48,-168.23C1097.05,-159.75 1107.6,-146.13 1112,-132 1122.03,-99.75 1131.46,-83.61 1112,-56 1091.95,-27.55 1052.21,-16.99 1022.69,-13.12"/>
<polygon fill="midnightblue" stroke="midnightblue" points="1023.05,-9.64 1012.73,-12.01 1022.28,-16.6 1023.05,-9.64"/>
</g>
<!-- Node22&#45;&gt;Node16 -->
<g id="edge35" class="edge">
<title>Node22&#45;&gt;Node16</title>
<path fill="none" stroke="midnightblue" d="M1101.92,-168.44C1123.74,-159.52 1158.15,-145.44 1182.89,-135.32"/>
<polygon fill="midnightblue" stroke="midnightblue" points="1184.25,-138.54 1192.18,-131.52 1181.6,-132.06 1184.25,-138.54"/>
</g>
<!-- Node23 -->
<g id="node23" class="node">
<title>Node23</title>
<g id="a_node23"><a xlink:href="ICamera_8hpp.html" target="_top" xlink:title=" ">
<polygon fill="white" stroke="black" points="983,-112.5 983,-131.5 1103,-131.5 1103,-112.5 983,-112.5"/>
<text text-anchor="middle" x="1043" y="-119.5" font-family="Helvetica,sans-Serif" font-size="10.00">Camera/ICamera.hpp</text>
</a>
</g>
</g>
<!-- Node22&#45;&gt;Node23 -->
<g id="edge36" class="edge">
<title>Node22&#45;&gt;Node23</title>
<path fill="none" stroke="midnightblue" d="M1074.73,-168.08C1069.36,-160.46 1061.48,-149.26 1054.92,-139.94"/>
<polygon fill="midnightblue" stroke="midnightblue" points="1057.78,-137.91 1049.16,-131.75 1052.05,-141.94 1057.78,-137.91"/>
</g>
<!-- Node24 -->
<g id="node24" class="node">
<title>Node24</title>
<g id="a_node24"><a xlink:href="Matrix_8hpp.html" target="_top" xlink:title=" ">
<polygon fill="white" stroke="black" points="1033.5,-56.5 1033.5,-75.5 1102.5,-75.5 1102.5,-56.5 1033.5,-56.5"/>
<text text-anchor="middle" x="1068" y="-63.5" font-family="Helvetica,sans-Serif" font-size="10.00">Matrix.hpp</text>
</a>
</g>
</g>
<!-- Node23&#45;&gt;Node24 -->
<g id="edge37" class="edge">
<title>Node23&#45;&gt;Node24</title>
<path fill="none" stroke="midnightblue" d="M1047.13,-112.08C1050.51,-104.77 1055.42,-94.18 1059.62,-85.1"/>
<polygon fill="midnightblue" stroke="midnightblue" points="1062.92,-86.3 1063.95,-75.75 1056.57,-83.36 1062.92,-86.3"/>
</g>
<!-- Node24&#45;&gt;Node2 -->
<g id="edge38" class="edge">
<title>Node24&#45;&gt;Node2</title>
<path fill="none" stroke="midnightblue" d="M1054.83,-56.32C1042.15,-47.98 1022.77,-35.21 1007.79,-25.35"/>
<polygon fill="midnightblue" stroke="midnightblue" points="1009.42,-22.23 999.14,-19.65 1005.57,-28.08 1009.42,-22.23"/>
</g>
<!-- Node25&#45;&gt;Node2 -->
<g id="edge40" class="edge">
<title>Node25&#45;&gt;Node2</title>
<path fill="none" stroke="midnightblue" d="M744.51,-168.48C679.9,-151.4 554,-109.95 602,-56 624.88,-30.28 857.64,-16.89 949.25,-12.58"/>
<polygon fill="midnightblue" stroke="midnightblue" points="949.61,-16.07 959.44,-12.11 949.29,-9.07 949.61,-16.07"/>
</g>
<!-- Node25&#45;&gt;Node20 -->
<g id="edge41" class="edge">
<title>Node25&#45;&gt;Node20</title>
<path fill="none" stroke="midnightblue" d="M800.76,-168.44C822.32,-159.56 856.26,-145.56 880.79,-135.45"/>
<polygon fill="midnightblue" stroke="midnightblue" points="882.43,-138.56 890.34,-131.52 879.76,-132.09 882.43,-138.56"/>
</g>
<!-- Node25&#45;&gt;Node23 -->
<g id="edge42" class="edge">
<title>Node25&#45;&gt;Node23</title>
<path fill="none" stroke="midnightblue" d="M821.67,-168.44C867.75,-158.98 942,-143.74 991.63,-133.55"/>
<polygon fill="midnightblue" stroke="midnightblue" points="992.43,-136.96 1001.52,-131.52 991.02,-130.1 992.43,-136.96"/>
</g>
<!-- Node26 -->
<g id="node26" class="node">
<title>Node26</title>
<g id="a_node26"><a xlink:href="CameraProjection_8hpp.html" target="_top" xlink:title=" ">
<polygon fill="white" stroke="black" points="611,-56.5 611,-75.5 777,-75.5 777,-56.5 611,-56.5"/>
<text text-anchor="middle" x="694" y="-63.5" font-family="Helvetica,sans-Serif" font-size="10.00">Camera/CameraProjection.hpp</text>
</a>
</g>
</g>
<!-- Node25&#45;&gt;Node26 -->
<g id="edge43" class="edge">
<title>Node25&#45;&gt;Node26</title>
<path fill="none" stroke="midnightblue" d="M773.25,-168.37C759,-150.14 725.61,-107.43 707.04,-83.68"/>
<polygon fill="midnightblue" stroke="midnightblue" points="709.63,-81.31 700.72,-75.59 704.12,-85.63 709.63,-81.31"/>
</g>
<!-- Node27 -->
<g id="node27" class="node">
<title>Node27</title>
<g id="a_node27"><a xlink:href="CameraMode_8hpp.html" target="_top" xlink:title=" ">
<polygon fill="white" stroke="black" points="795,-56.5 795,-75.5 939,-75.5 939,-56.5 795,-56.5"/>
<text text-anchor="middle" x="867" y="-63.5" font-family="Helvetica,sans-Serif" font-size="10.00">Camera/CameraMode.hpp</text>
</a>
</g>
</g>
<!-- Node25&#45;&gt;Node27 -->
<g id="edge45" class="edge">
<title>Node25&#45;&gt;Node27</title>
<path fill="none" stroke="midnightblue" d="M783.43,-168.41C788.88,-155.38 800.41,-130.2 815,-112 824.1,-100.65 836.32,-89.9 846.63,-81.76"/>
<polygon fill="midnightblue" stroke="midnightblue" points="848.9,-84.43 854.73,-75.58 844.65,-78.87 848.9,-84.43"/>
</g>
<!-- Node26&#45;&gt;Node2 -->
<g id="edge44" class="edge">
<title>Node26&#45;&gt;Node2</title>
<path fill="none" stroke="midnightblue" d="M740.27,-56.44C798.16,-45.74 896.13,-27.62 949.19,-17.81"/>
<polygon fill="midnightblue" stroke="midnightblue" points="949.99,-21.22 959.18,-15.96 948.71,-14.34 949.99,-21.22"/>
</g>
<!-- Node27&#45;&gt;Node2 -->
<g id="edge46" class="edge">
<title>Node27&#45;&gt;Node2</title>
<path fill="none" stroke="midnightblue" d="M885.86,-56.44C905.27,-47.64 935.73,-33.81 957.96,-23.72"/>
<polygon fill="midnightblue" stroke="midnightblue" points="959.57,-26.84 967.23,-19.52 956.68,-20.46 959.57,-26.84"/>
</g>
<!-- Node28&#45;&gt;Node2 -->
<g id="edge48" class="edge">
<title>Node28&#45;&gt;Node2</title>
<path fill="none" stroke="midnightblue" d="M1275.45,-168.27C1280.08,-155.07 1286.55,-129.67 1276,-112 1223.95,-24.85 1088.91,-11.47 1023.11,-10.33"/>
<polygon fill="midnightblue" stroke="midnightblue" points="1022.83,-6.83 1012.8,-10.24 1022.77,-13.83 1022.83,-6.83"/>
</g>
</g>
</svg>
