<?xml version="1.0" encoding="UTF-8" standalone="no"?>
<!DOCTYPE svg PUBLIC "-//W3C//DTD SVG 1.1//EN"
 "http://www.w3.org/Graphics/SVG/1.1/DTD/svg11.dtd">
<!-- Generated by graphviz version 2.43.0 (0)
 -->
<!-- Title: sources/Component/Timer/TimerComponent.hpp Pages: 1 -->
<svg width="2129pt" height="173pt"
 viewBox="0.00 0.00 2129.00 173.00" xmlns="http://www.w3.org/2000/svg" xmlns:xlink="http://www.w3.org/1999/xlink">
<g id="graph0" class="graph" transform="scale(1 1) rotate(0) translate(4 169)">
<title>sources/Component/Timer/TimerComponent.hpp</title>
<polygon fill="white" stroke="transparent" points="-4,4 -4,-169 2125,-169 2125,4 -4,4"/>
<!-- Node1 -->
<g id="node1" class="node">
<title>Node1</title>
<g id="a_node1"><a xlink:title=" ">
<polygon fill="#bfbfbf" stroke="black" points="1145,-134.5 1145,-164.5 1290,-164.5 1290,-134.5 1145,-134.5"/>
<text text-anchor="start" x="1153" y="-152.5" font-family="Helvetica,sans-Serif" font-size="10.00">sources/Component/Timer</text>
<text text-anchor="middle" x="1217.5" y="-141.5" font-family="Helvetica,sans-Serif" font-size="10.00">/TimerComponent.hpp</text>
</a>
</g>
</g>
<!-- Node2 -->
<g id="node2" class="node">
<title>Node2</title>
<g id="a_node2"><a xlink:href="TimerComponent_8cpp.html" target="_top" xlink:title=" ">
<polygon fill="white" stroke="black" points="0,-67.5 0,-97.5 145,-97.5 145,-67.5 0,-67.5"/>
<text text-anchor="start" x="8" y="-85.5" font-family="Helvetica,sans-Serif" font-size="10.00">sources/Component/Timer</text>
<text text-anchor="middle" x="72.5" y="-74.5" font-family="Helvetica,sans-Serif" font-size="10.00">/TimerComponent.cpp</text>
</a>
</g>
</g>
<!-- Node1&#45;&gt;Node2 -->
<g id="edge1" class="edge">
<title>Node1&#45;&gt;Node2</title>
<path fill="none" stroke="midnightblue" d="M1134.6,-148.15C955.26,-146.61 518.11,-138.62 154.5,-98 151.48,-97.66 148.41,-97.28 145.31,-96.87"/>
<polygon fill="midnightblue" stroke="midnightblue" points="1134.72,-151.65 1144.75,-148.24 1134.78,-144.65 1134.72,-151.65"/>
</g>
<!-- Node3 -->
<g id="node3" class="node">
<title>Node3</title>
<g id="a_node3"><a xlink:href="Map_8cpp.html" target="_top" xlink:title=" ">
<polygon fill="white" stroke="black" points="163.5,-73 163.5,-92 285.5,-92 285.5,-73 163.5,-73"/>
<text text-anchor="middle" x="224.5" y="-80" font-family="Helvetica,sans-Serif" font-size="10.00">sources/Map/Map.cpp</text>
</a>
</g>
</g>
<!-- Node1&#45;&gt;Node3 -->
<g id="edge2" class="edge">
<title>Node1&#45;&gt;Node3</title>
<path fill="none" stroke="midnightblue" d="M1134.38,-148.11C972.2,-146.43 602.44,-138.09 294.5,-98 283.42,-96.56 271.48,-94.34 260.66,-92.06"/>
<polygon fill="midnightblue" stroke="midnightblue" points="1134.73,-151.61 1144.76,-148.21 1134.8,-144.61 1134.73,-151.61"/>
</g>
<!-- Node4 -->
<g id="node4" class="node">
<title>Node4</title>
<g id="a_node4"><a xlink:href="ParserYaml_8cpp.html" target="_top" xlink:title=" ">
<polygon fill="white" stroke="black" points="303.5,-73 303.5,-92 467.5,-92 467.5,-73 303.5,-73"/>
<text text-anchor="middle" x="385.5" y="-80" font-family="Helvetica,sans-Serif" font-size="10.00">sources/Parser/ParserYaml.cpp</text>
</a>
</g>
</g>
<!-- Node1&#45;&gt;Node4 -->
<g id="edge3" class="edge">
<title>Node1&#45;&gt;Node4</title>
<path fill="none" stroke="midnightblue" d="M1134.98,-145.3C997.9,-139.45 714.77,-125.05 476.5,-98 462.67,-96.43 447.73,-94.25 434.03,-92.06"/>
<polygon fill="midnightblue" stroke="midnightblue" points="1134.85,-148.8 1144.99,-145.73 1135.15,-141.81 1134.85,-148.8"/>
</g>
<!-- Node5 -->
<g id="node5" class="node">
<title>Node5</title>
<g id="a_node5"><a xlink:href="GameScene_8cpp.html" target="_top" xlink:title=" ">
<polygon fill="white" stroke="black" points="486,-73 486,-92 659,-92 659,-73 486,-73"/>
<text text-anchor="middle" x="572.5" y="-80" font-family="Helvetica,sans-Serif" font-size="10.00">sources/Runner/GameScene.cpp</text>
</a>
</g>
</g>
<!-- Node1&#45;&gt;Node5 -->
<g id="edge4" class="edge">
<title>Node1&#45;&gt;Node5</title>
<path fill="none" stroke="midnightblue" d="M1134.68,-142.45C1026.9,-134.22 832.78,-118.18 667.5,-98 653.59,-96.3 638.58,-94.16 624.69,-92.04"/>
<polygon fill="midnightblue" stroke="midnightblue" points="1134.6,-145.95 1144.84,-143.22 1135.13,-138.97 1134.6,-145.95"/>
</g>
<!-- Node6 -->
<g id="node6" class="node">
<title>Node6</title>
<g id="a_node6"><a xlink:href="MainMenuScene_8cpp.html" target="_top" xlink:title=" ">
<polygon fill="white" stroke="black" points="677,-73 677,-92 872,-92 872,-73 677,-73"/>
<text text-anchor="middle" x="774.5" y="-80" font-family="Helvetica,sans-Serif" font-size="10.00">sources/Runner/MainMenuScene.cpp</text>
</a>
</g>
</g>
<!-- Node1&#45;&gt;Node6 -->
<g id="edge5" class="edge">
<title>Node1&#45;&gt;Node6</title>
<path fill="none" stroke="midnightblue" d="M1134.9,-136.38C1046.94,-123.47 909.98,-103.38 832.69,-92.04"/>
<polygon fill="midnightblue" stroke="midnightblue" points="1134.44,-139.85 1144.84,-137.84 1135.46,-132.92 1134.44,-139.85"/>
</g>
<!-- Node7 -->
<g id="node7" class="node">
<title>Node7</title>
<g id="a_node7"><a xlink:href="PauseMenuScene_8cpp.html" target="_top" xlink:title=" ">
<polygon fill="white" stroke="black" points="889.5,-67.5 889.5,-97.5 1039.5,-97.5 1039.5,-67.5 889.5,-67.5"/>
<text text-anchor="start" x="897.5" y="-85.5" font-family="Helvetica,sans-Serif" font-size="10.00">sources/Runner/PauseMenu</text>
<text text-anchor="middle" x="964.5" y="-74.5" font-family="Helvetica,sans-Serif" font-size="10.00">Scene.cpp</text>
</a>
</g>
</g>
<!-- Node1&#45;&gt;Node7 -->
<g id="edge6" class="edge">
<title>Node1&#45;&gt;Node7</title>
<path fill="none" stroke="midnightblue" d="M1153.22,-131.98C1111.89,-121.37 1058.77,-107.72 1019.42,-97.61"/>
<polygon fill="midnightblue" stroke="midnightblue" points="1152.36,-135.38 1162.91,-134.48 1154.1,-128.6 1152.36,-135.38"/>
</g>
<!-- Node8 -->
<g id="node8" class="node">
<title>Node8</title>
<g id="a_node8"><a xlink:href="BombHolderSystem_8cpp.html" target="_top" xlink:title=" ">
<polygon fill="white" stroke="black" points="1057.5,-67.5 1057.5,-97.5 1215.5,-97.5 1215.5,-67.5 1057.5,-67.5"/>
<text text-anchor="start" x="1065.5" y="-85.5" font-family="Helvetica,sans-Serif" font-size="10.00">sources/System/BombHolder</text>
<text text-anchor="middle" x="1136.5" y="-74.5" font-family="Helvetica,sans-Serif" font-size="10.00">/BombHolderSystem.cpp</text>
</a>
</g>
</g>
<!-- Node1&#45;&gt;Node8 -->
<g id="edge7" class="edge">
<title>Node1&#45;&gt;Node8</title>
<path fill="none" stroke="midnightblue" d="M1191.81,-127.88C1179.5,-118.01 1165.07,-106.43 1154.04,-97.58"/>
<polygon fill="midnightblue" stroke="midnightblue" points="1189.93,-130.87 1199.92,-134.4 1194.32,-125.41 1189.93,-130.87"/>
</g>
<!-- Node9 -->
<g id="node9" class="node">
<title>Node9</title>
<g id="a_node9"><a xlink:href="HealthSystem_8cpp.html" target="_top" xlink:title=" ">
<polygon fill="white" stroke="black" points="1234,-67.5 1234,-97.5 1363,-97.5 1363,-67.5 1234,-67.5"/>
<text text-anchor="start" x="1242" y="-85.5" font-family="Helvetica,sans-Serif" font-size="10.00">sources/System/Health</text>
<text text-anchor="middle" x="1298.5" y="-74.5" font-family="Helvetica,sans-Serif" font-size="10.00">/HealthSystem.cpp</text>
</a>
</g>
</g>
<!-- Node1&#45;&gt;Node9 -->
<g id="edge8" class="edge">
<title>Node1&#45;&gt;Node9</title>
<path fill="none" stroke="midnightblue" d="M1243.19,-127.88C1255.5,-118.01 1269.93,-106.43 1280.96,-97.58"/>
<polygon fill="midnightblue" stroke="midnightblue" points="1240.68,-125.41 1235.08,-134.4 1245.07,-130.87 1240.68,-125.41"/>
</g>
<!-- Node10 -->
<g id="node10" class="node">
<title>Node10</title>
<g id="a_node10"><a xlink:href="IAControllableSystem_8cpp.html" target="_top" xlink:title=" ">
<polygon fill="white" stroke="black" points="1381.5,-67.5 1381.5,-97.5 1547.5,-97.5 1547.5,-67.5 1381.5,-67.5"/>
<text text-anchor="start" x="1389.5" y="-85.5" font-family="Helvetica,sans-Serif" font-size="10.00">sources/System/IAControllable</text>
<text text-anchor="middle" x="1464.5" y="-74.5" font-family="Helvetica,sans-Serif" font-size="10.00">/IAControllableSystem.cpp</text>
</a>
</g>
</g>
<!-- Node1&#45;&gt;Node10 -->
<g id="edge9" class="edge">
<title>Node1&#45;&gt;Node10</title>
<path fill="none" stroke="midnightblue" d="M1280.51,-131.92C1320.82,-121.31 1372.54,-107.7 1410.88,-97.61"/>
<polygon fill="midnightblue" stroke="midnightblue" points="1279.57,-128.55 1270.79,-134.48 1281.35,-135.32 1279.57,-128.55"/>
</g>
<!-- Node11 -->
<g id="node11" class="node">
<title>Node11</title>
<g id="a_node11"><a xlink:href="CameraSystem_8cpp.html" target="_top" xlink:title=" ">
<polygon fill="white" stroke="black" points="1566,-67.5 1566,-97.5 1707,-97.5 1707,-67.5 1566,-67.5"/>
<text text-anchor="start" x="1574" y="-85.5" font-family="Helvetica,sans-Serif" font-size="10.00">sources/System/Renderer</text>
<text text-anchor="middle" x="1636.5" y="-74.5" font-family="Helvetica,sans-Serif" font-size="10.00">/CameraSystem.cpp</text>
</a>
</g>
</g>
<!-- Node1&#45;&gt;Node11 -->
<g id="edge10" class="edge">
<title>Node1&#45;&gt;Node11</title>
<path fill="none" stroke="midnightblue" d="M1299.92,-136.96C1368.64,-127.16 1469.07,-112.43 1556.5,-98 1559.56,-97.49 1562.69,-96.97 1565.85,-96.43"/>
<polygon fill="midnightblue" stroke="midnightblue" points="1299.42,-133.5 1290.01,-138.37 1300.41,-140.43 1299.42,-133.5"/>
</g>
<!-- Node12 -->
<g id="node12" class="node">
<title>Node12</title>
<g id="a_node12"><a xlink:href="TimerSystem_8hpp.html" target="_top" xlink:title=" ">
<polygon fill="white" stroke="black" points="1764,-67.5 1764,-97.5 1889,-97.5 1889,-67.5 1764,-67.5"/>
<text text-anchor="start" x="1772" y="-85.5" font-family="Helvetica,sans-Serif" font-size="10.00">sources/System/Timer</text>
<text text-anchor="middle" x="1826.5" y="-74.5" font-family="Helvetica,sans-Serif" font-size="10.00">/TimerSystem.hpp</text>
</a>
</g>
</g>
<!-- Node1&#45;&gt;Node12 -->
<g id="edge11" class="edge">
<title>Node1&#45;&gt;Node12</title>
<path fill="none" stroke="midnightblue" d="M1300.23,-143C1405.09,-135.5 1591.25,-120.36 1749.5,-98 1754.21,-97.33 1759.08,-96.58 1763.96,-95.77"/>
<polygon fill="midnightblue" stroke="midnightblue" points="1299.75,-139.53 1290.03,-143.73 1300.25,-146.51 1299.75,-139.53"/>
</g>
<!-- Node14 -->
<g id="node14" class="node">
<title>Node14</title>
<g id="a_node14"><a xlink:href="TimerSystem_8cpp.html" target="_top" xlink:title=" ">
<polygon fill="white" stroke="black" points="1680,-0.5 1680,-30.5 1805,-30.5 1805,-0.5 1680,-0.5"/>
<text text-anchor="start" x="1688" y="-18.5" font-family="Helvetica,sans-Serif" font-size="10.00">sources/System/Timer</text>
<text text-anchor="middle" x="1742.5" y="-7.5" font-family="Helvetica,sans-Serif" font-size="10.00">/TimerSystem.cpp</text>
</a>
</g>
</g>
<!-- Node1&#45;&gt;Node14 -->
<g id="edge14" class="edge">
<title>Node1&#45;&gt;Node14</title>
<path fill="none" stroke="midnightblue" d="M1300.4,-144.97C1433.66,-138.59 1683.87,-123.37 1715.5,-98 1735.96,-81.59 1741.05,-49.22 1742.23,-30.59"/>
<polygon fill="midnightblue" stroke="midnightblue" points="1300.05,-141.49 1290.23,-145.46 1300.38,-148.48 1300.05,-141.49"/>
</g>
<!-- Node15 -->
<g id="node15" class="node">
<title>Node15</title>
<g id="a_node15"><a xlink:href="TimerUISystem_8hpp.html" target="_top" xlink:title=" ">
<polygon fill="white" stroke="black" points="1907,-67.5 1907,-97.5 2032,-97.5 2032,-67.5 1907,-67.5"/>
<text text-anchor="start" x="1915" y="-85.5" font-family="Helvetica,sans-Serif" font-size="10.00">sources/System/Timer</text>
<text text-anchor="middle" x="1969.5" y="-74.5" font-family="Helvetica,sans-Serif" font-size="10.00">/TimerUISystem.hpp</text>
</a>
</g>
</g>
<!-- Node1&#45;&gt;Node15 -->
<g id="edge15" class="edge">
<title>Node1&#45;&gt;Node15</title>
<path fill="none" stroke="midnightblue" d="M1300.42,-145.67C1428.85,-140.55 1683.4,-127.39 1897.5,-98 1900.53,-97.58 1903.63,-97.12 1906.75,-96.62"/>
<polygon fill="midnightblue" stroke="midnightblue" points="1300.13,-142.18 1290.27,-146.07 1300.4,-149.18 1300.13,-142.18"/>
</g>
<!-- Node16 -->
<g id="node16" class="node">
<title>Node16</title>
<g id="a_node16"><a xlink:href="TimerUISystem_8cpp.html" target="_top" xlink:title=" ">
<polygon fill="white" stroke="black" points="1996,-0.5 1996,-30.5 2121,-30.5 2121,-0.5 1996,-0.5"/>
<text text-anchor="start" x="2004" y="-18.5" font-family="Helvetica,sans-Serif" font-size="10.00">sources/System/Timer</text>
<text text-anchor="middle" x="2058.5" y="-7.5" font-family="Helvetica,sans-Serif" font-size="10.00">/TimerUISystem.cpp</text>
</a>
</g>
</g>
<!-- Node1&#45;&gt;Node16 -->
<g id="edge18" class="edge">
<title>Node1&#45;&gt;Node16</title>
<path fill="none" stroke="midnightblue" d="M1300.27,-148.97C1497.92,-149.32 1985.15,-145.32 2040.5,-98 2059.88,-81.43 2061.12,-49.12 2060,-30.55"/>
<polygon fill="midnightblue" stroke="midnightblue" points="1300.23,-145.47 1290.22,-148.95 1300.22,-152.47 1300.23,-145.47"/>
</g>
<!-- Node13 -->
<g id="node13" class="node">
<title>Node13</title>
<g id="a_node13"><a xlink:href="Runner_8cpp.html" target="_top" xlink:title=" ">
<polygon fill="white" stroke="black" points="1827,-6 1827,-25 1976,-25 1976,-6 1827,-6"/>
<text text-anchor="middle" x="1901.5" y="-13" font-family="Helvetica,sans-Serif" font-size="10.00">sources/Runner/Runner.cpp</text>
</a>
</g>
</g>
<!-- Node12&#45;&gt;Node13 -->
<g id="edge12" class="edge">
<title>Node12&#45;&gt;Node13</title>
<path fill="none" stroke="midnightblue" d="M1850.53,-60.67C1864.38,-48.67 1881.05,-34.22 1891.47,-25.19"/>
<polygon fill="midnightblue" stroke="midnightblue" points="1848.04,-58.2 1842.77,-67.4 1852.62,-63.49 1848.04,-58.2"/>
</g>
<!-- Node12&#45;&gt;Node14 -->
<g id="edge13" class="edge">
<title>Node12&#45;&gt;Node14</title>
<path fill="none" stroke="midnightblue" d="M1800.22,-61.17C1787.38,-51.23 1772.24,-39.51 1760.69,-30.58"/>
<polygon fill="midnightblue" stroke="midnightblue" points="1798.22,-64.04 1808.27,-67.4 1802.51,-58.51 1798.22,-64.04"/>
</g>
<!-- Node15&#45;&gt;Node13 -->
<g id="edge16" class="edge">
<title>Node15&#45;&gt;Node13</title>
<path fill="none" stroke="midnightblue" d="M1947.36,-60.34C1934.87,-48.4 1919.95,-34.14 1910.6,-25.19"/>
<polygon fill="midnightblue" stroke="midnightblue" points="1945.1,-63.02 1954.75,-67.4 1949.93,-57.96 1945.1,-63.02"/>
</g>
<!-- Node15&#45;&gt;Node16 -->
<g id="edge17" class="edge">
<title>Node15&#45;&gt;Node16</title>
<path fill="none" stroke="midnightblue" d="M1996.95,-61.45C2010.64,-51.45 2026.87,-39.6 2039.23,-30.58"/>
<polygon fill="midnightblue" stroke="midnightblue" points="1994.82,-58.67 1988.81,-67.4 1998.95,-64.32 1994.82,-58.67"/>
</g>
</g>
</svg>
