<?xml version="1.0" encoding="UTF-8" standalone="no"?>
<!DOCTYPE svg PUBLIC "-//W3C//DTD SVG 1.1//EN"
 "http://www.w3.org/Graphics/SVG/1.1/DTD/svg11.dtd">
<!-- Generated by graphviz version 2.43.0 (0)
 -->
<!-- Title: sources/Component/Timer/TimerComponent.hpp Pages: 1 -->
<svg width="949pt" height="375pt"
 viewBox="0.00 0.00 948.50 375.00" xmlns="http://www.w3.org/2000/svg" xmlns:xlink="http://www.w3.org/1999/xlink">
<g id="graph0" class="graph" transform="scale(1 1) rotate(0) translate(4 371)">
<title>sources/Component/Timer/TimerComponent.hpp</title>
<polygon fill="white" stroke="transparent" points="-4,4 -4,-371 944.5,-371 944.5,4 -4,4"/>
<!-- Node1 -->
<g id="node1" class="node">
<title>Node1</title>
<g id="a_node1"><a xlink:title=" ">
<polygon fill="#bfbfbf" stroke="black" points="354.5,-336.5 354.5,-366.5 499.5,-366.5 499.5,-336.5 354.5,-336.5"/>
<text text-anchor="start" x="362.5" y="-354.5" font-family="Helvetica,sans-Serif" font-size="10.00">sources/Component/Timer</text>
<text text-anchor="middle" x="427" y="-343.5" font-family="Helvetica,sans-Serif" font-size="10.00">/TimerComponent.hpp</text>
</a>
</g>
</g>
<!-- Node2 -->
<g id="node2" class="node">
<title>Node2</title>
<g id="a_node2"><a xlink:href="Component_8hpp.html" target="_top" xlink:title=" ">
<polygon fill="white" stroke="black" points="104.5,-56.5 104.5,-75.5 257.5,-75.5 257.5,-56.5 104.5,-56.5"/>
<text text-anchor="middle" x="181" y="-63.5" font-family="Helvetica,sans-Serif" font-size="10.00">Component/Component.hpp</text>
</a>
</g>
</g>
<!-- Node1&#45;&gt;Node2 -->
<g id="edge1" class="edge">
<title>Node1&#45;&gt;Node2</title>
<path fill="none" stroke="midnightblue" d="M354.08,-345.78C232.12,-335.87 0,-307.48 0,-235 0,-235 0,-235 0,-177 0,-119.66 67.17,-91.36 119.67,-78"/>
<polygon fill="midnightblue" stroke="midnightblue" points="120.72,-81.34 129.62,-75.59 119.07,-74.54 120.72,-81.34"/>
</g>
<!-- Node6 -->
<g id="node6" class="node">
<title>Node6</title>
<g id="a_node6"><a xlink:title=" ">
<polygon fill="white" stroke="#bfbfbf" points="349,-168.5 349,-187.5 399,-187.5 399,-168.5 349,-168.5"/>
<text text-anchor="middle" x="374" y="-175.5" font-family="Helvetica,sans-Serif" font-size="10.00">chrono</text>
</a>
</g>
</g>
<!-- Node1&#45;&gt;Node6 -->
<g id="edge5" class="edge">
<title>Node1&#45;&gt;Node6</title>
<path fill="none" stroke="midnightblue" d="M414.3,-336.29C398.01,-317.01 370.59,-280.73 360,-244 355.46,-228.25 360.26,-209.97 365.45,-196.81"/>
<polygon fill="midnightblue" stroke="midnightblue" points="368.71,-198.07 369.51,-187.51 362.3,-195.27 368.71,-198.07"/>
</g>
<!-- Node7 -->
<g id="node7" class="node">
<title>Node7</title>
<g id="a_node7"><a xlink:href="Wal_8hpp.html" target="_top" xlink:title=" ">
<polygon fill="white" stroke="black" points="592,-280.5 592,-299.5 648,-299.5 648,-280.5 592,-280.5"/>
<text text-anchor="middle" x="620" y="-287.5" font-family="Helvetica,sans-Serif" font-size="10.00">Wal.hpp</text>
</a>
</g>
</g>
<!-- Node1&#45;&gt;Node7 -->
<g id="edge6" class="edge">
<title>Node1&#45;&gt;Node7</title>
<path fill="none" stroke="midnightblue" d="M472.74,-336.4C506.23,-326.07 551.13,-312.23 582.52,-302.56"/>
<polygon fill="midnightblue" stroke="midnightblue" points="583.67,-305.86 592.2,-299.57 581.61,-299.17 583.67,-305.86"/>
</g>
<!-- Node23 -->
<g id="node23" class="node">
<title>Node23</title>
<g id="a_node23"><a xlink:href="Callback_8hpp.html" target="_top" xlink:title=" ">
<polygon fill="white" stroke="black" points="455,-168.5 455,-187.5 573,-187.5 573,-168.5 455,-168.5"/>
<text text-anchor="middle" x="514" y="-175.5" font-family="Helvetica,sans-Serif" font-size="10.00">Models/Callback.hpp</text>
</a>
</g>
</g>
<!-- Node1&#45;&gt;Node23 -->
<g id="edge44" class="edge">
<title>Node1&#45;&gt;Node23</title>
<path fill="none" stroke="midnightblue" d="M437.84,-336.43C452.58,-316.73 478.94,-279.35 495,-244 501.84,-228.95 506.9,-210.82 510.07,-197.53"/>
<polygon fill="midnightblue" stroke="midnightblue" points="513.5,-198.21 512.28,-187.69 506.67,-196.68 513.5,-198.21"/>
</g>
<!-- Node3 -->
<g id="node3" class="node">
<title>Node3</title>
<g id="a_node3"><a xlink:title=" ">
<polygon fill="white" stroke="#bfbfbf" points="157.5,-0.5 157.5,-19.5 204.5,-19.5 204.5,-0.5 157.5,-0.5"/>
<text text-anchor="middle" x="181" y="-7.5" font-family="Helvetica,sans-Serif" font-size="10.00">vector</text>
</a>
</g>
</g>
<!-- Node2&#45;&gt;Node3 -->
<g id="edge2" class="edge">
<title>Node2&#45;&gt;Node3</title>
<path fill="none" stroke="midnightblue" d="M181,-56.08C181,-49.01 181,-38.86 181,-29.99"/>
<polygon fill="midnightblue" stroke="midnightblue" points="184.5,-29.75 181,-19.75 177.5,-29.75 184.5,-29.75"/>
</g>
<!-- Node4 -->
<g id="node4" class="node">
<title>Node4</title>
<g id="a_node4"><a xlink:title=" ">
<polygon fill="white" stroke="#bfbfbf" points="571,-0.5 571,-19.5 615,-19.5 615,-0.5 571,-0.5"/>
<text text-anchor="middle" x="593" y="-7.5" font-family="Helvetica,sans-Serif" font-size="10.00">string</text>
</a>
</g>
</g>
<!-- Node2&#45;&gt;Node4 -->
<g id="edge3" class="edge">
<title>Node2&#45;&gt;Node4</title>
<path fill="none" stroke="midnightblue" d="M246.28,-56.44C335.88,-44.7 493.51,-24.04 560.94,-15.2"/>
<polygon fill="midnightblue" stroke="midnightblue" points="561.5,-18.66 570.96,-13.89 560.59,-11.72 561.5,-18.66"/>
</g>
<!-- Node5 -->
<g id="node5" class="node">
<title>Node5</title>
<g id="a_node5"><a xlink:title=" ">
<polygon fill="white" stroke="#bfbfbf" points="59.5,-0.5 59.5,-19.5 124.5,-19.5 124.5,-0.5 59.5,-0.5"/>
<text text-anchor="middle" x="92" y="-7.5" font-family="Helvetica,sans-Serif" font-size="10.00">typeindex</text>
</a>
</g>
</g>
<!-- Node2&#45;&gt;Node5 -->
<g id="edge4" class="edge">
<title>Node2&#45;&gt;Node5</title>
<path fill="none" stroke="midnightblue" d="M166.7,-56.32C152.82,-47.9 131.51,-34.97 115.2,-25.07"/>
<polygon fill="midnightblue" stroke="midnightblue" points="116.63,-21.85 106.26,-19.65 113,-27.83 116.63,-21.85"/>
</g>
<!-- Node7&#45;&gt;Node3 -->
<g id="edge8" class="edge">
<title>Node7&#45;&gt;Node3</title>
<path fill="none" stroke="midnightblue" d="M641.28,-280.4C674.76,-265.3 736,-230.62 736,-179 736,-179 736,-179 736,-121 736,-90.9 740.31,-75.04 717,-56 678.12,-24.23 326.28,-14.08 214.75,-11.65"/>
<polygon fill="midnightblue" stroke="midnightblue" points="214.8,-8.15 204.73,-11.44 214.65,-15.15 214.8,-8.15"/>
</g>
<!-- Node7&#45;&gt;Node4 -->
<g id="edge9" class="edge">
<title>Node7&#45;&gt;Node4</title>
<path fill="none" stroke="midnightblue" d="M648.26,-286.25C677.37,-281.97 722.28,-271.16 750,-244 772,-222.45 774,-209.8 774,-179 774,-179 774,-179 774,-121 774,-90.2 772.57,-76.95 750,-56 715.63,-24.1 660.14,-14.64 625.16,-11.93"/>
<polygon fill="midnightblue" stroke="midnightblue" points="625.21,-8.43 615.01,-11.29 624.77,-15.41 625.21,-8.43"/>
</g>
<!-- Node8 -->
<g id="node8" class="node">
<title>Node8</title>
<g id="a_node8"><a xlink:title=" ">
<polygon fill="white" stroke="#bfbfbf" points="491.5,-112.5 491.5,-131.5 536.5,-131.5 536.5,-112.5 491.5,-112.5"/>
<text text-anchor="middle" x="514" y="-119.5" font-family="Helvetica,sans-Serif" font-size="10.00">utility</text>
</a>
</g>
</g>
<!-- Node7&#45;&gt;Node8 -->
<g id="edge7" class="edge">
<title>Node7&#45;&gt;Node8</title>
<path fill="none" stroke="midnightblue" d="M619.28,-280.49C617.1,-259.42 609.01,-203.89 582,-168 571.9,-154.58 556.56,-143.94 543,-136.38"/>
<polygon fill="midnightblue" stroke="midnightblue" points="544.47,-133.19 533.99,-131.64 541.21,-139.39 544.47,-133.19"/>
</g>
<!-- Node9 -->
<g id="node9" class="node">
<title>Node9</title>
<g id="a_node9"><a xlink:title=" ">
<polygon fill="white" stroke="#bfbfbf" points="574,-56.5 574,-75.5 632,-75.5 632,-56.5 574,-56.5"/>
<text text-anchor="middle" x="603" y="-63.5" font-family="Helvetica,sans-Serif" font-size="10.00">memory</text>
</a>
</g>
</g>
<!-- Node7&#45;&gt;Node9 -->
<g id="edge10" class="edge">
<title>Node7&#45;&gt;Node9</title>
<path fill="none" stroke="midnightblue" d="M621.24,-280.4C622.48,-271.36 624.3,-256.71 625,-244 628.22,-185.92 614.87,-117.77 607.53,-85.6"/>
<polygon fill="midnightblue" stroke="midnightblue" points="610.92,-84.73 605.22,-75.8 604.11,-86.34 610.92,-84.73"/>
</g>
<!-- Node10 -->
<g id="node10" class="node">
<title>Node10</title>
<g id="a_node10"><a xlink:title=" ">
<polygon fill="white" stroke="#bfbfbf" points="650.5,-56.5 650.5,-75.5 707.5,-75.5 707.5,-56.5 650.5,-56.5"/>
<text text-anchor="middle" x="679" y="-63.5" font-family="Helvetica,sans-Serif" font-size="10.00">typeinfo</text>
</a>
</g>
</g>
<!-- Node7&#45;&gt;Node10 -->
<g id="edge11" class="edge">
<title>Node7&#45;&gt;Node10</title>
<path fill="none" stroke="midnightblue" d="M624.26,-280.21C628.47,-271.27 634.85,-256.92 639,-244 657.19,-187.39 670.3,-118.04 675.93,-85.51"/>
<polygon fill="midnightblue" stroke="midnightblue" points="679.39,-86.06 677.61,-75.62 672.49,-84.89 679.39,-86.06"/>
</g>
<!-- Node11 -->
<g id="node11" class="node">
<title>Node11</title>
<g id="a_node11"><a xlink:href="WalError_8hpp.html" target="_top" xlink:title=" ">
<polygon fill="white" stroke="black" points="802.5,-56.5 802.5,-75.5 931.5,-75.5 931.5,-56.5 802.5,-56.5"/>
<text text-anchor="middle" x="867" y="-63.5" font-family="Helvetica,sans-Serif" font-size="10.00">Exception/WalError.hpp</text>
</a>
</g>
</g>
<!-- Node7&#45;&gt;Node11 -->
<g id="edge12" class="edge">
<title>Node7&#45;&gt;Node11</title>
<path fill="none" stroke="midnightblue" d="M648.05,-288.62C684.42,-286.68 747.92,-278.2 788,-244 837.66,-201.63 857.42,-121.82 864.08,-85.66"/>
<polygon fill="midnightblue" stroke="midnightblue" points="867.58,-86 865.81,-75.55 860.67,-84.82 867.58,-86"/>
</g>
<!-- Node14 -->
<g id="node14" class="node">
<title>Node14</title>
<g id="a_node14"><a xlink:href="ISystem_8hpp.html" target="_top" xlink:title=" ">
<polygon fill="white" stroke="black" points="368.5,-224.5 368.5,-243.5 485.5,-243.5 485.5,-224.5 368.5,-224.5"/>
<text text-anchor="middle" x="427" y="-231.5" font-family="Helvetica,sans-Serif" font-size="10.00">System/ISystem.hpp</text>
</a>
</g>
</g>
<!-- Node7&#45;&gt;Node14 -->
<g id="edge16" class="edge">
<title>Node7&#45;&gt;Node14</title>
<path fill="none" stroke="midnightblue" d="M591.94,-281.15C559.25,-272 504.99,-256.82 467.69,-246.38"/>
<polygon fill="midnightblue" stroke="midnightblue" points="468.22,-242.9 457.65,-243.58 466.34,-249.64 468.22,-242.9"/>
</g>
<!-- Node7&#45;&gt;Node23 -->
<g id="edge34" class="edge">
<title>Node7&#45;&gt;Node23</title>
<path fill="none" stroke="midnightblue" d="M611.68,-280.37C593.96,-261.97 552.23,-218.67 529.47,-195.05"/>
<polygon fill="midnightblue" stroke="midnightblue" points="531.74,-192.36 522.28,-187.59 526.7,-197.22 531.74,-192.36"/>
</g>
<!-- Node24 -->
<g id="node24" class="node">
<title>Node24</title>
<g id="a_node24"><a xlink:href="Scene_8hpp.html" target="_top" xlink:title=" ">
<polygon fill="white" stroke="black" points="187.5,-224.5 187.5,-243.5 286.5,-243.5 286.5,-224.5 187.5,-224.5"/>
<text text-anchor="middle" x="237" y="-231.5" font-family="Helvetica,sans-Serif" font-size="10.00">Scene/Scene.hpp</text>
</a>
</g>
</g>
<!-- Node7&#45;&gt;Node24 -->
<g id="edge38" class="edge">
<title>Node7&#45;&gt;Node24</title>
<path fill="none" stroke="midnightblue" d="M591.84,-285.03C529.9,-276.3 380.7,-255.26 296.83,-243.43"/>
<polygon fill="midnightblue" stroke="midnightblue" points="297.07,-239.94 286.68,-242 296.1,-246.87 297.07,-239.94"/>
</g>
<!-- Node11&#45;&gt;Node4 -->
<g id="edge15" class="edge">
<title>Node11&#45;&gt;Node4</title>
<path fill="none" stroke="midnightblue" d="M823.58,-56.44C768.47,-45.58 674.67,-27.09 625.41,-17.39"/>
<polygon fill="midnightblue" stroke="midnightblue" points="625.8,-13.9 615.31,-15.4 624.45,-20.77 625.8,-13.9"/>
</g>
<!-- Node12 -->
<g id="node12" class="node">
<title>Node12</title>
<g id="a_node12"><a xlink:title=" ">
<polygon fill="white" stroke="#bfbfbf" points="875.5,-0.5 875.5,-19.5 940.5,-19.5 940.5,-0.5 875.5,-0.5"/>
<text text-anchor="middle" x="908" y="-7.5" font-family="Helvetica,sans-Serif" font-size="10.00">exception</text>
</a>
</g>
</g>
<!-- Node11&#45;&gt;Node12 -->
<g id="edge13" class="edge">
<title>Node11&#45;&gt;Node12</title>
<path fill="none" stroke="midnightblue" d="M873.77,-56.08C879.56,-48.46 888.06,-37.26 895.14,-27.94"/>
<polygon fill="midnightblue" stroke="midnightblue" points="898.1,-29.83 901.36,-19.75 892.52,-25.6 898.1,-29.83"/>
</g>
<!-- Node13 -->
<g id="node13" class="node">
<title>Node13</title>
<g id="a_node13"><a xlink:title=" ">
<polygon fill="white" stroke="#bfbfbf" points="792.5,-0.5 792.5,-19.5 857.5,-19.5 857.5,-0.5 792.5,-0.5"/>
<text text-anchor="middle" x="825" y="-7.5" font-family="Helvetica,sans-Serif" font-size="10.00">stdexcept</text>
</a>
</g>
</g>
<!-- Node11&#45;&gt;Node13 -->
<g id="edge14" class="edge">
<title>Node11&#45;&gt;Node13</title>
<path fill="none" stroke="midnightblue" d="M860.06,-56.08C854.07,-48.38 845.25,-37.03 837.95,-27.65"/>
<polygon fill="midnightblue" stroke="midnightblue" points="840.71,-25.5 831.81,-19.75 835.18,-29.79 840.71,-25.5"/>
</g>
<!-- Node14&#45;&gt;Node6 -->
<g id="edge33" class="edge">
<title>Node14&#45;&gt;Node6</title>
<path fill="none" stroke="midnightblue" d="M418.25,-224.08C410.53,-216.22 399.1,-204.57 389.78,-195.08"/>
<polygon fill="midnightblue" stroke="midnightblue" points="392.09,-192.44 382.59,-187.75 387.1,-197.34 392.09,-192.44"/>
</g>
<!-- Node15 -->
<g id="node15" class="node">
<title>Node15</title>
<g id="a_node15"><a xlink:href="Entity_8hpp.html" target="_top" xlink:title=" ">
<polygon fill="white" stroke="black" points="294,-112.5 294,-131.5 390,-131.5 390,-112.5 294,-112.5"/>
<text text-anchor="middle" x="342" y="-119.5" font-family="Helvetica,sans-Serif" font-size="10.00">Entity/Entity.hpp</text>
</a>
</g>
</g>
<!-- Node14&#45;&gt;Node15 -->
<g id="edge17" class="edge">
<title>Node14&#45;&gt;Node15</title>
<path fill="none" stroke="midnightblue" d="M426.31,-224.19C424.88,-210.86 420.58,-185.31 408,-168 398.26,-154.6 383.25,-143.91 369.99,-136.31"/>
<polygon fill="midnightblue" stroke="midnightblue" points="371.65,-133.23 361.19,-131.56 368.32,-139.39 371.65,-133.23"/>
</g>
<!-- Node18 -->
<g id="node18" class="node">
<title>Node18</title>
<g id="a_node18"><a xlink:href="View_8hpp.html" target="_top" xlink:title=" ">
<polygon fill="white" stroke="black" points="167,-168.5 167,-187.5 255,-187.5 255,-168.5 167,-168.5"/>
<text text-anchor="middle" x="211" y="-175.5" font-family="Helvetica,sans-Serif" font-size="10.00">View/View.hpp</text>
</a>
</g>
</g>
<!-- Node14&#45;&gt;Node18 -->
<g id="edge25" class="edge">
<title>Node14&#45;&gt;Node18</title>
<path fill="none" stroke="midnightblue" d="M392.77,-224.44C355.49,-215.12 295.73,-200.18 254.99,-190"/>
<polygon fill="midnightblue" stroke="midnightblue" points="255.62,-186.55 245.07,-187.52 253.92,-193.34 255.62,-186.55"/>
</g>
<!-- Node15&#45;&gt;Node2 -->
<g id="edge22" class="edge">
<title>Node15&#45;&gt;Node2</title>
<path fill="none" stroke="midnightblue" d="M316.49,-112.44C289.4,-103.36 246.41,-88.94 216.13,-78.78"/>
<polygon fill="midnightblue" stroke="midnightblue" points="216.99,-75.38 206.39,-75.52 214.76,-82.01 216.99,-75.38"/>
</g>
<!-- Node15&#45;&gt;Node4 -->
<g id="edge18" class="edge">
<title>Node15&#45;&gt;Node4</title>
<path fill="none" stroke="midnightblue" d="M355.8,-112.49C381.14,-96.96 434.29,-64.79 454,-56 489.49,-40.17 532.28,-27.18 560.92,-19.29"/>
<polygon fill="midnightblue" stroke="midnightblue" points="562.06,-22.61 570.79,-16.62 560.23,-15.85 562.06,-22.61"/>
</g>
<!-- Node15&#45;&gt;Node9 -->
<g id="edge21" class="edge">
<title>Node15&#45;&gt;Node9</title>
<path fill="none" stroke="midnightblue" d="M386.52,-112.47C429.48,-104.14 496.61,-90.85 564.03,-76.16"/>
<polygon fill="midnightblue" stroke="midnightblue" points="564.96,-79.54 573.98,-73.98 563.46,-72.7 564.96,-79.54"/>
</g>
<!-- Node15&#45;&gt;Node10 -->
<g id="edge20" class="edge">
<title>Node15&#45;&gt;Node10</title>
<path fill="none" stroke="midnightblue" d="M390.1,-113.51C393.45,-113 396.78,-112.49 400,-112 503.93,-96.17 532.97,-96.47 640.47,-75.96"/>
<polygon fill="midnightblue" stroke="midnightblue" points="641.26,-79.37 650.42,-74.04 639.94,-72.49 641.26,-79.37"/>
</g>
<!-- Node15&#45;&gt;Node11 -->
<g id="edge23" class="edge">
<title>Node15&#45;&gt;Node11</title>
<path fill="none" stroke="midnightblue" d="M390.08,-113.32C393.43,-112.85 396.76,-112.41 400,-112 538.07,-94.65 699.85,-80.42 792.19,-72.87"/>
<polygon fill="midnightblue" stroke="midnightblue" points="792.6,-76.34 802.28,-72.04 792.03,-69.37 792.6,-76.34"/>
</g>
<!-- Node16 -->
<g id="node16" class="node">
<title>Node16</title>
<g id="a_node16"><a xlink:title=" ">
<polygon fill="white" stroke="#bfbfbf" points="462.5,-56.5 462.5,-75.5 555.5,-75.5 555.5,-56.5 462.5,-56.5"/>
<text text-anchor="middle" x="509" y="-63.5" font-family="Helvetica,sans-Serif" font-size="10.00">unordered_map</text>
</a>
</g>
</g>
<!-- Node15&#45;&gt;Node16 -->
<g id="edge19" class="edge">
<title>Node15&#45;&gt;Node16</title>
<path fill="none" stroke="midnightblue" d="M368.46,-112.44C396.68,-103.32 441.54,-88.81 472.97,-78.65"/>
<polygon fill="midnightblue" stroke="midnightblue" points="474.22,-81.92 482.66,-75.52 472.07,-75.26 474.22,-81.92"/>
</g>
<!-- Node17 -->
<g id="node17" class="node">
<title>Node17</title>
<g id="a_node17"><a xlink:href="TypeHolder_8hpp.html" target="_top" xlink:title=" ">
<polygon fill="white" stroke="black" points="276,-56.5 276,-75.5 406,-75.5 406,-56.5 276,-56.5"/>
<text text-anchor="middle" x="341" y="-63.5" font-family="Helvetica,sans-Serif" font-size="10.00">Models/TypeHolder.hpp</text>
</a>
</g>
</g>
<!-- Node15&#45;&gt;Node17 -->
<g id="edge24" class="edge">
<title>Node15&#45;&gt;Node17</title>
<path fill="none" stroke="midnightblue" d="M341.83,-112.08C341.7,-105.01 341.52,-94.86 341.35,-85.99"/>
<polygon fill="midnightblue" stroke="midnightblue" points="344.85,-85.68 341.16,-75.75 337.85,-85.81 344.85,-85.68"/>
</g>
<!-- Node18&#45;&gt;Node5 -->
<g id="edge28" class="edge">
<title>Node18&#45;&gt;Node5</title>
<path fill="none" stroke="midnightblue" d="M193.64,-168.49C166.3,-153.96 114.33,-121.46 95,-76 88.78,-61.38 88.49,-43.21 89.49,-29.8"/>
<polygon fill="midnightblue" stroke="midnightblue" points="92.97,-30.15 90.53,-19.84 86.01,-29.42 92.97,-30.15"/>
</g>
<!-- Node18&#45;&gt;Node8 -->
<g id="edge30" class="edge">
<title>Node18&#45;&gt;Node8</title>
<path fill="none" stroke="midnightblue" d="M255.12,-171.34C307.18,-164.3 396.48,-151.1 481.58,-132.12"/>
<polygon fill="midnightblue" stroke="midnightblue" points="482.41,-135.52 491.39,-129.9 480.87,-128.69 482.41,-135.52"/>
</g>
<!-- Node18&#45;&gt;Node15 -->
<g id="edge32" class="edge">
<title>Node18&#45;&gt;Node15</title>
<path fill="none" stroke="midnightblue" d="M231.76,-168.44C253.32,-159.56 287.26,-145.56 311.79,-135.45"/>
<polygon fill="midnightblue" stroke="midnightblue" points="313.43,-138.56 321.34,-131.52 310.76,-132.09 313.43,-138.56"/>
</g>
<!-- Node19 -->
<g id="node19" class="node">
<title>Node19</title>
<g id="a_node19"><a xlink:title=" ">
<polygon fill="white" stroke="#bfbfbf" points="66,-112.5 66,-131.5 98,-131.5 98,-112.5 66,-112.5"/>
<text text-anchor="middle" x="82" y="-119.5" font-family="Helvetica,sans-Serif" font-size="10.00">list</text>
</a>
</g>
</g>
<!-- Node18&#45;&gt;Node19 -->
<g id="edge26" class="edge">
<title>Node18&#45;&gt;Node19</title>
<path fill="none" stroke="midnightblue" d="M190.56,-168.44C168.08,-159.03 131.93,-143.9 107.58,-133.71"/>
<polygon fill="midnightblue" stroke="midnightblue" points="108.84,-130.44 98.26,-129.81 106.13,-136.9 108.84,-130.44"/>
</g>
<!-- Node20 -->
<g id="node20" class="node">
<title>Node20</title>
<g id="a_node20"><a xlink:title=" ">
<polygon fill="white" stroke="#bfbfbf" points="157.5,-112.5 157.5,-131.5 198.5,-131.5 198.5,-112.5 157.5,-112.5"/>
<text text-anchor="middle" x="178" y="-119.5" font-family="Helvetica,sans-Serif" font-size="10.00">tuple</text>
</a>
</g>
</g>
<!-- Node18&#45;&gt;Node20 -->
<g id="edge27" class="edge">
<title>Node18&#45;&gt;Node20</title>
<path fill="none" stroke="midnightblue" d="M205.55,-168.08C200.99,-160.61 194.33,-149.72 188.71,-140.52"/>
<polygon fill="midnightblue" stroke="midnightblue" points="191.55,-138.46 183.35,-131.75 185.58,-142.11 191.55,-138.46"/>
</g>
<!-- Node21 -->
<g id="node21" class="node">
<title>Node21</title>
<g id="a_node21"><a xlink:title=" ">
<polygon fill="white" stroke="#bfbfbf" points="408.5,-112.5 408.5,-131.5 473.5,-131.5 473.5,-112.5 408.5,-112.5"/>
<text text-anchor="middle" x="441" y="-119.5" font-family="Helvetica,sans-Serif" font-size="10.00">functional</text>
</a>
</g>
</g>
<!-- Node18&#45;&gt;Node21 -->
<g id="edge29" class="edge">
<title>Node18&#45;&gt;Node21</title>
<path fill="none" stroke="midnightblue" d="M247.44,-168.44C288.49,-158.81 355.1,-143.17 398.48,-132.98"/>
<polygon fill="midnightblue" stroke="midnightblue" points="399.51,-136.34 408.45,-130.64 397.91,-129.52 399.51,-136.34"/>
</g>
<!-- Node22 -->
<g id="node22" class="node">
<title>Node22</title>
<g id="a_node22"><a xlink:title=" ">
<polygon fill="white" stroke="#bfbfbf" points="217,-112.5 217,-131.5 273,-131.5 273,-112.5 217,-112.5"/>
<text text-anchor="middle" x="245" y="-119.5" font-family="Helvetica,sans-Serif" font-size="10.00">optional</text>
</a>
</g>
</g>
<!-- Node18&#45;&gt;Node22 -->
<g id="edge31" class="edge">
<title>Node18&#45;&gt;Node22</title>
<path fill="none" stroke="midnightblue" d="M216.61,-168.08C221.37,-160.53 228.32,-149.49 234.15,-140.23"/>
<polygon fill="midnightblue" stroke="midnightblue" points="237.12,-142.08 239.49,-131.75 231.2,-138.35 237.12,-142.08"/>
</g>
<!-- Node23&#45;&gt;Node8 -->
<g id="edge36" class="edge">
<title>Node23&#45;&gt;Node8</title>
<path fill="none" stroke="midnightblue" d="M514,-168.08C514,-161.01 514,-150.86 514,-141.99"/>
<polygon fill="midnightblue" stroke="midnightblue" points="517.5,-141.75 514,-131.75 510.5,-141.75 517.5,-141.75"/>
</g>
<!-- Node23&#45;&gt;Node16 -->
<g id="edge37" class="edge">
<title>Node23&#45;&gt;Node16</title>
<path fill="none" stroke="midnightblue" d="M523.21,-168.44C535.13,-156.27 553.55,-133.08 546,-112 542.06,-101 534.14,-90.77 526.64,-82.85"/>
<polygon fill="midnightblue" stroke="midnightblue" points="529.02,-80.28 519.44,-75.76 524.11,-85.27 529.02,-80.28"/>
</g>
<!-- Node23&#45;&gt;Node21 -->
<g id="edge35" class="edge">
<title>Node23&#45;&gt;Node21</title>
<path fill="none" stroke="midnightblue" d="M502.27,-168.32C491.16,-160.11 474.26,-147.6 461.02,-137.81"/>
<polygon fill="midnightblue" stroke="midnightblue" points="463.06,-134.97 452.94,-131.83 458.9,-140.59 463.06,-134.97"/>
</g>
<!-- Node24&#45;&gt;Node3 -->
<g id="edge39" class="edge">
<title>Node24&#45;&gt;Node3</title>
<path fill="none" stroke="midnightblue" d="M196.86,-224.43C152.42,-212.46 83.55,-185.83 57,-132 32.89,-83.12 105.04,-42.81 149.26,-23.43"/>
<polygon fill="midnightblue" stroke="midnightblue" points="150.65,-26.64 158.49,-19.51 147.92,-20.2 150.65,-26.64"/>
</g>
<!-- Node24&#45;&gt;Node15 -->
<g id="edge43" class="edge">
<title>Node24&#45;&gt;Node15</title>
<path fill="none" stroke="midnightblue" d="M245.24,-224.37C262.8,-205.97 304.13,-162.67 326.68,-139.05"/>
<polygon fill="midnightblue" stroke="midnightblue" points="329.43,-141.24 333.8,-131.59 324.36,-136.41 329.43,-141.24"/>
</g>
<!-- Node24&#45;&gt;Node18 -->
<g id="edge42" class="edge">
<title>Node24&#45;&gt;Node18</title>
<path fill="none" stroke="midnightblue" d="M232.71,-224.08C229.15,-216.69 223.98,-205.95 219.58,-196.81"/>
<polygon fill="midnightblue" stroke="midnightblue" points="222.71,-195.24 215.21,-187.75 216.4,-198.28 222.71,-195.24"/>
</g>
<!-- Node24&#45;&gt;Node19 -->
<g id="edge40" class="edge">
<title>Node24&#45;&gt;Node19</title>
<path fill="none" stroke="midnightblue" d="M219.79,-224.41C203.39,-215.95 178.27,-202.25 158,-188 136.19,-172.67 113.2,-152.34 98.29,-138.53"/>
<polygon fill="midnightblue" stroke="midnightblue" points="100.59,-135.89 90.9,-131.6 95.8,-140.99 100.59,-135.89"/>
</g>
<!-- Node24&#45;&gt;Node21 -->
<g id="edge41" class="edge">
<title>Node24&#45;&gt;Node21</title>
<path fill="none" stroke="midnightblue" d="M249.34,-224.4C268.32,-211.34 306.06,-186.15 340,-168 362.84,-155.79 389.66,-143.95 409.92,-135.48"/>
<polygon fill="midnightblue" stroke="midnightblue" points="411.39,-138.66 419.29,-131.61 408.71,-132.19 411.39,-138.66"/>
</g>
</g>
</svg>
