<?xml version="1.0" encoding="UTF-8" standalone="no"?>
<!DOCTYPE svg PUBLIC "-//W3C//DTD SVG 1.1//EN"
 "http://www.w3.org/Graphics/SVG/1.1/DTD/svg11.dtd">
<!-- Generated by graphviz version 2.43.0 (0)
 -->
<!-- Title: lib/Ray/sources/TraceLog.hpp Pages: 1 -->
<svg width="837pt" height="95pt"
 viewBox="0.00 0.00 837.00 95.00" xmlns="http://www.w3.org/2000/svg" xmlns:xlink="http://www.w3.org/1999/xlink">
<g id="graph0" class="graph" transform="scale(1 1) rotate(0) translate(4 91)">
<title>lib/Ray/sources/TraceLog.hpp</title>
<polygon fill="white" stroke="transparent" points="-4,4 -4,-91 833,-91 833,4 -4,4"/>
<!-- Node1 -->
<g id="node1" class="node">
<title>Node1</title>
<g id="a_node1"><a xlink:title=" ">
<polygon fill="#bfbfbf" stroke="black" points="369.5,-67.5 369.5,-86.5 527.5,-86.5 527.5,-67.5 369.5,-67.5"/>
<text text-anchor="middle" x="448.5" y="-74.5" font-family="Helvetica,sans-Serif" font-size="10.00">lib/Ray/sources/TraceLog.hpp</text>
</a>
</g>
</g>
<!-- Node2 -->
<g id="node2" class="node">
<title>Node2</title>
<g id="a_node2"><a xlink:href="TraceLog_8cpp.html" target="_top" xlink:title=" ">
<polygon fill="white" stroke="black" points="0,-6 0,-25 157,-25 157,-6 0,-6"/>
<text text-anchor="middle" x="78.5" y="-13" font-family="Helvetica,sans-Serif" font-size="10.00">lib/Ray/sources/TraceLog.cpp</text>
</a>
</g>
</g>
<!-- Node1&#45;&gt;Node2 -->
<g id="edge1" class="edge">
<title>Node1&#45;&gt;Node2</title>
<path fill="none" stroke="midnightblue" d="M384.21,-65.92C326.84,-56.89 240.54,-43.22 165.5,-31 153.86,-29.11 141.36,-27.04 129.55,-25.07"/>
<polygon fill="midnightblue" stroke="midnightblue" points="383.81,-69.4 394.23,-67.49 384.89,-62.48 383.81,-69.4"/>
</g>
<!-- Node3 -->
<g id="node3" class="node">
<title>Node3</title>
<g id="a_node3"><a xlink:href="LobbyScene_8cpp.html" target="_top" xlink:title=" ">
<polygon fill="white" stroke="black" points="175,-6 175,-25 348,-25 348,-6 175,-6"/>
<text text-anchor="middle" x="261.5" y="-13" font-family="Helvetica,sans-Serif" font-size="10.00">sources/Runner/LobbyScene.cpp</text>
</a>
</g>
</g>
<!-- Node1&#45;&gt;Node3 -->
<g id="edge2" class="edge">
<title>Node1&#45;&gt;Node3</title>
<path fill="none" stroke="midnightblue" d="M411.98,-64.38C375.63,-52.82 320.71,-35.34 288.24,-25.01"/>
<polygon fill="midnightblue" stroke="midnightblue" points="411.12,-67.78 421.71,-67.48 413.24,-61.11 411.12,-67.78"/>
</g>
<!-- Node4 -->
<g id="node4" class="node">
<title>Node4</title>
<g id="a_node4"><a xlink:href="ResumeLobbyScene_8cpp.html" target="_top" xlink:title=" ">
<polygon fill="white" stroke="black" points="366.5,-0.5 366.5,-30.5 530.5,-30.5 530.5,-0.5 366.5,-0.5"/>
<text text-anchor="start" x="374.5" y="-18.5" font-family="Helvetica,sans-Serif" font-size="10.00">sources/Runner/ResumeLobby</text>
<text text-anchor="middle" x="448.5" y="-7.5" font-family="Helvetica,sans-Serif" font-size="10.00">Scene.cpp</text>
</a>
</g>
</g>
<!-- Node1&#45;&gt;Node4 -->
<g id="edge3" class="edge">
<title>Node1&#45;&gt;Node4</title>
<path fill="none" stroke="midnightblue" d="M448.5,-57.23C448.5,-48.59 448.5,-38.5 448.5,-30.52"/>
<polygon fill="midnightblue" stroke="midnightblue" points="445,-57.48 448.5,-67.48 452,-57.48 445,-57.48"/>
</g>
<!-- Node5 -->
<g id="node5" class="node">
<title>Node5</title>
<g id="a_node5"><a xlink:href="Runner_8cpp.html" target="_top" xlink:title=" ">
<polygon fill="white" stroke="black" points="549,-6 549,-25 698,-25 698,-6 549,-6"/>
<text text-anchor="middle" x="623.5" y="-13" font-family="Helvetica,sans-Serif" font-size="10.00">sources/Runner/Runner.cpp</text>
</a>
</g>
</g>
<!-- Node1&#45;&gt;Node5 -->
<g id="edge4" class="edge">
<title>Node1&#45;&gt;Node5</title>
<path fill="none" stroke="midnightblue" d="M483.11,-64.23C517.13,-52.67 568.22,-35.3 598.47,-25.01"/>
<polygon fill="midnightblue" stroke="midnightblue" points="481.91,-60.94 473.57,-67.48 484.17,-67.57 481.91,-60.94"/>
</g>
<!-- Node6 -->
<g id="node6" class="node">
<title>Node6</title>
<g id="a_node6"><a xlink:href="CacheTest_8cpp.html" target="_top" xlink:title=" ">
<polygon fill="white" stroke="black" points="716,-6 716,-25 829,-25 829,-6 716,-6"/>
<text text-anchor="middle" x="772.5" y="-13" font-family="Helvetica,sans-Serif" font-size="10.00">tests/CacheTest.cpp</text>
</a>
</g>
</g>
<!-- Node1&#45;&gt;Node6 -->
<g id="edge5" class="edge">
<title>Node1&#45;&gt;Node6</title>
<path fill="none" stroke="midnightblue" d="M512.39,-65.77C564.9,-57.15 641.19,-44.15 707.5,-31 716.69,-29.18 726.57,-27.06 735.78,-25.01"/>
<polygon fill="midnightblue" stroke="midnightblue" points="511.51,-62.36 502.21,-67.43 512.64,-69.27 511.51,-62.36"/>
</g>
</g>
</svg>
