<?xml version="1.0" encoding="UTF-8" standalone="no"?>
<!DOCTYPE svg PUBLIC "-//W3C//DTD SVG 1.1//EN"
 "http://www.w3.org/Graphics/SVG/1.1/DTD/svg11.dtd">
<!-- Generated by graphviz version 2.43.0 (0)
 -->
<!-- Title: sources/Utils/Utils.hpp Pages: 1 -->
<svg width="316pt" height="84pt"
 viewBox="0.00 0.00 315.50 84.00" xmlns="http://www.w3.org/2000/svg" xmlns:xlink="http://www.w3.org/1999/xlink">
<g id="graph0" class="graph" transform="scale(1 1) rotate(0) translate(4 80)">
<title>sources/Utils/Utils.hpp</title>
<polygon fill="white" stroke="transparent" points="-4,4 -4,-80 311.5,-80 311.5,4 -4,4"/>
<!-- Node1 -->
<g id="node1" class="node">
<title>Node1</title>
<g id="a_node1"><a xlink:title=" ">
<polygon fill="#bfbfbf" stroke="black" points="100,-56.5 100,-75.5 226,-75.5 226,-56.5 100,-56.5"/>
<text text-anchor="middle" x="163" y="-63.5" font-family="Helvetica,sans-Serif" font-size="10.00">sources/Utils/Utils.hpp</text>
</a>
</g>
</g>
<!-- Node2 -->
<g id="node2" class="node">
<title>Node2</title>
<g id="a_node2"><a xlink:href="ParserYaml_8cpp.html" target="_top" xlink:title=" ">
<polygon fill="white" stroke="black" points="0,-0.5 0,-19.5 164,-19.5 164,-0.5 0,-0.5"/>
<text text-anchor="middle" x="82" y="-7.5" font-family="Helvetica,sans-Serif" font-size="10.00">sources/Parser/ParserYaml.cpp</text>
</a>
</g>
</g>
<!-- Node1&#45;&gt;Node2 -->
<g id="edge1" class="edge">
<title>Node1&#45;&gt;Node2</title>
<path fill="none" stroke="midnightblue" d="M141.43,-50.62C126.64,-40.76 107.49,-27.99 94.98,-19.65"/>
<polygon fill="midnightblue" stroke="midnightblue" points="139.72,-53.69 149.99,-56.32 143.61,-47.86 139.72,-53.69"/>
</g>
<!-- Node3 -->
<g id="node3" class="node">
<title>Node3</title>
<g id="a_node3"><a xlink:href="Utils_8cpp.html" target="_top" xlink:title=" ">
<polygon fill="white" stroke="black" points="182.5,-0.5 182.5,-19.5 307.5,-19.5 307.5,-0.5 182.5,-0.5"/>
<text text-anchor="middle" x="245" y="-7.5" font-family="Helvetica,sans-Serif" font-size="10.00">sources/Utils/Utils.cpp</text>
</a>
</g>
</g>
<!-- Node1&#45;&gt;Node3 -->
<g id="edge2" class="edge">
<title>Node1&#45;&gt;Node3</title>
<path fill="none" stroke="midnightblue" d="M184.83,-50.62C199.81,-40.76 219.2,-27.99 231.86,-19.65"/>
<polygon fill="midnightblue" stroke="midnightblue" points="182.6,-47.9 176.17,-56.32 186.45,-53.75 182.6,-47.9"/>
</g>
</g>
</svg>
