<?xml version="1.0" encoding="UTF-8" standalone="no"?>
<!DOCTYPE svg PUBLIC "-//W3C//DTD SVG 1.1//EN"
 "http://www.w3.org/Graphics/SVG/1.1/DTD/svg11.dtd">
<!-- Generated by graphviz version 2.43.0 (0)
 -->
<!-- Title: tests/ViewTest.cpp Pages: 1 -->
<svg width="1429pt" height="375pt"
 viewBox="0.00 0.00 1428.50 375.00" xmlns="http://www.w3.org/2000/svg" xmlns:xlink="http://www.w3.org/1999/xlink">
<g id="graph0" class="graph" transform="scale(1 1) rotate(0) translate(4 371)">
<title>tests/ViewTest.cpp</title>
<polygon fill="white" stroke="transparent" points="-4,4 -4,-371 1424.5,-371 1424.5,4 -4,4"/>
<!-- Node1 -->
<g id="node1" class="node">
<title>Node1</title>
<g id="a_node1"><a xlink:title=" ">
<polygon fill="#bfbfbf" stroke="black" points="629.5,-347.5 629.5,-366.5 736.5,-366.5 736.5,-347.5 629.5,-347.5"/>
<text text-anchor="middle" x="683" y="-354.5" font-family="Helvetica,sans-Serif" font-size="10.00">tests/ViewTest.cpp</text>
</a>
</g>
</g>
<!-- Node2 -->
<g id="node2" class="node">
<title>Node2</title>
<g id="a_node2"><a xlink:href="Entity_8hpp.html" target="_top" xlink:title=" ">
<polygon fill="white" stroke="black" points="708,-112.5 708,-131.5 804,-131.5 804,-112.5 708,-112.5"/>
<text text-anchor="middle" x="756" y="-119.5" font-family="Helvetica,sans-Serif" font-size="10.00">Entity/Entity.hpp</text>
</a>
</g>
</g>
<!-- Node1&#45;&gt;Node2 -->
<g id="edge1" class="edge">
<title>Node1&#45;&gt;Node2</title>
<path fill="none" stroke="midnightblue" d="M683.32,-347.44C684.32,-326.07 688.27,-268.93 703,-224 713.19,-192.93 732.28,-159.93 744.55,-140.41"/>
<polygon fill="midnightblue" stroke="midnightblue" points="747.66,-142.05 750.11,-131.74 741.77,-138.27 747.66,-142.05"/>
</g>
<!-- Node14 -->
<g id="node14" class="node">
<title>Node14</title>
<g id="a_node14"><a xlink:href="PositionComponent_8hpp.html" target="_top" xlink:title=" ">
<polygon fill="white" stroke="black" points="269,-224.5 269,-254.5 405,-254.5 405,-224.5 269,-224.5"/>
<text text-anchor="start" x="277" y="-242.5" font-family="Helvetica,sans-Serif" font-size="10.00">Component/Position</text>
<text text-anchor="middle" x="337" y="-231.5" font-family="Helvetica,sans-Serif" font-size="10.00">/PositionComponent.hpp</text>
</a>
</g>
</g>
<!-- Node1&#45;&gt;Node14 -->
<g id="edge15" class="edge">
<title>Node1&#45;&gt;Node14</title>
<path fill="none" stroke="midnightblue" d="M657.28,-347.41C600.62,-328.5 464.14,-282.94 388.91,-257.83"/>
<polygon fill="midnightblue" stroke="midnightblue" points="389.76,-254.42 379.17,-254.58 387.54,-261.06 389.76,-254.42"/>
</g>
<!-- Node20 -->
<g id="node20" class="node">
<title>Node20</title>
<g id="a_node20"><a xlink:title=" ">
<polygon fill="white" stroke="#bfbfbf" points="903.5,-291.5 903.5,-310.5 1002.5,-310.5 1002.5,-291.5 903.5,-291.5"/>
<text text-anchor="middle" x="953" y="-298.5" font-family="Helvetica,sans-Serif" font-size="10.00">catch2/catch.hpp</text>
</a>
</g>
</g>
<!-- Node1&#45;&gt;Node20 -->
<g id="edge22" class="edge">
<title>Node1&#45;&gt;Node20</title>
<path fill="none" stroke="midnightblue" d="M725.78,-347.44C773.18,-337.96 849.63,-322.67 900.58,-312.48"/>
<polygon fill="midnightblue" stroke="midnightblue" points="901.3,-315.91 910.42,-310.52 899.93,-309.05 901.3,-315.91"/>
</g>
<!-- Node21 -->
<g id="node21" class="node">
<title>Node21</title>
<g id="a_node21"><a xlink:href="Wal_8hpp.html" target="_top" xlink:title=" ">
<polygon fill="white" stroke="black" points="829,-291.5 829,-310.5 885,-310.5 885,-291.5 829,-291.5"/>
<text text-anchor="middle" x="857" y="-298.5" font-family="Helvetica,sans-Serif" font-size="10.00">Wal.hpp</text>
</a>
</g>
</g>
<!-- Node1&#45;&gt;Node21 -->
<g id="edge23" class="edge">
<title>Node1&#45;&gt;Node21</title>
<path fill="none" stroke="midnightblue" d="M710.57,-347.44C740.1,-338.28 787.12,-323.69 819.88,-313.52"/>
<polygon fill="midnightblue" stroke="midnightblue" points="821.04,-316.82 829.56,-310.52 818.97,-310.14 821.04,-316.82"/>
</g>
<!-- Node32 -->
<g id="node32" class="node">
<title>Node32</title>
<g id="a_node32"><a xlink:href="ControllableComponent_8hpp.html" target="_top" xlink:title=" ">
<polygon fill="white" stroke="black" points="461,-224.5 461,-254.5 617,-254.5 617,-224.5 461,-224.5"/>
<text text-anchor="start" x="469" y="-242.5" font-family="Helvetica,sans-Serif" font-size="10.00">Component/Controllable</text>
<text text-anchor="middle" x="539" y="-231.5" font-family="Helvetica,sans-Serif" font-size="10.00">/ControllableComponent.hpp</text>
</a>
</g>
</g>
<!-- Node1&#45;&gt;Node32 -->
<g id="edge51" class="edge">
<title>Node1&#45;&gt;Node32</title>
<path fill="none" stroke="midnightblue" d="M672.18,-347.32C649.48,-329.11 596.38,-286.52 564.51,-260.96"/>
<polygon fill="midnightblue" stroke="midnightblue" points="566.5,-258.07 556.51,-254.55 562.12,-263.53 566.5,-258.07"/>
</g>
<!-- Node3 -->
<g id="node3" class="node">
<title>Node3</title>
<g id="a_node3"><a xlink:title=" ">
<polygon fill="white" stroke="#bfbfbf" points="1074,-0.5 1074,-19.5 1118,-19.5 1118,-0.5 1074,-0.5"/>
<text text-anchor="middle" x="1096" y="-7.5" font-family="Helvetica,sans-Serif" font-size="10.00">string</text>
</a>
</g>
</g>
<!-- Node2&#45;&gt;Node3 -->
<g id="edge2" class="edge">
<title>Node2&#45;&gt;Node3</title>
<path fill="none" stroke="midnightblue" d="M776.51,-112.44C797.24,-103.68 830.11,-89.47 858,-76 875.19,-67.7 878.09,-62.6 896,-56 953.33,-34.88 1023.7,-21.85 1063.85,-15.56"/>
<polygon fill="midnightblue" stroke="midnightblue" points="1064.5,-19 1073.85,-14.03 1063.44,-12.08 1064.5,-19"/>
</g>
<!-- Node4 -->
<g id="node4" class="node">
<title>Node4</title>
<g id="a_node4"><a xlink:title=" ">
<polygon fill="white" stroke="#bfbfbf" points="981.5,-56.5 981.5,-75.5 1074.5,-75.5 1074.5,-56.5 981.5,-56.5"/>
<text text-anchor="middle" x="1028" y="-63.5" font-family="Helvetica,sans-Serif" font-size="10.00">unordered_map</text>
</a>
</g>
</g>
<!-- Node2&#45;&gt;Node4 -->
<g id="edge3" class="edge">
<title>Node2&#45;&gt;Node4</title>
<path fill="none" stroke="midnightblue" d="M799.1,-112.44C846.85,-102.96 923.86,-87.67 975.19,-77.48"/>
<polygon fill="midnightblue" stroke="midnightblue" points="975.98,-80.9 985.1,-75.52 974.61,-74.03 975.98,-80.9"/>
</g>
<!-- Node5 -->
<g id="node5" class="node">
<title>Node5</title>
<g id="a_node5"><a xlink:title=" ">
<polygon fill="white" stroke="#bfbfbf" points="643.5,-56.5 643.5,-75.5 700.5,-75.5 700.5,-56.5 643.5,-56.5"/>
<text text-anchor="middle" x="672" y="-63.5" font-family="Helvetica,sans-Serif" font-size="10.00">typeinfo</text>
</a>
</g>
</g>
<!-- Node2&#45;&gt;Node5 -->
<g id="edge4" class="edge">
<title>Node2&#45;&gt;Node5</title>
<path fill="none" stroke="midnightblue" d="M742.5,-112.32C729.4,-103.9 709.29,-90.97 693.89,-81.07"/>
<polygon fill="midnightblue" stroke="midnightblue" points="695.77,-78.12 685.46,-75.65 691.98,-84.01 695.77,-78.12"/>
</g>
<!-- Node6 -->
<g id="node6" class="node">
<title>Node6</title>
<g id="a_node6"><a xlink:title=" ">
<polygon fill="white" stroke="#bfbfbf" points="905,-56.5 905,-75.5 963,-75.5 963,-56.5 905,-56.5"/>
<text text-anchor="middle" x="934" y="-63.5" font-family="Helvetica,sans-Serif" font-size="10.00">memory</text>
</a>
</g>
</g>
<!-- Node2&#45;&gt;Node6 -->
<g id="edge5" class="edge">
<title>Node2&#45;&gt;Node6</title>
<path fill="none" stroke="midnightblue" d="M784.2,-112.44C814.41,-103.28 862.51,-88.69 896.03,-78.52"/>
<polygon fill="midnightblue" stroke="midnightblue" points="897.37,-81.77 905.93,-75.52 895.34,-75.07 897.37,-81.77"/>
</g>
<!-- Node7 -->
<g id="node7" class="node">
<title>Node7</title>
<g id="a_node7"><a xlink:href="Component_8hpp.html" target="_top" xlink:title=" ">
<polygon fill="white" stroke="black" points="472.5,-56.5 472.5,-75.5 625.5,-75.5 625.5,-56.5 472.5,-56.5"/>
<text text-anchor="middle" x="549" y="-63.5" font-family="Helvetica,sans-Serif" font-size="10.00">Component/Component.hpp</text>
</a>
</g>
</g>
<!-- Node2&#45;&gt;Node7 -->
<g id="edge6" class="edge">
<title>Node2&#45;&gt;Node7</title>
<path fill="none" stroke="midnightblue" d="M723.2,-112.44C687.62,-103.16 630.69,-88.31 591.65,-78.13"/>
<polygon fill="midnightblue" stroke="midnightblue" points="592.21,-74.65 581.65,-75.52 590.44,-81.43 592.21,-74.65"/>
</g>
<!-- Node10 -->
<g id="node10" class="node">
<title>Node10</title>
<g id="a_node10"><a xlink:href="WalError_8hpp.html" target="_top" xlink:title=" ">
<polygon fill="white" stroke="black" points="1282.5,-56.5 1282.5,-75.5 1411.5,-75.5 1411.5,-56.5 1282.5,-56.5"/>
<text text-anchor="middle" x="1347" y="-63.5" font-family="Helvetica,sans-Serif" font-size="10.00">Exception/WalError.hpp</text>
</a>
</g>
</g>
<!-- Node2&#45;&gt;Node10 -->
<g id="edge10" class="edge">
<title>Node2&#45;&gt;Node10</title>
<path fill="none" stroke="midnightblue" d="M804.33,-116.38C819.29,-114.97 835.82,-113.41 851,-112 1000.47,-98.14 1175.32,-82.38 1272.38,-73.68"/>
<polygon fill="midnightblue" stroke="midnightblue" points="1272.74,-77.16 1282.39,-72.78 1272.12,-70.19 1272.74,-77.16"/>
</g>
<!-- Node13 -->
<g id="node13" class="node">
<title>Node13</title>
<g id="a_node13"><a xlink:href="TypeHolder_8hpp.html" target="_top" xlink:title=" ">
<polygon fill="white" stroke="black" points="719,-56.5 719,-75.5 849,-75.5 849,-56.5 719,-56.5"/>
<text text-anchor="middle" x="784" y="-63.5" font-family="Helvetica,sans-Serif" font-size="10.00">Models/TypeHolder.hpp</text>
</a>
</g>
</g>
<!-- Node2&#45;&gt;Node13 -->
<g id="edge14" class="edge">
<title>Node2&#45;&gt;Node13</title>
<path fill="none" stroke="midnightblue" d="M760.62,-112.08C764.46,-104.69 770.02,-93.95 774.76,-84.81"/>
<polygon fill="midnightblue" stroke="midnightblue" points="777.97,-86.24 779.46,-75.75 771.75,-83.02 777.97,-86.24"/>
</g>
<!-- Node7&#45;&gt;Node3 -->
<g id="edge8" class="edge">
<title>Node7&#45;&gt;Node3</title>
<path fill="none" stroke="midnightblue" d="M625.89,-56.93C628.97,-56.61 632.01,-56.3 635,-56 795.9,-39.73 988.5,-21.25 1063.7,-14.08"/>
<polygon fill="midnightblue" stroke="midnightblue" points="1064.3,-17.53 1073.92,-13.1 1063.64,-10.57 1064.3,-17.53"/>
</g>
<!-- Node8 -->
<g id="node8" class="node">
<title>Node8</title>
<g id="a_node8"><a xlink:title=" ">
<polygon fill="white" stroke="#bfbfbf" points="420.5,-0.5 420.5,-19.5 467.5,-19.5 467.5,-0.5 420.5,-0.5"/>
<text text-anchor="middle" x="444" y="-7.5" font-family="Helvetica,sans-Serif" font-size="10.00">vector</text>
</a>
</g>
</g>
<!-- Node7&#45;&gt;Node8 -->
<g id="edge7" class="edge">
<title>Node7&#45;&gt;Node8</title>
<path fill="none" stroke="midnightblue" d="M532.13,-56.32C515.29,-47.66 489.19,-34.24 469.76,-24.25"/>
<polygon fill="midnightblue" stroke="midnightblue" points="471.32,-21.12 460.83,-19.65 468.12,-27.34 471.32,-21.12"/>
</g>
<!-- Node9 -->
<g id="node9" class="node">
<title>Node9</title>
<g id="a_node9"><a xlink:title=" ">
<polygon fill="white" stroke="#bfbfbf" points="717.5,-0.5 717.5,-19.5 782.5,-19.5 782.5,-0.5 717.5,-0.5"/>
<text text-anchor="middle" x="750" y="-7.5" font-family="Helvetica,sans-Serif" font-size="10.00">typeindex</text>
</a>
</g>
</g>
<!-- Node7&#45;&gt;Node9 -->
<g id="edge9" class="edge">
<title>Node7&#45;&gt;Node9</title>
<path fill="none" stroke="midnightblue" d="M580.85,-56.44C615.4,-47.16 670.68,-32.31 708.58,-22.13"/>
<polygon fill="midnightblue" stroke="midnightblue" points="709.55,-25.49 718.3,-19.52 707.73,-18.73 709.55,-25.49"/>
</g>
<!-- Node10&#45;&gt;Node3 -->
<g id="edge13" class="edge">
<title>Node10&#45;&gt;Node3</title>
<path fill="none" stroke="midnightblue" d="M1307.23,-56.44C1257.6,-45.77 1173.71,-27.72 1128.01,-17.89"/>
<polygon fill="midnightblue" stroke="midnightblue" points="1128.57,-14.43 1118.06,-15.75 1127.1,-21.27 1128.57,-14.43"/>
</g>
<!-- Node11 -->
<g id="node11" class="node">
<title>Node11</title>
<g id="a_node11"><a xlink:title=" ">
<polygon fill="white" stroke="#bfbfbf" points="1272.5,-0.5 1272.5,-19.5 1337.5,-19.5 1337.5,-0.5 1272.5,-0.5"/>
<text text-anchor="middle" x="1305" y="-7.5" font-family="Helvetica,sans-Serif" font-size="10.00">exception</text>
</a>
</g>
</g>
<!-- Node10&#45;&gt;Node11 -->
<g id="edge11" class="edge">
<title>Node10&#45;&gt;Node11</title>
<path fill="none" stroke="midnightblue" d="M1340.06,-56.08C1334.07,-48.38 1325.25,-37.03 1317.95,-27.65"/>
<polygon fill="midnightblue" stroke="midnightblue" points="1320.71,-25.5 1311.81,-19.75 1315.18,-29.79 1320.71,-25.5"/>
</g>
<!-- Node12 -->
<g id="node12" class="node">
<title>Node12</title>
<g id="a_node12"><a xlink:title=" ">
<polygon fill="white" stroke="#bfbfbf" points="1355.5,-0.5 1355.5,-19.5 1420.5,-19.5 1420.5,-0.5 1355.5,-0.5"/>
<text text-anchor="middle" x="1388" y="-7.5" font-family="Helvetica,sans-Serif" font-size="10.00">stdexcept</text>
</a>
</g>
</g>
<!-- Node10&#45;&gt;Node12 -->
<g id="edge12" class="edge">
<title>Node10&#45;&gt;Node12</title>
<path fill="none" stroke="midnightblue" d="M1353.77,-56.08C1359.56,-48.46 1368.06,-37.26 1375.14,-27.94"/>
<polygon fill="midnightblue" stroke="midnightblue" points="1378.1,-29.83 1381.36,-19.75 1372.52,-25.6 1378.1,-29.83"/>
</g>
<!-- Node14&#45;&gt;Node7 -->
<g id="edge21" class="edge">
<title>Node14&#45;&gt;Node7</title>
<path fill="none" stroke="midnightblue" d="M354.35,-224.47C393.78,-192.57 489.85,-114.85 530.43,-82.02"/>
<polygon fill="midnightblue" stroke="midnightblue" points="532.85,-84.57 538.42,-75.56 528.44,-79.13 532.85,-84.57"/>
</g>
<!-- Node15 -->
<g id="node15" class="node">
<title>Node15</title>
<g id="a_node15"><a xlink:href="sources_2Models_2Vector3_8hpp.html" target="_top" xlink:title=" ">
<polygon fill="white" stroke="black" points="110.5,-168.5 110.5,-187.5 223.5,-187.5 223.5,-168.5 110.5,-168.5"/>
<text text-anchor="middle" x="167" y="-175.5" font-family="Helvetica,sans-Serif" font-size="10.00">Models/Vector3.hpp</text>
</a>
</g>
</g>
<!-- Node14&#45;&gt;Node15 -->
<g id="edge16" class="edge">
<title>Node14&#45;&gt;Node15</title>
<path fill="none" stroke="midnightblue" d="M296.71,-224.4C267.68,-214.24 228.92,-200.67 201.35,-191.02"/>
<polygon fill="midnightblue" stroke="midnightblue" points="202.33,-187.66 191.74,-187.66 200.02,-194.26 202.33,-187.66"/>
</g>
<!-- Node16 -->
<g id="node16" class="node">
<title>Node16</title>
<g id="a_node16"><a xlink:title=" ">
<polygon fill="white" stroke="#bfbfbf" points="126,-112.5 126,-131.5 186,-131.5 186,-112.5 126,-112.5"/>
<text text-anchor="middle" x="156" y="-119.5" font-family="Helvetica,sans-Serif" font-size="10.00">iostream</text>
</a>
</g>
</g>
<!-- Node15&#45;&gt;Node16 -->
<g id="edge17" class="edge">
<title>Node15&#45;&gt;Node16</title>
<path fill="none" stroke="midnightblue" d="M165.18,-168.08C163.73,-160.93 161.63,-150.64 159.81,-141.69"/>
<polygon fill="midnightblue" stroke="midnightblue" points="163.21,-140.85 157.78,-131.75 156.35,-142.25 163.21,-140.85"/>
</g>
<!-- Node17 -->
<g id="node17" class="node">
<title>Node17</title>
<g id="a_node17"><a xlink:title=" ">
<polygon fill="white" stroke="#bfbfbf" points="204.5,-112.5 204.5,-131.5 251.5,-131.5 251.5,-112.5 204.5,-112.5"/>
<text text-anchor="middle" x="228" y="-119.5" font-family="Helvetica,sans-Serif" font-size="10.00">cmath</text>
</a>
</g>
</g>
<!-- Node15&#45;&gt;Node17 -->
<g id="edge18" class="edge">
<title>Node15&#45;&gt;Node17</title>
<path fill="none" stroke="midnightblue" d="M176.8,-168.32C185.82,-160.34 199.41,-148.31 210.32,-138.65"/>
<polygon fill="midnightblue" stroke="midnightblue" points="212.85,-141.08 218.02,-131.83 208.21,-135.84 212.85,-141.08"/>
</g>
<!-- Node18 -->
<g id="node18" class="node">
<title>Node18</title>
<g id="a_node18"><a xlink:href="lib_2Ray_2sources_2Vector_2Vector3_8hpp.html" target="_top" xlink:title=" ">
<polygon fill="white" stroke="black" points="0,-112.5 0,-131.5 108,-131.5 108,-112.5 0,-112.5"/>
<text text-anchor="middle" x="54" y="-119.5" font-family="Helvetica,sans-Serif" font-size="10.00">Vector/Vector3.hpp</text>
</a>
</g>
</g>
<!-- Node15&#45;&gt;Node18 -->
<g id="edge19" class="edge">
<title>Node15&#45;&gt;Node18</title>
<path fill="none" stroke="midnightblue" d="M149.09,-168.44C130.75,-159.68 101.99,-145.94 80.91,-135.86"/>
<polygon fill="midnightblue" stroke="midnightblue" points="82.35,-132.67 71.82,-131.52 79.33,-138.99 82.35,-132.67"/>
</g>
<!-- Node19 -->
<g id="node19" class="node">
<title>Node19</title>
<g id="a_node19"><a xlink:title=" ">
<polygon fill="white" stroke="#bfbfbf" points="162.5,-56.5 162.5,-75.5 215.5,-75.5 215.5,-56.5 162.5,-56.5"/>
<text text-anchor="middle" x="189" y="-63.5" font-family="Helvetica,sans-Serif" font-size="10.00">raylib.h</text>
</a>
</g>
</g>
<!-- Node18&#45;&gt;Node19 -->
<g id="edge20" class="edge">
<title>Node18&#45;&gt;Node19</title>
<path fill="none" stroke="midnightblue" d="M75.39,-112.44C97.71,-103.52 132.9,-89.44 158.21,-79.32"/>
<polygon fill="midnightblue" stroke="midnightblue" points="159.72,-82.48 167.71,-75.52 157.12,-75.98 159.72,-82.48"/>
</g>
<!-- Node21&#45;&gt;Node3 -->
<g id="edge26" class="edge">
<title>Node21&#45;&gt;Node3</title>
<path fill="none" stroke="midnightblue" d="M885.17,-293.07C888.47,-292.34 891.81,-291.63 895,-291 1051.6,-260.25 1137.26,-310.96 1239,-188 1261.27,-161.09 1275.99,-142.52 1259,-112 1231.13,-61.94 1167.05,-33.54 1128.05,-20.3"/>
<polygon fill="midnightblue" stroke="midnightblue" points="1128.84,-16.87 1118.24,-17.11 1126.67,-23.53 1128.84,-16.87"/>
</g>
<!-- Node21&#45;&gt;Node5 -->
<g id="edge28" class="edge">
<title>Node21&#45;&gt;Node5</title>
<path fill="none" stroke="midnightblue" d="M828.88,-296.67C796.39,-291.76 742.38,-280.28 703,-255 669.86,-233.72 658.76,-224.91 645,-188 631.78,-152.53 649.47,-108.69 661.84,-84.72"/>
<polygon fill="midnightblue" stroke="midnightblue" points="665.01,-86.2 666.7,-75.74 658.86,-82.86 665.01,-86.2"/>
</g>
<!-- Node21&#45;&gt;Node6 -->
<g id="edge27" class="edge">
<title>Node21&#45;&gt;Node6</title>
<path fill="none" stroke="midnightblue" d="M855.51,-291.28C850.1,-258.46 832.71,-142.72 851,-112 860.67,-95.75 878.48,-85.01 895.13,-78.11"/>
<polygon fill="midnightblue" stroke="midnightblue" points="896.61,-81.29 904.73,-74.48 894.14,-74.74 896.61,-81.29"/>
</g>
<!-- Node21&#45;&gt;Node8 -->
<g id="edge25" class="edge">
<title>Node21&#45;&gt;Node8</title>
<path fill="none" stroke="midnightblue" d="M828.72,-298.96C740.97,-295.44 477.58,-282.65 452,-255 393.24,-191.48 423.12,-74.08 437.62,-29.15"/>
<polygon fill="midnightblue" stroke="midnightblue" points="440.97,-30.17 440.84,-19.58 434.34,-27.94 440.97,-30.17"/>
</g>
<!-- Node21&#45;&gt;Node10 -->
<g id="edge29" class="edge">
<title>Node21&#45;&gt;Node10</title>
<path fill="none" stroke="midnightblue" d="M885.13,-292.87C888.44,-292.17 891.79,-291.52 895,-291 982.43,-276.76 1223.58,-311.27 1292,-255 1343.41,-212.71 1348.36,-125.17 1347.84,-86.31"/>
<polygon fill="midnightblue" stroke="midnightblue" points="1351.33,-85.82 1347.55,-75.92 1344.33,-86.01 1351.33,-85.82"/>
</g>
<!-- Node22 -->
<g id="node22" class="node">
<title>Node22</title>
<g id="a_node22"><a xlink:title=" ">
<polygon fill="white" stroke="#bfbfbf" points="1204.5,-112.5 1204.5,-131.5 1249.5,-131.5 1249.5,-112.5 1204.5,-112.5"/>
<text text-anchor="middle" x="1227" y="-119.5" font-family="Helvetica,sans-Serif" font-size="10.00">utility</text>
</a>
</g>
</g>
<!-- Node21&#45;&gt;Node22 -->
<g id="edge24" class="edge">
<title>Node21&#45;&gt;Node22</title>
<path fill="none" stroke="midnightblue" d="M885.16,-293.3C932.93,-281.92 1026.15,-259.56 1041,-255 1122.6,-229.93 1169.12,-255.79 1221,-188 1231,-174.93 1231.59,-155.78 1230.22,-141.65"/>
<polygon fill="midnightblue" stroke="midnightblue" points="1233.67,-141.04 1228.85,-131.6 1226.74,-141.98 1233.67,-141.04"/>
</g>
<!-- Node23 -->
<g id="node23" class="node">
<title>Node23</title>
<g id="a_node23"><a xlink:href="ISystem_8hpp.html" target="_top" xlink:title=" ">
<polygon fill="white" stroke="black" points="711.5,-230 711.5,-249 828.5,-249 828.5,-230 711.5,-230"/>
<text text-anchor="middle" x="770" y="-237" font-family="Helvetica,sans-Serif" font-size="10.00">System/ISystem.hpp</text>
</a>
</g>
</g>
<!-- Node21&#45;&gt;Node23 -->
<g id="edge30" class="edge">
<title>Node21&#45;&gt;Node23</title>
<path fill="none" stroke="midnightblue" d="M844.54,-291.48C830.58,-281.93 807.74,-266.31 791.01,-254.87"/>
<polygon fill="midnightblue" stroke="midnightblue" points="792.67,-251.77 782.44,-249.01 788.72,-257.54 792.67,-251.77"/>
</g>
<!-- Node30 -->
<g id="node30" class="node">
<title>Node30</title>
<g id="a_node30"><a xlink:href="Callback_8hpp.html" target="_top" xlink:title=" ">
<polygon fill="white" stroke="black" points="1094,-168.5 1094,-187.5 1212,-187.5 1212,-168.5 1094,-168.5"/>
<text text-anchor="middle" x="1153" y="-175.5" font-family="Helvetica,sans-Serif" font-size="10.00">Models/Callback.hpp</text>
</a>
</g>
</g>
<!-- Node21&#45;&gt;Node30 -->
<g id="edge41" class="edge">
<title>Node21&#45;&gt;Node30</title>
<path fill="none" stroke="midnightblue" d="M885.19,-291.9C913.16,-283.59 957.06,-269.82 994,-255 1042.17,-235.67 1096.32,-208.59 1127.37,-192.51"/>
<polygon fill="midnightblue" stroke="midnightblue" points="1129.35,-195.43 1136.6,-187.7 1126.12,-189.22 1129.35,-195.43"/>
</g>
<!-- Node31 -->
<g id="node31" class="node">
<title>Node31</title>
<g id="a_node31"><a xlink:href="Scene_8hpp.html" target="_top" xlink:title=" ">
<polygon fill="white" stroke="black" points="885.5,-230 885.5,-249 984.5,-249 984.5,-230 885.5,-230"/>
<text text-anchor="middle" x="935" y="-237" font-family="Helvetica,sans-Serif" font-size="10.00">Scene/Scene.hpp</text>
</a>
</g>
</g>
<!-- Node21&#45;&gt;Node31 -->
<g id="edge45" class="edge">
<title>Node21&#45;&gt;Node31</title>
<path fill="none" stroke="midnightblue" d="M868.18,-291.48C880.57,-282.02 900.79,-266.6 915.75,-255.19"/>
<polygon fill="midnightblue" stroke="midnightblue" points="918.02,-257.86 923.85,-249.01 913.77,-252.29 918.02,-257.86"/>
</g>
<!-- Node23&#45;&gt;Node2 -->
<g id="edge31" class="edge">
<title>Node23&#45;&gt;Node2</title>
<path fill="none" stroke="midnightblue" d="M768.95,-229.82C766.7,-211.26 761.37,-167.34 758.3,-141.97"/>
<polygon fill="midnightblue" stroke="midnightblue" points="761.74,-141.29 757.06,-131.78 754.79,-142.13 761.74,-141.29"/>
</g>
<!-- Node24 -->
<g id="node24" class="node">
<title>Node24</title>
<g id="a_node24"><a xlink:href="View_8hpp.html" target="_top" xlink:title=" ">
<polygon fill="white" stroke="black" points="950,-168.5 950,-187.5 1038,-187.5 1038,-168.5 950,-168.5"/>
<text text-anchor="middle" x="994" y="-175.5" font-family="Helvetica,sans-Serif" font-size="10.00">View/View.hpp</text>
</a>
</g>
</g>
<!-- Node23&#45;&gt;Node24 -->
<g id="edge32" class="edge">
<title>Node23&#45;&gt;Node24</title>
<path fill="none" stroke="midnightblue" d="M802.09,-229.98C841.6,-219.48 908.78,-201.64 952.26,-190.09"/>
<polygon fill="midnightblue" stroke="midnightblue" points="953.2,-193.46 961.97,-187.51 951.4,-186.69 953.2,-193.46"/>
</g>
<!-- Node29 -->
<g id="node29" class="node">
<title>Node29</title>
<g id="a_node29"><a xlink:title=" ">
<polygon fill="white" stroke="#bfbfbf" points="654,-168.5 654,-187.5 704,-187.5 704,-168.5 654,-168.5"/>
<text text-anchor="middle" x="679" y="-175.5" font-family="Helvetica,sans-Serif" font-size="10.00">chrono</text>
</a>
</g>
</g>
<!-- Node23&#45;&gt;Node29 -->
<g id="edge40" class="edge">
<title>Node23&#45;&gt;Node29</title>
<path fill="none" stroke="midnightblue" d="M756.96,-229.98C742.23,-220.34 718.03,-204.52 700.49,-193.05"/>
<polygon fill="midnightblue" stroke="midnightblue" points="702.3,-190.05 692.01,-187.51 698.47,-195.91 702.3,-190.05"/>
</g>
<!-- Node24&#45;&gt;Node2 -->
<g id="edge39" class="edge">
<title>Node24&#45;&gt;Node2</title>
<path fill="none" stroke="midnightblue" d="M956.29,-168.44C914.86,-159.04 848.24,-143.93 803.33,-133.74"/>
<polygon fill="midnightblue" stroke="midnightblue" points="804.06,-130.32 793.54,-131.52 802.51,-137.14 804.06,-130.32"/>
</g>
<!-- Node24&#45;&gt;Node9 -->
<g id="edge35" class="edge">
<title>Node24&#45;&gt;Node9</title>
<path fill="none" stroke="midnightblue" d="M1003.81,-168.34C1030.63,-144.21 1102.01,-76.6 1084,-56 1046.68,-13.32 874.45,-9.47 792.96,-10.12"/>
<polygon fill="midnightblue" stroke="midnightblue" points="792.52,-6.62 782.56,-10.23 792.59,-13.62 792.52,-6.62"/>
</g>
<!-- Node24&#45;&gt;Node22 -->
<g id="edge37" class="edge">
<title>Node24&#45;&gt;Node22</title>
<path fill="none" stroke="midnightblue" d="M1030.92,-168.44C1075.97,-158 1151.42,-140.52 1194.41,-130.55"/>
<polygon fill="midnightblue" stroke="midnightblue" points="1195.39,-133.92 1204.34,-128.25 1193.81,-127.1 1195.39,-133.92"/>
</g>
<!-- Node25 -->
<g id="node25" class="node">
<title>Node25</title>
<g id="a_node25"><a xlink:title=" ">
<polygon fill="white" stroke="#bfbfbf" points="860,-112.5 860,-131.5 892,-131.5 892,-112.5 860,-112.5"/>
<text text-anchor="middle" x="876" y="-119.5" font-family="Helvetica,sans-Serif" font-size="10.00">list</text>
</a>
</g>
</g>
<!-- Node24&#45;&gt;Node25 -->
<g id="edge33" class="edge">
<title>Node24&#45;&gt;Node25</title>
<path fill="none" stroke="midnightblue" d="M975.3,-168.44C955.38,-159.32 923.7,-144.83 901.5,-134.67"/>
<polygon fill="midnightblue" stroke="midnightblue" points="902.88,-131.45 892.33,-130.47 899.97,-137.82 902.88,-131.45"/>
</g>
<!-- Node26 -->
<g id="node26" class="node">
<title>Node26</title>
<g id="a_node26"><a xlink:title=" ">
<polygon fill="white" stroke="#bfbfbf" points="910.5,-112.5 910.5,-131.5 951.5,-131.5 951.5,-112.5 910.5,-112.5"/>
<text text-anchor="middle" x="931" y="-119.5" font-family="Helvetica,sans-Serif" font-size="10.00">tuple</text>
</a>
</g>
</g>
<!-- Node24&#45;&gt;Node26 -->
<g id="edge34" class="edge">
<title>Node24&#45;&gt;Node26</title>
<path fill="none" stroke="midnightblue" d="M983.88,-168.32C974.47,-160.26 960.26,-148.08 948.93,-138.37"/>
<polygon fill="midnightblue" stroke="midnightblue" points="951.18,-135.68 941.31,-131.83 946.62,-141 951.18,-135.68"/>
</g>
<!-- Node27 -->
<g id="node27" class="node">
<title>Node27</title>
<g id="a_node27"><a xlink:title=" ">
<polygon fill="white" stroke="#bfbfbf" points="1082.5,-112.5 1082.5,-131.5 1147.5,-131.5 1147.5,-112.5 1082.5,-112.5"/>
<text text-anchor="middle" x="1115" y="-119.5" font-family="Helvetica,sans-Serif" font-size="10.00">functional</text>
</a>
</g>
</g>
<!-- Node24&#45;&gt;Node27 -->
<g id="edge36" class="edge">
<title>Node24&#45;&gt;Node27</title>
<path fill="none" stroke="midnightblue" d="M1013.17,-168.44C1032.91,-159.64 1063.89,-145.81 1086.49,-135.72"/>
<polygon fill="midnightblue" stroke="midnightblue" points="1088.21,-138.79 1095.92,-131.52 1085.36,-132.4 1088.21,-138.79"/>
</g>
<!-- Node28 -->
<g id="node28" class="node">
<title>Node28</title>
<g id="a_node28"><a xlink:title=" ">
<polygon fill="white" stroke="#bfbfbf" points="970,-112.5 970,-131.5 1026,-131.5 1026,-112.5 970,-112.5"/>
<text text-anchor="middle" x="998" y="-119.5" font-family="Helvetica,sans-Serif" font-size="10.00">optional</text>
</a>
</g>
</g>
<!-- Node24&#45;&gt;Node28 -->
<g id="edge38" class="edge">
<title>Node24&#45;&gt;Node28</title>
<path fill="none" stroke="midnightblue" d="M994.66,-168.08C995.18,-161.01 995.94,-150.86 996.59,-141.99"/>
<polygon fill="midnightblue" stroke="midnightblue" points="1000.1,-141.98 997.35,-131.75 993.12,-141.47 1000.1,-141.98"/>
</g>
<!-- Node30&#45;&gt;Node4 -->
<g id="edge44" class="edge">
<title>Node30&#45;&gt;Node4</title>
<path fill="none" stroke="midnightblue" d="M1156.63,-168.49C1161.71,-155.12 1169.05,-128.96 1157,-112 1140.56,-88.85 1111.29,-77.51 1084.78,-72"/>
<polygon fill="midnightblue" stroke="midnightblue" points="1085.26,-68.53 1074.79,-70.16 1083.99,-75.41 1085.26,-68.53"/>
</g>
<!-- Node30&#45;&gt;Node22 -->
<g id="edge43" class="edge">
<title>Node30&#45;&gt;Node22</title>
<path fill="none" stroke="midnightblue" d="M1164.89,-168.32C1176.15,-160.11 1193.29,-147.6 1206.71,-137.81"/>
<polygon fill="midnightblue" stroke="midnightblue" points="1208.88,-140.56 1214.89,-131.83 1204.75,-134.9 1208.88,-140.56"/>
</g>
<!-- Node30&#45;&gt;Node27 -->
<g id="edge42" class="edge">
<title>Node30&#45;&gt;Node27</title>
<path fill="none" stroke="midnightblue" d="M1146.73,-168.08C1141.36,-160.46 1133.48,-149.26 1126.92,-139.94"/>
<polygon fill="midnightblue" stroke="midnightblue" points="1129.78,-137.91 1121.16,-131.75 1124.05,-141.94 1129.78,-137.91"/>
</g>
<!-- Node31&#45;&gt;Node2 -->
<g id="edge50" class="edge">
<title>Node31&#45;&gt;Node2</title>
<path fill="none" stroke="midnightblue" d="M927.47,-229.66C914.78,-215.2 887.78,-186.26 860,-168 838.85,-154.1 812.7,-142.81 791.91,-135.01"/>
<polygon fill="midnightblue" stroke="midnightblue" points="793.07,-131.71 782.48,-131.58 790.68,-138.29 793.07,-131.71"/>
</g>
<!-- Node31&#45;&gt;Node8 -->
<g id="edge46" class="edge">
<title>Node31&#45;&gt;Node8</title>
<path fill="none" stroke="midnightblue" d="M907.97,-229.95C810.11,-198.91 479.3,-93.09 463,-76 451.22,-63.65 446.69,-44.4 444.98,-30.05"/>
<polygon fill="midnightblue" stroke="midnightblue" points="448.44,-29.49 444.12,-19.82 441.47,-30.07 448.44,-29.49"/>
</g>
<!-- Node31&#45;&gt;Node24 -->
<g id="edge49" class="edge">
<title>Node31&#45;&gt;Node24</title>
<path fill="none" stroke="midnightblue" d="M943.45,-229.98C952.57,-220.78 967.27,-205.96 978.48,-194.66"/>
<polygon fill="midnightblue" stroke="midnightblue" points="981.01,-197.07 985.56,-187.51 976.04,-192.15 981.01,-197.07"/>
</g>
<!-- Node31&#45;&gt;Node25 -->
<g id="edge47" class="edge">
<title>Node31&#45;&gt;Node25</title>
<path fill="none" stroke="midnightblue" d="M930.57,-229.82C920.96,-211.01 898.04,-166.15 885.17,-140.96"/>
<polygon fill="midnightblue" stroke="midnightblue" points="888.15,-139.1 880.49,-131.78 881.92,-142.28 888.15,-139.1"/>
</g>
<!-- Node31&#45;&gt;Node27 -->
<g id="edge48" class="edge">
<title>Node31&#45;&gt;Node27</title>
<path fill="none" stroke="midnightblue" d="M960.29,-229.92C983.86,-221.28 1019.41,-206.6 1047,-188 1067.83,-173.96 1088.18,-153.32 1101.1,-139.09"/>
<polygon fill="midnightblue" stroke="midnightblue" points="1103.78,-141.35 1107.8,-131.55 1098.54,-136.7 1103.78,-141.35"/>
</g>
<!-- Node32&#45;&gt;Node2 -->
<g id="edge58" class="edge">
<title>Node32&#45;&gt;Node2</title>
<path fill="none" stroke="midnightblue" d="M557.81,-224.29C578.46,-209.1 612.95,-184.93 645,-168 669.66,-154.97 698.96,-143.24 721.26,-135.02"/>
<polygon fill="midnightblue" stroke="midnightblue" points="722.45,-138.31 730.66,-131.61 720.07,-131.73 722.45,-138.31"/>
</g>
<!-- Node32&#45;&gt;Node7 -->
<g id="edge57" class="edge">
<title>Node32&#45;&gt;Node7</title>
<path fill="none" stroke="midnightblue" d="M539.82,-224.47C541.61,-193.7 545.89,-120.33 547.91,-85.7"/>
<polygon fill="midnightblue" stroke="midnightblue" points="551.41,-85.75 548.5,-75.56 544.42,-85.34 551.41,-85.75"/>
</g>
<!-- Node32&#45;&gt;Node29 -->
<g id="edge59" class="edge">
<title>Node32&#45;&gt;Node29</title>
<path fill="none" stroke="midnightblue" d="M572.18,-224.4C595.56,-214.46 626.61,-201.26 649.21,-191.66"/>
<polygon fill="midnightblue" stroke="midnightblue" points="650.79,-194.79 658.63,-187.66 648.06,-188.35 650.79,-194.79"/>
</g>
<!-- Node33 -->
<g id="node33" class="node">
<title>Node33</title>
<g id="a_node33"><a xlink:href="sources_2Models_2Vector2_8hpp.html" target="_top" xlink:title=" ">
<polygon fill="white" stroke="black" points="249.5,-168.5 249.5,-187.5 362.5,-187.5 362.5,-168.5 249.5,-168.5"/>
<text text-anchor="middle" x="306" y="-175.5" font-family="Helvetica,sans-Serif" font-size="10.00">Models/Vector2.hpp</text>
</a>
</g>
</g>
<!-- Node32&#45;&gt;Node33 -->
<g id="edge52" class="edge">
<title>Node32&#45;&gt;Node33</title>
<path fill="none" stroke="midnightblue" d="M484.08,-224.47C442.83,-213.94 387.12,-199.72 349.07,-190"/>
<polygon fill="midnightblue" stroke="midnightblue" points="349.87,-186.59 339.31,-187.51 348.13,-193.37 349.87,-186.59"/>
</g>
<!-- Node33&#45;&gt;Node16 -->
<g id="edge53" class="edge">
<title>Node33&#45;&gt;Node16</title>
<path fill="none" stroke="midnightblue" d="M282.23,-168.44C257.11,-159.4 217.29,-145.06 189.1,-134.92"/>
<polygon fill="midnightblue" stroke="midnightblue" points="190.25,-131.61 179.66,-131.52 187.88,-138.2 190.25,-131.61"/>
</g>
<!-- Node33&#45;&gt;Node17 -->
<g id="edge54" class="edge">
<title>Node33&#45;&gt;Node17</title>
<path fill="none" stroke="midnightblue" d="M293.47,-168.32C281.41,-159.98 262.97,-147.21 248.73,-137.35"/>
<polygon fill="midnightblue" stroke="midnightblue" points="250.72,-134.47 240.5,-131.65 246.73,-140.22 250.72,-134.47"/>
</g>
<!-- Node34 -->
<g id="node34" class="node">
<title>Node34</title>
<g id="a_node34"><a xlink:href="lib_2Ray_2sources_2Vector_2Vector2_8hpp.html" target="_top" xlink:title=" ">
<polygon fill="white" stroke="black" points="270,-112.5 270,-131.5 378,-131.5 378,-112.5 270,-112.5"/>
<text text-anchor="middle" x="324" y="-119.5" font-family="Helvetica,sans-Serif" font-size="10.00">Vector/Vector2.hpp</text>
</a>
</g>
</g>
<!-- Node33&#45;&gt;Node34 -->
<g id="edge55" class="edge">
<title>Node33&#45;&gt;Node34</title>
<path fill="none" stroke="midnightblue" d="M308.97,-168.08C311.38,-160.85 314.86,-150.41 317.87,-141.4"/>
<polygon fill="midnightblue" stroke="midnightblue" points="321.24,-142.34 321.08,-131.75 314.6,-140.13 321.24,-142.34"/>
</g>
<!-- Node34&#45;&gt;Node19 -->
<g id="edge56" class="edge">
<title>Node34&#45;&gt;Node19</title>
<path fill="none" stroke="midnightblue" d="M302.61,-112.44C280.29,-103.52 245.1,-89.44 219.79,-79.32"/>
<polygon fill="midnightblue" stroke="midnightblue" points="220.88,-75.98 210.29,-75.52 218.28,-82.48 220.88,-75.98"/>
</g>
</g>
</svg>
