<?xml version="1.0" encoding="UTF-8" standalone="no"?>
<!DOCTYPE svg PUBLIC "-//W3C//DTD SVG 1.1//EN"
 "http://www.w3.org/Graphics/SVG/1.1/DTD/svg11.dtd">
<!-- Generated by graphviz version 2.43.0 (0)
 -->
<!-- Title: lib/wal/sources/View/View.hpp Pages: 1 -->
<svg width="916pt" height="207pt"
 viewBox="0.00 0.00 915.50 207.00" xmlns="http://www.w3.org/2000/svg" xmlns:xlink="http://www.w3.org/1999/xlink">
<g id="graph0" class="graph" transform="scale(1 1) rotate(0) translate(4 203)">
<title>lib/wal/sources/View/View.hpp</title>
<polygon fill="white" stroke="transparent" points="-4,4 -4,-203 911.5,-203 911.5,4 -4,4"/>
<!-- Node1 -->
<g id="node1" class="node">
<title>Node1</title>
<g id="a_node1"><a xlink:title=" ">
<polygon fill="#bfbfbf" stroke="black" points="123,-168.5 123,-198.5 239,-198.5 239,-168.5 123,-168.5"/>
<text text-anchor="start" x="131" y="-186.5" font-family="Helvetica,sans-Serif" font-size="10.00">lib/wal/sources/View</text>
<text text-anchor="middle" x="181" y="-175.5" font-family="Helvetica,sans-Serif" font-size="10.00">/View.hpp</text>
</a>
</g>
</g>
<!-- Node2 -->
<g id="node2" class="node">
<title>Node2</title>
<g id="a_node2"><a xlink:title=" ">
<polygon fill="white" stroke="#bfbfbf" points="0,-112.5 0,-131.5 32,-131.5 32,-112.5 0,-112.5"/>
<text text-anchor="middle" x="16" y="-119.5" font-family="Helvetica,sans-Serif" font-size="10.00">list</text>
</a>
</g>
</g>
<!-- Node1&#45;&gt;Node2 -->
<g id="edge1" class="edge">
<title>Node1&#45;&gt;Node2</title>
<path fill="none" stroke="midnightblue" d="M141.9,-168.4C110.97,-157.25 68.67,-141.99 41.83,-132.32"/>
<polygon fill="midnightblue" stroke="midnightblue" points="42.96,-129 32.36,-128.9 40.58,-135.59 42.96,-129"/>
</g>
<!-- Node3 -->
<g id="node3" class="node">
<title>Node3</title>
<g id="a_node3"><a xlink:title=" ">
<polygon fill="white" stroke="#bfbfbf" points="50.5,-112.5 50.5,-131.5 91.5,-131.5 91.5,-112.5 50.5,-112.5"/>
<text text-anchor="middle" x="71" y="-119.5" font-family="Helvetica,sans-Serif" font-size="10.00">tuple</text>
</a>
</g>
</g>
<!-- Node1&#45;&gt;Node3 -->
<g id="edge2" class="edge">
<title>Node1&#45;&gt;Node3</title>
<path fill="none" stroke="midnightblue" d="M154.93,-168.4C137.13,-158.77 113.69,-146.09 96.1,-136.58"/>
<polygon fill="midnightblue" stroke="midnightblue" points="97.47,-133.34 87.01,-131.66 94.14,-139.49 97.47,-133.34"/>
</g>
<!-- Node4 -->
<g id="node4" class="node">
<title>Node4</title>
<g id="a_node4"><a xlink:title=" ">
<polygon fill="white" stroke="#bfbfbf" points="234.5,-0.5 234.5,-19.5 299.5,-19.5 299.5,-0.5 234.5,-0.5"/>
<text text-anchor="middle" x="267" y="-7.5" font-family="Helvetica,sans-Serif" font-size="10.00">typeindex</text>
</a>
</g>
</g>
<!-- Node1&#45;&gt;Node4 -->
<g id="edge3" class="edge">
<title>Node1&#45;&gt;Node4</title>
<path fill="none" stroke="midnightblue" d="M164.59,-168.4C155.12,-159.14 144.12,-146.16 139,-132 127.52,-100.23 119.47,-83.56 139,-56 158.18,-28.92 195.02,-18.02 224.27,-13.69"/>
<polygon fill="midnightblue" stroke="midnightblue" points="224.78,-17.15 234.26,-12.41 223.9,-10.21 224.78,-17.15"/>
</g>
<!-- Node5 -->
<g id="node5" class="node">
<title>Node5</title>
<g id="a_node5"><a xlink:title=" ">
<polygon fill="white" stroke="#bfbfbf" points="148.5,-112.5 148.5,-131.5 213.5,-131.5 213.5,-112.5 148.5,-112.5"/>
<text text-anchor="middle" x="181" y="-119.5" font-family="Helvetica,sans-Serif" font-size="10.00">functional</text>
</a>
</g>
</g>
<!-- Node1&#45;&gt;Node5 -->
<g id="edge4" class="edge">
<title>Node1&#45;&gt;Node5</title>
<path fill="none" stroke="midnightblue" d="M181,-168.4C181,-160.47 181,-150.46 181,-141.86"/>
<polygon fill="midnightblue" stroke="midnightblue" points="184.5,-141.66 181,-131.66 177.5,-141.66 184.5,-141.66"/>
</g>
<!-- Node6 -->
<g id="node6" class="node">
<title>Node6</title>
<g id="a_node6"><a xlink:title=" ">
<polygon fill="white" stroke="#bfbfbf" points="231.5,-112.5 231.5,-131.5 276.5,-131.5 276.5,-112.5 231.5,-112.5"/>
<text text-anchor="middle" x="254" y="-119.5" font-family="Helvetica,sans-Serif" font-size="10.00">utility</text>
</a>
</g>
</g>
<!-- Node1&#45;&gt;Node6 -->
<g id="edge5" class="edge">
<title>Node1&#45;&gt;Node6</title>
<path fill="none" stroke="midnightblue" d="M198.3,-168.4C209.45,-159.31 223.95,-147.49 235.36,-138.19"/>
<polygon fill="midnightblue" stroke="midnightblue" points="237.84,-140.69 243.38,-131.66 233.42,-135.26 237.84,-140.69"/>
</g>
<!-- Node7 -->
<g id="node7" class="node">
<title>Node7</title>
<g id="a_node7"><a xlink:title=" ">
<polygon fill="white" stroke="#bfbfbf" points="295,-112.5 295,-131.5 351,-131.5 351,-112.5 295,-112.5"/>
<text text-anchor="middle" x="323" y="-119.5" font-family="Helvetica,sans-Serif" font-size="10.00">optional</text>
</a>
</g>
</g>
<!-- Node1&#45;&gt;Node7 -->
<g id="edge6" class="edge">
<title>Node1&#45;&gt;Node7</title>
<path fill="none" stroke="midnightblue" d="M214.65,-168.4C238.48,-158.42 270.15,-145.15 293.09,-135.53"/>
<polygon fill="midnightblue" stroke="midnightblue" points="294.47,-138.75 302.34,-131.66 291.76,-132.29 294.47,-138.75"/>
</g>
<!-- Node8 -->
<g id="node8" class="node">
<title>Node8</title>
<g id="a_node8"><a xlink:href="Entity_8hpp.html" target="_top" xlink:title=" ">
<polygon fill="white" stroke="black" points="404,-112.5 404,-131.5 500,-131.5 500,-112.5 404,-112.5"/>
<text text-anchor="middle" x="452" y="-119.5" font-family="Helvetica,sans-Serif" font-size="10.00">Entity/Entity.hpp</text>
</a>
</g>
</g>
<!-- Node1&#45;&gt;Node8 -->
<g id="edge7" class="edge">
<title>Node1&#45;&gt;Node8</title>
<path fill="none" stroke="midnightblue" d="M239.14,-169.74C288.01,-159.01 357.07,-143.84 403.13,-133.73"/>
<polygon fill="midnightblue" stroke="midnightblue" points="404.15,-137.09 413.17,-131.53 402.65,-130.25 404.15,-137.09"/>
</g>
<!-- Node9 -->
<g id="node9" class="node">
<title>Node9</title>
<g id="a_node9"><a xlink:title=" ">
<polygon fill="white" stroke="#bfbfbf" points="571,-0.5 571,-19.5 615,-19.5 615,-0.5 571,-0.5"/>
<text text-anchor="middle" x="593" y="-7.5" font-family="Helvetica,sans-Serif" font-size="10.00">string</text>
</a>
</g>
</g>
<!-- Node8&#45;&gt;Node9 -->
<g id="edge8" class="edge">
<title>Node8&#45;&gt;Node9</title>
<path fill="none" stroke="midnightblue" d="M500.12,-113.56C524.94,-107.4 553.92,-96.21 573,-76 584.77,-63.54 589.62,-44.3 591.62,-29.99"/>
<polygon fill="midnightblue" stroke="midnightblue" points="595.12,-30.09 592.68,-19.78 588.16,-29.37 595.12,-30.09"/>
</g>
<!-- Node10 -->
<g id="node10" class="node">
<title>Node10</title>
<g id="a_node10"><a xlink:title=" ">
<polygon fill="white" stroke="#bfbfbf" points="148.5,-56.5 148.5,-75.5 241.5,-75.5 241.5,-56.5 148.5,-56.5"/>
<text text-anchor="middle" x="195" y="-63.5" font-family="Helvetica,sans-Serif" font-size="10.00">unordered_map</text>
</a>
</g>
</g>
<!-- Node8&#45;&gt;Node10 -->
<g id="edge9" class="edge">
<title>Node8&#45;&gt;Node10</title>
<path fill="none" stroke="midnightblue" d="M411.28,-112.44C366.35,-103 294,-87.8 245.5,-77.61"/>
<polygon fill="midnightblue" stroke="midnightblue" points="246.04,-74.15 235.53,-75.52 244.6,-81 246.04,-74.15"/>
</g>
<!-- Node11 -->
<g id="node11" class="node">
<title>Node11</title>
<g id="a_node11"><a xlink:title=" ">
<polygon fill="white" stroke="#bfbfbf" points="259.5,-56.5 259.5,-75.5 316.5,-75.5 316.5,-56.5 259.5,-56.5"/>
<text text-anchor="middle" x="288" y="-63.5" font-family="Helvetica,sans-Serif" font-size="10.00">typeinfo</text>
</a>
</g>
</g>
<!-- Node8&#45;&gt;Node11 -->
<g id="edge10" class="edge">
<title>Node8&#45;&gt;Node11</title>
<path fill="none" stroke="midnightblue" d="M426.01,-112.44C398.3,-103.32 354.25,-88.81 323.38,-78.65"/>
<polygon fill="midnightblue" stroke="midnightblue" points="324.46,-75.32 313.86,-75.52 322.27,-81.97 324.46,-75.32"/>
</g>
<!-- Node12 -->
<g id="node12" class="node">
<title>Node12</title>
<g id="a_node12"><a xlink:title=" ">
<polygon fill="white" stroke="#bfbfbf" points="335,-56.5 335,-75.5 393,-75.5 393,-56.5 335,-56.5"/>
<text text-anchor="middle" x="364" y="-63.5" font-family="Helvetica,sans-Serif" font-size="10.00">memory</text>
</a>
</g>
</g>
<!-- Node8&#45;&gt;Node12 -->
<g id="edge11" class="edge">
<title>Node8&#45;&gt;Node12</title>
<path fill="none" stroke="midnightblue" d="M437.86,-112.32C424.13,-103.9 403.06,-90.97 386.94,-81.07"/>
<polygon fill="midnightblue" stroke="midnightblue" points="388.46,-77.9 378.1,-75.65 384.8,-83.87 388.46,-77.9"/>
</g>
<!-- Node13 -->
<g id="node13" class="node">
<title>Node13</title>
<g id="a_node13"><a xlink:href="Component_8hpp.html" target="_top" xlink:title=" ">
<polygon fill="white" stroke="black" points="411.5,-56.5 411.5,-75.5 564.5,-75.5 564.5,-56.5 411.5,-56.5"/>
<text text-anchor="middle" x="488" y="-63.5" font-family="Helvetica,sans-Serif" font-size="10.00">Component/Component.hpp</text>
</a>
</g>
</g>
<!-- Node8&#45;&gt;Node13 -->
<g id="edge12" class="edge">
<title>Node8&#45;&gt;Node13</title>
<path fill="none" stroke="midnightblue" d="M457.94,-112.08C462.98,-104.53 470.34,-93.49 476.51,-84.23"/>
<polygon fill="midnightblue" stroke="midnightblue" points="479.53,-86.01 482.17,-75.75 473.71,-82.13 479.53,-86.01"/>
</g>
<!-- Node15 -->
<g id="node15" class="node">
<title>Node15</title>
<g id="a_node15"><a xlink:href="WalError_8hpp.html" target="_top" xlink:title=" ">
<polygon fill="white" stroke="black" points="769.5,-56.5 769.5,-75.5 898.5,-75.5 898.5,-56.5 769.5,-56.5"/>
<text text-anchor="middle" x="834" y="-63.5" font-family="Helvetica,sans-Serif" font-size="10.00">Exception/WalError.hpp</text>
</a>
</g>
</g>
<!-- Node8&#45;&gt;Node15 -->
<g id="edge16" class="edge">
<title>Node8&#45;&gt;Node15</title>
<path fill="none" stroke="midnightblue" d="M500.38,-114.16C566.96,-104.75 687.24,-87.75 763.74,-76.93"/>
<polygon fill="midnightblue" stroke="midnightblue" points="764.35,-80.38 773.77,-75.51 763.37,-73.45 764.35,-80.38"/>
</g>
<!-- Node18 -->
<g id="node18" class="node">
<title>Node18</title>
<g id="a_node18"><a xlink:href="TypeHolder_8hpp.html" target="_top" xlink:title=" ">
<polygon fill="white" stroke="black" points="621,-56.5 621,-75.5 751,-75.5 751,-56.5 621,-56.5"/>
<text text-anchor="middle" x="686" y="-63.5" font-family="Helvetica,sans-Serif" font-size="10.00">Models/TypeHolder.hpp</text>
</a>
</g>
</g>
<!-- Node8&#45;&gt;Node18 -->
<g id="edge20" class="edge">
<title>Node8&#45;&gt;Node18</title>
<path fill="none" stroke="midnightblue" d="M489.08,-112.44C529.73,-103.06 595.03,-87.99 639.18,-77.8"/>
<polygon fill="midnightblue" stroke="midnightblue" points="640.14,-81.18 649.1,-75.52 638.56,-74.35 640.14,-81.18"/>
</g>
<!-- Node13&#45;&gt;Node4 -->
<g id="edge15" class="edge">
<title>Node13&#45;&gt;Node4</title>
<path fill="none" stroke="midnightblue" d="M452.98,-56.44C414.08,-46.94 351.26,-31.59 309.55,-21.4"/>
<polygon fill="midnightblue" stroke="midnightblue" points="310.24,-17.96 299.69,-18.99 308.58,-24.76 310.24,-17.96"/>
</g>
<!-- Node13&#45;&gt;Node9 -->
<g id="edge14" class="edge">
<title>Node13&#45;&gt;Node9</title>
<path fill="none" stroke="midnightblue" d="M504.87,-56.32C521.71,-47.66 547.81,-34.24 567.24,-24.25"/>
<polygon fill="midnightblue" stroke="midnightblue" points="568.88,-27.34 576.17,-19.65 565.68,-21.12 568.88,-27.34"/>
</g>
<!-- Node14 -->
<g id="node14" class="node">
<title>Node14</title>
<g id="a_node14"><a xlink:title=" ">
<polygon fill="white" stroke="#bfbfbf" points="464.5,-0.5 464.5,-19.5 511.5,-19.5 511.5,-0.5 464.5,-0.5"/>
<text text-anchor="middle" x="488" y="-7.5" font-family="Helvetica,sans-Serif" font-size="10.00">vector</text>
</a>
</g>
</g>
<!-- Node13&#45;&gt;Node14 -->
<g id="edge13" class="edge">
<title>Node13&#45;&gt;Node14</title>
<path fill="none" stroke="midnightblue" d="M488,-56.08C488,-49.01 488,-38.86 488,-29.99"/>
<polygon fill="midnightblue" stroke="midnightblue" points="491.5,-29.75 488,-19.75 484.5,-29.75 491.5,-29.75"/>
</g>
<!-- Node15&#45;&gt;Node9 -->
<g id="edge19" class="edge">
<title>Node15&#45;&gt;Node9</title>
<path fill="none" stroke="midnightblue" d="M795.81,-56.44C748.63,-45.87 669.19,-28.07 625.04,-18.18"/>
<polygon fill="midnightblue" stroke="midnightblue" points="625.66,-14.73 615.13,-15.96 624.13,-21.56 625.66,-14.73"/>
</g>
<!-- Node16 -->
<g id="node16" class="node">
<title>Node16</title>
<g id="a_node16"><a xlink:title=" ">
<polygon fill="white" stroke="#bfbfbf" points="842.5,-0.5 842.5,-19.5 907.5,-19.5 907.5,-0.5 842.5,-0.5"/>
<text text-anchor="middle" x="875" y="-7.5" font-family="Helvetica,sans-Serif" font-size="10.00">exception</text>
</a>
</g>
</g>
<!-- Node15&#45;&gt;Node16 -->
<g id="edge17" class="edge">
<title>Node15&#45;&gt;Node16</title>
<path fill="none" stroke="midnightblue" d="M840.77,-56.08C846.56,-48.46 855.06,-37.26 862.14,-27.94"/>
<polygon fill="midnightblue" stroke="midnightblue" points="865.1,-29.83 868.36,-19.75 859.52,-25.6 865.1,-29.83"/>
</g>
<!-- Node17 -->
<g id="node17" class="node">
<title>Node17</title>
<g id="a_node17"><a xlink:title=" ">
<polygon fill="white" stroke="#bfbfbf" points="759.5,-0.5 759.5,-19.5 824.5,-19.5 824.5,-0.5 759.5,-0.5"/>
<text text-anchor="middle" x="792" y="-7.5" font-family="Helvetica,sans-Serif" font-size="10.00">stdexcept</text>
</a>
</g>
</g>
<!-- Node15&#45;&gt;Node17 -->
<g id="edge18" class="edge">
<title>Node15&#45;&gt;Node17</title>
<path fill="none" stroke="midnightblue" d="M827.06,-56.08C821.07,-48.38 812.25,-37.03 804.95,-27.65"/>
<polygon fill="midnightblue" stroke="midnightblue" points="807.71,-25.5 798.81,-19.75 802.18,-29.79 807.71,-25.5"/>
</g>
</g>
</svg>
