<?xml version="1.0" encoding="UTF-8" standalone="no"?>
<!DOCTYPE svg PUBLIC "-//W3C//DTD SVG 1.1//EN"
 "http://www.w3.org/Graphics/SVG/1.1/DTD/svg11.dtd">
<!-- Generated by graphviz version 2.43.0 (0)
 -->
<!-- Title: lib/Ray/sources/Window.cpp Pages: 1 -->
<svg width="1917pt" height="588pt"
 viewBox="0.00 0.00 1917.00 588.00" xmlns="http://www.w3.org/2000/svg" xmlns:xlink="http://www.w3.org/1999/xlink">
<g id="graph0" class="graph" transform="scale(1 1) rotate(0) translate(4 584)">
<title>lib/Ray/sources/Window.cpp</title>
<polygon fill="white" stroke="transparent" points="-4,4 -4,-584 1913,-584 1913,4 -4,4"/>
<!-- Node1 -->
<g id="node1" class="node">
<title>Node1</title>
<g id="a_node1"><a xlink:title=" ">
<polygon fill="#bfbfbf" stroke="black" points="704,-560.5 704,-579.5 856,-579.5 856,-560.5 704,-560.5"/>
<text text-anchor="middle" x="780" y="-567.5" font-family="Helvetica,sans-Serif" font-size="10.00">lib/Ray/sources/Window.cpp</text>
</a>
</g>
</g>
<!-- Node2 -->
<g id="node2" class="node">
<title>Node2</title>
<g id="a_node2"><a xlink:href="Window_8hpp.html" target="_top" xlink:title=" ">
<polygon fill="white" stroke="black" points="566,-224.5 566,-243.5 642,-243.5 642,-224.5 566,-224.5"/>
<text text-anchor="middle" x="604" y="-231.5" font-family="Helvetica,sans-Serif" font-size="10.00">Window.hpp</text>
</a>
</g>
</g>
<!-- Node1&#45;&gt;Node2 -->
<g id="edge1" class="edge">
<title>Node1&#45;&gt;Node2</title>
<path fill="none" stroke="midnightblue" d="M703.9,-561.12C642.05,-550 565,-523.25 565,-459 565,-459 565,-459 565,-345 565,-310.72 582.04,-273.7 593.59,-252.54"/>
<polygon fill="midnightblue" stroke="midnightblue" points="596.69,-254.17 598.58,-243.75 590.6,-250.72 596.69,-254.17"/>
</g>
<!-- Node17 -->
<g id="node17" class="node">
<title>Node17</title>
<g id="a_node17"><a xlink:title=" ">
<polygon fill="white" stroke="#bfbfbf" points="1835.5,-336.5 1835.5,-355.5 1880.5,-355.5 1880.5,-336.5 1835.5,-336.5"/>
<text text-anchor="middle" x="1858" y="-343.5" font-family="Helvetica,sans-Serif" font-size="10.00">utility</text>
</a>
</g>
</g>
<!-- Node1&#45;&gt;Node17 -->
<g id="edge28" class="edge">
<title>Node1&#45;&gt;Node17</title>
<path fill="none" stroke="midnightblue" d="M856.22,-561.88C928.37,-554.54 1039.55,-541.67 1135,-524 1404.96,-474.01 1724.79,-385.09 1825.79,-356.28"/>
<polygon fill="midnightblue" stroke="midnightblue" points="1826.76,-359.65 1835.41,-353.53 1824.83,-352.92 1826.76,-359.65"/>
</g>
<!-- Node18 -->
<g id="node18" class="node">
<title>Node18</title>
<g id="a_node18"><a xlink:title=" ">
<polygon fill="white" stroke="#bfbfbf" points="1060.5,-280.5 1060.5,-299.5 1125.5,-299.5 1125.5,-280.5 1060.5,-280.5"/>
<text text-anchor="middle" x="1093" y="-287.5" font-family="Helvetica,sans-Serif" font-size="10.00">stdexcept</text>
</a>
</g>
</g>
<!-- Node1&#45;&gt;Node18 -->
<g id="edge29" class="edge">
<title>Node1&#45;&gt;Node18</title>
<path fill="none" stroke="midnightblue" d="M782.56,-560.34C792.83,-525.66 830.8,-398.41 837,-392 869.83,-358.04 892.96,-373.09 937,-356 981.67,-338.66 1032.84,-316.99 1064.03,-303.57"/>
<polygon fill="midnightblue" stroke="midnightblue" points="1065.63,-306.7 1073.42,-299.52 1062.86,-300.27 1065.63,-306.7"/>
</g>
<!-- Node19 -->
<g id="node19" class="node">
<title>Node19</title>
<g id="a_node19"><a xlink:href="Mouse_8hpp.html" target="_top" xlink:title=" ">
<polygon fill="white" stroke="black" points="0,-168.5 0,-187.5 126,-187.5 126,-168.5 0,-168.5"/>
<text text-anchor="middle" x="63" y="-175.5" font-family="Helvetica,sans-Serif" font-size="10.00">Controllers/Mouse.hpp</text>
</a>
</g>
</g>
<!-- Node1&#45;&gt;Node19 -->
<g id="edge30" class="edge">
<title>Node1&#45;&gt;Node19</title>
<path fill="none" stroke="midnightblue" d="M703.85,-564.74C524.41,-553.7 90,-520.6 90,-459 90,-459 90,-459 90,-289 90,-255.86 78.3,-218.68 70.3,-197.14"/>
<polygon fill="midnightblue" stroke="midnightblue" points="73.51,-195.73 66.64,-187.66 66.98,-198.25 73.51,-195.73"/>
</g>
<!-- Node20 -->
<g id="node20" class="node">
<title>Node20</title>
<g id="a_node20"><a xlink:href="ADrawable2D_8hpp.html" target="_top" xlink:title=" ">
<polygon fill="white" stroke="black" points="769.5,-336.5 769.5,-355.5 928.5,-355.5 928.5,-336.5 769.5,-336.5"/>
<text text-anchor="middle" x="849" y="-343.5" font-family="Helvetica,sans-Serif" font-size="10.00">Drawables/ADrawable2D.hpp</text>
</a>
</g>
</g>
<!-- Node1&#45;&gt;Node20 -->
<g id="edge33" class="edge">
<title>Node1&#45;&gt;Node20</title>
<path fill="none" stroke="midnightblue" d="M779.3,-560.33C777.51,-533.63 774.81,-450.91 804,-392 809.71,-380.48 819.53,-370.13 828.54,-362.28"/>
<polygon fill="midnightblue" stroke="midnightblue" points="830.93,-364.84 836.45,-355.8 826.49,-359.43 830.93,-364.84"/>
</g>
<!-- Node22 -->
<g id="node22" class="node">
<title>Node22</title>
<g id="a_node22"><a xlink:href="ADrawable3D_8hpp.html" target="_top" xlink:title=" ">
<polygon fill="white" stroke="black" points="592.5,-336.5 592.5,-355.5 751.5,-355.5 751.5,-336.5 592.5,-336.5"/>
<text text-anchor="middle" x="672" y="-343.5" font-family="Helvetica,sans-Serif" font-size="10.00">Drawables/ADrawable3D.hpp</text>
</a>
</g>
</g>
<!-- Node1&#45;&gt;Node22 -->
<g id="edge39" class="edge">
<title>Node1&#45;&gt;Node22</title>
<path fill="none" stroke="midnightblue" d="M775.77,-560.3C759.77,-527.42 702.84,-410.39 680.8,-365.09"/>
<polygon fill="midnightblue" stroke="midnightblue" points="683.84,-363.34 676.32,-355.88 677.55,-366.41 683.84,-363.34"/>
</g>
<!-- Node23 -->
<g id="node23" class="node">
<title>Node23</title>
<g id="a_node23"><a xlink:href="Image_8hpp.html" target="_top" xlink:title=" ">
<polygon fill="white" stroke="black" points="1002.5,-504.5 1002.5,-523.5 1125.5,-523.5 1125.5,-504.5 1002.5,-504.5"/>
<text text-anchor="middle" x="1064" y="-511.5" font-family="Helvetica,sans-Serif" font-size="10.00">Drawables/Image.hpp</text>
</a>
</g>
</g>
<!-- Node1&#45;&gt;Node23 -->
<g id="edge43" class="edge">
<title>Node1&#45;&gt;Node23</title>
<path fill="none" stroke="midnightblue" d="M825,-560.44C874.96,-550.94 955.6,-535.61 1009.2,-525.42"/>
<polygon fill="midnightblue" stroke="midnightblue" points="1010.04,-528.82 1019.21,-523.52 1008.73,-521.95 1010.04,-528.82"/>
</g>
<!-- Node3 -->
<g id="node3" class="node">
<title>Node3</title>
<g id="a_node3"><a xlink:title=" ">
<polygon fill="white" stroke="#bfbfbf" points="709.5,-0.5 709.5,-19.5 762.5,-19.5 762.5,-0.5 709.5,-0.5"/>
<text text-anchor="middle" x="736" y="-7.5" font-family="Helvetica,sans-Serif" font-size="10.00">raylib.h</text>
</a>
</g>
</g>
<!-- Node2&#45;&gt;Node3 -->
<g id="edge2" class="edge">
<title>Node2&#45;&gt;Node3</title>
<path fill="none" stroke="midnightblue" d="M610.35,-224.32C620.23,-211.16 640.3,-185.83 661,-168 683.42,-148.69 700.84,-156.79 717,-132 737.44,-100.64 738.75,-55.19 737.58,-29.86"/>
<polygon fill="midnightblue" stroke="midnightblue" points="741.06,-29.51 736.92,-19.76 734.08,-29.97 741.06,-29.51"/>
</g>
<!-- Node4 -->
<g id="node4" class="node">
<title>Node4</title>
<g id="a_node4"><a xlink:title=" ">
<polygon fill="white" stroke="#bfbfbf" points="1132,-168.5 1132,-187.5 1176,-187.5 1176,-168.5 1132,-168.5"/>
<text text-anchor="middle" x="1154" y="-175.5" font-family="Helvetica,sans-Serif" font-size="10.00">string</text>
</a>
</g>
</g>
<!-- Node2&#45;&gt;Node4 -->
<g id="edge3" class="edge">
<title>Node2&#45;&gt;Node4</title>
<path fill="none" stroke="midnightblue" d="M642.24,-229.25C745.1,-219.15 1026.34,-191.53 1121.8,-182.16"/>
<polygon fill="midnightblue" stroke="midnightblue" points="1122.38,-185.62 1131.99,-181.16 1121.7,-178.65 1122.38,-185.62"/>
</g>
<!-- Node5 -->
<g id="node5" class="node">
<title>Node5</title>
<g id="a_node5"><a xlink:title=" ">
<polygon fill="white" stroke="#bfbfbf" points="332,-168.5 332,-187.5 388,-187.5 388,-168.5 332,-168.5"/>
<text text-anchor="middle" x="360" y="-175.5" font-family="Helvetica,sans-Serif" font-size="10.00">optional</text>
</a>
</g>
</g>
<!-- Node2&#45;&gt;Node5 -->
<g id="edge4" class="edge">
<title>Node2&#45;&gt;Node5</title>
<path fill="none" stroke="midnightblue" d="M565.88,-224.56C520.14,-214.44 443.94,-197.58 398.18,-187.45"/>
<polygon fill="midnightblue" stroke="midnightblue" points="398.87,-184.02 388.35,-185.27 397.36,-190.85 398.87,-184.02"/>
</g>
<!-- Node6 -->
<g id="node6" class="node">
<title>Node6</title>
<g id="a_node6"><a xlink:href="lib_2Ray_2sources_2Vector_2Vector2_8hpp.html" target="_top" xlink:title=" ">
<polygon fill="white" stroke="black" points="91,-112.5 91,-131.5 199,-131.5 199,-112.5 91,-112.5"/>
<text text-anchor="middle" x="145" y="-119.5" font-family="Helvetica,sans-Serif" font-size="10.00">Vector/Vector2.hpp</text>
</a>
</g>
</g>
<!-- Node2&#45;&gt;Node6 -->
<g id="edge5" class="edge">
<title>Node2&#45;&gt;Node6</title>
<path fill="none" stroke="midnightblue" d="M565.97,-225.44C531.2,-217.92 478.7,-205.07 435,-188 417.22,-181.06 415.05,-174.2 397,-168 335.13,-146.77 261.1,-135.07 209.35,-128.97"/>
<polygon fill="midnightblue" stroke="midnightblue" points="209.64,-125.48 199.3,-127.82 208.84,-132.44 209.64,-125.48"/>
</g>
<!-- Node7 -->
<g id="node7" class="node">
<title>Node7</title>
<g id="a_node7"><a xlink:href="lib_2Ray_2sources_2Vector_2Vector3_8hpp.html" target="_top" xlink:title=" ">
<polygon fill="white" stroke="black" points="600,-112.5 600,-131.5 708,-131.5 708,-112.5 600,-112.5"/>
<text text-anchor="middle" x="654" y="-119.5" font-family="Helvetica,sans-Serif" font-size="10.00">Vector/Vector3.hpp</text>
</a>
</g>
</g>
<!-- Node2&#45;&gt;Node7 -->
<g id="edge7" class="edge">
<title>Node2&#45;&gt;Node7</title>
<path fill="none" stroke="midnightblue" d="M606.66,-224.4C610.67,-211.77 618.8,-187.6 628,-168 632.41,-158.61 638.1,-148.57 643.04,-140.37"/>
<polygon fill="midnightblue" stroke="midnightblue" points="646.1,-142.08 648.36,-131.72 640.14,-138.4 646.1,-142.08"/>
</g>
<!-- Node8 -->
<g id="node8" class="node">
<title>Node8</title>
<g id="a_node8"><a xlink:href="Keyboard_8hpp.html" target="_top" xlink:title=" ">
<polygon fill="white" stroke="black" points="670,-168.5 670,-187.5 810,-187.5 810,-168.5 670,-168.5"/>
<text text-anchor="middle" x="740" y="-175.5" font-family="Helvetica,sans-Serif" font-size="10.00">Controllers/Keyboard.hpp</text>
</a>
</g>
</g>
<!-- Node2&#45;&gt;Node8 -->
<g id="edge9" class="edge">
<title>Node2&#45;&gt;Node8</title>
<path fill="none" stroke="midnightblue" d="M625.55,-224.44C648.03,-215.52 683.49,-201.44 708.98,-191.32"/>
<polygon fill="midnightblue" stroke="midnightblue" points="710.55,-194.46 718.55,-187.52 707.97,-187.95 710.55,-194.46"/>
</g>
<!-- Node10 -->
<g id="node10" class="node">
<title>Node10</title>
<g id="a_node10"><a xlink:href="Camera2D_8hpp.html" target="_top" xlink:title=" ">
<polygon fill="white" stroke="black" points="182.5,-168.5 182.5,-187.5 313.5,-187.5 313.5,-168.5 182.5,-168.5"/>
<text text-anchor="middle" x="248" y="-175.5" font-family="Helvetica,sans-Serif" font-size="10.00">Camera/Camera2D.hpp</text>
</a>
</g>
</g>
<!-- Node2&#45;&gt;Node10 -->
<g id="edge12" class="edge">
<title>Node2&#45;&gt;Node10</title>
<path fill="none" stroke="midnightblue" d="M565.9,-227.22C505.86,-218.11 388.43,-200.3 314.33,-189.06"/>
<polygon fill="midnightblue" stroke="midnightblue" points="314.58,-185.56 304.17,-187.52 313.53,-192.48 314.58,-185.56"/>
</g>
<!-- Node13 -->
<g id="node13" class="node">
<title>Node13</title>
<g id="a_node13"><a xlink:href="Camera3D_8hpp.html" target="_top" xlink:title=" ">
<polygon fill="white" stroke="black" points="444.5,-168.5 444.5,-187.5 575.5,-187.5 575.5,-168.5 444.5,-168.5"/>
<text text-anchor="middle" x="510" y="-175.5" font-family="Helvetica,sans-Serif" font-size="10.00">Camera/Camera3D.hpp</text>
</a>
</g>
</g>
<!-- Node2&#45;&gt;Node13 -->
<g id="edge18" class="edge">
<title>Node2&#45;&gt;Node13</title>
<path fill="none" stroke="midnightblue" d="M588.9,-224.32C574.1,-215.82 551.31,-202.73 534.02,-192.8"/>
<polygon fill="midnightblue" stroke="midnightblue" points="535.48,-189.6 525.07,-187.65 531.99,-195.67 535.48,-189.6"/>
</g>
<!-- Node16 -->
<g id="node16" class="node">
<title>Node16</title>
<g id="a_node16"><a xlink:href="Color_8hpp.html" target="_top" xlink:title=" ">
<polygon fill="white" stroke="black" points="828,-168.5 828,-187.5 890,-187.5 890,-168.5 828,-168.5"/>
<text text-anchor="middle" x="859" y="-175.5" font-family="Helvetica,sans-Serif" font-size="10.00">Color.hpp</text>
</a>
</g>
</g>
<!-- Node2&#45;&gt;Node16 -->
<g id="edge26" class="edge">
<title>Node2&#45;&gt;Node16</title>
<path fill="none" stroke="midnightblue" d="M642.1,-225.21C683.09,-216.78 750.45,-202.82 817.66,-188.27"/>
<polygon fill="midnightblue" stroke="midnightblue" points="818.54,-191.66 827.57,-186.12 817.05,-184.82 818.54,-191.66"/>
</g>
<!-- Node6&#45;&gt;Node3 -->
<g id="edge6" class="edge">
<title>Node6&#45;&gt;Node3</title>
<path fill="none" stroke="midnightblue" d="M146.11,-112.05C148.43,-97.57 155.23,-69.27 174,-56 216.77,-25.75 580.98,-14.63 699.15,-11.79"/>
<polygon fill="midnightblue" stroke="midnightblue" points="699.56,-15.28 709.48,-11.55 699.4,-8.29 699.56,-15.28"/>
</g>
<!-- Node7&#45;&gt;Node3 -->
<g id="edge8" class="edge">
<title>Node7&#45;&gt;Node3</title>
<path fill="none" stroke="midnightblue" d="M660.43,-112.37C674.03,-94.14 705.86,-51.43 723.57,-27.68"/>
<polygon fill="midnightblue" stroke="midnightblue" points="726.42,-29.7 729.6,-19.59 720.81,-25.52 726.42,-29.7"/>
</g>
<!-- Node8&#45;&gt;Node3 -->
<g id="edge10" class="edge">
<title>Node8&#45;&gt;Node3</title>
<path fill="none" stroke="midnightblue" d="M742.48,-168.47C744.96,-159.48 748.59,-144.89 750,-132 753.69,-98.42 755.07,-89.39 750,-56 748.63,-47 745.81,-37.33 743.05,-29.26"/>
<polygon fill="midnightblue" stroke="midnightblue" points="746.31,-27.98 739.6,-19.78 739.73,-30.37 746.31,-27.98"/>
</g>
<!-- Node9 -->
<g id="node9" class="node">
<title>Node9</title>
<g id="a_node9"><a xlink:title=" ">
<polygon fill="white" stroke="#bfbfbf" points="802.5,-112.5 802.5,-131.5 849.5,-131.5 849.5,-112.5 802.5,-112.5"/>
<text text-anchor="middle" x="826" y="-119.5" font-family="Helvetica,sans-Serif" font-size="10.00">vector</text>
</a>
</g>
</g>
<!-- Node8&#45;&gt;Node9 -->
<g id="edge11" class="edge">
<title>Node8&#45;&gt;Node9</title>
<path fill="none" stroke="midnightblue" d="M753.82,-168.32C767.23,-159.9 787.82,-146.97 803.59,-137.07"/>
<polygon fill="midnightblue" stroke="midnightblue" points="805.61,-139.94 812.22,-131.65 801.89,-134.01 805.61,-139.94"/>
</g>
<!-- Node10&#45;&gt;Node3 -->
<g id="edge13" class="edge">
<title>Node10&#45;&gt;Node3</title>
<path fill="none" stroke="midnightblue" d="M242.98,-168.34C228.93,-143.59 191.25,-73.15 207,-56 240.22,-19.84 584.68,-12.7 699.21,-11.32"/>
<polygon fill="midnightblue" stroke="midnightblue" points="699.28,-14.82 709.24,-11.21 699.2,-7.82 699.28,-14.82"/>
</g>
<!-- Node10&#45;&gt;Node6 -->
<g id="edge14" class="edge">
<title>Node10&#45;&gt;Node6</title>
<path fill="none" stroke="midnightblue" d="M231.45,-168.32C215.01,-159.7 189.57,-146.36 170.53,-136.39"/>
<polygon fill="midnightblue" stroke="midnightblue" points="171.99,-133.2 161.51,-131.65 168.74,-139.4 171.99,-133.2"/>
</g>
<!-- Node11 -->
<g id="node11" class="node">
<title>Node11</title>
<g id="a_node11"><a xlink:href="ICamera_8hpp.html" target="_top" xlink:title=" ">
<polygon fill="white" stroke="black" points="255,-112.5 255,-131.5 375,-131.5 375,-112.5 255,-112.5"/>
<text text-anchor="middle" x="315" y="-119.5" font-family="Helvetica,sans-Serif" font-size="10.00">Camera/ICamera.hpp</text>
</a>
</g>
</g>
<!-- Node10&#45;&gt;Node11 -->
<g id="edge15" class="edge">
<title>Node10&#45;&gt;Node11</title>
<path fill="none" stroke="midnightblue" d="M258.76,-168.32C268.77,-160.26 283.89,-148.08 295.93,-138.37"/>
<polygon fill="midnightblue" stroke="midnightblue" points="298.45,-140.83 304.04,-131.83 294.06,-135.38 298.45,-140.83"/>
</g>
<!-- Node12 -->
<g id="node12" class="node">
<title>Node12</title>
<g id="a_node12"><a xlink:href="Matrix_8hpp.html" target="_top" xlink:title=" ">
<polygon fill="white" stroke="black" points="216.5,-56.5 216.5,-75.5 285.5,-75.5 285.5,-56.5 216.5,-56.5"/>
<text text-anchor="middle" x="251" y="-63.5" font-family="Helvetica,sans-Serif" font-size="10.00">Matrix.hpp</text>
</a>
</g>
</g>
<!-- Node11&#45;&gt;Node12 -->
<g id="edge16" class="edge">
<title>Node11&#45;&gt;Node12</title>
<path fill="none" stroke="midnightblue" d="M304.72,-112.32C295.16,-104.26 280.72,-92.08 269.22,-82.37"/>
<polygon fill="midnightblue" stroke="midnightblue" points="271.37,-79.61 261.47,-75.83 266.86,-84.96 271.37,-79.61"/>
</g>
<!-- Node12&#45;&gt;Node3 -->
<g id="edge17" class="edge">
<title>Node12&#45;&gt;Node3</title>
<path fill="none" stroke="midnightblue" d="M285.53,-57.6C288.72,-57.02 291.92,-56.47 295,-56 444.13,-33.2 623.46,-18.93 699.29,-13.5"/>
<polygon fill="midnightblue" stroke="midnightblue" points="699.56,-16.99 709.29,-12.79 699.07,-10 699.56,-16.99"/>
</g>
<!-- Node13&#45;&gt;Node3 -->
<g id="edge19" class="edge">
<title>Node13&#45;&gt;Node3</title>
<path fill="none" stroke="midnightblue" d="M520.31,-168.36C535.53,-155.68 565.01,-131.44 591,-112 613.89,-94.88 680.29,-49.17 714.72,-25.56"/>
<polygon fill="midnightblue" stroke="midnightblue" points="716.86,-28.34 723.13,-19.8 712.91,-22.56 716.86,-28.34"/>
</g>
<!-- Node13&#45;&gt;Node7 -->
<g id="edge20" class="edge">
<title>Node13&#45;&gt;Node7</title>
<path fill="none" stroke="midnightblue" d="M532.82,-168.44C556.83,-159.44 594.83,-145.19 621.87,-135.05"/>
<polygon fill="midnightblue" stroke="midnightblue" points="623.16,-138.3 631.29,-131.52 620.7,-131.75 623.16,-138.3"/>
</g>
<!-- Node13&#45;&gt;Node11 -->
<g id="edge21" class="edge">
<title>Node13&#45;&gt;Node11</title>
<path fill="none" stroke="midnightblue" d="M479.1,-168.44C445.73,-159.2 392.41,-144.44 355.65,-134.26"/>
<polygon fill="midnightblue" stroke="midnightblue" points="356.33,-130.81 345.75,-131.52 354.46,-137.56 356.33,-130.81"/>
</g>
<!-- Node14 -->
<g id="node14" class="node">
<title>Node14</title>
<g id="a_node14"><a xlink:href="CameraProjection_8hpp.html" target="_top" xlink:title=" ">
<polygon fill="white" stroke="black" points="304,-56.5 304,-75.5 470,-75.5 470,-56.5 304,-56.5"/>
<text text-anchor="middle" x="387" y="-63.5" font-family="Helvetica,sans-Serif" font-size="10.00">Camera/CameraProjection.hpp</text>
</a>
</g>
</g>
<!-- Node13&#45;&gt;Node14 -->
<g id="edge22" class="edge">
<title>Node13&#45;&gt;Node14</title>
<path fill="none" stroke="midnightblue" d="M500.35,-168.37C479.6,-149.81 430.51,-105.91 404.26,-82.44"/>
<polygon fill="midnightblue" stroke="midnightblue" points="406.39,-79.65 396.61,-75.59 401.73,-84.87 406.39,-79.65"/>
</g>
<!-- Node15 -->
<g id="node15" class="node">
<title>Node15</title>
<g id="a_node15"><a xlink:href="CameraMode_8hpp.html" target="_top" xlink:title=" ">
<polygon fill="white" stroke="black" points="488,-56.5 488,-75.5 632,-75.5 632,-56.5 488,-56.5"/>
<text text-anchor="middle" x="560" y="-63.5" font-family="Helvetica,sans-Serif" font-size="10.00">Camera/CameraMode.hpp</text>
</a>
</g>
</g>
<!-- Node13&#45;&gt;Node15 -->
<g id="edge24" class="edge">
<title>Node13&#45;&gt;Node15</title>
<path fill="none" stroke="midnightblue" d="M513.92,-168.37C522.07,-150.46 540.94,-108.92 551.84,-84.95"/>
<polygon fill="midnightblue" stroke="midnightblue" points="555.14,-86.14 556.09,-75.59 548.77,-83.25 555.14,-86.14"/>
</g>
<!-- Node14&#45;&gt;Node3 -->
<g id="edge23" class="edge">
<title>Node14&#45;&gt;Node3</title>
<path fill="none" stroke="midnightblue" d="M442.3,-56.44C514.25,-45.31 637.99,-26.16 699.33,-16.67"/>
<polygon fill="midnightblue" stroke="midnightblue" points="699.98,-20.12 709.32,-15.13 698.91,-13.2 699.98,-20.12"/>
</g>
<!-- Node15&#45;&gt;Node3 -->
<g id="edge25" class="edge">
<title>Node15&#45;&gt;Node3</title>
<path fill="none" stroke="midnightblue" d="M587.89,-56.44C618.11,-47.17 666.44,-32.34 699.62,-22.16"/>
<polygon fill="midnightblue" stroke="midnightblue" points="700.86,-25.44 709.39,-19.16 698.81,-18.75 700.86,-25.44"/>
</g>
<!-- Node16&#45;&gt;Node3 -->
<g id="edge27" class="edge">
<title>Node16&#45;&gt;Node3</title>
<path fill="none" stroke="midnightblue" d="M861.02,-168.49C863.64,-155.56 866.89,-130.52 858,-112 838.25,-70.84 792.8,-40.58 763.3,-24.4"/>
<polygon fill="midnightblue" stroke="midnightblue" points="764.8,-21.24 754.33,-19.65 761.52,-27.43 764.8,-21.24"/>
</g>
<!-- Node19&#45;&gt;Node3 -->
<g id="edge31" class="edge">
<title>Node19&#45;&gt;Node3</title>
<path fill="none" stroke="midnightblue" d="M63.81,-168.27C65.41,-155.06 69.91,-129.66 82,-112 105.1,-78.26 116.81,-70.63 155,-56 255.1,-17.65 587.6,-11.96 699.15,-11.13"/>
<polygon fill="midnightblue" stroke="midnightblue" points="699.26,-14.63 709.24,-11.07 699.22,-7.63 699.26,-14.63"/>
</g>
<!-- Node19&#45;&gt;Node6 -->
<g id="edge32" class="edge">
<title>Node19&#45;&gt;Node6</title>
<path fill="none" stroke="midnightblue" d="M76.17,-168.32C88.85,-159.98 108.23,-147.21 123.21,-137.35"/>
<polygon fill="midnightblue" stroke="midnightblue" points="125.43,-140.08 131.86,-131.65 121.58,-134.23 125.43,-140.08"/>
</g>
<!-- Node20&#45;&gt;Node3 -->
<g id="edge34" class="edge">
<title>Node20&#45;&gt;Node3</title>
<path fill="none" stroke="midnightblue" d="M867.64,-336.44C898.29,-320.93 956,-285.09 956,-235 956,-235 956,-235 956,-121 956,-40.06 835.41,-18.68 772.79,-13.03"/>
<polygon fill="midnightblue" stroke="midnightblue" points="772.79,-9.52 762.54,-12.2 772.22,-16.49 772.79,-9.52"/>
</g>
<!-- Node20&#45;&gt;Node6 -->
<g id="edge35" class="edge">
<title>Node20&#45;&gt;Node6</title>
<path fill="none" stroke="midnightblue" d="M791.81,-336.46C739.54,-328.31 660.23,-315.06 592,-300 403.77,-258.45 318.85,-314.03 173,-188 159.22,-176.09 152.01,-156.18 148.38,-141.53"/>
<polygon fill="midnightblue" stroke="midnightblue" points="151.77,-140.62 146.26,-131.57 144.92,-142.08 151.77,-140.62"/>
</g>
<!-- Node20&#45;&gt;Node16 -->
<g id="edge38" class="edge">
<title>Node20&#45;&gt;Node16</title>
<path fill="none" stroke="midnightblue" d="M849.54,-336.08C851.11,-309.95 855.73,-233.21 857.88,-197.58"/>
<polygon fill="midnightblue" stroke="midnightblue" points="861.38,-197.76 858.48,-187.57 854.39,-197.34 861.38,-197.76"/>
</g>
<!-- Node21 -->
<g id="node21" class="node">
<title>Node21</title>
<g id="a_node21"><a xlink:href="IDrawable_8hpp.html" target="_top" xlink:title=" ">
<polygon fill="white" stroke="black" points="601,-280.5 601,-299.5 743,-299.5 743,-280.5 601,-280.5"/>
<text text-anchor="middle" x="672" y="-287.5" font-family="Helvetica,sans-Serif" font-size="10.00">Drawables/IDrawable.hpp</text>
</a>
</g>
</g>
<!-- Node20&#45;&gt;Node21 -->
<g id="edge36" class="edge">
<title>Node20&#45;&gt;Node21</title>
<path fill="none" stroke="midnightblue" d="M820.95,-336.44C790.92,-327.28 743.09,-312.69 709.76,-302.52"/>
<polygon fill="midnightblue" stroke="midnightblue" points="710.5,-299.09 699.91,-299.52 708.46,-305.78 710.5,-299.09"/>
</g>
<!-- Node21&#45;&gt;Node2 -->
<g id="edge37" class="edge">
<title>Node21&#45;&gt;Node2</title>
<path fill="none" stroke="midnightblue" d="M661.07,-280.32C650.83,-272.18 635.28,-259.84 623,-250.09"/>
<polygon fill="midnightblue" stroke="midnightblue" points="625.13,-247.31 615.12,-243.83 620.78,-252.79 625.13,-247.31"/>
</g>
<!-- Node22&#45;&gt;Node3 -->
<g id="edge40" class="edge">
<title>Node22&#45;&gt;Node3</title>
<path fill="none" stroke="midnightblue" d="M700.12,-336.4C752.24,-318.67 861.89,-272.45 899,-188 925.15,-128.49 886.03,-97.51 836,-56 817.37,-40.54 792.56,-29.33 772.32,-21.97"/>
<polygon fill="midnightblue" stroke="midnightblue" points="773.39,-18.64 762.8,-18.66 771.1,-25.25 773.39,-18.64"/>
</g>
<!-- Node22&#45;&gt;Node16 -->
<g id="edge42" class="edge">
<title>Node22&#45;&gt;Node16</title>
<path fill="none" stroke="midnightblue" d="M691.22,-336.45C708.16,-328.4 733.04,-315.32 752,-300 791.44,-268.14 828.54,-220.93 846.93,-195.94"/>
<polygon fill="midnightblue" stroke="midnightblue" points="849.79,-197.96 852.83,-187.81 844.13,-193.85 849.79,-197.96"/>
</g>
<!-- Node22&#45;&gt;Node21 -->
<g id="edge41" class="edge">
<title>Node22&#45;&gt;Node21</title>
<path fill="none" stroke="midnightblue" d="M672,-336.08C672,-329.01 672,-318.86 672,-309.99"/>
<polygon fill="midnightblue" stroke="midnightblue" points="675.5,-309.75 672,-299.75 668.5,-309.75 675.5,-309.75"/>
</g>
<!-- Node23&#45;&gt;Node3 -->
<g id="edge44" class="edge">
<title>Node23&#45;&gt;Node3</title>
<path fill="none" stroke="midnightblue" d="M1125.79,-511.45C1320.59,-505.75 1909,-482.01 1909,-403 1909,-403 1909,-403 1909,-121 1909,-30.91 1805.53,-72.67 1717,-56 1530.88,-20.95 928.96,-12.84 773.12,-11.31"/>
<polygon fill="midnightblue" stroke="midnightblue" points="772.71,-7.81 762.68,-11.21 772.65,-14.81 772.71,-7.81"/>
</g>
<!-- Node23&#45;&gt;Node4 -->
<g id="edge45" class="edge">
<title>Node23&#45;&gt;Node4</title>
<path fill="none" stroke="midnightblue" d="M1059.68,-504.41C1050.95,-486.2 1032,-442.18 1032,-403 1032,-403 1032,-403 1032,-289 1032,-240.18 1086.56,-207.46 1122.71,-191.14"/>
<polygon fill="midnightblue" stroke="midnightblue" points="1124.12,-194.34 1131.91,-187.16 1121.34,-187.92 1124.12,-194.34"/>
</g>
<!-- Node24 -->
<g id="node24" class="node">
<title>Node24</title>
<g id="a_node24"><a xlink:href="Texture_8hpp.html" target="_top" xlink:title=" ">
<polygon fill="white" stroke="black" points="1060,-448.5 1060,-467.5 1134,-467.5 1134,-448.5 1060,-448.5"/>
<text text-anchor="middle" x="1097" y="-455.5" font-family="Helvetica,sans-Serif" font-size="10.00">Texture.hpp</text>
</a>
</g>
</g>
<!-- Node23&#45;&gt;Node24 -->
<g id="edge46" class="edge">
<title>Node23&#45;&gt;Node24</title>
<path fill="none" stroke="midnightblue" d="M1069.45,-504.08C1074.01,-496.61 1080.67,-485.72 1086.29,-476.52"/>
<polygon fill="midnightblue" stroke="midnightblue" points="1089.42,-478.11 1091.65,-467.75 1083.45,-474.46 1089.42,-478.11"/>
</g>
<!-- Node25 -->
<g id="node25" class="node">
<title>Node25</title>
<g id="a_node25"><a xlink:href="Cache_8hpp.html" target="_top" xlink:title=" ">
<polygon fill="white" stroke="black" points="1395.5,-392.5 1395.5,-411.5 1488.5,-411.5 1488.5,-392.5 1395.5,-392.5"/>
<text text-anchor="middle" x="1442" y="-399.5" font-family="Helvetica,sans-Serif" font-size="10.00">Utils/Cache.hpp</text>
</a>
</g>
</g>
<!-- Node23&#45;&gt;Node25 -->
<g id="edge65" class="edge">
<title>Node23&#45;&gt;Node25</title>
<path fill="none" stroke="midnightblue" d="M1093.35,-504.46C1160.83,-484.82 1327.05,-436.45 1403.01,-414.35"/>
<polygon fill="midnightblue" stroke="midnightblue" points="1404.05,-417.69 1412.67,-411.53 1402.09,-410.97 1404.05,-417.69"/>
</g>
<!-- Node32 -->
<g id="node32" class="node">
<title>Node32</title>
<g id="a_node32"><a xlink:href="Rectangle_8hpp.html" target="_top" xlink:title=" ">
<polygon fill="white" stroke="black" points="846,-392.5 846,-411.5 1004,-411.5 1004,-392.5 846,-392.5"/>
<text text-anchor="middle" x="925" y="-399.5" font-family="Helvetica,sans-Serif" font-size="10.00">Drawables/2D/Rectangle.hpp</text>
</a>
</g>
</g>
<!-- Node23&#45;&gt;Node32 -->
<g id="edge66" class="edge">
<title>Node23&#45;&gt;Node32</title>
<path fill="none" stroke="midnightblue" d="M1053.09,-504.37C1029.44,-485.65 973.21,-441.15 943.74,-417.83"/>
<polygon fill="midnightblue" stroke="midnightblue" points="945.87,-415.05 935.86,-411.59 941.53,-420.54 945.87,-415.05"/>
</g>
<!-- Node24&#45;&gt;Node3 -->
<g id="edge47" class="edge">
<title>Node24&#45;&gt;Node3</title>
<path fill="none" stroke="midnightblue" d="M1128.19,-448.47C1201,-426.46 1376,-360.5 1376,-235 1376,-235 1376,-235 1376,-121 1376,-59.39 909.42,-22.8 773.02,-13.41"/>
<polygon fill="midnightblue" stroke="midnightblue" points="772.9,-9.9 762.69,-12.71 772.42,-16.88 772.9,-9.9"/>
</g>
<!-- Node24&#45;&gt;Node4 -->
<g id="edge48" class="edge">
<title>Node24&#45;&gt;Node4</title>
<path fill="none" stroke="midnightblue" d="M1096.08,-448.37C1094.29,-430.93 1090.36,-390.27 1089,-356 1088.65,-347.12 1085.11,-343.99 1089,-336 1100.37,-312.66 1121.85,-322.38 1135,-300 1153.88,-267.87 1155.81,-223.03 1155.16,-197.93"/>
<polygon fill="midnightblue" stroke="midnightblue" points="1158.64,-197.46 1154.71,-187.63 1151.65,-197.77 1158.64,-197.46"/>
</g>
<!-- Node24&#45;&gt;Node25 -->
<g id="edge49" class="edge">
<title>Node24&#45;&gt;Node25</title>
<path fill="none" stroke="midnightblue" d="M1134.25,-451.17C1194.62,-441.72 1314.2,-423 1385.22,-411.89"/>
<polygon fill="midnightblue" stroke="midnightblue" points="1386,-415.31 1395.33,-410.3 1384.91,-408.39 1386,-415.31"/>
</g>
<!-- Node24&#45;&gt;Node32 -->
<g id="edge62" class="edge">
<title>Node24&#45;&gt;Node32</title>
<path fill="none" stroke="midnightblue" d="M1069.75,-448.44C1040.56,-439.28 994.08,-424.69 961.69,-414.52"/>
<polygon fill="midnightblue" stroke="midnightblue" points="962.72,-411.17 952.13,-411.52 960.62,-417.85 962.72,-411.17"/>
</g>
<!-- Node25&#45;&gt;Node3 -->
<g id="edge54" class="edge">
<title>Node25&#45;&gt;Node3</title>
<path fill="none" stroke="midnightblue" d="M1488.78,-397.75C1578,-391.14 1765.65,-375.13 1788,-356 1810.87,-336.43 1807,-321.1 1807,-291 1807,-291 1807,-291 1807,-121 1807,-14.71 961.49,-10.46 772.97,-10.83"/>
<polygon fill="midnightblue" stroke="midnightblue" points="772.73,-7.33 762.74,-10.86 772.75,-14.33 772.73,-7.33"/>
</g>
<!-- Node25&#45;&gt;Node4 -->
<g id="edge60" class="edge">
<title>Node25&#45;&gt;Node4</title>
<path fill="none" stroke="midnightblue" d="M1408.34,-392.48C1383.66,-385.24 1350.05,-373.25 1324,-356 1254.22,-309.78 1191.43,-230.27 1165.99,-195.78"/>
<polygon fill="midnightblue" stroke="midnightblue" points="1168.8,-193.69 1160.09,-187.66 1163.14,-197.81 1168.8,-193.69"/>
</g>
<!-- Node25&#45;&gt;Node9 -->
<g id="edge58" class="edge">
<title>Node25&#45;&gt;Node9</title>
<path fill="none" stroke="midnightblue" d="M1413.35,-392.36C1394.78,-385.37 1371.46,-373.73 1357,-356 1337.98,-332.68 1338,-321.1 1338,-291 1338,-291 1338,-291 1338,-233 1338,-134.91 974.21,-124.03 859.93,-123.03"/>
<polygon fill="midnightblue" stroke="midnightblue" points="859.69,-119.53 849.67,-122.96 859.64,-126.53 859.69,-119.53"/>
</g>
<!-- Node25&#45;&gt;Node17 -->
<g id="edge53" class="edge">
<title>Node25&#45;&gt;Node17</title>
<path fill="none" stroke="midnightblue" d="M1488.65,-397.28C1560.44,-391.15 1702.16,-377.43 1821,-356 1822.46,-355.74 1823.96,-355.45 1825.46,-355.14"/>
<polygon fill="midnightblue" stroke="midnightblue" points="1826.38,-358.53 1835.39,-352.96 1824.87,-351.69 1826.38,-358.53"/>
</g>
<!-- Node26 -->
<g id="node26" class="node">
<title>Node26</title>
<g id="a_node26"><a xlink:title=" ">
<polygon fill="white" stroke="#bfbfbf" points="1366,-336.5 1366,-355.5 1424,-355.5 1424,-336.5 1366,-336.5"/>
<text text-anchor="middle" x="1395" y="-343.5" font-family="Helvetica,sans-Serif" font-size="10.00">memory</text>
</a>
</g>
</g>
<!-- Node25&#45;&gt;Node26 -->
<g id="edge50" class="edge">
<title>Node25&#45;&gt;Node26</title>
<path fill="none" stroke="midnightblue" d="M1434.24,-392.08C1427.46,-384.3 1417.46,-372.8 1409.24,-363.37"/>
<polygon fill="midnightblue" stroke="midnightblue" points="1411.82,-361 1402.62,-355.75 1406.54,-365.59 1411.82,-361"/>
</g>
<!-- Node27 -->
<g id="node27" class="node">
<title>Node27</title>
<g id="a_node27"><a xlink:title=" ">
<polygon fill="white" stroke="#bfbfbf" points="1442.5,-336.5 1442.5,-355.5 1535.5,-355.5 1535.5,-336.5 1442.5,-336.5"/>
<text text-anchor="middle" x="1489" y="-343.5" font-family="Helvetica,sans-Serif" font-size="10.00">unordered_map</text>
</a>
</g>
</g>
<!-- Node25&#45;&gt;Node27 -->
<g id="edge51" class="edge">
<title>Node25&#45;&gt;Node27</title>
<path fill="none" stroke="midnightblue" d="M1449.76,-392.08C1456.54,-384.3 1466.54,-372.8 1474.76,-363.37"/>
<polygon fill="midnightblue" stroke="midnightblue" points="1477.46,-365.59 1481.38,-355.75 1472.18,-361 1477.46,-365.59"/>
</g>
<!-- Node28 -->
<g id="node28" class="node">
<title>Node28</title>
<g id="a_node28"><a xlink:title=" ">
<polygon fill="white" stroke="#bfbfbf" points="1553.5,-336.5 1553.5,-355.5 1618.5,-355.5 1618.5,-336.5 1553.5,-336.5"/>
<text text-anchor="middle" x="1586" y="-343.5" font-family="Helvetica,sans-Serif" font-size="10.00">functional</text>
</a>
</g>
</g>
<!-- Node25&#45;&gt;Node28 -->
<g id="edge52" class="edge">
<title>Node25&#45;&gt;Node28</title>
<path fill="none" stroke="midnightblue" d="M1464.82,-392.44C1488.83,-383.44 1526.83,-369.19 1553.87,-359.05"/>
<polygon fill="midnightblue" stroke="midnightblue" points="1555.16,-362.3 1563.29,-355.52 1552.7,-355.75 1555.16,-362.3"/>
</g>
<!-- Node29 -->
<g id="node29" class="node">
<title>Node29</title>
<g id="a_node29"><a xlink:href="RayError_8hpp.html" target="_top" xlink:title=" ">
<polygon fill="white" stroke="black" points="1098.5,-336.5 1098.5,-355.5 1233.5,-355.5 1233.5,-336.5 1098.5,-336.5"/>
<text text-anchor="middle" x="1166" y="-343.5" font-family="Helvetica,sans-Serif" font-size="10.00">Exceptions/RayError.hpp</text>
</a>
</g>
</g>
<!-- Node25&#45;&gt;Node29 -->
<g id="edge55" class="edge">
<title>Node25&#45;&gt;Node29</title>
<path fill="none" stroke="midnightblue" d="M1398.27,-392.44C1349.82,-382.96 1271.67,-367.67 1219.58,-357.48"/>
<polygon fill="midnightblue" stroke="midnightblue" points="1220.01,-354 1209.53,-355.52 1218.67,-360.87 1220.01,-354"/>
</g>
<!-- Node30 -->
<g id="node30" class="node">
<title>Node30</title>
<g id="a_node30"><a xlink:title=" ">
<polygon fill="white" stroke="#bfbfbf" points="1637,-336.5 1637,-355.5 1701,-355.5 1701,-336.5 1637,-336.5"/>
<text text-anchor="middle" x="1669" y="-343.5" font-family="Helvetica,sans-Serif" font-size="10.00">algorithm</text>
</a>
</g>
</g>
<!-- Node25&#45;&gt;Node30 -->
<g id="edge59" class="edge">
<title>Node25&#45;&gt;Node30</title>
<path fill="none" stroke="midnightblue" d="M1477.97,-392.44C1518.48,-382.81 1584.22,-367.17 1627.04,-356.98"/>
<polygon fill="midnightblue" stroke="midnightblue" points="1627.95,-360.36 1636.87,-354.64 1626.33,-353.55 1627.95,-360.36"/>
</g>
<!-- Node31 -->
<g id="node31" class="node">
<title>Node31</title>
<g id="a_node31"><a xlink:title=" ">
<polygon fill="white" stroke="#bfbfbf" points="1719,-336.5 1719,-355.5 1779,-355.5 1779,-336.5 1719,-336.5"/>
<text text-anchor="middle" x="1749" y="-343.5" font-family="Helvetica,sans-Serif" font-size="10.00">iostream</text>
</a>
</g>
</g>
<!-- Node25&#45;&gt;Node31 -->
<g id="edge61" class="edge">
<title>Node25&#45;&gt;Node31</title>
<path fill="none" stroke="midnightblue" d="M1488.63,-394.04C1540.18,-386.16 1625.89,-372.48 1708.95,-356.11"/>
<polygon fill="midnightblue" stroke="midnightblue" points="1709.68,-359.54 1718.81,-354.16 1708.31,-352.67 1709.68,-359.54"/>
</g>
<!-- Node29&#45;&gt;Node4 -->
<g id="edge57" class="edge">
<title>Node29&#45;&gt;Node4</title>
<path fill="none" stroke="midnightblue" d="M1167.12,-336.43C1169.49,-316.53 1174.34,-265.75 1168,-224 1166.63,-215 1163.81,-205.33 1161.05,-197.26"/>
<polygon fill="midnightblue" stroke="midnightblue" points="1164.31,-195.98 1157.6,-187.78 1157.73,-198.37 1164.31,-195.98"/>
</g>
<!-- Node29&#45;&gt;Node18 -->
<g id="edge56" class="edge">
<title>Node29&#45;&gt;Node18</title>
<path fill="none" stroke="midnightblue" d="M1154.27,-336.32C1143.16,-328.11 1126.26,-315.6 1113.02,-305.81"/>
<polygon fill="midnightblue" stroke="midnightblue" points="1115.06,-302.97 1104.94,-299.83 1110.9,-308.59 1115.06,-302.97"/>
</g>
<!-- Node32&#45;&gt;Node3 -->
<g id="edge63" class="edge">
<title>Node32&#45;&gt;Node3</title>
<path fill="none" stroke="midnightblue" d="M935.18,-392.46C954.37,-375.35 994,-334.73 994,-291 994,-291 994,-291 994,-121 994,-26.05 844.32,-11.93 772.98,-10.59"/>
<polygon fill="midnightblue" stroke="midnightblue" points="772.68,-7.08 762.64,-10.47 772.6,-14.08 772.68,-7.08"/>
</g>
<!-- Node32&#45;&gt;Node20 -->
<g id="edge64" class="edge">
<title>Node32&#45;&gt;Node20</title>
<path fill="none" stroke="midnightblue" d="M912.79,-392.32C901.22,-384.11 883.62,-371.6 869.84,-361.81"/>
<polygon fill="midnightblue" stroke="midnightblue" points="871.61,-358.77 861.43,-355.83 867.56,-364.48 871.61,-358.77"/>
</g>
</g>
</svg>
