# Blender v2.93.0 OBJ File: ''
# www.blender.org
mtllib fireup.mtl
o map_ob000_item_02_bombup.003
v -0.401008 -0.084798 0.397024
v -0.398980 -0.065157 -0.402734
v 0.398990 -0.084798 0.399052
v 0.401017 -0.065157 -0.400706
v -0.401017 0.065157 0.400706
v -0.401008 -0.084798 0.397024
v 0.398980 0.065157 0.402734
v 0.398990 -0.084798 0.399052
v -0.398990 0.084798 -0.399052
v -0.401017 0.065157 0.400706
v 0.401008 0.084798 -0.397024
v 0.398980 0.065157 0.402734
v -0.398980 -0.065157 -0.402734
v -0.398990 0.084798 -0.399052
v 0.401017 -0.065157 -0.400706
v 0.401008 0.084798 -0.397024
v 0.401017 -0.065157 -0.400706
v 0.401008 0.084798 -0.397024
v 0.398990 -0.084798 0.399052
v 0.398980 0.065157 0.402734
v -0.401008 -0.084798 0.397024
v -0.401017 0.065157 0.400706
v -0.398980 -0.065157 -0.402734
v -0.398990 0.084798 -0.399052
vt 0.001000 0.248000
vt 0.001000 0.002000
vt 0.124000 0.248000
vt 0.124000 0.002000
vt 0.632244 0.754140
vt 0.648280 0.754140
vt 0.632244 0.996259
vt 0.648280 0.996259
vt 0.124000 0.002000
vt 0.124000 0.248000
vt 0.001000 0.002000
vt 0.001000 0.248000
vt 0.648280 0.996259
vt 0.632244 0.996259
vt 0.648280 0.754140
vt 0.632244 0.754140
vt 0.648280 0.996259
vt 0.632244 0.996259
vt 0.648280 0.754140
vt 0.632244 0.754140
vt 0.648280 0.996259
vt 0.632244 0.996259
vt 0.648280 0.754140
vt 0.632244 0.754140
vn 0.0001 -0.9997 -0.0246
vn -0.0025 -0.0245 0.9997
vn -0.0001 0.9997 0.0246
vn 0.0025 0.0245 -0.9997
vn 1.0000 -0.0000 0.0025
vn -1.0000 0.0000 -0.0025
usemtl mat_map_ob000_item_007.005
s 1
f 1/1/1 2/2/1 3/3/1
f 3/3/1 2/2/1 4/4/1
f 5/5/2 6/6/2 7/7/2
f 7/7/2 6/6/2 8/8/2
f 9/9/3 10/10/3 11/11/3
f 11/11/3 10/10/3 12/12/3
f 13/13/4 14/14/4 15/15/4
f 15/15/4 14/14/4 16/16/4
f 17/17/5 18/18/5 19/19/5
f 19/19/5 18/18/5 20/20/5
f 21/21/6 22/22/6 23/23/6
f 23/23/6 22/22/6 24/24/6
