# Blender v2.93.0 OBJ File: ''
# www.blender.org
mtllib speedup.mtl
o map_ob000_item_03_speedup.001
v -0.403210 -0.086631 0.394388
v -0.396728 -0.063305 -0.405246
v 0.396764 -0.086631 0.400873
v 0.403246 -0.063305 -0.398762
v -0.403246 0.063305 0.398762
v -0.403210 -0.086631 0.394388
v 0.396728 0.063305 0.405246
v 0.396764 -0.086631 0.400873
v -0.396764 0.086631 -0.400873
v -0.403246 0.063305 0.398762
v 0.403210 0.086631 -0.394388
v 0.396728 0.063305 0.405246
v -0.396728 -0.063305 -0.405246
v -0.396764 0.086631 -0.400873
v 0.403246 -0.063305 -0.398762
v 0.403210 0.086631 -0.394388
v 0.403246 -0.063305 -0.398762
v 0.403210 0.086631 -0.394388
v 0.396764 -0.086631 0.400873
v 0.396728 0.063305 0.405246
v -0.403210 -0.086631 0.394388
v -0.403246 0.063305 0.398762
v -0.396728 -0.063305 -0.405246
v -0.396764 0.086631 -0.400873
vt 0.001000 0.748000
vt 0.001000 0.502000
vt 0.124000 0.748000
vt 0.124000 0.502000
vt 0.632244 0.754140
vt 0.648280 0.754140
vt 0.632244 0.996259
vt 0.648280 0.996259
vt 0.124000 0.502000
vt 0.124000 0.748000
vt 0.001000 0.502000
vt 0.001000 0.748000
vt 0.648280 0.996259
vt 0.632244 0.996259
vt 0.648280 0.754140
vt 0.632244 0.754140
vt 0.648280 0.996259
vt 0.632244 0.996259
vt 0.648280 0.754140
vt 0.632244 0.754140
vt 0.648280 0.996259
vt 0.632244 0.996259
vt 0.648280 0.754140
vt 0.632244 0.754140
vn 0.0002 -0.9996 -0.0292
vn -0.0081 -0.0292 0.9995
vn -0.0002 0.9996 0.0292
vn 0.0081 0.0292 -0.9995
vn 1.0000 0.0000 0.0081
vn -1.0000 0.0000 -0.0081
usemtl mat_map_ob000_item_007.006
s 1
f 1/1/1 2/2/1 3/3/1
f 3/3/1 2/2/1 4/4/1
f 5/5/2 6/6/2 7/7/2
f 7/7/2 6/6/2 8/8/2
f 9/9/3 10/10/3 11/11/3
f 11/11/3 10/10/3 12/12/3
f 13/13/4 14/14/4 15/15/4
f 15/15/4 14/14/4 16/16/4
f 17/17/5 18/18/5 19/19/5
f 19/19/5 18/18/5 20/20/5
f 21/21/6 22/22/6 23/23/6
f 23/23/6 22/22/6 24/24/6
