# Blender v2.92.0 OBJ File: ''
# www.blender.org
mtllib upper_floor.mtl
o floor
v -0.500000 -0.500000 0.500000
v 0.500000 -0.500000 0.500000
v -0.500000 0.500000 0.500000
v 0.500000 0.500000 0.500000
v -0.500000 0.500000 -0.500000
v 0.500000 0.500000 -0.500000
v -0.500000 -0.500000 -0.500000
v 0.500000 -0.500000 -0.500000
vt 0.414214 0.414214
vt 0.000000 0.414214
vt 0.414214 0.000000
vt 0.000000 0.000000
vt 0.000000 0.000000
vt 1.000000 0.000000
vt 0.000000 1.000000
vt 1.000000 1.000000
vt 0.000000 0.000000
vt 1.000000 0.000000
vt 0.000000 1.000000
vt 0.707107 0.414214
vt 0.707107 1.000000
vt 0.414214 0.707107
vt 0.000000 0.000000
vt 0.000000 1.000000
vt 1.000000 1.000000
vt 0.828427 0.000000
vt 0.828427 0.414214
vt 0.414214 0.000000
vt 0.414214 0.414214
vt 0.414214 0.828427
vt 0.000000 0.828427
vt 0.414214 0.414214
vt 0.000000 0.414214
vn 0.0000 -0.0000 1.0000
vn 0.0000 0.0000 -1.0000
vn 0.0000 -1.0000 -0.0000
vn 1.0000 0.0000 0.0000
vn -1.0000 0.0000 0.0000
vn 0.0000 1.0000 0.0000
usemtl floor
s 1
f 1/1/1 2/2/1 3/3/1
f 3/3/1 2/2/1 4/4/1
f 5/5/2 6/6/2 7/7/2
f 7/7/2 6/6/2 8/8/2
f 7/9/3 8/10/3 1/11/3
f 1/12/3 8/13/3 2/14/3
f 2/15/4 8/10/4 4/16/4
f 4/16/4 8/10/4 6/17/4
f 7/18/5 1/19/5 5/20/5
f 5/20/5 1/19/5 3/21/5
usemtl Material.001
f 3/22/6 4/23/6 5/24/6
f 5/24/6 4/23/6 6/25/6
